<?xml version="1.0" standalone="no"?>
 <!DOCTYPE svg PUBLIC "-//W3C//DTD SVG 1.1//EN" 
 "http://www.w3.org/Graphics/SVG/1.1/DTD/svg11.dtd"> 
<svg
  xmlns:svg="http://www.w3.org/2000/svg"
  xmlns="http://www.w3.org/2000/svg"
  xmlns:xlink="http://www.w3.org/1999/xlink"
  version="1.1"
  width="27.8384mm" height="57.7342mm" viewBox="0.0000 0.0000 27.8384 57.7342">
<title>SVG Image created as Lyrav3-F_Silkscreen.svg date 2023/12/24 20:38:21 </title>
  <desc>Image generated by PCBNEW </desc>
<g style="fill:#000000; fill-opacity:1.0000;stroke:#000000; stroke-opacity:1.0000;
stroke-linecap:round; stroke-linejoin:round;"
 transform="translate(0 0) scale(1 1)">
</g>
<g style="fill:#000000; fill-opacity:0.0; 
stroke:#000000; stroke-width:0.0000; stroke-opacity:1; 
stroke-linecap:round; stroke-linejoin:round;">
</g>
<g style="fill:#F2EDA1; fill-opacity:0.0; 
stroke:#F2EDA1; stroke-width:0.0000; stroke-opacity:1; 
stroke-linecap:round; stroke-linejoin:round;">
</g>
<g style="fill:#F2EDA1; fill-opacity:0.0; 
stroke:#F2EDA1; stroke-width:0.2500; stroke-opacity:1; 
stroke-linecap:round; stroke-linejoin:round;">
<text x="4.9784" y="17.5260"
textLength="1.6631" font-size="1.3333" lengthAdjust="spacingAndGlyphs"
text-anchor="start" opacity="0">+</text>
<g class="stroked-text"><desc>+</desc>
<path d="M5.3810 17.0097
L6.1429 17.0097
" />
<path d="M5.7619 17.3906
L5.7619 16.6287
" />
</g><text x="4.9530" y="20.0914"
textLength="1.6631" font-size="1.3333" lengthAdjust="spacingAndGlyphs"
text-anchor="start" opacity="0">+</text>
<g class="stroked-text"><desc>+</desc>
<path d="M5.3556 19.5751
L6.1175 19.5751
" />
<path d="M5.7365 19.9560
L5.7365 19.1941
" />
</g><text x="4.8768" y="22.5806"
textLength="1.6631" font-size="1.3333" lengthAdjust="spacingAndGlyphs"
text-anchor="start" opacity="0">-</text>
<g class="stroked-text"><desc>-</desc>
<path d="M5.2794 22.0643
L6.0413 22.0643
" />
</g><text x="4.1148" y="25.8064"
textLength="3.2345" font-size="1.3333" lengthAdjust="spacingAndGlyphs"
text-anchor="start" opacity="0">CLK</text>
<g class="stroked-text"><desc>CLK</desc>
<path d="M5.0888 25.5758
L5.0412 25.6234
" />
<path d="M5.0412 25.6234
L4.8983 25.6710
" />
<path d="M4.8983 25.6710
L4.8031 25.6710
" />
<path d="M4.8031 25.6710
L4.6602 25.6234
" />
<path d="M4.6602 25.6234
L4.5650 25.5282
" />
<path d="M4.5650 25.5282
L4.5174 25.4329
" />
<path d="M4.5174 25.4329
L4.4697 25.2424
" />
<path d="M4.4697 25.2424
L4.4697 25.0996
" />
<path d="M4.4697 25.0996
L4.5174 24.9091
" />
<path d="M4.5174 24.9091
L4.5650 24.8139
" />
<path d="M4.5650 24.8139
L4.6602 24.7186
" />
<path d="M4.6602 24.7186
L4.8031 24.6710
" />
<path d="M4.8031 24.6710
L4.8983 24.6710
" />
<path d="M4.8983 24.6710
L5.0412 24.7186
" />
<path d="M5.0412 24.7186
L5.0888 24.7663
" />
<path d="M5.9936 25.6710
L5.5174 25.6710
" />
<path d="M5.5174 25.6710
L5.5174 24.6710
" />
<path d="M6.3269 25.6710
L6.3269 24.6710
" />
<path d="M6.8983 25.6710
L6.4697 25.0996
" />
<path d="M6.8983 24.6710
L6.3269 25.2424
" />
</g></g>
<g style="fill:#F2EDA1; fill-opacity:0.0; 
stroke:#F2EDA1; stroke-width:0.2000; stroke-opacity:1; 
stroke-linecap:round; stroke-linejoin:round;">
<path d="M8.4836 36.7538
L18.7452 36.7538
" />
<path d="M8.4836 41.8846
L18.7452 41.8846
" />
</g>
<g style="fill:#F2EDA1; fill-opacity:1.0000; 
stroke:#F2EDA1; stroke-width:0.2000; stroke-opacity:1; 
stroke-linecap:round; stroke-linejoin:round;">
<path style="fill:#F2EDA1; fill-opacity:1.0000; 
stroke:#F2EDA1; stroke-width:0.2000; stroke-opacity:1; 
stroke-linecap:round; stroke-linejoin:round;fill-rule:evenodd;"
d="M 7.5946,50.5460
20.0406,50.5460
20.0406,56.1594
7.5946,56.1594
Z" /> 
</g>
<g style="fill:#F2EDA1; fill-opacity:0.0; 
stroke:#F2EDA1; stroke-width:0.2000; stroke-opacity:1; 
stroke-linecap:round; stroke-linejoin:round;">
<path d="M8.4836 46.9646
L18.7452 46.9646
" />
</g>
<g style="fill:#F2EDA1; fill-opacity:1.0000; 
stroke:#F2EDA1; stroke-width:0.2000; stroke-opacity:1; 
stroke-linecap:round; stroke-linejoin:round;">
<path style="fill:#F2EDA1; fill-opacity:1.0000; 
stroke:#F2EDA1; stroke-width:0.2000; stroke-opacity:1; 
stroke-linecap:round; stroke-linejoin:round;fill-rule:evenodd;"
d="M 12.8270,34.3662
14.4272,34.3662
14.4272,44.4246
12.8270,44.4246
Z" /> 
</g>
<g style="fill:#F2EDA1; fill-opacity:0.0; 
stroke:#F2EDA1; stroke-width:0.2000; stroke-opacity:1; 
stroke-linecap:round; stroke-linejoin:round;">
<path d="M8.4328 39.2938
L18.6944 39.2938
" />
</g>
<g style="fill:#F2EDA1; fill-opacity:1.0000; 
stroke:#F2EDA1; stroke-width:0.2000; stroke-opacity:1; 
stroke-linecap:round; stroke-linejoin:round;">
<path style="fill:#F2EDA1; fill-opacity:1.0000; 
stroke:#F2EDA1; stroke-width:0.2000; stroke-opacity:1; 
stroke-linecap:round; stroke-linejoin:round;fill-rule:evenodd;"
d="M 12.5984,41.5798
14.3764,41.5798
14.3764,44.7294
12.5984,44.7294
Z" /> 
</g>
<g style="fill:#F2EDA1; fill-opacity:0.0; 
stroke:#F2EDA1; stroke-width:0.2000; stroke-opacity:1; 
stroke-linecap:round; stroke-linejoin:round;">
<path d="M14.2748 49.4030
L14.3764 39.2938
" />
<path d="M8.4328 44.4246
L18.6944 44.4246
" />
</g>
<g style="fill:#F2EDA1; fill-opacity:0.0; 
stroke:#F2EDA1; stroke-width:0.2250; stroke-opacity:1; 
stroke-linecap:round; stroke-linejoin:round;">
</g>
<g style="fill:#F2EDA1; fill-opacity:1.0000; 
stroke:#F2EDA1; stroke-width:0.0000; stroke-opacity:1; 
stroke-linecap:round; stroke-linejoin:round;">
<path style="fill:#F2EDA1; fill-opacity:1.0000; 
stroke:#F2EDA1; stroke-width:0.0000; stroke-opacity:1; 
stroke-linecap:round; stroke-linejoin:round;fill-rule:evenodd;"
d="M 13.7677,41.8452
8.3492,41.8452
8.3492,40.4338
9.0515,40.4338
9.0556,40.4436
9.0556,40.5104
9.0527,40.5372
9.0630,40.5578
9.0695,40.5798
9.0775,40.5868
9.1088,40.6494
9.1128,40.6679
9.1347,40.6898
9.1558,40.7125
9.1580,40.7130
9.1738,40.7289
9.1835,40.7451
9.2112,40.7590
9.2384,40.7739
9.2406,40.7737
9.2903,40.7986
9.2992,40.8080
9.3193,40.8131
9.3227,40.8148
9.3349,40.8170
9.5098,40.8607
9.5777,40.8946
9.5995,40.9164
9.6270,40.9716
9.6270,41.0137
9.5995,41.0688
9.5777,41.0906
9.5225,41.1182
9.3292,41.1182
9.1883,41.0713
9.1392,41.0695
9.0823,41.1032
9.0527,41.1622
9.0598,41.2279
9.1012,41.2794
9.2620,41.3330
9.2779,41.3432
9.3089,41.3432
9.3399,41.3443
9.3418,41.3432
9.5430,41.3432
9.5698,41.3461
9.5904,41.3358
9.6124,41.3294
9.6194,41.3213
9.6820,41.2900
9.7005,41.2860
9.7224,41.2641
9.7451,41.2430
9.7456,41.2408
9.7615,41.2250
9.7778,41.2153
9.7916,41.1876
9.8065,41.1604
9.8063,41.1582
9.8374,41.0960
9.8520,41.0733
9.8520,41.0503
9.8561,41.0277
9.8520,41.0178
9.8520,40.9511
9.8549,40.9242
9.8446,40.9037
9.8382,40.8816
9.8301,40.8747
9.7988,40.8121
9.7948,40.7936
9.7729,40.7717
9.7518,40.7490
9.7497,40.7484
9.7338,40.7326
9.7241,40.7163
9.6964,40.7024
9.6692,40.6876
9.6670,40.6877
9.6173,40.6629
9.6084,40.6534
9.5883,40.6484
9.5849,40.6467
9.5727,40.6445
9.3978,40.6008
9.3300,40.5668
9.3082,40.5450
9.2806,40.4899
9.2806,40.4478
9.3082,40.3926
9.3300,40.3708
9.3851,40.3432
9.5784,40.3432
9.7193,40.3902
9.7685,40.3920
9.8253,40.3583
9.8549,40.2992
9.8479,40.2335
9.8407,40.2246
9.9558,40.2246
10.1988,41.2453
10.1993,41.2666
10.2154,41.2903
10.2297,41.3152
10.2338,41.3174
10.2364,41.3212
10.2628,41.3325
10.2883,41.3458
10.2929,41.3453
10.2972,41.3472
10.3255,41.3424
10.3541,41.3398
10.3577,41.3369
10.3623,41.3361
10.3835,41.3168
10.4062,41.2991
10.4077,41.2948
10.4111,41.2916
10.4185,41.2639
10.4281,41.2368
10.4270,41.2323
10.5014,40.9531
10.5802,41.2483
10.5813,41.2695
10.5980,41.2929
10.6129,41.3174
10.6171,41.3194
10.6198,41.3232
10.6465,41.3337
10.6723,41.3463
10.6769,41.3458
10.6813,41.3475
10.7094,41.3419
10.7379,41.3386
10.7415,41.3356
10.7461,41.3347
10.7668,41.3148
10.7889,41.2966
10.7904,41.2921
10.7937,41.2889
10.8004,41.2610
10.8091,41.2336
10.8079,41.2292
10.8943,40.8665
11.1949,40.8665
11.2223,40.9265
11.2779,40.9623
12.0890,40.9623
12.1363,40.9484
12.1795,40.8985
12.1889,40.8331
12.1615,40.7730
12.1059,40.7373
11.2948,40.7373
11.2476,40.7511
11.2043,40.8011
11.1949,40.8665
10.8943,40.8665
11.0432,40.2410
11.0406,40.1919
11.0021,40.1382
10.9407,40.1140
10.8758,40.1267
10.8282,40.1725
10.6857,40.7709
10.6136,40.5003
10.6131,40.4806
10.5961,40.4556
10.5804,40.4298
10.5777,40.4284
10.5760,40.4259
10.5482,40.4141
10.5210,40.4008
10.5180,40.4012
10.5152,40.4000
10.4854,40.4050
10.4554,40.4086
10.4531,40.4105
10.4501,40.4110
10.4277,40.4314
10.4044,40.4506
10.4035,40.4535
10.4012,40.4555
10.3935,40.4847
10.3842,40.5135
10.3850,40.5164
10.3171,40.7709
10.1786,40.1889
10.1541,40.1462
10.0955,40.1157
10.0298,40.1217
9.9776,40.1623
9.9558,40.2246
9.8407,40.2246
9.8064,40.1821
9.6456,40.1285
9.6297,40.1182
9.5987,40.1182
9.5677,40.1171
9.5658,40.1182
9.3646,40.1182
9.3378,40.1153
9.3172,40.1256
9.2952,40.1321
9.2882,40.1401
9.2256,40.1714
9.2071,40.1754
9.1852,40.1974
9.1625,40.2185
9.1620,40.2206
9.1461,40.2364
9.1299,40.2461
9.1160,40.2738
9.1012,40.3010
9.1013,40.3032
9.0702,40.3655
9.0556,40.3882
9.0556,40.4112
9.0515,40.4338
8.3492,40.4338
8.3492,39.3219
13.7677,39.3219
Z" /> 
</g>
<g style="fill:#F2EDA1; fill-opacity:1.0000; 
stroke:#F2EDA1; stroke-width:0.2250; stroke-opacity:1; 
stroke-linecap:round; stroke-linejoin:round;">
</g>
<g style="fill:#F2EDA1; fill-opacity:1.0000; 
stroke:#F2EDA1; stroke-width:0.0000; stroke-opacity:1; 
stroke-linecap:round; stroke-linejoin:round;">
<path style="fill:#F2EDA1; fill-opacity:1.0000; 
stroke:#F2EDA1; stroke-width:0.0000; stroke-opacity:1; 
stroke-linecap:round; stroke-linejoin:round;fill-rule:evenodd;"
d="M 15.6387,40.3708
15.6605,40.3926
15.6881,40.4478
15.6881,40.5375
15.6605,40.5926
15.6387,40.6144
15.5836,40.6420
15.3417,40.6420
15.3417,40.3432
15.5836,40.3432
Z" /> 
<path style="fill:#F2EDA1; fill-opacity:1.0000; 
stroke:#F2EDA1; stroke-width:0.0000; stroke-opacity:1; 
stroke-linecap:round; stroke-linejoin:round;fill-rule:evenodd;"
d="M 18.8100,41.8452
14.2963,41.8452
14.2963,40.7712
15.1131,40.7712
15.1167,40.7790
15.1167,41.2469
15.1306,41.2941
15.1805,41.3374
15.2459,41.3468
15.3060,41.3193
15.3417,41.2638
15.3417,41.2474
16.0179,41.2474
16.0232,41.2590
16.0241,41.2717
16.0366,41.2885
16.0453,41.3075
16.0561,41.3144
16.0637,41.3246
16.0833,41.3319
16.1009,41.3432
16.1137,41.3432
16.1256,41.3477
16.1461,41.3432
16.7692,41.3432
16.8164,41.3294
16.8597,41.2794
16.8691,41.2140
16.8416,41.1539
16.7860,41.1182
16.4056,41.1182
16.6573,40.8665
17.0655,40.8665
17.0930,40.9265
17.1485,40.9623
17.4500,40.9623
17.4500,41.2469
17.4639,41.2941
17.5138,41.3374
17.5792,41.3468
17.6393,41.3193
17.6750,41.2638
17.6750,40.9623
17.9597,40.9623
18.0069,40.9484
18.0501,40.8985
18.0595,40.8331
18.0321,40.7730
17.9765,40.7373
17.6750,40.7373
17.6750,40.4526
17.6612,40.4054
17.6112,40.3622
17.5458,40.3528
17.4857,40.3802
17.4500,40.4358
17.4500,40.7373
17.1654,40.7373
17.1182,40.7511
17.0749,40.8011
17.0655,40.8665
16.6573,40.8665
16.7807,40.7431
16.8017,40.7262
16.8089,40.7044
16.8200,40.6842
16.8192,40.6736
16.8553,40.5654
16.8655,40.5495
16.8655,40.5184
16.8666,40.4875
16.8655,40.4856
16.8655,40.4273
16.8684,40.4004
16.8581,40.3799
16.8516,40.3578
16.8436,40.3508
16.8123,40.2883
16.8083,40.2698
16.7864,40.2478
16.7653,40.2251
16.7631,40.2246
16.7473,40.2088
16.7376,40.1925
16.7099,40.1786
16.6827,40.1638
16.6805,40.1639
16.6183,40.1328
16.5956,40.1182
16.5726,40.1182
16.5499,40.1141
16.5401,40.1182
16.3305,40.1182
16.3037,40.1153
16.2831,40.1256
16.2610,40.1321
16.2541,40.1401
16.1915,40.1714
16.1730,40.1754
16.1511,40.1974
16.1284,40.2185
16.1278,40.2206
16.0906,40.2578
16.0670,40.3010
16.0717,40.3669
16.1113,40.4198
16.1732,40.4429
16.2378,40.4289
16.2958,40.3708
16.3510,40.3432
16.5360,40.3432
16.5911,40.3708
16.6129,40.3926
16.6405,40.4478
16.6405,40.4982
16.6071,40.5985
16.0747,41.1309
16.0706,41.1321
16.0516,41.1540
16.0430,41.1626
16.0410,41.1662
16.0273,41.1820
16.0255,41.1946
16.0194,41.2058
16.0209,41.2267
16.0179,41.2474
15.3417,41.2474
15.3417,40.8670
15.6041,40.8670
15.6309,40.8699
15.6515,40.8596
15.6735,40.8532
15.6805,40.8451
15.7431,40.8138
15.7616,40.8098
15.7835,40.7879
15.8062,40.7668
15.8067,40.7647
15.8226,40.7488
15.8389,40.7391
15.8527,40.7114
15.8676,40.6842
15.8674,40.6820
15.8985,40.6198
15.9131,40.5971
15.9131,40.5741
15.9172,40.5515
15.9131,40.5416
15.9131,40.4273
15.9160,40.4004
15.9057,40.3799
15.8993,40.3578
15.8912,40.3508
15.8599,40.2883
15.8559,40.2698
15.8340,40.2478
15.8129,40.2251
15.8107,40.2246
15.7949,40.2088
15.7852,40.1925
15.7575,40.1786
15.7303,40.1638
15.7281,40.1639
15.6659,40.1328
15.6432,40.1182
15.6202,40.1182
15.5976,40.1141
15.5877,40.1182
15.2372,40.1182
15.2125,40.1147
15.1898,40.1250
15.1658,40.1321
15.1602,40.1386
15.1524,40.1421
15.1389,40.1631
15.1225,40.1820
15.1213,40.1905
15.1167,40.1977
15.1167,40.2227
15.1131,40.2474
15.1167,40.2552
15.1167,40.7465
15.1131,40.7712
14.2963,40.7712
14.2963,39.3219
18.8100,39.3219
Z" /> 
</g>
<g style="fill:#F2EDA1; fill-opacity:1.0000; 
stroke:#F2EDA1; stroke-width:0.2250; stroke-opacity:1; 
stroke-linecap:round; stroke-linejoin:round;">
</g>
<g style="fill:#F2EDA1; fill-opacity:1.0000; 
stroke:#F2EDA1; stroke-width:0.0000; stroke-opacity:1; 
stroke-linecap:round; stroke-linejoin:round;">
<path style="fill:#F2EDA1; fill-opacity:1.0000; 
stroke:#F2EDA1; stroke-width:0.0000; stroke-opacity:1; 
stroke-linecap:round; stroke-linejoin:round;fill-rule:evenodd;"
d="M 10.4882,45.9125
10.3242,45.9125
10.4062,45.6665
Z" /> 
<path style="fill:#F2EDA1; fill-opacity:1.0000; 
stroke:#F2EDA1; stroke-width:0.0000; stroke-opacity:1; 
stroke-linecap:round; stroke-linejoin:round;fill-rule:evenodd;"
d="M 9.6311,45.9329
9.6471,45.9488
9.6746,46.0039
9.6746,46.0937
9.6471,46.1488
9.6253,46.1706
9.5701,46.1982
9.3282,46.1982
9.3282,45.8994
9.5308,45.8994
Z" /> 
<path style="fill:#F2EDA1; fill-opacity:1.0000; 
stroke:#F2EDA1; stroke-width:0.0000; stroke-opacity:1; 
stroke-linecap:round; stroke-linejoin:round;fill-rule:evenodd;"
d="M 9.5777,45.4508
9.5995,45.4726
9.6270,45.5278
9.6270,45.5699
9.5995,45.6250
9.5777,45.6468
9.5244,45.6734
9.5201,45.6733
9.5182,45.6744
9.3282,45.6744
9.3282,45.4232
9.5225,45.4232
Z" /> 
<path style="fill:#F2EDA1; fill-opacity:1.0000; 
stroke:#F2EDA1; stroke-width:0.0000; stroke-opacity:1; 
stroke-linecap:round; stroke-linejoin:round;fill-rule:evenodd;"
d="M 14.2915,46.9252
8.3492,46.9252
8.3492,46.3274
9.0997,46.3274
9.1100,46.3501
9.1171,46.3741
9.1236,46.3797
9.1271,46.3875
9.1481,46.4010
9.1670,46.4174
9.1755,46.4186
9.1827,46.4232
9.2077,46.4232
9.2324,46.4268
9.2402,46.4232
9.5906,46.4232
9.6174,46.4261
9.6380,46.4158
9.6601,46.4094
9.6670,46.4013
9.7296,46.3700
9.7481,46.3660
9.7700,46.3441
9.7748,46.3397
9.9592,46.3397
9.9929,46.3965
10.0520,46.4261
10.1177,46.4191
10.1691,46.3776
10.2492,46.1375
10.5632,46.1375
10.6379,46.3616
10.6660,46.4020
10.7270,46.4273
10.7921,46.4155
10.8404,46.3705
10.8567,46.3065
10.7594,46.0147
10.7603,46.0083
10.7491,45.9837
10.5303,45.3274
10.8140,45.3274
10.8414,45.3875
10.8970,45.4232
11.1032,45.4232
11.1032,46.3269
11.1171,46.3741
11.1670,46.4174
11.2324,46.4268
11.2925,46.3993
11.3282,46.3438
11.3282,45.4232
11.5176,45.4232
11.5648,45.4094
11.5966,45.3727
11.6033,45.3875
11.6589,45.4232
11.8651,45.4232
11.8651,46.3269
11.8790,46.3741
11.9289,46.4174
11.9943,46.4268
12.0544,46.3993
12.0901,46.3438
12.0901,45.9465
12.4806,45.9465
12.5081,46.0065
12.5636,46.0423
13.3748,46.0423
13.4220,46.0284
13.4652,45.9785
13.4746,45.9131
13.4472,45.8530
13.3916,45.8173
12.5805,45.8173
12.5333,45.8311
12.4900,45.8811
12.4806,45.9465
12.0901,45.9465
12.0901,45.4232
12.2795,45.4232
12.3267,45.4094
12.3700,45.3594
12.3794,45.2940
12.3520,45.2339
12.2964,45.1982
11.9857,45.1982
11.9609,45.1947
11.9532,45.1982
11.6757,45.1982
11.6285,45.2121
11.5968,45.2487
11.5900,45.2339
11.5345,45.1982
11.2238,45.1982
11.1990,45.1947
11.1912,45.1982
10.9138,45.1982
10.8666,45.2121
10.8234,45.2620
10.8140,45.3274
10.5303,45.3274
10.5194,45.2944
10.5198,45.2818
10.5091,45.2637
10.5078,45.2598
10.5009,45.2499
10.4861,45.2249
10.4822,45.2230
10.4797,45.2194
10.4530,45.2083
10.4271,45.1953
10.4227,45.1958
10.4187,45.1941
10.3902,45.1993
10.3614,45.2024
10.3580,45.2051
10.3537,45.2059
10.3325,45.2256
10.3099,45.2438
10.3085,45.2480
10.3053,45.2509
10.2982,45.2790
10.0684,45.9682
10.0614,45.9763
10.0582,45.9990
9.9610,46.2905
9.9592,46.3397
9.7748,46.3397
9.7927,46.3230
9.7933,46.3208
9.8091,46.3050
9.8254,46.2953
9.8392,46.2676
9.8541,46.2404
9.8539,46.2382
9.8851,46.1760
9.8996,46.1533
9.8996,46.1303
9.9037,46.1077
9.8996,46.0978
9.8996,45.9834
9.9025,45.9566
9.8923,45.9361
9.8858,45.9140
9.8778,45.9070
9.8465,45.8444
9.8424,45.8260
9.8205,45.8040
9.7994,45.7813
9.7973,45.7808
9.7812,45.7647
9.7916,45.7438
9.8065,45.7166
9.8063,45.7144
9.8374,45.6522
9.8520,45.6295
9.8520,45.6065
9.8561,45.5838
9.8520,45.5740
9.8520,45.5072
9.8549,45.4804
9.8446,45.4599
9.8382,45.4378
9.8301,45.4308
9.7988,45.3683
9.7948,45.3498
9.7729,45.3278
9.7518,45.3051
9.7497,45.3046
9.7338,45.2888
9.7241,45.2725
9.6964,45.2586
9.6692,45.2438
9.6670,45.2439
9.6048,45.2128
9.5821,45.1982
9.5591,45.1982
9.5365,45.1941
9.5267,45.1982
9.2238,45.1982
9.1990,45.1947
9.1763,45.2050
9.1523,45.2121
9.1467,45.2186
9.1389,45.2221
9.1254,45.2431
9.1091,45.2620
9.1078,45.2705
9.1032,45.2777
9.1032,45.3027
9.0997,45.3274
9.1032,45.3352
9.1032,45.7789
9.0997,45.8036
9.1032,45.8114
9.1032,46.3027
9.0997,46.3274
8.3492,46.3274
8.3492,44.4019
14.2915,44.4019
Z" /> 
</g>
<g style="fill:#F2EDA1; fill-opacity:1.0000; 
stroke:#F2EDA1; stroke-width:0.2250; stroke-opacity:1; 
stroke-linecap:round; stroke-linejoin:round;">
</g>
<g style="fill:#F2EDA1; fill-opacity:1.0000; 
stroke:#F2EDA1; stroke-width:0.0000; stroke-opacity:1; 
stroke-linecap:round; stroke-linejoin:round;">
<path style="fill:#F2EDA1; fill-opacity:1.0000; 
stroke:#F2EDA1; stroke-width:0.0000; stroke-opacity:1; 
stroke-linecap:round; stroke-linejoin:round;fill-rule:evenodd;"
d="M 15.6387,42.9108
15.6605,42.9326
15.6881,42.9878
15.6881,43.0775
15.6605,43.1326
15.6387,43.1544
15.5836,43.1820
15.3417,43.1820
15.3417,42.8832
15.5836,42.8832
Z" /> 
<path style="fill:#F2EDA1; fill-opacity:1.0000; 
stroke:#F2EDA1; stroke-width:0.0000; stroke-opacity:1; 
stroke-linecap:round; stroke-linejoin:round;fill-rule:evenodd;"
d="M 18.8100,44.3852
14.2963,44.3852
14.2963,43.3112
15.1131,43.3112
15.1167,43.3190
15.1167,43.7869
15.1306,43.8341
15.1805,43.8774
15.2459,43.8868
15.3060,43.8593
15.3417,43.8038
15.3417,43.7874
16.0179,43.7874
16.0232,43.7990
16.0241,43.8117
16.0366,43.8285
16.0453,43.8475
16.0561,43.8544
16.0637,43.8646
16.0833,43.8719
16.1009,43.8832
16.1137,43.8832
16.1256,43.8877
16.1461,43.8832
16.7692,43.8832
16.8164,43.8694
16.8597,43.8194
16.8691,43.7540
16.8416,43.6939
16.7860,43.6582
16.4056,43.6582
16.6573,43.4065
17.0655,43.4065
17.0930,43.4665
17.1485,43.5023
17.9597,43.5023
18.0069,43.4884
18.0501,43.4385
18.0595,43.3731
18.0321,43.3130
17.9765,43.2773
17.1654,43.2773
17.1182,43.2911
17.0749,43.3411
17.0655,43.4065
16.6573,43.4065
16.7807,43.2831
16.8017,43.2662
16.8089,43.2444
16.8200,43.2242
16.8192,43.2136
16.8553,43.1054
16.8655,43.0895
16.8655,43.0584
16.8666,43.0275
16.8655,43.0256
16.8655,42.9672
16.8684,42.9404
16.8581,42.9199
16.8516,42.8978
16.8436,42.8908
16.8123,42.8283
16.8083,42.8098
16.7864,42.7878
16.7653,42.7651
16.7631,42.7646
16.7473,42.7488
16.7376,42.7325
16.7099,42.7186
16.6827,42.7038
16.6805,42.7039
16.6183,42.6728
16.5956,42.6582
16.5726,42.6582
16.5499,42.6541
16.5401,42.6582
16.3305,42.6582
16.3037,42.6553
16.2831,42.6656
16.2610,42.6721
16.2541,42.6801
16.1915,42.7114
16.1730,42.7154
16.1511,42.7374
16.1284,42.7585
16.1278,42.7606
16.0906,42.7978
16.0670,42.8410
16.0717,42.9069
16.1113,42.9598
16.1732,42.9829
16.2378,42.9689
16.2958,42.9108
16.3510,42.8832
16.5360,42.8832
16.5911,42.9108
16.6129,42.9326
16.6405,42.9878
16.6405,43.0382
16.6071,43.1385
16.0747,43.6709
16.0706,43.6721
16.0516,43.6940
16.0430,43.7026
16.0410,43.7062
16.0273,43.7220
16.0255,43.7346
16.0194,43.7458
16.0209,43.7667
16.0179,43.7874
15.3417,43.7874
15.3417,43.4070
15.6041,43.4070
15.6309,43.4099
15.6515,43.3996
15.6735,43.3932
15.6805,43.3851
15.7431,43.3538
15.7616,43.3498
15.7835,43.3279
15.8062,43.3068
15.8067,43.3047
15.8226,43.2888
15.8389,43.2791
15.8527,43.2514
15.8676,43.2242
15.8674,43.2220
15.8985,43.1598
15.9131,43.1371
15.9131,43.1141
15.9172,43.0915
15.9131,43.0816
15.9131,42.9672
15.9160,42.9404
15.9057,42.9199
15.8993,42.8978
15.8912,42.8908
15.8599,42.8283
15.8559,42.8098
15.8340,42.7878
15.8129,42.7651
15.8107,42.7646
15.7949,42.7488
15.7852,42.7325
15.7575,42.7186
15.7303,42.7038
15.7281,42.7039
15.6659,42.6728
15.6432,42.6582
15.6202,42.6582
15.5976,42.6541
15.5877,42.6582
15.2372,42.6582
15.2125,42.6547
15.1898,42.6650
15.1658,42.6721
15.1602,42.6786
15.1524,42.6821
15.1389,42.7031
15.1225,42.7220
15.1213,42.7305
15.1167,42.7377
15.1167,42.7627
15.1131,42.7874
15.1167,42.7952
15.1167,43.2865
15.1131,43.3112
14.2963,43.3112
14.2963,41.8619
18.8100,41.8619
Z" /> 
</g>
<g style="fill:#F2EDA1; fill-opacity:1.0000; 
stroke:#F2EDA1; stroke-width:0.5000; stroke-opacity:1; 
stroke-linecap:round; stroke-linejoin:round;">
</g>
<g style="fill:#F2EDA1; fill-opacity:1.0000; 
stroke:#F2EDA1; stroke-width:0.0000; stroke-opacity:1; 
stroke-linecap:round; stroke-linejoin:round;">
<path style="fill:#F2EDA1; fill-opacity:1.0000; 
stroke:#F2EDA1; stroke-width:0.0000; stroke-opacity:1; 
stroke-linecap:round; stroke-linejoin:round;fill-rule:evenodd;"
d="M 16.4099,10.4314
11.0695,10.4314
11.0695,7.3948
12.1052,7.3948
12.7754,9.3644
13.2786,9.3644
13.3013,9.2985
14.1183,9.2985
14.1426,9.3102
14.1678,9.3212
14.1939,9.3315
14.2209,9.3410
14.2488,9.3497
14.2775,9.3577
14.3072,9.3649
14.3377,9.3714
14.3692,9.3771
14.4015,9.3820
14.4347,9.3862
14.4688,9.3896
14.5038,9.3922
14.5397,9.3941
14.5764,9.3953
14.6141,9.3957
14.6362,9.3955
14.6580,9.3950
14.6795,9.3942
14.7007,9.3931
14.7216,9.3917
14.7422,9.3900
14.7625,9.3879
14.7825,9.3856
14.8022,9.3829
14.8216,9.3799
14.8595,9.3730
14.8962,9.3648
14.9316,9.3554
14.9659,9.3447
14.9989,9.3327
15.0308,9.3195
15.0614,9.3050
15.0909,9.2892
15.1191,9.2722
15.1461,9.2540
15.1720,9.2345
15.1964,9.2138
15.2194,9.1922
15.2407,9.1698
15.2604,9.1464
15.2786,9.1221
15.2952,9.0970
15.3102,9.0709
15.3236,9.0440
15.3355,9.0161
15.3458,8.9873
15.3544,8.9577
15.3616,8.9271
15.3671,8.8956
15.3710,8.8632
15.3734,8.8300
15.3742,8.7958
15.3737,8.7731
15.3723,8.7508
15.3699,8.7290
15.3666,8.7076
15.3624,8.6866
15.3572,8.6662
15.3510,8.6461
15.3439,8.6265
15.3359,8.6074
15.3269,8.5887
15.3169,8.5705
15.3060,8.5527
15.2942,8.5354
15.2814,8.5185
15.2677,8.5021
15.2530,8.4861
15.2376,8.4707
15.2215,8.4562
15.2047,8.4423
15.1872,8.4293
15.1690,8.4171
15.1501,8.4056
15.1305,8.3949
15.1103,8.3850
15.0893,8.3758
15.0677,8.3675
15.0454,8.3599
15.0223,8.3531
14.9986,8.3471
14.9742,8.3418
14.9491,8.3374
14.9233,8.3337
14.9233,8.3269
14.9474,8.3205
14.9708,8.3137
14.9933,8.3062
15.0151,8.2982
15.0362,8.2897
15.0565,8.2806
15.0760,8.2709
15.0947,8.2607
15.1127,8.2499
15.1299,8.2385
15.1464,8.2267
15.1621,8.2142
15.1770,8.2012
15.1911,8.1876
15.2171,8.1588
15.2401,8.1278
15.2600,8.0945
15.2688,8.0771
15.2768,8.0590
15.2841,8.0404
15.2906,8.0213
15.2963,8.0016
15.3013,7.9814
15.3055,7.9605
15.3090,7.9392
15.3116,7.9173
15.3136,7.8948
15.3147,7.8717
15.3151,7.8481
15.3144,7.8215
15.3125,7.7956
15.3092,7.7702
15.3046,7.7455
15.2986,7.7214
15.2914,7.6980
15.2828,7.6752
15.2730,7.6530
15.2618,7.6314
15.2493,7.6105
15.2354,7.5903
15.2203,7.5706
15.2038,7.5516
15.1861,7.5332
15.1670,7.5155
15.1466,7.4984
15.1250,7.4821
15.1024,7.4668
15.0788,7.4526
15.0541,7.4394
15.0284,7.4273
15.0016,7.4162
14.9738,7.4062
14.9449,7.3973
14.9150,7.3894
14.8840,7.3825
14.8520,7.3767
14.8189,7.3720
14.7848,7.3683
14.7496,7.3657
14.7134,7.3641
14.6761,7.3636
14.6419,7.3640
14.6082,7.3652
14.5751,7.3673
14.5424,7.3702
14.5103,7.3740
14.4788,7.3785
14.4477,7.3839
14.4172,7.3902
14.3873,7.3973
14.3579,7.4052
14.3290,7.4139
14.3006,7.4235
14.2728,7.4339
14.2455,7.4451
14.2188,7.4572
14.1925,7.4701
14.1925,7.8325
14.2159,7.8174
14.2394,7.8032
14.2629,7.7900
14.2865,7.7778
14.3103,7.7666
14.3341,7.7563
14.3580,7.7470
14.3820,7.7387
14.4060,7.7314
14.4302,7.7250
14.4544,7.7197
14.4788,7.7153
14.5032,7.7119
14.5277,7.7094
14.5523,7.7079
14.5770,7.7075
14.6128,7.7083
14.6462,7.7110
14.6774,7.7154
14.7063,7.7217
14.7328,7.7296
14.7571,7.7394
14.7790,7.7509
14.7986,7.7642
14.8159,7.7793
14.8310,7.7962
14.8437,7.8148
14.8540,7.8352
14.8621,7.8574
14.8679,7.8814
14.8714,7.9071
14.8725,7.9346
14.8710,7.9639
14.8665,7.9913
14.8590,8.0168
14.8485,8.0404
14.8350,8.0621
14.8185,8.0819
14.7989,8.0999
14.7764,8.1160
14.7509,8.1301
14.7223,8.1424
14.6908,8.1528
14.6563,8.1613
14.6187,8.1679
14.5988,8.1705
14.5782,8.1726
14.5568,8.1743
14.5346,8.1755
14.5117,8.1762
14.4881,8.1764
14.3191,8.1764
14.3191,8.5203
14.5018,8.5203
14.5142,8.5204
14.5386,8.5209
14.5623,8.5220
14.5853,8.5236
14.6077,8.5258
14.6293,8.5285
14.6504,8.5318
14.6707,8.5356
14.6904,8.5400
14.7187,8.5476
14.7455,8.5564
14.7708,8.5664
14.7946,8.5777
14.8168,8.5901
14.8307,8.5991
14.8499,8.6133
14.8671,8.6285
14.8822,8.6448
14.8953,8.6622
14.9064,8.6805
14.9155,8.6999
14.9225,8.7204
14.9276,8.7419
14.9306,8.7644
14.9316,8.7880
14.9313,8.8033
14.9294,8.8256
14.9258,8.8468
14.9207,8.8672
14.9139,8.8865
14.9054,8.9049
14.8954,8.9223
14.8837,8.9388
14.8704,8.9543
14.8554,8.9688
14.8388,8.9824
14.8329,8.9867
14.8145,8.9987
14.7947,9.0094
14.7736,9.0190
14.7513,9.0273
14.7277,9.0344
14.7028,9.0403
14.6766,9.0450
14.6491,9.0484
14.6203,9.0507
14.6004,9.0515
14.5799,9.0518
14.5472,9.0513
14.5150,9.0498
14.4833,9.0474
14.4521,9.0440
14.4215,9.0396
14.3914,9.0342
14.3617,9.0278
14.3326,9.0205
14.3040,9.0122
14.2759,9.0029
14.2484,8.9927
14.2213,8.9814
14.1948,8.9692
14.1688,8.9560
14.1433,8.9419
14.1183,8.9267
14.1183,9.2985
13.3013,9.2985
13.9571,7.3948
13.4925,7.3948
13.0847,8.7601
13.0787,8.7806
13.0732,8.8007
13.0681,8.8205
13.0633,8.8400
13.0577,8.8655
13.0527,8.8905
13.0485,8.9148
13.0450,8.9386
13.0422,8.9619
13.0339,8.9619
13.0317,8.9402
13.0288,8.9177
13.0251,8.8944
13.0205,8.8703
13.0152,8.8453
13.0107,8.8261
13.0057,8.8064
13.0002,8.7862
12.9943,8.7655
12.5835,7.3948
12.1052,7.3948
11.0695,7.3948
11.0695,6.3278
16.4099,6.3278
Z" /> 
</g>
<g style="fill:#F2EDA1; fill-opacity:1.0000; 
stroke:#F2EDA1; stroke-width:0.7000; stroke-opacity:1; 
stroke-linecap:round; stroke-linejoin:round;">
</g>
<g style="fill:#F2EDA1; fill-opacity:0.0; 
stroke:#F2EDA1; stroke-width:0.7000; stroke-opacity:1; 
stroke-linecap:round; stroke-linejoin:round;">
<text x="13.8296" y="6.7244"
textLength="13.4509" font-size="5.3333" lengthAdjust="spacingAndGlyphs"
text-anchor="middle" opacity="0">LYRA</text>
<g class="stroked-text"><desc>LYRA</desc>
</g>
<g style="fill:#F2EDA1; fill-opacity:1.0000; 
stroke:#F2EDA1; stroke-width:0.0000; stroke-opacity:1; 
stroke-linecap:round; stroke-linejoin:round;">
<path style="fill:#F2EDA1; fill-opacity:1.0000; 
stroke:#F2EDA1; stroke-width:0.0000; stroke-opacity:1; 
stroke-linecap:round; stroke-linejoin:round;fill-rule:evenodd;"
d="M 9.9012,6.3844
7.5545,6.3844
7.5545,2.4453
8.4426,2.4453
8.4426,5.6341
9.9012,5.6341
Z" /> 
<path style="fill:#F2EDA1; fill-opacity:1.0000; 
stroke:#F2EDA1; stroke-width:0.0000; stroke-opacity:1; 
stroke-linecap:round; stroke-linejoin:round;fill-rule:evenodd;"
d="M 13.1868,2.4453
11.9030,4.9834
11.9030,6.3844
11.0159,6.3844
11.0159,5.0000
9.7654,2.4453
10.7795,2.4453
11.4135,3.9146
11.4275,3.9566
11.4391,3.9963
11.4505,4.0365
11.4636,4.0842
11.4747,4.1248
11.4867,4.1697
11.4998,4.2187
11.5044,4.2360
11.5152,4.2360
11.5244,4.1880
11.5341,4.1427
11.5442,4.1000
11.5547,4.0599
11.5685,4.0136
11.5829,3.9715
11.5980,3.9334
11.6011,3.9263
12.2469,2.4453
Z" /> 
<path style="fill:#F2EDA1; fill-opacity:1.0000; 
stroke:#F2EDA1; stroke-width:0.0000; stroke-opacity:1; 
stroke-linecap:round; stroke-linejoin:round;fill-rule:evenodd;"
d="M 14.9114,2.4463
14.9969,2.4494
15.0795,2.4547
15.1593,2.4620
15.2364,2.4715
15.3106,2.4830
15.3820,2.4967
15.4506,2.5124
15.5165,2.5303
15.5795,2.5502
15.6397,2.5722
15.6971,2.5964
15.7518,2.6226
15.8036,2.6509
15.8526,2.6814
15.8988,2.7139
15.9422,2.7486
15.9829,2.7853
16.0207,2.8241
16.0557,2.8650
16.0879,2.9081
16.1173,2.9532
16.1439,3.0004
16.1677,3.0498
16.1887,3.1012
16.2070,3.1547
16.2224,3.2103
16.2350,3.2680
16.2448,3.3279
16.2518,3.3898
16.2560,3.4538
16.2574,3.5199
16.2564,3.5710
16.2534,3.6210
16.2484,3.6701
16.2415,3.7182
16.2326,3.7654
16.2217,3.8115
16.2088,3.8567
16.1939,3.9009
16.1774,3.9441
16.1593,3.9862
16.1396,4.0273
16.1182,4.0673
16.0951,4.1062
16.0704,4.1440
16.0441,4.1808
16.0161,4.2165
15.9865,4.2511
15.9554,4.2845
15.9227,4.3167
15.8886,4.3477
15.8529,4.3775
15.8157,4.4061
15.7769,4.4335
15.7366,4.4598
15.6953,4.4845
15.6527,4.5078
15.6091,4.5298
15.5642,4.5504
15.5182,4.5696
15.4710,4.5874
15.4227,4.6039
15.3732,4.6190
15.3732,4.6298
15.4114,4.6434
15.4490,4.6602
15.4861,4.6804
15.5226,4.7038
15.5432,4.7187
15.5792,4.7466
15.6096,4.7721
15.6394,4.7990
15.6688,4.8274
15.6977,4.8572
15.7025,4.8623
15.7312,4.8935
15.7594,4.9256
15.7871,4.9586
15.8144,4.9925
15.8412,5.0273
15.8500,5.0391
15.8759,5.0745
15.9009,5.1095
15.9251,5.1442
15.9483,5.1785
15.9707,5.2125
15.9780,5.2238
16.7224,6.3844
15.7025,6.3844
15.0899,5.3762
15.0686,5.3408
15.0476,5.3066
15.0227,5.2672
14.9982,5.2297
14.9740,5.1939
14.9580,5.1710
14.9342,5.1379
14.9102,5.1067
14.8822,5.0728
14.8542,5.0414
14.8300,5.0166
14.8015,4.9899
14.7683,4.9628
14.7343,4.9396
14.6996,4.9201
14.6952,4.9180
14.6552,4.9014
14.6131,4.8903
14.5741,4.8850
14.5438,4.8838
14.3044,4.8838
14.3044,6.3844
13.4163,6.3844
13.4163,3.1330
14.3044,3.1330
14.3044,4.1960
14.6893,4.1960
14.7418,4.1946
14.7924,4.1904
14.8409,4.1833
14.8875,4.1735
14.9321,4.1608
14.9747,4.1453
15.0154,4.1270
15.0541,4.1059
15.0908,4.0819
15.1255,4.0552
15.1475,4.0358
15.1790,4.0047
15.2073,3.9722
15.2325,3.9384
15.2547,3.9033
15.2738,3.8668
15.2897,3.8289
15.3026,3.7897
15.3124,3.7491
15.3191,3.7071
15.3227,3.6638
15.3234,3.6342
15.3210,3.5735
15.3137,3.5168
15.3016,3.4639
15.2847,3.4150
15.2630,3.3699
15.2364,3.3288
15.2050,3.2916
15.1688,3.2583
15.1277,3.2290
15.0818,3.2035
15.0311,3.1820
14.9755,3.1644
14.9151,3.1507
14.8499,3.1409
14.7799,3.1350
14.7050,3.1330
14.3044,3.1330
13.4163,3.1330
13.4163,2.4453
14.8232,2.4453
Z" /> 
<path style="fill:#F2EDA1; fill-opacity:1.0000; 
stroke:#F2EDA1; stroke-width:0.0000; stroke-opacity:1; 
stroke-linecap:round; stroke-linejoin:round;fill-rule:evenodd;"
d="M 20.5355,6.3844
19.5683,6.3844
19.2879,5.5716
17.8870,5.5716
17.6095,6.3844
16.6472,6.3844
17.2163,4.8212
18.0765,4.8212
19.0847,4.8212
18.6617,3.5033
18.6504,3.4653
18.6400,3.4255
18.6304,3.3838
18.6216,3.3404
18.6138,3.2952
18.6067,3.2481
18.6006,3.1993
18.5953,3.1487
18.5738,3.1487
18.5697,3.1919
18.5643,3.2349
18.5576,3.2780
18.5496,3.3209
18.5403,3.3637
18.5296,3.4064
18.5177,3.4490
18.5044,3.4916
18.0765,4.8212
17.2163,4.8212
18.0814,2.4453
19.1336,2.4453
Z" /> 
</g></g>
<g style="fill:#F2EDA1; fill-opacity:1.0000; 
stroke:#F2EDA1; stroke-width:0.2250; stroke-opacity:1; 
stroke-linecap:round; stroke-linejoin:round;">
</g>
<g style="fill:#F2EDA1; fill-opacity:1.0000; 
stroke:#F2EDA1; stroke-width:0.0000; stroke-opacity:1; 
stroke-linecap:round; stroke-linejoin:round;">
<path style="fill:#F2EDA1; fill-opacity:1.0000; 
stroke:#F2EDA1; stroke-width:0.0000; stroke-opacity:1; 
stroke-linecap:round; stroke-linejoin:round;fill-rule:evenodd;"
d="M 9.6253,37.8308
9.6471,37.8526
9.6746,37.9078
9.6746,37.9975
9.6471,38.0526
9.6253,38.0744
9.5701,38.1020
9.3282,38.1020
9.3282,37.8032
9.5701,37.8032
Z" /> 
<path style="fill:#F2EDA1; fill-opacity:1.0000; 
stroke:#F2EDA1; stroke-width:0.0000; stroke-opacity:1; 
stroke-linecap:round; stroke-linejoin:round;fill-rule:evenodd;"
d="M 12.8629,39.3052
8.3492,39.3052
8.3492,38.2312
9.0997,38.2312
9.1032,38.2390
9.1032,38.7069
9.1171,38.7541
9.1670,38.7974
9.2324,38.8068
9.2925,38.7793
9.3282,38.7238
9.3282,38.3741
10.0520,38.3741
10.0547,38.3799
10.0545,38.3863
10.0683,38.4096
10.0795,38.4342
10.0849,38.4376
10.0882,38.4432
10.1123,38.4553
10.1351,38.4699
10.1415,38.4699
10.1472,38.4728
10.1741,38.4699
10.5318,38.4699
10.5318,38.7069
10.5457,38.7541
10.5956,38.7974
10.6610,38.8068
10.7211,38.7793
10.7568,38.7238
10.7568,38.4699
10.8033,38.4699
10.8505,38.4560
10.8938,38.4061
10.9032,38.3407
10.8967,38.3265
11.0520,38.3265
11.0795,38.3865
11.1351,38.4223
11.4366,38.4223
11.4366,38.7069
11.4504,38.7541
11.5003,38.7974
11.5657,38.8068
11.6258,38.7793
11.6616,38.7238
11.6616,38.4223
11.9462,38.4223
11.9934,38.4084
12.0367,38.3585
12.0461,38.2931
12.0186,38.2330
11.9630,38.1973
11.6616,38.1973
11.6616,37.9126
11.6477,37.8654
11.5978,37.8222
11.5324,37.8128
11.4723,37.8402
11.4366,37.8958
11.4366,38.1973
11.1519,38.1973
11.1047,38.2111
11.0614,38.2611
11.0520,38.3265
10.8967,38.3265
10.8758,38.2806
10.8202,38.2449
10.7568,38.2449
10.7568,38.0079
10.7429,37.9607
10.6930,37.9174
10.6276,37.9080
10.5675,37.9354
10.5318,37.9910
10.5318,38.2449
10.3242,38.2449
10.5180,37.6633
10.5198,37.6142
10.4861,37.5573
10.4271,37.5277
10.3614,37.5348
10.3099,37.5762
10.0684,38.3006
10.0614,38.3087
10.0582,38.3314
10.0563,38.3372
10.0559,38.3473
10.0520,38.3741
9.3282,38.3741
9.3282,38.3270
9.5906,38.3270
9.6174,38.3299
9.6380,38.3196
9.6601,38.3132
9.6670,38.3051
9.7296,38.2738
9.7481,38.2698
9.7700,38.2479
9.7927,38.2268
9.7933,38.2247
9.8091,38.2088
9.8254,38.1991
9.8392,38.1714
9.8541,38.1442
9.8539,38.1420
9.8851,38.0798
9.8996,38.0571
9.8996,38.0341
9.9037,38.0115
9.8996,38.0016
9.8996,37.8873
9.9025,37.8604
9.8923,37.8399
9.8858,37.8178
9.8778,37.8108
9.8465,37.7483
9.8424,37.7298
9.8205,37.7078
9.7994,37.6851
9.7973,37.6846
9.7814,37.6688
9.7718,37.6525
9.7440,37.6386
9.7168,37.6238
9.7146,37.6239
9.6524,37.5928
9.6297,37.5782
9.6067,37.5782
9.5841,37.5741
9.5743,37.5782
9.2238,37.5782
9.1990,37.5747
9.1763,37.5850
9.1523,37.5921
9.1467,37.5986
9.1389,37.6021
9.1254,37.6231
9.1091,37.6420
9.1078,37.6505
9.1032,37.6577
9.1032,37.6827
9.0997,37.7074
9.1032,37.7152
9.1032,38.2065
9.0997,38.2312
8.3492,38.2312
8.3492,36.7819
12.8629,36.7819
Z" /> 
</g>
<g style="fill:#F2EDA1; fill-opacity:1.0000; 
stroke:#F2EDA1; stroke-width:0.2250; stroke-opacity:1; 
stroke-linecap:round; stroke-linejoin:round;">
</g>
<g style="fill:#F2EDA1; fill-opacity:1.0000; 
stroke:#F2EDA1; stroke-width:0.0000; stroke-opacity:1; 
stroke-linecap:round; stroke-linejoin:round;">
<path style="fill:#F2EDA1; fill-opacity:1.0000; 
stroke:#F2EDA1; stroke-width:0.0000; stroke-opacity:1; 
stroke-linecap:round; stroke-linejoin:round;fill-rule:evenodd;"
d="M 13.0058,44.3852
8.3492,44.3852
8.3492,42.9738
9.0515,42.9738
9.0556,42.9836
9.0556,43.0504
9.0527,43.0772
9.0630,43.0978
9.0695,43.1198
9.0775,43.1268
9.1088,43.1894
9.1128,43.2079
9.1347,43.2298
9.1558,43.2525
9.1580,43.2530
9.1738,43.2689
9.1835,43.2851
9.2112,43.2990
9.2384,43.3139
9.2406,43.3137
9.2903,43.3386
9.2992,43.3480
9.3193,43.3531
9.3227,43.3548
9.3349,43.3570
9.5098,43.4007
9.5777,43.4346
9.5995,43.4564
9.6270,43.5116
9.6270,43.5537
9.5995,43.6088
9.5777,43.6306
9.5225,43.6582
9.3292,43.6582
9.1883,43.6113
9.1392,43.6095
9.0823,43.6432
9.0527,43.7022
9.0598,43.7679
9.1012,43.8194
9.2620,43.8730
9.2779,43.8832
9.3089,43.8832
9.3399,43.8843
9.3418,43.8832
9.5430,43.8832
9.5698,43.8861
9.5904,43.8758
9.6124,43.8694
9.6194,43.8613
9.6820,43.8300
9.7005,43.8260
9.7224,43.8041
9.7451,43.7830
9.7456,43.7808
9.7615,43.7650
9.7778,43.7553
9.7916,43.7276
9.8065,43.7004
9.8063,43.6982
9.8374,43.6360
9.8520,43.6133
9.8520,43.5903
9.8561,43.5677
9.8520,43.5578
9.8520,43.4911
9.8549,43.4642
9.8446,43.4437
9.8382,43.4216
9.8301,43.4147
9.7988,43.3521
9.7948,43.3336
9.7729,43.3117
9.7518,43.2890
9.7497,43.2884
9.7338,43.2726
9.7241,43.2563
9.6964,43.2424
9.6692,43.2276
9.6670,43.2277
9.6173,43.2029
9.6084,43.1934
9.5883,43.1884
9.5849,43.1867
9.5727,43.1845
9.3978,43.1408
9.3300,43.1068
9.3082,43.0850
9.2806,43.0299
9.2806,42.9878
9.3082,42.9326
9.3300,42.9108
9.3851,42.8832
9.5784,42.8832
9.7193,42.9302
9.7685,42.9320
9.8253,42.8983
9.8549,42.8392
9.8479,42.7735
9.8407,42.7646
9.9558,42.7646
10.1988,43.7853
10.1993,43.8066
10.2154,43.8303
10.2297,43.8552
10.2338,43.8574
10.2364,43.8612
10.2628,43.8725
10.2883,43.8858
10.2929,43.8853
10.2972,43.8872
10.3255,43.8824
10.3541,43.8798
10.3577,43.8769
10.3623,43.8761
10.3835,43.8568
10.4062,43.8391
10.4077,43.8348
10.4111,43.8316
10.4185,43.8039
10.4281,43.7768
10.4270,43.7723
10.5014,43.4931
10.5802,43.7883
10.5813,43.8095
10.5980,43.8329
10.6129,43.8574
10.6171,43.8594
10.6198,43.8632
10.6465,43.8737
10.6723,43.8863
10.6769,43.8858
10.6813,43.8875
10.7094,43.8819
10.7379,43.8786
10.7415,43.8756
10.7461,43.8747
10.7668,43.8548
10.7889,43.8366
10.7904,43.8321
10.7937,43.8289
10.8004,43.8010
10.8091,43.7736
10.8079,43.7692
10.8943,43.4065
11.1949,43.4065
11.2223,43.4665
11.2779,43.5023
11.5794,43.5023
11.5794,43.7869
11.5933,43.8341
11.6432,43.8774
11.7086,43.8868
11.7687,43.8593
11.8044,43.8038
11.8044,43.5023
12.0890,43.5023
12.1363,43.4884
12.1795,43.4385
12.1889,43.3731
12.1615,43.3130
12.1059,43.2773
11.8044,43.2773
11.8044,42.9926
11.7905,42.9454
11.7406,42.9022
11.6752,42.8928
11.6151,42.9202
11.5794,42.9758
11.5794,43.2773
11.2948,43.2773
11.2476,43.2911
11.2043,43.3411
11.1949,43.4065
10.8943,43.4065
11.0432,42.7810
11.0406,42.7319
11.0021,42.6782
10.9407,42.6540
10.8758,42.6667
10.8282,42.7125
10.6857,43.3109
10.6136,43.0403
10.6131,43.0206
10.5961,42.9956
10.5804,42.9698
10.5777,42.9684
10.5760,42.9659
10.5482,42.9541
10.5210,42.9408
10.5180,42.9412
10.5152,42.9400
10.4854,42.9450
10.4554,42.9486
10.4531,42.9505
10.4501,42.9510
10.4277,42.9714
10.4044,42.9906
10.4035,42.9935
10.4012,42.9955
10.3935,43.0247
10.3842,43.0535
10.3850,43.0564
10.3171,43.3109
10.1786,42.7289
10.1541,42.6862
10.0955,42.6557
10.0298,42.6617
9.9776,42.7023
9.9558,42.7646
9.8407,42.7646
9.8064,42.7221
9.6456,42.6685
9.6297,42.6582
9.5987,42.6582
9.5677,42.6571
9.5658,42.6582
9.3646,42.6582
9.3378,42.6553
9.3172,42.6656
9.2952,42.6721
9.2882,42.6801
9.2256,42.7114
9.2071,42.7154
9.1852,42.7374
9.1625,42.7585
9.1620,42.7606
9.1461,42.7764
9.1299,42.7861
9.1160,42.8138
9.1012,42.8410
9.1013,42.8432
9.0702,42.9055
9.0556,42.9282
9.0556,42.9512
9.0515,42.9738
8.3492,42.9738
8.3492,41.8619
13.0058,41.8619
Z" /> 
</g>
<g style="fill:#F2EDA1; fill-opacity:1.0000; 
stroke:#F2EDA1; stroke-width:0.2250; stroke-opacity:1; 
stroke-linecap:round; stroke-linejoin:round;">
</g>
<g style="fill:#F2EDA1; fill-opacity:1.0000; 
stroke:#F2EDA1; stroke-width:0.0000; stroke-opacity:1; 
stroke-linecap:round; stroke-linejoin:round;">
<path style="fill:#F2EDA1; fill-opacity:1.0000; 
stroke:#F2EDA1; stroke-width:0.0000; stroke-opacity:1; 
stroke-linecap:round; stroke-linejoin:round;fill-rule:evenodd;"
d="M 15.6479,37.8308
15.6697,37.8526
15.6973,37.9078
15.6973,37.9975
15.6697,38.0526
15.6479,38.0744
15.5928,38.1020
15.3509,38.1020
15.3509,37.8032
15.5928,37.8032
Z" /> 
<path style="fill:#F2EDA1; fill-opacity:1.0000; 
stroke:#F2EDA1; stroke-width:0.0000; stroke-opacity:1; 
stroke-linecap:round; stroke-linejoin:round;fill-rule:evenodd;"
d="M 18.8192,39.3052
14.3055,39.3052
14.3055,38.2312
15.1223,38.2312
15.1259,38.2390
15.1259,38.7069
15.1398,38.7541
15.1897,38.7974
15.2551,38.8068
15.3152,38.7793
15.3509,38.7238
15.3509,38.5871
16.0262,38.5871
16.0402,38.6517
16.1013,38.7127
16.1109,38.7289
16.1387,38.7428
16.1658,38.7577
16.1680,38.7575
16.2303,38.7886
16.2530,38.8032
16.2760,38.8032
16.2986,38.8073
16.3084,38.8032
16.5657,38.8032
16.5925,38.8061
16.6131,38.7958
16.6351,38.7894
16.6421,38.7813
16.7047,38.7500
16.7232,38.7460
16.7451,38.7241
16.7678,38.7030
16.7683,38.7008
16.7842,38.6850
16.8004,38.6753
16.8143,38.6476
16.8292,38.6204
16.8290,38.6182
16.8601,38.5560
16.8747,38.5333
16.8747,38.5103
16.8788,38.4877
16.8747,38.4778
16.8747,38.3265
17.0747,38.3265
17.1022,38.3865
17.1577,38.4223
17.9689,38.4223
18.0161,38.4084
18.0593,38.3585
18.0687,38.2931
18.0413,38.2330
17.9857,38.1973
17.1746,38.1973
17.1274,38.2111
17.0841,38.2611
17.0747,38.3265
16.8747,38.3265
16.8747,38.2682
16.8776,38.2414
16.8673,38.2208
16.8608,38.1988
16.8528,38.1918
16.8215,38.1292
16.8175,38.1107
16.7956,38.0888
16.7745,38.0661
16.7723,38.0656
16.7565,38.0497
16.7468,38.0334
16.7191,38.0196
16.6919,38.0047
16.6897,38.0049
16.6529,37.9865
16.8253,37.7894
16.8256,37.7894
16.8469,37.7648
16.8575,37.7526
16.8576,37.7524
16.8689,37.7394
16.8712,37.7230
16.8782,37.7080
16.8758,37.6910
16.8783,37.6740
16.8714,37.6589
16.8691,37.6425
16.8579,37.6295
16.8508,37.6139
16.8369,37.6050
16.8261,37.5924
16.8096,37.5875
16.7952,37.5782
16.7787,37.5782
16.7628,37.5735
16.7463,37.5782
16.1270,37.5782
16.0798,37.5921
16.0365,37.6420
16.0271,37.7074
16.0545,37.7675
16.1101,37.8032
16.5143,37.8032
16.3658,37.9730
16.3655,37.9730
16.3442,37.9976
16.3336,38.0098
16.3334,38.0100
16.3222,38.0230
16.3199,38.0394
16.3129,38.0544
16.3153,38.0714
16.3128,38.0884
16.3197,38.1034
16.3220,38.1199
16.3331,38.1329
16.3403,38.1485
16.3542,38.1574
16.3650,38.1700
16.3814,38.1749
16.3958,38.1842
16.4124,38.1842
16.4283,38.1889
16.4448,38.1842
16.5452,38.1842
16.6003,38.2117
16.6221,38.2335
16.6497,38.2887
16.6497,38.4737
16.6221,38.5288
16.6003,38.5506
16.5452,38.5782
16.3126,38.5782
16.2574,38.5506
16.2113,38.5045
16.1681,38.4809
16.1022,38.4856
16.0493,38.5252
16.0262,38.5871
15.3509,38.5871
15.3509,38.3270
15.6133,38.3270
15.6401,38.3299
15.6607,38.3196
15.6827,38.3132
15.6897,38.3051
15.7523,38.2738
15.7708,38.2698
15.7927,38.2479
15.8154,38.2268
15.8159,38.2247
15.8318,38.2088
15.8481,38.1991
15.8619,38.1714
15.8768,38.1442
15.8766,38.1420
15.9077,38.0798
15.9223,38.0571
15.9223,38.0341
15.9264,38.0115
15.9223,38.0016
15.9223,37.8873
15.9252,37.8604
15.9149,37.8399
15.9085,37.8178
15.9004,37.8108
15.8691,37.7483
15.8651,37.7298
15.8432,37.7078
15.8221,37.6851
15.8199,37.6846
15.8041,37.6688
15.7944,37.6525
15.7667,37.6386
15.7395,37.6238
15.7373,37.6239
15.6751,37.5928
15.6524,37.5782
15.6294,37.5782
15.6068,37.5741
15.5969,37.5782
15.2464,37.5782
15.2217,37.5747
15.1990,37.5850
15.1750,37.5921
15.1694,37.5986
15.1616,37.6021
15.1481,37.6231
15.1317,37.6420
15.1305,37.6505
15.1259,37.6577
15.1259,37.6827
15.1223,37.7074
15.1259,37.7152
15.1259,38.2065
15.1223,38.2312
14.3055,38.2312
14.3055,36.7819
18.8192,36.7819
Z" /> 
</g>
<g style="fill:#F2EDA1; fill-opacity:1.0000; 
stroke:#F2EDA1; stroke-width:0.2250; stroke-opacity:1; 
stroke-linecap:round; stroke-linejoin:round;">
</g>
<g style="fill:#F2EDA1; fill-opacity:1.0000; 
stroke:#F2EDA1; stroke-width:0.0000; stroke-opacity:1; 
stroke-linecap:round; stroke-linejoin:round;">
<path style="fill:#F2EDA1; fill-opacity:1.0000; 
stroke:#F2EDA1; stroke-width:0.0000; stroke-opacity:1; 
stroke-linecap:round; stroke-linejoin:round;fill-rule:evenodd;"
d="M 9.6253,35.2908
9.6471,35.3126
9.6746,35.3678
9.6746,35.4575
9.6471,35.5126
9.6253,35.5344
9.5701,35.5620
9.3282,35.5620
9.3282,35.2632
9.5701,35.2632
Z" /> 
<path style="fill:#F2EDA1; fill-opacity:1.0000; 
stroke:#F2EDA1; stroke-width:0.0000; stroke-opacity:1; 
stroke-linecap:round; stroke-linejoin:round;fill-rule:evenodd;"
d="M 12.8629,36.7652
8.3492,36.7652
8.3492,35.6912
9.0997,35.6912
9.1032,35.6990
9.1032,36.1669
9.1171,36.2141
9.1670,36.2574
9.2324,36.2668
9.2925,36.2393
9.3282,36.1838
9.3282,35.8341
10.0520,35.8341
10.0547,35.8399
10.0545,35.8463
10.0683,35.8696
10.0795,35.8942
10.0849,35.8976
10.0882,35.9032
10.1123,35.9153
10.1351,35.9299
10.1415,35.9299
10.1472,35.9328
10.1741,35.9299
10.5318,35.9299
10.5318,36.1669
10.5457,36.2141
10.5956,36.2574
10.6610,36.2668
10.7211,36.2393
10.7568,36.1838
10.7568,35.9299
10.8033,35.9299
10.8505,35.9160
10.8938,35.8661
10.9032,35.8007
10.8967,35.7865
11.0520,35.7865
11.0795,35.8465
11.1351,35.8823
11.9462,35.8823
11.9934,35.8684
12.0367,35.8185
12.0461,35.7531
12.0186,35.6930
11.9630,35.6573
11.1519,35.6573
11.1047,35.6711
11.0614,35.7211
11.0520,35.7865
10.8967,35.7865
10.8758,35.7406
10.8202,35.7049
10.7568,35.7049
10.7568,35.4679
10.7429,35.4207
10.6930,35.3774
10.6276,35.3680
10.5675,35.3954
10.5318,35.4510
10.5318,35.7049
10.3242,35.7049
10.5180,35.1233
10.5198,35.0742
10.4861,35.0173
10.4271,34.9877
10.3614,34.9948
10.3099,35.0362
10.0684,35.7606
10.0614,35.7687
10.0582,35.7914
10.0563,35.7972
10.0559,35.8073
10.0520,35.8341
9.3282,35.8341
9.3282,35.7870
9.5906,35.7870
9.6174,35.7899
9.6380,35.7796
9.6601,35.7732
9.6670,35.7651
9.7296,35.7338
9.7481,35.7298
9.7700,35.7079
9.7927,35.6868
9.7933,35.6847
9.8091,35.6688
9.8254,35.6591
9.8392,35.6314
9.8541,35.6042
9.8539,35.6020
9.8851,35.5398
9.8996,35.5171
9.8996,35.4941
9.9037,35.4715
9.8996,35.4616
9.8996,35.3472
9.9025,35.3204
9.8923,35.2999
9.8858,35.2778
9.8778,35.2708
9.8465,35.2083
9.8424,35.1898
9.8205,35.1678
9.7994,35.1451
9.7973,35.1446
9.7814,35.1288
9.7718,35.1125
9.7440,35.0986
9.7168,35.0838
9.7146,35.0839
9.6524,35.0528
9.6297,35.0382
9.6067,35.0382
9.5841,35.0341
9.5743,35.0382
9.2238,35.0382
9.1990,35.0347
9.1763,35.0450
9.1523,35.0521
9.1467,35.0586
9.1389,35.0621
9.1254,35.0831
9.1091,35.1020
9.1078,35.1105
9.1032,35.1177
9.1032,35.1427
9.0997,35.1674
9.1032,35.1752
9.1032,35.6665
9.0997,35.6912
8.3492,35.6912
8.3492,34.2419
12.8629,34.2419
Z" /> 
</g>
<g style="fill:#F2EDA1; fill-opacity:1.0000; 
stroke:#F2EDA1; stroke-width:0.2250; stroke-opacity:1; 
stroke-linecap:round; stroke-linejoin:round;">
</g>
<g style="fill:#F2EDA1; fill-opacity:1.0000; 
stroke:#F2EDA1; stroke-width:0.0000; stroke-opacity:1; 
stroke-linecap:round; stroke-linejoin:round;">
<path style="fill:#F2EDA1; fill-opacity:1.0000; 
stroke:#F2EDA1; stroke-width:0.0000; stroke-opacity:1; 
stroke-linecap:round; stroke-linejoin:round;fill-rule:evenodd;"
d="M 15.6387,35.2908
15.6605,35.3126
15.6881,35.3678
15.6881,35.4575
15.6605,35.5126
15.6387,35.5344
15.5836,35.5620
15.3417,35.5620
15.3417,35.2632
15.5836,35.2632
Z" /> 
<path style="fill:#F2EDA1; fill-opacity:1.0000; 
stroke:#F2EDA1; stroke-width:0.0000; stroke-opacity:1; 
stroke-linecap:round; stroke-linejoin:round;fill-rule:evenodd;"
d="M 18.8100,36.7652
14.2963,36.7652
14.2963,35.6912
15.1131,35.6912
15.1167,35.6990
15.1167,36.1669
15.1306,36.2141
15.1805,36.2574
15.2459,36.2668
15.3060,36.2393
15.3417,36.1838
15.3417,36.0471
16.0170,36.0471
16.0310,36.1117
16.0921,36.1727
16.1017,36.1889
16.1295,36.2028
16.1566,36.2177
16.1588,36.2175
16.2211,36.2486
16.2438,36.2632
16.2668,36.2632
16.2894,36.2673
16.2992,36.2632
16.5565,36.2632
16.5833,36.2661
16.6039,36.2558
16.6259,36.2494
16.6329,36.2413
16.6955,36.2100
16.7140,36.2060
16.7359,36.1841
16.7586,36.1630
16.7591,36.1608
16.7750,36.1450
16.7912,36.1353
16.8051,36.1076
16.8200,36.0804
16.8198,36.0782
16.8509,36.0160
16.8655,35.9933
16.8655,35.9703
16.8696,35.9477
16.8655,35.9378
16.8655,35.7865
17.0655,35.7865
17.0930,35.8465
17.1485,35.8823
17.4500,35.8823
17.4500,36.1669
17.4639,36.2141
17.5138,36.2574
17.5792,36.2668
17.6393,36.2393
17.6750,36.1838
17.6750,35.8823
17.9597,35.8823
18.0069,35.8684
18.0501,35.8185
18.0595,35.7531
18.0321,35.6930
17.9765,35.6573
17.6750,35.6573
17.6750,35.3726
17.6612,35.3254
17.6112,35.2822
17.5458,35.2728
17.4857,35.3002
17.4500,35.3558
17.4500,35.6573
17.1654,35.6573
17.1182,35.6711
17.0749,35.7211
17.0655,35.7865
16.8655,35.7865
16.8655,35.7282
16.8684,35.7014
16.8581,35.6808
16.8516,35.6588
16.8436,35.6518
16.8123,35.5892
16.8083,35.5707
16.7864,35.5488
16.7653,35.5261
16.7631,35.5256
16.7473,35.5097
16.7376,35.4934
16.7099,35.4796
16.6827,35.4647
16.6805,35.4649
16.6437,35.4465
16.8161,35.2494
16.8164,35.2494
16.8377,35.2248
16.8483,35.2126
16.8484,35.2124
16.8597,35.1994
16.8620,35.1830
16.8690,35.1680
16.8666,35.1510
16.8691,35.1340
16.8622,35.1189
16.8599,35.1025
16.8487,35.0895
16.8416,35.0739
16.8277,35.0650
16.8169,35.0524
16.8004,35.0475
16.7860,35.0382
16.7695,35.0382
16.7536,35.0335
16.7371,35.0382
16.1178,35.0382
16.0706,35.0521
16.0273,35.1020
16.0179,35.1674
16.0453,35.2275
16.1009,35.2632
16.5051,35.2632
16.3566,35.4330
16.3563,35.4330
16.3350,35.4576
16.3244,35.4698
16.3242,35.4700
16.3130,35.4830
16.3107,35.4994
16.3037,35.5144
16.3061,35.5314
16.3036,35.5484
16.3105,35.5634
16.3128,35.5799
16.3239,35.5929
16.3311,35.6085
16.3450,35.6174
16.3558,35.6300
16.3722,35.6349
16.3866,35.6442
16.4032,35.6442
16.4191,35.6489
16.4356,35.6442
16.5360,35.6442
16.5911,35.6717
16.6129,35.6935
16.6405,35.7487
16.6405,35.9337
16.6129,35.9888
16.5911,36.0106
16.5360,36.0382
16.3034,36.0382
16.2482,36.0106
16.2021,35.9645
16.1589,35.9409
16.0930,35.9456
16.0401,35.9852
16.0170,36.0471
15.3417,36.0471
15.3417,35.7870
15.6041,35.7870
15.6309,35.7899
15.6515,35.7796
15.6735,35.7732
15.6805,35.7651
15.7431,35.7338
15.7616,35.7298
15.7835,35.7079
15.8062,35.6868
15.8067,35.6847
15.8226,35.6688
15.8389,35.6591
15.8527,35.6314
15.8676,35.6042
15.8674,35.6020
15.8985,35.5398
15.9131,35.5171
15.9131,35.4941
15.9172,35.4715
15.9131,35.4616
15.9131,35.3472
15.9160,35.3204
15.9057,35.2999
15.8993,35.2778
15.8912,35.2708
15.8599,35.2083
15.8559,35.1898
15.8340,35.1678
15.8129,35.1451
15.8107,35.1446
15.7949,35.1288
15.7852,35.1125
15.7575,35.0986
15.7303,35.0838
15.7281,35.0839
15.6659,35.0528
15.6432,35.0382
15.6202,35.0382
15.5976,35.0341
15.5877,35.0382
15.2372,35.0382
15.2125,35.0347
15.1898,35.0450
15.1658,35.0521
15.1602,35.0586
15.1524,35.0621
15.1389,35.0831
15.1225,35.1020
15.1213,35.1105
15.1167,35.1177
15.1167,35.1427
15.1131,35.1674
15.1167,35.1752
15.1167,35.6665
15.1131,35.6912
14.2963,35.6912
14.2963,34.2419
18.8100,34.2419
Z" /> 
</g>
<g style="fill:#F2EDA1; fill-opacity:1.0000; 
stroke:#F2EDA1; stroke-width:0.2250; stroke-opacity:1; 
stroke-linecap:round; stroke-linejoin:round;">
</g>
<g style="fill:#F2EDA1; fill-opacity:1.0000; 
stroke:#F2EDA1; stroke-width:0.0000; stroke-opacity:1; 
stroke-linecap:round; stroke-linejoin:round;">
<path style="fill:#F2EDA1; fill-opacity:1.0000; 
stroke:#F2EDA1; stroke-width:0.0000; stroke-opacity:1; 
stroke-linecap:round; stroke-linejoin:round;fill-rule:evenodd;"
d="M 15.6387,45.4508
15.6605,45.4726
15.6881,45.5278
15.6881,45.6175
15.6605,45.6726
15.6387,45.6944
15.5836,45.7220
15.3417,45.7220
15.3417,45.4232
15.5836,45.4232
Z" /> 
<path style="fill:#F2EDA1; fill-opacity:1.0000; 
stroke:#F2EDA1; stroke-width:0.0000; stroke-opacity:1; 
stroke-linecap:round; stroke-linejoin:round;fill-rule:evenodd;"
d="M 18.8100,46.9252
14.2963,46.9252
14.2963,45.8512
15.1131,45.8512
15.1167,45.8590
15.1167,46.3269
15.1306,46.3741
15.1805,46.4174
15.2459,46.4268
15.3060,46.3993
15.3417,46.3438
15.3417,45.9470
15.6041,45.9470
15.6309,45.9499
15.6515,45.9396
15.6735,45.9332
15.6805,45.9251
15.7431,45.8938
15.7616,45.8898
15.7835,45.8679
15.8062,45.8468
15.8067,45.8447
15.8226,45.8288
15.8389,45.8191
15.8527,45.7914
15.8676,45.7642
15.8674,45.7620
15.8985,45.6998
15.9131,45.6771
15.9131,45.6541
15.9172,45.6315
15.9131,45.6216
15.9131,45.6006
16.0644,45.6006
16.0852,45.6633
16.1367,45.7047
16.2023,45.7118
16.3145,45.6557
16.3330,45.6517
16.3548,45.6299
16.3548,46.1982
16.1654,46.1982
16.1182,46.2121
16.0749,46.2620
16.0655,46.3274
16.0930,46.3875
16.1485,46.4232
16.4592,46.4232
16.4840,46.4268
16.4918,46.4232
16.7692,46.4232
16.8164,46.4094
16.8597,46.3594
16.8691,46.2940
16.8416,46.2339
16.7860,46.1982
16.5798,46.1982
16.5798,45.9465
17.0655,45.9465
17.0930,46.0065
17.1485,46.0423
17.4500,46.0423
17.4500,46.3269
17.4639,46.3741
17.5138,46.4174
17.5792,46.4268
17.6393,46.3993
17.6750,46.3438
17.6750,46.0423
17.9597,46.0423
18.0069,46.0284
18.0501,45.9785
18.0595,45.9131
18.0321,45.8530
17.9765,45.8173
17.6750,45.8173
17.6750,45.5326
17.6612,45.4854
17.6112,45.4422
17.5458,45.4328
17.4857,45.4602
17.4500,45.5158
17.4500,45.8173
17.1654,45.8173
17.1182,45.8311
17.0749,45.8811
17.0655,45.9465
16.5798,45.9465
16.5798,45.3279
16.5845,45.3127
16.5798,45.2955
16.5798,45.2945
16.5755,45.2799
16.5670,45.2490
16.5662,45.2483
16.5659,45.2473
16.5417,45.2263
16.5178,45.2049
16.5168,45.2047
16.5160,45.2041
16.4842,45.1995
16.4526,45.1944
16.4516,45.1948
16.4506,45.1947
16.4214,45.2080
16.3920,45.2208
16.3914,45.2217
16.3905,45.2221
16.3732,45.2491
16.2846,45.3819
16.2102,45.4564
16.1168,45.5030
16.0808,45.5366
16.0644,45.6006
15.9131,45.6006
15.9131,45.5072
15.9160,45.4804
15.9057,45.4599
15.8993,45.4378
15.8912,45.4308
15.8599,45.3683
15.8559,45.3498
15.8340,45.3278
15.8129,45.3051
15.8107,45.3046
15.7949,45.2888
15.7852,45.2725
15.7575,45.2586
15.7303,45.2438
15.7281,45.2439
15.6659,45.2128
15.6432,45.1982
15.6202,45.1982
15.5976,45.1941
15.5877,45.1982
15.2372,45.1982
15.2125,45.1947
15.1898,45.2050
15.1658,45.2121
15.1602,45.2186
15.1524,45.2221
15.1389,45.2431
15.1225,45.2620
15.1213,45.2705
15.1167,45.2777
15.1167,45.3027
15.1131,45.3274
15.1167,45.3352
15.1167,45.8265
15.1131,45.8512
14.2963,45.8512
14.2963,44.4019
18.8100,44.4019
Z" /> 
</g>
<g style="fill:#F2EDA1; fill-opacity:1.0000; 
stroke:#F2EDA1; stroke-width:0.5000; stroke-opacity:1; 
stroke-linecap:round; stroke-linejoin:round;">
</g>
<g style="fill:#F2EDA1; fill-opacity:1.0000; 
stroke:#F2EDA1; stroke-width:0.0000; stroke-opacity:1; 
stroke-linecap:round; stroke-linejoin:round;">
<path style="fill:#F2EDA1; fill-opacity:1.0000; 
stroke:#F2EDA1; stroke-width:0.0000; stroke-opacity:1; 
stroke-linecap:round; stroke-linejoin:round;fill-rule:evenodd;"
d="M 13.0574,29.5576
13.0786,29.5585
13.0990,29.5600
13.1187,29.5622
13.1561,29.5682
13.1908,29.5766
13.2226,29.5875
13.2517,29.6008
13.2780,29.6165
13.3016,29.6346
13.3224,29.6552
13.3404,29.6781
13.3556,29.7035
13.3681,29.7313
13.3778,29.7614
13.3847,29.7941
13.3889,29.8291
13.3903,29.8665
13.3889,29.9048
13.3847,29.9406
13.3778,29.9739
13.3681,30.0048
13.3556,30.0332
13.3404,30.0591
13.3224,30.0826
13.3016,30.1036
13.2780,30.1221
13.2517,30.1381
13.2226,30.1517
13.1908,30.1628
13.1561,30.1715
13.1187,30.1776
13.0990,30.1798
13.0786,30.1813
13.0574,30.1823
13.0356,30.1826
12.8612,30.1826
12.8612,29.5573
13.0356,29.5573
Z" /> 
<path style="fill:#F2EDA1; fill-opacity:1.0000; 
stroke:#F2EDA1; stroke-width:0.0000; stroke-opacity:1; 
stroke-linecap:round; stroke-linejoin:round;fill-rule:evenodd;"
d="M 14.8184,29.5583
14.8534,29.5612
14.8861,29.5661
14.9163,29.5730
14.9440,29.5818
14.9694,29.5926
14.9923,29.6053
15.0129,29.6200
15.0310,29.6366
15.0467,29.6552
15.0600,29.6758
15.0709,29.6983
15.0793,29.7227
15.0854,29.7492
15.0890,29.7776
15.0902,29.8079
15.0898,29.8227
15.0880,29.8444
15.0847,29.8653
15.0798,29.8856
15.0734,29.9052
15.0654,29.9242
15.0558,29.9424
15.0448,29.9600
15.0321,29.9769
15.0180,29.9931
15.0023,30.0087
14.9912,30.0184
14.9739,30.0318
14.9555,30.0437
14.9362,30.0543
14.9159,30.0634
14.8945,30.0712
14.8722,30.0775
14.8489,30.0825
14.8247,30.0860
14.7994,30.0881
14.7732,30.0888
14.5807,30.0888
14.5807,29.5573
14.7810,29.5573
Z" /> 
<path style="fill:#F2EDA1; fill-opacity:1.0000; 
stroke:#F2EDA1; stroke-width:0.0000; stroke-opacity:1; 
stroke-linecap:round; stroke-linejoin:round;fill-rule:evenodd;"
d="M 18.2523,32.2500
11.3815,32.2500
11.3815,29.2134
12.4172,29.2134
12.4172,29.5573
12.4172,31.1830
12.8612,31.1830
12.8612,30.5265
13.0727,30.5265
13.0949,30.5263
13.1168,30.5257
13.1384,30.5248
13.1598,30.5236
13.1808,30.5219
13.2016,30.5199
13.2221,30.5175
13.2423,30.5148
13.2622,30.5117
13.2819,30.5083
13.3013,30.5044
13.3204,30.5002
13.3577,30.4908
13.3939,30.4798
13.4290,30.4674
13.4630,30.4536
13.4958,30.4383
13.5276,30.4215
13.5582,30.4033
13.5877,30.3836
13.6160,30.3625
13.6433,30.3399
13.6692,30.3161
13.6934,30.2914
13.7160,30.2659
13.7369,30.2394
13.7561,30.2120
13.7737,30.1838
13.7896,30.1546
13.8038,30.1246
13.8163,30.0936
13.8272,30.0618
13.8364,30.0290
13.8439,29.9954
13.8497,29.9609
13.8539,29.9254
13.8564,29.8891
13.8572,29.8519
13.8565,29.8126
13.8543,29.7746
13.8507,29.7378
13.8456,29.7022
13.8391,29.6679
13.8311,29.6349
13.8216,29.6031
13.8107,29.5726
13.7983,29.5432
13.7845,29.5152
13.7692,29.4884
13.7525,29.4628
13.7343,29.4385
13.7147,29.4154
13.6936,29.3936
13.6710,29.3730
13.6470,29.3537
13.6215,29.3356
13.5946,29.3188
13.5663,29.3032
13.5364,29.2889
13.5051,29.2758
13.4724,29.2639
13.4382,29.2533
13.4026,29.2440
13.3655,29.2359
13.3269,29.2290
13.2869,29.2234
13.2454,29.2190
13.2025,29.2159
13.1581,29.2140
13.1123,29.2134
14.1367,29.2134
14.1367,29.5573
14.1367,31.1830
14.5807,31.1830
14.5807,30.4327
14.7004,30.4327
14.7155,30.4333
14.7351,30.4360
14.7561,30.4415
14.7761,30.4498
14.7783,30.4509
14.7956,30.4606
14.8126,30.4722
14.8293,30.4857
14.8435,30.4991
14.8556,30.5115
14.8696,30.5272
14.8836,30.5442
14.8956,30.5597
14.9075,30.5763
14.9155,30.5877
14.9276,30.6056
14.9399,30.6244
14.9523,30.6441
14.9628,30.6612
14.9734,30.6789
15.2797,31.1830
15.7897,31.1830
15.4175,30.6027
15.4138,30.5971
15.4027,30.5801
15.3910,30.5629
15.3790,30.5455
15.3664,30.5280
15.3535,30.5104
15.3491,30.5045
15.3357,30.4871
15.3220,30.4701
15.3082,30.4536
15.2941,30.4375
15.2797,30.4219
15.2773,30.4194
15.2629,30.4045
15.2482,30.3903
15.2333,30.3768
15.2181,30.3641
15.2001,30.3501
15.1898,30.3427
15.1715,30.3310
15.1530,30.3209
15.1342,30.3125
15.1151,30.3057
15.1151,30.3003
15.1398,30.2928
15.1640,30.2845
15.1876,30.2756
15.2106,30.2660
15.2330,30.2557
15.2549,30.2447
15.2761,30.2330
15.2968,30.2207
15.3169,30.2076
15.3363,30.1938
15.3549,30.1795
15.3728,30.1646
15.3899,30.1491
15.4062,30.1330
15.4217,30.1163
15.4365,30.0990
15.4505,30.0812
15.4637,30.0628
15.4760,30.0439
15.4876,30.0244
15.4983,30.0044
15.5081,29.9839
15.5172,29.9629
15.5254,29.9413
15.5329,29.9192
15.5393,29.8966
15.5448,29.8735
15.5492,29.8499
15.5527,29.8259
15.5552,29.8013
15.5567,29.7763
15.5569,29.7659
15.8649,29.7659
15.8654,29.7902
15.8667,29.8140
15.8689,29.8373
15.8720,29.8603
15.8760,29.8827
15.8809,29.9048
15.8866,29.9264
15.8933,29.9475
15.9008,29.9682
15.9092,29.9884
15.9185,30.0082
15.9287,30.0276
15.9397,30.0465
15.9517,30.0649
15.9645,30.0830
15.9783,30.1005
15.9929,30.1176
16.0084,30.1344
16.0249,30.1509
16.0422,30.1670
16.0605,30.1828
16.0797,30.1982
16.0999,30.2133
16.1209,30.2281
16.1428,30.2426
16.1657,30.2567
16.1895,30.2705
16.2142,30.2840
16.2398,30.2971
16.2663,30.3099
16.2938,30.3224
16.3221,30.3345
16.3447,30.3438
16.3668,30.3530
16.3885,30.3621
16.4098,30.3713
16.4308,30.3803
16.4513,30.3894
16.4714,30.3983
16.4912,30.4073
16.5105,30.4162
16.5291,30.4253
16.5471,30.4344
16.5685,30.4460
16.5889,30.4577
16.6082,30.4695
16.6265,30.4815
16.6404,30.4912
16.6567,30.5035
16.6718,30.5163
16.6884,30.5320
16.7032,30.5483
16.7164,30.5651
16.7204,30.5707
16.7309,30.5883
16.7391,30.6068
16.7449,30.6262
16.7484,30.6465
16.7496,30.6676
16.7483,30.6890
16.7444,30.7095
16.7380,30.7293
16.7291,30.7482
16.7264,30.7528
16.7141,30.7702
16.6992,30.7865
16.6839,30.7998
16.6665,30.8122
16.6585,30.8173
16.6413,30.8267
16.6226,30.8353
16.6026,30.8431
16.5810,30.8501
16.5620,30.8552
16.5460,30.8588
16.5252,30.8625
16.5033,30.8656
16.4803,30.8679
16.4564,30.8694
16.4365,30.8701
16.4159,30.8704
16.3981,30.8702
16.3713,30.8692
16.3446,30.8674
16.3179,30.8648
16.2913,30.8614
16.2647,30.8571
16.2382,30.8520
16.2117,30.8461
16.1853,30.8394
16.1589,30.8319
16.1326,30.8235
16.1152,30.8174
16.0894,30.8077
16.0640,30.7971
16.0389,30.7857
16.0142,30.7735
15.9898,30.7604
15.9658,30.7465
15.9421,30.7318
15.9188,30.7163
15.8958,30.7000
15.8732,30.6828
15.8732,31.1078
15.8868,31.1143
15.9076,31.1238
15.9292,31.1327
15.9514,31.1412
15.9743,31.1492
15.9979,31.1568
16.0222,31.1638
16.0472,31.1704
16.0729,31.1766
16.0992,31.1822
16.1263,31.1874
16.1446,31.1906
16.1724,31.1951
16.2005,31.1991
16.2289,31.2027
16.2575,31.2058
16.2864,31.2084
16.3156,31.2105
16.3352,31.2116
16.3549,31.2126
16.3747,31.2133
16.3947,31.2138
16.4148,31.2142
16.4350,31.2143
16.4546,31.2141
16.4839,31.2135
16.5129,31.2124
16.5416,31.2107
16.5701,31.2085
16.5982,31.2057
16.6261,31.2024
16.6537,31.1986
16.6811,31.1943
16.7081,31.1894
16.7349,31.1840
16.7525,31.1801
16.7785,31.1737
16.8038,31.1666
16.8285,31.1588
16.8526,31.1503
16.8760,31.1411
16.8989,31.1313
16.9211,31.1207
16.9427,31.1094
16.9637,31.0975
16.9840,31.0848
16.9973,31.0760
17.0165,31.0621
17.0350,31.0475
17.0526,31.0322
17.0695,31.0161
17.0855,30.9993
17.1008,30.9817
17.1153,30.9634
17.1290,30.9444
17.1419,30.9246
17.1540,30.9041
17.1616,30.8899
17.1720,30.8678
17.1814,30.8448
17.1896,30.8209
17.1968,30.7961
17.2028,30.7703
17.2078,30.7436
17.2116,30.7160
17.2144,30.6875
17.2156,30.6679
17.2163,30.6480
17.2166,30.6276
17.2165,30.6202
17.2160,30.5983
17.2149,30.5769
17.2131,30.5560
17.2107,30.5357
17.2076,30.5159
17.2026,30.4902
17.1965,30.4656
17.1893,30.4418
17.1809,30.4190
17.1715,30.3968
17.1611,30.3753
17.1497,30.3544
17.1373,30.3341
17.1239,30.3145
17.1096,30.2955
17.0942,30.2770
17.0778,30.2593
17.0606,30.2419
17.0424,30.2250
17.0235,30.2086
17.0037,30.1927
16.9831,30.1773
16.9671,30.1660
16.9506,30.1550
16.9336,30.1442
16.9161,30.1337
16.9043,30.1268
16.8862,30.1165
16.8677,30.1063
16.8488,30.0962
16.8294,30.0862
16.8096,30.0764
16.7894,30.0666
16.7687,30.0570
16.7476,30.0474
16.7261,30.0380
16.7041,30.0287
16.6881,30.0220
16.6672,30.0132
16.6468,30.0045
16.6269,29.9958
16.6077,29.9872
16.5889,29.9787
16.5708,29.9703
16.5488,29.9598
16.5445,29.9577
16.5239,29.9472
16.5042,29.9365
16.4854,29.9259
16.4677,29.9152
16.4509,29.9044
16.4321,29.8914
16.4149,29.8781
16.3992,29.8645
16.3850,29.8506
16.3704,29.8341
16.3578,29.8172
16.3517,29.8073
16.3431,29.7891
16.3369,29.7700
16.3332,29.7499
16.3319,29.7288
16.3319,29.7259
16.3334,29.7064
16.3378,29.6851
16.3451,29.6648
16.3554,29.6457
16.3599,29.6389
16.3737,29.6215
16.3878,29.6074
16.4036,29.5943
16.4213,29.5822
16.4240,29.5806
16.4437,29.5696
16.4621,29.5611
16.4819,29.5534
16.5029,29.5466
16.5254,29.5407
16.5332,29.5389
16.5532,29.5350
16.5738,29.5318
16.5951,29.5293
16.6171,29.5275
16.6398,29.5264
16.6631,29.5261
16.6700,29.5261
16.6909,29.5265
16.7122,29.5276
16.7340,29.5291
16.7562,29.5312
16.7789,29.5339
16.8020,29.5369
16.8250,29.5405
16.8443,29.5440
16.8635,29.5479
16.8827,29.5521
16.9020,29.5568
16.9097,29.5588
16.9289,29.5641
16.9480,29.5697
16.9668,29.5758
16.9854,29.5822
17.0039,29.5891
17.0221,29.5964
17.0294,29.5994
17.0509,29.6086
17.0717,29.6184
17.0918,29.6288
17.1113,29.6397
17.1301,29.6511
17.1301,29.2549
17.1175,29.2504
17.0983,29.2438
17.0788,29.2376
17.0590,29.2317
17.0388,29.2262
17.0183,29.2210
16.9975,29.2162
16.9763,29.2117
16.9548,29.2075
16.9330,29.2037
16.9108,29.2002
16.8958,29.1980
16.8728,29.1950
16.8492,29.1923
16.8250,29.1899
16.8002,29.1879
16.7747,29.1861
16.7487,29.1847
16.7220,29.1836
16.6947,29.1828
16.6667,29.1823
16.6382,29.1822
16.6187,29.1823
16.5897,29.1830
16.5610,29.1843
16.5326,29.1861
16.5045,29.1886
16.4767,29.1917
16.4491,29.1953
16.4218,29.1996
16.3948,29.2044
16.3681,29.2098
16.3417,29.2159
16.3243,29.2202
16.2987,29.2272
16.2737,29.2349
16.2493,29.2432
16.2255,29.2522
16.2022,29.2619
16.1796,29.2723
16.1576,29.2833
16.1361,29.2950
16.1153,29.3074
16.0950,29.3204
16.0819,29.3295
16.0628,29.3436
16.0445,29.3585
16.0270,29.3741
16.0103,29.3903
15.9944,29.4072
15.9793,29.4248
15.9649,29.4431
15.9513,29.4621
15.9385,29.4818
15.9265,29.5021
15.9190,29.5161
15.9087,29.5377
15.8995,29.5600
15.8914,29.5831
15.8844,29.6069
15.8784,29.6315
15.8736,29.6569
15.8698,29.6830
15.8671,29.7099
15.8655,29.7375
15.8649,29.7659
15.5569,29.7659
15.5572,29.7508
15.5565,29.7177
15.5544,29.6857
15.5509,29.6547
15.5460,29.6248
15.5397,29.5960
15.5320,29.5681
15.5229,29.5414
15.5124,29.5157
15.5005,29.4910
15.4871,29.4674
15.4724,29.4448
15.4563,29.4233
15.4388,29.4029
15.4199,29.3834
15.3996,29.3651
15.3779,29.3478
15.3548,29.3315
15.3303,29.3163
15.3044,29.3021
15.2771,29.2890
15.2483,29.2769
15.2182,29.2659
15.1867,29.2559
15.1538,29.2470
15.1195,29.2391
15.0838,29.2323
15.0467,29.2265
15.0081,29.2218
14.9682,29.2181
14.9269,29.2155
14.8842,29.2139
14.8401,29.2134
14.1367,29.2134
13.1123,29.2134
12.4172,29.2134
11.3815,29.2134
11.3815,28.1464
18.2523,28.1464
Z" /> 
</g>
<g style="fill:#F2EDA1; fill-opacity:1.0000; 
stroke:#F2EDA1; stroke-width:0.2250; stroke-opacity:1; 
stroke-linecap:round; stroke-linejoin:round;">
</g>
<g style="fill:#F2EDA1; fill-opacity:1.0000; 
stroke:#F2EDA1; stroke-width:0.0000; stroke-opacity:1; 
stroke-linecap:round; stroke-linejoin:round;">
<path style="fill:#F2EDA1; fill-opacity:1.0000; 
stroke:#F2EDA1; stroke-width:0.0000; stroke-opacity:1; 
stroke-linecap:round; stroke-linejoin:round;fill-rule:evenodd;"
d="M 15.6387,47.9908
15.6605,48.0126
15.6881,48.0678
15.6881,48.1575
15.6605,48.2126
15.6387,48.2344
15.5836,48.2620
15.3417,48.2620
15.3417,47.9632
15.5836,47.9632
Z" /> 
<path style="fill:#F2EDA1; fill-opacity:1.0000; 
stroke:#F2EDA1; stroke-width:0.0000; stroke-opacity:1; 
stroke-linecap:round; stroke-linejoin:round;fill-rule:evenodd;"
d="M 18.8100,49.4652
14.2963,49.4652
14.2963,48.3912
15.1131,48.3912
15.1167,48.3990
15.1167,48.8669
15.1306,48.9141
15.1805,48.9574
15.2459,48.9668
15.3060,48.9393
15.3417,48.8838
15.3417,48.4870
15.6041,48.4870
15.6309,48.4899
15.6515,48.4796
15.6735,48.4732
15.6805,48.4651
15.7431,48.4338
15.7616,48.4298
15.7835,48.4079
15.8062,48.3868
15.8067,48.3847
15.8226,48.3688
15.8389,48.3591
15.8527,48.3314
15.8676,48.3042
15.8674,48.3020
15.8985,48.2398
15.9131,48.2171
15.9131,48.1941
15.9172,48.1715
15.9131,48.1616
15.9131,48.1406
16.0644,48.1406
16.0852,48.2033
16.1367,48.2447
16.2023,48.2518
16.3145,48.1957
16.3330,48.1917
16.3548,48.1699
16.3548,48.7382
16.1654,48.7382
16.1182,48.7521
16.0749,48.8020
16.0655,48.8674
16.0930,48.9275
16.1485,48.9632
16.4592,48.9632
16.4840,48.9668
16.4918,48.9632
16.7692,48.9632
16.8164,48.9494
16.8597,48.8994
16.8691,48.8340
16.8416,48.7739
16.7860,48.7382
16.5798,48.7382
16.5798,48.4865
17.0655,48.4865
17.0930,48.5465
17.1485,48.5823
17.9597,48.5823
18.0069,48.5684
18.0501,48.5185
18.0595,48.4531
18.0321,48.3930
17.9765,48.3573
17.1654,48.3573
17.1182,48.3711
17.0749,48.4211
17.0655,48.4865
16.5798,48.4865
16.5798,47.8679
16.5845,47.8527
16.5798,47.8355
16.5798,47.8345
16.5755,47.8199
16.5670,47.7890
16.5662,47.7883
16.5659,47.7873
16.5417,47.7663
16.5178,47.7449
16.5168,47.7447
16.5160,47.7441
16.4842,47.7395
16.4526,47.7344
16.4516,47.7348
16.4506,47.7347
16.4214,47.7480
16.3920,47.7608
16.3914,47.7617
16.3905,47.7621
16.3732,47.7891
16.2846,47.9219
16.2102,47.9964
16.1168,48.0430
16.0808,48.0766
16.0644,48.1406
15.9131,48.1406
15.9131,48.0472
15.9160,48.0204
15.9057,47.9999
15.8993,47.9778
15.8912,47.9708
15.8599,47.9083
15.8559,47.8898
15.8340,47.8678
15.8129,47.8451
15.8107,47.8446
15.7949,47.8288
15.7852,47.8125
15.7575,47.7986
15.7303,47.7838
15.7281,47.7839
15.6659,47.7528
15.6432,47.7382
15.6202,47.7382
15.5976,47.7341
15.5877,47.7382
15.2372,47.7382
15.2125,47.7347
15.1898,47.7450
15.1658,47.7521
15.1602,47.7586
15.1524,47.7621
15.1389,47.7831
15.1225,47.8020
15.1213,47.8105
15.1167,47.8177
15.1167,47.8427
15.1131,47.8674
15.1167,47.8752
15.1167,48.3665
15.1131,48.3912
14.2963,48.3912
14.2963,46.9419
18.8100,46.9419
Z" /> 
</g>
<g style="fill:#F2EDA1; fill-opacity:1.0000; 
stroke:#F2EDA1; stroke-width:0.2250; stroke-opacity:1; 
stroke-linecap:round; stroke-linejoin:round;">
</g>
<g style="fill:#F2EDA1; fill-opacity:1.0000; 
stroke:#F2EDA1; stroke-width:0.0000; stroke-opacity:1; 
stroke-linecap:round; stroke-linejoin:round;">
<path style="fill:#F2EDA1; fill-opacity:1.0000; 
stroke:#F2EDA1; stroke-width:0.0000; stroke-opacity:1; 
stroke-linecap:round; stroke-linejoin:round;fill-rule:evenodd;"
d="M 10.4882,48.4525
10.3242,48.4525
10.4062,48.2065
Z" /> 
<path style="fill:#F2EDA1; fill-opacity:1.0000; 
stroke:#F2EDA1; stroke-width:0.0000; stroke-opacity:1; 
stroke-linecap:round; stroke-linejoin:round;fill-rule:evenodd;"
d="M 9.6311,48.4729
9.6471,48.4888
9.6746,48.5439
9.6746,48.6337
9.6471,48.6888
9.6253,48.7106
9.5701,48.7382
9.3282,48.7382
9.3282,48.4394
9.5308,48.4394
Z" /> 
<path style="fill:#F2EDA1; fill-opacity:1.0000; 
stroke:#F2EDA1; stroke-width:0.0000; stroke-opacity:1; 
stroke-linecap:round; stroke-linejoin:round;fill-rule:evenodd;"
d="M 9.5777,47.9908
9.5995,48.0126
9.6270,48.0678
9.6270,48.1099
9.5995,48.1650
9.5777,48.1868
9.5244,48.2134
9.5201,48.2133
9.5182,48.2144
9.3282,48.2144
9.3282,47.9632
9.5225,47.9632
Z" /> 
<path style="fill:#F2EDA1; fill-opacity:1.0000; 
stroke:#F2EDA1; stroke-width:0.0000; stroke-opacity:1; 
stroke-linecap:round; stroke-linejoin:round;fill-rule:evenodd;"
d="M 14.2915,49.4652
8.3492,49.4652
8.3492,48.8674
9.0997,48.8674
9.1100,48.8901
9.1171,48.9141
9.1236,48.9197
9.1271,48.9275
9.1481,48.9410
9.1670,48.9574
9.1755,48.9586
9.1827,48.9632
9.2077,48.9632
9.2324,48.9668
9.2402,48.9632
9.5906,48.9632
9.6174,48.9661
9.6380,48.9558
9.6601,48.9494
9.6670,48.9413
9.7296,48.9100
9.7481,48.9060
9.7700,48.8841
9.7748,48.8797
9.9592,48.8797
9.9929,48.9365
10.0520,48.9661
10.1177,48.9591
10.1691,48.9176
10.2492,48.6775
10.5632,48.6775
10.6379,48.9016
10.6660,48.9420
10.7270,48.9673
10.7921,48.9555
10.8404,48.9105
10.8567,48.8465
10.7594,48.5547
10.7603,48.5483
10.7491,48.5237
10.5303,47.8674
10.8140,47.8674
10.8414,47.9275
10.8970,47.9632
11.1032,47.9632
11.1032,48.8669
11.1171,48.9141
11.1670,48.9574
11.2324,48.9668
11.2925,48.9393
11.3282,48.8838
11.3282,47.9632
11.5176,47.9632
11.5648,47.9494
11.5966,47.9127
11.6033,47.9275
11.6589,47.9632
11.8651,47.9632
11.8651,48.8669
11.8790,48.9141
11.9289,48.9574
11.9943,48.9668
12.0544,48.9393
12.0901,48.8838
12.0901,48.4865
12.4806,48.4865
12.5081,48.5465
12.5636,48.5823
12.8651,48.5823
12.8651,48.8669
12.8790,48.9141
12.9289,48.9574
12.9943,48.9668
13.0544,48.9393
13.0901,48.8838
13.0901,48.5823
13.3748,48.5823
13.4220,48.5684
13.4652,48.5185
13.4746,48.4531
13.4472,48.3930
13.3916,48.3573
13.0901,48.3573
13.0901,48.0726
13.0763,48.0254
13.0263,47.9822
12.9609,47.9728
12.9008,48.0002
12.8651,48.0558
12.8651,48.3573
12.5805,48.3573
12.5333,48.3711
12.4900,48.4211
12.4806,48.4865
12.0901,48.4865
12.0901,47.9632
12.2795,47.9632
12.3267,47.9494
12.3700,47.8994
12.3794,47.8340
12.3520,47.7739
12.2964,47.7382
11.9857,47.7382
11.9609,47.7347
11.9532,47.7382
11.6757,47.7382
11.6285,47.7521
11.5968,47.7887
11.5900,47.7739
11.5345,47.7382
11.2238,47.7382
11.1990,47.7347
11.1912,47.7382
10.9138,47.7382
10.8666,47.7521
10.8234,47.8020
10.8140,47.8674
10.5303,47.8674
10.5194,47.8344
10.5198,47.8218
10.5091,47.8037
10.5078,47.7998
10.5009,47.7899
10.4861,47.7649
10.4822,47.7630
10.4797,47.7594
10.4530,47.7483
10.4271,47.7353
10.4227,47.7358
10.4187,47.7341
10.3902,47.7393
10.3614,47.7424
10.3580,47.7451
10.3537,47.7459
10.3325,47.7656
10.3099,47.7838
10.3085,47.7880
10.3053,47.7909
10.2982,47.8190
10.0684,48.5082
10.0614,48.5163
10.0582,48.5390
9.9610,48.8305
9.9592,48.8797
9.7748,48.8797
9.7927,48.8630
9.7933,48.8608
9.8091,48.8450
9.8254,48.8353
9.8392,48.8076
9.8541,48.7804
9.8539,48.7782
9.8851,48.7160
9.8996,48.6933
9.8996,48.6703
9.9037,48.6477
9.8996,48.6378
9.8996,48.5234
9.9025,48.4966
9.8923,48.4761
9.8858,48.4540
9.8778,48.4470
9.8465,48.3844
9.8424,48.3660
9.8205,48.3440
9.7994,48.3213
9.7973,48.3208
9.7812,48.3047
9.7916,48.2838
9.8065,48.2566
9.8063,48.2544
9.8374,48.1922
9.8520,48.1695
9.8520,48.1465
9.8561,48.1238
9.8520,48.1140
9.8520,48.0472
9.8549,48.0204
9.8446,47.9999
9.8382,47.9778
9.8301,47.9708
9.7988,47.9083
9.7948,47.8898
9.7729,47.8678
9.7518,47.8451
9.7497,47.8446
9.7338,47.8288
9.7241,47.8125
9.6964,47.7986
9.6692,47.7838
9.6670,47.7839
9.6048,47.7528
9.5821,47.7382
9.5591,47.7382
9.5365,47.7341
9.5267,47.7382
9.2238,47.7382
9.1990,47.7347
9.1763,47.7450
9.1523,47.7521
9.1467,47.7586
9.1389,47.7621
9.1254,47.7831
9.1091,47.8020
9.1078,47.8105
9.1032,47.8177
9.1032,47.8427
9.0997,47.8674
9.1032,47.8752
9.1032,48.3189
9.0997,48.3436
9.1032,48.3514
9.1032,48.8427
9.0997,48.8674
8.3492,48.8674
8.3492,46.9419
14.2915,46.9419
Z" /> 
</g>
<g style="fill:#F2EDA1; fill-opacity:1.0000; 
stroke:#F2EDA1; stroke-width:0.1200; stroke-opacity:1; 
stroke-linecap:round; stroke-linejoin:round;">
</g>
<g style="fill:#F2EDA1; fill-opacity:0.0; 
stroke:#F2EDA1; stroke-width:0.1200; stroke-opacity:1; 
stroke-linecap:round; stroke-linejoin:round;">
<path d="M1.3940 24.1968
L4.1940 24.1968
" />
<path d="M4.1940 24.1968
L4.1940 26.1968
" />
<path d="M4.1940 26.1968
L1.3940 26.1968
" />
<path d="M1.3940 26.1968
L1.3940 24.1968
" />
<path d="M18.9028 28.8196
L18.9028 31.5046
" />
<path d="M20.8228 31.5046
L20.8228 28.8196
" />
<path d="M18.9028 31.5046
L20.8228 31.5046
" />
<path d="M25.3076 10.6934
L25.3076 18.3734
" />
<path d="M22.6476 18.3734
L25.3076 18.3734
" />
<path d="M22.6476 10.6934
L25.3076 10.6934
" />
<path d="M22.6476 10.6934
L22.6476 18.3734
" />
<path d="M22.6476 9.4234
L22.6476 8.0934
" />
<path d="M22.6476 8.0934
L23.9776 8.0934
" />
</g>
<g style="fill:#F2EDA1; fill-opacity:0.0; 
stroke:#F2EDA1; stroke-width:0.1000; stroke-opacity:1; 
stroke-linecap:round; stroke-linejoin:round;">
<path d="M6.0824 15.3416 A0.0500 0.0500 0.0 0 0 6.1824 15.3416" />
<path d="M6.1824 15.3416 A0.0500 0.0500 0.0 0 0 6.0824 15.3416" />
</g>
<g style="fill:#F2EDA1; fill-opacity:0.0; 
stroke:#F2EDA1; stroke-width:0.2000; stroke-opacity:1; 
stroke-linecap:round; stroke-linejoin:round;">
<path d="M16.0824 19.8416
L7.0824 19.8416
" />
<path d="M16.0824 17.3416
L16.0824 19.8416
" />
<path d="M16.0824 10.8416
L16.0824 13.3416
" />
<path d="M7.0824 19.8416
L7.0824 17.3416
" />
<path d="M7.0824 13.3416
L7.0824 10.8416
" />
<path d="M7.0824 10.8416
L16.0824 10.8416
" />
</g>
<g style="fill:#F2EDA1; fill-opacity:1.0000; 
stroke:#F2EDA1; stroke-width:0.0000; stroke-opacity:1; 
stroke-linecap:round; stroke-linejoin:round;">
<circle cx="6.1824" cy="15.3416" r="0.0500" /> 
<circle cx="6.0824" cy="15.3416" r="0.0500" /> 
</g>
<g style="fill:#F2EDA1; fill-opacity:1.0000; 
stroke:#F2EDA1; stroke-width:0.1200; stroke-opacity:1; 
stroke-linecap:round; stroke-linejoin:round;">
</g>
<g style="fill:#F2EDA1; fill-opacity:0.0; 
stroke:#F2EDA1; stroke-width:0.1200; stroke-opacity:1; 
stroke-linecap:round; stroke-linejoin:round;">
<path d="M10.8108 29.9070
L10.8108 32.8070
" />
<path d="M10.2108 29.9070
L10.8108 29.9070
" />
<path d="M8.5108 29.9070
L8.5108 32.8070
" />
<circle cx="4.7444" cy="29.8196" r="3.2700" /> 
<path d="M7.9854 29.4176
L7.9854 30.2216
" />
<path d="M7.9454 29.1866
L7.9454 30.4526
" />
<path d="M7.9054 29.0176
L7.9054 30.6216
" />
<path d="M7.8654 28.8796
L7.8654 30.7596
" />
<path d="M7.8254 28.7606
L7.8254 30.8786
" />
<path d="M7.7854 28.6546
L7.7854 30.9846
" />
<path d="M7.7454 28.5576
L7.7454 31.0816
" />
<path d="M7.7054 28.4696
L7.7054 31.1696
" />
<path d="M7.6654 28.3876
L7.6654 31.2516
" />
<path d="M7.6254 28.3106
L7.6254 31.3286
" />
<path d="M7.5854 28.2386
L7.5854 31.4006
" />
<path d="M7.5454 28.1696
L7.5454 31.4696
" />
<path d="M7.5054 28.1056
L7.5054 31.5336
" />
<path d="M7.4654 28.0436
L7.4654 31.5956
" />
<path d="M7.4254 27.9856
L7.4254 31.6536
" />
<path d="M7.3854 27.9296
L7.3854 31.7096
" />
<path d="M7.3454 27.8756
L7.3454 31.7636
" />
<path d="M7.3054 27.8246
L7.3054 31.8146
" />
<path d="M7.2654 27.7756
L7.2654 31.8636
" />
<path d="M7.2254 27.7276
L7.2254 31.9116
" />
<path d="M7.1854 27.6826
L7.1854 31.9566
" />
<path d="M7.1454 27.6376
L7.1454 32.0016
" />
<path d="M7.1054 27.5956
L7.1054 32.0436
" />
<path d="M7.0654 27.5546
L7.0654 32.0846
" />
<path d="M7.0254 30.8596
L7.0254 32.1246
" />
<path d="M7.0254 27.5146
L7.0254 28.7796
" />
<path d="M6.9854 30.8596
L6.9854 32.1626
" />
<path d="M6.9854 27.4766
L6.9854 28.7796
" />
<path d="M6.9454 30.8596
L6.9454 32.1996
" />
<path d="M6.9454 27.4396
L6.9454 28.7796
" />
<path d="M6.9054 30.8596
L6.9054 32.2356
" />
<path d="M6.9054 27.4036
L6.9054 28.7796
" />
<path d="M6.8654 30.8596
L6.8654 32.2696
" />
<path d="M6.8654 27.3696
L6.8654 28.7796
" />
<path d="M6.8254 30.8596
L6.8254 32.3036
" />
<path d="M6.8254 27.3356
L6.8254 28.7796
" />
<path d="M6.7854 30.8596
L6.7854 32.3356
" />
<path d="M6.7854 27.3036
L6.7854 28.7796
" />
<path d="M6.7454 30.8596
L6.7454 32.3676
" />
<path d="M6.7454 27.2716
L6.7454 28.7796
" />
<path d="M6.7054 30.8596
L6.7054 32.3976
" />
<path d="M6.7054 27.2416
L6.7054 28.7796
" />
<path d="M6.6654 30.8596
L6.6654 32.4266
" />
<path d="M6.6654 27.2126
L6.6654 28.7796
" />
<path d="M6.6254 30.8596
L6.6254 32.4556
" />
<path d="M6.6254 27.1836
L6.6254 28.7796
" />
<path d="M6.5854 30.8596
L6.5854 32.4836
" />
<path d="M6.5854 27.1556
L6.5854 28.7796
" />
<path d="M6.5454 30.8596
L6.5454 32.5096
" />
<path d="M6.5454 27.1296
L6.5454 28.7796
" />
<path d="M6.5054 30.8596
L6.5054 32.5356
" />
<path d="M6.5054 27.1036
L6.5054 28.7796
" />
<path d="M6.4654 30.8596
L6.4654 32.5616
" />
<path d="M6.4654 27.0776
L6.4654 28.7796
" />
<path d="M6.4254 30.8596
L6.4254 32.5856
" />
<path d="M6.4254 27.0536
L6.4254 28.7796
" />
<path d="M6.3854 30.8596
L6.3854 32.6096
" />
<path d="M6.3854 27.0296
L6.3854 28.7796
" />
<path d="M6.3454 30.8596
L6.3454 32.6316
" />
<path d="M6.3454 27.0076
L6.3454 28.7796
" />
<path d="M6.3054 30.8596
L6.3054 32.6536
" />
<path d="M6.3054 26.9856
L6.3054 28.7796
" />
<path d="M6.2654 30.8596
L6.2654 32.6756
" />
<path d="M6.2654 26.9636
L6.2654 28.7796
" />
<path d="M6.2254 30.8596
L6.2254 32.6956
" />
<path d="M6.2254 26.9436
L6.2254 28.7796
" />
<path d="M6.1854 30.8596
L6.1854 32.7156
" />
<path d="M6.1854 26.9236
L6.1854 28.7796
" />
<path d="M6.1454 30.8596
L6.1454 32.7356
" />
<path d="M6.1454 26.9036
L6.1454 28.7796
" />
<path d="M6.1054 30.8596
L6.1054 32.7536
" />
<path d="M6.1054 26.8856
L6.1054 28.7796
" />
<path d="M6.0654 30.8596
L6.0654 32.7716
" />
<path d="M6.0654 26.8676
L6.0654 28.7796
" />
<path d="M6.0254 30.8596
L6.0254 32.7896
" />
<path d="M6.0254 26.8496
L6.0254 28.7796
" />
<path d="M5.9854 30.8596
L5.9854 32.8056
" />
<path d="M5.9854 26.8336
L5.9854 28.7796
" />
<path d="M5.9454 30.8596
L5.9454 32.8216
" />
<path d="M5.9454 26.8176
L5.9454 28.7796
" />
<path d="M5.9054 30.8596
L5.9054 32.8376
" />
<path d="M5.9054 26.8016
L5.9054 28.7796
" />
<path d="M5.8654 30.8596
L5.8654 32.8526
" />
<path d="M5.8654 26.7866
L5.8654 28.7796
" />
<path d="M5.8254 30.8596
L5.8254 32.8666
" />
<path d="M5.8254 26.7726
L5.8254 28.7796
" />
<path d="M5.7854 30.8596
L5.7854 32.8806
" />
<path d="M5.7854 26.7586
L5.7854 28.7796
" />
<path d="M5.7454 30.8596
L5.7454 32.8936
" />
<path d="M5.7454 26.7456
L5.7454 28.7796
" />
<path d="M5.7054 30.8596
L5.7054 32.9056
" />
<path d="M5.7054 26.7336
L5.7054 28.7796
" />
<path d="M5.6654 30.8596
L5.6654 32.9176
" />
<path d="M5.6654 26.7216
L5.6654 28.7796
" />
<path d="M5.6254 30.8596
L5.6254 32.9296
" />
<path d="M5.6254 26.7096
L5.6254 28.7796
" />
<path d="M5.5854 30.8596
L5.5854 32.9406
" />
<path d="M5.5854 26.6986
L5.5854 28.7796
" />
<path d="M5.5454 30.8596
L5.5454 32.9506
" />
<path d="M5.5454 26.6886
L5.5454 28.7796
" />
<path d="M5.5054 30.8596
L5.5054 32.9606
" />
<path d="M5.5054 26.6786
L5.5054 28.7796
" />
<path d="M5.4654 30.8596
L5.4654 32.9696
" />
<path d="M5.4654 26.6696
L5.4654 28.7796
" />
<path d="M5.4244 30.8596
L5.4244 32.9786
" />
<path d="M5.4244 26.6606
L5.4244 28.7796
" />
<path d="M5.3844 30.8596
L5.3844 32.9866
" />
<path d="M5.3844 26.6526
L5.3844 28.7796
" />
<path d="M5.3444 30.8596
L5.3444 32.9946
" />
<path d="M5.3444 26.6446
L5.3444 28.7796
" />
<path d="M5.3044 30.8596
L5.3044 33.0016
" />
<path d="M5.3044 26.6376
L5.3044 28.7796
" />
<path d="M5.2644 30.8596
L5.2644 33.0086
" />
<path d="M5.2644 26.6306
L5.2644 28.7796
" />
<path d="M5.2244 30.8596
L5.2244 33.0146
" />
<path d="M5.2244 26.6246
L5.2244 28.7796
" />
<path d="M5.1844 30.8596
L5.1844 33.0206
" />
<path d="M5.1844 26.6186
L5.1844 28.7796
" />
<path d="M5.1444 30.8596
L5.1444 33.0256
" />
<path d="M5.1444 26.6136
L5.1444 28.7796
" />
<path d="M5.1044 30.8596
L5.1044 33.0306
" />
<path d="M5.1044 26.6086
L5.1044 28.7796
" />
<path d="M5.0644 30.8596
L5.0644 33.0346
" />
<path d="M5.0644 26.6046
L5.0644 28.7796
" />
<path d="M5.0244 30.8596
L5.0244 33.0376
" />
<path d="M5.0244 26.6016
L5.0244 28.7796
" />
<path d="M4.9844 30.8596
L4.9844 33.0416
" />
<path d="M4.9844 26.5976
L4.9844 28.7796
" />
<path d="M4.9444 26.5956
L4.9444 33.0436
" />
<path d="M4.9044 26.5926
L4.9044 33.0466
" />
<path d="M4.8644 26.5916
L4.8644 33.0476
" />
<path d="M4.8244 26.5896
L4.8244 33.0496
" />
<path d="M4.7844 26.5896
L4.7844 33.0496
" />
<path d="M4.7444 26.5896
L4.7444 33.0496
" />
<path d="M1.5592 27.6656
L1.5592 28.2956
" />
<path d="M1.2442 27.9806
L1.8742 27.9806
" />
<path d="M7.7828 49.5660
L1.4628 49.5660
" />
<path d="M1.4628 33.7460
L1.4628 49.5660
" />
<path d="M2.0228 33.7460
L2.0228 49.5660
" />
<path d="M7.3228 33.7460
L7.3228 49.5660
" />
<path d="M7.7828 33.7460
L7.7828 49.5660
" />
<path d="M7.7828 33.7460
L1.4628 33.7460
" />
<path d="M1.2228 33.5060
L1.2228 34.0060
" />
<path d="M1.9628 33.5060
L1.2228 33.5060
" />
<path d="M19.4968 33.8730
L25.8168 33.8730
" />
<path d="M25.8168 49.6930
L25.8168 33.8730
" />
<path d="M25.2568 49.6930
L25.2568 33.8730
" />
<path d="M19.9568 49.6930
L19.9568 33.8730
" />
<path d="M19.4968 49.6930
L19.4968 33.8730
" />
<path d="M19.4968 49.6930
L25.8168 49.6930
" />
<path d="M26.0568 49.9330
L26.0568 49.4330
" />
<path d="M25.3168 49.9330
L26.0568 49.9330
" />
<path d="M4.9876 10.6834
L4.9876 23.4434
" />
<path d="M2.3276 23.4434
L4.9876 23.4434
" />
<path d="M2.3276 10.6834
L4.9876 10.6834
" />
<path d="M2.3276 10.6834
L2.3276 23.4434
" />
<path d="M2.3276 9.4134
L2.3276 8.0834
" />
<path d="M2.3276 8.0834
L3.6576 8.0834
" />
<g >
</g>
<g >
</g>
<g >
</g>
<g >
</g>
<g >
</g>
<g >
</g>
<g >
</g>
<g >
</g>
<g >
</g>
<g >
</g>
<g >
</g>
<g >
</g>
<g >
</g>
<g >
</g>
<g >
</g>
<g >
</g>
<g >
</g>
<g >
</g>
<g >
</g>
<g >
</g>
<g >
</g>
<g >
</g>
<g >
</g>
<g >
</g>
<g >
</g>
<g >
</g>
<g >
</g>
<g >
</g>
<g >
</g>
<g >
</g>
<g >
</g>
<g >
</g>
<g >
</g>
<g >
</g>
<g >
</g>
<g >
</g>
<g >
</g>
<g >
</g>
<g >
</g>
<g >
</g>
<g >
</g>
<g >
</g>
<g >
</g>
<g >
</g>
<g >
</g>
<g >
</g>
<g >
</g>
<g >
</g>
<g >
</g>
<g >
</g>
<g >
</g>
<g >
</g>
<g >
</g>
<g >
</g>
<g >
</g>
<g >
</g>
<g >
</g>
<g >
</g>
<g >
</g>
<g >
</g>
<g >
</g>
<g >
</g>
<g >
</g>
<g >
</g>
<g >
</g>
<g >
</g>
<g >
</g>
<g >
</g>
<g >
</g>
<g >
</g>
<g >
</g>
<g >
</g>
<g >
</g>
<g >
</g>
<g >
</g>
<g >
</g>
<g >
</g>
<g >
</g>
<g >
</g>
</g>
<g style="fill:#000000; fill-opacity:0.0; 
stroke:#000000; stroke-width:0.1200; stroke-opacity:1; 
stroke-linecap:round; stroke-linejoin:round;">
</g>
<g style="fill:#D0D2CD; fill-opacity:0.0; 
stroke:#D0D2CD; stroke-width:0.1200; stroke-opacity:1; 
stroke-linecap:round; stroke-linejoin:round;">
</g>
<g style="fill:#D0D2CD; fill-opacity:0.0; 
stroke:#D0D2CD; stroke-width:0.2000; stroke-opacity:1; 
stroke-linecap:round; stroke-linejoin:round;">
<path style="fill:#D0D2CD; fill-opacity:0.0; 
stroke:#D0D2CD; stroke-width:0.2000; stroke-opacity:1; 
stroke-linecap:round; stroke-linejoin:round;fill:none"
d="M 1.3296,1.4394
26.3296,1.4394
26.3296,56.4394
1.3296,56.4394
Z" /> 
<g >
</g>
<g >
</g>
<g >
</g>
<g >
</g>
<g >
</g>
<g >
</g>
<g >
</g>
<g >
</g>
<g >
</g>
<g >
</g>
<g >
</g>
<g >
</g>
<g >
</g>
<g >
</g>
<g >
</g>
<g >
</g>
<g >
</g>
<g >
</g>
<g >
</g>
<g >
</g>
<g >
</g>
<g >
</g>
<g >
</g>
<g >
</g>
<g >
</g>
<g >
</g>
<g >
</g>
<g >
</g>
<g >
</g>
<g >
</g>
<g >
</g>
<g >
</g>
<g >
</g>
<g >
</g>
<g >
</g>
<g >
</g>
<g >
</g>
<g >
</g>
<g >
</g>
<g >
</g>
<g >
</g>
<g >
</g>
<g >
</g>
<g >
</g>
<g >
</g>
<g >
</g>
<g >
</g>
<g >
</g>
<g >
</g>
<g >
</g>
<g >
</g>
<g >
</g>
<g >
</g>
<g >
</g>
<g >
</g>
<g >
</g>
<g >
</g>
<g >
</g>
<g >
</g>
<g >
</g>
<g >
</g>
<g >
</g>
<g >
</g>
<g >
</g>
<g >
</g>
<g >
</g>
<g >
</g>
<g >
</g>
<g >
</g>
<g >
</g>
<g >
</g>
<g >
</g>
<g >
</g>
<g >
</g>
<g >
</g>
<g >
</g>
<g >
</g>
<g >
</g>
<g >
</g>
</g> 
</svg>
