<?xml version="1.0" standalone="no"?>
 <!DOCTYPE svg PUBLIC "-//W3C//DTD SVG 1.1//EN" 
 "http://www.w3.org/Graphics/SVG/1.1/DTD/svg11.dtd"> 
<svg
  xmlns:svg="http://www.w3.org/2000/svg"
  xmlns="http://www.w3.org/2000/svg"
  xmlns:xlink="http://www.w3.org/1999/xlink"
  version="1.1"
  width="27.8384mm" height="57.7342mm" viewBox="0.0000 0.0000 27.8384 57.7342">
<title>SVG Image created as Lyrav3-B_Silkscreen.svg date 2024/01/04 23:43:20 </title>
  <desc>Image generated by PCBNEW </desc>
<g style="fill:#000000; fill-opacity:1.0000;stroke:#000000; stroke-opacity:1.0000;
stroke-linecap:round; stroke-linejoin:round;"
 transform="translate(0 0) scale(1 1)">
</g>
<g style="fill:#000000; fill-opacity:0.0; 
stroke:#000000; stroke-width:0.0000; stroke-opacity:1; 
stroke-linecap:round; stroke-linejoin:round;">
</g>
<g style="fill:#E8B2A7; fill-opacity:0.0; 
stroke:#E8B2A7; stroke-width:0.0000; stroke-opacity:1; 
stroke-linecap:round; stroke-linejoin:round;">
</g>
<g style="fill:#E8B2A7; fill-opacity:0.0; 
stroke:#E8B2A7; stroke-width:0.2500; stroke-opacity:1; 
stroke-linecap:round; stroke-linejoin:round;">
<g transform="rotate(-270.000000 24.6126 49.5554)">
<text x="24.6126" y="49.5554"
transform="scale(-1 1) translate(-49.225200 0)"
textLength="10.7107" font-size="1.3333" lengthAdjust="spacingAndGlyphs"
text-anchor="start" opacity="0">JLCJLCJLCJLC</text>
</g>
<g class="stroked-text"><desc>JLCJLCJLCJLC</desc>
<path d="M25.7480 48.8671
L25.0337 48.8671
" />
<path d="M25.0337 48.8671
L24.8908 48.9147
" />
<path d="M24.8908 48.9147
L24.7956 49.0100
" />
<path d="M24.7956 49.0100
L24.7480 49.1528
" />
<path d="M24.7480 49.1528
L24.7480 49.2481
" />
<path d="M24.7480 47.9147
L24.7480 48.3909
" />
<path d="M24.7480 48.3909
L25.7480 48.3909
" />
<path d="M24.8432 47.0100
L24.7956 47.0576
" />
<path d="M24.7956 47.0576
L24.7480 47.2004
" />
<path d="M24.7480 47.2004
L24.7480 47.2957
" />
<path d="M24.7480 47.2957
L24.7956 47.4385
" />
<path d="M24.7956 47.4385
L24.8908 47.5338
" />
<path d="M24.8908 47.5338
L24.9861 47.5814
" />
<path d="M24.9861 47.5814
L25.1766 47.6290
" />
<path d="M25.1766 47.6290
L25.3194 47.6290
" />
<path d="M25.3194 47.6290
L25.5099 47.5814
" />
<path d="M25.5099 47.5814
L25.6051 47.5338
" />
<path d="M25.6051 47.5338
L25.7004 47.4385
" />
<path d="M25.7004 47.4385
L25.7480 47.2957
" />
<path d="M25.7480 47.2957
L25.7480 47.2004
" />
<path d="M25.7480 47.2004
L25.7004 47.0576
" />
<path d="M25.7004 47.0576
L25.6527 47.0100
" />
<path d="M25.7480 46.2957
L25.0337 46.2957
" />
<path d="M25.0337 46.2957
L24.8908 46.3433
" />
<path d="M24.8908 46.3433
L24.7956 46.4385
" />
<path d="M24.7956 46.4385
L24.7480 46.5814
" />
<path d="M24.7480 46.5814
L24.7480 46.6766
" />
<path d="M24.7480 45.3433
L24.7480 45.8195
" />
<path d="M24.7480 45.8195
L25.7480 45.8195
" />
<path d="M24.8432 44.4385
L24.7956 44.4862
" />
<path d="M24.7956 44.4862
L24.7480 44.6290
" />
<path d="M24.7480 44.6290
L24.7480 44.7243
" />
<path d="M24.7480 44.7243
L24.7956 44.8671
" />
<path d="M24.7956 44.8671
L24.8908 44.9624
" />
<path d="M24.8908 44.9624
L24.9861 45.0100
" />
<path d="M24.9861 45.0100
L25.1766 45.0576
" />
<path d="M25.1766 45.0576
L25.3194 45.0576
" />
<path d="M25.3194 45.0576
L25.5099 45.0100
" />
<path d="M25.5099 45.0100
L25.6051 44.9624
" />
<path d="M25.6051 44.9624
L25.7004 44.8671
" />
<path d="M25.7004 44.8671
L25.7480 44.7243
" />
<path d="M25.7480 44.7243
L25.7480 44.6290
" />
<path d="M25.7480 44.6290
L25.7004 44.4862
" />
<path d="M25.7004 44.4862
L25.6527 44.4385
" />
<path d="M25.7480 43.7243
L25.0337 43.7243
" />
<path d="M25.0337 43.7243
L24.8908 43.7719
" />
<path d="M24.8908 43.7719
L24.7956 43.8671
" />
<path d="M24.7956 43.8671
L24.7480 44.0100
" />
<path d="M24.7480 44.0100
L24.7480 44.1052
" />
<path d="M24.7480 42.7719
L24.7480 43.2481
" />
<path d="M24.7480 43.2481
L25.7480 43.2481
" />
<path d="M24.8432 41.8671
L24.7956 41.9147
" />
<path d="M24.7956 41.9147
L24.7480 42.0576
" />
<path d="M24.7480 42.0576
L24.7480 42.1528
" />
<path d="M24.7480 42.1528
L24.7956 42.2957
" />
<path d="M24.7956 42.2957
L24.8908 42.3909
" />
<path d="M24.8908 42.3909
L24.9861 42.4385
" />
<path d="M24.9861 42.4385
L25.1766 42.4862
" />
<path d="M25.1766 42.4862
L25.3194 42.4862
" />
<path d="M25.3194 42.4862
L25.5099 42.4385
" />
<path d="M25.5099 42.4385
L25.6051 42.3909
" />
<path d="M25.6051 42.3909
L25.7004 42.2957
" />
<path d="M25.7004 42.2957
L25.7480 42.1528
" />
<path d="M25.7480 42.1528
L25.7480 42.0576
" />
<path d="M25.7480 42.0576
L25.7004 41.9147
" />
<path d="M25.7004 41.9147
L25.6527 41.8671
" />
<path d="M25.7480 41.1528
L25.0337 41.1528
" />
<path d="M25.0337 41.1528
L24.8908 41.2004
" />
<path d="M24.8908 41.2004
L24.7956 41.2957
" />
<path d="M24.7956 41.2957
L24.7480 41.4385
" />
<path d="M24.7480 41.4385
L24.7480 41.5338
" />
<path d="M24.7480 40.2004
L24.7480 40.6766
" />
<path d="M24.7480 40.6766
L25.7480 40.6766
" />
<path d="M24.8432 39.2957
L24.7956 39.3433
" />
<path d="M24.7956 39.3433
L24.7480 39.4862
" />
<path d="M24.7480 39.4862
L24.7480 39.5814
" />
<path d="M24.7480 39.5814
L24.7956 39.7243
" />
<path d="M24.7956 39.7243
L24.8908 39.8195
" />
<path d="M24.8908 39.8195
L24.9861 39.8671
" />
<path d="M24.9861 39.8671
L25.1766 39.9147
" />
<path d="M25.1766 39.9147
L25.3194 39.9147
" />
<path d="M25.3194 39.9147
L25.5099 39.8671
" />
<path d="M25.5099 39.8671
L25.6051 39.8195
" />
<path d="M25.6051 39.8195
L25.7004 39.7243
" />
<path d="M25.7004 39.7243
L25.7480 39.5814
" />
<path d="M25.7480 39.5814
L25.7480 39.4862
" />
<path d="M25.7480 39.4862
L25.7004 39.3433
" />
<path d="M25.7004 39.3433
L25.6527 39.2957
" />
</g><text x="18.1864" y="5.1816"
transform="scale(-1 1) translate(-36.372800 0)"
textLength="4.2821" font-size="1.3333" lengthAdjust="spacingAndGlyphs"
text-anchor="start" opacity="0">BOOT</text>
<g class="stroked-text"><desc>BOOT</desc>
<path d="M17.4505 4.5224
L17.3076 4.5700
" />
<path d="M17.3076 4.5700
L17.2600 4.6176
" />
<path d="M17.2600 4.6176
L17.2124 4.7129
" />
<path d="M17.2124 4.7129
L17.2124 4.8557
" />
<path d="M17.2124 4.8557
L17.2600 4.9510
" />
<path d="M17.2600 4.9510
L17.3076 4.9986
" />
<path d="M17.3076 4.9986
L17.4029 5.0462
" />
<path d="M17.4029 5.0462
L17.7838 5.0462
" />
<path d="M17.7838 5.0462
L17.7838 4.0462
" />
<path d="M17.7838 4.0462
L17.4505 4.0462
" />
<path d="M17.4505 4.0462
L17.3553 4.0938
" />
<path d="M17.3553 4.0938
L17.3076 4.1415
" />
<path d="M17.3076 4.1415
L17.2600 4.2367
" />
<path d="M17.2600 4.2367
L17.2600 4.3319
" />
<path d="M17.2600 4.3319
L17.3076 4.4272
" />
<path d="M17.3076 4.4272
L17.3553 4.4748
" />
<path d="M17.3553 4.4748
L17.4505 4.5224
" />
<path d="M17.4505 4.5224
L17.7838 4.5224
" />
<path d="M16.5934 4.0462
L16.4029 4.0462
" />
<path d="M16.4029 4.0462
L16.3076 4.0938
" />
<path d="M16.3076 4.0938
L16.2124 4.1891
" />
<path d="M16.2124 4.1891
L16.1648 4.3796
" />
<path d="M16.1648 4.3796
L16.1648 4.7129
" />
<path d="M16.1648 4.7129
L16.2124 4.9034
" />
<path d="M16.2124 4.9034
L16.3076 4.9986
" />
<path d="M16.3076 4.9986
L16.4029 5.0462
" />
<path d="M16.4029 5.0462
L16.5934 5.0462
" />
<path d="M16.5934 5.0462
L16.6886 4.9986
" />
<path d="M16.6886 4.9986
L16.7838 4.9034
" />
<path d="M16.7838 4.9034
L16.8315 4.7129
" />
<path d="M16.8315 4.7129
L16.8315 4.3796
" />
<path d="M16.8315 4.3796
L16.7838 4.1891
" />
<path d="M16.7838 4.1891
L16.6886 4.0938
" />
<path d="M16.6886 4.0938
L16.5934 4.0462
" />
<path d="M15.5457 4.0462
L15.3553 4.0462
" />
<path d="M15.3553 4.0462
L15.2600 4.0938
" />
<path d="M15.2600 4.0938
L15.1648 4.1891
" />
<path d="M15.1648 4.1891
L15.1172 4.3796
" />
<path d="M15.1172 4.3796
L15.1172 4.7129
" />
<path d="M15.1172 4.7129
L15.1648 4.9034
" />
<path d="M15.1648 4.9034
L15.2600 4.9986
" />
<path d="M15.2600 4.9986
L15.3553 5.0462
" />
<path d="M15.3553 5.0462
L15.5457 5.0462
" />
<path d="M15.5457 5.0462
L15.6410 4.9986
" />
<path d="M15.6410 4.9986
L15.7362 4.9034
" />
<path d="M15.7362 4.9034
L15.7838 4.7129
" />
<path d="M15.7838 4.7129
L15.7838 4.3796
" />
<path d="M15.7838 4.3796
L15.7362 4.1891
" />
<path d="M15.7362 4.1891
L15.6410 4.0938
" />
<path d="M15.6410 4.0938
L15.5457 4.0462
" />
<path d="M14.8314 4.0462
L14.2600 4.0462
" />
<path d="M14.5457 5.0462
L14.5457 4.0462
" />
</g><text x="13.5636" y="5.1816"
transform="scale(-1 1) translate(-27.127200 0)"
textLength="3.1393" font-size="1.3333" lengthAdjust="spacingAndGlyphs"
text-anchor="start" opacity="0">RST</text>
<g class="stroked-text"><desc>RST</desc>
<path d="M12.5896 5.0462
L12.9229 4.5700
" />
<path d="M13.1610 5.0462
L13.1610 4.0462
" />
<path d="M13.1610 4.0462
L12.7801 4.0462
" />
<path d="M12.7801 4.0462
L12.6848 4.0938
" />
<path d="M12.6848 4.0938
L12.6372 4.1415
" />
<path d="M12.6372 4.1415
L12.5896 4.2367
" />
<path d="M12.5896 4.2367
L12.5896 4.3796
" />
<path d="M12.5896 4.3796
L12.6372 4.4748
" />
<path d="M12.6372 4.4748
L12.6848 4.5224
" />
<path d="M12.6848 4.5224
L12.7801 4.5700
" />
<path d="M12.7801 4.5700
L13.1610 4.5700
" />
<path d="M12.2086 4.9986
L12.0658 5.0462
" />
<path d="M12.0658 5.0462
L11.8277 5.0462
" />
<path d="M11.8277 5.0462
L11.7325 4.9986
" />
<path d="M11.7325 4.9986
L11.6848 4.9510
" />
<path d="M11.6848 4.9510
L11.6372 4.8557
" />
<path d="M11.6372 4.8557
L11.6372 4.7605
" />
<path d="M11.6372 4.7605
L11.6848 4.6653
" />
<path d="M11.6848 4.6653
L11.7325 4.6176
" />
<path d="M11.7325 4.6176
L11.8277 4.5700
" />
<path d="M11.8277 4.5700
L12.0182 4.5224
" />
<path d="M12.0182 4.5224
L12.1134 4.4748
" />
<path d="M12.1134 4.4748
L12.1610 4.4272
" />
<path d="M12.1610 4.4272
L12.2086 4.3319
" />
<path d="M12.2086 4.3319
L12.2086 4.2367
" />
<path d="M12.2086 4.2367
L12.1610 4.1415
" />
<path d="M12.1610 4.1415
L12.1134 4.0938
" />
<path d="M12.1134 4.0938
L12.0182 4.0462
" />
<path d="M12.0182 4.0462
L11.7801 4.0462
" />
<path d="M11.7801 4.0462
L11.6372 4.0938
" />
<path d="M11.3515 4.0462
L10.7801 4.0462
" />
<path d="M11.0658 5.0462
L11.0658 4.0462
" />
</g></g>
<g style="fill:#E8B2A7; fill-opacity:0.0; 
stroke:#E8B2A7; stroke-width:0.1200; stroke-opacity:1; 
stroke-linecap:round; stroke-linejoin:round;">
<path d="M15.4476 29.4324
L15.4476 29.6480
" />
<path d="M14.7276 29.4324
L14.7276 29.6480
" />
<path d="M18.8964 22.4292
L19.2036 22.4292
" />
<path d="M18.8964 23.1892
L19.2036 23.1892
" />
<path d="M10.3062 5.6344
L10.5218 5.6344
" />
<path d="M10.3062 6.3544
L10.5218 6.3544
" />
<path d="M16.5344 35.4572
L16.5344 35.7644
" />
<path d="M15.7744 35.4572
L15.7744 35.7644
" />
<path d="M10.3898 13.1054
L10.0826 13.1054
" />
<path d="M10.3898 12.3454
L10.0826 12.3454
" />
<path d="M13.6206 6.4052
L13.4050 6.4052
" />
<path d="M13.6206 5.6852
L13.4050 5.6852
" />
<path d="M8.3957 28.0860
L9.0457 28.0860
" />
<path d="M8.3957 27.4360
L8.3957 28.0860
" />
<path d="M15.6157 27.4360
L15.6157 28.0860
" />
<path d="M8.3957 21.5160
L8.3957 20.8660
" />
<path d="M15.6157 21.5160
L15.6157 20.8660
" />
<path d="M8.3957 20.8660
L9.0457 20.8660
" />
<path d="M15.6157 20.8660
L14.9657 20.8660
" />
<path d="M18.3665 39.2832
L17.7165 39.2832
" />
<path d="M18.3665 39.2832
L19.0165 39.2832
" />
<path d="M18.3665 42.4032
L16.6915 42.4032
" />
<path d="M18.3665 42.4032
L19.0165 42.4032
" />
<path d="M7.7464 43.6860
L8.0276 43.6860
" />
<path d="M7.7464 44.7060
L8.0276 44.7060
" />
</g>
<g style="fill:#E8B2A7; fill-opacity:0.0; 
stroke:#E8B2A7; stroke-width:0.2500; stroke-opacity:1; 
stroke-linecap:round; stroke-linejoin:round;">
<path d="M10.6720 16.1484
L10.6720 16.0184
" />
<path d="M10.6720 14.2584
L10.6720 14.1184
" />
<path d="M10.6720 14.1184
L10.2820 14.1184
" />
<path d="M10.2820 16.1484
L10.6720 16.1484
" />
<path d="M9.0220 14.1184
L8.6320 14.1184
" />
<path d="M8.6320 16.1484
L9.0220 16.1484
" />
<path d="M8.6320 16.0184
L8.6320 16.1484
" />
<path d="M8.6320 14.1184
L8.6320 14.2584
" />
</g>
<g style="fill:#E8B2A7; fill-opacity:1.0000; 
stroke:#E8B2A7; stroke-width:0.0000; stroke-opacity:1; 
stroke-linecap:round; stroke-linejoin:round;">
<circle cx="9.3220" cy="14.7784" r="0.1850" /> 
</g>
<g style="fill:#E8B2A7; fill-opacity:1.0000; 
stroke:#E8B2A7; stroke-width:0.1200; stroke-opacity:1; 
stroke-linecap:round; stroke-linejoin:round;">
</g>
<g style="fill:#E8B2A7; fill-opacity:0.0; 
stroke:#E8B2A7; stroke-width:0.1200; stroke-opacity:1; 
stroke-linecap:round; stroke-linejoin:round;">
<path d="M17.0626 24.6844
L17.2782 24.6844
" />
<path d="M17.0626 25.4044
L17.2782 25.4044
" />
<path d="M6.5172 41.4528
L6.5172 42.1028
" />
<path d="M6.5172 41.4528
L6.5172 40.8028
" />
<path d="M9.6372 41.4528
L9.6372 43.1278
" />
<path d="M9.6372 41.4528
L9.6372 40.8028
" />
</g>
<g style="fill:#E8B2A7; fill-opacity:0.0; 
stroke:#E8B2A7; stroke-width:0.1500; stroke-opacity:1; 
stroke-linecap:round; stroke-linejoin:round;">
<path d="M4.1392 28.2696
L4.1392 27.0096
" />
<path d="M5.5992 28.2696
L4.1392 28.2696
" />
<path d="M4.3692 28.0296
L7.0292 28.0296
" />
<path d="M7.0292 28.0296
L7.0292 24.7296
" />
<path d="M4.3692 27.9096
L4.3692 28.0296
" />
<path d="M4.3692 24.7296
L4.3692 27.9096
" />
<path d="M7.0292 24.7296
L4.3692 24.7296
" />
</g>
<g style="fill:#E8B2A7; fill-opacity:0.0; 
stroke:#E8B2A7; stroke-width:0.1200; stroke-opacity:1; 
stroke-linecap:round; stroke-linejoin:round;">
<path d="M11.1516 34.6976
L11.1516 34.3904
" />
<path d="M11.9116 34.6976
L11.9116 34.3904
" />
<path d="M17.0192 43.9664
L16.7120 43.9664
" />
<path d="M17.0192 43.2064
L16.7120 43.2064
" />
<path d="M18.5856 28.4154
L18.5856 28.6754
" />
<path d="M18.5856 33.6054
L16.9106 33.6054
" />
<path d="M18.5856 33.8654
L18.5856 33.6054
" />
<path d="M21.3106 28.4154
L18.5856 28.4154
" />
<path d="M21.3106 28.4154
L24.0356 28.4154
" />
<path d="M21.3106 33.8654
L18.5856 33.8654
" />
<path d="M21.3106 33.8654
L24.0356 33.8654
" />
<path d="M24.0356 28.4154
L24.0356 28.6754
" />
<path d="M24.0356 33.8654
L24.0356 33.6054
" />
<path d="M17.7522 51.7534
L17.7522 51.4722
" />
<path d="M18.7722 51.7534
L18.7722 51.4722
" />
<path d="M16.1534 9.1682
L16.1534 9.4754
" />
<path d="M15.3934 9.1682
L15.3934 9.4754
" />
<path d="M3.4246 26.5492
L3.4246 26.3336
" />
<path d="M4.1446 26.5492
L4.1446 26.3336
" />
<path d="M16.2034 11.7192
L16.2034 11.9348
" />
<path d="M15.4834 11.7192
L15.4834 11.9348
" />
<path d="M15.1322 19.4520
L15.3478 19.4520
" />
<path d="M15.1322 20.1720
L15.3478 20.1720
" />
<path d="M19.2036 24.1544
L18.8964 24.1544
" />
<path d="M19.2036 23.3944
L18.8964 23.3944
" />
<path d="M11.8154 14.0146
L11.8154 14.2302
" />
<path d="M11.0954 14.0146
L11.0954 14.2302
" />
<path d="M8.2286 30.3518
L8.2286 30.6590
" />
<path d="M7.4686 30.3518
L7.4686 30.6590
" />
<path d="M7.2920 37.3540
L11.3020 37.3540
" />
<path d="M7.2920 39.3540
L7.2920 37.3540
" />
<path d="M7.2920 39.3540
L11.3020 39.3540
" />
<path d="M20.2373 11.7838
L20.2373 11.5682
" />
<path d="M20.9573 11.7838
L20.9573 11.5682
" />
<path d="M18.9094 55.1668
L19.1906 55.1668
" />
<path d="M18.9094 56.1868
L19.1906 56.1868
" />
<path d="M8.1896 15.0226
L8.1896 15.2382
" />
<path d="M7.4696 15.0226
L7.4696 15.2382
" />
<path d="M9.4732 31.7762
L9.4732 32.0834
" />
<path d="M8.7132 31.7762
L8.7132 32.0834
" />
<path d="M16.9610 21.0776
L17.1766 21.0776
" />
<path d="M16.9610 21.7976
L17.1766 21.7976
" />
</g>
<g style="fill:#E8B2A7; fill-opacity:0.0; 
stroke:#E8B2A7; stroke-width:0.2500; stroke-opacity:1; 
stroke-linecap:round; stroke-linejoin:round;">
<path d="M26.4187 19.3412
L26.7487 19.6712
" />
<path d="M26.7487 19.6712
L26.7487 19.7112
" />
<path d="M26.7487 19.7112
L26.0187 20.4412
" />
<path d="M26.0187 19.7412
L26.4187 19.3412
" />
<path d="M26.0187 19.8212
L26.0187 19.7412
" />
<path d="M26.0187 19.8212
L20.8987 19.8212
" />
<path d="M20.8987 19.8212
L20.8987 20.3212
" />
<path d="M26.7487 21.1312
L26.7487 26.1712
" />
<path d="M26.0187 21.1312
L26.7487 21.1312
" />
<path d="M26.7487 26.1712
L26.0187 26.1712
" />
<path d="M20.8987 26.8212
L20.8987 27.3212
" />
<path d="M26.0187 27.3212
L26.0187 19.8212
" />
<path d="M26.0187 27.3212
L26.0187 27.4012
" />
<path d="M20.8987 27.3212
L26.0187 27.3212
" />
<path d="M26.0187 27.4012
L26.4187 27.8012
" />
<path d="M26.7487 27.4712
L26.6687 27.4712
" />
<path d="M26.6687 27.4712
L26.0187 26.8212
" />
<path d="M26.4187 27.8012
L26.7487 27.4712
" />
</g>
<g style="fill:#E8B2A7; fill-opacity:0.0; 
stroke:#E8B2A7; stroke-width:0.1200; stroke-opacity:1; 
stroke-linecap:round; stroke-linejoin:round;">
<path d="M11.1296 29.4070
L11.1296 29.6226
" />
<path d="M10.4096 29.4070
L10.4096 29.6226
" />
<path d="M8.8153 1.9314
L9.1226 1.9314
" />
<path d="M8.8153 2.6914
L9.1226 2.6914
" />
<path d="M18.2880 44.2616
L17.6380 44.2616
" />
<path d="M18.2880 44.2616
L18.9380 44.2616
" />
<path d="M18.2880 47.3816
L16.6130 47.3816
" />
<path d="M18.2880 47.3816
L18.9380 47.3816
" />
<path d="M7.0348 37.4892
L7.0348 37.7964
" />
<path d="M6.2748 37.4892
L6.2748 37.7964
" />
<path d="M17.0626 23.7192
L17.2782 23.7192
" />
<path d="M17.0626 24.4392
L17.2782 24.4392
" />
<path d="M14.7036 2.5194
L14.7036 3.1194
" />
<path d="M15.4036 3.8194
L16.8036 3.8194
" />
<path d="M16.8036 1.8194
L15.4036 1.8194
" />
<path d="M17.5036 3.1194
L17.5036 2.5194
" />
<path d="M15.4036 1.8194 A0.7000 0.7000 0.0 0 0 14.7036 2.5194" />
<path d="M14.7036 3.1194 A0.7000 0.7000 0.0 0 0 15.4036 3.8194" />
<path d="M17.5036 2.5194 A0.7000 0.7000 0.0 0 0 16.8036 1.8194" />
<path d="M16.8036 3.8194 A0.7000 0.7000 0.0 0 0 17.5036 3.1194" />
<path d="M21.1572 48.2588
L21.1572 48.5660
" />
<path d="M20.3972 48.2588
L20.3972 48.5660
" />
<path d="M21.2588 46.3792
L21.2588 46.6864
" />
<path d="M20.4988 46.3792
L20.4988 46.6864
" />
<path d="M21.2080 40.9964
L21.2080 41.3036
" />
<path d="M20.4480 40.9964
L20.4480 41.3036
" />
<path d="M19.4576 28.1168
L19.1504 28.1168
" />
<path d="M19.4576 27.3568
L19.1504 27.3568
" />
<path d="M7.0328 35.2032
L7.0328 35.5104
" />
<path d="M6.2728 35.2032
L6.2728 35.5104
" />
</g>
<g style="fill:#E8B2A7; fill-opacity:0.0; 
stroke:#E8B2A7; stroke-width:0.2000; stroke-opacity:1; 
stroke-linecap:round; stroke-linejoin:round;">
<path d="M19.7356 13.6852
L19.7356 13.2252
" />
<path d="M19.7356 9.5652
L19.7356 9.2352
" />
<path d="M19.7356 9.2352
L19.7356 9.1152
" />
<path d="M19.7356 9.1152
L18.5856 9.1152
" />
<path d="M18.5356 13.6852
L19.7356 13.6852
" />
<path d="M17.8256 9.1152
L16.6856 9.1152
" />
<path d="M16.6856 13.6852
L17.8756 13.6852
" />
<path d="M16.6856 13.2252
L16.6856 13.6852
" />
<path d="M16.6856 9.1152
L16.6856 9.5652
" />
</g>
<g style="fill:#E8B2A7; fill-opacity:0.0; 
stroke:#E8B2A7; stroke-width:0.2500; stroke-opacity:1; 
stroke-linecap:round; stroke-linejoin:round;">
</g>
<g style="fill:#E8B2A7; fill-opacity:1.0000; 
stroke:#E8B2A7; stroke-width:0.0000; stroke-opacity:1; 
stroke-linecap:round; stroke-linejoin:round;">
<circle cx="19.9856" cy="13.4252" r="0.2350" /> 
</g>
<g style="fill:#E8B2A7; fill-opacity:1.0000; 
stroke:#E8B2A7; stroke-width:0.1200; stroke-opacity:1; 
stroke-linecap:round; stroke-linejoin:round;">
</g>
<g style="fill:#E8B2A7; fill-opacity:0.0; 
stroke:#E8B2A7; stroke-width:0.1200; stroke-opacity:1; 
stroke-linecap:round; stroke-linejoin:round;">
<path d="M21.2080 43.2804
L21.2080 43.5876
" />
<path d="M20.4480 43.2804
L20.4480 43.5876
" />
</g>
<g style="fill:#E8B2A7; fill-opacity:0.0; 
stroke:#E8B2A7; stroke-width:0.1500; stroke-opacity:1; 
stroke-linecap:round; stroke-linejoin:round;">
<path d="M9.3580 7.5640
L9.5280 7.5640
" />
<path d="M9.3580 8.6040
L9.3580 7.5640
" />
<path d="M9.3580 9.6840
L9.3580 10.7240
" />
<path d="M9.3580 10.7240
L9.5280 10.7240
" />
<path d="M14.5180 7.5640
L14.3480 7.5640
" />
<path d="M14.5180 8.6040
L14.5180 7.5640
" />
<path d="M14.5180 9.6840
L14.5180 10.7240
" />
<path d="M14.5180 10.7240
L14.3480 10.7240
" />
</g>
<g style="fill:#E8B2A7; fill-opacity:0.0; 
stroke:#E8B2A7; stroke-width:0.2500; stroke-opacity:1; 
stroke-linecap:round; stroke-linejoin:round;">
</g>
<g style="fill:#E8B2A7; fill-opacity:1.0000; 
stroke:#E8B2A7; stroke-width:0.0000; stroke-opacity:1; 
stroke-linecap:round; stroke-linejoin:round;">
<circle cx="9.9380" cy="6.5540" r="0.2450" /> 
</g>
<g style="fill:#E8B2A7; fill-opacity:1.0000; 
stroke:#E8B2A7; stroke-width:0.1200; stroke-opacity:1; 
stroke-linecap:round; stroke-linejoin:round;">
</g>
<g style="fill:#E8B2A7; fill-opacity:0.0; 
stroke:#E8B2A7; stroke-width:0.1200; stroke-opacity:1; 
stroke-linecap:round; stroke-linejoin:round;">
<path d="M10.7966 2.5194
L10.7966 3.1194
" />
<path d="M11.4966 3.8194
L12.8966 3.8194
" />
<path d="M12.8966 1.8194
L11.4966 1.8194
" />
<path d="M13.5966 3.1194
L13.5966 2.5194
" />
<path d="M11.4966 1.8194 A0.7000 0.7000 0.0 0 0 10.7966 2.5194" />
<path d="M10.7966 3.1194 A0.7000 0.7000 0.0 0 0 11.4966 3.8194" />
<path d="M13.5966 2.5194 A0.7000 0.7000 0.0 0 0 12.8966 1.8194" />
<path d="M12.8966 3.8194 A0.7000 0.7000 0.0 0 0 13.5966 3.1194" />
<path d="M5.9448 19.3284
L5.6376 19.3284
" />
<path d="M5.9448 18.5684
L5.6376 18.5684
" />
<path d="M5.6632 17.3724
L5.6632 17.6796
" />
<path d="M4.9032 17.3724
L4.9032 17.6796
" />
<path d="M17.2064 49.4982
L11.1964 49.4982
" />
<path d="M14.9564 56.3182
L11.1964 56.3182
" />
<path d="M11.1964 56.3182
L11.1964 55.0582
" />
<path d="M11.1964 49.4982
L11.1964 50.7582
" />
<path d="M7.7128 45.1314
L7.9284 45.1314
" />
<path d="M7.7128 45.8514
L7.9284 45.8514
" />
<path d="M18.9240 3.2402
L18.9240 2.9330
" />
<path d="M19.6840 3.2402
L19.6840 2.9330
" />
<path d="M9.0912 36.4088
L9.7412 36.4088
" />
<path d="M9.0912 36.4088
L8.4412 36.4088
" />
<path d="M9.0912 33.2888
L10.7662 33.2888
" />
<path d="M9.0912 33.2888
L8.4412 33.2888
" />
<path d="M5.8762 20.4514
L5.6606 20.4514
" />
<path d="M5.8762 19.7314
L5.6606 19.7314
" />
<path d="M6.9150 23.3724
L6.6994 23.3724
" />
<path d="M6.9150 22.6524
L6.6994 22.6524
" />
<path d="M16.8668 38.9880
L16.5596 38.9880
" />
<path d="M16.8668 38.2280
L16.5596 38.2280
" />
<path d="M6.6610 24.3376
L6.4454 24.3376
" />
<path d="M6.6610 23.6176
L6.4454 23.6176
" />
<path d="M18.5697 34.1524
L17.9197 34.1524
" />
<path d="M18.5697 34.1524
L19.2197 34.1524
" />
<path d="M18.5697 37.2724
L16.8947 37.2724
" />
<path d="M18.5697 37.2724
L19.2197 37.2724
" />
<path d="M10.5400 31.7996
L10.5400 32.1068
" />
<path d="M9.7800 31.7996
L9.7800 32.1068
" />
<path d="M24.8456 34.8426
L24.8456 35.0582
" />
<path d="M24.1256 34.8426
L24.1256 35.0582
" />
<path d="M16.9610 22.0428
L17.1766 22.0428
" />
<path d="M16.9610 22.7628
L17.1766 22.7628
" />
<path d="M10.4350 19.3610
L10.4350 19.1454
" />
<path d="M11.1550 19.3610
L11.1550 19.1454
" />
<path d="M21.3604 37.6416
L21.3604 37.9488
" />
<path d="M20.6004 37.6416
L20.6004 37.9488
" />
<path d="M21.3604 35.7620
L21.3604 36.0692
" />
<path d="M20.6004 35.7620
L20.6004 36.0692
" />
<g >
</g>
<g >
</g>
<g >
</g>
<g >
</g>
<g >
</g>
<g >
</g>
<g >
</g>
<g >
</g>
<g >
</g>
<g >
</g>
<g >
</g>
<g >
</g>
<g >
</g>
<g >
</g>
<g >
</g>
<g >
</g>
<g >
</g>
<g >
</g>
<g >
</g>
<g >
</g>
<g >
</g>
<g >
</g>
<g >
</g>
<g >
</g>
<g >
</g>
<g >
</g>
<g >
</g>
<g >
</g>
<g >
</g>
<g >
</g>
<g >
</g>
<g >
</g>
<g >
</g>
<g >
</g>
<g >
</g>
<g >
</g>
<g >
</g>
<g >
</g>
<g >
</g>
<g >
</g>
<g >
</g>
<g >
</g>
<g >
</g>
<g >
</g>
<g >
</g>
<g >
</g>
<g >
</g>
<g >
</g>
<g >
</g>
<g >
</g>
<g >
</g>
<g >
</g>
<g >
</g>
<g >
</g>
<g >
</g>
<g >
</g>
<g >
</g>
<g >
</g>
<g >
</g>
<g >
</g>
<g >
</g>
<g >
</g>
<g >
</g>
<g >
</g>
<g >
</g>
<g >
</g>
<g >
</g>
<g >
</g>
<g >
</g>
<g >
</g>
<g >
</g>
<g >
</g>
<g >
</g>
<g >
</g>
<g >
</g>
<g >
</g>
<g >
</g>
<g >
</g>
<g >
</g>
</g>
<g style="fill:#000000; fill-opacity:0.0; 
stroke:#000000; stroke-width:0.1200; stroke-opacity:1; 
stroke-linecap:round; stroke-linejoin:round;">
</g>
<g style="fill:#D0D2CD; fill-opacity:0.0; 
stroke:#D0D2CD; stroke-width:0.1200; stroke-opacity:1; 
stroke-linecap:round; stroke-linejoin:round;">
</g>
<g style="fill:#D0D2CD; fill-opacity:0.0; 
stroke:#D0D2CD; stroke-width:0.2000; stroke-opacity:1; 
stroke-linecap:round; stroke-linejoin:round;">
<path style="fill:#D0D2CD; fill-opacity:0.0; 
stroke:#D0D2CD; stroke-width:0.2000; stroke-opacity:1; 
stroke-linecap:round; stroke-linejoin:round;fill:none"
d="M 1.3296,1.4394
26.3296,1.4394
26.3296,56.4394
1.3296,56.4394
Z" /> 
<g >
</g>
<g >
</g>
<g >
</g>
<g >
</g>
<g >
</g>
<g >
</g>
<g >
</g>
<g >
</g>
<g >
</g>
<g >
</g>
<g >
</g>
<g >
</g>
<g >
</g>
<g >
</g>
<g >
</g>
<g >
</g>
<g >
</g>
<g >
</g>
<g >
</g>
<g >
</g>
<g >
</g>
<g >
</g>
<g >
</g>
<g >
</g>
<g >
</g>
<g >
</g>
<g >
</g>
<g >
</g>
<g >
</g>
<g >
</g>
<g >
</g>
<g >
</g>
<g >
</g>
<g >
</g>
<g >
</g>
<g >
</g>
<g >
</g>
<g >
</g>
<g >
</g>
<g >
</g>
<g >
</g>
<g >
</g>
<g >
</g>
<g >
</g>
<g >
</g>
<g >
</g>
<g >
</g>
<g >
</g>
<g >
</g>
<g >
</g>
<g >
</g>
<g >
</g>
<g >
</g>
<g >
</g>
<g >
</g>
<g >
</g>
<g >
</g>
<g >
</g>
<g >
</g>
<g >
</g>
<g >
</g>
<g >
</g>
<g >
</g>
<g >
</g>
<g >
</g>
<g >
</g>
<g >
</g>
<g >
</g>
<g >
</g>
<g >
</g>
<g >
</g>
<g >
</g>
<g >
</g>
<g >
</g>
<g >
</g>
<g >
</g>
<g >
</g>
<g >
</g>
<g >
</g>
</g> 
</svg>
