%TF.GenerationSoftware,KiCad,Pcbnew,7.0.5*%
%TF.CreationDate,2023-08-27T23:52:23-07:00*%
%TF.ProjectId,Lyra V2,4c797261-2056-4322-9e6b-696361645f70,rev?*%
%TF.SameCoordinates,Original*%
%TF.FileFunction,Copper,L1,Top*%
%TF.FilePolarity,Positive*%
%FSLAX46Y46*%
G04 Gerber Fmt 4.6, Leading zero omitted, Abs format (unit mm)*
G04 Created by KiCad (PCBNEW 7.0.5) date 2023-08-27 23:52:23*
%MOMM*%
%LPD*%
G01*
G04 APERTURE LIST*
G04 Aperture macros list*
%AMRoundRect*
0 Rectangle with rounded corners*
0 $1 Rounding radius*
0 $2 $3 $4 $5 $6 $7 $8 $9 X,Y pos of 4 corners*
0 Add a 4 corners polygon primitive as box body*
4,1,4,$2,$3,$4,$5,$6,$7,$8,$9,$2,$3,0*
0 Add four circle primitives for the rounded corners*
1,1,$1+$1,$2,$3*
1,1,$1+$1,$4,$5*
1,1,$1+$1,$6,$7*
1,1,$1+$1,$8,$9*
0 Add four rect primitives between the rounded corners*
20,1,$1+$1,$2,$3,$4,$5,0*
20,1,$1+$1,$4,$5,$6,$7,0*
20,1,$1+$1,$6,$7,$8,$9,0*
20,1,$1+$1,$8,$9,$2,$3,0*%
G04 Aperture macros list end*
%TA.AperFunction,SMDPad,CuDef*%
%ADD10R,3.200000X3.200000*%
%TD*%
%TA.AperFunction,SMDPad,CuDef*%
%ADD11RoundRect,0.050000X0.387500X-0.050000X0.387500X0.050000X-0.387500X0.050000X-0.387500X-0.050000X0*%
%TD*%
%TA.AperFunction,SMDPad,CuDef*%
%ADD12RoundRect,0.050000X0.050000X-0.387500X0.050000X0.387500X-0.050000X0.387500X-0.050000X-0.387500X0*%
%TD*%
%TA.AperFunction,ComponentPad*%
%ADD13R,3.000000X3.000000*%
%TD*%
%TA.AperFunction,ComponentPad*%
%ADD14C,3.000000*%
%TD*%
%TA.AperFunction,ComponentPad*%
%ADD15R,1.700000X1.700000*%
%TD*%
%TA.AperFunction,ComponentPad*%
%ADD16O,1.700000X1.700000*%
%TD*%
%TA.AperFunction,SMDPad,CuDef*%
%ADD17RoundRect,0.200000X0.200000X0.275000X-0.200000X0.275000X-0.200000X-0.275000X0.200000X-0.275000X0*%
%TD*%
%TA.AperFunction,SMDPad,CuDef*%
%ADD18RoundRect,0.243750X0.456250X-0.243750X0.456250X0.243750X-0.456250X0.243750X-0.456250X-0.243750X0*%
%TD*%
%TA.AperFunction,SMDPad,CuDef*%
%ADD19R,0.250000X0.275000*%
%TD*%
%TA.AperFunction,SMDPad,CuDef*%
%ADD20R,0.275000X0.250000*%
%TD*%
%TA.AperFunction,SMDPad,CuDef*%
%ADD21RoundRect,0.150000X-0.150000X0.587500X-0.150000X-0.587500X0.150000X-0.587500X0.150000X0.587500X0*%
%TD*%
%TA.AperFunction,SMDPad,CuDef*%
%ADD22RoundRect,0.225000X0.225000X0.250000X-0.225000X0.250000X-0.225000X-0.250000X0.225000X-0.250000X0*%
%TD*%
%TA.AperFunction,SMDPad,CuDef*%
%ADD23R,2.000000X1.500000*%
%TD*%
%TA.AperFunction,SMDPad,CuDef*%
%ADD24R,2.000000X3.800000*%
%TD*%
%TA.AperFunction,SMDPad,CuDef*%
%ADD25R,0.375000X0.350000*%
%TD*%
%TA.AperFunction,SMDPad,CuDef*%
%ADD26R,0.350000X0.375000*%
%TD*%
%TA.AperFunction,SMDPad,CuDef*%
%ADD27RoundRect,0.243750X-0.456250X0.243750X-0.456250X-0.243750X0.456250X-0.243750X0.456250X0.243750X0*%
%TD*%
%TA.AperFunction,SMDPad,CuDef*%
%ADD28RoundRect,0.200000X-0.200000X-0.275000X0.200000X-0.275000X0.200000X0.275000X-0.200000X0.275000X0*%
%TD*%
%TA.AperFunction,SMDPad,CuDef*%
%ADD29RoundRect,0.250000X-0.250000X-0.475000X0.250000X-0.475000X0.250000X0.475000X-0.250000X0.475000X0*%
%TD*%
%TA.AperFunction,SMDPad,CuDef*%
%ADD30R,2.500000X1.200000*%
%TD*%
%TA.AperFunction,ComponentPad*%
%ADD31C,5.600000*%
%TD*%
%TA.AperFunction,SMDPad,CuDef*%
%ADD32RoundRect,0.200000X0.275000X-0.200000X0.275000X0.200000X-0.275000X0.200000X-0.275000X-0.200000X0*%
%TD*%
%TA.AperFunction,SMDPad,CuDef*%
%ADD33RoundRect,0.200000X0.200000X0.250000X-0.200000X0.250000X-0.200000X-0.250000X0.200000X-0.250000X0*%
%TD*%
%TA.AperFunction,SMDPad,CuDef*%
%ADD34R,1.500000X1.000000*%
%TD*%
%TA.AperFunction,SMDPad,CuDef*%
%ADD35R,0.350000X0.590000*%
%TD*%
%TA.AperFunction,SMDPad,CuDef*%
%ADD36R,0.590000X0.350000*%
%TD*%
%TA.AperFunction,SMDPad,CuDef*%
%ADD37RoundRect,0.250000X0.250000X0.475000X-0.250000X0.475000X-0.250000X-0.475000X0.250000X-0.475000X0*%
%TD*%
%TA.AperFunction,SMDPad,CuDef*%
%ADD38R,1.000000X0.800000*%
%TD*%
%TA.AperFunction,SMDPad,CuDef*%
%ADD39R,1.900000X1.800000*%
%TD*%
%TA.AperFunction,SMDPad,CuDef*%
%ADD40R,1.900000X1.900000*%
%TD*%
%TA.AperFunction,SMDPad,CuDef*%
%ADD41R,1.600000X2.100000*%
%TD*%
%TA.AperFunction,SMDPad,CuDef*%
%ADD42R,1.350000X0.400000*%
%TD*%
%TA.AperFunction,SMDPad,CuDef*%
%ADD43RoundRect,0.250000X0.625000X-0.375000X0.625000X0.375000X-0.625000X0.375000X-0.625000X-0.375000X0*%
%TD*%
%TA.AperFunction,SMDPad,CuDef*%
%ADD44RoundRect,0.200000X-0.275000X0.200000X-0.275000X-0.200000X0.275000X-0.200000X0.275000X0.200000X0*%
%TD*%
%TA.AperFunction,ViaPad*%
%ADD45C,0.600000*%
%TD*%
%TA.AperFunction,ViaPad*%
%ADD46C,1.000000*%
%TD*%
%TA.AperFunction,Conductor*%
%ADD47C,0.200000*%
%TD*%
%TA.AperFunction,Conductor*%
%ADD48C,1.000000*%
%TD*%
%TA.AperFunction,Conductor*%
%ADD49C,0.250000*%
%TD*%
%TA.AperFunction,Conductor*%
%ADD50C,0.286000*%
%TD*%
%TA.AperFunction,Conductor*%
%ADD51C,0.241300*%
%TD*%
%TA.AperFunction,Conductor*%
%ADD52C,0.254000*%
%TD*%
%TA.AperFunction,Conductor*%
%ADD53C,0.500000*%
%TD*%
%TA.AperFunction,Conductor*%
%ADD54C,0.300000*%
%TD*%
%TA.AperFunction,Conductor*%
%ADD55C,0.000000*%
%TD*%
G04 APERTURE END LIST*
D10*
%TO.P,U6,57,GND*%
%TO.N,GND*%
X119921900Y-96097600D03*
D11*
%TO.P,U6,56,QSPI_SS*%
%TO.N,/QSPI_SS*%
X116484400Y-98697600D03*
%TO.P,U6,55,QSPI_SD1*%
%TO.N,/QSPI_SD1*%
X116484400Y-98297600D03*
%TO.P,U6,54,QSPI_SD2*%
%TO.N,/QSPI_SD2*%
X116484400Y-97897600D03*
%TO.P,U6,53,QSPI_SD0*%
%TO.N,/QSPI_SDO*%
X116484400Y-97497600D03*
%TO.P,U6,52,QSPI_SCLK*%
%TO.N,/QSPI_SCLK*%
X116484400Y-97097600D03*
%TO.P,U6,51,QSPI_SD3*%
%TO.N,/QSPI_SD3*%
X116484400Y-96697600D03*
%TO.P,U6,50,DVDD*%
%TO.N,+1V1*%
X116484400Y-96297600D03*
%TO.P,U6,49,IOVDD*%
%TO.N,+3V3*%
X116484400Y-95897600D03*
%TO.P,U6,48,USB_VDD*%
X116484400Y-95497600D03*
%TO.P,U6,47,USB_DP*%
%TO.N,/RP USB_D+*%
X116484400Y-95097600D03*
%TO.P,U6,46,USB_DM*%
%TO.N,/RP USB_D-*%
X116484400Y-94697600D03*
%TO.P,U6,45,VREG_VOUT*%
%TO.N,+1V1*%
X116484400Y-94297600D03*
%TO.P,U6,44,VREG_IN*%
%TO.N,+3V3*%
X116484400Y-93897600D03*
%TO.P,U6,43,ADC_AVDD*%
X116484400Y-93497600D03*
D12*
%TO.P,U6,42,IOVDD*%
X117321900Y-92660100D03*
%TO.P,U6,41,GPIO29_ADC3*%
%TO.N,/BATT SENSE*%
X117721900Y-92660100D03*
%TO.P,U6,40,GPIO28_ADC2*%
%TO.N,/P1 CONT*%
X118121900Y-92660100D03*
%TO.P,U6,39,GPIO27_ADC1*%
%TO.N,/P2 CONT*%
X118521900Y-92660100D03*
%TO.P,U6,38,GPIO26_ADC0*%
%TO.N,/GPIO26*%
X118921900Y-92660100D03*
%TO.P,U6,37,GPIO25*%
%TO.N,/BARO INT*%
X119321900Y-92660100D03*
%TO.P,U6,36,GPIO24*%
%TO.N,/MAG INT*%
X119721900Y-92660100D03*
%TO.P,U6,35,GPIO23*%
%TO.N,/I2C1 SCL*%
X120121900Y-92660100D03*
%TO.P,U6,34,GPIO22*%
%TO.N,/I2C1 SDA*%
X120521900Y-92660100D03*
%TO.P,U6,33,IOVDD*%
%TO.N,+3V3*%
X120921900Y-92660100D03*
%TO.P,U6,32,GPIO21*%
%TO.N,/GYRO INT4*%
X121321900Y-92660100D03*
%TO.P,U6,31,GPIO20*%
%TO.N,/GYRO INT3*%
X121721900Y-92660100D03*
%TO.P,U6,30,GPIO19*%
%TO.N,/ACCEL INT2*%
X122121900Y-92660100D03*
%TO.P,U6,29,GPIO18*%
%TO.N,/ACCEL INT1*%
X122521900Y-92660100D03*
D11*
%TO.P,U6,28,GPIO17*%
%TO.N,/UART0 RX*%
X123359400Y-93497600D03*
%TO.P,U6,27,GPIO16*%
%TO.N,/UART0 TX*%
X123359400Y-93897600D03*
%TO.P,U6,26,RUN*%
%TO.N,/RUN*%
X123359400Y-94297600D03*
%TO.P,U6,25,SWD*%
%TO.N,/SWD*%
X123359400Y-94697600D03*
%TO.P,U6,24,SWCLK*%
%TO.N,/SWCLK*%
X123359400Y-95097600D03*
%TO.P,U6,23,DVDD*%
%TO.N,+1V1*%
X123359400Y-95497600D03*
%TO.P,U6,22,IOVDD*%
%TO.N,+3V3*%
X123359400Y-95897600D03*
%TO.P,U6,21,XOUT*%
%TO.N,unconnected-(U6-XOUT-Pad21)*%
X123359400Y-96297600D03*
%TO.P,U6,20,XIN*%
%TO.N,/XIN*%
X123359400Y-96697600D03*
%TO.P,U6,19,TESTEN*%
%TO.N,GND*%
X123359400Y-97097600D03*
%TO.P,U6,18,GPIO15*%
%TO.N,/SERVO4*%
X123359400Y-97497600D03*
%TO.P,U6,17,GPIO14*%
%TO.N,/SERVO3*%
X123359400Y-97897600D03*
%TO.P,U6,16,GPIO13*%
%TO.N,/SERVO2*%
X123359400Y-98297600D03*
%TO.P,U6,15,GPIO12*%
%TO.N,/SERVO1*%
X123359400Y-98697600D03*
D12*
%TO.P,U6,14,GPIO11*%
%TO.N,/LEDBLUE*%
X122521900Y-99535100D03*
%TO.P,U6,13,GPIO10*%
%TO.N,/LEDGREEN*%
X122121900Y-99535100D03*
%TO.P,U6,12,GPIO9*%
%TO.N,/LEDRED*%
X121721900Y-99535100D03*
%TO.P,U6,11,GPIO8*%
%TO.N,/MAG DRDY*%
X121321900Y-99535100D03*
%TO.P,U6,10,IOVDD*%
%TO.N,+3V3*%
X120921900Y-99535100D03*
%TO.P,U6,9,GPIO7*%
%TO.N,/P2 EN*%
X120521900Y-99535100D03*
%TO.P,U6,8,GPIO6*%
%TO.N,/P1 EN*%
X120121900Y-99535100D03*
%TO.P,U6,7,GPIO5*%
%TO.N,/BUZZER*%
X119721900Y-99535100D03*
%TO.P,U6,6,GPIO4*%
%TO.N,/BRKOUT CS*%
X119321900Y-99535100D03*
%TO.P,U6,5,GPIO3*%
%TO.N,/SPI0 MOSI*%
X118921900Y-99535100D03*
%TO.P,U6,4,GPIO2*%
%TO.N,/SPI0 SCLK*%
X118521900Y-99535100D03*
%TO.P,U6,3,GPIO1*%
%TO.N,/SD CS*%
X118121900Y-99535100D03*
%TO.P,U6,2,GPIO0*%
%TO.N,/SPI0 MISO*%
X117721900Y-99535100D03*
%TO.P,U6,1,IOVDD*%
%TO.N,+3V3*%
X117321900Y-99535100D03*
%TD*%
D13*
%TO.P,J5,1,Pin_1*%
%TO.N,/PYRO PWR*%
X136017000Y-86487000D03*
D14*
%TO.P,J5,2,Pin_2*%
%TO.N,+12P*%
X136017000Y-81407000D03*
%TO.P,J5,3,Pin_3*%
%TO.N,GND*%
X136017000Y-76327000D03*
%TO.P,J5,4,Pin_4*%
%TO.N,+5V*%
X136017000Y-71247000D03*
%TD*%
D13*
%TO.P,J2,1,Pin_1*%
%TO.N,/GPIO26*%
X103784400Y-71399400D03*
D14*
%TO.P,J2,2,Pin_2*%
%TO.N,+3V3*%
X103784400Y-76479400D03*
%TO.P,J2,3,Pin_3*%
%TO.N,GND*%
X103784400Y-81559400D03*
%TO.P,J2,4,Pin_4*%
%TO.N,+12P*%
X103784400Y-86639400D03*
%TD*%
D15*
%TO.P,J4,1,Pin_1*%
%TO.N,/SPI PWR*%
X135356600Y-103098600D03*
D16*
%TO.P,J4,2,Pin_2*%
%TO.N,/SPI0 SCLK*%
X137896600Y-103098600D03*
%TO.P,J4,3,Pin_3*%
%TO.N,/SPI0 MOSI*%
X135356600Y-105638600D03*
%TO.P,J4,4,Pin_4*%
%TO.N,/SPI0 MISO*%
X137896600Y-105638600D03*
%TO.P,J4,5,Pin_5*%
%TO.N,GND*%
X135356600Y-108178600D03*
%TO.P,J4,6,Pin_6*%
%TO.N,/BRKOUT CS*%
X137896600Y-108178600D03*
%TD*%
D15*
%TO.P,J10,1,Pin_1*%
%TO.N,/I2C PWR*%
X109829600Y-71780400D03*
D16*
%TO.P,J10,2,Pin_2*%
%TO.N,/I2C1 SCL*%
X109829600Y-74320400D03*
%TO.P,J10,3,Pin_3*%
%TO.N,/I2C1 SDA*%
X109829600Y-76860400D03*
%TO.P,J10,4,Pin_4*%
%TO.N,GND*%
X109829600Y-79400400D03*
%TD*%
D15*
%TO.P,J11,1,Pin_1*%
%TO.N,/UART PWR*%
X129108200Y-98856800D03*
D16*
%TO.P,J11,2,Pin_2*%
%TO.N,/UART0 TX*%
X129108200Y-96316800D03*
%TO.P,J11,3,Pin_3*%
%TO.N,/UART0 RX*%
X129108200Y-93776800D03*
%TO.P,J11,4,Pin_4*%
%TO.N,GND*%
X129108200Y-91236800D03*
%TD*%
D17*
%TO.P,R12,1*%
%TO.N,Net-(D3-A)*%
X124523000Y-105308400D03*
%TO.P,R12,2*%
%TO.N,+3V3*%
X122873000Y-105308400D03*
%TD*%
D15*
%TO.P,J12,1,Pin_1*%
%TO.N,GND*%
X102998400Y-108013999D03*
D16*
%TO.P,J12,2,Pin_2*%
%TO.N,/BOOTSEL*%
X102998400Y-105473999D03*
%TO.P,J12,3,Pin_3*%
%TO.N,unconnected-(J12-Pin_3-Pad3)*%
X102998400Y-102933999D03*
%TD*%
D18*
%TO.P,D1,1,K*%
%TO.N,+12VA*%
X109825000Y-121987500D03*
%TO.P,D1,2,A*%
%TO.N,VBUS*%
X109825000Y-120112500D03*
%TD*%
D19*
%TO.P,U4,1,VDDIO*%
%TO.N,+3V3*%
X113137500Y-76137500D03*
%TO.P,U4,2,SCK/SCL*%
%TO.N,/I2C1 SCL*%
X112637500Y-76137500D03*
D20*
%TO.P,U4,3,VSS/GND*%
%TO.N,GND*%
X112125000Y-76400000D03*
%TO.P,U4,4,SDI/SDO/SDA*%
%TO.N,/I2C1 SDA*%
X112125000Y-76900000D03*
%TO.P,U4,5,SDO/DNC/SA0*%
%TO.N,GND*%
X112125000Y-77400000D03*
D19*
%TO.P,U4,6,~{CS}*%
%TO.N,+3V3*%
X112637500Y-77662500D03*
%TO.P,U4,7,INT/DNC*%
%TO.N,/BARO INT*%
X113137500Y-77662500D03*
D20*
%TO.P,U4,8,VSS/GND__1*%
%TO.N,GND*%
X113650000Y-77400000D03*
%TO.P,U4,9,VSS/GND__2*%
X113650000Y-76900000D03*
%TO.P,U4,10,VDD*%
%TO.N,+3V3*%
X113650000Y-76400000D03*
%TD*%
D21*
%TO.P,Q3,1,G*%
%TO.N,/P1 EN*%
X129050000Y-124700000D03*
%TO.P,Q3,2,S*%
%TO.N,GND*%
X127150000Y-124700000D03*
%TO.P,Q3,3,D*%
%TO.N,Net-(Q3-D)*%
X128100000Y-126575000D03*
%TD*%
D22*
%TO.P,C14,1*%
%TO.N,GND*%
X121475800Y-111633000D03*
%TO.P,C14,2*%
%TO.N,+3V3*%
X119925800Y-111633000D03*
%TD*%
D23*
%TO.P,U1,1,GND*%
%TO.N,GND*%
X112400000Y-130650000D03*
%TO.P,U1,2,VO*%
%TO.N,+3V3*%
X112400000Y-132950000D03*
D24*
X118700000Y-132950000D03*
D23*
%TO.P,U1,3,VI*%
%TO.N,+12VA*%
X112400000Y-135250000D03*
%TD*%
D25*
%TO.P,U3,1,SCL/SPC*%
%TO.N,/I2C1 SCL*%
X119225000Y-76100000D03*
%TO.P,U3,2,GND*%
%TO.N,GND*%
X119225000Y-76600000D03*
%TO.P,U3,3,GND*%
X119225000Y-77100000D03*
%TO.P,U3,4,C1*%
%TO.N,Net-(U3-C1)*%
X119225000Y-77600000D03*
D26*
%TO.P,U3,5,Vdd*%
%TO.N,+3V3*%
X119737500Y-77612500D03*
%TO.P,U3,6,Vdd_IO*%
X120237500Y-77612500D03*
D25*
%TO.P,U3,7,INT*%
%TO.N,/MAG INT*%
X120750000Y-77600000D03*
%TO.P,U3,8,DRDY*%
%TO.N,/MAG DRDY*%
X120750000Y-77100000D03*
%TO.P,U3,9,SDO/SA1*%
%TO.N,GND*%
X120750000Y-76600000D03*
%TO.P,U3,10,~{CS}*%
%TO.N,+3V3*%
X120750000Y-76100000D03*
D26*
%TO.P,U3,11,SDA/SDI/SDO*%
%TO.N,/I2C1 SDA*%
X120237500Y-76087500D03*
%TO.P,U3,12,GND*%
%TO.N,GND*%
X119737500Y-76087500D03*
%TD*%
D27*
%TO.P,D2,1,K*%
%TO.N,GND*%
X110439200Y-104624900D03*
%TO.P,D2,2,A*%
%TO.N,Net-(D2-A)*%
X110439200Y-106499900D03*
%TD*%
D28*
%TO.P,R2,1*%
%TO.N,GND*%
X127300000Y-114400000D03*
%TO.P,R2,2*%
%TO.N,/P2 EN*%
X128950000Y-114400000D03*
%TD*%
D13*
%TO.P,J6,1,Pin_1*%
%TO.N,/P2-*%
X135991600Y-112750600D03*
D14*
%TO.P,J6,2,Pin_2*%
%TO.N,/PYRO PWR*%
X135991600Y-117830600D03*
%TO.P,J6,3,Pin_3*%
%TO.N,/P1-*%
X135991600Y-122910600D03*
%TO.P,J6,4,Pin_4*%
%TO.N,/PYRO PWR*%
X135991600Y-127990600D03*
%TD*%
D29*
%TO.P,C4,1*%
%TO.N,+12VA*%
X129600000Y-130650000D03*
%TO.P,C4,2*%
%TO.N,GND*%
X131500000Y-130650000D03*
%TD*%
D17*
%TO.P,R4,1*%
%TO.N,/P2-*%
X128900000Y-119975000D03*
%TO.P,R4,2*%
%TO.N,Net-(Q2-D)*%
X127250000Y-119975000D03*
%TD*%
D30*
%TO.P,SW1,1,A*%
%TO.N,unconnected-(SW1-A-Pad1)*%
X122650000Y-125200000D03*
%TO.P,SW1,2,B*%
%TO.N,+BATT*%
X122650000Y-122700000D03*
%TO.P,SW1,3,C*%
%TO.N,+12V*%
X122650000Y-120200000D03*
%TO.P,SW1,4,A*%
X117150000Y-120200000D03*
%TO.P,SW1,5,B*%
%TO.N,+BATT*%
X117150000Y-122700000D03*
%TO.P,SW1,6,C*%
%TO.N,unconnected-(SW1-C-Pad6)*%
X117150000Y-125200000D03*
%TD*%
D31*
%TO.P,H3,1,1*%
%TO.N,GND*%
X136900000Y-134150000D03*
%TD*%
D32*
%TO.P,R10,1*%
%TO.N,+12V*%
X124325000Y-115850000D03*
%TO.P,R10,2*%
%TO.N,/BATT SENSE*%
X124325000Y-114200000D03*
%TD*%
D13*
%TO.P,J3,1,Pin_1*%
%TO.N,+12V*%
X103911400Y-112725200D03*
D14*
%TO.P,J3,2,Pin_2*%
%TO.N,+BATT*%
X103911400Y-117805200D03*
%TO.P,J3,3,Pin_3*%
%TO.N,GND*%
X103911400Y-122885200D03*
%TO.P,J3,4,Pin_4*%
%TO.N,+BATT*%
X103911400Y-127965200D03*
%TD*%
D31*
%TO.P,H4,1,1*%
%TO.N,GND*%
X102900000Y-134150000D03*
%TD*%
D28*
%TO.P,R3,1*%
%TO.N,GND*%
X127250000Y-122800000D03*
%TO.P,R3,2*%
%TO.N,/P1 EN*%
X128900000Y-122800000D03*
%TD*%
D31*
%TO.P,H2,1,1*%
%TO.N,GND*%
X136850000Y-65150000D03*
%TD*%
D33*
%TO.P,X1,1,Tri-State*%
%TO.N,+3V3*%
X126568200Y-98903400D03*
%TO.P,X1,2,GND*%
%TO.N,GND*%
X126568200Y-97053400D03*
%TO.P,X1,3,OUT*%
%TO.N,/XIN*%
X125118200Y-97053400D03*
%TO.P,X1,4,VDD*%
%TO.N,+3V3*%
X125118200Y-98903400D03*
%TD*%
D21*
%TO.P,Q1,1,G*%
%TO.N,GND*%
X115075000Y-118100000D03*
%TO.P,Q1,2,S*%
%TO.N,Net-(Q1-S)*%
X113175000Y-118100000D03*
%TO.P,Q1,3,D*%
%TO.N,+12V*%
X114125000Y-119975000D03*
%TD*%
D17*
%TO.P,R18,1*%
%TO.N,+3V3*%
X123100600Y-81534000D03*
%TO.P,R18,2*%
%TO.N,/I2C1 SDA*%
X121450600Y-81534000D03*
%TD*%
D23*
%TO.P,U2,1,GND*%
%TO.N,GND*%
X127600000Y-135250000D03*
%TO.P,U2,2,VO*%
%TO.N,+5V*%
X127600000Y-132950000D03*
D24*
X121300000Y-132950000D03*
D23*
%TO.P,U2,3,VI*%
%TO.N,+12VA*%
X127600000Y-130650000D03*
%TD*%
D29*
%TO.P,C8,1*%
%TO.N,+5V*%
X129725000Y-132975000D03*
%TO.P,C8,2*%
%TO.N,GND*%
X131625000Y-132975000D03*
%TD*%
D34*
%TO.P,JP4,1,A*%
%TO.N,+5V*%
X128600000Y-105700000D03*
%TO.P,JP4,2,C*%
%TO.N,/UART PWR*%
X128600000Y-104400000D03*
%TO.P,JP4,3,B*%
%TO.N,+3V3*%
X128600000Y-103100000D03*
%TD*%
D35*
%TO.P,U7,1,INT2*%
%TO.N,/ACCEL INT2*%
X128500000Y-78265000D03*
%TO.P,U7,2,NC*%
%TO.N,unconnected-(U7-NC-Pad2)*%
X128000000Y-78265000D03*
%TO.P,U7,3,VDD*%
%TO.N,+3V3*%
X127500000Y-78265000D03*
%TO.P,U7,4,GNDA*%
%TO.N,GND*%
X127000000Y-78265000D03*
%TO.P,U7,5,CSB2*%
%TO.N,unconnected-(U7-CSB2-Pad5)*%
X126500000Y-78265000D03*
%TO.P,U7,6,GNDIO*%
%TO.N,GND*%
X126000000Y-78265000D03*
%TO.P,U7,7,PS*%
%TO.N,+3V3*%
X125500000Y-78265000D03*
D36*
%TO.P,U7,8,SCL/SCK*%
%TO.N,/I2C1 SCL*%
X125085000Y-77100000D03*
D35*
%TO.P,U7,9,SDA/SDI*%
%TO.N,/I2C1 SDA*%
X125500000Y-75935000D03*
%TO.P,U7,10,SDO2*%
%TO.N,GND*%
X126000000Y-75935000D03*
%TO.P,U7,11,VDDIO*%
%TO.N,+3V3*%
X126500000Y-75935000D03*
%TO.P,U7,12,INT3*%
%TO.N,/GYRO INT3*%
X127000000Y-75935000D03*
%TO.P,U7,13,INT4*%
%TO.N,/GYRO INT4*%
X127500000Y-75935000D03*
%TO.P,U7,14,CSB1*%
%TO.N,+3V3*%
X128000000Y-75935000D03*
%TO.P,U7,15,SDO1*%
%TO.N,GND*%
X128500000Y-75935000D03*
D36*
%TO.P,U7,16,INT1*%
%TO.N,/ACCEL INT1*%
X128915000Y-77100000D03*
%TD*%
D32*
%TO.P,R1,1*%
%TO.N,Net-(D2-A)*%
X112539200Y-106424900D03*
%TO.P,R1,2*%
%TO.N,+3V3*%
X112539200Y-104774900D03*
%TD*%
D22*
%TO.P,C3,1*%
%TO.N,+3V3*%
X110400000Y-131075000D03*
%TO.P,C3,2*%
%TO.N,GND*%
X108850000Y-131075000D03*
%TD*%
D37*
%TO.P,C2,1*%
%TO.N,+3V3*%
X110050000Y-132950000D03*
%TO.P,C2,2*%
%TO.N,GND*%
X108150000Y-132950000D03*
%TD*%
D28*
%TO.P,R17,1*%
%TO.N,+3V3*%
X117056400Y-81432400D03*
%TO.P,R17,2*%
%TO.N,/I2C1 SCL*%
X118706400Y-81432400D03*
%TD*%
D38*
%TO.P,D3,1,A*%
%TO.N,Net-(D3-A)*%
X124434600Y-103690600D03*
%TO.P,D3,2,RK*%
%TO.N,/LEDRED*%
X122934600Y-103690600D03*
%TO.P,D3,3,GK*%
%TO.N,/LEDGREEN*%
X122934600Y-102590600D03*
%TO.P,D3,4,BK*%
%TO.N,/LEDBLUE*%
X124434600Y-102590600D03*
%TD*%
D31*
%TO.P,H1,1,1*%
%TO.N,GND*%
X102900000Y-65150000D03*
%TD*%
D39*
%TO.P,J1,MP6*%
%TO.N,N/C*%
X102707600Y-99000400D03*
D40*
%TO.P,J1,MP5*%
X102707600Y-96400400D03*
%TO.P,J1,MP4*%
X102707600Y-94000400D03*
D39*
%TO.P,J1,MP3*%
X102707600Y-91400400D03*
D41*
%TO.P,J1,MP2*%
X105257600Y-98300400D03*
%TO.P,J1,MP1*%
X105257600Y-92100400D03*
D42*
%TO.P,J1,5,GND*%
%TO.N,GND*%
X105382600Y-96500400D03*
%TO.P,J1,4,ID*%
%TO.N,unconnected-(J1-ID-Pad4)*%
X105382600Y-95850400D03*
%TO.P,J1,3,D+*%
%TO.N,/USB_D+*%
X105382600Y-95200400D03*
%TO.P,J1,2,D-*%
%TO.N,/USB_D-*%
X105382600Y-94550400D03*
%TO.P,J1,1,VBUS*%
%TO.N,VBUS*%
X105382600Y-93900400D03*
%TD*%
D28*
%TO.P,R15,1*%
%TO.N,/USB_D+*%
X112913200Y-95643600D03*
%TO.P,R15,2*%
%TO.N,/RP USB_D+*%
X114563200Y-95643600D03*
%TD*%
D15*
%TO.P,J9,1,Pin_1*%
%TO.N,/SERVO1*%
X132969000Y-99542600D03*
D16*
%TO.P,J9,2,Pin_2*%
%TO.N,/SERVO2*%
X132969000Y-97002600D03*
%TO.P,J9,3,Pin_3*%
%TO.N,/SERVO PWR*%
X135509000Y-99542600D03*
%TO.P,J9,4,Pin_4*%
X135509000Y-97002600D03*
%TO.P,J9,5,Pin_5*%
%TO.N,GND*%
X138049000Y-99542600D03*
%TO.P,J9,6,Pin_6*%
X138049000Y-97002600D03*
%TD*%
D15*
%TO.P,J7,1,Pin_1*%
%TO.N,/SWD PWR*%
X127660000Y-82420000D03*
D16*
%TO.P,J7,2,Pin_2*%
%TO.N,/SWCLK*%
X130200000Y-82420000D03*
%TO.P,J7,3,Pin_3*%
%TO.N,/RUN*%
X127660000Y-84960000D03*
%TO.P,J7,4,Pin_4*%
%TO.N,GND*%
X130200000Y-84960000D03*
%TO.P,J7,5,Pin_5*%
X127660000Y-87500000D03*
%TO.P,J7,6,Pin_6*%
%TO.N,/SWD*%
X130200000Y-87500000D03*
%TD*%
D37*
%TO.P,C1,1*%
%TO.N,+12VA*%
X110050000Y-135300000D03*
%TO.P,C1,2*%
%TO.N,GND*%
X108150000Y-135300000D03*
%TD*%
D43*
%TO.P,F1,1*%
%TO.N,Net-(Q1-S)*%
X110275000Y-115250000D03*
%TO.P,F1,2*%
%TO.N,+12P*%
X110275000Y-112450000D03*
%TD*%
D21*
%TO.P,Q2,1,G*%
%TO.N,/P2 EN*%
X129075000Y-116275000D03*
%TO.P,Q2,2,S*%
%TO.N,GND*%
X127175000Y-116275000D03*
%TO.P,Q2,3,D*%
%TO.N,Net-(Q2-D)*%
X128125000Y-118150000D03*
%TD*%
D15*
%TO.P,J8,1,Pin_1*%
%TO.N,/SERVO3*%
X133045200Y-93776800D03*
D16*
%TO.P,J8,2,Pin_2*%
%TO.N,/SERVO4*%
X133045200Y-91236800D03*
%TO.P,J8,3,Pin_3*%
%TO.N,/SERVO PWR*%
X135585200Y-93776800D03*
%TO.P,J8,4,Pin_4*%
X135585200Y-91236800D03*
%TO.P,J8,5,Pin_5*%
%TO.N,GND*%
X138125200Y-93776800D03*
%TO.P,J8,6,Pin_6*%
X138125200Y-91236800D03*
%TD*%
D34*
%TO.P,JP3,1,A*%
%TO.N,+5V*%
X131350000Y-105725000D03*
%TO.P,JP3,2,C*%
%TO.N,/SPI PWR*%
X131350000Y-104425000D03*
%TO.P,JP3,3,B*%
%TO.N,+3V3*%
X131350000Y-103125000D03*
%TD*%
D17*
%TO.P,R5,1*%
%TO.N,/P1-*%
X128950000Y-128475000D03*
%TO.P,R5,2*%
%TO.N,Net-(Q3-D)*%
X127300000Y-128475000D03*
%TD*%
%TO.P,R16,1*%
%TO.N,/RP USB_D-*%
X114540800Y-94081600D03*
%TO.P,R16,2*%
%TO.N,/USB_D-*%
X112890800Y-94081600D03*
%TD*%
D44*
%TO.P,R11,1*%
%TO.N,/BATT SENSE*%
X122575000Y-114225000D03*
%TO.P,R11,2*%
%TO.N,GND*%
X122575000Y-115875000D03*
%TD*%
D45*
%TO.N,+3V3*%
X120919650Y-93332418D03*
D46*
%TO.N,GND*%
X114884200Y-125958600D03*
D45*
X118567200Y-94691200D03*
X125526800Y-75234800D03*
D46*
X108153200Y-134112000D03*
D45*
X132280491Y-101277480D03*
X111760000Y-77470000D03*
X109905800Y-90474800D03*
D46*
X131495800Y-131800600D03*
D45*
X127076200Y-96570800D03*
X129311400Y-67665600D03*
X116865400Y-78892400D03*
X122478800Y-79527400D03*
X119608600Y-75336400D03*
X122555000Y-116484400D03*
X121589800Y-112369600D03*
X116306600Y-91033600D03*
X128701800Y-75438000D03*
X115062000Y-117119400D03*
X121446811Y-76335715D03*
X119826788Y-96252504D03*
D46*
X108381800Y-131775200D03*
D45*
X121183400Y-96037400D03*
D46*
X128955800Y-135280400D03*
D45*
X118592600Y-76377800D03*
X127127000Y-121920000D03*
X122656600Y-97078800D03*
X121259600Y-94691200D03*
X126212600Y-124917200D03*
X127726902Y-115239800D03*
X114096800Y-77444600D03*
X120878600Y-97307400D03*
X110464600Y-103911400D03*
X120192800Y-95656400D03*
X114325400Y-92837000D03*
X104470200Y-96545400D03*
X118033800Y-98044000D03*
X115547900Y-95910400D03*
X111785400Y-75742800D03*
X108204000Y-100457000D03*
X126085600Y-78917800D03*
D46*
X113792000Y-130606800D03*
D45*
%TO.N,+3V3*%
X121234200Y-75565000D03*
X122318511Y-105189289D03*
D46*
X111455200Y-67614800D03*
D45*
X113151017Y-75686062D03*
X115646200Y-93319600D03*
X116408200Y-81432400D03*
X112606936Y-78091581D03*
X118363500Y-101769209D03*
X124336410Y-96233599D03*
X123621800Y-89128600D03*
X121146940Y-100354382D03*
X114020600Y-76301600D03*
X125202305Y-78848368D03*
X120319800Y-78206600D03*
X127648892Y-78918591D03*
X112522000Y-104190800D03*
X114782600Y-75361800D03*
X117094000Y-100152200D03*
X126516358Y-75386343D03*
X119786400Y-79146400D03*
D46*
X116535200Y-133223000D03*
D45*
X119616586Y-78118439D03*
D46*
X129900500Y-103145664D03*
D45*
X115690956Y-94054570D03*
D46*
X114858800Y-133070600D03*
X110464600Y-130302000D03*
D45*
X125857000Y-98903400D03*
X113003726Y-90565904D03*
X117068600Y-92100400D03*
X119710200Y-112395000D03*
X113842800Y-74980800D03*
X117172349Y-95704239D03*
X123494800Y-80822800D03*
D46*
%TO.N,+5V*%
X130911600Y-134340600D03*
X124637800Y-84886800D03*
D45*
X110286800Y-128841400D03*
D46*
X129336800Y-88849200D03*
D45*
X132695800Y-105613200D03*
%TO.N,Net-(U3-C1)*%
X118618000Y-77495400D03*
%TO.N,+1V1*%
X117449600Y-94919800D03*
X124166410Y-95309037D03*
X117300130Y-96510961D03*
%TO.N,VBUS*%
X104419400Y-93903800D03*
X108432600Y-112166400D03*
D46*
%TO.N,Net-(Q1-S)*%
X111912400Y-118668800D03*
D45*
%TO.N,/SPI0 SCLK*%
X120650000Y-114122200D03*
X124383800Y-111836200D03*
%TO.N,/SPI0 MOSI*%
X118567200Y-111963200D03*
%TO.N,/SPI0 MISO*%
X122809000Y-112344200D03*
%TO.N,/BRKOUT CS*%
X119563000Y-103022400D03*
X126141211Y-109859811D03*
D46*
%TO.N,/PYRO PWR*%
X131495800Y-119405400D03*
D45*
%TO.N,/SWD*%
X126669800Y-95046800D03*
%TO.N,/RUN*%
X125360100Y-94538800D03*
%TO.N,/I2C1 SDA*%
X117475000Y-74041000D03*
X116453138Y-75387593D03*
X123063000Y-76250800D03*
X123469400Y-78867000D03*
D46*
%TO.N,/UART PWR*%
X126619000Y-103098600D03*
D45*
%TO.N,/SD CS*%
X117164000Y-111981637D03*
%TO.N,/BUZZER*%
X119415500Y-98120200D03*
X111887000Y-84607400D03*
X114223800Y-81686400D03*
%TO.N,/P2 EN*%
X130378200Y-113614200D03*
X120878600Y-101346000D03*
%TO.N,Net-(Q2-D)*%
X126517400Y-119303800D03*
%TO.N,/P1 EN*%
X125755400Y-105743498D03*
X129667000Y-122732800D03*
%TO.N,Net-(Q3-D)*%
X126314200Y-127914400D03*
%TO.N,/P1 CONT*%
X124485400Y-122555000D03*
X108542089Y-127998489D03*
X102184200Y-90000898D03*
%TO.N,/P2 CONT*%
X101583500Y-89382600D03*
X116255800Y-128041400D03*
X106730800Y-130657600D03*
%TO.N,/BATT SENSE*%
X113512600Y-102387400D03*
X119370700Y-93648493D03*
%TO.N,/QSPI_SS*%
X113639600Y-101015800D03*
X105257600Y-108178600D03*
%TO.N,/MAG INT*%
X122199400Y-77622400D03*
X117957600Y-82727800D03*
%TO.N,/MAG DRDY*%
X122309475Y-98719670D03*
X122224800Y-76708000D03*
%TO.N,/BARO INT*%
X113588800Y-78409800D03*
X117297200Y-87604600D03*
%TO.N,/QSPI_SD1*%
X115366800Y-99872800D03*
%TO.N,/QSPI_SD2*%
X113974611Y-98750389D03*
%TO.N,/QSPI_SDO*%
X111836200Y-96961900D03*
%TO.N,/QSPI_SCLK*%
X113461800Y-96977200D03*
%TO.N,/QSPI_SD3*%
X114490255Y-96681953D03*
%TO.N,/GYRO INT3*%
X127812800Y-77053500D03*
X122270789Y-83002389D03*
%TO.N,/GYRO INT4*%
X121523452Y-82718327D03*
X129895600Y-76454000D03*
D46*
%TO.N,+12VA*%
X111150400Y-122047000D03*
X126161800Y-130632200D03*
X113842800Y-135255000D03*
%TD*%
D47*
%TO.N,/SWCLK*%
X122783600Y-95097600D02*
X123359400Y-95097600D01*
X122199400Y-93773653D02*
X122199400Y-94513400D01*
X125853853Y-90119200D02*
X122199400Y-93773653D01*
X128421654Y-90119200D02*
X125853853Y-90119200D01*
X128555654Y-89985200D02*
X128421654Y-90119200D01*
X129642346Y-90119200D02*
X129508346Y-89985200D01*
X130937000Y-90119200D02*
X129642346Y-90119200D01*
X129508346Y-89985200D02*
X128555654Y-89985200D01*
X131350000Y-89706200D02*
X130937000Y-90119200D01*
X131350000Y-83570000D02*
X131350000Y-89706200D01*
X130200000Y-82420000D02*
X131350000Y-83570000D01*
X122199400Y-94513400D02*
X122783600Y-95097600D01*
D48*
%TO.N,+12P*%
X138217000Y-79207000D02*
X136017000Y-81407000D01*
X138217000Y-70335730D02*
X138217000Y-79207000D01*
X136766070Y-68884800D02*
X138217000Y-70335730D01*
X133883400Y-68884800D02*
X136766070Y-68884800D01*
X131318000Y-66319400D02*
X133883400Y-68884800D01*
X131318000Y-63830200D02*
X131318000Y-66319400D01*
X108839000Y-63830200D02*
X131318000Y-63830200D01*
X107924600Y-64744600D02*
X108839000Y-63830200D01*
X104216548Y-68783200D02*
X107924600Y-65075148D01*
X102057200Y-68783200D02*
X104216548Y-68783200D01*
X100507800Y-78307800D02*
X100507800Y-70332600D01*
X100507800Y-70332600D02*
X102057200Y-68783200D01*
X107924600Y-65075148D02*
X107924600Y-64744600D01*
X100584000Y-78384000D02*
X100507800Y-78307800D01*
X100584000Y-87045800D02*
X100584000Y-78384000D01*
X100584000Y-87045800D02*
X100990400Y-86639400D01*
X100990400Y-86639400D02*
X103784400Y-86639400D01*
X100584000Y-106019600D02*
X100584000Y-87045800D01*
%TO.N,+5V*%
X115641586Y-128841400D02*
X110286800Y-128841400D01*
X116670014Y-129041400D02*
X115841586Y-129041400D01*
X115841586Y-129041400D02*
X115641586Y-128841400D01*
X120319800Y-128625600D02*
X117085814Y-128625600D01*
X117085814Y-128625600D02*
X116670014Y-129041400D01*
X121479000Y-129784800D02*
X120319800Y-128625600D01*
X121479000Y-130350000D02*
X121479000Y-129784800D01*
D47*
%TO.N,/QSPI_SDO*%
X112537900Y-96961900D02*
X113350000Y-97774000D01*
X115273014Y-97774000D02*
X115549415Y-97497600D01*
X111836200Y-96961900D02*
X112537900Y-96961900D01*
X113350000Y-97774000D02*
X115273014Y-97774000D01*
X115549415Y-97497600D02*
X116484400Y-97497600D01*
%TO.N,/QSPI_SD3*%
X114505902Y-96697600D02*
X116484400Y-96697600D01*
X114490255Y-96681953D02*
X114505902Y-96697600D01*
D48*
%TO.N,+12P*%
X100558600Y-106045000D02*
X100584000Y-106019600D01*
X100558600Y-108674199D02*
X100558600Y-106045000D01*
X108285000Y-110460000D02*
X102344401Y-110460000D01*
X102344401Y-110460000D02*
X100558600Y-108674199D01*
X110275000Y-112450000D02*
X108285000Y-110460000D01*
D49*
%TO.N,/GPIO26*%
X106476800Y-74091800D02*
X103784400Y-71399400D01*
X106476800Y-79654400D02*
X106476800Y-74091800D01*
X107924600Y-81102200D02*
X106476800Y-79654400D01*
X107924600Y-83083400D02*
X107924600Y-81102200D01*
D47*
X118921900Y-91921700D02*
X118921900Y-92660100D01*
X116935200Y-89935000D02*
X118921900Y-91921700D01*
X116916200Y-89782115D02*
X116935200Y-89801115D01*
X116916200Y-88417400D02*
X116916200Y-89782115D01*
X115163600Y-86664800D02*
X116916200Y-88417400D01*
X111506000Y-86664800D02*
X115163600Y-86664800D01*
X107924600Y-83083400D02*
X111506000Y-86664800D01*
X116935200Y-89801115D02*
X116935200Y-89935000D01*
D50*
%TO.N,/USB_D-*%
X112970000Y-94094400D02*
X112444800Y-94619600D01*
X106379800Y-94619600D02*
X106299000Y-94538800D01*
%TO.N,/USB_D+*%
X106364000Y-95108800D02*
X106273600Y-95199200D01*
%TO.N,/USB_D-*%
X112444800Y-94619600D02*
X106379800Y-94619600D01*
%TO.N,/USB_D+*%
X112444800Y-95108800D02*
X106364000Y-95108800D01*
X112992400Y-95656400D02*
X112444800Y-95108800D01*
D51*
%TO.N,/USB_D-*%
X105394200Y-94538800D02*
X106299000Y-94538800D01*
%TO.N,/USB_D+*%
X105383800Y-95199200D02*
X106273600Y-95199200D01*
X105382600Y-95200400D02*
X105383800Y-95199200D01*
D47*
%TO.N,/RP USB_D+*%
X115201200Y-95097600D02*
X116484400Y-95097600D01*
X114642400Y-95656400D02*
X115201200Y-95097600D01*
%TO.N,/RP USB_D-*%
X115223200Y-94697600D02*
X116484400Y-94697600D01*
X114620000Y-94094400D02*
X115223200Y-94697600D01*
D48*
%TO.N,+12V*%
X122650000Y-120200000D02*
X117150000Y-120200000D01*
X107200000Y-121397164D02*
X107200000Y-116060000D01*
X114350000Y-120544457D02*
X111450457Y-123444000D01*
X111450457Y-123444000D02*
X109246836Y-123444000D01*
X114350000Y-120200000D02*
X114350000Y-120544457D01*
X117150000Y-120200000D02*
X114350000Y-120200000D01*
X109246836Y-123444000D02*
X107200000Y-121397164D01*
X107200000Y-116060000D02*
X103800000Y-112660000D01*
X114350000Y-120200000D02*
X114125000Y-119975000D01*
X124325000Y-118525000D02*
X124325000Y-115850000D01*
X122650000Y-120200000D02*
X124325000Y-118525000D01*
D52*
%TO.N,GND*%
X114096800Y-77444600D02*
X113694600Y-77444600D01*
D53*
X127300000Y-114812898D02*
X127300000Y-114400000D01*
D52*
X112125000Y-76082400D02*
X111785400Y-75742800D01*
D54*
X126925000Y-77720000D02*
X126075000Y-77720000D01*
X119225000Y-76600000D02*
X119225000Y-77045400D01*
D53*
X127175000Y-115791702D02*
X127726902Y-115239800D01*
D54*
X127000000Y-77795000D02*
X126925000Y-77720000D01*
D47*
X125669800Y-75234800D02*
X125526800Y-75234800D01*
X125916358Y-75481358D02*
X125669800Y-75234800D01*
X122675400Y-97097600D02*
X122656600Y-97078800D01*
X118814800Y-76600000D02*
X119225000Y-76600000D01*
D48*
X127600000Y-135250000D02*
X128925400Y-135250000D01*
D53*
X126568200Y-97053400D02*
X126593600Y-97053400D01*
D48*
X108850000Y-131075000D02*
X108850000Y-131307000D01*
D54*
X121446811Y-76335715D02*
X121182526Y-76600000D01*
D53*
X126212600Y-124917200D02*
X126932800Y-124917200D01*
X115075000Y-117132400D02*
X115062000Y-117119400D01*
D48*
X108150000Y-134108800D02*
X108153200Y-134112000D01*
D47*
X110439200Y-103936800D02*
X110464600Y-103911400D01*
D53*
X127175000Y-116275000D02*
X127175000Y-115791702D01*
D48*
X131495800Y-131800600D02*
X131500000Y-131804800D01*
D53*
X121475800Y-111633000D02*
X121475800Y-112255600D01*
D48*
X108381800Y-132718200D02*
X108150000Y-132950000D01*
X108850000Y-131307000D02*
X108381800Y-131775200D01*
D47*
X126000000Y-75935000D02*
X125916358Y-75851358D01*
D52*
X111830000Y-77400000D02*
X111760000Y-77470000D01*
D48*
X108150000Y-132950000D02*
X108150000Y-134108800D01*
D54*
X126075000Y-77720000D02*
X126000000Y-77795000D01*
D47*
X119921900Y-96097600D02*
X119921900Y-96028900D01*
D54*
X126000000Y-78832200D02*
X126000000Y-78265000D01*
X127000000Y-78265000D02*
X127000000Y-77795000D01*
X121182526Y-76600000D02*
X120750000Y-76600000D01*
D53*
X127726902Y-115239800D02*
X127300000Y-114812898D01*
D48*
X131500000Y-132850000D02*
X131625000Y-132975000D01*
D47*
X104515200Y-96500400D02*
X104470200Y-96545400D01*
D53*
X115075000Y-118100000D02*
X115075000Y-117132400D01*
D52*
X113694600Y-77444600D02*
X113650000Y-77400000D01*
D48*
X131500000Y-131804800D02*
X131500000Y-132850000D01*
D53*
X127250000Y-122043000D02*
X127127000Y-121920000D01*
D47*
X123359400Y-97097600D02*
X122675400Y-97097600D01*
D53*
X127300000Y-116150000D02*
X127175000Y-116275000D01*
D48*
X131500000Y-130650000D02*
X131500000Y-131796400D01*
D53*
X127250000Y-122800000D02*
X127250000Y-122043000D01*
D47*
X120192800Y-95758000D02*
X120192800Y-95656400D01*
D53*
X127250000Y-122800000D02*
X127250000Y-124600000D01*
D48*
X108153200Y-134112000D02*
X108153200Y-135296800D01*
D47*
X118592600Y-76377800D02*
X118814800Y-76600000D01*
D52*
X112125000Y-77400000D02*
X111830000Y-77400000D01*
D48*
X128925400Y-135250000D02*
X128955800Y-135280400D01*
D54*
X128500000Y-75639800D02*
X128500000Y-75935000D01*
D53*
X127250000Y-124600000D02*
X127150000Y-124700000D01*
D47*
X120294400Y-95656400D02*
X121259600Y-94691200D01*
X105382600Y-96500400D02*
X104515200Y-96500400D01*
D48*
X131500000Y-131796400D02*
X131495800Y-131800600D01*
D47*
X120192800Y-95656400D02*
X120294400Y-95656400D01*
X119921900Y-96028900D02*
X120192800Y-95758000D01*
D53*
X122575000Y-115875000D02*
X122575000Y-116464400D01*
X122575000Y-116464400D02*
X122555000Y-116484400D01*
D47*
X125916358Y-75851358D02*
X125916358Y-75481358D01*
D52*
X112125000Y-76400000D02*
X112125000Y-76082400D01*
D53*
X127300000Y-114400000D02*
X127300000Y-116150000D01*
X126932800Y-124917200D02*
X127150000Y-124700000D01*
X126593600Y-97053400D02*
X127076200Y-96570800D01*
D54*
X126085600Y-78917800D02*
X126000000Y-78832200D01*
X128701800Y-75438000D02*
X128500000Y-75639800D01*
D52*
X113650000Y-76900000D02*
X113650000Y-77400000D01*
D48*
X113748800Y-130650000D02*
X113792000Y-130606800D01*
D53*
X121475800Y-112255600D02*
X121589800Y-112369600D01*
D48*
X112400000Y-130650000D02*
X113748800Y-130650000D01*
X108381800Y-131775200D02*
X108381800Y-132718200D01*
D47*
X110439200Y-104624900D02*
X110439200Y-103936800D01*
D54*
X119737500Y-75465300D02*
X119737500Y-76087500D01*
X119608600Y-75336400D02*
X119737500Y-75465300D01*
X126000000Y-77795000D02*
X126000000Y-78265000D01*
D48*
X108153200Y-135296800D02*
X108150000Y-135300000D01*
D47*
%TO.N,+3V3*%
X115824200Y-93497600D02*
X115646200Y-93319600D01*
X119737500Y-77997525D02*
X119616586Y-78118439D01*
X128000000Y-75625200D02*
X127761143Y-75386343D01*
D48*
X110464600Y-130302000D02*
X110400000Y-132600000D01*
D52*
X112637500Y-78061017D02*
X112606936Y-78091581D01*
D48*
X110400000Y-132600000D02*
X110050000Y-132950000D01*
D47*
X117321900Y-99924300D02*
X117321900Y-99535100D01*
D54*
X120750000Y-76049200D02*
X121234200Y-75565000D01*
D53*
X119710200Y-112395000D02*
X119710200Y-111848600D01*
D47*
X127761143Y-75386343D02*
X126516358Y-75386343D01*
X124336410Y-96233599D02*
X124011848Y-95909037D01*
X120237500Y-77612500D02*
X120237500Y-78124300D01*
X121146940Y-100354382D02*
X120921900Y-100129342D01*
D54*
X126500000Y-75935000D02*
X126500000Y-75402701D01*
D47*
X120921900Y-100129342D02*
X120921900Y-99535100D01*
D53*
X122386822Y-105257600D02*
X122318511Y-105189289D01*
D54*
X127500000Y-78769699D02*
X127500000Y-78265000D01*
D48*
X128625000Y-103125000D02*
X128600000Y-103100000D01*
D53*
X119710200Y-111848600D02*
X119925800Y-111633000D01*
D47*
X128000000Y-75935000D02*
X128000000Y-75625200D01*
D53*
X123100600Y-81217000D02*
X123494800Y-80822800D01*
D47*
X115847926Y-93897600D02*
X116484400Y-93897600D01*
D48*
X110400000Y-131075000D02*
X110464600Y-130302000D01*
D52*
X112637500Y-77662500D02*
X112637500Y-78061017D01*
D47*
X116978988Y-95897600D02*
X116484400Y-95897600D01*
D48*
X112400000Y-132950000D02*
X110050000Y-132950000D01*
D53*
X122937000Y-105257600D02*
X122386822Y-105257600D01*
D48*
X130175000Y-103125000D02*
X128625000Y-103125000D01*
X130175000Y-103125000D02*
X129921164Y-103125000D01*
D47*
X120921900Y-93051153D02*
X120921900Y-92660100D01*
D52*
X113650000Y-76400000D02*
X113922200Y-76400000D01*
D47*
X125500000Y-78265000D02*
X125202305Y-78562695D01*
D48*
X129921164Y-103125000D02*
X129900500Y-103145664D01*
D47*
X117172349Y-95704239D02*
X116978988Y-95897600D01*
D55*
X117068600Y-92100400D02*
X117068600Y-92406800D01*
D47*
X124011848Y-95909037D02*
X123370837Y-95909037D01*
X116484400Y-93497600D02*
X115824200Y-93497600D01*
X117094000Y-100152200D02*
X117321900Y-99924300D01*
D53*
X117056400Y-81432400D02*
X116408200Y-81432400D01*
D47*
X116965710Y-95497600D02*
X116484400Y-95497600D01*
X112539200Y-104208000D02*
X112522000Y-104190800D01*
D54*
X127648892Y-78918591D02*
X127500000Y-78769699D01*
X126500000Y-75402701D02*
X126516358Y-75386343D01*
X120750000Y-76100000D02*
X120750000Y-76049200D01*
D53*
X125118200Y-98903400D02*
X126568200Y-98903400D01*
D48*
X131350000Y-103125000D02*
X130175000Y-103125000D01*
D52*
X113137500Y-75699579D02*
X113151017Y-75686062D01*
D53*
X123100600Y-81534000D02*
X123100600Y-81217000D01*
D47*
X123370837Y-95909037D02*
X123359400Y-95897600D01*
D52*
X113922200Y-76400000D02*
X114020600Y-76301600D01*
D47*
X117172349Y-95704239D02*
X116965710Y-95497600D01*
X125202305Y-78562695D02*
X125202305Y-78848368D01*
X112539200Y-104774900D02*
X112539200Y-104208000D01*
X120980200Y-93109453D02*
X120921900Y-93051153D01*
D52*
X113137500Y-76137500D02*
X113137500Y-75699579D01*
D47*
X119737500Y-77612500D02*
X119737500Y-77997525D01*
D55*
X117068600Y-92406800D02*
X117321900Y-92660100D01*
D47*
X120237500Y-78124300D02*
X120319800Y-78206600D01*
X115690956Y-94054570D02*
X115847926Y-93897600D01*
D53*
%TO.N,+5V*%
X132584000Y-105725000D02*
X132695800Y-105613200D01*
D48*
X127600000Y-132950000D02*
X129700000Y-132950000D01*
X131350000Y-105725000D02*
X128625000Y-105725000D01*
X128625000Y-105725000D02*
X128600000Y-105700000D01*
X129700000Y-132950000D02*
X129725000Y-132975000D01*
X124637800Y-86669832D02*
X124637800Y-84886800D01*
X129725000Y-133154000D02*
X129725000Y-132975000D01*
X130911600Y-134340600D02*
X129725000Y-133154000D01*
X129336800Y-88849200D02*
X129136000Y-89050000D01*
D53*
X131350000Y-105725000D02*
X132584000Y-105725000D01*
D48*
X127017968Y-89050000D02*
X124637800Y-86669832D01*
X129136000Y-89050000D02*
X127017968Y-89050000D01*
D47*
%TO.N,Net-(U3-C1)*%
X118618000Y-77495400D02*
X119120400Y-77495400D01*
X119120400Y-77495400D02*
X119225000Y-77600000D01*
%TO.N,+1V1*%
X116875453Y-94297600D02*
X116484400Y-94297600D01*
X123977847Y-95497600D02*
X123359400Y-95497600D01*
X117086769Y-96297600D02*
X116484400Y-96297600D01*
X117449600Y-94919800D02*
X117449600Y-94871747D01*
X124166410Y-95309037D02*
X123977847Y-95497600D01*
X117300130Y-96510961D02*
X117086769Y-96297600D01*
X117449600Y-94871747D02*
X116875453Y-94297600D01*
D53*
%TO.N,VBUS*%
X108950000Y-112683800D02*
X108950000Y-119237500D01*
X108950000Y-119237500D02*
X109825000Y-120112500D01*
X108432600Y-112166400D02*
X108950000Y-112683800D01*
X104419400Y-93903800D02*
X104422800Y-93900400D01*
X104422800Y-93900400D02*
X105382600Y-93900400D01*
%TO.N,Net-(D2-A)*%
X112539200Y-106424900D02*
X110514200Y-106424900D01*
X110514200Y-106424900D02*
X110439200Y-106499900D01*
D54*
%TO.N,Net-(D3-A)*%
X124434600Y-103690600D02*
X124434600Y-105220000D01*
X124434600Y-105220000D02*
X124523000Y-105308400D01*
D47*
%TO.N,/LEDRED*%
X122109200Y-103214400D02*
X122509200Y-103614400D01*
X121721900Y-100171072D02*
X121970800Y-100419972D01*
X122509200Y-103614400D02*
X122909200Y-103614400D01*
X122109200Y-101179600D02*
X122109200Y-103214400D01*
X121970800Y-100419972D02*
X121970800Y-101041200D01*
X121721900Y-99535100D02*
X121721900Y-100171072D01*
X121970800Y-101041200D02*
X122109200Y-101179600D01*
%TO.N,/LEDGREEN*%
X122428000Y-100311486D02*
X122428000Y-100634800D01*
X122428000Y-100634800D02*
X122682000Y-100888800D01*
X122121900Y-99535100D02*
X122121900Y-100005386D01*
X122682000Y-101564271D02*
X122909200Y-101791471D01*
X122909200Y-101791471D02*
X122909200Y-102514400D01*
X122121900Y-100005386D02*
X122428000Y-100311486D01*
X122682000Y-100888800D02*
X122682000Y-101564271D01*
%TO.N,/LEDBLUE*%
X124409200Y-101981000D02*
X124409200Y-102514400D01*
X123044000Y-100698886D02*
X124167314Y-101822200D01*
X124167314Y-101822200D02*
X124250400Y-101822200D01*
X123044000Y-100361800D02*
X123044000Y-100698886D01*
X124250400Y-101822200D02*
X124409200Y-101981000D01*
X122521900Y-99839700D02*
X123044000Y-100361800D01*
X122521900Y-99535100D02*
X122521900Y-99839700D01*
D48*
%TO.N,Net-(Q1-S)*%
X111912400Y-118668800D02*
X112191800Y-118668800D01*
X112191800Y-118668800D02*
X112776000Y-118084600D01*
X112776000Y-117751000D02*
X110275000Y-115250000D01*
X112776000Y-118084600D02*
X112776000Y-117751000D01*
D50*
%TO.N,/USB_D-*%
X105382600Y-94550400D02*
X105394200Y-94538800D01*
D48*
%TO.N,+BATT*%
X117150000Y-122700000D02*
X122650000Y-122700000D01*
X113928800Y-125171200D02*
X116400000Y-122700000D01*
X109804200Y-125171200D02*
X113928800Y-125171200D01*
X103000130Y-125085200D02*
X101711400Y-123796470D01*
X101711400Y-123796470D02*
X101711400Y-121973930D01*
X103000130Y-120685200D02*
X104776470Y-120685200D01*
X116400000Y-122700000D02*
X117150000Y-122700000D01*
X108458000Y-126517400D02*
X109804200Y-125171200D01*
X108458000Y-126517400D02*
X107086400Y-126517400D01*
X107075400Y-127900000D02*
X108458000Y-126517400D01*
X104776470Y-120685200D02*
X104776470Y-118716470D01*
X101711400Y-121973930D02*
X103000130Y-120685200D01*
X104776470Y-118716470D02*
X103800000Y-117740000D01*
X107086400Y-126517400D02*
X105460800Y-124891800D01*
X105460800Y-124891800D02*
X105267400Y-125085200D01*
X103800000Y-127900000D02*
X107075400Y-127900000D01*
X105267400Y-125085200D02*
X103000130Y-125085200D01*
%TO.N,/SPI PWR*%
X134120000Y-104425000D02*
X135535000Y-103010000D01*
X131350000Y-104425000D02*
X134120000Y-104425000D01*
D47*
%TO.N,/SPI0 SCLK*%
X118521900Y-100857900D02*
X118426280Y-100857900D01*
X118521900Y-99535100D02*
X118521900Y-100857900D01*
X138075000Y-103010000D02*
X139225000Y-104160000D01*
X119877671Y-114122200D02*
X120650000Y-114122200D01*
X139225000Y-104160000D02*
X139225000Y-108577400D01*
X139225000Y-108577400D02*
X136942400Y-110860000D01*
X117763500Y-112008029D02*
X119877671Y-114122200D01*
X136942400Y-110860000D02*
X125360000Y-110860000D01*
X125360000Y-110860000D02*
X124383800Y-111836200D01*
X118426280Y-100857900D02*
X117763500Y-101520680D01*
X117763500Y-101520680D02*
X117763500Y-112008029D01*
%TO.N,/SPI0 MOSI*%
X134545000Y-106540000D02*
X135535000Y-105550000D01*
X128047515Y-106540000D02*
X134545000Y-106540000D01*
X118921900Y-101479080D02*
X118963500Y-101520680D01*
X118963500Y-104267000D02*
X122214700Y-107518200D01*
X118963500Y-101520680D02*
X118963500Y-104267000D01*
X118921900Y-99535100D02*
X118921900Y-101479080D01*
X118963500Y-111566900D02*
X118567200Y-111963200D01*
X122214700Y-107518200D02*
X127069314Y-107518200D01*
X127069314Y-107518200D02*
X128047515Y-106540000D01*
X118963500Y-104267000D02*
X118963500Y-111566900D01*
%TO.N,/SPI0 MISO*%
X138075000Y-105550000D02*
X136685000Y-106940000D01*
X116951929Y-101142800D02*
X116636800Y-101142800D01*
X121800000Y-113820729D02*
X121800000Y-113353200D01*
X115036600Y-112547400D02*
X117211400Y-114722200D01*
X120898529Y-114722200D02*
X121800000Y-113820729D01*
X121800000Y-113353200D02*
X122809000Y-112344200D01*
X136685000Y-106940000D02*
X128213200Y-106940000D01*
X117721900Y-100372829D02*
X116951929Y-101142800D01*
X117211400Y-114722200D02*
X120898529Y-114722200D01*
X117721900Y-99535100D02*
X117721900Y-100372829D01*
X128213200Y-106940000D02*
X122809000Y-112344200D01*
X115036600Y-102743000D02*
X115036600Y-112547400D01*
X116636800Y-101142800D02*
X115036600Y-102743000D01*
%TO.N,/BRKOUT CS*%
X119321900Y-101313395D02*
X119321900Y-99535100D01*
X136305189Y-109859811D02*
X126141211Y-109859811D01*
X119563000Y-101554495D02*
X119321900Y-101313395D01*
X138075000Y-108090000D02*
X136305189Y-109859811D01*
X119563000Y-103022400D02*
X119563000Y-101554495D01*
D48*
%TO.N,/PYRO PWR*%
X137815400Y-119405400D02*
X137868700Y-119458700D01*
X131495800Y-119405400D02*
X134484600Y-119405400D01*
X138350000Y-119940000D02*
X138350000Y-125700000D01*
X136150000Y-117740000D02*
X137868700Y-119458700D01*
X134484600Y-119405400D02*
X137815400Y-119405400D01*
X134484600Y-119405400D02*
X136150000Y-117740000D01*
X137868700Y-119458700D02*
X138350000Y-119940000D01*
X138350000Y-125700000D02*
X136150000Y-127900000D01*
D53*
%TO.N,/P2-*%
X128900000Y-119975000D02*
X128900000Y-119910000D01*
X128900000Y-119910000D02*
X136150000Y-112660000D01*
%TO.N,/P1-*%
X128950000Y-128475000D02*
X130495000Y-128475000D01*
X130495000Y-128475000D02*
X136150000Y-122820000D01*
D47*
%TO.N,/SWD*%
X124403502Y-94697600D02*
X124844702Y-95138800D01*
X123359400Y-94697600D02*
X124403502Y-94697600D01*
X126577800Y-95138800D02*
X126669800Y-95046800D01*
X124844702Y-95138800D02*
X126577800Y-95138800D01*
%TO.N,/RUN*%
X125360100Y-94538800D02*
X125118900Y-94297600D01*
X125118900Y-94297600D02*
X123359400Y-94297600D01*
%TO.N,/SERVO4*%
X123359400Y-97497600D02*
X124340657Y-97497600D01*
X124646457Y-97803400D02*
X127850200Y-97803400D01*
X130886200Y-93398800D02*
X133000000Y-91285000D01*
X127850200Y-97803400D02*
X128092200Y-97561400D01*
X128092200Y-97561400D02*
X129971800Y-97561400D01*
X130886200Y-96647000D02*
X130886200Y-93398800D01*
X124340657Y-97497600D02*
X124646457Y-97803400D01*
X129971800Y-97561400D02*
X130886200Y-96647000D01*
%TO.N,/SERVO3*%
X125628400Y-100533200D02*
X129794000Y-100533200D01*
X124174971Y-97897600D02*
X124418200Y-98140829D01*
X123359400Y-97897600D02*
X124174971Y-97897600D01*
X131267200Y-99060000D02*
X131267200Y-96831686D01*
X124828893Y-99771200D02*
X124866400Y-99771200D01*
X131286200Y-96812685D02*
X131286200Y-95538800D01*
X131286200Y-95538800D02*
X133000000Y-93825000D01*
X124866400Y-99771200D02*
X125628400Y-100533200D01*
X129794000Y-100533200D02*
X131267200Y-99060000D01*
X124418200Y-98140829D02*
X124418200Y-99360507D01*
X124418200Y-99360507D02*
X124828893Y-99771200D01*
X131267200Y-96831686D02*
X131286200Y-96812685D01*
%TO.N,/SERVO2*%
X124009286Y-98838714D02*
X124009286Y-98297600D01*
X123850400Y-98997600D02*
X124009286Y-98838714D01*
X131667200Y-99447400D02*
X129946400Y-101168200D01*
X133010000Y-96985000D02*
X133010000Y-97901400D01*
X125603000Y-101168200D02*
X123850400Y-99415600D01*
X129946400Y-101168200D02*
X125603000Y-101168200D01*
X132536400Y-98375000D02*
X131667200Y-98375000D01*
X124009286Y-98297600D02*
X123359400Y-98297600D01*
X131667200Y-98375000D02*
X131667200Y-99447400D01*
X123850400Y-99415600D02*
X123850400Y-98997600D01*
X133010000Y-97901400D02*
X132536400Y-98375000D01*
%TO.N,/SERVO1*%
X131191000Y-101676200D02*
X131496511Y-101370689D01*
X131496511Y-101370689D02*
X131496511Y-101037782D01*
X123359400Y-98697600D02*
X123444000Y-98782200D01*
X123444000Y-98782200D02*
X123444000Y-99822000D01*
X125298200Y-101676200D02*
X131191000Y-101676200D01*
X133010000Y-99857200D02*
X133010000Y-99525000D01*
X123444000Y-99822000D02*
X125298200Y-101676200D01*
X131496511Y-101037782D02*
X132407493Y-100126800D01*
X132740400Y-100126800D02*
X133010000Y-99857200D01*
X132407493Y-100126800D02*
X132740400Y-100126800D01*
%TO.N,/I2C1 SDA*%
X112125000Y-76900000D02*
X112052000Y-76827000D01*
X121031000Y-79679800D02*
X121031000Y-82362250D01*
X111160000Y-76919000D02*
X111160000Y-77733600D01*
X120923452Y-82966856D02*
X121031000Y-83074404D01*
X113842800Y-79248000D02*
X116453138Y-76637662D01*
X120521900Y-92171992D02*
X120521900Y-92660100D01*
X121031000Y-91662892D02*
X120521900Y-92171992D01*
X121083700Y-74853800D02*
X120237500Y-75700000D01*
X121666000Y-74853800D02*
X121083700Y-74853800D01*
X111252000Y-76827000D02*
X111160000Y-76919000D01*
X120237500Y-75700000D02*
X120237500Y-76087500D01*
X120923452Y-82469798D02*
X120923452Y-82966856D01*
X120270900Y-74041000D02*
X121083700Y-74853800D01*
X121843800Y-78867000D02*
X121031000Y-79679800D01*
X112674400Y-79248000D02*
X113842800Y-79248000D01*
X122758200Y-75946000D02*
X121666000Y-74853800D01*
X116453138Y-76637662D02*
X116453138Y-75387593D01*
X122769200Y-75935000D02*
X122758200Y-75946000D01*
X121031000Y-83074404D02*
X121031000Y-91662892D01*
X123063000Y-76250800D02*
X122758200Y-75946000D01*
X117475000Y-74041000D02*
X120270900Y-74041000D01*
X111160000Y-77733600D02*
X112674400Y-79248000D01*
X123469400Y-78867000D02*
X121843800Y-78867000D01*
X112052000Y-76827000D02*
X111252000Y-76827000D01*
X121031000Y-82362250D02*
X120923452Y-82469798D01*
X125500000Y-75935000D02*
X122769200Y-75935000D01*
X111252000Y-76827000D02*
X109822000Y-76827000D01*
%TO.N,/I2C1 SCL*%
X111930264Y-75039136D02*
X111131129Y-74240000D01*
X122799400Y-77870929D02*
X122447929Y-78222400D01*
X120121900Y-91013500D02*
X119126000Y-90017600D01*
X122447929Y-78222400D02*
X121950871Y-78222400D01*
X111131129Y-74240000D02*
X109775000Y-74240000D01*
X120121900Y-92660100D02*
X120121900Y-91013500D01*
X119695129Y-80086200D02*
X119126000Y-80086200D01*
X117928000Y-78380200D02*
X117928000Y-74803000D01*
X111930264Y-75039136D02*
X112588600Y-74380800D01*
X125085000Y-77100000D02*
X122950400Y-77100000D01*
X119126000Y-90017600D02*
X119126000Y-80086200D01*
X120386400Y-79232200D02*
X120386400Y-79394929D01*
X117928000Y-74803000D02*
X116586000Y-74803000D01*
X121808071Y-78079600D02*
X121539000Y-78079600D01*
X112637500Y-76137500D02*
X112551017Y-76051017D01*
X112551017Y-75659888D02*
X111930264Y-75039136D01*
X120386400Y-79394929D02*
X119695129Y-80086200D01*
X121539000Y-78079600D02*
X120386400Y-79232200D01*
X119225000Y-76100000D02*
X118374600Y-75249600D01*
X121950871Y-78222400D02*
X121808071Y-78079600D01*
X116163800Y-74380800D02*
X116586000Y-74803000D01*
X119126000Y-79578200D02*
X117928000Y-78380200D01*
X112588600Y-74380800D02*
X116163800Y-74380800D01*
X119126000Y-80086200D02*
X119126000Y-79578200D01*
X112551017Y-76051017D02*
X112551017Y-75659888D01*
X118374600Y-75249600D02*
X117928000Y-74803000D01*
X122799400Y-77251000D02*
X122799400Y-77870929D01*
X122950400Y-77100000D02*
X122799400Y-77251000D01*
D48*
%TO.N,/UART PWR*%
X128600000Y-104400000D02*
X127250000Y-104400000D01*
X127250000Y-104400000D02*
X126619000Y-103769000D01*
X126619000Y-103769000D02*
X126619000Y-103098600D01*
D47*
%TO.N,/UART0 TX*%
X129032000Y-96215200D02*
X129032000Y-96088200D01*
X126841400Y-93897600D02*
X123359400Y-93897600D01*
X129032000Y-96088200D02*
X126841400Y-93897600D01*
%TO.N,/UART0 RX*%
X128854400Y-93497600D02*
X129032000Y-93675200D01*
X123359400Y-93497600D02*
X128854400Y-93497600D01*
%TO.N,/SD CS*%
X117508215Y-101152200D02*
X117144800Y-101515615D01*
X117144800Y-111962437D02*
X117164000Y-111981637D01*
X118121900Y-100406200D02*
X118121900Y-100538515D01*
X118121900Y-100538515D02*
X117508215Y-101152200D01*
X118121900Y-99535100D02*
X118121900Y-100341900D01*
X117144800Y-101515615D02*
X117144800Y-110845600D01*
X118121900Y-100341900D02*
X118121900Y-100406200D01*
X117144800Y-110845600D02*
X117144800Y-111962437D01*
%TO.N,/BUZZER*%
X119721900Y-98426600D02*
X119721900Y-99535100D01*
X114223800Y-81686400D02*
X114223800Y-82270600D01*
X114223800Y-82270600D02*
X111887000Y-84607400D01*
X119415500Y-98120200D02*
X119721900Y-98426600D01*
%TO.N,/P2 EN*%
X128950000Y-114400000D02*
X129592400Y-114400000D01*
X120878600Y-100939600D02*
X120521900Y-100582900D01*
X129592400Y-114400000D02*
X130378200Y-113614200D01*
X120878600Y-101346000D02*
X120878600Y-100939600D01*
D54*
X129075000Y-116275000D02*
X129075000Y-114525000D01*
X129075000Y-114525000D02*
X128950000Y-114400000D01*
D47*
X120521900Y-100582900D02*
X120521900Y-99535100D01*
D53*
%TO.N,Net-(Q2-D)*%
X128125000Y-118150000D02*
X128125000Y-119100000D01*
X128125000Y-119100000D02*
X127250000Y-119975000D01*
X126578800Y-119303800D02*
X127250000Y-119975000D01*
X126517400Y-119303800D02*
X126578800Y-119303800D01*
%TO.N,/P1 EN*%
X128900000Y-124550000D02*
X129050000Y-124700000D01*
D47*
X129667000Y-122732800D02*
X128967200Y-122732800D01*
X120163000Y-102773871D02*
X120121900Y-102732771D01*
X125755400Y-105743498D02*
X124793498Y-106705400D01*
D53*
X128900000Y-122800000D02*
X128900000Y-124550000D01*
D47*
X120121900Y-102732771D02*
X120121900Y-99535100D01*
X128967200Y-122732800D02*
X128900000Y-122800000D01*
X120163000Y-104440400D02*
X120163000Y-102773871D01*
X122428000Y-106705400D02*
X120163000Y-104440400D01*
X124793498Y-106705400D02*
X122428000Y-106705400D01*
D53*
%TO.N,Net-(Q3-D)*%
X126739400Y-127914400D02*
X127300000Y-128475000D01*
X128100000Y-126575000D02*
X128100000Y-127675000D01*
X126314200Y-127914400D02*
X126739400Y-127914400D01*
X128100000Y-127675000D02*
X127300000Y-128475000D01*
D47*
%TO.N,/P1 CONT*%
X116677271Y-91643200D02*
X116820071Y-91500400D01*
X124485400Y-125814600D02*
X124485400Y-122555000D01*
X108542089Y-127998489D02*
X109413578Y-127127000D01*
X109413578Y-127127000D02*
X123173000Y-127127000D01*
X105875898Y-90000898D02*
X107518200Y-91643200D01*
X116820071Y-91500400D02*
X117369228Y-91500400D01*
X107518200Y-91643200D02*
X116677271Y-91643200D01*
X123173000Y-127127000D02*
X124485400Y-125814600D01*
X102184200Y-90000898D02*
X105875898Y-90000898D01*
X117369228Y-91500400D02*
X118121900Y-92253072D01*
X118121900Y-92253072D02*
X118121900Y-92660100D01*
%TO.N,/P2 CONT*%
X116255800Y-128041400D02*
X109347000Y-128041400D01*
X113161151Y-89874800D02*
X113253151Y-89966800D01*
X118521900Y-92087386D02*
X118521900Y-92660100D01*
X116535200Y-89966800D02*
X116535200Y-90100686D01*
X116535200Y-90100686D02*
X118521900Y-92087386D01*
X109347000Y-128041400D02*
X106730800Y-130657600D01*
X101583500Y-89382600D02*
X106051200Y-89382600D01*
X113253151Y-89966800D02*
X116535200Y-89966800D01*
X106543400Y-89874800D02*
X113161151Y-89874800D01*
X106051200Y-89382600D02*
X106543400Y-89874800D01*
%TO.N,/BATT SENSE*%
X113512600Y-112725200D02*
X116814600Y-116027200D01*
X118319240Y-93648493D02*
X117721900Y-93051153D01*
D48*
X122575000Y-114225000D02*
X124300000Y-114225000D01*
D47*
X119370700Y-93648493D02*
X118319240Y-93648493D01*
D48*
X124300000Y-114225000D02*
X124325000Y-114200000D01*
D47*
X116814600Y-116027200D02*
X120772800Y-116027200D01*
X117721900Y-93051153D02*
X117721900Y-92660100D01*
X120772800Y-116027200D02*
X122575000Y-114225000D01*
X113512600Y-102387400D02*
X113512600Y-112725200D01*
%TO.N,/QSPI_SS*%
X105257600Y-108178600D02*
X112420400Y-101015800D01*
X115966800Y-100136400D02*
X115087400Y-101015800D01*
X112420400Y-101015800D02*
X113639600Y-101015800D01*
X115966800Y-98821801D02*
X115966800Y-100136400D01*
X116484400Y-98697600D02*
X116046471Y-98697600D01*
X115087400Y-101015800D02*
X113639600Y-101015800D01*
X115944535Y-98799536D02*
X115966800Y-98821801D01*
X116046471Y-98697600D02*
X115944535Y-98799536D01*
%TO.N,/MAG INT*%
X117957600Y-89795886D02*
X117957600Y-82727800D01*
X119721900Y-92660100D02*
X119721900Y-91560186D01*
X122177000Y-77600000D02*
X120750000Y-77600000D01*
X122199400Y-77622400D02*
X122177000Y-77600000D01*
X119721900Y-91560186D02*
X117957600Y-89795886D01*
%TO.N,/MAG DRDY*%
X121832800Y-77100000D02*
X122224800Y-76708000D01*
X120750000Y-77100000D02*
X121832800Y-77100000D01*
X122309475Y-98719670D02*
X121546277Y-98719670D01*
X121321900Y-98944047D02*
X121321900Y-99535100D01*
X121546277Y-98719670D02*
X121321900Y-98944047D01*
%TO.N,/BARO INT*%
X118090414Y-90494386D02*
X117551200Y-89955172D01*
X119321900Y-92660100D02*
X119321900Y-91725872D01*
X119321900Y-91725872D02*
X118090414Y-90494386D01*
X113137500Y-77662500D02*
X113588800Y-78113800D01*
X113588800Y-78113800D02*
X113588800Y-78409800D01*
X117551200Y-89955172D02*
X117551200Y-87858600D01*
X117551200Y-87858600D02*
X117297200Y-87604600D01*
%TO.N,/QSPI_SD1*%
X115366800Y-99872800D02*
X115366800Y-98811585D01*
X115880785Y-98297600D02*
X116484400Y-98297600D01*
X115366800Y-98811585D02*
X115880785Y-98297600D01*
%TO.N,/QSPI_SD2*%
X113974611Y-98750389D02*
X114122200Y-98602800D01*
X115009900Y-98602800D02*
X115715100Y-97897600D01*
X114122200Y-98602800D02*
X115009900Y-98602800D01*
X115715100Y-97897600D02*
X116484400Y-97897600D01*
%TO.N,/QSPI_SCLK*%
X113461800Y-96977200D02*
X113766053Y-97281453D01*
X115199876Y-97281453D02*
X115383729Y-97097600D01*
X115383729Y-97097600D02*
X116484400Y-97097600D01*
X113766053Y-97281453D02*
X115199876Y-97281453D01*
%TO.N,/XIN*%
X124312600Y-97053400D02*
X125118200Y-97053400D01*
X123359400Y-96697600D02*
X123956800Y-96697600D01*
X123956800Y-96697600D02*
X124312600Y-97053400D01*
%TO.N,/ACCEL INT1*%
X127311298Y-80670400D02*
X128915000Y-79066698D01*
X126016286Y-80670400D02*
X127311298Y-80670400D01*
X123012200Y-83674486D02*
X126016286Y-80670400D01*
X122521900Y-92660100D02*
X123012200Y-92169800D01*
X128915000Y-79066698D02*
X128915000Y-77100000D01*
X123012200Y-92169800D02*
X123012200Y-83674486D01*
%TO.N,/ACCEL INT2*%
X128500000Y-78265000D02*
X128500000Y-78916012D01*
X122555000Y-91835947D02*
X122121900Y-92269047D01*
X126602409Y-79518591D02*
X122555000Y-83566000D01*
X122121900Y-92269047D02*
X122121900Y-92660100D01*
X128500000Y-78916012D02*
X127897421Y-79518591D01*
X122555000Y-83566000D02*
X122555000Y-91835947D01*
X127897421Y-79518591D02*
X126602409Y-79518591D01*
%TO.N,/GYRO INT3*%
X122148600Y-91676661D02*
X121721900Y-92103362D01*
X127000000Y-76430000D02*
X127623500Y-77053500D01*
X127000000Y-75935000D02*
X127000000Y-76430000D01*
X122148600Y-83124578D02*
X122148600Y-91676661D01*
X121721900Y-92103362D02*
X121721900Y-92660100D01*
X122270789Y-83002389D02*
X122148600Y-83124578D01*
X127623500Y-77053500D02*
X127812800Y-77053500D01*
%TO.N,/GYRO INT4*%
X127649000Y-76454000D02*
X129895600Y-76454000D01*
X121321900Y-91937677D02*
X121716800Y-91542776D01*
X121716800Y-83296929D02*
X121523452Y-83103581D01*
X127500000Y-75935000D02*
X127500000Y-76305000D01*
X121321900Y-92660100D02*
X121321900Y-91937677D01*
X121523452Y-83103581D02*
X121523452Y-82718327D01*
X121716800Y-91542776D02*
X121716800Y-83296929D01*
X127500000Y-76305000D02*
X127649000Y-76454000D01*
D48*
%TO.N,+12VA*%
X112405000Y-135255000D02*
X112400000Y-135250000D01*
X126179600Y-130650000D02*
X126161800Y-130632200D01*
X110100000Y-135250000D02*
X110050000Y-135300000D01*
X127600000Y-130650000D02*
X126179600Y-130650000D01*
X112400000Y-135250000D02*
X110100000Y-135250000D01*
X111090900Y-121987500D02*
X111150400Y-122047000D01*
X109825000Y-121987500D02*
X111090900Y-121987500D01*
X113842800Y-135255000D02*
X112405000Y-135255000D01*
X129600000Y-130650000D02*
X127600000Y-130650000D01*
%TD*%
%TA.AperFunction,Conductor*%
%TO.N,+3V3*%
G36*
X119830749Y-129407686D02*
G01*
X119876873Y-129460168D01*
X119888441Y-129512029D01*
X119891684Y-130426980D01*
X119872237Y-130494089D01*
X119819596Y-130540031D01*
X119754427Y-130550709D01*
X119747839Y-130550000D01*
X118950000Y-130550000D01*
X118950000Y-135350000D01*
X119747828Y-135350000D01*
X119747842Y-135349999D01*
X119772313Y-135347368D01*
X119841073Y-135359772D01*
X119892211Y-135407382D01*
X119909569Y-135470217D01*
X119912957Y-136425588D01*
X119893511Y-136492697D01*
X119840869Y-136538639D01*
X119788588Y-136550027D01*
X109692413Y-136519884D01*
X109625432Y-136500000D01*
X109579835Y-136447059D01*
X109568803Y-136398115D01*
X109567878Y-136346679D01*
X109586354Y-136279296D01*
X109638327Y-136232599D01*
X109707295Y-136221414D01*
X109713489Y-136222476D01*
X109745730Y-136225500D01*
X109745734Y-136225500D01*
X110354270Y-136225500D01*
X110384699Y-136222646D01*
X110384701Y-136222646D01*
X110448790Y-136200219D01*
X110512882Y-136177793D01*
X110622150Y-136097150D01*
X110693209Y-136000867D01*
X110748857Y-135958616D01*
X110792980Y-135950500D01*
X111083961Y-135950500D01*
X111151000Y-135970185D01*
X111196755Y-136022989D01*
X111205578Y-136050308D01*
X111211132Y-136078229D01*
X111211132Y-136078230D01*
X111255447Y-136144552D01*
X111321769Y-136188867D01*
X111321770Y-136188868D01*
X111380247Y-136200499D01*
X111380250Y-136200500D01*
X111380252Y-136200500D01*
X113419750Y-136200500D01*
X113419751Y-136200499D01*
X113434568Y-136197552D01*
X113478229Y-136188868D01*
X113478229Y-136188867D01*
X113478231Y-136188867D01*
X113544552Y-136144552D01*
X113588867Y-136078231D01*
X113593426Y-136055309D01*
X113625811Y-135993398D01*
X113686527Y-135958824D01*
X113715044Y-135955500D01*
X113927858Y-135955500D01*
X113937390Y-135953149D01*
X113965675Y-135946177D01*
X113973006Y-135944834D01*
X114011672Y-135940140D01*
X114048077Y-135926333D01*
X114055227Y-135924106D01*
X114066544Y-135921316D01*
X114093025Y-135914790D01*
X114127507Y-135896691D01*
X114134307Y-135893630D01*
X114170730Y-135879818D01*
X114202781Y-135857693D01*
X114209179Y-135853825D01*
X114243652Y-135835734D01*
X114272802Y-135809908D01*
X114278671Y-135805310D01*
X114310729Y-135783183D01*
X114336548Y-135754037D01*
X114341837Y-135748748D01*
X114370983Y-135722929D01*
X114393110Y-135690871D01*
X114397708Y-135685002D01*
X114423534Y-135655852D01*
X114441625Y-135621379D01*
X114445493Y-135614981D01*
X114467618Y-135582930D01*
X114481430Y-135546507D01*
X114484491Y-135539707D01*
X114502590Y-135505225D01*
X114511906Y-135467427D01*
X114514135Y-135460271D01*
X114518735Y-135448142D01*
X114527940Y-135423872D01*
X114532634Y-135385206D01*
X114533977Y-135377875D01*
X114543300Y-135340056D01*
X114543300Y-135301126D01*
X114543752Y-135293646D01*
X114548445Y-135255000D01*
X114543751Y-135216347D01*
X114543300Y-135208872D01*
X114543300Y-135199391D01*
X114543300Y-135169944D01*
X114533981Y-135132140D01*
X114532632Y-135124773D01*
X114527940Y-135086130D01*
X114527940Y-135086128D01*
X114514129Y-135049712D01*
X114511910Y-135042590D01*
X114502590Y-135004775D01*
X114484487Y-134970283D01*
X114481427Y-134963484D01*
X114467618Y-134927070D01*
X114445494Y-134895018D01*
X114441623Y-134888614D01*
X114423536Y-134854151D01*
X114423532Y-134854145D01*
X114408950Y-134837685D01*
X114397716Y-134825005D01*
X114393099Y-134819111D01*
X114370985Y-134787073D01*
X114370983Y-134787071D01*
X114341837Y-134761250D01*
X114336543Y-134755955D01*
X114310733Y-134726821D01*
X114310730Y-134726819D01*
X114310729Y-134726817D01*
X114310725Y-134726814D01*
X114278682Y-134704695D01*
X114272786Y-134700075D01*
X114243651Y-134674265D01*
X114243648Y-134674263D01*
X114209187Y-134656177D01*
X114202774Y-134652300D01*
X114170733Y-134630183D01*
X114170731Y-134630182D01*
X114134324Y-134616374D01*
X114127493Y-134613299D01*
X114093026Y-134595210D01*
X114093021Y-134595209D01*
X114091401Y-134594809D01*
X114055224Y-134585892D01*
X114048076Y-134583665D01*
X114011676Y-134569861D01*
X114011669Y-134569859D01*
X113973023Y-134565166D01*
X113965655Y-134563816D01*
X113927858Y-134554500D01*
X113927856Y-134554500D01*
X113885172Y-134554500D01*
X113717033Y-134554500D01*
X113649994Y-134534815D01*
X113604239Y-134482011D01*
X113595415Y-134454690D01*
X113594421Y-134449692D01*
X113588867Y-134421769D01*
X113559189Y-134377354D01*
X113537767Y-134345293D01*
X113541487Y-134342806D01*
X113519521Y-134302578D01*
X113524505Y-134232886D01*
X113566377Y-134176953D01*
X113597355Y-134160038D01*
X113642084Y-134143355D01*
X113642093Y-134143350D01*
X113757187Y-134057190D01*
X113757190Y-134057187D01*
X113843350Y-133942093D01*
X113843354Y-133942086D01*
X113893596Y-133807379D01*
X113893598Y-133807372D01*
X113899999Y-133747844D01*
X113900000Y-133747827D01*
X113900000Y-133200000D01*
X117200000Y-133200000D01*
X117200000Y-134897844D01*
X117206401Y-134957372D01*
X117206403Y-134957379D01*
X117256645Y-135092086D01*
X117256649Y-135092093D01*
X117342809Y-135207187D01*
X117342812Y-135207190D01*
X117457906Y-135293350D01*
X117457913Y-135293354D01*
X117592620Y-135343596D01*
X117592627Y-135343598D01*
X117652155Y-135349999D01*
X117652172Y-135350000D01*
X118449999Y-135350000D01*
X118450000Y-133200000D01*
X117200000Y-133200000D01*
X113900000Y-133200000D01*
X109924000Y-133200000D01*
X109856961Y-133180315D01*
X109811206Y-133127511D01*
X109800000Y-133076000D01*
X109800000Y-132824000D01*
X109819685Y-132756961D01*
X109872489Y-132711206D01*
X109924000Y-132700000D01*
X113900000Y-132700000D01*
X117200000Y-132700000D01*
X118449999Y-132700000D01*
X118450000Y-130550000D01*
X117652155Y-130550000D01*
X117592627Y-130556401D01*
X117592620Y-130556403D01*
X117457913Y-130606645D01*
X117457906Y-130606649D01*
X117342812Y-130692809D01*
X117342809Y-130692812D01*
X117256649Y-130807906D01*
X117256645Y-130807913D01*
X117206403Y-130942620D01*
X117206401Y-130942627D01*
X117200000Y-131002155D01*
X117200000Y-132700000D01*
X113900000Y-132700000D01*
X113900000Y-132152172D01*
X113899999Y-132152155D01*
X113893598Y-132092627D01*
X113893596Y-132092620D01*
X113843354Y-131957913D01*
X113843350Y-131957906D01*
X113757190Y-131842812D01*
X113757187Y-131842809D01*
X113642093Y-131756649D01*
X113642087Y-131756646D01*
X113597353Y-131739961D01*
X113541420Y-131698089D01*
X113517003Y-131632625D01*
X113531855Y-131564352D01*
X113538652Y-131555298D01*
X113537767Y-131554707D01*
X113573767Y-131500829D01*
X113588867Y-131478231D01*
X113590765Y-131468686D01*
X113594422Y-131450308D01*
X113626807Y-131388397D01*
X113687523Y-131353823D01*
X113716039Y-131350500D01*
X113725752Y-131350500D01*
X113729497Y-131350613D01*
X113736842Y-131351057D01*
X113791406Y-131354358D01*
X113829114Y-131347447D01*
X113852421Y-131343177D01*
X113856125Y-131342613D01*
X113873970Y-131340446D01*
X113917672Y-131335140D01*
X113927135Y-131331550D01*
X113948761Y-131325522D01*
X113949693Y-131325351D01*
X113958732Y-131323695D01*
X114015312Y-131298229D01*
X114018742Y-131296809D01*
X114076730Y-131274818D01*
X114085066Y-131269062D01*
X114104621Y-131258034D01*
X114113857Y-131253878D01*
X114162696Y-131215613D01*
X114165676Y-131213421D01*
X114216729Y-131178183D01*
X114257865Y-131131748D01*
X114260399Y-131129056D01*
X114271056Y-131118399D01*
X114273748Y-131115865D01*
X114320183Y-131074729D01*
X114355421Y-131023676D01*
X114357613Y-131020696D01*
X114395878Y-130971857D01*
X114400034Y-130962621D01*
X114411062Y-130943066D01*
X114416818Y-130934730D01*
X114438809Y-130876742D01*
X114440229Y-130873312D01*
X114465695Y-130816732D01*
X114467522Y-130806762D01*
X114473549Y-130785138D01*
X114477140Y-130775672D01*
X114484613Y-130714124D01*
X114485177Y-130710420D01*
X114491070Y-130678260D01*
X114496358Y-130649406D01*
X114495999Y-130643481D01*
X114495746Y-130639294D01*
X114496423Y-130616856D01*
X114497645Y-130606800D01*
X114490165Y-130545209D01*
X114489831Y-130541525D01*
X114486086Y-130479604D01*
X114483071Y-130469929D01*
X114478360Y-130447978D01*
X114477140Y-130437928D01*
X114455147Y-130379937D01*
X114453930Y-130376409D01*
X114448925Y-130360349D01*
X114435478Y-130317194D01*
X114430233Y-130308518D01*
X114420412Y-130288347D01*
X114416818Y-130278870D01*
X114381577Y-130227815D01*
X114379563Y-130224699D01*
X114349991Y-130175782D01*
X114347471Y-130171613D01*
X114340307Y-130164449D01*
X114325940Y-130147210D01*
X114320185Y-130138873D01*
X114318297Y-130137200D01*
X114273750Y-130097735D01*
X114271056Y-130095199D01*
X114227185Y-130051328D01*
X114227184Y-130051327D01*
X114227180Y-130051324D01*
X114218507Y-130046081D01*
X114200431Y-130032780D01*
X114192856Y-130026069D01*
X114192853Y-130026067D01*
X114192852Y-130026066D01*
X114179519Y-130019068D01*
X114137939Y-129997244D01*
X114134678Y-129995405D01*
X114125530Y-129989875D01*
X114113310Y-129982488D01*
X114081605Y-129963321D01*
X114071926Y-129960305D01*
X114051197Y-129951718D01*
X114042227Y-129947010D01*
X113982005Y-129932167D01*
X113978398Y-129931161D01*
X113919196Y-129912713D01*
X113909076Y-129912101D01*
X113886906Y-129908727D01*
X113877058Y-129906300D01*
X113877056Y-129906300D01*
X113815048Y-129906300D01*
X113811303Y-129906187D01*
X113749396Y-129902442D01*
X113749392Y-129902442D01*
X113739424Y-129904269D01*
X113717073Y-129906300D01*
X113706735Y-129906300D01*
X113639696Y-129886615D01*
X113593941Y-129833811D01*
X113592174Y-129829752D01*
X113588867Y-129821769D01*
X113544551Y-129755446D01*
X113542686Y-129753581D01*
X113539919Y-129748513D01*
X113537767Y-129745293D01*
X113538055Y-129745100D01*
X113509201Y-129692258D01*
X113514185Y-129622566D01*
X113556057Y-129566633D01*
X113621521Y-129542216D01*
X113630367Y-129541900D01*
X115295382Y-129541900D01*
X115362421Y-129561585D01*
X115367440Y-129565384D01*
X115367484Y-129565322D01*
X115373656Y-129569582D01*
X115373657Y-129569583D01*
X115424716Y-129604827D01*
X115427698Y-129607021D01*
X115476529Y-129645277D01*
X115476533Y-129645280D01*
X115476532Y-129645280D01*
X115485763Y-129649434D01*
X115505317Y-129660462D01*
X115513652Y-129666216D01*
X115513654Y-129666216D01*
X115513656Y-129666218D01*
X115571665Y-129688217D01*
X115575062Y-129689624D01*
X115622356Y-129710909D01*
X115631650Y-129715093D01*
X115631651Y-129715093D01*
X115631655Y-129715095D01*
X115641620Y-129716921D01*
X115663242Y-129722948D01*
X115663253Y-129722952D01*
X115672714Y-129726540D01*
X115717837Y-129732018D01*
X115734260Y-129734013D01*
X115737957Y-129734575D01*
X115798980Y-129745758D01*
X115854338Y-129742409D01*
X115860889Y-129742013D01*
X115864634Y-129741900D01*
X116646966Y-129741900D01*
X116650711Y-129742013D01*
X116658056Y-129742457D01*
X116712620Y-129745758D01*
X116750328Y-129738847D01*
X116773635Y-129734577D01*
X116777339Y-129734013D01*
X116795184Y-129731846D01*
X116838886Y-129726540D01*
X116848349Y-129722950D01*
X116869975Y-129716922D01*
X116870907Y-129716751D01*
X116879946Y-129715095D01*
X116936526Y-129689629D01*
X116939956Y-129688209D01*
X116997944Y-129666218D01*
X117006280Y-129660462D01*
X117025835Y-129649434D01*
X117035071Y-129645278D01*
X117083910Y-129607013D01*
X117086890Y-129604821D01*
X117137943Y-129569583D01*
X117179079Y-129523148D01*
X117181613Y-129520456D01*
X117260345Y-129441725D01*
X117321665Y-129408242D01*
X117347145Y-129405411D01*
X119763573Y-129388472D01*
X119830749Y-129407686D01*
G37*
%TD.AperFunction*%
%TA.AperFunction,Conductor*%
G36*
X109957201Y-129465586D02*
G01*
X110117922Y-129526538D01*
X110117923Y-129526538D01*
X110117928Y-129526540D01*
X110189307Y-129535207D01*
X110244426Y-129541900D01*
X110244428Y-129541900D01*
X111169633Y-129541900D01*
X111236672Y-129561585D01*
X111282427Y-129614389D01*
X111292371Y-129683547D01*
X111263346Y-129747103D01*
X111257314Y-129753581D01*
X111255448Y-129755446D01*
X111211132Y-129821769D01*
X111211131Y-129821770D01*
X111199500Y-129880247D01*
X111199500Y-130105359D01*
X111179815Y-130172398D01*
X111127011Y-130218153D01*
X111057853Y-130228097D01*
X111010403Y-130210897D01*
X110933492Y-130163457D01*
X110933481Y-130163452D01*
X110772606Y-130110144D01*
X110673322Y-130100000D01*
X110650000Y-130100000D01*
X110650000Y-131201000D01*
X110630315Y-131268039D01*
X110577511Y-131313794D01*
X110526000Y-131325000D01*
X110274000Y-131325000D01*
X110206961Y-131305315D01*
X110161206Y-131252511D01*
X110150000Y-131201000D01*
X110150000Y-130099999D01*
X110126693Y-130100000D01*
X110126674Y-130100001D01*
X110027392Y-130110144D01*
X109866518Y-130163452D01*
X109866507Y-130163457D01*
X109722271Y-130252424D01*
X109722267Y-130252427D01*
X109669343Y-130305351D01*
X109608020Y-130338835D01*
X109538328Y-130333850D01*
X109482395Y-130291979D01*
X109457979Y-130226514D01*
X109457685Y-130219952D01*
X109446257Y-129584550D01*
X109464733Y-129517169D01*
X109516706Y-129470472D01*
X109570237Y-129458322D01*
X109799580Y-129458322D01*
X109799587Y-129458322D01*
X109912363Y-129457531D01*
X109957201Y-129465586D01*
G37*
%TD.AperFunction*%
%TD*%
%TA.AperFunction,Conductor*%
%TO.N,+5V*%
G36*
X130356855Y-129412394D02*
G01*
X130423796Y-129432408D01*
X130469290Y-129485437D01*
X130480242Y-129535946D01*
X130481532Y-129894773D01*
X130462089Y-129961883D01*
X130409450Y-130007827D01*
X130340327Y-130018020D01*
X130276668Y-129989223D01*
X130257763Y-129968852D01*
X130172151Y-129852851D01*
X130130036Y-129821769D01*
X130062882Y-129772207D01*
X130062880Y-129772206D01*
X129934700Y-129727353D01*
X129904270Y-129724500D01*
X129904266Y-129724500D01*
X129295734Y-129724500D01*
X129295730Y-129724500D01*
X129265300Y-129727353D01*
X129265298Y-129727353D01*
X129137119Y-129772206D01*
X129137117Y-129772207D01*
X129027850Y-129852850D01*
X129027847Y-129852853D01*
X129011113Y-129875527D01*
X128955465Y-129917778D01*
X128885809Y-129923235D01*
X128824259Y-129890168D01*
X128790359Y-129829074D01*
X128789726Y-129826084D01*
X128788868Y-129821770D01*
X128788867Y-129821769D01*
X128744552Y-129755447D01*
X128678230Y-129711132D01*
X128678229Y-129711131D01*
X128619752Y-129699500D01*
X128619748Y-129699500D01*
X126580252Y-129699500D01*
X126580247Y-129699500D01*
X126521770Y-129711131D01*
X126521769Y-129711132D01*
X126455447Y-129755447D01*
X126411132Y-129821769D01*
X126407922Y-129837907D01*
X126375534Y-129899817D01*
X126314818Y-129934389D01*
X126256633Y-129934109D01*
X126246861Y-129931700D01*
X126246856Y-129931700D01*
X126236727Y-129931700D01*
X126214376Y-129929669D01*
X126204407Y-129927842D01*
X126204403Y-129927842D01*
X126142497Y-129931587D01*
X126138752Y-129931700D01*
X126076740Y-129931700D01*
X126066893Y-129934127D01*
X126044723Y-129937501D01*
X126034601Y-129938114D01*
X125975403Y-129956560D01*
X125971797Y-129957565D01*
X125911575Y-129972409D01*
X125911572Y-129972410D01*
X125902596Y-129977121D01*
X125881871Y-129985706D01*
X125872192Y-129988722D01*
X125819109Y-130020811D01*
X125815849Y-130022650D01*
X125760948Y-130051466D01*
X125753351Y-130058195D01*
X125735294Y-130071480D01*
X125726621Y-130076723D01*
X125726610Y-130076732D01*
X125682765Y-130120577D01*
X125680039Y-130123142D01*
X125633620Y-130164267D01*
X125633618Y-130164269D01*
X125627856Y-130172616D01*
X125613497Y-130189845D01*
X125606330Y-130197012D01*
X125606325Y-130197018D01*
X125574241Y-130250088D01*
X125572210Y-130253230D01*
X125536983Y-130304266D01*
X125536980Y-130304273D01*
X125533384Y-130313754D01*
X125523567Y-130333916D01*
X125518321Y-130342593D01*
X125499873Y-130401797D01*
X125498652Y-130405336D01*
X125476660Y-130463327D01*
X125476658Y-130463334D01*
X125475436Y-130473397D01*
X125470729Y-130495329D01*
X125467713Y-130505006D01*
X125463968Y-130566909D01*
X125463629Y-130570637D01*
X125456155Y-130632197D01*
X125456155Y-130632200D01*
X125457376Y-130642261D01*
X125458053Y-130664681D01*
X125457441Y-130674797D01*
X125457442Y-130674807D01*
X125468621Y-130735810D01*
X125469184Y-130739512D01*
X125476659Y-130801070D01*
X125476660Y-130801074D01*
X125480251Y-130810543D01*
X125486274Y-130832146D01*
X125488104Y-130842130D01*
X125513559Y-130898690D01*
X125514989Y-130902141D01*
X125536982Y-130960130D01*
X125536983Y-130960131D01*
X125542736Y-130968466D01*
X125553761Y-130988013D01*
X125557920Y-130997255D01*
X125557923Y-130997259D01*
X125589800Y-131037947D01*
X125594296Y-131044898D01*
X125594608Y-131044684D01*
X125598863Y-131050849D01*
X125598866Y-131050852D01*
X125599713Y-131051808D01*
X125604331Y-131057703D01*
X125633613Y-131100124D01*
X125633617Y-131100129D01*
X125672198Y-131134309D01*
X125677492Y-131139604D01*
X125692243Y-131156254D01*
X125711671Y-131178183D01*
X125754100Y-131207470D01*
X125759988Y-131212084D01*
X125760635Y-131212656D01*
X125760948Y-131212934D01*
X125760951Y-131212935D01*
X125767122Y-131217196D01*
X125766904Y-131217510D01*
X125773855Y-131222001D01*
X125814543Y-131253878D01*
X125821445Y-131256984D01*
X125823782Y-131258036D01*
X125843333Y-131269063D01*
X125851670Y-131274818D01*
X125909658Y-131296809D01*
X125913096Y-131298234D01*
X125969668Y-131323695D01*
X125979642Y-131325522D01*
X126001256Y-131331548D01*
X126010727Y-131335140D01*
X126072273Y-131342613D01*
X126075970Y-131343175D01*
X126136994Y-131354358D01*
X126191977Y-131351031D01*
X126198903Y-131350613D01*
X126202648Y-131350500D01*
X126283961Y-131350500D01*
X126351000Y-131370185D01*
X126396755Y-131422989D01*
X126405578Y-131450308D01*
X126411132Y-131478229D01*
X126411132Y-131478230D01*
X126462233Y-131554707D01*
X126458511Y-131557193D01*
X126480478Y-131597421D01*
X126475494Y-131667113D01*
X126433622Y-131723046D01*
X126402647Y-131739960D01*
X126357916Y-131756644D01*
X126357906Y-131756649D01*
X126242812Y-131842809D01*
X126242809Y-131842812D01*
X126156649Y-131957906D01*
X126156645Y-131957913D01*
X126106403Y-132092620D01*
X126106401Y-132092627D01*
X126100000Y-132152155D01*
X126100000Y-132700000D01*
X129063638Y-132700000D01*
X129130677Y-132719685D01*
X129137273Y-132725000D01*
X129851000Y-132725000D01*
X129918039Y-132744685D01*
X129963794Y-132797489D01*
X129975000Y-132849000D01*
X129975000Y-134199999D01*
X130024972Y-134199999D01*
X130024986Y-134199998D01*
X130127697Y-134189505D01*
X130294119Y-134134358D01*
X130294125Y-134134355D01*
X130308029Y-134125779D01*
X130375421Y-134107336D01*
X130442085Y-134128256D01*
X130486857Y-134181896D01*
X130497129Y-134230869D01*
X130504752Y-136349754D01*
X130485309Y-136416864D01*
X130432670Y-136462808D01*
X130380753Y-136474200D01*
X130251200Y-136474200D01*
X124953300Y-136527714D01*
X120317611Y-136574539D01*
X120250377Y-136555532D01*
X120204091Y-136503193D01*
X120192360Y-136450982D01*
X120192004Y-136349754D01*
X120188921Y-135474433D01*
X120208369Y-135407328D01*
X120261012Y-135361388D01*
X120312920Y-135350000D01*
X121049999Y-135350000D01*
X121049999Y-133200000D01*
X121550000Y-133200000D01*
X121550000Y-135350000D01*
X122347828Y-135350000D01*
X122347844Y-135349999D01*
X122407372Y-135343598D01*
X122407379Y-135343596D01*
X122542086Y-135293354D01*
X122542093Y-135293350D01*
X122657187Y-135207190D01*
X122657190Y-135207187D01*
X122743350Y-135092093D01*
X122743354Y-135092086D01*
X122793596Y-134957379D01*
X122793598Y-134957372D01*
X122799999Y-134897844D01*
X122800000Y-134897827D01*
X122800000Y-133200000D01*
X126100000Y-133200000D01*
X126100000Y-133747844D01*
X126106401Y-133807372D01*
X126106403Y-133807379D01*
X126156645Y-133942086D01*
X126156649Y-133942093D01*
X126242809Y-134057187D01*
X126242812Y-134057190D01*
X126357906Y-134143350D01*
X126357913Y-134143354D01*
X126402645Y-134160038D01*
X126458579Y-134201909D01*
X126482996Y-134267373D01*
X126468145Y-134335646D01*
X126461372Y-134344718D01*
X126462233Y-134345293D01*
X126411132Y-134421769D01*
X126411131Y-134421770D01*
X126399500Y-134480247D01*
X126399500Y-136019752D01*
X126411131Y-136078229D01*
X126411132Y-136078230D01*
X126455447Y-136144552D01*
X126521769Y-136188867D01*
X126521770Y-136188868D01*
X126580247Y-136200499D01*
X126580250Y-136200500D01*
X126580252Y-136200500D01*
X128619750Y-136200500D01*
X128619751Y-136200499D01*
X128634568Y-136197552D01*
X128678229Y-136188868D01*
X128678229Y-136188867D01*
X128678231Y-136188867D01*
X128744552Y-136144552D01*
X128788867Y-136078231D01*
X128788867Y-136078229D01*
X128793542Y-136066946D01*
X128796236Y-136068062D01*
X128819988Y-136022648D01*
X128880701Y-135988069D01*
X128905749Y-135985916D01*
X128905707Y-135985210D01*
X128975093Y-135981013D01*
X128978837Y-135980900D01*
X129040855Y-135980900D01*
X129040856Y-135980900D01*
X129050695Y-135978474D01*
X129072887Y-135975096D01*
X129082996Y-135974486D01*
X129142212Y-135956032D01*
X129145779Y-135955038D01*
X129206025Y-135940190D01*
X129214996Y-135935481D01*
X129235735Y-135926890D01*
X129245406Y-135923878D01*
X129298505Y-135891777D01*
X129301723Y-135889962D01*
X129356652Y-135861134D01*
X129364229Y-135854420D01*
X129382316Y-135841111D01*
X129390985Y-135835872D01*
X129434871Y-135791984D01*
X129437531Y-135789480D01*
X129483983Y-135748329D01*
X129489741Y-135739986D01*
X129504110Y-135722746D01*
X129511272Y-135715585D01*
X129543372Y-135662484D01*
X129545373Y-135659388D01*
X129580618Y-135608330D01*
X129584209Y-135598858D01*
X129594040Y-135578670D01*
X129599276Y-135570009D01*
X129599275Y-135570009D01*
X129599278Y-135570006D01*
X129617739Y-135510760D01*
X129618940Y-135507280D01*
X129640940Y-135449272D01*
X129642161Y-135439207D01*
X129646870Y-135417270D01*
X129649886Y-135407596D01*
X129653631Y-135345667D01*
X129653964Y-135342006D01*
X129661445Y-135280400D01*
X129660222Y-135270334D01*
X129659545Y-135247907D01*
X129660157Y-135237794D01*
X129648977Y-135176786D01*
X129648413Y-135173081D01*
X129640940Y-135111527D01*
X129637348Y-135102056D01*
X129631322Y-135080442D01*
X129629495Y-135070468D01*
X129604034Y-135013896D01*
X129602606Y-135010449D01*
X129596577Y-134994552D01*
X129580618Y-134952470D01*
X129574863Y-134944133D01*
X129563836Y-134924582D01*
X129559679Y-134915346D01*
X129559678Y-134915343D01*
X129523957Y-134869748D01*
X129521430Y-134866522D01*
X129519210Y-134863506D01*
X129483982Y-134812470D01*
X129478409Y-134807533D01*
X129438715Y-134772367D01*
X129433438Y-134767091D01*
X129393329Y-134721817D01*
X129393327Y-134721815D01*
X129393324Y-134721812D01*
X129342296Y-134686591D01*
X129339287Y-134684377D01*
X129290460Y-134646124D01*
X129290455Y-134646120D01*
X129281213Y-134641961D01*
X129261666Y-134630936D01*
X129253331Y-134625183D01*
X129253332Y-134625183D01*
X129253330Y-134625182D01*
X129195341Y-134603189D01*
X129191890Y-134601759D01*
X129135330Y-134576304D01*
X129125346Y-134574474D01*
X129103743Y-134568451D01*
X129094274Y-134564860D01*
X129094270Y-134564859D01*
X129032713Y-134557384D01*
X129029012Y-134556821D01*
X128968008Y-134545642D01*
X128968001Y-134545641D01*
X128923338Y-134548343D01*
X128855233Y-134532741D01*
X128806374Y-134482796D01*
X128794235Y-134448758D01*
X128788867Y-134421769D01*
X128744552Y-134355448D01*
X128737767Y-134345293D01*
X128741487Y-134342806D01*
X128719521Y-134302578D01*
X128724505Y-134232886D01*
X128766377Y-134176953D01*
X128797355Y-134160038D01*
X128842084Y-134143355D01*
X128842088Y-134143353D01*
X128922858Y-134082889D01*
X128988322Y-134058472D01*
X129056595Y-134073323D01*
X129062266Y-134076617D01*
X129155875Y-134134356D01*
X129155880Y-134134358D01*
X129322302Y-134189505D01*
X129322309Y-134189506D01*
X129425019Y-134199999D01*
X129474999Y-134199998D01*
X129475000Y-134199998D01*
X129475000Y-133225000D01*
X128761362Y-133225000D01*
X128694323Y-133205315D01*
X128687727Y-133200000D01*
X126100000Y-133200000D01*
X122800000Y-133200000D01*
X121550000Y-133200000D01*
X121049999Y-133200000D01*
X121050000Y-130550000D01*
X121550000Y-130550000D01*
X121550000Y-132700000D01*
X122800000Y-132700000D01*
X122800000Y-131002172D01*
X122799999Y-131002155D01*
X122793598Y-130942627D01*
X122793596Y-130942620D01*
X122743354Y-130807913D01*
X122743350Y-130807906D01*
X122657190Y-130692812D01*
X122657187Y-130692809D01*
X122542093Y-130606649D01*
X122542086Y-130606645D01*
X122407379Y-130556403D01*
X122407372Y-130556401D01*
X122347844Y-130550000D01*
X121550000Y-130550000D01*
X121050000Y-130550000D01*
X120295146Y-130550000D01*
X120228107Y-130530315D01*
X120182352Y-130477511D01*
X120171147Y-130426437D01*
X120171073Y-130405336D01*
X120167840Y-129487249D01*
X120187288Y-129420142D01*
X120239931Y-129374202D01*
X120292449Y-129362816D01*
X130356855Y-129412394D01*
G37*
%TD.AperFunction*%
%TD*%
M02*
