%TF.GenerationSoftware,KiCad,Pcbnew,7.0.5*%
%TF.CreationDate,2023-08-09T18:59:09-07:00*%
%TF.ProjectId,lyra r1,6c797261-2072-4312-9e6b-696361645f70,rev?*%
%TF.SameCoordinates,Original*%
%TF.FileFunction,Soldermask,Bot*%
%TF.FilePolarity,Negative*%
%FSLAX46Y46*%
G04 Gerber Fmt 4.6, Leading zero omitted, Abs format (unit mm)*
G04 Created by KiCad (PCBNEW 7.0.5) date 2023-08-09 18:59:09*
%MOMM*%
%LPD*%
G01*
G04 APERTURE LIST*
G04 Aperture macros list*
%AMRoundRect*
0 Rectangle with rounded corners*
0 $1 Rounding radius*
0 $2 $3 $4 $5 $6 $7 $8 $9 X,Y pos of 4 corners*
0 Add a 4 corners polygon primitive as box body*
4,1,4,$2,$3,$4,$5,$6,$7,$8,$9,$2,$3,0*
0 Add four circle primitives for the rounded corners*
1,1,$1+$1,$2,$3*
1,1,$1+$1,$4,$5*
1,1,$1+$1,$6,$7*
1,1,$1+$1,$8,$9*
0 Add four rect primitives between the rounded corners*
20,1,$1+$1,$2,$3,$4,$5,0*
20,1,$1+$1,$4,$5,$6,$7,0*
20,1,$1+$1,$6,$7,$8,$9,0*
20,1,$1+$1,$8,$9,$2,$3,0*%
G04 Aperture macros list end*
%ADD10C,5.600000*%
%ADD11R,1.700000X1.700000*%
%ADD12O,1.700000X1.700000*%
%ADD13R,3.000000X3.000000*%
%ADD14C,3.000000*%
%ADD15RoundRect,0.237500X-0.250000X-0.237500X0.250000X-0.237500X0.250000X0.237500X-0.250000X0.237500X0*%
%ADD16RoundRect,0.200000X-0.275000X0.200000X-0.275000X-0.200000X0.275000X-0.200000X0.275000X0.200000X0*%
%ADD17RoundRect,0.225000X-0.225000X-0.250000X0.225000X-0.250000X0.225000X0.250000X-0.225000X0.250000X0*%
%ADD18RoundRect,0.225000X0.225000X0.250000X-0.225000X0.250000X-0.225000X-0.250000X0.225000X-0.250000X0*%
%ADD19RoundRect,0.200000X0.200000X0.275000X-0.200000X0.275000X-0.200000X-0.275000X0.200000X-0.275000X0*%
%ADD20RoundRect,0.200000X-0.200000X-0.275000X0.200000X-0.275000X0.200000X0.275000X-0.200000X0.275000X0*%
%ADD21R,1.000000X1.500000*%
%ADD22RoundRect,0.225000X0.250000X-0.225000X0.250000X0.225000X-0.250000X0.225000X-0.250000X-0.225000X0*%
%ADD23RoundRect,0.225000X-0.250000X0.225000X-0.250000X-0.225000X0.250000X-0.225000X0.250000X0.225000X0*%
%ADD24RoundRect,0.250000X0.375000X0.625000X-0.375000X0.625000X-0.375000X-0.625000X0.375000X-0.625000X0*%
%ADD25R,3.400000X1.300000*%
%ADD26R,1.500000X2.000000*%
%ADD27R,0.800000X1.200000*%
%ADD28RoundRect,0.237500X0.250000X0.237500X-0.250000X0.237500X-0.250000X-0.237500X0.250000X-0.237500X0*%
%ADD29RoundRect,0.250000X-0.475000X0.250000X-0.475000X-0.250000X0.475000X-0.250000X0.475000X0.250000X0*%
G04 APERTURE END LIST*
D10*
%TO.C,H1*%
X128750000Y-86750000D03*
%TD*%
D11*
%TO.C,J6*%
X163790000Y-125460000D03*
D12*
X163790000Y-128000000D03*
X161250000Y-125460000D03*
X161250000Y-128000000D03*
X158710000Y-125460000D03*
X158710000Y-128000000D03*
%TD*%
D11*
%TO.C,J10*%
X127827800Y-128320800D03*
D12*
X130367800Y-128320800D03*
X132907800Y-128320800D03*
%TD*%
D13*
%TO.C,J12*%
X161750000Y-133010000D03*
D14*
X161750000Y-138090000D03*
X161750000Y-143170000D03*
X161750000Y-148250000D03*
%TD*%
D13*
%TO.C,J11*%
X161750000Y-93250000D03*
D14*
X161750000Y-98330000D03*
X161750000Y-103410000D03*
X161750000Y-108490000D03*
%TD*%
D11*
%TO.C,J8*%
X155025000Y-129275000D03*
D12*
X152485000Y-129275000D03*
X155025000Y-126735000D03*
X152485000Y-126735000D03*
X155025000Y-124195000D03*
X152485000Y-124195000D03*
%TD*%
D13*
%TO.C,J5*%
X128750000Y-108490000D03*
D14*
X128750000Y-103410000D03*
X128750000Y-98330000D03*
X128750000Y-93250000D03*
%TD*%
D11*
%TO.C,J4*%
X135000000Y-93620000D03*
D12*
X135000000Y-91080000D03*
X135000000Y-88540000D03*
X135000000Y-86000000D03*
%TD*%
D13*
%TO.C,J3*%
X129000000Y-148120000D03*
D14*
X129000000Y-143040000D03*
X129000000Y-137960000D03*
X129000000Y-132880000D03*
%TD*%
D11*
%TO.C,J2*%
X155750000Y-104620000D03*
D12*
X155750000Y-102080000D03*
X155750000Y-99540000D03*
X155750000Y-97000000D03*
%TD*%
D10*
%TO.C,H4*%
X161750000Y-154750000D03*
%TD*%
%TO.C,H2*%
X161750000Y-86750000D03*
%TD*%
D11*
%TO.C,J7*%
X163775000Y-119210000D03*
D12*
X163775000Y-121750000D03*
X161235000Y-119210000D03*
X161235000Y-121750000D03*
X158695000Y-119210000D03*
X158695000Y-121750000D03*
%TD*%
D10*
%TO.C,H3*%
X128750000Y-154750000D03*
%TD*%
D15*
%TO.C,R3*%
X152175000Y-153750000D03*
X154000000Y-153750000D03*
%TD*%
D16*
%TO.C,R11*%
X136042400Y-121298200D03*
X136042400Y-122948200D03*
%TD*%
D17*
%TO.C,C22*%
X139560000Y-107442000D03*
X141110000Y-107442000D03*
%TD*%
D18*
%TO.C,C6*%
X137020600Y-101193600D03*
X135470600Y-101193600D03*
%TD*%
D19*
%TO.C,R1*%
X138750000Y-154000000D03*
X137100000Y-154000000D03*
%TD*%
D20*
%TO.C,R14*%
X137732000Y-147471000D03*
X139382000Y-147471000D03*
%TD*%
D18*
%TO.C,C8*%
X149365000Y-99060000D03*
X147815000Y-99060000D03*
%TD*%
D17*
%TO.C,C20*%
X147942000Y-118491000D03*
X149492000Y-118491000D03*
%TD*%
D15*
%TO.C,R5*%
X137087500Y-156000000D03*
X138912500Y-156000000D03*
%TD*%
D19*
%TO.C,R13*%
X139382000Y-148971000D03*
X137732000Y-148971000D03*
%TD*%
D21*
%TO.C,JP2*%
X157357600Y-94488000D03*
X156057600Y-94488000D03*
X154757600Y-94488000D03*
%TD*%
D17*
%TO.C,C5*%
X136225000Y-99466400D03*
X137775000Y-99466400D03*
%TD*%
%TO.C,C14*%
X140830000Y-115951000D03*
X142380000Y-115951000D03*
%TD*%
D19*
%TO.C,R19*%
X131990600Y-125628400D03*
X130340600Y-125628400D03*
%TD*%
D22*
%TO.C,C21*%
X139573000Y-119012000D03*
X139573000Y-117462000D03*
%TD*%
D17*
%TO.C,C10*%
X138925000Y-124714000D03*
X140475000Y-124714000D03*
%TD*%
D18*
%TO.C,C17*%
X149111000Y-107569000D03*
X147561000Y-107569000D03*
%TD*%
D23*
%TO.C,C7*%
X150876000Y-99555000D03*
X150876000Y-101105000D03*
%TD*%
D24*
%TO.C,F2*%
X139423600Y-145491200D03*
X136623600Y-145491200D03*
%TD*%
D25*
%TO.C,LS1*%
X141500000Y-93850000D03*
X141500000Y-85150000D03*
%TD*%
D26*
%TO.C,J9*%
X149058000Y-139318000D03*
X135168000Y-139318000D03*
X135168000Y-131118000D03*
X149058000Y-131118000D03*
D27*
X138888000Y-137118000D03*
X139988000Y-137118000D03*
X141088000Y-137118000D03*
X142188000Y-137118000D03*
X143288000Y-137118000D03*
X144388000Y-137118000D03*
X145488000Y-137118000D03*
X146588000Y-137118000D03*
%TD*%
D28*
%TO.C,R6*%
X153912500Y-151500000D03*
X152087500Y-151500000D03*
%TD*%
%TO.C,R4*%
X153912500Y-155500000D03*
X152087500Y-155500000D03*
%TD*%
D16*
%TO.C,R7*%
X147828000Y-123675000D03*
X147828000Y-125325000D03*
%TD*%
D21*
%TO.C,JP4*%
X158729200Y-132801100D03*
X157429200Y-132801100D03*
X156129200Y-132801100D03*
%TD*%
D17*
%TO.C,C13*%
X142608000Y-108077000D03*
X144158000Y-108077000D03*
%TD*%
D29*
%TO.C,C15*%
X154787600Y-136260800D03*
X154787600Y-138160800D03*
%TD*%
M02*
