%TF.GenerationSoftware,KiCad,Pcbnew,7.0.5*%
%TF.CreationDate,2023-08-09T18:59:09-07:00*%
%TF.ProjectId,lyra r1,6c797261-2072-4312-9e6b-696361645f70,rev?*%
%TF.SameCoordinates,Original*%
%TF.FileFunction,Copper,L1,Top*%
%TF.FilePolarity,Positive*%
%FSLAX46Y46*%
G04 Gerber Fmt 4.6, Leading zero omitted, Abs format (unit mm)*
G04 Created by KiCad (PCBNEW 7.0.5) date 2023-08-09 18:59:09*
%MOMM*%
%LPD*%
G01*
G04 APERTURE LIST*
G04 Aperture macros list*
%AMRoundRect*
0 Rectangle with rounded corners*
0 $1 Rounding radius*
0 $2 $3 $4 $5 $6 $7 $8 $9 X,Y pos of 4 corners*
0 Add a 4 corners polygon primitive as box body*
4,1,4,$2,$3,$4,$5,$6,$7,$8,$9,$2,$3,0*
0 Add four circle primitives for the rounded corners*
1,1,$1+$1,$2,$3*
1,1,$1+$1,$4,$5*
1,1,$1+$1,$6,$7*
1,1,$1+$1,$8,$9*
0 Add four rect primitives between the rounded corners*
20,1,$1+$1,$2,$3,$4,$5,0*
20,1,$1+$1,$4,$5,$6,$7,0*
20,1,$1+$1,$6,$7,$8,$9,0*
20,1,$1+$1,$8,$9,$2,$3,0*%
G04 Aperture macros list end*
%TA.AperFunction,SMDPad,CuDef*%
%ADD10RoundRect,0.200000X-0.275000X0.200000X-0.275000X-0.200000X0.275000X-0.200000X0.275000X0.200000X0*%
%TD*%
%TA.AperFunction,ComponentPad*%
%ADD11C,5.600000*%
%TD*%
%TA.AperFunction,SMDPad,CuDef*%
%ADD12RoundRect,0.218750X-0.218750X-0.256250X0.218750X-0.256250X0.218750X0.256250X-0.218750X0.256250X0*%
%TD*%
%TA.AperFunction,SMDPad,CuDef*%
%ADD13RoundRect,0.150000X0.150000X-0.650000X0.150000X0.650000X-0.150000X0.650000X-0.150000X-0.650000X0*%
%TD*%
%TA.AperFunction,SMDPad,CuDef*%
%ADD14R,1.500000X1.000000*%
%TD*%
%TA.AperFunction,SMDPad,CuDef*%
%ADD15RoundRect,0.200000X0.275000X-0.200000X0.275000X0.200000X-0.275000X0.200000X-0.275000X-0.200000X0*%
%TD*%
%TA.AperFunction,ComponentPad*%
%ADD16R,1.700000X1.700000*%
%TD*%
%TA.AperFunction,ComponentPad*%
%ADD17O,1.700000X1.700000*%
%TD*%
%TA.AperFunction,SMDPad,CuDef*%
%ADD18RoundRect,0.150000X-0.512500X-0.150000X0.512500X-0.150000X0.512500X0.150000X-0.512500X0.150000X0*%
%TD*%
%TA.AperFunction,ComponentPad*%
%ADD19R,3.000000X3.000000*%
%TD*%
%TA.AperFunction,ComponentPad*%
%ADD20C,3.000000*%
%TD*%
%TA.AperFunction,SMDPad,CuDef*%
%ADD21RoundRect,0.250000X0.475000X-0.250000X0.475000X0.250000X-0.475000X0.250000X-0.475000X-0.250000X0*%
%TD*%
%TA.AperFunction,SMDPad,CuDef*%
%ADD22RoundRect,0.075000X0.700000X0.075000X-0.700000X0.075000X-0.700000X-0.075000X0.700000X-0.075000X0*%
%TD*%
%TA.AperFunction,SMDPad,CuDef*%
%ADD23RoundRect,0.075000X0.075000X0.700000X-0.075000X0.700000X-0.075000X-0.700000X0.075000X-0.700000X0*%
%TD*%
%TA.AperFunction,SMDPad,CuDef*%
%ADD24RoundRect,0.225000X0.225000X0.250000X-0.225000X0.250000X-0.225000X-0.250000X0.225000X-0.250000X0*%
%TD*%
%TA.AperFunction,SMDPad,CuDef*%
%ADD25R,2.000000X1.500000*%
%TD*%
%TA.AperFunction,SMDPad,CuDef*%
%ADD26R,2.000000X3.800000*%
%TD*%
%TA.AperFunction,SMDPad,CuDef*%
%ADD27RoundRect,0.225000X0.250000X-0.225000X0.250000X0.225000X-0.250000X0.225000X-0.250000X-0.225000X0*%
%TD*%
%TA.AperFunction,SMDPad,CuDef*%
%ADD28RoundRect,0.200000X0.200000X0.275000X-0.200000X0.275000X-0.200000X-0.275000X0.200000X-0.275000X0*%
%TD*%
%TA.AperFunction,SMDPad,CuDef*%
%ADD29R,2.500000X1.200000*%
%TD*%
%TA.AperFunction,SMDPad,CuDef*%
%ADD30RoundRect,0.250000X-0.625000X0.375000X-0.625000X-0.375000X0.625000X-0.375000X0.625000X0.375000X0*%
%TD*%
%TA.AperFunction,SMDPad,CuDef*%
%ADD31RoundRect,0.243750X-0.243750X-0.456250X0.243750X-0.456250X0.243750X0.456250X-0.243750X0.456250X0*%
%TD*%
%TA.AperFunction,SMDPad,CuDef*%
%ADD32R,1.500000X1.500000*%
%TD*%
%TA.AperFunction,SMDPad,CuDef*%
%ADD33R,1.400000X0.400000*%
%TD*%
%TA.AperFunction,SMDPad,CuDef*%
%ADD34R,1.900000X2.300000*%
%TD*%
%TA.AperFunction,SMDPad,CuDef*%
%ADD35R,1.900000X1.800000*%
%TD*%
%TA.AperFunction,SMDPad,CuDef*%
%ADD36RoundRect,0.225000X-0.225000X-0.250000X0.225000X-0.250000X0.225000X0.250000X-0.225000X0.250000X0*%
%TD*%
%TA.AperFunction,SMDPad,CuDef*%
%ADD37RoundRect,0.218750X0.218750X0.256250X-0.218750X0.256250X-0.218750X-0.256250X0.218750X-0.256250X0*%
%TD*%
%TA.AperFunction,SMDPad,CuDef*%
%ADD38RoundRect,0.150000X0.150000X-0.512500X0.150000X0.512500X-0.150000X0.512500X-0.150000X-0.512500X0*%
%TD*%
%TA.AperFunction,SMDPad,CuDef*%
%ADD39RoundRect,0.243750X0.243750X0.456250X-0.243750X0.456250X-0.243750X-0.456250X0.243750X-0.456250X0*%
%TD*%
%TA.AperFunction,SMDPad,CuDef*%
%ADD40RoundRect,0.250000X-0.475000X0.250000X-0.475000X-0.250000X0.475000X-0.250000X0.475000X0.250000X0*%
%TD*%
%TA.AperFunction,SMDPad,CuDef*%
%ADD41RoundRect,0.200000X0.200000X0.250000X-0.200000X0.250000X-0.200000X-0.250000X0.200000X-0.250000X0*%
%TD*%
%TA.AperFunction,SMDPad,CuDef*%
%ADD42RoundRect,0.243750X0.456250X-0.243750X0.456250X0.243750X-0.456250X0.243750X-0.456250X-0.243750X0*%
%TD*%
%TA.AperFunction,SMDPad,CuDef*%
%ADD43R,0.250000X0.275000*%
%TD*%
%TA.AperFunction,SMDPad,CuDef*%
%ADD44R,0.275000X0.250000*%
%TD*%
%TA.AperFunction,SMDPad,CuDef*%
%ADD45RoundRect,0.250000X-0.250000X-0.475000X0.250000X-0.475000X0.250000X0.475000X-0.250000X0.475000X0*%
%TD*%
%TA.AperFunction,SMDPad,CuDef*%
%ADD46R,0.800000X1.000000*%
%TD*%
%TA.AperFunction,SMDPad,CuDef*%
%ADD47R,0.350000X0.590000*%
%TD*%
%TA.AperFunction,SMDPad,CuDef*%
%ADD48R,0.590000X0.350000*%
%TD*%
%TA.AperFunction,SMDPad,CuDef*%
%ADD49RoundRect,0.250000X0.250000X0.475000X-0.250000X0.475000X-0.250000X-0.475000X0.250000X-0.475000X0*%
%TD*%
%TA.AperFunction,ViaPad*%
%ADD50C,0.600000*%
%TD*%
%TA.AperFunction,ViaPad*%
%ADD51C,1.000000*%
%TD*%
%TA.AperFunction,ViaPad*%
%ADD52C,1.200000*%
%TD*%
%TA.AperFunction,Conductor*%
%ADD53C,0.254000*%
%TD*%
%TA.AperFunction,Conductor*%
%ADD54C,0.500000*%
%TD*%
%TA.AperFunction,Conductor*%
%ADD55C,1.000000*%
%TD*%
%TA.AperFunction,Conductor*%
%ADD56C,0.750000*%
%TD*%
%TA.AperFunction,Conductor*%
%ADD57C,0.250000*%
%TD*%
%TA.AperFunction,Conductor*%
%ADD58C,0.200000*%
%TD*%
%TA.AperFunction,Conductor*%
%ADD59C,2.000000*%
%TD*%
G04 APERTURE END LIST*
D10*
%TO.P,R16,1*%
%TO.N,ARM-*%
X133750000Y-108425000D03*
%TO.P,R16,2*%
%TO.N,PYRO SENSE*%
X133750000Y-110075000D03*
%TD*%
D11*
%TO.P,H1,1,1*%
%TO.N,GND*%
X128750000Y-86750000D03*
%TD*%
D12*
%TO.P,FB1,1*%
%TO.N,Net-(F2-Pad2)*%
X139462500Y-149000000D03*
%TO.P,FB1,2*%
%TO.N,+12V*%
X141037500Y-149000000D03*
%TD*%
D13*
%TO.P,U6,1,~{CS}*%
%TO.N,FLASH CS*%
X140462000Y-132251000D03*
%TO.P,U6,2,DO(IO1)*%
%TO.N,MISO*%
X141732000Y-132251000D03*
%TO.P,U6,3,IO2*%
%TO.N,+3V3*%
X143002000Y-132251000D03*
%TO.P,U6,4,GND*%
%TO.N,GND*%
X144272000Y-132251000D03*
%TO.P,U6,5,DI(IO0)*%
%TO.N,MOSI*%
X144272000Y-125051000D03*
%TO.P,U6,6,CLK*%
%TO.N,SCK*%
X143002000Y-125051000D03*
%TO.P,U6,7,IO3*%
%TO.N,+3V3*%
X141732000Y-125051000D03*
%TO.P,U6,8,VCC*%
X140462000Y-125051000D03*
%TD*%
D14*
%TO.P,JP1,1,A*%
%TO.N,+3V3*%
X138750000Y-84650000D03*
%TO.P,JP1,2,C*%
%TO.N,I2C POWER*%
X138750000Y-85950000D03*
%TO.P,JP1,3,B*%
%TO.N,+5V*%
X138750000Y-87250000D03*
%TD*%
D15*
%TO.P,R9,1*%
%TO.N,P1-*%
X151892000Y-139575000D03*
%TO.P,R9,2*%
%TO.N,Net-(Q2-D)*%
X151892000Y-137925000D03*
%TD*%
D16*
%TO.P,J6,1,Pin_1*%
%TO.N,SERVO3*%
X163790000Y-125460000D03*
D17*
%TO.P,J6,2,Pin_2*%
%TO.N,SERVO4*%
X163790000Y-128000000D03*
%TO.P,J6,3,Pin_3*%
%TO.N,SERVO POWER*%
X161250000Y-125460000D03*
%TO.P,J6,4,Pin_4*%
X161250000Y-128000000D03*
%TO.P,J6,5,Pin_5*%
%TO.N,GND*%
X158710000Y-125460000D03*
%TO.P,J6,6,Pin_6*%
X158710000Y-128000000D03*
%TD*%
D18*
%TO.P,Q3,1,G*%
%TO.N,P2 EN*%
X151225000Y-145550000D03*
%TO.P,Q3,2,S*%
%TO.N,GND*%
X151225000Y-147450000D03*
%TO.P,Q3,3,D*%
%TO.N,Net-(Q3-D)*%
X153500000Y-146500000D03*
%TD*%
D16*
%TO.P,J10,1,Pin_1*%
%TO.N,GND*%
X127827800Y-128320800D03*
D17*
%TO.P,J10,2,Pin_2*%
%TO.N,Net-(J10-Pin_2)*%
X130367800Y-128320800D03*
%TO.P,J10,3,Pin_3*%
%TO.N,+3V3*%
X132907800Y-128320800D03*
%TD*%
D19*
%TO.P,J12,1,Pin_1*%
%TO.N,ARM-*%
X161750000Y-133010000D03*
D20*
%TO.P,J12,2,Pin_2*%
%TO.N,P1-*%
X161750000Y-138090000D03*
%TO.P,J12,3,Pin_3*%
%TO.N,ARM-*%
X161750000Y-143170000D03*
%TO.P,J12,4,Pin_4*%
%TO.N,P2-*%
X161750000Y-148250000D03*
%TD*%
D21*
%TO.P,C4,1*%
%TO.N,+5V*%
X147750000Y-153700000D03*
%TO.P,C4,2*%
%TO.N,GND*%
X147750000Y-151800000D03*
%TD*%
D22*
%TO.P,U7,1,VBAT*%
%TO.N,+3V3*%
X150925000Y-117000000D03*
%TO.P,U7,2,PC13*%
%TO.N,unconnected-(U7-PC13-Pad2)*%
X150925000Y-116500000D03*
%TO.P,U7,3,PC14*%
%TO.N,unconnected-(U7-PC14-Pad3)*%
X150925000Y-116000000D03*
%TO.P,U7,4,PC15*%
%TO.N,unconnected-(U7-PC15-Pad4)*%
X150925000Y-115500000D03*
%TO.P,U7,5,PH0*%
%TO.N,OSCIN*%
X150925000Y-115000000D03*
%TO.P,U7,6,PH1*%
%TO.N,unconnected-(U7-PH1-Pad6)*%
X150925000Y-114500000D03*
%TO.P,U7,7,NRST*%
%TO.N,RESET*%
X150925000Y-114000000D03*
%TO.P,U7,8,PC0*%
%TO.N,BATT SENSE*%
X150925000Y-113500000D03*
%TO.P,U7,9,PC1*%
%TO.N,PYRO SENSE*%
X150925000Y-113000000D03*
%TO.P,U7,10,PC2*%
%TO.N,unconnected-(U7-PC2-Pad10)*%
X150925000Y-112500000D03*
%TO.P,U7,11,PC3*%
%TO.N,unconnected-(U7-PC3-Pad11)*%
X150925000Y-112000000D03*
%TO.P,U7,12,VSSA*%
%TO.N,GND*%
X150925000Y-111500000D03*
%TO.P,U7,13,VDDA*%
%TO.N,+3.3VA*%
X150925000Y-111000000D03*
%TO.P,U7,14,PA0*%
%TO.N,BUZZER*%
X150925000Y-110500000D03*
%TO.P,U7,15,PA1*%
%TO.N,PA1*%
X150925000Y-110000000D03*
%TO.P,U7,16,PA2*%
%TO.N,USART2 TX*%
X150925000Y-109500000D03*
D23*
%TO.P,U7,17,PA3*%
%TO.N,USART2 RX*%
X149000000Y-107575000D03*
%TO.P,U7,18,VSS*%
%TO.N,GND*%
X148500000Y-107575000D03*
%TO.P,U7,19,VDD*%
%TO.N,+3V3*%
X148000000Y-107575000D03*
%TO.P,U7,20,PA4*%
%TO.N,PA4*%
X147500000Y-107575000D03*
%TO.P,U7,21,PA5*%
%TO.N,unconnected-(U7-PA5-Pad21)*%
X147000000Y-107575000D03*
%TO.P,U7,22,PA6*%
%TO.N,unconnected-(U7-PA6-Pad22)*%
X146500000Y-107575000D03*
%TO.P,U7,23,PA7*%
%TO.N,unconnected-(U7-PA7-Pad23)*%
X146000000Y-107575000D03*
%TO.P,U7,24,PC4*%
%TO.N,unconnected-(U7-PC4-Pad24)*%
X145500000Y-107575000D03*
%TO.P,U7,25,PC5*%
%TO.N,unconnected-(U7-PC5-Pad25)*%
X145000000Y-107575000D03*
%TO.P,U7,26,PB0*%
%TO.N,BARO INT*%
X144500000Y-107575000D03*
%TO.P,U7,27,PB1*%
%TO.N,GYRO INT3*%
X144000000Y-107575000D03*
%TO.P,U7,28,PB2*%
%TO.N,GYRO INT4*%
X143500000Y-107575000D03*
%TO.P,U7,29,PB10*%
%TO.N,SCL*%
X143000000Y-107575000D03*
%TO.P,U7,30,PB11*%
%TO.N,SDA*%
X142500000Y-107575000D03*
%TO.P,U7,31,VCAP_1*%
%TO.N,Net-(U7-VCAP_1)*%
X142000000Y-107575000D03*
%TO.P,U7,32,VDD*%
%TO.N,+3V3*%
X141500000Y-107575000D03*
D22*
%TO.P,U7,33,PB12*%
%TO.N,ACCEL INT2*%
X139575000Y-109500000D03*
%TO.P,U7,34,PB13*%
%TO.N,ACCEL INT1*%
X139575000Y-110000000D03*
%TO.P,U7,35,PB14*%
%TO.N,unconnected-(U7-PB14-Pad35)*%
X139575000Y-110500000D03*
%TO.P,U7,36,PB15*%
%TO.N,unconnected-(U7-PB15-Pad36)*%
X139575000Y-111000000D03*
%TO.P,U7,37,PC6*%
%TO.N,SERVO1*%
X139575000Y-111500000D03*
%TO.P,U7,38,PC7*%
%TO.N,SERVO2*%
X139575000Y-112000000D03*
%TO.P,U7,39,PC8*%
%TO.N,SERVO3*%
X139575000Y-112500000D03*
%TO.P,U7,40,PC9*%
%TO.N,SERVO4*%
X139575000Y-113000000D03*
%TO.P,U7,41,PA8*%
%TO.N,unconnected-(U7-PA8-Pad41)*%
X139575000Y-113500000D03*
%TO.P,U7,42,PA9*%
%TO.N,unconnected-(U7-PA9-Pad42)*%
X139575000Y-114000000D03*
%TO.P,U7,43,PA10*%
%TO.N,unconnected-(U7-PA10-Pad43)*%
X139575000Y-114500000D03*
%TO.P,U7,44,PA11*%
%TO.N,USB D-*%
X139575000Y-115000000D03*
%TO.P,U7,45,PA12*%
%TO.N,USB D+*%
X139575000Y-115500000D03*
%TO.P,U7,46,PA13*%
%TO.N,unconnected-(U7-PA13-Pad46)*%
X139575000Y-116000000D03*
%TO.P,U7,47,VCAP_2*%
%TO.N,Net-(U7-VCAP_2)*%
X139575000Y-116500000D03*
%TO.P,U7,48,VDD*%
%TO.N,+3V3*%
X139575000Y-117000000D03*
D23*
%TO.P,U7,49,PA14*%
%TO.N,CS BRKOUT*%
X141500000Y-118925000D03*
%TO.P,U7,50,PA15*%
%TO.N,FLASH CS*%
X142000000Y-118925000D03*
%TO.P,U7,51,PC10*%
%TO.N,P1 EN*%
X142500000Y-118925000D03*
%TO.P,U7,52,PC11*%
%TO.N,P2 EN*%
X143000000Y-118925000D03*
%TO.P,U7,53,PC12*%
%TO.N,CS SD*%
X143500000Y-118925000D03*
%TO.P,U7,54,PD2*%
%TO.N,unconnected-(U7-PD2-Pad54)*%
X144000000Y-118925000D03*
%TO.P,U7,55,PB3*%
%TO.N,SCK*%
X144500000Y-118925000D03*
%TO.P,U7,56,PB4*%
%TO.N,MISO*%
X145000000Y-118925000D03*
%TO.P,U7,57,PB5*%
%TO.N,MOSI*%
X145500000Y-118925000D03*
%TO.P,U7,58,PB6*%
%TO.N,PB6*%
X146000000Y-118925000D03*
%TO.P,U7,59,PB7*%
%TO.N,LED BLUE*%
X146500000Y-118925000D03*
%TO.P,U7,60,BOOT0*%
%TO.N,BOOT0*%
X147000000Y-118925000D03*
%TO.P,U7,61,PB8*%
%TO.N,LED GREEN*%
X147500000Y-118925000D03*
%TO.P,U7,62,PB9*%
%TO.N,LED RED*%
X148000000Y-118925000D03*
%TO.P,U7,63,VSS*%
%TO.N,GND*%
X148500000Y-118925000D03*
%TO.P,U7,64,VDD*%
%TO.N,+3V3*%
X149000000Y-118925000D03*
%TD*%
D24*
%TO.P,C9,1*%
%TO.N,GND*%
X144539000Y-134112000D03*
%TO.P,C9,2*%
%TO.N,+3V3*%
X142989000Y-134112000D03*
%TD*%
D19*
%TO.P,J11,1,Pin_1*%
%TO.N,+3V3*%
X161750000Y-93250000D03*
D20*
%TO.P,J11,2,Pin_2*%
%TO.N,+5V*%
X161750000Y-98330000D03*
%TO.P,J11,3,Pin_3*%
%TO.N,GND*%
X161750000Y-103410000D03*
%TO.P,J11,4,Pin_4*%
%TO.N,PA1*%
X161750000Y-108490000D03*
%TD*%
D16*
%TO.P,J8,1,Pin_1*%
%TO.N,GND*%
X155025000Y-129275000D03*
D17*
%TO.P,J8,2,Pin_2*%
%TO.N,SPI POWER*%
X152485000Y-129275000D03*
%TO.P,J8,3,Pin_3*%
%TO.N,SCK*%
X155025000Y-126735000D03*
%TO.P,J8,4,Pin_4*%
%TO.N,MOSI*%
X152485000Y-126735000D03*
%TO.P,J8,5,Pin_5*%
%TO.N,MISO*%
X155025000Y-124195000D03*
%TO.P,J8,6,Pin_6*%
%TO.N,CS BRKOUT*%
X152485000Y-124195000D03*
%TD*%
D19*
%TO.P,J5,1,Pin_1*%
%TO.N,+12P*%
X128750000Y-108490000D03*
D20*
%TO.P,J5,2,Pin_2*%
%TO.N,ARM-*%
X128750000Y-103410000D03*
%TO.P,J5,3,Pin_3*%
%TO.N,PB6*%
X128750000Y-98330000D03*
%TO.P,J5,4,Pin_4*%
%TO.N,PA4*%
X128750000Y-93250000D03*
%TD*%
D25*
%TO.P,U2,1,ADJ*%
%TO.N,Net-(U2-ADJ)*%
X150100000Y-151450000D03*
%TO.P,U2,2,VO*%
%TO.N,+5V*%
X150100000Y-153750000D03*
D26*
X156400000Y-153750000D03*
D25*
%TO.P,U2,3,VI*%
%TO.N,+12V*%
X150100000Y-156050000D03*
%TD*%
D27*
%TO.P,C19,1*%
%TO.N,GND*%
X154000000Y-112775000D03*
%TO.P,C19,2*%
%TO.N,+3.3VA*%
X154000000Y-111225000D03*
%TD*%
D18*
%TO.P,Q2,1,G*%
%TO.N,P1 EN*%
X149433700Y-134584400D03*
%TO.P,Q2,2,S*%
%TO.N,GND*%
X149433700Y-136484400D03*
%TO.P,Q2,3,D*%
%TO.N,Net-(Q2-D)*%
X151708700Y-135534400D03*
%TD*%
D28*
%TO.P,R12,1*%
%TO.N,P2-*%
X153825000Y-149000000D03*
%TO.P,R12,2*%
%TO.N,Net-(Q3-D)*%
X152175000Y-149000000D03*
%TD*%
D29*
%TO.P,SW2,1,A*%
%TO.N,unconnected-(SW2-A-Pad1)*%
X148000000Y-144750000D03*
%TO.P,SW2,2,B*%
%TO.N,BATT PRESWITCH*%
X148000000Y-142250000D03*
%TO.P,SW2,3,C*%
%TO.N,+BATT*%
X148000000Y-139750000D03*
%TO.P,SW2,4,A*%
X142500000Y-139750000D03*
%TO.P,SW2,5,B*%
%TO.N,BATT PRESWITCH*%
X142500000Y-142250000D03*
%TO.P,SW2,6,C*%
%TO.N,unconnected-(SW2-C-Pad6)*%
X142500000Y-144750000D03*
%TD*%
D16*
%TO.P,J4,1,Pin_1*%
%TO.N,GND*%
X135000000Y-93620000D03*
D17*
%TO.P,J4,2,Pin_2*%
%TO.N,SDA*%
X135000000Y-91080000D03*
%TO.P,J4,3,Pin_3*%
%TO.N,SCL*%
X135000000Y-88540000D03*
%TO.P,J4,4,Pin_4*%
%TO.N,I2C POWER*%
X135000000Y-86000000D03*
%TD*%
D19*
%TO.P,J3,1,Pin_1*%
%TO.N,BATT PRESWITCH*%
X129000000Y-148120000D03*
D20*
%TO.P,J3,2,Pin_2*%
%TO.N,GND*%
X129000000Y-143040000D03*
%TO.P,J3,3,Pin_3*%
%TO.N,BATT PRESWITCH*%
X129000000Y-137960000D03*
%TO.P,J3,4,Pin_4*%
%TO.N,+BATT*%
X129000000Y-132880000D03*
%TD*%
D28*
%TO.P,R8,1*%
%TO.N,GND*%
X151142200Y-133045200D03*
%TO.P,R8,2*%
%TO.N,P1 EN*%
X149492200Y-133045200D03*
%TD*%
D30*
%TO.P,F1,1*%
%TO.N,+BATT*%
X139039600Y-138452400D03*
%TO.P,F1,2*%
%TO.N,Net-(Q1-D)*%
X139039600Y-141252400D03*
%TD*%
D31*
%TO.P,D1,1,K*%
%TO.N,+12V*%
X142875000Y-149000000D03*
%TO.P,D1,2,A*%
%TO.N,VBUS*%
X144750000Y-149000000D03*
%TD*%
D32*
%TO.P,SW1,1,A*%
%TO.N,GND*%
X154330400Y-84898400D03*
%TO.P,SW1,2,B*%
%TO.N,RESET*%
X154330400Y-92698400D03*
%TD*%
D28*
%TO.P,R10,1*%
%TO.N,GND*%
X152825000Y-144000000D03*
%TO.P,R10,2*%
%TO.N,P2 EN*%
X151175000Y-144000000D03*
%TD*%
D14*
%TO.P,JP3,1,A*%
%TO.N,+3V3*%
X149361900Y-130687600D03*
%TO.P,JP3,2,C*%
%TO.N,SPI POWER*%
X149361900Y-129387600D03*
%TO.P,JP3,3,B*%
%TO.N,+5V*%
X149361900Y-128087600D03*
%TD*%
D16*
%TO.P,J2,1,Pin_1*%
%TO.N,GND*%
X155750000Y-104620000D03*
D17*
%TO.P,J2,2,Pin_2*%
%TO.N,USART2 TX*%
X155750000Y-102080000D03*
%TO.P,J2,3,Pin_3*%
%TO.N,USART2 RX*%
X155750000Y-99540000D03*
%TO.P,J2,4,Pin_4*%
%TO.N,UART POWER*%
X155750000Y-97000000D03*
%TD*%
D18*
%TO.P,U3,1,I/O1*%
%TO.N,USB CON D-*%
X134862500Y-114550000D03*
%TO.P,U3,2,GND*%
%TO.N,GND*%
X134862500Y-115500000D03*
%TO.P,U3,3,I/O2*%
%TO.N,USB CON D+*%
X134862500Y-116450000D03*
%TO.P,U3,4,I/O2*%
%TO.N,USB D+*%
X137137500Y-116450000D03*
%TO.P,U3,5,VBUS*%
%TO.N,VBUS*%
X137137500Y-115500000D03*
%TO.P,U3,6,I/O1*%
%TO.N,USB D-*%
X137137500Y-114550000D03*
%TD*%
D33*
%TO.P,J1,1,VBUS*%
%TO.N,VBUS*%
X131064000Y-115468400D03*
%TO.P,J1,2,D-*%
%TO.N,USB CON D-*%
X131064000Y-116118400D03*
%TO.P,J1,3,D+*%
%TO.N,USB CON D+*%
X131064000Y-116768400D03*
%TO.P,J1,4,ID*%
%TO.N,unconnected-(J1-ID-Pad4)*%
X131064000Y-117418400D03*
%TO.P,J1,5,GND*%
%TO.N,GND*%
X131064000Y-118068400D03*
D34*
%TO.P,J1,6,Shield*%
%TO.N,unconnected-(J1-Shield-Pad6)*%
X128214000Y-113018400D03*
D35*
X128214000Y-115618400D03*
X128214000Y-117918400D03*
D34*
X128214000Y-120518400D03*
%TD*%
D36*
%TO.P,C11,1*%
%TO.N,GND*%
X152945800Y-94488000D03*
%TO.P,C11,2*%
%TO.N,RESET*%
X154495800Y-94488000D03*
%TD*%
D37*
%TO.P,FB2,1*%
%TO.N,+3.3VA*%
X155787500Y-109500000D03*
%TO.P,FB2,2*%
%TO.N,+3V3*%
X154212500Y-109500000D03*
%TD*%
D11*
%TO.P,H4,1,1*%
%TO.N,GND*%
X161750000Y-154750000D03*
%TD*%
D10*
%TO.P,R15,1*%
%TO.N,+3V3*%
X144449800Y-99856800D03*
%TO.P,R15,2*%
%TO.N,SCL*%
X144449800Y-101506800D03*
%TD*%
D38*
%TO.P,Q1,1,G*%
%TO.N,GND*%
X137988000Y-145358700D03*
%TO.P,Q1,2,S*%
%TO.N,+12P*%
X139888000Y-145358700D03*
%TO.P,Q1,3,D*%
%TO.N,Net-(Q1-D)*%
X138938000Y-143083700D03*
%TD*%
D39*
%TO.P,D4,1,K*%
%TO.N,+5V*%
X148187500Y-149000000D03*
%TO.P,D4,2,A*%
%TO.N,VBUS*%
X146312500Y-149000000D03*
%TD*%
D10*
%TO.P,R17,1*%
%TO.N,+3V3*%
X142798800Y-99809800D03*
%TO.P,R17,2*%
%TO.N,SDA*%
X142798800Y-101459800D03*
%TD*%
D15*
%TO.P,R2,1*%
%TO.N,+3V3*%
X133000000Y-118731800D03*
%TO.P,R2,2*%
%TO.N,USB CON D+*%
X133000000Y-117081800D03*
%TD*%
D40*
%TO.P,C3,1*%
%TO.N,+3V3*%
X143250000Y-153800000D03*
%TO.P,C3,2*%
%TO.N,GND*%
X143250000Y-155700000D03*
%TD*%
D24*
%TO.P,C12,1*%
%TO.N,GND*%
X144285000Y-135763000D03*
%TO.P,C12,2*%
%TO.N,+3V3*%
X142735000Y-135763000D03*
%TD*%
D41*
%TO.P,X1,1,Tri-State*%
%TO.N,+3.3VA*%
X155919000Y-116114000D03*
%TO.P,X1,2,GND*%
%TO.N,GND*%
X155919000Y-114264000D03*
%TO.P,X1,3,OUT*%
%TO.N,OSCIN*%
X154469000Y-114264000D03*
%TO.P,X1,4,VDD*%
%TO.N,+3.3VA*%
X154469000Y-116114000D03*
%TD*%
D42*
%TO.P,D3,1,K*%
%TO.N,GND*%
X136042400Y-123111500D03*
%TO.P,D3,2,A*%
%TO.N,Net-(D3-A)*%
X136042400Y-121236500D03*
%TD*%
D11*
%TO.P,H2,1,1*%
%TO.N,GND*%
X161750000Y-86750000D03*
%TD*%
D15*
%TO.P,R18,1*%
%TO.N,PYRO SENSE*%
X135510000Y-110075000D03*
%TO.P,R18,2*%
%TO.N,GND*%
X135510000Y-108425000D03*
%TD*%
D43*
%TO.P,U5,1,VDDIO*%
%TO.N,+3V3*%
X149750000Y-99237500D03*
%TO.P,U5,2,SCK/SCL*%
%TO.N,SCL*%
X149250000Y-99237500D03*
D44*
%TO.P,U5,3,VSS/GND*%
%TO.N,GND*%
X148737500Y-99500000D03*
%TO.P,U5,4,SDI/SDO/SDA*%
%TO.N,SDA*%
X148737500Y-100000000D03*
%TO.P,U5,5,SDO/DNC/SA0*%
%TO.N,GND*%
X148737500Y-100500000D03*
D43*
%TO.P,U5,6,~{CS}*%
%TO.N,+3V3*%
X149250000Y-100762500D03*
%TO.P,U5,7,INT/DNC*%
%TO.N,BARO INT*%
X149750000Y-100762500D03*
D44*
%TO.P,U5,8,VSS/GND__1*%
%TO.N,GND*%
X150262500Y-100500000D03*
%TO.P,U5,9,VSS/GND__2*%
X150262500Y-100000000D03*
%TO.P,U5,10,VDD*%
%TO.N,+3V3*%
X150262500Y-99500000D03*
%TD*%
D16*
%TO.P,J7,1,Pin_1*%
%TO.N,SERVO1*%
X163775000Y-119210000D03*
D17*
%TO.P,J7,2,Pin_2*%
%TO.N,SERVO2*%
X163775000Y-121750000D03*
%TO.P,J7,3,Pin_3*%
%TO.N,SERVO POWER*%
X161235000Y-119210000D03*
%TO.P,J7,4,Pin_4*%
X161235000Y-121750000D03*
%TO.P,J7,5,Pin_5*%
%TO.N,GND*%
X158695000Y-119210000D03*
%TO.P,J7,6,Pin_6*%
X158695000Y-121750000D03*
%TD*%
D45*
%TO.P,C1,1*%
%TO.N,+12V*%
X143050000Y-151250000D03*
%TO.P,C1,2*%
%TO.N,GND*%
X144950000Y-151250000D03*
%TD*%
D27*
%TO.P,C18,1*%
%TO.N,GND*%
X155750000Y-112775000D03*
%TO.P,C18,2*%
%TO.N,+3.3VA*%
X155750000Y-111225000D03*
%TD*%
D46*
%TO.P,D5,1,A*%
%TO.N,Net-(D5-A)*%
X147800000Y-123750000D03*
%TO.P,D5,2,RK*%
%TO.N,LED RED*%
X147800000Y-125250000D03*
%TO.P,D5,3,BK*%
%TO.N,LED BLUE*%
X146700000Y-125250000D03*
%TO.P,D5,4,GK*%
%TO.N,LED GREEN*%
X146700000Y-123750000D03*
%TD*%
D11*
%TO.P,H3,1,1*%
%TO.N,GND*%
X128750000Y-154750000D03*
%TD*%
D25*
%TO.P,U1,1,ADJ*%
%TO.N,Net-(U1-ADJ)*%
X140650000Y-156050000D03*
%TO.P,U1,2,VO*%
%TO.N,+3V3*%
X140650000Y-153750000D03*
D26*
X134350000Y-153750000D03*
D25*
%TO.P,U1,3,VI*%
%TO.N,+12V*%
X140650000Y-151450000D03*
%TD*%
D47*
%TO.P,U4,1,INT2*%
%TO.N,ACCEL INT2*%
X135250000Y-99085000D03*
%TO.P,U4,2,NC*%
%TO.N,unconnected-(U4-NC-Pad2)*%
X135750000Y-99085000D03*
%TO.P,U4,3,VDD*%
%TO.N,+3V3*%
X136250000Y-99085000D03*
%TO.P,U4,4,GNDA*%
%TO.N,GND*%
X136750000Y-99085000D03*
%TO.P,U4,5,CSB2*%
%TO.N,unconnected-(U4-CSB2-Pad5)*%
X137250000Y-99085000D03*
%TO.P,U4,6,GNDIO*%
%TO.N,GND*%
X137750000Y-99085000D03*
%TO.P,U4,7,PS*%
%TO.N,+3V3*%
X138250000Y-99085000D03*
D48*
%TO.P,U4,8,SCL/SCK*%
%TO.N,SCL*%
X138665000Y-100250000D03*
D47*
%TO.P,U4,9,SDA/SDI*%
%TO.N,SDA*%
X138250000Y-101415000D03*
%TO.P,U4,10,SDO2*%
%TO.N,GND*%
X137750000Y-101415000D03*
%TO.P,U4,11,VDDIO*%
%TO.N,+3V3*%
X137250000Y-101415000D03*
%TO.P,U4,12,INT3*%
%TO.N,GYRO INT3*%
X136750000Y-101415000D03*
%TO.P,U4,13,INT4*%
%TO.N,GYRO INT4*%
X136250000Y-101415000D03*
%TO.P,U4,14,CSB1*%
%TO.N,+3V3*%
X135750000Y-101415000D03*
%TO.P,U4,15,SDO1*%
%TO.N,GND*%
X135250000Y-101415000D03*
D48*
%TO.P,U4,16,INT1*%
%TO.N,ACCEL INT1*%
X134835000Y-100250000D03*
%TD*%
D49*
%TO.P,C2,1*%
%TO.N,+12V*%
X147127000Y-156083000D03*
%TO.P,C2,2*%
%TO.N,GND*%
X145227000Y-156083000D03*
%TD*%
D50*
%TO.N,GND*%
X152349200Y-94488000D03*
X154432000Y-83921600D03*
D51*
%TO.N,+12P*%
X131572000Y-135534400D03*
D50*
%TO.N,+12V*%
X155143200Y-156381600D03*
X139903200Y-150063200D03*
%TO.N,GND*%
X151790400Y-133045200D03*
X144153145Y-108743021D03*
X144526000Y-134747000D03*
X137972800Y-144526000D03*
X150672800Y-100504500D03*
X148437600Y-100736400D03*
X138328400Y-102158800D03*
X152095200Y-156210000D03*
X153466800Y-143967200D03*
X141478000Y-84328000D03*
D51*
X152755600Y-112776000D03*
D50*
X140462000Y-147421600D03*
X139573000Y-106807000D03*
X134010400Y-115519200D03*
X144285000Y-136398000D03*
X142367000Y-115316000D03*
X140208000Y-118999000D03*
X137718800Y-98399600D03*
D51*
X144373600Y-156083000D03*
D50*
X135534400Y-107848400D03*
X149117900Y-137038500D03*
X136042400Y-123850400D03*
D51*
X147777200Y-150926800D03*
D50*
X148082000Y-117729000D03*
X136194800Y-155244800D03*
X147815000Y-99499484D03*
X155651200Y-138226800D03*
D51*
X145846800Y-151180800D03*
D50*
X150926800Y-148031200D03*
X138303000Y-124714000D03*
X148660622Y-108669025D03*
X131013200Y-118262400D03*
X135229600Y-101955600D03*
%TO.N,+3V3*%
X137210800Y-100685600D03*
X138734800Y-83972400D03*
D51*
X157327600Y-95351600D03*
D50*
X149479000Y-117729000D03*
X149809200Y-98552000D03*
X136245600Y-98399600D03*
X148699502Y-125349000D03*
X137922000Y-154686000D03*
X138582400Y-152755600D03*
X143002000Y-134747000D03*
X138874500Y-117411500D03*
X140462000Y-124079000D03*
X142240000Y-136398000D03*
X137241900Y-122986800D03*
X150495000Y-99060000D03*
D51*
X143560800Y-99423500D03*
D50*
X148234400Y-106375200D03*
X151231600Y-117398800D03*
X149098000Y-101244400D03*
D51*
X154228800Y-108000800D03*
D50*
X150520400Y-131318000D03*
X141097000Y-106807000D03*
X132994400Y-119329200D03*
D51*
%TO.N,+5V*%
X148336000Y-128219200D03*
D50*
X155346400Y-151231600D03*
X148386800Y-148132800D03*
X138734800Y-88036400D03*
%TO.N,RESET*%
X152146000Y-113995200D03*
X151790400Y-96469200D03*
%TO.N,Net-(U7-VCAP_1)*%
X142181839Y-108682460D03*
%TO.N,Net-(U7-VCAP_2)*%
X140586404Y-116488497D03*
%TO.N,VBUS*%
X132537200Y-124104400D03*
X144729200Y-147269200D03*
%TO.N,Net-(D5-A)*%
X147828000Y-123063000D03*
%TO.N,Net-(D3-A)*%
X135991600Y-120548400D03*
D51*
%TO.N,+12P*%
X139446000Y-144373600D03*
D52*
%TO.N,Net-(F2-Pad2)*%
X136347200Y-148082000D03*
%TO.N,BATT PRESWITCH*%
X140817600Y-142240000D03*
X133654800Y-142595600D03*
D50*
%TO.N,MOSI*%
X141020800Y-138125200D03*
%TO.N,MISO*%
X144678400Y-122478800D03*
X142341600Y-131013200D03*
%TO.N,SCK*%
X141071600Y-130657600D03*
X143353807Y-123592607D03*
%TO.N,CS BRKOUT*%
X144594693Y-116703607D03*
X149758400Y-120192800D03*
%TO.N,SDA*%
X145592800Y-102057200D03*
X142403596Y-102108500D03*
%TO.N,SERVO3*%
X159735500Y-124256800D03*
%TO.N,SERVO4*%
X144365691Y-113134409D03*
X151575997Y-119746803D03*
%TO.N,SERVO1*%
X156151566Y-117979441D03*
X145846800Y-111506000D03*
%TO.N,SERVO2*%
X156145500Y-121767600D03*
X159359600Y-123088400D03*
X145694400Y-112318800D03*
%TO.N,CS SD*%
X142544800Y-120446800D03*
%TO.N,BOOT0*%
X132921623Y-125548777D03*
%TO.N,BUZZER*%
X150059003Y-106117003D03*
%TO.N,P1 EN*%
X148640800Y-133045200D03*
X142256662Y-117786651D03*
%TO.N,P2 EN*%
X143345224Y-117751604D03*
X146304000Y-128676400D03*
%TO.N,Net-(U1-ADJ)*%
X139903200Y-155041600D03*
%TO.N,Net-(U2-ADJ)*%
X151587200Y-150825200D03*
%TO.N,BATT SENSE*%
X137718800Y-146659600D03*
X149037019Y-113557932D03*
X135382000Y-128320800D03*
X133350000Y-136804400D03*
X140803403Y-117943403D03*
%TO.N,GYRO INT4*%
X136006446Y-102868933D03*
X143626500Y-105954723D03*
%TO.N,GYRO INT3*%
X144768797Y-105675203D03*
X136804400Y-102819200D03*
%TO.N,PA4*%
X146703457Y-105555457D03*
%TO.N,PYRO SENSE*%
X136194800Y-110075000D03*
X141325600Y-110337600D03*
%TO.N,PB6*%
X141884400Y-113690400D03*
X145237200Y-117364900D03*
X144373600Y-114452400D03*
%TD*%
D53*
%TO.N,+3V3*%
X150520400Y-131318000D02*
X149890000Y-130687600D01*
X149890000Y-130687600D02*
X149361900Y-130687600D01*
X149250000Y-101092400D02*
X149250000Y-100762500D01*
X149098000Y-101244400D02*
X149250000Y-101092400D01*
%TO.N,GND*%
X136750000Y-98841000D02*
X136750000Y-99085000D01*
X137718800Y-98399600D02*
X137750000Y-98430800D01*
X137191400Y-98399600D02*
X136750000Y-98841000D01*
X137718800Y-98399600D02*
X137191400Y-98399600D01*
X137750000Y-98430800D02*
X137750000Y-99085000D01*
%TO.N,+3V3*%
X136250000Y-98404000D02*
X136250000Y-99085000D01*
X136245600Y-98399600D02*
X136250000Y-98404000D01*
X137210800Y-101375800D02*
X137250000Y-101415000D01*
X137210800Y-100685600D02*
X137210800Y-101375800D01*
%TO.N,GND*%
X137888600Y-101695888D02*
X137750000Y-101557288D01*
X138328400Y-102158800D02*
X137888600Y-101719000D01*
X137888600Y-101719000D02*
X137888600Y-101695888D01*
X137750000Y-101557288D02*
X137750000Y-101415000D01*
D54*
X152945800Y-94488000D02*
X152349200Y-94488000D01*
D53*
%TO.N,RESET*%
X153175000Y-95808800D02*
X154495800Y-94488000D01*
X151790400Y-95808800D02*
X153175000Y-95808800D01*
D54*
X154495800Y-94488000D02*
X154495800Y-92863800D01*
X154495800Y-92863800D02*
X154330400Y-92698400D01*
%TO.N,GND*%
X154330400Y-84023200D02*
X154432000Y-83921600D01*
X154330400Y-84898400D02*
X154330400Y-84023200D01*
D55*
%TO.N,BATT PRESWITCH*%
X129654400Y-148120000D02*
X129000000Y-148120000D01*
X133654800Y-142595600D02*
X133654800Y-144119600D01*
X133654800Y-144119600D02*
X129654400Y-148120000D01*
%TO.N,+12P*%
X125984000Y-132975270D02*
X125984000Y-109982000D01*
X125984000Y-109982000D02*
X127476000Y-108490000D01*
X128543130Y-135534400D02*
X125984000Y-132975270D01*
X127476000Y-108490000D02*
X128750000Y-108490000D01*
X131572000Y-135534400D02*
X128543130Y-135534400D01*
%TO.N,+BATT*%
X138650000Y-139250000D02*
X132280000Y-132880000D01*
%TO.N,+12V*%
X143050000Y-151418503D02*
X143050000Y-151250000D01*
X144343800Y-152675000D02*
X144306497Y-152675000D01*
X147127000Y-156083000D02*
X147127000Y-155458200D01*
X147127000Y-155458200D02*
X144343800Y-152675000D01*
X144306497Y-152675000D02*
X143050000Y-151418503D01*
D56*
%TO.N,Net-(Q3-D)*%
X152175000Y-148357800D02*
X152175000Y-149000000D01*
X153500000Y-147032800D02*
X152175000Y-148357800D01*
X153500000Y-146500000D02*
X153500000Y-147032800D01*
D53*
%TO.N,MOSI*%
X145017900Y-125796900D02*
X145050100Y-125764700D01*
X145017900Y-125796900D02*
X145316000Y-126095000D01*
X144272000Y-125051000D02*
X145017900Y-125796900D01*
X145050100Y-125764700D02*
X145050100Y-125154100D01*
%TO.N,LED BLUE*%
X145955826Y-123098121D02*
X145955826Y-124505826D01*
X145955826Y-124505826D02*
X146700000Y-125250000D01*
X146500000Y-118925000D02*
X146500000Y-122553947D01*
X146500000Y-122553947D02*
X145955826Y-123098121D01*
%TO.N,LED RED*%
X148996400Y-120623492D02*
X148996400Y-124053600D01*
X148996400Y-124053600D02*
X147800000Y-125250000D01*
X148000000Y-119627092D02*
X148996400Y-120623492D01*
X148000000Y-118925000D02*
X148000000Y-119627092D01*
%TO.N,P2 EN*%
X150368000Y-139395200D02*
X146304000Y-135331200D01*
X150368000Y-142087600D02*
X150368000Y-139395200D01*
X151175000Y-142894600D02*
X150368000Y-142087600D01*
X146304000Y-135331200D02*
X146304000Y-128676400D01*
X151175000Y-144000000D02*
X151175000Y-142894600D01*
%TO.N,BATT SENSE*%
X135839200Y-144780000D02*
X137718800Y-146659600D01*
X135839200Y-142748000D02*
X135839200Y-144780000D01*
X133350000Y-136804400D02*
X133350000Y-140258800D01*
X133350000Y-140258800D02*
X135839200Y-142748000D01*
D55*
%TO.N,+12V*%
X155124000Y-156381600D02*
X154295600Y-157210000D01*
X151260000Y-157210000D02*
X150100000Y-156050000D01*
X155143200Y-156381600D02*
X155124000Y-156381600D01*
X154295600Y-157210000D02*
X151260000Y-157210000D01*
D54*
%TO.N,+5V*%
X156400000Y-152285200D02*
X156400000Y-153750000D01*
X155346400Y-151231600D02*
X156400000Y-152285200D01*
D53*
%TO.N,GND*%
X154000000Y-112547200D02*
X154000000Y-112775000D01*
X152952800Y-111500000D02*
X154000000Y-112547200D01*
X150925000Y-111500000D02*
X152952800Y-111500000D01*
D54*
%TO.N,VBUS*%
X129850000Y-123296800D02*
X130657600Y-124104400D01*
X130657600Y-124104400D02*
X132537200Y-124104400D01*
X129850000Y-115250000D02*
X129850000Y-123296800D01*
X129865200Y-115265200D02*
X129850000Y-115250000D01*
X131380400Y-114819600D02*
X130934800Y-115265200D01*
X130934800Y-115265200D02*
X129865200Y-115265200D01*
X131064000Y-115136000D02*
X131064000Y-115468400D01*
X131380400Y-114819600D02*
X131064000Y-115136000D01*
D53*
%TO.N,PA1*%
X160041600Y-106781600D02*
X161750000Y-108490000D01*
X152196800Y-108407200D02*
X153822400Y-106781600D01*
X152196800Y-109677200D02*
X152196800Y-108407200D01*
X151874000Y-110000000D02*
X152196800Y-109677200D01*
X150925000Y-110000000D02*
X151874000Y-110000000D01*
X153822400Y-106781600D02*
X160041600Y-106781600D01*
%TO.N,SERVO3*%
X144617288Y-112500000D02*
X139575000Y-112500000D01*
X150133688Y-117469288D02*
X149766400Y-117102000D01*
X149219288Y-117102000D02*
X144617288Y-112500000D01*
X150235288Y-117469288D02*
X150133688Y-117469288D01*
X155295600Y-122529600D02*
X150235288Y-117469288D01*
X156075948Y-122529600D02*
X155295600Y-122529600D01*
X159735500Y-124256800D02*
X157803148Y-124256800D01*
X157803148Y-124256800D02*
X156075948Y-122529600D01*
X149766400Y-117102000D02*
X149219288Y-117102000D01*
D55*
%TO.N,+12V*%
X150100000Y-156050000D02*
X147160000Y-156050000D01*
X147160000Y-156050000D02*
X147127000Y-156083000D01*
D53*
%TO.N,GND*%
X144285000Y-136398000D02*
X144285000Y-135763000D01*
D56*
X152756600Y-112775000D02*
X152755600Y-112776000D01*
X153434000Y-144000000D02*
X153466800Y-143967200D01*
X149148800Y-136480900D02*
X149148800Y-137007600D01*
X144950000Y-151250000D02*
X145777600Y-151250000D01*
D53*
X135250000Y-101415000D02*
X135250000Y-101935200D01*
D54*
X135510000Y-107872800D02*
X135534400Y-107848400D01*
D53*
X134862500Y-115500000D02*
X134029600Y-115500000D01*
D56*
X151225000Y-147450000D02*
X151225000Y-147733000D01*
D53*
X135250000Y-101935200D02*
X135229600Y-101955600D01*
X134029600Y-115500000D02*
X134010400Y-115519200D01*
D54*
X137988000Y-145358700D02*
X137988000Y-144541200D01*
D53*
X147815000Y-99499484D02*
X147815516Y-99500000D01*
X148500000Y-118925000D02*
X148500000Y-118147000D01*
D56*
X155919000Y-114264000D02*
X155919000Y-112944000D01*
X154000000Y-112775000D02*
X152756600Y-112775000D01*
D53*
X148500000Y-108508403D02*
X148660622Y-108669025D01*
D56*
X145777600Y-151250000D02*
X145846800Y-151180800D01*
D53*
X144539000Y-134734000D02*
X144526000Y-134747000D01*
D56*
X151225000Y-147733000D02*
X150926800Y-148031200D01*
D53*
X131000000Y-118249200D02*
X131013200Y-118262400D01*
X148674000Y-100500000D02*
X148437600Y-100736400D01*
X150267000Y-100504500D02*
X150262500Y-100500000D01*
X148500000Y-118147000D02*
X148082000Y-117729000D01*
D56*
X147750000Y-151800000D02*
X147750000Y-150954000D01*
X155919000Y-112944000D02*
X155750000Y-112775000D01*
X147750000Y-150954000D02*
X147777200Y-150926800D01*
D53*
X144539000Y-134112000D02*
X144539000Y-134734000D01*
D54*
X137988000Y-144541200D02*
X137972800Y-144526000D01*
X136042400Y-123111500D02*
X136042400Y-123850400D01*
D53*
X148737500Y-100500000D02*
X148674000Y-100500000D01*
X150672800Y-100504500D02*
X150267000Y-100504500D01*
D57*
X151142200Y-133045200D02*
X151790400Y-133045200D01*
D53*
X150262500Y-100000000D02*
X150262500Y-100500000D01*
D56*
X152825000Y-144000000D02*
X153434000Y-144000000D01*
D53*
X148500000Y-107575000D02*
X148500000Y-108508403D01*
D56*
X145227000Y-156083000D02*
X143633000Y-156083000D01*
D53*
X144539000Y-134112000D02*
X144539000Y-132518000D01*
X147815516Y-99500000D02*
X148737500Y-99500000D01*
D54*
X135510000Y-108425000D02*
X135510000Y-107872800D01*
D53*
X144539000Y-132518000D02*
X144272000Y-132251000D01*
D56*
X155750000Y-112775000D02*
X154000000Y-112775000D01*
X143633000Y-156083000D02*
X143250000Y-155700000D01*
D53*
%TO.N,+3V3*%
X141500000Y-107210000D02*
X141500000Y-107575000D01*
X150495000Y-99060000D02*
X150495000Y-99267500D01*
X150925000Y-117000000D02*
X150925000Y-117092200D01*
X133000000Y-118731800D02*
X133000000Y-119323600D01*
X142989000Y-132264000D02*
X143002000Y-132251000D01*
X135750000Y-101171000D02*
X136184600Y-100736400D01*
X142989000Y-134112000D02*
X142989000Y-132264000D01*
X149000000Y-118208000D02*
X149479000Y-117729000D01*
X136855200Y-100736400D02*
X137250000Y-101131200D01*
X149750000Y-98611200D02*
X149750000Y-99237500D01*
D54*
X139576800Y-153750000D02*
X138582400Y-152755600D01*
X140650000Y-153750000D02*
X139576800Y-153750000D01*
D53*
X142989000Y-134112000D02*
X142989000Y-134734000D01*
X148234400Y-106375200D02*
X148000000Y-106609600D01*
D55*
X138750000Y-83987600D02*
X138734800Y-83972400D01*
D53*
X137250000Y-101131200D02*
X137250000Y-101415000D01*
X150495000Y-99267500D02*
X150262500Y-99500000D01*
X150925000Y-117092200D02*
X151231600Y-117398800D01*
D55*
X138750000Y-84650000D02*
X138750000Y-83987600D01*
D53*
X138874500Y-117411500D02*
X139286000Y-117000000D01*
X138250000Y-99329000D02*
X138040000Y-99539000D01*
D55*
X143174500Y-99809800D02*
X143560800Y-99423500D01*
X143560800Y-99423500D02*
X144016500Y-99423500D01*
D53*
X136184600Y-100736400D02*
X136855200Y-100736400D01*
D56*
X154212500Y-109500000D02*
X154212500Y-108017100D01*
D53*
X136250000Y-99329000D02*
X136250000Y-99085000D01*
X141097000Y-106807000D02*
X141500000Y-107210000D01*
X149809200Y-98552000D02*
X149750000Y-98611200D01*
X149000000Y-118925000D02*
X149000000Y-118208000D01*
X133000000Y-119323600D02*
X132994400Y-119329200D01*
X136460000Y-99539000D02*
X136250000Y-99329000D01*
X142253000Y-136398000D02*
X142761000Y-135890000D01*
X138250000Y-99085000D02*
X138250000Y-99329000D01*
X148000000Y-106609600D02*
X148000000Y-107575000D01*
X135750000Y-101415000D02*
X135750000Y-101171000D01*
D55*
X144016500Y-99423500D02*
X144449800Y-99856800D01*
D56*
X154212500Y-108017100D02*
X154228800Y-108000800D01*
D53*
X142240000Y-136398000D02*
X142253000Y-136398000D01*
X140462000Y-125051000D02*
X140462000Y-124079000D01*
X139286000Y-117000000D02*
X139575000Y-117000000D01*
X142989000Y-134734000D02*
X143002000Y-134747000D01*
X138040000Y-99539000D02*
X136460000Y-99539000D01*
D55*
X142798800Y-99809800D02*
X143174500Y-99809800D01*
D53*
X141732000Y-125051000D02*
X140462000Y-125051000D01*
D55*
%TO.N,+5V*%
X138734800Y-87265200D02*
X138750000Y-87250000D01*
D54*
X156400000Y-153750000D02*
X156400000Y-153047200D01*
D55*
X148187500Y-148332100D02*
X148386800Y-148132800D01*
D54*
X148467600Y-128087600D02*
X148336000Y-128219200D01*
D55*
X148187500Y-149000000D02*
X148187500Y-148332100D01*
D54*
X149361900Y-128087600D02*
X148467600Y-128087600D01*
D55*
X138734800Y-88036400D02*
X138734800Y-87265200D01*
D53*
%TO.N,RESET*%
X152146000Y-113995200D02*
X150929800Y-113995200D01*
X151790400Y-95808800D02*
X151790400Y-96469200D01*
X150929800Y-113995200D02*
X150925000Y-114000000D01*
%TO.N,Net-(U7-VCAP_1)*%
X142000000Y-107575000D02*
X142000000Y-108500621D01*
X142000000Y-108500621D02*
X142181839Y-108682460D01*
%TO.N,Net-(U7-VCAP_2)*%
X140574901Y-116500000D02*
X139575000Y-116500000D01*
X140586404Y-116488497D02*
X140574901Y-116500000D01*
D56*
%TO.N,+3.3VA*%
X155919000Y-115810016D02*
X156894000Y-114835016D01*
D53*
X150925000Y-111000000D02*
X153775000Y-111000000D01*
D56*
X156894000Y-112294000D02*
X155825000Y-111225000D01*
X155825000Y-111225000D02*
X155750000Y-111225000D01*
X155787500Y-109500000D02*
X155787500Y-111187500D01*
X155787500Y-111187500D02*
X155750000Y-111225000D01*
X154469000Y-116114000D02*
X155919000Y-116114000D01*
D53*
X153775000Y-111000000D02*
X154000000Y-111225000D01*
D56*
X156894000Y-114835016D02*
X156894000Y-112294000D01*
X155919000Y-116114000D02*
X155919000Y-115810016D01*
X155750000Y-111225000D02*
X154000000Y-111225000D01*
D54*
%TO.N,VBUS*%
X136025000Y-114201472D02*
X135615528Y-113792000D01*
X137137500Y-115500000D02*
X136576472Y-115500000D01*
X136025000Y-114948528D02*
X136025000Y-114201472D01*
X146312500Y-149000000D02*
X144750000Y-149000000D01*
X144729200Y-148979200D02*
X144750000Y-149000000D01*
X136576472Y-115500000D02*
X136025000Y-114948528D01*
X144729200Y-147269200D02*
X144729200Y-148979200D01*
X132408000Y-113792000D02*
X131380400Y-114819600D01*
X135615528Y-113792000D02*
X132408000Y-113792000D01*
D53*
%TO.N,LED GREEN*%
X147500000Y-122196000D02*
X146700000Y-122996000D01*
X146700000Y-122996000D02*
X146700000Y-123750000D01*
X147500000Y-118925000D02*
X147500000Y-122196000D01*
%TO.N,Net-(D5-A)*%
X147828000Y-123063000D02*
X147800000Y-123091000D01*
X147800000Y-123091000D02*
X147800000Y-123750000D01*
%TO.N,Net-(D3-A)*%
X136042400Y-121236500D02*
X136042400Y-120599200D01*
X136042400Y-120599200D02*
X135991600Y-120548400D01*
D55*
%TO.N,+BATT*%
X132280000Y-132880000D02*
X129000000Y-132880000D01*
X148000000Y-139750000D02*
X142500000Y-139750000D01*
X142000000Y-139250000D02*
X142500000Y-139750000D01*
X138650000Y-139250000D02*
X142000000Y-139250000D01*
%TO.N,Net-(Q1-D)*%
X138938000Y-141354000D02*
X139039600Y-141252400D01*
X138938000Y-143083700D02*
X138938000Y-141354000D01*
%TO.N,+12P*%
X139888000Y-145358700D02*
X139888000Y-144815600D01*
X139888000Y-144815600D02*
X139446000Y-144373600D01*
%TO.N,Net-(F2-Pad2)*%
X136347200Y-148082000D02*
X138544500Y-148082000D01*
X138544500Y-148082000D02*
X139462500Y-149000000D01*
D58*
%TO.N,USB CON D-*%
X133567893Y-114900000D02*
X134512500Y-114900000D01*
X134512500Y-114900000D02*
X134862500Y-114550000D01*
X132114001Y-116118400D02*
X132214001Y-116218400D01*
X131064000Y-116118400D02*
X132114001Y-116118400D01*
X132249493Y-116218400D02*
X133567893Y-114900000D01*
X132214001Y-116218400D02*
X132249493Y-116218400D01*
%TO.N,USB CON D+*%
X132114001Y-116768400D02*
X132214001Y-116668400D01*
X133380497Y-116668400D02*
X133598897Y-116450000D01*
X132214001Y-116668400D02*
X133380497Y-116668400D01*
X133598897Y-116450000D02*
X134862500Y-116450000D01*
X131064000Y-116768400D02*
X132114001Y-116768400D01*
D55*
%TO.N,unconnected-(J1-Shield-Pad6)*%
X128214000Y-113018400D02*
X128214000Y-120518400D01*
%TO.N,BATT PRESWITCH*%
X129000000Y-137960000D02*
X126800000Y-140160000D01*
X140827600Y-142250000D02*
X142500000Y-142250000D01*
X126800000Y-145920000D02*
X129000000Y-148120000D01*
X126800000Y-140160000D02*
X126800000Y-145920000D01*
X148000000Y-142250000D02*
X140827600Y-142250000D01*
X140817600Y-142240000D02*
X140827600Y-142250000D01*
%TO.N,ARM-*%
X128750000Y-103425000D02*
X133750000Y-108425000D01*
X128750000Y-103410000D02*
X128750000Y-103425000D01*
D53*
%TO.N,MOSI*%
X143865600Y-138582400D02*
X143408400Y-138125200D01*
X145316000Y-137132000D02*
X143865600Y-138582400D01*
X145500000Y-118925000D02*
X145500000Y-123823000D01*
X152485000Y-126735000D02*
X146631000Y-126735000D01*
X145316000Y-126095000D02*
X145316000Y-137132000D01*
X145050100Y-124272900D02*
X144272000Y-125051000D01*
X145500000Y-123823000D02*
X145050100Y-124272900D01*
X143408400Y-138125200D02*
X141020800Y-138125200D01*
X146631000Y-126735000D02*
X145050100Y-125154100D01*
X145050100Y-125154100D02*
X145050100Y-124272900D01*
%TO.N,MISO*%
X143629000Y-124203420D02*
X143629000Y-130133420D01*
X144373600Y-120395544D02*
X144373600Y-123458820D01*
X145000000Y-118925000D02*
X145000000Y-119769144D01*
X141732000Y-132030420D02*
X141732000Y-132251000D01*
X144373600Y-123458820D02*
X143629000Y-124203420D01*
X145000000Y-119769144D02*
X144373600Y-120395544D01*
X143629000Y-130133420D02*
X141732000Y-132030420D01*
%TO.N,SCK*%
X141071600Y-130657600D02*
X141935200Y-129794000D01*
X143353807Y-123592607D02*
X143353807Y-123600193D01*
X144500000Y-119627092D02*
X143002000Y-121125092D01*
X141935200Y-126322380D02*
X143002000Y-125255580D01*
X144500000Y-118925000D02*
X144500000Y-119627092D01*
X141935200Y-129794000D02*
X141935200Y-126322380D01*
X143002000Y-121125092D02*
X143002000Y-123952000D01*
X143353807Y-123600193D02*
X143002000Y-123952000D01*
X143002000Y-123952000D02*
X143002000Y-125051000D01*
X143002000Y-125255580D02*
X143002000Y-125051000D01*
%TO.N,CS BRKOUT*%
X144594693Y-116703607D02*
X144458300Y-116840000D01*
X144458300Y-116840000D02*
X143043390Y-116840000D01*
X152485000Y-122919400D02*
X149758400Y-120192800D01*
X141818749Y-117159651D02*
X141500000Y-117478400D01*
X141500000Y-117478400D02*
X141500000Y-118925000D01*
X143043390Y-116840000D02*
X142723739Y-117159651D01*
X142723739Y-117159651D02*
X141818749Y-117159651D01*
X152485000Y-124195000D02*
X152485000Y-122919400D01*
D55*
%TO.N,SPI POWER*%
X149361900Y-129387600D02*
X152372400Y-129387600D01*
X152372400Y-129387600D02*
X152485000Y-129275000D01*
D53*
%TO.N,SDA*%
X141579600Y-106375200D02*
X142002292Y-106375200D01*
X141173200Y-105968800D02*
X141579600Y-106375200D01*
X141833600Y-102209600D02*
X142049000Y-102209600D01*
X141173200Y-102870000D02*
X141173200Y-105968800D01*
X141833600Y-102209600D02*
X141039000Y-101415000D01*
X142002292Y-106375200D02*
X142500000Y-106872908D01*
X142049000Y-102209600D02*
X142798800Y-101459800D01*
X141039000Y-101415000D02*
X138250000Y-101415000D01*
X146143996Y-102057200D02*
X148201196Y-100000000D01*
X141833600Y-102209600D02*
X141173200Y-102870000D01*
X145592800Y-102057200D02*
X146143996Y-102057200D01*
X142500000Y-106872908D02*
X142500000Y-107575000D01*
X148201196Y-100000000D02*
X148737500Y-100000000D01*
%TO.N,SCL*%
X149026984Y-98872984D02*
X146728016Y-98872984D01*
X140944800Y-100732800D02*
X140462000Y-100250000D01*
X144183800Y-100732800D02*
X140944800Y-100732800D01*
X140462000Y-100250000D02*
X140462000Y-94002000D01*
X144526000Y-104114600D02*
X144526000Y-101075000D01*
X149250000Y-99096000D02*
X149026984Y-98872984D01*
X149250000Y-99237500D02*
X149250000Y-99096000D01*
X144526000Y-101075000D02*
X144183800Y-100732800D01*
X143000000Y-105640600D02*
X144526000Y-104114600D01*
X143000000Y-107575000D02*
X143000000Y-105640600D01*
X146728016Y-98872984D02*
X144526000Y-101075000D01*
X140462000Y-94002000D02*
X135000000Y-88540000D01*
X140462000Y-100250000D02*
X138665000Y-100250000D01*
D55*
%TO.N,I2C POWER*%
X138750000Y-85950000D02*
X135050000Y-85950000D01*
X135050000Y-85950000D02*
X135000000Y-86000000D01*
D53*
%TO.N,SERVO4*%
X156362400Y-127660400D02*
X158029000Y-129327000D01*
X154847194Y-123018000D02*
X155512530Y-123018000D01*
X151575997Y-119746803D02*
X154847194Y-123018000D01*
X144231282Y-113000000D02*
X139575000Y-113000000D01*
X155512530Y-123018000D02*
X156362400Y-123867870D01*
X158029000Y-129327000D02*
X162463000Y-129327000D01*
X156362400Y-123867870D02*
X156362400Y-127660400D01*
X144365691Y-113134409D02*
X144231282Y-113000000D01*
X162463000Y-129327000D02*
X163790000Y-128000000D01*
D59*
%TO.N,SERVO POWER*%
X161235000Y-127985000D02*
X161250000Y-128000000D01*
X161235000Y-119210000D02*
X161235000Y-127985000D01*
D53*
%TO.N,SERVO1*%
X162448000Y-117883000D02*
X156248007Y-117883000D01*
X143820800Y-111506000D02*
X143814800Y-111500000D01*
X163775000Y-119210000D02*
X162448000Y-117883000D01*
X156248007Y-117883000D02*
X156151566Y-117979441D01*
X139575000Y-111500000D02*
X143814800Y-111500000D01*
X145846800Y-111506000D02*
X143820800Y-111506000D01*
%TO.N,SERVO2*%
X139575000Y-112000000D02*
X145375600Y-112000000D01*
X156145500Y-121767600D02*
X156145500Y-121957100D01*
X145375600Y-112000000D02*
X145694400Y-112318800D01*
X156145500Y-121957100D02*
X157378400Y-123190000D01*
X157378400Y-123190000D02*
X159258000Y-123190000D01*
X159258000Y-123190000D02*
X159359600Y-123088400D01*
%TO.N,CS SD*%
X143500000Y-119627092D02*
X142680292Y-120446800D01*
X142680292Y-120446800D02*
X142544800Y-120446800D01*
X143500000Y-118925000D02*
X143500000Y-119627092D01*
%TO.N,BOOT0*%
X133502400Y-124968000D02*
X133502400Y-119888000D01*
X133502400Y-119888000D02*
X137972800Y-119888000D01*
X141283000Y-116577800D02*
X141884400Y-115976400D01*
X147000000Y-118222908D02*
X147000000Y-118925000D01*
X144753492Y-115976400D02*
X147000000Y-118222908D01*
X137972800Y-119888000D02*
X140774800Y-117086000D01*
X140915712Y-117086000D02*
X141283000Y-116718712D01*
X140774800Y-117086000D02*
X140915712Y-117086000D01*
X132921623Y-125548777D02*
X133502400Y-124968000D01*
X141283000Y-116718712D02*
X141283000Y-116577800D01*
X141884400Y-115976400D02*
X144753492Y-115976400D01*
%TO.N,BUZZER*%
X149923000Y-106253006D02*
X150059003Y-106117003D01*
X150222908Y-110500000D02*
X149923000Y-110200092D01*
X149923000Y-110200092D02*
X149923000Y-106253006D01*
X150925000Y-110500000D02*
X150222908Y-110500000D01*
%TO.N,P1 EN*%
X149492200Y-133045200D02*
X149492200Y-134525900D01*
X142256662Y-117946574D02*
X142256662Y-117786651D01*
X149492200Y-134525900D02*
X149433700Y-134584400D01*
X148640800Y-133045200D02*
X149492200Y-133045200D01*
X142500000Y-118925000D02*
X142500000Y-118189912D01*
X142500000Y-118189912D02*
X142256662Y-117946574D01*
D56*
%TO.N,Net-(Q2-D)*%
X151708700Y-135534400D02*
X151892000Y-135717700D01*
X151892000Y-135717700D02*
X151892000Y-137925000D01*
%TO.N,P2 EN*%
X151175000Y-145500000D02*
X151225000Y-145550000D01*
D53*
X143345224Y-117751604D02*
X143000000Y-118096828D01*
X143000000Y-118096828D02*
X143000000Y-118925000D01*
D56*
X151175000Y-144000000D02*
X151175000Y-145500000D01*
D54*
%TO.N,Net-(U1-ADJ)*%
X139903200Y-155041600D02*
X139903200Y-155303200D01*
X139903200Y-155303200D02*
X140650000Y-156050000D01*
%TO.N,Net-(U2-ADJ)*%
X150724800Y-150825200D02*
X150100000Y-151450000D01*
X151587200Y-150825200D02*
X150724800Y-150825200D01*
D55*
%TO.N,P1-*%
X151892000Y-139575000D02*
X160265000Y-139575000D01*
X160265000Y-139575000D02*
X161750000Y-138090000D01*
%TO.N,P2-*%
X161000000Y-149000000D02*
X161750000Y-148250000D01*
X153825000Y-149000000D02*
X161000000Y-149000000D01*
D53*
%TO.N,BATT SENSE*%
X140803403Y-117943403D02*
X140835000Y-117975000D01*
X140835000Y-119258712D02*
X140411200Y-119682512D01*
X140835000Y-117975000D02*
X140835000Y-119258712D01*
X140411200Y-119682512D02*
X140411200Y-120704212D01*
X140411200Y-120704212D02*
X135382000Y-125733412D01*
X135382000Y-125733412D02*
X135382000Y-128320800D01*
X149037019Y-113557932D02*
X149094951Y-113500000D01*
X149094951Y-113500000D02*
X150925000Y-113500000D01*
%TO.N,USB D+*%
X138500000Y-115500000D02*
X139575000Y-115500000D01*
X137550000Y-116450000D02*
X138500000Y-115500000D01*
%TO.N,USB D-*%
X137609768Y-114550000D02*
X137789284Y-114370484D01*
X139575000Y-115000000D02*
X138418800Y-115000000D01*
X138418800Y-115000000D02*
X137789284Y-114370484D01*
X137137500Y-114550000D02*
X137609768Y-114550000D01*
%TO.N,ACCEL INT2*%
X139575000Y-109500000D02*
X133350000Y-103275000D01*
X133731400Y-99085000D02*
X135250000Y-99085000D01*
X133350000Y-99466400D02*
X133731400Y-99085000D01*
X133350000Y-103275000D02*
X133350000Y-99466400D01*
%TO.N,ACCEL INT1*%
X133908800Y-102971600D02*
X133908800Y-100228400D01*
X139887492Y-108610400D02*
X139547600Y-108610400D01*
X140577000Y-109299908D02*
X139887492Y-108610400D01*
X139575000Y-110000000D02*
X140277092Y-110000000D01*
X139547600Y-108610400D02*
X133908800Y-102971600D01*
X133930400Y-100250000D02*
X134835000Y-100250000D01*
X140577000Y-109700092D02*
X140577000Y-109299908D01*
X140277092Y-110000000D02*
X140577000Y-109700092D01*
X133908800Y-100228400D02*
X133930400Y-100250000D01*
%TO.N,GYRO INT4*%
X143500000Y-106081223D02*
X143500000Y-107575000D01*
X143626500Y-105954723D02*
X143500000Y-106081223D01*
X136204000Y-102532888D02*
X136204000Y-101441600D01*
X136177400Y-102559488D02*
X136204000Y-102532888D01*
X136006446Y-102868933D02*
X136177400Y-102697979D01*
X136204000Y-101441600D02*
X136230600Y-101415000D01*
X136177400Y-102697979D02*
X136177400Y-102559488D01*
%TO.N,GYRO INT3*%
X144000000Y-106467935D02*
X144000000Y-107575000D01*
X136684600Y-101502400D02*
X136750000Y-101437000D01*
X144768797Y-105675203D02*
X144768797Y-105699138D01*
X136684600Y-102699400D02*
X136684600Y-101502400D01*
X144768797Y-105699138D02*
X144000000Y-106467935D01*
X136804400Y-102819200D02*
X136684600Y-102699400D01*
%TO.N,BARO INT*%
X144500000Y-106872908D02*
X148401308Y-102971600D01*
X148401308Y-102971600D02*
X149199600Y-102971600D01*
X149801981Y-100814481D02*
X149750000Y-100762500D01*
X149801981Y-102369219D02*
X149801981Y-100814481D01*
X144500000Y-107575000D02*
X144500000Y-106872908D01*
X149199600Y-102971600D02*
X149801981Y-102369219D01*
%TO.N,FLASH CS*%
X141917800Y-120187088D02*
X141986000Y-120118888D01*
X141986000Y-118939000D02*
X142000000Y-118925000D01*
X141986000Y-120774712D02*
X141917800Y-120706512D01*
X139598400Y-124053600D02*
X141986000Y-121666000D01*
X139598400Y-131387400D02*
X139598400Y-124053600D01*
X141917800Y-120706512D02*
X141917800Y-120187088D01*
X141986000Y-121666000D02*
X141986000Y-120774712D01*
X141986000Y-120118888D02*
X141986000Y-118939000D01*
X140462000Y-132251000D02*
X139598400Y-131387400D01*
%TO.N,OSCIN*%
X154469000Y-114264000D02*
X153733000Y-115000000D01*
X153733000Y-115000000D02*
X150925000Y-115000000D01*
%TO.N,PA4*%
X147500000Y-106352000D02*
X146703457Y-105555457D01*
X147500000Y-107575000D02*
X147500000Y-106352000D01*
%TO.N,USART2 TX*%
X150925000Y-106834200D02*
X155679200Y-102080000D01*
X150925000Y-109500000D02*
X150925000Y-106834200D01*
X155679200Y-102080000D02*
X155750000Y-102080000D01*
%TO.N,USART2 RX*%
X149000000Y-106290000D02*
X155750000Y-99540000D01*
X149000000Y-107575000D02*
X149000000Y-106290000D01*
%TO.N,PYRO SENSE*%
X146812000Y-110490000D02*
X141478000Y-110490000D01*
X150925000Y-113000000D02*
X149322000Y-113000000D01*
X149322000Y-113000000D02*
X146812000Y-110490000D01*
X141478000Y-110490000D02*
X141325600Y-110337600D01*
D54*
X133750000Y-110075000D02*
X136194800Y-110075000D01*
D53*
%TO.N,PB6*%
X144373600Y-114452400D02*
X142646400Y-114452400D01*
X146000000Y-118925000D02*
X146000000Y-118127700D01*
X142646400Y-114452400D02*
X141884400Y-113690400D01*
X146000000Y-118127700D02*
X145237200Y-117364900D01*
%TD*%
%TA.AperFunction,Conductor*%
%TO.N,+5V*%
G36*
X157550039Y-151530685D02*
G01*
X157595794Y-151583489D01*
X157607000Y-151635000D01*
X157607000Y-151757638D01*
X157587315Y-151824677D01*
X157534511Y-151870432D01*
X157465353Y-151880376D01*
X157401797Y-151851351D01*
X157400346Y-151850000D01*
X156525000Y-151850000D01*
X156525000Y-153751000D01*
X156505315Y-153818039D01*
X156452511Y-153863794D01*
X156401000Y-153875000D01*
X155400000Y-153875000D01*
X155400000Y-155565994D01*
X155380315Y-155633033D01*
X155327511Y-155678788D01*
X155258353Y-155688732D01*
X155253651Y-155687963D01*
X155251203Y-155687514D01*
X155241178Y-155686907D01*
X155227541Y-155686082D01*
X155223834Y-155685745D01*
X155220176Y-155685301D01*
X155185562Y-155681098D01*
X155183506Y-155680974D01*
X155182982Y-155680785D01*
X155181852Y-155680648D01*
X155181883Y-155680388D01*
X155117778Y-155657274D01*
X155075299Y-155601801D01*
X155067000Y-155557201D01*
X155067000Y-154813000D01*
X147523819Y-154813000D01*
X147456780Y-154793315D01*
X147436138Y-154776681D01*
X147050640Y-154391183D01*
X147017155Y-154329860D01*
X147022139Y-154260168D01*
X147064011Y-154204235D01*
X147129475Y-154179818D01*
X147164986Y-154185574D01*
X147165476Y-154183113D01*
X147250371Y-154199999D01*
X147250374Y-154200000D01*
X147625000Y-154200000D01*
X147625000Y-153825000D01*
X147875000Y-153825000D01*
X147875000Y-154200000D01*
X148249626Y-154200000D01*
X148249628Y-154199999D01*
X148322540Y-154185496D01*
X148322544Y-154185494D01*
X148405239Y-154130239D01*
X148460494Y-154047544D01*
X148460496Y-154047540D01*
X148474999Y-153974628D01*
X148475000Y-153974626D01*
X148475000Y-153875000D01*
X149100000Y-153875000D01*
X149100000Y-154500000D01*
X149975000Y-154500000D01*
X149975000Y-153875000D01*
X150225000Y-153875000D01*
X150225000Y-154500000D01*
X151100000Y-154500000D01*
X151100000Y-153875000D01*
X150225000Y-153875000D01*
X149975000Y-153875000D01*
X149100000Y-153875000D01*
X148475000Y-153875000D01*
X148475000Y-153825000D01*
X147875000Y-153825000D01*
X147625000Y-153825000D01*
X147625000Y-153200000D01*
X147875000Y-153200000D01*
X147875000Y-153575000D01*
X148475000Y-153575000D01*
X148475000Y-153425373D01*
X148474999Y-153425371D01*
X148460496Y-153352459D01*
X148460494Y-153352455D01*
X148405239Y-153269760D01*
X148322544Y-153214505D01*
X148322540Y-153214503D01*
X148249627Y-153200000D01*
X147875000Y-153200000D01*
X147625000Y-153200000D01*
X147250373Y-153200000D01*
X147177459Y-153214503D01*
X147177455Y-153214505D01*
X147094760Y-153269760D01*
X147039102Y-153353058D01*
X146985490Y-153397863D01*
X146916165Y-153406570D01*
X146853137Y-153376415D01*
X146816418Y-153316972D01*
X146812000Y-153284167D01*
X146812000Y-152905000D01*
X146831685Y-152837961D01*
X146884489Y-152792206D01*
X146936000Y-152781000D01*
X149019638Y-152781000D01*
X149086677Y-152800685D01*
X149132432Y-152853489D01*
X149142376Y-152922647D01*
X149113351Y-152986203D01*
X149107319Y-152992681D01*
X149100000Y-152999999D01*
X149100000Y-153625000D01*
X151100000Y-153625000D01*
X151100000Y-153000000D01*
X151092681Y-152992681D01*
X151059196Y-152931358D01*
X151064180Y-152861666D01*
X151106052Y-152805733D01*
X151171516Y-152781316D01*
X151180362Y-152781000D01*
X155067000Y-152781000D01*
X155067000Y-151850000D01*
X155400000Y-151850000D01*
X155400000Y-153625000D01*
X156275000Y-153625000D01*
X156275000Y-151850000D01*
X155400000Y-151850000D01*
X155067000Y-151850000D01*
X155067000Y-151635000D01*
X155086685Y-151567961D01*
X155139489Y-151522206D01*
X155191000Y-151511000D01*
X157483000Y-151511000D01*
X157550039Y-151530685D01*
G37*
%TD.AperFunction*%
%TD*%
%TA.AperFunction,Conductor*%
%TO.N,+12V*%
G36*
X142541836Y-148101685D02*
G01*
X142587591Y-148154489D01*
X142597535Y-148223647D01*
X142568510Y-148287203D01*
X142543687Y-148309102D01*
X142455517Y-148368014D01*
X142401642Y-148448645D01*
X142387500Y-148519742D01*
X142387500Y-148875000D01*
X142876000Y-148875000D01*
X142943039Y-148894685D01*
X142988794Y-148947489D01*
X143000000Y-148999000D01*
X143000000Y-149699999D01*
X143142752Y-149699999D01*
X143213856Y-149685856D01*
X143294481Y-149631985D01*
X143298315Y-149628151D01*
X143359637Y-149594664D01*
X143429329Y-149599645D01*
X143485264Y-149641515D01*
X143509684Y-149706978D01*
X143510000Y-149715829D01*
X143510000Y-150410778D01*
X143490315Y-150477817D01*
X143437511Y-150523572D01*
X143368353Y-150533516D01*
X143361811Y-150532396D01*
X143324625Y-150525000D01*
X143175000Y-150525000D01*
X143175000Y-151975000D01*
X143324626Y-151975000D01*
X143361808Y-151967604D01*
X143431400Y-151973831D01*
X143486577Y-152016694D01*
X143509822Y-152082584D01*
X143510000Y-152089221D01*
X143510000Y-152149000D01*
X143490315Y-152216039D01*
X143437511Y-152261794D01*
X143386000Y-152273000D01*
X141774000Y-152273000D01*
X141706961Y-152253315D01*
X141661206Y-152200511D01*
X141650000Y-152149000D01*
X141650000Y-151575000D01*
X140649000Y-151575000D01*
X140581961Y-151555315D01*
X140536206Y-151502511D01*
X140525000Y-151451000D01*
X140525000Y-151375000D01*
X142550000Y-151375000D01*
X142550000Y-151749628D01*
X142564503Y-151822540D01*
X142564505Y-151822544D01*
X142619760Y-151905239D01*
X142702455Y-151960494D01*
X142702459Y-151960496D01*
X142775371Y-151974999D01*
X142775374Y-151975000D01*
X142925000Y-151975000D01*
X142925000Y-151375000D01*
X142550000Y-151375000D01*
X140525000Y-151375000D01*
X140525000Y-150700000D01*
X140775000Y-150700000D01*
X140775000Y-151325000D01*
X141650000Y-151325000D01*
X141650000Y-151125000D01*
X142550000Y-151125000D01*
X142925000Y-151125000D01*
X142925000Y-150525000D01*
X142775373Y-150525000D01*
X142702459Y-150539503D01*
X142702455Y-150539505D01*
X142619760Y-150594760D01*
X142564505Y-150677455D01*
X142564503Y-150677459D01*
X142550000Y-150750371D01*
X142550000Y-151125000D01*
X141650000Y-151125000D01*
X141650000Y-150700000D01*
X140775000Y-150700000D01*
X140525000Y-150700000D01*
X139697000Y-150700000D01*
X139629961Y-150680315D01*
X139584206Y-150627511D01*
X139573000Y-150576000D01*
X139573000Y-149984000D01*
X139592685Y-149916961D01*
X139645489Y-149871206D01*
X139697000Y-149860000D01*
X140335000Y-149860000D01*
X140335000Y-149125000D01*
X140600001Y-149125000D01*
X140600001Y-149277793D01*
X140612692Y-149341603D01*
X140612693Y-149341605D01*
X140661039Y-149413959D01*
X140733398Y-149462307D01*
X140733402Y-149462309D01*
X140797200Y-149474999D01*
X140912499Y-149474999D01*
X140912500Y-149474998D01*
X140912500Y-149125000D01*
X141162500Y-149125000D01*
X141162500Y-149474999D01*
X141277794Y-149474999D01*
X141341603Y-149462307D01*
X141341605Y-149462306D01*
X141413959Y-149413960D01*
X141462307Y-149341601D01*
X141462309Y-149341597D01*
X141475000Y-149277799D01*
X141475000Y-149125000D01*
X142387501Y-149125000D01*
X142387501Y-149480251D01*
X142401643Y-149551356D01*
X142455516Y-149631983D01*
X142536145Y-149685857D01*
X142607242Y-149699999D01*
X142749999Y-149699999D01*
X142750000Y-149699998D01*
X142750000Y-149125000D01*
X142387501Y-149125000D01*
X141475000Y-149125000D01*
X141162500Y-149125000D01*
X140912500Y-149125000D01*
X140600001Y-149125000D01*
X140335000Y-149125000D01*
X140335000Y-148875000D01*
X140600000Y-148875000D01*
X140912500Y-148875000D01*
X140912500Y-148525000D01*
X141162500Y-148525000D01*
X141162500Y-148875000D01*
X141474999Y-148875000D01*
X141474999Y-148722206D01*
X141462307Y-148658396D01*
X141462306Y-148658394D01*
X141413960Y-148586040D01*
X141341601Y-148537692D01*
X141341597Y-148537690D01*
X141277799Y-148525000D01*
X141162500Y-148525000D01*
X140912500Y-148525000D01*
X140797205Y-148525000D01*
X140733396Y-148537692D01*
X140733394Y-148537693D01*
X140661040Y-148586039D01*
X140612692Y-148658398D01*
X140612690Y-148658402D01*
X140600000Y-148722200D01*
X140600000Y-148875000D01*
X140335000Y-148875000D01*
X140335000Y-148206000D01*
X140354685Y-148138961D01*
X140407489Y-148093206D01*
X140459000Y-148082000D01*
X142474797Y-148082000D01*
X142541836Y-148101685D01*
G37*
%TD.AperFunction*%
%TD*%
%TA.AperFunction,Conductor*%
%TO.N,+3V3*%
G36*
X133293039Y-151784685D02*
G01*
X133338794Y-151837489D01*
X133350000Y-151889000D01*
X133350000Y-153625000D01*
X135350000Y-153625000D01*
X135350000Y-153000000D01*
X139650000Y-153000000D01*
X139650000Y-153625000D01*
X140525000Y-153625000D01*
X140525000Y-153000000D01*
X140775000Y-153000000D01*
X140775000Y-153625000D01*
X141650000Y-153625000D01*
X141650000Y-153000000D01*
X140775000Y-153000000D01*
X140525000Y-153000000D01*
X139650000Y-153000000D01*
X135350000Y-153000000D01*
X135350000Y-152778000D01*
X135369685Y-152710961D01*
X135422489Y-152665206D01*
X135474000Y-152654000D01*
X135509000Y-152654000D01*
X143243478Y-152654000D01*
X143310517Y-152673685D01*
X143331159Y-152690319D01*
X143729159Y-153088319D01*
X143762644Y-153149642D01*
X143757660Y-153219334D01*
X143715788Y-153275267D01*
X143650324Y-153299684D01*
X143641478Y-153300000D01*
X143375000Y-153300000D01*
X143375000Y-154300000D01*
X143749626Y-154300000D01*
X143749628Y-154299999D01*
X143822540Y-154285496D01*
X143822544Y-154285494D01*
X143905239Y-154230240D01*
X143917897Y-154211296D01*
X143971509Y-154166491D01*
X144040834Y-154157783D01*
X144103862Y-154187937D01*
X144140581Y-154247379D01*
X144145000Y-154280186D01*
X144145000Y-154435000D01*
X144125315Y-154502039D01*
X144072511Y-154547794D01*
X144021000Y-154559000D01*
X141774000Y-154559000D01*
X141706961Y-154539315D01*
X141661206Y-154486511D01*
X141650000Y-154435000D01*
X141650000Y-153925000D01*
X142525000Y-153925000D01*
X142525000Y-154074628D01*
X142539503Y-154147540D01*
X142539505Y-154147544D01*
X142594760Y-154230239D01*
X142677455Y-154285494D01*
X142677459Y-154285496D01*
X142750371Y-154299999D01*
X142750374Y-154300000D01*
X143125000Y-154300000D01*
X143125000Y-153925000D01*
X142525000Y-153925000D01*
X141650000Y-153925000D01*
X141650000Y-153875000D01*
X139650000Y-153875000D01*
X139650000Y-154435000D01*
X139630315Y-154502039D01*
X139577511Y-154547794D01*
X139526000Y-154559000D01*
X135636000Y-154559000D01*
X135636000Y-155832000D01*
X135616315Y-155899039D01*
X135563511Y-155944794D01*
X135512000Y-155956000D01*
X133220000Y-155956000D01*
X133152961Y-155936315D01*
X133107206Y-155883511D01*
X133096000Y-155832000D01*
X133096000Y-153875000D01*
X133350000Y-153875000D01*
X133350000Y-155650000D01*
X134225000Y-155650000D01*
X134225000Y-153875000D01*
X134475000Y-153875000D01*
X134475000Y-155650000D01*
X135350000Y-155650000D01*
X135350000Y-153875000D01*
X134475000Y-153875000D01*
X134225000Y-153875000D01*
X133350000Y-153875000D01*
X133096000Y-153875000D01*
X133096000Y-153675000D01*
X142525000Y-153675000D01*
X143125000Y-153675000D01*
X143125000Y-153300000D01*
X142750373Y-153300000D01*
X142677459Y-153314503D01*
X142677455Y-153314505D01*
X142594760Y-153369760D01*
X142539505Y-153452455D01*
X142539503Y-153452459D01*
X142525000Y-153525371D01*
X142525000Y-153675000D01*
X133096000Y-153675000D01*
X133096000Y-151889000D01*
X133115685Y-151821961D01*
X133168489Y-151776206D01*
X133220000Y-151765000D01*
X133226000Y-151765000D01*
X133293039Y-151784685D01*
G37*
%TD.AperFunction*%
%TD*%
M02*
