%TF.GenerationSoftware,KiCad,Pcbnew,7.0.5*%
%TF.CreationDate,2023-08-09T18:59:09-07:00*%
%TF.ProjectId,lyra r1,6c797261-2072-4312-9e6b-696361645f70,rev?*%
%TF.SameCoordinates,Original*%
%TF.FileFunction,Copper,L3,Inr*%
%TF.FilePolarity,Positive*%
%FSLAX46Y46*%
G04 Gerber Fmt 4.6, Leading zero omitted, Abs format (unit mm)*
G04 Created by KiCad (PCBNEW 7.0.5) date 2023-08-09 18:59:09*
%MOMM*%
%LPD*%
G01*
G04 APERTURE LIST*
%TA.AperFunction,ComponentPad*%
%ADD10C,5.600000*%
%TD*%
%TA.AperFunction,ComponentPad*%
%ADD11R,1.700000X1.700000*%
%TD*%
%TA.AperFunction,ComponentPad*%
%ADD12O,1.700000X1.700000*%
%TD*%
%TA.AperFunction,ComponentPad*%
%ADD13R,3.000000X3.000000*%
%TD*%
%TA.AperFunction,ComponentPad*%
%ADD14C,3.000000*%
%TD*%
%TA.AperFunction,ViaPad*%
%ADD15C,0.600000*%
%TD*%
%TA.AperFunction,ViaPad*%
%ADD16C,1.000000*%
%TD*%
%TA.AperFunction,ViaPad*%
%ADD17C,1.200000*%
%TD*%
G04 APERTURE END LIST*
D10*
%TO.N,GND*%
%TO.C,H1*%
X128750000Y-86750000D03*
%TD*%
D11*
%TO.N,SERVO3*%
%TO.C,J6*%
X163790000Y-125460000D03*
D12*
%TO.N,SERVO4*%
X163790000Y-128000000D03*
%TO.N,SERVO POWER*%
X161250000Y-125460000D03*
X161250000Y-128000000D03*
%TO.N,GND*%
X158710000Y-125460000D03*
X158710000Y-128000000D03*
%TD*%
D11*
%TO.N,GND*%
%TO.C,J10*%
X127827800Y-128320800D03*
D12*
%TO.N,Net-(J10-Pin_2)*%
X130367800Y-128320800D03*
%TO.N,+3V3*%
X132907800Y-128320800D03*
%TD*%
D13*
%TO.N,ARM-*%
%TO.C,J12*%
X161750000Y-133010000D03*
D14*
%TO.N,P1-*%
X161750000Y-138090000D03*
%TO.N,ARM-*%
X161750000Y-143170000D03*
%TO.N,P2-*%
X161750000Y-148250000D03*
%TD*%
D13*
%TO.N,+3V3*%
%TO.C,J11*%
X161750000Y-93250000D03*
D14*
%TO.N,+5V*%
X161750000Y-98330000D03*
%TO.N,GND*%
X161750000Y-103410000D03*
%TO.N,PA1*%
X161750000Y-108490000D03*
%TD*%
D11*
%TO.N,GND*%
%TO.C,J8*%
X155025000Y-129275000D03*
D12*
%TO.N,SPI POWER*%
X152485000Y-129275000D03*
%TO.N,SCK*%
X155025000Y-126735000D03*
%TO.N,MOSI*%
X152485000Y-126735000D03*
%TO.N,MISO*%
X155025000Y-124195000D03*
%TO.N,CS BRKOUT*%
X152485000Y-124195000D03*
%TD*%
D13*
%TO.N,+12P*%
%TO.C,J5*%
X128750000Y-108490000D03*
D14*
%TO.N,ARM-*%
X128750000Y-103410000D03*
%TO.N,PB6*%
X128750000Y-98330000D03*
%TO.N,PA4*%
X128750000Y-93250000D03*
%TD*%
D11*
%TO.N,GND*%
%TO.C,J4*%
X135000000Y-93620000D03*
D12*
%TO.N,SDA*%
X135000000Y-91080000D03*
%TO.N,SCL*%
X135000000Y-88540000D03*
%TO.N,I2C POWER*%
X135000000Y-86000000D03*
%TD*%
D13*
%TO.N,BATT PRESWITCH*%
%TO.C,J3*%
X129000000Y-148120000D03*
D14*
%TO.N,GND*%
X129000000Y-143040000D03*
%TO.N,BATT PRESWITCH*%
X129000000Y-137960000D03*
%TO.N,+BATT*%
X129000000Y-132880000D03*
%TD*%
D11*
%TO.N,GND*%
%TO.C,J2*%
X155750000Y-104620000D03*
D12*
%TO.N,USART2 TX*%
X155750000Y-102080000D03*
%TO.N,USART2 RX*%
X155750000Y-99540000D03*
%TO.N,UART POWER*%
X155750000Y-97000000D03*
%TD*%
D10*
%TO.N,GND*%
%TO.C,H4*%
X161750000Y-154750000D03*
%TD*%
%TO.N,GND*%
%TO.C,H2*%
X161750000Y-86750000D03*
%TD*%
D11*
%TO.N,SERVO1*%
%TO.C,J7*%
X163775000Y-119210000D03*
D12*
%TO.N,SERVO2*%
X163775000Y-121750000D03*
%TO.N,SERVO POWER*%
X161235000Y-119210000D03*
X161235000Y-121750000D03*
%TO.N,GND*%
X158695000Y-119210000D03*
X158695000Y-121750000D03*
%TD*%
D10*
%TO.N,GND*%
%TO.C,H3*%
X128750000Y-154750000D03*
%TD*%
D15*
%TO.N,GND*%
X152349200Y-94488000D03*
X154432000Y-83921600D03*
D16*
%TO.N,+12P*%
X131572000Y-135534400D03*
D15*
%TO.N,+12V*%
X155143200Y-156381600D03*
X139903200Y-150063200D03*
%TO.N,GND*%
X151790400Y-133045200D03*
X144153145Y-108743021D03*
X144526000Y-134747000D03*
X137972800Y-144526000D03*
X150672800Y-100504500D03*
X148437600Y-100736400D03*
X138328400Y-102158800D03*
X152095200Y-156210000D03*
X153466800Y-143967200D03*
X141478000Y-84328000D03*
D16*
X152755600Y-112776000D03*
D15*
X140462000Y-147421600D03*
X139573000Y-106807000D03*
X134010400Y-115519200D03*
X144285000Y-136398000D03*
X142367000Y-115316000D03*
X140208000Y-118999000D03*
X137718800Y-98399600D03*
D16*
X144373600Y-156083000D03*
D15*
X135534400Y-107848400D03*
X149117900Y-137038500D03*
X136042400Y-123850400D03*
D16*
X147777200Y-150926800D03*
D15*
X148082000Y-117729000D03*
X136194800Y-155244800D03*
X147815000Y-99499484D03*
X155651200Y-138226800D03*
D16*
X145846800Y-151180800D03*
D15*
X150926800Y-148031200D03*
X138303000Y-124714000D03*
X148660622Y-108669025D03*
X131013200Y-118262400D03*
X135229600Y-101955600D03*
%TO.N,+3V3*%
X137210800Y-100685600D03*
X138734800Y-83972400D03*
D16*
X157327600Y-95351600D03*
D15*
X149479000Y-117729000D03*
X149809200Y-98552000D03*
X136245600Y-98399600D03*
X148699502Y-125349000D03*
X137922000Y-154686000D03*
X138582400Y-152755600D03*
X143002000Y-134747000D03*
X138874500Y-117411500D03*
X140462000Y-124079000D03*
X142240000Y-136398000D03*
X137241900Y-122986800D03*
X150495000Y-99060000D03*
D16*
X143560800Y-99423500D03*
D15*
X148234400Y-106375200D03*
X151231600Y-117398800D03*
X149098000Y-101244400D03*
D16*
X154228800Y-108000800D03*
D15*
X150520400Y-131318000D03*
X141097000Y-106807000D03*
X132994400Y-119329200D03*
D16*
%TO.N,+5V*%
X148336000Y-128219200D03*
D15*
X155346400Y-151231600D03*
X148386800Y-148132800D03*
X138734800Y-88036400D03*
%TO.N,RESET*%
X152146000Y-113995200D03*
X151790400Y-96469200D03*
%TO.N,Net-(U7-VCAP_1)*%
X142181839Y-108682460D03*
%TO.N,Net-(U7-VCAP_2)*%
X140586404Y-116488497D03*
%TO.N,VBUS*%
X132537200Y-124104400D03*
X144729200Y-147269200D03*
%TO.N,Net-(D5-A)*%
X147828000Y-123063000D03*
%TO.N,Net-(D3-A)*%
X135991600Y-120548400D03*
D16*
%TO.N,+12P*%
X139446000Y-144373600D03*
D17*
%TO.N,Net-(F2-Pad2)*%
X136347200Y-148082000D03*
%TO.N,BATT PRESWITCH*%
X140817600Y-142240000D03*
X133654800Y-142595600D03*
D15*
%TO.N,MOSI*%
X141020800Y-138125200D03*
%TO.N,MISO*%
X144678400Y-122478800D03*
X142341600Y-131013200D03*
%TO.N,SCK*%
X141071600Y-130657600D03*
X143353807Y-123592607D03*
%TO.N,CS BRKOUT*%
X144594693Y-116703607D03*
X149758400Y-120192800D03*
%TO.N,SDA*%
X145592800Y-102057200D03*
X142403596Y-102108500D03*
%TO.N,SERVO3*%
X159735500Y-124256800D03*
%TO.N,SERVO4*%
X144365691Y-113134409D03*
X151575997Y-119746803D03*
%TO.N,SERVO1*%
X156151566Y-117979441D03*
X145846800Y-111506000D03*
%TO.N,SERVO2*%
X156145500Y-121767600D03*
X159359600Y-123088400D03*
X145694400Y-112318800D03*
%TO.N,CS SD*%
X142544800Y-120446800D03*
%TO.N,BOOT0*%
X132921623Y-125548777D03*
%TO.N,BUZZER*%
X150059003Y-106117003D03*
%TO.N,P1 EN*%
X148640800Y-133045200D03*
X142256662Y-117786651D03*
%TO.N,P2 EN*%
X143345224Y-117751604D03*
X146304000Y-128676400D03*
%TO.N,Net-(U1-ADJ)*%
X139903200Y-155041600D03*
%TO.N,Net-(U2-ADJ)*%
X151587200Y-150825200D03*
%TO.N,BATT SENSE*%
X137718800Y-146659600D03*
X149037019Y-113557932D03*
X135382000Y-128320800D03*
X133350000Y-136804400D03*
X140803403Y-117943403D03*
%TO.N,GYRO INT4*%
X136006446Y-102868933D03*
X143626500Y-105954723D03*
%TO.N,GYRO INT3*%
X144768797Y-105675203D03*
X136804400Y-102819200D03*
%TO.N,PA4*%
X146703457Y-105555457D03*
%TO.N,PYRO SENSE*%
X136194800Y-110075000D03*
X141325600Y-110337600D03*
%TO.N,PB6*%
X141884400Y-113690400D03*
X145237200Y-117364900D03*
X144373600Y-114452400D03*
%TD*%
%TA.AperFunction,Conductor*%
%TO.N,+3V3*%
G36*
X153750950Y-83270185D02*
G01*
X153796705Y-83322989D01*
X153806649Y-83392147D01*
X153788905Y-83440470D01*
X153775400Y-83461965D01*
X153706211Y-83572077D01*
X153646631Y-83742345D01*
X153646630Y-83742350D01*
X153626435Y-83921596D01*
X153626435Y-83921603D01*
X153646630Y-84100849D01*
X153646631Y-84100854D01*
X153706211Y-84271123D01*
X153802184Y-84423862D01*
X153929738Y-84551416D01*
X154082478Y-84647389D01*
X154168596Y-84677523D01*
X154252745Y-84706968D01*
X154252750Y-84706969D01*
X154431996Y-84727165D01*
X154432000Y-84727165D01*
X154432004Y-84727165D01*
X154611249Y-84706969D01*
X154611252Y-84706968D01*
X154611255Y-84706968D01*
X154781522Y-84647389D01*
X154934262Y-84551416D01*
X155061816Y-84423862D01*
X155157789Y-84271122D01*
X155217368Y-84100855D01*
X155227132Y-84014199D01*
X155237565Y-83921603D01*
X155237565Y-83921596D01*
X155217369Y-83742350D01*
X155217368Y-83742345D01*
X155195346Y-83679409D01*
X155157789Y-83572078D01*
X155075094Y-83440470D01*
X155056095Y-83373236D01*
X155076463Y-83306400D01*
X155129730Y-83261186D01*
X155180089Y-83250500D01*
X161154952Y-83250500D01*
X161221991Y-83270185D01*
X161267746Y-83322989D01*
X161277690Y-83392147D01*
X161248665Y-83455703D01*
X161189887Y-83493477D01*
X161181608Y-83495601D01*
X160865726Y-83565131D01*
X160609970Y-83651306D01*
X160526565Y-83679409D01*
X160526562Y-83679410D01*
X160526563Y-83679410D01*
X160526552Y-83679414D01*
X160201755Y-83829680D01*
X160201751Y-83829682D01*
X160048990Y-83921596D01*
X159895081Y-84014200D01*
X159806768Y-84081333D01*
X159610172Y-84230781D01*
X159610163Y-84230789D01*
X159350331Y-84476914D01*
X159118641Y-84749680D01*
X159118634Y-84749690D01*
X158917790Y-85045913D01*
X158917784Y-85045922D01*
X158750151Y-85362111D01*
X158750142Y-85362129D01*
X158617674Y-85694600D01*
X158617672Y-85694607D01*
X158521932Y-86039434D01*
X158521926Y-86039460D01*
X158464029Y-86392614D01*
X158464028Y-86392631D01*
X158444652Y-86749997D01*
X158444652Y-86750002D01*
X158464028Y-87107368D01*
X158464029Y-87107385D01*
X158521926Y-87460539D01*
X158521932Y-87460565D01*
X158617672Y-87805392D01*
X158617674Y-87805399D01*
X158750142Y-88137870D01*
X158750151Y-88137888D01*
X158917784Y-88454077D01*
X158917787Y-88454082D01*
X158917789Y-88454085D01*
X159061617Y-88666216D01*
X159118634Y-88750309D01*
X159118641Y-88750319D01*
X159333827Y-89003655D01*
X159350332Y-89023086D01*
X159610163Y-89269211D01*
X159895081Y-89485800D01*
X160201747Y-89670315D01*
X160201749Y-89670316D01*
X160201751Y-89670317D01*
X160201755Y-89670319D01*
X160455035Y-89787498D01*
X160526565Y-89820591D01*
X160865726Y-89934868D01*
X161215254Y-90011805D01*
X161571052Y-90050500D01*
X161571058Y-90050500D01*
X161928942Y-90050500D01*
X161928948Y-90050500D01*
X162284746Y-90011805D01*
X162634274Y-89934868D01*
X162973435Y-89820591D01*
X163298253Y-89670315D01*
X163604919Y-89485800D01*
X163889837Y-89269211D01*
X164149668Y-89023086D01*
X164381365Y-88750311D01*
X164582211Y-88454085D01*
X164749853Y-88137880D01*
X164882324Y-87805403D01*
X164978071Y-87460552D01*
X164999845Y-87327738D01*
X165003134Y-87307677D01*
X165033405Y-87244705D01*
X165092915Y-87208096D01*
X165162771Y-87209472D01*
X165220794Y-87248397D01*
X165248562Y-87312512D01*
X165249500Y-87327738D01*
X165249500Y-117986501D01*
X165229815Y-118053540D01*
X165177011Y-118099295D01*
X165107853Y-118109239D01*
X165044297Y-118080214D01*
X165026234Y-118060813D01*
X165006175Y-118034019D01*
X164982546Y-118002454D01*
X164982544Y-118002453D01*
X164982544Y-118002452D01*
X164867335Y-117916206D01*
X164867328Y-117916202D01*
X164732482Y-117865908D01*
X164732483Y-117865908D01*
X164672883Y-117859501D01*
X164672881Y-117859500D01*
X164672873Y-117859500D01*
X164672864Y-117859500D01*
X162877129Y-117859500D01*
X162877123Y-117859501D01*
X162817516Y-117865908D01*
X162682671Y-117916202D01*
X162682664Y-117916206D01*
X162567455Y-118002452D01*
X162567452Y-118002455D01*
X162481206Y-118117664D01*
X162481203Y-118117669D01*
X162432189Y-118249083D01*
X162390317Y-118305016D01*
X162324853Y-118329433D01*
X162256580Y-118314581D01*
X162228326Y-118293430D01*
X162106402Y-118171506D01*
X162106395Y-118171501D01*
X162104915Y-118170465D01*
X162067521Y-118144281D01*
X161912834Y-118035967D01*
X161912830Y-118035965D01*
X161912829Y-118035964D01*
X161698663Y-117936097D01*
X161698659Y-117936096D01*
X161698655Y-117936094D01*
X161470413Y-117874938D01*
X161470403Y-117874936D01*
X161235001Y-117854341D01*
X161234999Y-117854341D01*
X160999596Y-117874936D01*
X160999586Y-117874938D01*
X160771344Y-117936094D01*
X160771335Y-117936098D01*
X160557171Y-118035964D01*
X160557169Y-118035965D01*
X160363597Y-118171505D01*
X160196508Y-118338594D01*
X160066574Y-118524160D01*
X160011997Y-118567784D01*
X159942498Y-118574977D01*
X159880144Y-118543455D01*
X159863429Y-118524164D01*
X159733495Y-118338599D01*
X159733493Y-118338596D01*
X159566402Y-118171506D01*
X159566395Y-118171501D01*
X159564915Y-118170465D01*
X159527521Y-118144281D01*
X159372834Y-118035967D01*
X159372830Y-118035965D01*
X159372830Y-118035964D01*
X159158663Y-117936097D01*
X159158659Y-117936096D01*
X159158655Y-117936094D01*
X158930413Y-117874938D01*
X158930403Y-117874936D01*
X158695001Y-117854341D01*
X158694999Y-117854341D01*
X158459596Y-117874936D01*
X158459586Y-117874938D01*
X158231344Y-117936094D01*
X158231335Y-117936098D01*
X158017171Y-118035964D01*
X158017169Y-118035965D01*
X157823597Y-118171505D01*
X157656505Y-118338597D01*
X157520965Y-118532169D01*
X157520964Y-118532171D01*
X157421098Y-118746335D01*
X157421094Y-118746344D01*
X157359938Y-118974586D01*
X157359936Y-118974596D01*
X157339341Y-119209999D01*
X157339341Y-119210000D01*
X157359936Y-119445403D01*
X157359938Y-119445413D01*
X157421094Y-119673655D01*
X157421096Y-119673659D01*
X157421097Y-119673663D01*
X157462770Y-119763030D01*
X157520965Y-119887830D01*
X157520967Y-119887834D01*
X157560672Y-119944538D01*
X157656501Y-120081396D01*
X157656506Y-120081402D01*
X157823597Y-120248493D01*
X157823603Y-120248498D01*
X158009158Y-120378425D01*
X158052783Y-120433002D01*
X158059977Y-120502500D01*
X158028454Y-120564855D01*
X158009158Y-120581575D01*
X157823597Y-120711505D01*
X157656505Y-120878597D01*
X157520965Y-121072169D01*
X157520964Y-121072171D01*
X157421098Y-121286335D01*
X157421094Y-121286344D01*
X157359938Y-121514586D01*
X157359936Y-121514596D01*
X157339341Y-121749999D01*
X157339341Y-121750000D01*
X157359936Y-121985403D01*
X157359938Y-121985413D01*
X157421094Y-122213655D01*
X157421096Y-122213659D01*
X157421097Y-122213663D01*
X157501004Y-122385023D01*
X157520965Y-122427830D01*
X157520967Y-122427834D01*
X157614028Y-122560738D01*
X157656505Y-122621401D01*
X157823599Y-122788495D01*
X157883243Y-122830258D01*
X158017165Y-122924032D01*
X158017167Y-122924033D01*
X158017170Y-122924035D01*
X158231337Y-123023903D01*
X158459592Y-123085063D01*
X158459609Y-123085064D01*
X158464249Y-123085883D01*
X158526854Y-123116906D01*
X158562748Y-123176850D01*
X158565945Y-123194117D01*
X158574230Y-123267649D01*
X158574231Y-123267654D01*
X158574232Y-123267655D01*
X158580079Y-123284365D01*
X158633810Y-123437921D01*
X158683605Y-123517169D01*
X158729784Y-123590662D01*
X158857338Y-123718216D01*
X158952750Y-123778167D01*
X158999040Y-123830500D01*
X159009689Y-123899554D01*
X159003819Y-123924114D01*
X158991404Y-123959596D01*
X158966890Y-124029655D01*
X158965735Y-124032955D01*
X158925014Y-124089731D01*
X158860061Y-124115479D01*
X158837886Y-124115529D01*
X158710002Y-124104341D01*
X158709999Y-124104341D01*
X158474596Y-124124936D01*
X158474586Y-124124938D01*
X158246344Y-124186094D01*
X158246335Y-124186098D01*
X158032171Y-124285964D01*
X158032169Y-124285965D01*
X157838597Y-124421505D01*
X157671505Y-124588597D01*
X157535965Y-124782169D01*
X157535964Y-124782171D01*
X157436098Y-124996335D01*
X157436094Y-124996344D01*
X157374938Y-125224586D01*
X157374936Y-125224596D01*
X157354341Y-125459999D01*
X157354341Y-125460000D01*
X157374936Y-125695403D01*
X157374938Y-125695413D01*
X157436094Y-125923655D01*
X157436096Y-125923659D01*
X157436097Y-125923663D01*
X157514959Y-126092783D01*
X157535965Y-126137830D01*
X157535967Y-126137834D01*
X157631708Y-126274565D01*
X157671501Y-126331396D01*
X157671506Y-126331402D01*
X157838597Y-126498493D01*
X157838603Y-126498498D01*
X158024158Y-126628425D01*
X158067783Y-126683002D01*
X158074977Y-126752500D01*
X158043454Y-126814855D01*
X158024158Y-126831575D01*
X157838597Y-126961505D01*
X157671505Y-127128597D01*
X157535965Y-127322169D01*
X157535964Y-127322171D01*
X157449163Y-127508317D01*
X157436520Y-127535431D01*
X157436098Y-127536335D01*
X157436094Y-127536344D01*
X157374938Y-127764586D01*
X157374936Y-127764596D01*
X157354341Y-127999999D01*
X157354341Y-128000000D01*
X157374936Y-128235403D01*
X157374938Y-128235413D01*
X157436094Y-128463655D01*
X157436096Y-128463659D01*
X157436097Y-128463663D01*
X157501506Y-128603933D01*
X157535965Y-128677830D01*
X157535967Y-128677834D01*
X157636074Y-128820800D01*
X157671505Y-128871401D01*
X157838599Y-129038495D01*
X157862328Y-129055110D01*
X158032165Y-129174032D01*
X158032167Y-129174033D01*
X158032170Y-129174035D01*
X158246337Y-129273903D01*
X158246343Y-129273904D01*
X158246344Y-129273905D01*
X158301285Y-129288626D01*
X158474592Y-129335063D01*
X158662918Y-129351539D01*
X158709999Y-129355659D01*
X158710000Y-129355659D01*
X158710001Y-129355659D01*
X158749234Y-129352226D01*
X158945408Y-129335063D01*
X159173663Y-129273903D01*
X159387830Y-129174035D01*
X159581401Y-129038495D01*
X159748495Y-128871401D01*
X159878424Y-128685842D01*
X159933002Y-128642217D01*
X160002500Y-128635023D01*
X160064855Y-128666546D01*
X160081575Y-128685842D01*
X160211500Y-128871395D01*
X160211505Y-128871401D01*
X160378599Y-129038495D01*
X160402328Y-129055110D01*
X160572165Y-129174032D01*
X160572167Y-129174033D01*
X160572170Y-129174035D01*
X160786337Y-129273903D01*
X160786343Y-129273904D01*
X160786344Y-129273905D01*
X160841285Y-129288626D01*
X161014592Y-129335063D01*
X161202918Y-129351539D01*
X161249999Y-129355659D01*
X161250000Y-129355659D01*
X161250001Y-129355659D01*
X161289234Y-129352226D01*
X161485408Y-129335063D01*
X161713663Y-129273903D01*
X161927830Y-129174035D01*
X162121401Y-129038495D01*
X162288495Y-128871401D01*
X162418424Y-128685842D01*
X162473002Y-128642217D01*
X162542500Y-128635023D01*
X162604855Y-128666546D01*
X162621575Y-128685842D01*
X162751500Y-128871395D01*
X162751505Y-128871401D01*
X162918599Y-129038495D01*
X162942328Y-129055110D01*
X163112165Y-129174032D01*
X163112167Y-129174033D01*
X163112170Y-129174035D01*
X163326337Y-129273903D01*
X163326343Y-129273904D01*
X163326344Y-129273905D01*
X163381285Y-129288626D01*
X163554592Y-129335063D01*
X163742918Y-129351539D01*
X163789999Y-129355659D01*
X163790000Y-129355659D01*
X163790001Y-129355659D01*
X163829234Y-129352226D01*
X164025408Y-129335063D01*
X164253663Y-129273903D01*
X164467830Y-129174035D01*
X164661401Y-129038495D01*
X164828495Y-128871401D01*
X164964035Y-128677830D01*
X165013118Y-128572570D01*
X165059290Y-128520131D01*
X165126483Y-128500979D01*
X165193365Y-128521195D01*
X165238699Y-128574360D01*
X165249500Y-128624975D01*
X165249500Y-154172261D01*
X165229815Y-154239300D01*
X165177011Y-154285055D01*
X165107853Y-154294999D01*
X165044297Y-154265974D01*
X165006523Y-154207196D01*
X165003134Y-154192322D01*
X164978073Y-154039460D01*
X164978072Y-154039459D01*
X164978071Y-154039448D01*
X164882324Y-153694597D01*
X164749853Y-153362120D01*
X164582211Y-153045915D01*
X164381365Y-152749689D01*
X164381361Y-152749684D01*
X164381358Y-152749680D01*
X164149668Y-152476914D01*
X164149667Y-152476913D01*
X163889837Y-152230789D01*
X163889830Y-152230783D01*
X163889827Y-152230781D01*
X163805692Y-152166824D01*
X163604919Y-152014200D01*
X163298253Y-151829685D01*
X163298252Y-151829684D01*
X163298248Y-151829682D01*
X163298244Y-151829680D01*
X162973447Y-151679414D01*
X162973441Y-151679411D01*
X162973435Y-151679409D01*
X162769123Y-151610568D01*
X162634273Y-151565131D01*
X162284744Y-151488194D01*
X161928949Y-151449500D01*
X161928948Y-151449500D01*
X161571052Y-151449500D01*
X161571050Y-151449500D01*
X161215255Y-151488194D01*
X160865726Y-151565131D01*
X160650403Y-151637683D01*
X160526565Y-151679409D01*
X160526562Y-151679410D01*
X160526563Y-151679410D01*
X160526552Y-151679414D01*
X160201755Y-151829680D01*
X160201751Y-151829682D01*
X159973367Y-151967096D01*
X159895081Y-152014200D01*
X159806768Y-152081333D01*
X159610172Y-152230781D01*
X159610163Y-152230789D01*
X159350331Y-152476914D01*
X159118641Y-152749680D01*
X159118634Y-152749690D01*
X158917790Y-153045913D01*
X158917784Y-153045922D01*
X158750151Y-153362111D01*
X158750142Y-153362129D01*
X158617674Y-153694600D01*
X158617672Y-153694607D01*
X158521932Y-154039434D01*
X158521926Y-154039460D01*
X158464029Y-154392614D01*
X158464028Y-154392627D01*
X158464028Y-154392629D01*
X158461501Y-154439235D01*
X158445057Y-154742538D01*
X158444652Y-154750000D01*
X158463464Y-155096976D01*
X158464028Y-155107368D01*
X158464029Y-155107385D01*
X158521926Y-155460539D01*
X158521932Y-155460565D01*
X158617672Y-155805392D01*
X158617674Y-155805399D01*
X158750142Y-156137870D01*
X158750151Y-156137888D01*
X158917784Y-156454077D01*
X158917787Y-156454082D01*
X158917789Y-156454085D01*
X159105625Y-156731123D01*
X159118634Y-156750309D01*
X159118641Y-156750319D01*
X159350331Y-157023085D01*
X159350332Y-157023086D01*
X159610163Y-157269211D01*
X159895081Y-157485800D01*
X160201747Y-157670315D01*
X160201749Y-157670316D01*
X160201751Y-157670317D01*
X160201755Y-157670319D01*
X160526552Y-157820585D01*
X160526565Y-157820591D01*
X160865725Y-157934867D01*
X160865726Y-157934868D01*
X161181608Y-158004399D01*
X161242849Y-158038035D01*
X161276183Y-158099440D01*
X161271027Y-158169119D01*
X161229018Y-158224950D01*
X161163494Y-158249205D01*
X161154952Y-158249500D01*
X129345048Y-158249500D01*
X129278009Y-158229815D01*
X129232254Y-158177011D01*
X129222310Y-158107853D01*
X129251335Y-158044297D01*
X129310113Y-158006523D01*
X129318392Y-158004399D01*
X129378104Y-157991255D01*
X129634274Y-157934868D01*
X129973435Y-157820591D01*
X130298253Y-157670315D01*
X130604919Y-157485800D01*
X130889837Y-157269211D01*
X131149668Y-157023086D01*
X131381365Y-156750311D01*
X131582211Y-156454085D01*
X131749853Y-156137880D01*
X131771719Y-156083000D01*
X143368259Y-156083000D01*
X143387575Y-156279129D01*
X143444788Y-156467733D01*
X143537686Y-156641532D01*
X143537690Y-156641539D01*
X143662716Y-156793883D01*
X143815060Y-156918909D01*
X143815067Y-156918913D01*
X143988866Y-157011811D01*
X143988869Y-157011811D01*
X143988873Y-157011814D01*
X144177468Y-157069024D01*
X144373600Y-157088341D01*
X144569732Y-157069024D01*
X144758327Y-157011814D01*
X144759074Y-157011415D01*
X144845232Y-156965362D01*
X144932138Y-156918910D01*
X145084483Y-156793883D01*
X145209510Y-156641538D01*
X145302414Y-156467727D01*
X145359624Y-156279132D01*
X145366433Y-156210003D01*
X151289635Y-156210003D01*
X151309830Y-156389249D01*
X151309831Y-156389254D01*
X151369411Y-156559523D01*
X151465384Y-156712261D01*
X151465384Y-156712262D01*
X151592938Y-156839816D01*
X151663037Y-156883862D01*
X151718813Y-156918909D01*
X151745678Y-156935789D01*
X151915945Y-156995367D01*
X151915945Y-156995368D01*
X151915950Y-156995369D01*
X152095196Y-157015565D01*
X152095200Y-157015565D01*
X152095204Y-157015565D01*
X152274449Y-156995369D01*
X152274452Y-156995368D01*
X152274455Y-156995368D01*
X152444722Y-156935789D01*
X152597462Y-156839816D01*
X152725016Y-156712262D01*
X152820989Y-156559522D01*
X152880568Y-156389255D01*
X152881430Y-156381603D01*
X154337635Y-156381603D01*
X154357830Y-156560849D01*
X154357831Y-156560854D01*
X154417411Y-156731123D01*
X154429468Y-156750311D01*
X154513384Y-156883862D01*
X154640938Y-157011416D01*
X154793678Y-157107389D01*
X154963944Y-157166968D01*
X154963945Y-157166968D01*
X154963950Y-157166969D01*
X155143196Y-157187165D01*
X155143200Y-157187165D01*
X155143204Y-157187165D01*
X155322449Y-157166969D01*
X155322452Y-157166968D01*
X155322455Y-157166968D01*
X155492722Y-157107389D01*
X155645462Y-157011416D01*
X155773016Y-156883862D01*
X155868989Y-156731122D01*
X155928568Y-156560855D01*
X155928718Y-156559523D01*
X155948765Y-156381603D01*
X155948765Y-156381596D01*
X155928569Y-156202350D01*
X155928568Y-156202345D01*
X155868989Y-156032078D01*
X155868151Y-156030745D01*
X155829782Y-155969680D01*
X155773016Y-155879338D01*
X155645462Y-155751784D01*
X155637947Y-155747062D01*
X155492723Y-155655811D01*
X155322454Y-155596231D01*
X155322449Y-155596230D01*
X155143204Y-155576035D01*
X155143196Y-155576035D01*
X154963950Y-155596230D01*
X154963945Y-155596231D01*
X154793676Y-155655811D01*
X154640937Y-155751784D01*
X154513384Y-155879337D01*
X154417411Y-156032076D01*
X154357831Y-156202345D01*
X154357830Y-156202350D01*
X154337635Y-156381596D01*
X154337635Y-156381603D01*
X152881430Y-156381603D01*
X152900765Y-156210000D01*
X152899903Y-156202350D01*
X152880569Y-156030750D01*
X152880568Y-156030745D01*
X152880366Y-156030168D01*
X152820989Y-155860478D01*
X152725016Y-155707738D01*
X152597462Y-155580184D01*
X152539656Y-155543862D01*
X152444723Y-155484211D01*
X152274454Y-155424631D01*
X152274449Y-155424630D01*
X152095204Y-155404435D01*
X152095196Y-155404435D01*
X151915950Y-155424630D01*
X151915945Y-155424631D01*
X151745676Y-155484211D01*
X151592937Y-155580184D01*
X151465384Y-155707737D01*
X151369411Y-155860476D01*
X151309831Y-156030745D01*
X151309830Y-156030750D01*
X151289635Y-156209996D01*
X151289635Y-156210003D01*
X145366433Y-156210003D01*
X145378941Y-156083000D01*
X145359624Y-155886868D01*
X145302414Y-155698273D01*
X145302411Y-155698269D01*
X145302411Y-155698266D01*
X145209513Y-155524467D01*
X145209509Y-155524460D01*
X145084483Y-155372116D01*
X144932139Y-155247090D01*
X144932132Y-155247086D01*
X144758333Y-155154188D01*
X144758327Y-155154186D01*
X144569732Y-155096976D01*
X144569729Y-155096975D01*
X144373600Y-155077659D01*
X144177470Y-155096975D01*
X143988866Y-155154188D01*
X143815067Y-155247086D01*
X143815060Y-155247090D01*
X143662716Y-155372116D01*
X143537690Y-155524460D01*
X143537686Y-155524467D01*
X143444788Y-155698266D01*
X143387575Y-155886870D01*
X143368259Y-156083000D01*
X131771719Y-156083000D01*
X131882324Y-155805403D01*
X131978071Y-155460552D01*
X132013441Y-155244803D01*
X135389235Y-155244803D01*
X135409430Y-155424049D01*
X135409431Y-155424054D01*
X135469011Y-155594323D01*
X135517452Y-155671416D01*
X135564984Y-155747062D01*
X135692538Y-155874616D01*
X135845278Y-155970589D01*
X136015544Y-156030167D01*
X136015545Y-156030168D01*
X136015550Y-156030169D01*
X136194796Y-156050365D01*
X136194800Y-156050365D01*
X136194804Y-156050365D01*
X136374049Y-156030169D01*
X136374052Y-156030168D01*
X136374055Y-156030168D01*
X136544322Y-155970589D01*
X136697062Y-155874616D01*
X136824616Y-155747062D01*
X136920589Y-155594322D01*
X136980168Y-155424055D01*
X136986020Y-155372116D01*
X137000365Y-155244803D01*
X137000365Y-155244796D01*
X136980169Y-155065550D01*
X136980168Y-155065545D01*
X136971790Y-155041603D01*
X139097635Y-155041603D01*
X139117830Y-155220849D01*
X139117831Y-155220854D01*
X139177411Y-155391123D01*
X139221045Y-155460565D01*
X139273384Y-155543862D01*
X139400938Y-155671416D01*
X139553678Y-155767389D01*
X139662316Y-155805403D01*
X139723945Y-155826968D01*
X139723950Y-155826969D01*
X139903196Y-155847165D01*
X139903200Y-155847165D01*
X139903204Y-155847165D01*
X140082449Y-155826969D01*
X140082452Y-155826968D01*
X140082455Y-155826968D01*
X140252722Y-155767389D01*
X140405462Y-155671416D01*
X140533016Y-155543862D01*
X140628989Y-155391122D01*
X140688568Y-155220855D01*
X140690006Y-155208096D01*
X140708765Y-155041603D01*
X140708765Y-155041596D01*
X140688569Y-154862350D01*
X140688568Y-154862345D01*
X140628988Y-154692076D01*
X140533015Y-154539337D01*
X140405462Y-154411784D01*
X140252723Y-154315811D01*
X140082454Y-154256231D01*
X140082449Y-154256230D01*
X139903204Y-154236035D01*
X139903196Y-154236035D01*
X139723950Y-154256230D01*
X139723945Y-154256231D01*
X139553676Y-154315811D01*
X139400937Y-154411784D01*
X139273384Y-154539337D01*
X139177411Y-154692076D01*
X139117831Y-154862345D01*
X139117830Y-154862350D01*
X139097635Y-155041596D01*
X139097635Y-155041603D01*
X136971790Y-155041603D01*
X136920588Y-154895276D01*
X136829306Y-154750002D01*
X136824616Y-154742538D01*
X136697062Y-154614984D01*
X136697061Y-154614983D01*
X136544323Y-154519011D01*
X136374054Y-154459431D01*
X136374049Y-154459430D01*
X136194804Y-154439235D01*
X136194796Y-154439235D01*
X136015550Y-154459430D01*
X136015545Y-154459431D01*
X135845276Y-154519011D01*
X135692537Y-154614984D01*
X135564984Y-154742537D01*
X135469011Y-154895276D01*
X135409431Y-155065545D01*
X135409430Y-155065550D01*
X135389235Y-155244796D01*
X135389235Y-155244803D01*
X132013441Y-155244803D01*
X132017367Y-155220855D01*
X132035970Y-155107385D01*
X132035970Y-155107382D01*
X132035972Y-155107371D01*
X132055348Y-154750000D01*
X132054943Y-154742538D01*
X132052207Y-154692076D01*
X132035972Y-154392629D01*
X132023378Y-154315811D01*
X131978073Y-154039460D01*
X131978072Y-154039459D01*
X131978071Y-154039448D01*
X131882324Y-153694597D01*
X131749853Y-153362120D01*
X131582211Y-153045915D01*
X131381365Y-152749689D01*
X131381361Y-152749684D01*
X131381358Y-152749680D01*
X131149668Y-152476914D01*
X131149667Y-152476913D01*
X130889837Y-152230789D01*
X130889830Y-152230783D01*
X130889827Y-152230781D01*
X130805692Y-152166824D01*
X130604919Y-152014200D01*
X130298253Y-151829685D01*
X130298252Y-151829684D01*
X130298248Y-151829682D01*
X130298244Y-151829680D01*
X129973447Y-151679414D01*
X129973441Y-151679411D01*
X129973435Y-151679409D01*
X129769123Y-151610568D01*
X129634273Y-151565131D01*
X129284744Y-151488194D01*
X128928949Y-151449500D01*
X128928948Y-151449500D01*
X128571052Y-151449500D01*
X128571050Y-151449500D01*
X128215255Y-151488194D01*
X127865726Y-151565131D01*
X127650403Y-151637683D01*
X127526565Y-151679409D01*
X127526562Y-151679410D01*
X127526563Y-151679410D01*
X127526552Y-151679414D01*
X127201755Y-151829680D01*
X127201751Y-151829682D01*
X126973367Y-151967096D01*
X126895081Y-152014200D01*
X126806768Y-152081333D01*
X126610172Y-152230781D01*
X126610163Y-152230789D01*
X126350331Y-152476914D01*
X126118641Y-152749680D01*
X126118634Y-152749690D01*
X125917790Y-153045913D01*
X125917784Y-153045922D01*
X125750151Y-153362111D01*
X125750142Y-153362129D01*
X125617674Y-153694600D01*
X125617672Y-153694607D01*
X125521932Y-154039434D01*
X125521926Y-154039460D01*
X125496866Y-154192322D01*
X125466595Y-154255294D01*
X125407085Y-154291903D01*
X125337229Y-154290527D01*
X125279206Y-154251602D01*
X125251438Y-154187487D01*
X125250500Y-154172261D01*
X125250500Y-151180800D01*
X144841459Y-151180800D01*
X144860775Y-151376929D01*
X144860776Y-151376932D01*
X144916356Y-151560155D01*
X144917988Y-151565533D01*
X145010886Y-151739332D01*
X145010890Y-151739339D01*
X145135916Y-151891683D01*
X145288260Y-152016709D01*
X145288267Y-152016713D01*
X145462066Y-152109611D01*
X145462069Y-152109611D01*
X145462073Y-152109614D01*
X145650668Y-152166824D01*
X145846800Y-152186141D01*
X146042932Y-152166824D01*
X146231527Y-152109614D01*
X146405338Y-152016710D01*
X146557683Y-151891683D01*
X146682710Y-151739338D01*
X146767278Y-151581123D01*
X146778486Y-151560155D01*
X146780523Y-151561244D01*
X146817872Y-151514843D01*
X146884153Y-151492741D01*
X146951863Y-151509981D01*
X146984503Y-151537994D01*
X147066316Y-151637683D01*
X147218660Y-151762709D01*
X147218667Y-151762713D01*
X147392466Y-151855611D01*
X147392469Y-151855611D01*
X147392473Y-151855614D01*
X147581068Y-151912824D01*
X147777200Y-151932141D01*
X147973332Y-151912824D01*
X148161927Y-151855614D01*
X148335738Y-151762710D01*
X148488083Y-151637683D01*
X148613110Y-151485338D01*
X148706014Y-151311527D01*
X148763224Y-151122932D01*
X148782541Y-150926800D01*
X148772535Y-150825203D01*
X150781635Y-150825203D01*
X150801830Y-151004449D01*
X150801831Y-151004454D01*
X150861411Y-151174723D01*
X150933110Y-151288830D01*
X150957384Y-151327462D01*
X151084938Y-151455016D01*
X151137742Y-151488195D01*
X151216996Y-151537994D01*
X151237678Y-151550989D01*
X151323796Y-151581123D01*
X151407945Y-151610568D01*
X151407950Y-151610569D01*
X151587196Y-151630765D01*
X151587200Y-151630765D01*
X151587204Y-151630765D01*
X151766449Y-151610569D01*
X151766452Y-151610568D01*
X151766455Y-151610568D01*
X151936722Y-151550989D01*
X152089462Y-151455016D01*
X152217016Y-151327462D01*
X152277248Y-151231603D01*
X154540835Y-151231603D01*
X154561030Y-151410849D01*
X154561031Y-151410854D01*
X154620611Y-151581123D01*
X154682372Y-151679414D01*
X154716584Y-151733862D01*
X154844138Y-151861416D01*
X154996878Y-151957389D01*
X155159232Y-152014199D01*
X155167145Y-152016968D01*
X155167150Y-152016969D01*
X155346396Y-152037165D01*
X155346400Y-152037165D01*
X155346404Y-152037165D01*
X155525649Y-152016969D01*
X155525652Y-152016968D01*
X155525655Y-152016968D01*
X155695922Y-151957389D01*
X155848662Y-151861416D01*
X155976216Y-151733862D01*
X156072189Y-151581122D01*
X156131768Y-151410855D01*
X156142959Y-151311533D01*
X156151965Y-151231603D01*
X156151965Y-151231596D01*
X156131769Y-151052350D01*
X156131768Y-151052345D01*
X156131767Y-151052345D01*
X156072189Y-150882078D01*
X155976216Y-150729338D01*
X155848662Y-150601784D01*
X155834364Y-150592800D01*
X155695923Y-150505811D01*
X155525654Y-150446231D01*
X155525649Y-150446230D01*
X155346404Y-150426035D01*
X155346396Y-150426035D01*
X155167150Y-150446230D01*
X155167145Y-150446231D01*
X154996876Y-150505811D01*
X154844137Y-150601784D01*
X154716584Y-150729337D01*
X154620611Y-150882076D01*
X154561031Y-151052345D01*
X154561030Y-151052350D01*
X154540835Y-151231596D01*
X154540835Y-151231603D01*
X152277248Y-151231603D01*
X152312989Y-151174722D01*
X152372568Y-151004455D01*
X152372569Y-151004449D01*
X152392765Y-150825203D01*
X152392765Y-150825196D01*
X152372569Y-150645950D01*
X152372568Y-150645945D01*
X152337722Y-150546362D01*
X152312989Y-150475678D01*
X152309368Y-150469916D01*
X152217015Y-150322937D01*
X152089462Y-150195384D01*
X151936723Y-150099411D01*
X151766454Y-150039831D01*
X151766449Y-150039830D01*
X151587204Y-150019635D01*
X151587196Y-150019635D01*
X151407950Y-150039830D01*
X151407945Y-150039831D01*
X151237676Y-150099411D01*
X151084937Y-150195384D01*
X150957384Y-150322937D01*
X150861411Y-150475676D01*
X150801831Y-150645945D01*
X150801830Y-150645950D01*
X150781635Y-150825196D01*
X150781635Y-150825203D01*
X148772535Y-150825203D01*
X148763224Y-150730668D01*
X148706014Y-150542073D01*
X148706011Y-150542069D01*
X148706011Y-150542066D01*
X148613113Y-150368267D01*
X148613109Y-150368260D01*
X148488083Y-150215916D01*
X148335739Y-150090890D01*
X148335732Y-150090886D01*
X148161933Y-149997988D01*
X148161927Y-149997986D01*
X147973332Y-149940776D01*
X147973329Y-149940775D01*
X147777200Y-149921459D01*
X147581070Y-149940775D01*
X147392466Y-149997988D01*
X147218667Y-150090886D01*
X147218660Y-150090890D01*
X147066316Y-150215916D01*
X146941290Y-150368260D01*
X146941286Y-150368267D01*
X146845514Y-150547445D01*
X146843489Y-150546362D01*
X146806064Y-150592800D01*
X146739769Y-150614861D01*
X146672070Y-150597579D01*
X146639496Y-150569605D01*
X146557683Y-150469916D01*
X146405339Y-150344890D01*
X146405332Y-150344886D01*
X146231533Y-150251988D01*
X146231527Y-150251986D01*
X146105796Y-150213846D01*
X146042929Y-150194775D01*
X145846800Y-150175459D01*
X145650670Y-150194775D01*
X145462066Y-150251988D01*
X145288267Y-150344886D01*
X145288260Y-150344890D01*
X145135916Y-150469916D01*
X145010890Y-150622260D01*
X145010886Y-150622267D01*
X144917988Y-150796066D01*
X144860775Y-150984670D01*
X144841459Y-151180800D01*
X125250500Y-151180800D01*
X125250500Y-149667870D01*
X126999500Y-149667870D01*
X126999501Y-149667876D01*
X127005908Y-149727483D01*
X127056202Y-149862328D01*
X127056206Y-149862335D01*
X127142452Y-149977544D01*
X127142455Y-149977547D01*
X127257664Y-150063793D01*
X127257671Y-150063797D01*
X127392517Y-150114091D01*
X127392516Y-150114091D01*
X127399444Y-150114835D01*
X127452127Y-150120500D01*
X130547872Y-150120499D01*
X130607483Y-150114091D01*
X130742331Y-150063796D01*
X130743123Y-150063203D01*
X139097635Y-150063203D01*
X139117830Y-150242449D01*
X139117831Y-150242454D01*
X139177411Y-150412723D01*
X139216969Y-150475678D01*
X139273384Y-150565462D01*
X139400938Y-150693016D01*
X139553678Y-150788989D01*
X139657152Y-150825196D01*
X139723945Y-150848568D01*
X139723950Y-150848569D01*
X139903196Y-150868765D01*
X139903200Y-150868765D01*
X139903204Y-150868765D01*
X140082449Y-150848569D01*
X140082452Y-150848568D01*
X140082455Y-150848568D01*
X140252722Y-150788989D01*
X140405462Y-150693016D01*
X140533016Y-150565462D01*
X140628989Y-150412722D01*
X140688568Y-150242455D01*
X140691558Y-150215917D01*
X140708765Y-150063203D01*
X140708765Y-150063196D01*
X140688569Y-149883950D01*
X140688568Y-149883945D01*
X140647202Y-149765729D01*
X140628989Y-149713678D01*
X140533016Y-149560938D01*
X140405462Y-149433384D01*
X140405462Y-149433383D01*
X140252723Y-149337411D01*
X140082454Y-149277831D01*
X140082449Y-149277830D01*
X139903204Y-149257635D01*
X139903196Y-149257635D01*
X139723950Y-149277830D01*
X139723945Y-149277831D01*
X139553676Y-149337411D01*
X139400937Y-149433384D01*
X139273384Y-149560937D01*
X139177411Y-149713676D01*
X139117831Y-149883945D01*
X139117830Y-149883950D01*
X139097635Y-150063196D01*
X139097635Y-150063203D01*
X130743123Y-150063203D01*
X130857546Y-149977546D01*
X130943796Y-149862331D01*
X130994091Y-149727483D01*
X131000500Y-149667873D01*
X131000499Y-148082000D01*
X135241985Y-148082000D01*
X135260802Y-148285082D01*
X135316617Y-148481247D01*
X135316622Y-148481260D01*
X135407527Y-148663821D01*
X135530437Y-148826581D01*
X135681158Y-148963980D01*
X135681160Y-148963982D01*
X135780341Y-149025392D01*
X135854563Y-149071348D01*
X136044744Y-149145024D01*
X136245224Y-149182500D01*
X136245226Y-149182500D01*
X136449174Y-149182500D01*
X136449176Y-149182500D01*
X136649656Y-149145024D01*
X136839837Y-149071348D01*
X137013241Y-148963981D01*
X137141322Y-148847219D01*
X137163962Y-148826581D01*
X137171523Y-148816569D01*
X137286873Y-148663821D01*
X137377782Y-148481250D01*
X137433597Y-148285083D01*
X137452415Y-148082000D01*
X137433597Y-147878917D01*
X137377782Y-147682750D01*
X137377248Y-147681678D01*
X137336235Y-147599312D01*
X137323974Y-147530527D01*
X137350847Y-147466032D01*
X137408323Y-147426304D01*
X137478153Y-147423956D01*
X137488190Y-147426999D01*
X137539537Y-147444966D01*
X137539543Y-147444967D01*
X137539545Y-147444968D01*
X137539546Y-147444968D01*
X137539550Y-147444969D01*
X137718796Y-147465165D01*
X137718800Y-147465165D01*
X137718804Y-147465165D01*
X137898049Y-147444969D01*
X137898052Y-147444968D01*
X137898055Y-147444968D01*
X137964828Y-147421603D01*
X139656435Y-147421603D01*
X139676630Y-147600849D01*
X139676631Y-147600854D01*
X139736211Y-147771123D01*
X139816572Y-147899016D01*
X139832184Y-147923862D01*
X139959738Y-148051416D01*
X139996898Y-148074765D01*
X140089264Y-148132803D01*
X140112478Y-148147389D01*
X140282745Y-148206967D01*
X140282745Y-148206968D01*
X140282750Y-148206969D01*
X140461996Y-148227165D01*
X140462000Y-148227165D01*
X140462004Y-148227165D01*
X140641249Y-148206969D01*
X140641252Y-148206968D01*
X140641255Y-148206968D01*
X140811522Y-148147389D01*
X140834735Y-148132803D01*
X147581235Y-148132803D01*
X147601430Y-148312049D01*
X147601431Y-148312054D01*
X147661011Y-148482323D01*
X147756983Y-148635061D01*
X147756984Y-148635062D01*
X147884538Y-148762616D01*
X148037278Y-148858589D01*
X148207544Y-148918168D01*
X148207545Y-148918168D01*
X148207550Y-148918169D01*
X148386796Y-148938365D01*
X148386800Y-148938365D01*
X148386804Y-148938365D01*
X148566049Y-148918169D01*
X148566052Y-148918168D01*
X148566055Y-148918168D01*
X148736322Y-148858589D01*
X148889062Y-148762616D01*
X149016616Y-148635062D01*
X149112589Y-148482322D01*
X149172168Y-148312055D01*
X149181733Y-148227165D01*
X149192365Y-148132803D01*
X149192365Y-148132796D01*
X149180918Y-148031203D01*
X150121235Y-148031203D01*
X150141430Y-148210449D01*
X150141431Y-148210454D01*
X150201011Y-148380723D01*
X150264851Y-148482323D01*
X150296984Y-148533462D01*
X150424538Y-148661016D01*
X150577278Y-148756989D01*
X150743170Y-148815037D01*
X150747545Y-148816568D01*
X150747550Y-148816569D01*
X150926796Y-148836765D01*
X150926800Y-148836765D01*
X150926804Y-148836765D01*
X151106049Y-148816569D01*
X151106052Y-148816568D01*
X151106055Y-148816568D01*
X151276322Y-148756989D01*
X151429062Y-148661016D01*
X151556616Y-148533462D01*
X151652589Y-148380722D01*
X151698330Y-148250001D01*
X159744390Y-148250001D01*
X159764804Y-148535433D01*
X159825628Y-148815037D01*
X159825630Y-148815043D01*
X159825631Y-148815046D01*
X159921227Y-149071348D01*
X159925635Y-149083166D01*
X160062770Y-149334309D01*
X160062775Y-149334317D01*
X160234254Y-149563387D01*
X160234270Y-149563405D01*
X160436594Y-149765729D01*
X160436612Y-149765745D01*
X160665682Y-149937224D01*
X160665690Y-149937229D01*
X160916833Y-150074364D01*
X160916832Y-150074364D01*
X160916836Y-150074365D01*
X160916839Y-150074367D01*
X161184954Y-150174369D01*
X161184960Y-150174370D01*
X161184962Y-150174371D01*
X161464566Y-150235195D01*
X161464568Y-150235195D01*
X161464572Y-150235196D01*
X161718220Y-150253337D01*
X161749999Y-150255610D01*
X161750000Y-150255610D01*
X161750001Y-150255610D01*
X161778595Y-150253564D01*
X162035428Y-150235196D01*
X162124053Y-150215917D01*
X162315037Y-150174371D01*
X162315037Y-150174370D01*
X162315046Y-150174369D01*
X162583161Y-150074367D01*
X162834315Y-149937226D01*
X163063395Y-149765739D01*
X163265739Y-149563395D01*
X163437226Y-149334315D01*
X163574367Y-149083161D01*
X163674369Y-148815046D01*
X163685775Y-148762615D01*
X163735195Y-148535433D01*
X163735195Y-148535432D01*
X163735196Y-148535428D01*
X163755610Y-148250000D01*
X163735196Y-147964572D01*
X163732798Y-147953550D01*
X163674371Y-147684962D01*
X163674370Y-147684960D01*
X163674369Y-147684954D01*
X163574367Y-147416839D01*
X163569000Y-147407011D01*
X163437229Y-147165690D01*
X163437224Y-147165682D01*
X163265745Y-146936612D01*
X163265729Y-146936594D01*
X163063405Y-146734270D01*
X163063387Y-146734254D01*
X162834317Y-146562775D01*
X162834309Y-146562770D01*
X162583166Y-146425635D01*
X162583167Y-146425635D01*
X162454551Y-146377664D01*
X162315046Y-146325631D01*
X162315043Y-146325630D01*
X162315037Y-146325628D01*
X162035433Y-146264804D01*
X161750001Y-146244390D01*
X161749999Y-146244390D01*
X161464566Y-146264804D01*
X161184962Y-146325628D01*
X160916833Y-146425635D01*
X160665690Y-146562770D01*
X160665682Y-146562775D01*
X160436612Y-146734254D01*
X160436594Y-146734270D01*
X160234270Y-146936594D01*
X160234254Y-146936612D01*
X160062775Y-147165682D01*
X160062770Y-147165690D01*
X159925635Y-147416833D01*
X159825628Y-147684962D01*
X159764804Y-147964566D01*
X159744390Y-148249998D01*
X159744390Y-148250001D01*
X151698330Y-148250001D01*
X151712168Y-148210455D01*
X151719274Y-148147388D01*
X151732365Y-148031203D01*
X151732365Y-148031196D01*
X151712169Y-147851950D01*
X151712168Y-147851945D01*
X151652588Y-147681676D01*
X151556615Y-147528937D01*
X151429062Y-147401384D01*
X151276323Y-147305411D01*
X151106054Y-147245831D01*
X151106049Y-147245830D01*
X150926804Y-147225635D01*
X150926796Y-147225635D01*
X150747550Y-147245830D01*
X150747545Y-147245831D01*
X150577276Y-147305411D01*
X150424537Y-147401384D01*
X150296984Y-147528937D01*
X150201011Y-147681676D01*
X150141431Y-147851945D01*
X150141430Y-147851950D01*
X150121235Y-148031196D01*
X150121235Y-148031203D01*
X149180918Y-148031203D01*
X149172169Y-147953550D01*
X149172168Y-147953545D01*
X149153087Y-147899015D01*
X149112589Y-147783278D01*
X149104951Y-147771123D01*
X149016615Y-147630537D01*
X148889062Y-147502984D01*
X148736323Y-147407011D01*
X148566054Y-147347431D01*
X148566049Y-147347430D01*
X148386804Y-147327235D01*
X148386796Y-147327235D01*
X148207550Y-147347430D01*
X148207545Y-147347431D01*
X148037276Y-147407011D01*
X147884537Y-147502984D01*
X147756984Y-147630537D01*
X147661011Y-147783276D01*
X147601431Y-147953545D01*
X147601430Y-147953550D01*
X147581235Y-148132796D01*
X147581235Y-148132803D01*
X140834735Y-148132803D01*
X140964262Y-148051416D01*
X141091816Y-147923862D01*
X141187789Y-147771122D01*
X141247368Y-147600855D01*
X141255471Y-147528937D01*
X141267565Y-147421603D01*
X141267565Y-147421596D01*
X141250395Y-147269203D01*
X143923635Y-147269203D01*
X143943830Y-147448449D01*
X143943831Y-147448454D01*
X144003411Y-147618723D01*
X144045027Y-147684954D01*
X144099384Y-147771462D01*
X144226938Y-147899016D01*
X144379678Y-147994989D01*
X144483152Y-148031196D01*
X144549945Y-148054568D01*
X144549950Y-148054569D01*
X144729196Y-148074765D01*
X144729200Y-148074765D01*
X144729204Y-148074765D01*
X144908449Y-148054569D01*
X144908452Y-148054568D01*
X144908455Y-148054568D01*
X145078722Y-147994989D01*
X145231462Y-147899016D01*
X145359016Y-147771462D01*
X145454989Y-147618722D01*
X145514568Y-147448455D01*
X145514961Y-147444966D01*
X145534765Y-147269203D01*
X145534765Y-147269196D01*
X145514569Y-147089950D01*
X145514568Y-147089945D01*
X145486287Y-147009122D01*
X145454989Y-146919678D01*
X145454775Y-146919338D01*
X145359015Y-146766937D01*
X145231462Y-146639384D01*
X145078723Y-146543411D01*
X144908454Y-146483831D01*
X144908449Y-146483830D01*
X144729204Y-146463635D01*
X144729196Y-146463635D01*
X144549950Y-146483830D01*
X144549945Y-146483831D01*
X144379676Y-146543411D01*
X144226937Y-146639384D01*
X144099384Y-146766937D01*
X144003411Y-146919676D01*
X143943831Y-147089945D01*
X143943830Y-147089950D01*
X143923635Y-147269196D01*
X143923635Y-147269203D01*
X141250395Y-147269203D01*
X141247369Y-147242350D01*
X141247368Y-147242345D01*
X141220545Y-147165690D01*
X141187789Y-147072078D01*
X141091816Y-146919338D01*
X140964262Y-146791784D01*
X140924720Y-146766938D01*
X140811523Y-146695811D01*
X140641254Y-146636231D01*
X140641249Y-146636230D01*
X140462004Y-146616035D01*
X140461996Y-146616035D01*
X140282750Y-146636230D01*
X140282745Y-146636231D01*
X140112476Y-146695811D01*
X139959737Y-146791784D01*
X139832184Y-146919337D01*
X139736211Y-147072076D01*
X139676631Y-147242345D01*
X139676630Y-147242350D01*
X139656435Y-147421596D01*
X139656435Y-147421603D01*
X137964828Y-147421603D01*
X138068322Y-147385389D01*
X138221062Y-147289416D01*
X138348616Y-147161862D01*
X138444589Y-147009122D01*
X138504168Y-146838855D01*
X138524365Y-146659600D01*
X138522087Y-146639384D01*
X138504169Y-146480350D01*
X138504168Y-146480345D01*
X138444588Y-146310076D01*
X138403314Y-146244390D01*
X138348616Y-146157338D01*
X138221062Y-146029784D01*
X138221061Y-146029784D01*
X138068323Y-145933811D01*
X137898054Y-145874231D01*
X137898049Y-145874230D01*
X137718804Y-145854035D01*
X137718796Y-145854035D01*
X137539550Y-145874230D01*
X137539545Y-145874231D01*
X137369276Y-145933811D01*
X137216537Y-146029784D01*
X137088984Y-146157337D01*
X136993011Y-146310076D01*
X136933431Y-146480345D01*
X136933430Y-146480350D01*
X136913235Y-146659596D01*
X136913235Y-146659603D01*
X136933430Y-146838849D01*
X136933431Y-146838854D01*
X136962082Y-146920732D01*
X136965643Y-146990511D01*
X136930914Y-147051139D01*
X136868921Y-147083366D01*
X136800247Y-147077314D01*
X136649660Y-147018977D01*
X136649657Y-147018976D01*
X136649656Y-147018976D01*
X136449176Y-146981500D01*
X136245224Y-146981500D01*
X136044744Y-147018976D01*
X136044741Y-147018976D01*
X136044741Y-147018977D01*
X135854564Y-147092651D01*
X135854557Y-147092655D01*
X135681160Y-147200017D01*
X135681158Y-147200019D01*
X135530437Y-147337418D01*
X135407527Y-147500178D01*
X135316622Y-147682739D01*
X135316617Y-147682752D01*
X135260802Y-147878917D01*
X135241985Y-148081999D01*
X135241985Y-148082000D01*
X131000499Y-148082000D01*
X131000499Y-146572128D01*
X130994091Y-146512517D01*
X130983392Y-146483832D01*
X130943797Y-146377671D01*
X130943793Y-146377664D01*
X130857547Y-146262455D01*
X130857544Y-146262452D01*
X130742335Y-146176206D01*
X130742328Y-146176202D01*
X130607482Y-146125908D01*
X130607483Y-146125908D01*
X130547883Y-146119501D01*
X130547881Y-146119500D01*
X130547873Y-146119500D01*
X130547864Y-146119500D01*
X127452129Y-146119500D01*
X127452123Y-146119501D01*
X127392516Y-146125908D01*
X127257671Y-146176202D01*
X127257664Y-146176206D01*
X127142455Y-146262452D01*
X127142452Y-146262455D01*
X127056206Y-146377664D01*
X127056202Y-146377671D01*
X127005908Y-146512517D01*
X127000505Y-146562775D01*
X126999501Y-146572123D01*
X126999500Y-146572135D01*
X126999500Y-149667870D01*
X125250500Y-149667870D01*
X125250500Y-143040001D01*
X126994390Y-143040001D01*
X127014804Y-143325433D01*
X127075628Y-143605037D01*
X127075630Y-143605043D01*
X127075631Y-143605046D01*
X127175140Y-143871840D01*
X127175635Y-143873166D01*
X127312770Y-144124309D01*
X127312775Y-144124317D01*
X127484254Y-144353387D01*
X127484270Y-144353405D01*
X127686594Y-144555729D01*
X127686612Y-144555745D01*
X127915682Y-144727224D01*
X127915690Y-144727229D01*
X128166833Y-144864364D01*
X128166832Y-144864364D01*
X128166836Y-144864365D01*
X128166839Y-144864367D01*
X128434954Y-144964369D01*
X128434960Y-144964370D01*
X128434962Y-144964371D01*
X128714566Y-145025195D01*
X128714568Y-145025195D01*
X128714572Y-145025196D01*
X128968220Y-145043337D01*
X128999999Y-145045610D01*
X129000000Y-145045610D01*
X129000001Y-145045610D01*
X129028595Y-145043564D01*
X129285428Y-145025196D01*
X129545312Y-144968662D01*
X129565037Y-144964371D01*
X129565037Y-144964370D01*
X129565046Y-144964369D01*
X129833161Y-144864367D01*
X130084315Y-144727226D01*
X130313395Y-144555739D01*
X130343131Y-144526003D01*
X137167235Y-144526003D01*
X137187430Y-144705249D01*
X137187431Y-144705254D01*
X137247011Y-144875523D01*
X137342983Y-145028262D01*
X137342984Y-145028262D01*
X137470538Y-145155816D01*
X137623278Y-145251789D01*
X137767947Y-145302411D01*
X137793545Y-145311368D01*
X137793550Y-145311369D01*
X137972796Y-145331565D01*
X137972800Y-145331565D01*
X137972804Y-145331565D01*
X138152049Y-145311369D01*
X138152052Y-145311368D01*
X138152055Y-145311368D01*
X138322322Y-145251789D01*
X138475062Y-145155816D01*
X138553311Y-145077566D01*
X138614630Y-145044084D01*
X138684322Y-145049068D01*
X138729593Y-145081402D01*
X138730815Y-145080181D01*
X138735117Y-145084484D01*
X138887460Y-145209509D01*
X138887467Y-145209513D01*
X139061266Y-145302411D01*
X139061269Y-145302411D01*
X139061273Y-145302414D01*
X139249868Y-145359624D01*
X139446000Y-145378941D01*
X139642132Y-145359624D01*
X139830727Y-145302414D01*
X140004538Y-145209510D01*
X140156883Y-145084483D01*
X140281910Y-144932138D01*
X140374814Y-144758327D01*
X140432024Y-144569732D01*
X140451341Y-144373600D01*
X140432024Y-144177468D01*
X140374814Y-143988873D01*
X140374811Y-143988869D01*
X140374811Y-143988866D01*
X140363232Y-143967203D01*
X152661235Y-143967203D01*
X152681430Y-144146449D01*
X152681431Y-144146454D01*
X152741011Y-144316723D01*
X152836984Y-144469462D01*
X152964538Y-144597016D01*
X153054880Y-144653781D01*
X153105739Y-144685739D01*
X153117278Y-144692989D01*
X153287545Y-144752567D01*
X153287545Y-144752568D01*
X153287550Y-144752569D01*
X153466796Y-144772765D01*
X153466800Y-144772765D01*
X153466804Y-144772765D01*
X153646049Y-144752569D01*
X153646052Y-144752568D01*
X153646055Y-144752568D01*
X153816322Y-144692989D01*
X153969062Y-144597016D01*
X154096616Y-144469462D01*
X154192589Y-144316722D01*
X154252168Y-144146455D01*
X154252169Y-144146449D01*
X154272365Y-143967203D01*
X154272365Y-143967196D01*
X154252169Y-143787950D01*
X154252168Y-143787945D01*
X154208348Y-143662716D01*
X154192589Y-143617678D01*
X154096616Y-143464938D01*
X153969062Y-143337384D01*
X153950034Y-143325428D01*
X153816323Y-143241411D01*
X153646054Y-143181831D01*
X153646049Y-143181830D01*
X153541058Y-143170001D01*
X159744390Y-143170001D01*
X159764804Y-143455433D01*
X159825628Y-143735037D01*
X159825630Y-143735043D01*
X159825631Y-143735046D01*
X159912219Y-143967196D01*
X159925635Y-144003166D01*
X160062770Y-144254309D01*
X160062775Y-144254317D01*
X160234254Y-144483387D01*
X160234270Y-144483405D01*
X160436594Y-144685729D01*
X160436612Y-144685745D01*
X160665682Y-144857224D01*
X160665690Y-144857229D01*
X160916833Y-144994364D01*
X160916832Y-144994364D01*
X160916836Y-144994365D01*
X160916839Y-144994367D01*
X161184954Y-145094369D01*
X161184960Y-145094370D01*
X161184962Y-145094371D01*
X161464566Y-145155195D01*
X161464568Y-145155195D01*
X161464572Y-145155196D01*
X161718220Y-145173337D01*
X161749999Y-145175610D01*
X161750000Y-145175610D01*
X161750001Y-145175610D01*
X161778595Y-145173564D01*
X162035428Y-145155196D01*
X162315046Y-145094369D01*
X162583161Y-144994367D01*
X162834315Y-144857226D01*
X163063395Y-144685739D01*
X163265739Y-144483395D01*
X163437226Y-144254315D01*
X163574367Y-144003161D01*
X163674369Y-143735046D01*
X163733127Y-143464938D01*
X163735195Y-143455433D01*
X163735195Y-143455432D01*
X163735196Y-143455428D01*
X163755610Y-143170000D01*
X163735196Y-142884572D01*
X163721545Y-142821821D01*
X163674371Y-142604962D01*
X163674370Y-142604960D01*
X163674369Y-142604954D01*
X163574367Y-142336839D01*
X163503381Y-142206839D01*
X163437229Y-142085690D01*
X163437224Y-142085682D01*
X163265745Y-141856612D01*
X163265729Y-141856594D01*
X163063405Y-141654270D01*
X163063387Y-141654254D01*
X162834317Y-141482775D01*
X162834309Y-141482770D01*
X162583166Y-141345635D01*
X162583167Y-141345635D01*
X162475914Y-141305632D01*
X162315046Y-141245631D01*
X162315043Y-141245630D01*
X162315037Y-141245628D01*
X162035433Y-141184804D01*
X161750001Y-141164390D01*
X161749999Y-141164390D01*
X161464566Y-141184804D01*
X161184962Y-141245628D01*
X160916833Y-141345635D01*
X160665690Y-141482770D01*
X160665682Y-141482775D01*
X160436612Y-141654254D01*
X160436594Y-141654270D01*
X160234270Y-141856594D01*
X160234254Y-141856612D01*
X160062775Y-142085682D01*
X160062770Y-142085690D01*
X159925635Y-142336833D01*
X159825628Y-142604962D01*
X159764804Y-142884566D01*
X159744390Y-143169998D01*
X159744390Y-143170001D01*
X153541058Y-143170001D01*
X153466804Y-143161635D01*
X153466796Y-143161635D01*
X153287550Y-143181830D01*
X153287545Y-143181831D01*
X153117276Y-143241411D01*
X152964537Y-143337384D01*
X152836984Y-143464937D01*
X152741011Y-143617676D01*
X152681431Y-143787945D01*
X152681430Y-143787950D01*
X152661235Y-143967196D01*
X152661235Y-143967203D01*
X140363232Y-143967203D01*
X140281913Y-143815067D01*
X140281909Y-143815060D01*
X140156883Y-143662716D01*
X140004539Y-143537690D01*
X140004532Y-143537686D01*
X139830733Y-143444788D01*
X139830727Y-143444786D01*
X139642132Y-143387576D01*
X139642129Y-143387575D01*
X139446000Y-143368259D01*
X139249870Y-143387575D01*
X139061266Y-143444788D01*
X138887467Y-143537686D01*
X138887460Y-143537690D01*
X138735116Y-143662716D01*
X138610090Y-143815060D01*
X138606382Y-143821998D01*
X138557417Y-143871840D01*
X138489278Y-143887297D01*
X138431054Y-143868532D01*
X138322324Y-143800211D01*
X138152054Y-143740631D01*
X138152049Y-143740630D01*
X137972804Y-143720435D01*
X137972796Y-143720435D01*
X137793550Y-143740630D01*
X137793545Y-143740631D01*
X137623276Y-143800211D01*
X137470537Y-143896184D01*
X137342984Y-144023737D01*
X137247011Y-144176476D01*
X137187431Y-144346745D01*
X137187430Y-144346750D01*
X137167235Y-144525996D01*
X137167235Y-144526003D01*
X130343131Y-144526003D01*
X130515739Y-144353395D01*
X130687226Y-144124315D01*
X130824367Y-143873161D01*
X130924369Y-143605046D01*
X130952097Y-143477581D01*
X130985195Y-143325433D01*
X130985195Y-143325432D01*
X130985196Y-143325428D01*
X131005610Y-143040000D01*
X130985196Y-142754572D01*
X130960111Y-142639260D01*
X130950614Y-142595600D01*
X132549585Y-142595600D01*
X132568402Y-142798682D01*
X132624217Y-142994847D01*
X132624222Y-142994860D01*
X132715127Y-143177421D01*
X132838037Y-143340181D01*
X132988758Y-143477580D01*
X132988760Y-143477582D01*
X133085832Y-143537686D01*
X133162163Y-143584948D01*
X133352344Y-143658624D01*
X133552824Y-143696100D01*
X133552826Y-143696100D01*
X133756774Y-143696100D01*
X133756776Y-143696100D01*
X133957256Y-143658624D01*
X134147437Y-143584948D01*
X134320841Y-143477581D01*
X134471564Y-143340179D01*
X134594473Y-143177421D01*
X134685382Y-142994850D01*
X134741197Y-142798683D01*
X134760015Y-142595600D01*
X134748836Y-142474962D01*
X134741197Y-142392517D01*
X134725353Y-142336833D01*
X134697802Y-142240000D01*
X139712385Y-142240000D01*
X139731202Y-142443082D01*
X139787017Y-142639247D01*
X139787022Y-142639260D01*
X139877927Y-142821821D01*
X140000837Y-142984581D01*
X140151558Y-143121980D01*
X140151560Y-143121982D01*
X140229114Y-143170001D01*
X140324963Y-143229348D01*
X140515144Y-143303024D01*
X140715624Y-143340500D01*
X140715626Y-143340500D01*
X140919574Y-143340500D01*
X140919576Y-143340500D01*
X141120056Y-143303024D01*
X141310237Y-143229348D01*
X141483641Y-143121981D01*
X141634364Y-142984579D01*
X141757273Y-142821821D01*
X141848182Y-142639250D01*
X141903997Y-142443083D01*
X141922815Y-142240000D01*
X141903997Y-142036917D01*
X141848182Y-141840750D01*
X141757273Y-141658179D01*
X141634364Y-141495421D01*
X141634362Y-141495418D01*
X141483641Y-141358019D01*
X141483639Y-141358017D01*
X141310242Y-141250655D01*
X141310235Y-141250651D01*
X141215146Y-141213814D01*
X141120056Y-141176976D01*
X140919576Y-141139500D01*
X140715624Y-141139500D01*
X140515144Y-141176976D01*
X140515141Y-141176976D01*
X140515141Y-141176977D01*
X140324964Y-141250651D01*
X140324957Y-141250655D01*
X140151560Y-141358017D01*
X140151558Y-141358019D01*
X140000837Y-141495418D01*
X139877927Y-141658178D01*
X139787022Y-141840739D01*
X139787017Y-141840752D01*
X139731202Y-142036917D01*
X139712385Y-142239999D01*
X139712385Y-142240000D01*
X134697802Y-142240000D01*
X134685382Y-142196350D01*
X134594473Y-142013779D01*
X134471564Y-141851021D01*
X134471562Y-141851018D01*
X134320841Y-141713619D01*
X134320839Y-141713617D01*
X134147442Y-141606255D01*
X134147435Y-141606251D01*
X134052346Y-141569413D01*
X133957256Y-141532576D01*
X133756776Y-141495100D01*
X133552824Y-141495100D01*
X133352344Y-141532576D01*
X133352341Y-141532576D01*
X133352341Y-141532577D01*
X133162164Y-141606251D01*
X133162157Y-141606255D01*
X132988760Y-141713617D01*
X132988758Y-141713619D01*
X132838037Y-141851018D01*
X132715127Y-142013778D01*
X132624222Y-142196339D01*
X132624217Y-142196352D01*
X132568402Y-142392517D01*
X132549585Y-142595599D01*
X132549585Y-142595600D01*
X130950614Y-142595600D01*
X130924371Y-142474962D01*
X130924370Y-142474960D01*
X130924369Y-142474954D01*
X130824367Y-142206839D01*
X130758214Y-142085690D01*
X130687229Y-141955690D01*
X130687224Y-141955682D01*
X130515745Y-141726612D01*
X130515729Y-141726594D01*
X130313405Y-141524270D01*
X130313387Y-141524254D01*
X130084317Y-141352775D01*
X130084309Y-141352770D01*
X129833166Y-141215635D01*
X129833167Y-141215635D01*
X129725915Y-141175632D01*
X129565046Y-141115631D01*
X129565043Y-141115630D01*
X129565037Y-141115628D01*
X129285433Y-141054804D01*
X129000001Y-141034390D01*
X128999999Y-141034390D01*
X128714566Y-141054804D01*
X128434962Y-141115628D01*
X128166833Y-141215635D01*
X127915690Y-141352770D01*
X127915682Y-141352775D01*
X127686612Y-141524254D01*
X127686594Y-141524270D01*
X127484270Y-141726594D01*
X127484254Y-141726612D01*
X127312775Y-141955682D01*
X127312770Y-141955690D01*
X127175635Y-142206833D01*
X127075628Y-142474962D01*
X127014804Y-142754566D01*
X126994390Y-143039998D01*
X126994390Y-143040001D01*
X125250500Y-143040001D01*
X125250500Y-137960001D01*
X126994390Y-137960001D01*
X127014804Y-138245433D01*
X127075628Y-138525037D01*
X127075630Y-138525043D01*
X127075631Y-138525046D01*
X127124119Y-138655046D01*
X127175635Y-138793166D01*
X127312770Y-139044309D01*
X127312775Y-139044317D01*
X127484254Y-139273387D01*
X127484270Y-139273405D01*
X127686594Y-139475729D01*
X127686612Y-139475745D01*
X127915682Y-139647224D01*
X127915690Y-139647229D01*
X128166833Y-139784364D01*
X128166832Y-139784364D01*
X128166836Y-139784365D01*
X128166839Y-139784367D01*
X128434954Y-139884369D01*
X128434960Y-139884370D01*
X128434962Y-139884371D01*
X128714566Y-139945195D01*
X128714568Y-139945195D01*
X128714572Y-139945196D01*
X128968220Y-139963337D01*
X128999999Y-139965610D01*
X129000000Y-139965610D01*
X129000001Y-139965610D01*
X129028595Y-139963564D01*
X129285428Y-139945196D01*
X129565046Y-139884369D01*
X129833161Y-139784367D01*
X130084315Y-139647226D01*
X130313395Y-139475739D01*
X130515739Y-139273395D01*
X130687226Y-139044315D01*
X130824367Y-138793161D01*
X130924369Y-138525046D01*
X130956916Y-138375428D01*
X130985195Y-138245433D01*
X130985195Y-138245432D01*
X130985196Y-138245428D01*
X130993795Y-138125203D01*
X140215235Y-138125203D01*
X140235430Y-138304449D01*
X140235431Y-138304454D01*
X140295011Y-138474723D01*
X140358851Y-138576323D01*
X140390984Y-138627462D01*
X140518538Y-138755016D01*
X140671278Y-138850989D01*
X140841544Y-138910567D01*
X140841545Y-138910568D01*
X140841550Y-138910569D01*
X141020796Y-138930765D01*
X141020800Y-138930765D01*
X141020804Y-138930765D01*
X141200049Y-138910569D01*
X141200052Y-138910568D01*
X141200055Y-138910568D01*
X141370322Y-138850989D01*
X141523062Y-138755016D01*
X141650616Y-138627462D01*
X141746589Y-138474722D01*
X141806168Y-138304455D01*
X141812819Y-138245428D01*
X141814918Y-138226803D01*
X154845635Y-138226803D01*
X154865830Y-138406049D01*
X154865831Y-138406054D01*
X154925411Y-138576323D01*
X155021383Y-138729061D01*
X155021384Y-138729062D01*
X155148938Y-138856616D01*
X155301678Y-138952589D01*
X155471944Y-139012167D01*
X155471945Y-139012168D01*
X155471950Y-139012169D01*
X155651196Y-139032365D01*
X155651200Y-139032365D01*
X155651204Y-139032365D01*
X155830449Y-139012169D01*
X155830452Y-139012168D01*
X155830455Y-139012168D01*
X156000722Y-138952589D01*
X156153462Y-138856616D01*
X156281016Y-138729062D01*
X156376989Y-138576322D01*
X156436568Y-138406055D01*
X156436569Y-138406049D01*
X156456765Y-138226803D01*
X156456765Y-138226796D01*
X156441352Y-138090001D01*
X159744390Y-138090001D01*
X159764804Y-138375433D01*
X159825628Y-138655037D01*
X159825630Y-138655043D01*
X159825631Y-138655046D01*
X159925633Y-138923161D01*
X159925635Y-138923166D01*
X160062770Y-139174309D01*
X160062775Y-139174317D01*
X160234254Y-139403387D01*
X160234270Y-139403405D01*
X160436594Y-139605729D01*
X160436612Y-139605745D01*
X160665682Y-139777224D01*
X160665690Y-139777229D01*
X160916833Y-139914364D01*
X160916832Y-139914364D01*
X160916836Y-139914365D01*
X160916839Y-139914367D01*
X161184954Y-140014369D01*
X161184960Y-140014370D01*
X161184962Y-140014371D01*
X161464566Y-140075195D01*
X161464568Y-140075195D01*
X161464572Y-140075196D01*
X161718220Y-140093337D01*
X161749999Y-140095610D01*
X161750000Y-140095610D01*
X161750001Y-140095610D01*
X161778595Y-140093564D01*
X162035428Y-140075196D01*
X162315046Y-140014369D01*
X162583161Y-139914367D01*
X162834315Y-139777226D01*
X163063395Y-139605739D01*
X163265739Y-139403395D01*
X163437226Y-139174315D01*
X163574367Y-138923161D01*
X163674369Y-138655046D01*
X163735196Y-138375428D01*
X163755610Y-138090000D01*
X163735196Y-137804572D01*
X163706916Y-137674572D01*
X163674371Y-137524962D01*
X163674370Y-137524960D01*
X163674369Y-137524954D01*
X163574367Y-137256839D01*
X163553025Y-137217755D01*
X163437229Y-137005690D01*
X163437224Y-137005682D01*
X163265745Y-136776612D01*
X163265729Y-136776594D01*
X163063405Y-136574270D01*
X163063387Y-136574254D01*
X162834317Y-136402775D01*
X162834309Y-136402770D01*
X162583166Y-136265635D01*
X162583167Y-136265635D01*
X162457450Y-136218745D01*
X162315046Y-136165631D01*
X162315043Y-136165630D01*
X162315037Y-136165628D01*
X162035433Y-136104804D01*
X161750001Y-136084390D01*
X161749999Y-136084390D01*
X161464566Y-136104804D01*
X161184962Y-136165628D01*
X160916833Y-136265635D01*
X160665690Y-136402770D01*
X160665682Y-136402775D01*
X160436612Y-136574254D01*
X160436594Y-136574270D01*
X160234270Y-136776594D01*
X160234254Y-136776612D01*
X160062775Y-137005682D01*
X160062770Y-137005690D01*
X159925635Y-137256833D01*
X159825628Y-137524962D01*
X159764804Y-137804566D01*
X159744390Y-138089998D01*
X159744390Y-138090001D01*
X156441352Y-138090001D01*
X156436569Y-138047550D01*
X156436568Y-138047545D01*
X156401018Y-137945950D01*
X156376989Y-137877278D01*
X156281016Y-137724538D01*
X156153462Y-137596984D01*
X156141978Y-137589768D01*
X156000723Y-137501011D01*
X155830454Y-137441431D01*
X155830449Y-137441430D01*
X155651204Y-137421235D01*
X155651196Y-137421235D01*
X155471950Y-137441430D01*
X155471945Y-137441431D01*
X155301676Y-137501011D01*
X155148937Y-137596984D01*
X155021384Y-137724537D01*
X154925411Y-137877276D01*
X154865831Y-138047545D01*
X154865830Y-138047550D01*
X154845635Y-138226796D01*
X154845635Y-138226803D01*
X141814918Y-138226803D01*
X141826365Y-138125203D01*
X141826365Y-138125196D01*
X141806169Y-137945950D01*
X141806168Y-137945945D01*
X141782140Y-137877276D01*
X141746589Y-137775678D01*
X141650616Y-137622938D01*
X141523062Y-137495384D01*
X141523061Y-137495384D01*
X141370323Y-137399411D01*
X141200054Y-137339831D01*
X141200049Y-137339830D01*
X141020804Y-137319635D01*
X141020796Y-137319635D01*
X140841550Y-137339830D01*
X140841545Y-137339831D01*
X140671276Y-137399411D01*
X140518537Y-137495384D01*
X140390984Y-137622937D01*
X140295011Y-137775676D01*
X140235431Y-137945945D01*
X140235430Y-137945950D01*
X140215235Y-138125196D01*
X140215235Y-138125203D01*
X130993795Y-138125203D01*
X131005610Y-137960000D01*
X130985196Y-137674572D01*
X130966748Y-137589769D01*
X130924371Y-137394962D01*
X130924370Y-137394960D01*
X130924369Y-137394954D01*
X130824367Y-137126839D01*
X130758214Y-137005690D01*
X130687229Y-136875690D01*
X130687224Y-136875682D01*
X130633865Y-136804403D01*
X132544435Y-136804403D01*
X132564630Y-136983649D01*
X132564631Y-136983654D01*
X132624211Y-137153923D01*
X132664316Y-137217749D01*
X132720184Y-137306662D01*
X132847738Y-137434216D01*
X132938080Y-137490982D01*
X132992146Y-137524954D01*
X133000478Y-137530189D01*
X133170745Y-137589767D01*
X133170745Y-137589768D01*
X133170750Y-137589769D01*
X133349996Y-137609965D01*
X133350000Y-137609965D01*
X133350004Y-137609965D01*
X133529249Y-137589769D01*
X133529252Y-137589768D01*
X133529255Y-137589768D01*
X133699522Y-137530189D01*
X133852262Y-137434216D01*
X133979816Y-137306662D01*
X134075789Y-137153922D01*
X134135368Y-136983655D01*
X134147533Y-136875690D01*
X134155565Y-136804403D01*
X134155565Y-136804396D01*
X134135369Y-136625150D01*
X134135368Y-136625145D01*
X134135368Y-136625144D01*
X134075789Y-136454878D01*
X134069113Y-136444254D01*
X134040052Y-136398003D01*
X143479435Y-136398003D01*
X143499630Y-136577249D01*
X143499631Y-136577254D01*
X143559211Y-136747523D01*
X143629411Y-136859245D01*
X143655184Y-136900262D01*
X143782738Y-137027816D01*
X143935478Y-137123789D01*
X144021596Y-137153923D01*
X144105745Y-137183368D01*
X144105750Y-137183369D01*
X144284996Y-137203565D01*
X144285000Y-137203565D01*
X144285004Y-137203565D01*
X144464249Y-137183369D01*
X144464252Y-137183368D01*
X144464255Y-137183368D01*
X144634522Y-137123789D01*
X144770254Y-137038503D01*
X148312335Y-137038503D01*
X148332530Y-137217749D01*
X148332531Y-137217754D01*
X148392111Y-137388023D01*
X148488084Y-137540762D01*
X148615638Y-137668316D01*
X148768378Y-137764289D01*
X148883483Y-137804566D01*
X148938645Y-137823868D01*
X148938650Y-137823869D01*
X149117896Y-137844065D01*
X149117900Y-137844065D01*
X149117904Y-137844065D01*
X149297149Y-137823869D01*
X149297152Y-137823868D01*
X149297155Y-137823868D01*
X149467422Y-137764289D01*
X149620162Y-137668316D01*
X149747716Y-137540762D01*
X149843689Y-137388022D01*
X149903268Y-137217755D01*
X149904867Y-137203565D01*
X149923465Y-137038503D01*
X149923465Y-137038496D01*
X149903269Y-136859250D01*
X149903268Y-136859245D01*
X149884077Y-136804400D01*
X149843689Y-136688978D01*
X149747716Y-136536238D01*
X149620162Y-136408684D01*
X149559095Y-136370313D01*
X149467423Y-136312711D01*
X149297154Y-136253131D01*
X149297149Y-136253130D01*
X149117904Y-136232935D01*
X149117896Y-136232935D01*
X148938650Y-136253130D01*
X148938645Y-136253131D01*
X148768376Y-136312711D01*
X148615637Y-136408684D01*
X148488084Y-136536237D01*
X148392111Y-136688976D01*
X148332531Y-136859245D01*
X148332530Y-136859250D01*
X148312335Y-137038496D01*
X148312335Y-137038503D01*
X144770254Y-137038503D01*
X144787262Y-137027816D01*
X144914816Y-136900262D01*
X145010789Y-136747522D01*
X145070368Y-136577255D01*
X145070369Y-136577249D01*
X145090565Y-136398003D01*
X145090565Y-136397996D01*
X145070369Y-136218750D01*
X145070368Y-136218745D01*
X145051783Y-136165631D01*
X145010789Y-136048478D01*
X144914816Y-135895738D01*
X144787262Y-135768184D01*
X144734891Y-135735277D01*
X144688602Y-135682945D01*
X144677953Y-135613891D01*
X144706328Y-135550043D01*
X144759911Y-135513243D01*
X144875522Y-135472789D01*
X145028262Y-135376816D01*
X145155816Y-135249262D01*
X145251789Y-135096522D01*
X145311368Y-134926255D01*
X145330964Y-134752335D01*
X145331565Y-134747003D01*
X145331565Y-134746996D01*
X145311369Y-134567750D01*
X145311368Y-134567745D01*
X145307913Y-134557870D01*
X159749500Y-134557870D01*
X159749501Y-134557876D01*
X159755908Y-134617483D01*
X159806202Y-134752328D01*
X159806206Y-134752335D01*
X159892452Y-134867544D01*
X159892455Y-134867547D01*
X160007664Y-134953793D01*
X160007671Y-134953797D01*
X160142517Y-135004091D01*
X160142516Y-135004091D01*
X160149444Y-135004835D01*
X160202127Y-135010500D01*
X163297872Y-135010499D01*
X163357483Y-135004091D01*
X163492331Y-134953796D01*
X163607546Y-134867546D01*
X163693796Y-134752331D01*
X163744091Y-134617483D01*
X163750500Y-134557873D01*
X163750499Y-131462128D01*
X163744091Y-131402517D01*
X163736956Y-131383388D01*
X163693797Y-131267671D01*
X163693793Y-131267664D01*
X163607547Y-131152455D01*
X163607544Y-131152452D01*
X163492335Y-131066206D01*
X163492328Y-131066202D01*
X163357482Y-131015908D01*
X163357483Y-131015908D01*
X163297883Y-131009501D01*
X163297881Y-131009500D01*
X163297873Y-131009500D01*
X163297864Y-131009500D01*
X160202129Y-131009500D01*
X160202123Y-131009501D01*
X160142516Y-131015908D01*
X160007671Y-131066202D01*
X160007664Y-131066206D01*
X159892455Y-131152452D01*
X159892452Y-131152455D01*
X159806206Y-131267664D01*
X159806202Y-131267671D01*
X159755908Y-131402517D01*
X159749501Y-131462116D01*
X159749501Y-131462123D01*
X159749500Y-131462135D01*
X159749500Y-134557870D01*
X145307913Y-134557870D01*
X145251788Y-134397476D01*
X145155815Y-134244737D01*
X145028262Y-134117184D01*
X144875523Y-134021211D01*
X144705254Y-133961631D01*
X144705249Y-133961630D01*
X144526004Y-133941435D01*
X144525996Y-133941435D01*
X144346750Y-133961630D01*
X144346745Y-133961631D01*
X144176476Y-134021211D01*
X144023737Y-134117184D01*
X143896184Y-134244737D01*
X143800211Y-134397476D01*
X143740631Y-134567745D01*
X143740630Y-134567750D01*
X143720435Y-134746996D01*
X143720435Y-134747003D01*
X143740630Y-134926249D01*
X143740631Y-134926254D01*
X143800211Y-135096523D01*
X143833608Y-135149673D01*
X143896184Y-135249262D01*
X144023738Y-135376816D01*
X144076105Y-135409720D01*
X144122397Y-135462054D01*
X144133046Y-135531107D01*
X144104671Y-135594956D01*
X144051089Y-135631755D01*
X143935480Y-135672208D01*
X143782737Y-135768184D01*
X143655184Y-135895737D01*
X143559211Y-136048476D01*
X143499631Y-136218745D01*
X143499630Y-136218750D01*
X143479435Y-136397996D01*
X143479435Y-136398003D01*
X134040052Y-136398003D01*
X133979815Y-136302137D01*
X133852262Y-136174584D01*
X133699523Y-136078611D01*
X133529254Y-136019031D01*
X133529249Y-136019030D01*
X133350004Y-135998835D01*
X133349996Y-135998835D01*
X133170750Y-136019030D01*
X133170745Y-136019031D01*
X133000476Y-136078611D01*
X132847737Y-136174584D01*
X132720184Y-136302137D01*
X132624211Y-136454876D01*
X132564631Y-136625145D01*
X132564630Y-136625150D01*
X132544435Y-136804396D01*
X132544435Y-136804403D01*
X130633865Y-136804403D01*
X130515745Y-136646612D01*
X130515729Y-136646594D01*
X130313405Y-136444270D01*
X130313387Y-136444254D01*
X130084317Y-136272775D01*
X130084309Y-136272770D01*
X129833166Y-136135635D01*
X129833167Y-136135635D01*
X129718692Y-136092938D01*
X129565046Y-136035631D01*
X129565043Y-136035630D01*
X129565037Y-136035628D01*
X129285433Y-135974804D01*
X129000001Y-135954390D01*
X128999999Y-135954390D01*
X128714566Y-135974804D01*
X128434962Y-136035628D01*
X128166833Y-136135635D01*
X127915690Y-136272770D01*
X127915682Y-136272775D01*
X127686612Y-136444254D01*
X127686594Y-136444270D01*
X127484270Y-136646594D01*
X127484254Y-136646612D01*
X127312775Y-136875682D01*
X127312770Y-136875690D01*
X127175635Y-137126833D01*
X127075628Y-137394962D01*
X127014804Y-137674566D01*
X126994390Y-137959998D01*
X126994390Y-137960001D01*
X125250500Y-137960001D01*
X125250500Y-135534400D01*
X130566659Y-135534400D01*
X130585975Y-135730529D01*
X130643188Y-135919133D01*
X130736086Y-136092932D01*
X130736090Y-136092939D01*
X130861116Y-136245283D01*
X131013460Y-136370309D01*
X131013467Y-136370313D01*
X131187266Y-136463211D01*
X131187269Y-136463211D01*
X131187273Y-136463214D01*
X131375868Y-136520424D01*
X131572000Y-136539741D01*
X131768132Y-136520424D01*
X131956727Y-136463214D01*
X131972327Y-136454876D01*
X132130532Y-136370313D01*
X132130538Y-136370310D01*
X132282883Y-136245283D01*
X132407910Y-136092938D01*
X132500814Y-135919127D01*
X132558024Y-135730532D01*
X132577341Y-135534400D01*
X132558024Y-135338268D01*
X132500814Y-135149673D01*
X132500811Y-135149669D01*
X132500811Y-135149666D01*
X132407913Y-134975867D01*
X132407909Y-134975860D01*
X132282883Y-134823516D01*
X132130539Y-134698490D01*
X132130532Y-134698486D01*
X131956733Y-134605588D01*
X131956727Y-134605586D01*
X131768132Y-134548376D01*
X131768129Y-134548375D01*
X131572000Y-134529059D01*
X131375870Y-134548375D01*
X131187266Y-134605588D01*
X131013467Y-134698486D01*
X131013460Y-134698490D01*
X130861116Y-134823516D01*
X130736090Y-134975860D01*
X130736086Y-134975867D01*
X130643188Y-135149666D01*
X130585975Y-135338270D01*
X130566659Y-135534400D01*
X125250500Y-135534400D01*
X125250500Y-132880001D01*
X126994390Y-132880001D01*
X127014804Y-133165433D01*
X127075628Y-133445037D01*
X127075630Y-133445043D01*
X127075631Y-133445046D01*
X127161405Y-133675015D01*
X127175635Y-133713166D01*
X127312770Y-133964309D01*
X127312775Y-133964317D01*
X127484254Y-134193387D01*
X127484270Y-134193405D01*
X127686594Y-134395729D01*
X127686612Y-134395745D01*
X127915682Y-134567224D01*
X127915690Y-134567229D01*
X128166833Y-134704364D01*
X128166832Y-134704364D01*
X128166836Y-134704365D01*
X128166839Y-134704367D01*
X128434954Y-134804369D01*
X128434960Y-134804370D01*
X128434962Y-134804371D01*
X128714566Y-134865195D01*
X128714568Y-134865195D01*
X128714572Y-134865196D01*
X128968220Y-134883337D01*
X128999999Y-134885610D01*
X129000000Y-134885610D01*
X129000001Y-134885610D01*
X129028595Y-134883564D01*
X129285428Y-134865196D01*
X129477029Y-134823516D01*
X129565037Y-134804371D01*
X129565037Y-134804370D01*
X129565046Y-134804369D01*
X129833161Y-134704367D01*
X130084315Y-134567226D01*
X130313395Y-134395739D01*
X130515739Y-134193395D01*
X130687226Y-133964315D01*
X130824367Y-133713161D01*
X130924369Y-133445046D01*
X130935316Y-133394722D01*
X130985195Y-133165433D01*
X130985195Y-133165432D01*
X130985196Y-133165428D01*
X130993795Y-133045203D01*
X147835235Y-133045203D01*
X147855430Y-133224449D01*
X147855431Y-133224454D01*
X147915011Y-133394723D01*
X148010983Y-133547461D01*
X148010984Y-133547462D01*
X148138538Y-133675016D01*
X148291278Y-133770989D01*
X148461545Y-133830567D01*
X148461545Y-133830568D01*
X148461550Y-133830569D01*
X148640796Y-133850765D01*
X148640800Y-133850765D01*
X148640804Y-133850765D01*
X148820049Y-133830569D01*
X148820052Y-133830568D01*
X148820055Y-133830568D01*
X148990322Y-133770989D01*
X149143062Y-133675016D01*
X149270616Y-133547462D01*
X149366589Y-133394722D01*
X149426168Y-133224455D01*
X149446365Y-133045203D01*
X150984835Y-133045203D01*
X151005030Y-133224449D01*
X151005031Y-133224454D01*
X151064611Y-133394723D01*
X151160584Y-133547461D01*
X151160584Y-133547462D01*
X151288138Y-133675016D01*
X151440878Y-133770989D01*
X151611145Y-133830567D01*
X151611145Y-133830568D01*
X151611150Y-133830569D01*
X151790396Y-133850765D01*
X151790400Y-133850765D01*
X151790404Y-133850765D01*
X151969649Y-133830569D01*
X151969652Y-133830568D01*
X151969655Y-133830568D01*
X152139922Y-133770989D01*
X152292662Y-133675016D01*
X152420216Y-133547462D01*
X152516189Y-133394722D01*
X152575768Y-133224455D01*
X152595965Y-133045200D01*
X152577351Y-132879998D01*
X152575769Y-132865950D01*
X152575768Y-132865945D01*
X152516188Y-132695676D01*
X152420215Y-132542937D01*
X152292662Y-132415384D01*
X152139923Y-132319411D01*
X151969654Y-132259831D01*
X151969649Y-132259830D01*
X151790404Y-132239635D01*
X151790396Y-132239635D01*
X151611150Y-132259830D01*
X151611145Y-132259831D01*
X151440876Y-132319411D01*
X151288137Y-132415384D01*
X151160584Y-132542937D01*
X151064611Y-132695676D01*
X151005031Y-132865945D01*
X151005030Y-132865950D01*
X150984835Y-133045196D01*
X150984835Y-133045203D01*
X149446365Y-133045203D01*
X149446365Y-133045200D01*
X149427751Y-132879998D01*
X149426169Y-132865950D01*
X149426168Y-132865945D01*
X149366588Y-132695676D01*
X149270615Y-132542937D01*
X149143062Y-132415384D01*
X148990323Y-132319411D01*
X148820054Y-132259831D01*
X148820049Y-132259830D01*
X148640804Y-132239635D01*
X148640796Y-132239635D01*
X148461550Y-132259830D01*
X148461545Y-132259831D01*
X148291276Y-132319411D01*
X148138537Y-132415384D01*
X148010984Y-132542937D01*
X147915011Y-132695676D01*
X147855431Y-132865945D01*
X147855430Y-132865950D01*
X147835235Y-133045196D01*
X147835235Y-133045203D01*
X130993795Y-133045203D01*
X131005610Y-132880000D01*
X130985196Y-132594572D01*
X130924369Y-132314954D01*
X130824367Y-132046839D01*
X130688800Y-131798568D01*
X130687229Y-131795690D01*
X130687224Y-131795682D01*
X130515745Y-131566612D01*
X130515729Y-131566594D01*
X130313405Y-131364270D01*
X130313387Y-131364254D01*
X130084317Y-131192775D01*
X130084309Y-131192770D01*
X129833166Y-131055635D01*
X129833167Y-131055635D01*
X129703098Y-131007122D01*
X129565046Y-130955631D01*
X129565043Y-130955630D01*
X129565037Y-130955628D01*
X129285433Y-130894804D01*
X129000001Y-130874390D01*
X128999999Y-130874390D01*
X128714566Y-130894804D01*
X128434962Y-130955628D01*
X128166833Y-131055635D01*
X127915690Y-131192770D01*
X127915682Y-131192775D01*
X127686612Y-131364254D01*
X127686594Y-131364270D01*
X127484270Y-131566594D01*
X127484254Y-131566612D01*
X127312775Y-131795682D01*
X127312770Y-131795690D01*
X127175635Y-132046833D01*
X127075628Y-132314962D01*
X127014804Y-132594566D01*
X126994390Y-132879998D01*
X126994390Y-132880001D01*
X125250500Y-132880001D01*
X125250500Y-130657603D01*
X140266035Y-130657603D01*
X140286230Y-130836849D01*
X140286231Y-130836854D01*
X140345811Y-131007123D01*
X140382936Y-131066206D01*
X140441784Y-131159862D01*
X140569338Y-131287416D01*
X140647942Y-131336806D01*
X140722074Y-131383387D01*
X140722078Y-131383389D01*
X140776740Y-131402516D01*
X140892345Y-131442968D01*
X140892350Y-131442969D01*
X141071596Y-131463165D01*
X141071600Y-131463165D01*
X141071604Y-131463165D01*
X141250849Y-131442969D01*
X141250852Y-131442968D01*
X141250855Y-131442968D01*
X141421122Y-131383389D01*
X141465017Y-131355807D01*
X141532252Y-131336806D01*
X141599088Y-131357172D01*
X141635983Y-131394827D01*
X141711782Y-131515460D01*
X141711784Y-131515462D01*
X141839338Y-131643016D01*
X141992078Y-131738989D01*
X142154097Y-131795682D01*
X142162345Y-131798568D01*
X142162350Y-131798569D01*
X142341596Y-131818765D01*
X142341600Y-131818765D01*
X142341604Y-131818765D01*
X142520849Y-131798569D01*
X142520852Y-131798568D01*
X142520855Y-131798568D01*
X142691122Y-131738989D01*
X142843862Y-131643016D01*
X142971416Y-131515462D01*
X143067389Y-131362722D01*
X143126968Y-131192455D01*
X143126969Y-131192449D01*
X143147165Y-131013203D01*
X143147165Y-131013196D01*
X143126969Y-130833950D01*
X143126968Y-130833945D01*
X143067388Y-130663676D01*
X143007771Y-130568797D01*
X142971416Y-130510938D01*
X142843862Y-130383384D01*
X142765257Y-130333993D01*
X142691123Y-130287411D01*
X142520854Y-130227831D01*
X142520849Y-130227830D01*
X142341604Y-130207635D01*
X142341596Y-130207635D01*
X142162350Y-130227830D01*
X142162345Y-130227831D01*
X141992074Y-130287412D01*
X141948179Y-130314993D01*
X141880942Y-130333993D01*
X141814107Y-130313625D01*
X141777216Y-130275973D01*
X141701416Y-130155338D01*
X141573862Y-130027784D01*
X141573862Y-130027783D01*
X141421123Y-129931811D01*
X141250854Y-129872231D01*
X141250849Y-129872230D01*
X141071604Y-129852035D01*
X141071596Y-129852035D01*
X140892350Y-129872230D01*
X140892345Y-129872231D01*
X140722076Y-129931811D01*
X140569337Y-130027784D01*
X140441784Y-130155337D01*
X140345811Y-130308076D01*
X140286231Y-130478345D01*
X140286230Y-130478350D01*
X140266035Y-130657596D01*
X140266035Y-130657603D01*
X125250500Y-130657603D01*
X125250500Y-129218670D01*
X126477300Y-129218670D01*
X126477301Y-129218676D01*
X126483708Y-129278283D01*
X126534002Y-129413128D01*
X126534006Y-129413135D01*
X126620252Y-129528344D01*
X126620255Y-129528347D01*
X126735464Y-129614593D01*
X126735471Y-129614597D01*
X126870317Y-129664891D01*
X126870316Y-129664891D01*
X126877244Y-129665635D01*
X126929927Y-129671300D01*
X128725672Y-129671299D01*
X128785283Y-129664891D01*
X128920131Y-129614596D01*
X129035346Y-129528346D01*
X129121596Y-129413131D01*
X129170610Y-129281716D01*
X129212481Y-129225784D01*
X129277945Y-129201366D01*
X129346218Y-129216217D01*
X129374473Y-129237369D01*
X129496399Y-129359295D01*
X129593184Y-129427064D01*
X129689965Y-129494832D01*
X129689967Y-129494833D01*
X129689970Y-129494835D01*
X129904137Y-129594703D01*
X130132392Y-129655863D01*
X130308834Y-129671300D01*
X130367799Y-129676459D01*
X130367800Y-129676459D01*
X130367801Y-129676459D01*
X130426766Y-129671300D01*
X130603208Y-129655863D01*
X130831463Y-129594703D01*
X131045630Y-129494835D01*
X131239201Y-129359295D01*
X131406295Y-129192201D01*
X131536530Y-129006205D01*
X131591107Y-128962581D01*
X131660605Y-128955387D01*
X131722960Y-128986910D01*
X131739679Y-129006205D01*
X131869690Y-129191878D01*
X132036717Y-129358905D01*
X132230221Y-129494400D01*
X132444307Y-129594229D01*
X132444316Y-129594233D01*
X132657800Y-129651434D01*
X132657799Y-128756301D01*
X132765485Y-128805480D01*
X132872037Y-128820800D01*
X132943563Y-128820800D01*
X133050115Y-128805480D01*
X133157800Y-128756301D01*
X133157800Y-129651433D01*
X133371283Y-129594233D01*
X133371292Y-129594229D01*
X133585378Y-129494400D01*
X133778882Y-129358905D01*
X133945905Y-129191882D01*
X134081400Y-128998378D01*
X134181229Y-128784292D01*
X134181232Y-128784286D01*
X134238436Y-128570800D01*
X133341486Y-128570800D01*
X133367293Y-128530644D01*
X133407800Y-128392689D01*
X133407800Y-128320803D01*
X134576435Y-128320803D01*
X134596630Y-128500049D01*
X134596631Y-128500054D01*
X134656211Y-128670323D01*
X134741136Y-128805480D01*
X134752184Y-128823062D01*
X134879738Y-128950616D01*
X134937500Y-128986910D01*
X135021348Y-129039596D01*
X135032478Y-129046589D01*
X135202745Y-129106167D01*
X135202745Y-129106168D01*
X135202750Y-129106169D01*
X135381996Y-129126365D01*
X135382000Y-129126365D01*
X135382004Y-129126365D01*
X135561249Y-129106169D01*
X135561252Y-129106168D01*
X135561255Y-129106168D01*
X135731522Y-129046589D01*
X135884262Y-128950616D01*
X136011816Y-128823062D01*
X136103968Y-128676403D01*
X145498435Y-128676403D01*
X145518630Y-128855649D01*
X145518631Y-128855654D01*
X145578211Y-129025923D01*
X145671275Y-129174032D01*
X145674184Y-129178662D01*
X145801738Y-129306216D01*
X145954478Y-129402189D01*
X146124745Y-129461767D01*
X146124745Y-129461768D01*
X146124750Y-129461769D01*
X146303996Y-129481965D01*
X146304000Y-129481965D01*
X146304004Y-129481965D01*
X146483249Y-129461769D01*
X146483252Y-129461768D01*
X146483255Y-129461768D01*
X146653522Y-129402189D01*
X146806262Y-129306216D01*
X146837478Y-129275000D01*
X151129341Y-129275000D01*
X151149936Y-129510403D01*
X151149938Y-129510413D01*
X151211094Y-129738655D01*
X151211096Y-129738659D01*
X151211097Y-129738663D01*
X151295499Y-129919663D01*
X151310965Y-129952830D01*
X151310967Y-129952834D01*
X151363448Y-130027784D01*
X151446505Y-130146401D01*
X151613599Y-130313495D01*
X151710384Y-130381264D01*
X151807165Y-130449032D01*
X151807167Y-130449033D01*
X151807170Y-130449035D01*
X152021337Y-130548903D01*
X152249592Y-130610063D01*
X152426034Y-130625500D01*
X152484999Y-130630659D01*
X152485000Y-130630659D01*
X152485001Y-130630659D01*
X152543966Y-130625500D01*
X152720408Y-130610063D01*
X152948663Y-130548903D01*
X153162830Y-130449035D01*
X153356401Y-130313495D01*
X153478329Y-130191566D01*
X153539648Y-130158084D01*
X153609340Y-130163068D01*
X153665274Y-130204939D01*
X153682189Y-130235917D01*
X153731202Y-130367328D01*
X153731206Y-130367335D01*
X153817452Y-130482544D01*
X153817455Y-130482547D01*
X153932664Y-130568793D01*
X153932671Y-130568797D01*
X154067517Y-130619091D01*
X154067516Y-130619091D01*
X154074444Y-130619835D01*
X154127127Y-130625500D01*
X155922872Y-130625499D01*
X155982483Y-130619091D01*
X156117331Y-130568796D01*
X156232546Y-130482546D01*
X156318796Y-130367331D01*
X156369091Y-130232483D01*
X156375500Y-130172873D01*
X156375499Y-128377128D01*
X156369444Y-128320800D01*
X156369091Y-128317516D01*
X156318797Y-128182671D01*
X156318793Y-128182664D01*
X156232547Y-128067455D01*
X156232544Y-128067452D01*
X156117335Y-127981206D01*
X156117328Y-127981202D01*
X155985917Y-127932189D01*
X155929983Y-127890318D01*
X155905566Y-127824853D01*
X155920418Y-127756580D01*
X155941563Y-127728332D01*
X156063495Y-127606401D01*
X156199035Y-127412830D01*
X156298903Y-127198663D01*
X156360063Y-126970408D01*
X156380659Y-126735000D01*
X156360063Y-126499592D01*
X156298903Y-126271337D01*
X156199035Y-126057171D01*
X156194742Y-126051039D01*
X156063494Y-125863597D01*
X155896402Y-125696506D01*
X155896396Y-125696501D01*
X155710842Y-125566575D01*
X155667217Y-125511998D01*
X155660023Y-125442500D01*
X155691546Y-125380145D01*
X155710842Y-125363425D01*
X155738848Y-125343815D01*
X155896401Y-125233495D01*
X156063495Y-125066401D01*
X156199035Y-124872830D01*
X156298903Y-124658663D01*
X156360063Y-124430408D01*
X156380659Y-124195000D01*
X156360063Y-123959592D01*
X156298903Y-123731337D01*
X156199035Y-123517171D01*
X156197304Y-123514698D01*
X156063494Y-123323597D01*
X155896402Y-123156506D01*
X155896395Y-123156501D01*
X155702834Y-123020967D01*
X155702830Y-123020965D01*
X155617258Y-122981062D01*
X155488663Y-122921097D01*
X155488659Y-122921096D01*
X155488655Y-122921094D01*
X155260413Y-122859938D01*
X155260403Y-122859936D01*
X155025001Y-122839341D01*
X155024999Y-122839341D01*
X154789596Y-122859936D01*
X154789586Y-122859938D01*
X154561344Y-122921094D01*
X154561337Y-122921096D01*
X154561337Y-122921097D01*
X154547816Y-122927401D01*
X154347171Y-123020964D01*
X154347169Y-123020965D01*
X154153597Y-123156505D01*
X153986508Y-123323594D01*
X153856574Y-123509159D01*
X153801997Y-123552784D01*
X153732498Y-123559976D01*
X153670144Y-123528454D01*
X153653424Y-123509158D01*
X153647626Y-123500878D01*
X153586344Y-123413357D01*
X153523494Y-123323597D01*
X153356402Y-123156506D01*
X153356395Y-123156501D01*
X153162834Y-123020967D01*
X153162830Y-123020965D01*
X153077258Y-122981062D01*
X152948663Y-122921097D01*
X152948659Y-122921096D01*
X152948655Y-122921094D01*
X152720413Y-122859938D01*
X152720403Y-122859936D01*
X152485001Y-122839341D01*
X152484999Y-122839341D01*
X152249596Y-122859936D01*
X152249586Y-122859938D01*
X152021344Y-122921094D01*
X152021337Y-122921096D01*
X152021337Y-122921097D01*
X152007816Y-122927401D01*
X151807171Y-123020964D01*
X151807169Y-123020965D01*
X151613597Y-123156505D01*
X151446505Y-123323597D01*
X151310965Y-123517169D01*
X151310964Y-123517171D01*
X151211098Y-123731335D01*
X151211094Y-123731344D01*
X151149938Y-123959586D01*
X151149936Y-123959596D01*
X151129341Y-124194999D01*
X151129341Y-124195000D01*
X151149936Y-124430403D01*
X151149938Y-124430413D01*
X151211094Y-124658655D01*
X151211096Y-124658659D01*
X151211097Y-124658663D01*
X151284155Y-124815335D01*
X151310965Y-124872830D01*
X151310967Y-124872834D01*
X151415686Y-125022387D01*
X151446501Y-125066396D01*
X151446506Y-125066402D01*
X151613597Y-125233493D01*
X151613603Y-125233498D01*
X151799158Y-125363425D01*
X151842783Y-125418002D01*
X151849977Y-125487500D01*
X151818454Y-125549855D01*
X151799158Y-125566575D01*
X151613597Y-125696505D01*
X151446505Y-125863597D01*
X151310965Y-126057169D01*
X151310964Y-126057171D01*
X151211098Y-126271335D01*
X151211094Y-126271344D01*
X151149938Y-126499586D01*
X151149936Y-126499596D01*
X151129341Y-126734999D01*
X151129341Y-126735000D01*
X151149936Y-126970403D01*
X151149938Y-126970413D01*
X151211094Y-127198655D01*
X151211096Y-127198659D01*
X151211097Y-127198663D01*
X151287877Y-127363317D01*
X151310965Y-127412830D01*
X151310967Y-127412834D01*
X151419281Y-127567521D01*
X151446501Y-127606396D01*
X151446506Y-127606402D01*
X151613597Y-127773493D01*
X151613603Y-127773498D01*
X151799158Y-127903425D01*
X151842783Y-127958002D01*
X151849977Y-128027500D01*
X151818454Y-128089855D01*
X151799158Y-128106575D01*
X151613597Y-128236505D01*
X151446505Y-128403597D01*
X151310965Y-128597169D01*
X151310964Y-128597171D01*
X151211098Y-128811335D01*
X151211094Y-128811344D01*
X151149938Y-129039586D01*
X151149936Y-129039596D01*
X151129341Y-129274999D01*
X151129341Y-129275000D01*
X146837478Y-129275000D01*
X146933816Y-129178662D01*
X147029789Y-129025922D01*
X147089368Y-128855655D01*
X147089369Y-128855649D01*
X147109565Y-128676403D01*
X147109565Y-128676396D01*
X147089369Y-128497150D01*
X147089368Y-128497145D01*
X147056634Y-128403597D01*
X147029789Y-128326878D01*
X147025967Y-128320796D01*
X146972318Y-128235413D01*
X146962131Y-128219200D01*
X147330659Y-128219200D01*
X147349975Y-128415329D01*
X147407188Y-128603933D01*
X147500086Y-128777732D01*
X147500090Y-128777739D01*
X147625116Y-128930083D01*
X147777460Y-129055109D01*
X147777467Y-129055113D01*
X147951266Y-129148011D01*
X147951269Y-129148011D01*
X147951273Y-129148014D01*
X148139868Y-129205224D01*
X148336000Y-129224541D01*
X148532132Y-129205224D01*
X148720727Y-129148014D01*
X148761230Y-129126365D01*
X148894532Y-129055113D01*
X148894538Y-129055110D01*
X149046883Y-128930083D01*
X149171910Y-128777738D01*
X149226076Y-128676400D01*
X149264811Y-128603933D01*
X149264811Y-128603932D01*
X149264814Y-128603927D01*
X149322024Y-128415332D01*
X149341341Y-128219200D01*
X149322024Y-128023068D01*
X149264814Y-127834473D01*
X149264811Y-127834469D01*
X149264811Y-127834466D01*
X149171913Y-127660667D01*
X149171909Y-127660660D01*
X149046883Y-127508316D01*
X148894539Y-127383290D01*
X148894532Y-127383286D01*
X148720733Y-127290388D01*
X148720727Y-127290386D01*
X148532132Y-127233176D01*
X148532129Y-127233175D01*
X148336000Y-127213859D01*
X148139870Y-127233175D01*
X147951266Y-127290388D01*
X147777467Y-127383286D01*
X147777460Y-127383290D01*
X147625116Y-127508316D01*
X147500090Y-127660660D01*
X147500086Y-127660667D01*
X147407188Y-127834466D01*
X147349975Y-128023070D01*
X147330659Y-128219200D01*
X146962131Y-128219200D01*
X146933816Y-128174138D01*
X146806262Y-128046584D01*
X146740082Y-128005000D01*
X146653523Y-127950611D01*
X146483254Y-127891031D01*
X146483249Y-127891030D01*
X146304004Y-127870835D01*
X146303996Y-127870835D01*
X146124750Y-127891030D01*
X146124745Y-127891031D01*
X145954476Y-127950611D01*
X145801737Y-128046584D01*
X145674184Y-128174137D01*
X145578211Y-128326876D01*
X145518631Y-128497145D01*
X145518630Y-128497150D01*
X145498435Y-128676396D01*
X145498435Y-128676403D01*
X136103968Y-128676403D01*
X136107789Y-128670322D01*
X136167368Y-128500055D01*
X136167369Y-128500049D01*
X136187565Y-128320803D01*
X136187565Y-128320796D01*
X136167369Y-128141550D01*
X136167368Y-128141545D01*
X136111262Y-127981203D01*
X136107789Y-127971278D01*
X136082423Y-127930909D01*
X136036069Y-127857137D01*
X136011816Y-127818538D01*
X135884262Y-127690984D01*
X135836002Y-127660660D01*
X135731523Y-127595011D01*
X135561254Y-127535431D01*
X135561249Y-127535430D01*
X135382004Y-127515235D01*
X135381996Y-127515235D01*
X135202750Y-127535430D01*
X135202745Y-127535431D01*
X135032476Y-127595011D01*
X134879737Y-127690984D01*
X134752184Y-127818537D01*
X134656211Y-127971276D01*
X134596631Y-128141545D01*
X134596630Y-128141550D01*
X134576435Y-128320796D01*
X134576435Y-128320803D01*
X133407800Y-128320803D01*
X133407800Y-128248911D01*
X133367293Y-128110956D01*
X133341486Y-128070800D01*
X134238436Y-128070800D01*
X134238435Y-128070799D01*
X134181232Y-127857313D01*
X134181229Y-127857307D01*
X134081400Y-127643222D01*
X134081399Y-127643220D01*
X133945913Y-127449726D01*
X133945908Y-127449720D01*
X133778882Y-127282694D01*
X133585378Y-127147199D01*
X133371292Y-127047370D01*
X133371286Y-127047367D01*
X133157800Y-126990164D01*
X133157799Y-127885298D01*
X133050115Y-127836120D01*
X132943563Y-127820800D01*
X132872037Y-127820800D01*
X132765485Y-127836120D01*
X132657799Y-127885298D01*
X132657800Y-126990164D01*
X132657799Y-126990164D01*
X132444313Y-127047367D01*
X132444307Y-127047370D01*
X132230222Y-127147199D01*
X132230220Y-127147200D01*
X132036726Y-127282686D01*
X132036720Y-127282691D01*
X131869691Y-127449720D01*
X131869690Y-127449722D01*
X131739680Y-127635395D01*
X131685103Y-127679019D01*
X131615604Y-127686212D01*
X131553250Y-127654690D01*
X131536530Y-127635394D01*
X131406294Y-127449397D01*
X131239202Y-127282306D01*
X131239195Y-127282301D01*
X131045634Y-127146767D01*
X131045630Y-127146765D01*
X131006669Y-127128597D01*
X130831463Y-127046897D01*
X130831459Y-127046896D01*
X130831455Y-127046894D01*
X130603213Y-126985738D01*
X130603203Y-126985736D01*
X130367801Y-126965141D01*
X130367799Y-126965141D01*
X130132396Y-126985736D01*
X130132386Y-126985738D01*
X129904144Y-127046894D01*
X129904135Y-127046898D01*
X129689971Y-127146764D01*
X129689969Y-127146765D01*
X129496400Y-127282303D01*
X129374473Y-127404230D01*
X129313150Y-127437714D01*
X129243458Y-127432730D01*
X129187525Y-127390858D01*
X129170610Y-127359881D01*
X129121597Y-127228471D01*
X129121593Y-127228464D01*
X129035347Y-127113255D01*
X129035344Y-127113252D01*
X128920135Y-127027006D01*
X128920128Y-127027002D01*
X128785282Y-126976708D01*
X128785283Y-126976708D01*
X128725683Y-126970301D01*
X128725681Y-126970300D01*
X128725673Y-126970300D01*
X128725664Y-126970300D01*
X126929929Y-126970300D01*
X126929923Y-126970301D01*
X126870316Y-126976708D01*
X126735471Y-127027002D01*
X126735464Y-127027006D01*
X126620255Y-127113252D01*
X126620252Y-127113255D01*
X126534006Y-127228464D01*
X126534002Y-127228471D01*
X126483708Y-127363317D01*
X126477301Y-127422916D01*
X126477300Y-127422935D01*
X126477300Y-129218670D01*
X125250500Y-129218670D01*
X125250500Y-124104403D01*
X131731635Y-124104403D01*
X131751830Y-124283649D01*
X131751831Y-124283654D01*
X131811411Y-124453923D01*
X131890275Y-124579433D01*
X131907384Y-124606662D01*
X132034938Y-124734216D01*
X132187678Y-124830189D01*
X132239011Y-124848151D01*
X132295787Y-124888872D01*
X132321535Y-124953825D01*
X132308079Y-125022387D01*
X132295006Y-125042504D01*
X132291806Y-125046516D01*
X132195834Y-125199253D01*
X132136254Y-125369522D01*
X132136253Y-125369527D01*
X132116058Y-125548773D01*
X132116058Y-125548780D01*
X132136253Y-125728026D01*
X132136254Y-125728031D01*
X132195834Y-125898300D01*
X132290625Y-126049158D01*
X132291807Y-126051039D01*
X132419361Y-126178593D01*
X132572101Y-126274566D01*
X132734509Y-126331395D01*
X132742368Y-126334145D01*
X132742373Y-126334146D01*
X132921619Y-126354342D01*
X132921623Y-126354342D01*
X132921627Y-126354342D01*
X133100872Y-126334146D01*
X133100875Y-126334145D01*
X133100878Y-126334145D01*
X133271145Y-126274566D01*
X133423885Y-126178593D01*
X133551439Y-126051039D01*
X133647412Y-125898299D01*
X133706991Y-125728032D01*
X133710543Y-125696506D01*
X133727188Y-125548780D01*
X133727188Y-125548773D01*
X133706992Y-125369527D01*
X133706991Y-125369522D01*
X133656278Y-125224592D01*
X133647412Y-125199255D01*
X133551439Y-125046515D01*
X133423885Y-124918961D01*
X133271145Y-124822988D01*
X133271142Y-124822986D01*
X133219810Y-124805024D01*
X133163034Y-124764303D01*
X133143095Y-124714003D01*
X137497435Y-124714003D01*
X137517630Y-124893249D01*
X137517631Y-124893254D01*
X137577211Y-125063523D01*
X137662498Y-125199255D01*
X137673184Y-125216262D01*
X137800738Y-125343816D01*
X137953478Y-125439789D01*
X138025527Y-125465000D01*
X138123745Y-125499368D01*
X138123750Y-125499369D01*
X138302996Y-125519565D01*
X138303000Y-125519565D01*
X138303004Y-125519565D01*
X138482249Y-125499369D01*
X138482252Y-125499368D01*
X138482255Y-125499368D01*
X138652522Y-125439789D01*
X138805262Y-125343816D01*
X138932816Y-125216262D01*
X139028789Y-125063522D01*
X139088368Y-124893255D01*
X139090669Y-124872834D01*
X139108565Y-124714003D01*
X139108565Y-124713996D01*
X139088369Y-124534750D01*
X139088368Y-124534745D01*
X139060087Y-124453922D01*
X139028789Y-124364478D01*
X138932816Y-124211738D01*
X138805262Y-124084184D01*
X138718480Y-124029655D01*
X138652523Y-123988211D01*
X138482254Y-123928631D01*
X138482249Y-123928630D01*
X138303004Y-123908435D01*
X138302996Y-123908435D01*
X138123750Y-123928630D01*
X138123745Y-123928631D01*
X137953476Y-123988211D01*
X137800737Y-124084184D01*
X137673184Y-124211737D01*
X137577211Y-124364476D01*
X137517631Y-124534745D01*
X137517630Y-124534750D01*
X137497435Y-124713996D01*
X137497435Y-124714003D01*
X133143095Y-124714003D01*
X133137287Y-124699350D01*
X133150743Y-124630788D01*
X133163825Y-124610661D01*
X133167007Y-124606670D01*
X133167016Y-124606662D01*
X133262989Y-124453922D01*
X133322568Y-124283655D01*
X133325594Y-124256800D01*
X133342765Y-124104403D01*
X133342765Y-124104396D01*
X133322569Y-123925150D01*
X133322568Y-123925145D01*
X133296415Y-123850403D01*
X135236835Y-123850403D01*
X135257030Y-124029649D01*
X135257031Y-124029654D01*
X135316611Y-124199923D01*
X135412583Y-124352662D01*
X135412584Y-124352662D01*
X135540138Y-124480216D01*
X135692878Y-124576189D01*
X135848913Y-124630788D01*
X135863145Y-124635768D01*
X135863150Y-124635769D01*
X136042396Y-124655965D01*
X136042400Y-124655965D01*
X136042404Y-124655965D01*
X136221649Y-124635769D01*
X136221652Y-124635768D01*
X136221655Y-124635768D01*
X136391922Y-124576189D01*
X136544662Y-124480216D01*
X136672216Y-124352662D01*
X136768189Y-124199922D01*
X136827768Y-124029655D01*
X136837630Y-123942129D01*
X136847965Y-123850403D01*
X136847965Y-123850396D01*
X136827769Y-123671150D01*
X136827768Y-123671145D01*
X136800288Y-123592610D01*
X142548242Y-123592610D01*
X142568437Y-123771856D01*
X142568438Y-123771861D01*
X142628018Y-123942130D01*
X142683014Y-124029655D01*
X142723991Y-124094869D01*
X142851545Y-124222423D01*
X142899336Y-124252452D01*
X142991204Y-124310177D01*
X143004285Y-124318396D01*
X143102212Y-124352662D01*
X143174552Y-124377975D01*
X143174557Y-124377976D01*
X143353803Y-124398172D01*
X143353807Y-124398172D01*
X143353811Y-124398172D01*
X143533056Y-124377976D01*
X143533059Y-124377975D01*
X143533062Y-124377975D01*
X143703329Y-124318396D01*
X143856069Y-124222423D01*
X143983623Y-124094869D01*
X144079596Y-123942129D01*
X144139175Y-123771862D01*
X144141127Y-123754537D01*
X144159372Y-123592610D01*
X144159372Y-123592603D01*
X144139176Y-123413357D01*
X144139173Y-123413344D01*
X144109116Y-123327447D01*
X144105554Y-123257668D01*
X144140282Y-123197041D01*
X144202275Y-123164813D01*
X144271851Y-123171218D01*
X144292130Y-123181499D01*
X144328875Y-123204588D01*
X144499145Y-123264168D01*
X144499150Y-123264169D01*
X144678396Y-123284365D01*
X144678400Y-123284365D01*
X144678404Y-123284365D01*
X144857649Y-123264169D01*
X144857652Y-123264168D01*
X144857655Y-123264168D01*
X145027922Y-123204589D01*
X145180662Y-123108616D01*
X145226275Y-123063003D01*
X147022435Y-123063003D01*
X147042630Y-123242249D01*
X147042631Y-123242254D01*
X147102211Y-123412523D01*
X147194863Y-123559976D01*
X147198184Y-123565262D01*
X147325738Y-123692816D01*
X147366162Y-123718216D01*
X147461571Y-123778166D01*
X147478478Y-123788789D01*
X147597681Y-123830500D01*
X147648745Y-123848368D01*
X147648750Y-123848369D01*
X147827996Y-123868565D01*
X147828000Y-123868565D01*
X147828004Y-123868565D01*
X148007249Y-123848369D01*
X148007252Y-123848368D01*
X148007255Y-123848368D01*
X148177522Y-123788789D01*
X148330262Y-123692816D01*
X148457816Y-123565262D01*
X148553789Y-123412522D01*
X148613368Y-123242255D01*
X148617612Y-123204588D01*
X148633565Y-123063003D01*
X148633565Y-123062996D01*
X148613369Y-122883750D01*
X148613368Y-122883745D01*
X148586597Y-122807237D01*
X148553789Y-122713478D01*
X148457816Y-122560738D01*
X148330262Y-122433184D01*
X148273336Y-122397415D01*
X148177523Y-122337211D01*
X148007254Y-122277631D01*
X148007249Y-122277630D01*
X147828004Y-122257435D01*
X147827996Y-122257435D01*
X147648750Y-122277630D01*
X147648745Y-122277631D01*
X147478476Y-122337211D01*
X147325737Y-122433184D01*
X147198184Y-122560737D01*
X147102211Y-122713476D01*
X147042631Y-122883745D01*
X147042630Y-122883750D01*
X147022435Y-123062996D01*
X147022435Y-123063003D01*
X145226275Y-123063003D01*
X145308216Y-122981062D01*
X145404189Y-122828322D01*
X145463768Y-122658055D01*
X145467898Y-122621401D01*
X145483965Y-122478803D01*
X145483965Y-122478796D01*
X145463769Y-122299550D01*
X145463768Y-122299545D01*
X145433717Y-122213664D01*
X145404189Y-122129278D01*
X145396551Y-122117123D01*
X145364981Y-122066880D01*
X145308216Y-121976538D01*
X145180662Y-121848984D01*
X145180661Y-121848983D01*
X145051146Y-121767603D01*
X155339935Y-121767603D01*
X155360130Y-121946849D01*
X155360131Y-121946854D01*
X155419711Y-122117123D01*
X155427349Y-122129278D01*
X155515684Y-122269862D01*
X155643238Y-122397416D01*
X155704393Y-122435842D01*
X155772764Y-122478803D01*
X155795978Y-122493389D01*
X155966245Y-122552967D01*
X155966245Y-122552968D01*
X155966250Y-122552969D01*
X156145496Y-122573165D01*
X156145500Y-122573165D01*
X156145504Y-122573165D01*
X156324749Y-122552969D01*
X156324752Y-122552968D01*
X156324755Y-122552968D01*
X156495022Y-122493389D01*
X156647762Y-122397416D01*
X156775316Y-122269862D01*
X156871289Y-122117122D01*
X156930868Y-121946855D01*
X156930869Y-121946849D01*
X156951065Y-121767603D01*
X156951065Y-121767596D01*
X156930869Y-121588350D01*
X156930868Y-121588345D01*
X156905061Y-121514592D01*
X156871289Y-121418078D01*
X156775316Y-121265338D01*
X156647762Y-121137784D01*
X156611465Y-121114977D01*
X156495023Y-121041811D01*
X156324754Y-120982231D01*
X156324749Y-120982230D01*
X156145504Y-120962035D01*
X156145496Y-120962035D01*
X155966250Y-120982230D01*
X155966245Y-120982231D01*
X155795976Y-121041811D01*
X155643237Y-121137784D01*
X155515684Y-121265337D01*
X155419711Y-121418076D01*
X155360131Y-121588345D01*
X155360130Y-121588350D01*
X155339935Y-121767596D01*
X155339935Y-121767603D01*
X145051146Y-121767603D01*
X145027923Y-121753011D01*
X144857654Y-121693431D01*
X144857649Y-121693430D01*
X144678404Y-121673235D01*
X144678396Y-121673235D01*
X144499150Y-121693430D01*
X144499145Y-121693431D01*
X144328876Y-121753011D01*
X144176137Y-121848984D01*
X144048584Y-121976537D01*
X143952611Y-122129276D01*
X143893031Y-122299545D01*
X143893030Y-122299550D01*
X143872835Y-122478796D01*
X143872835Y-122478803D01*
X143893030Y-122658049D01*
X143893032Y-122658057D01*
X143923091Y-122743960D01*
X143926652Y-122813738D01*
X143891923Y-122874366D01*
X143829930Y-122906593D01*
X143760354Y-122900188D01*
X143740077Y-122889908D01*
X143703330Y-122866818D01*
X143533061Y-122807238D01*
X143533056Y-122807237D01*
X143353811Y-122787042D01*
X143353803Y-122787042D01*
X143174557Y-122807237D01*
X143174552Y-122807238D01*
X143004283Y-122866818D01*
X142851544Y-122962791D01*
X142723991Y-123090344D01*
X142628018Y-123243083D01*
X142568438Y-123413352D01*
X142568437Y-123413357D01*
X142548242Y-123592603D01*
X142548242Y-123592610D01*
X136800288Y-123592610D01*
X136799606Y-123590662D01*
X136768189Y-123500878D01*
X136751667Y-123474584D01*
X136672215Y-123348137D01*
X136544662Y-123220584D01*
X136391923Y-123124611D01*
X136221654Y-123065031D01*
X136221649Y-123065030D01*
X136042404Y-123044835D01*
X136042396Y-123044835D01*
X135863150Y-123065030D01*
X135863145Y-123065031D01*
X135692876Y-123124611D01*
X135540137Y-123220584D01*
X135412584Y-123348137D01*
X135316611Y-123500876D01*
X135257031Y-123671145D01*
X135257030Y-123671150D01*
X135236835Y-123850396D01*
X135236835Y-123850403D01*
X133296415Y-123850403D01*
X133262989Y-123754878D01*
X133262775Y-123754538D01*
X133167015Y-123602137D01*
X133039462Y-123474584D01*
X132886723Y-123378611D01*
X132716454Y-123319031D01*
X132716449Y-123319030D01*
X132537204Y-123298835D01*
X132537196Y-123298835D01*
X132357950Y-123319030D01*
X132357945Y-123319031D01*
X132187676Y-123378611D01*
X132034937Y-123474584D01*
X131907384Y-123602137D01*
X131811411Y-123754876D01*
X131751831Y-123925145D01*
X131751830Y-123925150D01*
X131731635Y-124104396D01*
X131731635Y-124104403D01*
X125250500Y-124104403D01*
X125250500Y-120548403D01*
X135186035Y-120548403D01*
X135206230Y-120727649D01*
X135206231Y-120727654D01*
X135265811Y-120897923D01*
X135356223Y-121041811D01*
X135361784Y-121050662D01*
X135489338Y-121178216D01*
X135539279Y-121209596D01*
X135627991Y-121265338D01*
X135642078Y-121274189D01*
X135812345Y-121333767D01*
X135812345Y-121333768D01*
X135812350Y-121333769D01*
X135991596Y-121353965D01*
X135991600Y-121353965D01*
X135991604Y-121353965D01*
X136170849Y-121333769D01*
X136170852Y-121333768D01*
X136170855Y-121333768D01*
X136341122Y-121274189D01*
X136493862Y-121178216D01*
X136621416Y-121050662D01*
X136717389Y-120897922D01*
X136776968Y-120727655D01*
X136780608Y-120695351D01*
X136797165Y-120548403D01*
X136797165Y-120548396D01*
X136785718Y-120446803D01*
X141739235Y-120446803D01*
X141759430Y-120626049D01*
X141759431Y-120626054D01*
X141819011Y-120796323D01*
X141914983Y-120949061D01*
X141914984Y-120949062D01*
X142042538Y-121076616D01*
X142195278Y-121172589D01*
X142365545Y-121232167D01*
X142365545Y-121232168D01*
X142365550Y-121232169D01*
X142544796Y-121252365D01*
X142544800Y-121252365D01*
X142544804Y-121252365D01*
X142724049Y-121232169D01*
X142724052Y-121232168D01*
X142724055Y-121232168D01*
X142894322Y-121172589D01*
X143047062Y-121076616D01*
X143174616Y-120949062D01*
X143270589Y-120796322D01*
X143330168Y-120626055D01*
X143337064Y-120564855D01*
X143350365Y-120446803D01*
X143350365Y-120446796D01*
X143330169Y-120267550D01*
X143330168Y-120267545D01*
X143304015Y-120192803D01*
X148952835Y-120192803D01*
X148973030Y-120372049D01*
X148973031Y-120372054D01*
X149032611Y-120542323D01*
X149046769Y-120564855D01*
X149128584Y-120695062D01*
X149256138Y-120822616D01*
X149345231Y-120878597D01*
X149375986Y-120897922D01*
X149408878Y-120918589D01*
X149495965Y-120949062D01*
X149579145Y-120978168D01*
X149579150Y-120978169D01*
X149758396Y-120998365D01*
X149758400Y-120998365D01*
X149758404Y-120998365D01*
X149937649Y-120978169D01*
X149937652Y-120978168D01*
X149937655Y-120978168D01*
X150107922Y-120918589D01*
X150260662Y-120822616D01*
X150388216Y-120695062D01*
X150484189Y-120542322D01*
X150543768Y-120372055D01*
X150543769Y-120372049D01*
X150563965Y-120192803D01*
X150563965Y-120192796D01*
X150543769Y-120013550D01*
X150543768Y-120013545D01*
X150513155Y-119926058D01*
X150484189Y-119843278D01*
X150467667Y-119816984D01*
X150433766Y-119763030D01*
X150423572Y-119746806D01*
X150770432Y-119746806D01*
X150790627Y-119926052D01*
X150790628Y-119926057D01*
X150850208Y-120096326D01*
X150897077Y-120170917D01*
X150946181Y-120249065D01*
X151073735Y-120376619D01*
X151226475Y-120472592D01*
X151315651Y-120503796D01*
X151396742Y-120532171D01*
X151396747Y-120532172D01*
X151575993Y-120552368D01*
X151575997Y-120552368D01*
X151576001Y-120552368D01*
X151755246Y-120532172D01*
X151755249Y-120532171D01*
X151755252Y-120532171D01*
X151925519Y-120472592D01*
X152078259Y-120376619D01*
X152205813Y-120249065D01*
X152301786Y-120096325D01*
X152361365Y-119926058D01*
X152362207Y-119918584D01*
X152381562Y-119746806D01*
X152381562Y-119746799D01*
X152361366Y-119567553D01*
X152361365Y-119567548D01*
X152359768Y-119562984D01*
X152301786Y-119397281D01*
X152205813Y-119244541D01*
X152078259Y-119116987D01*
X152078259Y-119116986D01*
X151925520Y-119021014D01*
X151755251Y-118961434D01*
X151755246Y-118961433D01*
X151576001Y-118941238D01*
X151575993Y-118941238D01*
X151396747Y-118961433D01*
X151396742Y-118961434D01*
X151226473Y-119021014D01*
X151073734Y-119116987D01*
X150946181Y-119244540D01*
X150850208Y-119397279D01*
X150790628Y-119567548D01*
X150790627Y-119567553D01*
X150770432Y-119746799D01*
X150770432Y-119746806D01*
X150423572Y-119746806D01*
X150388216Y-119690538D01*
X150260662Y-119562984D01*
X150260661Y-119562983D01*
X150107923Y-119467011D01*
X149937654Y-119407431D01*
X149937649Y-119407430D01*
X149758404Y-119387235D01*
X149758396Y-119387235D01*
X149579150Y-119407430D01*
X149579145Y-119407431D01*
X149408876Y-119467011D01*
X149256137Y-119562984D01*
X149128584Y-119690537D01*
X149032611Y-119843276D01*
X148973031Y-120013545D01*
X148973030Y-120013550D01*
X148952835Y-120192796D01*
X148952835Y-120192803D01*
X143304015Y-120192803D01*
X143270589Y-120097278D01*
X143260613Y-120081402D01*
X143174615Y-119944537D01*
X143047062Y-119816984D01*
X142894323Y-119721011D01*
X142724054Y-119661431D01*
X142724049Y-119661430D01*
X142544804Y-119641235D01*
X142544796Y-119641235D01*
X142365550Y-119661430D01*
X142365545Y-119661431D01*
X142195276Y-119721011D01*
X142042537Y-119816984D01*
X141914984Y-119944537D01*
X141819011Y-120097276D01*
X141759431Y-120267545D01*
X141759430Y-120267550D01*
X141739235Y-120446796D01*
X141739235Y-120446803D01*
X136785718Y-120446803D01*
X136776969Y-120369150D01*
X136776968Y-120369145D01*
X136741418Y-120267550D01*
X136717389Y-120198878D01*
X136713567Y-120192796D01*
X136652951Y-120096326D01*
X136621416Y-120046138D01*
X136493862Y-119918584D01*
X136341123Y-119822611D01*
X136170854Y-119763031D01*
X136170849Y-119763030D01*
X135991604Y-119742835D01*
X135991596Y-119742835D01*
X135812350Y-119763030D01*
X135812345Y-119763031D01*
X135642076Y-119822611D01*
X135489337Y-119918584D01*
X135361784Y-120046137D01*
X135265811Y-120198876D01*
X135206231Y-120369145D01*
X135206230Y-120369150D01*
X135186035Y-120548396D01*
X135186035Y-120548403D01*
X125250500Y-120548403D01*
X125250500Y-118262403D01*
X130207635Y-118262403D01*
X130227830Y-118441649D01*
X130227831Y-118441654D01*
X130287411Y-118611923D01*
X130346040Y-118705230D01*
X130383384Y-118764662D01*
X130510938Y-118892216D01*
X130588956Y-118941238D01*
X130642038Y-118974592D01*
X130663678Y-118988189D01*
X130833945Y-119047767D01*
X130833945Y-119047768D01*
X130833950Y-119047769D01*
X131013196Y-119067965D01*
X131013200Y-119067965D01*
X131013204Y-119067965D01*
X131192449Y-119047769D01*
X131192452Y-119047768D01*
X131192455Y-119047768D01*
X131331817Y-118999003D01*
X139402435Y-118999003D01*
X139422630Y-119178249D01*
X139422631Y-119178254D01*
X139482211Y-119348523D01*
X139556663Y-119467011D01*
X139578184Y-119501262D01*
X139705738Y-119628816D01*
X139858478Y-119724789D01*
X140028744Y-119784368D01*
X140028745Y-119784368D01*
X140028750Y-119784369D01*
X140207996Y-119804565D01*
X140208000Y-119804565D01*
X140208004Y-119804565D01*
X140387249Y-119784369D01*
X140387252Y-119784368D01*
X140387255Y-119784368D01*
X140557522Y-119724789D01*
X140710262Y-119628816D01*
X140837816Y-119501262D01*
X140933789Y-119348522D01*
X140993368Y-119178255D01*
X140993369Y-119178249D01*
X141013565Y-118999003D01*
X141013565Y-118998997D01*
X140994172Y-118826881D01*
X141006226Y-118758059D01*
X141053575Y-118706679D01*
X141076433Y-118695957D01*
X141152925Y-118669192D01*
X141305665Y-118573219D01*
X141433219Y-118445665D01*
X141485698Y-118362145D01*
X141538030Y-118315856D01*
X141607084Y-118305207D01*
X141670932Y-118333582D01*
X141678371Y-118340438D01*
X141754400Y-118416467D01*
X141907140Y-118512440D01*
X141995776Y-118543455D01*
X142077407Y-118572019D01*
X142077412Y-118572020D01*
X142256658Y-118592216D01*
X142256662Y-118592216D01*
X142256666Y-118592216D01*
X142435911Y-118572020D01*
X142435914Y-118572019D01*
X142435917Y-118572019D01*
X142606184Y-118512440D01*
X142758924Y-118416467D01*
X142758925Y-118416465D01*
X142762859Y-118413994D01*
X142830095Y-118394994D01*
X142894803Y-118413994D01*
X142938823Y-118441654D01*
X142995702Y-118477393D01*
X143152243Y-118532169D01*
X143165969Y-118536972D01*
X143165974Y-118536973D01*
X143345220Y-118557169D01*
X143345224Y-118557169D01*
X143345228Y-118557169D01*
X143524473Y-118536973D01*
X143524476Y-118536972D01*
X143524479Y-118536972D01*
X143694746Y-118477393D01*
X143847486Y-118381420D01*
X143975040Y-118253866D01*
X144071013Y-118101126D01*
X144130592Y-117930859D01*
X144132243Y-117916206D01*
X144150789Y-117751607D01*
X144150789Y-117751601D01*
X144131217Y-117577895D01*
X144143271Y-117509073D01*
X144190620Y-117457693D01*
X144258231Y-117440069D01*
X144295391Y-117446969D01*
X144378543Y-117476065D01*
X144435320Y-117516787D01*
X144454631Y-117552153D01*
X144511410Y-117714421D01*
X144540136Y-117760138D01*
X144607384Y-117867162D01*
X144734938Y-117994716D01*
X144800589Y-118035967D01*
X144875679Y-118083150D01*
X144887678Y-118090689D01*
X145057944Y-118150268D01*
X145057945Y-118150268D01*
X145057950Y-118150269D01*
X145237196Y-118170465D01*
X145237200Y-118170465D01*
X145237204Y-118170465D01*
X145416449Y-118150269D01*
X145416452Y-118150268D01*
X145416455Y-118150268D01*
X145586722Y-118090689D01*
X145739462Y-117994716D01*
X145867016Y-117867162D01*
X145953827Y-117729003D01*
X147276435Y-117729003D01*
X147296630Y-117908249D01*
X147296631Y-117908254D01*
X147356211Y-118078523D01*
X147414636Y-118171505D01*
X147452184Y-118231262D01*
X147579738Y-118358816D01*
X147732478Y-118454789D01*
X147897232Y-118512439D01*
X147902745Y-118514368D01*
X147902750Y-118514369D01*
X148081996Y-118534565D01*
X148082000Y-118534565D01*
X148082004Y-118534565D01*
X148261249Y-118514369D01*
X148261252Y-118514368D01*
X148261255Y-118514368D01*
X148431522Y-118454789D01*
X148584262Y-118358816D01*
X148711816Y-118231262D01*
X148807789Y-118078522D01*
X148867368Y-117908255D01*
X148871998Y-117867162D01*
X148887565Y-117729003D01*
X148887565Y-117728996D01*
X148867369Y-117549750D01*
X148867368Y-117549745D01*
X148846104Y-117488975D01*
X148807789Y-117379478D01*
X148800518Y-117367907D01*
X148748042Y-117284391D01*
X148711816Y-117226738D01*
X148584262Y-117099184D01*
X148510966Y-117053129D01*
X148431523Y-117003211D01*
X148261254Y-116943631D01*
X148261249Y-116943630D01*
X148082004Y-116923435D01*
X148081996Y-116923435D01*
X147902750Y-116943630D01*
X147902745Y-116943631D01*
X147732476Y-117003211D01*
X147579737Y-117099184D01*
X147452184Y-117226737D01*
X147356211Y-117379476D01*
X147296631Y-117549745D01*
X147296630Y-117549750D01*
X147276435Y-117728996D01*
X147276435Y-117729003D01*
X145953827Y-117729003D01*
X145962989Y-117714422D01*
X146022568Y-117544155D01*
X146026521Y-117509073D01*
X146042765Y-117364903D01*
X146042765Y-117364896D01*
X146022569Y-117185650D01*
X146022568Y-117185645D01*
X145999009Y-117118317D01*
X145962989Y-117015378D01*
X145867016Y-116862638D01*
X145739462Y-116735084D01*
X145739461Y-116735083D01*
X145586719Y-116639109D01*
X145453350Y-116592441D01*
X145396574Y-116551720D01*
X145377264Y-116516355D01*
X145320483Y-116354087D01*
X145320482Y-116354085D01*
X145224509Y-116201345D01*
X145096955Y-116073791D01*
X145046023Y-116041788D01*
X144944216Y-115977818D01*
X144773947Y-115918238D01*
X144773942Y-115918237D01*
X144594697Y-115898042D01*
X144594689Y-115898042D01*
X144415443Y-115918237D01*
X144415438Y-115918238D01*
X144245169Y-115977818D01*
X144092430Y-116073791D01*
X143964877Y-116201344D01*
X143868904Y-116354083D01*
X143809324Y-116524352D01*
X143809323Y-116524357D01*
X143789128Y-116703603D01*
X143789128Y-116703610D01*
X143808699Y-116877316D01*
X143796644Y-116946138D01*
X143749295Y-116997517D01*
X143681685Y-117015141D01*
X143644525Y-117008241D01*
X143524481Y-116966236D01*
X143524473Y-116966234D01*
X143345228Y-116946039D01*
X143345220Y-116946039D01*
X143165974Y-116966234D01*
X143165969Y-116966235D01*
X142995700Y-117025815D01*
X142839026Y-117124261D01*
X142771789Y-117143261D01*
X142707081Y-117124260D01*
X142606186Y-117060862D01*
X142435916Y-117001282D01*
X142435911Y-117001281D01*
X142256666Y-116981086D01*
X142256658Y-116981086D01*
X142077412Y-117001281D01*
X142077407Y-117001282D01*
X141907138Y-117060862D01*
X141754399Y-117156835D01*
X141626846Y-117284388D01*
X141626844Y-117284391D01*
X141574367Y-117367907D01*
X141522032Y-117414198D01*
X141452979Y-117424845D01*
X141389131Y-117396470D01*
X141381693Y-117389615D01*
X141305663Y-117313585D01*
X141184136Y-117237224D01*
X141137846Y-117184890D01*
X141127198Y-117115836D01*
X141155573Y-117051988D01*
X141162417Y-117044561D01*
X141216220Y-116990759D01*
X141312193Y-116838019D01*
X141371772Y-116667752D01*
X141374999Y-116639111D01*
X141391969Y-116488500D01*
X141391969Y-116488493D01*
X141371773Y-116309247D01*
X141371772Y-116309242D01*
X141349289Y-116244989D01*
X141312193Y-116138975D01*
X141216220Y-115986235D01*
X141088666Y-115858681D01*
X141024340Y-115818262D01*
X140935927Y-115762708D01*
X140765658Y-115703128D01*
X140765653Y-115703127D01*
X140586408Y-115682932D01*
X140586400Y-115682932D01*
X140407154Y-115703127D01*
X140407149Y-115703128D01*
X140236880Y-115762708D01*
X140084141Y-115858681D01*
X139956588Y-115986234D01*
X139860615Y-116138973D01*
X139801035Y-116309242D01*
X139801034Y-116309247D01*
X139780839Y-116488493D01*
X139780839Y-116488500D01*
X139801034Y-116667746D01*
X139801035Y-116667751D01*
X139860615Y-116838020D01*
X139956588Y-116990759D01*
X140084141Y-117118312D01*
X140084147Y-117118317D01*
X140205669Y-117194675D01*
X140251960Y-117247009D01*
X140262608Y-117316063D01*
X140234233Y-117379911D01*
X140227379Y-117387348D01*
X140173587Y-117441140D01*
X140077614Y-117593879D01*
X140018034Y-117764148D01*
X140018033Y-117764153D01*
X139997838Y-117943399D01*
X139997838Y-117943406D01*
X140017230Y-118115522D01*
X140005175Y-118184344D01*
X139957826Y-118235723D01*
X139934965Y-118246447D01*
X139858477Y-118273211D01*
X139705737Y-118369184D01*
X139578184Y-118496737D01*
X139482211Y-118649476D01*
X139422631Y-118819745D01*
X139422630Y-118819750D01*
X139402435Y-118998996D01*
X139402435Y-118999003D01*
X131331817Y-118999003D01*
X131362722Y-118988189D01*
X131515462Y-118892216D01*
X131643016Y-118764662D01*
X131738989Y-118611922D01*
X131798568Y-118441655D01*
X131801685Y-118413994D01*
X131818765Y-118262403D01*
X131818765Y-118262396D01*
X131798569Y-118083150D01*
X131798568Y-118083145D01*
X131747114Y-117936098D01*
X131738989Y-117912878D01*
X131736080Y-117908249D01*
X131649013Y-117769682D01*
X131643016Y-117760138D01*
X131515462Y-117632584D01*
X131453867Y-117593881D01*
X131362723Y-117536611D01*
X131192454Y-117477031D01*
X131192449Y-117477030D01*
X131013204Y-117456835D01*
X131013196Y-117456835D01*
X130833950Y-117477030D01*
X130833945Y-117477031D01*
X130663676Y-117536611D01*
X130510937Y-117632584D01*
X130383384Y-117760137D01*
X130287411Y-117912876D01*
X130227831Y-118083145D01*
X130227830Y-118083150D01*
X130207635Y-118262396D01*
X130207635Y-118262403D01*
X125250500Y-118262403D01*
X125250500Y-115519203D01*
X133204835Y-115519203D01*
X133225030Y-115698449D01*
X133225031Y-115698454D01*
X133284611Y-115868723D01*
X133358449Y-115986234D01*
X133380584Y-116021462D01*
X133508138Y-116149016D01*
X133660878Y-116244989D01*
X133831144Y-116304567D01*
X133831145Y-116304568D01*
X133831150Y-116304569D01*
X134010396Y-116324765D01*
X134010400Y-116324765D01*
X134010404Y-116324765D01*
X134189649Y-116304569D01*
X134189652Y-116304568D01*
X134189655Y-116304568D01*
X134359922Y-116244989D01*
X134512662Y-116149016D01*
X134640216Y-116021462D01*
X134736189Y-115868722D01*
X134795768Y-115698455D01*
X134815965Y-115519200D01*
X134813267Y-115495255D01*
X134795769Y-115339950D01*
X134795768Y-115339945D01*
X134739167Y-115178189D01*
X134736189Y-115169678D01*
X134640216Y-115016938D01*
X134512662Y-114889384D01*
X134512661Y-114889383D01*
X134359923Y-114793411D01*
X134189654Y-114733831D01*
X134189649Y-114733830D01*
X134010404Y-114713635D01*
X134010396Y-114713635D01*
X133831150Y-114733830D01*
X133831145Y-114733831D01*
X133660876Y-114793411D01*
X133508137Y-114889384D01*
X133380584Y-115016937D01*
X133284611Y-115169676D01*
X133225031Y-115339945D01*
X133225030Y-115339950D01*
X133204835Y-115519196D01*
X133204835Y-115519203D01*
X125250500Y-115519203D01*
X125250500Y-113690403D01*
X141078835Y-113690403D01*
X141099030Y-113869649D01*
X141099031Y-113869654D01*
X141158611Y-114039923D01*
X141198169Y-114102878D01*
X141254584Y-114192662D01*
X141382138Y-114320216D01*
X141534878Y-114416189D01*
X141595296Y-114437330D01*
X141705145Y-114475768D01*
X141705150Y-114475769D01*
X141781815Y-114484407D01*
X141846229Y-114511473D01*
X141885784Y-114569068D01*
X141887922Y-114638905D01*
X141855614Y-114695308D01*
X141737183Y-114813739D01*
X141641211Y-114966476D01*
X141581631Y-115136745D01*
X141581630Y-115136750D01*
X141561435Y-115315996D01*
X141561435Y-115316003D01*
X141581630Y-115495249D01*
X141581631Y-115495254D01*
X141641211Y-115665523D01*
X141664840Y-115703128D01*
X141737184Y-115818262D01*
X141864738Y-115945816D01*
X142017478Y-116041789D01*
X142187744Y-116101368D01*
X142187745Y-116101368D01*
X142187750Y-116101369D01*
X142366996Y-116121565D01*
X142367000Y-116121565D01*
X142367004Y-116121565D01*
X142546249Y-116101369D01*
X142546252Y-116101368D01*
X142546255Y-116101368D01*
X142716522Y-116041789D01*
X142869262Y-115945816D01*
X142996816Y-115818262D01*
X143092789Y-115665522D01*
X143152368Y-115495255D01*
X143172565Y-115316000D01*
X143166026Y-115257965D01*
X143152369Y-115136750D01*
X143152368Y-115136745D01*
X143092788Y-114966476D01*
X143044348Y-114889384D01*
X142996816Y-114813738D01*
X142869262Y-114686184D01*
X142869261Y-114686183D01*
X142716523Y-114590211D01*
X142546254Y-114530631D01*
X142546250Y-114530630D01*
X142469583Y-114521992D01*
X142405169Y-114494925D01*
X142365614Y-114437330D01*
X142363477Y-114367493D01*
X142395783Y-114311094D01*
X142514216Y-114192662D01*
X142610189Y-114039922D01*
X142669768Y-113869655D01*
X142669769Y-113869649D01*
X142689965Y-113690403D01*
X142689965Y-113690396D01*
X142669769Y-113511150D01*
X142669768Y-113511145D01*
X142610188Y-113340876D01*
X142531264Y-113215270D01*
X142514216Y-113188138D01*
X142460490Y-113134412D01*
X143560126Y-113134412D01*
X143580321Y-113313658D01*
X143580322Y-113313663D01*
X143639902Y-113483932D01*
X143735875Y-113636671D01*
X143808882Y-113709678D01*
X143842367Y-113771001D01*
X143837383Y-113840693D01*
X143808882Y-113885040D01*
X143743784Y-113950137D01*
X143647811Y-114102876D01*
X143588231Y-114273145D01*
X143588230Y-114273150D01*
X143568035Y-114452396D01*
X143568035Y-114452403D01*
X143588230Y-114631649D01*
X143588231Y-114631654D01*
X143647811Y-114801923D01*
X143655235Y-114813738D01*
X143743784Y-114954662D01*
X143871338Y-115082216D01*
X143958120Y-115136745D01*
X144010529Y-115169676D01*
X144024078Y-115178189D01*
X144194344Y-115237767D01*
X144194345Y-115237768D01*
X144194350Y-115237769D01*
X144373596Y-115257965D01*
X144373600Y-115257965D01*
X144373604Y-115257965D01*
X144426545Y-115252000D01*
X150000000Y-115252000D01*
X153626000Y-115252000D01*
X153693039Y-115271685D01*
X153738794Y-115324489D01*
X153750000Y-115376000D01*
X153750000Y-117752000D01*
X155232871Y-117752000D01*
X155299910Y-117771685D01*
X155345665Y-117824489D01*
X155356091Y-117889883D01*
X155346001Y-117979437D01*
X155346001Y-117979444D01*
X155366196Y-118158690D01*
X155366197Y-118158695D01*
X155425777Y-118328964D01*
X155496586Y-118441655D01*
X155521750Y-118481703D01*
X155649304Y-118609257D01*
X155802044Y-118705230D01*
X155919521Y-118746337D01*
X155972311Y-118764809D01*
X155972316Y-118764810D01*
X156151562Y-118785006D01*
X156151566Y-118785006D01*
X156151570Y-118785006D01*
X156330815Y-118764810D01*
X156330818Y-118764809D01*
X156330821Y-118764809D01*
X156501088Y-118705230D01*
X156653828Y-118609257D01*
X156781382Y-118481703D01*
X156877355Y-118328963D01*
X156936934Y-118158696D01*
X156936935Y-118158690D01*
X156957131Y-117979444D01*
X156957131Y-117979437D01*
X156947041Y-117889883D01*
X156959096Y-117821061D01*
X157006445Y-117769682D01*
X157070261Y-117752000D01*
X157250000Y-117752000D01*
X157250000Y-108502000D01*
X152250000Y-108502000D01*
X152250000Y-110628000D01*
X152230315Y-110695039D01*
X152177511Y-110740794D01*
X152126000Y-110752000D01*
X150000000Y-110752000D01*
X150012400Y-111760000D01*
X152069945Y-111760000D01*
X152136984Y-111779685D01*
X152182739Y-111832489D01*
X152192683Y-111901647D01*
X152163658Y-111965203D01*
X152148610Y-111979853D01*
X152044716Y-112065116D01*
X151919690Y-112217460D01*
X151919686Y-112217467D01*
X151826788Y-112391266D01*
X151769575Y-112579870D01*
X151750259Y-112776000D01*
X151769575Y-112972130D01*
X151769576Y-112972132D01*
X151818803Y-113134412D01*
X151822138Y-113145404D01*
X151822761Y-113215270D01*
X151785513Y-113274383D01*
X151769450Y-113286392D01*
X151643740Y-113365382D01*
X151643737Y-113365384D01*
X151516184Y-113492937D01*
X151420211Y-113645676D01*
X151360631Y-113815945D01*
X151360630Y-113815950D01*
X151340435Y-113995196D01*
X151340435Y-113995203D01*
X151360630Y-114174449D01*
X151360631Y-114174454D01*
X151420211Y-114344723D01*
X151516184Y-114497462D01*
X151559041Y-114540319D01*
X151592526Y-114601642D01*
X151587542Y-114671334D01*
X151545670Y-114727267D01*
X151480206Y-114751684D01*
X151471360Y-114752000D01*
X150000000Y-114752000D01*
X150000000Y-115252000D01*
X144426545Y-115252000D01*
X144552849Y-115237769D01*
X144552852Y-115237768D01*
X144552855Y-115237768D01*
X144723122Y-115178189D01*
X144875862Y-115082216D01*
X145003416Y-114954662D01*
X145099389Y-114801922D01*
X145158968Y-114631655D01*
X145169259Y-114540319D01*
X145179165Y-114452403D01*
X145179165Y-114452396D01*
X145158969Y-114273150D01*
X145158968Y-114273145D01*
X145124435Y-114174455D01*
X145099389Y-114102878D01*
X145003416Y-113950138D01*
X144930409Y-113877131D01*
X144896924Y-113815808D01*
X144901908Y-113746116D01*
X144930409Y-113701769D01*
X144941782Y-113690396D01*
X144995507Y-113636671D01*
X145044980Y-113557935D01*
X148231454Y-113557935D01*
X148251649Y-113737181D01*
X148251650Y-113737186D01*
X148311230Y-113907455D01*
X148366366Y-113995203D01*
X148407203Y-114060194D01*
X148534757Y-114187748D01*
X148687497Y-114283721D01*
X148791791Y-114320215D01*
X148857764Y-114343300D01*
X148857769Y-114343301D01*
X149037015Y-114363497D01*
X149037019Y-114363497D01*
X149037023Y-114363497D01*
X149216268Y-114343301D01*
X149216271Y-114343300D01*
X149216274Y-114343300D01*
X149386541Y-114283721D01*
X149539281Y-114187748D01*
X149666835Y-114060194D01*
X149762808Y-113907454D01*
X149822387Y-113737187D01*
X149822388Y-113737181D01*
X149842584Y-113557935D01*
X149842584Y-113557928D01*
X149822388Y-113378682D01*
X149822387Y-113378677D01*
X149817735Y-113365382D01*
X149762808Y-113208410D01*
X149666835Y-113055670D01*
X149539281Y-112928116D01*
X149502543Y-112905032D01*
X149386542Y-112832143D01*
X149216273Y-112772563D01*
X149216268Y-112772562D01*
X149037023Y-112752367D01*
X149037015Y-112752367D01*
X148857769Y-112772562D01*
X148857764Y-112772563D01*
X148687495Y-112832143D01*
X148534756Y-112928116D01*
X148407203Y-113055669D01*
X148311230Y-113208408D01*
X148251650Y-113378677D01*
X148251649Y-113378682D01*
X148231454Y-113557928D01*
X148231454Y-113557935D01*
X145044980Y-113557935D01*
X145091480Y-113483931D01*
X145151059Y-113313664D01*
X145170224Y-113143566D01*
X145197290Y-113079153D01*
X145254885Y-113039598D01*
X145324722Y-113037460D01*
X145338255Y-113042429D01*
X145338305Y-113042289D01*
X145515145Y-113104168D01*
X145515150Y-113104169D01*
X145694396Y-113124365D01*
X145694400Y-113124365D01*
X145694404Y-113124365D01*
X145873649Y-113104169D01*
X145873652Y-113104168D01*
X145873655Y-113104168D01*
X146043922Y-113044589D01*
X146196662Y-112948616D01*
X146324216Y-112821062D01*
X146420189Y-112668322D01*
X146479768Y-112498055D01*
X146489042Y-112415748D01*
X146499965Y-112318803D01*
X146499965Y-112318796D01*
X146479769Y-112139548D01*
X146468857Y-112108364D01*
X146465294Y-112038586D01*
X146480904Y-112001437D01*
X146572589Y-111855522D01*
X146632168Y-111685255D01*
X146652365Y-111506000D01*
X146632168Y-111326745D01*
X146572589Y-111156478D01*
X146476616Y-111003738D01*
X146349062Y-110876184D01*
X146229072Y-110800789D01*
X146196323Y-110780211D01*
X146026054Y-110720631D01*
X146026049Y-110720630D01*
X145846804Y-110700435D01*
X145846796Y-110700435D01*
X145667550Y-110720630D01*
X145667545Y-110720631D01*
X145497276Y-110780211D01*
X145344537Y-110876184D01*
X145216984Y-111003737D01*
X145121011Y-111156476D01*
X145061431Y-111326745D01*
X145061430Y-111326750D01*
X145041235Y-111505996D01*
X145041235Y-111506003D01*
X145061430Y-111685249D01*
X145061432Y-111685257D01*
X145072343Y-111716438D01*
X145075904Y-111786216D01*
X145060295Y-111823364D01*
X144968611Y-111969276D01*
X144909031Y-112139545D01*
X144909030Y-112139549D01*
X144889866Y-112309642D01*
X144862799Y-112374056D01*
X144805205Y-112413611D01*
X144735368Y-112415748D01*
X144721835Y-112410779D01*
X144721786Y-112410920D01*
X144544945Y-112349040D01*
X144544940Y-112349039D01*
X144365695Y-112328844D01*
X144365687Y-112328844D01*
X144186441Y-112349039D01*
X144186436Y-112349040D01*
X144016167Y-112408620D01*
X143863428Y-112504593D01*
X143735875Y-112632146D01*
X143639902Y-112784885D01*
X143580322Y-112955154D01*
X143580321Y-112955159D01*
X143560126Y-113134405D01*
X143560126Y-113134412D01*
X142460490Y-113134412D01*
X142386662Y-113060584D01*
X142353263Y-113039598D01*
X142233923Y-112964611D01*
X142063654Y-112905031D01*
X142063649Y-112905030D01*
X141884404Y-112884835D01*
X141884396Y-112884835D01*
X141705150Y-112905030D01*
X141705145Y-112905031D01*
X141534876Y-112964611D01*
X141382137Y-113060584D01*
X141254584Y-113188137D01*
X141158611Y-113340876D01*
X141099031Y-113511145D01*
X141099030Y-113511150D01*
X141078835Y-113690396D01*
X141078835Y-113690403D01*
X125250500Y-113690403D01*
X125250500Y-110037870D01*
X126749500Y-110037870D01*
X126749501Y-110037876D01*
X126755908Y-110097483D01*
X126806202Y-110232328D01*
X126806206Y-110232335D01*
X126892452Y-110347544D01*
X126892455Y-110347547D01*
X127007664Y-110433793D01*
X127007671Y-110433797D01*
X127142517Y-110484091D01*
X127142516Y-110484091D01*
X127149444Y-110484835D01*
X127202127Y-110490500D01*
X130297872Y-110490499D01*
X130357483Y-110484091D01*
X130492331Y-110433796D01*
X130607546Y-110347546D01*
X130693796Y-110232331D01*
X130744091Y-110097483D01*
X130746508Y-110075003D01*
X135389235Y-110075003D01*
X135409430Y-110254249D01*
X135409431Y-110254254D01*
X135469011Y-110424523D01*
X135564983Y-110577262D01*
X135564984Y-110577262D01*
X135692538Y-110704816D01*
X135845278Y-110800789D01*
X136015545Y-110860367D01*
X136015545Y-110860368D01*
X136015550Y-110860369D01*
X136194796Y-110880565D01*
X136194800Y-110880565D01*
X136194804Y-110880565D01*
X136374049Y-110860369D01*
X136374052Y-110860368D01*
X136374055Y-110860368D01*
X136544322Y-110800789D01*
X136697062Y-110704816D01*
X136824616Y-110577262D01*
X136920589Y-110424522D01*
X136951003Y-110337603D01*
X140520035Y-110337603D01*
X140540230Y-110516849D01*
X140540231Y-110516854D01*
X140599811Y-110687123D01*
X140658303Y-110780211D01*
X140695784Y-110839862D01*
X140823338Y-110967416D01*
X140976078Y-111063389D01*
X141146345Y-111122968D01*
X141146350Y-111122969D01*
X141325596Y-111143165D01*
X141325600Y-111143165D01*
X141325604Y-111143165D01*
X141504849Y-111122969D01*
X141504852Y-111122968D01*
X141504855Y-111122968D01*
X141675122Y-111063389D01*
X141827862Y-110967416D01*
X141955416Y-110839862D01*
X142051389Y-110687122D01*
X142110968Y-110516855D01*
X142113362Y-110495610D01*
X142131165Y-110337603D01*
X142131165Y-110337596D01*
X142110969Y-110158350D01*
X142110968Y-110158345D01*
X142081803Y-110074996D01*
X142051389Y-109988078D01*
X141955416Y-109835338D01*
X141827862Y-109707784D01*
X141827861Y-109707784D01*
X141675123Y-109611811D01*
X141504854Y-109552231D01*
X141504849Y-109552230D01*
X141325604Y-109532035D01*
X141325596Y-109532035D01*
X141146350Y-109552230D01*
X141146345Y-109552231D01*
X140976076Y-109611811D01*
X140823337Y-109707784D01*
X140695784Y-109835337D01*
X140599811Y-109988076D01*
X140540231Y-110158345D01*
X140540230Y-110158350D01*
X140520035Y-110337596D01*
X140520035Y-110337603D01*
X136951003Y-110337603D01*
X136980168Y-110254255D01*
X136982638Y-110232335D01*
X137000365Y-110075003D01*
X137000365Y-110074996D01*
X136980169Y-109895750D01*
X136980168Y-109895745D01*
X136947853Y-109803395D01*
X136920589Y-109725478D01*
X136824616Y-109572738D01*
X136697062Y-109445184D01*
X136544323Y-109349211D01*
X136374054Y-109289631D01*
X136374049Y-109289630D01*
X136194804Y-109269435D01*
X136194796Y-109269435D01*
X136015550Y-109289630D01*
X136015545Y-109289631D01*
X135845276Y-109349211D01*
X135692537Y-109445184D01*
X135564984Y-109572737D01*
X135469011Y-109725476D01*
X135409431Y-109895745D01*
X135409430Y-109895750D01*
X135389235Y-110074996D01*
X135389235Y-110075003D01*
X130746508Y-110075003D01*
X130750500Y-110037873D01*
X130750499Y-108682463D01*
X141376274Y-108682463D01*
X141396469Y-108861709D01*
X141396470Y-108861714D01*
X141456050Y-109031983D01*
X141543581Y-109171287D01*
X141552023Y-109184722D01*
X141679577Y-109312276D01*
X141738359Y-109349211D01*
X141810933Y-109394813D01*
X141832317Y-109408249D01*
X141937871Y-109445184D01*
X142002584Y-109467828D01*
X142002589Y-109467829D01*
X142181835Y-109488025D01*
X142181839Y-109488025D01*
X142181843Y-109488025D01*
X142361088Y-109467829D01*
X142361091Y-109467828D01*
X142361094Y-109467828D01*
X142531361Y-109408249D01*
X142684101Y-109312276D01*
X142811655Y-109184722D01*
X142907628Y-109031982D01*
X142967207Y-108861715D01*
X142968721Y-108848279D01*
X142980580Y-108743024D01*
X143347580Y-108743024D01*
X143367775Y-108922270D01*
X143367776Y-108922275D01*
X143427356Y-109092544D01*
X143476834Y-109171287D01*
X143523329Y-109245283D01*
X143650883Y-109372837D01*
X143707239Y-109408248D01*
X143802061Y-109467829D01*
X143803623Y-109468810D01*
X143973890Y-109528389D01*
X143973895Y-109528390D01*
X144153141Y-109548586D01*
X144153145Y-109548586D01*
X144153149Y-109548586D01*
X144332394Y-109528390D01*
X144332397Y-109528389D01*
X144332400Y-109528389D01*
X144502667Y-109468810D01*
X144655407Y-109372837D01*
X144782961Y-109245283D01*
X144878934Y-109092543D01*
X144938513Y-108922276D01*
X144945337Y-108861714D01*
X144958710Y-108743024D01*
X144958710Y-108743017D01*
X144950374Y-108669028D01*
X147855057Y-108669028D01*
X147875252Y-108848274D01*
X147875253Y-108848279D01*
X147934833Y-109018548D01*
X147981328Y-109092544D01*
X148030806Y-109171287D01*
X148158360Y-109298841D01*
X148311100Y-109394814D01*
X148455049Y-109445184D01*
X148481367Y-109454393D01*
X148481372Y-109454394D01*
X148660618Y-109474590D01*
X148660622Y-109474590D01*
X148660626Y-109474590D01*
X148839871Y-109454394D01*
X148839874Y-109454393D01*
X148839877Y-109454393D01*
X149010144Y-109394814D01*
X149162884Y-109298841D01*
X149290438Y-109171287D01*
X149386411Y-109018547D01*
X149445990Y-108848280D01*
X149454198Y-108775433D01*
X149466187Y-108669028D01*
X149466187Y-108669021D01*
X149446016Y-108490001D01*
X159744390Y-108490001D01*
X159764804Y-108775433D01*
X159825628Y-109055037D01*
X159925635Y-109323166D01*
X160062770Y-109574309D01*
X160062775Y-109574317D01*
X160234254Y-109803387D01*
X160234270Y-109803405D01*
X160436594Y-110005729D01*
X160436612Y-110005745D01*
X160665682Y-110177224D01*
X160665690Y-110177229D01*
X160916833Y-110314364D01*
X160916832Y-110314364D01*
X160916836Y-110314365D01*
X160916839Y-110314367D01*
X161184954Y-110414369D01*
X161184960Y-110414370D01*
X161184962Y-110414371D01*
X161464566Y-110475195D01*
X161464568Y-110475195D01*
X161464572Y-110475196D01*
X161718220Y-110493337D01*
X161749999Y-110495610D01*
X161750000Y-110495610D01*
X161750001Y-110495610D01*
X161778595Y-110493564D01*
X162035428Y-110475196D01*
X162225742Y-110433796D01*
X162315037Y-110414371D01*
X162315037Y-110414370D01*
X162315046Y-110414369D01*
X162583161Y-110314367D01*
X162834315Y-110177226D01*
X163063395Y-110005739D01*
X163265739Y-109803395D01*
X163437226Y-109574315D01*
X163574367Y-109323161D01*
X163674369Y-109055046D01*
X163703251Y-108922276D01*
X163735195Y-108775433D01*
X163735195Y-108775432D01*
X163735196Y-108775428D01*
X163755610Y-108490000D01*
X163735196Y-108204572D01*
X163733749Y-108197922D01*
X163674371Y-107924962D01*
X163674370Y-107924960D01*
X163674369Y-107924954D01*
X163574367Y-107656839D01*
X163550191Y-107612565D01*
X163437229Y-107405690D01*
X163437224Y-107405682D01*
X163265745Y-107176612D01*
X163265729Y-107176594D01*
X163063405Y-106974270D01*
X163063387Y-106974254D01*
X162834317Y-106802775D01*
X162834309Y-106802770D01*
X162583166Y-106665635D01*
X162583167Y-106665635D01*
X162365737Y-106584538D01*
X162315046Y-106565631D01*
X162315043Y-106565630D01*
X162315037Y-106565628D01*
X162035433Y-106504804D01*
X161750001Y-106484390D01*
X161749999Y-106484390D01*
X161464566Y-106504804D01*
X161184962Y-106565628D01*
X160916833Y-106665635D01*
X160665690Y-106802770D01*
X160665682Y-106802775D01*
X160436612Y-106974254D01*
X160436594Y-106974270D01*
X160234270Y-107176594D01*
X160234254Y-107176612D01*
X160062775Y-107405682D01*
X160062770Y-107405690D01*
X159925635Y-107656833D01*
X159825628Y-107924962D01*
X159764804Y-108204566D01*
X159744390Y-108489998D01*
X159744390Y-108490001D01*
X149446016Y-108490001D01*
X149445991Y-108489775D01*
X149445990Y-108489770D01*
X149412303Y-108393499D01*
X149386411Y-108319503D01*
X149290438Y-108166763D01*
X149162884Y-108039209D01*
X149144494Y-108027654D01*
X149010145Y-107943236D01*
X148839876Y-107883656D01*
X148839871Y-107883655D01*
X148660626Y-107863460D01*
X148660618Y-107863460D01*
X148481372Y-107883655D01*
X148481367Y-107883656D01*
X148311098Y-107943236D01*
X148158359Y-108039209D01*
X148030806Y-108166762D01*
X147934833Y-108319501D01*
X147875253Y-108489770D01*
X147875252Y-108489775D01*
X147855057Y-108669021D01*
X147855057Y-108669028D01*
X144950374Y-108669028D01*
X144938514Y-108563771D01*
X144938513Y-108563766D01*
X144878934Y-108393499D01*
X144782961Y-108240759D01*
X144655407Y-108113205D01*
X144559025Y-108052644D01*
X144502668Y-108017232D01*
X144332399Y-107957652D01*
X144332394Y-107957651D01*
X144153149Y-107937456D01*
X144153141Y-107937456D01*
X143973895Y-107957651D01*
X143973890Y-107957652D01*
X143803621Y-108017232D01*
X143650882Y-108113205D01*
X143523329Y-108240758D01*
X143427356Y-108393497D01*
X143367776Y-108563766D01*
X143367775Y-108563771D01*
X143347580Y-108743017D01*
X143347580Y-108743024D01*
X142980580Y-108743024D01*
X142987404Y-108682463D01*
X142987404Y-108682456D01*
X142967208Y-108503210D01*
X142967207Y-108503205D01*
X142928819Y-108393499D01*
X142907628Y-108332938D01*
X142811655Y-108180198D01*
X142684101Y-108052644D01*
X142662719Y-108039209D01*
X142531362Y-107956671D01*
X142361093Y-107897091D01*
X142361088Y-107897090D01*
X142181843Y-107876895D01*
X142181835Y-107876895D01*
X142002589Y-107897090D01*
X142002584Y-107897091D01*
X141832315Y-107956671D01*
X141679576Y-108052644D01*
X141552023Y-108180197D01*
X141456050Y-108332936D01*
X141396470Y-108503205D01*
X141396469Y-108503210D01*
X141376274Y-108682456D01*
X141376274Y-108682463D01*
X130750499Y-108682463D01*
X130750499Y-107848403D01*
X134728835Y-107848403D01*
X134749030Y-108027649D01*
X134749031Y-108027654D01*
X134808611Y-108197923D01*
X134835527Y-108240759D01*
X134904584Y-108350662D01*
X135032138Y-108478216D01*
X135184878Y-108574189D01*
X135355145Y-108633767D01*
X135355145Y-108633768D01*
X135355150Y-108633769D01*
X135534396Y-108653965D01*
X135534400Y-108653965D01*
X135534404Y-108653965D01*
X135713649Y-108633769D01*
X135713652Y-108633768D01*
X135713655Y-108633768D01*
X135883922Y-108574189D01*
X136036662Y-108478216D01*
X136164216Y-108350662D01*
X136260189Y-108197922D01*
X136319768Y-108027655D01*
X136319769Y-108027649D01*
X136339965Y-107848403D01*
X136339965Y-107848396D01*
X136319769Y-107669150D01*
X136319768Y-107669145D01*
X136292903Y-107592369D01*
X136260189Y-107498878D01*
X136164216Y-107346138D01*
X136036662Y-107218584D01*
X135969853Y-107176605D01*
X135883923Y-107122611D01*
X135713654Y-107063031D01*
X135713649Y-107063030D01*
X135534404Y-107042835D01*
X135534396Y-107042835D01*
X135355150Y-107063030D01*
X135355145Y-107063031D01*
X135184876Y-107122611D01*
X135032137Y-107218584D01*
X134904584Y-107346137D01*
X134808611Y-107498876D01*
X134749031Y-107669145D01*
X134749030Y-107669150D01*
X134728835Y-107848396D01*
X134728835Y-107848403D01*
X130750499Y-107848403D01*
X130750499Y-106942128D01*
X130744091Y-106882517D01*
X130729274Y-106842791D01*
X130715926Y-106807003D01*
X138767435Y-106807003D01*
X138787630Y-106986249D01*
X138787631Y-106986254D01*
X138847211Y-107156523D01*
X138859834Y-107176612D01*
X138943184Y-107309262D01*
X139070738Y-107436816D01*
X139223478Y-107532789D01*
X139393745Y-107592368D01*
X139393750Y-107592369D01*
X139572996Y-107612565D01*
X139573000Y-107612565D01*
X139573004Y-107612565D01*
X139752249Y-107592369D01*
X139752252Y-107592368D01*
X139752255Y-107592368D01*
X139922522Y-107532789D01*
X140075262Y-107436816D01*
X140202816Y-107309262D01*
X140298789Y-107156522D01*
X140358368Y-106986255D01*
X140358369Y-106986249D01*
X140378565Y-106807003D01*
X140378565Y-106806996D01*
X140358369Y-106627750D01*
X140358368Y-106627745D01*
X140355401Y-106619265D01*
X140298789Y-106457478D01*
X140202816Y-106304738D01*
X140075262Y-106177184D01*
X140075261Y-106177184D01*
X139922523Y-106081211D01*
X139752254Y-106021631D01*
X139752249Y-106021630D01*
X139573004Y-106001435D01*
X139572996Y-106001435D01*
X139393750Y-106021630D01*
X139393745Y-106021631D01*
X139223476Y-106081211D01*
X139070737Y-106177184D01*
X138943184Y-106304737D01*
X138847211Y-106457476D01*
X138787631Y-106627745D01*
X138787630Y-106627750D01*
X138767435Y-106806996D01*
X138767435Y-106807003D01*
X130715926Y-106807003D01*
X130693797Y-106747671D01*
X130693793Y-106747664D01*
X130607547Y-106632455D01*
X130607544Y-106632452D01*
X130492335Y-106546206D01*
X130492328Y-106546202D01*
X130357482Y-106495908D01*
X130357483Y-106495908D01*
X130297883Y-106489501D01*
X130297881Y-106489500D01*
X130297873Y-106489500D01*
X130297864Y-106489500D01*
X127202129Y-106489500D01*
X127202123Y-106489501D01*
X127142516Y-106495908D01*
X127007671Y-106546202D01*
X127007664Y-106546206D01*
X126892455Y-106632452D01*
X126892452Y-106632455D01*
X126806206Y-106747664D01*
X126806202Y-106747671D01*
X126755908Y-106882517D01*
X126749501Y-106942116D01*
X126749501Y-106942123D01*
X126749500Y-106942135D01*
X126749500Y-110037870D01*
X125250500Y-110037870D01*
X125250500Y-105954726D01*
X142820935Y-105954726D01*
X142841130Y-106133972D01*
X142841131Y-106133977D01*
X142900711Y-106304246D01*
X142961501Y-106400992D01*
X142996684Y-106456985D01*
X143124238Y-106584539D01*
X143276978Y-106680512D01*
X143447245Y-106740090D01*
X143447245Y-106740091D01*
X143447250Y-106740092D01*
X143626496Y-106760288D01*
X143626500Y-106760288D01*
X143626504Y-106760288D01*
X143805749Y-106740092D01*
X143805752Y-106740091D01*
X143805755Y-106740091D01*
X143976022Y-106680512D01*
X144128762Y-106584539D01*
X144256316Y-106456985D01*
X144262224Y-106447582D01*
X144314555Y-106401291D01*
X144383609Y-106390641D01*
X144412495Y-106399282D01*
X144412702Y-106398692D01*
X144419274Y-106400991D01*
X144419275Y-106400992D01*
X144552427Y-106447584D01*
X144589542Y-106460571D01*
X144589547Y-106460572D01*
X144768793Y-106480768D01*
X144768797Y-106480768D01*
X144768801Y-106480768D01*
X144948046Y-106460572D01*
X144948049Y-106460571D01*
X144948052Y-106460571D01*
X145118319Y-106400992D01*
X145271059Y-106305019D01*
X145398613Y-106177465D01*
X145494586Y-106024725D01*
X145554165Y-105854458D01*
X145557197Y-105827547D01*
X145574362Y-105675206D01*
X145574362Y-105675199D01*
X145560871Y-105555460D01*
X145897892Y-105555460D01*
X145918087Y-105734706D01*
X145918088Y-105734711D01*
X145977668Y-105904980D01*
X146038275Y-106001435D01*
X146073641Y-106057719D01*
X146201195Y-106185273D01*
X146353935Y-106281246D01*
X146524201Y-106340825D01*
X146524202Y-106340825D01*
X146524207Y-106340826D01*
X146703453Y-106361022D01*
X146703457Y-106361022D01*
X146703461Y-106361022D01*
X146882706Y-106340826D01*
X146882709Y-106340825D01*
X146882712Y-106340825D01*
X147052979Y-106281246D01*
X147205719Y-106185273D01*
X147273986Y-106117006D01*
X149253438Y-106117006D01*
X149273633Y-106296252D01*
X149273634Y-106296257D01*
X149333214Y-106466526D01*
X149407367Y-106584539D01*
X149429187Y-106619265D01*
X149556741Y-106746819D01*
X149709481Y-106842792D01*
X149823006Y-106882516D01*
X149879748Y-106902371D01*
X149879753Y-106902372D01*
X150058999Y-106922568D01*
X150059003Y-106922568D01*
X150059007Y-106922568D01*
X150238252Y-106902372D01*
X150238255Y-106902371D01*
X150238258Y-106902371D01*
X150408525Y-106842792D01*
X150561265Y-106746819D01*
X150688819Y-106619265D01*
X150784792Y-106466525D01*
X150844371Y-106296258D01*
X150844372Y-106296252D01*
X150864568Y-106117006D01*
X150864568Y-106116999D01*
X150844372Y-105937753D01*
X150844371Y-105937748D01*
X150832905Y-105904979D01*
X150784792Y-105767481D01*
X150688819Y-105614741D01*
X150561265Y-105487187D01*
X150505999Y-105452461D01*
X150408526Y-105391214D01*
X150238257Y-105331634D01*
X150238252Y-105331633D01*
X150059007Y-105311438D01*
X150058999Y-105311438D01*
X149879753Y-105331633D01*
X149879748Y-105331634D01*
X149709479Y-105391214D01*
X149556740Y-105487187D01*
X149429187Y-105614740D01*
X149333214Y-105767479D01*
X149273634Y-105937748D01*
X149273633Y-105937753D01*
X149253438Y-106116999D01*
X149253438Y-106117006D01*
X147273986Y-106117006D01*
X147333273Y-106057719D01*
X147429246Y-105904979D01*
X147488825Y-105734712D01*
X147488826Y-105734706D01*
X147509022Y-105555460D01*
X147509022Y-105555453D01*
X147488826Y-105376207D01*
X147488825Y-105376202D01*
X147439195Y-105234367D01*
X147429246Y-105205935D01*
X147408514Y-105172941D01*
X147360941Y-105097229D01*
X147333273Y-105053195D01*
X147205719Y-104925641D01*
X147052980Y-104829668D01*
X146882711Y-104770088D01*
X146882706Y-104770087D01*
X146703461Y-104749892D01*
X146703453Y-104749892D01*
X146524207Y-104770087D01*
X146524202Y-104770088D01*
X146353933Y-104829668D01*
X146201194Y-104925641D01*
X146073641Y-105053194D01*
X145977668Y-105205933D01*
X145918088Y-105376202D01*
X145918087Y-105376207D01*
X145897892Y-105555453D01*
X145897892Y-105555460D01*
X145560871Y-105555460D01*
X145554166Y-105495953D01*
X145554165Y-105495948D01*
X145538948Y-105452460D01*
X145494586Y-105325681D01*
X145398613Y-105172941D01*
X145271059Y-105045387D01*
X145118320Y-104949414D01*
X144948051Y-104889834D01*
X144948046Y-104889833D01*
X144768801Y-104869638D01*
X144768793Y-104869638D01*
X144589547Y-104889833D01*
X144589542Y-104889834D01*
X144419273Y-104949414D01*
X144266534Y-105045387D01*
X144138982Y-105172939D01*
X144133071Y-105182347D01*
X144080735Y-105228637D01*
X144011682Y-105239284D01*
X143982800Y-105230643D01*
X143982594Y-105231233D01*
X143805762Y-105169356D01*
X143805749Y-105169353D01*
X143626504Y-105149158D01*
X143626496Y-105149158D01*
X143447250Y-105169353D01*
X143447245Y-105169354D01*
X143276976Y-105228934D01*
X143124237Y-105324907D01*
X142996684Y-105452460D01*
X142900711Y-105605199D01*
X142841131Y-105775468D01*
X142841130Y-105775473D01*
X142820935Y-105954719D01*
X142820935Y-105954726D01*
X125250500Y-105954726D01*
X125250500Y-103410001D01*
X126744390Y-103410001D01*
X126764804Y-103695433D01*
X126825628Y-103975037D01*
X126925635Y-104243166D01*
X127062770Y-104494309D01*
X127062775Y-104494317D01*
X127234254Y-104723387D01*
X127234270Y-104723405D01*
X127436594Y-104925729D01*
X127436612Y-104925745D01*
X127665682Y-105097224D01*
X127665690Y-105097229D01*
X127916833Y-105234364D01*
X127916832Y-105234364D01*
X127916836Y-105234365D01*
X127916839Y-105234367D01*
X128184954Y-105334369D01*
X128184960Y-105334370D01*
X128184962Y-105334371D01*
X128464566Y-105395195D01*
X128464568Y-105395195D01*
X128464572Y-105395196D01*
X128718220Y-105413337D01*
X128749999Y-105415610D01*
X128750000Y-105415610D01*
X128750001Y-105415610D01*
X128778595Y-105413564D01*
X129035428Y-105395196D01*
X129122720Y-105376207D01*
X129315037Y-105334371D01*
X129315037Y-105334370D01*
X129315046Y-105334369D01*
X129583161Y-105234367D01*
X129834315Y-105097226D01*
X130063395Y-104925739D01*
X130265739Y-104723395D01*
X130437226Y-104494315D01*
X130574367Y-104243161D01*
X130674369Y-103975046D01*
X130735196Y-103695428D01*
X130755434Y-103412455D01*
X130755610Y-103410001D01*
X130755610Y-103409998D01*
X130744455Y-103254035D01*
X130735196Y-103124572D01*
X130730194Y-103101580D01*
X130674371Y-102844962D01*
X130674370Y-102844960D01*
X130674369Y-102844954D01*
X130574367Y-102576839D01*
X130564878Y-102559462D01*
X130437229Y-102325690D01*
X130437224Y-102325682D01*
X130265745Y-102096612D01*
X130265729Y-102096594D01*
X130124738Y-101955603D01*
X134424035Y-101955603D01*
X134444230Y-102134849D01*
X134444231Y-102134854D01*
X134503811Y-102305123D01*
X134567651Y-102406723D01*
X134599784Y-102457862D01*
X134727338Y-102585416D01*
X134880078Y-102681389D01*
X135050345Y-102740968D01*
X135090764Y-102745521D01*
X135155177Y-102772587D01*
X135194733Y-102830181D01*
X135199813Y-102862046D01*
X135200101Y-102862014D01*
X135200806Y-102868272D01*
X135200881Y-102868742D01*
X135200881Y-102868936D01*
X135221076Y-103048182D01*
X135221077Y-103048187D01*
X135280657Y-103218456D01*
X135376629Y-103371195D01*
X135376630Y-103371195D01*
X135504184Y-103498749D01*
X135591028Y-103553317D01*
X135656920Y-103594720D01*
X135656924Y-103594722D01*
X135742782Y-103624765D01*
X135827191Y-103654301D01*
X135827196Y-103654302D01*
X136006442Y-103674498D01*
X136006446Y-103674498D01*
X136006450Y-103674498D01*
X136185695Y-103654302D01*
X136185697Y-103654301D01*
X136185701Y-103654301D01*
X136185704Y-103654299D01*
X136185708Y-103654299D01*
X136236746Y-103636439D01*
X136355968Y-103594722D01*
X136391621Y-103572319D01*
X136458854Y-103553317D01*
X136498547Y-103560269D01*
X136532986Y-103572320D01*
X136625140Y-103604567D01*
X136625150Y-103604569D01*
X136804396Y-103624765D01*
X136804400Y-103624765D01*
X136804404Y-103624765D01*
X136983649Y-103604569D01*
X136983652Y-103604568D01*
X136983655Y-103604568D01*
X137153922Y-103544989D01*
X137306662Y-103449016D01*
X137434216Y-103321462D01*
X137530189Y-103168722D01*
X137589768Y-102998455D01*
X137595071Y-102951395D01*
X137606123Y-102853300D01*
X137633189Y-102788886D01*
X137690784Y-102749331D01*
X137760621Y-102747193D01*
X137817024Y-102779502D01*
X137826138Y-102788616D01*
X137898826Y-102834289D01*
X137953961Y-102868933D01*
X137978878Y-102884589D01*
X138005399Y-102893869D01*
X138149145Y-102944168D01*
X138149150Y-102944169D01*
X138328396Y-102964365D01*
X138328400Y-102964365D01*
X138328404Y-102964365D01*
X138507649Y-102944169D01*
X138507652Y-102944168D01*
X138507655Y-102944168D01*
X138677922Y-102884589D01*
X138830662Y-102788616D01*
X138958216Y-102661062D01*
X139054189Y-102508322D01*
X139113768Y-102338055D01*
X139113769Y-102338049D01*
X139133965Y-102158803D01*
X139133965Y-102158796D01*
X139128298Y-102108503D01*
X141598031Y-102108503D01*
X141618226Y-102287749D01*
X141618227Y-102287754D01*
X141677807Y-102458023D01*
X141709413Y-102508323D01*
X141773780Y-102610762D01*
X141901334Y-102738316D01*
X142054074Y-102834289D01*
X142197820Y-102884588D01*
X142224341Y-102893868D01*
X142224346Y-102893869D01*
X142403592Y-102914065D01*
X142403596Y-102914065D01*
X142403600Y-102914065D01*
X142582845Y-102893869D01*
X142582848Y-102893868D01*
X142582851Y-102893868D01*
X142753118Y-102834289D01*
X142905858Y-102738316D01*
X143033412Y-102610762D01*
X143129385Y-102458022D01*
X143188964Y-102287755D01*
X143194744Y-102236455D01*
X143209161Y-102108503D01*
X143209161Y-102108496D01*
X143203382Y-102057203D01*
X144787235Y-102057203D01*
X144807430Y-102236449D01*
X144807431Y-102236454D01*
X144867011Y-102406723D01*
X144930851Y-102508323D01*
X144962984Y-102559462D01*
X145090538Y-102687016D01*
X145243278Y-102782989D01*
X145260131Y-102788886D01*
X145413545Y-102842568D01*
X145413550Y-102842569D01*
X145592796Y-102862765D01*
X145592800Y-102862765D01*
X145592804Y-102862765D01*
X145772049Y-102842569D01*
X145772052Y-102842568D01*
X145772055Y-102842568D01*
X145942322Y-102782989D01*
X146095062Y-102687016D01*
X146222616Y-102559462D01*
X146318589Y-102406722D01*
X146378168Y-102236455D01*
X146378169Y-102236449D01*
X146395796Y-102080000D01*
X154394341Y-102080000D01*
X154414936Y-102315403D01*
X154414938Y-102315413D01*
X154476094Y-102543655D01*
X154476096Y-102543659D01*
X154476097Y-102543663D01*
X154542944Y-102687016D01*
X154575965Y-102757830D01*
X154575967Y-102757834D01*
X154642814Y-102853300D01*
X154711501Y-102951396D01*
X154711506Y-102951402D01*
X154833430Y-103073326D01*
X154866915Y-103134649D01*
X154861931Y-103204341D01*
X154820059Y-103260274D01*
X154789083Y-103277189D01*
X154657669Y-103326203D01*
X154657664Y-103326206D01*
X154542455Y-103412452D01*
X154542452Y-103412455D01*
X154456206Y-103527664D01*
X154456202Y-103527671D01*
X154405908Y-103662517D01*
X154399501Y-103722116D01*
X154399501Y-103722123D01*
X154399500Y-103722135D01*
X154399500Y-105517870D01*
X154399501Y-105517876D01*
X154405908Y-105577483D01*
X154456202Y-105712328D01*
X154456206Y-105712335D01*
X154542452Y-105827544D01*
X154542455Y-105827547D01*
X154657664Y-105913793D01*
X154657671Y-105913797D01*
X154792517Y-105964091D01*
X154792516Y-105964091D01*
X154799444Y-105964835D01*
X154852127Y-105970500D01*
X156647872Y-105970499D01*
X156707483Y-105964091D01*
X156842331Y-105913796D01*
X156957546Y-105827546D01*
X157043796Y-105712331D01*
X157094091Y-105577483D01*
X157100500Y-105517873D01*
X157100499Y-103722128D01*
X157094091Y-103662517D01*
X157080010Y-103624765D01*
X157043797Y-103527671D01*
X157043793Y-103527664D01*
X156957547Y-103412455D01*
X156957544Y-103412452D01*
X156954270Y-103410001D01*
X159744390Y-103410001D01*
X159764804Y-103695433D01*
X159825628Y-103975037D01*
X159925635Y-104243166D01*
X160062770Y-104494309D01*
X160062775Y-104494317D01*
X160234254Y-104723387D01*
X160234270Y-104723405D01*
X160436594Y-104925729D01*
X160436612Y-104925745D01*
X160665682Y-105097224D01*
X160665690Y-105097229D01*
X160916833Y-105234364D01*
X160916832Y-105234364D01*
X160916836Y-105234365D01*
X160916839Y-105234367D01*
X161184954Y-105334369D01*
X161184960Y-105334370D01*
X161184962Y-105334371D01*
X161464566Y-105395195D01*
X161464568Y-105395195D01*
X161464572Y-105395196D01*
X161718220Y-105413337D01*
X161749999Y-105415610D01*
X161750000Y-105415610D01*
X161750001Y-105415610D01*
X161778595Y-105413564D01*
X162035428Y-105395196D01*
X162122720Y-105376207D01*
X162315037Y-105334371D01*
X162315037Y-105334370D01*
X162315046Y-105334369D01*
X162583161Y-105234367D01*
X162834315Y-105097226D01*
X163063395Y-104925739D01*
X163265739Y-104723395D01*
X163437226Y-104494315D01*
X163574367Y-104243161D01*
X163674369Y-103975046D01*
X163735196Y-103695428D01*
X163755434Y-103412455D01*
X163755610Y-103410001D01*
X163755610Y-103409998D01*
X163744455Y-103254035D01*
X163735196Y-103124572D01*
X163730194Y-103101580D01*
X163674371Y-102844962D01*
X163674370Y-102844960D01*
X163674369Y-102844954D01*
X163574367Y-102576839D01*
X163564878Y-102559462D01*
X163437229Y-102325690D01*
X163437224Y-102325682D01*
X163265745Y-102096612D01*
X163265729Y-102096594D01*
X163063405Y-101894270D01*
X163063387Y-101894254D01*
X162834317Y-101722775D01*
X162834309Y-101722770D01*
X162583166Y-101585635D01*
X162583167Y-101585635D01*
X162466083Y-101541965D01*
X162315046Y-101485631D01*
X162315043Y-101485630D01*
X162315037Y-101485628D01*
X162035433Y-101424804D01*
X161750001Y-101404390D01*
X161749999Y-101404390D01*
X161464566Y-101424804D01*
X161184962Y-101485628D01*
X160916833Y-101585635D01*
X160665690Y-101722770D01*
X160665682Y-101722775D01*
X160436612Y-101894254D01*
X160436594Y-101894270D01*
X160234270Y-102096594D01*
X160234254Y-102096612D01*
X160062775Y-102325682D01*
X160062770Y-102325690D01*
X159925635Y-102576833D01*
X159825628Y-102844962D01*
X159764804Y-103124566D01*
X159744390Y-103409998D01*
X159744390Y-103410001D01*
X156954270Y-103410001D01*
X156842335Y-103326206D01*
X156842328Y-103326202D01*
X156710917Y-103277189D01*
X156654983Y-103235318D01*
X156630566Y-103169853D01*
X156645418Y-103101580D01*
X156666563Y-103073332D01*
X156788495Y-102951401D01*
X156924035Y-102757830D01*
X157023903Y-102543663D01*
X157085063Y-102315408D01*
X157105659Y-102080000D01*
X157103664Y-102057203D01*
X157098165Y-101994348D01*
X157085063Y-101844592D01*
X157023903Y-101616337D01*
X156924035Y-101402171D01*
X156903912Y-101373431D01*
X156788494Y-101208597D01*
X156621402Y-101041506D01*
X156621401Y-101041505D01*
X156441669Y-100915655D01*
X156435841Y-100911574D01*
X156392216Y-100856997D01*
X156385024Y-100787498D01*
X156416546Y-100725144D01*
X156435836Y-100708428D01*
X156621401Y-100578495D01*
X156788495Y-100411401D01*
X156924035Y-100217830D01*
X157023903Y-100003663D01*
X157085063Y-99775408D01*
X157105659Y-99540000D01*
X157102114Y-99499487D01*
X157094662Y-99414309D01*
X157085063Y-99304592D01*
X157023903Y-99076337D01*
X156924035Y-98862171D01*
X156844879Y-98749123D01*
X156788494Y-98668597D01*
X156621402Y-98501506D01*
X156621396Y-98501501D01*
X156435842Y-98371575D01*
X156402611Y-98330001D01*
X159744390Y-98330001D01*
X159764804Y-98615433D01*
X159825628Y-98895037D01*
X159825630Y-98895043D01*
X159825631Y-98895046D01*
X159911545Y-99125389D01*
X159925635Y-99163166D01*
X160062770Y-99414309D01*
X160062775Y-99414317D01*
X160234254Y-99643387D01*
X160234270Y-99643405D01*
X160436594Y-99845729D01*
X160436612Y-99845745D01*
X160665682Y-100017224D01*
X160665690Y-100017229D01*
X160916833Y-100154364D01*
X160916832Y-100154364D01*
X160916836Y-100154365D01*
X160916839Y-100154367D01*
X161184954Y-100254369D01*
X161184960Y-100254370D01*
X161184962Y-100254371D01*
X161464566Y-100315195D01*
X161464568Y-100315195D01*
X161464572Y-100315196D01*
X161718220Y-100333337D01*
X161749999Y-100335610D01*
X161750000Y-100335610D01*
X161750001Y-100335610D01*
X161778595Y-100333564D01*
X162035428Y-100315196D01*
X162107118Y-100299601D01*
X162315037Y-100254371D01*
X162315037Y-100254370D01*
X162315046Y-100254369D01*
X162583161Y-100154367D01*
X162834315Y-100017226D01*
X163063395Y-99845739D01*
X163265739Y-99643395D01*
X163437226Y-99414315D01*
X163574367Y-99163161D01*
X163674369Y-98895046D01*
X163679890Y-98869668D01*
X163735195Y-98615433D01*
X163735195Y-98615432D01*
X163735196Y-98615428D01*
X163755610Y-98330000D01*
X163735196Y-98044572D01*
X163703167Y-97897338D01*
X163674371Y-97764962D01*
X163674370Y-97764960D01*
X163674369Y-97764954D01*
X163574367Y-97496839D01*
X163556251Y-97463663D01*
X163437229Y-97245690D01*
X163437224Y-97245682D01*
X163265745Y-97016612D01*
X163265729Y-97016594D01*
X163063405Y-96814270D01*
X163063387Y-96814254D01*
X162834317Y-96642775D01*
X162834309Y-96642770D01*
X162583166Y-96505635D01*
X162583167Y-96505635D01*
X162475914Y-96465632D01*
X162315046Y-96405631D01*
X162315043Y-96405630D01*
X162315037Y-96405628D01*
X162035433Y-96344804D01*
X161750001Y-96324390D01*
X161749999Y-96324390D01*
X161464566Y-96344804D01*
X161184962Y-96405628D01*
X160916833Y-96505635D01*
X160665690Y-96642770D01*
X160665682Y-96642775D01*
X160436612Y-96814254D01*
X160436594Y-96814270D01*
X160234270Y-97016594D01*
X160234254Y-97016612D01*
X160062775Y-97245682D01*
X160062770Y-97245690D01*
X159925635Y-97496833D01*
X159825628Y-97764962D01*
X159764804Y-98044566D01*
X159744390Y-98329998D01*
X159744390Y-98330001D01*
X156402611Y-98330001D01*
X156392217Y-98316998D01*
X156385023Y-98247500D01*
X156416546Y-98185145D01*
X156435842Y-98168425D01*
X156458026Y-98152891D01*
X156621401Y-98038495D01*
X156788495Y-97871401D01*
X156924035Y-97677830D01*
X157023903Y-97463663D01*
X157085063Y-97235408D01*
X157105659Y-97000000D01*
X157085063Y-96764592D01*
X157023903Y-96536337D01*
X156924035Y-96322171D01*
X156901471Y-96289945D01*
X156788494Y-96128597D01*
X156621402Y-95961506D01*
X156621395Y-95961501D01*
X156427834Y-95825967D01*
X156427830Y-95825965D01*
X156427830Y-95825964D01*
X156213663Y-95726097D01*
X156213659Y-95726096D01*
X156213655Y-95726094D01*
X155985413Y-95664938D01*
X155985403Y-95664936D01*
X155750001Y-95644341D01*
X155749999Y-95644341D01*
X155514596Y-95664936D01*
X155514586Y-95664938D01*
X155286344Y-95726094D01*
X155286335Y-95726098D01*
X155072171Y-95825964D01*
X155072169Y-95825965D01*
X154878597Y-95961505D01*
X154711505Y-96128597D01*
X154575965Y-96322169D01*
X154575964Y-96322171D01*
X154476098Y-96536335D01*
X154476094Y-96536344D01*
X154414938Y-96764586D01*
X154414936Y-96764596D01*
X154394341Y-96999999D01*
X154394341Y-97000000D01*
X154414936Y-97235403D01*
X154414938Y-97235413D01*
X154476094Y-97463655D01*
X154476096Y-97463659D01*
X154476097Y-97463663D01*
X154536891Y-97594035D01*
X154575965Y-97677830D01*
X154575967Y-97677834D01*
X154711501Y-97871395D01*
X154711506Y-97871402D01*
X154878597Y-98038493D01*
X154878603Y-98038498D01*
X155064158Y-98168425D01*
X155107783Y-98223002D01*
X155114977Y-98292500D01*
X155083454Y-98354855D01*
X155064158Y-98371575D01*
X154878597Y-98501505D01*
X154711505Y-98668597D01*
X154575965Y-98862169D01*
X154575964Y-98862171D01*
X154476098Y-99076335D01*
X154476094Y-99076344D01*
X154414938Y-99304586D01*
X154414936Y-99304596D01*
X154394341Y-99539999D01*
X154394341Y-99540000D01*
X154414936Y-99775403D01*
X154414938Y-99775413D01*
X154476094Y-100003655D01*
X154476096Y-100003659D01*
X154476097Y-100003663D01*
X154479337Y-100010611D01*
X154575965Y-100217830D01*
X154575967Y-100217834D01*
X154711501Y-100411395D01*
X154711506Y-100411402D01*
X154878597Y-100578493D01*
X154878603Y-100578498D01*
X155064158Y-100708425D01*
X155107783Y-100763002D01*
X155114977Y-100832500D01*
X155083454Y-100894855D01*
X155064158Y-100911575D01*
X154878597Y-101041505D01*
X154711505Y-101208597D01*
X154575965Y-101402169D01*
X154575964Y-101402171D01*
X154476098Y-101616335D01*
X154476094Y-101616344D01*
X154414938Y-101844586D01*
X154414936Y-101844596D01*
X154394341Y-102079999D01*
X154394341Y-102080000D01*
X146395796Y-102080000D01*
X146398365Y-102057203D01*
X146398365Y-102057196D01*
X146378169Y-101877950D01*
X146378168Y-101877945D01*
X146342618Y-101776350D01*
X146318589Y-101707678D01*
X146222616Y-101554938D01*
X146095062Y-101427384D01*
X146090956Y-101424804D01*
X145942323Y-101331411D01*
X145772054Y-101271831D01*
X145772049Y-101271830D01*
X145592804Y-101251635D01*
X145592796Y-101251635D01*
X145413550Y-101271830D01*
X145413545Y-101271831D01*
X145243276Y-101331411D01*
X145090537Y-101427384D01*
X144962984Y-101554937D01*
X144867011Y-101707676D01*
X144807431Y-101877945D01*
X144807430Y-101877950D01*
X144787235Y-102057196D01*
X144787235Y-102057203D01*
X143203382Y-102057203D01*
X143188965Y-101929250D01*
X143188964Y-101929245D01*
X143159344Y-101844596D01*
X143129385Y-101758978D01*
X143106636Y-101722774D01*
X143090178Y-101696580D01*
X143033412Y-101606238D01*
X142905858Y-101478684D01*
X142905858Y-101478683D01*
X142753119Y-101382711D01*
X142582850Y-101323131D01*
X142582845Y-101323130D01*
X142403600Y-101302935D01*
X142403592Y-101302935D01*
X142224346Y-101323130D01*
X142224341Y-101323131D01*
X142054072Y-101382711D01*
X141901333Y-101478684D01*
X141773780Y-101606237D01*
X141677807Y-101758976D01*
X141618227Y-101929245D01*
X141618226Y-101929250D01*
X141598031Y-102108496D01*
X141598031Y-102108503D01*
X139128298Y-102108503D01*
X139113769Y-101979550D01*
X139113768Y-101979545D01*
X139078218Y-101877950D01*
X139054189Y-101809278D01*
X138958216Y-101656538D01*
X138830662Y-101528984D01*
X138819178Y-101521768D01*
X138677923Y-101433011D01*
X138507654Y-101373431D01*
X138507649Y-101373430D01*
X138328404Y-101353235D01*
X138328396Y-101353235D01*
X138149150Y-101373430D01*
X138149145Y-101373431D01*
X137978876Y-101433011D01*
X137826137Y-101528984D01*
X137698584Y-101656537D01*
X137602611Y-101809276D01*
X137543031Y-101979545D01*
X137543030Y-101979549D01*
X137526676Y-102124700D01*
X137499609Y-102189114D01*
X137442014Y-102228669D01*
X137372177Y-102230806D01*
X137315775Y-102198497D01*
X137306662Y-102189384D01*
X137153923Y-102093411D01*
X136983654Y-102033831D01*
X136983649Y-102033830D01*
X136804404Y-102013635D01*
X136804396Y-102013635D01*
X136625150Y-102033830D01*
X136625137Y-102033833D01*
X136454878Y-102093410D01*
X136454876Y-102093411D01*
X136419219Y-102115815D01*
X136351982Y-102134814D01*
X136312296Y-102127862D01*
X136185695Y-102083563D01*
X136145281Y-102079010D01*
X136080867Y-102051943D01*
X136041312Y-101994348D01*
X136036232Y-101962487D01*
X136035945Y-101962520D01*
X136035239Y-101956254D01*
X136035165Y-101955790D01*
X136035165Y-101955597D01*
X136014969Y-101776350D01*
X136014968Y-101776345D01*
X135958981Y-101616344D01*
X135955389Y-101606078D01*
X135859416Y-101453338D01*
X135731862Y-101325784D01*
X135727638Y-101323130D01*
X135579123Y-101229811D01*
X135408854Y-101170231D01*
X135408849Y-101170230D01*
X135229604Y-101150035D01*
X135229596Y-101150035D01*
X135050350Y-101170230D01*
X135050345Y-101170231D01*
X134880076Y-101229811D01*
X134727337Y-101325784D01*
X134599784Y-101453337D01*
X134503811Y-101606076D01*
X134444231Y-101776345D01*
X134444230Y-101776350D01*
X134424035Y-101955596D01*
X134424035Y-101955603D01*
X130124738Y-101955603D01*
X130063405Y-101894270D01*
X130063387Y-101894254D01*
X129834317Y-101722775D01*
X129834309Y-101722770D01*
X129583166Y-101585635D01*
X129583167Y-101585635D01*
X129466083Y-101541965D01*
X129315046Y-101485631D01*
X129315043Y-101485630D01*
X129315037Y-101485628D01*
X129035433Y-101424804D01*
X128750001Y-101404390D01*
X128749999Y-101404390D01*
X128464566Y-101424804D01*
X128184962Y-101485628D01*
X127916833Y-101585635D01*
X127665690Y-101722770D01*
X127665682Y-101722775D01*
X127436612Y-101894254D01*
X127436594Y-101894270D01*
X127234270Y-102096594D01*
X127234254Y-102096612D01*
X127062775Y-102325682D01*
X127062770Y-102325690D01*
X126925635Y-102576833D01*
X126825628Y-102844962D01*
X126764804Y-103124566D01*
X126744390Y-103409998D01*
X126744390Y-103410001D01*
X125250500Y-103410001D01*
X125250500Y-98330001D01*
X126744390Y-98330001D01*
X126764804Y-98615433D01*
X126825628Y-98895037D01*
X126825630Y-98895043D01*
X126825631Y-98895046D01*
X126911545Y-99125389D01*
X126925635Y-99163166D01*
X127062770Y-99414309D01*
X127062775Y-99414317D01*
X127234254Y-99643387D01*
X127234270Y-99643405D01*
X127436594Y-99845729D01*
X127436612Y-99845745D01*
X127665682Y-100017224D01*
X127665690Y-100017229D01*
X127916833Y-100154364D01*
X127916832Y-100154364D01*
X127916836Y-100154365D01*
X127916839Y-100154367D01*
X128184954Y-100254369D01*
X128184960Y-100254370D01*
X128184962Y-100254371D01*
X128464566Y-100315195D01*
X128464568Y-100315195D01*
X128464572Y-100315196D01*
X128718220Y-100333337D01*
X128749999Y-100335610D01*
X128750000Y-100335610D01*
X128750001Y-100335610D01*
X128778595Y-100333564D01*
X129035428Y-100315196D01*
X129107118Y-100299601D01*
X129315037Y-100254371D01*
X129315037Y-100254370D01*
X129315046Y-100254369D01*
X129583161Y-100154367D01*
X129834315Y-100017226D01*
X130063395Y-99845739D01*
X130265739Y-99643395D01*
X130373467Y-99499487D01*
X147009435Y-99499487D01*
X147029630Y-99678733D01*
X147029631Y-99678738D01*
X147089211Y-99849007D01*
X147185183Y-100001746D01*
X147185184Y-100001746D01*
X147312738Y-100129300D01*
X147465478Y-100225273D01*
X147618276Y-100278739D01*
X147675052Y-100319461D01*
X147700800Y-100384413D01*
X147694364Y-100436735D01*
X147652232Y-100557142D01*
X147652230Y-100557150D01*
X147632035Y-100736396D01*
X147632035Y-100736403D01*
X147652230Y-100915649D01*
X147652231Y-100915654D01*
X147711811Y-101085923D01*
X147788893Y-101208597D01*
X147807784Y-101238662D01*
X147935338Y-101366216D01*
X147961590Y-101382711D01*
X148073991Y-101453338D01*
X148088078Y-101462189D01*
X148258345Y-101521767D01*
X148258345Y-101521768D01*
X148258350Y-101521769D01*
X148437596Y-101541965D01*
X148437600Y-101541965D01*
X148437604Y-101541965D01*
X148616849Y-101521769D01*
X148616852Y-101521768D01*
X148616855Y-101521768D01*
X148787122Y-101462189D01*
X148939862Y-101366216D01*
X149067416Y-101238662D01*
X149163389Y-101085922D01*
X149222968Y-100915655D01*
X149229577Y-100856997D01*
X149243165Y-100736403D01*
X149243165Y-100736396D01*
X149222969Y-100557150D01*
X149222968Y-100557145D01*
X149204548Y-100504503D01*
X149867235Y-100504503D01*
X149887430Y-100683749D01*
X149887431Y-100683754D01*
X149947011Y-100854023D01*
X150042983Y-101006761D01*
X150042984Y-101006762D01*
X150170538Y-101134316D01*
X150227698Y-101170232D01*
X150288758Y-101208599D01*
X150323278Y-101230289D01*
X150441998Y-101271831D01*
X150493545Y-101289868D01*
X150493550Y-101289869D01*
X150672796Y-101310065D01*
X150672800Y-101310065D01*
X150672804Y-101310065D01*
X150852049Y-101289869D01*
X150852052Y-101289868D01*
X150852055Y-101289868D01*
X151022322Y-101230289D01*
X151175062Y-101134316D01*
X151302616Y-101006762D01*
X151398589Y-100854022D01*
X151458168Y-100683755D01*
X151472433Y-100557150D01*
X151478365Y-100504503D01*
X151478365Y-100504496D01*
X151458169Y-100325250D01*
X151458168Y-100325245D01*
X151398588Y-100154976D01*
X151312035Y-100017229D01*
X151302616Y-100002238D01*
X151175062Y-99874684D01*
X151138116Y-99851469D01*
X151022323Y-99778711D01*
X150852054Y-99719131D01*
X150852049Y-99719130D01*
X150672804Y-99698935D01*
X150672796Y-99698935D01*
X150493550Y-99719130D01*
X150493545Y-99719131D01*
X150323276Y-99778711D01*
X150170537Y-99874684D01*
X150042984Y-100002237D01*
X149947011Y-100154976D01*
X149887431Y-100325245D01*
X149887430Y-100325250D01*
X149867235Y-100504496D01*
X149867235Y-100504503D01*
X149204548Y-100504503D01*
X149163388Y-100386876D01*
X149067415Y-100234137D01*
X148939862Y-100106584D01*
X148787121Y-100010610D01*
X148634322Y-99957144D01*
X148577546Y-99916422D01*
X148551798Y-99851469D01*
X148558234Y-99799149D01*
X148600368Y-99678739D01*
X148604349Y-99643405D01*
X148620565Y-99499487D01*
X148620565Y-99499480D01*
X148600369Y-99320234D01*
X148600368Y-99320229D01*
X148545409Y-99163166D01*
X148540789Y-99149962D01*
X148444816Y-98997222D01*
X148317262Y-98869668D01*
X148305331Y-98862171D01*
X148164523Y-98773695D01*
X147994254Y-98714115D01*
X147994249Y-98714114D01*
X147815004Y-98693919D01*
X147814996Y-98693919D01*
X147635750Y-98714114D01*
X147635745Y-98714115D01*
X147465476Y-98773695D01*
X147312737Y-98869668D01*
X147185184Y-98997221D01*
X147089211Y-99149960D01*
X147029631Y-99320229D01*
X147029630Y-99320234D01*
X147009435Y-99499480D01*
X147009435Y-99499487D01*
X130373467Y-99499487D01*
X130437226Y-99414315D01*
X130574367Y-99163161D01*
X130674369Y-98895046D01*
X130679890Y-98869668D01*
X130735195Y-98615433D01*
X130735195Y-98615432D01*
X130735196Y-98615428D01*
X130750632Y-98399603D01*
X136913235Y-98399603D01*
X136933430Y-98578849D01*
X136933431Y-98578854D01*
X136993011Y-98749123D01*
X137008451Y-98773695D01*
X137088984Y-98901862D01*
X137216538Y-99029416D01*
X137369278Y-99125389D01*
X137539544Y-99184968D01*
X137539545Y-99184968D01*
X137539550Y-99184969D01*
X137718796Y-99205165D01*
X137718800Y-99205165D01*
X137718804Y-99205165D01*
X137898049Y-99184969D01*
X137898052Y-99184968D01*
X137898055Y-99184968D01*
X138068322Y-99125389D01*
X138221062Y-99029416D01*
X138348616Y-98901862D01*
X138444589Y-98749122D01*
X138504168Y-98578855D01*
X138512883Y-98501506D01*
X138524365Y-98399603D01*
X138524365Y-98399596D01*
X138504169Y-98220350D01*
X138504168Y-98220345D01*
X138444588Y-98050076D01*
X138348615Y-97897337D01*
X138221062Y-97769784D01*
X138068323Y-97673811D01*
X137898054Y-97614231D01*
X137898049Y-97614230D01*
X137718804Y-97594035D01*
X137718796Y-97594035D01*
X137539550Y-97614230D01*
X137539545Y-97614231D01*
X137369276Y-97673811D01*
X137216537Y-97769784D01*
X137088984Y-97897337D01*
X136993011Y-98050076D01*
X136933431Y-98220345D01*
X136933430Y-98220350D01*
X136913235Y-98399596D01*
X136913235Y-98399603D01*
X130750632Y-98399603D01*
X130755610Y-98330000D01*
X130735196Y-98044572D01*
X130703167Y-97897338D01*
X130674371Y-97764962D01*
X130674370Y-97764960D01*
X130674369Y-97764954D01*
X130574367Y-97496839D01*
X130556251Y-97463663D01*
X130437229Y-97245690D01*
X130437224Y-97245682D01*
X130265745Y-97016612D01*
X130265729Y-97016594D01*
X130063405Y-96814270D01*
X130063387Y-96814254D01*
X129834317Y-96642775D01*
X129834309Y-96642770D01*
X129583166Y-96505635D01*
X129583167Y-96505635D01*
X129485488Y-96469203D01*
X150984835Y-96469203D01*
X151005030Y-96648449D01*
X151005031Y-96648454D01*
X151064611Y-96818723D01*
X151160583Y-96971461D01*
X151160584Y-96971462D01*
X151288138Y-97099016D01*
X151440878Y-97194989D01*
X151556375Y-97235403D01*
X151611145Y-97254568D01*
X151611150Y-97254569D01*
X151790396Y-97274765D01*
X151790400Y-97274765D01*
X151790404Y-97274765D01*
X151969649Y-97254569D01*
X151969652Y-97254568D01*
X151969655Y-97254568D01*
X152139922Y-97194989D01*
X152292662Y-97099016D01*
X152420216Y-96971462D01*
X152516189Y-96818722D01*
X152575768Y-96648455D01*
X152595965Y-96469200D01*
X152588802Y-96405628D01*
X152575769Y-96289950D01*
X152575768Y-96289945D01*
X152516189Y-96119678D01*
X152420216Y-95966938D01*
X152292662Y-95839384D01*
X152271304Y-95825964D01*
X152139923Y-95743411D01*
X151969654Y-95683831D01*
X151969649Y-95683830D01*
X151790404Y-95663635D01*
X151790396Y-95663635D01*
X151611150Y-95683830D01*
X151611145Y-95683831D01*
X151440876Y-95743411D01*
X151288137Y-95839384D01*
X151160584Y-95966937D01*
X151064611Y-96119676D01*
X151005031Y-96289945D01*
X151005030Y-96289950D01*
X150984835Y-96469196D01*
X150984835Y-96469203D01*
X129485488Y-96469203D01*
X129475914Y-96465632D01*
X129315046Y-96405631D01*
X129315043Y-96405630D01*
X129315037Y-96405628D01*
X129035433Y-96344804D01*
X128750001Y-96324390D01*
X128749999Y-96324390D01*
X128464566Y-96344804D01*
X128184962Y-96405628D01*
X127916833Y-96505635D01*
X127665690Y-96642770D01*
X127665682Y-96642775D01*
X127436612Y-96814254D01*
X127436594Y-96814270D01*
X127234270Y-97016594D01*
X127234254Y-97016612D01*
X127062775Y-97245682D01*
X127062770Y-97245690D01*
X126925635Y-97496833D01*
X126825628Y-97764962D01*
X126764804Y-98044566D01*
X126744390Y-98329998D01*
X126744390Y-98330001D01*
X125250500Y-98330001D01*
X125250500Y-93250001D01*
X126744390Y-93250001D01*
X126764804Y-93535433D01*
X126825628Y-93815037D01*
X126825630Y-93815043D01*
X126825631Y-93815046D01*
X126898345Y-94010000D01*
X126925635Y-94083166D01*
X127062770Y-94334309D01*
X127062775Y-94334317D01*
X127234254Y-94563387D01*
X127234270Y-94563405D01*
X127436594Y-94765729D01*
X127436612Y-94765745D01*
X127665682Y-94937224D01*
X127665690Y-94937229D01*
X127916833Y-95074364D01*
X127916832Y-95074364D01*
X127916836Y-95074365D01*
X127916839Y-95074367D01*
X128184954Y-95174369D01*
X128184960Y-95174370D01*
X128184962Y-95174371D01*
X128464566Y-95235195D01*
X128464568Y-95235195D01*
X128464572Y-95235196D01*
X128718220Y-95253337D01*
X128749999Y-95255610D01*
X128750000Y-95255610D01*
X128750001Y-95255610D01*
X128778595Y-95253564D01*
X129035428Y-95235196D01*
X129133840Y-95213788D01*
X129315037Y-95174371D01*
X129315037Y-95174370D01*
X129315046Y-95174369D01*
X129583161Y-95074367D01*
X129834315Y-94937226D01*
X130063395Y-94765739D01*
X130265739Y-94563395D01*
X130437226Y-94334315D01*
X130574367Y-94083161D01*
X130674369Y-93815046D01*
X130735196Y-93535428D01*
X130755610Y-93250000D01*
X130735196Y-92964572D01*
X130731358Y-92946930D01*
X130674371Y-92684962D01*
X130674370Y-92684960D01*
X130674369Y-92684954D01*
X130574367Y-92416839D01*
X130524877Y-92326206D01*
X130437229Y-92165690D01*
X130437224Y-92165682D01*
X130265745Y-91936612D01*
X130265729Y-91936594D01*
X130063405Y-91734270D01*
X130063387Y-91734254D01*
X129834317Y-91562775D01*
X129834309Y-91562770D01*
X129583166Y-91425635D01*
X129583167Y-91425635D01*
X129475914Y-91385632D01*
X129315046Y-91325631D01*
X129315043Y-91325630D01*
X129315037Y-91325628D01*
X129035433Y-91264804D01*
X128750001Y-91244390D01*
X128749999Y-91244390D01*
X128464566Y-91264804D01*
X128184962Y-91325628D01*
X127916833Y-91425635D01*
X127665690Y-91562770D01*
X127665682Y-91562775D01*
X127436612Y-91734254D01*
X127436594Y-91734270D01*
X127234270Y-91936594D01*
X127234254Y-91936612D01*
X127062775Y-92165682D01*
X127062770Y-92165690D01*
X126925635Y-92416833D01*
X126825628Y-92684962D01*
X126764804Y-92964566D01*
X126744390Y-93249998D01*
X126744390Y-93250001D01*
X125250500Y-93250001D01*
X125250500Y-91080000D01*
X133644341Y-91080000D01*
X133664936Y-91315403D01*
X133664938Y-91315413D01*
X133726094Y-91543655D01*
X133726096Y-91543659D01*
X133726097Y-91543663D01*
X133772242Y-91642620D01*
X133825965Y-91757830D01*
X133825967Y-91757834D01*
X133934281Y-91912521D01*
X133961501Y-91951396D01*
X133961506Y-91951402D01*
X134083430Y-92073326D01*
X134116915Y-92134649D01*
X134111931Y-92204341D01*
X134070059Y-92260274D01*
X134039083Y-92277189D01*
X133907669Y-92326203D01*
X133907664Y-92326206D01*
X133792455Y-92412452D01*
X133792452Y-92412455D01*
X133706206Y-92527664D01*
X133706202Y-92527671D01*
X133655908Y-92662517D01*
X133649501Y-92722116D01*
X133649501Y-92722123D01*
X133649500Y-92722135D01*
X133649500Y-94517870D01*
X133649501Y-94517876D01*
X133655908Y-94577483D01*
X133706202Y-94712328D01*
X133706206Y-94712335D01*
X133792452Y-94827544D01*
X133792455Y-94827547D01*
X133907664Y-94913793D01*
X133907671Y-94913797D01*
X134042517Y-94964091D01*
X134042516Y-94964091D01*
X134049444Y-94964835D01*
X134102127Y-94970500D01*
X135897872Y-94970499D01*
X135957483Y-94964091D01*
X136092331Y-94913796D01*
X136207546Y-94827546D01*
X136293796Y-94712331D01*
X136344091Y-94577483D01*
X136350500Y-94517873D01*
X136350500Y-94488003D01*
X151543635Y-94488003D01*
X151563830Y-94667249D01*
X151563831Y-94667254D01*
X151623411Y-94837523D01*
X151686058Y-94937224D01*
X151719384Y-94990262D01*
X151846938Y-95117816D01*
X151936941Y-95174369D01*
X151967149Y-95193350D01*
X151999678Y-95213789D01*
X152103163Y-95250000D01*
X152169945Y-95273368D01*
X152169950Y-95273369D01*
X152349196Y-95293565D01*
X152349200Y-95293565D01*
X152349204Y-95293565D01*
X152528449Y-95273369D01*
X152528452Y-95273368D01*
X152528455Y-95273368D01*
X152698722Y-95213789D01*
X152851462Y-95117816D01*
X152979016Y-94990262D01*
X153074989Y-94837522D01*
X153088873Y-94797844D01*
X159750000Y-94797844D01*
X159756401Y-94857372D01*
X159756403Y-94857379D01*
X159806645Y-94992086D01*
X159806649Y-94992093D01*
X159892809Y-95107187D01*
X159892812Y-95107190D01*
X160007906Y-95193350D01*
X160007913Y-95193354D01*
X160142620Y-95243596D01*
X160142627Y-95243598D01*
X160202155Y-95249999D01*
X160202172Y-95250000D01*
X161500000Y-95250000D01*
X161500000Y-93971802D01*
X161661169Y-94010000D01*
X161794267Y-94010000D01*
X161926461Y-93994549D01*
X162000000Y-93967782D01*
X162000000Y-95250000D01*
X163297828Y-95250000D01*
X163297844Y-95249999D01*
X163357372Y-95243598D01*
X163357379Y-95243596D01*
X163492086Y-95193354D01*
X163492093Y-95193350D01*
X163607187Y-95107190D01*
X163607190Y-95107187D01*
X163693350Y-94992093D01*
X163693354Y-94992086D01*
X163743596Y-94857379D01*
X163743598Y-94857372D01*
X163749999Y-94797844D01*
X163750000Y-94797827D01*
X163750000Y-93500000D01*
X162468483Y-93500000D01*
X162503549Y-93382871D01*
X162513879Y-93205509D01*
X162483029Y-93030546D01*
X162469853Y-93000000D01*
X163750000Y-93000000D01*
X163750000Y-91702172D01*
X163749999Y-91702155D01*
X163743598Y-91642627D01*
X163743596Y-91642620D01*
X163693354Y-91507913D01*
X163693350Y-91507906D01*
X163607190Y-91392812D01*
X163607187Y-91392809D01*
X163492093Y-91306649D01*
X163492086Y-91306645D01*
X163357379Y-91256403D01*
X163357372Y-91256401D01*
X163297844Y-91250000D01*
X162000000Y-91250000D01*
X162000000Y-92528197D01*
X161838831Y-92490000D01*
X161705733Y-92490000D01*
X161573539Y-92505451D01*
X161500000Y-92532217D01*
X161500000Y-91250000D01*
X160202155Y-91250000D01*
X160142627Y-91256401D01*
X160142620Y-91256403D01*
X160007913Y-91306645D01*
X160007906Y-91306649D01*
X159892812Y-91392809D01*
X159892809Y-91392812D01*
X159806649Y-91507906D01*
X159806645Y-91507913D01*
X159756403Y-91642620D01*
X159756401Y-91642627D01*
X159750000Y-91702155D01*
X159750000Y-93000000D01*
X161031517Y-93000000D01*
X160996451Y-93117129D01*
X160986121Y-93294491D01*
X161016971Y-93469454D01*
X161030147Y-93500000D01*
X159750000Y-93500000D01*
X159750000Y-94797844D01*
X153088873Y-94797844D01*
X153134568Y-94667255D01*
X153151399Y-94517873D01*
X153154765Y-94488003D01*
X153154765Y-94487996D01*
X153134569Y-94308750D01*
X153134568Y-94308745D01*
X153074988Y-94138476D01*
X152979015Y-93985737D01*
X152851462Y-93858184D01*
X152698723Y-93762211D01*
X152528454Y-93702631D01*
X152528449Y-93702630D01*
X152349204Y-93682435D01*
X152349196Y-93682435D01*
X152169950Y-93702630D01*
X152169945Y-93702631D01*
X151999676Y-93762211D01*
X151846937Y-93858184D01*
X151719384Y-93985737D01*
X151623411Y-94138476D01*
X151563831Y-94308745D01*
X151563830Y-94308750D01*
X151543635Y-94487996D01*
X151543635Y-94488003D01*
X136350500Y-94488003D01*
X136350499Y-92722128D01*
X136344091Y-92662517D01*
X136293796Y-92527669D01*
X136293795Y-92527668D01*
X136293793Y-92527664D01*
X136207547Y-92412455D01*
X136207544Y-92412452D01*
X136092335Y-92326206D01*
X136092328Y-92326202D01*
X135960917Y-92277189D01*
X135904983Y-92235318D01*
X135880566Y-92169853D01*
X135895418Y-92101580D01*
X135916563Y-92073332D01*
X136038495Y-91951401D01*
X136174035Y-91757830D01*
X136273903Y-91543663D01*
X136335063Y-91315408D01*
X136355659Y-91080000D01*
X136335063Y-90844592D01*
X136273903Y-90616337D01*
X136174035Y-90402171D01*
X136038495Y-90208599D01*
X136038494Y-90208597D01*
X135871402Y-90041506D01*
X135871401Y-90041505D01*
X135685842Y-89911575D01*
X135685841Y-89911574D01*
X135642216Y-89856997D01*
X135635024Y-89787498D01*
X135666546Y-89725144D01*
X135685836Y-89708428D01*
X135871401Y-89578495D01*
X136038495Y-89411401D01*
X136174035Y-89217830D01*
X136273903Y-89003663D01*
X136335063Y-88775408D01*
X136355659Y-88540000D01*
X136335063Y-88304592D01*
X136273903Y-88076337D01*
X136255281Y-88036403D01*
X137929235Y-88036403D01*
X137949430Y-88215649D01*
X137949431Y-88215654D01*
X138009011Y-88385923D01*
X138051841Y-88454086D01*
X138104984Y-88538662D01*
X138232538Y-88666216D01*
X138385278Y-88762189D01*
X138555544Y-88821768D01*
X138555545Y-88821768D01*
X138555550Y-88821769D01*
X138734796Y-88841965D01*
X138734800Y-88841965D01*
X138734804Y-88841965D01*
X138914049Y-88821769D01*
X138914052Y-88821768D01*
X138914055Y-88821768D01*
X139084322Y-88762189D01*
X139237062Y-88666216D01*
X139364616Y-88538662D01*
X139460589Y-88385922D01*
X139520168Y-88215655D01*
X139528931Y-88137880D01*
X139540365Y-88036403D01*
X139540365Y-88036396D01*
X139520169Y-87857150D01*
X139520168Y-87857145D01*
X139460588Y-87686876D01*
X139364615Y-87534137D01*
X139237062Y-87406584D01*
X139084323Y-87310611D01*
X138914054Y-87251031D01*
X138914049Y-87251030D01*
X138734804Y-87230835D01*
X138734796Y-87230835D01*
X138555550Y-87251030D01*
X138555545Y-87251031D01*
X138385276Y-87310611D01*
X138232537Y-87406584D01*
X138104984Y-87534137D01*
X138009011Y-87686876D01*
X137949431Y-87857145D01*
X137949430Y-87857150D01*
X137929235Y-88036396D01*
X137929235Y-88036403D01*
X136255281Y-88036403D01*
X136174035Y-87862171D01*
X136170520Y-87857150D01*
X136038494Y-87668597D01*
X135871402Y-87501506D01*
X135871396Y-87501501D01*
X135685842Y-87371575D01*
X135642217Y-87316998D01*
X135635023Y-87247500D01*
X135666546Y-87185145D01*
X135685842Y-87168425D01*
X135773040Y-87107368D01*
X135871401Y-87038495D01*
X136038495Y-86871401D01*
X136174035Y-86677830D01*
X136273903Y-86463663D01*
X136335063Y-86235408D01*
X136355659Y-86000000D01*
X136335063Y-85764592D01*
X136273903Y-85536337D01*
X136174035Y-85322171D01*
X136041973Y-85133565D01*
X136038494Y-85128597D01*
X135871402Y-84961506D01*
X135871395Y-84961501D01*
X135866132Y-84957816D01*
X135832521Y-84934281D01*
X135677834Y-84825967D01*
X135677830Y-84825965D01*
X135677830Y-84825964D01*
X135463663Y-84726097D01*
X135463659Y-84726096D01*
X135463655Y-84726094D01*
X135235413Y-84664938D01*
X135235403Y-84664936D01*
X135000001Y-84644341D01*
X134999999Y-84644341D01*
X134764596Y-84664936D01*
X134764586Y-84664938D01*
X134536344Y-84726094D01*
X134536335Y-84726098D01*
X134322171Y-84825964D01*
X134322169Y-84825965D01*
X134128597Y-84961505D01*
X133961505Y-85128597D01*
X133825965Y-85322169D01*
X133825964Y-85322171D01*
X133726098Y-85536335D01*
X133726094Y-85536344D01*
X133664938Y-85764586D01*
X133664936Y-85764596D01*
X133644341Y-85999999D01*
X133644341Y-86000000D01*
X133664936Y-86235403D01*
X133664938Y-86235413D01*
X133726094Y-86463655D01*
X133726096Y-86463659D01*
X133726097Y-86463663D01*
X133825965Y-86677829D01*
X133825965Y-86677830D01*
X133825967Y-86677834D01*
X133961501Y-86871395D01*
X133961506Y-86871402D01*
X134128597Y-87038493D01*
X134128603Y-87038498D01*
X134314158Y-87168425D01*
X134357783Y-87223002D01*
X134364977Y-87292500D01*
X134333454Y-87354855D01*
X134314158Y-87371575D01*
X134128597Y-87501505D01*
X133961505Y-87668597D01*
X133825965Y-87862169D01*
X133825964Y-87862171D01*
X133726098Y-88076335D01*
X133726094Y-88076344D01*
X133664938Y-88304586D01*
X133664936Y-88304596D01*
X133644341Y-88539999D01*
X133644341Y-88540000D01*
X133664936Y-88775403D01*
X133664938Y-88775413D01*
X133726094Y-89003655D01*
X133726096Y-89003659D01*
X133726097Y-89003663D01*
X133825964Y-89217829D01*
X133825965Y-89217830D01*
X133825967Y-89217834D01*
X133961501Y-89411395D01*
X133961506Y-89411402D01*
X134128597Y-89578493D01*
X134128603Y-89578498D01*
X134314158Y-89708425D01*
X134357783Y-89763002D01*
X134364977Y-89832500D01*
X134333454Y-89894855D01*
X134314158Y-89911575D01*
X134128597Y-90041505D01*
X133961505Y-90208597D01*
X133825965Y-90402169D01*
X133825964Y-90402171D01*
X133726098Y-90616335D01*
X133726094Y-90616344D01*
X133664938Y-90844586D01*
X133664936Y-90844596D01*
X133644341Y-91079999D01*
X133644341Y-91080000D01*
X125250500Y-91080000D01*
X125250500Y-87327738D01*
X125270185Y-87260699D01*
X125322989Y-87214944D01*
X125392147Y-87205000D01*
X125455703Y-87234025D01*
X125493477Y-87292803D01*
X125496866Y-87307677D01*
X125521926Y-87460539D01*
X125521932Y-87460565D01*
X125617672Y-87805392D01*
X125617674Y-87805399D01*
X125750142Y-88137870D01*
X125750151Y-88137888D01*
X125917784Y-88454077D01*
X125917787Y-88454082D01*
X125917789Y-88454085D01*
X126061617Y-88666216D01*
X126118634Y-88750309D01*
X126118641Y-88750319D01*
X126333827Y-89003655D01*
X126350332Y-89023086D01*
X126610163Y-89269211D01*
X126895081Y-89485800D01*
X127201747Y-89670315D01*
X127201749Y-89670316D01*
X127201751Y-89670317D01*
X127201755Y-89670319D01*
X127455035Y-89787498D01*
X127526565Y-89820591D01*
X127865726Y-89934868D01*
X128215254Y-90011805D01*
X128571052Y-90050500D01*
X128571058Y-90050500D01*
X128928942Y-90050500D01*
X128928948Y-90050500D01*
X129284746Y-90011805D01*
X129634274Y-89934868D01*
X129973435Y-89820591D01*
X130298253Y-89670315D01*
X130604919Y-89485800D01*
X130889837Y-89269211D01*
X131149668Y-89023086D01*
X131381365Y-88750311D01*
X131582211Y-88454085D01*
X131749853Y-88137880D01*
X131882324Y-87805403D01*
X131978071Y-87460552D01*
X132018336Y-87214944D01*
X132035970Y-87107385D01*
X132035970Y-87107382D01*
X132035972Y-87107371D01*
X132055348Y-86750000D01*
X132035972Y-86392629D01*
X132019966Y-86294999D01*
X131978073Y-86039460D01*
X131978072Y-86039459D01*
X131978071Y-86039448D01*
X131882324Y-85694597D01*
X131819270Y-85536344D01*
X131749857Y-85362129D01*
X131749848Y-85362111D01*
X131582215Y-85045922D01*
X131582213Y-85045919D01*
X131582211Y-85045915D01*
X131381365Y-84749689D01*
X131381361Y-84749684D01*
X131381358Y-84749680D01*
X131149668Y-84476914D01*
X131149668Y-84476913D01*
X130992465Y-84328003D01*
X140672435Y-84328003D01*
X140692630Y-84507249D01*
X140692631Y-84507254D01*
X140752211Y-84677523D01*
X140797557Y-84749690D01*
X140848184Y-84830262D01*
X140975738Y-84957816D01*
X140981611Y-84961506D01*
X141115957Y-85045922D01*
X141128478Y-85053789D01*
X141298745Y-85113368D01*
X141298750Y-85113369D01*
X141477996Y-85133565D01*
X141478000Y-85133565D01*
X141478004Y-85133565D01*
X141657249Y-85113369D01*
X141657252Y-85113368D01*
X141657255Y-85113368D01*
X141827522Y-85053789D01*
X141980262Y-84957816D01*
X142107816Y-84830262D01*
X142203789Y-84677522D01*
X142263368Y-84507255D01*
X142283565Y-84328000D01*
X142277156Y-84271122D01*
X142263369Y-84148750D01*
X142263368Y-84148745D01*
X142263367Y-84148744D01*
X142203789Y-83978478D01*
X142107816Y-83825738D01*
X141980262Y-83698184D01*
X141950390Y-83679414D01*
X141827523Y-83602211D01*
X141657254Y-83542631D01*
X141657249Y-83542630D01*
X141478004Y-83522435D01*
X141477996Y-83522435D01*
X141298750Y-83542630D01*
X141298745Y-83542631D01*
X141128476Y-83602211D01*
X140975737Y-83698184D01*
X140848184Y-83825737D01*
X140752211Y-83978476D01*
X140692631Y-84148745D01*
X140692630Y-84148750D01*
X140672435Y-84327996D01*
X140672435Y-84328003D01*
X130992465Y-84328003D01*
X130889837Y-84230789D01*
X130889830Y-84230783D01*
X130889827Y-84230781D01*
X130822245Y-84179407D01*
X130604919Y-84014200D01*
X130298253Y-83829685D01*
X130298252Y-83829684D01*
X130298248Y-83829682D01*
X130298244Y-83829680D01*
X129973447Y-83679414D01*
X129973441Y-83679411D01*
X129973435Y-83679409D01*
X129803854Y-83622270D01*
X129634273Y-83565131D01*
X129318392Y-83495601D01*
X129257151Y-83461965D01*
X129223817Y-83400560D01*
X129228973Y-83330881D01*
X129270982Y-83275050D01*
X129336506Y-83250795D01*
X129345048Y-83250500D01*
X153683911Y-83250500D01*
X153750950Y-83270185D01*
G37*
%TD.AperFunction*%
%TD*%
M02*
