%TF.GenerationSoftware,KiCad,Pcbnew,7.0.5*%
%TF.CreationDate,2023-08-09T18:59:09-07:00*%
%TF.ProjectId,lyra r1,6c797261-2072-4312-9e6b-696361645f70,rev?*%
%TF.SameCoordinates,Original*%
%TF.FileFunction,Copper,L2,Inr*%
%TF.FilePolarity,Positive*%
%FSLAX46Y46*%
G04 Gerber Fmt 4.6, Leading zero omitted, Abs format (unit mm)*
G04 Created by KiCad (PCBNEW 7.0.5) date 2023-08-09 18:59:09*
%MOMM*%
%LPD*%
G01*
G04 APERTURE LIST*
%TA.AperFunction,ComponentPad*%
%ADD10C,5.600000*%
%TD*%
%TA.AperFunction,ComponentPad*%
%ADD11R,1.700000X1.700000*%
%TD*%
%TA.AperFunction,ComponentPad*%
%ADD12O,1.700000X1.700000*%
%TD*%
%TA.AperFunction,ComponentPad*%
%ADD13R,3.000000X3.000000*%
%TD*%
%TA.AperFunction,ComponentPad*%
%ADD14C,3.000000*%
%TD*%
%TA.AperFunction,ViaPad*%
%ADD15C,0.600000*%
%TD*%
%TA.AperFunction,ViaPad*%
%ADD16C,1.000000*%
%TD*%
%TA.AperFunction,ViaPad*%
%ADD17C,1.200000*%
%TD*%
G04 APERTURE END LIST*
D10*
%TO.N,GND*%
%TO.C,H1*%
X128750000Y-86750000D03*
%TD*%
D11*
%TO.N,SERVO3*%
%TO.C,J6*%
X163790000Y-125460000D03*
D12*
%TO.N,SERVO4*%
X163790000Y-128000000D03*
%TO.N,SERVO POWER*%
X161250000Y-125460000D03*
X161250000Y-128000000D03*
%TO.N,GND*%
X158710000Y-125460000D03*
X158710000Y-128000000D03*
%TD*%
D11*
%TO.N,GND*%
%TO.C,J10*%
X127827800Y-128320800D03*
D12*
%TO.N,Net-(J10-Pin_2)*%
X130367800Y-128320800D03*
%TO.N,+3V3*%
X132907800Y-128320800D03*
%TD*%
D13*
%TO.N,ARM-*%
%TO.C,J12*%
X161750000Y-133010000D03*
D14*
%TO.N,P1-*%
X161750000Y-138090000D03*
%TO.N,ARM-*%
X161750000Y-143170000D03*
%TO.N,P2-*%
X161750000Y-148250000D03*
%TD*%
D13*
%TO.N,+3V3*%
%TO.C,J11*%
X161750000Y-93250000D03*
D14*
%TO.N,+5V*%
X161750000Y-98330000D03*
%TO.N,GND*%
X161750000Y-103410000D03*
%TO.N,PA1*%
X161750000Y-108490000D03*
%TD*%
D11*
%TO.N,GND*%
%TO.C,J8*%
X155025000Y-129275000D03*
D12*
%TO.N,SPI POWER*%
X152485000Y-129275000D03*
%TO.N,SCK*%
X155025000Y-126735000D03*
%TO.N,MOSI*%
X152485000Y-126735000D03*
%TO.N,MISO*%
X155025000Y-124195000D03*
%TO.N,CS BRKOUT*%
X152485000Y-124195000D03*
%TD*%
D13*
%TO.N,+12P*%
%TO.C,J5*%
X128750000Y-108490000D03*
D14*
%TO.N,ARM-*%
X128750000Y-103410000D03*
%TO.N,PB6*%
X128750000Y-98330000D03*
%TO.N,PA4*%
X128750000Y-93250000D03*
%TD*%
D11*
%TO.N,GND*%
%TO.C,J4*%
X135000000Y-93620000D03*
D12*
%TO.N,SDA*%
X135000000Y-91080000D03*
%TO.N,SCL*%
X135000000Y-88540000D03*
%TO.N,I2C POWER*%
X135000000Y-86000000D03*
%TD*%
D13*
%TO.N,BATT PRESWITCH*%
%TO.C,J3*%
X129000000Y-148120000D03*
D14*
%TO.N,GND*%
X129000000Y-143040000D03*
%TO.N,BATT PRESWITCH*%
X129000000Y-137960000D03*
%TO.N,+BATT*%
X129000000Y-132880000D03*
%TD*%
D11*
%TO.N,GND*%
%TO.C,J2*%
X155750000Y-104620000D03*
D12*
%TO.N,USART2 TX*%
X155750000Y-102080000D03*
%TO.N,USART2 RX*%
X155750000Y-99540000D03*
%TO.N,UART POWER*%
X155750000Y-97000000D03*
%TD*%
D10*
%TO.N,GND*%
%TO.C,H4*%
X161750000Y-154750000D03*
%TD*%
%TO.N,GND*%
%TO.C,H2*%
X161750000Y-86750000D03*
%TD*%
D11*
%TO.N,SERVO1*%
%TO.C,J7*%
X163775000Y-119210000D03*
D12*
%TO.N,SERVO2*%
X163775000Y-121750000D03*
%TO.N,SERVO POWER*%
X161235000Y-119210000D03*
X161235000Y-121750000D03*
%TO.N,GND*%
X158695000Y-119210000D03*
X158695000Y-121750000D03*
%TD*%
D10*
%TO.N,GND*%
%TO.C,H3*%
X128750000Y-154750000D03*
%TD*%
D15*
%TO.N,GND*%
X152349200Y-94488000D03*
X154432000Y-83921600D03*
D16*
%TO.N,+12P*%
X131572000Y-135534400D03*
D15*
%TO.N,+12V*%
X155143200Y-156381600D03*
X139903200Y-150063200D03*
%TO.N,GND*%
X151790400Y-133045200D03*
X144153145Y-108743021D03*
X144526000Y-134747000D03*
X137972800Y-144526000D03*
X150672800Y-100504500D03*
X148437600Y-100736400D03*
X138328400Y-102158800D03*
X152095200Y-156210000D03*
X153466800Y-143967200D03*
X141478000Y-84328000D03*
D16*
X152755600Y-112776000D03*
D15*
X140462000Y-147421600D03*
X139573000Y-106807000D03*
X134010400Y-115519200D03*
X144285000Y-136398000D03*
X142367000Y-115316000D03*
X140208000Y-118999000D03*
X137718800Y-98399600D03*
D16*
X144373600Y-156083000D03*
D15*
X135534400Y-107848400D03*
X149117900Y-137038500D03*
X136042400Y-123850400D03*
D16*
X147777200Y-150926800D03*
D15*
X148082000Y-117729000D03*
X136194800Y-155244800D03*
X147815000Y-99499484D03*
X155651200Y-138226800D03*
D16*
X145846800Y-151180800D03*
D15*
X150926800Y-148031200D03*
X138303000Y-124714000D03*
X148660622Y-108669025D03*
X131013200Y-118262400D03*
X135229600Y-101955600D03*
%TO.N,+3V3*%
X137210800Y-100685600D03*
X138734800Y-83972400D03*
D16*
X157327600Y-95351600D03*
D15*
X149479000Y-117729000D03*
X149809200Y-98552000D03*
X136245600Y-98399600D03*
X148699502Y-125349000D03*
X137922000Y-154686000D03*
X138582400Y-152755600D03*
X143002000Y-134747000D03*
X138874500Y-117411500D03*
X140462000Y-124079000D03*
X142240000Y-136398000D03*
X137241900Y-122986800D03*
X150495000Y-99060000D03*
D16*
X143560800Y-99423500D03*
D15*
X148234400Y-106375200D03*
X151231600Y-117398800D03*
X149098000Y-101244400D03*
D16*
X154228800Y-108000800D03*
D15*
X150520400Y-131318000D03*
X141097000Y-106807000D03*
X132994400Y-119329200D03*
D16*
%TO.N,+5V*%
X148336000Y-128219200D03*
D15*
X155346400Y-151231600D03*
X148386800Y-148132800D03*
X138734800Y-88036400D03*
%TO.N,RESET*%
X152146000Y-113995200D03*
X151790400Y-96469200D03*
%TO.N,Net-(U7-VCAP_1)*%
X142181839Y-108682460D03*
%TO.N,Net-(U7-VCAP_2)*%
X140586404Y-116488497D03*
%TO.N,VBUS*%
X132537200Y-124104400D03*
X144729200Y-147269200D03*
%TO.N,Net-(D5-A)*%
X147828000Y-123063000D03*
%TO.N,Net-(D3-A)*%
X135991600Y-120548400D03*
D16*
%TO.N,+12P*%
X139446000Y-144373600D03*
D17*
%TO.N,Net-(F2-Pad2)*%
X136347200Y-148082000D03*
%TO.N,BATT PRESWITCH*%
X140817600Y-142240000D03*
X133654800Y-142595600D03*
D15*
%TO.N,MOSI*%
X141020800Y-138125200D03*
%TO.N,MISO*%
X144678400Y-122478800D03*
X142341600Y-131013200D03*
%TO.N,SCK*%
X141071600Y-130657600D03*
X143353807Y-123592607D03*
%TO.N,CS BRKOUT*%
X144594693Y-116703607D03*
X149758400Y-120192800D03*
%TO.N,SDA*%
X145592800Y-102057200D03*
X142403596Y-102108500D03*
%TO.N,SERVO3*%
X159735500Y-124256800D03*
%TO.N,SERVO4*%
X144365691Y-113134409D03*
X151575997Y-119746803D03*
%TO.N,SERVO1*%
X156151566Y-117979441D03*
X145846800Y-111506000D03*
%TO.N,SERVO2*%
X156145500Y-121767600D03*
X159359600Y-123088400D03*
X145694400Y-112318800D03*
%TO.N,CS SD*%
X142544800Y-120446800D03*
%TO.N,BOOT0*%
X132921623Y-125548777D03*
%TO.N,BUZZER*%
X150059003Y-106117003D03*
%TO.N,P1 EN*%
X148640800Y-133045200D03*
X142256662Y-117786651D03*
%TO.N,P2 EN*%
X143345224Y-117751604D03*
X146304000Y-128676400D03*
%TO.N,Net-(U1-ADJ)*%
X139903200Y-155041600D03*
%TO.N,Net-(U2-ADJ)*%
X151587200Y-150825200D03*
%TO.N,BATT SENSE*%
X137718800Y-146659600D03*
X149037019Y-113557932D03*
X135382000Y-128320800D03*
X133350000Y-136804400D03*
X140803403Y-117943403D03*
%TO.N,GYRO INT4*%
X136006446Y-102868933D03*
X143626500Y-105954723D03*
%TO.N,GYRO INT3*%
X144768797Y-105675203D03*
X136804400Y-102819200D03*
%TO.N,PA4*%
X146703457Y-105555457D03*
%TO.N,PYRO SENSE*%
X136194800Y-110075000D03*
X141325600Y-110337600D03*
%TO.N,PB6*%
X141884400Y-113690400D03*
X145237200Y-117364900D03*
X144373600Y-114452400D03*
%TD*%
%TA.AperFunction,Conductor*%
%TO.N,GND*%
G36*
X125455703Y-155230934D02*
G01*
X125493477Y-155289712D01*
X125496866Y-155304586D01*
X125522415Y-155460431D01*
X125522421Y-155460457D01*
X125618147Y-155805232D01*
X125618149Y-155805239D01*
X125750597Y-156137659D01*
X125750606Y-156137677D01*
X125918218Y-156453827D01*
X126119033Y-156750007D01*
X126246441Y-156900003D01*
X126246442Y-156900004D01*
X127452266Y-155694180D01*
X127615130Y-155884870D01*
X127805818Y-156047732D01*
X126597255Y-157256295D01*
X126597256Y-157256296D01*
X126610485Y-157268828D01*
X126610486Y-157268829D01*
X126895367Y-157485388D01*
X126895370Y-157485390D01*
X127201990Y-157669876D01*
X127526739Y-157820122D01*
X127526744Y-157820123D01*
X127865857Y-157934384D01*
X128183934Y-158004399D01*
X128245175Y-158038035D01*
X128278509Y-158099440D01*
X128273353Y-158169120D01*
X128231344Y-158224950D01*
X128165819Y-158249205D01*
X128157278Y-158249500D01*
X125374500Y-158249500D01*
X125307461Y-158229815D01*
X125261706Y-158177011D01*
X125250500Y-158125500D01*
X125250500Y-155324647D01*
X125270185Y-155257608D01*
X125322989Y-155211853D01*
X125392147Y-155201909D01*
X125455703Y-155230934D01*
G37*
%TD.AperFunction*%
%TA.AperFunction,Conductor*%
G36*
X138092299Y-83270185D02*
G01*
X138138054Y-83322989D01*
X138147998Y-83392147D01*
X138118973Y-83455703D01*
X138112941Y-83462181D01*
X138104984Y-83470137D01*
X138009011Y-83622876D01*
X137949431Y-83793145D01*
X137949430Y-83793150D01*
X137929235Y-83972396D01*
X137929235Y-83972403D01*
X137949430Y-84151649D01*
X137949431Y-84151654D01*
X138009011Y-84321923D01*
X138104984Y-84474662D01*
X138232538Y-84602216D01*
X138385278Y-84698189D01*
X138533325Y-84749993D01*
X138555545Y-84757768D01*
X138555550Y-84757769D01*
X138734796Y-84777965D01*
X138734800Y-84777965D01*
X138734804Y-84777965D01*
X138914049Y-84757769D01*
X138914052Y-84757768D01*
X138914055Y-84757768D01*
X139084322Y-84698189D01*
X139237062Y-84602216D01*
X139364616Y-84474662D01*
X139460589Y-84321922D01*
X139520168Y-84151655D01*
X139535609Y-84014611D01*
X139540365Y-83972403D01*
X139540365Y-83972396D01*
X139520169Y-83793150D01*
X139520168Y-83793145D01*
X139460588Y-83622876D01*
X139364615Y-83470137D01*
X139356659Y-83462181D01*
X139323174Y-83400858D01*
X139328158Y-83331166D01*
X139370030Y-83275233D01*
X139435494Y-83250816D01*
X139444340Y-83250500D01*
X161157278Y-83250500D01*
X161224317Y-83270185D01*
X161270072Y-83322989D01*
X161280016Y-83392147D01*
X161250991Y-83455703D01*
X161192213Y-83493477D01*
X161183934Y-83495601D01*
X160865857Y-83565615D01*
X160526744Y-83679876D01*
X160526739Y-83679877D01*
X160201990Y-83830123D01*
X159895370Y-84014609D01*
X159895367Y-84014611D01*
X159610491Y-84231166D01*
X159597256Y-84243703D01*
X159597255Y-84243703D01*
X160805819Y-85452266D01*
X160615130Y-85615130D01*
X160452266Y-85805818D01*
X159246442Y-84599994D01*
X159246441Y-84599995D01*
X159119040Y-84749983D01*
X159119033Y-84749993D01*
X158918218Y-85046172D01*
X158750606Y-85362322D01*
X158750597Y-85362340D01*
X158618149Y-85694760D01*
X158618147Y-85694767D01*
X158522421Y-86039542D01*
X158522415Y-86039568D01*
X158464527Y-86392668D01*
X158464526Y-86392685D01*
X158445153Y-86749997D01*
X158445153Y-86750002D01*
X158464526Y-87107314D01*
X158464527Y-87107331D01*
X158522415Y-87460431D01*
X158522421Y-87460457D01*
X158618147Y-87805232D01*
X158618149Y-87805239D01*
X158750597Y-88137659D01*
X158750606Y-88137677D01*
X158918218Y-88453827D01*
X159119033Y-88750007D01*
X159246441Y-88900003D01*
X159246442Y-88900004D01*
X160452266Y-87694180D01*
X160615130Y-87884870D01*
X160805818Y-88047732D01*
X159597255Y-89256295D01*
X159597256Y-89256296D01*
X159610485Y-89268828D01*
X159610486Y-89268829D01*
X159895367Y-89485388D01*
X159895370Y-89485390D01*
X160201990Y-89669876D01*
X160526739Y-89820122D01*
X160526744Y-89820123D01*
X160865855Y-89934383D01*
X161215339Y-90011311D01*
X161571075Y-90049999D01*
X161571085Y-90050000D01*
X161928915Y-90050000D01*
X161928924Y-90049999D01*
X162284660Y-90011311D01*
X162634144Y-89934383D01*
X162973255Y-89820123D01*
X162973260Y-89820122D01*
X163298009Y-89669876D01*
X163604629Y-89485390D01*
X163604632Y-89485388D01*
X163889504Y-89268836D01*
X163902742Y-89256294D01*
X162694180Y-88047733D01*
X162884870Y-87884870D01*
X163047733Y-87694180D01*
X164253556Y-88900003D01*
X164380964Y-88750008D01*
X164380975Y-88749994D01*
X164581781Y-88453827D01*
X164749393Y-88137677D01*
X164749402Y-88137659D01*
X164881850Y-87805239D01*
X164881852Y-87805232D01*
X164977578Y-87460457D01*
X164977584Y-87460431D01*
X165003134Y-87304586D01*
X165033404Y-87241614D01*
X165092915Y-87205005D01*
X165162771Y-87206381D01*
X165220794Y-87245306D01*
X165248562Y-87309421D01*
X165249500Y-87324647D01*
X165249500Y-117986501D01*
X165229815Y-118053540D01*
X165177011Y-118099295D01*
X165107853Y-118109239D01*
X165044297Y-118080214D01*
X165026234Y-118060813D01*
X165002130Y-118028615D01*
X164982546Y-118002454D01*
X164982544Y-118002453D01*
X164982544Y-118002452D01*
X164867335Y-117916206D01*
X164867328Y-117916202D01*
X164732482Y-117865908D01*
X164732483Y-117865908D01*
X164672883Y-117859501D01*
X164672881Y-117859500D01*
X164672873Y-117859500D01*
X164672864Y-117859500D01*
X162877129Y-117859500D01*
X162877123Y-117859501D01*
X162817516Y-117865908D01*
X162682671Y-117916202D01*
X162682664Y-117916206D01*
X162567455Y-118002452D01*
X162567452Y-118002455D01*
X162481206Y-118117664D01*
X162481203Y-118117669D01*
X162432189Y-118249083D01*
X162390317Y-118305016D01*
X162324853Y-118329433D01*
X162256580Y-118314581D01*
X162228326Y-118293430D01*
X162106402Y-118171506D01*
X162106395Y-118171501D01*
X162104915Y-118170465D01*
X162039397Y-118124588D01*
X161912834Y-118035967D01*
X161912830Y-118035965D01*
X161897068Y-118028615D01*
X161698663Y-117936097D01*
X161698659Y-117936096D01*
X161698655Y-117936094D01*
X161470413Y-117874938D01*
X161470403Y-117874936D01*
X161235001Y-117854341D01*
X161234999Y-117854341D01*
X160999596Y-117874936D01*
X160999586Y-117874938D01*
X160771344Y-117936094D01*
X160771335Y-117936098D01*
X160557171Y-118035964D01*
X160557169Y-118035965D01*
X160363597Y-118171505D01*
X160196508Y-118338594D01*
X160066269Y-118524595D01*
X160011692Y-118568219D01*
X159942193Y-118575412D01*
X159879839Y-118543890D01*
X159863119Y-118524594D01*
X159733113Y-118338926D01*
X159733108Y-118338920D01*
X159566082Y-118171894D01*
X159372578Y-118036399D01*
X159158492Y-117936570D01*
X159158486Y-117936567D01*
X158945000Y-117879364D01*
X158945000Y-118774498D01*
X158837315Y-118725320D01*
X158730763Y-118710000D01*
X158659237Y-118710000D01*
X158552685Y-118725320D01*
X158445000Y-118774498D01*
X158445000Y-117879364D01*
X158444999Y-117879364D01*
X158231513Y-117936567D01*
X158231507Y-117936570D01*
X158017422Y-118036399D01*
X158017420Y-118036400D01*
X157823926Y-118171886D01*
X157823920Y-118171891D01*
X157656891Y-118338920D01*
X157656886Y-118338926D01*
X157521400Y-118532420D01*
X157521399Y-118532422D01*
X157421570Y-118746507D01*
X157421567Y-118746513D01*
X157364364Y-118959999D01*
X157364364Y-118960000D01*
X158261314Y-118960000D01*
X158235507Y-119000156D01*
X158195000Y-119138111D01*
X158195000Y-119281889D01*
X158235507Y-119419844D01*
X158261314Y-119460000D01*
X157364364Y-119460000D01*
X157421567Y-119673486D01*
X157421570Y-119673492D01*
X157521399Y-119887578D01*
X157656894Y-120081082D01*
X157823917Y-120248105D01*
X158010031Y-120378425D01*
X158053656Y-120433003D01*
X158060848Y-120502501D01*
X158029326Y-120564856D01*
X158010031Y-120581575D01*
X157823922Y-120711890D01*
X157823920Y-120711891D01*
X157656891Y-120878920D01*
X157656886Y-120878926D01*
X157521400Y-121072420D01*
X157521399Y-121072422D01*
X157421570Y-121286507D01*
X157421567Y-121286513D01*
X157364364Y-121499999D01*
X157364364Y-121500000D01*
X158261314Y-121500000D01*
X158235507Y-121540156D01*
X158195000Y-121678111D01*
X158195000Y-121821889D01*
X158235507Y-121959844D01*
X158261314Y-122000000D01*
X157364364Y-122000000D01*
X157421567Y-122213486D01*
X157421570Y-122213492D01*
X157521399Y-122427578D01*
X157656894Y-122621082D01*
X157823917Y-122788105D01*
X158017421Y-122923600D01*
X158231507Y-123023429D01*
X158231516Y-123023433D01*
X158459673Y-123084567D01*
X158464197Y-123085365D01*
X158526801Y-123116391D01*
X158562692Y-123176338D01*
X158565887Y-123193598D01*
X158574230Y-123267649D01*
X158574231Y-123267654D01*
X158574232Y-123267655D01*
X158576255Y-123273435D01*
X158633810Y-123437921D01*
X158683605Y-123517169D01*
X158729784Y-123590662D01*
X158857338Y-123718216D01*
X158952750Y-123778167D01*
X158999040Y-123830500D01*
X159009689Y-123899554D01*
X159003819Y-123924114D01*
X158950132Y-124077542D01*
X158950130Y-124077550D01*
X158929935Y-124256796D01*
X158929935Y-124256803D01*
X158950130Y-124436046D01*
X158950131Y-124436053D01*
X158950132Y-124436055D01*
X158953041Y-124444369D01*
X158960000Y-124485323D01*
X158959999Y-125024498D01*
X158852315Y-124975320D01*
X158745763Y-124960000D01*
X158674237Y-124960000D01*
X158567685Y-124975320D01*
X158460000Y-125024498D01*
X158460000Y-124129364D01*
X158459999Y-124129364D01*
X158246513Y-124186567D01*
X158246507Y-124186570D01*
X158032422Y-124286399D01*
X158032420Y-124286400D01*
X157838926Y-124421886D01*
X157838920Y-124421891D01*
X157671891Y-124588920D01*
X157671886Y-124588926D01*
X157536400Y-124782420D01*
X157536399Y-124782422D01*
X157436570Y-124996507D01*
X157436567Y-124996513D01*
X157379364Y-125209999D01*
X157379364Y-125210000D01*
X158276314Y-125210000D01*
X158250507Y-125250156D01*
X158210000Y-125388111D01*
X158210000Y-125531889D01*
X158250507Y-125669844D01*
X158276314Y-125710000D01*
X157379364Y-125710000D01*
X157436567Y-125923486D01*
X157436570Y-125923492D01*
X157536399Y-126137578D01*
X157671894Y-126331082D01*
X157838917Y-126498105D01*
X158025031Y-126628425D01*
X158068656Y-126683003D01*
X158075848Y-126752501D01*
X158044326Y-126814856D01*
X158025031Y-126831575D01*
X157838922Y-126961890D01*
X157838920Y-126961891D01*
X157671891Y-127128920D01*
X157671886Y-127128926D01*
X157536400Y-127322420D01*
X157536399Y-127322422D01*
X157436570Y-127536507D01*
X157436567Y-127536513D01*
X157379364Y-127749999D01*
X157379364Y-127750000D01*
X158276314Y-127750000D01*
X158250507Y-127790156D01*
X158210000Y-127928111D01*
X158210000Y-128071889D01*
X158250507Y-128209844D01*
X158276314Y-128250000D01*
X157379364Y-128250000D01*
X157436567Y-128463486D01*
X157436570Y-128463492D01*
X157536399Y-128677578D01*
X157671894Y-128871082D01*
X157838917Y-129038105D01*
X158032421Y-129173600D01*
X158246507Y-129273429D01*
X158246516Y-129273433D01*
X158460000Y-129330634D01*
X158460000Y-128435501D01*
X158567685Y-128484680D01*
X158674237Y-128500000D01*
X158745763Y-128500000D01*
X158852315Y-128484680D01*
X158959999Y-128435501D01*
X158959999Y-129330633D01*
X159173483Y-129273433D01*
X159173492Y-129273429D01*
X159387578Y-129173600D01*
X159581082Y-129038105D01*
X159748105Y-128871082D01*
X159878119Y-128685405D01*
X159932696Y-128641781D01*
X160002195Y-128634588D01*
X160064549Y-128666110D01*
X160081269Y-128685405D01*
X160211505Y-128871401D01*
X160378599Y-129038495D01*
X160402328Y-129055110D01*
X160572165Y-129174032D01*
X160572167Y-129174033D01*
X160572170Y-129174035D01*
X160786337Y-129273903D01*
X160786343Y-129273904D01*
X160786344Y-129273905D01*
X160841285Y-129288626D01*
X161014592Y-129335063D01*
X161202918Y-129351539D01*
X161249999Y-129355659D01*
X161250000Y-129355659D01*
X161250001Y-129355659D01*
X161289234Y-129352226D01*
X161485408Y-129335063D01*
X161713663Y-129273903D01*
X161927830Y-129174035D01*
X162121401Y-129038495D01*
X162288495Y-128871401D01*
X162418424Y-128685842D01*
X162473002Y-128642217D01*
X162542500Y-128635023D01*
X162604855Y-128666546D01*
X162621575Y-128685842D01*
X162751500Y-128871395D01*
X162751505Y-128871401D01*
X162918599Y-129038495D01*
X162942328Y-129055110D01*
X163112165Y-129174032D01*
X163112167Y-129174033D01*
X163112170Y-129174035D01*
X163326337Y-129273903D01*
X163326343Y-129273904D01*
X163326344Y-129273905D01*
X163381285Y-129288626D01*
X163554592Y-129335063D01*
X163742918Y-129351539D01*
X163789999Y-129355659D01*
X163790000Y-129355659D01*
X163790001Y-129355659D01*
X163829234Y-129352226D01*
X164025408Y-129335063D01*
X164253663Y-129273903D01*
X164467830Y-129174035D01*
X164661401Y-129038495D01*
X164828495Y-128871401D01*
X164964035Y-128677830D01*
X165013118Y-128572570D01*
X165059290Y-128520131D01*
X165126483Y-128500979D01*
X165193365Y-128521195D01*
X165238699Y-128574360D01*
X165249500Y-128624975D01*
X165249500Y-154175352D01*
X165229815Y-154242391D01*
X165177011Y-154288146D01*
X165107853Y-154298090D01*
X165044297Y-154269065D01*
X165006523Y-154210287D01*
X165003134Y-154195413D01*
X164977584Y-154039568D01*
X164977578Y-154039542D01*
X164881852Y-153694767D01*
X164881850Y-153694760D01*
X164749402Y-153362340D01*
X164749393Y-153362322D01*
X164581781Y-153046172D01*
X164380966Y-152749992D01*
X164253557Y-152599995D01*
X164253556Y-152599994D01*
X163047732Y-153805818D01*
X162884870Y-153615130D01*
X162694179Y-153452265D01*
X163902743Y-152243703D01*
X163902742Y-152243702D01*
X163889514Y-152231171D01*
X163889513Y-152231170D01*
X163604632Y-152014611D01*
X163604629Y-152014609D01*
X163298009Y-151830123D01*
X162973260Y-151679877D01*
X162973255Y-151679876D01*
X162634144Y-151565616D01*
X162284660Y-151488688D01*
X161928924Y-151450000D01*
X161571075Y-151450000D01*
X161215339Y-151488688D01*
X160865855Y-151565616D01*
X160526744Y-151679876D01*
X160526739Y-151679877D01*
X160201990Y-151830123D01*
X159895370Y-152014609D01*
X159895367Y-152014611D01*
X159610491Y-152231166D01*
X159597256Y-152243703D01*
X159597255Y-152243703D01*
X160805819Y-153452266D01*
X160615130Y-153615130D01*
X160452267Y-153805818D01*
X159246442Y-152599994D01*
X159246441Y-152599995D01*
X159119040Y-152749983D01*
X159119033Y-152749993D01*
X158918218Y-153046172D01*
X158750606Y-153362322D01*
X158750597Y-153362340D01*
X158618149Y-153694760D01*
X158618147Y-153694767D01*
X158522421Y-154039542D01*
X158522415Y-154039568D01*
X158464527Y-154392668D01*
X158464526Y-154392685D01*
X158445153Y-154749997D01*
X158445153Y-154750002D01*
X158464526Y-155107314D01*
X158464527Y-155107331D01*
X158522415Y-155460431D01*
X158522421Y-155460457D01*
X158618147Y-155805232D01*
X158618149Y-155805239D01*
X158750597Y-156137659D01*
X158750606Y-156137677D01*
X158918218Y-156453827D01*
X159119033Y-156750007D01*
X159246441Y-156900003D01*
X159246442Y-156900004D01*
X160452266Y-155694180D01*
X160615130Y-155884870D01*
X160805818Y-156047732D01*
X159597255Y-157256295D01*
X159597256Y-157256296D01*
X159610485Y-157268828D01*
X159610486Y-157268829D01*
X159895367Y-157485388D01*
X159895370Y-157485390D01*
X160201990Y-157669876D01*
X160526739Y-157820122D01*
X160526744Y-157820123D01*
X160865857Y-157934384D01*
X161183934Y-158004399D01*
X161245175Y-158038035D01*
X161278509Y-158099440D01*
X161273353Y-158169120D01*
X161231344Y-158224950D01*
X161165819Y-158249205D01*
X161157278Y-158249500D01*
X129342722Y-158249500D01*
X129275683Y-158229815D01*
X129229928Y-158177011D01*
X129219984Y-158107853D01*
X129249009Y-158044297D01*
X129307787Y-158006523D01*
X129316066Y-158004399D01*
X129634142Y-157934384D01*
X129973255Y-157820123D01*
X129973260Y-157820122D01*
X130298009Y-157669876D01*
X130604629Y-157485390D01*
X130604632Y-157485388D01*
X130889504Y-157268836D01*
X130902742Y-157256294D01*
X129694180Y-156047733D01*
X129884870Y-155884870D01*
X130047733Y-155694180D01*
X131253556Y-156900003D01*
X131380964Y-156750008D01*
X131380975Y-156749994D01*
X131581781Y-156453827D01*
X131620072Y-156381603D01*
X154337635Y-156381603D01*
X154357830Y-156560849D01*
X154357831Y-156560854D01*
X154417411Y-156731123D01*
X154513383Y-156883862D01*
X154513384Y-156883862D01*
X154640938Y-157011416D01*
X154793678Y-157107389D01*
X154963944Y-157166968D01*
X154963945Y-157166968D01*
X154963950Y-157166969D01*
X155143196Y-157187165D01*
X155143200Y-157187165D01*
X155143204Y-157187165D01*
X155322449Y-157166969D01*
X155322452Y-157166968D01*
X155322455Y-157166968D01*
X155492722Y-157107389D01*
X155645462Y-157011416D01*
X155773016Y-156883862D01*
X155868989Y-156731122D01*
X155928568Y-156560855D01*
X155948765Y-156381600D01*
X155936911Y-156276396D01*
X155928569Y-156202350D01*
X155928568Y-156202345D01*
X155868988Y-156032076D01*
X155773015Y-155879337D01*
X155645462Y-155751784D01*
X155492723Y-155655811D01*
X155322454Y-155596231D01*
X155322449Y-155596230D01*
X155143204Y-155576035D01*
X155143196Y-155576035D01*
X154963950Y-155596230D01*
X154963945Y-155596231D01*
X154793676Y-155655811D01*
X154640937Y-155751784D01*
X154513384Y-155879337D01*
X154417411Y-156032076D01*
X154357831Y-156202345D01*
X154357830Y-156202350D01*
X154337635Y-156381596D01*
X154337635Y-156381603D01*
X131620072Y-156381603D01*
X131749393Y-156137677D01*
X131749402Y-156137659D01*
X131881850Y-155805239D01*
X131881852Y-155805232D01*
X131977578Y-155460457D01*
X131977584Y-155460431D01*
X132035472Y-155107331D01*
X132035473Y-155107314D01*
X132054847Y-154750002D01*
X132054847Y-154749997D01*
X132051377Y-154686003D01*
X137116435Y-154686003D01*
X137136630Y-154865249D01*
X137136631Y-154865254D01*
X137196211Y-155035523D01*
X137292184Y-155188262D01*
X137419738Y-155315816D01*
X137510080Y-155372582D01*
X137539586Y-155391122D01*
X137572478Y-155411789D01*
X137711489Y-155460431D01*
X137742745Y-155471368D01*
X137742750Y-155471369D01*
X137921996Y-155491565D01*
X137922000Y-155491565D01*
X137922004Y-155491565D01*
X138101249Y-155471369D01*
X138101252Y-155471368D01*
X138101255Y-155471368D01*
X138271522Y-155411789D01*
X138424262Y-155315816D01*
X138551816Y-155188262D01*
X138643968Y-155041603D01*
X139097635Y-155041603D01*
X139117830Y-155220849D01*
X139117831Y-155220854D01*
X139177411Y-155391123D01*
X139273384Y-155543861D01*
X139273384Y-155543862D01*
X139400938Y-155671416D01*
X139553678Y-155767389D01*
X139661827Y-155805232D01*
X139723945Y-155826968D01*
X139723950Y-155826969D01*
X139903196Y-155847165D01*
X139903200Y-155847165D01*
X139903204Y-155847165D01*
X140082449Y-155826969D01*
X140082452Y-155826968D01*
X140082455Y-155826968D01*
X140252722Y-155767389D01*
X140405462Y-155671416D01*
X140533016Y-155543862D01*
X140628989Y-155391122D01*
X140688568Y-155220855D01*
X140688569Y-155220849D01*
X140708765Y-155041603D01*
X140708765Y-155041596D01*
X140688569Y-154862350D01*
X140688568Y-154862345D01*
X140628988Y-154692076D01*
X140533015Y-154539337D01*
X140405462Y-154411784D01*
X140252723Y-154315811D01*
X140082454Y-154256231D01*
X140082449Y-154256230D01*
X139903204Y-154236035D01*
X139903196Y-154236035D01*
X139723950Y-154256230D01*
X139723945Y-154256231D01*
X139553676Y-154315811D01*
X139400937Y-154411784D01*
X139273384Y-154539337D01*
X139177411Y-154692076D01*
X139117831Y-154862345D01*
X139117830Y-154862350D01*
X139097635Y-155041596D01*
X139097635Y-155041603D01*
X138643968Y-155041603D01*
X138647789Y-155035522D01*
X138707368Y-154865255D01*
X138707369Y-154865249D01*
X138727565Y-154686003D01*
X138727565Y-154685996D01*
X138707369Y-154506750D01*
X138707368Y-154506745D01*
X138668773Y-154396446D01*
X138647789Y-154336478D01*
X138551816Y-154183738D01*
X138424262Y-154056184D01*
X138397818Y-154039568D01*
X138271523Y-153960211D01*
X138101254Y-153900631D01*
X138101249Y-153900630D01*
X137922004Y-153880435D01*
X137921996Y-153880435D01*
X137742750Y-153900630D01*
X137742745Y-153900631D01*
X137572476Y-153960211D01*
X137419737Y-154056184D01*
X137292184Y-154183737D01*
X137196211Y-154336476D01*
X137136631Y-154506745D01*
X137136630Y-154506750D01*
X137116435Y-154685996D01*
X137116435Y-154686003D01*
X132051377Y-154686003D01*
X132035473Y-154392685D01*
X132035472Y-154392668D01*
X131977584Y-154039568D01*
X131977578Y-154039542D01*
X131881852Y-153694767D01*
X131881850Y-153694760D01*
X131749402Y-153362340D01*
X131749393Y-153362322D01*
X131581781Y-153046172D01*
X131384770Y-152755603D01*
X137776835Y-152755603D01*
X137797030Y-152934849D01*
X137797031Y-152934854D01*
X137856611Y-153105123D01*
X137931058Y-153223604D01*
X137952584Y-153257862D01*
X138080138Y-153385416D01*
X138232878Y-153481389D01*
X138403144Y-153540967D01*
X138403145Y-153540968D01*
X138403150Y-153540969D01*
X138582396Y-153561165D01*
X138582400Y-153561165D01*
X138582404Y-153561165D01*
X138761649Y-153540969D01*
X138761652Y-153540968D01*
X138761655Y-153540968D01*
X138931922Y-153481389D01*
X139084662Y-153385416D01*
X139212216Y-153257862D01*
X139308189Y-153105122D01*
X139367768Y-152934855D01*
X139387965Y-152755600D01*
X139387333Y-152749993D01*
X139367769Y-152576350D01*
X139367768Y-152576345D01*
X139308188Y-152406076D01*
X139212215Y-152253337D01*
X139084662Y-152125784D01*
X138931923Y-152029811D01*
X138761654Y-151970231D01*
X138761649Y-151970230D01*
X138582404Y-151950035D01*
X138582396Y-151950035D01*
X138403150Y-151970230D01*
X138403145Y-151970231D01*
X138232876Y-152029811D01*
X138080137Y-152125784D01*
X137952584Y-152253337D01*
X137856611Y-152406076D01*
X137797031Y-152576345D01*
X137797030Y-152576350D01*
X137776835Y-152755596D01*
X137776835Y-152755603D01*
X131384770Y-152755603D01*
X131380966Y-152749992D01*
X131253557Y-152599995D01*
X131253556Y-152599994D01*
X130047732Y-153805818D01*
X129884870Y-153615130D01*
X129694179Y-153452266D01*
X130902743Y-152243703D01*
X130902742Y-152243702D01*
X130889514Y-152231171D01*
X130889513Y-152231170D01*
X130604632Y-152014611D01*
X130604629Y-152014609D01*
X130298009Y-151830123D01*
X129973260Y-151679877D01*
X129973255Y-151679876D01*
X129634144Y-151565616D01*
X129284660Y-151488688D01*
X128928924Y-151450000D01*
X128571075Y-151450000D01*
X128215339Y-151488688D01*
X127865855Y-151565616D01*
X127526744Y-151679876D01*
X127526739Y-151679877D01*
X127201990Y-151830123D01*
X126895370Y-152014609D01*
X126895367Y-152014611D01*
X126610491Y-152231166D01*
X126597256Y-152243703D01*
X126597255Y-152243704D01*
X127805818Y-153452267D01*
X127615130Y-153615130D01*
X127452267Y-153805818D01*
X126246442Y-152599994D01*
X126246441Y-152599995D01*
X126119040Y-152749983D01*
X126119033Y-152749993D01*
X125918218Y-153046172D01*
X125750606Y-153362322D01*
X125750597Y-153362340D01*
X125618149Y-153694760D01*
X125618147Y-153694767D01*
X125522421Y-154039542D01*
X125522415Y-154039568D01*
X125496866Y-154195413D01*
X125466595Y-154258385D01*
X125407085Y-154294994D01*
X125337229Y-154293618D01*
X125279206Y-154254693D01*
X125251438Y-154190578D01*
X125250500Y-154175352D01*
X125250500Y-149667870D01*
X126999500Y-149667870D01*
X126999501Y-149667876D01*
X127005908Y-149727483D01*
X127056202Y-149862328D01*
X127056206Y-149862335D01*
X127142452Y-149977544D01*
X127142455Y-149977547D01*
X127257664Y-150063793D01*
X127257671Y-150063797D01*
X127392517Y-150114091D01*
X127392516Y-150114091D01*
X127399444Y-150114835D01*
X127452127Y-150120500D01*
X130547872Y-150120499D01*
X130607483Y-150114091D01*
X130742331Y-150063796D01*
X130743123Y-150063203D01*
X139097635Y-150063203D01*
X139117830Y-150242449D01*
X139117831Y-150242454D01*
X139177411Y-150412723D01*
X139216969Y-150475678D01*
X139273384Y-150565462D01*
X139400938Y-150693016D01*
X139553678Y-150788989D01*
X139657152Y-150825196D01*
X139723945Y-150848568D01*
X139723950Y-150848569D01*
X139903196Y-150868765D01*
X139903200Y-150868765D01*
X139903204Y-150868765D01*
X140082449Y-150848569D01*
X140082452Y-150848568D01*
X140082455Y-150848568D01*
X140149228Y-150825203D01*
X150781635Y-150825203D01*
X150801830Y-151004449D01*
X150801831Y-151004454D01*
X150861411Y-151174723D01*
X150957383Y-151327461D01*
X150957384Y-151327462D01*
X151084938Y-151455016D01*
X151237678Y-151550989D01*
X151323796Y-151581123D01*
X151407945Y-151610568D01*
X151407950Y-151610569D01*
X151587196Y-151630765D01*
X151587200Y-151630765D01*
X151587204Y-151630765D01*
X151766449Y-151610569D01*
X151766452Y-151610568D01*
X151766455Y-151610568D01*
X151936722Y-151550989D01*
X152089462Y-151455016D01*
X152217016Y-151327462D01*
X152277248Y-151231603D01*
X154540835Y-151231603D01*
X154561030Y-151410849D01*
X154561031Y-151410854D01*
X154620611Y-151581123D01*
X154682662Y-151679876D01*
X154716584Y-151733862D01*
X154844138Y-151861416D01*
X154996878Y-151957389D01*
X155160403Y-152014609D01*
X155167145Y-152016968D01*
X155167150Y-152016969D01*
X155346396Y-152037165D01*
X155346400Y-152037165D01*
X155346404Y-152037165D01*
X155525649Y-152016969D01*
X155525652Y-152016968D01*
X155525655Y-152016968D01*
X155695922Y-151957389D01*
X155848662Y-151861416D01*
X155976216Y-151733862D01*
X156072189Y-151581122D01*
X156131768Y-151410855D01*
X156151965Y-151231600D01*
X156145556Y-151174722D01*
X156131769Y-151052350D01*
X156131768Y-151052345D01*
X156131767Y-151052345D01*
X156072189Y-150882078D01*
X155976216Y-150729338D01*
X155848662Y-150601784D01*
X155790856Y-150565462D01*
X155695923Y-150505811D01*
X155525654Y-150446231D01*
X155525649Y-150446230D01*
X155346404Y-150426035D01*
X155346396Y-150426035D01*
X155167150Y-150446230D01*
X155167145Y-150446231D01*
X154996876Y-150505811D01*
X154844137Y-150601784D01*
X154716584Y-150729337D01*
X154620611Y-150882076D01*
X154561031Y-151052345D01*
X154561030Y-151052350D01*
X154540835Y-151231596D01*
X154540835Y-151231603D01*
X152277248Y-151231603D01*
X152312989Y-151174722D01*
X152372568Y-151004455D01*
X152372569Y-151004449D01*
X152392765Y-150825203D01*
X152392765Y-150825196D01*
X152372569Y-150645950D01*
X152372568Y-150645945D01*
X152312988Y-150475676D01*
X152217015Y-150322937D01*
X152089462Y-150195384D01*
X151936723Y-150099411D01*
X151766454Y-150039831D01*
X151766449Y-150039830D01*
X151587204Y-150019635D01*
X151587196Y-150019635D01*
X151407950Y-150039830D01*
X151407945Y-150039831D01*
X151237676Y-150099411D01*
X151084937Y-150195384D01*
X150957384Y-150322937D01*
X150861411Y-150475676D01*
X150801831Y-150645945D01*
X150801830Y-150645950D01*
X150781635Y-150825196D01*
X150781635Y-150825203D01*
X140149228Y-150825203D01*
X140252722Y-150788989D01*
X140405462Y-150693016D01*
X140533016Y-150565462D01*
X140628989Y-150412722D01*
X140688568Y-150242455D01*
X140696239Y-150174371D01*
X140708765Y-150063203D01*
X140708765Y-150063196D01*
X140688569Y-149883950D01*
X140688568Y-149883945D01*
X140647202Y-149765729D01*
X140628989Y-149713678D01*
X140533016Y-149560938D01*
X140405462Y-149433384D01*
X140405462Y-149433383D01*
X140252723Y-149337411D01*
X140082454Y-149277831D01*
X140082449Y-149277830D01*
X139903204Y-149257635D01*
X139903196Y-149257635D01*
X139723950Y-149277830D01*
X139723945Y-149277831D01*
X139553676Y-149337411D01*
X139400937Y-149433384D01*
X139273384Y-149560937D01*
X139177411Y-149713676D01*
X139117831Y-149883945D01*
X139117830Y-149883950D01*
X139097635Y-150063196D01*
X139097635Y-150063203D01*
X130743123Y-150063203D01*
X130857546Y-149977546D01*
X130943796Y-149862331D01*
X130994091Y-149727483D01*
X131000500Y-149667873D01*
X131000499Y-148082000D01*
X135241985Y-148082000D01*
X135260802Y-148285082D01*
X135316617Y-148481247D01*
X135316622Y-148481260D01*
X135407527Y-148663821D01*
X135530437Y-148826581D01*
X135681158Y-148963980D01*
X135681160Y-148963982D01*
X135780341Y-149025392D01*
X135854563Y-149071348D01*
X136044744Y-149145024D01*
X136245224Y-149182500D01*
X136245226Y-149182500D01*
X136449174Y-149182500D01*
X136449176Y-149182500D01*
X136649656Y-149145024D01*
X136839837Y-149071348D01*
X137013241Y-148963981D01*
X137163964Y-148826579D01*
X137286873Y-148663821D01*
X137377782Y-148481250D01*
X137433597Y-148285083D01*
X137447708Y-148132803D01*
X147581235Y-148132803D01*
X147601430Y-148312049D01*
X147601431Y-148312054D01*
X147661011Y-148482323D01*
X147756983Y-148635061D01*
X147756984Y-148635062D01*
X147884538Y-148762616D01*
X148037278Y-148858589D01*
X148207544Y-148918168D01*
X148207545Y-148918168D01*
X148207550Y-148918169D01*
X148386796Y-148938365D01*
X148386800Y-148938365D01*
X148386804Y-148938365D01*
X148566049Y-148918169D01*
X148566052Y-148918168D01*
X148566055Y-148918168D01*
X148736322Y-148858589D01*
X148889062Y-148762616D01*
X149016616Y-148635062D01*
X149112589Y-148482322D01*
X149172168Y-148312055D01*
X149179160Y-148250001D01*
X159744390Y-148250001D01*
X159764804Y-148535433D01*
X159825628Y-148815037D01*
X159825630Y-148815043D01*
X159825631Y-148815046D01*
X159921227Y-149071348D01*
X159925635Y-149083166D01*
X160062770Y-149334309D01*
X160062775Y-149334317D01*
X160234254Y-149563387D01*
X160234270Y-149563405D01*
X160436594Y-149765729D01*
X160436612Y-149765745D01*
X160665682Y-149937224D01*
X160665690Y-149937229D01*
X160916833Y-150074364D01*
X160916832Y-150074364D01*
X160916836Y-150074365D01*
X160916839Y-150074367D01*
X161184954Y-150174369D01*
X161184960Y-150174370D01*
X161184962Y-150174371D01*
X161464566Y-150235195D01*
X161464568Y-150235195D01*
X161464572Y-150235196D01*
X161718220Y-150253337D01*
X161749999Y-150255610D01*
X161750000Y-150255610D01*
X161750001Y-150255610D01*
X161778595Y-150253564D01*
X162035428Y-150235196D01*
X162218442Y-150195384D01*
X162315037Y-150174371D01*
X162315037Y-150174370D01*
X162315046Y-150174369D01*
X162583161Y-150074367D01*
X162834315Y-149937226D01*
X163063395Y-149765739D01*
X163265739Y-149563395D01*
X163437226Y-149334315D01*
X163574367Y-149083161D01*
X163674369Y-148815046D01*
X163735196Y-148535428D01*
X163755610Y-148250000D01*
X163735196Y-147964572D01*
X163732798Y-147953550D01*
X163674371Y-147684962D01*
X163674370Y-147684960D01*
X163674369Y-147684954D01*
X163574367Y-147416839D01*
X163569000Y-147407011D01*
X163437229Y-147165690D01*
X163437224Y-147165682D01*
X163265745Y-146936612D01*
X163265729Y-146936594D01*
X163063405Y-146734270D01*
X163063387Y-146734254D01*
X162834317Y-146562775D01*
X162834309Y-146562770D01*
X162583166Y-146425635D01*
X162583167Y-146425635D01*
X162454551Y-146377664D01*
X162315046Y-146325631D01*
X162315043Y-146325630D01*
X162315037Y-146325628D01*
X162035433Y-146264804D01*
X161750001Y-146244390D01*
X161749999Y-146244390D01*
X161464566Y-146264804D01*
X161184962Y-146325628D01*
X160916833Y-146425635D01*
X160665690Y-146562770D01*
X160665682Y-146562775D01*
X160436612Y-146734254D01*
X160436594Y-146734270D01*
X160234270Y-146936594D01*
X160234254Y-146936612D01*
X160062775Y-147165682D01*
X160062770Y-147165690D01*
X159925635Y-147416833D01*
X159825628Y-147684962D01*
X159764804Y-147964566D01*
X159744390Y-148249998D01*
X159744390Y-148250001D01*
X149179160Y-148250001D01*
X149192365Y-148132800D01*
X149186641Y-148082000D01*
X149172169Y-147953550D01*
X149172168Y-147953545D01*
X149153087Y-147899015D01*
X149112589Y-147783278D01*
X149016616Y-147630538D01*
X148889062Y-147502984D01*
X148884596Y-147500178D01*
X148736323Y-147407011D01*
X148566054Y-147347431D01*
X148566049Y-147347430D01*
X148386804Y-147327235D01*
X148386796Y-147327235D01*
X148207550Y-147347430D01*
X148207545Y-147347431D01*
X148037276Y-147407011D01*
X147884537Y-147502984D01*
X147756984Y-147630537D01*
X147661011Y-147783276D01*
X147601431Y-147953545D01*
X147601430Y-147953550D01*
X147581235Y-148132796D01*
X147581235Y-148132803D01*
X137447708Y-148132803D01*
X137452415Y-148082000D01*
X137433597Y-147878917D01*
X137377782Y-147682750D01*
X137336234Y-147599311D01*
X137323974Y-147530527D01*
X137350847Y-147466032D01*
X137408323Y-147426304D01*
X137478153Y-147423956D01*
X137488190Y-147426999D01*
X137539537Y-147444966D01*
X137539543Y-147444967D01*
X137539545Y-147444968D01*
X137539546Y-147444968D01*
X137539550Y-147444969D01*
X137718796Y-147465165D01*
X137718800Y-147465165D01*
X137718804Y-147465165D01*
X137898049Y-147444969D01*
X137898052Y-147444968D01*
X137898055Y-147444968D01*
X138068322Y-147385389D01*
X138221062Y-147289416D01*
X138241275Y-147269203D01*
X143923635Y-147269203D01*
X143943830Y-147448449D01*
X143943831Y-147448454D01*
X144003411Y-147618723D01*
X144045027Y-147684954D01*
X144099384Y-147771462D01*
X144226938Y-147899016D01*
X144379678Y-147994989D01*
X144549945Y-148054568D01*
X144549950Y-148054569D01*
X144729196Y-148074765D01*
X144729200Y-148074765D01*
X144729204Y-148074765D01*
X144908449Y-148054569D01*
X144908452Y-148054568D01*
X144908455Y-148054568D01*
X145078722Y-147994989D01*
X145231462Y-147899016D01*
X145359016Y-147771462D01*
X145454989Y-147618722D01*
X145514568Y-147448455D01*
X145514961Y-147444966D01*
X145534765Y-147269203D01*
X145534765Y-147269196D01*
X145514569Y-147089950D01*
X145514568Y-147089945D01*
X145486287Y-147009122D01*
X145454989Y-146919678D01*
X145359016Y-146766938D01*
X145231462Y-146639384D01*
X145078723Y-146543411D01*
X144908454Y-146483831D01*
X144908449Y-146483830D01*
X144729204Y-146463635D01*
X144729196Y-146463635D01*
X144549950Y-146483830D01*
X144549945Y-146483831D01*
X144379676Y-146543411D01*
X144226937Y-146639384D01*
X144099384Y-146766937D01*
X144003411Y-146919676D01*
X143943831Y-147089945D01*
X143943830Y-147089950D01*
X143923635Y-147269196D01*
X143923635Y-147269203D01*
X138241275Y-147269203D01*
X138348616Y-147161862D01*
X138444589Y-147009122D01*
X138504168Y-146838855D01*
X138524365Y-146659600D01*
X138522087Y-146639384D01*
X138504169Y-146480350D01*
X138504168Y-146480345D01*
X138444588Y-146310076D01*
X138403314Y-146244390D01*
X138348616Y-146157338D01*
X138221062Y-146029784D01*
X138221061Y-146029784D01*
X138068323Y-145933811D01*
X137898054Y-145874231D01*
X137898049Y-145874230D01*
X137718804Y-145854035D01*
X137718796Y-145854035D01*
X137539550Y-145874230D01*
X137539545Y-145874231D01*
X137369276Y-145933811D01*
X137216537Y-146029784D01*
X137088984Y-146157337D01*
X136993011Y-146310076D01*
X136933431Y-146480345D01*
X136933430Y-146480350D01*
X136913235Y-146659596D01*
X136913235Y-146659603D01*
X136933430Y-146838849D01*
X136933431Y-146838854D01*
X136962082Y-146920732D01*
X136965643Y-146990511D01*
X136930914Y-147051139D01*
X136868921Y-147083366D01*
X136800247Y-147077314D01*
X136649660Y-147018977D01*
X136649657Y-147018976D01*
X136649656Y-147018976D01*
X136449176Y-146981500D01*
X136245224Y-146981500D01*
X136044744Y-147018976D01*
X136044741Y-147018976D01*
X136044741Y-147018977D01*
X135854564Y-147092651D01*
X135854557Y-147092655D01*
X135681160Y-147200017D01*
X135681158Y-147200019D01*
X135530437Y-147337418D01*
X135407527Y-147500178D01*
X135316622Y-147682739D01*
X135316617Y-147682752D01*
X135260802Y-147878917D01*
X135241985Y-148081999D01*
X135241985Y-148082000D01*
X131000499Y-148082000D01*
X131000499Y-146572128D01*
X130994091Y-146512517D01*
X130983392Y-146483832D01*
X130943797Y-146377671D01*
X130943793Y-146377664D01*
X130857547Y-146262455D01*
X130857544Y-146262452D01*
X130742335Y-146176206D01*
X130742328Y-146176202D01*
X130607482Y-146125908D01*
X130607483Y-146125908D01*
X130547883Y-146119501D01*
X130547881Y-146119500D01*
X130547873Y-146119500D01*
X130547864Y-146119500D01*
X127452129Y-146119500D01*
X127452123Y-146119501D01*
X127392516Y-146125908D01*
X127257671Y-146176202D01*
X127257664Y-146176206D01*
X127142455Y-146262452D01*
X127142452Y-146262455D01*
X127056206Y-146377664D01*
X127056202Y-146377671D01*
X127005908Y-146512517D01*
X127000505Y-146562775D01*
X126999501Y-146572123D01*
X126999500Y-146572135D01*
X126999500Y-149667870D01*
X125250500Y-149667870D01*
X125250500Y-143040001D01*
X126994891Y-143040001D01*
X127015300Y-143325362D01*
X127076109Y-143604895D01*
X127176091Y-143872958D01*
X127313191Y-144124038D01*
X127313196Y-144124046D01*
X127419882Y-144266561D01*
X127419883Y-144266562D01*
X128315195Y-143371250D01*
X128337340Y-143422587D01*
X128443433Y-143565094D01*
X128579530Y-143679294D01*
X128669216Y-143724335D01*
X127773436Y-144620115D01*
X127915960Y-144726807D01*
X127915961Y-144726808D01*
X128167042Y-144863908D01*
X128167041Y-144863908D01*
X128435104Y-144963890D01*
X128714637Y-145024699D01*
X128999999Y-145045109D01*
X129000001Y-145045109D01*
X129285362Y-145024699D01*
X129564895Y-144963890D01*
X129832958Y-144863908D01*
X130084047Y-144726803D01*
X130226561Y-144620116D01*
X130226562Y-144620115D01*
X129980047Y-144373600D01*
X138440659Y-144373600D01*
X138459975Y-144569729D01*
X138459976Y-144569732D01*
X138507624Y-144726807D01*
X138517188Y-144758333D01*
X138610086Y-144932132D01*
X138610090Y-144932139D01*
X138735116Y-145084483D01*
X138887460Y-145209509D01*
X138887467Y-145209513D01*
X139061266Y-145302411D01*
X139061269Y-145302411D01*
X139061273Y-145302414D01*
X139249868Y-145359624D01*
X139446000Y-145378941D01*
X139642132Y-145359624D01*
X139830727Y-145302414D01*
X140004538Y-145209510D01*
X140156883Y-145084483D01*
X140281910Y-144932138D01*
X140374814Y-144758327D01*
X140432024Y-144569732D01*
X140451341Y-144373600D01*
X140432024Y-144177468D01*
X140374814Y-143988873D01*
X140374811Y-143988869D01*
X140374811Y-143988866D01*
X140281913Y-143815067D01*
X140281909Y-143815060D01*
X140156883Y-143662716D01*
X140004539Y-143537690D01*
X140004532Y-143537686D01*
X139830733Y-143444788D01*
X139830727Y-143444786D01*
X139704997Y-143406645D01*
X139642129Y-143387575D01*
X139446000Y-143368259D01*
X139249870Y-143387575D01*
X139061266Y-143444788D01*
X138887467Y-143537686D01*
X138887460Y-143537690D01*
X138735116Y-143662716D01*
X138610090Y-143815060D01*
X138610086Y-143815067D01*
X138517188Y-143988866D01*
X138459975Y-144177470D01*
X138440659Y-144373600D01*
X129980047Y-144373600D01*
X129333748Y-143727300D01*
X129343409Y-143723784D01*
X129491844Y-143626157D01*
X129613764Y-143496930D01*
X129685768Y-143372215D01*
X130580115Y-144266562D01*
X130580116Y-144266561D01*
X130686803Y-144124047D01*
X130823908Y-143872958D01*
X130923890Y-143604895D01*
X130984699Y-143325362D01*
X131005108Y-143040001D01*
X131005108Y-143039998D01*
X130984699Y-142754637D01*
X130950102Y-142595600D01*
X132549585Y-142595600D01*
X132568402Y-142798682D01*
X132624217Y-142994847D01*
X132624222Y-142994860D01*
X132715127Y-143177421D01*
X132838037Y-143340181D01*
X132988758Y-143477580D01*
X132988760Y-143477582D01*
X133085832Y-143537686D01*
X133162163Y-143584948D01*
X133352344Y-143658624D01*
X133552824Y-143696100D01*
X133552826Y-143696100D01*
X133756774Y-143696100D01*
X133756776Y-143696100D01*
X133957256Y-143658624D01*
X134147437Y-143584948D01*
X134320841Y-143477581D01*
X134471564Y-143340179D01*
X134594473Y-143177421D01*
X134685382Y-142994850D01*
X134741197Y-142798683D01*
X134760015Y-142595600D01*
X134741197Y-142392517D01*
X134697802Y-142240000D01*
X139712385Y-142240000D01*
X139731202Y-142443082D01*
X139787017Y-142639247D01*
X139787022Y-142639260D01*
X139877927Y-142821821D01*
X140000837Y-142984581D01*
X140151558Y-143121980D01*
X140151560Y-143121982D01*
X140229114Y-143170001D01*
X140324963Y-143229348D01*
X140515144Y-143303024D01*
X140715624Y-143340500D01*
X140715626Y-143340500D01*
X140919574Y-143340500D01*
X140919576Y-143340500D01*
X141120056Y-143303024D01*
X141310237Y-143229348D01*
X141406086Y-143170001D01*
X159744390Y-143170001D01*
X159764804Y-143455433D01*
X159825628Y-143735037D01*
X159825630Y-143735043D01*
X159825631Y-143735046D01*
X159877070Y-143872958D01*
X159925635Y-144003166D01*
X160062770Y-144254309D01*
X160062775Y-144254317D01*
X160234254Y-144483387D01*
X160234270Y-144483405D01*
X160436594Y-144685729D01*
X160436612Y-144685745D01*
X160665682Y-144857224D01*
X160665690Y-144857229D01*
X160916833Y-144994364D01*
X160916832Y-144994364D01*
X160916836Y-144994365D01*
X160916839Y-144994367D01*
X161184954Y-145094369D01*
X161184960Y-145094370D01*
X161184962Y-145094371D01*
X161464566Y-145155195D01*
X161464568Y-145155195D01*
X161464572Y-145155196D01*
X161718220Y-145173337D01*
X161749999Y-145175610D01*
X161750000Y-145175610D01*
X161750001Y-145175610D01*
X161778595Y-145173564D01*
X162035428Y-145155196D01*
X162315046Y-145094369D01*
X162583161Y-144994367D01*
X162834315Y-144857226D01*
X163063395Y-144685739D01*
X163265739Y-144483395D01*
X163437226Y-144254315D01*
X163574367Y-144003161D01*
X163674369Y-143735046D01*
X163735196Y-143455428D01*
X163755610Y-143170000D01*
X163735196Y-142884572D01*
X163721545Y-142821821D01*
X163674371Y-142604962D01*
X163674370Y-142604960D01*
X163674369Y-142604954D01*
X163574367Y-142336839D01*
X163551767Y-142295451D01*
X163437229Y-142085690D01*
X163437224Y-142085682D01*
X163265745Y-141856612D01*
X163265729Y-141856594D01*
X163063405Y-141654270D01*
X163063387Y-141654254D01*
X162834317Y-141482775D01*
X162834309Y-141482770D01*
X162583166Y-141345635D01*
X162583167Y-141345635D01*
X162475914Y-141305632D01*
X162315046Y-141245631D01*
X162315043Y-141245630D01*
X162315037Y-141245628D01*
X162035433Y-141184804D01*
X161750001Y-141164390D01*
X161749999Y-141164390D01*
X161464566Y-141184804D01*
X161184962Y-141245628D01*
X160916833Y-141345635D01*
X160665690Y-141482770D01*
X160665682Y-141482775D01*
X160436612Y-141654254D01*
X160436594Y-141654270D01*
X160234270Y-141856594D01*
X160234254Y-141856612D01*
X160062775Y-142085682D01*
X160062770Y-142085690D01*
X159925635Y-142336833D01*
X159825628Y-142604962D01*
X159764804Y-142884566D01*
X159744390Y-143169998D01*
X159744390Y-143170001D01*
X141406086Y-143170001D01*
X141483641Y-143121981D01*
X141634364Y-142984579D01*
X141757273Y-142821821D01*
X141848182Y-142639250D01*
X141903997Y-142443083D01*
X141922815Y-142240000D01*
X141903997Y-142036917D01*
X141848182Y-141840750D01*
X141834581Y-141813436D01*
X141803872Y-141751764D01*
X141757273Y-141658179D01*
X141634364Y-141495421D01*
X141634362Y-141495418D01*
X141483641Y-141358019D01*
X141483639Y-141358017D01*
X141310242Y-141250655D01*
X141310235Y-141250651D01*
X141215146Y-141213814D01*
X141120056Y-141176976D01*
X140919576Y-141139500D01*
X140715624Y-141139500D01*
X140515144Y-141176976D01*
X140515141Y-141176976D01*
X140515141Y-141176977D01*
X140324964Y-141250651D01*
X140324957Y-141250655D01*
X140151560Y-141358017D01*
X140151558Y-141358019D01*
X140000837Y-141495418D01*
X139877927Y-141658178D01*
X139787022Y-141840739D01*
X139787017Y-141840752D01*
X139731202Y-142036917D01*
X139712385Y-142239999D01*
X139712385Y-142240000D01*
X134697802Y-142240000D01*
X134685382Y-142196350D01*
X134594473Y-142013779D01*
X134471564Y-141851021D01*
X134471562Y-141851018D01*
X134320841Y-141713619D01*
X134320839Y-141713617D01*
X134147442Y-141606255D01*
X134147435Y-141606251D01*
X134052346Y-141569413D01*
X133957256Y-141532576D01*
X133756776Y-141495100D01*
X133552824Y-141495100D01*
X133352344Y-141532576D01*
X133352341Y-141532576D01*
X133352341Y-141532577D01*
X133162164Y-141606251D01*
X133162157Y-141606255D01*
X132988760Y-141713617D01*
X132988758Y-141713619D01*
X132838037Y-141851018D01*
X132715127Y-142013778D01*
X132624222Y-142196339D01*
X132624217Y-142196352D01*
X132568402Y-142392517D01*
X132549585Y-142595599D01*
X132549585Y-142595600D01*
X130950102Y-142595600D01*
X130923890Y-142475104D01*
X130823908Y-142207041D01*
X130686808Y-141955961D01*
X130686807Y-141955960D01*
X130580115Y-141813436D01*
X129684803Y-142708747D01*
X129662660Y-142657413D01*
X129556567Y-142514906D01*
X129420470Y-142400706D01*
X129330782Y-142355663D01*
X130226562Y-141459883D01*
X130226561Y-141459882D01*
X130084046Y-141353196D01*
X130084038Y-141353191D01*
X129832957Y-141216091D01*
X129832958Y-141216091D01*
X129564895Y-141116109D01*
X129285362Y-141055300D01*
X129000001Y-141034891D01*
X128999999Y-141034891D01*
X128714637Y-141055300D01*
X128435104Y-141116109D01*
X128167041Y-141216091D01*
X127915961Y-141353191D01*
X127915953Y-141353196D01*
X127773437Y-141459882D01*
X127773436Y-141459883D01*
X128666252Y-142352699D01*
X128656591Y-142356216D01*
X128508156Y-142453843D01*
X128386236Y-142583070D01*
X128314231Y-142707784D01*
X127419883Y-141813436D01*
X127419882Y-141813437D01*
X127313196Y-141955953D01*
X127313191Y-141955961D01*
X127176091Y-142207041D01*
X127076109Y-142475104D01*
X127015300Y-142754637D01*
X126994891Y-143039998D01*
X126994891Y-143040001D01*
X125250500Y-143040001D01*
X125250500Y-137960001D01*
X126994390Y-137960001D01*
X127014804Y-138245433D01*
X127075628Y-138525037D01*
X127075630Y-138525043D01*
X127075631Y-138525046D01*
X127124119Y-138655046D01*
X127175635Y-138793166D01*
X127312770Y-139044309D01*
X127312775Y-139044317D01*
X127484254Y-139273387D01*
X127484270Y-139273405D01*
X127686594Y-139475729D01*
X127686612Y-139475745D01*
X127915682Y-139647224D01*
X127915690Y-139647229D01*
X128166833Y-139784364D01*
X128166832Y-139784364D01*
X128166836Y-139784365D01*
X128166839Y-139784367D01*
X128434954Y-139884369D01*
X128434960Y-139884370D01*
X128434962Y-139884371D01*
X128714566Y-139945195D01*
X128714568Y-139945195D01*
X128714572Y-139945196D01*
X128968220Y-139963337D01*
X128999999Y-139965610D01*
X129000000Y-139965610D01*
X129000001Y-139965610D01*
X129028595Y-139963564D01*
X129285428Y-139945196D01*
X129565046Y-139884369D01*
X129833161Y-139784367D01*
X130084315Y-139647226D01*
X130313395Y-139475739D01*
X130515739Y-139273395D01*
X130687226Y-139044315D01*
X130824367Y-138793161D01*
X130924369Y-138525046D01*
X130956916Y-138375428D01*
X130985195Y-138245433D01*
X130985195Y-138245432D01*
X130985196Y-138245428D01*
X130993795Y-138125203D01*
X140215235Y-138125203D01*
X140235430Y-138304449D01*
X140235431Y-138304454D01*
X140295011Y-138474723D01*
X140390984Y-138627462D01*
X140518538Y-138755016D01*
X140671278Y-138850989D01*
X140841544Y-138910567D01*
X140841545Y-138910568D01*
X140841550Y-138910569D01*
X141020796Y-138930765D01*
X141020800Y-138930765D01*
X141020804Y-138930765D01*
X141200049Y-138910569D01*
X141200052Y-138910568D01*
X141200055Y-138910568D01*
X141370322Y-138850989D01*
X141523062Y-138755016D01*
X141650616Y-138627462D01*
X141746589Y-138474722D01*
X141806168Y-138304455D01*
X141826365Y-138125200D01*
X141822399Y-138090001D01*
X159744390Y-138090001D01*
X159764804Y-138375433D01*
X159825628Y-138655037D01*
X159825630Y-138655043D01*
X159825631Y-138655046D01*
X159925633Y-138923161D01*
X159925635Y-138923166D01*
X160062770Y-139174309D01*
X160062775Y-139174317D01*
X160234254Y-139403387D01*
X160234270Y-139403405D01*
X160436594Y-139605729D01*
X160436612Y-139605745D01*
X160665682Y-139777224D01*
X160665690Y-139777229D01*
X160916833Y-139914364D01*
X160916832Y-139914364D01*
X160916836Y-139914365D01*
X160916839Y-139914367D01*
X161184954Y-140014369D01*
X161184960Y-140014370D01*
X161184962Y-140014371D01*
X161464566Y-140075195D01*
X161464568Y-140075195D01*
X161464572Y-140075196D01*
X161718220Y-140093337D01*
X161749999Y-140095610D01*
X161750000Y-140095610D01*
X161750001Y-140095610D01*
X161778595Y-140093564D01*
X162035428Y-140075196D01*
X162315046Y-140014369D01*
X162583161Y-139914367D01*
X162834315Y-139777226D01*
X163063395Y-139605739D01*
X163265739Y-139403395D01*
X163437226Y-139174315D01*
X163574367Y-138923161D01*
X163674369Y-138655046D01*
X163735196Y-138375428D01*
X163755610Y-138090000D01*
X163735196Y-137804572D01*
X163706916Y-137674572D01*
X163674371Y-137524962D01*
X163674370Y-137524960D01*
X163674369Y-137524954D01*
X163574367Y-137256839D01*
X163518170Y-137153923D01*
X163437229Y-137005690D01*
X163437224Y-137005682D01*
X163265745Y-136776612D01*
X163265729Y-136776594D01*
X163063405Y-136574270D01*
X163063387Y-136574254D01*
X162834317Y-136402775D01*
X162834309Y-136402770D01*
X162583166Y-136265635D01*
X162583167Y-136265635D01*
X162457450Y-136218745D01*
X162315046Y-136165631D01*
X162315043Y-136165630D01*
X162315037Y-136165628D01*
X162035433Y-136104804D01*
X161750001Y-136084390D01*
X161749999Y-136084390D01*
X161464566Y-136104804D01*
X161184962Y-136165628D01*
X160916833Y-136265635D01*
X160665690Y-136402770D01*
X160665682Y-136402775D01*
X160436612Y-136574254D01*
X160436594Y-136574270D01*
X160234270Y-136776594D01*
X160234254Y-136776612D01*
X160062775Y-137005682D01*
X160062770Y-137005690D01*
X159925635Y-137256833D01*
X159825628Y-137524962D01*
X159764804Y-137804566D01*
X159744390Y-138089998D01*
X159744390Y-138090001D01*
X141822399Y-138090001D01*
X141806169Y-137945950D01*
X141806168Y-137945945D01*
X141746588Y-137775676D01*
X141650615Y-137622937D01*
X141523062Y-137495384D01*
X141370323Y-137399411D01*
X141200054Y-137339831D01*
X141200049Y-137339830D01*
X141020804Y-137319635D01*
X141020796Y-137319635D01*
X140841550Y-137339830D01*
X140841545Y-137339831D01*
X140671276Y-137399411D01*
X140518537Y-137495384D01*
X140390984Y-137622937D01*
X140295011Y-137775676D01*
X140235431Y-137945945D01*
X140235430Y-137945950D01*
X140215235Y-138125196D01*
X140215235Y-138125203D01*
X130993795Y-138125203D01*
X131005610Y-137960000D01*
X130985196Y-137674572D01*
X130966748Y-137589769D01*
X130924371Y-137394962D01*
X130924370Y-137394960D01*
X130924369Y-137394954D01*
X130824367Y-137126839D01*
X130758214Y-137005690D01*
X130687229Y-136875690D01*
X130687224Y-136875682D01*
X130633865Y-136804403D01*
X132544435Y-136804403D01*
X132564630Y-136983649D01*
X132564631Y-136983654D01*
X132624211Y-137153923D01*
X132688874Y-137256833D01*
X132720184Y-137306662D01*
X132847738Y-137434216D01*
X132938080Y-137490982D01*
X132992146Y-137524954D01*
X133000478Y-137530189D01*
X133170745Y-137589767D01*
X133170745Y-137589768D01*
X133170750Y-137589769D01*
X133349996Y-137609965D01*
X133350000Y-137609965D01*
X133350004Y-137609965D01*
X133529249Y-137589769D01*
X133529252Y-137589768D01*
X133529255Y-137589768D01*
X133699522Y-137530189D01*
X133852262Y-137434216D01*
X133979816Y-137306662D01*
X134075789Y-137153922D01*
X134135368Y-136983655D01*
X134147533Y-136875690D01*
X134155565Y-136804403D01*
X134155565Y-136804396D01*
X134135369Y-136625150D01*
X134135368Y-136625145D01*
X134135368Y-136625144D01*
X134075789Y-136454878D01*
X134069113Y-136444254D01*
X134040052Y-136398003D01*
X141434435Y-136398003D01*
X141454630Y-136577249D01*
X141454631Y-136577254D01*
X141514211Y-136747523D01*
X141594739Y-136875682D01*
X141610184Y-136900262D01*
X141737738Y-137027816D01*
X141890478Y-137123789D01*
X141976596Y-137153923D01*
X142060745Y-137183368D01*
X142060750Y-137183369D01*
X142239996Y-137203565D01*
X142240000Y-137203565D01*
X142240004Y-137203565D01*
X142419249Y-137183369D01*
X142419252Y-137183368D01*
X142419255Y-137183368D01*
X142589522Y-137123789D01*
X142742262Y-137027816D01*
X142869816Y-136900262D01*
X142965789Y-136747522D01*
X143025368Y-136577255D01*
X143025369Y-136577249D01*
X143045565Y-136398003D01*
X143045565Y-136397996D01*
X143025369Y-136218750D01*
X143025368Y-136218745D01*
X143006783Y-136165631D01*
X142965789Y-136048478D01*
X142869816Y-135895738D01*
X142742262Y-135768184D01*
X142724901Y-135757275D01*
X142678612Y-135704940D01*
X142667965Y-135635887D01*
X142696341Y-135572039D01*
X142754731Y-135533668D01*
X142818471Y-135531393D01*
X142822745Y-135532368D01*
X143001996Y-135552565D01*
X143002000Y-135552565D01*
X143002004Y-135552565D01*
X143181249Y-135532369D01*
X143181252Y-135532368D01*
X143181255Y-135532368D01*
X143351522Y-135472789D01*
X143504262Y-135376816D01*
X143631816Y-135249262D01*
X143727789Y-135096522D01*
X143787368Y-134926255D01*
X143806964Y-134752335D01*
X143807565Y-134747003D01*
X143807565Y-134746996D01*
X143787369Y-134567750D01*
X143787368Y-134567745D01*
X143783913Y-134557870D01*
X159749500Y-134557870D01*
X159749501Y-134557876D01*
X159755908Y-134617483D01*
X159806202Y-134752328D01*
X159806206Y-134752335D01*
X159892452Y-134867544D01*
X159892455Y-134867547D01*
X160007664Y-134953793D01*
X160007671Y-134953797D01*
X160142517Y-135004091D01*
X160142516Y-135004091D01*
X160149444Y-135004835D01*
X160202127Y-135010500D01*
X163297872Y-135010499D01*
X163357483Y-135004091D01*
X163492331Y-134953796D01*
X163607546Y-134867546D01*
X163693796Y-134752331D01*
X163744091Y-134617483D01*
X163750500Y-134557873D01*
X163750499Y-131462128D01*
X163744091Y-131402517D01*
X163736956Y-131383388D01*
X163693797Y-131267671D01*
X163693793Y-131267664D01*
X163607547Y-131152455D01*
X163607544Y-131152452D01*
X163492335Y-131066206D01*
X163492328Y-131066202D01*
X163357482Y-131015908D01*
X163357483Y-131015908D01*
X163297883Y-131009501D01*
X163297881Y-131009500D01*
X163297873Y-131009500D01*
X163297864Y-131009500D01*
X160202129Y-131009500D01*
X160202123Y-131009501D01*
X160142516Y-131015908D01*
X160007671Y-131066202D01*
X160007664Y-131066206D01*
X159892455Y-131152452D01*
X159892452Y-131152455D01*
X159806206Y-131267664D01*
X159806202Y-131267671D01*
X159755908Y-131402517D01*
X159749501Y-131462116D01*
X159749501Y-131462123D01*
X159749500Y-131462135D01*
X159749500Y-134557870D01*
X143783913Y-134557870D01*
X143727788Y-134397476D01*
X143631815Y-134244737D01*
X143504262Y-134117184D01*
X143351523Y-134021211D01*
X143181254Y-133961631D01*
X143181249Y-133961630D01*
X143002004Y-133941435D01*
X143001996Y-133941435D01*
X142822750Y-133961630D01*
X142822745Y-133961631D01*
X142652476Y-134021211D01*
X142499737Y-134117184D01*
X142372184Y-134244737D01*
X142276211Y-134397476D01*
X142216631Y-134567745D01*
X142216630Y-134567750D01*
X142196435Y-134746996D01*
X142196435Y-134747003D01*
X142216630Y-134926249D01*
X142216631Y-134926254D01*
X142276211Y-135096523D01*
X142372184Y-135249262D01*
X142499739Y-135376817D01*
X142517096Y-135387723D01*
X142563386Y-135440057D01*
X142574034Y-135509111D01*
X142545659Y-135572959D01*
X142487269Y-135611331D01*
X142423536Y-135613608D01*
X142419257Y-135612631D01*
X142240004Y-135592435D01*
X142239996Y-135592435D01*
X142060750Y-135612630D01*
X142060745Y-135612631D01*
X141890476Y-135672211D01*
X141737737Y-135768184D01*
X141610184Y-135895737D01*
X141514211Y-136048476D01*
X141454631Y-136218745D01*
X141454630Y-136218750D01*
X141434435Y-136397996D01*
X141434435Y-136398003D01*
X134040052Y-136398003D01*
X133979815Y-136302137D01*
X133852262Y-136174584D01*
X133699523Y-136078611D01*
X133529254Y-136019031D01*
X133529249Y-136019030D01*
X133350004Y-135998835D01*
X133349996Y-135998835D01*
X133170750Y-136019030D01*
X133170745Y-136019031D01*
X133000476Y-136078611D01*
X132847737Y-136174584D01*
X132720184Y-136302137D01*
X132624211Y-136454876D01*
X132564631Y-136625145D01*
X132564630Y-136625150D01*
X132544435Y-136804396D01*
X132544435Y-136804403D01*
X130633865Y-136804403D01*
X130515745Y-136646612D01*
X130515729Y-136646594D01*
X130313405Y-136444270D01*
X130313387Y-136444254D01*
X130084317Y-136272775D01*
X130084309Y-136272770D01*
X129833166Y-136135635D01*
X129833167Y-136135635D01*
X129718692Y-136092938D01*
X129565046Y-136035631D01*
X129565043Y-136035630D01*
X129565037Y-136035628D01*
X129285433Y-135974804D01*
X129000001Y-135954390D01*
X128999999Y-135954390D01*
X128714566Y-135974804D01*
X128434962Y-136035628D01*
X128166833Y-136135635D01*
X127915690Y-136272770D01*
X127915682Y-136272775D01*
X127686612Y-136444254D01*
X127686594Y-136444270D01*
X127484270Y-136646594D01*
X127484254Y-136646612D01*
X127312775Y-136875682D01*
X127312770Y-136875690D01*
X127175635Y-137126833D01*
X127075628Y-137394962D01*
X127014804Y-137674566D01*
X126994390Y-137959998D01*
X126994390Y-137960001D01*
X125250500Y-137960001D01*
X125250500Y-135534400D01*
X130566659Y-135534400D01*
X130585975Y-135730529D01*
X130643188Y-135919133D01*
X130736086Y-136092932D01*
X130736090Y-136092939D01*
X130861116Y-136245283D01*
X131013460Y-136370309D01*
X131013467Y-136370313D01*
X131187266Y-136463211D01*
X131187269Y-136463211D01*
X131187273Y-136463214D01*
X131375868Y-136520424D01*
X131572000Y-136539741D01*
X131768132Y-136520424D01*
X131956727Y-136463214D01*
X131972327Y-136454876D01*
X132130532Y-136370313D01*
X132130538Y-136370310D01*
X132282883Y-136245283D01*
X132407910Y-136092938D01*
X132500814Y-135919127D01*
X132558024Y-135730532D01*
X132577341Y-135534400D01*
X132558024Y-135338268D01*
X132500814Y-135149673D01*
X132500811Y-135149669D01*
X132500811Y-135149666D01*
X132407913Y-134975867D01*
X132407909Y-134975860D01*
X132282883Y-134823516D01*
X132130539Y-134698490D01*
X132130532Y-134698486D01*
X131956733Y-134605588D01*
X131956727Y-134605586D01*
X131768132Y-134548376D01*
X131768129Y-134548375D01*
X131572000Y-134529059D01*
X131375870Y-134548375D01*
X131187266Y-134605588D01*
X131013467Y-134698486D01*
X131013460Y-134698490D01*
X130861116Y-134823516D01*
X130736090Y-134975860D01*
X130736086Y-134975867D01*
X130643188Y-135149666D01*
X130585975Y-135338270D01*
X130566659Y-135534400D01*
X125250500Y-135534400D01*
X125250500Y-132880001D01*
X126994390Y-132880001D01*
X127014804Y-133165433D01*
X127075628Y-133445037D01*
X127075630Y-133445043D01*
X127075631Y-133445046D01*
X127161405Y-133675015D01*
X127175635Y-133713166D01*
X127312770Y-133964309D01*
X127312775Y-133964317D01*
X127484254Y-134193387D01*
X127484270Y-134193405D01*
X127686594Y-134395729D01*
X127686612Y-134395745D01*
X127915682Y-134567224D01*
X127915690Y-134567229D01*
X128166833Y-134704364D01*
X128166832Y-134704364D01*
X128166836Y-134704365D01*
X128166839Y-134704367D01*
X128434954Y-134804369D01*
X128434960Y-134804370D01*
X128434962Y-134804371D01*
X128714566Y-134865195D01*
X128714568Y-134865195D01*
X128714572Y-134865196D01*
X128968220Y-134883337D01*
X128999999Y-134885610D01*
X129000000Y-134885610D01*
X129000001Y-134885610D01*
X129028595Y-134883564D01*
X129285428Y-134865196D01*
X129477029Y-134823516D01*
X129565037Y-134804371D01*
X129565037Y-134804370D01*
X129565046Y-134804369D01*
X129833161Y-134704367D01*
X130084315Y-134567226D01*
X130313395Y-134395739D01*
X130515739Y-134193395D01*
X130687226Y-133964315D01*
X130824367Y-133713161D01*
X130924369Y-133445046D01*
X130935316Y-133394722D01*
X130985195Y-133165433D01*
X130985195Y-133165432D01*
X130985196Y-133165428D01*
X130993795Y-133045203D01*
X147835235Y-133045203D01*
X147855430Y-133224449D01*
X147855431Y-133224454D01*
X147915011Y-133394723D01*
X148010983Y-133547461D01*
X148010984Y-133547462D01*
X148138538Y-133675016D01*
X148291278Y-133770989D01*
X148461545Y-133830567D01*
X148461545Y-133830568D01*
X148461550Y-133830569D01*
X148640796Y-133850765D01*
X148640800Y-133850765D01*
X148640804Y-133850765D01*
X148820049Y-133830569D01*
X148820052Y-133830568D01*
X148820055Y-133830568D01*
X148990322Y-133770989D01*
X149143062Y-133675016D01*
X149270616Y-133547462D01*
X149366589Y-133394722D01*
X149426168Y-133224455D01*
X149446365Y-133045200D01*
X149427751Y-132879998D01*
X149426169Y-132865950D01*
X149426168Y-132865945D01*
X149366588Y-132695676D01*
X149270615Y-132542937D01*
X149143062Y-132415384D01*
X148990323Y-132319411D01*
X148820054Y-132259831D01*
X148820049Y-132259830D01*
X148640804Y-132239635D01*
X148640796Y-132239635D01*
X148461550Y-132259830D01*
X148461545Y-132259831D01*
X148291276Y-132319411D01*
X148138537Y-132415384D01*
X148010984Y-132542937D01*
X147915011Y-132695676D01*
X147855431Y-132865945D01*
X147855430Y-132865950D01*
X147835235Y-133045196D01*
X147835235Y-133045203D01*
X130993795Y-133045203D01*
X131005610Y-132880000D01*
X130985196Y-132594572D01*
X130924369Y-132314954D01*
X130824367Y-132046839D01*
X130688800Y-131798568D01*
X130687229Y-131795690D01*
X130687224Y-131795682D01*
X130515745Y-131566612D01*
X130515729Y-131566594D01*
X130313405Y-131364270D01*
X130313387Y-131364254D01*
X130084317Y-131192775D01*
X130084309Y-131192770D01*
X129833166Y-131055635D01*
X129833167Y-131055635D01*
X129703098Y-131007122D01*
X129565046Y-130955631D01*
X129565043Y-130955630D01*
X129565037Y-130955628D01*
X129285433Y-130894804D01*
X129000001Y-130874390D01*
X128999999Y-130874390D01*
X128714566Y-130894804D01*
X128434962Y-130955628D01*
X128166833Y-131055635D01*
X127915690Y-131192770D01*
X127915682Y-131192775D01*
X127686612Y-131364254D01*
X127686594Y-131364270D01*
X127484270Y-131566594D01*
X127484254Y-131566612D01*
X127312775Y-131795682D01*
X127312770Y-131795690D01*
X127175635Y-132046833D01*
X127075628Y-132314962D01*
X127014804Y-132594566D01*
X126994390Y-132879998D01*
X126994390Y-132880001D01*
X125250500Y-132880001D01*
X125250500Y-130657603D01*
X140266035Y-130657603D01*
X140286230Y-130836849D01*
X140286231Y-130836854D01*
X140345811Y-131007123D01*
X140382936Y-131066206D01*
X140441784Y-131159862D01*
X140569338Y-131287416D01*
X140618006Y-131317996D01*
X140722074Y-131383387D01*
X140722078Y-131383389D01*
X140776740Y-131402516D01*
X140892345Y-131442968D01*
X140892350Y-131442969D01*
X141071596Y-131463165D01*
X141071600Y-131463165D01*
X141071604Y-131463165D01*
X141250849Y-131442969D01*
X141250852Y-131442968D01*
X141250855Y-131442968D01*
X141421122Y-131383389D01*
X141465017Y-131355807D01*
X141532252Y-131336806D01*
X141599088Y-131357172D01*
X141635983Y-131394827D01*
X141711782Y-131515460D01*
X141711784Y-131515462D01*
X141839338Y-131643016D01*
X141992078Y-131738989D01*
X142154097Y-131795682D01*
X142162345Y-131798568D01*
X142162350Y-131798569D01*
X142341596Y-131818765D01*
X142341600Y-131818765D01*
X142341604Y-131818765D01*
X142520849Y-131798569D01*
X142520852Y-131798568D01*
X142520855Y-131798568D01*
X142691122Y-131738989D01*
X142843862Y-131643016D01*
X142971416Y-131515462D01*
X143067389Y-131362722D01*
X143083037Y-131318003D01*
X149714835Y-131318003D01*
X149735030Y-131497249D01*
X149735031Y-131497254D01*
X149794611Y-131667523D01*
X149875139Y-131795682D01*
X149890584Y-131820262D01*
X150018138Y-131947816D01*
X150170878Y-132043789D01*
X150341144Y-132103368D01*
X150341145Y-132103368D01*
X150341150Y-132103369D01*
X150520396Y-132123565D01*
X150520400Y-132123565D01*
X150520404Y-132123565D01*
X150699649Y-132103369D01*
X150699652Y-132103368D01*
X150699655Y-132103368D01*
X150869922Y-132043789D01*
X151022662Y-131947816D01*
X151150216Y-131820262D01*
X151246189Y-131667522D01*
X151305768Y-131497255D01*
X151309726Y-131462127D01*
X151325965Y-131318003D01*
X151325965Y-131317996D01*
X151305769Y-131138750D01*
X151305768Y-131138745D01*
X151305768Y-131138744D01*
X151246189Y-130968478D01*
X151150216Y-130815738D01*
X151022662Y-130688184D01*
X150931112Y-130630659D01*
X150869923Y-130592211D01*
X150699654Y-130532631D01*
X150699649Y-130532630D01*
X150520404Y-130512435D01*
X150520396Y-130512435D01*
X150341150Y-130532630D01*
X150341145Y-130532631D01*
X150170876Y-130592211D01*
X150018137Y-130688184D01*
X149890584Y-130815737D01*
X149794611Y-130968476D01*
X149735031Y-131138745D01*
X149735030Y-131138750D01*
X149714835Y-131317996D01*
X149714835Y-131318003D01*
X143083037Y-131318003D01*
X143126968Y-131192455D01*
X143126969Y-131192449D01*
X143147165Y-131013203D01*
X143147165Y-131013196D01*
X143126969Y-130833950D01*
X143126968Y-130833945D01*
X143067388Y-130663676D01*
X142985047Y-130532632D01*
X142971416Y-130510938D01*
X142843862Y-130383384D01*
X142765257Y-130333993D01*
X142691123Y-130287411D01*
X142520854Y-130227831D01*
X142520849Y-130227830D01*
X142341604Y-130207635D01*
X142341596Y-130207635D01*
X142162350Y-130227830D01*
X142162345Y-130227831D01*
X141992074Y-130287412D01*
X141948179Y-130314993D01*
X141880942Y-130333993D01*
X141814107Y-130313625D01*
X141777216Y-130275973D01*
X141701416Y-130155338D01*
X141573862Y-130027784D01*
X141573862Y-130027783D01*
X141421123Y-129931811D01*
X141250854Y-129872231D01*
X141250849Y-129872230D01*
X141071604Y-129852035D01*
X141071596Y-129852035D01*
X140892350Y-129872230D01*
X140892345Y-129872231D01*
X140722076Y-129931811D01*
X140569337Y-130027784D01*
X140441784Y-130155337D01*
X140345811Y-130308076D01*
X140286231Y-130478345D01*
X140286230Y-130478350D01*
X140266035Y-130657596D01*
X140266035Y-130657603D01*
X125250500Y-130657603D01*
X125250500Y-129218644D01*
X126477800Y-129218644D01*
X126484201Y-129278172D01*
X126484203Y-129278179D01*
X126534445Y-129412886D01*
X126534449Y-129412893D01*
X126620609Y-129527987D01*
X126620612Y-129527990D01*
X126735706Y-129614150D01*
X126735713Y-129614154D01*
X126870420Y-129664396D01*
X126870427Y-129664398D01*
X126929955Y-129670799D01*
X126929972Y-129670800D01*
X127577800Y-129670800D01*
X127577800Y-128756301D01*
X127685485Y-128805480D01*
X127792037Y-128820800D01*
X127863563Y-128820800D01*
X127970115Y-128805480D01*
X128077800Y-128756301D01*
X128077800Y-129670800D01*
X128725628Y-129670800D01*
X128725644Y-129670799D01*
X128785172Y-129664398D01*
X128785179Y-129664396D01*
X128919886Y-129614154D01*
X128919893Y-129614150D01*
X129034987Y-129527990D01*
X129034990Y-129527987D01*
X129121150Y-129412893D01*
X129121154Y-129412886D01*
X129170222Y-129281329D01*
X129212093Y-129225395D01*
X129277557Y-129200978D01*
X129345830Y-129215830D01*
X129374085Y-129236981D01*
X129496399Y-129359295D01*
X129557658Y-129402189D01*
X129689965Y-129494832D01*
X129689967Y-129494833D01*
X129689970Y-129494835D01*
X129904137Y-129594703D01*
X129904143Y-129594704D01*
X129904144Y-129594705D01*
X129959085Y-129609426D01*
X130132392Y-129655863D01*
X130303119Y-129670800D01*
X130367799Y-129676459D01*
X130367800Y-129676459D01*
X130367801Y-129676459D01*
X130432481Y-129670800D01*
X130603208Y-129655863D01*
X130831463Y-129594703D01*
X131045630Y-129494835D01*
X131239201Y-129359295D01*
X131406295Y-129192201D01*
X131536224Y-129006642D01*
X131590802Y-128963017D01*
X131660300Y-128955823D01*
X131722655Y-128987346D01*
X131739375Y-129006642D01*
X131869300Y-129192195D01*
X131869305Y-129192201D01*
X132036399Y-129359295D01*
X132097658Y-129402189D01*
X132229965Y-129494832D01*
X132229967Y-129494833D01*
X132229970Y-129494835D01*
X132444137Y-129594703D01*
X132444143Y-129594704D01*
X132444144Y-129594705D01*
X132499085Y-129609426D01*
X132672392Y-129655863D01*
X132843119Y-129670800D01*
X132907799Y-129676459D01*
X132907800Y-129676459D01*
X132907801Y-129676459D01*
X132972481Y-129670800D01*
X133143208Y-129655863D01*
X133371463Y-129594703D01*
X133585630Y-129494835D01*
X133779201Y-129359295D01*
X133946295Y-129192201D01*
X134081835Y-128998630D01*
X134181703Y-128784463D01*
X134242863Y-128556208D01*
X134263459Y-128320803D01*
X134576435Y-128320803D01*
X134596630Y-128500049D01*
X134596631Y-128500054D01*
X134656211Y-128670323D01*
X134727931Y-128784464D01*
X134752184Y-128823062D01*
X134879738Y-128950616D01*
X134956152Y-128998630D01*
X135021348Y-129039596D01*
X135032478Y-129046589D01*
X135202745Y-129106167D01*
X135202745Y-129106168D01*
X135202750Y-129106169D01*
X135381996Y-129126365D01*
X135382000Y-129126365D01*
X135382004Y-129126365D01*
X135561249Y-129106169D01*
X135561252Y-129106168D01*
X135561255Y-129106168D01*
X135731522Y-129046589D01*
X135884262Y-128950616D01*
X136011816Y-128823062D01*
X136103968Y-128676403D01*
X145498435Y-128676403D01*
X145518630Y-128855649D01*
X145518631Y-128855654D01*
X145578211Y-129025923D01*
X145655546Y-129149000D01*
X145674184Y-129178662D01*
X145801738Y-129306216D01*
X145954478Y-129402189D01*
X146124745Y-129461767D01*
X146124745Y-129461768D01*
X146124750Y-129461769D01*
X146303996Y-129481965D01*
X146304000Y-129481965D01*
X146304004Y-129481965D01*
X146483249Y-129461769D01*
X146483252Y-129461768D01*
X146483255Y-129461768D01*
X146653522Y-129402189D01*
X146806262Y-129306216D01*
X146837478Y-129275000D01*
X151129341Y-129275000D01*
X151149936Y-129510403D01*
X151149938Y-129510413D01*
X151211094Y-129738655D01*
X151211096Y-129738659D01*
X151211097Y-129738663D01*
X151301164Y-129931811D01*
X151310965Y-129952830D01*
X151310967Y-129952834D01*
X151363448Y-130027784D01*
X151446505Y-130146401D01*
X151613599Y-130313495D01*
X151690135Y-130367086D01*
X151807165Y-130449032D01*
X151807167Y-130449033D01*
X151807170Y-130449035D01*
X152021337Y-130548903D01*
X152249592Y-130610063D01*
X152420319Y-130625000D01*
X152484999Y-130630659D01*
X152485000Y-130630659D01*
X152485001Y-130630659D01*
X152549681Y-130625000D01*
X152720408Y-130610063D01*
X152948663Y-130548903D01*
X153162830Y-130449035D01*
X153356401Y-130313495D01*
X153478717Y-130191178D01*
X153540036Y-130157696D01*
X153609728Y-130162680D01*
X153665662Y-130204551D01*
X153682577Y-130235528D01*
X153731646Y-130367088D01*
X153731649Y-130367093D01*
X153817809Y-130482187D01*
X153817812Y-130482190D01*
X153932906Y-130568350D01*
X153932913Y-130568354D01*
X154067620Y-130618596D01*
X154067627Y-130618598D01*
X154127155Y-130624999D01*
X154127172Y-130625000D01*
X154775000Y-130625000D01*
X154775000Y-129710501D01*
X154882685Y-129759680D01*
X154989237Y-129775000D01*
X155060763Y-129775000D01*
X155167315Y-129759680D01*
X155275000Y-129710501D01*
X155275000Y-130625000D01*
X155922828Y-130625000D01*
X155922844Y-130624999D01*
X155982372Y-130618598D01*
X155982379Y-130618596D01*
X156117086Y-130568354D01*
X156117093Y-130568350D01*
X156232187Y-130482190D01*
X156232190Y-130482187D01*
X156318350Y-130367093D01*
X156318354Y-130367086D01*
X156368596Y-130232379D01*
X156368598Y-130232372D01*
X156374999Y-130172844D01*
X156375000Y-130172827D01*
X156375000Y-129525000D01*
X155458686Y-129525000D01*
X155484493Y-129484844D01*
X155525000Y-129346889D01*
X155525000Y-129203111D01*
X155484493Y-129065156D01*
X155458686Y-129025000D01*
X156375000Y-129025000D01*
X156375000Y-128377172D01*
X156374999Y-128377155D01*
X156368598Y-128317627D01*
X156368596Y-128317620D01*
X156318354Y-128182913D01*
X156318350Y-128182906D01*
X156232190Y-128067812D01*
X156232187Y-128067809D01*
X156117093Y-127981649D01*
X156117088Y-127981646D01*
X155985528Y-127932577D01*
X155929595Y-127890705D01*
X155905178Y-127825241D01*
X155920030Y-127756968D01*
X155941175Y-127728720D01*
X156063495Y-127606401D01*
X156199035Y-127412830D01*
X156298903Y-127198663D01*
X156360063Y-126970408D01*
X156380659Y-126735000D01*
X156360063Y-126499592D01*
X156298903Y-126271337D01*
X156199035Y-126057171D01*
X156194742Y-126051039D01*
X156063494Y-125863597D01*
X155896402Y-125696506D01*
X155896396Y-125696501D01*
X155710842Y-125566575D01*
X155667217Y-125511998D01*
X155660023Y-125442500D01*
X155691546Y-125380145D01*
X155710842Y-125363425D01*
X155733026Y-125347891D01*
X155896401Y-125233495D01*
X156063495Y-125066401D01*
X156199035Y-124872830D01*
X156298903Y-124658663D01*
X156360063Y-124430408D01*
X156380659Y-124195000D01*
X156379921Y-124186570D01*
X156373179Y-124109501D01*
X156360063Y-123959592D01*
X156298903Y-123731337D01*
X156199035Y-123517171D01*
X156197304Y-123514698D01*
X156063494Y-123323597D01*
X155896402Y-123156506D01*
X155896395Y-123156501D01*
X155702834Y-123020967D01*
X155702830Y-123020965D01*
X155702829Y-123020964D01*
X155488663Y-122921097D01*
X155488659Y-122921096D01*
X155488655Y-122921094D01*
X155260413Y-122859938D01*
X155260403Y-122859936D01*
X155025001Y-122839341D01*
X155024999Y-122839341D01*
X154789596Y-122859936D01*
X154789586Y-122859938D01*
X154561344Y-122921094D01*
X154561337Y-122921096D01*
X154561337Y-122921097D01*
X154547816Y-122927401D01*
X154347171Y-123020964D01*
X154347169Y-123020965D01*
X154153597Y-123156505D01*
X153986508Y-123323594D01*
X153856574Y-123509159D01*
X153801997Y-123552784D01*
X153732498Y-123559976D01*
X153670144Y-123528454D01*
X153653424Y-123509158D01*
X153523494Y-123323597D01*
X153356402Y-123156506D01*
X153356395Y-123156501D01*
X153162834Y-123020967D01*
X153162830Y-123020965D01*
X153162830Y-123020964D01*
X152948663Y-122921097D01*
X152948659Y-122921096D01*
X152948655Y-122921094D01*
X152720413Y-122859938D01*
X152720403Y-122859936D01*
X152485001Y-122839341D01*
X152484999Y-122839341D01*
X152249596Y-122859936D01*
X152249586Y-122859938D01*
X152021344Y-122921094D01*
X152021337Y-122921096D01*
X152021337Y-122921097D01*
X152007816Y-122927401D01*
X151807171Y-123020964D01*
X151807169Y-123020965D01*
X151613597Y-123156505D01*
X151446505Y-123323597D01*
X151310965Y-123517169D01*
X151310964Y-123517171D01*
X151211098Y-123731335D01*
X151211094Y-123731344D01*
X151149938Y-123959586D01*
X151149936Y-123959596D01*
X151129341Y-124194999D01*
X151129341Y-124195000D01*
X151149936Y-124430403D01*
X151149938Y-124430413D01*
X151211094Y-124658655D01*
X151211096Y-124658659D01*
X151211097Y-124658663D01*
X151284155Y-124815335D01*
X151310965Y-124872830D01*
X151310967Y-124872834D01*
X151399645Y-124999478D01*
X151446501Y-125066396D01*
X151446506Y-125066402D01*
X151613597Y-125233493D01*
X151613603Y-125233498D01*
X151799158Y-125363425D01*
X151842783Y-125418002D01*
X151849977Y-125487500D01*
X151818454Y-125549855D01*
X151799158Y-125566575D01*
X151613597Y-125696505D01*
X151446505Y-125863597D01*
X151310965Y-126057169D01*
X151310964Y-126057171D01*
X151211098Y-126271335D01*
X151211094Y-126271344D01*
X151149938Y-126499586D01*
X151149936Y-126499596D01*
X151129341Y-126734999D01*
X151129341Y-126735000D01*
X151149936Y-126970403D01*
X151149938Y-126970413D01*
X151211094Y-127198655D01*
X151211096Y-127198659D01*
X151211097Y-127198663D01*
X151286456Y-127360270D01*
X151310965Y-127412830D01*
X151310967Y-127412834D01*
X151397569Y-127536513D01*
X151446501Y-127606396D01*
X151446506Y-127606402D01*
X151613597Y-127773493D01*
X151613603Y-127773498D01*
X151799158Y-127903425D01*
X151842783Y-127958002D01*
X151849977Y-128027500D01*
X151818454Y-128089855D01*
X151799158Y-128106575D01*
X151613597Y-128236505D01*
X151446505Y-128403597D01*
X151310965Y-128597169D01*
X151310964Y-128597171D01*
X151211098Y-128811335D01*
X151211094Y-128811344D01*
X151149938Y-129039586D01*
X151149936Y-129039596D01*
X151129341Y-129274999D01*
X151129341Y-129275000D01*
X146837478Y-129275000D01*
X146933816Y-129178662D01*
X147029789Y-129025922D01*
X147089368Y-128855655D01*
X147090000Y-128850048D01*
X147109565Y-128676403D01*
X147109565Y-128676396D01*
X147089369Y-128497150D01*
X147089368Y-128497145D01*
X147077590Y-128463486D01*
X147029789Y-128326878D01*
X147025969Y-128320799D01*
X146973004Y-128236505D01*
X146962130Y-128219200D01*
X147330659Y-128219200D01*
X147349975Y-128415329D01*
X147407188Y-128603933D01*
X147500086Y-128777732D01*
X147500090Y-128777739D01*
X147625116Y-128930083D01*
X147777460Y-129055109D01*
X147777467Y-129055113D01*
X147951266Y-129148011D01*
X147951269Y-129148011D01*
X147951273Y-129148014D01*
X148139868Y-129205224D01*
X148336000Y-129224541D01*
X148532132Y-129205224D01*
X148720727Y-129148014D01*
X148761230Y-129126365D01*
X148894532Y-129055113D01*
X148894538Y-129055110D01*
X149046883Y-128930083D01*
X149171910Y-128777738D01*
X149226076Y-128676400D01*
X149264811Y-128603933D01*
X149264811Y-128603932D01*
X149264814Y-128603927D01*
X149322024Y-128415332D01*
X149341341Y-128219200D01*
X149322024Y-128023068D01*
X149264814Y-127834473D01*
X149264811Y-127834469D01*
X149264811Y-127834466D01*
X149171913Y-127660667D01*
X149171909Y-127660660D01*
X149046883Y-127508316D01*
X148894539Y-127383290D01*
X148894532Y-127383286D01*
X148720733Y-127290388D01*
X148720727Y-127290386D01*
X148532132Y-127233176D01*
X148532129Y-127233175D01*
X148336000Y-127213859D01*
X148139870Y-127233175D01*
X147951266Y-127290388D01*
X147777467Y-127383286D01*
X147777460Y-127383290D01*
X147625116Y-127508316D01*
X147500090Y-127660660D01*
X147500086Y-127660667D01*
X147407188Y-127834466D01*
X147349975Y-128023070D01*
X147330659Y-128219200D01*
X146962130Y-128219200D01*
X146933816Y-128174138D01*
X146806262Y-128046584D01*
X146740082Y-128005000D01*
X146653523Y-127950611D01*
X146483254Y-127891031D01*
X146483249Y-127891030D01*
X146304004Y-127870835D01*
X146303996Y-127870835D01*
X146124750Y-127891030D01*
X146124745Y-127891031D01*
X145954476Y-127950611D01*
X145801737Y-128046584D01*
X145674184Y-128174137D01*
X145578211Y-128326876D01*
X145518631Y-128497145D01*
X145518630Y-128497150D01*
X145498435Y-128676396D01*
X145498435Y-128676403D01*
X136103968Y-128676403D01*
X136107789Y-128670322D01*
X136167368Y-128500055D01*
X136167369Y-128500049D01*
X136187565Y-128320803D01*
X136187565Y-128320796D01*
X136167369Y-128141550D01*
X136167368Y-128141545D01*
X136125911Y-128023068D01*
X136107789Y-127971278D01*
X136011816Y-127818538D01*
X135884262Y-127690984D01*
X135807847Y-127642969D01*
X135731523Y-127595011D01*
X135561254Y-127535431D01*
X135561249Y-127535430D01*
X135382004Y-127515235D01*
X135381996Y-127515235D01*
X135202750Y-127535430D01*
X135202745Y-127535431D01*
X135032476Y-127595011D01*
X134879737Y-127690984D01*
X134752184Y-127818537D01*
X134656211Y-127971276D01*
X134596631Y-128141545D01*
X134596630Y-128141550D01*
X134576435Y-128320796D01*
X134576435Y-128320803D01*
X134263459Y-128320803D01*
X134263459Y-128320800D01*
X134242863Y-128085392D01*
X134190785Y-127891031D01*
X134181705Y-127857144D01*
X134181704Y-127857143D01*
X134181703Y-127857137D01*
X134081835Y-127642971D01*
X134076225Y-127634958D01*
X133946294Y-127449397D01*
X133779202Y-127282306D01*
X133779195Y-127282301D01*
X133585634Y-127146767D01*
X133585630Y-127146765D01*
X133514527Y-127113609D01*
X133371463Y-127046897D01*
X133371459Y-127046896D01*
X133371455Y-127046894D01*
X133143213Y-126985738D01*
X133143203Y-126985736D01*
X132907801Y-126965141D01*
X132907799Y-126965141D01*
X132672396Y-126985736D01*
X132672386Y-126985738D01*
X132444144Y-127046894D01*
X132444135Y-127046898D01*
X132229971Y-127146764D01*
X132229969Y-127146765D01*
X132036397Y-127282305D01*
X131869305Y-127449397D01*
X131739375Y-127634958D01*
X131684798Y-127678583D01*
X131615300Y-127685777D01*
X131552945Y-127654254D01*
X131536225Y-127634958D01*
X131406294Y-127449397D01*
X131239202Y-127282306D01*
X131239195Y-127282301D01*
X131045634Y-127146767D01*
X131045630Y-127146765D01*
X130974527Y-127113609D01*
X130831463Y-127046897D01*
X130831459Y-127046896D01*
X130831455Y-127046894D01*
X130603213Y-126985738D01*
X130603203Y-126985736D01*
X130367801Y-126965141D01*
X130367799Y-126965141D01*
X130132396Y-126985736D01*
X130132386Y-126985738D01*
X129904144Y-127046894D01*
X129904135Y-127046898D01*
X129689971Y-127146764D01*
X129689969Y-127146765D01*
X129496400Y-127282303D01*
X129374084Y-127404619D01*
X129312761Y-127438103D01*
X129243069Y-127433119D01*
X129187136Y-127391247D01*
X129170221Y-127360270D01*
X129121154Y-127228713D01*
X129121150Y-127228706D01*
X129034990Y-127113612D01*
X129034987Y-127113609D01*
X128919893Y-127027449D01*
X128919886Y-127027445D01*
X128785179Y-126977203D01*
X128785172Y-126977201D01*
X128725644Y-126970800D01*
X128077800Y-126970800D01*
X128077800Y-127885298D01*
X127970115Y-127836120D01*
X127863563Y-127820800D01*
X127792037Y-127820800D01*
X127685485Y-127836120D01*
X127577800Y-127885298D01*
X127577800Y-126970800D01*
X126929955Y-126970800D01*
X126870427Y-126977201D01*
X126870420Y-126977203D01*
X126735713Y-127027445D01*
X126735706Y-127027449D01*
X126620612Y-127113609D01*
X126620609Y-127113612D01*
X126534449Y-127228706D01*
X126534445Y-127228713D01*
X126484203Y-127363420D01*
X126484201Y-127363427D01*
X126477800Y-127422955D01*
X126477800Y-128070800D01*
X127394114Y-128070800D01*
X127368307Y-128110956D01*
X127327800Y-128248911D01*
X127327800Y-128392689D01*
X127368307Y-128530644D01*
X127394114Y-128570800D01*
X126477800Y-128570800D01*
X126477800Y-129218644D01*
X125250500Y-129218644D01*
X125250500Y-124104403D01*
X131731635Y-124104403D01*
X131751830Y-124283649D01*
X131751831Y-124283654D01*
X131811411Y-124453923D01*
X131879401Y-124562127D01*
X131907384Y-124606662D01*
X132034938Y-124734216D01*
X132187678Y-124830189D01*
X132239011Y-124848151D01*
X132295787Y-124888872D01*
X132321535Y-124953825D01*
X132308079Y-125022387D01*
X132295006Y-125042504D01*
X132291806Y-125046516D01*
X132195834Y-125199253D01*
X132136254Y-125369522D01*
X132136253Y-125369527D01*
X132116058Y-125548773D01*
X132116058Y-125548780D01*
X132136253Y-125728026D01*
X132136254Y-125728031D01*
X132195834Y-125898300D01*
X132246426Y-125978816D01*
X132291807Y-126051039D01*
X132419361Y-126178593D01*
X132572101Y-126274566D01*
X132733614Y-126331082D01*
X132742368Y-126334145D01*
X132742373Y-126334146D01*
X132921619Y-126354342D01*
X132921623Y-126354342D01*
X132921627Y-126354342D01*
X133100872Y-126334146D01*
X133100875Y-126334145D01*
X133100878Y-126334145D01*
X133271145Y-126274566D01*
X133423885Y-126178593D01*
X133551439Y-126051039D01*
X133647412Y-125898299D01*
X133706991Y-125728032D01*
X133710543Y-125696506D01*
X133727188Y-125548780D01*
X133727188Y-125548773D01*
X133706992Y-125369527D01*
X133706991Y-125369522D01*
X133699811Y-125349003D01*
X147893937Y-125349003D01*
X147914132Y-125528249D01*
X147914133Y-125528254D01*
X147973713Y-125698523D01*
X147992255Y-125728032D01*
X148069686Y-125851262D01*
X148197240Y-125978816D01*
X148287582Y-126035582D01*
X148309188Y-126049158D01*
X148349980Y-126074789D01*
X148427119Y-126101781D01*
X148520247Y-126134368D01*
X148520252Y-126134369D01*
X148699498Y-126154565D01*
X148699502Y-126154565D01*
X148699506Y-126154565D01*
X148878751Y-126134369D01*
X148878754Y-126134368D01*
X148878757Y-126134368D01*
X149049024Y-126074789D01*
X149201764Y-125978816D01*
X149329318Y-125851262D01*
X149425291Y-125698522D01*
X149484870Y-125528255D01*
X149491997Y-125465000D01*
X149505067Y-125349003D01*
X149505067Y-125348996D01*
X149484871Y-125169750D01*
X149484870Y-125169745D01*
X149448708Y-125066401D01*
X149425291Y-124999478D01*
X149329318Y-124846738D01*
X149201764Y-124719184D01*
X149201764Y-124719183D01*
X149049025Y-124623211D01*
X148878756Y-124563631D01*
X148878751Y-124563630D01*
X148699506Y-124543435D01*
X148699498Y-124543435D01*
X148520252Y-124563630D01*
X148520247Y-124563631D01*
X148349978Y-124623211D01*
X148197239Y-124719184D01*
X148069686Y-124846737D01*
X147973713Y-124999476D01*
X147914133Y-125169745D01*
X147914132Y-125169750D01*
X147893937Y-125348996D01*
X147893937Y-125349003D01*
X133699811Y-125349003D01*
X133647411Y-125199253D01*
X133561398Y-125062365D01*
X133551439Y-125046515D01*
X133423885Y-124918961D01*
X133350468Y-124872830D01*
X133271142Y-124822986D01*
X133219810Y-124805024D01*
X133163034Y-124764303D01*
X133137287Y-124699350D01*
X133150743Y-124630788D01*
X133163825Y-124610661D01*
X133167007Y-124606670D01*
X133167016Y-124606662D01*
X133262989Y-124453922D01*
X133322568Y-124283655D01*
X133325431Y-124258249D01*
X133342765Y-124104403D01*
X133342765Y-124104396D01*
X133339904Y-124079003D01*
X139656435Y-124079003D01*
X139676630Y-124258249D01*
X139676631Y-124258254D01*
X139736211Y-124428523D01*
X139820161Y-124562127D01*
X139832184Y-124581262D01*
X139959738Y-124708816D01*
X140112478Y-124804789D01*
X140274680Y-124861546D01*
X140282745Y-124864368D01*
X140282750Y-124864369D01*
X140461996Y-124884565D01*
X140462000Y-124884565D01*
X140462004Y-124884565D01*
X140641249Y-124864369D01*
X140641252Y-124864368D01*
X140641255Y-124864368D01*
X140811522Y-124804789D01*
X140964262Y-124708816D01*
X141091816Y-124581262D01*
X141187789Y-124428522D01*
X141247368Y-124258255D01*
X141247532Y-124256800D01*
X141267565Y-124079003D01*
X141267565Y-124078996D01*
X141247369Y-123899750D01*
X141247368Y-123899745D01*
X141208542Y-123788788D01*
X141187789Y-123729478D01*
X141101789Y-123592610D01*
X142548242Y-123592610D01*
X142568437Y-123771856D01*
X142568438Y-123771861D01*
X142628018Y-123942130D01*
X142638993Y-123959596D01*
X142723991Y-124094869D01*
X142851545Y-124222423D01*
X142908562Y-124258249D01*
X142991204Y-124310177D01*
X143004285Y-124318396D01*
X143145085Y-124367664D01*
X143174552Y-124377975D01*
X143174557Y-124377976D01*
X143353803Y-124398172D01*
X143353807Y-124398172D01*
X143353811Y-124398172D01*
X143533056Y-124377976D01*
X143533059Y-124377975D01*
X143533062Y-124377975D01*
X143703329Y-124318396D01*
X143856069Y-124222423D01*
X143983623Y-124094869D01*
X144079596Y-123942129D01*
X144139175Y-123771862D01*
X144141127Y-123754537D01*
X144159372Y-123592610D01*
X144159372Y-123592603D01*
X144139176Y-123413357D01*
X144139173Y-123413344D01*
X144109116Y-123327447D01*
X144105554Y-123257668D01*
X144140282Y-123197041D01*
X144202275Y-123164813D01*
X144271851Y-123171218D01*
X144292130Y-123181499D01*
X144328875Y-123204588D01*
X144499145Y-123264168D01*
X144499150Y-123264169D01*
X144678396Y-123284365D01*
X144678400Y-123284365D01*
X144678404Y-123284365D01*
X144857649Y-123264169D01*
X144857652Y-123264168D01*
X144857655Y-123264168D01*
X145027922Y-123204589D01*
X145180662Y-123108616D01*
X145226275Y-123063003D01*
X147022435Y-123063003D01*
X147042630Y-123242249D01*
X147042631Y-123242254D01*
X147102211Y-123412523D01*
X147194863Y-123559976D01*
X147198184Y-123565262D01*
X147325738Y-123692816D01*
X147366162Y-123718216D01*
X147461571Y-123778166D01*
X147478478Y-123788789D01*
X147597681Y-123830500D01*
X147648745Y-123848368D01*
X147648750Y-123848369D01*
X147827996Y-123868565D01*
X147828000Y-123868565D01*
X147828004Y-123868565D01*
X148007249Y-123848369D01*
X148007252Y-123848368D01*
X148007255Y-123848368D01*
X148177522Y-123788789D01*
X148330262Y-123692816D01*
X148457816Y-123565262D01*
X148553789Y-123412522D01*
X148613368Y-123242255D01*
X148617612Y-123204588D01*
X148633565Y-123063003D01*
X148633565Y-123062996D01*
X148613369Y-122883750D01*
X148613368Y-122883745D01*
X148586597Y-122807237D01*
X148553789Y-122713478D01*
X148457816Y-122560738D01*
X148330262Y-122433184D01*
X148273336Y-122397415D01*
X148177523Y-122337211D01*
X148007254Y-122277631D01*
X148007249Y-122277630D01*
X147828004Y-122257435D01*
X147827996Y-122257435D01*
X147648750Y-122277630D01*
X147648745Y-122277631D01*
X147478476Y-122337211D01*
X147325737Y-122433184D01*
X147198184Y-122560737D01*
X147102211Y-122713476D01*
X147042631Y-122883745D01*
X147042630Y-122883750D01*
X147022435Y-123062996D01*
X147022435Y-123063003D01*
X145226275Y-123063003D01*
X145308216Y-122981062D01*
X145404189Y-122828322D01*
X145463768Y-122658055D01*
X145466109Y-122637278D01*
X145483965Y-122478803D01*
X145483965Y-122478796D01*
X145463769Y-122299550D01*
X145463768Y-122299545D01*
X145435518Y-122218812D01*
X145404189Y-122129278D01*
X145396551Y-122117123D01*
X145308215Y-121976537D01*
X145180662Y-121848984D01*
X145051146Y-121767603D01*
X155339935Y-121767603D01*
X155360130Y-121946849D01*
X155360131Y-121946854D01*
X155419711Y-122117123D01*
X155480264Y-122213492D01*
X155515684Y-122269862D01*
X155643238Y-122397416D01*
X155704393Y-122435842D01*
X155781891Y-122484538D01*
X155795978Y-122493389D01*
X155966245Y-122552967D01*
X155966245Y-122552968D01*
X155966250Y-122552969D01*
X156145496Y-122573165D01*
X156145500Y-122573165D01*
X156145504Y-122573165D01*
X156324749Y-122552969D01*
X156324752Y-122552968D01*
X156324755Y-122552968D01*
X156495022Y-122493389D01*
X156647762Y-122397416D01*
X156775316Y-122269862D01*
X156871289Y-122117122D01*
X156930868Y-121946855D01*
X156931298Y-121943039D01*
X156951065Y-121767603D01*
X156951065Y-121767596D01*
X156930869Y-121588350D01*
X156930868Y-121588345D01*
X156871288Y-121418076D01*
X156788617Y-121286507D01*
X156775316Y-121265338D01*
X156647762Y-121137784D01*
X156612157Y-121115412D01*
X156495023Y-121041811D01*
X156324754Y-120982231D01*
X156324749Y-120982230D01*
X156145504Y-120962035D01*
X156145496Y-120962035D01*
X155966250Y-120982230D01*
X155966245Y-120982231D01*
X155795976Y-121041811D01*
X155643237Y-121137784D01*
X155515684Y-121265337D01*
X155419711Y-121418076D01*
X155360131Y-121588345D01*
X155360130Y-121588350D01*
X155339935Y-121767596D01*
X155339935Y-121767603D01*
X145051146Y-121767603D01*
X145027923Y-121753011D01*
X144857654Y-121693431D01*
X144857649Y-121693430D01*
X144678404Y-121673235D01*
X144678396Y-121673235D01*
X144499150Y-121693430D01*
X144499145Y-121693431D01*
X144328876Y-121753011D01*
X144176137Y-121848984D01*
X144048584Y-121976537D01*
X143952611Y-122129276D01*
X143893031Y-122299545D01*
X143893030Y-122299550D01*
X143872835Y-122478796D01*
X143872835Y-122478803D01*
X143893030Y-122658049D01*
X143893032Y-122658057D01*
X143923091Y-122743960D01*
X143926652Y-122813738D01*
X143891923Y-122874366D01*
X143829930Y-122906593D01*
X143760354Y-122900188D01*
X143740077Y-122889908D01*
X143703330Y-122866818D01*
X143533061Y-122807238D01*
X143533056Y-122807237D01*
X143353811Y-122787042D01*
X143353803Y-122787042D01*
X143174557Y-122807237D01*
X143174552Y-122807238D01*
X143004283Y-122866818D01*
X142851544Y-122962791D01*
X142723991Y-123090344D01*
X142628018Y-123243083D01*
X142568438Y-123413352D01*
X142568437Y-123413357D01*
X142548242Y-123592603D01*
X142548242Y-123592610D01*
X141101789Y-123592610D01*
X141091816Y-123576738D01*
X140964262Y-123449184D01*
X140907223Y-123413344D01*
X140811523Y-123353211D01*
X140641254Y-123293631D01*
X140641249Y-123293630D01*
X140462004Y-123273435D01*
X140461996Y-123273435D01*
X140282750Y-123293630D01*
X140282745Y-123293631D01*
X140112476Y-123353211D01*
X139959737Y-123449184D01*
X139832184Y-123576737D01*
X139736211Y-123729476D01*
X139676631Y-123899745D01*
X139676630Y-123899750D01*
X139656435Y-124078996D01*
X139656435Y-124079003D01*
X133339904Y-124079003D01*
X133322569Y-123925150D01*
X133322568Y-123925145D01*
X133295703Y-123848369D01*
X133262989Y-123754878D01*
X133262775Y-123754538D01*
X133176113Y-123616616D01*
X133167016Y-123602138D01*
X133039462Y-123474584D01*
X132981115Y-123437922D01*
X132886723Y-123378611D01*
X132716454Y-123319031D01*
X132716449Y-123319030D01*
X132537204Y-123298835D01*
X132537196Y-123298835D01*
X132357950Y-123319030D01*
X132357945Y-123319031D01*
X132187676Y-123378611D01*
X132034937Y-123474584D01*
X131907384Y-123602137D01*
X131811411Y-123754876D01*
X131751831Y-123925145D01*
X131751830Y-123925150D01*
X131731635Y-124104396D01*
X131731635Y-124104403D01*
X125250500Y-124104403D01*
X125250500Y-122986803D01*
X136436335Y-122986803D01*
X136456530Y-123166049D01*
X136456531Y-123166054D01*
X136516111Y-123336323D01*
X136584803Y-123445645D01*
X136612084Y-123489062D01*
X136739638Y-123616616D01*
X136892378Y-123712589D01*
X137013233Y-123754878D01*
X137062645Y-123772168D01*
X137062650Y-123772169D01*
X137241896Y-123792365D01*
X137241900Y-123792365D01*
X137241904Y-123792365D01*
X137421149Y-123772169D01*
X137421152Y-123772168D01*
X137421155Y-123772168D01*
X137591422Y-123712589D01*
X137744162Y-123616616D01*
X137871716Y-123489062D01*
X137967689Y-123336322D01*
X138027268Y-123166055D01*
X138028344Y-123156505D01*
X138047465Y-122986803D01*
X138047465Y-122986796D01*
X138027269Y-122807550D01*
X138027268Y-122807545D01*
X138002724Y-122737402D01*
X137967689Y-122637278D01*
X137957713Y-122621402D01*
X137877277Y-122493389D01*
X137871716Y-122484538D01*
X137744162Y-122356984D01*
X137721601Y-122342808D01*
X137591423Y-122261011D01*
X137421154Y-122201431D01*
X137421149Y-122201430D01*
X137241904Y-122181235D01*
X137241896Y-122181235D01*
X137062650Y-122201430D01*
X137062645Y-122201431D01*
X136892376Y-122261011D01*
X136739637Y-122356984D01*
X136612084Y-122484537D01*
X136516111Y-122637276D01*
X136456531Y-122807545D01*
X136456530Y-122807550D01*
X136436335Y-122986796D01*
X136436335Y-122986803D01*
X125250500Y-122986803D01*
X125250500Y-120548403D01*
X135186035Y-120548403D01*
X135206230Y-120727649D01*
X135206231Y-120727654D01*
X135265811Y-120897923D01*
X135356223Y-121041811D01*
X135361784Y-121050662D01*
X135489338Y-121178216D01*
X135539279Y-121209596D01*
X135627991Y-121265338D01*
X135642078Y-121274189D01*
X135787425Y-121325048D01*
X135812345Y-121333768D01*
X135812350Y-121333769D01*
X135991596Y-121353965D01*
X135991600Y-121353965D01*
X135991604Y-121353965D01*
X136170849Y-121333769D01*
X136170852Y-121333768D01*
X136170855Y-121333768D01*
X136341122Y-121274189D01*
X136493862Y-121178216D01*
X136621416Y-121050662D01*
X136717389Y-120897922D01*
X136776968Y-120727655D01*
X136778744Y-120711891D01*
X136797165Y-120548403D01*
X136797165Y-120548396D01*
X136785718Y-120446803D01*
X141739235Y-120446803D01*
X141759430Y-120626049D01*
X141759431Y-120626054D01*
X141819011Y-120796323D01*
X141914983Y-120949061D01*
X141914984Y-120949062D01*
X142042538Y-121076616D01*
X142195278Y-121172589D01*
X142365545Y-121232167D01*
X142365545Y-121232168D01*
X142365550Y-121232169D01*
X142544796Y-121252365D01*
X142544800Y-121252365D01*
X142544804Y-121252365D01*
X142724049Y-121232169D01*
X142724052Y-121232168D01*
X142724055Y-121232168D01*
X142894322Y-121172589D01*
X143047062Y-121076616D01*
X143174616Y-120949062D01*
X143270589Y-120796322D01*
X143330168Y-120626055D01*
X143336515Y-120569725D01*
X143350365Y-120446803D01*
X143350365Y-120446796D01*
X143330169Y-120267550D01*
X143330168Y-120267545D01*
X143304015Y-120192803D01*
X148952835Y-120192803D01*
X148973030Y-120372049D01*
X148973031Y-120372054D01*
X149032611Y-120542323D01*
X149046769Y-120564855D01*
X149128584Y-120695062D01*
X149256138Y-120822616D01*
X149345226Y-120878594D01*
X149375986Y-120897922D01*
X149408878Y-120918589D01*
X149495965Y-120949062D01*
X149579145Y-120978168D01*
X149579150Y-120978169D01*
X149758396Y-120998365D01*
X149758400Y-120998365D01*
X149758404Y-120998365D01*
X149937649Y-120978169D01*
X149937652Y-120978168D01*
X149937655Y-120978168D01*
X150107922Y-120918589D01*
X150260662Y-120822616D01*
X150388216Y-120695062D01*
X150484189Y-120542322D01*
X150543768Y-120372055D01*
X150543769Y-120372049D01*
X150563965Y-120192803D01*
X150563965Y-120192796D01*
X150543769Y-120013550D01*
X150543768Y-120013545D01*
X150513155Y-119926058D01*
X150484189Y-119843278D01*
X150467667Y-119816984D01*
X150433766Y-119763030D01*
X150423572Y-119746806D01*
X150770432Y-119746806D01*
X150790627Y-119926052D01*
X150790628Y-119926057D01*
X150850208Y-120096326D01*
X150897077Y-120170917D01*
X150946181Y-120249065D01*
X151073735Y-120376619D01*
X151163468Y-120433002D01*
X151202454Y-120457499D01*
X151226475Y-120472592D01*
X151315651Y-120503796D01*
X151396742Y-120532171D01*
X151396747Y-120532172D01*
X151575993Y-120552368D01*
X151575997Y-120552368D01*
X151576001Y-120552368D01*
X151755246Y-120532172D01*
X151755249Y-120532171D01*
X151755252Y-120532171D01*
X151925519Y-120472592D01*
X152078259Y-120376619D01*
X152205813Y-120249065D01*
X152301786Y-120096325D01*
X152361365Y-119926058D01*
X152364819Y-119895405D01*
X152381562Y-119746806D01*
X152381562Y-119746799D01*
X152361366Y-119567553D01*
X152361365Y-119567548D01*
X152340685Y-119508449D01*
X152301786Y-119397281D01*
X152205813Y-119244541D01*
X152078259Y-119116987D01*
X152078259Y-119116986D01*
X151925520Y-119021014D01*
X151755251Y-118961434D01*
X151755246Y-118961433D01*
X151576001Y-118941238D01*
X151575993Y-118941238D01*
X151396747Y-118961433D01*
X151396742Y-118961434D01*
X151226473Y-119021014D01*
X151073734Y-119116987D01*
X150946181Y-119244540D01*
X150850208Y-119397279D01*
X150790628Y-119567548D01*
X150790627Y-119567553D01*
X150770432Y-119746799D01*
X150770432Y-119746806D01*
X150423572Y-119746806D01*
X150388216Y-119690538D01*
X150260662Y-119562984D01*
X150173880Y-119508455D01*
X150107923Y-119467011D01*
X149937654Y-119407431D01*
X149937649Y-119407430D01*
X149758404Y-119387235D01*
X149758396Y-119387235D01*
X149579150Y-119407430D01*
X149579145Y-119407431D01*
X149408876Y-119467011D01*
X149256137Y-119562984D01*
X149128584Y-119690537D01*
X149032611Y-119843276D01*
X148973031Y-120013545D01*
X148973030Y-120013550D01*
X148952835Y-120192796D01*
X148952835Y-120192803D01*
X143304015Y-120192803D01*
X143270589Y-120097278D01*
X143260613Y-120081402D01*
X143183713Y-119959016D01*
X143174616Y-119944538D01*
X143047062Y-119816984D01*
X142894323Y-119721011D01*
X142724054Y-119661431D01*
X142724049Y-119661430D01*
X142544804Y-119641235D01*
X142544796Y-119641235D01*
X142365550Y-119661430D01*
X142365545Y-119661431D01*
X142195276Y-119721011D01*
X142042537Y-119816984D01*
X141914984Y-119944537D01*
X141819011Y-120097276D01*
X141759431Y-120267545D01*
X141759430Y-120267550D01*
X141739235Y-120446796D01*
X141739235Y-120446803D01*
X136785718Y-120446803D01*
X136776969Y-120369150D01*
X136776968Y-120369145D01*
X136741418Y-120267550D01*
X136717389Y-120198878D01*
X136713567Y-120192796D01*
X136652951Y-120096326D01*
X136621416Y-120046138D01*
X136493862Y-119918584D01*
X136456973Y-119895405D01*
X136341123Y-119822611D01*
X136170854Y-119763031D01*
X136170849Y-119763030D01*
X135991604Y-119742835D01*
X135991596Y-119742835D01*
X135812350Y-119763030D01*
X135812345Y-119763031D01*
X135642076Y-119822611D01*
X135489337Y-119918584D01*
X135361784Y-120046137D01*
X135265811Y-120198876D01*
X135206231Y-120369145D01*
X135206230Y-120369150D01*
X135186035Y-120548396D01*
X135186035Y-120548403D01*
X125250500Y-120548403D01*
X125250500Y-119329203D01*
X132188835Y-119329203D01*
X132209030Y-119508449D01*
X132209031Y-119508454D01*
X132268611Y-119678723D01*
X132355487Y-119816984D01*
X132364584Y-119831462D01*
X132492138Y-119959016D01*
X132578920Y-120013545D01*
X132630791Y-120046138D01*
X132644878Y-120054989D01*
X132765733Y-120097278D01*
X132815145Y-120114568D01*
X132815150Y-120114569D01*
X132994396Y-120134765D01*
X132994400Y-120134765D01*
X132994404Y-120134765D01*
X133173649Y-120114569D01*
X133173652Y-120114568D01*
X133173655Y-120114568D01*
X133343922Y-120054989D01*
X133496662Y-119959016D01*
X133624216Y-119831462D01*
X133720189Y-119678722D01*
X133779768Y-119508455D01*
X133789752Y-119419844D01*
X133799965Y-119329203D01*
X133799965Y-119329196D01*
X133779769Y-119149950D01*
X133779768Y-119149945D01*
X133734653Y-119021014D01*
X133720189Y-118979678D01*
X133707824Y-118960000D01*
X133624215Y-118826937D01*
X133496662Y-118699384D01*
X133343923Y-118603411D01*
X133173654Y-118543831D01*
X133173649Y-118543830D01*
X132994404Y-118523635D01*
X132994396Y-118523635D01*
X132815150Y-118543830D01*
X132815145Y-118543831D01*
X132644876Y-118603411D01*
X132492137Y-118699384D01*
X132364584Y-118826937D01*
X132268611Y-118979676D01*
X132209031Y-119149945D01*
X132209030Y-119149950D01*
X132188835Y-119329196D01*
X132188835Y-119329203D01*
X125250500Y-119329203D01*
X125250500Y-117411503D01*
X138068935Y-117411503D01*
X138089130Y-117590749D01*
X138089131Y-117590754D01*
X138148711Y-117761023D01*
X138220289Y-117874938D01*
X138244684Y-117913762D01*
X138372238Y-118041316D01*
X138524978Y-118137289D01*
X138677112Y-118190523D01*
X138695245Y-118196868D01*
X138695250Y-118196869D01*
X138874496Y-118217065D01*
X138874500Y-118217065D01*
X138874504Y-118217065D01*
X139053749Y-118196869D01*
X139053752Y-118196868D01*
X139053755Y-118196868D01*
X139224022Y-118137289D01*
X139376762Y-118041316D01*
X139504316Y-117913762D01*
X139600289Y-117761022D01*
X139659868Y-117590755D01*
X139661942Y-117572349D01*
X139680065Y-117411503D01*
X139680065Y-117411496D01*
X139659869Y-117232250D01*
X139659868Y-117232245D01*
X139600288Y-117061976D01*
X139540130Y-116966236D01*
X139504316Y-116909238D01*
X139376762Y-116781684D01*
X139302599Y-116735084D01*
X139224023Y-116685711D01*
X139053754Y-116626131D01*
X139053749Y-116626130D01*
X138874504Y-116605935D01*
X138874496Y-116605935D01*
X138695250Y-116626130D01*
X138695245Y-116626131D01*
X138524976Y-116685711D01*
X138372237Y-116781684D01*
X138244684Y-116909237D01*
X138148711Y-117061976D01*
X138089131Y-117232245D01*
X138089130Y-117232250D01*
X138068935Y-117411496D01*
X138068935Y-117411503D01*
X125250500Y-117411503D01*
X125250500Y-116488500D01*
X139780839Y-116488500D01*
X139801034Y-116667746D01*
X139801035Y-116667751D01*
X139860615Y-116838020D01*
X139956588Y-116990759D01*
X140084141Y-117118312D01*
X140084147Y-117118317D01*
X140205669Y-117194675D01*
X140251960Y-117247009D01*
X140262608Y-117316063D01*
X140234233Y-117379911D01*
X140227379Y-117387348D01*
X140173587Y-117441140D01*
X140077614Y-117593879D01*
X140018034Y-117764148D01*
X140018033Y-117764153D01*
X139997838Y-117943399D01*
X139997838Y-117943406D01*
X140018033Y-118122652D01*
X140018034Y-118122657D01*
X140077614Y-118292926D01*
X140133219Y-118381420D01*
X140173587Y-118445665D01*
X140301141Y-118573219D01*
X140453881Y-118669192D01*
X140540165Y-118699384D01*
X140624148Y-118728771D01*
X140624153Y-118728772D01*
X140803399Y-118748968D01*
X140803403Y-118748968D01*
X140803407Y-118748968D01*
X140982652Y-118728772D01*
X140982655Y-118728771D01*
X140982658Y-118728771D01*
X141152925Y-118669192D01*
X141305665Y-118573219D01*
X141433219Y-118445665D01*
X141485698Y-118362145D01*
X141538030Y-118315856D01*
X141607084Y-118305207D01*
X141670932Y-118333582D01*
X141678371Y-118340438D01*
X141754400Y-118416467D01*
X141907140Y-118512440D01*
X141997019Y-118543890D01*
X142077407Y-118572019D01*
X142077412Y-118572020D01*
X142256658Y-118592216D01*
X142256662Y-118592216D01*
X142256666Y-118592216D01*
X142435911Y-118572020D01*
X142435914Y-118572019D01*
X142435917Y-118572019D01*
X142606184Y-118512440D01*
X142758924Y-118416467D01*
X142758925Y-118416465D01*
X142762859Y-118413994D01*
X142830095Y-118394994D01*
X142894803Y-118413994D01*
X142995702Y-118477393D01*
X143127854Y-118523635D01*
X143165969Y-118536972D01*
X143165974Y-118536973D01*
X143345220Y-118557169D01*
X143345224Y-118557169D01*
X143345228Y-118557169D01*
X143524473Y-118536973D01*
X143524476Y-118536972D01*
X143524479Y-118536972D01*
X143694746Y-118477393D01*
X143847486Y-118381420D01*
X143975040Y-118253866D01*
X144071013Y-118101126D01*
X144130592Y-117930859D01*
X144132243Y-117916206D01*
X144150789Y-117751607D01*
X144150789Y-117751601D01*
X144131217Y-117577895D01*
X144143271Y-117509073D01*
X144190620Y-117457693D01*
X144258231Y-117440069D01*
X144295391Y-117446969D01*
X144378543Y-117476065D01*
X144435320Y-117516787D01*
X144454631Y-117552153D01*
X144511410Y-117714421D01*
X144540692Y-117761023D01*
X144607384Y-117867162D01*
X144734938Y-117994716D01*
X144887678Y-118090689D01*
X144984556Y-118124588D01*
X145057945Y-118150268D01*
X145057950Y-118150269D01*
X145237196Y-118170465D01*
X145237200Y-118170465D01*
X145237204Y-118170465D01*
X145416449Y-118150269D01*
X145416452Y-118150268D01*
X145416455Y-118150268D01*
X145586722Y-118090689D01*
X145739462Y-117994716D01*
X145867016Y-117867162D01*
X145953827Y-117729003D01*
X148673435Y-117729003D01*
X148693630Y-117908249D01*
X148693631Y-117908254D01*
X148753211Y-118078523D01*
X148819593Y-118184168D01*
X148849184Y-118231262D01*
X148976738Y-118358816D01*
X149129478Y-118454789D01*
X149194074Y-118477392D01*
X149299745Y-118514368D01*
X149299750Y-118514369D01*
X149478996Y-118534565D01*
X149479000Y-118534565D01*
X149479004Y-118534565D01*
X149658249Y-118514369D01*
X149658252Y-118514368D01*
X149658255Y-118514368D01*
X149828522Y-118454789D01*
X149981262Y-118358816D01*
X150108816Y-118231262D01*
X150204789Y-118078522D01*
X150264368Y-117908255D01*
X150265179Y-117901062D01*
X150276683Y-117798957D01*
X150303749Y-117734543D01*
X150361344Y-117694988D01*
X150431181Y-117692850D01*
X150491087Y-117728808D01*
X150504897Y-117746868D01*
X150585369Y-117874938D01*
X150601784Y-117901062D01*
X150729338Y-118028616D01*
X150811456Y-118080214D01*
X150879004Y-118122658D01*
X150882078Y-118124589D01*
X151017268Y-118171894D01*
X151052345Y-118184168D01*
X151052350Y-118184169D01*
X151231596Y-118204365D01*
X151231600Y-118204365D01*
X151231604Y-118204365D01*
X151410849Y-118184169D01*
X151410852Y-118184168D01*
X151410855Y-118184168D01*
X151581122Y-118124589D01*
X151733862Y-118028616D01*
X151861416Y-117901062D01*
X151957389Y-117748322D01*
X152016968Y-117578055D01*
X152017611Y-117572349D01*
X152037165Y-117398803D01*
X152037165Y-117398796D01*
X152016969Y-117219550D01*
X152016968Y-117219545D01*
X151981545Y-117118312D01*
X151957389Y-117049278D01*
X151927230Y-117001281D01*
X151905210Y-116966236D01*
X151861416Y-116896538D01*
X151733862Y-116768984D01*
X151679911Y-116735084D01*
X151581123Y-116673011D01*
X151410854Y-116613431D01*
X151410849Y-116613430D01*
X151231604Y-116593235D01*
X151231596Y-116593235D01*
X151052350Y-116613430D01*
X151052345Y-116613431D01*
X150882076Y-116673011D01*
X150729337Y-116768984D01*
X150601784Y-116896537D01*
X150505811Y-117049276D01*
X150446231Y-117219545D01*
X150446230Y-117219549D01*
X150433916Y-117328843D01*
X150406849Y-117393257D01*
X150349254Y-117432812D01*
X150279417Y-117434949D01*
X150219511Y-117398990D01*
X150205702Y-117380931D01*
X150195629Y-117364900D01*
X150108816Y-117226738D01*
X149981262Y-117099184D01*
X149907966Y-117053129D01*
X149828523Y-117003211D01*
X149658254Y-116943631D01*
X149658249Y-116943630D01*
X149479004Y-116923435D01*
X149478996Y-116923435D01*
X149299750Y-116943630D01*
X149299745Y-116943631D01*
X149129476Y-117003211D01*
X148976737Y-117099184D01*
X148849184Y-117226737D01*
X148753211Y-117379476D01*
X148693631Y-117549745D01*
X148693630Y-117549750D01*
X148673435Y-117728996D01*
X148673435Y-117729003D01*
X145953827Y-117729003D01*
X145962989Y-117714422D01*
X146022568Y-117544155D01*
X146026521Y-117509073D01*
X146042765Y-117364903D01*
X146042765Y-117364896D01*
X146022569Y-117185650D01*
X146022568Y-117185645D01*
X145999009Y-117118317D01*
X145962989Y-117015378D01*
X145867016Y-116862638D01*
X145739462Y-116735084D01*
X145739461Y-116735083D01*
X145586719Y-116639109D01*
X145453350Y-116592441D01*
X145396574Y-116551720D01*
X145377264Y-116516355D01*
X145320483Y-116354087D01*
X145320482Y-116354085D01*
X145224509Y-116201345D01*
X145096955Y-116073791D01*
X144957611Y-115986235D01*
X144944216Y-115977818D01*
X144773947Y-115918238D01*
X144773942Y-115918237D01*
X144594697Y-115898042D01*
X144594689Y-115898042D01*
X144415443Y-115918237D01*
X144415438Y-115918238D01*
X144245169Y-115977818D01*
X144092430Y-116073791D01*
X143964877Y-116201344D01*
X143868904Y-116354083D01*
X143809324Y-116524352D01*
X143809323Y-116524357D01*
X143789128Y-116703603D01*
X143789128Y-116703610D01*
X143808699Y-116877316D01*
X143796644Y-116946138D01*
X143749295Y-116997517D01*
X143681685Y-117015141D01*
X143644525Y-117008241D01*
X143524481Y-116966236D01*
X143524473Y-116966234D01*
X143345228Y-116946039D01*
X143345220Y-116946039D01*
X143165974Y-116966234D01*
X143165969Y-116966235D01*
X142995700Y-117025815D01*
X142839026Y-117124261D01*
X142771789Y-117143261D01*
X142707081Y-117124260D01*
X142606186Y-117060862D01*
X142435916Y-117001282D01*
X142435911Y-117001281D01*
X142256666Y-116981086D01*
X142256658Y-116981086D01*
X142077412Y-117001281D01*
X142077407Y-117001282D01*
X141907138Y-117060862D01*
X141754399Y-117156835D01*
X141626846Y-117284388D01*
X141626844Y-117284391D01*
X141574367Y-117367907D01*
X141522032Y-117414198D01*
X141452979Y-117424845D01*
X141389131Y-117396470D01*
X141381693Y-117389615D01*
X141305663Y-117313585D01*
X141184136Y-117237224D01*
X141137846Y-117184890D01*
X141127198Y-117115836D01*
X141155573Y-117051988D01*
X141162417Y-117044561D01*
X141216220Y-116990759D01*
X141312193Y-116838019D01*
X141371772Y-116667752D01*
X141374999Y-116639111D01*
X141391969Y-116488500D01*
X141391969Y-116488493D01*
X141371773Y-116309247D01*
X141371772Y-116309242D01*
X141312192Y-116138973D01*
X141216219Y-115986234D01*
X141088666Y-115858681D01*
X140935927Y-115762708D01*
X140765658Y-115703128D01*
X140765653Y-115703127D01*
X140586408Y-115682932D01*
X140586400Y-115682932D01*
X140407154Y-115703127D01*
X140407149Y-115703128D01*
X140236880Y-115762708D01*
X140084141Y-115858681D01*
X139956588Y-115986234D01*
X139860615Y-116138973D01*
X139801035Y-116309242D01*
X139801034Y-116309247D01*
X139780839Y-116488493D01*
X139780839Y-116488500D01*
X125250500Y-116488500D01*
X125250500Y-113690403D01*
X141078835Y-113690403D01*
X141099030Y-113869649D01*
X141099031Y-113869654D01*
X141158611Y-114039923D01*
X141198169Y-114102878D01*
X141254584Y-114192662D01*
X141382138Y-114320216D01*
X141534878Y-114416189D01*
X141638352Y-114452396D01*
X141705145Y-114475768D01*
X141705150Y-114475769D01*
X141884396Y-114495965D01*
X141884400Y-114495965D01*
X141884404Y-114495965D01*
X142063649Y-114475769D01*
X142063652Y-114475768D01*
X142063655Y-114475768D01*
X142233922Y-114416189D01*
X142386662Y-114320216D01*
X142514216Y-114192662D01*
X142610189Y-114039922D01*
X142669768Y-113869655D01*
X142669769Y-113869649D01*
X142689965Y-113690403D01*
X142689965Y-113690396D01*
X142669769Y-113511150D01*
X142669768Y-113511145D01*
X142610188Y-113340876D01*
X142527847Y-113209832D01*
X142514216Y-113188138D01*
X142460490Y-113134412D01*
X143560126Y-113134412D01*
X143580321Y-113313658D01*
X143580322Y-113313663D01*
X143639902Y-113483932D01*
X143735875Y-113636671D01*
X143808882Y-113709678D01*
X143842367Y-113771001D01*
X143837383Y-113840693D01*
X143808882Y-113885040D01*
X143743784Y-113950137D01*
X143647811Y-114102876D01*
X143588231Y-114273145D01*
X143588230Y-114273150D01*
X143568035Y-114452396D01*
X143568035Y-114452403D01*
X143588230Y-114631649D01*
X143588231Y-114631654D01*
X143647811Y-114801923D01*
X143743784Y-114954662D01*
X143871338Y-115082216D01*
X144024078Y-115178189D01*
X144194344Y-115237767D01*
X144194345Y-115237768D01*
X144194350Y-115237769D01*
X144373596Y-115257965D01*
X144373600Y-115257965D01*
X144373604Y-115257965D01*
X144426545Y-115252000D01*
X150000000Y-115252000D01*
X153626000Y-115252000D01*
X153693039Y-115271685D01*
X153738794Y-115324489D01*
X153750000Y-115376000D01*
X153750000Y-117752000D01*
X155232871Y-117752000D01*
X155299910Y-117771685D01*
X155345665Y-117824489D01*
X155356091Y-117889883D01*
X155346001Y-117979437D01*
X155346001Y-117979444D01*
X155366196Y-118158690D01*
X155366197Y-118158695D01*
X155425777Y-118328964D01*
X155480759Y-118416466D01*
X155521750Y-118481703D01*
X155649304Y-118609257D01*
X155802044Y-118705230D01*
X155919521Y-118746337D01*
X155972311Y-118764809D01*
X155972316Y-118764810D01*
X156151562Y-118785006D01*
X156151566Y-118785006D01*
X156151570Y-118785006D01*
X156330815Y-118764810D01*
X156330818Y-118764809D01*
X156330821Y-118764809D01*
X156501088Y-118705230D01*
X156653828Y-118609257D01*
X156781382Y-118481703D01*
X156877355Y-118328963D01*
X156936934Y-118158696D01*
X156936935Y-118158690D01*
X156957131Y-117979444D01*
X156957131Y-117979437D01*
X156947041Y-117889883D01*
X156959096Y-117821061D01*
X157006445Y-117769682D01*
X157070261Y-117752000D01*
X157250000Y-117752000D01*
X157250000Y-108502000D01*
X155289477Y-108502000D01*
X155248613Y-108490001D01*
X159744390Y-108490001D01*
X159764804Y-108775433D01*
X159825628Y-109055037D01*
X159925635Y-109323166D01*
X160062770Y-109574309D01*
X160062775Y-109574317D01*
X160234254Y-109803387D01*
X160234270Y-109803405D01*
X160436594Y-110005729D01*
X160436612Y-110005745D01*
X160665682Y-110177224D01*
X160665690Y-110177229D01*
X160916833Y-110314364D01*
X160916832Y-110314364D01*
X160916836Y-110314365D01*
X160916839Y-110314367D01*
X161184954Y-110414369D01*
X161184960Y-110414370D01*
X161184962Y-110414371D01*
X161464566Y-110475195D01*
X161464568Y-110475195D01*
X161464572Y-110475196D01*
X161718220Y-110493337D01*
X161749999Y-110495610D01*
X161750000Y-110495610D01*
X161750001Y-110495610D01*
X161778595Y-110493564D01*
X162035428Y-110475196D01*
X162225742Y-110433796D01*
X162315037Y-110414371D01*
X162315037Y-110414370D01*
X162315046Y-110414369D01*
X162583161Y-110314367D01*
X162834315Y-110177226D01*
X163063395Y-110005739D01*
X163265739Y-109803395D01*
X163437226Y-109574315D01*
X163574367Y-109323161D01*
X163674369Y-109055046D01*
X163679386Y-109031982D01*
X163735195Y-108775433D01*
X163735195Y-108775432D01*
X163735196Y-108775428D01*
X163755610Y-108490000D01*
X163735196Y-108204572D01*
X163733533Y-108196929D01*
X163674371Y-107924962D01*
X163674370Y-107924960D01*
X163674369Y-107924954D01*
X163574367Y-107656839D01*
X163550191Y-107612565D01*
X163437229Y-107405690D01*
X163437224Y-107405682D01*
X163265745Y-107176612D01*
X163265729Y-107176594D01*
X163063405Y-106974270D01*
X163063387Y-106974254D01*
X162834317Y-106802775D01*
X162834309Y-106802770D01*
X162583166Y-106665635D01*
X162583167Y-106665635D01*
X162365737Y-106584538D01*
X162315046Y-106565631D01*
X162315043Y-106565630D01*
X162315037Y-106565628D01*
X162035433Y-106504804D01*
X161750001Y-106484390D01*
X161749999Y-106484390D01*
X161464566Y-106504804D01*
X161184962Y-106565628D01*
X160916833Y-106665635D01*
X160665690Y-106802770D01*
X160665682Y-106802775D01*
X160436612Y-106974254D01*
X160436594Y-106974270D01*
X160234270Y-107176594D01*
X160234254Y-107176612D01*
X160062775Y-107405682D01*
X160062770Y-107405690D01*
X159925635Y-107656833D01*
X159825628Y-107924962D01*
X159764804Y-108204566D01*
X159744390Y-108489998D01*
X159744390Y-108490001D01*
X155248613Y-108490001D01*
X155222438Y-108482315D01*
X155176683Y-108429511D01*
X155166739Y-108360353D01*
X155170814Y-108342011D01*
X155214824Y-108196932D01*
X155234141Y-108000800D01*
X155214824Y-107804668D01*
X155157614Y-107616073D01*
X155157611Y-107616069D01*
X155157611Y-107616066D01*
X155064713Y-107442267D01*
X155064709Y-107442260D01*
X154939683Y-107289916D01*
X154787339Y-107164890D01*
X154787332Y-107164886D01*
X154613533Y-107071988D01*
X154613527Y-107071986D01*
X154424932Y-107014776D01*
X154424929Y-107014775D01*
X154228800Y-106995459D01*
X154032670Y-107014775D01*
X153844066Y-107071988D01*
X153670267Y-107164886D01*
X153670260Y-107164890D01*
X153517916Y-107289916D01*
X153392890Y-107442260D01*
X153392886Y-107442267D01*
X153299988Y-107616066D01*
X153242775Y-107804670D01*
X153223459Y-108000800D01*
X153242775Y-108196929D01*
X153242776Y-108196932D01*
X153286784Y-108342006D01*
X153287407Y-108411871D01*
X153250159Y-108470984D01*
X153186865Y-108500575D01*
X153168123Y-108502000D01*
X152250000Y-108502000D01*
X152250000Y-110628000D01*
X152230315Y-110695039D01*
X152177511Y-110740794D01*
X152126000Y-110752000D01*
X150000000Y-110752000D01*
X150012400Y-111760000D01*
X152876000Y-111760000D01*
X152943039Y-111779685D01*
X152988794Y-111832489D01*
X153000000Y-111884000D01*
X153000000Y-113419684D01*
X152980315Y-113486723D01*
X152927511Y-113532478D01*
X152858353Y-113542422D01*
X152794797Y-113513397D01*
X152779056Y-113497001D01*
X152775814Y-113492936D01*
X152648262Y-113365384D01*
X152495523Y-113269411D01*
X152325254Y-113209831D01*
X152325249Y-113209830D01*
X152146004Y-113189635D01*
X152145996Y-113189635D01*
X151966750Y-113209830D01*
X151966745Y-113209831D01*
X151796476Y-113269411D01*
X151643737Y-113365384D01*
X151516184Y-113492937D01*
X151420211Y-113645676D01*
X151360631Y-113815945D01*
X151360630Y-113815950D01*
X151340435Y-113995196D01*
X151340435Y-113995203D01*
X151360630Y-114174449D01*
X151360631Y-114174454D01*
X151420211Y-114344723D01*
X151516184Y-114497462D01*
X151559041Y-114540319D01*
X151592526Y-114601642D01*
X151587542Y-114671334D01*
X151545670Y-114727267D01*
X151480206Y-114751684D01*
X151471360Y-114752000D01*
X150000000Y-114752000D01*
X150000000Y-115252000D01*
X144426545Y-115252000D01*
X144552849Y-115237769D01*
X144552852Y-115237768D01*
X144552855Y-115237768D01*
X144723122Y-115178189D01*
X144875862Y-115082216D01*
X145003416Y-114954662D01*
X145099389Y-114801922D01*
X145158968Y-114631655D01*
X145174088Y-114497462D01*
X145179165Y-114452403D01*
X145179165Y-114452396D01*
X145158969Y-114273150D01*
X145158968Y-114273145D01*
X145124435Y-114174455D01*
X145099389Y-114102878D01*
X145003416Y-113950138D01*
X144930409Y-113877131D01*
X144896924Y-113815808D01*
X144901908Y-113746116D01*
X144930409Y-113701769D01*
X144941782Y-113690396D01*
X144995507Y-113636671D01*
X145044980Y-113557935D01*
X148231454Y-113557935D01*
X148251649Y-113737181D01*
X148251650Y-113737186D01*
X148311230Y-113907455D01*
X148366366Y-113995203D01*
X148407203Y-114060194D01*
X148534757Y-114187748D01*
X148687497Y-114283721D01*
X148791791Y-114320215D01*
X148857764Y-114343300D01*
X148857769Y-114343301D01*
X149037015Y-114363497D01*
X149037019Y-114363497D01*
X149037023Y-114363497D01*
X149216268Y-114343301D01*
X149216271Y-114343300D01*
X149216274Y-114343300D01*
X149386541Y-114283721D01*
X149539281Y-114187748D01*
X149666835Y-114060194D01*
X149762808Y-113907454D01*
X149822387Y-113737187D01*
X149822388Y-113737181D01*
X149842584Y-113557935D01*
X149842584Y-113557928D01*
X149822388Y-113378682D01*
X149822387Y-113378677D01*
X149817736Y-113365384D01*
X149762808Y-113208410D01*
X149666835Y-113055670D01*
X149539281Y-112928116D01*
X149502543Y-112905032D01*
X149386542Y-112832143D01*
X149216273Y-112772563D01*
X149216268Y-112772562D01*
X149037023Y-112752367D01*
X149037015Y-112752367D01*
X148857769Y-112772562D01*
X148857764Y-112772563D01*
X148687495Y-112832143D01*
X148534756Y-112928116D01*
X148407203Y-113055669D01*
X148311230Y-113208408D01*
X148251650Y-113378677D01*
X148251649Y-113378682D01*
X148231454Y-113557928D01*
X148231454Y-113557935D01*
X145044980Y-113557935D01*
X145091480Y-113483931D01*
X145151059Y-113313664D01*
X145170224Y-113143566D01*
X145197290Y-113079153D01*
X145254885Y-113039598D01*
X145324722Y-113037460D01*
X145338255Y-113042429D01*
X145338305Y-113042289D01*
X145515145Y-113104168D01*
X145515150Y-113104169D01*
X145694396Y-113124365D01*
X145694400Y-113124365D01*
X145694404Y-113124365D01*
X145873649Y-113104169D01*
X145873652Y-113104168D01*
X145873655Y-113104168D01*
X146043922Y-113044589D01*
X146196662Y-112948616D01*
X146324216Y-112821062D01*
X146420189Y-112668322D01*
X146479768Y-112498055D01*
X146489042Y-112415748D01*
X146499965Y-112318803D01*
X146499965Y-112318796D01*
X146479769Y-112139548D01*
X146468857Y-112108364D01*
X146465294Y-112038586D01*
X146480904Y-112001437D01*
X146501111Y-111969278D01*
X146572589Y-111855522D01*
X146632168Y-111685255D01*
X146652365Y-111506000D01*
X146632168Y-111326745D01*
X146572589Y-111156478D01*
X146476616Y-111003738D01*
X146349062Y-110876184D01*
X146229072Y-110800789D01*
X146196323Y-110780211D01*
X146026054Y-110720631D01*
X146026049Y-110720630D01*
X145846804Y-110700435D01*
X145846796Y-110700435D01*
X145667550Y-110720630D01*
X145667545Y-110720631D01*
X145497276Y-110780211D01*
X145344537Y-110876184D01*
X145216984Y-111003737D01*
X145121011Y-111156476D01*
X145061431Y-111326745D01*
X145061430Y-111326750D01*
X145041235Y-111505996D01*
X145041235Y-111506003D01*
X145061430Y-111685249D01*
X145061432Y-111685257D01*
X145072343Y-111716438D01*
X145075904Y-111786216D01*
X145060295Y-111823364D01*
X144968611Y-111969276D01*
X144909031Y-112139545D01*
X144909030Y-112139549D01*
X144889866Y-112309642D01*
X144862799Y-112374056D01*
X144805205Y-112413611D01*
X144735368Y-112415748D01*
X144721835Y-112410779D01*
X144721786Y-112410920D01*
X144544945Y-112349040D01*
X144544940Y-112349039D01*
X144365695Y-112328844D01*
X144365687Y-112328844D01*
X144186441Y-112349039D01*
X144186436Y-112349040D01*
X144016167Y-112408620D01*
X143863428Y-112504593D01*
X143735875Y-112632146D01*
X143639902Y-112784885D01*
X143580322Y-112955154D01*
X143580321Y-112955159D01*
X143560126Y-113134405D01*
X143560126Y-113134412D01*
X142460490Y-113134412D01*
X142386662Y-113060584D01*
X142353263Y-113039598D01*
X142233923Y-112964611D01*
X142063654Y-112905031D01*
X142063649Y-112905030D01*
X141884404Y-112884835D01*
X141884396Y-112884835D01*
X141705150Y-112905030D01*
X141705145Y-112905031D01*
X141534876Y-112964611D01*
X141382137Y-113060584D01*
X141254584Y-113188137D01*
X141158611Y-113340876D01*
X141099031Y-113511145D01*
X141099030Y-113511150D01*
X141078835Y-113690396D01*
X141078835Y-113690403D01*
X125250500Y-113690403D01*
X125250500Y-110037870D01*
X126749500Y-110037870D01*
X126749501Y-110037876D01*
X126755908Y-110097483D01*
X126806202Y-110232328D01*
X126806206Y-110232335D01*
X126892452Y-110347544D01*
X126892455Y-110347547D01*
X127007664Y-110433793D01*
X127007671Y-110433797D01*
X127142517Y-110484091D01*
X127142516Y-110484091D01*
X127149444Y-110484835D01*
X127202127Y-110490500D01*
X130297872Y-110490499D01*
X130357483Y-110484091D01*
X130492331Y-110433796D01*
X130607546Y-110347546D01*
X130693796Y-110232331D01*
X130744091Y-110097483D01*
X130746508Y-110075003D01*
X135389235Y-110075003D01*
X135409430Y-110254249D01*
X135409431Y-110254254D01*
X135469011Y-110424523D01*
X135564983Y-110577262D01*
X135564984Y-110577262D01*
X135692538Y-110704816D01*
X135845278Y-110800789D01*
X136015545Y-110860367D01*
X136015545Y-110860368D01*
X136015550Y-110860369D01*
X136194796Y-110880565D01*
X136194800Y-110880565D01*
X136194804Y-110880565D01*
X136374049Y-110860369D01*
X136374052Y-110860368D01*
X136374055Y-110860368D01*
X136544322Y-110800789D01*
X136697062Y-110704816D01*
X136824616Y-110577262D01*
X136920589Y-110424522D01*
X136951003Y-110337603D01*
X140520035Y-110337603D01*
X140540230Y-110516849D01*
X140540231Y-110516854D01*
X140599811Y-110687123D01*
X140658303Y-110780211D01*
X140695784Y-110839862D01*
X140823338Y-110967416D01*
X140976078Y-111063389D01*
X141146345Y-111122968D01*
X141146350Y-111122969D01*
X141325596Y-111143165D01*
X141325600Y-111143165D01*
X141325604Y-111143165D01*
X141504849Y-111122969D01*
X141504852Y-111122968D01*
X141504855Y-111122968D01*
X141675122Y-111063389D01*
X141827862Y-110967416D01*
X141955416Y-110839862D01*
X142051389Y-110687122D01*
X142110968Y-110516855D01*
X142113362Y-110495610D01*
X142131165Y-110337603D01*
X142131165Y-110337596D01*
X142110969Y-110158350D01*
X142110968Y-110158345D01*
X142081803Y-110074996D01*
X142051389Y-109988078D01*
X141955416Y-109835338D01*
X141827862Y-109707784D01*
X141827861Y-109707784D01*
X141675123Y-109611811D01*
X141504854Y-109552231D01*
X141504849Y-109552230D01*
X141325604Y-109532035D01*
X141325596Y-109532035D01*
X141146350Y-109552230D01*
X141146345Y-109552231D01*
X140976076Y-109611811D01*
X140823337Y-109707784D01*
X140695784Y-109835337D01*
X140599811Y-109988076D01*
X140540231Y-110158345D01*
X140540230Y-110158350D01*
X140520035Y-110337596D01*
X140520035Y-110337603D01*
X136951003Y-110337603D01*
X136980168Y-110254255D01*
X136982638Y-110232335D01*
X137000365Y-110075003D01*
X137000365Y-110074996D01*
X136980169Y-109895750D01*
X136980168Y-109895745D01*
X136947853Y-109803395D01*
X136920589Y-109725478D01*
X136824616Y-109572738D01*
X136697062Y-109445184D01*
X136544323Y-109349211D01*
X136374054Y-109289631D01*
X136374049Y-109289630D01*
X136194804Y-109269435D01*
X136194796Y-109269435D01*
X136015550Y-109289630D01*
X136015545Y-109289631D01*
X135845276Y-109349211D01*
X135692537Y-109445184D01*
X135564984Y-109572737D01*
X135469011Y-109725476D01*
X135409431Y-109895745D01*
X135409430Y-109895750D01*
X135389235Y-110074996D01*
X135389235Y-110075003D01*
X130746508Y-110075003D01*
X130750500Y-110037873D01*
X130750500Y-108682463D01*
X141376274Y-108682463D01*
X141396469Y-108861709D01*
X141396470Y-108861714D01*
X141456050Y-109031983D01*
X141470536Y-109055037D01*
X141552023Y-109184722D01*
X141679577Y-109312276D01*
X141832317Y-109408249D01*
X141937871Y-109445184D01*
X142002584Y-109467828D01*
X142002589Y-109467829D01*
X142181835Y-109488025D01*
X142181839Y-109488025D01*
X142181843Y-109488025D01*
X142361088Y-109467829D01*
X142361091Y-109467828D01*
X142361094Y-109467828D01*
X142531361Y-109408249D01*
X142684101Y-109312276D01*
X142811655Y-109184722D01*
X142907628Y-109031982D01*
X142967207Y-108861715D01*
X142987404Y-108682460D01*
X142967207Y-108503205D01*
X142907628Y-108332938D01*
X142811655Y-108180198D01*
X142684101Y-108052644D01*
X142601592Y-108000800D01*
X142531362Y-107956671D01*
X142361093Y-107897091D01*
X142361088Y-107897090D01*
X142181843Y-107876895D01*
X142181835Y-107876895D01*
X142002589Y-107897090D01*
X142002584Y-107897091D01*
X141832315Y-107956671D01*
X141679576Y-108052644D01*
X141552023Y-108180197D01*
X141456050Y-108332936D01*
X141396470Y-108503205D01*
X141396469Y-108503210D01*
X141376274Y-108682456D01*
X141376274Y-108682463D01*
X130750500Y-108682463D01*
X130750499Y-106942128D01*
X130744091Y-106882517D01*
X130729274Y-106842791D01*
X130715926Y-106807003D01*
X140291435Y-106807003D01*
X140311630Y-106986249D01*
X140311631Y-106986254D01*
X140371211Y-107156523D01*
X140455028Y-107289916D01*
X140467184Y-107309262D01*
X140594738Y-107436816D01*
X140747478Y-107532789D01*
X140917744Y-107592368D01*
X140917745Y-107592368D01*
X140917750Y-107592369D01*
X141096996Y-107612565D01*
X141097000Y-107612565D01*
X141097004Y-107612565D01*
X141276249Y-107592369D01*
X141276252Y-107592368D01*
X141276255Y-107592368D01*
X141446522Y-107532789D01*
X141599262Y-107436816D01*
X141726816Y-107309262D01*
X141822789Y-107156522D01*
X141882368Y-106986255D01*
X141882369Y-106986249D01*
X141902565Y-106807003D01*
X141902565Y-106806996D01*
X141882369Y-106627750D01*
X141882368Y-106627745D01*
X141879401Y-106619265D01*
X141822789Y-106457478D01*
X141726816Y-106304738D01*
X141599262Y-106177184D01*
X141572372Y-106160288D01*
X141446523Y-106081211D01*
X141276254Y-106021631D01*
X141276249Y-106021630D01*
X141097004Y-106001435D01*
X141096996Y-106001435D01*
X140917750Y-106021630D01*
X140917745Y-106021631D01*
X140747476Y-106081211D01*
X140594737Y-106177184D01*
X140467184Y-106304737D01*
X140371211Y-106457476D01*
X140311631Y-106627745D01*
X140311630Y-106627750D01*
X140291435Y-106806996D01*
X140291435Y-106807003D01*
X130715926Y-106807003D01*
X130693797Y-106747671D01*
X130693793Y-106747664D01*
X130607547Y-106632455D01*
X130607544Y-106632452D01*
X130492335Y-106546206D01*
X130492328Y-106546202D01*
X130357482Y-106495908D01*
X130357483Y-106495908D01*
X130297883Y-106489501D01*
X130297881Y-106489500D01*
X130297873Y-106489500D01*
X130297864Y-106489500D01*
X127202129Y-106489500D01*
X127202123Y-106489501D01*
X127142516Y-106495908D01*
X127007671Y-106546202D01*
X127007664Y-106546206D01*
X126892455Y-106632452D01*
X126892452Y-106632455D01*
X126806206Y-106747664D01*
X126806202Y-106747671D01*
X126755908Y-106882517D01*
X126749501Y-106942116D01*
X126749501Y-106942123D01*
X126749500Y-106942135D01*
X126749500Y-110037870D01*
X125250500Y-110037870D01*
X125250500Y-105954726D01*
X142820935Y-105954726D01*
X142841130Y-106133972D01*
X142841131Y-106133977D01*
X142900711Y-106304246D01*
X142961501Y-106400992D01*
X142996684Y-106456985D01*
X143124238Y-106584539D01*
X143276978Y-106680512D01*
X143403323Y-106724722D01*
X143447245Y-106740091D01*
X143447250Y-106740092D01*
X143626496Y-106760288D01*
X143626500Y-106760288D01*
X143626504Y-106760288D01*
X143805749Y-106740092D01*
X143805752Y-106740091D01*
X143805755Y-106740091D01*
X143976022Y-106680512D01*
X144128762Y-106584539D01*
X144256316Y-106456985D01*
X144262224Y-106447582D01*
X144314555Y-106401291D01*
X144383609Y-106390641D01*
X144412495Y-106399282D01*
X144412702Y-106398692D01*
X144419274Y-106400991D01*
X144419275Y-106400992D01*
X144552427Y-106447584D01*
X144589542Y-106460571D01*
X144589547Y-106460572D01*
X144768793Y-106480768D01*
X144768797Y-106480768D01*
X144768801Y-106480768D01*
X144948046Y-106460572D01*
X144948049Y-106460571D01*
X144948052Y-106460571D01*
X145118319Y-106400992D01*
X145271059Y-106305019D01*
X145398613Y-106177465D01*
X145494586Y-106024725D01*
X145554165Y-105854458D01*
X145554166Y-105854452D01*
X145574362Y-105675206D01*
X145574362Y-105675199D01*
X145560871Y-105555460D01*
X145897892Y-105555460D01*
X145918087Y-105734706D01*
X145918088Y-105734711D01*
X145977668Y-105904980D01*
X146018523Y-105970000D01*
X146073641Y-106057719D01*
X146201195Y-106185273D01*
X146353935Y-106281246D01*
X146443534Y-106312598D01*
X146524202Y-106340825D01*
X146524207Y-106340826D01*
X146703453Y-106361022D01*
X146703457Y-106361022D01*
X146703461Y-106361022D01*
X146882706Y-106340826D01*
X146882709Y-106340825D01*
X146882712Y-106340825D01*
X147052979Y-106281246D01*
X147205719Y-106185273D01*
X147230706Y-106160285D01*
X147292025Y-106126802D01*
X147361717Y-106131786D01*
X147417651Y-106173656D01*
X147442069Y-106239120D01*
X147441605Y-106261851D01*
X147428835Y-106375195D01*
X147428835Y-106375203D01*
X147449030Y-106554449D01*
X147449031Y-106554454D01*
X147508611Y-106724723D01*
X147582799Y-106842791D01*
X147604584Y-106877462D01*
X147732138Y-107005016D01*
X147884878Y-107100989D01*
X148043582Y-107156522D01*
X148055145Y-107160568D01*
X148055150Y-107160569D01*
X148234396Y-107180765D01*
X148234400Y-107180765D01*
X148234404Y-107180765D01*
X148413649Y-107160569D01*
X148413652Y-107160568D01*
X148413655Y-107160568D01*
X148583922Y-107100989D01*
X148736662Y-107005016D01*
X148864216Y-106877462D01*
X148960189Y-106724722D01*
X149019768Y-106554455D01*
X149020698Y-106546206D01*
X149029675Y-106466525D01*
X149039965Y-106375200D01*
X149039090Y-106367438D01*
X149051142Y-106298619D01*
X149094292Y-106251792D01*
X149060891Y-106240863D01*
X149060521Y-106240409D01*
X149199108Y-106240409D01*
X149232505Y-106251335D01*
X149276626Y-106305512D01*
X149279351Y-106312598D01*
X149333212Y-106466522D01*
X149388464Y-106554455D01*
X149429187Y-106619265D01*
X149556741Y-106746819D01*
X149709481Y-106842792D01*
X149823006Y-106882516D01*
X149879748Y-106902371D01*
X149879753Y-106902372D01*
X150058999Y-106922568D01*
X150059003Y-106922568D01*
X150059007Y-106922568D01*
X150238252Y-106902372D01*
X150238255Y-106902371D01*
X150238258Y-106902371D01*
X150408525Y-106842792D01*
X150561265Y-106746819D01*
X150688819Y-106619265D01*
X150784792Y-106466525D01*
X150844371Y-106296258D01*
X150844372Y-106296252D01*
X150864568Y-106117006D01*
X150864568Y-106116999D01*
X150844372Y-105937753D01*
X150844371Y-105937748D01*
X150821693Y-105872937D01*
X150784792Y-105767481D01*
X150778204Y-105756997D01*
X150722789Y-105668804D01*
X150688819Y-105614741D01*
X150561265Y-105487187D01*
X150505999Y-105452461D01*
X150408526Y-105391214D01*
X150238257Y-105331634D01*
X150238252Y-105331633D01*
X150059007Y-105311438D01*
X150058999Y-105311438D01*
X149879753Y-105331633D01*
X149879748Y-105331634D01*
X149709479Y-105391214D01*
X149556740Y-105487187D01*
X149429187Y-105614740D01*
X149333214Y-105767479D01*
X149273634Y-105937748D01*
X149273633Y-105937753D01*
X149253438Y-106116999D01*
X149253438Y-106117003D01*
X149254313Y-106124768D01*
X149242257Y-106193589D01*
X149199108Y-106240409D01*
X149060521Y-106240409D01*
X149016774Y-106186683D01*
X149014050Y-106179604D01*
X148992144Y-106117000D01*
X148960189Y-106025678D01*
X148957645Y-106021630D01*
X148889611Y-105913354D01*
X148864216Y-105872938D01*
X148736662Y-105745384D01*
X148683669Y-105712086D01*
X148583923Y-105649411D01*
X148413654Y-105589831D01*
X148413649Y-105589830D01*
X148234404Y-105569635D01*
X148234396Y-105569635D01*
X148055150Y-105589830D01*
X148055145Y-105589831D01*
X147884876Y-105649411D01*
X147732139Y-105745383D01*
X147707151Y-105770371D01*
X147645827Y-105803855D01*
X147576135Y-105798869D01*
X147520203Y-105756997D01*
X147495787Y-105691532D01*
X147496251Y-105668804D01*
X147509022Y-105555459D01*
X147509022Y-105555453D01*
X147488826Y-105376207D01*
X147488825Y-105376202D01*
X147439195Y-105234367D01*
X147429246Y-105205935D01*
X147408514Y-105172941D01*
X147360941Y-105097229D01*
X147333273Y-105053195D01*
X147205719Y-104925641D01*
X147052980Y-104829668D01*
X146882711Y-104770088D01*
X146882706Y-104770087D01*
X146703461Y-104749892D01*
X146703453Y-104749892D01*
X146524207Y-104770087D01*
X146524202Y-104770088D01*
X146353933Y-104829668D01*
X146201194Y-104925641D01*
X146073641Y-105053194D01*
X145977668Y-105205933D01*
X145918088Y-105376202D01*
X145918087Y-105376207D01*
X145897892Y-105555453D01*
X145897892Y-105555460D01*
X145560871Y-105555460D01*
X145554166Y-105495953D01*
X145554165Y-105495948D01*
X145538948Y-105452460D01*
X145494586Y-105325681D01*
X145398613Y-105172941D01*
X145271059Y-105045387D01*
X145183096Y-104990116D01*
X145118320Y-104949414D01*
X144948051Y-104889834D01*
X144948046Y-104889833D01*
X144768801Y-104869638D01*
X144768793Y-104869638D01*
X144589547Y-104889833D01*
X144589542Y-104889834D01*
X144419273Y-104949414D01*
X144266534Y-105045387D01*
X144138982Y-105172939D01*
X144133071Y-105182347D01*
X144080735Y-105228637D01*
X144011682Y-105239284D01*
X143982800Y-105230643D01*
X143982594Y-105231233D01*
X143805762Y-105169356D01*
X143805749Y-105169353D01*
X143626504Y-105149158D01*
X143626496Y-105149158D01*
X143447250Y-105169353D01*
X143447245Y-105169354D01*
X143276976Y-105228934D01*
X143124237Y-105324907D01*
X142996684Y-105452460D01*
X142900711Y-105605199D01*
X142841131Y-105775468D01*
X142841130Y-105775473D01*
X142820935Y-105954719D01*
X142820935Y-105954726D01*
X125250500Y-105954726D01*
X125250500Y-103410001D01*
X126744390Y-103410001D01*
X126764804Y-103695433D01*
X126825628Y-103975037D01*
X126825630Y-103975043D01*
X126825631Y-103975046D01*
X126898345Y-104170000D01*
X126925635Y-104243166D01*
X127062770Y-104494309D01*
X127062775Y-104494317D01*
X127234254Y-104723387D01*
X127234270Y-104723405D01*
X127436594Y-104925729D01*
X127436612Y-104925745D01*
X127665682Y-105097224D01*
X127665690Y-105097229D01*
X127916833Y-105234364D01*
X127916832Y-105234364D01*
X127916836Y-105234365D01*
X127916839Y-105234367D01*
X128184954Y-105334369D01*
X128184960Y-105334370D01*
X128184962Y-105334371D01*
X128464566Y-105395195D01*
X128464568Y-105395195D01*
X128464572Y-105395196D01*
X128718220Y-105413337D01*
X128749999Y-105415610D01*
X128750000Y-105415610D01*
X128750001Y-105415610D01*
X128778595Y-105413564D01*
X129035428Y-105395196D01*
X129122720Y-105376207D01*
X129315037Y-105334371D01*
X129315037Y-105334370D01*
X129315046Y-105334369D01*
X129583161Y-105234367D01*
X129834315Y-105097226D01*
X130063395Y-104925739D01*
X130265739Y-104723395D01*
X130437226Y-104494315D01*
X130574367Y-104243161D01*
X130674369Y-103975046D01*
X130735196Y-103695428D01*
X130755610Y-103410000D01*
X130735196Y-103124572D01*
X130731358Y-103106930D01*
X130679586Y-102868936D01*
X135200881Y-102868936D01*
X135221076Y-103048182D01*
X135221077Y-103048187D01*
X135280657Y-103218456D01*
X135348638Y-103326646D01*
X135376630Y-103371195D01*
X135504184Y-103498749D01*
X135591028Y-103553317D01*
X135656920Y-103594720D01*
X135656924Y-103594722D01*
X135827185Y-103654299D01*
X135827191Y-103654301D01*
X135827196Y-103654302D01*
X136006442Y-103674498D01*
X136006446Y-103674498D01*
X136006450Y-103674498D01*
X136185695Y-103654302D01*
X136185697Y-103654301D01*
X136185701Y-103654301D01*
X136185704Y-103654299D01*
X136185708Y-103654299D01*
X136236746Y-103636439D01*
X136355968Y-103594722D01*
X136391621Y-103572319D01*
X136458854Y-103553317D01*
X136498547Y-103560269D01*
X136532986Y-103572320D01*
X136625140Y-103604567D01*
X136625150Y-103604569D01*
X136804396Y-103624765D01*
X136804400Y-103624765D01*
X136804404Y-103624765D01*
X136983649Y-103604569D01*
X136983652Y-103604568D01*
X136983655Y-103604568D01*
X137153922Y-103544989D01*
X137306662Y-103449016D01*
X137434216Y-103321462D01*
X137530189Y-103168722D01*
X137589768Y-102998455D01*
X137595070Y-102951401D01*
X137609965Y-102819203D01*
X137609965Y-102819196D01*
X137589769Y-102639950D01*
X137589768Y-102639945D01*
X137547591Y-102519411D01*
X137530189Y-102469678D01*
X137434216Y-102316938D01*
X137306662Y-102189384D01*
X137233072Y-102143144D01*
X137177942Y-102108503D01*
X141598031Y-102108503D01*
X141618226Y-102287749D01*
X141618227Y-102287754D01*
X141677807Y-102458023D01*
X141716379Y-102519409D01*
X141773780Y-102610762D01*
X141901334Y-102738316D01*
X141972429Y-102782988D01*
X142030053Y-102819196D01*
X142054074Y-102834289D01*
X142198729Y-102884906D01*
X142224341Y-102893868D01*
X142224346Y-102893869D01*
X142403592Y-102914065D01*
X142403596Y-102914065D01*
X142403600Y-102914065D01*
X142582845Y-102893869D01*
X142582848Y-102893868D01*
X142582851Y-102893868D01*
X142753118Y-102834289D01*
X142905858Y-102738316D01*
X143033412Y-102610762D01*
X143129385Y-102458022D01*
X143188964Y-102287755D01*
X143194744Y-102236455D01*
X143209161Y-102108503D01*
X143209161Y-102108496D01*
X143203382Y-102057203D01*
X144787235Y-102057203D01*
X144807430Y-102236449D01*
X144807431Y-102236454D01*
X144867011Y-102406723D01*
X144906569Y-102469678D01*
X144962984Y-102559462D01*
X145090538Y-102687016D01*
X145172180Y-102738315D01*
X145223729Y-102770706D01*
X145243278Y-102782989D01*
X145346752Y-102819196D01*
X145413545Y-102842568D01*
X145413550Y-102842569D01*
X145592796Y-102862765D01*
X145592800Y-102862765D01*
X145592804Y-102862765D01*
X145772049Y-102842569D01*
X145772052Y-102842568D01*
X145772055Y-102842568D01*
X145942322Y-102782989D01*
X146095062Y-102687016D01*
X146222616Y-102559462D01*
X146318589Y-102406722D01*
X146378168Y-102236455D01*
X146389620Y-102134814D01*
X146395796Y-102080000D01*
X154394341Y-102080000D01*
X154414936Y-102315403D01*
X154414938Y-102315413D01*
X154476094Y-102543655D01*
X154476096Y-102543659D01*
X154476097Y-102543663D01*
X154544789Y-102690972D01*
X154575965Y-102757830D01*
X154575967Y-102757834D01*
X154637075Y-102845104D01*
X154711501Y-102951396D01*
X154711506Y-102951402D01*
X154833818Y-103073714D01*
X154867303Y-103135037D01*
X154862319Y-103204729D01*
X154820447Y-103260662D01*
X154789471Y-103277577D01*
X154657912Y-103326646D01*
X154657906Y-103326649D01*
X154542812Y-103412809D01*
X154542809Y-103412812D01*
X154456649Y-103527906D01*
X154456645Y-103527913D01*
X154406403Y-103662620D01*
X154406401Y-103662627D01*
X154400000Y-103722155D01*
X154400000Y-104370000D01*
X155316314Y-104370000D01*
X155290507Y-104410156D01*
X155250000Y-104548111D01*
X155250000Y-104691889D01*
X155290507Y-104829844D01*
X155316314Y-104870000D01*
X154400000Y-104870000D01*
X154400000Y-105517844D01*
X154406401Y-105577372D01*
X154406403Y-105577379D01*
X154456645Y-105712086D01*
X154456649Y-105712093D01*
X154542809Y-105827187D01*
X154542812Y-105827190D01*
X154657906Y-105913350D01*
X154657913Y-105913354D01*
X154792620Y-105963596D01*
X154792627Y-105963598D01*
X154852155Y-105969999D01*
X154852172Y-105970000D01*
X155500000Y-105970000D01*
X155500000Y-105055501D01*
X155607685Y-105104680D01*
X155714237Y-105120000D01*
X155785763Y-105120000D01*
X155892315Y-105104680D01*
X156000000Y-105055501D01*
X156000000Y-105970000D01*
X156647828Y-105970000D01*
X156647844Y-105969999D01*
X156707372Y-105963598D01*
X156707379Y-105963596D01*
X156842086Y-105913354D01*
X156842093Y-105913350D01*
X156957187Y-105827190D01*
X156957190Y-105827187D01*
X157043350Y-105712093D01*
X157043354Y-105712086D01*
X157093596Y-105577379D01*
X157093598Y-105577372D01*
X157099999Y-105517844D01*
X157100000Y-105517827D01*
X157100000Y-104870000D01*
X156183686Y-104870000D01*
X156209493Y-104829844D01*
X156250000Y-104691889D01*
X156250000Y-104548111D01*
X156209493Y-104410156D01*
X156183686Y-104370000D01*
X157100000Y-104370000D01*
X157100000Y-103722172D01*
X157099999Y-103722155D01*
X157093598Y-103662627D01*
X157093596Y-103662620D01*
X157043354Y-103527913D01*
X157043350Y-103527906D01*
X156957190Y-103412812D01*
X156957187Y-103412809D01*
X156953436Y-103410001D01*
X159744891Y-103410001D01*
X159765300Y-103695362D01*
X159826109Y-103974895D01*
X159926091Y-104242958D01*
X160063191Y-104494038D01*
X160063196Y-104494046D01*
X160169882Y-104636561D01*
X160169883Y-104636562D01*
X161065195Y-103741250D01*
X161087340Y-103792587D01*
X161193433Y-103935094D01*
X161329530Y-104049294D01*
X161419216Y-104094335D01*
X160523436Y-104990115D01*
X160665960Y-105096807D01*
X160665961Y-105096808D01*
X160917042Y-105233908D01*
X160917041Y-105233908D01*
X161185104Y-105333890D01*
X161464637Y-105394699D01*
X161749999Y-105415109D01*
X161750001Y-105415109D01*
X162035362Y-105394699D01*
X162314895Y-105333890D01*
X162582958Y-105233908D01*
X162834047Y-105096803D01*
X162976561Y-104990116D01*
X162976562Y-104990115D01*
X162083748Y-104097300D01*
X162093409Y-104093784D01*
X162241844Y-103996157D01*
X162363764Y-103866930D01*
X162435768Y-103742215D01*
X163330115Y-104636562D01*
X163330116Y-104636561D01*
X163436803Y-104494047D01*
X163573908Y-104242958D01*
X163673890Y-103974895D01*
X163734699Y-103695362D01*
X163755109Y-103410001D01*
X163755109Y-103409998D01*
X163734699Y-103124637D01*
X163673890Y-102845104D01*
X163573908Y-102577041D01*
X163436808Y-102325961D01*
X163436807Y-102325960D01*
X163330115Y-102183436D01*
X162434803Y-103078747D01*
X162412660Y-103027413D01*
X162306567Y-102884906D01*
X162170470Y-102770706D01*
X162080782Y-102725663D01*
X162976562Y-101829883D01*
X162976561Y-101829882D01*
X162834046Y-101723196D01*
X162834038Y-101723191D01*
X162582957Y-101586091D01*
X162582958Y-101586091D01*
X162314895Y-101486109D01*
X162035362Y-101425300D01*
X161750001Y-101404891D01*
X161749999Y-101404891D01*
X161464637Y-101425300D01*
X161185104Y-101486109D01*
X160917041Y-101586091D01*
X160665961Y-101723191D01*
X160665953Y-101723196D01*
X160523437Y-101829882D01*
X160523436Y-101829883D01*
X161416252Y-102722699D01*
X161406591Y-102726216D01*
X161258156Y-102823843D01*
X161136236Y-102953070D01*
X161064231Y-103077784D01*
X160169883Y-102183436D01*
X160169882Y-102183437D01*
X160063196Y-102325953D01*
X160063191Y-102325961D01*
X159926091Y-102577041D01*
X159826109Y-102845104D01*
X159765300Y-103124637D01*
X159744891Y-103409998D01*
X159744891Y-103410001D01*
X156953436Y-103410001D01*
X156842093Y-103326649D01*
X156842088Y-103326646D01*
X156710528Y-103277577D01*
X156654595Y-103235705D01*
X156630178Y-103170241D01*
X156645030Y-103101968D01*
X156666175Y-103073720D01*
X156788495Y-102951401D01*
X156924035Y-102757830D01*
X157023903Y-102543663D01*
X157085063Y-102315408D01*
X157105659Y-102080000D01*
X157103664Y-102057203D01*
X157099853Y-102013635D01*
X157085063Y-101844592D01*
X157023903Y-101616337D01*
X156924035Y-101402171D01*
X156868691Y-101323130D01*
X156788494Y-101208597D01*
X156621402Y-101041506D01*
X156621401Y-101041505D01*
X156435842Y-100911575D01*
X156435841Y-100911574D01*
X156392216Y-100856997D01*
X156385024Y-100787498D01*
X156416546Y-100725144D01*
X156435836Y-100708428D01*
X156621401Y-100578495D01*
X156788495Y-100411401D01*
X156924035Y-100217830D01*
X157023903Y-100003663D01*
X157085063Y-99775408D01*
X157105659Y-99540000D01*
X157085063Y-99304592D01*
X157023903Y-99076337D01*
X156924035Y-98862171D01*
X156844879Y-98749123D01*
X156788494Y-98668597D01*
X156621402Y-98501506D01*
X156621396Y-98501501D01*
X156435842Y-98371575D01*
X156402611Y-98330001D01*
X159744390Y-98330001D01*
X159764804Y-98615433D01*
X159825628Y-98895037D01*
X159825630Y-98895043D01*
X159825631Y-98895046D01*
X159911545Y-99125389D01*
X159925635Y-99163166D01*
X160062770Y-99414309D01*
X160062775Y-99414317D01*
X160234254Y-99643387D01*
X160234270Y-99643405D01*
X160436594Y-99845729D01*
X160436612Y-99845745D01*
X160665682Y-100017224D01*
X160665690Y-100017229D01*
X160916833Y-100154364D01*
X160916832Y-100154364D01*
X160916836Y-100154365D01*
X160916839Y-100154367D01*
X161184954Y-100254369D01*
X161184960Y-100254370D01*
X161184962Y-100254371D01*
X161464566Y-100315195D01*
X161464568Y-100315195D01*
X161464572Y-100315196D01*
X161718220Y-100333337D01*
X161749999Y-100335610D01*
X161750000Y-100335610D01*
X161750001Y-100335610D01*
X161778595Y-100333564D01*
X162035428Y-100315196D01*
X162291878Y-100259409D01*
X162315037Y-100254371D01*
X162315037Y-100254370D01*
X162315046Y-100254369D01*
X162583161Y-100154367D01*
X162834315Y-100017226D01*
X163063395Y-99845739D01*
X163265739Y-99643395D01*
X163437226Y-99414315D01*
X163574367Y-99163161D01*
X163674369Y-98895046D01*
X163680914Y-98864960D01*
X163735195Y-98615433D01*
X163735195Y-98615432D01*
X163735196Y-98615428D01*
X163755610Y-98330000D01*
X163735196Y-98044572D01*
X163703167Y-97897338D01*
X163674371Y-97764962D01*
X163674370Y-97764960D01*
X163674369Y-97764954D01*
X163574367Y-97496839D01*
X163556251Y-97463663D01*
X163437229Y-97245690D01*
X163437224Y-97245682D01*
X163265745Y-97016612D01*
X163265729Y-97016594D01*
X163063405Y-96814270D01*
X163063387Y-96814254D01*
X162834317Y-96642775D01*
X162834309Y-96642770D01*
X162583166Y-96505635D01*
X162583167Y-96505635D01*
X162420614Y-96445006D01*
X162315046Y-96405631D01*
X162315043Y-96405630D01*
X162315037Y-96405628D01*
X162035433Y-96344804D01*
X161750001Y-96324390D01*
X161749999Y-96324390D01*
X161464566Y-96344804D01*
X161184962Y-96405628D01*
X160916833Y-96505635D01*
X160665690Y-96642770D01*
X160665682Y-96642775D01*
X160436612Y-96814254D01*
X160436594Y-96814270D01*
X160234270Y-97016594D01*
X160234254Y-97016612D01*
X160062775Y-97245682D01*
X160062770Y-97245690D01*
X159925635Y-97496833D01*
X159825628Y-97764962D01*
X159764804Y-98044566D01*
X159744390Y-98329998D01*
X159744390Y-98330001D01*
X156402611Y-98330001D01*
X156392217Y-98316998D01*
X156385023Y-98247500D01*
X156416546Y-98185145D01*
X156435842Y-98168425D01*
X156458026Y-98152891D01*
X156621401Y-98038495D01*
X156788495Y-97871401D01*
X156924035Y-97677830D01*
X157023903Y-97463663D01*
X157085063Y-97235408D01*
X157105659Y-97000000D01*
X157085063Y-96764592D01*
X157023903Y-96536337D01*
X157013524Y-96514080D01*
X157003032Y-96445006D01*
X157031550Y-96381221D01*
X157090026Y-96342981D01*
X157138058Y-96338273D01*
X157327600Y-96356941D01*
X157523732Y-96337624D01*
X157712327Y-96280414D01*
X157886138Y-96187510D01*
X158038483Y-96062483D01*
X158163510Y-95910138D01*
X158256414Y-95736327D01*
X158313624Y-95547732D01*
X158332941Y-95351600D01*
X158313624Y-95155468D01*
X158256414Y-94966873D01*
X158256411Y-94966869D01*
X158256411Y-94966866D01*
X158166080Y-94797870D01*
X159749500Y-94797870D01*
X159749501Y-94797876D01*
X159755908Y-94857483D01*
X159806202Y-94992328D01*
X159806206Y-94992335D01*
X159892452Y-95107544D01*
X159892455Y-95107547D01*
X160007664Y-95193793D01*
X160007671Y-95193797D01*
X160142517Y-95244091D01*
X160142516Y-95244091D01*
X160149444Y-95244835D01*
X160202127Y-95250500D01*
X163297872Y-95250499D01*
X163357483Y-95244091D01*
X163492331Y-95193796D01*
X163607546Y-95107546D01*
X163693796Y-94992331D01*
X163744091Y-94857483D01*
X163750500Y-94797873D01*
X163750499Y-91702128D01*
X163744091Y-91642517D01*
X163714347Y-91562770D01*
X163693797Y-91507671D01*
X163693793Y-91507664D01*
X163607547Y-91392455D01*
X163607544Y-91392452D01*
X163492335Y-91306206D01*
X163492328Y-91306202D01*
X163357482Y-91255908D01*
X163357483Y-91255908D01*
X163297883Y-91249501D01*
X163297881Y-91249500D01*
X163297873Y-91249500D01*
X163297864Y-91249500D01*
X160202129Y-91249500D01*
X160202123Y-91249501D01*
X160142516Y-91255908D01*
X160007671Y-91306202D01*
X160007664Y-91306206D01*
X159892455Y-91392452D01*
X159892452Y-91392455D01*
X159806206Y-91507664D01*
X159806202Y-91507671D01*
X159755908Y-91642517D01*
X159749501Y-91702116D01*
X159749501Y-91702123D01*
X159749500Y-91702135D01*
X159749500Y-94797870D01*
X158166080Y-94797870D01*
X158163513Y-94793067D01*
X158163509Y-94793060D01*
X158038483Y-94640716D01*
X157886139Y-94515690D01*
X157886132Y-94515686D01*
X157712333Y-94422788D01*
X157712327Y-94422786D01*
X157523732Y-94365576D01*
X157523729Y-94365575D01*
X157327600Y-94346259D01*
X157131470Y-94365575D01*
X156942866Y-94422788D01*
X156769067Y-94515686D01*
X156769060Y-94515690D01*
X156616716Y-94640716D01*
X156491690Y-94793060D01*
X156491686Y-94793067D01*
X156398788Y-94966866D01*
X156341575Y-95155470D01*
X156322259Y-95351600D01*
X156341575Y-95547731D01*
X156347016Y-95565667D01*
X156347637Y-95635534D01*
X156310387Y-95694646D01*
X156247092Y-95724235D01*
X156196261Y-95721434D01*
X155985413Y-95664938D01*
X155985403Y-95664936D01*
X155750001Y-95644341D01*
X155749999Y-95644341D01*
X155514596Y-95664936D01*
X155514586Y-95664938D01*
X155286344Y-95726094D01*
X155286335Y-95726098D01*
X155072171Y-95825964D01*
X155072169Y-95825965D01*
X154878597Y-95961505D01*
X154711505Y-96128597D01*
X154575965Y-96322169D01*
X154575964Y-96322171D01*
X154476098Y-96536335D01*
X154476094Y-96536344D01*
X154414938Y-96764586D01*
X154414936Y-96764596D01*
X154394341Y-96999999D01*
X154394341Y-97000000D01*
X154414936Y-97235403D01*
X154414938Y-97235413D01*
X154476094Y-97463655D01*
X154476096Y-97463659D01*
X154476097Y-97463663D01*
X154536891Y-97594035D01*
X154575965Y-97677830D01*
X154575967Y-97677834D01*
X154711501Y-97871395D01*
X154711506Y-97871402D01*
X154878597Y-98038493D01*
X154878603Y-98038498D01*
X155064158Y-98168425D01*
X155107783Y-98223002D01*
X155114977Y-98292500D01*
X155083454Y-98354855D01*
X155064158Y-98371575D01*
X154878597Y-98501505D01*
X154711505Y-98668597D01*
X154575965Y-98862169D01*
X154575964Y-98862171D01*
X154476098Y-99076335D01*
X154476094Y-99076344D01*
X154414938Y-99304586D01*
X154414936Y-99304596D01*
X154394341Y-99539999D01*
X154394341Y-99540000D01*
X154414936Y-99775403D01*
X154414938Y-99775413D01*
X154476094Y-100003655D01*
X154476096Y-100003659D01*
X154476097Y-100003663D01*
X154537053Y-100134383D01*
X154575965Y-100217830D01*
X154575967Y-100217834D01*
X154711501Y-100411395D01*
X154711506Y-100411402D01*
X154878597Y-100578493D01*
X154878603Y-100578498D01*
X155064158Y-100708425D01*
X155107783Y-100763002D01*
X155114977Y-100832500D01*
X155083454Y-100894855D01*
X155064158Y-100911575D01*
X154878597Y-101041505D01*
X154711505Y-101208597D01*
X154575965Y-101402169D01*
X154575964Y-101402171D01*
X154476098Y-101616335D01*
X154476094Y-101616344D01*
X154414938Y-101844586D01*
X154414936Y-101844596D01*
X154394341Y-102079999D01*
X154394341Y-102080000D01*
X146395796Y-102080000D01*
X146398365Y-102057203D01*
X146398365Y-102057196D01*
X146378169Y-101877950D01*
X146378168Y-101877945D01*
X146361350Y-101829882D01*
X146318589Y-101707678D01*
X146222616Y-101554938D01*
X146095062Y-101427384D01*
X146059265Y-101404891D01*
X145942323Y-101331411D01*
X145772054Y-101271831D01*
X145772049Y-101271830D01*
X145592804Y-101251635D01*
X145592796Y-101251635D01*
X145413550Y-101271830D01*
X145413545Y-101271831D01*
X145243276Y-101331411D01*
X145090537Y-101427384D01*
X144962984Y-101554937D01*
X144867011Y-101707676D01*
X144807431Y-101877945D01*
X144807430Y-101877950D01*
X144787235Y-102057196D01*
X144787235Y-102057203D01*
X143203382Y-102057203D01*
X143188965Y-101929250D01*
X143188964Y-101929245D01*
X143171013Y-101877945D01*
X143129385Y-101758978D01*
X143121646Y-101746662D01*
X143039762Y-101616344D01*
X143033412Y-101606238D01*
X142905858Y-101478684D01*
X142820109Y-101424804D01*
X142753119Y-101382711D01*
X142582850Y-101323131D01*
X142582845Y-101323130D01*
X142403600Y-101302935D01*
X142403592Y-101302935D01*
X142224346Y-101323130D01*
X142224341Y-101323131D01*
X142054072Y-101382711D01*
X141901333Y-101478684D01*
X141773780Y-101606237D01*
X141677807Y-101758976D01*
X141618227Y-101929245D01*
X141618226Y-101929250D01*
X141598031Y-102108496D01*
X141598031Y-102108503D01*
X137177942Y-102108503D01*
X137153923Y-102093411D01*
X136983654Y-102033831D01*
X136983649Y-102033830D01*
X136804404Y-102013635D01*
X136804396Y-102013635D01*
X136625150Y-102033830D01*
X136625137Y-102033833D01*
X136454878Y-102093410D01*
X136454876Y-102093411D01*
X136419219Y-102115815D01*
X136351982Y-102134814D01*
X136312296Y-102127862D01*
X136185703Y-102083565D01*
X136185695Y-102083563D01*
X136006450Y-102063368D01*
X136006442Y-102063368D01*
X135827196Y-102083563D01*
X135827191Y-102083564D01*
X135656922Y-102143144D01*
X135504183Y-102239117D01*
X135376630Y-102366670D01*
X135280657Y-102519409D01*
X135221077Y-102689678D01*
X135221076Y-102689683D01*
X135200881Y-102868929D01*
X135200881Y-102868936D01*
X130679586Y-102868936D01*
X130674371Y-102844962D01*
X130674370Y-102844960D01*
X130674369Y-102844954D01*
X130574367Y-102576839D01*
X130564878Y-102559462D01*
X130437229Y-102325690D01*
X130437224Y-102325682D01*
X130265745Y-102096612D01*
X130265729Y-102096594D01*
X130063405Y-101894270D01*
X130063387Y-101894254D01*
X129834317Y-101722775D01*
X129834309Y-101722770D01*
X129583166Y-101585635D01*
X129583167Y-101585635D01*
X129475914Y-101545632D01*
X129315046Y-101485631D01*
X129315043Y-101485630D01*
X129315037Y-101485628D01*
X129035433Y-101424804D01*
X128750001Y-101404390D01*
X128749999Y-101404390D01*
X128464566Y-101424804D01*
X128184962Y-101485628D01*
X127916833Y-101585635D01*
X127665690Y-101722770D01*
X127665682Y-101722775D01*
X127436612Y-101894254D01*
X127436594Y-101894270D01*
X127234270Y-102096594D01*
X127234254Y-102096612D01*
X127062775Y-102325682D01*
X127062770Y-102325690D01*
X126925635Y-102576833D01*
X126825628Y-102844962D01*
X126764804Y-103124566D01*
X126744390Y-103409998D01*
X126744390Y-103410001D01*
X125250500Y-103410001D01*
X125250500Y-100685603D01*
X136405235Y-100685603D01*
X136425430Y-100864849D01*
X136425431Y-100864854D01*
X136485011Y-101035123D01*
X136580983Y-101187862D01*
X136580984Y-101187862D01*
X136708538Y-101315416D01*
X136720818Y-101323132D01*
X136850936Y-101404891D01*
X136861278Y-101411389D01*
X137031545Y-101470968D01*
X137031550Y-101470969D01*
X137210796Y-101491165D01*
X137210800Y-101491165D01*
X137210804Y-101491165D01*
X137390049Y-101470969D01*
X137390052Y-101470968D01*
X137390055Y-101470968D01*
X137560322Y-101411389D01*
X137713062Y-101315416D01*
X137784075Y-101244403D01*
X148292435Y-101244403D01*
X148312630Y-101423649D01*
X148312631Y-101423654D01*
X148372211Y-101593923D01*
X148443687Y-101707676D01*
X148468184Y-101746662D01*
X148595738Y-101874216D01*
X148748478Y-101970189D01*
X148872640Y-102013635D01*
X148918745Y-102029768D01*
X148918750Y-102029769D01*
X149097996Y-102049965D01*
X149098000Y-102049965D01*
X149098004Y-102049965D01*
X149277249Y-102029769D01*
X149277252Y-102029768D01*
X149277255Y-102029768D01*
X149447522Y-101970189D01*
X149600262Y-101874216D01*
X149727816Y-101746662D01*
X149823789Y-101593922D01*
X149883368Y-101423655D01*
X149884750Y-101411388D01*
X149903565Y-101244403D01*
X149903565Y-101244396D01*
X149883369Y-101065150D01*
X149883368Y-101065145D01*
X149872862Y-101035122D01*
X149823789Y-100894878D01*
X149727816Y-100742138D01*
X149600262Y-100614584D01*
X149542824Y-100578493D01*
X149447523Y-100518611D01*
X149277254Y-100459031D01*
X149277249Y-100459030D01*
X149098004Y-100438835D01*
X149097996Y-100438835D01*
X148918750Y-100459030D01*
X148918745Y-100459031D01*
X148748476Y-100518611D01*
X148595737Y-100614584D01*
X148468184Y-100742137D01*
X148372211Y-100894876D01*
X148312631Y-101065145D01*
X148312630Y-101065150D01*
X148292435Y-101244396D01*
X148292435Y-101244403D01*
X137784075Y-101244403D01*
X137840616Y-101187862D01*
X137936589Y-101035122D01*
X137996168Y-100864855D01*
X137996169Y-100864849D01*
X138016365Y-100685603D01*
X138016365Y-100685596D01*
X137996169Y-100506350D01*
X137996168Y-100506345D01*
X137962946Y-100411402D01*
X137936589Y-100336078D01*
X137840616Y-100183338D01*
X137713062Y-100055784D01*
X137713062Y-100055783D01*
X137560323Y-99959811D01*
X137390054Y-99900231D01*
X137390049Y-99900230D01*
X137210804Y-99880035D01*
X137210796Y-99880035D01*
X137031550Y-99900230D01*
X137031545Y-99900231D01*
X136861276Y-99959811D01*
X136708537Y-100055784D01*
X136580984Y-100183337D01*
X136485011Y-100336076D01*
X136425431Y-100506345D01*
X136425430Y-100506350D01*
X136405235Y-100685596D01*
X136405235Y-100685603D01*
X125250500Y-100685603D01*
X125250500Y-98330001D01*
X126744390Y-98330001D01*
X126764804Y-98615433D01*
X126825628Y-98895037D01*
X126825630Y-98895043D01*
X126825631Y-98895046D01*
X126911545Y-99125389D01*
X126925635Y-99163166D01*
X127062770Y-99414309D01*
X127062775Y-99414317D01*
X127234254Y-99643387D01*
X127234270Y-99643405D01*
X127436594Y-99845729D01*
X127436612Y-99845745D01*
X127665682Y-100017224D01*
X127665690Y-100017229D01*
X127916833Y-100154364D01*
X127916832Y-100154364D01*
X127916836Y-100154365D01*
X127916839Y-100154367D01*
X128184954Y-100254369D01*
X128184960Y-100254370D01*
X128184962Y-100254371D01*
X128464566Y-100315195D01*
X128464568Y-100315195D01*
X128464572Y-100315196D01*
X128718220Y-100333337D01*
X128749999Y-100335610D01*
X128750000Y-100335610D01*
X128750001Y-100335610D01*
X128778595Y-100333564D01*
X129035428Y-100315196D01*
X129291878Y-100259409D01*
X129315037Y-100254371D01*
X129315037Y-100254370D01*
X129315046Y-100254369D01*
X129583161Y-100154367D01*
X129834315Y-100017226D01*
X130063395Y-99845739D01*
X130265739Y-99643395D01*
X130430350Y-99423500D01*
X142555459Y-99423500D01*
X142574775Y-99619629D01*
X142593846Y-99682496D01*
X142625179Y-99785789D01*
X142631988Y-99808233D01*
X142724886Y-99982032D01*
X142724890Y-99982039D01*
X142849916Y-100134383D01*
X143002260Y-100259409D01*
X143002267Y-100259413D01*
X143176066Y-100352311D01*
X143176069Y-100352311D01*
X143176073Y-100352314D01*
X143364668Y-100409524D01*
X143560800Y-100428841D01*
X143756932Y-100409524D01*
X143945527Y-100352314D01*
X143975903Y-100336078D01*
X144119332Y-100259413D01*
X144119338Y-100259410D01*
X144271683Y-100134383D01*
X144396710Y-99982038D01*
X144469560Y-99845745D01*
X144489611Y-99808233D01*
X144489611Y-99808232D01*
X144489614Y-99808227D01*
X144546824Y-99619632D01*
X144566141Y-99423500D01*
X144546824Y-99227368D01*
X144489614Y-99038773D01*
X144489611Y-99038769D01*
X144489611Y-99038766D01*
X144396713Y-98864967D01*
X144396709Y-98864960D01*
X144271683Y-98712616D01*
X144119339Y-98587590D01*
X144119332Y-98587586D01*
X144052761Y-98552003D01*
X149003635Y-98552003D01*
X149023830Y-98731249D01*
X149023831Y-98731254D01*
X149083411Y-98901523D01*
X149163772Y-99029416D01*
X149179384Y-99054262D01*
X149306938Y-99181816D01*
X149459678Y-99277789D01*
X149629945Y-99337368D01*
X149672357Y-99342146D01*
X149736769Y-99369210D01*
X149764451Y-99404288D01*
X149765506Y-99403626D01*
X149772224Y-99414317D01*
X149865184Y-99562262D01*
X149992738Y-99689816D01*
X150083080Y-99746582D01*
X150128964Y-99775413D01*
X150145478Y-99785789D01*
X150315744Y-99845367D01*
X150315745Y-99845368D01*
X150315750Y-99845369D01*
X150494996Y-99865565D01*
X150495000Y-99865565D01*
X150495004Y-99865565D01*
X150674249Y-99845369D01*
X150674252Y-99845368D01*
X150674255Y-99845368D01*
X150844522Y-99785789D01*
X150997262Y-99689816D01*
X151124816Y-99562262D01*
X151220789Y-99409522D01*
X151280368Y-99239255D01*
X151281707Y-99227370D01*
X151300565Y-99060003D01*
X151300565Y-99059996D01*
X151280369Y-98880750D01*
X151280368Y-98880745D01*
X151220788Y-98710476D01*
X151143571Y-98587586D01*
X151124816Y-98557738D01*
X150997262Y-98430184D01*
X150948582Y-98399596D01*
X150844521Y-98334210D01*
X150674252Y-98274631D01*
X150674248Y-98274630D01*
X150631840Y-98269852D01*
X150567426Y-98242785D01*
X150539748Y-98207711D01*
X150538694Y-98208374D01*
X150494676Y-98138320D01*
X150439016Y-98049738D01*
X150311462Y-97922184D01*
X150271920Y-97897338D01*
X150158723Y-97826211D01*
X149988454Y-97766631D01*
X149988449Y-97766630D01*
X149809204Y-97746435D01*
X149809196Y-97746435D01*
X149629950Y-97766630D01*
X149629945Y-97766631D01*
X149459676Y-97826211D01*
X149306937Y-97922184D01*
X149179384Y-98049737D01*
X149083411Y-98202476D01*
X149023831Y-98372745D01*
X149023830Y-98372750D01*
X149003635Y-98551996D01*
X149003635Y-98552003D01*
X144052761Y-98552003D01*
X143945533Y-98494688D01*
X143945527Y-98494686D01*
X143756932Y-98437476D01*
X143756929Y-98437475D01*
X143560800Y-98418159D01*
X143364670Y-98437475D01*
X143176066Y-98494688D01*
X143002267Y-98587586D01*
X143002260Y-98587590D01*
X142849916Y-98712616D01*
X142724890Y-98864960D01*
X142724886Y-98864967D01*
X142631988Y-99038766D01*
X142574775Y-99227370D01*
X142555459Y-99423500D01*
X130430350Y-99423500D01*
X130437226Y-99414315D01*
X130574367Y-99163161D01*
X130674369Y-98895046D01*
X130680914Y-98864960D01*
X130735195Y-98615433D01*
X130735195Y-98615432D01*
X130735196Y-98615428D01*
X130750632Y-98399603D01*
X135440035Y-98399603D01*
X135460230Y-98578849D01*
X135460231Y-98578854D01*
X135519811Y-98749123D01*
X135590843Y-98862169D01*
X135615784Y-98901862D01*
X135743338Y-99029416D01*
X135896078Y-99125389D01*
X136057334Y-99181815D01*
X136066345Y-99184968D01*
X136066350Y-99184969D01*
X136245596Y-99205165D01*
X136245600Y-99205165D01*
X136245604Y-99205165D01*
X136424849Y-99184969D01*
X136424852Y-99184968D01*
X136424855Y-99184968D01*
X136595122Y-99125389D01*
X136747862Y-99029416D01*
X136875416Y-98901862D01*
X136971389Y-98749122D01*
X137030968Y-98578855D01*
X137030969Y-98578849D01*
X137051165Y-98399603D01*
X137051165Y-98399596D01*
X137030969Y-98220350D01*
X137030968Y-98220345D01*
X136971388Y-98050076D01*
X136875415Y-97897337D01*
X136747862Y-97769784D01*
X136595123Y-97673811D01*
X136424854Y-97614231D01*
X136424849Y-97614230D01*
X136245604Y-97594035D01*
X136245596Y-97594035D01*
X136066350Y-97614230D01*
X136066345Y-97614231D01*
X135896076Y-97673811D01*
X135743337Y-97769784D01*
X135615784Y-97897337D01*
X135519811Y-98050076D01*
X135460231Y-98220345D01*
X135460230Y-98220350D01*
X135440035Y-98399596D01*
X135440035Y-98399603D01*
X130750632Y-98399603D01*
X130755610Y-98330000D01*
X130735196Y-98044572D01*
X130703167Y-97897338D01*
X130674371Y-97764962D01*
X130674370Y-97764960D01*
X130674369Y-97764954D01*
X130574367Y-97496839D01*
X130556251Y-97463663D01*
X130437229Y-97245690D01*
X130437224Y-97245682D01*
X130265745Y-97016612D01*
X130265729Y-97016594D01*
X130063405Y-96814270D01*
X130063387Y-96814254D01*
X129834317Y-96642775D01*
X129834309Y-96642770D01*
X129583166Y-96505635D01*
X129583167Y-96505635D01*
X129485489Y-96469203D01*
X150984835Y-96469203D01*
X151005030Y-96648449D01*
X151005031Y-96648454D01*
X151064611Y-96818723D01*
X151160583Y-96971461D01*
X151160584Y-96971462D01*
X151288138Y-97099016D01*
X151440878Y-97194989D01*
X151556375Y-97235403D01*
X151611145Y-97254568D01*
X151611150Y-97254569D01*
X151790396Y-97274765D01*
X151790400Y-97274765D01*
X151790404Y-97274765D01*
X151969649Y-97254569D01*
X151969652Y-97254568D01*
X151969655Y-97254568D01*
X152139922Y-97194989D01*
X152292662Y-97099016D01*
X152420216Y-96971462D01*
X152516189Y-96818722D01*
X152575768Y-96648455D01*
X152595965Y-96469200D01*
X152588802Y-96405628D01*
X152575769Y-96289950D01*
X152575768Y-96289945D01*
X152539924Y-96187509D01*
X152516189Y-96119678D01*
X152420216Y-95966938D01*
X152292662Y-95839384D01*
X152271304Y-95825964D01*
X152139923Y-95743411D01*
X151969654Y-95683831D01*
X151969649Y-95683830D01*
X151790404Y-95663635D01*
X151790396Y-95663635D01*
X151611150Y-95683830D01*
X151611145Y-95683831D01*
X151440876Y-95743411D01*
X151288137Y-95839384D01*
X151160584Y-95966937D01*
X151064611Y-96119676D01*
X151005031Y-96289945D01*
X151005030Y-96289950D01*
X150984835Y-96469196D01*
X150984835Y-96469203D01*
X129485489Y-96469203D01*
X129420614Y-96445006D01*
X129315046Y-96405631D01*
X129315043Y-96405630D01*
X129315037Y-96405628D01*
X129035433Y-96344804D01*
X128750001Y-96324390D01*
X128749999Y-96324390D01*
X128464566Y-96344804D01*
X128184962Y-96405628D01*
X127916833Y-96505635D01*
X127665690Y-96642770D01*
X127665682Y-96642775D01*
X127436612Y-96814254D01*
X127436594Y-96814270D01*
X127234270Y-97016594D01*
X127234254Y-97016612D01*
X127062775Y-97245682D01*
X127062770Y-97245690D01*
X126925635Y-97496833D01*
X126825628Y-97764962D01*
X126764804Y-98044566D01*
X126744390Y-98329998D01*
X126744390Y-98330001D01*
X125250500Y-98330001D01*
X125250500Y-93250001D01*
X126744390Y-93250001D01*
X126764804Y-93535433D01*
X126825628Y-93815037D01*
X126825630Y-93815043D01*
X126825631Y-93815046D01*
X126846128Y-93870000D01*
X126925635Y-94083166D01*
X127062770Y-94334309D01*
X127062775Y-94334317D01*
X127234254Y-94563387D01*
X127234270Y-94563405D01*
X127436594Y-94765729D01*
X127436612Y-94765745D01*
X127665682Y-94937224D01*
X127665690Y-94937229D01*
X127916833Y-95074364D01*
X127916832Y-95074364D01*
X127916836Y-95074365D01*
X127916839Y-95074367D01*
X128184954Y-95174369D01*
X128184960Y-95174370D01*
X128184962Y-95174371D01*
X128464566Y-95235195D01*
X128464568Y-95235195D01*
X128464572Y-95235196D01*
X128718220Y-95253337D01*
X128749999Y-95255610D01*
X128750000Y-95255610D01*
X128750001Y-95255610D01*
X128778595Y-95253564D01*
X129035428Y-95235196D01*
X129225742Y-95193796D01*
X129315037Y-95174371D01*
X129315037Y-95174370D01*
X129315046Y-95174369D01*
X129583161Y-95074367D01*
X129834315Y-94937226D01*
X130063395Y-94765739D01*
X130265739Y-94563395D01*
X130437226Y-94334315D01*
X130574367Y-94083161D01*
X130674369Y-93815046D01*
X130735196Y-93535428D01*
X130755610Y-93250000D01*
X130735196Y-92964572D01*
X130682465Y-92722172D01*
X130674371Y-92684962D01*
X130674370Y-92684960D01*
X130674369Y-92684954D01*
X130574367Y-92416839D01*
X130573397Y-92415063D01*
X130437229Y-92165690D01*
X130437224Y-92165682D01*
X130265745Y-91936612D01*
X130265729Y-91936594D01*
X130063405Y-91734270D01*
X130063387Y-91734254D01*
X129834317Y-91562775D01*
X129834309Y-91562770D01*
X129583166Y-91425635D01*
X129583167Y-91425635D01*
X129475914Y-91385632D01*
X129315046Y-91325631D01*
X129315043Y-91325630D01*
X129315037Y-91325628D01*
X129035433Y-91264804D01*
X128750001Y-91244390D01*
X128749999Y-91244390D01*
X128464566Y-91264804D01*
X128184962Y-91325628D01*
X127916833Y-91425635D01*
X127665690Y-91562770D01*
X127665682Y-91562775D01*
X127436612Y-91734254D01*
X127436594Y-91734270D01*
X127234270Y-91936594D01*
X127234254Y-91936612D01*
X127062775Y-92165682D01*
X127062770Y-92165690D01*
X126925635Y-92416833D01*
X126825628Y-92684962D01*
X126764804Y-92964566D01*
X126744390Y-93249998D01*
X126744390Y-93250001D01*
X125250500Y-93250001D01*
X125250500Y-91080000D01*
X133644341Y-91080000D01*
X133664936Y-91315403D01*
X133664938Y-91315413D01*
X133726094Y-91543655D01*
X133726096Y-91543659D01*
X133726097Y-91543663D01*
X133772193Y-91642516D01*
X133825965Y-91757830D01*
X133825967Y-91757834D01*
X133934281Y-91912521D01*
X133961501Y-91951396D01*
X133961506Y-91951402D01*
X134083818Y-92073714D01*
X134117303Y-92135037D01*
X134112319Y-92204729D01*
X134070447Y-92260662D01*
X134039471Y-92277577D01*
X133907912Y-92326646D01*
X133907906Y-92326649D01*
X133792812Y-92412809D01*
X133792809Y-92412812D01*
X133706649Y-92527906D01*
X133706645Y-92527913D01*
X133656403Y-92662620D01*
X133656401Y-92662627D01*
X133650000Y-92722155D01*
X133650000Y-93370000D01*
X134566314Y-93370000D01*
X134540507Y-93410156D01*
X134500000Y-93548111D01*
X134500000Y-93691889D01*
X134540507Y-93829844D01*
X134566314Y-93870000D01*
X133650000Y-93870000D01*
X133650000Y-94517844D01*
X133656401Y-94577372D01*
X133656403Y-94577379D01*
X133706645Y-94712086D01*
X133706649Y-94712093D01*
X133792809Y-94827187D01*
X133792812Y-94827190D01*
X133907906Y-94913350D01*
X133907913Y-94913354D01*
X134042620Y-94963596D01*
X134042627Y-94963598D01*
X134102155Y-94969999D01*
X134102172Y-94970000D01*
X134750000Y-94970000D01*
X134750000Y-94055501D01*
X134857685Y-94104680D01*
X134964237Y-94120000D01*
X135035763Y-94120000D01*
X135142315Y-94104680D01*
X135250000Y-94055501D01*
X135250000Y-94970000D01*
X135897828Y-94970000D01*
X135897844Y-94969999D01*
X135957372Y-94963598D01*
X135957379Y-94963596D01*
X136092086Y-94913354D01*
X136092093Y-94913350D01*
X136207187Y-94827190D01*
X136207190Y-94827187D01*
X136293350Y-94712093D01*
X136293354Y-94712086D01*
X136343596Y-94577379D01*
X136343598Y-94577372D01*
X136349999Y-94517844D01*
X136350000Y-94517827D01*
X136350000Y-93870000D01*
X135433686Y-93870000D01*
X135459493Y-93829844D01*
X135500000Y-93691889D01*
X135500000Y-93548111D01*
X135459493Y-93410156D01*
X135433686Y-93370000D01*
X136350000Y-93370000D01*
X136350000Y-92722172D01*
X136349999Y-92722155D01*
X136343598Y-92662627D01*
X136343596Y-92662620D01*
X136293354Y-92527913D01*
X136293350Y-92527906D01*
X136207190Y-92412812D01*
X136207187Y-92412809D01*
X136092093Y-92326649D01*
X136092088Y-92326646D01*
X135960528Y-92277577D01*
X135904595Y-92235705D01*
X135880178Y-92170241D01*
X135895030Y-92101968D01*
X135916175Y-92073720D01*
X136038495Y-91951401D01*
X136174035Y-91757830D01*
X136273903Y-91543663D01*
X136335063Y-91315408D01*
X136355659Y-91080000D01*
X136335063Y-90844592D01*
X136273903Y-90616337D01*
X136174035Y-90402171D01*
X136038495Y-90208599D01*
X136038494Y-90208597D01*
X135871402Y-90041506D01*
X135871401Y-90041505D01*
X135685842Y-89911575D01*
X135685841Y-89911574D01*
X135642216Y-89856997D01*
X135635024Y-89787498D01*
X135666546Y-89725144D01*
X135685836Y-89708428D01*
X135871401Y-89578495D01*
X136038495Y-89411401D01*
X136174035Y-89217830D01*
X136273903Y-89003663D01*
X136335063Y-88775408D01*
X136355659Y-88540000D01*
X136335063Y-88304592D01*
X136273903Y-88076337D01*
X136255281Y-88036403D01*
X137929235Y-88036403D01*
X137949430Y-88215649D01*
X137949431Y-88215654D01*
X138009011Y-88385923D01*
X138104984Y-88538662D01*
X138232538Y-88666216D01*
X138385278Y-88762189D01*
X138555544Y-88821768D01*
X138555545Y-88821768D01*
X138555550Y-88821769D01*
X138734796Y-88841965D01*
X138734800Y-88841965D01*
X138734804Y-88841965D01*
X138914049Y-88821769D01*
X138914052Y-88821768D01*
X138914055Y-88821768D01*
X139084322Y-88762189D01*
X139237062Y-88666216D01*
X139364616Y-88538662D01*
X139460589Y-88385922D01*
X139520168Y-88215655D01*
X139520169Y-88215649D01*
X139540365Y-88036403D01*
X139540365Y-88036396D01*
X139520169Y-87857150D01*
X139520168Y-87857145D01*
X139460588Y-87686876D01*
X139364615Y-87534137D01*
X139237062Y-87406584D01*
X139084323Y-87310611D01*
X138914054Y-87251031D01*
X138914049Y-87251030D01*
X138734804Y-87230835D01*
X138734796Y-87230835D01*
X138555550Y-87251030D01*
X138555545Y-87251031D01*
X138385276Y-87310611D01*
X138232537Y-87406584D01*
X138104984Y-87534137D01*
X138009011Y-87686876D01*
X137949431Y-87857145D01*
X137949430Y-87857150D01*
X137929235Y-88036396D01*
X137929235Y-88036403D01*
X136255281Y-88036403D01*
X136174035Y-87862171D01*
X136170520Y-87857150D01*
X136038494Y-87668597D01*
X135871402Y-87501506D01*
X135871396Y-87501501D01*
X135685842Y-87371575D01*
X135642217Y-87316998D01*
X135635023Y-87247500D01*
X135666546Y-87185145D01*
X135685842Y-87168425D01*
X135773117Y-87107314D01*
X135871401Y-87038495D01*
X136038495Y-86871401D01*
X136174035Y-86677830D01*
X136273903Y-86463663D01*
X136335063Y-86235408D01*
X136355659Y-86000000D01*
X136335063Y-85764592D01*
X136273903Y-85536337D01*
X136174035Y-85322171D01*
X136038495Y-85128599D01*
X136038494Y-85128597D01*
X135871402Y-84961506D01*
X135871395Y-84961501D01*
X135677834Y-84825967D01*
X135677830Y-84825965D01*
X135677830Y-84825964D01*
X135463663Y-84726097D01*
X135463659Y-84726096D01*
X135463655Y-84726094D01*
X135235413Y-84664938D01*
X135235403Y-84664936D01*
X135000001Y-84644341D01*
X134999999Y-84644341D01*
X134764596Y-84664936D01*
X134764586Y-84664938D01*
X134536344Y-84726094D01*
X134536335Y-84726098D01*
X134322171Y-84825964D01*
X134322169Y-84825965D01*
X134128597Y-84961505D01*
X133961505Y-85128597D01*
X133825965Y-85322169D01*
X133825964Y-85322171D01*
X133726098Y-85536335D01*
X133726094Y-85536344D01*
X133664938Y-85764586D01*
X133664936Y-85764596D01*
X133644341Y-85999999D01*
X133644341Y-86000000D01*
X133664936Y-86235403D01*
X133664938Y-86235413D01*
X133726094Y-86463655D01*
X133726096Y-86463659D01*
X133726097Y-86463663D01*
X133742543Y-86498931D01*
X133825965Y-86677830D01*
X133825967Y-86677834D01*
X133961501Y-86871395D01*
X133961506Y-86871402D01*
X134128597Y-87038493D01*
X134128603Y-87038498D01*
X134314158Y-87168425D01*
X134357783Y-87223002D01*
X134364977Y-87292500D01*
X134333454Y-87354855D01*
X134314158Y-87371575D01*
X134128597Y-87501505D01*
X133961505Y-87668597D01*
X133825965Y-87862169D01*
X133825964Y-87862171D01*
X133726098Y-88076335D01*
X133726094Y-88076344D01*
X133664938Y-88304586D01*
X133664936Y-88304596D01*
X133644341Y-88539999D01*
X133644341Y-88540000D01*
X133664936Y-88775403D01*
X133664938Y-88775413D01*
X133726094Y-89003655D01*
X133726096Y-89003659D01*
X133726097Y-89003663D01*
X133825964Y-89217829D01*
X133825965Y-89217830D01*
X133825967Y-89217834D01*
X133961501Y-89411395D01*
X133961506Y-89411402D01*
X134128597Y-89578493D01*
X134128603Y-89578498D01*
X134314158Y-89708425D01*
X134357783Y-89763002D01*
X134364977Y-89832500D01*
X134333454Y-89894855D01*
X134314158Y-89911575D01*
X134128597Y-90041505D01*
X133961505Y-90208597D01*
X133825965Y-90402169D01*
X133825964Y-90402171D01*
X133726098Y-90616335D01*
X133726094Y-90616344D01*
X133664938Y-90844586D01*
X133664936Y-90844596D01*
X133644341Y-91079999D01*
X133644341Y-91080000D01*
X125250500Y-91080000D01*
X125250500Y-87324647D01*
X125270185Y-87257608D01*
X125322989Y-87211853D01*
X125392147Y-87201909D01*
X125455703Y-87230934D01*
X125493477Y-87289712D01*
X125496866Y-87304586D01*
X125522415Y-87460431D01*
X125522421Y-87460457D01*
X125618147Y-87805232D01*
X125618149Y-87805239D01*
X125750597Y-88137659D01*
X125750606Y-88137677D01*
X125918218Y-88453827D01*
X126119033Y-88750007D01*
X126246441Y-88900003D01*
X126246442Y-88900004D01*
X127452266Y-87694180D01*
X127615130Y-87884870D01*
X127805818Y-88047732D01*
X126597255Y-89256295D01*
X126597256Y-89256296D01*
X126610485Y-89268828D01*
X126610486Y-89268829D01*
X126895367Y-89485388D01*
X126895370Y-89485390D01*
X127201990Y-89669876D01*
X127526739Y-89820122D01*
X127526744Y-89820123D01*
X127865855Y-89934383D01*
X128215339Y-90011311D01*
X128571075Y-90049999D01*
X128571085Y-90050000D01*
X128928915Y-90050000D01*
X128928924Y-90049999D01*
X129284660Y-90011311D01*
X129634144Y-89934383D01*
X129973255Y-89820123D01*
X129973260Y-89820122D01*
X130298009Y-89669876D01*
X130604629Y-89485390D01*
X130604632Y-89485388D01*
X130889504Y-89268836D01*
X130902742Y-89256294D01*
X129694180Y-88047733D01*
X129884870Y-87884870D01*
X130047733Y-87694180D01*
X131253556Y-88900003D01*
X131380964Y-88750008D01*
X131380975Y-88749994D01*
X131581781Y-88453827D01*
X131749393Y-88137677D01*
X131749402Y-88137659D01*
X131881850Y-87805239D01*
X131881852Y-87805232D01*
X131977578Y-87460457D01*
X131977584Y-87460431D01*
X132035472Y-87107331D01*
X132035473Y-87107314D01*
X132054847Y-86750002D01*
X132054847Y-86749997D01*
X132035473Y-86392685D01*
X132035472Y-86392668D01*
X131977584Y-86039568D01*
X131977578Y-86039542D01*
X131881852Y-85694767D01*
X131881850Y-85694760D01*
X131749402Y-85362340D01*
X131749393Y-85362322D01*
X131581781Y-85046172D01*
X131380966Y-84749992D01*
X131253557Y-84599995D01*
X131253556Y-84599994D01*
X130047732Y-85805818D01*
X129884870Y-85615130D01*
X129694180Y-85452266D01*
X130902743Y-84243703D01*
X130902742Y-84243702D01*
X130889514Y-84231171D01*
X130889513Y-84231170D01*
X130604632Y-84014611D01*
X130604629Y-84014609D01*
X130298009Y-83830123D01*
X129973260Y-83679877D01*
X129973255Y-83679876D01*
X129634142Y-83565615D01*
X129316066Y-83495601D01*
X129254825Y-83461965D01*
X129221491Y-83400560D01*
X129226647Y-83330880D01*
X129268656Y-83275050D01*
X129334181Y-83250795D01*
X129342722Y-83250500D01*
X138025260Y-83250500D01*
X138092299Y-83270185D01*
G37*
%TD.AperFunction*%
%TA.AperFunction,Conductor*%
G36*
X165162771Y-155206381D02*
G01*
X165220794Y-155245306D01*
X165248562Y-155309421D01*
X165249500Y-155324647D01*
X165249500Y-158125500D01*
X165229815Y-158192539D01*
X165177011Y-158238294D01*
X165125500Y-158249500D01*
X162342722Y-158249500D01*
X162275683Y-158229815D01*
X162229928Y-158177011D01*
X162219984Y-158107853D01*
X162249009Y-158044297D01*
X162307787Y-158006523D01*
X162316066Y-158004399D01*
X162634142Y-157934384D01*
X162973255Y-157820123D01*
X162973260Y-157820122D01*
X163298009Y-157669876D01*
X163604629Y-157485390D01*
X163604632Y-157485388D01*
X163889504Y-157268836D01*
X163902742Y-157256294D01*
X162694180Y-156047733D01*
X162884870Y-155884870D01*
X163047733Y-155694180D01*
X164253556Y-156900003D01*
X164380964Y-156750008D01*
X164380975Y-156749994D01*
X164581781Y-156453827D01*
X164749393Y-156137677D01*
X164749402Y-156137659D01*
X164881850Y-155805239D01*
X164881852Y-155805232D01*
X164977578Y-155460457D01*
X164977584Y-155460431D01*
X165003134Y-155304586D01*
X165033404Y-155241614D01*
X165092915Y-155205005D01*
X165162771Y-155206381D01*
G37*
%TD.AperFunction*%
%TA.AperFunction,Conductor*%
G36*
X158959999Y-127564498D02*
G01*
X158852315Y-127515320D01*
X158745763Y-127500000D01*
X158674237Y-127500000D01*
X158567685Y-127515320D01*
X158460000Y-127564498D01*
X158460000Y-125895501D01*
X158567685Y-125944680D01*
X158674237Y-125960000D01*
X158745763Y-125960000D01*
X158852315Y-125944680D01*
X158959999Y-125895501D01*
X158959999Y-127564498D01*
G37*
%TD.AperFunction*%
%TA.AperFunction,Conductor*%
G36*
X158945000Y-121314498D02*
G01*
X158837315Y-121265320D01*
X158730763Y-121250000D01*
X158659237Y-121250000D01*
X158552685Y-121265320D01*
X158445000Y-121314498D01*
X158445000Y-119645501D01*
X158552685Y-119694680D01*
X158659237Y-119710000D01*
X158730763Y-119710000D01*
X158837315Y-119694680D01*
X158945000Y-119645501D01*
X158945000Y-121314498D01*
G37*
%TD.AperFunction*%
%TA.AperFunction,Conductor*%
G36*
X165192539Y-83270185D02*
G01*
X165238294Y-83322989D01*
X165249500Y-83374500D01*
X165249500Y-86175352D01*
X165229815Y-86242391D01*
X165177011Y-86288146D01*
X165107853Y-86298090D01*
X165044297Y-86269065D01*
X165006523Y-86210287D01*
X165003134Y-86195413D01*
X164977584Y-86039568D01*
X164977578Y-86039542D01*
X164881852Y-85694767D01*
X164881850Y-85694760D01*
X164749402Y-85362340D01*
X164749393Y-85362322D01*
X164581781Y-85046172D01*
X164380966Y-84749992D01*
X164253557Y-84599995D01*
X164253556Y-84599994D01*
X163047732Y-85805818D01*
X162884870Y-85615130D01*
X162694180Y-85452266D01*
X163902743Y-84243703D01*
X163902742Y-84243702D01*
X163889514Y-84231171D01*
X163889513Y-84231170D01*
X163604632Y-84014611D01*
X163604629Y-84014609D01*
X163298009Y-83830123D01*
X162973260Y-83679877D01*
X162973255Y-83679876D01*
X162634142Y-83565615D01*
X162316066Y-83495601D01*
X162254825Y-83461965D01*
X162221491Y-83400560D01*
X162226647Y-83330880D01*
X162268656Y-83275050D01*
X162334181Y-83250795D01*
X162342722Y-83250500D01*
X165125500Y-83250500D01*
X165192539Y-83270185D01*
G37*
%TD.AperFunction*%
%TA.AperFunction,Conductor*%
G36*
X128224317Y-83270185D02*
G01*
X128270072Y-83322989D01*
X128280016Y-83392147D01*
X128250991Y-83455703D01*
X128192213Y-83493477D01*
X128183934Y-83495601D01*
X127865857Y-83565615D01*
X127526744Y-83679876D01*
X127526739Y-83679877D01*
X127201990Y-83830123D01*
X126895370Y-84014609D01*
X126895367Y-84014611D01*
X126610491Y-84231166D01*
X126597256Y-84243703D01*
X126597255Y-84243703D01*
X127805819Y-85452266D01*
X127615130Y-85615130D01*
X127452266Y-85805818D01*
X126246442Y-84599994D01*
X126246441Y-84599995D01*
X126119040Y-84749983D01*
X126119033Y-84749993D01*
X125918218Y-85046172D01*
X125750606Y-85362322D01*
X125750597Y-85362340D01*
X125618149Y-85694760D01*
X125618147Y-85694767D01*
X125522421Y-86039542D01*
X125522415Y-86039568D01*
X125496866Y-86195413D01*
X125466595Y-86258385D01*
X125407085Y-86294994D01*
X125337229Y-86293618D01*
X125279206Y-86254693D01*
X125251438Y-86190578D01*
X125250500Y-86175352D01*
X125250500Y-83374500D01*
X125270185Y-83307461D01*
X125322989Y-83261706D01*
X125374500Y-83250500D01*
X128157278Y-83250500D01*
X128224317Y-83270185D01*
G37*
%TD.AperFunction*%
%TD*%
M02*
