%TF.GenerationSoftware,KiCad,Pcbnew,(7.0.0)*%
%TF.CreationDate,2023-12-17T22:30:30-08:00*%
%TF.ProjectId,Lyrav3,4c797261-7633-42e6-9b69-6361645f7063,rev?*%
%TF.SameCoordinates,Original*%
%TF.FileFunction,Soldermask,Top*%
%TF.FilePolarity,Negative*%
%FSLAX46Y46*%
G04 Gerber Fmt 4.6, Leading zero omitted, Abs format (unit mm)*
G04 Created by KiCad (PCBNEW (7.0.0)) date 2023-12-17 22:30:30*
%MOMM*%
%LPD*%
G01*
G04 APERTURE LIST*
G04 Aperture macros list*
%AMRoundRect*
0 Rectangle with rounded corners*
0 $1 Rounding radius*
0 $2 $3 $4 $5 $6 $7 $8 $9 X,Y pos of 4 corners*
0 Add a 4 corners polygon primitive as box body*
4,1,4,$2,$3,$4,$5,$6,$7,$8,$9,$2,$3,0*
0 Add four circle primitives for the rounded corners*
1,1,$1+$1,$2,$3*
1,1,$1+$1,$4,$5*
1,1,$1+$1,$6,$7*
1,1,$1+$1,$8,$9*
0 Add four rect primitives between the rounded corners*
20,1,$1+$1,$2,$3,$4,$5,0*
20,1,$1+$1,$4,$5,$6,$7,0*
20,1,$1+$1,$6,$7,$8,$9,0*
20,1,$1+$1,$8,$9,$2,$3,0*%
G04 Aperture macros list end*
%ADD10R,3.400000X1.300000*%
%ADD11RoundRect,0.243750X0.456250X-0.243750X0.456250X0.243750X-0.456250X0.243750X-0.456250X-0.243750X0*%
%ADD12C,5.600000*%
%ADD13R,1.700000X1.700000*%
%ADD14O,1.700000X1.700000*%
%ADD15R,1.000000X0.800000*%
%ADD16R,2.200000X2.200000*%
%ADD17C,2.200000*%
%ADD18R,1.350000X1.350000*%
%ADD19O,1.350000X1.350000*%
%ADD20O,1.400000X1.200000*%
%ADD21O,1.900000X1.200000*%
G04 APERTURE END LIST*
D10*
%TO.C,LS1*%
X9693999Y45428999D03*
X9693999Y36728999D03*
%TD*%
D11*
%TO.C,D2*%
X16704400Y24996500D03*
X16704400Y26871500D03*
%TD*%
D12*
%TO.C,H3*%
X3000000Y3000000D03*
%TD*%
D13*
%TO.C,J8*%
X22647999Y47015999D03*
D14*
X22647999Y44475999D03*
X22647999Y41935999D03*
X22647999Y39395999D03*
%TD*%
D12*
%TO.C,H1*%
X3000000Y52000000D03*
%TD*%
%TO.C,H2*%
X22000000Y52000000D03*
%TD*%
D15*
%TO.C,D4*%
X4078899Y28980199D03*
X4078899Y27880199D03*
X5578899Y27880199D03*
X5578899Y28980199D03*
%TD*%
D12*
%TO.C,H4*%
X22000000Y3000000D03*
%TD*%
D16*
%TO.C,J2*%
X3343999Y21107999D03*
D17*
X3344000Y18568000D03*
X3344000Y16028000D03*
X3344000Y13488000D03*
X3344000Y10948000D03*
X3344000Y8408000D03*
%TD*%
D16*
%TO.C,J9*%
X21377999Y8280999D03*
D17*
X21378000Y10821000D03*
X21378000Y13361000D03*
X21378000Y15901000D03*
X21378000Y18441000D03*
X21378000Y20981000D03*
%TD*%
D13*
%TO.C,J6*%
X2327999Y47025999D03*
D14*
X2327999Y44485999D03*
X2327999Y41945999D03*
X2327999Y39405999D03*
X2327999Y36865999D03*
X2327999Y34325999D03*
%TD*%
D18*
%TO.C,J5*%
X5750399Y24994199D03*
D19*
X3750399Y24994199D03*
X1750399Y24994199D03*
%TD*%
D20*
%TO.C,J7*%
X19826399Y29838599D03*
X19826399Y34678599D03*
D21*
X22726399Y35858599D03*
X22726399Y28658599D03*
%TD*%
M02*
