M48
; DRILL file {KiCad (7.0.0)} date Sun Dec 17 22:30:30 2023
; FORMAT={-:-/ absolute / metric / decimal}
; #@! TF.CreationDate,2023-12-17T22:30:30-08:00
; #@! TF.GenerationSoftware,Kicad,Pcbnew,(7.0.0)
; #@! TF.FileFunction,Plated,1,4,PTH
FMAT,2
METRIC
; #@! TA.AperFunction,Plated,PTH,ViaDrill
T1C0.300
; #@! TA.AperFunction,Plated,PTH,ViaDrill
T2C0.350
; #@! TA.AperFunction,Plated,PTH,ViaDrill
T3C0.500
; #@! TA.AperFunction,Plated,PTH,ComponentDrill
T4C0.800
; #@! TA.AperFunction,Plated,PTH,ComponentDrill
T5C0.800
; #@! TA.AperFunction,Plated,PTH,ComponentDrill
T6C1.000
; #@! TA.AperFunction,Plated,PTH,ComponentDrill
T7C1.100
; #@! TA.AperFunction,Plated,PTH,ComponentDrill
T8C3.200
%
G90
G05
T1
X1.261Y32.055
X1.42Y33.328
X2.316Y30.887
X2.988Y27.541
X3.366Y31.547
X3.659Y37.272
X3.684Y41.637
X4.452Y32.524
X4.836Y27.044
X5.596Y34.474
X5.884Y5.487
X5.919Y16.085
X5.935Y20.879
X6.166Y35.578
X6.189Y54.204
X6.241Y43.956
X6.282Y29.734
X6.341Y33.874
X6.341Y31.039
X6.578Y28.878
X6.665Y23.386
X6.718Y31.852
X6.849Y38.964
X7.223Y25.684
X7.263Y37.788
X7.329Y40.133
X7.453Y26.449
X7.457Y23.087
X7.483Y36.847
X7.649Y16.615
X7.764Y33.833
X7.967Y46.686
X8.102Y23.56
X8.227Y24.35
X8.272Y44.025
X8.329Y29.123
X8.664Y29.849
X8.678Y16.257
X8.741Y32.624
X8.83Y49.705
X9.033Y33.879
X9.338Y28.957
X9.436Y29.75
X9.491Y48.356
X9.511Y32.594
X9.714Y38.954
X9.846Y44.298
X9.862Y33.844
X9.948Y16.257
X10.558Y41.098
X10.644Y33.676
X10.913Y38.355
X10.964Y30.989
X11.064Y30.195
X11.156Y31.797
X11.218Y28.906
X11.269Y32.589
X11.283Y22.027
X11.55Y13.689
X11.91Y36.745
X12.059Y26.518
X12.066Y38.285
X12.386Y42.939
X12.437Y47.041
X12.844Y53.62
X12.996Y27.229
X13.13Y13.658
X13.148Y37.948
X13.148Y31.727
X13.199Y33.325
X13.504Y45.213
X13.555Y15.393
X13.86Y13.986
X14.264Y22.586
X14.374Y39.92
X14.396Y35.154
X14.418Y8.358
X14.52Y10.008
X14.571Y16.535
X14.774Y13.767
X14.84Y29.155
X15.257Y30.735
X15.346Y34.392
X15.485Y13.083
X15.554Y28.796
X15.981Y25.934
X15.993Y42.787
X16.146Y49.835
X16.146Y28.195
X16.298Y18.124
X16.631Y37.948
X16.709Y27.583
X16.755Y24.385
X16.806Y11.621
X17.303Y42.849
X17.494Y34.181
X17.771Y49.785
X18.228Y37.999
X18.381Y34.24
X19.092Y30.887
X19.6Y6.198
X19.741Y46.24
X19.905Y47.6
X20.108Y37.593
X20.453Y23.532
T2
X9.084Y8.84
T3
X5.6Y7.114
X8.17Y11.255
X10.927Y7.804
X15.172Y5.815
X15.333Y3.582
T5
X1.75Y24.994
X3.75Y24.994
X5.75Y24.994
T6
X2.328Y47.026
X2.328Y44.486
X2.328Y41.946
X2.328Y39.406
X2.328Y36.866
X2.328Y34.326
X22.648Y47.016
X22.648Y44.476
X22.648Y41.936
X22.648Y39.396
T7
X3.344Y21.108
X3.344Y18.568
X3.344Y16.028
X3.344Y13.488
X3.344Y10.948
X3.344Y8.408
X21.378Y20.981
X21.378Y18.441
X21.378Y15.901
X21.378Y13.361
X21.378Y10.821
X21.378Y8.281
T8
X3.0Y52.0
X3.0Y3.0
X22.0Y52.0
X22.0Y3.0
T4
G00X19.926Y34.679
M15
G01X19.726Y34.679
M16
G05
G00X19.926Y29.839
M15
G01X19.726Y29.839
M16
G05
G00X23.076Y35.859
M15
G01X22.376Y35.859
M16
G05
G00X23.076Y28.659
M15
G01X22.376Y28.659
M16
G05
T0
M30
