%TF.GenerationSoftware,KiCad,Pcbnew,(7.0.0)*%
%TF.CreationDate,2023-12-17T22:30:30-08:00*%
%TF.ProjectId,Lyrav3,4c797261-7633-42e6-9b69-6361645f7063,rev?*%
%TF.SameCoordinates,Original*%
%TF.FileFunction,Copper,L4,Bot*%
%TF.FilePolarity,Positive*%
%FSLAX46Y46*%
G04 Gerber Fmt 4.6, Leading zero omitted, Abs format (unit mm)*
G04 Created by KiCad (PCBNEW (7.0.0)) date 2023-12-17 22:30:30*
%MOMM*%
%LPD*%
G01*
G04 APERTURE LIST*
G04 Aperture macros list*
%AMRoundRect*
0 Rectangle with rounded corners*
0 $1 Rounding radius*
0 $2 $3 $4 $5 $6 $7 $8 $9 X,Y pos of 4 corners*
0 Add a 4 corners polygon primitive as box body*
4,1,4,$2,$3,$4,$5,$6,$7,$8,$9,$2,$3,0*
0 Add four circle primitives for the rounded corners*
1,1,$1+$1,$2,$3*
1,1,$1+$1,$4,$5*
1,1,$1+$1,$6,$7*
1,1,$1+$1,$8,$9*
0 Add four rect primitives between the rounded corners*
20,1,$1+$1,$2,$3,$4,$5,0*
20,1,$1+$1,$4,$5,$6,$7,0*
20,1,$1+$1,$6,$7,$8,$9,0*
20,1,$1+$1,$8,$9,$2,$3,0*%
%AMFreePoly0*
4,1,19,0.500000,-0.750000,0.000000,-0.750000,0.000000,-0.744911,-0.071157,-0.744911,-0.207708,-0.704816,-0.327430,-0.627875,-0.420627,-0.520320,-0.479746,-0.390866,-0.500000,-0.250000,-0.500000,0.250000,-0.479746,0.390866,-0.420627,0.520320,-0.327430,0.627875,-0.207708,0.704816,-0.071157,0.744911,0.000000,0.744911,0.000000,0.750000,0.500000,0.750000,0.500000,-0.750000,0.500000,-0.750000,
$1*%
%AMFreePoly1*
4,1,19,0.000000,0.744911,0.071157,0.744911,0.207708,0.704816,0.327430,0.627875,0.420627,0.520320,0.479746,0.390866,0.500000,0.250000,0.500000,-0.250000,0.479746,-0.390866,0.420627,-0.520320,0.327430,-0.627875,0.207708,-0.704816,0.071157,-0.744911,0.000000,-0.744911,0.000000,-0.750000,-0.500000,-0.750000,-0.500000,0.750000,0.000000,0.750000,0.000000,0.744911,0.000000,0.744911,
$1*%
G04 Aperture macros list end*
%TA.AperFunction,SMDPad,CuDef*%
%ADD10R,0.250000X0.800000*%
%TD*%
%TA.AperFunction,SMDPad,CuDef*%
%ADD11R,0.800000X0.250000*%
%TD*%
%TA.AperFunction,SMDPad,CuDef*%
%ADD12RoundRect,0.112500X0.112500X-0.187500X0.112500X0.187500X-0.112500X0.187500X-0.112500X-0.187500X0*%
%TD*%
%TA.AperFunction,SMDPad,CuDef*%
%ADD13R,0.700000X0.350000*%
%TD*%
%TA.AperFunction,ComponentPad*%
%ADD14C,5.600000*%
%TD*%
%TA.AperFunction,ComponentPad*%
%ADD15R,1.700000X1.700000*%
%TD*%
%TA.AperFunction,ComponentPad*%
%ADD16O,1.700000X1.700000*%
%TD*%
%TA.AperFunction,SMDPad,CuDef*%
%ADD17RoundRect,0.225000X-0.225000X-0.250000X0.225000X-0.250000X0.225000X0.250000X-0.225000X0.250000X0*%
%TD*%
%TA.AperFunction,ComponentPad*%
%ADD18R,2.200000X2.200000*%
%TD*%
%TA.AperFunction,ComponentPad*%
%ADD19C,2.200000*%
%TD*%
%TA.AperFunction,SMDPad,CuDef*%
%ADD20R,0.350000X0.375000*%
%TD*%
%TA.AperFunction,SMDPad,CuDef*%
%ADD21R,0.375000X0.350000*%
%TD*%
%TA.AperFunction,SMDPad,CuDef*%
%ADD22RoundRect,0.200000X-0.200000X-0.275000X0.200000X-0.275000X0.200000X0.275000X-0.200000X0.275000X0*%
%TD*%
%TA.AperFunction,SMDPad,CuDef*%
%ADD23RoundRect,0.225000X0.250000X-0.225000X0.250000X0.225000X-0.250000X0.225000X-0.250000X-0.225000X0*%
%TD*%
%TA.AperFunction,SMDPad,CuDef*%
%ADD24RoundRect,0.200000X-0.275000X0.200000X-0.275000X-0.200000X0.275000X-0.200000X0.275000X0.200000X0*%
%TD*%
%TA.AperFunction,ComponentPad*%
%ADD25R,1.350000X1.350000*%
%TD*%
%TA.AperFunction,ComponentPad*%
%ADD26O,1.350000X1.350000*%
%TD*%
%TA.AperFunction,SMDPad,CuDef*%
%ADD27RoundRect,0.225000X-0.250000X0.225000X-0.250000X-0.225000X0.250000X-0.225000X0.250000X0.225000X0*%
%TD*%
%TA.AperFunction,SMDPad,CuDef*%
%ADD28RoundRect,0.050000X0.050000X-0.387500X0.050000X0.387500X-0.050000X0.387500X-0.050000X-0.387500X0*%
%TD*%
%TA.AperFunction,SMDPad,CuDef*%
%ADD29RoundRect,0.050000X0.387500X-0.050000X0.387500X0.050000X-0.387500X0.050000X-0.387500X-0.050000X0*%
%TD*%
%TA.AperFunction,SMDPad,CuDef*%
%ADD30R,3.200000X3.200000*%
%TD*%
%TA.AperFunction,SMDPad,CuDef*%
%ADD31RoundRect,0.150000X-0.587500X-0.150000X0.587500X-0.150000X0.587500X0.150000X-0.587500X0.150000X0*%
%TD*%
%TA.AperFunction,SMDPad,CuDef*%
%ADD32RoundRect,0.150000X0.150000X-0.587500X0.150000X0.587500X-0.150000X0.587500X-0.150000X-0.587500X0*%
%TD*%
%TA.AperFunction,SMDPad,CuDef*%
%ADD33RoundRect,0.200000X0.275000X-0.200000X0.275000X0.200000X-0.275000X0.200000X-0.275000X-0.200000X0*%
%TD*%
%TA.AperFunction,SMDPad,CuDef*%
%ADD34R,1.200000X1.400000*%
%TD*%
%TA.AperFunction,SMDPad,CuDef*%
%ADD35RoundRect,0.150000X0.150000X-0.650000X0.150000X0.650000X-0.150000X0.650000X-0.150000X-0.650000X0*%
%TD*%
%TA.AperFunction,SMDPad,CuDef*%
%ADD36RoundRect,0.200000X0.200000X0.275000X-0.200000X0.275000X-0.200000X-0.275000X0.200000X-0.275000X0*%
%TD*%
%TA.AperFunction,SMDPad,CuDef*%
%ADD37R,2.000000X1.500000*%
%TD*%
%TA.AperFunction,SMDPad,CuDef*%
%ADD38R,2.000000X3.800000*%
%TD*%
%TA.AperFunction,SMDPad,CuDef*%
%ADD39RoundRect,0.225000X0.225000X0.250000X-0.225000X0.250000X-0.225000X-0.250000X0.225000X-0.250000X0*%
%TD*%
%TA.AperFunction,SMDPad,CuDef*%
%ADD40R,1.600000X0.400000*%
%TD*%
%TA.AperFunction,ComponentPad*%
%ADD41O,1.400000X1.200000*%
%TD*%
%TA.AperFunction,ComponentPad*%
%ADD42O,1.900000X1.200000*%
%TD*%
%TA.AperFunction,SMDPad,CuDef*%
%ADD43FreePoly0,0.000000*%
%TD*%
%TA.AperFunction,SMDPad,CuDef*%
%ADD44FreePoly1,0.000000*%
%TD*%
%TA.AperFunction,SMDPad,CuDef*%
%ADD45RoundRect,0.243750X-0.243750X-0.456250X0.243750X-0.456250X0.243750X0.456250X-0.243750X0.456250X0*%
%TD*%
%TA.AperFunction,SMDPad,CuDef*%
%ADD46O,1.770000X0.450000*%
%TD*%
%TA.AperFunction,SMDPad,CuDef*%
%ADD47R,0.600000X1.550000*%
%TD*%
%TA.AperFunction,SMDPad,CuDef*%
%ADD48RoundRect,0.150000X0.587500X0.150000X-0.587500X0.150000X-0.587500X-0.150000X0.587500X-0.150000X0*%
%TD*%
%TA.AperFunction,SMDPad,CuDef*%
%ADD49R,0.350000X0.630000*%
%TD*%
%TA.AperFunction,SMDPad,CuDef*%
%ADD50R,0.580000X0.300000*%
%TD*%
%TA.AperFunction,SMDPad,CuDef*%
%ADD51R,0.580000X0.250000*%
%TD*%
%TA.AperFunction,ViaPad*%
%ADD52C,0.600000*%
%TD*%
%TA.AperFunction,ViaPad*%
%ADD53C,0.700000*%
%TD*%
%TA.AperFunction,ViaPad*%
%ADD54C,1.000000*%
%TD*%
%TA.AperFunction,Conductor*%
%ADD55C,0.200000*%
%TD*%
%TA.AperFunction,Conductor*%
%ADD56C,0.300000*%
%TD*%
%TA.AperFunction,Conductor*%
%ADD57C,0.500000*%
%TD*%
%TA.AperFunction,Conductor*%
%ADD58C,1.000000*%
%TD*%
%TA.AperFunction,Conductor*%
%ADD59C,0.254000*%
%TD*%
G04 APERTURE END LIST*
D10*
%TO.P,U2,1,INT2*%
%TO.N,unconnected-(U2-INT2-Pad1)*%
X17923599Y41887298D03*
%TO.P,U2,2,NC*%
%TO.N,unconnected-(U2-NC-Pad2)*%
X17423599Y41887298D03*
%TO.P,U2,3,VDD*%
%TO.N,+3V3*%
X16923599Y41887298D03*
%TO.P,U2,4,GNDA*%
%TO.N,GND*%
X16423599Y41887298D03*
%TO.P,U2,5,CSB2*%
%TO.N,unconnected-(U2-CSB2-Pad5)*%
X15923599Y41887298D03*
%TO.P,U2,6,GNDIO*%
%TO.N,GND*%
X15423599Y41887298D03*
%TO.P,U2,7,PS*%
%TO.N,+3V3*%
X14923599Y41887298D03*
D11*
%TO.P,U2,8,SCL/SCK*%
%TO.N,/I2C1 SCL*%
X14513599Y40687298D03*
D10*
%TO.P,U2,9,SDA/SDI*%
%TO.N,/I2C1 SDA*%
X14923599Y39487298D03*
%TO.P,U2,10,SDO2*%
%TO.N,GND*%
X15423599Y39487298D03*
%TO.P,U2,11,VDDIO*%
%TO.N,+3V3*%
X15923599Y39487298D03*
%TO.P,U2,12,INT3*%
%TO.N,unconnected-(U2-INT3-Pad12)*%
X16423599Y39487298D03*
%TO.P,U2,13,INT4*%
%TO.N,unconnected-(U2-INT4-Pad13)*%
X16923599Y39487298D03*
%TO.P,U2,14,CSB1*%
%TO.N,+3V3*%
X17423599Y39487298D03*
%TO.P,U2,15,SDO1*%
%TO.N,GND*%
X17923599Y39487298D03*
D11*
%TO.P,U2,16,INT1*%
%TO.N,unconnected-(U2-INT1-Pad16)*%
X18333599Y40687298D03*
%TD*%
D12*
%TO.P,D1,1,K*%
%TO.N,+12V*%
X22698800Y24215000D03*
%TO.P,D1,2,A*%
%TO.N,VBUS*%
X22698800Y26315000D03*
%TD*%
D13*
%TO.P,U7,1,GND*%
%TO.N,GND*%
X16158399Y47818199D03*
%TO.P,U7,2,CSB*%
%TO.N,+3V3*%
X16158399Y47168199D03*
%TO.P,U7,3,SDI*%
%TO.N,/I2C1 SDA*%
X16158399Y46508199D03*
%TO.P,U7,4,SCK*%
%TO.N,/I2C1 SCL*%
X16158399Y45858199D03*
%TO.P,U7,8,VDD*%
%TO.N,+3V3*%
X17758399Y47818199D03*
%TO.P,U7,7,GND*%
%TO.N,GND*%
X17758399Y47168199D03*
%TO.P,U7,6,VDDIO*%
%TO.N,+3V3*%
X17758399Y46508199D03*
%TO.P,U7,5,SDO*%
%TO.N,GND*%
X17758399Y45858199D03*
%TD*%
D14*
%TO.P,H3,1,1*%
%TO.N,GND*%
X3000000Y3000000D03*
%TD*%
D15*
%TO.P,J8,1,Pin_1*%
%TO.N,/BRKOUT1*%
X22647999Y47015999D03*
D16*
%TO.P,J8,2,Pin_2*%
%TO.N,/BRKOUT2*%
X22647999Y44475999D03*
%TO.P,J8,3,Pin_3*%
%TO.N,/BRKOUT3*%
X22647999Y41935999D03*
%TO.P,J8,4,Pin_4*%
%TO.N,/BRKOUT4*%
X22647999Y39395999D03*
%TD*%
D17*
%TO.P,C19,1*%
%TO.N,+3V3*%
X13795800Y35154200D03*
%TO.P,C19,2*%
%TO.N,GND*%
X15345800Y35154200D03*
%TD*%
D14*
%TO.P,H1,1,1*%
%TO.N,GND*%
X3000000Y52000000D03*
%TD*%
%TO.P,H2,1,1*%
%TO.N,GND*%
X22000000Y52000000D03*
%TD*%
%TO.P,H4,1,1*%
%TO.N,GND*%
X22000000Y3000000D03*
%TD*%
D18*
%TO.P,J2,1,Pin_1*%
%TO.N,/P4-*%
X3343999Y21107999D03*
D19*
%TO.P,J2,2,Pin_2*%
%TO.N,+12P*%
X3344000Y18568000D03*
%TO.P,J2,3,Pin_3*%
%TO.N,+12V*%
X3344000Y16028000D03*
%TO.P,J2,4,Pin_4*%
%TO.N,+BATT*%
X3344000Y13488000D03*
%TO.P,J2,5,Pin_5*%
%TO.N,GND*%
X3344000Y10948000D03*
%TO.P,J2,6,Pin_6*%
%TO.N,+BATT*%
X3344000Y8408000D03*
%TD*%
D18*
%TO.P,J9,1,Pin_1*%
%TO.N,+12P*%
X21377999Y8280999D03*
D19*
%TO.P,J9,2,Pin_2*%
%TO.N,/P1-*%
X21378000Y10821000D03*
%TO.P,J9,3,Pin_3*%
%TO.N,+12P*%
X21378000Y13361000D03*
%TO.P,J9,4,Pin_4*%
%TO.N,/P2-*%
X21378000Y15901000D03*
%TO.P,J9,5,Pin_5*%
%TO.N,+12P*%
X21378000Y18441000D03*
%TO.P,J9,6,Pin_6*%
%TO.N,/P3-*%
X21378000Y20981000D03*
%TD*%
D15*
%TO.P,J6,1,Pin_1*%
%TO.N,/BRKOUT7*%
X2327999Y47025999D03*
D16*
%TO.P,J6,2,Pin_2*%
%TO.N,/BRKOUT6*%
X2327999Y44485999D03*
%TO.P,J6,3,Pin_3*%
%TO.N,/BRKOUT5*%
X2327999Y41945999D03*
%TO.P,J6,4,Pin_4*%
%TO.N,+12VA*%
X2327999Y39405999D03*
%TO.P,J6,5,Pin_5*%
%TO.N,+3V3*%
X2327999Y36865999D03*
%TO.P,J6,6,Pin_6*%
%TO.N,GND*%
X2327999Y34325999D03*
%TD*%
D17*
%TO.P,C18,1*%
%TO.N,+1V1*%
X13795800Y33630200D03*
%TO.P,C18,2*%
%TO.N,GND*%
X15345800Y33630200D03*
%TD*%
D20*
%TO.P,U5,1,SCL/SPC*%
%TO.N,/I2C1 SCL*%
X8107199Y41452899D03*
%TO.P,U5,2,GND*%
%TO.N,GND*%
X7607199Y41452899D03*
%TO.P,U5,3,GND*%
X7107199Y41452899D03*
%TO.P,U5,4,C1*%
%TO.N,Net-(U5-C1)*%
X6607199Y41452899D03*
D21*
%TO.P,U5,5,Vdd*%
%TO.N,+3V3*%
X6594699Y41965399D03*
%TO.P,U5,6,Vdd_IO*%
X6594699Y42465399D03*
D20*
%TO.P,U5,7,INT*%
%TO.N,unconnected-(U5-INT-Pad7)*%
X6607199Y42977899D03*
%TO.P,U5,8,DRDY*%
%TO.N,unconnected-(U5-DRDY-Pad8)*%
X7107199Y42977899D03*
%TO.P,U5,9,SDO/SA1*%
%TO.N,GND*%
X7607199Y42977899D03*
%TO.P,U5,10,~{CS}*%
%TO.N,+3V3*%
X8107199Y42977899D03*
D21*
%TO.P,U5,11,SDA/SDI/SDO*%
%TO.N,/I2C1 SDA*%
X8119699Y42465399D03*
%TO.P,U5,12,GND*%
%TO.N,GND*%
X8119699Y41965399D03*
%TD*%
D17*
%TO.P,C22,1*%
%TO.N,+3V3*%
X11459000Y26518200D03*
%TO.P,C22,2*%
%TO.N,GND*%
X13009000Y26518200D03*
%TD*%
D22*
%TO.P,R18,1*%
%TO.N,/RP USB_D-*%
X16743000Y33223800D03*
%TO.P,R18,2*%
%TO.N,/USB_D-*%
X18393000Y33223800D03*
%TD*%
D23*
%TO.P,C11,1*%
%TO.N,+3V3*%
X8830400Y45758400D03*
%TO.P,C11,2*%
%TO.N,GND*%
X8830400Y47308400D03*
%TD*%
D24*
%TO.P,R17,1*%
%TO.N,GND*%
X13504000Y23330000D03*
%TO.P,R17,2*%
%TO.N,/P3 EN *%
X13504000Y21680000D03*
%TD*%
D25*
%TO.P,J5,1,Pin_1*%
%TO.N,/SWCLK*%
X5750399Y24994199D03*
D26*
%TO.P,J5,2,Pin_2*%
%TO.N,GND*%
X3750399Y24994199D03*
%TO.P,J5,3,Pin_3*%
%TO.N,/SWD*%
X1750399Y24994199D03*
%TD*%
D24*
%TO.P,R6,1*%
%TO.N,+3V3*%
X13072200Y42938799D03*
%TO.P,R6,2*%
%TO.N,/I2C1 SCL*%
X13072200Y41288799D03*
%TD*%
D27*
%TO.P,C10,1*%
%TO.N,+3V3*%
X8830400Y50305600D03*
%TO.P,C10,2*%
%TO.N,GND*%
X8830400Y48755600D03*
%TD*%
D28*
%TO.P,U8,1,IOVDD*%
%TO.N,+3V3*%
X11417600Y27940600D03*
%TO.P,U8,2,GPIO0*%
%TO.N,unconnected-(U8-GPIO0-Pad2)*%
X11017600Y27940600D03*
%TO.P,U8,3,GPIO1*%
%TO.N,unconnected-(U8-GPIO1-Pad3)*%
X10617600Y27940600D03*
%TO.P,U8,4,GPIO2*%
%TO.N,unconnected-(U8-GPIO2-Pad4)*%
X10217600Y27940600D03*
%TO.P,U8,5,GPIO3*%
%TO.N,unconnected-(U8-GPIO3-Pad5)*%
X9817600Y27940600D03*
%TO.P,U8,6,GPIO4*%
%TO.N,/P3 EN *%
X9417600Y27940600D03*
%TO.P,U8,7,GPIO5*%
%TO.N,/P4 EN *%
X9017600Y27940600D03*
%TO.P,U8,8,GPIO6*%
%TO.N,/P2 EN *%
X8617600Y27940600D03*
%TO.P,U8,9,GPIO7*%
%TO.N,/P1 EN *%
X8217600Y27940600D03*
%TO.P,U8,10,IOVDD*%
%TO.N,+3V3*%
X7817600Y27940600D03*
%TO.P,U8,11,GPIO8*%
%TO.N,unconnected-(U8-GPIO8-Pad11)*%
X7417600Y27940600D03*
%TO.P,U8,12,GPIO9*%
%TO.N,unconnected-(U8-GPIO9-Pad12)*%
X7017600Y27940600D03*
%TO.P,U8,13,GPIO10*%
%TO.N,unconnected-(U8-GPIO10-Pad13)*%
X6617600Y27940600D03*
%TO.P,U8,14,GPIO11*%
%TO.N,unconnected-(U8-GPIO11-Pad14)*%
X6217600Y27940600D03*
D29*
%TO.P,U8,15,GPIO12*%
%TO.N,/LEDRED*%
X5380100Y28778100D03*
%TO.P,U8,16,GPIO13*%
%TO.N,/LEDGREEN*%
X5380100Y29178100D03*
%TO.P,U8,17,GPIO14*%
%TO.N,/LEDBLUE*%
X5380100Y29578100D03*
%TO.P,U8,18,GPIO15*%
%TO.N,unconnected-(U8-GPIO15-Pad18)*%
X5380100Y29978100D03*
%TO.P,U8,19,TESTEN*%
%TO.N,GND*%
X5380100Y30378100D03*
%TO.P,U8,20,XIN*%
%TO.N,/XIN*%
X5380100Y30778100D03*
%TO.P,U8,21,XOUT*%
%TO.N,unconnected-(U8-XOUT-Pad21)*%
X5380100Y31178100D03*
%TO.P,U8,22,IOVDD*%
%TO.N,+3V3*%
X5380100Y31578100D03*
%TO.P,U8,23,DVDD*%
%TO.N,+1V1*%
X5380100Y31978100D03*
%TO.P,U8,24,SWCLK*%
%TO.N,/SWCLK*%
X5380100Y32378100D03*
%TO.P,U8,25,SWD*%
%TO.N,/SWD*%
X5380100Y32778100D03*
%TO.P,U8,26,RUN*%
%TO.N,/RUN*%
X5380100Y33178100D03*
%TO.P,U8,27,GPIO16*%
%TO.N,/BRKOUT5*%
X5380100Y33578100D03*
%TO.P,U8,28,GPIO17*%
%TO.N,/BRKOUT6*%
X5380100Y33978100D03*
D28*
%TO.P,U8,29,GPIO18*%
%TO.N,/BRKOUT7*%
X6217600Y34815600D03*
%TO.P,U8,30,GPIO19*%
%TO.N,unconnected-(U8-GPIO19-Pad30)*%
X6617600Y34815600D03*
%TO.P,U8,31,GPIO20*%
%TO.N,unconnected-(U8-GPIO20-Pad31)*%
X7017600Y34815600D03*
%TO.P,U8,32,GPIO21*%
%TO.N,/BUZZER*%
X7417600Y34815600D03*
%TO.P,U8,33,IOVDD*%
%TO.N,+3V3*%
X7817600Y34815600D03*
%TO.P,U8,34,GPIO22*%
%TO.N,/I2C1 SDA*%
X8217600Y34815600D03*
%TO.P,U8,35,GPIO23*%
%TO.N,/I2C1 SCL*%
X8617600Y34815600D03*
%TO.P,U8,36,GPIO24*%
%TO.N,unconnected-(U8-GPIO24-Pad36)*%
X9017600Y34815600D03*
%TO.P,U8,37,GPIO25*%
%TO.N,/BRKOUT1*%
X9417600Y34815600D03*
%TO.P,U8,38,GPIO26_ADC0*%
%TO.N,/BATT SENSE *%
X9817600Y34815600D03*
%TO.P,U8,39,GPIO27_ADC1*%
%TO.N,/BRKOUT2*%
X10217600Y34815600D03*
%TO.P,U8,40,GPIO28_ADC2*%
%TO.N,/BRKOUT3*%
X10617600Y34815600D03*
%TO.P,U8,41,GPIO29_ADC3*%
%TO.N,/BRKOUT4*%
X11017600Y34815600D03*
%TO.P,U8,42,IOVDD*%
%TO.N,+3V3*%
X11417600Y34815600D03*
D29*
%TO.P,U8,43,ADC_AVDD*%
X12255100Y33978100D03*
%TO.P,U8,44,VREG_IN*%
X12255100Y33578100D03*
%TO.P,U8,45,VREG_VOUT*%
%TO.N,+1V1*%
X12255100Y33178100D03*
%TO.P,U8,46,USB_DM*%
%TO.N,/RP USB_D-*%
X12255100Y32778100D03*
%TO.P,U8,47,USB_DP*%
%TO.N,/RP USB_D+*%
X12255100Y32378100D03*
%TO.P,U8,48,USB_VDD*%
%TO.N,+3V3*%
X12255100Y31978100D03*
%TO.P,U8,49,IOVDD*%
X12255100Y31578100D03*
%TO.P,U8,50,DVDD*%
%TO.N,+1V1*%
X12255100Y31178100D03*
%TO.P,U8,51,QSPI_SD3*%
%TO.N,/QSPI_SD3*%
X12255100Y30778100D03*
%TO.P,U8,52,QSPI_SCLK*%
%TO.N,/QSPI_SCLK*%
X12255100Y30378100D03*
%TO.P,U8,53,QSPI_SD0*%
%TO.N,/QSPI_SDO*%
X12255100Y29978100D03*
%TO.P,U8,54,QSPI_SD2*%
%TO.N,/QSPI_SD2*%
X12255100Y29578100D03*
%TO.P,U8,55,QSPI_SD1*%
%TO.N,/QSPI_SD1*%
X12255100Y29178100D03*
%TO.P,U8,56,QSPI_SS*%
%TO.N,/QSPI_SS*%
X12255100Y28778100D03*
D30*
%TO.P,U8,57,GND*%
%TO.N,GND*%
X8817599Y31378099D03*
%TD*%
D31*
%TO.P,Q2,1,G*%
%TO.N,/P2 EN *%
X15536000Y14631000D03*
%TO.P,Q2,2,S*%
%TO.N,GND*%
X15536000Y16531000D03*
%TO.P,Q2,3,D*%
%TO.N,Net-(Q2-D)*%
X17411000Y15581000D03*
%TD*%
D17*
%TO.P,C17,1*%
%TO.N,+1V1*%
X13897400Y30023400D03*
%TO.P,C17,2*%
%TO.N,GND*%
X15447400Y30023400D03*
%TD*%
D32*
%TO.P,Q1,1,G*%
%TO.N,GND*%
X7469000Y11255100D03*
%TO.P,Q1,2,S*%
%TO.N,+12P*%
X5569000Y11255100D03*
%TO.P,Q1,3,D*%
%TO.N,+12V*%
X6519000Y13130100D03*
%TD*%
D17*
%TO.P,C14,2*%
%TO.N,GND*%
X7929000Y40132600D03*
%TO.P,C14,1*%
%TO.N,Net-(U5-C1)*%
X6379000Y40132600D03*
%TD*%
D33*
%TO.P,R27,1*%
%TO.N,GND*%
X17060000Y18124000D03*
%TO.P,R27,2*%
%TO.N,/P4 EN *%
X17060000Y19774000D03*
%TD*%
D24*
%TO.P,R16,1*%
%TO.N,GND*%
X13758000Y10008200D03*
%TO.P,R16,2*%
%TO.N,/P1 EN *%
X13758000Y8358200D03*
%TD*%
D34*
%TO.P,X1,1,Tri-state*%
%TO.N,+3V3*%
X2036799Y27540699D03*
%TO.P,X1,2,GND*%
%TO.N,GND*%
X2036799Y29740699D03*
%TO.P,X1,3,OUTPUT*%
%TO.N,/XIN*%
X3736799Y29740699D03*
%TO.P,X1,4,VDD*%
%TO.N,+3V3*%
X3736799Y27540699D03*
%TD*%
D35*
%TO.P,U9,1,~{CS}*%
%TO.N,/QSPI_SS*%
X9998800Y15189800D03*
%TO.P,U9,2,DO(IO1)*%
%TO.N,/QSPI_SD1*%
X8728800Y15189800D03*
%TO.P,U9,3,IO2*%
%TO.N,/QSPI_SD2*%
X7458800Y15189800D03*
%TO.P,U9,4,GND*%
%TO.N,GND*%
X6188800Y15189800D03*
%TO.P,U9,5,DI(IO0)*%
%TO.N,/QSPI_SDO*%
X6188800Y22389800D03*
%TO.P,U9,6,CLK*%
%TO.N,/QSPI_SCLK*%
X7458800Y22389800D03*
%TO.P,U9,7,IO3*%
%TO.N,/QSPI_SD3*%
X8728800Y22389800D03*
%TO.P,U9,8,VCC*%
%TO.N,+3V3*%
X9998800Y22389800D03*
%TD*%
D17*
%TO.P,C6,1*%
%TO.N,+3V3*%
X16285000Y3582000D03*
%TO.P,C6,2*%
%TO.N,GND*%
X17835000Y3582000D03*
%TD*%
D24*
%TO.P,R7,1*%
%TO.N,+3V3*%
X11421200Y42938800D03*
%TO.P,R7,2*%
%TO.N,/I2C1 SDA*%
X11421200Y41288800D03*
%TD*%
D23*
%TO.P,C12,1*%
%TO.N,+3V3*%
X5325200Y41681400D03*
%TO.P,C12,2*%
%TO.N,GND*%
X5325200Y43231400D03*
%TD*%
D24*
%TO.P,R19,1*%
%TO.N,/P2-*%
X19219000Y16916000D03*
%TO.P,R19,2*%
%TO.N,Net-(Q2-D)*%
X19219000Y15266000D03*
%TD*%
D17*
%TO.P,C1,1*%
%TO.N,+3V3*%
X16031000Y37999000D03*
%TO.P,C1,2*%
%TO.N,GND*%
X17581000Y37999000D03*
%TD*%
D23*
%TO.P,C21,1*%
%TO.N,+3V3*%
X12081600Y36258800D03*
%TO.P,C21,2*%
%TO.N,GND*%
X12081600Y37808800D03*
%TD*%
D36*
%TO.P,R15,1*%
%TO.N,/USB_D+*%
X18393000Y31699800D03*
%TO.P,R15,2*%
%TO.N,/RP USB_D+*%
X16743000Y31699800D03*
%TD*%
D33*
%TO.P,R2,1*%
%TO.N,Net-(D4-A)*%
X804000Y31433600D03*
%TO.P,R2,2*%
%TO.N,+3V3*%
X804000Y33083600D03*
%TD*%
D37*
%TO.P,U1,1,GND*%
%TO.N,GND*%
X13859999Y5881999D03*
%TO.P,U1,2,VO*%
%TO.N,+3V3*%
X13859999Y3581999D03*
%TO.P,U1,3,VI*%
%TO.N,+12VA*%
X13859999Y1281999D03*
D38*
%TO.P,U1,4*%
%TO.N,N/C*%
X7559999Y3581999D03*
%TD*%
D39*
%TO.P,C2,1*%
%TO.N,+3V3*%
X17444800Y43279499D03*
%TO.P,C2,2*%
%TO.N,GND*%
X15894800Y43279499D03*
%TD*%
D17*
%TO.P,C5,1*%
%TO.N,+12VA*%
X16158000Y1423000D03*
%TO.P,C5,2*%
%TO.N,GND*%
X17708000Y1423000D03*
%TD*%
%TO.P,C7,1*%
%TO.N,+12VA*%
X9071400Y7976200D03*
%TO.P,C7,2*%
%TO.N,GND*%
X10621400Y7976200D03*
%TD*%
D27*
%TO.P,C15,1*%
%TO.N,+3V3*%
X16196400Y13170800D03*
%TO.P,C15,2*%
%TO.N,GND*%
X16196400Y11620800D03*
%TD*%
D40*
%TO.P,J7,1,VBUS*%
%TO.N,VBUS*%
X20076399Y33558599D03*
%TO.P,J7,2,D-*%
%TO.N,/USB_D-*%
X20076399Y32908599D03*
%TO.P,J7,3,D+*%
%TO.N,/USB_D+*%
X20076399Y32258599D03*
%TO.P,J7,4,ID*%
%TO.N,unconnected-(J7-ID-Pad4)*%
X20076399Y31608599D03*
%TO.P,J7,5,GND*%
%TO.N,GND*%
X20066399Y30958599D03*
D41*
%TO.P,J7,6,Shield*%
%TO.N,unconnected-(J7-Shield-Pad6)*%
X19826399Y29838599D03*
%TO.P,J7,7*%
%TO.N,N/C*%
X19826399Y34678599D03*
D42*
%TO.P,J7,8*%
X22726399Y35858599D03*
%TO.P,J7,9*%
X22726399Y28658599D03*
%TD*%
D23*
%TO.P,C8,1*%
%TO.N,+12VA*%
X9084400Y9538000D03*
%TO.P,C8,2*%
%TO.N,GND*%
X9084400Y11088000D03*
%TD*%
D27*
%TO.P,C23,1*%
%TO.N,+3V3*%
X8017600Y26531200D03*
%TO.P,C23,2*%
%TO.N,GND*%
X8017600Y24981200D03*
%TD*%
D22*
%TO.P,R1,1*%
%TO.N,+3V3*%
X6814313Y54128000D03*
%TO.P,R1,2*%
%TO.N,/RUN*%
X8464313Y54128000D03*
%TD*%
D39*
%TO.P,C13,1*%
%TO.N,+3V3*%
X8843400Y44247400D03*
%TO.P,C13,2*%
%TO.N,GND*%
X7293400Y44247400D03*
%TD*%
D31*
%TO.P,Q3,1,G*%
%TO.N,/P1 EN *%
X15566000Y8220000D03*
%TO.P,Q3,2,S*%
%TO.N,GND*%
X15566000Y10120000D03*
%TO.P,Q3,3,D*%
%TO.N,Net-(Q3-D)*%
X17441000Y9170000D03*
%TD*%
D24*
%TO.P,R25,1*%
%TO.N,/P4 CONT *%
X11726000Y15075000D03*
%TO.P,R25,2*%
%TO.N,GND*%
X11726000Y13425000D03*
%TD*%
D17*
%TO.P,C25,1*%
%TO.N,+3V3*%
X13795800Y31547400D03*
%TO.P,C25,2*%
%TO.N,GND*%
X15345800Y31547400D03*
%TD*%
D43*
%TO.P,J4,1,Pin_1*%
%TO.N,GND*%
X14124000Y53620000D03*
D44*
%TO.P,J4,2,Pin_2*%
%TO.N,/BOOTSEL*%
X15424000Y53620000D03*
%TD*%
D22*
%TO.P,R12,1*%
%TO.N,/P1 CONT *%
X16235000Y5106000D03*
%TO.P,R12,2*%
%TO.N,GND*%
X17885000Y5106000D03*
%TD*%
D36*
%TO.P,R10,1*%
%TO.N,Net-(Q3-D)*%
X17885000Y6630000D03*
%TO.P,R10,2*%
%TO.N,/P1 CONT *%
X16235000Y6630000D03*
%TD*%
D24*
%TO.P,R21,1*%
%TO.N,Net-(Q2-D)*%
X19244400Y13932000D03*
%TO.P,R21,2*%
%TO.N,/P2 CONT *%
X19244400Y12282000D03*
%TD*%
D45*
%TO.P,F1,1*%
%TO.N,+12P*%
X5606900Y9297000D03*
%TO.P,F1,2*%
%TO.N,+12VA*%
X7481900Y9297000D03*
%TD*%
D24*
%TO.P,R3,1*%
%TO.N,Net-(D2-A)*%
X16755200Y26987600D03*
%TO.P,R3,2*%
%TO.N,+3V3*%
X16755200Y25337600D03*
%TD*%
%TO.P,R23,1*%
%TO.N,Net-(Q5-D)*%
X11726000Y18123000D03*
%TO.P,R23,2*%
%TO.N,/P4 CONT *%
X11726000Y16473000D03*
%TD*%
%TO.P,R24,1*%
%TO.N,/P2 CONT *%
X17669600Y13220800D03*
%TO.P,R24,2*%
%TO.N,GND*%
X17669600Y11570800D03*
%TD*%
D46*
%TO.P,U4,1,VDDI/O*%
%TO.N,+3V3*%
X10925599Y45955799D03*
%TO.P,U4,2,GND*%
%TO.N,GND*%
X10925599Y46755799D03*
%TO.P,U4,3,RESERVED*%
%TO.N,+3V3*%
X10925599Y47555799D03*
%TO.P,U4,4,GND*%
%TO.N,GND*%
X10925599Y48355799D03*
%TO.P,U4,5,GND*%
X10925599Y49155799D03*
%TO.P,U4,6,VS*%
%TO.N,+3V3*%
X10925599Y49955799D03*
D47*
%TO.P,U4,7,~{CS}*%
X12335599Y50255799D03*
D46*
%TO.P,U4,8,INT1*%
%TO.N,unconnected-(U4-INT1-Pad8)*%
X13745599Y49955799D03*
%TO.P,U4,9,INT2*%
%TO.N,unconnected-(U4-INT2-Pad9)*%
X13745599Y49155799D03*
%TO.P,U4,10,NC*%
%TO.N,unconnected-(U4-NC-Pad10)*%
X13745599Y48355799D03*
%TO.P,U4,11,RESERVED*%
%TO.N,GND*%
X13745599Y47555799D03*
%TO.P,U4,12,SDO/ALTADDRESS*%
X13745599Y46755799D03*
%TO.P,U4,13,SDA/SDI/SDIO*%
%TO.N,/I2C1 SDA*%
X13745599Y45955799D03*
D47*
%TO.P,U4,14,SCL/SCLK*%
%TO.N,/I2C1 SCL*%
X12335599Y45655799D03*
%TD*%
D43*
%TO.P,J3,1,Pin_1*%
%TO.N,/RUN*%
X10216999Y53620000D03*
D44*
%TO.P,J3,2,Pin_2*%
%TO.N,GND*%
X11516999Y53620000D03*
%TD*%
D36*
%TO.P,R5,1*%
%TO.N,/BATT SENSE *%
X6302600Y37186200D03*
%TO.P,R5,2*%
%TO.N,GND*%
X4652600Y37186200D03*
%TD*%
D33*
%TO.P,R9,1*%
%TO.N,/P3-*%
X18965000Y21045000D03*
%TO.P,R9,2*%
%TO.N,Net-(Q4-D)*%
X18965000Y22695000D03*
%TD*%
D22*
%TO.P,R4,1*%
%TO.N,+12VA*%
X4678000Y38656199D03*
%TO.P,R4,2*%
%TO.N,/BATT SENSE *%
X6328000Y38656199D03*
%TD*%
D24*
%TO.P,R20,1*%
%TO.N,/P4-*%
X11726000Y21107000D03*
%TO.P,R20,2*%
%TO.N,Net-(Q5-D)*%
X11726000Y19457000D03*
%TD*%
D33*
%TO.P,R14,1*%
%TO.N,/QSPI_SS*%
X17771200Y52527800D03*
%TO.P,R14,2*%
%TO.N,/BOOTSEL*%
X17771200Y54177800D03*
%TD*%
D48*
%TO.P,Q5,1,G*%
%TO.N,/P4 EN *%
X15330500Y20026000D03*
%TO.P,Q5,2,S*%
%TO.N,GND*%
X15330500Y18126000D03*
%TO.P,Q5,3,D*%
%TO.N,Net-(Q5-D)*%
X13455500Y19076000D03*
%TD*%
D23*
%TO.P,C16,1*%
%TO.N,+1V1*%
X3852000Y33109200D03*
%TO.P,C16,2*%
%TO.N,GND*%
X3852000Y34659200D03*
%TD*%
D49*
%TO.P,U6,10,SCL*%
%TO.N,/I2C1 SCL*%
X14220199Y13192999D03*
D50*
%TO.P,U6,9,SDA*%
%TO.N,/I2C1 SDA*%
X13590199Y13082999D03*
D51*
%TO.P,U6,8,VDD*%
%TO.N,+3V3*%
X13590199Y12582999D03*
%TO.P,U6,7,AIN3*%
%TO.N,/P3 CONT *%
X13590199Y12082999D03*
D50*
%TO.P,U6,6,AIN2*%
%TO.N,/P4 CONT *%
X13590199Y11582999D03*
D49*
%TO.P,U6,5,AIN1*%
%TO.N,/P1 CONT *%
X14220199Y11472999D03*
D50*
%TO.P,U6,4,AIN0*%
%TO.N,/P2 CONT *%
X14850199Y11582999D03*
D51*
%TO.P,U6,3,GND*%
%TO.N,GND*%
X14850199Y12082999D03*
%TO.P,U6,2,ALERT/RDY*%
%TO.N,unconnected-(U6-ALERT{slash}RDY-Pad2)*%
X14850199Y12582999D03*
D50*
%TO.P,U6,1,ADDR*%
%TO.N,+3V3*%
X14850199Y13082999D03*
%TD*%
D24*
%TO.P,R26,1*%
%TO.N,GND*%
X13758000Y16535000D03*
%TO.P,R26,2*%
%TO.N,/P2 EN *%
X13758000Y14885000D03*
%TD*%
D39*
%TO.P,C24,1*%
%TO.N,+3V3*%
X3966600Y31598200D03*
%TO.P,C24,2*%
%TO.N,GND*%
X2416600Y31598200D03*
%TD*%
%TO.P,C4,1*%
%TO.N,+3V3*%
X17733400Y49109400D03*
%TO.P,C4,2*%
%TO.N,GND*%
X16183400Y49109400D03*
%TD*%
D31*
%TO.P,Q4,1,G*%
%TO.N,/P3 EN *%
X15312000Y21682000D03*
%TO.P,Q4,2,S*%
%TO.N,GND*%
X15312000Y23582000D03*
%TO.P,Q4,3,D*%
%TO.N,Net-(Q4-D)*%
X17187000Y22632000D03*
%TD*%
D24*
%TO.P,R8,1*%
%TO.N,/P1-*%
X19219000Y10820000D03*
%TO.P,R8,2*%
%TO.N,Net-(Q3-D)*%
X19219000Y9170000D03*
%TD*%
D23*
%TO.P,C27,1*%
%TO.N,+3V3*%
X11776800Y22606600D03*
%TO.P,C27,2*%
%TO.N,GND*%
X11776800Y24156600D03*
%TD*%
%TO.P,C26,1*%
%TO.N,+3V3*%
X7763600Y36373400D03*
%TO.P,C26,2*%
%TO.N,GND*%
X7763600Y37923400D03*
%TD*%
%TO.P,C3,1*%
%TO.N,+3V3*%
X19193600Y46063200D03*
%TO.P,C3,2*%
%TO.N,GND*%
X19193600Y47613200D03*
%TD*%
D24*
%TO.P,R13,1*%
%TO.N,/P3 CONT *%
X20616000Y25679000D03*
%TO.P,R13,2*%
%TO.N,GND*%
X20616000Y24029000D03*
%TD*%
D33*
%TO.P,R11,1*%
%TO.N,Net-(Q4-D)*%
X19092000Y24029000D03*
%TO.P,R11,2*%
%TO.N,/P3 CONT *%
X19092000Y25679000D03*
%TD*%
D52*
%TO.N,/BATT SENSE *%
X6849200Y38964200D03*
X10913200Y38354600D03*
%TO.N,/SWD*%
X6718098Y31852200D03*
%TO.N,/SWCLK*%
X6341200Y31039400D03*
%TO.N,+1V1*%
X4451610Y32524436D03*
X13199200Y33325400D03*
X11156011Y31797270D03*
%TO.N,/QSPI_SS*%
X20108000Y37592600D03*
%TO.N,/I2C1 SDA*%
X13148400Y37948200D03*
X17493683Y34181260D03*
%TO.N,/I2C1 SCL*%
X18380800Y34239800D03*
%TO.N,/P1 EN *%
X5934800Y20879400D03*
X7222569Y25683528D03*
X8328977Y29122807D03*
%TO.N,/P2 EN *%
X9338400Y28956600D03*
X13554800Y15393000D03*
%TO.N,/QSPI_SS*%
X9948000Y16256600D03*
X16145600Y28194600D03*
%TO.N,/QSPI_SD1*%
X8678000Y16256600D03*
X15553968Y28796481D03*
%TO.N,/QSPI_SD2*%
X7649483Y16615120D03*
X14839587Y29155457D03*
%TO.N,/QSPI_SDO*%
X11218000Y28905800D03*
X6664728Y23385899D03*
%TO.N,/QSPI_SCLK*%
X11063903Y30195362D03*
X7457081Y23087491D03*
%TO.N,/QSPI_SD3*%
X8101908Y23560146D03*
X10964000Y30988598D03*
D53*
%TO.N,+12VA*%
X9084400Y8839800D03*
D52*
%TO.N,/P1 EN *%
X14418400Y8358200D03*
%TO.N,/I2C1 SCL*%
X14774000Y13767400D03*
%TO.N,/I2C1 SDA*%
X13859600Y13985500D03*
%TO.N,+3V3*%
X13130386Y13657702D03*
%TO.N,GND*%
X16806000Y11620800D03*
X14520000Y10008200D03*
%TO.N,+12V*%
X5884000Y5487000D03*
X19600000Y6198200D03*
D54*
%TO.N,+12P*%
X5599666Y7114130D03*
D52*
%TO.N,/BRKOUT5*%
X6341200Y33874100D03*
%TO.N,/BRKOUT6*%
X5596358Y34473600D03*
%TO.N,/BRKOUT7*%
X6166231Y35578405D03*
%TO.N,/BUZZER*%
X7763600Y33833400D03*
%TO.N,/BRKOUT1*%
X9032807Y33878600D03*
%TO.N,/BRKOUT2*%
X9862179Y33844330D03*
%TO.N,+3V3*%
X13148400Y31726899D03*
%TO.N,/BRKOUT3*%
X10643786Y33676116D03*
%TO.N,/BRKOUT4*%
X11268828Y32588772D03*
%TO.N,GND*%
X9846400Y44298200D03*
X9490800Y48355800D03*
%TO.N,/I2C1 SDA*%
X14373632Y39919655D03*
%TO.N,+3V3*%
X12386400Y42938800D03*
%TO.N,/I2C1 SDA*%
X9714200Y38954100D03*
X10557600Y41097800D03*
X13504000Y45212600D03*
%TO.N,GND*%
X9436414Y29750072D03*
X8663771Y29848836D03*
X9511379Y32594079D03*
X8740913Y32624300D03*
%TO.N,/LEDRED*%
X4836301Y27043568D03*
%TO.N,/LEDGREEN*%
X6578402Y28877600D03*
%TO.N,/LEDBLUE*%
X6281812Y29734355D03*
%TO.N,GND*%
X16298000Y18124000D03*
X14570800Y16535000D03*
%TO.N,+3V3*%
X15485200Y13083000D03*
X3366100Y31547400D03*
X2988400Y27540700D03*
%TO.N,GND*%
X2315500Y30887000D03*
%TO.N,Net-(D4-A)*%
X1261200Y32055400D03*
%TO.N,+3V3*%
X1420143Y33327525D03*
D54*
X15332800Y3582000D03*
D52*
%TO.N,GND*%
X11550500Y13689447D03*
X20452942Y23531658D03*
X5919094Y16084884D03*
D54*
X15172019Y5814975D03*
X10926555Y7804100D03*
X8170000Y11255100D03*
D52*
X8227176Y24349774D03*
%TO.N,+3V3*%
X11282911Y22026889D03*
%TO.N,GND*%
X14263520Y22586324D03*
%TO.N,Net-(D2-A)*%
X16709007Y27583325D03*
%TO.N,GND*%
X16755200Y24384600D03*
%TO.N,+3V3*%
X15981445Y25934000D03*
%TO.N,GND*%
X12996000Y27229400D03*
X19092000Y30887000D03*
X15257200Y30734600D03*
X15345800Y34392200D03*
X12065530Y38284848D03*
X7262885Y37788015D03*
X3659400Y37272287D03*
X7328500Y40132600D03*
%TO.N,+3V3*%
X8271600Y44025498D03*
X3684022Y41637156D03*
%TO.N,GND*%
X6241425Y43955746D03*
%TO.N,+3V3*%
X19740520Y46240480D03*
%TO.N,GND*%
X19904800Y47600200D03*
%TO.N,+3V3*%
X17771200Y49784600D03*
%TO.N,GND*%
X16145600Y49835400D03*
X12843600Y53620000D03*
%TO.N,+3V3*%
X6188800Y54204200D03*
X8830400Y49705100D03*
X7966800Y46685800D03*
%TO.N,GND*%
X12437200Y47041400D03*
%TO.N,+3V3*%
X17302789Y42848812D03*
%TO.N,GND*%
X15993200Y42786801D03*
%TO.N,+3V3*%
X16631500Y37948200D03*
%TO.N,GND*%
X18228400Y37999000D03*
%TO.N,+3V3*%
X7482866Y36847306D03*
X14396300Y35154200D03*
X11910157Y36744980D03*
X7452788Y26449168D03*
X12059500Y26518200D03*
%TD*%
D55*
%TO.N,/BATT SENSE *%
X6328000Y37211600D02*
X6302600Y37186200D01*
X6328000Y38656199D02*
X6328000Y37211600D01*
X6636001Y38964200D02*
X6328000Y38656199D01*
X6849200Y38964200D02*
X6636001Y38964200D01*
D56*
%TO.N,GND*%
X7966800Y37758000D02*
X7292900Y37758000D01*
D55*
%TO.N,/I2C1 SDA*%
X9714200Y37106538D02*
X9714200Y38954100D01*
X8217600Y34815600D02*
X8217600Y35609938D01*
D56*
%TO.N,GND*%
X7292900Y37758000D02*
X7262885Y37788015D01*
D55*
%TO.N,/BATT SENSE *%
X10913200Y36443675D02*
X10913200Y38354600D01*
%TO.N,/I2C1 SCL*%
X10313700Y39035200D02*
X11238350Y39959850D01*
%TO.N,/I2C1 SDA*%
X8217600Y35609938D02*
X9714200Y37106538D01*
%TO.N,/I2C1 SCL*%
X10354400Y37948200D02*
X10313700Y37988900D01*
X10313700Y37988900D02*
X10313700Y39035200D01*
%TO.N,/BATT SENSE *%
X9817600Y35348075D02*
X10913200Y36443675D01*
X9817600Y34815600D02*
X9817600Y35348075D01*
%TO.N,GND*%
X8817600Y31900300D02*
X9511379Y32594079D01*
X8817600Y31378100D02*
X8817600Y31900300D01*
X8817600Y32547613D02*
X8740913Y32624300D01*
X8817600Y31378100D02*
X8817600Y32547613D01*
%TO.N,/SWD*%
X5380100Y32778100D02*
X6077555Y32778100D01*
%TO.N,/SWCLK*%
X6117600Y31263000D02*
X6341200Y31039400D01*
%TO.N,/SWD*%
X6077555Y32778100D02*
X6718098Y32137557D01*
%TO.N,/SWCLK*%
X5912575Y32378100D02*
X6117600Y32173075D01*
%TO.N,/SWD*%
X6718098Y32137557D02*
X6718098Y31852200D01*
%TO.N,/SWCLK*%
X5380100Y32378100D02*
X5912575Y32378100D01*
X6117600Y32173075D02*
X6117600Y31263000D01*
%TO.N,+1V1*%
X4615962Y32209762D02*
X4451610Y32374114D01*
X4615962Y32209762D02*
X4847625Y31978100D01*
X3953600Y32872125D02*
X4615962Y32209762D01*
X4451610Y32374114D02*
X4451610Y32524436D01*
%TO.N,/BRKOUT5*%
X6045200Y33578100D02*
X6341200Y33874100D01*
X5380100Y33578100D02*
X6045200Y33578100D01*
%TO.N,/BRKOUT2*%
X10217600Y34199751D02*
X9862179Y33844330D01*
X10217600Y34815600D02*
X10217600Y34199751D01*
%TO.N,/BRKOUT3*%
X10699900Y33732230D02*
X10643786Y33676116D01*
X10699900Y34030922D02*
X10699900Y33732230D01*
%TO.N,+1V1*%
X11156011Y31744714D02*
X11156011Y31797270D01*
X12255100Y31178100D02*
X11722625Y31178100D01*
%TO.N,/BRKOUT4*%
X11481655Y32801599D02*
X11268828Y32588772D01*
X11017600Y34276658D02*
X11481655Y33812603D01*
%TO.N,+1V1*%
X13051900Y33178100D02*
X13199200Y33325400D01*
%TO.N,/BRKOUT3*%
X10617600Y34113222D02*
X10699900Y34030922D01*
%TO.N,/RP USB_D-*%
X13004755Y32725900D02*
X12952555Y32778100D01*
%TO.N,/BRKOUT4*%
X11017600Y34815600D02*
X11017600Y34276658D01*
%TO.N,/RP USB_D-*%
X16245100Y32725900D02*
X13004755Y32725900D01*
%TO.N,+1V1*%
X11722625Y31178100D02*
X11156011Y31744714D01*
%TO.N,/RP USB_D+*%
X16116401Y32326399D02*
X16743000Y31699800D01*
X12255100Y32378100D02*
X12787575Y32378100D01*
X12787575Y32378100D02*
X12839276Y32326399D01*
%TO.N,/RP USB_D-*%
X16743000Y33223800D02*
X16245100Y32725900D01*
X12952555Y32778100D02*
X12255100Y32778100D01*
%TO.N,+3V3*%
X12837100Y33811628D02*
X12837100Y34195500D01*
X12603574Y33578100D02*
X12837100Y33811628D01*
X12255100Y33578100D02*
X12603574Y33578100D01*
X13327702Y31926898D02*
X13707200Y31547400D01*
X12255100Y31978100D02*
X12306302Y31926898D01*
%TO.N,/BRKOUT4*%
X11481655Y33812603D02*
X11481655Y32801599D01*
%TO.N,+3V3*%
X13707200Y31547400D02*
X13327899Y31547400D01*
%TO.N,/RP USB_D+*%
X12839276Y32326399D02*
X16116401Y32326399D01*
%TO.N,+3V3*%
X13327899Y31547400D02*
X13148400Y31726899D01*
%TO.N,+1V1*%
X12996000Y33178100D02*
X13051900Y33178100D01*
%TO.N,+3V3*%
X12306302Y31926898D02*
X13327702Y31926898D01*
%TO.N,+1V1*%
X12255100Y33178100D02*
X12996000Y33178100D01*
%TO.N,/BRKOUT3*%
X10617600Y34815600D02*
X10617600Y34113222D01*
%TO.N,/QSPI_SD3*%
X11347147Y30988598D02*
X10964000Y30988598D01*
X12255100Y30778100D02*
X11557645Y30778100D01*
X11557645Y30778100D02*
X11347147Y30988598D01*
%TO.N,/QSPI_SCLK*%
X12255100Y30378100D02*
X11246641Y30378100D01*
X11246641Y30378100D02*
X11063903Y30195362D01*
%TO.N,/QSPI_SDO*%
X11722625Y29978100D02*
X11218000Y29473475D01*
X12255100Y29978100D02*
X11722625Y29978100D01*
X11218000Y29473475D02*
X11218000Y28905800D01*
%TO.N,/RUN*%
X4066462Y35662200D02*
X1834743Y35662200D01*
X4847625Y33178100D02*
X4642600Y33383125D01*
X4642600Y33383125D02*
X4642600Y35086062D01*
X4642600Y35086062D02*
X4066462Y35662200D01*
X5380100Y33178100D02*
X4847625Y33178100D01*
D56*
X1128000Y36368943D02*
X1834743Y35662200D01*
X1128000Y48076600D02*
X1128000Y36368943D01*
X4822999Y48226000D02*
X1277400Y48226000D01*
X1277400Y48226000D02*
X1128000Y48076600D01*
X10216999Y53620000D02*
X4822999Y48226000D01*
D55*
%TO.N,/QSPI_SS*%
X17771200Y51765800D02*
X17771200Y52527800D01*
X21498000Y38982600D02*
X21498000Y48039000D01*
X20108000Y37592600D02*
X21498000Y38982600D01*
X21498000Y48039000D02*
X17771200Y51765800D01*
%TO.N,/I2C1 SDA*%
X17493683Y34223779D02*
X17493683Y34181260D01*
X13148400Y37948200D02*
X14725603Y36370997D01*
X14725603Y36370997D02*
X15346465Y36370997D01*
X15346465Y36370997D02*
X17493683Y34223779D01*
%TO.N,/I2C1 SCL*%
X13747900Y37913680D02*
X14891082Y36770498D01*
X13747900Y38196522D02*
X13747900Y37913680D01*
X11984572Y39959850D02*
X13747900Y38196522D01*
X14891082Y36770498D02*
X15850102Y36770498D01*
X11238350Y39959850D02*
X11984572Y39959850D01*
X15850102Y36770498D02*
X18380800Y34239800D01*
D56*
%TO.N,GND*%
X12081600Y38268778D02*
X12065530Y38284848D01*
X12081600Y37808800D02*
X12081600Y38268778D01*
D55*
%TO.N,/I2C1 SCL*%
X11238350Y39959850D02*
X11776800Y40498300D01*
X10354400Y37181758D02*
X10354400Y37948200D01*
D57*
%TO.N,Net-(Q3-D)*%
X17885000Y8726000D02*
X17441000Y9170000D01*
X17885000Y6630000D02*
X17885000Y8726000D01*
D58*
%TO.N,+12V*%
X4899634Y16028000D02*
X3344000Y16028000D01*
X4919594Y15670877D02*
X4919594Y16008040D01*
X6165700Y13130100D02*
X5144000Y14151800D01*
X6519000Y13130100D02*
X6165700Y13130100D01*
D57*
%TO.N,GND*%
X6188800Y15815178D02*
X5919094Y16084884D01*
X6188800Y15189800D02*
X6188800Y15815178D01*
D58*
%TO.N,+12V*%
X5144000Y15446471D02*
X4919594Y15670877D01*
D55*
%TO.N,/QSPI_SD2*%
X7458800Y16424437D02*
X7649483Y16615120D01*
%TO.N,/P1 EN *%
X5579200Y21235000D02*
X5934800Y20879400D01*
X5579200Y23216596D02*
X5579200Y21235000D01*
X6381804Y24019200D02*
X5579200Y23216596D01*
X7222569Y24516369D02*
X6725400Y24019200D01*
X7222569Y25683528D02*
X7222569Y24516369D01*
D58*
%TO.N,+12V*%
X5144000Y14151800D02*
X5144000Y15446471D01*
%TO.N,/P4-*%
X3356335Y21108000D02*
X3344000Y21108000D01*
%TO.N,+12V*%
X4919594Y16008040D02*
X4899634Y16028000D01*
%TO.N,/P4-*%
X6040806Y19571899D02*
X4892436Y19571899D01*
D55*
%TO.N,/P1 EN *%
X6725400Y24019200D02*
X6381804Y24019200D01*
D58*
%TO.N,/P4-*%
X6966342Y20497435D02*
X6040806Y19571899D01*
X11116435Y20497435D02*
X6966342Y20497435D01*
X11726000Y21107000D02*
X11116435Y20497435D01*
D55*
%TO.N,+3V3*%
X7935568Y26449168D02*
X7452788Y26449168D01*
X8017600Y26531200D02*
X7935568Y26449168D01*
%TO.N,/QSPI_SD2*%
X7458800Y15189800D02*
X7458800Y16424437D01*
D58*
%TO.N,/P4-*%
X4892436Y19571899D02*
X3356335Y21108000D01*
D55*
%TO.N,/QSPI_SCLK*%
X7458800Y23085772D02*
X7457081Y23087491D01*
%TO.N,/QSPI_SD3*%
X8728800Y22933254D02*
X8101908Y23560146D01*
X8728800Y22389800D02*
X8728800Y22933254D01*
D56*
%TO.N,GND*%
X8017600Y24981200D02*
X8017600Y24559350D01*
X8017600Y24559350D02*
X8227176Y24349774D01*
D55*
%TO.N,/QSPI_SDO*%
X6188800Y22909971D02*
X6664728Y23385899D01*
%TO.N,/QSPI_SCLK*%
X7458800Y22389800D02*
X7458800Y23085772D01*
%TO.N,/P1 EN *%
X8217600Y27940600D02*
X8217600Y29011430D01*
%TO.N,/QSPI_SDO*%
X6188800Y22389800D02*
X6188800Y22909971D01*
%TO.N,GND*%
X8817600Y31378100D02*
X8817600Y30002665D01*
%TO.N,/P1 EN *%
X8217600Y29011430D02*
X8328977Y29122807D01*
%TO.N,/P2 EN *%
X8617600Y27940600D02*
X8617600Y28473075D01*
X8617600Y28473075D02*
X9101125Y28956600D01*
%TO.N,GND*%
X8817600Y30002665D02*
X8663771Y29848836D01*
%TO.N,/P2 EN *%
X9101125Y28956600D02*
X9338400Y28956600D01*
%TO.N,GND*%
X8817600Y30368886D02*
X9436414Y29750072D01*
X8817600Y31378100D02*
X8817600Y30368886D01*
%TO.N,/P4 EN *%
X13975893Y20026000D02*
X15330500Y20026000D01*
X12640400Y21361493D02*
X13975893Y20026000D01*
X12244262Y23356600D02*
X12640400Y22960462D01*
X11359338Y23356600D02*
X12244262Y23356600D01*
X9541600Y26652452D02*
X9541600Y25174338D01*
X12640400Y22960462D02*
X12640400Y21361493D01*
X9017600Y27940600D02*
X9017600Y27176452D01*
X9017600Y27176452D02*
X9541600Y26652452D01*
X9541600Y25174338D02*
X11359338Y23356600D01*
%TO.N,/P2 EN *%
X13758000Y14885000D02*
X13758000Y15189800D01*
X13758000Y15189800D02*
X13554800Y15393000D01*
X15536000Y14631000D02*
X14012000Y14631000D01*
X14012000Y14631000D02*
X13758000Y14885000D01*
D56*
%TO.N,GND*%
X13504000Y23330000D02*
X12677400Y24156600D01*
X12677400Y24156600D02*
X11776800Y24156600D01*
D55*
%TO.N,/P3 EN *%
X16349500Y23216900D02*
X15312000Y22179400D01*
X16349500Y23918396D02*
X16349500Y23216900D01*
X15121296Y25146600D02*
X16349500Y23918396D01*
X15312000Y22179400D02*
X15312000Y21682000D01*
X9417600Y27342138D02*
X11613138Y25146600D01*
X11613138Y25146600D02*
X15121296Y25146600D01*
X9417600Y27940600D02*
X9417600Y27342138D01*
D56*
%TO.N,Net-(D2-A)*%
X16709007Y27033793D02*
X16709007Y27583325D01*
X16755200Y26987600D02*
X16709007Y27033793D01*
D55*
%TO.N,/QSPI_SS*%
X9948000Y15240600D02*
X9998800Y15189800D01*
X9948000Y16256600D02*
X9948000Y15240600D01*
D56*
%TO.N,GND*%
X13519844Y23330000D02*
X14263520Y22586324D01*
D55*
%TO.N,/QSPI_SD2*%
X13547881Y29155457D02*
X14839587Y29155457D01*
D56*
%TO.N,GND*%
X13504000Y23330000D02*
X13519844Y23330000D01*
D55*
%TO.N,/QSPI_SD2*%
X13125238Y29578100D02*
X13547881Y29155457D01*
X12255100Y29578100D02*
X13125238Y29578100D01*
%TO.N,/QSPI_SD1*%
X15266487Y28509000D02*
X15553968Y28796481D01*
X13628652Y28509000D02*
X15266487Y28509000D01*
X12959552Y29178100D02*
X13628652Y28509000D01*
X12255100Y29178100D02*
X12959552Y29178100D01*
%TO.N,/QSPI_SS*%
X12940700Y28092500D02*
X16043500Y28092500D01*
X12255100Y28778100D02*
X12940700Y28092500D01*
X16043500Y28092500D02*
X16145600Y28194600D01*
%TO.N,/QSPI_SD1*%
X8728800Y16205800D02*
X8678000Y16256600D01*
X8728800Y15189800D02*
X8728800Y16205800D01*
%TO.N,+1V1*%
X13278071Y30772400D02*
X12872371Y31178100D01*
X13694200Y30772400D02*
X13278071Y30772400D01*
X13694200Y30023400D02*
X13694200Y30772400D01*
X12872371Y31178100D02*
X12255100Y31178100D01*
%TO.N,/BRKOUT6*%
X5380100Y34257342D02*
X5596358Y34473600D01*
X5380100Y33978100D02*
X5380100Y34257342D01*
D58*
%TO.N,+12VA*%
X9084400Y7989200D02*
X9071400Y7976200D01*
X9084400Y9538000D02*
X9084400Y7989200D01*
D57*
%TO.N,/P1 EN *%
X15427800Y8358200D02*
X15566000Y8220000D01*
X13758000Y8358200D02*
X15427800Y8358200D01*
D55*
%TO.N,/I2C1 SCL*%
X14220200Y13333000D02*
X14654600Y13767400D01*
X14654600Y13767400D02*
X14774000Y13767400D01*
X14220200Y13193000D02*
X14220200Y13333000D01*
%TO.N,/I2C1 SDA*%
X13795200Y13921100D02*
X13859600Y13985500D01*
X13795200Y13288000D02*
X13795200Y13921100D01*
%TO.N,/P3 CONT *%
X21428800Y24866200D02*
X20616000Y25679000D01*
X21428800Y23659693D02*
X21428800Y24866200D01*
X19664107Y21895000D02*
X21428800Y23659693D01*
X18632893Y21895000D02*
X19664107Y21895000D01*
X18126800Y19658693D02*
X18126800Y21388907D01*
X17542107Y19074000D02*
X18126800Y19658693D01*
X14899000Y19074000D02*
X17542107Y19074000D01*
X12530886Y12637334D02*
X12530886Y16705886D01*
X13085220Y12083000D02*
X12530886Y12637334D01*
X13590200Y12083000D02*
X13085220Y12083000D01*
%TO.N,+3V3*%
X13215200Y12583000D02*
X13050200Y12748000D01*
X13590200Y12583000D02*
X13215200Y12583000D01*
X13050200Y13577516D02*
X13130386Y13657702D01*
%TO.N,/P3 CONT *%
X18126800Y21388907D02*
X18632893Y21895000D01*
%TO.N,+3V3*%
X13050200Y12748000D02*
X13050200Y13577516D01*
%TO.N,/P3 CONT *%
X12530886Y16705886D02*
X14899000Y19074000D01*
%TO.N,/I2C1 SDA*%
X13590200Y13083000D02*
X13795200Y13288000D01*
D57*
%TO.N,GND*%
X20616000Y24029000D02*
X20616000Y23694716D01*
X20616000Y23694716D02*
X20452942Y23531658D01*
D55*
%TO.N,/P4 CONT *%
X10951000Y13017893D02*
X10951000Y14300000D01*
X13590200Y11583000D02*
X12385893Y11583000D01*
X12385893Y11583000D02*
X10951000Y13017893D01*
D57*
%TO.N,GND*%
X11550500Y13600500D02*
X11550500Y13689447D01*
X11726000Y13425000D02*
X11550500Y13600500D01*
D55*
%TO.N,/P4 CONT *%
X10951000Y14300000D02*
X11726000Y15075000D01*
%TO.N,/P2 CONT *%
X18444600Y11163693D02*
X18444600Y11482200D01*
X18444600Y11482200D02*
X19244400Y12282000D01*
X18151707Y10870800D02*
X18444600Y11163693D01*
X14850200Y11583000D02*
X15562400Y10870800D01*
X15562400Y10870800D02*
X18151707Y10870800D01*
%TO.N,GND*%
X16196400Y11620800D02*
X16806000Y11620800D01*
D57*
X17619600Y11620800D02*
X16806000Y11620800D01*
X14631800Y10120000D02*
X14520000Y10008200D01*
D55*
%TO.N,/P1 CONT *%
X12983000Y7951093D02*
X14002093Y6932000D01*
X15933000Y6932000D02*
X16235000Y6630000D01*
X13275893Y10708200D02*
X12983000Y10415307D01*
X13595400Y10708200D02*
X13275893Y10708200D01*
X12983000Y10415307D02*
X12983000Y7951093D01*
X14220200Y11333000D02*
X13595400Y10708200D01*
X14002093Y6932000D02*
X15933000Y6932000D01*
X14220200Y11473000D02*
X14220200Y11333000D01*
D57*
%TO.N,+12V*%
X4513000Y6858000D02*
X2701968Y6858000D01*
X5884000Y5487000D02*
X4513000Y6858000D01*
D58*
%TO.N,+12P*%
X5606900Y9297000D02*
X5606900Y7121364D01*
X5606900Y7121364D02*
X5599666Y7114130D01*
D57*
%TO.N,+12V*%
X594499Y13278499D02*
X3344000Y16028000D01*
X594499Y8965469D02*
X594499Y13278499D01*
X2701968Y6858000D02*
X594499Y8965469D01*
D58*
%TO.N,+BATT*%
X2455000Y13488000D02*
X3344000Y13488000D01*
X1544000Y12577000D02*
X2455000Y13488000D01*
X1544000Y9358766D02*
X1544000Y12577000D01*
X2494766Y8408000D02*
X1544000Y9358766D01*
X3344000Y8408000D02*
X2494766Y8408000D01*
D57*
%TO.N,+12V*%
X20132800Y6731000D02*
X19600000Y6198200D01*
X22928000Y6731000D02*
X20132800Y6731000D01*
X22928000Y23985800D02*
X22928000Y6731000D01*
X22698800Y24215000D02*
X22928000Y23985800D01*
D58*
%TO.N,/P1 CONT *%
X16371519Y5242519D02*
X16235000Y5106000D01*
X16371519Y6493481D02*
X16371519Y5242519D01*
%TO.N,GND*%
X15104994Y5882000D02*
X15172019Y5814975D01*
%TO.N,/P1 CONT *%
X16235000Y6630000D02*
X16371519Y6493481D01*
%TO.N,GND*%
X10621400Y7976200D02*
X10793500Y7804100D01*
X10793500Y7804100D02*
X10926555Y7804100D01*
X13860000Y5882000D02*
X15104994Y5882000D01*
D57*
X2036800Y30608300D02*
X2315500Y30887000D01*
X2036800Y29740700D02*
X2036800Y30608300D01*
X2416600Y31598200D02*
X2315500Y31497100D01*
X2315500Y31497100D02*
X2315500Y30887000D01*
%TO.N,Net-(D4-A)*%
X804000Y31598200D02*
X1261200Y32055400D01*
X804000Y31433600D02*
X804000Y31598200D01*
D56*
%TO.N,GND*%
X4652600Y37186200D02*
X3745487Y37186200D01*
X3745487Y37186200D02*
X3659400Y37272287D01*
%TO.N,+3V3*%
X3728266Y41681400D02*
X3684022Y41637156D01*
X5325200Y41681400D02*
X3728266Y41681400D01*
D55*
%TO.N,/BRKOUT7*%
X6217600Y35527036D02*
X6166231Y35578405D01*
X6217600Y34815600D02*
X6217600Y35527036D01*
%TO.N,/BUZZER*%
X7417600Y34815600D02*
X7417600Y34179400D01*
X7417600Y34179400D02*
X7763600Y33833400D01*
%TO.N,/BRKOUT1*%
X9417600Y34263393D02*
X9417600Y34815600D01*
X9032807Y33878600D02*
X9417600Y34263393D01*
%TO.N,+3V3*%
X12081600Y36573537D02*
X11910157Y36744980D01*
X12081600Y36258800D02*
X12081600Y36573537D01*
%TO.N,/I2C1 SDA*%
X14805988Y39487299D02*
X14373632Y39919655D01*
X14923600Y39487299D02*
X14805988Y39487299D01*
D59*
%TO.N,+3V3*%
X17212276Y42758299D02*
X17302789Y42848812D01*
X16923600Y42758299D02*
X17212276Y42758299D01*
D56*
X8830400Y45822200D02*
X7966800Y46685800D01*
X8830400Y45758400D02*
X8830400Y45822200D01*
%TO.N,GND*%
X9230200Y48355800D02*
X8830400Y48755600D01*
X10925600Y48355800D02*
X9230200Y48355800D01*
D57*
%TO.N,+3V3*%
X11421200Y42938800D02*
X13072199Y42938800D01*
D55*
%TO.N,/I2C1 SCL*%
X13072200Y41288799D02*
X14691299Y42907898D01*
X14691299Y42907898D02*
X14691299Y44391099D01*
X12281701Y40498300D02*
X11776800Y40498300D01*
X11776800Y40498300D02*
X9061800Y40498300D01*
%TO.N,/I2C1 SDA*%
X10748600Y41288800D02*
X10557600Y41097800D01*
X11421200Y41288800D02*
X10748600Y41288800D01*
%TO.N,/I2C1 SCL*%
X9061800Y40498300D02*
X8107200Y41452900D01*
X13072200Y41288799D02*
X12281701Y40498300D01*
%TO.N,/I2C1 SDA*%
X10244600Y42465400D02*
X11421200Y41288800D01*
X8119700Y42465400D02*
X10244600Y42465400D01*
%TO.N,/I2C1 SCL*%
X8617600Y34815600D02*
X8617600Y35444958D01*
X8617600Y35444958D02*
X10354400Y37181758D01*
%TO.N,/I2C1 SDA*%
X13745600Y45955800D02*
X13745600Y45454200D01*
%TO.N,/I2C1 SCL*%
X13125301Y44391099D02*
X14691299Y44391099D01*
X12335600Y45180800D02*
X13125301Y44391099D01*
X12335600Y45655800D02*
X12335600Y45180800D01*
%TO.N,/I2C1 SDA*%
X13745600Y45454200D02*
X13504000Y45212600D01*
X15683400Y46508200D02*
X16158400Y46508200D01*
X15131000Y45955800D02*
X15683400Y46508200D01*
X13745600Y45955800D02*
X15131000Y45955800D01*
%TO.N,/I2C1 SCL*%
X14691299Y44391099D02*
X16158400Y45858200D01*
D59*
%TO.N,+3V3*%
X16629299Y44095000D02*
X17444800Y43279499D01*
X15117800Y42731236D02*
X15117800Y43758145D01*
X15454655Y44095000D02*
X16629299Y44095000D01*
X14923600Y41887299D02*
X14923600Y42537035D01*
X15117800Y43758145D02*
X15454655Y44095000D01*
%TO.N,GND*%
X15894800Y42866889D02*
X15894800Y43279499D01*
X15423600Y41887299D02*
X15423600Y42395689D01*
X15423600Y42395689D02*
X15894800Y42866889D01*
%TO.N,+3V3*%
X14923600Y42537035D02*
X15117800Y42731236D01*
D55*
%TO.N,/I2C1 SCL*%
X14513600Y40687299D02*
X13673700Y40687299D01*
X13673700Y40687299D02*
X13072200Y41288799D01*
%TO.N,GND*%
X2036800Y28739800D02*
X2036800Y29740700D01*
X2074000Y28702600D02*
X2036800Y28739800D01*
X4598700Y28702600D02*
X2074000Y28702600D01*
X4642600Y30173075D02*
X4642600Y28746500D01*
X4642600Y28746500D02*
X4598700Y28702600D01*
X4847625Y30378100D02*
X4642600Y30173075D01*
X5380100Y30378100D02*
X4847625Y30378100D01*
%TO.N,/XIN*%
X4555900Y30778100D02*
X5380100Y30778100D01*
X3736800Y29959000D02*
X4555900Y30778100D01*
X3736800Y29740700D02*
X3736800Y29959000D01*
%TO.N,/LEDRED*%
X4766400Y27113469D02*
X4836301Y27043568D01*
X5380100Y28778100D02*
X4766400Y28164400D01*
X4766400Y28164400D02*
X4766400Y27113469D01*
%TO.N,/LEDGREEN*%
X6290038Y28877600D02*
X6578402Y28877600D01*
X5380100Y29178100D02*
X5989538Y29178100D01*
X5989538Y29178100D02*
X6290038Y28877600D01*
%TO.N,/LEDBLUE*%
X6125557Y29578100D02*
X6281812Y29734355D01*
X5380100Y29578100D02*
X6125557Y29578100D01*
D56*
%TO.N,GND*%
X17060000Y18124000D02*
X15332500Y18124000D01*
X15332500Y18124000D02*
X15330500Y18126000D01*
D57*
X14574800Y16531000D02*
X14570800Y16535000D01*
X15536000Y16531000D02*
X14574800Y16531000D01*
X13758000Y16535000D02*
X14570800Y16535000D01*
X17669600Y11570800D02*
X17619600Y11620800D01*
D55*
X15734200Y12083000D02*
X16196400Y11620800D01*
X14850200Y12083000D02*
X15734200Y12083000D01*
%TO.N,+3V3*%
X15397400Y13083000D02*
X15485200Y13170800D01*
X14850200Y13083000D02*
X16108600Y13083000D01*
D57*
X13072199Y42938800D02*
X13072200Y42938799D01*
D55*
X3416900Y31598200D02*
X3366100Y31547400D01*
X3966600Y31598200D02*
X3416900Y31598200D01*
D57*
X2036800Y27540700D02*
X3736800Y27540700D01*
X1176218Y33083600D02*
X1420143Y33327525D01*
X804000Y33083600D02*
X1176218Y33083600D01*
%TO.N,GND*%
X2661200Y34659200D02*
X2328000Y34326000D01*
X3953600Y34659200D02*
X2661200Y34659200D01*
D58*
%TO.N,+3V3*%
X13860000Y3582000D02*
X16285000Y3582000D01*
D57*
%TO.N,/P2 CONT *%
X18608400Y12282000D02*
X17669600Y13220800D01*
X19244400Y12282000D02*
X18608400Y12282000D01*
%TO.N,GND*%
X14631800Y10120000D02*
X15566000Y10120000D01*
X13758000Y10008200D02*
X14520000Y10008200D01*
%TO.N,VBUS*%
X21326400Y33376200D02*
X21144000Y33558600D01*
X21326400Y27687400D02*
X21326400Y33376200D01*
X22698800Y26315000D02*
X21326400Y27687400D01*
X21144000Y33558600D02*
X20076400Y33558600D01*
%TO.N,/P4 CONT *%
X11726000Y16473000D02*
X11726000Y15075000D01*
D58*
%TO.N,+12VA*%
X13010000Y1282000D02*
X13860000Y1282000D01*
X9071400Y7976200D02*
X9260000Y7787600D01*
X9260000Y7787600D02*
X9260000Y5032000D01*
X9260000Y5032000D02*
X13010000Y1282000D01*
%TO.N,GND*%
X21418000Y3582000D02*
X22000000Y3000000D01*
X17835000Y3582000D02*
X21418000Y3582000D01*
X17885000Y1600000D02*
X17708000Y1423000D01*
X17885000Y5106000D02*
X17885000Y1600000D01*
%TO.N,+12VA*%
X8843400Y9297000D02*
X9084400Y9538000D01*
X7481900Y9297000D02*
X8843400Y9297000D01*
%TO.N,GND*%
X8917300Y11255100D02*
X9084400Y11088000D01*
X7469000Y11255100D02*
X8917300Y11255100D01*
%TO.N,+12P*%
X5569000Y9334900D02*
X5606900Y9297000D01*
X5569000Y11255100D02*
X5569000Y9334900D01*
%TO.N,Net-(Q5-D)*%
X11726000Y19457000D02*
X11726000Y18123000D01*
X12107000Y19076000D02*
X11726000Y19457000D01*
X13455500Y19076000D02*
X12107000Y19076000D01*
%TO.N,Net-(Q4-D)*%
X19092000Y22822000D02*
X18965000Y22695000D01*
X19092000Y24029000D02*
X19092000Y22822000D01*
X18965000Y22695000D02*
X17250000Y22695000D01*
X17250000Y22695000D02*
X17187000Y22632000D01*
%TO.N,/P3-*%
X21314000Y21045000D02*
X21378000Y20981000D01*
X18965000Y21045000D02*
X21314000Y21045000D01*
%TO.N,+12VA*%
X16017000Y1282000D02*
X16158000Y1423000D01*
X13860000Y1282000D02*
X16017000Y1282000D01*
%TO.N,Net-(Q3-D)*%
X19219000Y9170000D02*
X17441000Y9170000D01*
%TO.N,/P1-*%
X19220000Y10821000D02*
X19219000Y10820000D01*
X21378000Y10821000D02*
X19220000Y10821000D01*
%TO.N,Net-(Q2-D)*%
X17446600Y15545400D02*
X17411000Y15581000D01*
X18939600Y15545400D02*
X17446600Y15545400D01*
X19219000Y15266000D02*
X18939600Y15545400D01*
X19244400Y15240600D02*
X19219000Y15266000D01*
X19244400Y13932000D02*
X19244400Y15240600D01*
%TO.N,/P2-*%
X20363000Y16916000D02*
X21378000Y15901000D01*
X19219000Y16916000D02*
X20363000Y16916000D01*
D56*
%TO.N,+3V3*%
X11566800Y22396600D02*
X11776800Y22606600D01*
X9821000Y22396600D02*
X11566800Y22396600D01*
%TO.N,/P4 EN *%
X16808000Y20026000D02*
X17060000Y19774000D01*
X15330500Y20026000D02*
X16808000Y20026000D01*
%TO.N,/P3 CONT *%
X20616000Y25679000D02*
X19092000Y25679000D01*
%TO.N,/P3 EN *%
X15310000Y21680000D02*
X15312000Y21682000D01*
X13504000Y21680000D02*
X15310000Y21680000D01*
%TO.N,GND*%
X13756000Y23582000D02*
X13504000Y23330000D01*
X15312000Y23582000D02*
X13756000Y23582000D01*
%TO.N,+3V3*%
X16577845Y25337600D02*
X15981445Y25934000D01*
X16755200Y25337600D02*
X16577845Y25337600D01*
%TO.N,GND*%
X13009000Y27216400D02*
X12996000Y27229400D01*
X13009000Y26518200D02*
X13009000Y27216400D01*
D55*
X19163600Y30958600D02*
X19092000Y30887000D01*
X20066400Y30958600D02*
X19163600Y30958600D01*
D56*
%TO.N,/USB_D+*%
X18393000Y31699800D02*
X18951800Y32258600D01*
X18951800Y32258600D02*
X20076400Y32258600D01*
%TO.N,/USB_D-*%
X18708200Y32908600D02*
X18393000Y33223800D01*
X20076400Y32908600D02*
X18708200Y32908600D01*
%TO.N,GND*%
X15257200Y31547400D02*
X15257200Y30036400D01*
X15345800Y35154200D02*
X15345800Y33630200D01*
D57*
%TO.N,+12VA*%
X3928199Y39406000D02*
X4678000Y38656199D01*
X2328000Y39406000D02*
X3928199Y39406000D01*
D56*
%TO.N,GND*%
X7929000Y40132600D02*
X7328500Y40132600D01*
%TO.N,+3V3*%
X8493502Y44247400D02*
X8271600Y44025498D01*
X8843400Y44247400D02*
X8493502Y44247400D01*
%TO.N,GND*%
X7607200Y41895400D02*
X7607200Y41452900D01*
X8119700Y41965400D02*
X7677200Y41965400D01*
X7677200Y41965400D02*
X7607200Y41895400D01*
%TO.N,Net-(U5-C1)*%
X6607200Y40360800D02*
X6379000Y40132600D01*
X6607200Y41452900D02*
X6607200Y40360800D01*
%TO.N,GND*%
X7293400Y44247400D02*
X6341200Y44247400D01*
X6341200Y44247400D02*
X5325200Y43231400D01*
X7607200Y43933600D02*
X7607200Y42977900D01*
X7293400Y44247400D02*
X7607200Y43933600D01*
%TO.N,+3V3*%
X8107200Y43511200D02*
X8843400Y44247400D01*
X8107200Y42977900D02*
X8107200Y43511200D01*
X5609200Y41965400D02*
X5325200Y41681400D01*
X6594700Y41965400D02*
X5609200Y41965400D01*
X6594700Y42465400D02*
X6594700Y41965400D01*
%TO.N,GND*%
X7107200Y41452900D02*
X7607200Y41452900D01*
X7929000Y40132600D02*
X7607200Y40454400D01*
X7607200Y40454400D02*
X7607200Y41452900D01*
%TO.N,+3V3*%
X16533400Y47168200D02*
X17183400Y47818200D01*
X16158400Y47168200D02*
X16533400Y47168200D01*
X17183400Y47818200D02*
X17758400Y47818200D01*
%TO.N,GND*%
X19681773Y45263200D02*
X20412800Y45994227D01*
X17758400Y45858200D02*
X18353400Y45263200D01*
%TO.N,+3V3*%
X19563240Y46063200D02*
X19740520Y46240480D01*
%TO.N,GND*%
X18353400Y45263200D02*
X19681773Y45263200D01*
X20412800Y45994227D02*
X20412800Y47092200D01*
X20412800Y47092200D02*
X19904800Y47600200D01*
%TO.N,+3V3*%
X19193600Y46063200D02*
X19563240Y46063200D01*
%TO.N,GND*%
X19891800Y47613200D02*
X19904800Y47600200D01*
X19193600Y47613200D02*
X19891800Y47613200D01*
%TO.N,+3V3*%
X17733400Y49109400D02*
X17733400Y49746800D01*
X17733400Y49746800D02*
X17771200Y49784600D01*
%TO.N,GND*%
X16158400Y48311400D02*
X16158400Y49822600D01*
X16158400Y48311400D02*
X16158400Y49084400D01*
X16158400Y49822600D02*
X16145600Y49835400D01*
X16158400Y47818200D02*
X16158400Y48311400D01*
X14124000Y53620000D02*
X11516999Y53620000D01*
%TO.N,+3V3*%
X6265000Y54128000D02*
X6188800Y54204200D01*
X6814313Y54128000D02*
X6265000Y54128000D01*
X8830400Y50305600D02*
X8830400Y49705100D01*
%TO.N,GND*%
X12335600Y46939800D02*
X12437200Y47041400D01*
X12335600Y46780800D02*
X12335600Y46939800D01*
X12335600Y46780800D02*
X13720600Y46780800D01*
X10950600Y46780800D02*
X12335600Y46780800D01*
%TO.N,+3V3*%
X9027800Y45955800D02*
X8830400Y45758400D01*
X10925600Y45955800D02*
X9027800Y45955800D01*
X9655400Y46583400D02*
X8830400Y45758400D01*
X9655400Y46958773D02*
X9655400Y46583400D01*
X10252427Y47555800D02*
X9655400Y46958773D01*
X10925600Y47555800D02*
X10252427Y47555800D01*
%TO.N,GND*%
X13745600Y47555800D02*
X13745600Y46755800D01*
X13720600Y46780800D02*
X13745600Y46755800D01*
X10925600Y46755800D02*
X10950600Y46780800D01*
X9877800Y48355800D02*
X8830400Y47308400D01*
X10925600Y48355800D02*
X9877800Y48355800D01*
X9230600Y49155800D02*
X8830400Y48755600D01*
X10925600Y49155800D02*
X9230600Y49155800D01*
%TO.N,+3V3*%
X12035600Y49955800D02*
X12335600Y50255800D01*
X10925600Y49955800D02*
X12035600Y49955800D01*
X9180200Y49955800D02*
X8830400Y50305600D01*
X10925600Y49955800D02*
X9180200Y49955800D01*
%TO.N,/BOOTSEL*%
X17213400Y53620000D02*
X17771200Y54177800D01*
X15424000Y53620000D02*
X17213400Y53620000D01*
%TO.N,/RUN*%
X8464313Y54128000D02*
X9708999Y54128000D01*
X9708999Y54128000D02*
X10216999Y53620000D01*
%TO.N,GND*%
X16158400Y49084400D02*
X16183400Y49109400D01*
%TO.N,+3V3*%
X17758400Y49084400D02*
X17733400Y49109400D01*
X17758400Y47818200D02*
X17758400Y49084400D01*
%TO.N,GND*%
X18748600Y47168200D02*
X19193600Y47613200D01*
X17758400Y47168200D02*
X18748600Y47168200D01*
%TO.N,+3V3*%
X18748600Y46508200D02*
X19193600Y46063200D01*
X17758400Y46508200D02*
X18748600Y46508200D01*
D59*
%TO.N,GND*%
X16423600Y42621800D02*
X16423600Y42750699D01*
X16423600Y42621800D02*
X16158201Y42621800D01*
X16423600Y41887299D02*
X16423600Y42621800D01*
X16158201Y42621800D02*
X15993200Y42786801D01*
X16423600Y42750699D02*
X15894800Y43279499D01*
%TO.N,+3V3*%
X16923600Y42758299D02*
X17444800Y43279499D01*
X16923600Y41887299D02*
X16923600Y42758299D01*
%TO.N,GND*%
X16779000Y37197000D02*
X17581000Y37999000D01*
X15254000Y37315800D02*
X15372800Y37197000D01*
X15372800Y37197000D02*
X16779000Y37197000D01*
X15254000Y38477646D02*
X15254000Y37315800D01*
X15423600Y38647246D02*
X15254000Y38477646D01*
X15423600Y39487299D02*
X15423600Y38647246D01*
%TO.N,+3V3*%
X15991501Y40234200D02*
X15923600Y40166299D01*
X15923600Y40166299D02*
X15923600Y39487299D01*
X17423600Y39487299D02*
X17423600Y40166299D01*
X17423600Y40166299D02*
X17355699Y40234200D01*
X17355699Y40234200D02*
X15991501Y40234200D01*
X16580700Y37999000D02*
X16631500Y37948200D01*
X16031000Y37999000D02*
X16580700Y37999000D01*
%TO.N,GND*%
X17923600Y38303800D02*
X18228400Y37999000D01*
X17923600Y38659400D02*
X17923600Y38303800D01*
X17923600Y38659400D02*
X17923600Y38341600D01*
X17923600Y39487299D02*
X17923600Y38659400D01*
X17923600Y38341600D02*
X17581000Y37999000D01*
%TO.N,+3V3*%
X15923600Y38106400D02*
X16031000Y37999000D01*
X15923600Y39487299D02*
X15923600Y38106400D01*
D55*
X7966800Y36363372D02*
X7482866Y36847306D01*
X7966800Y36208000D02*
X7966800Y36363372D01*
X13795800Y35154200D02*
X14396300Y35154200D01*
X11459000Y26518200D02*
X12059500Y26518200D01*
X11417600Y27940600D02*
X11417600Y26559600D01*
X7817600Y26731200D02*
X8017600Y26531200D01*
X7817600Y27940600D02*
X7817600Y26731200D01*
X3986700Y31578100D02*
X5380100Y31578100D01*
X3966600Y31598200D02*
X3986700Y31578100D01*
%TO.N,+1V1*%
X4847625Y31978100D02*
X5380100Y31978100D01*
X3953600Y33109200D02*
X3953600Y32872125D01*
%TO.N,+3V3*%
X7817600Y36058800D02*
X7966800Y36208000D01*
X7817600Y34815600D02*
X7817600Y36058800D01*
X11417600Y35594800D02*
X12081600Y36258800D01*
X11417600Y34815600D02*
X11417600Y35594800D01*
X13676500Y31578100D02*
X13707200Y31547400D01*
X12255100Y31578100D02*
X13676500Y31578100D01*
%TO.N,+1V1*%
X13343700Y33178100D02*
X13795800Y33630200D01*
%TO.N,+3V3*%
X12619700Y33978100D02*
X12837100Y34195500D01*
X12837100Y34195500D02*
X13795800Y35154200D01*
X12255100Y33978100D02*
X12619700Y33978100D01*
%TD*%
M02*
