%TF.GenerationSoftware,KiCad,Pcbnew,(7.0.0)*%
%TF.CreationDate,2023-12-17T22:30:30-08:00*%
%TF.ProjectId,Lyrav3,4c797261-7633-42e6-9b69-6361645f7063,rev?*%
%TF.SameCoordinates,Original*%
%TF.FileFunction,Copper,L1,Top*%
%TF.FilePolarity,Positive*%
%FSLAX46Y46*%
G04 Gerber Fmt 4.6, Leading zero omitted, Abs format (unit mm)*
G04 Created by KiCad (PCBNEW (7.0.0)) date 2023-12-17 22:30:30*
%MOMM*%
%LPD*%
G01*
G04 APERTURE LIST*
G04 Aperture macros list*
%AMRoundRect*
0 Rectangle with rounded corners*
0 $1 Rounding radius*
0 $2 $3 $4 $5 $6 $7 $8 $9 X,Y pos of 4 corners*
0 Add a 4 corners polygon primitive as box body*
4,1,4,$2,$3,$4,$5,$6,$7,$8,$9,$2,$3,0*
0 Add four circle primitives for the rounded corners*
1,1,$1+$1,$2,$3*
1,1,$1+$1,$4,$5*
1,1,$1+$1,$6,$7*
1,1,$1+$1,$8,$9*
0 Add four rect primitives between the rounded corners*
20,1,$1+$1,$2,$3,$4,$5,0*
20,1,$1+$1,$4,$5,$6,$7,0*
20,1,$1+$1,$6,$7,$8,$9,0*
20,1,$1+$1,$8,$9,$2,$3,0*%
G04 Aperture macros list end*
%TA.AperFunction,SMDPad,CuDef*%
%ADD10R,3.400000X1.300000*%
%TD*%
%TA.AperFunction,SMDPad,CuDef*%
%ADD11RoundRect,0.243750X0.456250X-0.243750X0.456250X0.243750X-0.456250X0.243750X-0.456250X-0.243750X0*%
%TD*%
%TA.AperFunction,ComponentPad*%
%ADD12C,5.600000*%
%TD*%
%TA.AperFunction,ComponentPad*%
%ADD13R,1.700000X1.700000*%
%TD*%
%TA.AperFunction,ComponentPad*%
%ADD14O,1.700000X1.700000*%
%TD*%
%TA.AperFunction,SMDPad,CuDef*%
%ADD15R,1.000000X0.800000*%
%TD*%
%TA.AperFunction,ComponentPad*%
%ADD16R,2.200000X2.200000*%
%TD*%
%TA.AperFunction,ComponentPad*%
%ADD17C,2.200000*%
%TD*%
%TA.AperFunction,ComponentPad*%
%ADD18R,1.350000X1.350000*%
%TD*%
%TA.AperFunction,ComponentPad*%
%ADD19O,1.350000X1.350000*%
%TD*%
%TA.AperFunction,ComponentPad*%
%ADD20O,1.400000X1.200000*%
%TD*%
%TA.AperFunction,ComponentPad*%
%ADD21O,1.900000X1.200000*%
%TD*%
%TA.AperFunction,ViaPad*%
%ADD22C,0.600000*%
%TD*%
%TA.AperFunction,ViaPad*%
%ADD23C,0.700000*%
%TD*%
%TA.AperFunction,ViaPad*%
%ADD24C,1.000000*%
%TD*%
%TA.AperFunction,Conductor*%
%ADD25C,0.200000*%
%TD*%
%TA.AperFunction,Conductor*%
%ADD26C,0.750000*%
%TD*%
%TA.AperFunction,Conductor*%
%ADD27C,0.300000*%
%TD*%
%TA.AperFunction,Conductor*%
%ADD28C,1.000000*%
%TD*%
%TA.AperFunction,Conductor*%
%ADD29C,0.500000*%
%TD*%
G04 APERTURE END LIST*
D10*
%TO.P,LS1,2,-*%
%TO.N,GND*%
X9693999Y45428999D03*
%TO.P,LS1,1,+*%
%TO.N,/BUZZER*%
X9693999Y36728999D03*
%TD*%
D11*
%TO.P,D2,1,K*%
%TO.N,GND*%
X16704400Y24996500D03*
%TO.P,D2,2,A*%
%TO.N,Net-(D2-A)*%
X16704400Y26871500D03*
%TD*%
D12*
%TO.P,H3,1,1*%
%TO.N,GND*%
X3000000Y3000000D03*
%TD*%
D13*
%TO.P,J8,1,Pin_1*%
%TO.N,/BRKOUT1*%
X22647999Y47015999D03*
D14*
%TO.P,J8,2,Pin_2*%
%TO.N,/BRKOUT2*%
X22647999Y44475999D03*
%TO.P,J8,3,Pin_3*%
%TO.N,/BRKOUT3*%
X22647999Y41935999D03*
%TO.P,J8,4,Pin_4*%
%TO.N,/BRKOUT4*%
X22647999Y39395999D03*
%TD*%
D12*
%TO.P,H1,1,1*%
%TO.N,GND*%
X3000000Y52000000D03*
%TD*%
%TO.P,H2,1,1*%
%TO.N,GND*%
X22000000Y52000000D03*
%TD*%
D15*
%TO.P,D4,1,A*%
%TO.N,Net-(D4-A)*%
X4078899Y28980199D03*
%TO.P,D4,2,RK*%
%TO.N,/LEDRED*%
X4078899Y27880199D03*
%TO.P,D4,3,GK*%
%TO.N,/LEDGREEN*%
X5578899Y27880199D03*
%TO.P,D4,4,BK*%
%TO.N,/LEDBLUE*%
X5578899Y28980199D03*
%TD*%
D12*
%TO.P,H4,1,1*%
%TO.N,GND*%
X22000000Y3000000D03*
%TD*%
D16*
%TO.P,J2,1,Pin_1*%
%TO.N,/P4-*%
X3343999Y21107999D03*
D17*
%TO.P,J2,2,Pin_2*%
%TO.N,+12P*%
X3344000Y18568000D03*
%TO.P,J2,3,Pin_3*%
%TO.N,+12V*%
X3344000Y16028000D03*
%TO.P,J2,4,Pin_4*%
%TO.N,+BATT*%
X3344000Y13488000D03*
%TO.P,J2,5,Pin_5*%
%TO.N,GND*%
X3344000Y10948000D03*
%TO.P,J2,6,Pin_6*%
%TO.N,+BATT*%
X3344000Y8408000D03*
%TD*%
D16*
%TO.P,J9,1,Pin_1*%
%TO.N,+12P*%
X21377999Y8280999D03*
D17*
%TO.P,J9,2,Pin_2*%
%TO.N,/P1-*%
X21378000Y10821000D03*
%TO.P,J9,3,Pin_3*%
%TO.N,+12P*%
X21378000Y13361000D03*
%TO.P,J9,4,Pin_4*%
%TO.N,/P2-*%
X21378000Y15901000D03*
%TO.P,J9,5,Pin_5*%
%TO.N,+12P*%
X21378000Y18441000D03*
%TO.P,J9,6,Pin_6*%
%TO.N,/P3-*%
X21378000Y20981000D03*
%TD*%
D13*
%TO.P,J6,1,Pin_1*%
%TO.N,/BRKOUT7*%
X2327999Y47025999D03*
D14*
%TO.P,J6,2,Pin_2*%
%TO.N,/BRKOUT6*%
X2327999Y44485999D03*
%TO.P,J6,3,Pin_3*%
%TO.N,/BRKOUT5*%
X2327999Y41945999D03*
%TO.P,J6,4,Pin_4*%
%TO.N,+12VA*%
X2327999Y39405999D03*
%TO.P,J6,5,Pin_5*%
%TO.N,+3V3*%
X2327999Y36865999D03*
%TO.P,J6,6,Pin_6*%
%TO.N,GND*%
X2327999Y34325999D03*
%TD*%
D18*
%TO.P,J5,1,Pin_1*%
%TO.N,/SWCLK*%
X5750399Y24994199D03*
D19*
%TO.P,J5,2,Pin_2*%
%TO.N,GND*%
X3750399Y24994199D03*
%TO.P,J5,3,Pin_3*%
%TO.N,/SWD*%
X1750399Y24994199D03*
%TD*%
D20*
%TO.P,J7,6,Shield*%
%TO.N,unconnected-(J7-Shield-Pad6)*%
X19826399Y29838599D03*
%TO.P,J7,7*%
%TO.N,N/C*%
X19826399Y34678599D03*
D21*
%TO.P,J7,8*%
X22726399Y35858599D03*
%TO.P,J7,9*%
X22726399Y28658599D03*
%TD*%
D22*
%TO.N,/BATT SENSE *%
X6849200Y38964200D03*
X10913200Y38354600D03*
%TO.N,/SWD*%
X6718098Y31852200D03*
%TO.N,/SWCLK*%
X6341200Y31039400D03*
%TO.N,+1V1*%
X4451610Y32524436D03*
X13199200Y33325400D03*
X11156011Y31797270D03*
%TO.N,/QSPI_SS*%
X20108000Y37592600D03*
%TO.N,/I2C1 SDA*%
X13148400Y37948200D03*
X17493683Y34181260D03*
%TO.N,/I2C1 SCL*%
X18380800Y34239800D03*
%TO.N,/P1 EN *%
X5934800Y20879400D03*
X7222569Y25683528D03*
X8328977Y29122807D03*
%TO.N,/P2 EN *%
X9338400Y28956600D03*
X13554800Y15393000D03*
%TO.N,/QSPI_SS*%
X9948000Y16256600D03*
X16145600Y28194600D03*
%TO.N,/QSPI_SD1*%
X8678000Y16256600D03*
X15553968Y28796481D03*
%TO.N,/QSPI_SD2*%
X7649483Y16615120D03*
X14839587Y29155457D03*
%TO.N,/QSPI_SDO*%
X11218000Y28905800D03*
X6664728Y23385899D03*
%TO.N,/QSPI_SCLK*%
X11063903Y30195362D03*
X7457081Y23087491D03*
%TO.N,/QSPI_SD3*%
X8101908Y23560146D03*
X10964000Y30988598D03*
D23*
%TO.N,+12VA*%
X9084400Y8839800D03*
D22*
%TO.N,/P1 EN *%
X14418400Y8358200D03*
%TO.N,/I2C1 SCL*%
X14774000Y13767400D03*
%TO.N,/I2C1 SDA*%
X13859600Y13985500D03*
%TO.N,+3V3*%
X13130386Y13657702D03*
%TO.N,GND*%
X16806000Y11620800D03*
X14520000Y10008200D03*
%TO.N,+12V*%
X5884000Y5487000D03*
X19600000Y6198200D03*
D24*
%TO.N,+12P*%
X5599666Y7114130D03*
D22*
%TO.N,/BRKOUT5*%
X6341200Y33874100D03*
%TO.N,/BRKOUT6*%
X5596358Y34473600D03*
%TO.N,/BRKOUT7*%
X6166231Y35578405D03*
%TO.N,/BUZZER*%
X7763600Y33833400D03*
%TO.N,/BRKOUT1*%
X9032807Y33878600D03*
%TO.N,/BRKOUT2*%
X9862179Y33844330D03*
%TO.N,+3V3*%
X13148400Y31726899D03*
%TO.N,/BRKOUT3*%
X10643786Y33676116D03*
%TO.N,/BRKOUT4*%
X11268828Y32588772D03*
%TO.N,GND*%
X9846400Y44298200D03*
X9490800Y48355800D03*
%TO.N,/I2C1 SDA*%
X14373632Y39919655D03*
%TO.N,+3V3*%
X12386400Y42938800D03*
%TO.N,/I2C1 SDA*%
X9714200Y38954100D03*
X10557600Y41097800D03*
X13504000Y45212600D03*
%TO.N,GND*%
X9436414Y29750072D03*
X8663771Y29848836D03*
X9511379Y32594079D03*
X8740913Y32624300D03*
%TO.N,/LEDRED*%
X4836301Y27043568D03*
%TO.N,/LEDGREEN*%
X6578402Y28877600D03*
%TO.N,/LEDBLUE*%
X6281812Y29734355D03*
%TO.N,GND*%
X16298000Y18124000D03*
X14570800Y16535000D03*
%TO.N,+3V3*%
X15485200Y13083000D03*
X3366100Y31547400D03*
X2988400Y27540700D03*
%TO.N,GND*%
X2315500Y30887000D03*
%TO.N,Net-(D4-A)*%
X1261200Y32055400D03*
%TO.N,+3V3*%
X1420143Y33327525D03*
D24*
X15332800Y3582000D03*
D22*
%TO.N,GND*%
X11550500Y13689447D03*
X20452942Y23531658D03*
X5919094Y16084884D03*
D24*
X15172019Y5814975D03*
X10926555Y7804100D03*
X8170000Y11255100D03*
D22*
X8227176Y24349774D03*
%TO.N,+3V3*%
X11282911Y22026889D03*
%TO.N,GND*%
X14263520Y22586324D03*
%TO.N,Net-(D2-A)*%
X16709007Y27583325D03*
%TO.N,GND*%
X16755200Y24384600D03*
%TO.N,+3V3*%
X15981445Y25934000D03*
%TO.N,GND*%
X12996000Y27229400D03*
X19092000Y30887000D03*
X15257200Y30734600D03*
X15345800Y34392200D03*
X12065530Y38284848D03*
X7262885Y37788015D03*
X3659400Y37272287D03*
X7328500Y40132600D03*
%TO.N,+3V3*%
X8271600Y44025498D03*
X3684022Y41637156D03*
%TO.N,GND*%
X6241425Y43955746D03*
%TO.N,+3V3*%
X19740520Y46240480D03*
%TO.N,GND*%
X19904800Y47600200D03*
%TO.N,+3V3*%
X17771200Y49784600D03*
%TO.N,GND*%
X16145600Y49835400D03*
X12843600Y53620000D03*
%TO.N,+3V3*%
X6188800Y54204200D03*
X8830400Y49705100D03*
X7966800Y46685800D03*
%TO.N,GND*%
X12437200Y47041400D03*
%TO.N,+3V3*%
X17302789Y42848812D03*
%TO.N,GND*%
X15993200Y42786801D03*
%TO.N,+3V3*%
X16631500Y37948200D03*
%TO.N,GND*%
X18228400Y37999000D03*
%TO.N,+3V3*%
X7482866Y36847306D03*
X14396300Y35154200D03*
X11910157Y36744980D03*
X7452788Y26449168D03*
X12059500Y26518200D03*
%TD*%
D25*
%TO.N,/BATT SENSE *%
X7458800Y38354600D02*
X6849200Y38964200D01*
X10913200Y38354600D02*
X7458800Y38354600D01*
%TO.N,/I2C1 SDA*%
X10557600Y41097800D02*
X10557600Y39797500D01*
X10557600Y39797500D02*
X9714200Y38954100D01*
%TO.N,/BUZZER*%
X9694000Y35408200D02*
X9694000Y36729000D01*
X8119200Y33833400D02*
X9694000Y35408200D01*
X7763600Y33833400D02*
X8119200Y33833400D01*
%TO.N,/SWD*%
X2766400Y26010200D02*
X1750400Y24994200D01*
X7178402Y28117402D02*
X5071200Y26010200D01*
X7178402Y31391896D02*
X7178402Y28117402D01*
X6718098Y31852200D02*
X7178402Y31391896D01*
X5071200Y26010200D02*
X2766400Y26010200D01*
%TO.N,/SWCLK*%
X5750400Y25622600D02*
X5750400Y24994200D01*
X7611200Y31807627D02*
X7611200Y27483400D01*
X6392000Y32665000D02*
X6753827Y32665000D01*
X7611200Y27483400D02*
X5750400Y25622600D01*
X6118098Y32391098D02*
X6392000Y32665000D01*
X6118098Y31262502D02*
X6118098Y32391098D01*
X6341200Y31039400D02*
X6118098Y31262502D01*
X6753827Y32665000D02*
X7611200Y31807627D01*
%TO.N,+1V1*%
X5150974Y33223800D02*
X9729481Y33223800D01*
X9729481Y33223800D02*
X10405200Y32548081D01*
X4451610Y32524436D02*
X5150974Y33223800D01*
%TO.N,/BRKOUT5*%
X4664800Y39609200D02*
X4664800Y34543893D01*
X2328000Y41946000D02*
X4664800Y39609200D01*
X5334593Y33874100D02*
X6341200Y33874100D01*
X4664800Y34543893D02*
X5334593Y33874100D01*
%TO.N,+1V1*%
X10405200Y32548081D02*
X11156011Y31797270D01*
X10405200Y32589708D02*
X10405200Y32548081D01*
X11140892Y33325400D02*
X10405200Y32589708D01*
X13199200Y33325400D02*
X11140892Y33325400D01*
%TO.N,/BRKOUT1*%
X10410007Y35255800D02*
X9032807Y33878600D01*
X10708669Y35255800D02*
X10410007Y35255800D01*
X11354622Y35306600D02*
X10759469Y35306600D01*
X22648000Y46599978D02*
X11354622Y35306600D01*
%TO.N,/BRKOUT2*%
X10924948Y34907099D02*
X9862179Y33844330D01*
X21358780Y44476000D02*
X11789879Y34907099D01*
X22648000Y44476000D02*
X21358780Y44476000D01*
%TO.N,/BRKOUT3*%
X11223461Y33775701D02*
X10743371Y33775701D01*
X22648000Y41936000D02*
X19383760Y41936000D01*
X10743371Y33775701D02*
X10643786Y33676116D01*
%TO.N,/BRKOUT4*%
X16355699Y34456079D02*
X14488392Y32588772D01*
X16355699Y34688121D02*
X16355699Y34456079D01*
X21063578Y39396000D02*
X16355699Y34688121D01*
%TO.N,/BRKOUT1*%
X10759469Y35306600D02*
X10708669Y35255800D01*
%TO.N,/BRKOUT4*%
X14488392Y32588772D02*
X11268828Y32588772D01*
%TO.N,/BRKOUT1*%
X22648000Y47016000D02*
X22648000Y46599978D01*
%TO.N,/BRKOUT4*%
X22648000Y39396000D02*
X21063578Y39396000D01*
%TO.N,/BRKOUT3*%
X19383760Y41936000D02*
X11223461Y33775701D01*
%TO.N,/BRKOUT2*%
X11789879Y34907099D02*
X10924948Y34907099D01*
%TO.N,/QSPI_SCLK*%
X10618500Y29749959D02*
X11063903Y30195362D01*
X8350230Y22960646D02*
X10618500Y25228916D01*
X7583926Y22960646D02*
X8350230Y22960646D01*
X7457081Y23087491D02*
X7583926Y22960646D01*
%TO.N,/QSPI_SD3*%
X10218999Y30243597D02*
X10964000Y30988598D01*
%TO.N,/QSPI_SCLK*%
X10618500Y25228916D02*
X10618500Y29749959D01*
%TO.N,/QSPI_SD3*%
X10218999Y25493775D02*
X10218999Y30243597D01*
X8285370Y23560146D02*
X10218999Y25493775D01*
X8101908Y23560146D02*
X8285370Y23560146D01*
%TO.N,/QSPI_SDO*%
X11218000Y25263436D02*
X11218000Y28905800D01*
X7900764Y21946200D02*
X11218000Y25263436D01*
X6664728Y22333872D02*
X7052400Y21946200D01*
X6664728Y23385899D02*
X6664728Y22333872D01*
X7052400Y21946200D02*
X7900764Y21946200D01*
%TO.N,/QSPI_SS*%
X16755200Y34290600D02*
X20057200Y37592600D01*
X20057200Y37592600D02*
X20108000Y37592600D01*
%TO.N,/I2C1 SDA*%
X17704400Y33970543D02*
X17493683Y34181260D01*
X17704400Y17830300D02*
X17704400Y33970543D01*
X13859600Y13985500D02*
X17704400Y17830300D01*
%TO.N,/QSPI_SS*%
X16755200Y28804200D02*
X16755200Y34290600D01*
X16145600Y28194600D02*
X16755200Y28804200D01*
%TO.N,/I2C1 SDA*%
X11735745Y39919655D02*
X14373632Y39919655D01*
X10557600Y41097800D02*
X11735745Y39919655D01*
X13392655Y39919655D02*
X14373632Y39919655D01*
X13148400Y39675400D02*
X13392655Y39919655D01*
X13148400Y37948200D02*
X13148400Y39675400D01*
%TO.N,/I2C1 SCL*%
X18380800Y17374200D02*
X14774000Y13767400D01*
X18380800Y34239800D02*
X18380800Y17374200D01*
%TO.N,/P1 EN *%
X5934800Y16917000D02*
X14418400Y8433400D01*
%TO.N,/QSPI_SD2*%
X7325976Y16938627D02*
X7649483Y16615120D01*
X13858087Y27227887D02*
X7325976Y20695776D01*
%TO.N,/P2 EN *%
X7014679Y23985099D02*
X9338400Y26308820D01*
X6683721Y23985099D02*
X7014679Y23985099D01*
%TO.N,/QSPI_SD2*%
X13858087Y28173957D02*
X13858087Y27227887D01*
%TO.N,/P2 EN *%
X13554800Y15393000D02*
X8023780Y15393000D01*
X6696800Y16719980D02*
X6696800Y21235000D01*
X6433000Y24019200D02*
X6649620Y24019200D01*
X5782400Y23368600D02*
X6433000Y24019200D01*
D26*
%TO.N,+12VA*%
X375000Y37453000D02*
X2328000Y39406000D01*
X2193833Y22783000D02*
X375000Y24601833D01*
X4853900Y17704388D02*
X5019000Y17869488D01*
X4853900Y16840812D02*
X4853900Y17704388D01*
X5019000Y22783000D02*
X2193833Y22783000D01*
D25*
%TO.N,/P2 EN *%
X6649620Y24019200D02*
X6683721Y23985099D01*
D26*
%TO.N,+12VA*%
X5019000Y16675712D02*
X4853900Y16840812D01*
X5019000Y12794192D02*
X5019000Y16675712D01*
X5019000Y17869488D02*
X5019000Y22783000D01*
X8973392Y8839800D02*
X5019000Y12794192D01*
D25*
%TO.N,/QSPI_SD2*%
X14839587Y29155457D02*
X13858087Y28173957D01*
D26*
%TO.N,+12VA*%
X9084400Y8839800D02*
X8973392Y8839800D01*
D25*
%TO.N,/P2 EN *%
X9338400Y26308820D02*
X9338400Y28956600D01*
X6696800Y21235000D02*
X5782400Y22149400D01*
%TO.N,/QSPI_SD2*%
X7325976Y20695776D02*
X7325976Y16938627D01*
%TO.N,/P1 EN *%
X14418400Y8433400D02*
X14418400Y8358200D01*
%TO.N,/P2 EN *%
X8023780Y15393000D02*
X6696800Y16719980D01*
%TO.N,/P1 EN *%
X8046528Y25683528D02*
X7222569Y25683528D01*
X8228083Y25865083D02*
X8046528Y25683528D01*
X5934800Y20879400D02*
X5934800Y16917000D01*
D26*
%TO.N,+12VA*%
X375000Y24601833D02*
X375000Y37453000D01*
D25*
%TO.N,/P2 EN *%
X5782400Y22149400D02*
X5782400Y23368600D01*
%TO.N,/P1 EN *%
X8328977Y25865083D02*
X8228083Y25865083D01*
X8328977Y29122807D02*
X8328977Y26322283D01*
X8328977Y26322283D02*
X8328977Y25865083D01*
%TO.N,/QSPI_SD1*%
X14863020Y27267620D02*
X14863020Y28105533D01*
X8678000Y21082600D02*
X14863020Y27267620D01*
X14863020Y28105533D02*
X15553968Y28796481D01*
X8678000Y16256600D02*
X8678000Y21082600D01*
%TO.N,/QSPI_SS*%
X9948000Y21539800D02*
X9948000Y16256600D01*
X15704400Y27296200D02*
X9948000Y21539800D01*
D27*
%TO.N,Net-(D2-A)*%
X16704400Y26871500D02*
X16704400Y27578718D01*
D25*
%TO.N,/QSPI_SS*%
X16145600Y27868447D02*
X15704400Y27427247D01*
X15704400Y27427247D02*
X15704400Y27296200D01*
D27*
%TO.N,Net-(D2-A)*%
X16704400Y27578718D02*
X16709007Y27583325D01*
D25*
%TO.N,/QSPI_SS*%
X16145600Y28194600D02*
X16145600Y27868447D01*
%TO.N,/BRKOUT6*%
X5376000Y41438000D02*
X5376000Y34693958D01*
X2328000Y44486000D02*
X5376000Y41438000D01*
X5376000Y34693958D02*
X5596358Y34473600D01*
D28*
%TO.N,+12P*%
X5093536Y6608000D02*
X5599666Y7114130D01*
X2598415Y6608000D02*
X5093536Y6608000D01*
X1544000Y18323634D02*
X1544000Y7662415D01*
X1788366Y18568000D02*
X1544000Y18323634D01*
X3344000Y18568000D02*
X1788366Y18568000D01*
X6109196Y6604600D02*
X5599666Y7114130D01*
X14265294Y6604600D02*
X6109196Y6604600D01*
X15941694Y8281000D02*
X14265294Y6604600D01*
X1544000Y7662415D02*
X2598415Y6608000D01*
X20057200Y8281000D02*
X15941694Y8281000D01*
D29*
%TO.N,+12V*%
X6506025Y4864975D02*
X5884000Y5487000D01*
X19600000Y6198200D02*
X18266775Y4864975D01*
X18266775Y4864975D02*
X6506025Y4864975D01*
D28*
%TO.N,+12P*%
X23178000Y15155415D02*
X23178000Y18317400D01*
X23178000Y18317400D02*
X23054400Y18441000D01*
X21383585Y13361000D02*
X23178000Y15155415D01*
X23054400Y18441000D02*
X21378000Y18441000D01*
X21378000Y13361000D02*
X21383585Y13361000D01*
X23178000Y11566585D02*
X21383585Y13361000D01*
X23178000Y10075415D02*
X23178000Y11566585D01*
X21383585Y8281000D02*
X23178000Y10075415D01*
X20057200Y8281000D02*
X21378000Y8281000D01*
X20057200Y8281000D02*
X21383585Y8281000D01*
D29*
%TO.N,Net-(D4-A)*%
X1566000Y30480600D02*
X1566000Y31750600D01*
X1566000Y31750600D02*
X1261200Y32055400D01*
X3066400Y28980200D02*
X1566000Y30480600D01*
X4078900Y28980200D02*
X3066400Y28980200D01*
D25*
%TO.N,/BRKOUT7*%
X5775501Y43578499D02*
X2328000Y47026000D01*
X5775501Y35969135D02*
X5775501Y43578499D01*
X6166231Y35578405D02*
X5775501Y35969135D01*
%TO.N,GND*%
X9694000Y44450600D02*
X9846400Y44298200D01*
X9694000Y45175000D02*
X9694000Y44450600D01*
%TO.N,/I2C1 SDA*%
X10557600Y43079000D02*
X10557600Y41097800D01*
X12691200Y45212600D02*
X10557600Y43079000D01*
X13504000Y45212600D02*
X12691200Y45212600D01*
%TO.N,/LEDRED*%
X4836301Y27122799D02*
X4078900Y27880200D01*
X4836301Y27043568D02*
X4836301Y27122799D01*
%TO.N,/LEDGREEN*%
X6578402Y28877600D02*
X6578402Y28179702D01*
X6278900Y27880200D02*
X5578900Y27880200D01*
X6578402Y28179702D02*
X6278900Y27880200D01*
%TO.N,/LEDBLUE*%
X6281812Y29683112D02*
X5578900Y28980200D01*
X6281812Y29734355D02*
X6281812Y29683112D01*
D27*
%TO.N,GND*%
X16704400Y24435400D02*
X16755200Y24384600D01*
X16704400Y24996500D02*
X16704400Y24435400D01*
%TD*%
M02*
