%TF.GenerationSoftware,KiCad,Pcbnew,(7.0.0)*%
%TF.CreationDate,2023-12-17T22:30:30-08:00*%
%TF.ProjectId,Lyrav3,4c797261-7633-42e6-9b69-6361645f7063,rev?*%
%TF.SameCoordinates,Original*%
%TF.FileFunction,Copper,L2,Inr*%
%TF.FilePolarity,Positive*%
%FSLAX46Y46*%
G04 Gerber Fmt 4.6, Leading zero omitted, Abs format (unit mm)*
G04 Created by KiCad (PCBNEW (7.0.0)) date 2023-12-17 22:30:30*
%MOMM*%
%LPD*%
G01*
G04 APERTURE LIST*
%TA.AperFunction,ComponentPad*%
%ADD10C,5.600000*%
%TD*%
%TA.AperFunction,ComponentPad*%
%ADD11R,1.700000X1.700000*%
%TD*%
%TA.AperFunction,ComponentPad*%
%ADD12O,1.700000X1.700000*%
%TD*%
%TA.AperFunction,ComponentPad*%
%ADD13R,2.200000X2.200000*%
%TD*%
%TA.AperFunction,ComponentPad*%
%ADD14C,2.200000*%
%TD*%
%TA.AperFunction,ComponentPad*%
%ADD15R,1.350000X1.350000*%
%TD*%
%TA.AperFunction,ComponentPad*%
%ADD16O,1.350000X1.350000*%
%TD*%
%TA.AperFunction,ComponentPad*%
%ADD17O,1.400000X1.200000*%
%TD*%
%TA.AperFunction,ComponentPad*%
%ADD18O,1.900000X1.200000*%
%TD*%
%TA.AperFunction,ViaPad*%
%ADD19C,0.600000*%
%TD*%
%TA.AperFunction,ViaPad*%
%ADD20C,0.700000*%
%TD*%
%TA.AperFunction,ViaPad*%
%ADD21C,1.000000*%
%TD*%
G04 APERTURE END LIST*
D10*
%TO.N,GND*%
%TO.C,H3*%
X3000000Y3000000D03*
%TD*%
D11*
%TO.N,/BRKOUT1*%
%TO.C,J8*%
X22647999Y47015999D03*
D12*
%TO.N,/BRKOUT2*%
X22647999Y44475999D03*
%TO.N,/BRKOUT3*%
X22647999Y41935999D03*
%TO.N,/BRKOUT4*%
X22647999Y39395999D03*
%TD*%
D10*
%TO.N,GND*%
%TO.C,H1*%
X3000000Y52000000D03*
%TD*%
%TO.N,GND*%
%TO.C,H2*%
X22000000Y52000000D03*
%TD*%
%TO.N,GND*%
%TO.C,H4*%
X22000000Y3000000D03*
%TD*%
D13*
%TO.N,/P4-*%
%TO.C,J2*%
X3343999Y21107999D03*
D14*
%TO.N,+12P*%
X3344000Y18568000D03*
%TO.N,+12V*%
X3344000Y16028000D03*
%TO.N,+BATT*%
X3344000Y13488000D03*
%TO.N,GND*%
X3344000Y10948000D03*
%TO.N,+BATT*%
X3344000Y8408000D03*
%TD*%
D13*
%TO.N,+12P*%
%TO.C,J9*%
X21377999Y8280999D03*
D14*
%TO.N,/P1-*%
X21378000Y10821000D03*
%TO.N,+12P*%
X21378000Y13361000D03*
%TO.N,/P2-*%
X21378000Y15901000D03*
%TO.N,+12P*%
X21378000Y18441000D03*
%TO.N,/P3-*%
X21378000Y20981000D03*
%TD*%
D11*
%TO.N,/BRKOUT7*%
%TO.C,J6*%
X2327999Y47025999D03*
D12*
%TO.N,/BRKOUT6*%
X2327999Y44485999D03*
%TO.N,/BRKOUT5*%
X2327999Y41945999D03*
%TO.N,+12VA*%
X2327999Y39405999D03*
%TO.N,+3V3*%
X2327999Y36865999D03*
%TO.N,GND*%
X2327999Y34325999D03*
%TD*%
D15*
%TO.N,/SWCLK*%
%TO.C,J5*%
X5750399Y24994199D03*
D16*
%TO.N,GND*%
X3750399Y24994199D03*
%TO.N,/SWD*%
X1750399Y24994199D03*
%TD*%
D17*
%TO.N,unconnected-(J7-Shield-Pad6)*%
%TO.C,J7*%
X19826399Y29838599D03*
%TO.N,N/C*%
X19826399Y34678599D03*
D18*
X22726399Y35858599D03*
X22726399Y28658599D03*
%TD*%
D19*
%TO.N,/BATT SENSE *%
X6849200Y38964200D03*
X10913200Y38354600D03*
%TO.N,/SWD*%
X6718098Y31852200D03*
%TO.N,/SWCLK*%
X6341200Y31039400D03*
%TO.N,+1V1*%
X4451610Y32524436D03*
X13199200Y33325400D03*
X11156011Y31797270D03*
%TO.N,/QSPI_SS*%
X20108000Y37592600D03*
%TO.N,/I2C1 SDA*%
X13148400Y37948200D03*
X17493683Y34181260D03*
%TO.N,/I2C1 SCL*%
X18380800Y34239800D03*
%TO.N,/P1 EN *%
X5934800Y20879400D03*
X7222569Y25683528D03*
X8328977Y29122807D03*
%TO.N,/P2 EN *%
X9338400Y28956600D03*
X13554800Y15393000D03*
%TO.N,/QSPI_SS*%
X9948000Y16256600D03*
X16145600Y28194600D03*
%TO.N,/QSPI_SD1*%
X8678000Y16256600D03*
X15553968Y28796481D03*
%TO.N,/QSPI_SD2*%
X7649483Y16615120D03*
X14839587Y29155457D03*
%TO.N,/QSPI_SDO*%
X11218000Y28905800D03*
X6664728Y23385899D03*
%TO.N,/QSPI_SCLK*%
X11063903Y30195362D03*
X7457081Y23087491D03*
%TO.N,/QSPI_SD3*%
X8101908Y23560146D03*
X10964000Y30988598D03*
D20*
%TO.N,+12VA*%
X9084400Y8839800D03*
D19*
%TO.N,/P1 EN *%
X14418400Y8358200D03*
%TO.N,/I2C1 SCL*%
X14774000Y13767400D03*
%TO.N,/I2C1 SDA*%
X13859600Y13985500D03*
%TO.N,+3V3*%
X13130386Y13657702D03*
%TO.N,GND*%
X16806000Y11620800D03*
X14520000Y10008200D03*
%TO.N,+12V*%
X5884000Y5487000D03*
X19600000Y6198200D03*
D21*
%TO.N,+12P*%
X5599666Y7114130D03*
D19*
%TO.N,/BRKOUT5*%
X6341200Y33874100D03*
%TO.N,/BRKOUT6*%
X5596358Y34473600D03*
%TO.N,/BRKOUT7*%
X6166231Y35578405D03*
%TO.N,/BUZZER*%
X7763600Y33833400D03*
%TO.N,/BRKOUT1*%
X9032807Y33878600D03*
%TO.N,/BRKOUT2*%
X9862179Y33844330D03*
%TO.N,+3V3*%
X13148400Y31726899D03*
%TO.N,/BRKOUT3*%
X10643786Y33676116D03*
%TO.N,/BRKOUT4*%
X11268828Y32588772D03*
%TO.N,GND*%
X9846400Y44298200D03*
X9490800Y48355800D03*
%TO.N,/I2C1 SDA*%
X14373632Y39919655D03*
%TO.N,+3V3*%
X12386400Y42938800D03*
%TO.N,/I2C1 SDA*%
X9714200Y38954100D03*
X10557600Y41097800D03*
X13504000Y45212600D03*
%TO.N,GND*%
X9436414Y29750072D03*
X8663771Y29848836D03*
X9511379Y32594079D03*
X8740913Y32624300D03*
%TO.N,/LEDRED*%
X4836301Y27043568D03*
%TO.N,/LEDGREEN*%
X6578402Y28877600D03*
%TO.N,/LEDBLUE*%
X6281812Y29734355D03*
%TO.N,GND*%
X16298000Y18124000D03*
X14570800Y16535000D03*
%TO.N,+3V3*%
X15485200Y13083000D03*
X3366100Y31547400D03*
X2988400Y27540700D03*
%TO.N,GND*%
X2315500Y30887000D03*
%TO.N,Net-(D4-A)*%
X1261200Y32055400D03*
%TO.N,+3V3*%
X1420143Y33327525D03*
D21*
X15332800Y3582000D03*
D19*
%TO.N,GND*%
X11550500Y13689447D03*
X20452942Y23531658D03*
X5919094Y16084884D03*
D21*
X15172019Y5814975D03*
X10926555Y7804100D03*
X8170000Y11255100D03*
D19*
X8227176Y24349774D03*
%TO.N,+3V3*%
X11282911Y22026889D03*
%TO.N,GND*%
X14263520Y22586324D03*
%TO.N,Net-(D2-A)*%
X16709007Y27583325D03*
%TO.N,GND*%
X16755200Y24384600D03*
%TO.N,+3V3*%
X15981445Y25934000D03*
%TO.N,GND*%
X12996000Y27229400D03*
X19092000Y30887000D03*
X15257200Y30734600D03*
X15345800Y34392200D03*
X12065530Y38284848D03*
X7262885Y37788015D03*
X3659400Y37272287D03*
X7328500Y40132600D03*
%TO.N,+3V3*%
X8271600Y44025498D03*
X3684022Y41637156D03*
%TO.N,GND*%
X6241425Y43955746D03*
%TO.N,+3V3*%
X19740520Y46240480D03*
%TO.N,GND*%
X19904800Y47600200D03*
%TO.N,+3V3*%
X17771200Y49784600D03*
%TO.N,GND*%
X16145600Y49835400D03*
X12843600Y53620000D03*
%TO.N,+3V3*%
X6188800Y54204200D03*
X8830400Y49705100D03*
X7966800Y46685800D03*
%TO.N,GND*%
X12437200Y47041400D03*
%TO.N,+3V3*%
X17302789Y42848812D03*
%TO.N,GND*%
X15993200Y42786801D03*
%TO.N,+3V3*%
X16631500Y37948200D03*
%TO.N,GND*%
X18228400Y37999000D03*
%TO.N,+3V3*%
X7482866Y36847306D03*
X14396300Y35154200D03*
X11910157Y36744980D03*
X7452788Y26449168D03*
X12059500Y26518200D03*
%TD*%
%TA.AperFunction,Conductor*%
%TO.N,GND*%
G36*
X1199329Y54983110D02*
G01*
X1244654Y54938274D01*
X1261710Y54876843D01*
X1245988Y54815057D01*
X1201645Y54769249D01*
X1148234Y54737114D01*
X1142694Y54733358D01*
X863149Y54520854D01*
X859159Y54517464D01*
X852329Y54506229D01*
X859001Y54494552D01*
X5491409Y49862144D01*
X5503334Y49855473D01*
X5514679Y49863090D01*
X5628792Y49997434D01*
X5632852Y50002775D01*
X5829897Y50293394D01*
X5833350Y50299132D01*
X5997830Y50609374D01*
X6000639Y50615448D01*
X6130603Y50941632D01*
X6132748Y50947999D01*
X6226682Y51286316D01*
X6228125Y51292870D01*
X6284930Y51639370D01*
X6285656Y51646042D01*
X6304665Y51996643D01*
X18695335Y51996643D01*
X18714343Y51646042D01*
X18715069Y51639370D01*
X18771874Y51292870D01*
X18773317Y51286316D01*
X18867251Y50947999D01*
X18869396Y50941632D01*
X18999360Y50615448D01*
X19002169Y50609374D01*
X19166649Y50299132D01*
X19170102Y50293394D01*
X19367147Y50002775D01*
X19371207Y49997434D01*
X19485320Y49863090D01*
X19496664Y49855473D01*
X19508590Y49862145D01*
X21634904Y51988458D01*
X21641568Y52000000D01*
X21634904Y52011543D01*
X19508590Y54137857D01*
X19496664Y54144529D01*
X19485320Y54136912D01*
X19371207Y54002567D01*
X19367147Y53997226D01*
X19170102Y53706607D01*
X19166649Y53700869D01*
X19002169Y53390627D01*
X18999360Y53384553D01*
X18869396Y53058369D01*
X18867251Y53052002D01*
X18773317Y52713685D01*
X18771874Y52707131D01*
X18715069Y52360631D01*
X18714343Y52353959D01*
X18695335Y52003357D01*
X18695335Y51996643D01*
X6304665Y51996643D01*
X6304665Y52003357D01*
X6285656Y52353959D01*
X6284930Y52360631D01*
X6228125Y52707131D01*
X6226682Y52713685D01*
X6132748Y53052002D01*
X6130603Y53058369D01*
X6062411Y53229518D01*
X6054331Y53288822D01*
X6074970Y53345002D01*
X6119521Y53384970D01*
X6177604Y53399415D01*
X6181877Y53399415D01*
X6188800Y53398635D01*
X6368055Y53418832D01*
X6538322Y53478411D01*
X6691062Y53574384D01*
X6818616Y53701938D01*
X6914589Y53854678D01*
X6974168Y54024945D01*
X6994365Y54204200D01*
X6974168Y54383455D01*
X6914589Y54553722D01*
X6818616Y54706462D01*
X6737259Y54787820D01*
X6707009Y54837182D01*
X6702467Y54894898D01*
X6724622Y54948385D01*
X6768645Y54985985D01*
X6824940Y54999500D01*
X20137717Y54999500D01*
X20199329Y54983110D01*
X20244654Y54938274D01*
X20261710Y54876843D01*
X20245988Y54815057D01*
X20201645Y54769249D01*
X20148234Y54737114D01*
X20142694Y54733358D01*
X19863149Y54520854D01*
X19859159Y54517464D01*
X19852329Y54506229D01*
X19859001Y54494552D01*
X21988457Y52365096D01*
X22000000Y52358432D01*
X22011542Y52365096D01*
X24140998Y54494553D01*
X24147669Y54506228D01*
X24140839Y54517464D01*
X24136842Y54520859D01*
X23857305Y54733358D01*
X23851765Y54737114D01*
X23798355Y54769249D01*
X23754012Y54815057D01*
X23738290Y54876843D01*
X23755346Y54938274D01*
X23800671Y54983110D01*
X23862283Y54999500D01*
X24875500Y54999500D01*
X24937500Y54982887D01*
X24982887Y54937500D01*
X24999500Y54875500D01*
X24999500Y53860307D01*
X24983771Y53799865D01*
X24940576Y53754755D01*
X24880872Y53736423D01*
X24819805Y53749519D01*
X24772867Y53790720D01*
X24632852Y53997226D01*
X24628792Y54002567D01*
X24514678Y54136912D01*
X24503334Y54144529D01*
X24491408Y54137857D01*
X22365095Y52011543D01*
X22358431Y52000000D01*
X22365095Y51988458D01*
X24491409Y49862144D01*
X24503334Y49855473D01*
X24514679Y49863090D01*
X24628792Y49997434D01*
X24632852Y50002775D01*
X24772867Y50209280D01*
X24819805Y50250481D01*
X24880872Y50263577D01*
X24940576Y50245245D01*
X24983771Y50200135D01*
X24999500Y50139693D01*
X24999500Y4860307D01*
X24983771Y4799865D01*
X24940576Y4754755D01*
X24880872Y4736423D01*
X24819805Y4749519D01*
X24772867Y4790720D01*
X24632852Y4997226D01*
X24628792Y5002567D01*
X24514678Y5136912D01*
X24503334Y5144529D01*
X24491408Y5137857D01*
X22365095Y3011543D01*
X22358431Y3000001D01*
X22365095Y2988458D01*
X24491409Y862144D01*
X24503334Y855473D01*
X24514679Y863090D01*
X24628792Y997434D01*
X24632852Y1002775D01*
X24772867Y1209280D01*
X24819805Y1250481D01*
X24880872Y1263577D01*
X24940576Y1245245D01*
X24983771Y1200135D01*
X24999500Y1139693D01*
X24999500Y124500D01*
X24982887Y62500D01*
X24937500Y17113D01*
X24875500Y500D01*
X23862283Y500D01*
X23800671Y16890D01*
X23755346Y61726D01*
X23738290Y123157D01*
X23754012Y184943D01*
X23798355Y230751D01*
X23851765Y262887D01*
X23857305Y266643D01*
X24136846Y479144D01*
X24140841Y482538D01*
X24147669Y493772D01*
X24140996Y505451D01*
X22011542Y2634905D01*
X21999999Y2641569D01*
X21988457Y2634905D01*
X19859000Y505449D01*
X19852329Y493774D01*
X19859159Y482538D01*
X19863157Y479142D01*
X20142694Y266643D01*
X20148234Y262887D01*
X20201645Y230751D01*
X20245988Y184943D01*
X20261710Y123157D01*
X20244654Y61726D01*
X20199329Y16890D01*
X20137717Y500D01*
X4862283Y500D01*
X4800671Y16890D01*
X4755346Y61726D01*
X4738290Y123157D01*
X4754012Y184943D01*
X4798355Y230751D01*
X4851765Y262887D01*
X4857305Y266643D01*
X5136846Y479144D01*
X5140841Y482538D01*
X5147669Y493772D01*
X5140996Y505451D01*
X3011542Y2634905D01*
X2999999Y2641569D01*
X2988457Y2634905D01*
X859000Y505449D01*
X852329Y493774D01*
X859159Y482538D01*
X863157Y479142D01*
X1142694Y266643D01*
X1148234Y262887D01*
X1201645Y230751D01*
X1245988Y184943D01*
X1261710Y123157D01*
X1244654Y61726D01*
X1199329Y16890D01*
X1137717Y500D01*
X124500Y500D01*
X62500Y17113D01*
X17113Y62500D01*
X500Y124500D01*
X500Y1139693D01*
X16229Y1200135D01*
X59424Y1245245D01*
X119128Y1263577D01*
X180195Y1250481D01*
X227133Y1209280D01*
X367147Y1002775D01*
X371207Y997434D01*
X485320Y863090D01*
X496664Y855473D01*
X508590Y862145D01*
X2634904Y2988458D01*
X2641568Y3000000D01*
X2634904Y3011543D01*
X508590Y5137857D01*
X496664Y5144529D01*
X485320Y5136912D01*
X371207Y5002567D01*
X367147Y4997226D01*
X227133Y4790720D01*
X180195Y4749519D01*
X119128Y4736423D01*
X59424Y4754755D01*
X16229Y4799865D01*
X500Y4860307D01*
X500Y5506229D01*
X852329Y5506229D01*
X859001Y5494552D01*
X5491409Y862144D01*
X5503334Y855473D01*
X5514679Y863090D01*
X5628792Y997434D01*
X5632852Y1002775D01*
X5829897Y1293394D01*
X5833350Y1299132D01*
X5997830Y1609374D01*
X6000639Y1615448D01*
X6130603Y1941632D01*
X6132748Y1947999D01*
X6226682Y2286316D01*
X6228125Y2292870D01*
X6284930Y2639370D01*
X6285656Y2646042D01*
X6304665Y2996643D01*
X6304665Y3003357D01*
X6285656Y3353959D01*
X6284930Y3360631D01*
X6248639Y3582000D01*
X14327459Y3582000D01*
X14328056Y3575938D01*
X14346178Y3391933D01*
X14346179Y3391927D01*
X14346776Y3385868D01*
X14348543Y3380043D01*
X14348544Y3380038D01*
X14402218Y3203101D01*
X14403986Y3197273D01*
X14406855Y3191905D01*
X14406857Y3191901D01*
X14494015Y3028839D01*
X14494019Y3028833D01*
X14496890Y3023462D01*
X14621917Y2871117D01*
X14774262Y2746090D01*
X14779634Y2743219D01*
X14779638Y2743216D01*
X14921639Y2667316D01*
X14948073Y2653186D01*
X15136668Y2595976D01*
X15332800Y2576659D01*
X15528932Y2595976D01*
X15717527Y2653186D01*
X15891338Y2746090D01*
X16043683Y2871117D01*
X16146700Y2996643D01*
X18695335Y2996643D01*
X18714343Y2646042D01*
X18715069Y2639370D01*
X18771874Y2292870D01*
X18773317Y2286316D01*
X18867251Y1947999D01*
X18869396Y1941632D01*
X18999360Y1615448D01*
X19002169Y1609374D01*
X19166649Y1299132D01*
X19170102Y1293394D01*
X19367147Y1002775D01*
X19371207Y997434D01*
X19485320Y863090D01*
X19496664Y855473D01*
X19508590Y862145D01*
X22000000Y3353553D01*
X24140998Y5494553D01*
X24147669Y5506228D01*
X24140839Y5517464D01*
X24136842Y5520859D01*
X23857305Y5733358D01*
X23851759Y5737118D01*
X23550900Y5918138D01*
X23544961Y5921286D01*
X23226304Y6068713D01*
X23220062Y6071200D01*
X22887315Y6183316D01*
X22880870Y6185105D01*
X22537946Y6260589D01*
X22531322Y6261675D01*
X22182259Y6299637D01*
X22175563Y6300000D01*
X21824437Y6300000D01*
X21817740Y6299637D01*
X21468677Y6261675D01*
X21462053Y6260589D01*
X21119129Y6185105D01*
X21112684Y6183316D01*
X20779937Y6071200D01*
X20773710Y6068719D01*
X20569881Y5974418D01*
X20505959Y5963526D01*
X20445279Y5986387D01*
X20404435Y6036750D01*
X20394595Y6100842D01*
X20394958Y6104058D01*
X20405565Y6198200D01*
X20385368Y6377455D01*
X20337048Y6515546D01*
X20331308Y6573835D01*
X20352960Y6628256D01*
X20397176Y6666668D01*
X20454090Y6680501D01*
X22522561Y6680501D01*
X22525872Y6680501D01*
X22585483Y6686909D01*
X22720331Y6737204D01*
X22835546Y6823454D01*
X22921796Y6938669D01*
X22972091Y7073517D01*
X22978500Y7133127D01*
X22978499Y9428872D01*
X22972091Y9488483D01*
X22921796Y9623331D01*
X22835546Y9738546D01*
X22828447Y9743860D01*
X22758895Y9795927D01*
X22720782Y9842879D01*
X22709408Y9902274D01*
X22727478Y9959982D01*
X22808466Y10092141D01*
X22904873Y10324889D01*
X22963683Y10569852D01*
X22983449Y10821000D01*
X22963683Y11072148D01*
X22904873Y11317111D01*
X22808466Y11549859D01*
X22676836Y11764659D01*
X22576212Y11882474D01*
X22516386Y11952522D01*
X22516384Y11952524D01*
X22513224Y11956224D01*
X22465816Y11996714D01*
X22433742Y12039086D01*
X22422351Y12091000D01*
X22433742Y12142914D01*
X22465816Y12185287D01*
X22513224Y12225776D01*
X22676836Y12417341D01*
X22808466Y12632141D01*
X22904873Y12864889D01*
X22963683Y13109852D01*
X22983449Y13361000D01*
X22963683Y13612148D01*
X22904873Y13857111D01*
X22808466Y14089859D01*
X22730640Y14216859D01*
X22679382Y14300505D01*
X22679379Y14300509D01*
X22676836Y14304659D01*
X22607544Y14385789D01*
X22516386Y14492522D01*
X22516384Y14492524D01*
X22513224Y14496224D01*
X22465816Y14536714D01*
X22433742Y14579086D01*
X22422351Y14631000D01*
X22433742Y14682914D01*
X22465816Y14725287D01*
X22513224Y14765776D01*
X22676836Y14957341D01*
X22808466Y15172141D01*
X22904873Y15404889D01*
X22963683Y15649852D01*
X22983449Y15901000D01*
X22963683Y16152148D01*
X22904873Y16397111D01*
X22808466Y16629859D01*
X22729413Y16758862D01*
X22679382Y16840505D01*
X22679379Y16840509D01*
X22676836Y16844659D01*
X22638005Y16890124D01*
X22516386Y17032522D01*
X22516384Y17032524D01*
X22513224Y17036224D01*
X22465816Y17076714D01*
X22433742Y17119086D01*
X22422351Y17171000D01*
X22433742Y17222914D01*
X22465816Y17265287D01*
X22513224Y17305776D01*
X22676836Y17497341D01*
X22808466Y17712141D01*
X22904873Y17944889D01*
X22963683Y18189852D01*
X22983449Y18441000D01*
X22963683Y18692148D01*
X22904873Y18937111D01*
X22808466Y19169859D01*
X22728097Y19301009D01*
X22679382Y19380505D01*
X22679379Y19380509D01*
X22676836Y19384659D01*
X22513224Y19576224D01*
X22465820Y19616711D01*
X22433742Y19659088D01*
X22422352Y19711003D01*
X22433743Y19762917D01*
X22465821Y19805291D01*
X22513224Y19845776D01*
X22676836Y20037341D01*
X22808466Y20252141D01*
X22904873Y20484889D01*
X22963683Y20729852D01*
X22983449Y20981000D01*
X22963683Y21232148D01*
X22904873Y21477111D01*
X22808466Y21709859D01*
X22676836Y21924659D01*
X22513224Y22116224D01*
X22416044Y22199224D01*
X22325363Y22276673D01*
X22325358Y22276676D01*
X22321659Y22279836D01*
X22317511Y22282378D01*
X22317504Y22282383D01*
X22111017Y22408918D01*
X22111016Y22408919D01*
X22106859Y22411466D01*
X21874111Y22507873D01*
X21869382Y22509009D01*
X21869374Y22509011D01*
X21633881Y22565547D01*
X21633877Y22565548D01*
X21629148Y22566683D01*
X21624295Y22567065D01*
X21382854Y22586067D01*
X21378000Y22586449D01*
X21373146Y22586067D01*
X21131704Y22567065D01*
X21131702Y22567065D01*
X21126852Y22566683D01*
X21122124Y22565549D01*
X21122118Y22565547D01*
X20886625Y22509011D01*
X20886613Y22509008D01*
X20881889Y22507873D01*
X20877392Y22506011D01*
X20877388Y22506009D01*
X20653645Y22413332D01*
X20653640Y22413330D01*
X20649141Y22411466D01*
X20644988Y22408922D01*
X20644982Y22408918D01*
X20438495Y22282383D01*
X20438482Y22282374D01*
X20434341Y22279836D01*
X20430646Y22276681D01*
X20430636Y22276673D01*
X20246476Y22119385D01*
X20246469Y22119379D01*
X20242776Y22116224D01*
X20239621Y22112531D01*
X20239615Y22112524D01*
X20082327Y21928364D01*
X20082319Y21928354D01*
X20079164Y21924659D01*
X20076626Y21920518D01*
X20076617Y21920505D01*
X19950082Y21714018D01*
X19950078Y21714012D01*
X19947534Y21709859D01*
X19945670Y21705360D01*
X19945668Y21705355D01*
X19868767Y21519699D01*
X19851127Y21477111D01*
X19849992Y21472387D01*
X19849989Y21472375D01*
X19793453Y21236882D01*
X19793451Y21236876D01*
X19792317Y21232148D01*
X19791935Y21227298D01*
X19791935Y21227296D01*
X19781215Y21091085D01*
X19772551Y20981000D01*
X19792317Y20729852D01*
X19793452Y20725123D01*
X19793453Y20725119D01*
X19849989Y20489626D01*
X19849991Y20489618D01*
X19851127Y20484889D01*
X19947534Y20252141D01*
X19950081Y20247984D01*
X19950082Y20247983D01*
X20076617Y20041496D01*
X20076622Y20041489D01*
X20079164Y20037341D01*
X20082324Y20033642D01*
X20082327Y20033637D01*
X20196023Y19900517D01*
X20242776Y19845776D01*
X20246476Y19842616D01*
X20246478Y19842614D01*
X20290179Y19805289D01*
X20322256Y19762913D01*
X20333646Y19711000D01*
X20322256Y19659087D01*
X20290179Y19616711D01*
X20246478Y19579387D01*
X20246469Y19579379D01*
X20242776Y19576224D01*
X20239621Y19572531D01*
X20239615Y19572524D01*
X20082327Y19388364D01*
X20082319Y19388354D01*
X20079164Y19384659D01*
X20076626Y19380518D01*
X20076617Y19380505D01*
X19950082Y19174018D01*
X19950078Y19174012D01*
X19947534Y19169859D01*
X19851127Y18937111D01*
X19849992Y18932387D01*
X19849989Y18932375D01*
X19793453Y18696882D01*
X19793451Y18696876D01*
X19792317Y18692148D01*
X19772551Y18441000D01*
X19792317Y18189852D01*
X19793452Y18185123D01*
X19793453Y18185119D01*
X19849989Y17949626D01*
X19849991Y17949618D01*
X19851127Y17944889D01*
X19947534Y17712141D01*
X19950081Y17707984D01*
X19950082Y17707983D01*
X20076617Y17501496D01*
X20076622Y17501489D01*
X20079164Y17497341D01*
X20082324Y17493642D01*
X20082327Y17493637D01*
X20239613Y17309479D01*
X20242776Y17305776D01*
X20246476Y17302616D01*
X20246478Y17302614D01*
X20290179Y17265289D01*
X20322256Y17222913D01*
X20333646Y17171000D01*
X20322256Y17119087D01*
X20290179Y17076711D01*
X20246478Y17039387D01*
X20246469Y17039379D01*
X20242776Y17036224D01*
X20239621Y17032531D01*
X20239615Y17032524D01*
X20082327Y16848364D01*
X20082319Y16848354D01*
X20079164Y16844659D01*
X20076626Y16840518D01*
X20076617Y16840505D01*
X19950082Y16634018D01*
X19950078Y16634012D01*
X19947534Y16629859D01*
X19945670Y16625360D01*
X19945668Y16625355D01*
X19867179Y16435865D01*
X19851127Y16397111D01*
X19849992Y16392387D01*
X19849989Y16392375D01*
X19793453Y16156882D01*
X19793451Y16156876D01*
X19792317Y16152148D01*
X19791935Y16147298D01*
X19791935Y16147296D01*
X19786430Y16077345D01*
X19772551Y15901000D01*
X19772933Y15896146D01*
X19788060Y15703935D01*
X19792317Y15649852D01*
X19793452Y15645123D01*
X19793453Y15645119D01*
X19849989Y15409626D01*
X19849991Y15409618D01*
X19851127Y15404889D01*
X19947534Y15172141D01*
X19950081Y15167984D01*
X19950082Y15167983D01*
X20076617Y14961496D01*
X20076622Y14961489D01*
X20079164Y14957341D01*
X20082324Y14953642D01*
X20082327Y14953637D01*
X20205079Y14809913D01*
X20242776Y14765776D01*
X20246476Y14762616D01*
X20246478Y14762614D01*
X20290179Y14725289D01*
X20322256Y14682913D01*
X20333646Y14631000D01*
X20322256Y14579087D01*
X20290179Y14536711D01*
X20246478Y14499387D01*
X20246469Y14499379D01*
X20242776Y14496224D01*
X20239621Y14492531D01*
X20239615Y14492524D01*
X20082327Y14308364D01*
X20082319Y14308354D01*
X20079164Y14304659D01*
X20076626Y14300518D01*
X20076617Y14300505D01*
X19950082Y14094018D01*
X19950078Y14094012D01*
X19947534Y14089859D01*
X19945670Y14085360D01*
X19945668Y14085355D01*
X19854838Y13866070D01*
X19851127Y13857111D01*
X19849992Y13852387D01*
X19849989Y13852375D01*
X19793453Y13616882D01*
X19793451Y13616876D01*
X19792317Y13612148D01*
X19772551Y13361000D01*
X19772933Y13356146D01*
X19789527Y13145295D01*
X19792317Y13109852D01*
X19793452Y13105123D01*
X19793453Y13105119D01*
X19849989Y12869626D01*
X19849991Y12869618D01*
X19851127Y12864889D01*
X19947534Y12632141D01*
X19950081Y12627984D01*
X19950082Y12627983D01*
X20076617Y12421496D01*
X20076622Y12421489D01*
X20079164Y12417341D01*
X20082324Y12413642D01*
X20082327Y12413637D01*
X20181405Y12297632D01*
X20242776Y12225776D01*
X20246476Y12222616D01*
X20246478Y12222614D01*
X20290179Y12185289D01*
X20322256Y12142913D01*
X20333646Y12091000D01*
X20322256Y12039087D01*
X20290179Y11996711D01*
X20246478Y11959387D01*
X20246469Y11959379D01*
X20242776Y11956224D01*
X20239621Y11952531D01*
X20239615Y11952524D01*
X20082327Y11768364D01*
X20082319Y11768354D01*
X20079164Y11764659D01*
X20076626Y11760518D01*
X20076617Y11760505D01*
X19950082Y11554018D01*
X19950078Y11554012D01*
X19947534Y11549859D01*
X19851127Y11317111D01*
X19849992Y11312387D01*
X19849989Y11312375D01*
X19793453Y11076882D01*
X19793451Y11076876D01*
X19792317Y11072148D01*
X19772551Y10821000D01*
X19792317Y10569852D01*
X19793452Y10565123D01*
X19793453Y10565119D01*
X19849989Y10329626D01*
X19849991Y10329618D01*
X19851127Y10324889D01*
X19947534Y10092141D01*
X19950081Y10087984D01*
X19950082Y10087983D01*
X20028520Y9959984D01*
X20046591Y9902274D01*
X20035217Y9842879D01*
X19997105Y9795928D01*
X19927551Y9743860D01*
X19927546Y9743856D01*
X19920454Y9738546D01*
X19915144Y9731454D01*
X19915141Y9731450D01*
X19839519Y9630432D01*
X19839516Y9630428D01*
X19834204Y9623331D01*
X19831104Y9615022D01*
X19831104Y9615020D01*
X19786620Y9495753D01*
X19786619Y9495750D01*
X19783909Y9488483D01*
X19783079Y9480773D01*
X19783079Y9480768D01*
X19777855Y9432181D01*
X19777854Y9432169D01*
X19777500Y9428873D01*
X19777500Y9425552D01*
X19777500Y9425551D01*
X19777500Y7136447D01*
X19777500Y7136429D01*
X19777501Y7133128D01*
X19777854Y7129842D01*
X19777895Y7129083D01*
X19769196Y7076388D01*
X19739141Y7032239D01*
X19693304Y7004827D01*
X19640189Y6999237D01*
X19606923Y7002985D01*
X19600000Y7003765D01*
X19593077Y7002985D01*
X19427665Y6984348D01*
X19427662Y6984348D01*
X19420745Y6983568D01*
X19414182Y6981272D01*
X19414175Y6981270D01*
X19257043Y6926287D01*
X19257036Y6926285D01*
X19250478Y6923989D01*
X19244590Y6920290D01*
X19244587Y6920288D01*
X19103638Y6831724D01*
X19103633Y6831721D01*
X19097738Y6828016D01*
X19092813Y6823092D01*
X19092809Y6823088D01*
X18975112Y6705391D01*
X18975108Y6705387D01*
X18970184Y6700462D01*
X18966479Y6694567D01*
X18966476Y6694562D01*
X18877912Y6553613D01*
X18877910Y6553610D01*
X18874211Y6547722D01*
X18871915Y6541164D01*
X18871913Y6541157D01*
X18816930Y6384025D01*
X18816928Y6384018D01*
X18814632Y6377455D01*
X18794435Y6198200D01*
X18795215Y6191278D01*
X18795215Y6191277D01*
X18811449Y6047190D01*
X18814632Y6018945D01*
X18816928Y6012381D01*
X18816930Y6012376D01*
X18871913Y5855244D01*
X18874211Y5848678D01*
X18970184Y5695938D01*
X19097738Y5568384D01*
X19250478Y5472411D01*
X19420745Y5412832D01*
X19462245Y5408157D01*
X19523686Y5383435D01*
X19563640Y5330612D01*
X19570706Y5264758D01*
X19542867Y5204661D01*
X19371207Y5002567D01*
X19367147Y4997226D01*
X19170102Y4706607D01*
X19166649Y4700869D01*
X19002169Y4390627D01*
X18999360Y4384553D01*
X18869396Y4058369D01*
X18867251Y4052002D01*
X18773317Y3713685D01*
X18771874Y3707131D01*
X18715069Y3360631D01*
X18714343Y3353959D01*
X18695335Y3003357D01*
X18695335Y2996643D01*
X16146700Y2996643D01*
X16168710Y3023462D01*
X16261614Y3197273D01*
X16318824Y3385868D01*
X16338141Y3582000D01*
X16318824Y3778132D01*
X16261614Y3966727D01*
X16168710Y4140538D01*
X16043683Y4292883D01*
X15891338Y4417910D01*
X15885967Y4420781D01*
X15885961Y4420785D01*
X15722899Y4507943D01*
X15722895Y4507945D01*
X15717527Y4510814D01*
X15699660Y4516234D01*
X15534762Y4566256D01*
X15534757Y4566257D01*
X15528932Y4568024D01*
X15522873Y4568621D01*
X15522867Y4568622D01*
X15338862Y4586744D01*
X15332800Y4587341D01*
X15326738Y4586744D01*
X15142732Y4568622D01*
X15142724Y4568621D01*
X15136668Y4568024D01*
X15130844Y4566258D01*
X15130837Y4566256D01*
X14953900Y4512582D01*
X14953896Y4512581D01*
X14948073Y4510814D01*
X14942707Y4507947D01*
X14942700Y4507943D01*
X14779638Y4420785D01*
X14779627Y4420778D01*
X14774262Y4417910D01*
X14769554Y4414047D01*
X14769549Y4414043D01*
X14626623Y4296746D01*
X14626618Y4296742D01*
X14621917Y4292883D01*
X14618058Y4288182D01*
X14618054Y4288177D01*
X14500757Y4145251D01*
X14500753Y4145246D01*
X14496890Y4140538D01*
X14494022Y4135173D01*
X14494015Y4135162D01*
X14406857Y3972100D01*
X14406853Y3972093D01*
X14403986Y3966727D01*
X14402219Y3960904D01*
X14402218Y3960900D01*
X14348544Y3783963D01*
X14348542Y3783956D01*
X14346776Y3778132D01*
X14346179Y3772076D01*
X14346178Y3772068D01*
X14339783Y3707131D01*
X14327459Y3582000D01*
X6248639Y3582000D01*
X6228125Y3707131D01*
X6226682Y3713685D01*
X6132748Y4052002D01*
X6130603Y4058369D01*
X6000639Y4384553D01*
X5997823Y4390642D01*
X5931238Y4516234D01*
X5916793Y4574197D01*
X5931125Y4632188D01*
X5970908Y4676748D01*
X6026909Y4697537D01*
X6063255Y4701632D01*
X6233522Y4761211D01*
X6386262Y4857184D01*
X6513816Y4984738D01*
X6609789Y5137478D01*
X6669368Y5307745D01*
X6689565Y5487000D01*
X6669368Y5666255D01*
X6609789Y5836522D01*
X6513816Y5989262D01*
X6386262Y6116816D01*
X6380364Y6120522D01*
X6380359Y6120526D01*
X6291505Y6176357D01*
X6250896Y6217976D01*
X6233725Y6273531D01*
X6243767Y6330806D01*
X6278811Y6377201D01*
X6310549Y6403247D01*
X6435576Y6555592D01*
X6528480Y6729403D01*
X6585690Y6917998D01*
X6605007Y7114130D01*
X6585690Y7310262D01*
X6528480Y7498857D01*
X6435576Y7672668D01*
X6310549Y7825013D01*
X6158204Y7950040D01*
X6152833Y7952911D01*
X6152827Y7952915D01*
X5989765Y8040073D01*
X5989761Y8040075D01*
X5984393Y8042944D01*
X5917510Y8063233D01*
X5801628Y8098386D01*
X5801623Y8098387D01*
X5795798Y8100154D01*
X5789739Y8100751D01*
X5789733Y8100752D01*
X5605728Y8118874D01*
X5599666Y8119471D01*
X5593604Y8118874D01*
X5409598Y8100752D01*
X5409590Y8100751D01*
X5403534Y8100154D01*
X5397710Y8098388D01*
X5397703Y8098386D01*
X5220766Y8044712D01*
X5220762Y8044711D01*
X5214939Y8042944D01*
X5209571Y8040076D01*
X5209569Y8040074D01*
X5099789Y7981396D01*
X5045230Y7966816D01*
X4989864Y7977943D01*
X4945174Y8012469D01*
X4920430Y8063233D01*
X4920763Y8119702D01*
X4929683Y8156852D01*
X4949449Y8408000D01*
X4929683Y8659148D01*
X4886313Y8839800D01*
X8229215Y8839800D01*
X8229894Y8833340D01*
X8247223Y8668459D01*
X8247224Y8668452D01*
X8247903Y8661997D01*
X8249910Y8655818D01*
X8249911Y8655817D01*
X8286234Y8544025D01*
X8303150Y8491965D01*
X8306397Y8486341D01*
X8306398Y8486339D01*
X8354429Y8403146D01*
X8392541Y8337135D01*
X8512170Y8204274D01*
X8656807Y8099188D01*
X8820133Y8026471D01*
X8826491Y8025120D01*
X8826493Y8025119D01*
X8862085Y8017554D01*
X8995009Y7989300D01*
X9167288Y7989300D01*
X9173791Y7989300D01*
X9348667Y8026471D01*
X9511993Y8099188D01*
X9656630Y8204274D01*
X9776259Y8337135D01*
X9788421Y8358200D01*
X13612835Y8358200D01*
X13633032Y8178945D01*
X13635328Y8172381D01*
X13635330Y8172376D01*
X13686858Y8025119D01*
X13692611Y8008678D01*
X13788584Y7855938D01*
X13916138Y7728384D01*
X14068878Y7632411D01*
X14239145Y7572832D01*
X14418400Y7552635D01*
X14597655Y7572832D01*
X14767922Y7632411D01*
X14920662Y7728384D01*
X15048216Y7855938D01*
X15144189Y8008678D01*
X15203768Y8178945D01*
X15223965Y8358200D01*
X15203768Y8537455D01*
X15144189Y8707722D01*
X15048216Y8860462D01*
X14920662Y8988016D01*
X14767922Y9083989D01*
X14761359Y9086286D01*
X14761356Y9086287D01*
X14604224Y9141270D01*
X14604219Y9141272D01*
X14597655Y9143568D01*
X14590735Y9144348D01*
X14590734Y9144348D01*
X14425323Y9162985D01*
X14418400Y9163765D01*
X14411477Y9162985D01*
X14246065Y9144348D01*
X14246062Y9144348D01*
X14239145Y9143568D01*
X14232582Y9141272D01*
X14232575Y9141270D01*
X14075443Y9086287D01*
X14075436Y9086285D01*
X14068878Y9083989D01*
X14062990Y9080290D01*
X14062987Y9080288D01*
X13922038Y8991724D01*
X13922033Y8991721D01*
X13916138Y8988016D01*
X13911213Y8983092D01*
X13911209Y8983088D01*
X13793512Y8865391D01*
X13793508Y8865387D01*
X13788584Y8860462D01*
X13784879Y8854567D01*
X13784876Y8854562D01*
X13696312Y8713613D01*
X13696310Y8713610D01*
X13692611Y8707722D01*
X13690315Y8701164D01*
X13690313Y8701157D01*
X13635330Y8544025D01*
X13635328Y8544018D01*
X13633032Y8537455D01*
X13632252Y8530538D01*
X13632252Y8530535D01*
X13618993Y8412854D01*
X13612835Y8358200D01*
X9788421Y8358200D01*
X9865650Y8491965D01*
X9920897Y8661997D01*
X9939585Y8839800D01*
X9920897Y9017603D01*
X9865650Y9187635D01*
X9776259Y9342465D01*
X9656630Y9475326D01*
X9568270Y9539524D01*
X9517247Y9576595D01*
X9517245Y9576597D01*
X9511993Y9580412D01*
X9415595Y9623331D01*
X9354605Y9650486D01*
X9354598Y9650489D01*
X9348667Y9653129D01*
X9342314Y9654480D01*
X9342306Y9654482D01*
X9180153Y9688948D01*
X9180150Y9688949D01*
X9173791Y9690300D01*
X8995009Y9690300D01*
X8988650Y9688949D01*
X8988646Y9688948D01*
X8826493Y9654482D01*
X8826482Y9654479D01*
X8820133Y9653129D01*
X8814204Y9650490D01*
X8814194Y9650486D01*
X8662742Y9583055D01*
X8662734Y9583051D01*
X8656808Y9580412D01*
X8651559Y9576599D01*
X8651553Y9576595D01*
X8517423Y9479144D01*
X8517414Y9479137D01*
X8512170Y9475326D01*
X8507826Y9470503D01*
X8507823Y9470499D01*
X8396887Y9347293D01*
X8396882Y9347287D01*
X8392541Y9342465D01*
X8389296Y9336845D01*
X8389292Y9336839D01*
X8306398Y9193262D01*
X8306395Y9193257D01*
X8303150Y9187635D01*
X8301144Y9181463D01*
X8301142Y9181457D01*
X8249911Y9023784D01*
X8247903Y9017603D01*
X8247224Y9011151D01*
X8247223Y9011142D01*
X8231905Y8865391D01*
X8229215Y8839800D01*
X4886313Y8839800D01*
X4870873Y8904111D01*
X4774466Y9136859D01*
X4651918Y9336839D01*
X4645382Y9347505D01*
X4645379Y9347509D01*
X4642836Y9351659D01*
X4532566Y9480768D01*
X4482384Y9539524D01*
X4479224Y9543224D01*
X4440152Y9576595D01*
X4291363Y9703673D01*
X4291358Y9703676D01*
X4287659Y9706836D01*
X4283511Y9709378D01*
X4283504Y9709383D01*
X4155416Y9787875D01*
X4132525Y9805921D01*
X3355542Y10582905D01*
X3344000Y10589569D01*
X3332457Y10582905D01*
X2555473Y9805921D01*
X2532583Y9787875D01*
X2404490Y9709379D01*
X2404485Y9709376D01*
X2400341Y9706836D01*
X2396646Y9703681D01*
X2396636Y9703673D01*
X2212476Y9546385D01*
X2212469Y9546379D01*
X2208776Y9543224D01*
X2205621Y9539531D01*
X2205615Y9539524D01*
X2048327Y9355364D01*
X2048319Y9355354D01*
X2045164Y9351659D01*
X2042626Y9347518D01*
X2042617Y9347505D01*
X1916082Y9141018D01*
X1916078Y9141012D01*
X1913534Y9136859D01*
X1911670Y9132360D01*
X1911668Y9132355D01*
X1853417Y8991724D01*
X1817127Y8904111D01*
X1815992Y8899387D01*
X1815989Y8899375D01*
X1759453Y8663882D01*
X1759451Y8663876D01*
X1758317Y8659148D01*
X1757935Y8654298D01*
X1757935Y8654296D01*
X1748739Y8537455D01*
X1738551Y8408000D01*
X1738933Y8403146D01*
X1756033Y8185866D01*
X1758317Y8156852D01*
X1759452Y8152123D01*
X1759453Y8152119D01*
X1815989Y7916626D01*
X1815991Y7916618D01*
X1817127Y7911889D01*
X1913534Y7679141D01*
X1916081Y7674984D01*
X1916082Y7674983D01*
X2042617Y7468496D01*
X2042622Y7468489D01*
X2045164Y7464341D01*
X2048324Y7460642D01*
X2048327Y7460637D01*
X2171780Y7316093D01*
X2208776Y7272776D01*
X2212476Y7269616D01*
X2394836Y7113865D01*
X2400341Y7109164D01*
X2404491Y7106621D01*
X2404495Y7106618D01*
X2445920Y7081233D01*
X2615141Y6977534D01*
X2847889Y6881127D01*
X3092852Y6822317D01*
X3344000Y6802551D01*
X3595148Y6822317D01*
X3840111Y6881127D01*
X4072859Y6977534D01*
X4287659Y7109164D01*
X4390391Y7196906D01*
X4453932Y7225446D01*
X4522836Y7215225D01*
X4575357Y7169468D01*
X4591629Y7113865D01*
X4594325Y7114130D01*
X4613044Y6924063D01*
X4613045Y6924057D01*
X4613642Y6917998D01*
X4615409Y6912173D01*
X4615410Y6912168D01*
X4669084Y6735231D01*
X4670852Y6729403D01*
X4673721Y6724035D01*
X4673723Y6724031D01*
X4760881Y6560969D01*
X4760885Y6560963D01*
X4763756Y6555592D01*
X4888783Y6403247D01*
X5041128Y6278220D01*
X5046500Y6275349D01*
X5046504Y6275346D01*
X5177883Y6205123D01*
X5211725Y6187034D01*
X5214939Y6185316D01*
X5214708Y6184886D01*
X5257033Y6154408D01*
X5283494Y6104058D01*
X5284691Y6047190D01*
X5260372Y5995771D01*
X5259107Y5994186D01*
X5254184Y5989262D01*
X5250483Y5983373D01*
X5250479Y5983367D01*
X5161912Y5842413D01*
X5161910Y5842410D01*
X5158211Y5836522D01*
X5155916Y5829965D01*
X5155909Y5829949D01*
X5122796Y5735316D01*
X5091464Y5686661D01*
X5041463Y5657524D01*
X4983685Y5654251D01*
X4930714Y5677555D01*
X4857314Y5733352D01*
X4851759Y5737118D01*
X4550900Y5918138D01*
X4544961Y5921286D01*
X4226304Y6068713D01*
X4220062Y6071200D01*
X3887315Y6183316D01*
X3880870Y6185105D01*
X3537946Y6260589D01*
X3531322Y6261675D01*
X3182259Y6299637D01*
X3175563Y6300000D01*
X2824437Y6300000D01*
X2817740Y6299637D01*
X2468677Y6261675D01*
X2462053Y6260589D01*
X2119129Y6185105D01*
X2112684Y6183316D01*
X1779937Y6071200D01*
X1773695Y6068713D01*
X1455038Y5921286D01*
X1449099Y5918138D01*
X1148240Y5737118D01*
X1142694Y5733358D01*
X863149Y5520854D01*
X859159Y5517464D01*
X852329Y5506229D01*
X500Y5506229D01*
X500Y10943146D01*
X1739434Y10943146D01*
X1758430Y10701784D01*
X1759948Y10692198D01*
X1816466Y10456781D01*
X1819468Y10447544D01*
X1912115Y10223874D01*
X1916529Y10215211D01*
X2040132Y10013509D01*
X2046478Y10009273D01*
X2058389Y10015945D01*
X2978903Y10936459D01*
X2985567Y10948001D01*
X3702431Y10948001D01*
X3709095Y10936458D01*
X4629614Y10015940D01*
X4641522Y10009268D01*
X4647856Y10013491D01*
X4771470Y10215211D01*
X4775884Y10223874D01*
X4868531Y10447544D01*
X4871533Y10456781D01*
X4928051Y10692198D01*
X4929569Y10701784D01*
X4948566Y10943146D01*
X4948566Y10952854D01*
X4929569Y11194217D01*
X4928051Y11203803D01*
X4871533Y11439220D01*
X4868531Y11448457D01*
X4775884Y11672127D01*
X4771470Y11680790D01*
X4647865Y11882496D01*
X4641520Y11886730D01*
X4629610Y11880058D01*
X3709095Y10959543D01*
X3702431Y10948001D01*
X2985567Y10948001D01*
X2978903Y10959544D01*
X2058394Y11880052D01*
X2046480Y11886724D01*
X2040121Y11882474D01*
X1916529Y11680790D01*
X1912115Y11672127D01*
X1819468Y11448457D01*
X1816466Y11439220D01*
X1759948Y11203803D01*
X1758430Y11194217D01*
X1739434Y10952854D01*
X1739434Y10943146D01*
X500Y10943146D01*
X500Y13488000D01*
X1738551Y13488000D01*
X1738933Y13483146D01*
X1752186Y13314746D01*
X1758317Y13236852D01*
X1759452Y13232123D01*
X1759453Y13232119D01*
X1815989Y12996626D01*
X1815991Y12996618D01*
X1817127Y12991889D01*
X1913534Y12759141D01*
X1916081Y12754984D01*
X1916082Y12754983D01*
X2042617Y12548496D01*
X2042622Y12548489D01*
X2045164Y12544341D01*
X2048324Y12540642D01*
X2048327Y12540637D01*
X2153632Y12417341D01*
X2208776Y12352776D01*
X2212476Y12349616D01*
X2396632Y12192331D01*
X2400341Y12189164D01*
X2404491Y12186621D01*
X2404495Y12186618D01*
X2532583Y12108126D01*
X2555474Y12090080D01*
X3332457Y11313097D01*
X3344000Y11306433D01*
X3355542Y11313097D01*
X4132522Y12090078D01*
X4155407Y12108121D01*
X4281339Y12185291D01*
X4283500Y12186615D01*
X4283503Y12186618D01*
X4287659Y12189164D01*
X4479224Y12352776D01*
X4642836Y12544341D01*
X4774466Y12759141D01*
X4870873Y12991889D01*
X4929683Y13236852D01*
X4949449Y13488000D01*
X4936093Y13657702D01*
X12324821Y13657702D01*
X12325601Y13650779D01*
X12343941Y13488000D01*
X12345018Y13478447D01*
X12347314Y13471883D01*
X12347316Y13471878D01*
X12402299Y13314746D01*
X12404597Y13308180D01*
X12500570Y13155440D01*
X12628124Y13027886D01*
X12780864Y12931913D01*
X12951131Y12872334D01*
X13130386Y12852137D01*
X13309641Y12872334D01*
X13479908Y12931913D01*
X13632648Y13027886D01*
X13750060Y13145299D01*
X13796782Y13174655D01*
X13845716Y13180169D01*
X13845716Y13180715D01*
X13850564Y13180715D01*
X13851620Y13180834D01*
X13852676Y13180715D01*
X13852678Y13180715D01*
X13859600Y13179935D01*
X14038855Y13200132D01*
X14045426Y13202432D01*
X14045429Y13202432D01*
X14091494Y13218551D01*
X14160042Y13222401D01*
X14220131Y13189191D01*
X14271738Y13137584D01*
X14424478Y13041611D01*
X14594745Y12982032D01*
X14601666Y12981253D01*
X14608450Y12979704D01*
X14607968Y12977596D01*
X14661627Y12955373D01*
X14701360Y12899378D01*
X14748854Y12763646D01*
X14759411Y12733478D01*
X14855384Y12580738D01*
X14982938Y12453184D01*
X15135678Y12357211D01*
X15305945Y12297632D01*
X15485200Y12277435D01*
X15664455Y12297632D01*
X15834722Y12357211D01*
X15987462Y12453184D01*
X16115016Y12580738D01*
X16210989Y12733478D01*
X16270568Y12903745D01*
X16290765Y13083000D01*
X16270568Y13262255D01*
X16210989Y13432522D01*
X16115016Y13585262D01*
X15987462Y13712816D01*
X15834722Y13808789D01*
X15828159Y13811086D01*
X15828156Y13811087D01*
X15671024Y13866070D01*
X15671019Y13866072D01*
X15664455Y13868368D01*
X15657536Y13869148D01*
X15650750Y13870696D01*
X15651230Y13872800D01*
X15597561Y13895036D01*
X15557839Y13951024D01*
X15546261Y13984111D01*
X15509259Y14089859D01*
X15502087Y14110355D01*
X15502086Y14110356D01*
X15499789Y14116922D01*
X15403816Y14269662D01*
X15276262Y14397216D01*
X15228057Y14427505D01*
X15129412Y14489488D01*
X15123522Y14493189D01*
X15116959Y14495486D01*
X15116956Y14495487D01*
X14959824Y14550470D01*
X14959819Y14550472D01*
X14953255Y14552768D01*
X14946335Y14553548D01*
X14946334Y14553548D01*
X14780923Y14572185D01*
X14774000Y14572965D01*
X14767077Y14572185D01*
X14601670Y14553549D01*
X14601663Y14553548D01*
X14594745Y14552768D01*
X14588176Y14550470D01*
X14588169Y14550468D01*
X14542100Y14534348D01*
X14473555Y14530500D01*
X14413468Y14563710D01*
X14366790Y14610388D01*
X14361862Y14615316D01*
X14214285Y14708045D01*
X14168536Y14759239D01*
X14157037Y14826927D01*
X14182662Y14888785D01*
X14184616Y14890738D01*
X14280589Y15043478D01*
X14340168Y15213745D01*
X14360365Y15393000D01*
X14340168Y15572255D01*
X14280589Y15742522D01*
X14184616Y15895262D01*
X14057062Y16022816D01*
X13904322Y16118789D01*
X13897759Y16121086D01*
X13897756Y16121087D01*
X13740624Y16176070D01*
X13740619Y16176072D01*
X13734055Y16178368D01*
X13727135Y16179148D01*
X13727134Y16179148D01*
X13561723Y16197785D01*
X13554800Y16198565D01*
X13547877Y16197785D01*
X13382465Y16179148D01*
X13382462Y16179148D01*
X13375545Y16178368D01*
X13368982Y16176072D01*
X13368975Y16176070D01*
X13211843Y16121087D01*
X13211836Y16121085D01*
X13205278Y16118789D01*
X13199390Y16115090D01*
X13199387Y16115088D01*
X13058438Y16026524D01*
X13058433Y16026521D01*
X13052538Y16022816D01*
X13047613Y16017892D01*
X13047609Y16017888D01*
X12929912Y15900191D01*
X12929908Y15900187D01*
X12924984Y15895262D01*
X12921279Y15889367D01*
X12921276Y15889362D01*
X12832712Y15748413D01*
X12832710Y15748410D01*
X12829011Y15742522D01*
X12826715Y15735964D01*
X12826713Y15735957D01*
X12771730Y15578825D01*
X12771728Y15578818D01*
X12769432Y15572255D01*
X12768652Y15565338D01*
X12768652Y15565335D01*
X12757962Y15470453D01*
X12749235Y15393000D01*
X12769432Y15213745D01*
X12771728Y15207181D01*
X12771730Y15207176D01*
X12826713Y15050044D01*
X12829011Y15043478D01*
X12832712Y15037588D01*
X12883134Y14957341D01*
X12924984Y14890738D01*
X13052538Y14763184D01*
X13169059Y14689969D01*
X13210934Y14646171D01*
X13227055Y14587759D01*
X13213571Y14528681D01*
X13173702Y14483048D01*
X13116970Y14461756D01*
X12958050Y14443850D01*
X12958046Y14443850D01*
X12951131Y14443070D01*
X12944568Y14440774D01*
X12944561Y14440772D01*
X12787429Y14385789D01*
X12787422Y14385787D01*
X12780864Y14383491D01*
X12774976Y14379792D01*
X12774973Y14379790D01*
X12634024Y14291226D01*
X12634019Y14291223D01*
X12628124Y14287518D01*
X12623199Y14282594D01*
X12623195Y14282590D01*
X12505498Y14164893D01*
X12505494Y14164889D01*
X12500570Y14159964D01*
X12496865Y14154069D01*
X12496862Y14154064D01*
X12408298Y14013115D01*
X12408296Y14013112D01*
X12404597Y14007224D01*
X12402301Y14000666D01*
X12402299Y14000659D01*
X12347316Y13843527D01*
X12347314Y13843520D01*
X12345018Y13836957D01*
X12344238Y13830040D01*
X12344238Y13830037D01*
X12325601Y13664625D01*
X12324821Y13657702D01*
X4936093Y13657702D01*
X4929683Y13739148D01*
X4870873Y13984111D01*
X4774466Y14216859D01*
X4713896Y14315700D01*
X4645382Y14427505D01*
X4645379Y14427509D01*
X4642836Y14431659D01*
X4623389Y14454428D01*
X4482386Y14619522D01*
X4482384Y14619524D01*
X4479224Y14623224D01*
X4431816Y14663714D01*
X4399742Y14706086D01*
X4388351Y14758000D01*
X4399742Y14809914D01*
X4431816Y14852287D01*
X4479224Y14892776D01*
X4642836Y15084341D01*
X4774466Y15299141D01*
X4870873Y15531889D01*
X4929683Y15776852D01*
X4949449Y16028000D01*
X4929683Y16279148D01*
X4870873Y16524111D01*
X4833176Y16615120D01*
X6843918Y16615120D01*
X6844698Y16608197D01*
X6845671Y16599557D01*
X6864115Y16435865D01*
X6866411Y16429301D01*
X6866413Y16429296D01*
X6920650Y16274296D01*
X6923694Y16265598D01*
X7019667Y16112858D01*
X7147221Y15985304D01*
X7299961Y15889331D01*
X7470228Y15829752D01*
X7649483Y15809555D01*
X7828738Y15829752D01*
X7876450Y15846448D01*
X7931286Y15852626D01*
X7983375Y15834400D01*
X8022396Y15795379D01*
X8037011Y15772119D01*
X8042999Y15762589D01*
X8048184Y15754338D01*
X8175738Y15626784D01*
X8328478Y15530811D01*
X8498745Y15471232D01*
X8678000Y15451035D01*
X8857255Y15471232D01*
X9027522Y15530811D01*
X9180262Y15626784D01*
X9225319Y15671841D01*
X9280906Y15703935D01*
X9345094Y15703935D01*
X9400681Y15671841D01*
X9445738Y15626784D01*
X9598478Y15530811D01*
X9768745Y15471232D01*
X9948000Y15451035D01*
X10127255Y15471232D01*
X10297522Y15530811D01*
X10450262Y15626784D01*
X10577816Y15754338D01*
X10673789Y15907078D01*
X10733368Y16077345D01*
X10753565Y16256600D01*
X10733368Y16435855D01*
X10673789Y16606122D01*
X10577816Y16758862D01*
X10450262Y16886416D01*
X10297522Y16982389D01*
X10290959Y16984686D01*
X10290956Y16984687D01*
X10133824Y17039670D01*
X10133819Y17039672D01*
X10127255Y17041968D01*
X10120335Y17042748D01*
X10120334Y17042748D01*
X9954923Y17061385D01*
X9948000Y17062165D01*
X9941077Y17061385D01*
X9775665Y17042748D01*
X9775662Y17042748D01*
X9768745Y17041968D01*
X9762182Y17039672D01*
X9762175Y17039670D01*
X9605043Y16984687D01*
X9605036Y16984685D01*
X9598478Y16982389D01*
X9592590Y16978690D01*
X9592587Y16978688D01*
X9451638Y16890124D01*
X9451633Y16890121D01*
X9445738Y16886416D01*
X9440813Y16881492D01*
X9440809Y16881488D01*
X9400681Y16841359D01*
X9345094Y16809265D01*
X9280906Y16809265D01*
X9225319Y16841359D01*
X9185190Y16881488D01*
X9180262Y16886416D01*
X9027522Y16982389D01*
X9020959Y16984686D01*
X9020956Y16984687D01*
X8863824Y17039670D01*
X8863819Y17039672D01*
X8857255Y17041968D01*
X8850335Y17042748D01*
X8850334Y17042748D01*
X8684923Y17061385D01*
X8678000Y17062165D01*
X8671077Y17061385D01*
X8505668Y17042749D01*
X8505659Y17042748D01*
X8498745Y17041968D01*
X8492176Y17039670D01*
X8492165Y17039667D01*
X8451031Y17025274D01*
X8396194Y17019096D01*
X8344106Y17037323D01*
X8305085Y17076344D01*
X8283006Y17111482D01*
X8279299Y17117382D01*
X8151745Y17244936D01*
X8119353Y17265289D01*
X8004895Y17337208D01*
X7999005Y17340909D01*
X7992442Y17343206D01*
X7992439Y17343207D01*
X7835307Y17398190D01*
X7835302Y17398192D01*
X7828738Y17400488D01*
X7821818Y17401268D01*
X7821817Y17401268D01*
X7656406Y17419905D01*
X7649483Y17420685D01*
X7642560Y17419905D01*
X7477148Y17401268D01*
X7477145Y17401268D01*
X7470228Y17400488D01*
X7463665Y17398192D01*
X7463658Y17398190D01*
X7306526Y17343207D01*
X7306519Y17343205D01*
X7299961Y17340909D01*
X7294073Y17337210D01*
X7294070Y17337208D01*
X7153121Y17248644D01*
X7153116Y17248641D01*
X7147221Y17244936D01*
X7142296Y17240012D01*
X7142292Y17240008D01*
X7024595Y17122311D01*
X7024591Y17122307D01*
X7019667Y17117382D01*
X7015962Y17111487D01*
X7015959Y17111482D01*
X6927395Y16970533D01*
X6927393Y16970530D01*
X6923694Y16964642D01*
X6921398Y16958084D01*
X6921396Y16958077D01*
X6866413Y16800945D01*
X6866411Y16800938D01*
X6864115Y16794375D01*
X6863335Y16787458D01*
X6863335Y16787455D01*
X6859184Y16750612D01*
X6843918Y16615120D01*
X4833176Y16615120D01*
X4774466Y16756859D01*
X4642836Y16971659D01*
X4597044Y17025274D01*
X4482386Y17159522D01*
X4482384Y17159524D01*
X4479224Y17163224D01*
X4431817Y17203713D01*
X4399741Y17246088D01*
X4388351Y17298003D01*
X4399742Y17349917D01*
X4431817Y17392288D01*
X4479224Y17432776D01*
X4642836Y17624341D01*
X4774466Y17839141D01*
X4870873Y18071889D01*
X4929683Y18316852D01*
X4949449Y18568000D01*
X4929683Y18819148D01*
X4870873Y19064111D01*
X4774466Y19296859D01*
X4693478Y19429018D01*
X4675408Y19486728D01*
X4686782Y19546123D01*
X4724896Y19593074D01*
X4794447Y19645140D01*
X4801546Y19650454D01*
X4887796Y19765669D01*
X4938091Y19900517D01*
X4944500Y19960127D01*
X4944499Y20555998D01*
X4963505Y20621967D01*
X5014697Y20667715D01*
X5082382Y20679215D01*
X5145811Y20652943D01*
X5185540Y20596950D01*
X5206709Y20536452D01*
X5206713Y20536444D01*
X5209011Y20529878D01*
X5304984Y20377138D01*
X5432538Y20249584D01*
X5585278Y20153611D01*
X5755545Y20094032D01*
X5934800Y20073835D01*
X6114055Y20094032D01*
X6284322Y20153611D01*
X6437062Y20249584D01*
X6564616Y20377138D01*
X6660589Y20529878D01*
X6720168Y20700145D01*
X6740365Y20879400D01*
X6720168Y21058655D01*
X6660589Y21228922D01*
X6564616Y21381662D01*
X6437062Y21509216D01*
X6420378Y21519699D01*
X6290212Y21601488D01*
X6284322Y21605189D01*
X6277759Y21607486D01*
X6277756Y21607487D01*
X6120624Y21662470D01*
X6120619Y21662472D01*
X6114055Y21664768D01*
X6107135Y21665548D01*
X6107134Y21665548D01*
X5941723Y21684185D01*
X5934800Y21684965D01*
X5927877Y21684185D01*
X5762465Y21665548D01*
X5762462Y21665548D01*
X5755545Y21664768D01*
X5748982Y21662472D01*
X5748975Y21662470D01*
X5591843Y21607487D01*
X5591836Y21607485D01*
X5585278Y21605189D01*
X5579390Y21601490D01*
X5579387Y21601488D01*
X5438438Y21512924D01*
X5438433Y21512921D01*
X5432538Y21509216D01*
X5427613Y21504292D01*
X5427609Y21504288D01*
X5309912Y21386591D01*
X5309908Y21386587D01*
X5304984Y21381662D01*
X5301279Y21375767D01*
X5301276Y21375762D01*
X5212712Y21234813D01*
X5212710Y21234810D01*
X5209011Y21228922D01*
X5206716Y21222365D01*
X5206709Y21222349D01*
X5185540Y21161850D01*
X5145811Y21105857D01*
X5082382Y21079585D01*
X5014697Y21091085D01*
X4963505Y21136833D01*
X4944499Y21202805D01*
X4944499Y22026889D01*
X10477346Y22026889D01*
X10497543Y21847634D01*
X10499839Y21841070D01*
X10499841Y21841065D01*
X10554463Y21684965D01*
X10557122Y21677367D01*
X10653095Y21524627D01*
X10780649Y21397073D01*
X10933389Y21301100D01*
X11103656Y21241521D01*
X11282911Y21221324D01*
X11462166Y21241521D01*
X11632433Y21301100D01*
X11785173Y21397073D01*
X11912727Y21524627D01*
X12008700Y21677367D01*
X12068279Y21847634D01*
X12088476Y22026889D01*
X12068279Y22206144D01*
X12008700Y22376411D01*
X11912727Y22529151D01*
X11785173Y22656705D01*
X11773862Y22663812D01*
X11638323Y22748977D01*
X11632433Y22752678D01*
X11625870Y22754975D01*
X11625867Y22754976D01*
X11468735Y22809959D01*
X11468730Y22809961D01*
X11462166Y22812257D01*
X11455246Y22813037D01*
X11455245Y22813037D01*
X11289834Y22831674D01*
X11282911Y22832454D01*
X11275988Y22831674D01*
X11110576Y22813037D01*
X11110573Y22813037D01*
X11103656Y22812257D01*
X11097093Y22809961D01*
X11097086Y22809959D01*
X10939954Y22754976D01*
X10939947Y22754974D01*
X10933389Y22752678D01*
X10927501Y22748979D01*
X10927498Y22748977D01*
X10786549Y22660413D01*
X10786544Y22660410D01*
X10780649Y22656705D01*
X10775724Y22651781D01*
X10775720Y22651777D01*
X10658023Y22534080D01*
X10658019Y22534076D01*
X10653095Y22529151D01*
X10649390Y22523256D01*
X10649387Y22523251D01*
X10560823Y22382302D01*
X10560821Y22382299D01*
X10557122Y22376411D01*
X10554826Y22369853D01*
X10554824Y22369846D01*
X10499841Y22212714D01*
X10499839Y22212707D01*
X10497543Y22206144D01*
X10496763Y22199227D01*
X10496763Y22199224D01*
X10478126Y22033812D01*
X10477346Y22026889D01*
X4944499Y22026889D01*
X4944499Y22252561D01*
X4944499Y22255872D01*
X4938091Y22315483D01*
X4887796Y22450331D01*
X4801546Y22565546D01*
X4758512Y22597761D01*
X4693431Y22646481D01*
X4693430Y22646482D01*
X4686331Y22651796D01*
X4551483Y22702091D01*
X4543770Y22702921D01*
X4543767Y22702921D01*
X4495180Y22708145D01*
X4495169Y22708146D01*
X4491873Y22708500D01*
X4488550Y22708500D01*
X2199439Y22708500D01*
X2199420Y22708500D01*
X2196128Y22708499D01*
X2192850Y22708147D01*
X2192838Y22708146D01*
X2144231Y22702921D01*
X2144225Y22702920D01*
X2136517Y22702091D01*
X2129252Y22699382D01*
X2129246Y22699380D01*
X2009980Y22654896D01*
X2009978Y22654896D01*
X2001669Y22651796D01*
X1994572Y22646484D01*
X1994568Y22646481D01*
X1893550Y22570859D01*
X1893546Y22570856D01*
X1886454Y22565546D01*
X1881144Y22558454D01*
X1881141Y22558450D01*
X1805519Y22457432D01*
X1805516Y22457428D01*
X1800204Y22450331D01*
X1797104Y22442022D01*
X1797104Y22442020D01*
X1752620Y22322753D01*
X1752619Y22322750D01*
X1749909Y22315483D01*
X1749079Y22307773D01*
X1749079Y22307768D01*
X1743855Y22259181D01*
X1743854Y22259169D01*
X1743500Y22255873D01*
X1743500Y22252552D01*
X1743500Y22252551D01*
X1743500Y19963440D01*
X1743500Y19963422D01*
X1743501Y19960128D01*
X1743853Y19956850D01*
X1743854Y19956839D01*
X1749079Y19908232D01*
X1749080Y19908227D01*
X1749909Y19900517D01*
X1752619Y19893251D01*
X1752620Y19893247D01*
X1770326Y19845776D01*
X1800204Y19765669D01*
X1805518Y19758570D01*
X1805519Y19758569D01*
X1879990Y19659088D01*
X1886454Y19650454D01*
X1893550Y19645142D01*
X1963104Y19593074D01*
X2001217Y19546122D01*
X2012591Y19486728D01*
X1994521Y19429018D01*
X1913534Y19296859D01*
X1911670Y19292360D01*
X1911668Y19292355D01*
X1860929Y19169859D01*
X1817127Y19064111D01*
X1815992Y19059387D01*
X1815989Y19059375D01*
X1759453Y18823882D01*
X1759451Y18823876D01*
X1758317Y18819148D01*
X1738551Y18568000D01*
X1758317Y18316852D01*
X1759452Y18312123D01*
X1759453Y18312119D01*
X1815989Y18076626D01*
X1815991Y18076618D01*
X1817127Y18071889D01*
X1913534Y17839141D01*
X1916081Y17834984D01*
X1916082Y17834983D01*
X2042617Y17628496D01*
X2042622Y17628489D01*
X2045164Y17624341D01*
X2048324Y17620642D01*
X2048327Y17620637D01*
X2153632Y17497341D01*
X2208776Y17432776D01*
X2212476Y17429616D01*
X2212482Y17429610D01*
X2256177Y17392291D01*
X2288255Y17349916D01*
X2299646Y17298003D01*
X2288257Y17246089D01*
X2256180Y17203712D01*
X2212476Y17166384D01*
X2208776Y17163224D01*
X2205621Y17159531D01*
X2205615Y17159524D01*
X2048327Y16975364D01*
X2048319Y16975354D01*
X2045164Y16971659D01*
X2042626Y16967518D01*
X2042617Y16967505D01*
X1916082Y16761018D01*
X1916078Y16761012D01*
X1913534Y16756859D01*
X1911670Y16752360D01*
X1911668Y16752355D01*
X1818991Y16528612D01*
X1817127Y16524111D01*
X1815992Y16519387D01*
X1815989Y16519375D01*
X1759453Y16283882D01*
X1759451Y16283876D01*
X1758317Y16279148D01*
X1757935Y16274298D01*
X1757935Y16274296D01*
X1744842Y16107930D01*
X1738551Y16028000D01*
X1738933Y16023146D01*
X1753972Y15832053D01*
X1758317Y15776852D01*
X1759452Y15772123D01*
X1759453Y15772119D01*
X1815989Y15536626D01*
X1815991Y15536618D01*
X1817127Y15531889D01*
X1913534Y15299141D01*
X1916081Y15294984D01*
X1916082Y15294983D01*
X2042617Y15088496D01*
X2042622Y15088489D01*
X2045164Y15084341D01*
X2048324Y15080642D01*
X2048327Y15080637D01*
X2153632Y14957341D01*
X2208776Y14892776D01*
X2212476Y14889616D01*
X2212478Y14889614D01*
X2256179Y14852289D01*
X2288256Y14809913D01*
X2299646Y14758000D01*
X2288256Y14706087D01*
X2256179Y14663711D01*
X2212478Y14626387D01*
X2212469Y14626379D01*
X2208776Y14623224D01*
X2205621Y14619531D01*
X2205615Y14619524D01*
X2048327Y14435364D01*
X2048319Y14435354D01*
X2045164Y14431659D01*
X2042626Y14427518D01*
X2042617Y14427505D01*
X1916082Y14221018D01*
X1916078Y14221012D01*
X1913534Y14216859D01*
X1911670Y14212360D01*
X1911668Y14212355D01*
X1823981Y14000659D01*
X1817127Y13984111D01*
X1815992Y13979387D01*
X1815989Y13979375D01*
X1759453Y13743882D01*
X1759451Y13743876D01*
X1758317Y13739148D01*
X1757935Y13734298D01*
X1757935Y13734296D01*
X1755857Y13707888D01*
X1738551Y13488000D01*
X500Y13488000D01*
X500Y24994200D01*
X569864Y24994200D01*
X589965Y24777277D01*
X649583Y24567741D01*
X652135Y24562615D01*
X652137Y24562611D01*
X744133Y24377858D01*
X744135Y24377854D01*
X746688Y24372728D01*
X877973Y24198878D01*
X1038968Y24052112D01*
X1224190Y23937428D01*
X1427331Y23858730D01*
X1641474Y23818700D01*
X1853597Y23818700D01*
X1859326Y23818700D01*
X2073469Y23858730D01*
X2276610Y23937428D01*
X2461832Y24052112D01*
X2622827Y24198878D01*
X2651762Y24237195D01*
X2695441Y24273465D01*
X2750713Y24286465D01*
X2805985Y24273465D01*
X2849668Y24237191D01*
X2874893Y24203787D01*
X2882581Y24195353D01*
X3035035Y24056374D01*
X3044140Y24049498D01*
X3219540Y23940895D01*
X3229762Y23935805D01*
X3422114Y23861287D01*
X3433108Y23858159D01*
X3486970Y23848091D01*
X3497998Y23848473D01*
X3500400Y23859240D01*
X4000400Y23859240D01*
X4002801Y23848473D01*
X4013829Y23848091D01*
X4067691Y23858159D01*
X4078685Y23861287D01*
X4271037Y23935805D01*
X4281259Y23940895D01*
X4456659Y24049498D01*
X4465757Y24056369D01*
X4472502Y24062518D01*
X4533426Y24092805D01*
X4601160Y24086388D01*
X4655312Y24045198D01*
X4712540Y23968752D01*
X4717854Y23961654D01*
X4833069Y23875404D01*
X4967917Y23825109D01*
X5027527Y23818700D01*
X5793317Y23818701D01*
X5850230Y23804868D01*
X5894446Y23766457D01*
X5916099Y23712036D01*
X5910359Y23653747D01*
X5881659Y23571727D01*
X5881657Y23571719D01*
X5879360Y23565154D01*
X5878580Y23558237D01*
X5878580Y23558234D01*
X5859943Y23392822D01*
X5859163Y23385899D01*
X5879360Y23206644D01*
X5881656Y23200080D01*
X5881658Y23200075D01*
X5936641Y23042943D01*
X5938939Y23036377D01*
X6034912Y22883637D01*
X6162466Y22756083D01*
X6315206Y22660110D01*
X6485473Y22600531D01*
X6664728Y22580334D01*
X6755867Y22590604D01*
X6810702Y22584426D01*
X6857429Y22555065D01*
X6954819Y22457675D01*
X7107559Y22361702D01*
X7277826Y22302123D01*
X7457081Y22281926D01*
X7636336Y22302123D01*
X7806603Y22361702D01*
X7959343Y22457675D01*
X8086897Y22585229D01*
X8094772Y22597761D01*
X8128724Y22651796D01*
X8168502Y22715104D01*
X8207526Y22754126D01*
X8259612Y22772351D01*
X8281163Y22774778D01*
X8451430Y22834357D01*
X8604170Y22930330D01*
X8731724Y23057884D01*
X8827697Y23210624D01*
X8887276Y23380891D01*
X8907473Y23560146D01*
X8887276Y23739401D01*
X8827697Y23909668D01*
X8731724Y24062408D01*
X8604170Y24189962D01*
X8596131Y24195013D01*
X8457320Y24282234D01*
X8451430Y24285935D01*
X8444867Y24288232D01*
X8444864Y24288233D01*
X8287732Y24343216D01*
X8287727Y24343218D01*
X8281163Y24345514D01*
X8274243Y24346294D01*
X8274242Y24346294D01*
X8108831Y24364931D01*
X8101908Y24365711D01*
X8094985Y24364931D01*
X7929573Y24346294D01*
X7929570Y24346294D01*
X7922653Y24345514D01*
X7916090Y24343218D01*
X7916083Y24343216D01*
X7758951Y24288233D01*
X7758944Y24288231D01*
X7752386Y24285935D01*
X7746498Y24282236D01*
X7746495Y24282234D01*
X7605546Y24193670D01*
X7605541Y24193667D01*
X7599646Y24189962D01*
X7594721Y24185038D01*
X7594717Y24185034D01*
X7477020Y24067337D01*
X7477016Y24067333D01*
X7472092Y24062408D01*
X7468387Y24056513D01*
X7468384Y24056508D01*
X7419068Y23978021D01*
X7380046Y23938999D01*
X7327958Y23920773D01*
X7273119Y23926951D01*
X7226393Y23956312D01*
X7171918Y24010787D01*
X7166990Y24015715D01*
X7113864Y24049096D01*
X7102068Y24056508D01*
X7014250Y24111688D01*
X7005409Y24114782D01*
X7003360Y24116067D01*
X7001405Y24117008D01*
X7001510Y24117227D01*
X6958832Y24143993D01*
X6929463Y24190473D01*
X6923077Y24245076D01*
X6925900Y24271327D01*
X6925899Y24772635D01*
X6944905Y24838606D01*
X6996097Y24884354D01*
X7063782Y24895854D01*
X7222569Y24877963D01*
X7401824Y24898160D01*
X7572091Y24957739D01*
X7724831Y25053712D01*
X7852385Y25181266D01*
X7948358Y25334006D01*
X8007937Y25504273D01*
X8028134Y25683528D01*
X8013665Y25811944D01*
X8019844Y25866780D01*
X8049204Y25913507D01*
X8082604Y25946906D01*
X8178577Y26099646D01*
X8238156Y26269913D01*
X8258353Y26449168D01*
X8250575Y26518200D01*
X11253935Y26518200D01*
X11274132Y26338945D01*
X11276428Y26332381D01*
X11276430Y26332376D01*
X11327723Y26185790D01*
X11333711Y26168678D01*
X11337412Y26162788D01*
X11419552Y26032062D01*
X11429684Y26015938D01*
X11557238Y25888384D01*
X11709978Y25792411D01*
X11880245Y25732832D01*
X12059500Y25712635D01*
X12238755Y25732832D01*
X12409022Y25792411D01*
X12561762Y25888384D01*
X12689316Y26015938D01*
X12785289Y26168678D01*
X12844868Y26338945D01*
X12865065Y26518200D01*
X12844868Y26697455D01*
X12785289Y26867722D01*
X12689316Y27020462D01*
X12561762Y27148016D01*
X12515228Y27177255D01*
X12414912Y27240288D01*
X12409022Y27243989D01*
X12402459Y27246286D01*
X12402456Y27246287D01*
X12245324Y27301270D01*
X12245319Y27301272D01*
X12238755Y27303568D01*
X12231835Y27304348D01*
X12231834Y27304348D01*
X12066423Y27322985D01*
X12059500Y27323765D01*
X12052577Y27322985D01*
X11887165Y27304348D01*
X11887162Y27304348D01*
X11880245Y27303568D01*
X11873682Y27301272D01*
X11873675Y27301270D01*
X11716543Y27246287D01*
X11716536Y27246285D01*
X11709978Y27243989D01*
X11704090Y27240290D01*
X11704087Y27240288D01*
X11563138Y27151724D01*
X11563133Y27151721D01*
X11557238Y27148016D01*
X11552313Y27143092D01*
X11552309Y27143088D01*
X11434612Y27025391D01*
X11434608Y27025387D01*
X11429684Y27020462D01*
X11425979Y27014567D01*
X11425976Y27014562D01*
X11337412Y26873613D01*
X11337410Y26873610D01*
X11333711Y26867722D01*
X11331415Y26861164D01*
X11331413Y26861157D01*
X11276430Y26704025D01*
X11276428Y26704018D01*
X11274132Y26697455D01*
X11253935Y26518200D01*
X8250575Y26518200D01*
X8238156Y26628423D01*
X8178577Y26798690D01*
X8082604Y26951430D01*
X7955050Y27078984D01*
X7802310Y27174957D01*
X7795747Y27177254D01*
X7795744Y27177255D01*
X7638612Y27232238D01*
X7638607Y27232240D01*
X7632043Y27234536D01*
X7625123Y27235316D01*
X7625122Y27235316D01*
X7459711Y27253953D01*
X7452788Y27254733D01*
X7445865Y27253953D01*
X7280453Y27235316D01*
X7280450Y27235316D01*
X7273533Y27234536D01*
X7266970Y27232240D01*
X7266963Y27232238D01*
X7109831Y27177255D01*
X7109824Y27177253D01*
X7103266Y27174957D01*
X7097378Y27171258D01*
X7097375Y27171256D01*
X6956426Y27082692D01*
X6956421Y27082689D01*
X6950526Y27078984D01*
X6945601Y27074060D01*
X6945597Y27074056D01*
X6827900Y26956359D01*
X6827896Y26956355D01*
X6822972Y26951430D01*
X6819267Y26945535D01*
X6819264Y26945530D01*
X6730700Y26804581D01*
X6730698Y26804578D01*
X6726999Y26798690D01*
X6724703Y26792132D01*
X6724701Y26792125D01*
X6669718Y26634993D01*
X6669716Y26634986D01*
X6667420Y26628423D01*
X6666640Y26621506D01*
X6666640Y26621503D01*
X6659585Y26558888D01*
X6647223Y26449168D01*
X6648003Y26442245D01*
X6661691Y26320755D01*
X6655512Y26265917D01*
X6626152Y26219191D01*
X6608575Y26201614D01*
X6562148Y26172359D01*
X6507641Y26166005D01*
X6476569Y26169346D01*
X6476562Y26169347D01*
X6473273Y26169700D01*
X6469951Y26169700D01*
X5380569Y26169700D01*
X5319373Y26185852D01*
X5274121Y26230102D01*
X5256600Y26290920D01*
X5271376Y26352462D01*
X5314600Y26398695D01*
X5316150Y26399670D01*
X5338563Y26413752D01*
X5466117Y26541306D01*
X5562090Y26694046D01*
X5621669Y26864313D01*
X5641866Y27043568D01*
X5621669Y27222823D01*
X5562090Y27393090D01*
X5466117Y27545830D01*
X5338563Y27673384D01*
X5185823Y27769357D01*
X5179260Y27771654D01*
X5179257Y27771655D01*
X5022125Y27826638D01*
X5022120Y27826640D01*
X5015556Y27828936D01*
X5008636Y27829716D01*
X5008635Y27829716D01*
X4843224Y27848353D01*
X4836301Y27849133D01*
X4829378Y27848353D01*
X4663966Y27829716D01*
X4663963Y27829716D01*
X4657046Y27828936D01*
X4650483Y27826640D01*
X4650476Y27826638D01*
X4493344Y27771655D01*
X4493337Y27771653D01*
X4486779Y27769357D01*
X4480891Y27765658D01*
X4480888Y27765656D01*
X4339939Y27677092D01*
X4339934Y27677089D01*
X4334039Y27673384D01*
X4329114Y27668460D01*
X4329110Y27668456D01*
X4211413Y27550759D01*
X4211409Y27550755D01*
X4206485Y27545830D01*
X4202780Y27539935D01*
X4202777Y27539930D01*
X4114213Y27398981D01*
X4114211Y27398978D01*
X4110512Y27393090D01*
X4108216Y27386532D01*
X4108214Y27386525D01*
X4053231Y27229393D01*
X4053229Y27229386D01*
X4050933Y27222823D01*
X4050153Y27215906D01*
X4050153Y27215903D01*
X4035144Y27082692D01*
X4030736Y27043568D01*
X4050933Y26864313D01*
X4053229Y26857749D01*
X4053231Y26857744D01*
X4107020Y26704025D01*
X4110512Y26694046D01*
X4206485Y26541306D01*
X4334039Y26413752D01*
X4486779Y26317779D01*
X4657046Y26258200D01*
X4667788Y26256990D01*
X4722845Y26236839D01*
X4762491Y26193644D01*
X4777860Y26137063D01*
X4765517Y26079746D01*
X4728220Y26034507D01*
X4724953Y26032062D01*
X4724946Y26032056D01*
X4717854Y26026746D01*
X4712544Y26019654D01*
X4712537Y26019646D01*
X4655313Y25943204D01*
X4601165Y25902014D01*
X4533435Y25895594D01*
X4472511Y25925875D01*
X4465757Y25932031D01*
X4456659Y25938903D01*
X4281259Y26047506D01*
X4271037Y26052596D01*
X4078685Y26127114D01*
X4067691Y26130242D01*
X4013829Y26140310D01*
X4002801Y26139928D01*
X4000400Y26129160D01*
X4000400Y23859240D01*
X3500400Y23859240D01*
X3500400Y26129160D01*
X3497998Y26139928D01*
X3486970Y26140310D01*
X3433108Y26130242D01*
X3422114Y26127114D01*
X3229762Y26052596D01*
X3219540Y26047506D01*
X3044140Y25938903D01*
X3035035Y25932027D01*
X2882584Y25793050D01*
X2874886Y25784606D01*
X2849667Y25751210D01*
X2805984Y25714937D01*
X2750713Y25701937D01*
X2695441Y25714937D01*
X2651759Y25751210D01*
X2626284Y25784945D01*
X2626280Y25784949D01*
X2622827Y25789522D01*
X2461832Y25936288D01*
X2456962Y25939303D01*
X2456960Y25939305D01*
X2281486Y26047953D01*
X2281485Y26047954D01*
X2276610Y26050972D01*
X2271263Y26053044D01*
X2271260Y26053045D01*
X2116509Y26112996D01*
X2073469Y26129670D01*
X2067843Y26130722D01*
X2067835Y26130724D01*
X1864955Y26168648D01*
X1864952Y26168649D01*
X1859326Y26169700D01*
X1641474Y26169700D01*
X1635848Y26168649D01*
X1635844Y26168648D01*
X1432964Y26130724D01*
X1432953Y26130722D01*
X1427331Y26129670D01*
X1421984Y26127599D01*
X1421982Y26127598D01*
X1229539Y26053045D01*
X1229532Y26053042D01*
X1224190Y26050972D01*
X1219318Y26047956D01*
X1219313Y26047953D01*
X1043839Y25939305D01*
X1043831Y25939300D01*
X1038968Y25936288D01*
X1034737Y25932432D01*
X1034733Y25932428D01*
X882213Y25793388D01*
X882209Y25793384D01*
X877973Y25789522D01*
X874519Y25784949D01*
X874516Y25784945D01*
X797930Y25683528D01*
X746688Y25615672D01*
X744138Y25610552D01*
X744133Y25610543D01*
X652137Y25425790D01*
X652133Y25425782D01*
X649583Y25420659D01*
X589965Y25211123D01*
X569864Y24994200D01*
X500Y24994200D01*
X500Y27540700D01*
X2182835Y27540700D01*
X2183615Y27533777D01*
X2201998Y27370617D01*
X2203032Y27361445D01*
X2205328Y27354881D01*
X2205330Y27354876D01*
X2253959Y27215903D01*
X2262611Y27191178D01*
X2266312Y27185288D01*
X2351010Y27050491D01*
X2358584Y27038438D01*
X2486138Y26910884D01*
X2638878Y26814911D01*
X2809145Y26755332D01*
X2988400Y26735135D01*
X3167655Y26755332D01*
X3337922Y26814911D01*
X3490662Y26910884D01*
X3618216Y27038438D01*
X3714189Y27191178D01*
X3773768Y27361445D01*
X3793965Y27540700D01*
X3773768Y27719955D01*
X3714189Y27890222D01*
X3618216Y28042962D01*
X3490662Y28170516D01*
X3479206Y28177714D01*
X3343812Y28262788D01*
X3337922Y28266489D01*
X3331359Y28268786D01*
X3331356Y28268787D01*
X3174224Y28323770D01*
X3174219Y28323772D01*
X3167655Y28326068D01*
X3160735Y28326848D01*
X3160734Y28326848D01*
X2995323Y28345485D01*
X2988400Y28346265D01*
X2981477Y28345485D01*
X2816065Y28326848D01*
X2816062Y28326848D01*
X2809145Y28326068D01*
X2802582Y28323772D01*
X2802575Y28323770D01*
X2645443Y28268787D01*
X2645436Y28268785D01*
X2638878Y28266489D01*
X2632990Y28262790D01*
X2632987Y28262788D01*
X2492038Y28174224D01*
X2492033Y28174221D01*
X2486138Y28170516D01*
X2481213Y28165592D01*
X2481209Y28165588D01*
X2363512Y28047891D01*
X2363508Y28047887D01*
X2358584Y28042962D01*
X2354879Y28037067D01*
X2354876Y28037062D01*
X2266312Y27896113D01*
X2266310Y27896110D01*
X2262611Y27890222D01*
X2260315Y27883664D01*
X2260313Y27883657D01*
X2205330Y27726525D01*
X2205328Y27726518D01*
X2203032Y27719955D01*
X2202252Y27713038D01*
X2202252Y27713035D01*
X2193154Y27632284D01*
X2182835Y27540700D01*
X500Y27540700D01*
X500Y29734355D01*
X5476247Y29734355D01*
X5477027Y29727434D01*
X5477027Y29727432D01*
X5494919Y29568630D01*
X5496444Y29555100D01*
X5498740Y29548536D01*
X5498742Y29548531D01*
X5548717Y29405711D01*
X5556023Y29384833D01*
X5559724Y29378943D01*
X5631514Y29264689D01*
X5651996Y29232093D01*
X5656924Y29227165D01*
X5754272Y29129817D01*
X5783632Y29083091D01*
X5789811Y29028253D01*
X5783204Y28969614D01*
X5772837Y28877600D01*
X5773617Y28870677D01*
X5789856Y28726545D01*
X5793034Y28698345D01*
X5795330Y28691781D01*
X5795332Y28691776D01*
X5850315Y28534644D01*
X5852613Y28528078D01*
X5856314Y28522188D01*
X5934963Y28397018D01*
X5948586Y28375338D01*
X6076140Y28247784D01*
X6228880Y28151811D01*
X6399147Y28092232D01*
X6578402Y28072035D01*
X6757657Y28092232D01*
X6927924Y28151811D01*
X7080664Y28247784D01*
X7208218Y28375338D01*
X7304191Y28528078D01*
X7363770Y28698345D01*
X7367981Y28735723D01*
X7390880Y28794718D01*
X7439916Y28834733D01*
X7502312Y28845336D01*
X7561813Y28823765D01*
X7601979Y28776739D01*
X7603188Y28773285D01*
X7606886Y28767399D01*
X7606888Y28767396D01*
X7681742Y28648267D01*
X7699161Y28620545D01*
X7826715Y28492991D01*
X7979455Y28397018D01*
X8149722Y28337439D01*
X8328977Y28317242D01*
X8508232Y28337439D01*
X8514805Y28339740D01*
X8514809Y28339740D01*
X8633405Y28381239D01*
X8669705Y28393942D01*
X8738252Y28397791D01*
X8798341Y28364581D01*
X8836138Y28326784D01*
X8988878Y28230811D01*
X9159145Y28171232D01*
X9338400Y28151035D01*
X9517655Y28171232D01*
X9687922Y28230811D01*
X9840662Y28326784D01*
X9968216Y28454338D01*
X10064189Y28607078D01*
X10123768Y28777345D01*
X10143965Y28956600D01*
X10123768Y29135855D01*
X10064189Y29306122D01*
X9968216Y29458862D01*
X9840662Y29586416D01*
X9687922Y29682389D01*
X9681359Y29684686D01*
X9681356Y29684687D01*
X9524224Y29739670D01*
X9524219Y29739672D01*
X9517655Y29741968D01*
X9510735Y29742748D01*
X9510734Y29742748D01*
X9345323Y29761385D01*
X9338400Y29762165D01*
X9331477Y29761385D01*
X9166065Y29742748D01*
X9166062Y29742748D01*
X9159145Y29741968D01*
X9152580Y29739671D01*
X9152572Y29739669D01*
X8997670Y29685466D01*
X8929123Y29681617D01*
X8869035Y29714827D01*
X8836167Y29747695D01*
X8836166Y29747696D01*
X8831239Y29752623D01*
X8817294Y29761385D01*
X8684389Y29844895D01*
X8678499Y29848596D01*
X8671936Y29850893D01*
X8671933Y29850894D01*
X8514801Y29905877D01*
X8514796Y29905879D01*
X8508232Y29908175D01*
X8501312Y29908955D01*
X8501311Y29908955D01*
X8335900Y29927592D01*
X8328977Y29928372D01*
X8322054Y29927592D01*
X8156642Y29908955D01*
X8156639Y29908955D01*
X8149722Y29908175D01*
X8143159Y29905879D01*
X8143152Y29905877D01*
X7986020Y29850894D01*
X7986013Y29850892D01*
X7979455Y29848596D01*
X7973567Y29844897D01*
X7973564Y29844895D01*
X7832615Y29756331D01*
X7832610Y29756328D01*
X7826715Y29752623D01*
X7821790Y29747699D01*
X7821786Y29747695D01*
X7704089Y29629998D01*
X7704085Y29629994D01*
X7699161Y29625069D01*
X7695456Y29619174D01*
X7695453Y29619169D01*
X7606889Y29478220D01*
X7606887Y29478217D01*
X7603188Y29472329D01*
X7600892Y29465771D01*
X7600890Y29465764D01*
X7545907Y29308632D01*
X7545905Y29308625D01*
X7543609Y29302062D01*
X7542829Y29295147D01*
X7542829Y29295143D01*
X7539398Y29264689D01*
X7516496Y29205687D01*
X7467459Y29165674D01*
X7405063Y29155072D01*
X7345562Y29176645D01*
X7305399Y29223669D01*
X7304191Y29227122D01*
X7208218Y29379862D01*
X7105941Y29482139D01*
X7076580Y29528866D01*
X7070402Y29583701D01*
X7087377Y29734355D01*
X7067180Y29913610D01*
X7007601Y30083877D01*
X6911628Y30236617D01*
X6878742Y30269503D01*
X6846648Y30325091D01*
X6846648Y30389278D01*
X6878739Y30444862D01*
X6971016Y30537138D01*
X7066989Y30689878D01*
X7126568Y30860145D01*
X7146765Y31039400D01*
X7141100Y31089677D01*
X7152600Y31157362D01*
X7198346Y31208553D01*
X7220360Y31222384D01*
X7347914Y31349938D01*
X7443887Y31502678D01*
X7503466Y31672945D01*
X7523663Y31852200D01*
X7503466Y32031455D01*
X7443887Y32201722D01*
X7347914Y32354462D01*
X7220360Y32482016D01*
X7175521Y32510190D01*
X7073510Y32574288D01*
X7067620Y32577989D01*
X7061057Y32580286D01*
X7061054Y32580287D01*
X6903922Y32635270D01*
X6903917Y32635272D01*
X6897353Y32637568D01*
X6890433Y32638348D01*
X6890432Y32638348D01*
X6725021Y32656985D01*
X6718098Y32657765D01*
X6711175Y32656985D01*
X6545763Y32638348D01*
X6545760Y32638348D01*
X6538843Y32637568D01*
X6532280Y32635272D01*
X6532273Y32635270D01*
X6375141Y32580287D01*
X6375134Y32580285D01*
X6368576Y32577989D01*
X6362688Y32574290D01*
X6362685Y32574288D01*
X6221736Y32485724D01*
X6221731Y32485721D01*
X6215836Y32482016D01*
X6210911Y32477092D01*
X6210907Y32477088D01*
X6093210Y32359391D01*
X6093206Y32359387D01*
X6088282Y32354462D01*
X6084577Y32348567D01*
X6084574Y32348562D01*
X5996010Y32207613D01*
X5996008Y32207610D01*
X5992309Y32201722D01*
X5990013Y32195164D01*
X5990011Y32195157D01*
X5935028Y32038025D01*
X5935026Y32038018D01*
X5932730Y32031455D01*
X5931950Y32024538D01*
X5931950Y32024535D01*
X5916895Y31890913D01*
X5912533Y31852200D01*
X5917942Y31804193D01*
X5918198Y31801923D01*
X5906698Y31734240D01*
X5860952Y31683049D01*
X5844834Y31672921D01*
X5838938Y31669216D01*
X5834016Y31664295D01*
X5834012Y31664291D01*
X5716312Y31546591D01*
X5716308Y31546587D01*
X5711384Y31541662D01*
X5707679Y31535767D01*
X5707676Y31535762D01*
X5619112Y31394813D01*
X5619110Y31394810D01*
X5615411Y31388922D01*
X5613115Y31382364D01*
X5613113Y31382357D01*
X5558130Y31225225D01*
X5558128Y31225218D01*
X5555832Y31218655D01*
X5555052Y31211738D01*
X5555052Y31211735D01*
X5541300Y31089676D01*
X5535635Y31039400D01*
X5536415Y31032477D01*
X5551417Y30899325D01*
X5555832Y30860145D01*
X5558128Y30853581D01*
X5558130Y30853576D01*
X5610640Y30703512D01*
X5615411Y30689878D01*
X5711384Y30537138D01*
X5716312Y30532210D01*
X5744269Y30504253D01*
X5776363Y30448666D01*
X5776363Y30384479D01*
X5744270Y30328891D01*
X5651996Y30236617D01*
X5648291Y30230722D01*
X5648288Y30230717D01*
X5559724Y30089768D01*
X5559722Y30089765D01*
X5556023Y30083877D01*
X5553727Y30077319D01*
X5553725Y30077312D01*
X5498742Y29920180D01*
X5498740Y29920173D01*
X5496444Y29913610D01*
X5495664Y29906693D01*
X5495664Y29906690D01*
X5478909Y29757983D01*
X5476247Y29734355D01*
X500Y29734355D01*
X500Y32055400D01*
X455635Y32055400D01*
X456415Y32048477D01*
X473230Y31899234D01*
X475832Y31876145D01*
X478128Y31869581D01*
X478130Y31869576D01*
X533113Y31712444D01*
X535411Y31705878D01*
X631384Y31553138D01*
X758938Y31425584D01*
X911678Y31329611D01*
X1081945Y31270032D01*
X1261200Y31249835D01*
X1440455Y31270032D01*
X1610722Y31329611D01*
X1763462Y31425584D01*
X1885278Y31547400D01*
X2560535Y31547400D01*
X2561315Y31540477D01*
X2572426Y31441858D01*
X2580732Y31368145D01*
X2583028Y31361581D01*
X2583030Y31361576D01*
X2638013Y31204444D01*
X2640311Y31197878D01*
X2736284Y31045138D01*
X2863838Y30917584D01*
X3016578Y30821611D01*
X3186845Y30762032D01*
X3366100Y30741835D01*
X3545355Y30762032D01*
X3715622Y30821611D01*
X3868362Y30917584D01*
X3995916Y31045138D01*
X4091889Y31197878D01*
X4151468Y31368145D01*
X4171665Y31547400D01*
X4165906Y31598513D01*
X4172084Y31653350D01*
X4201445Y31700076D01*
X4248172Y31729437D01*
X4303005Y31735615D01*
X4451610Y31718871D01*
X4630865Y31739068D01*
X4801132Y31798647D01*
X4953872Y31894620D01*
X5081426Y32022174D01*
X5177399Y32174914D01*
X5236978Y32345181D01*
X5257175Y32524436D01*
X5236978Y32703691D01*
X5177399Y32873958D01*
X5081426Y33026698D01*
X4953872Y33154252D01*
X4918270Y33176622D01*
X4807022Y33246524D01*
X4801132Y33250225D01*
X4794569Y33252522D01*
X4794566Y33252523D01*
X4637434Y33307506D01*
X4637429Y33307508D01*
X4630865Y33309804D01*
X4623945Y33310584D01*
X4623944Y33310584D01*
X4458533Y33329221D01*
X4451610Y33330001D01*
X4444687Y33329221D01*
X4279275Y33310584D01*
X4279272Y33310584D01*
X4272355Y33309804D01*
X4265792Y33307508D01*
X4265785Y33307506D01*
X4108653Y33252523D01*
X4108646Y33252521D01*
X4102088Y33250225D01*
X4096200Y33246526D01*
X4096197Y33246524D01*
X3955248Y33157960D01*
X3955243Y33157957D01*
X3949348Y33154252D01*
X3944423Y33149328D01*
X3944419Y33149324D01*
X3826722Y33031627D01*
X3826718Y33031623D01*
X3821794Y33026698D01*
X3818089Y33020803D01*
X3818086Y33020798D01*
X3729522Y32879849D01*
X3729520Y32879846D01*
X3725821Y32873958D01*
X3723525Y32867400D01*
X3723523Y32867393D01*
X3668540Y32710261D01*
X3668538Y32710254D01*
X3666242Y32703691D01*
X3665462Y32696774D01*
X3665462Y32696771D01*
X3654515Y32599611D01*
X3646045Y32524436D01*
X3650407Y32485724D01*
X3651804Y32473324D01*
X3645624Y32418486D01*
X3616264Y32371760D01*
X3569537Y32342400D01*
X3514700Y32336222D01*
X3373023Y32352185D01*
X3366100Y32352965D01*
X3359177Y32352185D01*
X3193765Y32333548D01*
X3193762Y32333548D01*
X3186845Y32332768D01*
X3180282Y32330472D01*
X3180275Y32330470D01*
X3023143Y32275487D01*
X3023136Y32275485D01*
X3016578Y32273189D01*
X3010690Y32269490D01*
X3010687Y32269488D01*
X2869738Y32180924D01*
X2869733Y32180921D01*
X2863838Y32177216D01*
X2858913Y32172292D01*
X2858909Y32172288D01*
X2741212Y32054591D01*
X2741208Y32054587D01*
X2736284Y32049662D01*
X2732579Y32043767D01*
X2732576Y32043762D01*
X2644012Y31902813D01*
X2644010Y31902810D01*
X2640311Y31896922D01*
X2638015Y31890364D01*
X2638013Y31890357D01*
X2583030Y31733225D01*
X2583028Y31733218D01*
X2580732Y31726655D01*
X2579952Y31719738D01*
X2579952Y31719735D01*
X2569271Y31624937D01*
X2560535Y31547400D01*
X1885278Y31547400D01*
X1891016Y31553138D01*
X1986989Y31705878D01*
X2046568Y31876145D01*
X2066765Y32055400D01*
X2046568Y32234655D01*
X1986989Y32404922D01*
X1901409Y32541121D01*
X1882751Y32597827D01*
X1892752Y32656682D01*
X1923440Y32696674D01*
X1922405Y32697709D01*
X1976066Y32751370D01*
X2049959Y32825263D01*
X2145932Y32978003D01*
X2156999Y33009631D01*
X2578000Y33009631D01*
X2580551Y32998689D01*
X2591780Y32999057D01*
X2786263Y33051169D01*
X2796397Y33054857D01*
X3000676Y33150114D01*
X3010008Y33155502D01*
X3194643Y33284785D01*
X3202909Y33291722D01*
X3362278Y33451091D01*
X3369215Y33459357D01*
X3498498Y33643992D01*
X3503886Y33653324D01*
X3599143Y33857603D01*
X3602831Y33867737D01*
X3654943Y34062220D01*
X3655311Y34073449D01*
X3644369Y34076000D01*
X2594326Y34076000D01*
X2581450Y34072550D01*
X2578000Y34059674D01*
X2578000Y33009631D01*
X2156999Y33009631D01*
X2205511Y33148270D01*
X2225708Y33327525D01*
X2205511Y33506780D01*
X2145932Y33677047D01*
X2097005Y33754913D01*
X2078000Y33820884D01*
X2078000Y34059674D01*
X2074549Y34072550D01*
X2061674Y34076000D01*
X1725902Y34076000D01*
X1684947Y34082959D01*
X1605975Y34110593D01*
X1605963Y34110596D01*
X1599398Y34112893D01*
X1592478Y34113673D01*
X1592477Y34113673D01*
X1427066Y34132310D01*
X1420143Y34133090D01*
X1413220Y34132310D01*
X1247808Y34113673D01*
X1247805Y34113673D01*
X1240888Y34112893D01*
X1234324Y34110597D01*
X1234310Y34110593D01*
X1155339Y34082959D01*
X1114384Y34076000D01*
X1011631Y34076000D01*
X999655Y34073208D01*
X997112Y34067596D01*
X985974Y34019577D01*
X942455Y33972783D01*
X923783Y33961051D01*
X923773Y33961044D01*
X917881Y33957341D01*
X912956Y33952417D01*
X912952Y33952413D01*
X795255Y33834716D01*
X795251Y33834712D01*
X790327Y33829787D01*
X786622Y33823892D01*
X786619Y33823887D01*
X698055Y33682938D01*
X698053Y33682935D01*
X694354Y33677047D01*
X692058Y33670489D01*
X692056Y33670482D01*
X637073Y33513350D01*
X637071Y33513343D01*
X634775Y33506780D01*
X633995Y33499863D01*
X633995Y33499860D01*
X618775Y33364777D01*
X614578Y33327525D01*
X615358Y33320602D01*
X631580Y33176622D01*
X634775Y33148270D01*
X637071Y33141706D01*
X637073Y33141701D01*
X692056Y32984569D01*
X694354Y32978003D01*
X698053Y32972116D01*
X698055Y32972112D01*
X779932Y32841806D01*
X798591Y32785111D01*
X788600Y32726266D01*
X757906Y32686248D01*
X758938Y32685216D01*
X636312Y32562591D01*
X636308Y32562587D01*
X631384Y32557662D01*
X627679Y32551767D01*
X627676Y32551762D01*
X539112Y32410813D01*
X539110Y32410810D01*
X535411Y32404922D01*
X533115Y32398364D01*
X533113Y32398357D01*
X478130Y32241225D01*
X478128Y32241218D01*
X475832Y32234655D01*
X475052Y32227738D01*
X475052Y32227735D01*
X459630Y32090855D01*
X455635Y32055400D01*
X500Y32055400D01*
X500Y34473600D01*
X4790793Y34473600D01*
X4791573Y34466677D01*
X4809266Y34309640D01*
X4810990Y34294345D01*
X4813286Y34287781D01*
X4813288Y34287776D01*
X4867688Y34132310D01*
X4870569Y34124078D01*
X4966542Y33971338D01*
X5094096Y33843784D01*
X5246836Y33747811D01*
X5417103Y33688232D01*
X5486513Y33680412D01*
X5549937Y33654141D01*
X5589667Y33598149D01*
X5615411Y33524578D01*
X5711384Y33371838D01*
X5838938Y33244284D01*
X5991678Y33148311D01*
X6161945Y33088732D01*
X6341200Y33068535D01*
X6520455Y33088732D01*
X6690722Y33148311D01*
X6843462Y33244284D01*
X6945955Y33346778D01*
X7006040Y33379985D01*
X7074588Y33376136D01*
X7130388Y33336542D01*
X7133784Y33331138D01*
X7261338Y33203584D01*
X7414078Y33107611D01*
X7584345Y33048032D01*
X7763600Y33027835D01*
X7942855Y33048032D01*
X8113122Y33107611D01*
X8265862Y33203584D01*
X8333125Y33270848D01*
X8388709Y33302939D01*
X8452896Y33302939D01*
X8508484Y33270846D01*
X8530545Y33248784D01*
X8683285Y33152811D01*
X8853552Y33093232D01*
X9032807Y33073035D01*
X9212062Y33093232D01*
X9218635Y33095533D01*
X9218639Y33095533D01*
X9374643Y33150121D01*
X9429481Y33156300D01*
X9481569Y33138074D01*
X9506761Y33122245D01*
X9506765Y33122243D01*
X9512657Y33118541D01*
X9682924Y33058962D01*
X9862179Y33038765D01*
X10041434Y33058962D01*
X10048010Y33061264D01*
X10049061Y33061503D01*
X10097426Y33062861D01*
X10142625Y33045609D01*
X10294264Y32950327D01*
X10404144Y32911879D01*
X10454084Y32879182D01*
X10482961Y32826940D01*
X10484037Y32769678D01*
X10483460Y32768027D01*
X10482681Y32761120D01*
X10482680Y32761112D01*
X10466239Y32615184D01*
X10463263Y32588772D01*
X10464043Y32581849D01*
X10482679Y32416441D01*
X10482680Y32416438D01*
X10483460Y32409517D01*
X10485758Y32402950D01*
X10485760Y32402941D01*
X10503742Y32351551D01*
X10509920Y32296714D01*
X10491694Y32244627D01*
X10433925Y32152688D01*
X10433919Y32152677D01*
X10430222Y32146792D01*
X10427926Y32140234D01*
X10427924Y32140227D01*
X10372941Y31983095D01*
X10372939Y31983088D01*
X10370643Y31976525D01*
X10369863Y31969608D01*
X10369863Y31969605D01*
X10360997Y31890913D01*
X10350446Y31797270D01*
X10351226Y31790347D01*
X10360003Y31712444D01*
X10370643Y31618015D01*
X10372897Y31611573D01*
X10371162Y31549727D01*
X10342845Y31501711D01*
X10343450Y31501229D01*
X10340038Y31496952D01*
X10339703Y31496382D01*
X10339118Y31495797D01*
X10339106Y31495783D01*
X10334184Y31490860D01*
X10330480Y31484966D01*
X10330479Y31484964D01*
X10241912Y31344011D01*
X10241910Y31344008D01*
X10238211Y31338120D01*
X10235915Y31331562D01*
X10235913Y31331555D01*
X10180930Y31174423D01*
X10180928Y31174416D01*
X10178632Y31167853D01*
X10177852Y31160936D01*
X10177852Y31160933D01*
X10165470Y31051039D01*
X10158435Y30988598D01*
X10159215Y30981675D01*
X10177654Y30818018D01*
X10178632Y30809343D01*
X10180928Y30802779D01*
X10180930Y30802774D01*
X10223646Y30680700D01*
X10238211Y30639076D01*
X10241910Y30633189D01*
X10241912Y30633185D01*
X10291778Y30553824D01*
X10310004Y30501736D01*
X10303826Y30446899D01*
X10280835Y30381194D01*
X10280832Y30381183D01*
X10278535Y30374617D01*
X10277755Y30367703D01*
X10277754Y30367694D01*
X10259486Y30205548D01*
X10258338Y30195362D01*
X10278535Y30016107D01*
X10280831Y30009543D01*
X10280833Y30009538D01*
X10335816Y29852406D01*
X10338114Y29845840D01*
X10341815Y29839950D01*
X10416905Y29720444D01*
X10434087Y29693100D01*
X10560568Y29566620D01*
X10560568Y29566619D01*
X10561641Y29565546D01*
X10561499Y29565405D01*
X10595366Y29521270D01*
X10605365Y29462417D01*
X10586706Y29405711D01*
X10495912Y29261214D01*
X10495908Y29261206D01*
X10492211Y29255322D01*
X10489915Y29248764D01*
X10489913Y29248757D01*
X10434930Y29091625D01*
X10434928Y29091618D01*
X10432632Y29085055D01*
X10431852Y29078138D01*
X10431852Y29078135D01*
X10413662Y28916688D01*
X10412435Y28905800D01*
X10413215Y28898877D01*
X10431598Y28735716D01*
X10432632Y28726545D01*
X10434928Y28719981D01*
X10434930Y28719976D01*
X10474435Y28607078D01*
X10492211Y28556278D01*
X10588184Y28403538D01*
X10715738Y28275984D01*
X10868478Y28180011D01*
X11038745Y28120432D01*
X11218000Y28100235D01*
X11397255Y28120432D01*
X11567522Y28180011D01*
X11720262Y28275984D01*
X11847816Y28403538D01*
X11943789Y28556278D01*
X12003368Y28726545D01*
X12023565Y28905800D01*
X12003368Y29085055D01*
X11978733Y29155457D01*
X14034022Y29155457D01*
X14034802Y29148534D01*
X14049910Y29014440D01*
X14054219Y28976202D01*
X14056515Y28969638D01*
X14056517Y28969633D01*
X14110630Y28814988D01*
X14113798Y28805935D01*
X14209771Y28653195D01*
X14337325Y28525641D01*
X14490065Y28429668D01*
X14660332Y28370089D01*
X14833774Y28350547D01*
X14879870Y28335856D01*
X14916835Y28304644D01*
X14920448Y28300113D01*
X14924152Y28294219D01*
X15051706Y28166665D01*
X15204446Y28070692D01*
X15303535Y28036020D01*
X15350260Y28006661D01*
X15379620Y27959934D01*
X15417510Y27851651D01*
X15417513Y27851644D01*
X15419811Y27845078D01*
X15515784Y27692338D01*
X15643338Y27564784D01*
X15796078Y27468811D01*
X15802644Y27466514D01*
X15802645Y27466513D01*
X15859256Y27446704D01*
X15905983Y27417344D01*
X15935343Y27370617D01*
X15980916Y27240377D01*
X15980920Y27240369D01*
X15983218Y27233803D01*
X16079191Y27081063D01*
X16206745Y26953509D01*
X16212645Y26949802D01*
X16218088Y26945461D01*
X16217044Y26944153D01*
X16255364Y26902229D01*
X16268598Y26837593D01*
X16246807Y26775319D01*
X16196160Y26733036D01*
X16130996Y26722715D01*
X15988368Y26738785D01*
X15981445Y26739565D01*
X15974522Y26738785D01*
X15809110Y26720148D01*
X15809107Y26720148D01*
X15802190Y26719368D01*
X15795627Y26717072D01*
X15795620Y26717070D01*
X15638488Y26662087D01*
X15638481Y26662085D01*
X15631923Y26659789D01*
X15626035Y26656090D01*
X15626032Y26656088D01*
X15485083Y26567524D01*
X15485078Y26567521D01*
X15479183Y26563816D01*
X15474258Y26558892D01*
X15474254Y26558888D01*
X15356557Y26441191D01*
X15356553Y26441187D01*
X15351629Y26436262D01*
X15347924Y26430367D01*
X15347921Y26430362D01*
X15259357Y26289413D01*
X15259355Y26289410D01*
X15255656Y26283522D01*
X15253360Y26276964D01*
X15253358Y26276957D01*
X15198375Y26119825D01*
X15198373Y26119818D01*
X15196077Y26113255D01*
X15195297Y26106338D01*
X15195297Y26106335D01*
X15193880Y26093756D01*
X15175880Y25934000D01*
X15176660Y25927077D01*
X15192712Y25784606D01*
X15196077Y25754745D01*
X15198373Y25748181D01*
X15198375Y25748176D01*
X15246535Y25610543D01*
X15255656Y25584478D01*
X15351629Y25431738D01*
X15479183Y25304184D01*
X15631923Y25208211D01*
X15802190Y25148632D01*
X15981445Y25128435D01*
X16160700Y25148632D01*
X16330967Y25208211D01*
X16483707Y25304184D01*
X16611261Y25431738D01*
X16707234Y25584478D01*
X16766813Y25754745D01*
X16787010Y25934000D01*
X16766813Y26113255D01*
X16707234Y26283522D01*
X16611261Y26436262D01*
X16483707Y26563816D01*
X16477807Y26567524D01*
X16472364Y26571864D01*
X16473406Y26573172D01*
X16435084Y26615102D01*
X16421853Y26679738D01*
X16443646Y26742010D01*
X16494293Y26784291D01*
X16559453Y26794611D01*
X16709007Y26777760D01*
X16888262Y26797957D01*
X17058529Y26857536D01*
X17211269Y26953509D01*
X17338823Y27081063D01*
X17434796Y27233803D01*
X17494375Y27404070D01*
X17513417Y27573072D01*
X17513792Y27576402D01*
X17514572Y27583325D01*
X17494375Y27762580D01*
X17434796Y27932847D01*
X17338823Y28085587D01*
X17211269Y28213141D01*
X17183147Y28230811D01*
X17122709Y28268787D01*
X17058529Y28309114D01*
X16995349Y28331222D01*
X16948622Y28360582D01*
X16919262Y28407309D01*
X16873687Y28537555D01*
X16873686Y28537556D01*
X16871389Y28544122D01*
X16775416Y28696862D01*
X16761076Y28711202D01*
X21272146Y28711202D01*
X21272426Y28705318D01*
X21272426Y28705311D01*
X21281162Y28521934D01*
X21282146Y28501270D01*
X21283535Y28495542D01*
X21283537Y28495533D01*
X21326602Y28318022D01*
X21331696Y28297024D01*
X21345641Y28266489D01*
X21389470Y28170516D01*
X21419004Y28105847D01*
X21422431Y28101034D01*
X21422432Y28101033D01*
X21482830Y28016215D01*
X21540914Y27934648D01*
X21693022Y27789614D01*
X21869828Y27675987D01*
X21875311Y27673792D01*
X21875313Y27673791D01*
X22059460Y27600070D01*
X22064943Y27597875D01*
X22271315Y27558100D01*
X23125871Y27558100D01*
X23128825Y27558100D01*
X23285618Y27573072D01*
X23487275Y27632284D01*
X23674082Y27728589D01*
X23839286Y27858508D01*
X23976919Y28017344D01*
X24082004Y28199356D01*
X24150744Y28397967D01*
X24180654Y28605998D01*
X24170654Y28815930D01*
X24121104Y29020176D01*
X24033796Y29211353D01*
X23911886Y29382552D01*
X23866007Y29426297D01*
X23764051Y29523512D01*
X23764049Y29523514D01*
X23759778Y29527586D01*
X23660610Y29591318D01*
X23587944Y29638018D01*
X23587941Y29638020D01*
X23582972Y29641213D01*
X23577492Y29643407D01*
X23577486Y29643410D01*
X23393339Y29717131D01*
X23393332Y29717133D01*
X23387857Y29719325D01*
X23382062Y29720442D01*
X23382055Y29720444D01*
X23187282Y29757983D01*
X23187279Y29757984D01*
X23181485Y29759100D01*
X22323975Y29759100D01*
X22321046Y29758821D01*
X22321039Y29758820D01*
X22173062Y29744690D01*
X22173056Y29744689D01*
X22167182Y29744128D01*
X22161512Y29742464D01*
X22161511Y29742463D01*
X21971187Y29686579D01*
X21971182Y29686578D01*
X21965525Y29684916D01*
X21960284Y29682215D01*
X21960281Y29682213D01*
X21783968Y29591318D01*
X21783964Y29591316D01*
X21778718Y29588611D01*
X21774076Y29584962D01*
X21774072Y29584958D01*
X21618159Y29462346D01*
X21618152Y29462340D01*
X21613514Y29458692D01*
X21609650Y29454233D01*
X21609645Y29454228D01*
X21479747Y29304318D01*
X21475881Y29299856D01*
X21472930Y29294746D01*
X21472928Y29294742D01*
X21373752Y29122965D01*
X21373749Y29122960D01*
X21370796Y29117844D01*
X21368865Y29112265D01*
X21368861Y29112256D01*
X21303987Y28924815D01*
X21303984Y28924806D01*
X21302056Y28919233D01*
X21301216Y28913397D01*
X21301215Y28913389D01*
X21272985Y28717042D01*
X21272984Y28717036D01*
X21272146Y28711202D01*
X16761076Y28711202D01*
X16647862Y28824416D01*
X16495122Y28920389D01*
X16488560Y28922685D01*
X16488548Y28922691D01*
X16396033Y28955063D01*
X16349307Y28984423D01*
X16319946Y29031150D01*
X16282055Y29139436D01*
X16282054Y29139437D01*
X16279757Y29146003D01*
X16183784Y29298743D01*
X16056230Y29426297D01*
X15998858Y29462346D01*
X15909380Y29518569D01*
X15903490Y29522270D01*
X15896927Y29524567D01*
X15896924Y29524568D01*
X15739792Y29579551D01*
X15739787Y29579553D01*
X15733223Y29581849D01*
X15726305Y29582629D01*
X15726303Y29582629D01*
X15559778Y29601392D01*
X15513681Y29616084D01*
X15476715Y29647299D01*
X15473109Y29651821D01*
X15469403Y29657719D01*
X15341849Y29785273D01*
X15189109Y29881246D01*
X15182546Y29883543D01*
X15182543Y29883544D01*
X15160658Y29891202D01*
X18622146Y29891202D01*
X18622426Y29885318D01*
X18622426Y29885311D01*
X18631301Y29699001D01*
X18632146Y29681270D01*
X18633535Y29675542D01*
X18633537Y29675533D01*
X18670162Y29524568D01*
X18681696Y29477024D01*
X18684149Y29471653D01*
X18764941Y29294742D01*
X18769004Y29285847D01*
X18772431Y29281034D01*
X18772432Y29281033D01*
X18884991Y29122965D01*
X18890914Y29114648D01*
X18895191Y29110570D01*
X19036112Y28976202D01*
X19043022Y28969614D01*
X19219828Y28855987D01*
X19225311Y28853792D01*
X19225313Y28853791D01*
X19334616Y28810033D01*
X19414943Y28777875D01*
X19621315Y28738100D01*
X19975871Y28738100D01*
X19978825Y28738100D01*
X20135618Y28753072D01*
X20337275Y28812284D01*
X20524082Y28908589D01*
X20689286Y29038508D01*
X20826919Y29197344D01*
X20932004Y29379356D01*
X21000744Y29577967D01*
X21030654Y29785998D01*
X21020654Y29995930D01*
X20971104Y30200176D01*
X20883796Y30391353D01*
X20761886Y30562552D01*
X20674743Y30645642D01*
X20614051Y30703512D01*
X20614049Y30703514D01*
X20609778Y30707586D01*
X20461670Y30802770D01*
X20437944Y30818018D01*
X20437941Y30818020D01*
X20432972Y30821213D01*
X20427492Y30823407D01*
X20427486Y30823410D01*
X20243339Y30897131D01*
X20243332Y30897133D01*
X20237857Y30899325D01*
X20232062Y30900442D01*
X20232055Y30900444D01*
X20037282Y30937983D01*
X20037279Y30937984D01*
X20031485Y30939100D01*
X19673975Y30939100D01*
X19671046Y30938821D01*
X19671039Y30938820D01*
X19523062Y30924690D01*
X19523056Y30924689D01*
X19517182Y30924128D01*
X19511512Y30922464D01*
X19511511Y30922463D01*
X19321187Y30866579D01*
X19321182Y30866578D01*
X19315525Y30864916D01*
X19310284Y30862215D01*
X19310281Y30862213D01*
X19133968Y30771318D01*
X19133964Y30771316D01*
X19128718Y30768611D01*
X19124076Y30764962D01*
X19124072Y30764958D01*
X18968159Y30642346D01*
X18968152Y30642340D01*
X18963514Y30638692D01*
X18959650Y30634233D01*
X18959645Y30634228D01*
X18844840Y30501736D01*
X18825881Y30479856D01*
X18822930Y30474746D01*
X18822928Y30474742D01*
X18723752Y30302965D01*
X18723749Y30302960D01*
X18720796Y30297844D01*
X18718865Y30292265D01*
X18718861Y30292256D01*
X18653987Y30104815D01*
X18653984Y30104806D01*
X18652056Y30099233D01*
X18651216Y30093397D01*
X18651215Y30093389D01*
X18622985Y29897042D01*
X18622984Y29897036D01*
X18622146Y29891202D01*
X15160658Y29891202D01*
X15025411Y29938527D01*
X15025406Y29938529D01*
X15018842Y29940825D01*
X15011922Y29941605D01*
X15011921Y29941605D01*
X14846510Y29960242D01*
X14839587Y29961022D01*
X14832664Y29960242D01*
X14667252Y29941605D01*
X14667249Y29941605D01*
X14660332Y29940825D01*
X14653769Y29938529D01*
X14653762Y29938527D01*
X14496630Y29883544D01*
X14496623Y29883542D01*
X14490065Y29881246D01*
X14484177Y29877547D01*
X14484174Y29877545D01*
X14343225Y29788981D01*
X14343220Y29788978D01*
X14337325Y29785273D01*
X14332400Y29780349D01*
X14332396Y29780345D01*
X14214699Y29662648D01*
X14214695Y29662644D01*
X14209771Y29657719D01*
X14206066Y29651824D01*
X14206063Y29651819D01*
X14117499Y29510870D01*
X14117497Y29510867D01*
X14113798Y29504979D01*
X14111502Y29498421D01*
X14111500Y29498414D01*
X14056517Y29341282D01*
X14056515Y29341275D01*
X14054219Y29334712D01*
X14053439Y29327795D01*
X14053439Y29327792D01*
X14039318Y29202459D01*
X14034022Y29155457D01*
X11978733Y29155457D01*
X11943789Y29255322D01*
X11847816Y29408062D01*
X11720262Y29535616D01*
X11720402Y29535757D01*
X11686536Y29579895D01*
X11676537Y29638748D01*
X11695197Y29695452D01*
X11785987Y29839943D01*
X11785988Y29839946D01*
X11789692Y29845840D01*
X11849271Y30016107D01*
X11869468Y30195362D01*
X11849271Y30374617D01*
X11789692Y30544884D01*
X11736122Y30630139D01*
X11717897Y30682227D01*
X11724075Y30737064D01*
X11749368Y30809343D01*
X11769565Y30988598D01*
X11749368Y31167853D01*
X11747114Y31174293D01*
X11748850Y31236154D01*
X11777168Y31284154D01*
X11776561Y31284638D01*
X11779997Y31288947D01*
X11780330Y31289511D01*
X11780382Y31289564D01*
X11785827Y31295008D01*
X11881800Y31447748D01*
X11941379Y31618015D01*
X11953647Y31726899D01*
X12342835Y31726899D01*
X12363032Y31547644D01*
X12365328Y31541080D01*
X12365330Y31541075D01*
X12418571Y31388922D01*
X12422611Y31377377D01*
X12518584Y31224637D01*
X12646138Y31097083D01*
X12798878Y31001110D01*
X12969145Y30941531D01*
X13148400Y30921334D01*
X13327655Y30941531D01*
X13497922Y31001110D01*
X13650662Y31097083D01*
X13778216Y31224637D01*
X13874189Y31377377D01*
X13933768Y31547644D01*
X13953965Y31726899D01*
X13933768Y31906154D01*
X13874189Y32076421D01*
X13778216Y32229161D01*
X13650662Y32356715D01*
X13573504Y32405197D01*
X13530949Y32450209D01*
X13515477Y32510190D01*
X13530949Y32570171D01*
X13573503Y32615183D01*
X13701462Y32695584D01*
X13829016Y32823138D01*
X13924989Y32975878D01*
X13984568Y33146145D01*
X14004765Y33325400D01*
X13984568Y33504655D01*
X13924989Y33674922D01*
X13829016Y33827662D01*
X13701462Y33955216D01*
X13548722Y34051189D01*
X13542159Y34053486D01*
X13542156Y34053487D01*
X13385024Y34108470D01*
X13385019Y34108472D01*
X13378455Y34110768D01*
X13371535Y34111548D01*
X13371534Y34111548D01*
X13206123Y34130185D01*
X13199200Y34130965D01*
X13192277Y34130185D01*
X13026865Y34111548D01*
X13026862Y34111548D01*
X13019945Y34110768D01*
X13013382Y34108472D01*
X13013375Y34108470D01*
X12856243Y34053487D01*
X12856236Y34053485D01*
X12849678Y34051189D01*
X12843790Y34047490D01*
X12843787Y34047488D01*
X12702838Y33958924D01*
X12702833Y33958921D01*
X12696938Y33955216D01*
X12692013Y33950292D01*
X12692009Y33950288D01*
X12574312Y33832591D01*
X12574308Y33832587D01*
X12569384Y33827662D01*
X12565679Y33821767D01*
X12565676Y33821762D01*
X12477112Y33680813D01*
X12477110Y33680810D01*
X12473411Y33674922D01*
X12471115Y33668364D01*
X12471113Y33668357D01*
X12416130Y33511225D01*
X12416128Y33511218D01*
X12413832Y33504655D01*
X12413052Y33497738D01*
X12413052Y33497735D01*
X12399302Y33375695D01*
X12393635Y33325400D01*
X12394415Y33318477D01*
X12412918Y33154252D01*
X12413832Y33146145D01*
X12416128Y33139581D01*
X12416130Y33139576D01*
X12471113Y32982444D01*
X12473411Y32975878D01*
X12569384Y32823138D01*
X12696938Y32695584D01*
X12774094Y32647104D01*
X12816649Y32602092D01*
X12832122Y32542111D01*
X12816650Y32482129D01*
X12774095Y32437117D01*
X12652040Y32360425D01*
X12652030Y32360418D01*
X12646138Y32356715D01*
X12641213Y32351791D01*
X12641209Y32351787D01*
X12523512Y32234090D01*
X12523508Y32234086D01*
X12518584Y32229161D01*
X12514879Y32223266D01*
X12514876Y32223261D01*
X12426312Y32082312D01*
X12426310Y32082309D01*
X12422611Y32076421D01*
X12420315Y32069863D01*
X12420313Y32069856D01*
X12365330Y31912724D01*
X12365328Y31912717D01*
X12363032Y31906154D01*
X12362252Y31899237D01*
X12362252Y31899234D01*
X12356173Y31845277D01*
X12342835Y31726899D01*
X11953647Y31726899D01*
X11961576Y31797270D01*
X11941379Y31976525D01*
X11921095Y32034491D01*
X11914917Y32089329D01*
X11933144Y32141418D01*
X11936521Y32146792D01*
X11994617Y32239250D01*
X12054196Y32409517D01*
X12074393Y32588772D01*
X12054196Y32768027D01*
X11994617Y32938294D01*
X11898644Y33091034D01*
X11771090Y33218588D01*
X11723033Y33248784D01*
X11624240Y33310860D01*
X11618350Y33314561D01*
X11611788Y33316857D01*
X11611776Y33316863D01*
X11508468Y33353012D01*
X11458522Y33385714D01*
X11429647Y33437965D01*
X11428579Y33495219D01*
X11429154Y33496861D01*
X11449351Y33676116D01*
X11429154Y33855371D01*
X11369575Y34025638D01*
X11273602Y34178378D01*
X11270720Y34181260D01*
X16688118Y34181260D01*
X16688898Y34174337D01*
X16700366Y34072550D01*
X16708315Y34002005D01*
X16710611Y33995441D01*
X16710613Y33995436D01*
X16764976Y33840077D01*
X16767894Y33831738D01*
X16863867Y33678998D01*
X16991421Y33551444D01*
X17144161Y33455471D01*
X17314428Y33395892D01*
X17493683Y33375695D01*
X17672938Y33395892D01*
X17843205Y33455471D01*
X17920300Y33503915D01*
X17979325Y33522726D01*
X18030746Y33512493D01*
X18031278Y33514011D01*
X18201545Y33454432D01*
X18380800Y33434235D01*
X18560055Y33454432D01*
X18730322Y33514011D01*
X18883062Y33609984D01*
X18996517Y33723440D01*
X19043637Y33752935D01*
X19098915Y33758878D01*
X19151233Y33740071D01*
X19219828Y33695987D01*
X19225311Y33693792D01*
X19225313Y33693791D01*
X19409460Y33620070D01*
X19414943Y33617875D01*
X19621315Y33578100D01*
X19975871Y33578100D01*
X19978825Y33578100D01*
X20135618Y33593072D01*
X20337275Y33652284D01*
X20524082Y33748589D01*
X20689286Y33878508D01*
X20826919Y34037344D01*
X20932004Y34219356D01*
X21000744Y34417967D01*
X21030654Y34625998D01*
X21020654Y34835930D01*
X20971104Y35040176D01*
X20883796Y35231353D01*
X20761886Y35402552D01*
X20662667Y35497157D01*
X20614051Y35543512D01*
X20614049Y35543514D01*
X20609778Y35547586D01*
X20510610Y35611318D01*
X20437944Y35658018D01*
X20437941Y35658020D01*
X20432972Y35661213D01*
X20427492Y35663407D01*
X20427486Y35663410D01*
X20243339Y35737131D01*
X20243332Y35737133D01*
X20237857Y35739325D01*
X20232062Y35740442D01*
X20232055Y35740444D01*
X20037282Y35777983D01*
X20037279Y35777984D01*
X20031485Y35779100D01*
X19673975Y35779100D01*
X19671046Y35778821D01*
X19671039Y35778820D01*
X19523062Y35764690D01*
X19523056Y35764689D01*
X19517182Y35764128D01*
X19511512Y35762464D01*
X19511511Y35762463D01*
X19321187Y35706579D01*
X19321182Y35706578D01*
X19315525Y35704916D01*
X19310284Y35702215D01*
X19310281Y35702213D01*
X19133968Y35611318D01*
X19133964Y35611316D01*
X19128718Y35608611D01*
X19124076Y35604962D01*
X19124072Y35604958D01*
X18968159Y35482346D01*
X18968152Y35482340D01*
X18963514Y35478692D01*
X18959650Y35474233D01*
X18959645Y35474228D01*
X18831668Y35326535D01*
X18825881Y35319856D01*
X18822930Y35314746D01*
X18822928Y35314742D01*
X18764120Y35212883D01*
X18720796Y35137844D01*
X18718863Y35132262D01*
X18718860Y35132253D01*
X18708995Y35103751D01*
X18676365Y35053603D01*
X18624051Y35024572D01*
X18565018Y35023432D01*
X18560055Y35025168D01*
X18553143Y35025947D01*
X18553138Y35025948D01*
X18387723Y35044585D01*
X18380800Y35045365D01*
X18373877Y35044585D01*
X18208465Y35025948D01*
X18208462Y35025948D01*
X18201545Y35025168D01*
X18194982Y35022872D01*
X18194975Y35022870D01*
X18037843Y34967887D01*
X18037836Y34967885D01*
X18031278Y34965589D01*
X18025394Y34961893D01*
X18025388Y34961889D01*
X17954180Y34917146D01*
X17895160Y34898336D01*
X17843735Y34908566D01*
X17843205Y34907049D01*
X17679507Y34964330D01*
X17679502Y34964332D01*
X17672938Y34966628D01*
X17666018Y34967408D01*
X17666017Y34967408D01*
X17500606Y34986045D01*
X17493683Y34986825D01*
X17486760Y34986045D01*
X17321348Y34967408D01*
X17321345Y34967408D01*
X17314428Y34966628D01*
X17307865Y34964332D01*
X17307858Y34964330D01*
X17150726Y34909347D01*
X17150719Y34909345D01*
X17144161Y34907049D01*
X17138273Y34903350D01*
X17138270Y34903348D01*
X16997321Y34814784D01*
X16997316Y34814781D01*
X16991421Y34811076D01*
X16986496Y34806152D01*
X16986492Y34806148D01*
X16868795Y34688451D01*
X16868791Y34688447D01*
X16863867Y34683522D01*
X16860162Y34677627D01*
X16860159Y34677622D01*
X16771595Y34536673D01*
X16771593Y34536670D01*
X16767894Y34530782D01*
X16765598Y34524224D01*
X16765596Y34524217D01*
X16710613Y34367085D01*
X16710611Y34367078D01*
X16708315Y34360515D01*
X16707535Y34353598D01*
X16707535Y34353595D01*
X16700119Y34287776D01*
X16688118Y34181260D01*
X11270720Y34181260D01*
X11146048Y34305932D01*
X10993308Y34401905D01*
X10986745Y34404202D01*
X10986742Y34404203D01*
X10829610Y34459186D01*
X10829605Y34459188D01*
X10823041Y34461484D01*
X10816121Y34462264D01*
X10816120Y34462264D01*
X10650709Y34480901D01*
X10643786Y34481681D01*
X10636863Y34480901D01*
X10471447Y34462264D01*
X10471440Y34462263D01*
X10464531Y34461484D01*
X10457969Y34459189D01*
X10456891Y34458942D01*
X10408533Y34457588D01*
X10363336Y34474841D01*
X10217592Y34566418D01*
X10217588Y34566420D01*
X10211701Y34570119D01*
X10205138Y34572416D01*
X10205135Y34572417D01*
X10048003Y34627400D01*
X10047998Y34627402D01*
X10041434Y34629698D01*
X10034514Y34630478D01*
X10034513Y34630478D01*
X9869102Y34649115D01*
X9862179Y34649895D01*
X9855256Y34649115D01*
X9689844Y34630478D01*
X9689841Y34630478D01*
X9682924Y34629698D01*
X9676359Y34627401D01*
X9676351Y34627399D01*
X9520341Y34572809D01*
X9465504Y34566631D01*
X9413417Y34584856D01*
X9388222Y34600687D01*
X9388216Y34600690D01*
X9382329Y34604389D01*
X9375766Y34606686D01*
X9375763Y34606687D01*
X9218631Y34661670D01*
X9218626Y34661672D01*
X9212062Y34663968D01*
X9205142Y34664748D01*
X9205141Y34664748D01*
X9039730Y34683385D01*
X9032807Y34684165D01*
X9025884Y34683385D01*
X8860472Y34664748D01*
X8860469Y34664748D01*
X8853552Y34663968D01*
X8846989Y34661672D01*
X8846982Y34661670D01*
X8689850Y34606687D01*
X8689843Y34606685D01*
X8683285Y34604389D01*
X8677397Y34600690D01*
X8677394Y34600688D01*
X8536445Y34512124D01*
X8536440Y34512121D01*
X8530545Y34508416D01*
X8525619Y34503491D01*
X8525620Y34503491D01*
X8463284Y34441155D01*
X8407696Y34409062D01*
X8343509Y34409062D01*
X8287922Y34441156D01*
X8270790Y34458288D01*
X8265862Y34463216D01*
X8188025Y34512124D01*
X8119012Y34555488D01*
X8113122Y34559189D01*
X8106559Y34561486D01*
X8106556Y34561487D01*
X7949424Y34616470D01*
X7949419Y34616472D01*
X7942855Y34618768D01*
X7935935Y34619548D01*
X7935934Y34619548D01*
X7770523Y34638185D01*
X7763600Y34638965D01*
X7756677Y34638185D01*
X7591265Y34619548D01*
X7591262Y34619548D01*
X7584345Y34618768D01*
X7577782Y34616472D01*
X7577775Y34616470D01*
X7420643Y34561487D01*
X7420636Y34561485D01*
X7414078Y34559189D01*
X7408190Y34555490D01*
X7408187Y34555488D01*
X7267238Y34466924D01*
X7267233Y34466921D01*
X7261338Y34463216D01*
X7256413Y34458292D01*
X7256413Y34458291D01*
X7158847Y34360725D01*
X7098758Y34327516D01*
X7030210Y34331366D01*
X6974411Y34370958D01*
X6971016Y34376362D01*
X6843462Y34503916D01*
X6836300Y34508416D01*
X6696612Y34596188D01*
X6690722Y34599889D01*
X6684160Y34602185D01*
X6684148Y34602191D01*
X6563033Y34644571D01*
X6507040Y34684300D01*
X6480768Y34747729D01*
X6492268Y34815414D01*
X6538015Y34866605D01*
X6668493Y34948589D01*
X6796047Y35076143D01*
X6845094Y35154200D01*
X13590735Y35154200D01*
X13591515Y35147277D01*
X13609554Y34987170D01*
X13610932Y34974945D01*
X13613228Y34968381D01*
X13613230Y34968376D01*
X13668213Y34811244D01*
X13670511Y34804678D01*
X13674212Y34798788D01*
X13761779Y34659425D01*
X13766484Y34651938D01*
X13894038Y34524384D01*
X14046778Y34428411D01*
X14217045Y34368832D01*
X14396300Y34348635D01*
X14575555Y34368832D01*
X14745822Y34428411D01*
X14898562Y34524384D01*
X15026116Y34651938D01*
X15122089Y34804678D01*
X15181668Y34974945D01*
X15201865Y35154200D01*
X15181668Y35333455D01*
X15122089Y35503722D01*
X15026116Y35656462D01*
X14898562Y35784016D01*
X14745822Y35879989D01*
X14739259Y35882286D01*
X14739256Y35882287D01*
X14656622Y35911202D01*
X21272146Y35911202D01*
X21272426Y35905318D01*
X21272426Y35905311D01*
X21280280Y35740444D01*
X21282146Y35701270D01*
X21283535Y35695542D01*
X21283537Y35695533D01*
X21328465Y35510341D01*
X21331696Y35497024D01*
X21334149Y35491653D01*
X21414941Y35314742D01*
X21419004Y35305847D01*
X21422431Y35301034D01*
X21422432Y35301033D01*
X21493730Y35200908D01*
X21540914Y35134648D01*
X21573318Y35103751D01*
X21646009Y35034440D01*
X21693022Y34989614D01*
X21869828Y34875987D01*
X21875311Y34873792D01*
X21875313Y34873791D01*
X22022706Y34814784D01*
X22064943Y34797875D01*
X22271315Y34758100D01*
X23125871Y34758100D01*
X23128825Y34758100D01*
X23285618Y34773072D01*
X23487275Y34832284D01*
X23674082Y34928589D01*
X23839286Y35058508D01*
X23976919Y35217344D01*
X24082004Y35399356D01*
X24150744Y35597967D01*
X24180654Y35805998D01*
X24170654Y36015930D01*
X24121104Y36220176D01*
X24033796Y36411353D01*
X23911886Y36582552D01*
X23759778Y36727586D01*
X23632270Y36809531D01*
X23587944Y36838018D01*
X23587941Y36838020D01*
X23582972Y36841213D01*
X23577492Y36843407D01*
X23577486Y36843410D01*
X23393339Y36917131D01*
X23393332Y36917133D01*
X23387857Y36919325D01*
X23382062Y36920442D01*
X23382055Y36920444D01*
X23187282Y36957983D01*
X23187279Y36957984D01*
X23181485Y36959100D01*
X22323975Y36959100D01*
X22321046Y36958821D01*
X22321039Y36958820D01*
X22173062Y36944690D01*
X22173056Y36944689D01*
X22167182Y36944128D01*
X22161512Y36942464D01*
X22161511Y36942463D01*
X21971187Y36886579D01*
X21971182Y36886578D01*
X21965525Y36884916D01*
X21960284Y36882215D01*
X21960281Y36882213D01*
X21783968Y36791318D01*
X21783964Y36791316D01*
X21778718Y36788611D01*
X21774076Y36784962D01*
X21774072Y36784958D01*
X21618159Y36662346D01*
X21618152Y36662340D01*
X21613514Y36658692D01*
X21609650Y36654233D01*
X21609645Y36654228D01*
X21479775Y36504350D01*
X21475881Y36499856D01*
X21472930Y36494746D01*
X21472928Y36494742D01*
X21373752Y36322965D01*
X21373749Y36322960D01*
X21370796Y36317844D01*
X21368865Y36312265D01*
X21368861Y36312256D01*
X21303987Y36124815D01*
X21303984Y36124806D01*
X21302056Y36119233D01*
X21301216Y36113397D01*
X21301215Y36113389D01*
X21272985Y35917042D01*
X21272984Y35917036D01*
X21272146Y35911202D01*
X14656622Y35911202D01*
X14582124Y35937270D01*
X14582119Y35937272D01*
X14575555Y35939568D01*
X14568635Y35940348D01*
X14568634Y35940348D01*
X14403223Y35958985D01*
X14396300Y35959765D01*
X14389377Y35958985D01*
X14223965Y35940348D01*
X14223962Y35940348D01*
X14217045Y35939568D01*
X14210482Y35937272D01*
X14210475Y35937270D01*
X14053343Y35882287D01*
X14053336Y35882285D01*
X14046778Y35879989D01*
X14040890Y35876290D01*
X14040887Y35876288D01*
X13899938Y35787724D01*
X13899933Y35787721D01*
X13894038Y35784016D01*
X13889113Y35779092D01*
X13889109Y35779088D01*
X13771412Y35661391D01*
X13771408Y35661387D01*
X13766484Y35656462D01*
X13762779Y35650567D01*
X13762776Y35650562D01*
X13674212Y35509613D01*
X13674210Y35509610D01*
X13670511Y35503722D01*
X13668215Y35497164D01*
X13668213Y35497157D01*
X13613230Y35340025D01*
X13613228Y35340018D01*
X13610932Y35333455D01*
X13610152Y35326538D01*
X13610152Y35326535D01*
X13595066Y35192643D01*
X13590735Y35154200D01*
X6845094Y35154200D01*
X6892020Y35228883D01*
X6951599Y35399150D01*
X6971796Y35578405D01*
X6951599Y35757660D01*
X6892020Y35927927D01*
X6888318Y35933819D01*
X6888315Y35933825D01*
X6822630Y36038361D01*
X6803654Y36101550D01*
X6819775Y36165528D01*
X6866428Y36212181D01*
X6930405Y36228302D01*
X6993595Y36209327D01*
X7003198Y36203293D01*
X7133344Y36121517D01*
X7303611Y36061938D01*
X7482866Y36041741D01*
X7662121Y36061938D01*
X7832388Y36121517D01*
X7985128Y36217490D01*
X8112682Y36345044D01*
X8208655Y36497784D01*
X8268234Y36668051D01*
X8276902Y36744980D01*
X11104592Y36744980D01*
X11105372Y36738057D01*
X11113902Y36662346D01*
X11124789Y36565725D01*
X11127085Y36559161D01*
X11127087Y36559156D01*
X11182070Y36402024D01*
X11184368Y36395458D01*
X11188069Y36389568D01*
X11244038Y36300493D01*
X11280341Y36242718D01*
X11407895Y36115164D01*
X11560635Y36019191D01*
X11730902Y35959612D01*
X11910157Y35939415D01*
X12089412Y35959612D01*
X12259679Y36019191D01*
X12412419Y36115164D01*
X12539973Y36242718D01*
X12635946Y36395458D01*
X12695525Y36565725D01*
X12715722Y36744980D01*
X12695525Y36924235D01*
X12693225Y36930807D01*
X12693224Y36930813D01*
X12647255Y37062184D01*
X12643405Y37130731D01*
X12676615Y37190820D01*
X12736703Y37224030D01*
X12805250Y37220182D01*
X12969145Y37162832D01*
X13148400Y37142635D01*
X13327655Y37162832D01*
X13497922Y37222411D01*
X13650662Y37318384D01*
X13778216Y37445938D01*
X13874189Y37598678D01*
X13933768Y37768945D01*
X13953965Y37948200D01*
X15825935Y37948200D01*
X15826715Y37941277D01*
X15827359Y37935557D01*
X15846132Y37768945D01*
X15848428Y37762381D01*
X15848430Y37762376D01*
X15903413Y37605244D01*
X15905711Y37598678D01*
X15909412Y37592788D01*
X15948155Y37531128D01*
X16001684Y37445938D01*
X16129238Y37318384D01*
X16281978Y37222411D01*
X16452245Y37162832D01*
X16631500Y37142635D01*
X16810755Y37162832D01*
X16981022Y37222411D01*
X17133762Y37318384D01*
X17261316Y37445938D01*
X17353470Y37592600D01*
X19302435Y37592600D01*
X19303215Y37585677D01*
X19315910Y37473000D01*
X19322632Y37413345D01*
X19324928Y37406781D01*
X19324930Y37406776D01*
X19355860Y37318384D01*
X19382211Y37243078D01*
X19478184Y37090338D01*
X19605738Y36962784D01*
X19758478Y36866811D01*
X19928745Y36807232D01*
X20108000Y36787035D01*
X20287255Y36807232D01*
X20457522Y36866811D01*
X20610262Y36962784D01*
X20737816Y37090338D01*
X20833789Y37243078D01*
X20893368Y37413345D01*
X20913565Y37592600D01*
X20893368Y37771855D01*
X20833789Y37942122D01*
X20737816Y38094862D01*
X20610262Y38222416D01*
X20594988Y38232013D01*
X20463412Y38314688D01*
X20457522Y38318389D01*
X20450959Y38320686D01*
X20450956Y38320687D01*
X20293824Y38375670D01*
X20293819Y38375672D01*
X20287255Y38377968D01*
X20280335Y38378748D01*
X20280334Y38378748D01*
X20114923Y38397385D01*
X20108000Y38398165D01*
X20101077Y38397385D01*
X19935665Y38378748D01*
X19935662Y38378748D01*
X19928745Y38377968D01*
X19922182Y38375672D01*
X19922175Y38375670D01*
X19765043Y38320687D01*
X19765036Y38320685D01*
X19758478Y38318389D01*
X19752590Y38314690D01*
X19752587Y38314688D01*
X19611638Y38226124D01*
X19611633Y38226121D01*
X19605738Y38222416D01*
X19600813Y38217492D01*
X19600809Y38217488D01*
X19483112Y38099791D01*
X19483108Y38099787D01*
X19478184Y38094862D01*
X19474479Y38088967D01*
X19474476Y38088962D01*
X19385912Y37948013D01*
X19385910Y37948010D01*
X19382211Y37942122D01*
X19379915Y37935564D01*
X19379913Y37935557D01*
X19324930Y37778425D01*
X19324928Y37778418D01*
X19322632Y37771855D01*
X19321852Y37764938D01*
X19321852Y37764935D01*
X19318750Y37737401D01*
X19302435Y37592600D01*
X17353470Y37592600D01*
X17357289Y37598678D01*
X17416868Y37768945D01*
X17437065Y37948200D01*
X17416868Y38127455D01*
X17357289Y38297722D01*
X17261316Y38450462D01*
X17133762Y38578016D01*
X16981022Y38673989D01*
X16974459Y38676286D01*
X16974456Y38676287D01*
X16817324Y38731270D01*
X16817319Y38731272D01*
X16810755Y38733568D01*
X16803835Y38734348D01*
X16803834Y38734348D01*
X16638423Y38752985D01*
X16631500Y38753765D01*
X16624577Y38752985D01*
X16459165Y38734348D01*
X16459162Y38734348D01*
X16452245Y38733568D01*
X16445682Y38731272D01*
X16445675Y38731270D01*
X16288543Y38676287D01*
X16288536Y38676285D01*
X16281978Y38673989D01*
X16276090Y38670290D01*
X16276087Y38670288D01*
X16135138Y38581724D01*
X16135133Y38581721D01*
X16129238Y38578016D01*
X16124313Y38573092D01*
X16124309Y38573088D01*
X16006612Y38455391D01*
X16006608Y38455387D01*
X16001684Y38450462D01*
X15997979Y38444567D01*
X15997976Y38444562D01*
X15909412Y38303613D01*
X15909410Y38303610D01*
X15905711Y38297722D01*
X15903415Y38291164D01*
X15903413Y38291157D01*
X15848430Y38134025D01*
X15848428Y38134018D01*
X15846132Y38127455D01*
X15845352Y38120538D01*
X15845352Y38120535D01*
X15831680Y37999188D01*
X15825935Y37948200D01*
X13953965Y37948200D01*
X13933768Y38127455D01*
X13874189Y38297722D01*
X13778216Y38450462D01*
X13650662Y38578016D01*
X13497922Y38673989D01*
X13491359Y38676286D01*
X13491356Y38676287D01*
X13334224Y38731270D01*
X13334219Y38731272D01*
X13327655Y38733568D01*
X13320735Y38734348D01*
X13320734Y38734348D01*
X13155323Y38752985D01*
X13148400Y38753765D01*
X13141477Y38752985D01*
X12976065Y38734348D01*
X12976062Y38734348D01*
X12969145Y38733568D01*
X12962582Y38731272D01*
X12962575Y38731270D01*
X12805443Y38676287D01*
X12805436Y38676285D01*
X12798878Y38673989D01*
X12792990Y38670290D01*
X12792987Y38670288D01*
X12652038Y38581724D01*
X12652033Y38581721D01*
X12646138Y38578016D01*
X12641213Y38573092D01*
X12641209Y38573088D01*
X12523512Y38455391D01*
X12523508Y38455387D01*
X12518584Y38450462D01*
X12514879Y38444567D01*
X12514876Y38444562D01*
X12426312Y38303613D01*
X12426310Y38303610D01*
X12422611Y38297722D01*
X12420315Y38291164D01*
X12420313Y38291157D01*
X12365330Y38134025D01*
X12365328Y38134018D01*
X12363032Y38127455D01*
X12362252Y38120538D01*
X12362252Y38120535D01*
X12348580Y37999188D01*
X12342835Y37948200D01*
X12343615Y37941277D01*
X12344259Y37935557D01*
X12363032Y37768945D01*
X12365328Y37762381D01*
X12365330Y37762376D01*
X12411302Y37630997D01*
X12415151Y37562449D01*
X12381941Y37502361D01*
X12321853Y37469151D01*
X12253306Y37473000D01*
X12095984Y37528049D01*
X12095978Y37528051D01*
X12089412Y37530348D01*
X12082492Y37531128D01*
X12082491Y37531128D01*
X11917080Y37549765D01*
X11910157Y37550545D01*
X11903234Y37549765D01*
X11737822Y37531128D01*
X11737819Y37531128D01*
X11730902Y37530348D01*
X11724339Y37528052D01*
X11724332Y37528050D01*
X11567200Y37473067D01*
X11567193Y37473065D01*
X11560635Y37470769D01*
X11554747Y37467070D01*
X11554744Y37467068D01*
X11413795Y37378504D01*
X11413790Y37378501D01*
X11407895Y37374796D01*
X11402970Y37369872D01*
X11402966Y37369868D01*
X11285269Y37252171D01*
X11285265Y37252167D01*
X11280341Y37247242D01*
X11276636Y37241347D01*
X11276633Y37241342D01*
X11188069Y37100393D01*
X11188067Y37100390D01*
X11184368Y37094502D01*
X11182072Y37087944D01*
X11182070Y37087937D01*
X11127087Y36930805D01*
X11127085Y36930798D01*
X11124789Y36924235D01*
X11124009Y36917318D01*
X11124009Y36917315D01*
X11116901Y36854229D01*
X11104592Y36744980D01*
X8276902Y36744980D01*
X8288431Y36847306D01*
X8268234Y37026561D01*
X8208655Y37196828D01*
X8112682Y37349568D01*
X7985128Y37477122D01*
X7944960Y37502361D01*
X7838278Y37569394D01*
X7832388Y37573095D01*
X7825825Y37575392D01*
X7825822Y37575393D01*
X7668690Y37630376D01*
X7668685Y37630378D01*
X7662121Y37632674D01*
X7655201Y37633454D01*
X7655200Y37633454D01*
X7489789Y37652091D01*
X7482866Y37652871D01*
X7475943Y37652091D01*
X7310531Y37633454D01*
X7310528Y37633454D01*
X7303611Y37632674D01*
X7297048Y37630378D01*
X7297041Y37630376D01*
X7139909Y37575393D01*
X7139902Y37575391D01*
X7133344Y37573095D01*
X7127456Y37569396D01*
X7127453Y37569394D01*
X6986504Y37480830D01*
X6986499Y37480827D01*
X6980604Y37477122D01*
X6975679Y37472198D01*
X6975675Y37472194D01*
X6857978Y37354497D01*
X6857974Y37354493D01*
X6853050Y37349568D01*
X6849345Y37343673D01*
X6849342Y37343668D01*
X6760778Y37202719D01*
X6760776Y37202716D01*
X6757077Y37196828D01*
X6754781Y37190270D01*
X6754779Y37190263D01*
X6699796Y37033131D01*
X6699794Y37033124D01*
X6697498Y37026561D01*
X6696718Y37019644D01*
X6696718Y37019641D01*
X6685189Y36917315D01*
X6677301Y36847306D01*
X6697498Y36668051D01*
X6699794Y36661487D01*
X6699796Y36661482D01*
X6733303Y36565725D01*
X6757077Y36497784D01*
X6817050Y36402337D01*
X6826467Y36387351D01*
X6845442Y36324162D01*
X6829321Y36260184D01*
X6782668Y36213531D01*
X6718691Y36197410D01*
X6655501Y36216385D01*
X6521644Y36300493D01*
X6521640Y36300495D01*
X6515753Y36304194D01*
X6509190Y36306491D01*
X6509187Y36306492D01*
X6352055Y36361475D01*
X6352050Y36361477D01*
X6345486Y36363773D01*
X6338566Y36364553D01*
X6338565Y36364553D01*
X6173154Y36383190D01*
X6166231Y36383970D01*
X6159308Y36383190D01*
X5993896Y36364553D01*
X5993893Y36364553D01*
X5986976Y36363773D01*
X5980413Y36361477D01*
X5980406Y36361475D01*
X5823274Y36306492D01*
X5823267Y36306490D01*
X5816709Y36304194D01*
X5810821Y36300495D01*
X5810818Y36300493D01*
X5669869Y36211929D01*
X5669864Y36211926D01*
X5663969Y36208221D01*
X5659044Y36203297D01*
X5659040Y36203293D01*
X5541343Y36085596D01*
X5541339Y36085592D01*
X5536415Y36080667D01*
X5532710Y36074772D01*
X5532707Y36074767D01*
X5444143Y35933818D01*
X5444141Y35933815D01*
X5440442Y35927927D01*
X5438146Y35921369D01*
X5438144Y35921362D01*
X5383161Y35764230D01*
X5383159Y35764223D01*
X5380863Y35757660D01*
X5380083Y35750743D01*
X5380083Y35750740D01*
X5373863Y35695533D01*
X5360666Y35578405D01*
X5361446Y35571482D01*
X5380082Y35406074D01*
X5380083Y35406071D01*
X5380863Y35399150D01*
X5383162Y35392581D01*
X5383164Y35392571D01*
X5387562Y35380002D01*
X5392358Y35315996D01*
X5364509Y35258166D01*
X5311476Y35222009D01*
X5253406Y35201689D01*
X5253397Y35201686D01*
X5246836Y35199389D01*
X5240948Y35195690D01*
X5240945Y35195688D01*
X5099996Y35107124D01*
X5099991Y35107121D01*
X5094096Y35103416D01*
X5089171Y35098492D01*
X5089167Y35098488D01*
X4971470Y34980791D01*
X4971466Y34980787D01*
X4966542Y34975862D01*
X4962837Y34969967D01*
X4962834Y34969962D01*
X4874270Y34829013D01*
X4874268Y34829010D01*
X4870569Y34823122D01*
X4868273Y34816564D01*
X4868271Y34816557D01*
X4813288Y34659425D01*
X4813286Y34659418D01*
X4810990Y34652855D01*
X4810210Y34645938D01*
X4810210Y34645935D01*
X4791616Y34480901D01*
X4790793Y34473600D01*
X500Y34473600D01*
X500Y36866000D01*
X972341Y36866000D01*
X972813Y36860605D01*
X990478Y36658692D01*
X992937Y36630592D01*
X994336Y36625370D01*
X994337Y36625366D01*
X1052694Y36407570D01*
X1052697Y36407562D01*
X1054097Y36402337D01*
X1056385Y36397430D01*
X1056386Y36397428D01*
X1151678Y36193073D01*
X1151681Y36193067D01*
X1153965Y36188170D01*
X1157064Y36183743D01*
X1157066Y36183741D01*
X1286399Y35999034D01*
X1286402Y35999030D01*
X1289505Y35994599D01*
X1456599Y35827505D01*
X1461031Y35824402D01*
X1461033Y35824400D01*
X1642595Y35697269D01*
X1681460Y35652951D01*
X1695471Y35595694D01*
X1681460Y35538437D01*
X1642595Y35494119D01*
X1461352Y35367212D01*
X1453092Y35360281D01*
X1293719Y35200908D01*
X1286784Y35192643D01*
X1157508Y35008018D01*
X1152110Y34998668D01*
X1056856Y34794398D01*
X1053168Y34784264D01*
X1001056Y34589781D01*
X1000688Y34578552D01*
X1011631Y34576000D01*
X3644369Y34576000D01*
X3655311Y34578552D01*
X3654943Y34589781D01*
X3602831Y34784264D01*
X3599143Y34794398D01*
X3503889Y34998668D01*
X3498491Y35008018D01*
X3369215Y35192643D01*
X3362280Y35200908D01*
X3202909Y35360279D01*
X3194643Y35367216D01*
X3013405Y35494120D01*
X2974540Y35538438D01*
X2960529Y35595695D01*
X2974540Y35652952D01*
X3013406Y35697270D01*
X3020466Y35702213D01*
X3168686Y35805998D01*
X3194961Y35824396D01*
X3194961Y35824397D01*
X3199401Y35827505D01*
X3366495Y35994599D01*
X3502035Y36188170D01*
X3601903Y36402337D01*
X3663063Y36630592D01*
X3683659Y36866000D01*
X3663063Y37101408D01*
X3614572Y37282381D01*
X3603305Y37324431D01*
X3603304Y37324433D01*
X3601903Y37329663D01*
X3502035Y37543829D01*
X3366495Y37737401D01*
X3199401Y37904495D01*
X3194968Y37907599D01*
X3194961Y37907605D01*
X3013842Y38034425D01*
X2974976Y38078743D01*
X2960965Y38136000D01*
X2974976Y38193257D01*
X3013842Y38237575D01*
X3194961Y38364396D01*
X3194961Y38364397D01*
X3199401Y38367505D01*
X3366495Y38534599D01*
X3502035Y38728170D01*
X3601903Y38942337D01*
X3607761Y38964200D01*
X6043635Y38964200D01*
X6044415Y38957277D01*
X6055173Y38861791D01*
X6063832Y38784945D01*
X6066128Y38778381D01*
X6066130Y38778376D01*
X6092113Y38704122D01*
X6123411Y38614678D01*
X6127112Y38608788D01*
X6174195Y38533855D01*
X6219384Y38461938D01*
X6346938Y38334384D01*
X6499678Y38238411D01*
X6669945Y38178832D01*
X6849200Y38158635D01*
X7028455Y38178832D01*
X7198722Y38238411D01*
X7351462Y38334384D01*
X7479016Y38461938D01*
X7574989Y38614678D01*
X7634568Y38784945D01*
X7653627Y38954100D01*
X8908635Y38954100D01*
X8928832Y38774845D01*
X8931128Y38768281D01*
X8931130Y38768276D01*
X8986113Y38611144D01*
X8988411Y38604578D01*
X9084384Y38451838D01*
X9211938Y38324284D01*
X9364678Y38228311D01*
X9534945Y38168732D01*
X9714200Y38148535D01*
X9893455Y38168732D01*
X9900026Y38171032D01*
X9900029Y38171032D01*
X9987283Y38201564D01*
X10051291Y38206361D01*
X10109122Y38178512D01*
X10145280Y38125478D01*
X10185110Y38011651D01*
X10185113Y38011644D01*
X10187411Y38005078D01*
X10191112Y37999188D01*
X10250611Y37904495D01*
X10283384Y37852338D01*
X10410938Y37724784D01*
X10563678Y37628811D01*
X10733945Y37569232D01*
X10913200Y37549035D01*
X11092455Y37569232D01*
X11262722Y37628811D01*
X11415462Y37724784D01*
X11543016Y37852338D01*
X11638989Y38005078D01*
X11698568Y38175345D01*
X11718765Y38354600D01*
X11698568Y38533855D01*
X11638989Y38704122D01*
X11543016Y38856862D01*
X11415462Y38984416D01*
X11262722Y39080389D01*
X11256159Y39082686D01*
X11256156Y39082687D01*
X11099024Y39137670D01*
X11099019Y39137672D01*
X11092455Y39139968D01*
X11085535Y39140748D01*
X11085534Y39140748D01*
X10920123Y39159385D01*
X10913200Y39160165D01*
X10906277Y39159385D01*
X10740865Y39140748D01*
X10740862Y39140748D01*
X10733945Y39139968D01*
X10727380Y39137671D01*
X10727372Y39137669D01*
X10640114Y39107136D01*
X10576106Y39102340D01*
X10518276Y39130190D01*
X10482118Y39183224D01*
X10442287Y39297055D01*
X10442286Y39297057D01*
X10439989Y39303622D01*
X10344016Y39456362D01*
X10216462Y39583916D01*
X10063722Y39679889D01*
X10057159Y39682186D01*
X10057156Y39682187D01*
X9900024Y39737170D01*
X9900019Y39737172D01*
X9893455Y39739468D01*
X9886535Y39740248D01*
X9886534Y39740248D01*
X9721123Y39758885D01*
X9714200Y39759665D01*
X9707277Y39758885D01*
X9541865Y39740248D01*
X9541862Y39740248D01*
X9534945Y39739468D01*
X9528382Y39737172D01*
X9528375Y39737170D01*
X9371243Y39682187D01*
X9371236Y39682185D01*
X9364678Y39679889D01*
X9358790Y39676190D01*
X9358787Y39676188D01*
X9217838Y39587624D01*
X9217833Y39587621D01*
X9211938Y39583916D01*
X9207013Y39578992D01*
X9207009Y39578988D01*
X9089312Y39461291D01*
X9089308Y39461287D01*
X9084384Y39456362D01*
X9080679Y39450467D01*
X9080676Y39450462D01*
X8992112Y39309513D01*
X8992110Y39309510D01*
X8988411Y39303622D01*
X8986115Y39297064D01*
X8986113Y39297057D01*
X8931130Y39139925D01*
X8931128Y39139918D01*
X8928832Y39133355D01*
X8928052Y39126438D01*
X8928052Y39126435D01*
X8910553Y38971123D01*
X8908635Y38954100D01*
X7653627Y38954100D01*
X7654765Y38964200D01*
X7634568Y39143455D01*
X7574989Y39313722D01*
X7479016Y39466462D01*
X7351462Y39594016D01*
X7198722Y39689989D01*
X7192159Y39692286D01*
X7192156Y39692287D01*
X7035024Y39747270D01*
X7035019Y39747272D01*
X7028455Y39749568D01*
X7021535Y39750348D01*
X7021534Y39750348D01*
X6856123Y39768985D01*
X6849200Y39769765D01*
X6842277Y39768985D01*
X6676865Y39750348D01*
X6676862Y39750348D01*
X6669945Y39749568D01*
X6663382Y39747272D01*
X6663375Y39747270D01*
X6506243Y39692287D01*
X6506236Y39692285D01*
X6499678Y39689989D01*
X6493790Y39686290D01*
X6493787Y39686288D01*
X6352838Y39597724D01*
X6352833Y39597721D01*
X6346938Y39594016D01*
X6342013Y39589092D01*
X6342009Y39589088D01*
X6224312Y39471391D01*
X6224308Y39471387D01*
X6219384Y39466462D01*
X6215679Y39460567D01*
X6215676Y39460562D01*
X6127112Y39319613D01*
X6127110Y39319610D01*
X6123411Y39313722D01*
X6121115Y39307164D01*
X6121113Y39307157D01*
X6066130Y39150025D01*
X6066128Y39150018D01*
X6063832Y39143455D01*
X6063052Y39136538D01*
X6063052Y39136535D01*
X6044415Y38971123D01*
X6043635Y38964200D01*
X3607761Y38964200D01*
X3663063Y39170592D01*
X3683659Y39406000D01*
X3663063Y39641408D01*
X3605984Y39854431D01*
X3603305Y39864431D01*
X3603304Y39864433D01*
X3601903Y39869663D01*
X3578591Y39919655D01*
X13568067Y39919655D01*
X13588264Y39740400D01*
X13590560Y39733836D01*
X13590562Y39733831D01*
X13645545Y39576699D01*
X13647843Y39570133D01*
X13743816Y39417393D01*
X13871370Y39289839D01*
X14024110Y39193866D01*
X14194377Y39134287D01*
X14373632Y39114090D01*
X14552887Y39134287D01*
X14723154Y39193866D01*
X14875894Y39289839D01*
X14982055Y39396000D01*
X21292341Y39396000D01*
X21292813Y39390605D01*
X21300997Y39297057D01*
X21312937Y39160592D01*
X21314336Y39155370D01*
X21314337Y39155366D01*
X21372694Y38937570D01*
X21372697Y38937562D01*
X21374097Y38932337D01*
X21376385Y38927430D01*
X21376386Y38927428D01*
X21471678Y38723073D01*
X21471681Y38723067D01*
X21473965Y38718170D01*
X21477064Y38713743D01*
X21477066Y38713741D01*
X21606399Y38529034D01*
X21606402Y38529030D01*
X21609505Y38524599D01*
X21776599Y38357505D01*
X21781031Y38354402D01*
X21781033Y38354400D01*
X21861978Y38297722D01*
X21970170Y38221965D01*
X22184337Y38122097D01*
X22189567Y38120696D01*
X22189569Y38120695D01*
X22231619Y38109428D01*
X22412592Y38060937D01*
X22648000Y38040341D01*
X22883408Y38060937D01*
X23111663Y38122097D01*
X23325830Y38221965D01*
X23519401Y38357505D01*
X23686495Y38524599D01*
X23822035Y38718170D01*
X23921903Y38932337D01*
X23983063Y39160592D01*
X24003659Y39396000D01*
X23983063Y39631408D01*
X23921903Y39859663D01*
X23822035Y40073829D01*
X23686495Y40267401D01*
X23519401Y40434495D01*
X23514968Y40437599D01*
X23514961Y40437605D01*
X23333842Y40564425D01*
X23294976Y40608743D01*
X23280965Y40666000D01*
X23294976Y40723257D01*
X23333842Y40767575D01*
X23514961Y40894396D01*
X23514961Y40894397D01*
X23519401Y40897505D01*
X23686495Y41064599D01*
X23822035Y41258170D01*
X23921903Y41472337D01*
X23983063Y41700592D01*
X24003659Y41936000D01*
X23983063Y42171408D01*
X23921903Y42399663D01*
X23822035Y42613829D01*
X23686495Y42807401D01*
X23519401Y42974495D01*
X23514968Y42977599D01*
X23514961Y42977605D01*
X23333842Y43104425D01*
X23294976Y43148743D01*
X23280965Y43206000D01*
X23294976Y43263257D01*
X23333842Y43307575D01*
X23514961Y43434396D01*
X23514961Y43434397D01*
X23519401Y43437505D01*
X23686495Y43604599D01*
X23822035Y43798170D01*
X23921903Y44012337D01*
X23983063Y44240592D01*
X24003659Y44476000D01*
X23983063Y44711408D01*
X23921903Y44939663D01*
X23822035Y45153829D01*
X23686495Y45347401D01*
X23564568Y45469328D01*
X23533273Y45522073D01*
X23531084Y45583366D01*
X23558537Y45638211D01*
X23608916Y45673190D01*
X23740331Y45722204D01*
X23855546Y45808454D01*
X23941796Y45923669D01*
X23992091Y46058517D01*
X23998500Y46118127D01*
X23998499Y47913872D01*
X23992091Y47973483D01*
X23941796Y48108331D01*
X23855546Y48223546D01*
X23835090Y48238859D01*
X23747431Y48304481D01*
X23747430Y48304482D01*
X23740331Y48309796D01*
X23605483Y48360091D01*
X23597770Y48360921D01*
X23597767Y48360921D01*
X23549180Y48366145D01*
X23549169Y48366146D01*
X23545873Y48366500D01*
X23542550Y48366500D01*
X21753439Y48366500D01*
X21753420Y48366500D01*
X21750128Y48366499D01*
X21746850Y48366147D01*
X21746838Y48366146D01*
X21698231Y48360921D01*
X21698225Y48360920D01*
X21690517Y48360091D01*
X21683252Y48357382D01*
X21683246Y48357380D01*
X21563980Y48312896D01*
X21563978Y48312896D01*
X21555669Y48309796D01*
X21548572Y48304484D01*
X21548568Y48304481D01*
X21447550Y48228859D01*
X21447546Y48228856D01*
X21440454Y48223546D01*
X21435144Y48216454D01*
X21435141Y48216450D01*
X21359519Y48115432D01*
X21359516Y48115428D01*
X21354204Y48108331D01*
X21351104Y48100022D01*
X21351104Y48100020D01*
X21306620Y47980753D01*
X21306619Y47980750D01*
X21303909Y47973483D01*
X21303079Y47965773D01*
X21303079Y47965768D01*
X21297855Y47917181D01*
X21297854Y47917169D01*
X21297500Y47913873D01*
X21297500Y47910552D01*
X21297500Y47910551D01*
X21297500Y46121440D01*
X21297500Y46121422D01*
X21297501Y46118128D01*
X21297853Y46114850D01*
X21297854Y46114839D01*
X21303079Y46066232D01*
X21303080Y46066227D01*
X21303909Y46058517D01*
X21306619Y46051251D01*
X21306620Y46051247D01*
X21318959Y46018165D01*
X21354204Y45923669D01*
X21440454Y45808454D01*
X21555669Y45722204D01*
X21660271Y45683190D01*
X21687082Y45673190D01*
X21737462Y45638211D01*
X21764915Y45583367D01*
X21762726Y45522074D01*
X21731431Y45469327D01*
X21609505Y45347401D01*
X21606402Y45342971D01*
X21606399Y45342966D01*
X21477073Y45158269D01*
X21477068Y45158262D01*
X21473965Y45153829D01*
X21471677Y45148923D01*
X21471675Y45148919D01*
X21376386Y44944573D01*
X21376383Y44944568D01*
X21374097Y44939663D01*
X21372698Y44934443D01*
X21372694Y44934431D01*
X21314337Y44716635D01*
X21314335Y44716629D01*
X21312937Y44711408D01*
X21312465Y44706023D01*
X21312465Y44706018D01*
X21296353Y44521860D01*
X21292341Y44476000D01*
X21292813Y44470605D01*
X21298306Y44407815D01*
X21312937Y44240592D01*
X21314336Y44235370D01*
X21314337Y44235366D01*
X21372694Y44017570D01*
X21372697Y44017562D01*
X21374097Y44012337D01*
X21376385Y44007430D01*
X21376386Y44007428D01*
X21471678Y43803073D01*
X21471681Y43803067D01*
X21473965Y43798170D01*
X21477064Y43793743D01*
X21477066Y43793741D01*
X21606399Y43609034D01*
X21606402Y43609030D01*
X21609505Y43604599D01*
X21776599Y43437505D01*
X21781032Y43434401D01*
X21781038Y43434396D01*
X21962158Y43307575D01*
X22001024Y43263257D01*
X22015035Y43206000D01*
X22001024Y43148743D01*
X21962159Y43104425D01*
X21781041Y42977605D01*
X21776599Y42974495D01*
X21772775Y42970672D01*
X21772769Y42970666D01*
X21613334Y42811231D01*
X21613328Y42811225D01*
X21609505Y42807401D01*
X21606402Y42802971D01*
X21606399Y42802966D01*
X21477073Y42618269D01*
X21477068Y42618262D01*
X21473965Y42613829D01*
X21471677Y42608923D01*
X21471675Y42608919D01*
X21376386Y42404573D01*
X21376383Y42404568D01*
X21374097Y42399663D01*
X21372698Y42394443D01*
X21372694Y42394431D01*
X21314337Y42176635D01*
X21314335Y42176629D01*
X21312937Y42171408D01*
X21312465Y42166023D01*
X21312465Y42166018D01*
X21303692Y42065743D01*
X21292341Y41936000D01*
X21292813Y41930605D01*
X21311003Y41722688D01*
X21312937Y41700592D01*
X21314336Y41695370D01*
X21314337Y41695366D01*
X21372694Y41477570D01*
X21372697Y41477562D01*
X21374097Y41472337D01*
X21376385Y41467430D01*
X21376386Y41467428D01*
X21471678Y41263073D01*
X21471681Y41263067D01*
X21473965Y41258170D01*
X21477064Y41253743D01*
X21477066Y41253741D01*
X21606399Y41069034D01*
X21606402Y41069030D01*
X21609505Y41064599D01*
X21776599Y40897505D01*
X21781032Y40894401D01*
X21781038Y40894396D01*
X21962158Y40767575D01*
X22001024Y40723257D01*
X22015035Y40666000D01*
X22001024Y40608743D01*
X21962159Y40564425D01*
X21781041Y40437605D01*
X21776599Y40434495D01*
X21772775Y40430672D01*
X21772769Y40430666D01*
X21613334Y40271231D01*
X21613328Y40271225D01*
X21609505Y40267401D01*
X21606402Y40262971D01*
X21606399Y40262966D01*
X21477073Y40078269D01*
X21477068Y40078262D01*
X21473965Y40073829D01*
X21471677Y40068923D01*
X21471675Y40068919D01*
X21376386Y39864573D01*
X21376383Y39864568D01*
X21374097Y39859663D01*
X21372698Y39854443D01*
X21372694Y39854431D01*
X21314337Y39636635D01*
X21314335Y39636629D01*
X21312937Y39631408D01*
X21312465Y39626023D01*
X21312465Y39626018D01*
X21297622Y39456362D01*
X21292341Y39396000D01*
X14982055Y39396000D01*
X15003448Y39417393D01*
X15099421Y39570133D01*
X15159000Y39740400D01*
X15179197Y39919655D01*
X15159000Y40098910D01*
X15099421Y40269177D01*
X15003448Y40421917D01*
X14875894Y40549471D01*
X14793187Y40601439D01*
X14729044Y40641743D01*
X14723154Y40645444D01*
X14716591Y40647741D01*
X14716588Y40647742D01*
X14559456Y40702725D01*
X14559451Y40702727D01*
X14552887Y40705023D01*
X14545967Y40705803D01*
X14545966Y40705803D01*
X14380555Y40724440D01*
X14373632Y40725220D01*
X14366709Y40724440D01*
X14201297Y40705803D01*
X14201294Y40705803D01*
X14194377Y40705023D01*
X14187814Y40702727D01*
X14187807Y40702725D01*
X14030675Y40647742D01*
X14030668Y40647740D01*
X14024110Y40645444D01*
X14018222Y40641745D01*
X14018219Y40641743D01*
X13877270Y40553179D01*
X13877265Y40553176D01*
X13871370Y40549471D01*
X13866445Y40544547D01*
X13866441Y40544543D01*
X13748744Y40426846D01*
X13748740Y40426842D01*
X13743816Y40421917D01*
X13740111Y40416022D01*
X13740108Y40416017D01*
X13651544Y40275068D01*
X13651542Y40275065D01*
X13647843Y40269177D01*
X13645547Y40262619D01*
X13645545Y40262612D01*
X13590562Y40105480D01*
X13590560Y40105473D01*
X13588264Y40098910D01*
X13587484Y40091993D01*
X13587484Y40091990D01*
X13585938Y40078269D01*
X13568067Y39919655D01*
X3578591Y39919655D01*
X3502035Y40083829D01*
X3366495Y40277401D01*
X3199401Y40444495D01*
X3194968Y40447599D01*
X3194961Y40447605D01*
X3013842Y40574425D01*
X2974976Y40618743D01*
X2960965Y40676000D01*
X2974976Y40733257D01*
X3013842Y40777575D01*
X3198963Y40907198D01*
X3260050Y40929216D01*
X3323890Y40917342D01*
X3328603Y40915073D01*
X3334500Y40911367D01*
X3504767Y40851788D01*
X3684022Y40831591D01*
X3863277Y40851788D01*
X4033544Y40911367D01*
X4186284Y41007340D01*
X4276744Y41097800D01*
X9752035Y41097800D01*
X9752815Y41090877D01*
X9771029Y40929216D01*
X9772232Y40918545D01*
X9774528Y40911981D01*
X9774530Y40911976D01*
X9829513Y40754844D01*
X9831811Y40748278D01*
X9927784Y40595538D01*
X10055338Y40467984D01*
X10208078Y40372011D01*
X10378345Y40312432D01*
X10557600Y40292235D01*
X10736855Y40312432D01*
X10907122Y40372011D01*
X11059862Y40467984D01*
X11187416Y40595538D01*
X11283389Y40748278D01*
X11342968Y40918545D01*
X11363165Y41097800D01*
X11342968Y41277055D01*
X11283389Y41447322D01*
X11187416Y41600062D01*
X11059862Y41727616D01*
X10907122Y41823589D01*
X10900559Y41825886D01*
X10900556Y41825887D01*
X10743424Y41880870D01*
X10743419Y41880872D01*
X10736855Y41883168D01*
X10729935Y41883948D01*
X10729934Y41883948D01*
X10564523Y41902585D01*
X10557600Y41903365D01*
X10550677Y41902585D01*
X10385265Y41883948D01*
X10385262Y41883948D01*
X10378345Y41883168D01*
X10371782Y41880872D01*
X10371775Y41880870D01*
X10214643Y41825887D01*
X10214636Y41825885D01*
X10208078Y41823589D01*
X10202190Y41819890D01*
X10202187Y41819888D01*
X10061238Y41731324D01*
X10061233Y41731321D01*
X10055338Y41727616D01*
X10050413Y41722692D01*
X10050409Y41722688D01*
X9932712Y41604991D01*
X9932708Y41604987D01*
X9927784Y41600062D01*
X9924079Y41594167D01*
X9924076Y41594162D01*
X9835512Y41453213D01*
X9835510Y41453210D01*
X9831811Y41447322D01*
X9829515Y41440764D01*
X9829513Y41440757D01*
X9774530Y41283625D01*
X9774528Y41283618D01*
X9772232Y41277055D01*
X9771452Y41270138D01*
X9771452Y41270135D01*
X9770104Y41258170D01*
X9752035Y41097800D01*
X4276744Y41097800D01*
X4313838Y41134894D01*
X4409811Y41287634D01*
X4469390Y41457901D01*
X4489587Y41637156D01*
X4469390Y41816411D01*
X4409811Y41986678D01*
X4313838Y42139418D01*
X4186284Y42266972D01*
X4033544Y42362945D01*
X4026981Y42365242D01*
X4026978Y42365243D01*
X3869846Y42420226D01*
X3869841Y42420228D01*
X3863277Y42422524D01*
X3856357Y42423304D01*
X3856356Y42423304D01*
X3690945Y42441941D01*
X3684022Y42442721D01*
X3677099Y42441941D01*
X3670140Y42441941D01*
X3670140Y42443200D01*
X3629011Y42447147D01*
X3584397Y42472172D01*
X3553680Y42513077D01*
X3520893Y42583388D01*
X3502035Y42623829D01*
X3366495Y42817401D01*
X3245096Y42938800D01*
X11580835Y42938800D01*
X11601032Y42759545D01*
X11603328Y42752981D01*
X11603330Y42752976D01*
X11652020Y42613829D01*
X11660611Y42589278D01*
X11756584Y42436538D01*
X11884138Y42308984D01*
X12036878Y42213011D01*
X12207145Y42153432D01*
X12386400Y42133235D01*
X12565655Y42153432D01*
X12735922Y42213011D01*
X12888662Y42308984D01*
X13016216Y42436538D01*
X13112189Y42589278D01*
X13171768Y42759545D01*
X13181826Y42848812D01*
X16497224Y42848812D01*
X16498004Y42841889D01*
X16502389Y42802966D01*
X16517421Y42669557D01*
X16519717Y42662993D01*
X16519719Y42662988D01*
X16574702Y42505856D01*
X16577000Y42499290D01*
X16672973Y42346550D01*
X16800527Y42218996D01*
X16953267Y42123023D01*
X17123534Y42063444D01*
X17302789Y42043247D01*
X17482044Y42063444D01*
X17652311Y42123023D01*
X17805051Y42218996D01*
X17932605Y42346550D01*
X18028578Y42499290D01*
X18088157Y42669557D01*
X18108354Y42848812D01*
X18088157Y43028067D01*
X18028578Y43198334D01*
X17932605Y43351074D01*
X17805051Y43478628D01*
X17724666Y43529137D01*
X17658201Y43570900D01*
X17652311Y43574601D01*
X17645748Y43576898D01*
X17645745Y43576899D01*
X17488613Y43631882D01*
X17488608Y43631884D01*
X17482044Y43634180D01*
X17475124Y43634960D01*
X17475123Y43634960D01*
X17309712Y43653597D01*
X17302789Y43654377D01*
X17295866Y43653597D01*
X17130454Y43634960D01*
X17130451Y43634960D01*
X17123534Y43634180D01*
X17116971Y43631884D01*
X17116964Y43631882D01*
X16959832Y43576899D01*
X16959825Y43576897D01*
X16953267Y43574601D01*
X16947379Y43570902D01*
X16947376Y43570900D01*
X16806427Y43482336D01*
X16806422Y43482333D01*
X16800527Y43478628D01*
X16795602Y43473704D01*
X16795598Y43473700D01*
X16677901Y43356003D01*
X16677897Y43355999D01*
X16672973Y43351074D01*
X16669268Y43345179D01*
X16669265Y43345174D01*
X16580701Y43204225D01*
X16580699Y43204222D01*
X16577000Y43198334D01*
X16574704Y43191776D01*
X16574702Y43191769D01*
X16519719Y43034637D01*
X16519717Y43034630D01*
X16517421Y43028067D01*
X16516641Y43021150D01*
X16516641Y43021147D01*
X16510953Y42970664D01*
X16497224Y42848812D01*
X13181826Y42848812D01*
X13191965Y42938800D01*
X13171768Y43118055D01*
X13112189Y43288322D01*
X13016216Y43441062D01*
X12888662Y43568616D01*
X12837492Y43600768D01*
X12741812Y43660888D01*
X12735922Y43664589D01*
X12729359Y43666886D01*
X12729356Y43666887D01*
X12572224Y43721870D01*
X12572219Y43721872D01*
X12565655Y43724168D01*
X12558735Y43724948D01*
X12558734Y43724948D01*
X12393323Y43743585D01*
X12386400Y43744365D01*
X12379477Y43743585D01*
X12214065Y43724948D01*
X12214062Y43724948D01*
X12207145Y43724168D01*
X12200582Y43721872D01*
X12200575Y43721870D01*
X12043443Y43666887D01*
X12043436Y43666885D01*
X12036878Y43664589D01*
X12030990Y43660890D01*
X12030987Y43660888D01*
X11890038Y43572324D01*
X11890033Y43572321D01*
X11884138Y43568616D01*
X11879213Y43563692D01*
X11879209Y43563688D01*
X11761512Y43445991D01*
X11761508Y43445987D01*
X11756584Y43441062D01*
X11752879Y43435167D01*
X11752876Y43435162D01*
X11664312Y43294213D01*
X11664310Y43294210D01*
X11660611Y43288322D01*
X11658315Y43281764D01*
X11658313Y43281757D01*
X11603330Y43124625D01*
X11603328Y43124618D01*
X11601032Y43118055D01*
X11600252Y43111138D01*
X11600252Y43111135D01*
X11585552Y42980666D01*
X11580835Y42938800D01*
X3245096Y42938800D01*
X3199401Y42984495D01*
X3194970Y42987598D01*
X3194966Y42987601D01*
X3013841Y43114426D01*
X2974976Y43158744D01*
X2960965Y43216001D01*
X2974976Y43273258D01*
X3013839Y43317574D01*
X3185120Y43437505D01*
X3194961Y43444396D01*
X3194961Y43444397D01*
X3199401Y43447505D01*
X3366495Y43614599D01*
X3502035Y43808170D01*
X3601903Y44022337D01*
X3602750Y44025498D01*
X7466035Y44025498D01*
X7486232Y43846243D01*
X7488528Y43839679D01*
X7488530Y43839674D01*
X7529752Y43721870D01*
X7545811Y43675976D01*
X7641784Y43523236D01*
X7769338Y43395682D01*
X7922078Y43299709D01*
X8092345Y43240130D01*
X8271600Y43219933D01*
X8450855Y43240130D01*
X8621122Y43299709D01*
X8773862Y43395682D01*
X8901416Y43523236D01*
X8997389Y43675976D01*
X9056968Y43846243D01*
X9077165Y44025498D01*
X9056968Y44204753D01*
X8997389Y44375020D01*
X8901416Y44527760D01*
X8773862Y44655314D01*
X8621122Y44751287D01*
X8614559Y44753584D01*
X8614556Y44753585D01*
X8457424Y44808568D01*
X8457419Y44808570D01*
X8450855Y44810866D01*
X8443935Y44811646D01*
X8443934Y44811646D01*
X8278523Y44830283D01*
X8271600Y44831063D01*
X8264677Y44830283D01*
X8099265Y44811646D01*
X8099262Y44811646D01*
X8092345Y44810866D01*
X8085782Y44808570D01*
X8085775Y44808568D01*
X7928643Y44753585D01*
X7928636Y44753583D01*
X7922078Y44751287D01*
X7916190Y44747588D01*
X7916187Y44747586D01*
X7775238Y44659022D01*
X7775233Y44659019D01*
X7769338Y44655314D01*
X7764413Y44650390D01*
X7764409Y44650386D01*
X7646712Y44532689D01*
X7646708Y44532685D01*
X7641784Y44527760D01*
X7638079Y44521865D01*
X7638076Y44521860D01*
X7549512Y44380911D01*
X7549510Y44380908D01*
X7545811Y44375020D01*
X7543515Y44368462D01*
X7543513Y44368455D01*
X7488530Y44211323D01*
X7488528Y44211316D01*
X7486232Y44204753D01*
X7466035Y44025498D01*
X3602750Y44025498D01*
X3663063Y44250592D01*
X3683659Y44486000D01*
X3663063Y44721408D01*
X3605984Y44934431D01*
X3603305Y44944431D01*
X3603304Y44944433D01*
X3601903Y44949663D01*
X3502035Y45163829D01*
X3467885Y45212600D01*
X12698435Y45212600D01*
X12718632Y45033345D01*
X12720928Y45026781D01*
X12720930Y45026776D01*
X12775913Y44869644D01*
X12778211Y44863078D01*
X12808118Y44815481D01*
X12850779Y44747586D01*
X12874184Y44710338D01*
X13001738Y44582784D01*
X13154478Y44486811D01*
X13324745Y44427232D01*
X13504000Y44407035D01*
X13683255Y44427232D01*
X13853522Y44486811D01*
X14006262Y44582784D01*
X14133816Y44710338D01*
X14229789Y44863078D01*
X14289368Y45033345D01*
X14309565Y45212600D01*
X14289368Y45391855D01*
X14229789Y45562122D01*
X14133816Y45714862D01*
X14006262Y45842416D01*
X13946073Y45880235D01*
X13859412Y45934688D01*
X13853522Y45938389D01*
X13846959Y45940686D01*
X13846956Y45940687D01*
X13689824Y45995670D01*
X13689819Y45995672D01*
X13683255Y45997968D01*
X13676335Y45998748D01*
X13676334Y45998748D01*
X13510923Y46017385D01*
X13504000Y46018165D01*
X13497077Y46017385D01*
X13331665Y45998748D01*
X13331662Y45998748D01*
X13324745Y45997968D01*
X13318182Y45995672D01*
X13318175Y45995670D01*
X13161043Y45940687D01*
X13161036Y45940685D01*
X13154478Y45938389D01*
X13148590Y45934690D01*
X13148587Y45934688D01*
X13007638Y45846124D01*
X13007633Y45846121D01*
X13001738Y45842416D01*
X12996813Y45837492D01*
X12996809Y45837488D01*
X12879112Y45719791D01*
X12879108Y45719787D01*
X12874184Y45714862D01*
X12870479Y45708967D01*
X12870476Y45708962D01*
X12781912Y45568013D01*
X12781910Y45568010D01*
X12778211Y45562122D01*
X12775915Y45555564D01*
X12775913Y45555557D01*
X12720930Y45398425D01*
X12720928Y45398418D01*
X12718632Y45391855D01*
X12717852Y45384938D01*
X12717852Y45384935D01*
X12699215Y45219523D01*
X12698435Y45212600D01*
X3467885Y45212600D01*
X3366495Y45357401D01*
X3244569Y45479327D01*
X3213273Y45532073D01*
X3211084Y45593366D01*
X3238537Y45648211D01*
X3288916Y45683190D01*
X3420331Y45732204D01*
X3535546Y45818454D01*
X3621796Y45933669D01*
X3672091Y46068517D01*
X3678500Y46128127D01*
X3678500Y46685800D01*
X7161235Y46685800D01*
X7181432Y46506545D01*
X7183728Y46499981D01*
X7183730Y46499976D01*
X7238713Y46342844D01*
X7241011Y46336278D01*
X7336984Y46183538D01*
X7464538Y46055984D01*
X7617278Y45960011D01*
X7787545Y45900432D01*
X7966800Y45880235D01*
X8146055Y45900432D01*
X8316322Y45960011D01*
X8469062Y46055984D01*
X8596616Y46183538D01*
X8632395Y46240480D01*
X18934955Y46240480D01*
X18935735Y46233557D01*
X18948740Y46118128D01*
X18955152Y46061225D01*
X18957448Y46054661D01*
X18957450Y46054656D01*
X19011688Y45899653D01*
X19014731Y45890958D01*
X19018432Y45885068D01*
X19069909Y45803142D01*
X19110704Y45738218D01*
X19238258Y45610664D01*
X19390998Y45514691D01*
X19561265Y45455112D01*
X19740520Y45434915D01*
X19919775Y45455112D01*
X20090042Y45514691D01*
X20242782Y45610664D01*
X20370336Y45738218D01*
X20466309Y45890958D01*
X20525888Y46061225D01*
X20546085Y46240480D01*
X20525888Y46419735D01*
X20466309Y46590002D01*
X20370336Y46742742D01*
X20242782Y46870296D01*
X20090042Y46966269D01*
X20083479Y46968566D01*
X20083476Y46968567D01*
X19926344Y47023550D01*
X19926339Y47023552D01*
X19919775Y47025848D01*
X19912855Y47026628D01*
X19912854Y47026628D01*
X19747443Y47045265D01*
X19740520Y47046045D01*
X19733597Y47045265D01*
X19568185Y47026628D01*
X19568182Y47026628D01*
X19561265Y47025848D01*
X19554702Y47023552D01*
X19554695Y47023550D01*
X19397563Y46968567D01*
X19397556Y46968565D01*
X19390998Y46966269D01*
X19385110Y46962570D01*
X19385107Y46962568D01*
X19244158Y46874004D01*
X19244153Y46874001D01*
X19238258Y46870296D01*
X19233333Y46865372D01*
X19233329Y46865368D01*
X19115632Y46747671D01*
X19115628Y46747667D01*
X19110704Y46742742D01*
X19106999Y46736847D01*
X19106996Y46736842D01*
X19018432Y46595893D01*
X19018430Y46595890D01*
X19014731Y46590002D01*
X19012435Y46583444D01*
X19012433Y46583437D01*
X18957450Y46426305D01*
X18957448Y46426298D01*
X18955152Y46419735D01*
X18954372Y46412818D01*
X18954372Y46412815D01*
X18945749Y46336278D01*
X18934955Y46240480D01*
X8632395Y46240480D01*
X8692589Y46336278D01*
X8752168Y46506545D01*
X8772365Y46685800D01*
X8752168Y46865055D01*
X8692589Y47035322D01*
X8596616Y47188062D01*
X8469062Y47315616D01*
X8316322Y47411589D01*
X8309759Y47413886D01*
X8309756Y47413887D01*
X8152624Y47468870D01*
X8152619Y47468872D01*
X8146055Y47471168D01*
X8139135Y47471948D01*
X8139134Y47471948D01*
X7973723Y47490585D01*
X7966800Y47491365D01*
X7959877Y47490585D01*
X7794465Y47471948D01*
X7794462Y47471948D01*
X7787545Y47471168D01*
X7780982Y47468872D01*
X7780975Y47468870D01*
X7623843Y47413887D01*
X7623836Y47413885D01*
X7617278Y47411589D01*
X7611390Y47407890D01*
X7611387Y47407888D01*
X7470438Y47319324D01*
X7470433Y47319321D01*
X7464538Y47315616D01*
X7459613Y47310692D01*
X7459609Y47310688D01*
X7341912Y47192991D01*
X7341908Y47192987D01*
X7336984Y47188062D01*
X7333279Y47182167D01*
X7333276Y47182162D01*
X7244712Y47041213D01*
X7244710Y47041210D01*
X7241011Y47035322D01*
X7238715Y47028764D01*
X7238713Y47028757D01*
X7183730Y46871625D01*
X7183728Y46871618D01*
X7181432Y46865055D01*
X7161235Y46685800D01*
X3678500Y46685800D01*
X3678499Y47923872D01*
X3672091Y47983483D01*
X3621796Y48118331D01*
X3535546Y48233546D01*
X3420331Y48319796D01*
X3319563Y48357380D01*
X3292752Y48367380D01*
X3292750Y48367381D01*
X3285483Y48370091D01*
X3277770Y48370921D01*
X3277767Y48370921D01*
X3229180Y48376145D01*
X3229169Y48376146D01*
X3225873Y48376500D01*
X3222550Y48376500D01*
X1433439Y48376500D01*
X1433420Y48376500D01*
X1430128Y48376499D01*
X1426850Y48376147D01*
X1426838Y48376146D01*
X1378231Y48370921D01*
X1378225Y48370920D01*
X1370517Y48370091D01*
X1363252Y48367382D01*
X1363246Y48367380D01*
X1243980Y48322896D01*
X1243978Y48322896D01*
X1235669Y48319796D01*
X1228572Y48314484D01*
X1228568Y48314481D01*
X1127550Y48238859D01*
X1127546Y48238856D01*
X1120454Y48233546D01*
X1115144Y48226454D01*
X1115141Y48226450D01*
X1039519Y48125432D01*
X1039516Y48125428D01*
X1034204Y48118331D01*
X1031104Y48110022D01*
X1031104Y48110020D01*
X986620Y47990753D01*
X986619Y47990750D01*
X983909Y47983483D01*
X983079Y47975773D01*
X983079Y47975768D01*
X977855Y47927181D01*
X977854Y47927169D01*
X977500Y47923873D01*
X977500Y47920552D01*
X977500Y47920551D01*
X977500Y46131440D01*
X977500Y46131422D01*
X977501Y46128128D01*
X977853Y46124850D01*
X977854Y46124839D01*
X983079Y46076232D01*
X983080Y46076227D01*
X983909Y46068517D01*
X986619Y46061251D01*
X986620Y46061247D01*
X990350Y46051247D01*
X1034204Y45933669D01*
X1120454Y45818454D01*
X1235669Y45732204D01*
X1345405Y45691275D01*
X1367082Y45683190D01*
X1417462Y45648211D01*
X1444915Y45593367D01*
X1442726Y45532074D01*
X1411431Y45479327D01*
X1289505Y45357401D01*
X1286402Y45352971D01*
X1286399Y45352966D01*
X1157073Y45168269D01*
X1157068Y45168262D01*
X1153965Y45163829D01*
X1151677Y45158923D01*
X1151675Y45158919D01*
X1056386Y44954573D01*
X1056383Y44954568D01*
X1054097Y44949663D01*
X1052698Y44944443D01*
X1052694Y44944431D01*
X994337Y44726635D01*
X994335Y44726629D01*
X992937Y44721408D01*
X992465Y44716023D01*
X992465Y44716018D01*
X987154Y44655314D01*
X972341Y44486000D01*
X972813Y44480605D01*
X977281Y44429531D01*
X992937Y44250592D01*
X994336Y44245370D01*
X994337Y44245366D01*
X1052694Y44027570D01*
X1052697Y44027562D01*
X1054097Y44022337D01*
X1056385Y44017430D01*
X1056386Y44017428D01*
X1151678Y43813073D01*
X1151681Y43813067D01*
X1153965Y43808170D01*
X1157064Y43803743D01*
X1157066Y43803741D01*
X1286399Y43619034D01*
X1286402Y43619030D01*
X1289505Y43614599D01*
X1456599Y43447505D01*
X1461032Y43444401D01*
X1461038Y43444396D01*
X1642158Y43317575D01*
X1681024Y43273257D01*
X1695035Y43216000D01*
X1681024Y43158743D01*
X1642159Y43114425D01*
X1518827Y43028067D01*
X1456599Y42984495D01*
X1452775Y42980672D01*
X1452769Y42980666D01*
X1293334Y42821231D01*
X1293328Y42821225D01*
X1289505Y42817401D01*
X1286402Y42812971D01*
X1286399Y42812966D01*
X1157073Y42628269D01*
X1157068Y42628262D01*
X1153965Y42623829D01*
X1151677Y42618923D01*
X1151675Y42618919D01*
X1056386Y42414573D01*
X1056383Y42414568D01*
X1054097Y42409663D01*
X1052698Y42404443D01*
X1052694Y42404431D01*
X994337Y42186635D01*
X994335Y42186629D01*
X992937Y42181408D01*
X992465Y42176023D01*
X992465Y42176018D01*
X987829Y42123023D01*
X972341Y41946000D01*
X972813Y41940605D01*
X991878Y41722688D01*
X992937Y41710592D01*
X994336Y41705370D01*
X994337Y41705366D01*
X1052694Y41487570D01*
X1052697Y41487562D01*
X1054097Y41482337D01*
X1056385Y41477430D01*
X1056386Y41477428D01*
X1151678Y41273073D01*
X1151681Y41273067D01*
X1153965Y41268170D01*
X1157064Y41263743D01*
X1157066Y41263741D01*
X1286399Y41079034D01*
X1286402Y41079030D01*
X1289505Y41074599D01*
X1456599Y40907505D01*
X1461032Y40904401D01*
X1461038Y40904396D01*
X1642158Y40777575D01*
X1681024Y40733257D01*
X1695035Y40676000D01*
X1681024Y40618743D01*
X1642159Y40574425D01*
X1461041Y40447605D01*
X1456599Y40444495D01*
X1452775Y40440672D01*
X1452769Y40440666D01*
X1293334Y40281231D01*
X1293328Y40281225D01*
X1289505Y40277401D01*
X1286402Y40272971D01*
X1286399Y40272966D01*
X1157073Y40088269D01*
X1157068Y40088262D01*
X1153965Y40083829D01*
X1151677Y40078923D01*
X1151675Y40078919D01*
X1056386Y39874573D01*
X1056383Y39874568D01*
X1054097Y39869663D01*
X1052698Y39864443D01*
X1052694Y39864431D01*
X994337Y39646635D01*
X994335Y39646629D01*
X992937Y39641408D01*
X992465Y39636023D01*
X992465Y39636018D01*
X978062Y39471391D01*
X972341Y39406000D01*
X972813Y39400605D01*
X991831Y39183224D01*
X992937Y39170592D01*
X994336Y39165370D01*
X994337Y39165366D01*
X1052694Y38947570D01*
X1052697Y38947562D01*
X1054097Y38942337D01*
X1056385Y38937430D01*
X1056386Y38937428D01*
X1151678Y38733073D01*
X1151681Y38733067D01*
X1153965Y38728170D01*
X1157064Y38723743D01*
X1157066Y38723741D01*
X1286399Y38539034D01*
X1286402Y38539030D01*
X1289505Y38534599D01*
X1456599Y38367505D01*
X1461032Y38364401D01*
X1461038Y38364396D01*
X1642158Y38237575D01*
X1681024Y38193257D01*
X1695035Y38136000D01*
X1681024Y38078743D01*
X1642159Y38034425D01*
X1461041Y37907605D01*
X1456599Y37904495D01*
X1452775Y37900672D01*
X1452769Y37900666D01*
X1293334Y37741231D01*
X1293328Y37741225D01*
X1289505Y37737401D01*
X1286402Y37732971D01*
X1286399Y37732966D01*
X1157073Y37548269D01*
X1157068Y37548262D01*
X1153965Y37543829D01*
X1151677Y37538923D01*
X1151675Y37538919D01*
X1056386Y37334573D01*
X1056383Y37334568D01*
X1054097Y37329663D01*
X1052698Y37324443D01*
X1052694Y37324431D01*
X994337Y37106635D01*
X994335Y37106629D01*
X992937Y37101408D01*
X992465Y37096023D01*
X992465Y37096018D01*
X976814Y36917131D01*
X972341Y36866000D01*
X500Y36866000D01*
X500Y49493774D01*
X852329Y49493774D01*
X859159Y49482538D01*
X863157Y49479142D01*
X1142694Y49266643D01*
X1148240Y49262883D01*
X1449099Y49081863D01*
X1455038Y49078715D01*
X1773695Y48931288D01*
X1779937Y48928801D01*
X2112684Y48816685D01*
X2119129Y48814896D01*
X2462053Y48739412D01*
X2468677Y48738326D01*
X2817740Y48700364D01*
X2824437Y48700000D01*
X3175563Y48700000D01*
X3182259Y48700364D01*
X3531322Y48738326D01*
X3537946Y48739412D01*
X3880870Y48814896D01*
X3887315Y48816685D01*
X4220062Y48928801D01*
X4226304Y48931288D01*
X4544961Y49078715D01*
X4550900Y49081863D01*
X4851759Y49262883D01*
X4857305Y49266643D01*
X5136846Y49479144D01*
X5140841Y49482538D01*
X5147669Y49493772D01*
X5140996Y49505451D01*
X4941347Y49705100D01*
X8024835Y49705100D01*
X8025615Y49698177D01*
X8036074Y49605345D01*
X8045032Y49525845D01*
X8047328Y49519281D01*
X8047330Y49519276D01*
X8102313Y49362144D01*
X8104611Y49355578D01*
X8200584Y49202838D01*
X8328138Y49075284D01*
X8480878Y48979311D01*
X8651145Y48919732D01*
X8830400Y48899535D01*
X9009655Y48919732D01*
X9179922Y48979311D01*
X9332662Y49075284D01*
X9460216Y49202838D01*
X9556189Y49355578D01*
X9615768Y49525845D01*
X9635965Y49705100D01*
X9627008Y49784600D01*
X16965635Y49784600D01*
X16985832Y49605345D01*
X16988128Y49598781D01*
X16988130Y49598776D01*
X17029992Y49479142D01*
X17045411Y49435078D01*
X17049112Y49429188D01*
X17091238Y49362144D01*
X17141384Y49282338D01*
X17268938Y49154784D01*
X17421678Y49058811D01*
X17591945Y48999232D01*
X17771200Y48979035D01*
X17950455Y48999232D01*
X18120722Y49058811D01*
X18273462Y49154784D01*
X18401016Y49282338D01*
X18496989Y49435078D01*
X18517528Y49493774D01*
X19852329Y49493774D01*
X19859159Y49482538D01*
X19863157Y49479142D01*
X20142694Y49266643D01*
X20148240Y49262883D01*
X20449099Y49081863D01*
X20455038Y49078715D01*
X20773695Y48931288D01*
X20779937Y48928801D01*
X21112684Y48816685D01*
X21119129Y48814896D01*
X21462053Y48739412D01*
X21468677Y48738326D01*
X21817740Y48700364D01*
X21824437Y48700000D01*
X22175563Y48700000D01*
X22182259Y48700364D01*
X22531322Y48738326D01*
X22537946Y48739412D01*
X22880870Y48814896D01*
X22887315Y48816685D01*
X23220062Y48928801D01*
X23226304Y48931288D01*
X23544961Y49078715D01*
X23550900Y49081863D01*
X23851759Y49262883D01*
X23857305Y49266643D01*
X24136846Y49479144D01*
X24140841Y49482538D01*
X24147669Y49493772D01*
X24140996Y49505451D01*
X22011542Y51634905D01*
X22000000Y51641569D01*
X21988457Y51634905D01*
X19859000Y49505449D01*
X19852329Y49493774D01*
X18517528Y49493774D01*
X18556568Y49605345D01*
X18576765Y49784600D01*
X18556568Y49963855D01*
X18496989Y50134122D01*
X18401016Y50286862D01*
X18273462Y50414416D01*
X18253135Y50427188D01*
X18126612Y50506688D01*
X18120722Y50510389D01*
X18114159Y50512686D01*
X18114156Y50512687D01*
X17957024Y50567670D01*
X17957019Y50567672D01*
X17950455Y50569968D01*
X17943535Y50570748D01*
X17943534Y50570748D01*
X17778123Y50589385D01*
X17771200Y50590165D01*
X17764277Y50589385D01*
X17598865Y50570748D01*
X17598862Y50570748D01*
X17591945Y50569968D01*
X17585382Y50567672D01*
X17585375Y50567670D01*
X17428243Y50512687D01*
X17428236Y50512685D01*
X17421678Y50510389D01*
X17415790Y50506690D01*
X17415787Y50506688D01*
X17274838Y50418124D01*
X17274833Y50418121D01*
X17268938Y50414416D01*
X17264013Y50409492D01*
X17264009Y50409488D01*
X17146312Y50291791D01*
X17146308Y50291787D01*
X17141384Y50286862D01*
X17137679Y50280967D01*
X17137676Y50280962D01*
X17049112Y50140013D01*
X17049110Y50140010D01*
X17045411Y50134122D01*
X17043115Y50127564D01*
X17043113Y50127557D01*
X16988130Y49970425D01*
X16988128Y49970418D01*
X16985832Y49963855D01*
X16985052Y49956938D01*
X16985052Y49956935D01*
X16974372Y49862145D01*
X16965635Y49784600D01*
X9627008Y49784600D01*
X9615768Y49884355D01*
X9556189Y50054622D01*
X9460216Y50207362D01*
X9332662Y50334916D01*
X9179922Y50430889D01*
X9173359Y50433186D01*
X9173356Y50433187D01*
X9016224Y50488170D01*
X9016219Y50488172D01*
X9009655Y50490468D01*
X9002735Y50491248D01*
X9002734Y50491248D01*
X8837323Y50509885D01*
X8830400Y50510665D01*
X8823477Y50509885D01*
X8658065Y50491248D01*
X8658062Y50491248D01*
X8651145Y50490468D01*
X8644582Y50488172D01*
X8644575Y50488170D01*
X8487443Y50433187D01*
X8487436Y50433185D01*
X8480878Y50430889D01*
X8474990Y50427190D01*
X8474987Y50427188D01*
X8334038Y50338624D01*
X8334033Y50338621D01*
X8328138Y50334916D01*
X8323213Y50329992D01*
X8323209Y50329988D01*
X8205512Y50212291D01*
X8205508Y50212287D01*
X8200584Y50207362D01*
X8196879Y50201467D01*
X8196876Y50201462D01*
X8108312Y50060513D01*
X8108310Y50060510D01*
X8104611Y50054622D01*
X8102315Y50048064D01*
X8102313Y50048057D01*
X8047330Y49890925D01*
X8047328Y49890918D01*
X8045032Y49884355D01*
X8044252Y49877438D01*
X8044252Y49877435D01*
X8042529Y49862144D01*
X8024835Y49705100D01*
X4941347Y49705100D01*
X3011542Y51634905D01*
X3000000Y51641569D01*
X2988457Y51634905D01*
X859000Y49505449D01*
X852329Y49493774D01*
X500Y49493774D01*
X500Y50139693D01*
X16229Y50200135D01*
X59424Y50245245D01*
X119128Y50263577D01*
X180195Y50250481D01*
X227133Y50209280D01*
X367147Y50002775D01*
X371207Y49997434D01*
X485320Y49863090D01*
X496664Y49855473D01*
X508590Y49862145D01*
X2634904Y51988458D01*
X2641568Y52000000D01*
X2634904Y52011543D01*
X508590Y54137857D01*
X496664Y54144529D01*
X485320Y54136912D01*
X371207Y54002567D01*
X367147Y53997226D01*
X227133Y53790720D01*
X180195Y53749519D01*
X119128Y53736423D01*
X59424Y53754755D01*
X16229Y53799865D01*
X500Y53860307D01*
X500Y54875500D01*
X17113Y54937500D01*
X62500Y54982887D01*
X124500Y54999500D01*
X1137717Y54999500D01*
X1199329Y54983110D01*
G37*
%TD.AperFunction*%
%TD*%
M02*
