%TF.GenerationSoftware,KiCad,Pcbnew,8.0.0*%
%TF.CreationDate,2025-08-09T21:47:33-07:00*%
%TF.ProjectId,it sure is getting hot in here,69742073-7572-4652-9069-732067657474,rev?*%
%TF.SameCoordinates,Original*%
%TF.FileFunction,Copper,L4,Bot*%
%TF.FilePolarity,Positive*%
%FSLAX46Y46*%
G04 Gerber Fmt 4.6, Leading zero omitted, Abs format (unit mm)*
G04 Created by KiCad (PCBNEW 8.0.0) date 2025-08-09 21:47:33*
%MOMM*%
%LPD*%
G01*
G04 APERTURE LIST*
G04 Aperture macros list*
%AMFreePoly0*
4,1,19,0.500000,-0.750000,0.000000,-0.750000,0.000000,-0.744911,-0.071157,-0.744911,-0.207708,-0.704816,-0.327430,-0.627875,-0.420627,-0.520320,-0.479746,-0.390866,-0.500000,-0.250000,-0.500000,0.250000,-0.479746,0.390866,-0.420627,0.520320,-0.327430,0.627875,-0.207708,0.704816,-0.071157,0.744911,0.000000,0.744911,0.000000,0.750000,0.500000,0.750000,0.500000,-0.750000,0.500000,-0.750000,
$1*%
%AMFreePoly1*
4,1,19,0.000000,0.744911,0.071157,0.744911,0.207708,0.704816,0.327430,0.627875,0.420627,0.520320,0.479746,0.390866,0.500000,0.250000,0.500000,-0.250000,0.479746,-0.390866,0.420627,-0.520320,0.327430,-0.627875,0.207708,-0.704816,0.071157,-0.744911,0.000000,-0.744911,0.000000,-0.750000,-0.500000,-0.750000,-0.500000,0.750000,0.000000,0.750000,0.000000,0.744911,0.000000,0.744911,
$1*%
G04 Aperture macros list end*
%TA.AperFunction,ComponentPad*%
%ADD10R,1.700000X1.700000*%
%TD*%
%TA.AperFunction,ComponentPad*%
%ADD11O,1.700000X1.700000*%
%TD*%
%TA.AperFunction,SMDPad,CuDef*%
%ADD12FreePoly0,270.000000*%
%TD*%
%TA.AperFunction,SMDPad,CuDef*%
%ADD13FreePoly1,270.000000*%
%TD*%
%TA.AperFunction,SMDPad,CuDef*%
%ADD14R,1.000000X1.500000*%
%TD*%
%TA.AperFunction,ViaPad*%
%ADD15C,0.600000*%
%TD*%
%TA.AperFunction,ViaPad*%
%ADD16C,1.000000*%
%TD*%
%TA.AperFunction,Conductor*%
%ADD17C,0.200000*%
%TD*%
G04 APERTURE END LIST*
D10*
%TO.P,J1,1,Pin_1*%
%TO.N,Net-(J1-Pin_1)*%
X1580800Y39219200D03*
D11*
%TO.P,J1,2,Pin_2*%
%TO.N,Net-(J1-Pin_2)*%
X1580800Y36679200D03*
%TD*%
D10*
%TO.P,J2,1,Pin_1*%
%TO.N,Net-(J2-Pin_1)*%
X1625600Y30713600D03*
D11*
%TO.P,J2,2,Pin_2*%
%TO.N,Net-(J2-Pin_2)*%
X1625600Y28173600D03*
%TD*%
D12*
%TO.P,J6,1,Pin_1*%
%TO.N,GND*%
X9525000Y10505200D03*
D13*
%TO.P,J6,2,Pin_2*%
%TO.N,/BOOTSEL*%
X9525000Y9205200D03*
%TD*%
D14*
%TO.P,J5,1,Pin_1*%
%TO.N,/SWCLK*%
X4866400Y23241000D03*
%TO.P,J5,2,Pin_2*%
%TO.N,/SWD*%
X3566400Y23241000D03*
%TD*%
D15*
%TO.N,/LEDINDICATION*%
X10205800Y24469200D03*
X1630800Y32219200D03*
%TO.N,+3V3*%
X580800Y32219200D03*
%TO.N,GND*%
X2255800Y15914200D03*
%TO.N,+3V3*%
X2005800Y17544200D03*
%TO.N,/DRDY*%
X9955800Y31769200D03*
X7580800Y22894200D03*
%TO.N,+3V3*%
X10405800Y22244200D03*
%TO.N,GND*%
X5955800Y15794200D03*
%TO.N,/MAX2_CS*%
X7530800Y24094200D03*
%TO.N,/MOSI*%
X3805800Y29794200D03*
%TO.N,/DRDY2*%
X8580800Y25044200D03*
%TO.N,Net-(U1-ISENSOR)*%
X6430800Y41519200D03*
X9740035Y41015077D03*
%TO.N,+3V3*%
X10036099Y38201961D03*
%TO.N,/DRDY2*%
X10241819Y39179199D03*
%TO.N,/MOSI*%
X5068880Y35545416D03*
%TO.N,/SCLK*%
X5987579Y35545956D03*
%TO.N,/MAX2_CS*%
X6749862Y35841006D03*
%TO.N,/MISO*%
X8464569Y35825609D03*
%TO.N,GND*%
X8136431Y36729580D03*
X4955800Y40419200D03*
X6718300Y39119200D03*
%TO.N,Net-(J1-Pin_2)*%
X2580800Y41169200D03*
X3180800Y39069200D03*
%TO.N,+3V3*%
X9930800Y39919200D03*
%TO.N,GND*%
X9855800Y37419200D03*
%TO.N,/USB_D+*%
X5880800Y3169200D03*
%TO.N,/USB_D-*%
X4955800Y2444200D03*
%TO.N,/QSPI_SD3*%
X6345361Y16958033D03*
%TO.N,/QSPI_SCLK*%
X5855800Y13643824D03*
%TO.N,/QSPI_SDO*%
X5905800Y14544200D03*
%TO.N,/QSPI_SS*%
X8903240Y17041640D03*
%TO.N,/QSPI_SD1*%
X9305800Y16144200D03*
X7805800Y14619200D03*
%TO.N,/QSPI_SS*%
X7780800Y15619206D03*
%TO.N,/QSPI_SDO*%
X7605800Y19469200D03*
%TO.N,/QSPI_SCLK*%
X6805800Y19426598D03*
%TO.N,/QSPI_SD3*%
X5955798Y19426550D03*
%TO.N,/BATT SENSE *%
X2780800Y19344200D03*
X8577184Y8315025D03*
%TO.N,GND*%
X10200000Y7994200D03*
%TO.N,+3V3*%
X5415745Y17151600D03*
%TO.N,+1V1*%
X5866402Y23869200D03*
%TO.N,/MOSI*%
X800000Y23369200D03*
X5030800Y29319200D03*
%TO.N,/MAX_CS*%
X2755800Y20944200D03*
%TO.N,/MISO*%
X2274096Y26396811D03*
%TO.N,/SWD*%
X3680800Y24044200D03*
%TO.N,/SWCLK*%
X4866400Y23626602D03*
%TO.N,/SCLK*%
X800000Y24244203D03*
%TO.N,/MAX_CS*%
X5180800Y27958845D03*
%TO.N,/SCLK*%
X3551925Y28819037D03*
%TO.N,/MISO*%
X8809123Y28900535D03*
%TO.N,GND*%
X9555800Y14819200D03*
%TO.N,/USB_D+*%
X4490394Y15589088D03*
%TO.N,/USB_D-*%
X3705800Y15069200D03*
%TO.N,Net-(U3-BIAS)*%
X2816351Y34018280D03*
X7230800Y35069200D03*
%TO.N,GND*%
X10240781Y34644144D03*
%TO.N,+3V3*%
X9805800Y32894200D03*
%TO.N,GND*%
X8555800Y30056432D03*
X8082700Y29744200D03*
X6782700Y31623000D03*
X9855800Y20869200D03*
X9880600Y17399000D03*
X4819047Y21526600D03*
X10480800Y25719200D03*
%TO.N,+3V3*%
X9610063Y26213537D03*
%TO.N,GND*%
X6380248Y27574298D03*
X5105800Y27124600D03*
%TO.N,+3V3*%
X5208584Y25860239D03*
X3425343Y27678959D03*
%TO.N,GND*%
X800000Y20929600D03*
%TO.N,+3V3*%
X1019247Y22527792D03*
%TO.N,GND*%
X1244600Y18034000D03*
%TO.N,+3V3*%
X1118099Y18834138D03*
D16*
%TO.N,GND*%
X7416800Y3124200D03*
D15*
%TO.N,+3V3*%
X10380800Y5894200D03*
D16*
%TO.N,GND*%
X6930800Y9575800D03*
D15*
X8243600Y10744200D03*
X812800Y11988800D03*
X8003600Y7162800D03*
%TO.N,+3V3*%
X1244600Y10569000D03*
X9496061Y18898415D03*
D16*
X4927600Y9525000D03*
D15*
%TO.N,+1V1*%
X5264144Y19023068D03*
%TO.N,/BOOTSEL*%
X9926845Y8799116D03*
%TD*%
D17*
%TO.N,/SCLK*%
X5289335Y36244200D02*
X5987579Y35545956D01*
X3385875Y36244200D02*
X5289335Y36244200D01*
X1679943Y34538268D02*
X3385875Y36244200D01*
X2775600Y29595362D02*
X2775600Y32018639D01*
X2775600Y32018639D02*
X1679943Y33114296D01*
X1679943Y33114296D02*
X1679943Y34538268D01*
X3551925Y28819037D02*
X2775600Y29595362D01*
%TO.N,Net-(U3-BIAS)*%
X6098325Y33936725D02*
X7230800Y35069200D01*
%TO.N,/MOSI*%
X3293538Y35545416D02*
X5068880Y35545416D01*
X3805800Y29794200D02*
X3805800Y32067486D01*
%TO.N,Net-(U3-BIAS)*%
X2897906Y33936725D02*
X6098325Y33936725D01*
%TO.N,/MOSI*%
X2079943Y34331821D02*
X3293538Y35545416D01*
X2079943Y33793343D02*
X2079943Y34331821D01*
%TO.N,Net-(U3-BIAS)*%
X2816351Y34018280D02*
X2897906Y33936725D01*
%TO.N,/MOSI*%
X3805800Y32067486D02*
X2079943Y33793343D01*
%TO.N,/DRDY*%
X8130800Y23444200D02*
X7580800Y22894200D01*
X8130800Y24342729D02*
X8130800Y23444200D01*
X9955800Y31769200D02*
X9955800Y27994200D01*
%TO.N,/DRDY2*%
X8580800Y26053514D02*
X8580800Y25044200D01*
X9530800Y34484885D02*
X10605800Y33409885D01*
%TO.N,/DRDY*%
X7930800Y25969200D02*
X7930800Y24542729D01*
%TO.N,/DRDY2*%
X9480800Y36809886D02*
X9480800Y36409886D01*
X10164808Y39179199D02*
X9255800Y38270191D01*
X9505800Y36384886D02*
X9505800Y36334886D01*
X10241819Y39179199D02*
X10164808Y39179199D01*
%TO.N,/MAX2_CS*%
X7105800Y36196944D02*
X6749862Y35841006D01*
X7105800Y37719200D02*
X7105800Y36196944D01*
%TO.N,/DRDY2*%
X9480800Y36409886D02*
X9505800Y36384886D01*
%TO.N,/MAX2_CS*%
X8005800Y37719200D02*
X7105800Y37719200D01*
%TO.N,/DRDY2*%
X9255800Y38270191D02*
X9255800Y37034885D01*
%TO.N,/MAX2_CS*%
X9080800Y36644200D02*
X8005800Y37719200D01*
%TO.N,/DRDY2*%
X9255800Y37034885D02*
X9480800Y36809886D01*
%TO.N,/MAX2_CS*%
X9499061Y32231700D02*
X9080800Y32649961D01*
X9305800Y31499961D02*
X9305800Y32038439D01*
X9305800Y32038439D02*
X9499061Y32231700D01*
X7480800Y26709886D02*
X9555800Y28784886D01*
X7480800Y24144200D02*
X7480800Y26709886D01*
X7530800Y24094200D02*
X7480800Y24144200D01*
%TO.N,/DRDY2*%
X10605800Y28078514D02*
X8580800Y26053514D01*
%TO.N,/MAX2_CS*%
X9555800Y28784886D02*
X9555800Y31249961D01*
X9080800Y32649961D02*
X9080800Y36644200D01*
%TO.N,/DRDY2*%
X10605800Y33409885D02*
X10605800Y28078514D01*
%TO.N,/MISO*%
X8933375Y32231700D02*
X8905800Y32204125D01*
X8464569Y35825609D02*
X8464569Y32700506D01*
X8905800Y31334276D02*
X9155800Y31084275D01*
%TO.N,/DRDY2*%
X9505800Y36334886D02*
X9530800Y36309886D01*
%TO.N,/MISO*%
X7624465Y28900535D02*
X8809123Y28900535D01*
%TO.N,/DRDY*%
X7930800Y24542729D02*
X8130800Y24342729D01*
%TO.N,/MISO*%
X4455800Y29524961D02*
X4455800Y29994200D01*
X4068553Y28421167D02*
X4355800Y28708415D01*
X2274096Y26396811D02*
X2999096Y26396811D01*
X2999096Y26396811D02*
X4068553Y27466268D01*
X4068553Y27466268D02*
X4068553Y28421167D01*
X6530800Y29994200D02*
X7624465Y28900535D01*
X4355800Y28708415D02*
X4355800Y29424961D01*
X9155800Y29247212D02*
X8809123Y28900535D01*
%TO.N,/DRDY*%
X9955800Y27994200D02*
X7930800Y25969200D01*
%TO.N,/MISO*%
X8464569Y32700506D02*
X8933375Y32231700D01*
X4455800Y29994200D02*
X6530800Y29994200D01*
%TO.N,/MAX2_CS*%
X9555800Y31249961D02*
X9305800Y31499961D01*
%TO.N,/DRDY2*%
X9530800Y36309886D02*
X9530800Y34484885D01*
%TO.N,/MISO*%
X8905800Y32204125D02*
X8905800Y31334276D01*
X9155800Y31084275D02*
X9155800Y29247212D01*
X4355800Y29424961D02*
X4455800Y29524961D01*
%TO.N,+3V3*%
X9743300Y22244200D02*
X10405800Y22244200D01*
X8305800Y20806700D02*
X9743300Y22244200D01*
%TO.N,/USB_D+*%
X4360282Y15719200D02*
X4490394Y15589088D01*
X3436561Y15719200D02*
X4360282Y15719200D01*
X4830800Y3244200D02*
X3055800Y5019200D01*
X3055800Y5019200D02*
X3055800Y15338439D01*
X5805800Y3244200D02*
X4830800Y3244200D01*
X5880800Y3169200D02*
X5805800Y3244200D01*
X3055800Y15338439D02*
X3436561Y15719200D01*
%TO.N,/USB_D-*%
X3705800Y6413439D02*
X3705800Y15069200D01*
X6480800Y2569200D02*
X6480800Y3638439D01*
X6455800Y2544200D02*
X6480800Y2569200D01*
X6480800Y3638439D02*
X3705800Y6413439D01*
X5155800Y2544200D02*
X6455800Y2544200D01*
%TO.N,/QSPI_SDO*%
X6190724Y14544200D02*
X5905800Y14544200D01*
X7030800Y15384276D02*
X6190724Y14544200D01*
X7030800Y15778515D02*
X7030800Y15384276D01*
X7605800Y19469200D02*
X7605800Y16353515D01*
%TO.N,/QSPI_SCLK*%
X5255800Y14869568D02*
X5255800Y14243824D01*
%TO.N,/QSPI_SDO*%
X7605800Y16353515D02*
X7030800Y15778515D01*
%TO.N,/QSPI_SCLK*%
X6225039Y15144200D02*
X5530432Y15144200D01*
X6605800Y15524961D02*
X6225039Y15144200D01*
X6605800Y16088439D02*
X6605800Y15524961D01*
X6995361Y19237037D02*
X6995361Y16478000D01*
X6805800Y19426598D02*
X6995361Y19237037D01*
X6995361Y16478000D02*
X6605800Y16088439D01*
X5255800Y14243824D02*
X5855800Y13643824D01*
X5530432Y15144200D02*
X5255800Y14869568D01*
%TO.N,/BATT SENSE *%
X2780800Y18938016D02*
X2780800Y19344200D01*
X4855800Y15035254D02*
X5255800Y15435254D01*
X5255800Y16463016D02*
X2780800Y18938016D01*
X7643600Y10481400D02*
X7643600Y10612161D01*
X7643600Y10612161D02*
X4855800Y13399961D01*
X8455800Y9669200D02*
X7643600Y10481400D01*
X8577184Y8315025D02*
X8455800Y8436409D01*
X8455800Y8436409D02*
X8455800Y9669200D01*
X4855800Y13399961D02*
X4855800Y15035254D01*
X5255800Y15435254D02*
X5255800Y16463016D01*
%TO.N,/SCLK*%
X2775600Y27697254D02*
X2775600Y28042712D01*
X2101946Y27023600D02*
X2775600Y27697254D01*
X1541467Y26597786D02*
X1541467Y26722013D01*
X1843054Y27023600D02*
X2101946Y27023600D01*
%TO.N,/MOSI*%
X1735132Y24244200D02*
X1703307Y24212376D01*
X4468553Y26591267D02*
X2121486Y24244200D01*
%TO.N,/SCLK*%
X1434340Y26490660D02*
X1541467Y26597786D01*
X1930800Y24669200D02*
X1955800Y24644200D01*
X1594446Y24669200D02*
X1930800Y24669200D01*
%TO.N,/MOSI*%
X1643176Y24212376D02*
X800000Y23369200D01*
%TO.N,/SCLK*%
X999144Y24612376D02*
X1537622Y24612376D01*
%TO.N,/MOSI*%
X5030800Y28817729D02*
X4468553Y28255482D01*
%TO.N,/SCLK*%
X942320Y24669200D02*
X999144Y24612376D01*
X1537622Y24612376D02*
X1594446Y24669200D01*
X800000Y24669200D02*
X942320Y24669200D01*
%TO.N,/MOSI*%
X4468553Y28255482D02*
X4468553Y26591267D01*
X2121486Y24244200D02*
X1735132Y24244200D01*
X1703307Y24212376D02*
X1643176Y24212376D01*
%TO.N,/SCLK*%
X1434340Y26388038D02*
X1434340Y26490660D01*
%TO.N,/MOSI*%
X5030800Y29319200D02*
X5030800Y28817729D01*
%TO.N,/SCLK*%
X1955800Y25866578D02*
X1434340Y26388038D01*
%TO.N,/MAX_CS*%
X5755800Y26855361D02*
X5755800Y27383845D01*
X5375039Y26474600D02*
X5755800Y26855361D01*
X4917571Y26474600D02*
X5375039Y26474600D01*
X2705800Y24262829D02*
X4917571Y26474600D01*
X2705800Y20994200D02*
X2705800Y24262829D01*
%TO.N,/SCLK*%
X1541467Y26722013D02*
X1843054Y27023600D01*
%TO.N,/MAX_CS*%
X5755800Y27383845D02*
X5180800Y27958845D01*
%TO.N,/SCLK*%
X2775600Y28042712D02*
X3551925Y28819037D01*
%TO.N,/MAX_CS*%
X2755800Y20944200D02*
X2705800Y20994200D01*
%TO.N,/SCLK*%
X1955800Y24644200D02*
X1955800Y25866578D01*
X800000Y24244203D02*
X800000Y24669200D01*
%TO.N,Net-(U1-ISENSOR)*%
X7030800Y40919200D02*
X9644158Y40919200D01*
X9644158Y40919200D02*
X9740035Y41015077D01*
X6430800Y41519200D02*
X7030800Y40919200D01*
%TO.N,Net-(J1-Pin_2)*%
X3180800Y40569200D02*
X2580800Y41169200D01*
X3180800Y39069200D02*
X3180800Y40569200D01*
%TO.N,/QSPI_SD3*%
X6345361Y16958033D02*
X6345361Y19036987D01*
X6345361Y19036987D02*
X5955798Y19426550D01*
%TO.N,/QSPI_SS*%
X7780800Y15919200D02*
X7780800Y15619206D01*
X8903240Y17041640D02*
X7780800Y15919200D01*
%TO.N,/QSPI_SD1*%
X7805800Y14644200D02*
X7805800Y14619200D01*
X9305800Y16144200D02*
X7805800Y14644200D01*
%TO.N,GND*%
X9525000Y14788400D02*
X9555800Y14819200D01*
X9525000Y10505200D02*
X9525000Y14788400D01*
X8482600Y10505200D02*
X8243600Y10744200D01*
X812800Y12422900D02*
X1244600Y12854700D01*
X9525000Y10505200D02*
X8482600Y10505200D01*
X812800Y11988800D02*
X812800Y12422900D01*
%TD*%
%TA.AperFunction,Conductor*%
%TO.N,GND*%
G36*
X486503Y18333210D02*
G01*
X492981Y18327178D01*
X615837Y18204322D01*
X666281Y18172626D01*
X761101Y18113046D01*
X768577Y18108349D01*
X938844Y18048770D01*
X938849Y18048769D01*
X1118095Y18028573D01*
X1118099Y18028573D01*
X1118100Y18028573D01*
X1125481Y18029405D01*
X1139673Y18031004D01*
X1208495Y18018950D01*
X1259875Y17971602D01*
X1277500Y17903992D01*
X1270600Y17866830D01*
X1220432Y17723458D01*
X1220430Y17723450D01*
X1200235Y17544204D01*
X1200235Y17544197D01*
X1220430Y17364951D01*
X1220431Y17364946D01*
X1280011Y17194677D01*
X1375984Y17041938D01*
X1503538Y16914384D01*
X1656278Y16818411D01*
X1783146Y16774018D01*
X1826545Y16758832D01*
X1826550Y16758831D01*
X2005796Y16738635D01*
X2005800Y16738635D01*
X2005804Y16738635D01*
X2185049Y16758831D01*
X2185052Y16758832D01*
X2185055Y16758832D01*
X2355322Y16818411D01*
X2508062Y16914384D01*
X2635616Y17041938D01*
X2731589Y17194678D01*
X2791168Y17364945D01*
X2799295Y17437075D01*
X2811365Y17544197D01*
X2811365Y17544204D01*
X2791169Y17723450D01*
X2791166Y17723463D01*
X2779543Y17756680D01*
X2775981Y17826459D01*
X2810709Y17887086D01*
X2872703Y17919314D01*
X2942278Y17912909D01*
X2984264Y17885317D01*
X3648685Y17220895D01*
X4307888Y16561692D01*
X4341373Y16500369D01*
X4336389Y16430677D01*
X4294517Y16374744D01*
X4261162Y16356970D01*
X4174540Y16326659D01*
X4133585Y16319700D01*
X3357500Y16319700D01*
X3343138Y16315852D01*
X3343139Y16315851D01*
X3204775Y16278777D01*
X3204770Y16278774D01*
X3067851Y16199725D01*
X3067843Y16199719D01*
X2575281Y15707157D01*
X2575280Y15707155D01*
X2534057Y15635754D01*
X2496223Y15570224D01*
X2455299Y15417496D01*
X2455299Y15417494D01*
X2455299Y15249393D01*
X2455300Y15249380D01*
X2455300Y5105870D01*
X2455299Y5105852D01*
X2455299Y4940146D01*
X2455298Y4940146D01*
X2496223Y4787415D01*
X2525158Y4737300D01*
X2525159Y4737296D01*
X2525160Y4737296D01*
X2575279Y4650486D01*
X2575281Y4650483D01*
X2694149Y4531615D01*
X2694155Y4531610D01*
X4238047Y2987718D01*
X4271532Y2926395D01*
X4266548Y2856703D01*
X4255360Y2834066D01*
X4230009Y2793721D01*
X4170433Y2623463D01*
X4170430Y2623450D01*
X4150235Y2444204D01*
X4150235Y2444197D01*
X4170430Y2264951D01*
X4170431Y2264946D01*
X4230011Y2094677D01*
X4299163Y1984623D01*
X4325984Y1941938D01*
X4453538Y1814384D01*
X4606278Y1718411D01*
X4776545Y1658832D01*
X4776550Y1658831D01*
X4955796Y1638635D01*
X4955800Y1638635D01*
X4955804Y1638635D01*
X5135049Y1658831D01*
X5135052Y1658832D01*
X5135055Y1658832D01*
X5305322Y1718411D01*
X5458062Y1814384D01*
X5551060Y1907382D01*
X5612384Y1940866D01*
X5638741Y1943700D01*
X6369131Y1943700D01*
X6369147Y1943699D01*
X6376743Y1943699D01*
X6534854Y1943699D01*
X6534857Y1943699D01*
X6687585Y1984623D01*
X6737704Y2013561D01*
X6824516Y2063680D01*
X6936320Y2175484D01*
X6961320Y2200484D01*
X7040377Y2337416D01*
X7081300Y2490143D01*
X7081300Y3549379D01*
X7081301Y3549392D01*
X7081301Y3717495D01*
X7040376Y3870225D01*
X7040373Y3870230D01*
X6961324Y4007149D01*
X6961318Y4007157D01*
X4342619Y6625856D01*
X4309134Y6687179D01*
X4306300Y6713537D01*
X4306300Y8515756D01*
X4325985Y8582795D01*
X4378789Y8628550D01*
X4447947Y8638494D01*
X4488750Y8625116D01*
X4542873Y8596186D01*
X4731468Y8538976D01*
X4927600Y8519659D01*
X5123732Y8538976D01*
X5312327Y8596186D01*
X5366448Y8625114D01*
X5486132Y8689087D01*
X5486138Y8689090D01*
X5638483Y8814117D01*
X5763510Y8966462D01*
X5856414Y9140273D01*
X5913624Y9328868D01*
X5932941Y9525000D01*
X5913624Y9721132D01*
X5856414Y9909727D01*
X5856411Y9909731D01*
X5856411Y9909734D01*
X5763513Y10083533D01*
X5763509Y10083540D01*
X5638483Y10235884D01*
X5486139Y10360910D01*
X5486132Y10360914D01*
X5312333Y10453812D01*
X5312327Y10453814D01*
X5123732Y10511024D01*
X5123729Y10511025D01*
X4927600Y10530341D01*
X4731470Y10511025D01*
X4542866Y10453812D01*
X4488753Y10424887D01*
X4420350Y10410645D01*
X4355106Y10435645D01*
X4313736Y10491950D01*
X4306300Y10534245D01*
X4306300Y12800864D01*
X4325985Y12867903D01*
X4378789Y12913658D01*
X4447947Y12923602D01*
X4511503Y12894577D01*
X4517981Y12888545D01*
X7033849Y10372676D01*
X7065941Y10317093D01*
X7072630Y10292132D01*
X7084023Y10249614D01*
X7112958Y10199500D01*
X7112959Y10199496D01*
X7112960Y10199496D01*
X7150829Y10133903D01*
X7163079Y10112686D01*
X7163081Y10112683D01*
X7281949Y9993815D01*
X7281955Y9993810D01*
X7818981Y9456784D01*
X7852466Y9395461D01*
X7855300Y9369103D01*
X7855300Y8696777D01*
X7848342Y8655822D01*
X7791815Y8494280D01*
X7791814Y8494275D01*
X7771619Y8315029D01*
X7771619Y8315022D01*
X7791814Y8135776D01*
X7791815Y8135771D01*
X7851395Y7965502D01*
X7947368Y7812763D01*
X8074922Y7685209D01*
X8227662Y7589236D01*
X8397929Y7529657D01*
X8397934Y7529656D01*
X8577180Y7509460D01*
X8577184Y7509460D01*
X8577188Y7509460D01*
X8756433Y7529656D01*
X8756436Y7529657D01*
X8756439Y7529657D01*
X8926706Y7589236D01*
X9079446Y7685209D01*
X9207000Y7812763D01*
X9302973Y7965503D01*
X9312788Y7993551D01*
X9331994Y8048441D01*
X9372715Y8105218D01*
X9437668Y8130966D01*
X9506229Y8117510D01*
X9515008Y8112482D01*
X9577323Y8073327D01*
X9747590Y8013748D01*
X9747595Y8013747D01*
X9926841Y7993551D01*
X9926845Y7993551D01*
X9926849Y7993551D01*
X10106094Y8013747D01*
X10106097Y8013748D01*
X10106100Y8013748D01*
X10276367Y8073327D01*
X10429107Y8169300D01*
X10556661Y8296854D01*
X10556666Y8296864D01*
X10559350Y8300227D01*
X10616537Y8340370D01*
X10686349Y8343222D01*
X10746620Y8307879D01*
X10778215Y8245561D01*
X10780300Y8222918D01*
X10780300Y6777264D01*
X10760615Y6710225D01*
X10707811Y6664470D01*
X10638653Y6654526D01*
X10615347Y6660222D01*
X10560060Y6679567D01*
X10560049Y6679570D01*
X10380804Y6699765D01*
X10380796Y6699765D01*
X10201550Y6679570D01*
X10201545Y6679569D01*
X10031276Y6619989D01*
X9878537Y6524016D01*
X9750984Y6396463D01*
X9655011Y6243724D01*
X9595431Y6073455D01*
X9595430Y6073450D01*
X9575235Y5894204D01*
X9575235Y5894197D01*
X9595430Y5714951D01*
X9595431Y5714946D01*
X9655011Y5544677D01*
X9750984Y5391938D01*
X9878538Y5264384D01*
X10031278Y5168411D01*
X10201542Y5108833D01*
X10201545Y5108832D01*
X10201550Y5108831D01*
X10380796Y5088635D01*
X10380800Y5088635D01*
X10380804Y5088635D01*
X10560049Y5108831D01*
X10560050Y5108832D01*
X10560055Y5108832D01*
X10615345Y5128180D01*
X10685122Y5131742D01*
X10745750Y5097014D01*
X10777978Y5035021D01*
X10780300Y5011138D01*
X10780300Y118700D01*
X10760615Y51661D01*
X10707811Y5906D01*
X10656300Y-5300D01*
X405300Y-5300D01*
X338261Y14385D01*
X292506Y67189D01*
X281300Y118700D01*
X281300Y10169394D01*
X300985Y10236433D01*
X353789Y10282188D01*
X422947Y10292132D01*
X486503Y10263107D01*
X517020Y10223197D01*
X518811Y10219477D01*
X574751Y10130450D01*
X614784Y10066738D01*
X742338Y9939184D01*
X895078Y9843211D01*
X1065345Y9783632D01*
X1065350Y9783631D01*
X1244596Y9763435D01*
X1244600Y9763435D01*
X1244604Y9763435D01*
X1423849Y9783631D01*
X1423852Y9783632D01*
X1423855Y9783632D01*
X1594122Y9843211D01*
X1746862Y9939184D01*
X1874416Y10066738D01*
X1970389Y10219478D01*
X2029968Y10389745D01*
X2043633Y10511025D01*
X2050165Y10568997D01*
X2050165Y10569004D01*
X2029969Y10748250D01*
X2029968Y10748255D01*
X2020094Y10776472D01*
X1970389Y10918522D01*
X1938918Y10968607D01*
X1874415Y11071263D01*
X1746862Y11198816D01*
X1594123Y11294789D01*
X1423854Y11354369D01*
X1423849Y11354370D01*
X1244604Y11374565D01*
X1244596Y11374565D01*
X1065350Y11354370D01*
X1065345Y11354369D01*
X895076Y11294789D01*
X742337Y11198816D01*
X614784Y11071263D01*
X518810Y10918522D01*
X517018Y10914800D01*
X515222Y10912812D01*
X515106Y10912626D01*
X515073Y10912647D01*
X470193Y10862943D01*
X402765Y10844633D01*
X336142Y10865684D01*
X291476Y10919413D01*
X281300Y10968607D01*
X281300Y18239497D01*
X300985Y18306536D01*
X353789Y18352291D01*
X422947Y18362235D01*
X486503Y18333210D01*
G37*
%TD.AperFunction*%
%TA.AperFunction,Conductor*%
G36*
X10000973Y21550125D02*
G01*
X10023611Y21538936D01*
X10056273Y21518413D01*
X10056277Y21518412D01*
X10056278Y21518411D01*
X10139018Y21489459D01*
X10226545Y21458832D01*
X10226550Y21458831D01*
X10405796Y21438635D01*
X10405800Y21438635D01*
X10405804Y21438635D01*
X10585049Y21458831D01*
X10585051Y21458832D01*
X10585055Y21458832D01*
X10615342Y21469431D01*
X10685121Y21472994D01*
X10745749Y21438267D01*
X10777978Y21376274D01*
X10780300Y21352390D01*
X10780300Y10200942D01*
X10760615Y10133903D01*
X10707811Y10088148D01*
X10638653Y10078204D01*
X10575098Y10107229D01*
X10548299Y10130450D01*
X10548297Y10130452D01*
X10548294Y10130454D01*
X10540742Y10133903D01*
X10417419Y10190224D01*
X10417414Y10190225D01*
X10275000Y10210700D01*
X9810763Y10210700D01*
X9739236Y10210700D01*
X9310764Y10210700D01*
X9239237Y10210700D01*
X8814897Y10210700D01*
X8747858Y10230385D01*
X8727216Y10247019D01*
X8253350Y10720885D01*
X8221257Y10776471D01*
X8203177Y10843945D01*
X8190626Y10865684D01*
X8124124Y10980871D01*
X8124118Y10980879D01*
X6303994Y12801002D01*
X6270509Y12862325D01*
X6275493Y12932017D01*
X6317365Y12987950D01*
X6325683Y12993664D01*
X6358062Y13014008D01*
X6485616Y13141562D01*
X6581589Y13294302D01*
X6641168Y13464569D01*
X6661365Y13643824D01*
X6642232Y13813635D01*
X6641169Y13823074D01*
X6641166Y13823087D01*
X6583350Y13988315D01*
X6579788Y14058094D01*
X6612707Y14116948D01*
X6671244Y14175484D01*
X6671245Y14175487D01*
X6858927Y14363170D01*
X6920248Y14396653D01*
X6989940Y14391669D01*
X7045873Y14349797D01*
X7063648Y14316441D01*
X7080010Y14269679D01*
X7132783Y14185692D01*
X7175984Y14116938D01*
X7303538Y13989384D01*
X7456278Y13893411D01*
X7626545Y13833832D01*
X7626550Y13833831D01*
X7805796Y13813635D01*
X7805800Y13813635D01*
X7805804Y13813635D01*
X7985049Y13833831D01*
X7985052Y13833832D01*
X7985055Y13833832D01*
X8155322Y13893411D01*
X8308062Y13989384D01*
X8435616Y14116938D01*
X8531589Y14269678D01*
X8591168Y14439945D01*
X8604136Y14555044D01*
X8631202Y14619458D01*
X8639665Y14628832D01*
X9324335Y15313502D01*
X9385656Y15346985D01*
X9398111Y15349037D01*
X9485055Y15358832D01*
X9655322Y15418411D01*
X9808062Y15514384D01*
X9935616Y15641938D01*
X10031589Y15794678D01*
X10091168Y15964945D01*
X10091169Y15964951D01*
X10111365Y16144197D01*
X10111365Y16144204D01*
X10091169Y16323450D01*
X10091168Y16323455D01*
X10031588Y16493724D01*
X9935615Y16646463D01*
X9808062Y16774016D01*
X9808059Y16774018D01*
X9753178Y16808503D01*
X9706887Y16860838D01*
X9695931Y16927380D01*
X9708805Y17041638D01*
X9708805Y17041644D01*
X9688609Y17220890D01*
X9688608Y17220895D01*
X9629029Y17391162D01*
X9533056Y17543902D01*
X9405502Y17671456D01*
X9331439Y17717993D01*
X9252763Y17767429D01*
X9082494Y17827009D01*
X9082489Y17827010D01*
X8903244Y17847205D01*
X8903236Y17847205D01*
X8723990Y17827010D01*
X8723985Y17827009D01*
X8553716Y17767429D01*
X8396272Y17668499D01*
X8329035Y17649499D01*
X8262200Y17669867D01*
X8216986Y17723134D01*
X8206300Y17773493D01*
X8206300Y18886788D01*
X8209713Y18898412D01*
X8690496Y18898412D01*
X8710691Y18719166D01*
X8710692Y18719161D01*
X8770272Y18548892D01*
X8827701Y18457495D01*
X8866245Y18396153D01*
X8993799Y18268599D01*
X9042976Y18237699D01*
X9144326Y18174016D01*
X9146539Y18172626D01*
X9158548Y18168424D01*
X9316806Y18113047D01*
X9316811Y18113046D01*
X9496057Y18092850D01*
X9496061Y18092850D01*
X9496065Y18092850D01*
X9675310Y18113046D01*
X9675313Y18113047D01*
X9675316Y18113047D01*
X9845583Y18172626D01*
X9998323Y18268599D01*
X10125877Y18396153D01*
X10221850Y18548893D01*
X10281429Y18719160D01*
X10294384Y18834138D01*
X10301626Y18898412D01*
X10301626Y18898419D01*
X10281430Y19077665D01*
X10281429Y19077670D01*
X10221849Y19247939D01*
X10143524Y19372592D01*
X10125877Y19400677D01*
X9998323Y19528231D01*
X9947879Y19559927D01*
X9845584Y19624204D01*
X9675315Y19683784D01*
X9675310Y19683785D01*
X9496065Y19703980D01*
X9496057Y19703980D01*
X9316811Y19683785D01*
X9316806Y19683784D01*
X9146537Y19624204D01*
X8993798Y19528231D01*
X8866245Y19400678D01*
X8770272Y19247939D01*
X8710692Y19077670D01*
X8710691Y19077665D01*
X8690496Y18898419D01*
X8690496Y18898412D01*
X8209713Y18898412D01*
X8225985Y18953827D01*
X8233355Y18964103D01*
X8235610Y18966933D01*
X8235616Y18966938D01*
X8331589Y19119678D01*
X8391168Y19289945D01*
X8393159Y19307613D01*
X8411365Y19469197D01*
X8411365Y19469204D01*
X8391169Y19648450D01*
X8391168Y19648455D01*
X8335188Y19808436D01*
X8331589Y19818722D01*
X8235616Y19971462D01*
X8212560Y19994518D01*
X8179075Y20055841D01*
X8184059Y20125533D01*
X8225931Y20181466D01*
X8291395Y20205883D01*
X8300241Y20206199D01*
X8384854Y20206199D01*
X8384857Y20206199D01*
X8537585Y20247123D01*
X8674516Y20326181D01*
X9869958Y21521625D01*
X9931281Y21555109D01*
X10000973Y21550125D01*
G37*
%TD.AperFunction*%
%TA.AperFunction,Conductor*%
G36*
X9322609Y24551419D02*
G01*
X9378543Y24509548D01*
X9402496Y24449121D01*
X9420430Y24289950D01*
X9420431Y24289946D01*
X9480011Y24119677D01*
X9524763Y24048455D01*
X9575984Y23966938D01*
X9703538Y23839384D01*
X9791033Y23784407D01*
X9854261Y23744678D01*
X9856278Y23743411D01*
X10009075Y23689945D01*
X10026545Y23683832D01*
X10026550Y23683831D01*
X10205796Y23663635D01*
X10205800Y23663635D01*
X10205804Y23663635D01*
X10385049Y23683831D01*
X10385052Y23683832D01*
X10385055Y23683832D01*
X10555322Y23743411D01*
X10557339Y23744678D01*
X10590327Y23765406D01*
X10657564Y23784407D01*
X10724399Y23764040D01*
X10769613Y23710772D01*
X10780300Y23660413D01*
X10780300Y23136012D01*
X10760615Y23068973D01*
X10707811Y23023218D01*
X10638653Y23013274D01*
X10615348Y23018970D01*
X10585064Y23029566D01*
X10585049Y23029570D01*
X10405804Y23049765D01*
X10405796Y23049765D01*
X10226550Y23029570D01*
X10226545Y23029569D01*
X10056276Y22969989D01*
X9903537Y22874016D01*
X9900703Y22871755D01*
X9898524Y22870866D01*
X9897642Y22870311D01*
X9897544Y22870466D01*
X9836016Y22845346D01*
X9823389Y22844701D01*
X9822357Y22844701D01*
X9664243Y22844701D01*
X9556887Y22815935D01*
X9511510Y22803776D01*
X9511509Y22803775D01*
X9476366Y22783484D01*
X9476364Y22783483D01*
X9374590Y22724725D01*
X9374582Y22724719D01*
X9262778Y22612914D01*
X7825283Y21175419D01*
X7825281Y21175416D01*
X7746223Y21038486D01*
X7746223Y21038485D01*
X7705299Y20885757D01*
X7705299Y20885755D01*
X7705299Y20727646D01*
X7705298Y20727646D01*
X7746223Y20574913D01*
X7746224Y20574912D01*
X7818527Y20449681D01*
X7835000Y20381781D01*
X7812148Y20315754D01*
X7757227Y20272564D01*
X7697257Y20264461D01*
X7605804Y20274765D01*
X7605796Y20274765D01*
X7426550Y20254570D01*
X7426537Y20254567D01*
X7256280Y20194991D01*
X7227178Y20176705D01*
X7159941Y20157706D01*
X7120253Y20164659D01*
X6985062Y20211965D01*
X6985049Y20211968D01*
X6805804Y20232163D01*
X6805796Y20232163D01*
X6626550Y20211968D01*
X6626537Y20211965D01*
X6456278Y20152388D01*
X6446729Y20146388D01*
X6379491Y20127391D01*
X6314791Y20146389D01*
X6305323Y20152338D01*
X6305316Y20152341D01*
X6135060Y20211917D01*
X6135047Y20211920D01*
X5955802Y20232115D01*
X5955794Y20232115D01*
X5776548Y20211920D01*
X5776543Y20211919D01*
X5606274Y20152339D01*
X5453535Y20056366D01*
X5325984Y19928815D01*
X5325978Y19928808D01*
X5294719Y19879060D01*
X5242384Y19832770D01*
X5203611Y19821814D01*
X5084894Y19808438D01*
X4914622Y19748858D01*
X4761881Y19652884D01*
X4634328Y19525331D01*
X4538355Y19372592D01*
X4478775Y19202323D01*
X4478774Y19202318D01*
X4458579Y19023072D01*
X4458579Y19023065D01*
X4478774Y18843819D01*
X4478775Y18843814D01*
X4538355Y18673545D01*
X4550086Y18654876D01*
X4634328Y18520806D01*
X4761882Y18393252D01*
X4827071Y18352291D01*
X4899889Y18306536D01*
X4914622Y18297279D01*
X4996582Y18268600D01*
X5084889Y18237700D01*
X5084894Y18237699D01*
X5264140Y18217503D01*
X5264144Y18217503D01*
X5264148Y18217503D01*
X5443393Y18237699D01*
X5443395Y18237700D01*
X5443399Y18237700D01*
X5443402Y18237702D01*
X5443406Y18237702D01*
X5579906Y18285465D01*
X5649685Y18289027D01*
X5710312Y18254299D01*
X5742540Y18192305D01*
X5744861Y18168424D01*
X5744861Y18058255D01*
X5725176Y17991216D01*
X5672372Y17945461D01*
X5603214Y17935517D01*
X5596009Y17936855D01*
X5415749Y17957165D01*
X5415741Y17957165D01*
X5236495Y17936970D01*
X5236490Y17936969D01*
X5066221Y17877389D01*
X4919312Y17785079D01*
X4852075Y17766079D01*
X4785240Y17786447D01*
X4765664Y17802388D01*
X3578992Y18989059D01*
X3545508Y19050381D01*
X3549632Y19117691D01*
X3566168Y19164945D01*
X3570379Y19202318D01*
X3586365Y19344197D01*
X3586365Y19344204D01*
X3566169Y19523450D01*
X3566168Y19523455D01*
X3532558Y19619507D01*
X3506589Y19693722D01*
X3500143Y19703980D01*
X3410615Y19846463D01*
X3283062Y19974016D01*
X3166812Y20047061D01*
X3120521Y20099396D01*
X3109873Y20168450D01*
X3138248Y20232298D01*
X3166810Y20257047D01*
X3258062Y20314384D01*
X3385616Y20441938D01*
X3481589Y20594678D01*
X3541168Y20764945D01*
X3561365Y20944200D01*
X3541168Y21123455D01*
X3481589Y21293722D01*
X3385616Y21446462D01*
X3342619Y21489459D01*
X3309134Y21550782D01*
X3306300Y21577140D01*
X3306300Y21866501D01*
X3325985Y21933540D01*
X3378789Y21979295D01*
X3430300Y21990501D01*
X4114271Y21990501D01*
X4114272Y21990501D01*
X4173883Y21996909D01*
X4173885Y21996910D01*
X4173887Y21996910D01*
X4181431Y21998692D01*
X4181777Y21997225D01*
X4242742Y22001592D01*
X4257778Y21997178D01*
X4258913Y21996911D01*
X4258917Y21996909D01*
X4318527Y21990500D01*
X5414272Y21990501D01*
X5473883Y21996909D01*
X5608731Y22047204D01*
X5723946Y22133454D01*
X5810196Y22248669D01*
X5860491Y22383517D01*
X5866900Y22443127D01*
X5866899Y22952880D01*
X5886583Y23019918D01*
X5939387Y23065673D01*
X5977010Y23076098D01*
X6045657Y23083832D01*
X6215924Y23143411D01*
X6368664Y23239384D01*
X6496218Y23366938D01*
X6592191Y23519678D01*
X6633841Y23638708D01*
X6674563Y23695483D01*
X6739515Y23721231D01*
X6808077Y23707775D01*
X6855876Y23663725D01*
X6900979Y23591944D01*
X6900984Y23591938D01*
X6937196Y23555726D01*
X6970681Y23494403D01*
X6965697Y23424711D01*
X6954509Y23402073D01*
X6855011Y23243724D01*
X6795431Y23073455D01*
X6795430Y23073450D01*
X6775235Y22894204D01*
X6775235Y22894197D01*
X6795430Y22714951D01*
X6795431Y22714946D01*
X6855011Y22544677D01*
X6865621Y22527792D01*
X6950984Y22391938D01*
X7078538Y22264384D01*
X7103555Y22248665D01*
X7215587Y22178270D01*
X7231278Y22168411D01*
X7401545Y22108832D01*
X7401550Y22108831D01*
X7580796Y22088635D01*
X7580800Y22088635D01*
X7580804Y22088635D01*
X7760049Y22108831D01*
X7760052Y22108832D01*
X7760055Y22108832D01*
X7930322Y22168411D01*
X8083062Y22264384D01*
X8210616Y22391938D01*
X8306589Y22544678D01*
X8366168Y22714945D01*
X8375961Y22801871D01*
X8403026Y22866282D01*
X8411490Y22875657D01*
X8489306Y22953472D01*
X8489311Y22953476D01*
X8499514Y22963680D01*
X8499516Y22963680D01*
X8611320Y23075484D01*
X8690377Y23212416D01*
X8731300Y23365143D01*
X8731300Y24160788D01*
X8750985Y24227827D01*
X8803789Y24273582D01*
X8814331Y24277825D01*
X8930322Y24318411D01*
X9083062Y24414384D01*
X9191598Y24522921D01*
X9252917Y24556403D01*
X9322609Y24551419D01*
G37*
%TD.AperFunction*%
%TA.AperFunction,Conductor*%
G36*
X2048339Y23624015D02*
G01*
X2094094Y23571211D01*
X2105300Y23519700D01*
X2105300Y21449269D01*
X2086294Y21383297D01*
X2030011Y21293723D01*
X2030009Y21293719D01*
X1970433Y21123463D01*
X1970430Y21123450D01*
X1950235Y20944204D01*
X1950235Y20944197D01*
X1970430Y20764951D01*
X1970431Y20764946D01*
X2030011Y20594677D01*
X2121119Y20449681D01*
X2125984Y20441938D01*
X2253538Y20314384D01*
X2348735Y20254568D01*
X2369787Y20241340D01*
X2416078Y20189005D01*
X2426726Y20119952D01*
X2398351Y20056103D01*
X2369788Y20031353D01*
X2278539Y19974018D01*
X2150984Y19846463D01*
X2055011Y19693724D01*
X1995431Y19523455D01*
X1995430Y19523451D01*
X1979601Y19382961D01*
X1952534Y19318547D01*
X1894939Y19278992D01*
X1825102Y19276855D01*
X1765196Y19312813D01*
X1751385Y19330877D01*
X1747915Y19336400D01*
X1620361Y19463954D01*
X1467622Y19559927D01*
X1297353Y19619507D01*
X1297348Y19619508D01*
X1118103Y19639703D01*
X1118095Y19639703D01*
X938849Y19619508D01*
X938844Y19619507D01*
X768575Y19559927D01*
X615836Y19463954D01*
X492981Y19341098D01*
X431658Y19307613D01*
X361966Y19312597D01*
X306033Y19354469D01*
X281616Y19419933D01*
X281300Y19428779D01*
X281300Y21834299D01*
X300985Y21901338D01*
X353789Y21947093D01*
X422947Y21957037D01*
X486503Y21928012D01*
X492981Y21921980D01*
X516985Y21897976D01*
X669725Y21802003D01*
X839992Y21742424D01*
X839997Y21742423D01*
X1019243Y21722227D01*
X1019247Y21722227D01*
X1019251Y21722227D01*
X1198496Y21742423D01*
X1198499Y21742424D01*
X1198502Y21742424D01*
X1368769Y21802003D01*
X1521509Y21897976D01*
X1649063Y22025530D01*
X1745036Y22178270D01*
X1804615Y22348537D01*
X1808556Y22383514D01*
X1824812Y22527789D01*
X1824812Y22527796D01*
X1804616Y22707042D01*
X1804615Y22707047D01*
X1777869Y22783483D01*
X1745036Y22877314D01*
X1649063Y23030054D01*
X1615526Y23063591D01*
X1582041Y23124914D01*
X1585590Y23182754D01*
X1583819Y23183158D01*
X1585367Y23189941D01*
X1585367Y23189943D01*
X1585368Y23189945D01*
X1595161Y23276871D01*
X1622226Y23341282D01*
X1630680Y23350647D01*
X1887417Y23607384D01*
X1948739Y23640866D01*
X1975097Y23643700D01*
X1981300Y23643700D01*
X2048339Y23624015D01*
G37*
%TD.AperFunction*%
%TA.AperFunction,Conductor*%
G36*
X6297742Y29374015D02*
G01*
X6318384Y29357381D01*
X7139604Y28536161D01*
X7139614Y28536150D01*
X7143944Y28531820D01*
X7143945Y28531819D01*
X7255749Y28420015D01*
X7342560Y28369896D01*
X7342562Y28369894D01*
X7380616Y28347924D01*
X7392680Y28340958D01*
X7545408Y28300034D01*
X7545411Y28300034D01*
X7711118Y28300034D01*
X7711134Y28300035D01*
X7922352Y28300035D01*
X7989391Y28280350D01*
X8035146Y28227546D01*
X8045090Y28158388D01*
X8016065Y28094832D01*
X8010035Y28088357D01*
X7537312Y27615634D01*
X7112086Y27190408D01*
X7000282Y27078605D01*
X7000278Y27078599D01*
X6954648Y26999565D01*
X6921224Y26941674D01*
X6921223Y26941673D01*
X6905793Y26884086D01*
X6880299Y26788943D01*
X6880299Y26788941D01*
X6880299Y26620840D01*
X6880300Y26620827D01*
X6880300Y24599269D01*
X6861294Y24533297D01*
X6805011Y24443723D01*
X6805010Y24443721D01*
X6763359Y24324692D01*
X6722637Y24267917D01*
X6657684Y24242170D01*
X6589122Y24255627D01*
X6541324Y24299676D01*
X6529552Y24318411D01*
X6496218Y24371462D01*
X6368664Y24499016D01*
X6215925Y24594989D01*
X6045656Y24654569D01*
X6045651Y24654570D01*
X5866406Y24674765D01*
X5866398Y24674765D01*
X5687152Y24654570D01*
X5687147Y24654569D01*
X5516878Y24594989D01*
X5382426Y24510506D01*
X5316454Y24491500D01*
X4413683Y24491500D01*
X4346644Y24511185D01*
X4316165Y24541978D01*
X4314959Y24541016D01*
X4310615Y24546463D01*
X4183062Y24674016D01*
X4183059Y24674018D01*
X4181552Y24674965D01*
X4180786Y24675831D01*
X4177616Y24678359D01*
X4178058Y24678915D01*
X4135261Y24727300D01*
X4124614Y24796354D01*
X4152990Y24860202D01*
X4159834Y24867629D01*
X4526794Y25234590D01*
X4588117Y25268074D01*
X4657809Y25263090D01*
X4702156Y25234589D01*
X4706322Y25230423D01*
X4859062Y25134450D01*
X4960324Y25099017D01*
X5029329Y25074871D01*
X5029334Y25074870D01*
X5208580Y25054674D01*
X5208584Y25054674D01*
X5208588Y25054674D01*
X5387833Y25074870D01*
X5387836Y25074871D01*
X5387839Y25074871D01*
X5558106Y25134450D01*
X5710846Y25230423D01*
X5838400Y25357977D01*
X5934373Y25510717D01*
X5993952Y25680984D01*
X6014149Y25860239D01*
X5993952Y26039494D01*
X5966601Y26117656D01*
X5963039Y26187432D01*
X5995960Y26246288D01*
X6114306Y26364633D01*
X6114311Y26364637D01*
X6124514Y26374841D01*
X6124516Y26374841D01*
X6236320Y26486645D01*
X6315377Y26623577D01*
X6348269Y26746333D01*
X6356300Y26776303D01*
X6356300Y26934418D01*
X6356300Y27294785D01*
X6356301Y27294798D01*
X6356301Y27462900D01*
X6356301Y27462902D01*
X6315377Y27615630D01*
X6236320Y27752561D01*
X6011499Y27977381D01*
X5978015Y28038703D01*
X5975963Y28051159D01*
X5966168Y28138100D01*
X5906589Y28308367D01*
X5810616Y28461107D01*
X5683062Y28588661D01*
X5681843Y28589427D01*
X5681224Y28590126D01*
X5677616Y28593004D01*
X5678120Y28593637D01*
X5635553Y28641760D01*
X5624904Y28710814D01*
X5628043Y28726518D01*
X5631299Y28738670D01*
X5631300Y28738672D01*
X5631300Y28738678D01*
X5632361Y28746731D01*
X5634150Y28746496D01*
X5650985Y28803827D01*
X5658355Y28814103D01*
X5660610Y28816933D01*
X5660616Y28816938D01*
X5756589Y28969678D01*
X5816168Y29139945D01*
X5832352Y29283583D01*
X5859418Y29347997D01*
X5917013Y29387552D01*
X5955572Y29393700D01*
X6230703Y29393700D01*
X6297742Y29374015D01*
G37*
%TD.AperFunction*%
%TA.AperFunction,Conductor*%
G36*
X10699634Y27220600D02*
G01*
X10755567Y27178728D01*
X10779984Y27113264D01*
X10780300Y27104418D01*
X10780300Y25277988D01*
X10760615Y25210949D01*
X10707811Y25165194D01*
X10638653Y25155250D01*
X10590329Y25172994D01*
X10555325Y25194988D01*
X10385054Y25254569D01*
X10385049Y25254570D01*
X10205804Y25274765D01*
X10205796Y25274765D01*
X10032265Y25255214D01*
X9963443Y25267269D01*
X9919540Y25307728D01*
X9921422Y25300510D01*
X9899695Y25234104D01*
X9860859Y25200787D01*
X9862174Y25198694D01*
X9703539Y25099017D01*
X9595004Y24990482D01*
X9533681Y24956998D01*
X9463989Y24961982D01*
X9408056Y25003854D01*
X9384103Y25064281D01*
X9366169Y25223450D01*
X9366166Y25223463D01*
X9354122Y25257883D01*
X9350560Y25327662D01*
X9385288Y25388289D01*
X9447282Y25420517D01*
X9485045Y25422058D01*
X9533057Y25416649D01*
X9610060Y25407972D01*
X9610063Y25407972D01*
X9610067Y25407972D01*
X9783597Y25427524D01*
X9852418Y25415470D01*
X9896321Y25375010D01*
X9894440Y25382229D01*
X9916167Y25448634D01*
X9955015Y25481932D01*
X9953689Y25484043D01*
X9996140Y25510717D01*
X10112325Y25583721D01*
X10239879Y25711275D01*
X10335852Y25864015D01*
X10395431Y26034282D01*
X10395432Y26034288D01*
X10415628Y26213534D01*
X10415628Y26213541D01*
X10395432Y26392787D01*
X10395431Y26392792D01*
X10369431Y26467095D01*
X10335852Y26563059D01*
X10239879Y26715799D01*
X10239878Y26715800D01*
X10236174Y26721695D01*
X10238620Y26723233D01*
X10217098Y26775902D01*
X10229831Y26844602D01*
X10252764Y26876245D01*
X10568620Y27192100D01*
X10629942Y27225584D01*
X10699634Y27220600D01*
G37*
%TD.AperFunction*%
%TA.AperFunction,Conductor*%
G36*
X7808169Y34400966D02*
G01*
X7853383Y34347699D01*
X7864069Y34297340D01*
X7864069Y32787176D01*
X7864068Y32787158D01*
X7864068Y32621452D01*
X7864067Y32621452D01*
X7864068Y32621449D01*
X7904992Y32468721D01*
X7908012Y32463491D01*
X7908014Y32463483D01*
X7908016Y32463483D01*
X7984044Y32331797D01*
X7984050Y32331789D01*
X8095854Y32219985D01*
X8268981Y32046859D01*
X8302466Y31985536D01*
X8305300Y31959178D01*
X8305300Y31413335D01*
X8305299Y31255220D01*
X8336338Y31139384D01*
X8336337Y31139384D01*
X8346222Y31102495D01*
X8346225Y31102486D01*
X8425275Y30965567D01*
X8425281Y30965559D01*
X8518981Y30871859D01*
X8552466Y30810536D01*
X8555300Y30784178D01*
X8555300Y29747793D01*
X8535615Y29680754D01*
X8482811Y29634999D01*
X8472260Y29630754D01*
X8469040Y29629627D01*
X8459599Y29626324D01*
X8459598Y29626323D01*
X8306859Y29530350D01*
X8304026Y29528090D01*
X8301847Y29527201D01*
X8300965Y29526646D01*
X8300867Y29526801D01*
X8239340Y29501680D01*
X8226711Y29501035D01*
X7924562Y29501035D01*
X7857523Y29520720D01*
X7836881Y29537354D01*
X7018390Y30355845D01*
X7018388Y30355848D01*
X6899517Y30474719D01*
X6899516Y30474720D01*
X6812704Y30524840D01*
X6812704Y30524841D01*
X6812700Y30524842D01*
X6762585Y30553777D01*
X6609857Y30594701D01*
X6451743Y30594701D01*
X6444147Y30594701D01*
X6444131Y30594700D01*
X4530300Y30594700D01*
X4463261Y30614385D01*
X4417506Y30667189D01*
X4406300Y30718700D01*
X4406300Y32146543D01*
X4400440Y32168410D01*
X4400440Y32168411D01*
X4390977Y32203730D01*
X4365377Y32299270D01*
X4346598Y32331797D01*
X4286324Y32436196D01*
X4286321Y32436200D01*
X4286320Y32436202D01*
X4174516Y32548006D01*
X4174515Y32548007D01*
X4170185Y32552337D01*
X4170174Y32552347D01*
X3597977Y33124544D01*
X3564492Y33185867D01*
X3569476Y33255559D01*
X3611348Y33311492D01*
X3676812Y33335909D01*
X3685658Y33336225D01*
X6011656Y33336225D01*
X6011672Y33336224D01*
X6019268Y33336224D01*
X6177379Y33336224D01*
X6177382Y33336224D01*
X6330110Y33377148D01*
X6380229Y33406086D01*
X6467041Y33456205D01*
X6578845Y33568009D01*
X6578845Y33568011D01*
X6589053Y33578218D01*
X6589055Y33578221D01*
X7249335Y34238502D01*
X7310656Y34271985D01*
X7323111Y34274037D01*
X7410055Y34283832D01*
X7580322Y34343411D01*
X7674097Y34402335D01*
X7741333Y34421334D01*
X7808169Y34400966D01*
G37*
%TD.AperFunction*%
%TA.AperFunction,Conductor*%
G36*
X10699634Y37630904D02*
G01*
X10755567Y37589032D01*
X10779984Y37523568D01*
X10780300Y37514722D01*
X10780300Y34383983D01*
X10760615Y34316944D01*
X10707811Y34271189D01*
X10638653Y34261245D01*
X10575097Y34290270D01*
X10568619Y34296302D01*
X10167619Y34697302D01*
X10134134Y34758625D01*
X10131300Y34784983D01*
X10131300Y36388941D01*
X10131300Y36388943D01*
X10090377Y36541670D01*
X10090376Y36541672D01*
X10088273Y36549521D01*
X10088965Y36549707D01*
X10081300Y36588249D01*
X10081300Y36888944D01*
X10048759Y37010387D01*
X10048759Y37010389D01*
X10040378Y37041668D01*
X10040376Y37041673D01*
X9961324Y37178596D01*
X9961318Y37178604D01*
X9955207Y37184715D01*
X9921722Y37246038D01*
X9926706Y37315730D01*
X9968578Y37371663D01*
X10029325Y37394321D01*
X10029180Y37395616D01*
X10215348Y37416592D01*
X10215351Y37416593D01*
X10215354Y37416593D01*
X10385621Y37476172D01*
X10538361Y37572145D01*
X10568619Y37602403D01*
X10629942Y37635888D01*
X10699634Y37630904D01*
G37*
%TD.AperFunction*%
%TA.AperFunction,Conductor*%
G36*
X5641019Y41974015D02*
G01*
X5686774Y41921211D01*
X5696718Y41852053D01*
X5691022Y41828746D01*
X5645432Y41698458D01*
X5645430Y41698450D01*
X5625235Y41519204D01*
X5625235Y41519197D01*
X5645430Y41339951D01*
X5645431Y41339946D01*
X5705011Y41169677D01*
X5765729Y41073046D01*
X5800984Y41016938D01*
X5928538Y40889384D01*
X6081278Y40793411D01*
X6251545Y40733832D01*
X6338469Y40724039D01*
X6402880Y40696974D01*
X6412265Y40688500D01*
X6545939Y40554826D01*
X6545949Y40554815D01*
X6550279Y40550485D01*
X6550280Y40550484D01*
X6662084Y40438680D01*
X6717570Y40406646D01*
X6748895Y40388561D01*
X6748897Y40388559D01*
X6786951Y40366589D01*
X6799015Y40359623D01*
X6951743Y40318700D01*
X7109857Y40318700D01*
X9047737Y40318700D01*
X9114776Y40299015D01*
X9160531Y40246211D01*
X9170475Y40177053D01*
X9164778Y40153745D01*
X9145433Y40098463D01*
X9145430Y40098450D01*
X9125235Y39919204D01*
X9125235Y39919197D01*
X9145430Y39739951D01*
X9145431Y39739946D01*
X9205011Y39569677D01*
X9300984Y39416938D01*
X9339466Y39378456D01*
X9372951Y39317133D01*
X9367967Y39247441D01*
X9339466Y39203094D01*
X8887086Y38750713D01*
X8775281Y38638909D01*
X8775280Y38638907D01*
X8733729Y38566938D01*
X8696223Y38501976D01*
X8655299Y38349248D01*
X8655299Y38349246D01*
X8655299Y38218299D01*
X8635614Y38151260D01*
X8582810Y38105505D01*
X8513652Y38095561D01*
X8450096Y38124586D01*
X8443618Y38130618D01*
X8374517Y38199719D01*
X8374516Y38199720D01*
X8263812Y38263635D01*
X8263810Y38263636D01*
X8237585Y38278777D01*
X8237584Y38278778D01*
X8237583Y38278778D01*
X8181681Y38293757D01*
X8084857Y38319701D01*
X7926743Y38319701D01*
X7919147Y38319701D01*
X7919131Y38319700D01*
X7026743Y38319700D01*
X6874016Y38278777D01*
X6874009Y38278774D01*
X6737090Y38199725D01*
X6737082Y38199719D01*
X6625281Y38087918D01*
X6625275Y38087910D01*
X6546226Y37950991D01*
X6546223Y37950984D01*
X6505300Y37798257D01*
X6505300Y36691505D01*
X6485615Y36624466D01*
X6432811Y36578711D01*
X6422262Y36574467D01*
X6413236Y36571308D01*
X6400336Y36566794D01*
X6247599Y36470822D01*
X6167455Y36390677D01*
X6106132Y36357192D01*
X6036440Y36362176D01*
X5992093Y36390677D01*
X5776925Y36605845D01*
X5776923Y36605848D01*
X5658052Y36724719D01*
X5658051Y36724720D01*
X5564724Y36778602D01*
X5564723Y36778603D01*
X5521125Y36803775D01*
X5521124Y36803776D01*
X5508598Y36807133D01*
X5368392Y36844701D01*
X5210278Y36844701D01*
X5202682Y36844701D01*
X5202666Y36844700D01*
X3464932Y36844700D01*
X3306818Y36844700D01*
X3154090Y36803777D01*
X3154089Y36803777D01*
X3154087Y36803776D01*
X3154084Y36803775D01*
X3110487Y36778603D01*
X3110467Y36778591D01*
X3105092Y36775489D01*
X3037189Y36759028D01*
X2971166Y36781892D01*
X2927985Y36836821D01*
X2919584Y36872077D01*
X2915863Y36914608D01*
X2854703Y37142863D01*
X2754835Y37357029D01*
X2744588Y37371663D01*
X2619296Y37550600D01*
X2567493Y37602403D01*
X2497367Y37672529D01*
X2463884Y37733849D01*
X2468868Y37803541D01*
X2510739Y37859475D01*
X2541715Y37876390D01*
X2673131Y37925404D01*
X2788346Y38011654D01*
X2874596Y38126869D01*
X2902058Y38200498D01*
X2943928Y38256432D01*
X3009393Y38280850D01*
X3032123Y38280386D01*
X3180796Y38263635D01*
X3180800Y38263635D01*
X3180804Y38263635D01*
X3360049Y38283831D01*
X3360052Y38283832D01*
X3360055Y38283832D01*
X3530322Y38343411D01*
X3683062Y38439384D01*
X3810616Y38566938D01*
X3906589Y38719678D01*
X3966168Y38889945D01*
X3986365Y39069200D01*
X3966282Y39247441D01*
X3966169Y39248450D01*
X3966168Y39248455D01*
X3951360Y39290774D01*
X3906589Y39418722D01*
X3810616Y39571462D01*
X3810614Y39571464D01*
X3810613Y39571466D01*
X3808350Y39574304D01*
X3807459Y39576485D01*
X3806911Y39577358D01*
X3807064Y39577455D01*
X3781944Y39638991D01*
X3781300Y39651613D01*
X3781300Y40648255D01*
X3781300Y40648257D01*
X3758146Y40734670D01*
X3740377Y40800985D01*
X3711439Y40851105D01*
X3661320Y40937916D01*
X3549516Y41049720D01*
X3549515Y41049721D01*
X3545185Y41054051D01*
X3545174Y41054061D01*
X3411500Y41187735D01*
X3378015Y41249058D01*
X3375963Y41261514D01*
X3366168Y41348455D01*
X3306589Y41518722D01*
X3210616Y41671462D01*
X3100059Y41782019D01*
X3066574Y41843342D01*
X3071558Y41913034D01*
X3113430Y41968967D01*
X3178894Y41993384D01*
X3187740Y41993700D01*
X5573980Y41993700D01*
X5641019Y41974015D01*
G37*
%TD.AperFunction*%
%TA.AperFunction,Conductor*%
G36*
X7911503Y36963816D02*
G01*
X7917981Y36957784D01*
X8133645Y36742120D01*
X8167130Y36680797D01*
X8162146Y36611105D01*
X8120274Y36555172D01*
X8111937Y36549446D01*
X7962309Y36455427D01*
X7962306Y36455425D01*
X7917981Y36411099D01*
X7856658Y36377614D01*
X7786966Y36382598D01*
X7731033Y36424470D01*
X7706616Y36489934D01*
X7706300Y36498780D01*
X7706300Y36870103D01*
X7725985Y36937142D01*
X7778789Y36982897D01*
X7847947Y36992841D01*
X7911503Y36963816D01*
G37*
%TD.AperFunction*%
%TD*%
M02*
