%TF.GenerationSoftware,KiCad,Pcbnew,8.0.0*%
%TF.CreationDate,2025-08-14T01:21:05-07:00*%
%TF.ProjectId,it sure is getting hot in here,69742073-7572-4652-9069-732067657474,rev?*%
%TF.SameCoordinates,Original*%
%TF.FileFunction,Copper,L2,Inr*%
%TF.FilePolarity,Positive*%
%FSLAX46Y46*%
G04 Gerber Fmt 4.6, Leading zero omitted, Abs format (unit mm)*
G04 Created by KiCad (PCBNEW 8.0.0) date 2025-08-14 01:21:05*
%MOMM*%
%LPD*%
G01*
G04 APERTURE LIST*
%TA.AperFunction,ComponentPad*%
%ADD10R,1.700000X1.700000*%
%TD*%
%TA.AperFunction,ComponentPad*%
%ADD11O,1.700000X1.700000*%
%TD*%
%TA.AperFunction,ViaPad*%
%ADD12C,0.600000*%
%TD*%
%TA.AperFunction,ViaPad*%
%ADD13C,1.000000*%
%TD*%
G04 APERTURE END LIST*
D10*
%TO.N,Net-(J2-Pin_1)*%
%TO.C,J2*%
X1625600Y30713600D03*
D11*
%TO.N,Net-(J2-Pin_2)*%
X1625600Y28173600D03*
%TD*%
D10*
%TO.N,Net-(J1-Pin_1)*%
%TO.C,J1*%
X1580800Y39219200D03*
D11*
%TO.N,Net-(J1-Pin_2)*%
X1580800Y36679200D03*
%TD*%
D12*
%TO.N,/SCL*%
X9654819Y16642634D03*
%TO.N,+3V3*%
X10030800Y15834200D03*
%TO.N,GND*%
X1305800Y12144200D03*
%TO.N,/SDA*%
X1380800Y4894200D03*
X7605800Y1169200D03*
X10455800Y19469200D03*
%TO.N,/SCL*%
X9780607Y19926599D03*
%TO.N,GND*%
X5130800Y10869200D03*
%TO.N,+3V3*%
X5355798Y9869200D03*
%TO.N,GND*%
X4004928Y7614469D03*
X7830800Y4994200D03*
%TO.N,+3V3*%
X5661563Y8306839D03*
%TO.N,/QSPI_SDO*%
X5905800Y14544200D03*
X7605800Y19469200D03*
%TO.N,/QSPI_SCLK*%
X6805800Y19426598D03*
X5855800Y13643824D03*
%TO.N,/QSPI_SD3*%
X6345361Y16958033D03*
X5955798Y19426550D03*
D13*
%TO.N,GND*%
X7180800Y9644200D03*
D12*
X6380248Y27574298D03*
X10240781Y34644144D03*
X8555800Y30056432D03*
D13*
X7305800Y2713244D03*
D12*
X2775420Y15394580D03*
X9855800Y37419200D03*
X800000Y20929600D03*
X4696518Y21725689D03*
X9990876Y17452373D03*
X8136431Y36729580D03*
X8082700Y29744200D03*
X8243600Y10744200D03*
X6718300Y39119200D03*
X9661074Y20970735D03*
X1244600Y18034000D03*
X1380800Y6119200D03*
X9555800Y14819200D03*
X5105800Y27124600D03*
X7820000Y9215796D03*
X4955800Y40419200D03*
X9930000Y7994200D03*
X10480800Y25719200D03*
X5860842Y15794200D03*
X1380800Y7969200D03*
X6782700Y31623000D03*
%TO.N,+3V3*%
X1118099Y18834138D03*
X10452920Y5822080D03*
X684001Y32513600D03*
X10480800Y22344200D03*
X9930800Y39919200D03*
X9805800Y32894200D03*
X1019247Y22527792D03*
X5208584Y25860239D03*
X3425343Y27678959D03*
X10036099Y38201961D03*
X1380800Y10569000D03*
X9639250Y18533410D03*
D13*
X3830800Y9669200D03*
D12*
X2005800Y17544200D03*
X5415745Y17151600D03*
X9610063Y26213537D03*
%TO.N,+1V1*%
X5866402Y23869200D03*
X5264144Y19023068D03*
%TO.N,/BATT SENSE *%
X8577184Y8315025D03*
X3255800Y19269200D03*
%TO.N,/USB_D+*%
X4560842Y15686511D03*
X5880800Y3169200D03*
%TO.N,/USB_D-*%
X4955800Y2444200D03*
X4062769Y14997723D03*
%TO.N,/SWD*%
X3680800Y24044200D03*
%TO.N,/SWCLK*%
X4866400Y23626602D03*
%TO.N,/BOOTSEL*%
X9926845Y8799116D03*
%TO.N,/QSPI_SS*%
X8005800Y11694200D03*
X8632263Y16755547D03*
%TO.N,/LEDINDICATION*%
X1630800Y32219200D03*
X9680796Y23219200D03*
%TO.N,/MAX_CS*%
X5180800Y27958845D03*
X2788449Y20996976D03*
%TO.N,Net-(U3-ISENSOR)*%
X6430800Y41519200D03*
X9740035Y41015077D03*
%TO.N,/SCLK*%
X5987579Y35545956D03*
X1261995Y24627025D03*
X3551925Y28819037D03*
%TO.N,/DRDY*%
X7580800Y22894200D03*
X9955800Y31769200D03*
%TO.N,/QSPI_SD1*%
X8660147Y15770722D03*
X7805800Y14619200D03*
%TO.N,/MISO*%
X8809123Y28900535D03*
X8464569Y35825609D03*
X2334246Y26336661D03*
%TO.N,/MOSI*%
X1008865Y23741202D03*
X5068880Y35606700D03*
X3805800Y29794200D03*
X5030800Y29319200D03*
%TO.N,Net-(J1-Pin_2)*%
X3180800Y39069200D03*
X2580800Y41169200D03*
%TO.N,Net-(U1-BIAS)*%
X2816351Y34018280D03*
X7230800Y35069200D03*
%TO.N,/MAX2_CS*%
X7530800Y24094200D03*
X6749862Y35841006D03*
%TO.N,/DRDY2*%
X8580800Y25044200D03*
X10241819Y39179199D03*
%TD*%
%TA.AperFunction,Conductor*%
%TO.N,+3V3*%
G36*
X5641019Y41974015D02*
G01*
X5686774Y41921211D01*
X5696718Y41852053D01*
X5691022Y41828746D01*
X5645432Y41698458D01*
X5645430Y41698450D01*
X5625235Y41519204D01*
X5625235Y41519197D01*
X5645430Y41339951D01*
X5645431Y41339946D01*
X5705011Y41169677D01*
X5740992Y41112414D01*
X5759992Y41045177D01*
X5749847Y41011890D01*
X5769499Y41014511D01*
X5832755Y40984839D01*
X5838282Y40979640D01*
X5928538Y40889384D01*
X6081278Y40793411D01*
X6177699Y40759672D01*
X6251545Y40733832D01*
X6251550Y40733831D01*
X6430796Y40713635D01*
X6430800Y40713635D01*
X6430804Y40713635D01*
X6610049Y40733831D01*
X6610052Y40733832D01*
X6610055Y40733832D01*
X6780322Y40793411D01*
X6933062Y40889384D01*
X7060616Y41016938D01*
X7156589Y41169678D01*
X7216168Y41339945D01*
X7216169Y41339951D01*
X7236365Y41519197D01*
X7236365Y41519204D01*
X7216169Y41698450D01*
X7216167Y41698458D01*
X7170578Y41828746D01*
X7167017Y41898525D01*
X7201746Y41959152D01*
X7263739Y41991379D01*
X7287620Y41993700D01*
X9383258Y41993700D01*
X9450297Y41974015D01*
X9496052Y41921211D01*
X9505996Y41852053D01*
X9476971Y41788497D01*
X9424212Y41752658D01*
X9390513Y41740867D01*
X9237772Y41644893D01*
X9110219Y41517340D01*
X9014246Y41364601D01*
X8954666Y41194332D01*
X8954665Y41194327D01*
X8934470Y41015081D01*
X8934470Y41015074D01*
X8954665Y40835828D01*
X8954666Y40835823D01*
X9014246Y40665554D01*
X9110104Y40512998D01*
X9110219Y40512815D01*
X9237773Y40385261D01*
X9328115Y40328495D01*
X9355113Y40311531D01*
X9390513Y40289288D01*
X9531510Y40239951D01*
X9560780Y40229709D01*
X9560785Y40229708D01*
X9740031Y40209512D01*
X9740035Y40209512D01*
X9740039Y40209512D01*
X9919284Y40229708D01*
X9919287Y40229709D01*
X9919290Y40229709D01*
X10089557Y40289288D01*
X10242297Y40385261D01*
X10369851Y40512815D01*
X10465824Y40665555D01*
X10525403Y40835822D01*
X10531438Y40889384D01*
X10533080Y40903953D01*
X10560146Y40968367D01*
X10617741Y41007922D01*
X10687578Y41010060D01*
X10747484Y40974102D01*
X10778440Y40911464D01*
X10780300Y40890070D01*
X10780300Y40010619D01*
X10760615Y39943580D01*
X10707811Y39897825D01*
X10638653Y39887881D01*
X10598015Y39902802D01*
X10597614Y39901968D01*
X10591348Y39904986D01*
X10421073Y39964568D01*
X10421068Y39964569D01*
X10241823Y39984764D01*
X10241815Y39984764D01*
X10062569Y39964569D01*
X10062564Y39964568D01*
X9892295Y39904988D01*
X9739556Y39809015D01*
X9612003Y39681462D01*
X9516030Y39528723D01*
X9456450Y39358454D01*
X9456449Y39358449D01*
X9436254Y39179203D01*
X9436254Y39179196D01*
X9456449Y38999950D01*
X9456450Y38999945D01*
X9516030Y38829676D01*
X9612003Y38676937D01*
X9739557Y38549383D01*
X9892297Y38453410D01*
X9895248Y38451556D01*
X9941539Y38399221D01*
X9952187Y38330168D01*
X9923812Y38266319D01*
X9865422Y38227947D01*
X9843160Y38223342D01*
X9676549Y38204570D01*
X9676545Y38204569D01*
X9506276Y38144989D01*
X9353537Y38049016D01*
X9225984Y37921463D01*
X9130011Y37768724D01*
X9070431Y37598455D01*
X9070430Y37598450D01*
X9050235Y37419204D01*
X9050235Y37419197D01*
X9070430Y37239951D01*
X9070431Y37239946D01*
X9130011Y37069677D01*
X9144051Y37047333D01*
X9225984Y36916938D01*
X9353538Y36789384D01*
X9506278Y36693411D01*
X9546891Y36679200D01*
X9676545Y36633832D01*
X9676550Y36633831D01*
X9855796Y36613635D01*
X9855800Y36613635D01*
X9855804Y36613635D01*
X10035049Y36633831D01*
X10035052Y36633832D01*
X10035055Y36633832D01*
X10205322Y36693411D01*
X10358062Y36789384D01*
X10485616Y36916938D01*
X10551306Y37021484D01*
X10603641Y37067774D01*
X10672694Y37078422D01*
X10736543Y37050047D01*
X10774915Y36991657D01*
X10780300Y36955511D01*
X10780300Y35474912D01*
X10760615Y35407873D01*
X10707811Y35362118D01*
X10638653Y35352174D01*
X10596866Y35367517D01*
X10596576Y35366913D01*
X10590372Y35369901D01*
X10590333Y35369915D01*
X10590306Y35369932D01*
X10420035Y35429513D01*
X10420030Y35429514D01*
X10240785Y35449709D01*
X10240777Y35449709D01*
X10061531Y35429514D01*
X10061526Y35429513D01*
X9891257Y35369933D01*
X9738518Y35273960D01*
X9610965Y35146407D01*
X9514992Y34993668D01*
X9455412Y34823399D01*
X9455411Y34823394D01*
X9435216Y34644148D01*
X9435216Y34644141D01*
X9455411Y34464895D01*
X9455412Y34464890D01*
X9514992Y34294621D01*
X9521772Y34283831D01*
X9610965Y34141882D01*
X9738519Y34014328D01*
X9828861Y33957562D01*
X9891233Y33918371D01*
X9891259Y33918355D01*
X9895109Y33917008D01*
X10061526Y33858776D01*
X10061531Y33858775D01*
X10240777Y33838579D01*
X10240781Y33838579D01*
X10240785Y33838579D01*
X10420030Y33858775D01*
X10420033Y33858776D01*
X10420036Y33858776D01*
X10590303Y33918355D01*
X10590321Y33918366D01*
X10590337Y33918371D01*
X10596576Y33921375D01*
X10597102Y33920283D01*
X10657556Y33937371D01*
X10724393Y33917008D01*
X10769610Y33863743D01*
X10780300Y33813377D01*
X10780300Y32376140D01*
X10760615Y32309101D01*
X10707811Y32263346D01*
X10638653Y32253402D01*
X10575097Y32282427D01*
X10568619Y32288459D01*
X10458062Y32399016D01*
X10305323Y32494989D01*
X10135054Y32554569D01*
X10135049Y32554570D01*
X9955804Y32574765D01*
X9955796Y32574765D01*
X9776550Y32554570D01*
X9776545Y32554569D01*
X9606276Y32494989D01*
X9453537Y32399016D01*
X9325984Y32271463D01*
X9230011Y32118724D01*
X9170431Y31948455D01*
X9170430Y31948450D01*
X9150235Y31769204D01*
X9150235Y31769197D01*
X9170430Y31589951D01*
X9170431Y31589946D01*
X9230011Y31419677D01*
X9315624Y31283426D01*
X9325984Y31266938D01*
X9453538Y31139384D01*
X9606278Y31043411D01*
X9749816Y30993185D01*
X9776545Y30983832D01*
X9776550Y30983831D01*
X9955796Y30963635D01*
X9955800Y30963635D01*
X9955804Y30963635D01*
X10135049Y30983831D01*
X10135052Y30983832D01*
X10135055Y30983832D01*
X10305322Y31043411D01*
X10458062Y31139384D01*
X10568619Y31249941D01*
X10629942Y31283426D01*
X10699634Y31278442D01*
X10755567Y31236570D01*
X10779984Y31171106D01*
X10780300Y31162260D01*
X10780300Y26629776D01*
X10760615Y26562737D01*
X10707811Y26516982D01*
X10642417Y26506556D01*
X10480804Y26524765D01*
X10480796Y26524765D01*
X10301550Y26504570D01*
X10301545Y26504569D01*
X10131276Y26444989D01*
X9978537Y26349016D01*
X9850984Y26221463D01*
X9755011Y26068724D01*
X9695431Y25898455D01*
X9695430Y25898450D01*
X9675235Y25719204D01*
X9675235Y25719197D01*
X9695430Y25539951D01*
X9695431Y25539946D01*
X9755011Y25369677D01*
X9765607Y25352814D01*
X9850984Y25216938D01*
X9978538Y25089384D01*
X10131278Y24993411D01*
X10292703Y24936926D01*
X10301545Y24933832D01*
X10301550Y24933831D01*
X10480796Y24913635D01*
X10480800Y24913635D01*
X10480804Y24913635D01*
X10642417Y24931844D01*
X10711239Y24919789D01*
X10762618Y24872440D01*
X10780300Y24808624D01*
X10780300Y20376909D01*
X10760615Y20309870D01*
X10707811Y20264115D01*
X10642073Y20254663D01*
X10641975Y20253789D01*
X10570507Y20261842D01*
X10506093Y20288909D01*
X10479397Y20319090D01*
X10410422Y20428862D01*
X10391652Y20447632D01*
X10358167Y20508955D01*
X10363151Y20578647D01*
X10374333Y20601273D01*
X10386863Y20621213D01*
X10432049Y20750346D01*
X10446440Y20791473D01*
X10446443Y20791486D01*
X10466639Y20970732D01*
X10466639Y20970739D01*
X10446443Y21149985D01*
X10446442Y21149990D01*
X10386862Y21320259D01*
X10290889Y21472998D01*
X10163336Y21600551D01*
X10010597Y21696524D01*
X9840328Y21756104D01*
X9840323Y21756105D01*
X9661078Y21776300D01*
X9661070Y21776300D01*
X9481824Y21756105D01*
X9481819Y21756104D01*
X9311550Y21696524D01*
X9158811Y21600551D01*
X9031258Y21472998D01*
X8935285Y21320259D01*
X8875705Y21149990D01*
X8875704Y21149985D01*
X8855509Y20970739D01*
X8855509Y20970732D01*
X8875704Y20791486D01*
X8875705Y20791481D01*
X8935285Y20621212D01*
X9031258Y20468473D01*
X9050027Y20449704D01*
X9083512Y20388381D01*
X9078528Y20318689D01*
X9067341Y20296053D01*
X9054819Y20276125D01*
X9054816Y20276118D01*
X8995240Y20105862D01*
X8995237Y20105849D01*
X8975042Y19926603D01*
X8975042Y19926596D01*
X8995237Y19747350D01*
X8995238Y19747345D01*
X9054818Y19577076D01*
X9135637Y19448455D01*
X9150791Y19424337D01*
X9278345Y19296783D01*
X9431085Y19200810D01*
X9601352Y19141231D01*
X9665899Y19133959D01*
X9730311Y19106894D01*
X9757008Y19076712D01*
X9825984Y18966938D01*
X9953538Y18839384D01*
X10043880Y18782618D01*
X10080212Y18759789D01*
X10106278Y18743411D01*
X10228022Y18700811D01*
X10276545Y18683832D01*
X10276550Y18683831D01*
X10455796Y18663635D01*
X10455800Y18663635D01*
X10455804Y18663635D01*
X10641976Y18684611D01*
X10642322Y18681534D01*
X10698360Y18678141D01*
X10754748Y18636884D01*
X10779880Y18571691D01*
X10780300Y18561492D01*
X10780300Y18094389D01*
X10760615Y18027350D01*
X10707811Y17981595D01*
X10638653Y17971651D01*
X10575097Y18000676D01*
X10568619Y18006708D01*
X10493138Y18082189D01*
X10340399Y18178162D01*
X10170130Y18237742D01*
X10170125Y18237743D01*
X9990880Y18257938D01*
X9990872Y18257938D01*
X9811626Y18237743D01*
X9811621Y18237742D01*
X9641352Y18178162D01*
X9488613Y18082189D01*
X9361060Y17954636D01*
X9265087Y17801897D01*
X9205507Y17631628D01*
X9205506Y17631624D01*
X9196997Y17556097D01*
X9169930Y17491683D01*
X9112335Y17452128D01*
X9042498Y17449991D01*
X9007805Y17464987D01*
X8981786Y17481336D01*
X8811517Y17540916D01*
X8811512Y17540917D01*
X8632267Y17561112D01*
X8632259Y17561112D01*
X8453013Y17540917D01*
X8453008Y17540916D01*
X8282739Y17481336D01*
X8130000Y17385363D01*
X8002447Y17257810D01*
X7906474Y17105071D01*
X7846894Y16934802D01*
X7846893Y16934797D01*
X7826698Y16755551D01*
X7826698Y16755544D01*
X7846893Y16576298D01*
X7846894Y16576293D01*
X7906474Y16406023D01*
X7968746Y16306920D01*
X7987747Y16239683D01*
X7968748Y16174976D01*
X7934355Y16120240D01*
X7874780Y15949985D01*
X7874777Y15949972D01*
X7854582Y15770726D01*
X7854582Y15770719D01*
X7874777Y15591473D01*
X7874779Y15591467D01*
X7876925Y15585334D01*
X7880488Y15515555D01*
X7845760Y15454927D01*
X7783767Y15422699D01*
X7773768Y15421157D01*
X7626549Y15404570D01*
X7626545Y15404569D01*
X7456276Y15344989D01*
X7303537Y15249016D01*
X7175984Y15121463D01*
X7080011Y14968724D01*
X7020431Y14798455D01*
X7020430Y14798450D01*
X7000235Y14619204D01*
X7000235Y14619197D01*
X7020430Y14439951D01*
X7020431Y14439946D01*
X7080011Y14269677D01*
X7165389Y14133800D01*
X7175984Y14116938D01*
X7303538Y13989384D01*
X7456278Y13893411D01*
X7626545Y13833832D01*
X7626550Y13833831D01*
X7805796Y13813635D01*
X7805800Y13813635D01*
X7805804Y13813635D01*
X7985049Y13833831D01*
X7985052Y13833832D01*
X7985055Y13833832D01*
X8155322Y13893411D01*
X8308062Y13989384D01*
X8435616Y14116938D01*
X8531589Y14269678D01*
X8591168Y14439945D01*
X8591169Y14439951D01*
X8592717Y14446732D01*
X8594204Y14446393D01*
X8618106Y14503292D01*
X8675696Y14542854D01*
X8745533Y14545000D01*
X8805444Y14509049D01*
X8825691Y14475329D01*
X8826988Y14475953D01*
X8830007Y14469684D01*
X8925984Y14316938D01*
X9053538Y14189384D01*
X9206278Y14093411D01*
X9314590Y14055511D01*
X9376545Y14033832D01*
X9376550Y14033831D01*
X9555796Y14013635D01*
X9555800Y14013635D01*
X9555804Y14013635D01*
X9735049Y14033831D01*
X9735052Y14033832D01*
X9735055Y14033832D01*
X9905322Y14093411D01*
X10058062Y14189384D01*
X10185616Y14316938D01*
X10281589Y14469678D01*
X10341168Y14639945D01*
X10341169Y14639951D01*
X10361365Y14819197D01*
X10361365Y14819204D01*
X10341169Y14998450D01*
X10341168Y14998455D01*
X10337741Y15008249D01*
X10281589Y15168722D01*
X10185616Y15321462D01*
X10058062Y15449016D01*
X10048655Y15454927D01*
X9905323Y15544989D01*
X9728482Y15606868D01*
X9729176Y15608853D01*
X9677081Y15637996D01*
X9644227Y15699659D01*
X9649926Y15769296D01*
X9692369Y15824797D01*
X9751774Y15847993D01*
X9834069Y15857265D01*
X9834072Y15857266D01*
X9834074Y15857266D01*
X10004341Y15916845D01*
X10157081Y16012818D01*
X10284635Y16140372D01*
X10380608Y16293112D01*
X10440187Y16463379D01*
X10441145Y16471881D01*
X10460384Y16642631D01*
X10460384Y16642635D01*
X10456125Y16680434D01*
X10452156Y16715655D01*
X10464210Y16784475D01*
X10489732Y16816113D01*
X10488213Y16817632D01*
X10493138Y16822557D01*
X10568620Y16898040D01*
X10629941Y16931523D01*
X10699633Y16926539D01*
X10755567Y16884668D01*
X10779984Y16819204D01*
X10780300Y16810357D01*
X10780300Y9375315D01*
X10760615Y9308276D01*
X10707811Y9262521D01*
X10638653Y9252577D01*
X10575097Y9281602D01*
X10559354Y9298000D01*
X10556664Y9301373D01*
X10556661Y9301378D01*
X10429107Y9428932D01*
X10398652Y9448068D01*
X10276368Y9524905D01*
X10106099Y9584485D01*
X10106094Y9584486D01*
X9926849Y9604681D01*
X9926841Y9604681D01*
X9747595Y9584486D01*
X9747590Y9584485D01*
X9577321Y9524905D01*
X9424582Y9428932D01*
X9297029Y9301379D01*
X9201054Y9148636D01*
X9172033Y9065699D01*
X9131311Y9008923D01*
X9066359Y8983176D01*
X8997797Y8996632D01*
X8989020Y9001660D01*
X8926706Y9040815D01*
X8756433Y9100395D01*
X8735315Y9102774D01*
X8670901Y9129841D01*
X8631347Y9187437D01*
X8625980Y9212111D01*
X8620644Y9259467D01*
X8605368Y9395051D01*
X8545789Y9565318D01*
X8449816Y9718058D01*
X8404009Y9763865D01*
X8370524Y9825188D01*
X8375508Y9894880D01*
X8417380Y9950813D01*
X8450736Y9968588D01*
X8593122Y10018411D01*
X8745862Y10114384D01*
X8873416Y10241938D01*
X8969389Y10394678D01*
X9028968Y10564945D01*
X9029877Y10573014D01*
X9049165Y10744197D01*
X9049165Y10744204D01*
X9028969Y10923450D01*
X9028968Y10923455D01*
X8985230Y11048450D01*
X8969389Y11093722D01*
X8873416Y11246462D01*
X8797986Y11321892D01*
X8764501Y11383215D01*
X8768625Y11450523D01*
X8791168Y11514945D01*
X8806900Y11654570D01*
X8811365Y11694197D01*
X8811365Y11694204D01*
X8791169Y11873450D01*
X8791168Y11873455D01*
X8742603Y12012245D01*
X8731589Y12043722D01*
X8635616Y12196462D01*
X8508062Y12324016D01*
X8500267Y12328914D01*
X8355323Y12419989D01*
X8185054Y12479569D01*
X8185049Y12479570D01*
X8005804Y12499765D01*
X8005796Y12499765D01*
X7826550Y12479570D01*
X7826545Y12479569D01*
X7656276Y12419989D01*
X7503537Y12324016D01*
X7375984Y12196463D01*
X7280011Y12043724D01*
X7220431Y11873455D01*
X7220430Y11873450D01*
X7200235Y11694204D01*
X7200235Y11694197D01*
X7220430Y11514951D01*
X7220431Y11514946D01*
X7280011Y11344677D01*
X7294328Y11321892D01*
X7375984Y11191938D01*
X7451412Y11116510D01*
X7484896Y11055186D01*
X7480772Y10987877D01*
X7458232Y10923458D01*
X7458231Y10923454D01*
X7438353Y10747028D01*
X7411287Y10682614D01*
X7353692Y10643058D01*
X7302979Y10637508D01*
X7180800Y10649541D01*
X6984670Y10630225D01*
X6796066Y10573012D01*
X6622267Y10480114D01*
X6622260Y10480110D01*
X6469916Y10355084D01*
X6344890Y10202740D01*
X6344886Y10202733D01*
X6251988Y10028934D01*
X6194775Y9840330D01*
X6175459Y9644200D01*
X6194775Y9448071D01*
X6194776Y9448068D01*
X6251061Y9262521D01*
X6251988Y9259467D01*
X6344886Y9085668D01*
X6344890Y9085661D01*
X6469916Y8933317D01*
X6622260Y8808291D01*
X6622267Y8808287D01*
X6796066Y8715389D01*
X6796069Y8715389D01*
X6796073Y8715386D01*
X6984668Y8658176D01*
X7180800Y8638859D01*
X7198957Y8640648D01*
X7267600Y8627631D01*
X7298792Y8604926D01*
X7317738Y8585980D01*
X7470478Y8490007D01*
X7640745Y8430428D01*
X7661866Y8428049D01*
X7726279Y8400983D01*
X7765835Y8343389D01*
X7771203Y8318711D01*
X7791814Y8135776D01*
X7791815Y8135771D01*
X7851395Y7965502D01*
X7945997Y7814945D01*
X7947368Y7812763D01*
X8074922Y7685209D01*
X8139427Y7644678D01*
X8187497Y7614473D01*
X8227662Y7589236D01*
X8384523Y7534348D01*
X8397929Y7529657D01*
X8397934Y7529656D01*
X8577180Y7509460D01*
X8577184Y7509460D01*
X8577188Y7509460D01*
X8756433Y7529656D01*
X8756436Y7529657D01*
X8756439Y7529657D01*
X8926706Y7589236D01*
X9045644Y7663970D01*
X9112877Y7682970D01*
X9179713Y7662603D01*
X9216608Y7624948D01*
X9273536Y7534348D01*
X9300184Y7491938D01*
X9427738Y7364384D01*
X9580478Y7268411D01*
X9651924Y7243411D01*
X9750745Y7208832D01*
X9750750Y7208831D01*
X9929996Y7188635D01*
X9930000Y7188635D01*
X9930004Y7188635D01*
X10109249Y7208831D01*
X10109252Y7208832D01*
X10109255Y7208832D01*
X10279522Y7268411D01*
X10432262Y7364384D01*
X10559816Y7491938D01*
X10559816Y7491939D01*
X10564740Y7496862D01*
X10565752Y7495850D01*
X10616543Y7531499D01*
X10686354Y7534348D01*
X10746624Y7499002D01*
X10778216Y7436682D01*
X10780300Y7414045D01*
X10780300Y118700D01*
X10760615Y51661D01*
X10707811Y5906D01*
X10656300Y-5300D01*
X405300Y-5300D01*
X338261Y14385D01*
X292506Y67189D01*
X281300Y118700D01*
X281300Y2444197D01*
X4150235Y2444197D01*
X4170430Y2264951D01*
X4170431Y2264946D01*
X4230011Y2094677D01*
X4319285Y1952599D01*
X4325984Y1941938D01*
X4453538Y1814384D01*
X4606278Y1718411D01*
X4717019Y1679661D01*
X4776545Y1658832D01*
X4776550Y1658831D01*
X4955796Y1638635D01*
X4955800Y1638635D01*
X4955804Y1638635D01*
X5135049Y1658831D01*
X5135052Y1658832D01*
X5135055Y1658832D01*
X5305322Y1718411D01*
X5458062Y1814384D01*
X5585616Y1941938D01*
X5681589Y2094678D01*
X5741168Y2264945D01*
X5741168Y2264952D01*
X5741969Y2268456D01*
X5743111Y2270499D01*
X5743468Y2271518D01*
X5743646Y2271456D01*
X5776074Y2329437D01*
X5837733Y2362299D01*
X5876746Y2364092D01*
X5880800Y2363635D01*
X5993552Y2376340D01*
X6060049Y2383831D01*
X6060052Y2383832D01*
X6060055Y2383832D01*
X6209331Y2436067D01*
X6279110Y2439627D01*
X6339738Y2404898D01*
X6368946Y2355020D01*
X6376986Y2328516D01*
X6469886Y2154712D01*
X6469890Y2154705D01*
X6594916Y2002361D01*
X6747260Y1877335D01*
X6747267Y1877331D01*
X6898005Y1796760D01*
X6947849Y1747798D01*
X6963310Y1679661D01*
X6944546Y1621430D01*
X6880011Y1518724D01*
X6820431Y1348455D01*
X6820430Y1348450D01*
X6800235Y1169204D01*
X6800235Y1169197D01*
X6820430Y989951D01*
X6820431Y989946D01*
X6880011Y819677D01*
X6975984Y666938D01*
X7103538Y539384D01*
X7256278Y443411D01*
X7426545Y383832D01*
X7426550Y383831D01*
X7605796Y363635D01*
X7605800Y363635D01*
X7605804Y363635D01*
X7785049Y383831D01*
X7785052Y383832D01*
X7785055Y383832D01*
X7955322Y443411D01*
X8108062Y539384D01*
X8235616Y666938D01*
X8331589Y819678D01*
X8391168Y989945D01*
X8411365Y1169200D01*
X8391168Y1348455D01*
X8331589Y1518722D01*
X8235616Y1671462D01*
X8108062Y1799016D01*
X8108059Y1799018D01*
X8056827Y1831210D01*
X8010536Y1883545D01*
X7999889Y1952599D01*
X8026947Y2014868D01*
X8141709Y2154705D01*
X8141713Y2154712D01*
X8234611Y2328511D01*
X8234613Y2328516D01*
X8234614Y2328517D01*
X8291824Y2517112D01*
X8311141Y2713244D01*
X8291824Y2909376D01*
X8234614Y3097971D01*
X8234611Y3097975D01*
X8234611Y3097978D01*
X8141713Y3271777D01*
X8141709Y3271784D01*
X8016683Y3424128D01*
X7864339Y3549154D01*
X7864332Y3549158D01*
X7690533Y3642056D01*
X7690527Y3642058D01*
X7501932Y3699268D01*
X7501929Y3699269D01*
X7305800Y3718585D01*
X7109670Y3699269D01*
X6921066Y3642056D01*
X6747267Y3549158D01*
X6742199Y3545771D01*
X6740868Y3547762D01*
X6686278Y3524593D01*
X6617414Y3536402D01*
X6566960Y3581791D01*
X6510615Y3671463D01*
X6383062Y3799016D01*
X6230323Y3894989D01*
X6060054Y3954569D01*
X6060049Y3954570D01*
X5880804Y3974765D01*
X5880796Y3974765D01*
X5701550Y3954570D01*
X5701545Y3954569D01*
X5531276Y3894989D01*
X5378537Y3799016D01*
X5250984Y3671463D01*
X5155010Y3518722D01*
X5095430Y3348449D01*
X5094625Y3344922D01*
X5093480Y3342878D01*
X5093133Y3341883D01*
X5092958Y3341944D01*
X5060509Y3283948D01*
X4998844Y3251097D01*
X4959859Y3249308D01*
X4955801Y3249765D01*
X4955796Y3249765D01*
X4776550Y3229570D01*
X4776545Y3229569D01*
X4606276Y3169989D01*
X4453537Y3074016D01*
X4325984Y2946463D01*
X4230011Y2793724D01*
X4170431Y2623455D01*
X4170430Y2623450D01*
X4150235Y2444204D01*
X4150235Y2444197D01*
X281300Y2444197D01*
X281300Y4894197D01*
X575235Y4894197D01*
X595430Y4714951D01*
X595431Y4714946D01*
X655011Y4544677D01*
X750984Y4391938D01*
X878538Y4264384D01*
X1031278Y4168411D01*
X1201545Y4108832D01*
X1201550Y4108831D01*
X1380796Y4088635D01*
X1380800Y4088635D01*
X1380804Y4088635D01*
X1560049Y4108831D01*
X1560052Y4108832D01*
X1560055Y4108832D01*
X1730322Y4168411D01*
X1883062Y4264384D01*
X2010616Y4391938D01*
X2106589Y4544678D01*
X2166168Y4714945D01*
X2166169Y4714951D01*
X2186365Y4894197D01*
X2186365Y4894204D01*
X2175099Y4994197D01*
X7025235Y4994197D01*
X7045430Y4814951D01*
X7045431Y4814946D01*
X7105011Y4644677D01*
X7167845Y4544678D01*
X7200984Y4491938D01*
X7328538Y4364384D01*
X7481278Y4268411D01*
X7492784Y4264385D01*
X7651545Y4208832D01*
X7651550Y4208831D01*
X7830796Y4188635D01*
X7830800Y4188635D01*
X7830804Y4188635D01*
X8010049Y4208831D01*
X8010052Y4208832D01*
X8010055Y4208832D01*
X8180322Y4268411D01*
X8333062Y4364384D01*
X8460616Y4491938D01*
X8556589Y4644678D01*
X8616168Y4814945D01*
X8616169Y4814951D01*
X8636365Y4994197D01*
X8636365Y4994204D01*
X8616169Y5173450D01*
X8616168Y5173455D01*
X8556589Y5343722D01*
X8460616Y5496462D01*
X8333062Y5624016D01*
X8180323Y5719989D01*
X8010054Y5779569D01*
X8010049Y5779570D01*
X7830804Y5799765D01*
X7830796Y5799765D01*
X7651550Y5779570D01*
X7651545Y5779569D01*
X7481276Y5719989D01*
X7328537Y5624016D01*
X7200984Y5496463D01*
X7105011Y5343724D01*
X7045431Y5173455D01*
X7045430Y5173450D01*
X7025235Y4994204D01*
X7025235Y4994197D01*
X2175099Y4994197D01*
X2166169Y5073450D01*
X2166168Y5073455D01*
X2106588Y5243724D01*
X2043755Y5343722D01*
X2010616Y5396462D01*
X1988059Y5419019D01*
X1954574Y5480342D01*
X1959558Y5550034D01*
X1988059Y5594381D01*
X2010616Y5616938D01*
X2106589Y5769678D01*
X2166168Y5939945D01*
X2186365Y6119200D01*
X2166168Y6298455D01*
X2106589Y6468722D01*
X2010616Y6621462D01*
X1883062Y6749016D01*
X1730323Y6844989D01*
X1560054Y6904569D01*
X1560049Y6904570D01*
X1414397Y6920980D01*
X1380958Y6935031D01*
X1354713Y6922060D01*
X1347202Y6920980D01*
X1201550Y6904570D01*
X1201545Y6904569D01*
X1031276Y6844989D01*
X878537Y6749016D01*
X750984Y6621463D01*
X655011Y6468724D01*
X595431Y6298455D01*
X595430Y6298450D01*
X575235Y6119204D01*
X575235Y6119197D01*
X595430Y5939951D01*
X595431Y5939946D01*
X655011Y5769677D01*
X750984Y5616938D01*
X773541Y5594381D01*
X807026Y5533058D01*
X802042Y5463366D01*
X773541Y5419019D01*
X750984Y5396463D01*
X655011Y5243724D01*
X595431Y5073455D01*
X595430Y5073450D01*
X575235Y4894204D01*
X575235Y4894197D01*
X281300Y4894197D01*
X281300Y7969197D01*
X575235Y7969197D01*
X595430Y7789951D01*
X595431Y7789946D01*
X655011Y7619677D01*
X730837Y7499002D01*
X750984Y7466938D01*
X878538Y7339384D01*
X1031278Y7243411D01*
X1130099Y7208832D01*
X1201545Y7183832D01*
X1201550Y7183831D01*
X1347202Y7167420D01*
X1380640Y7153370D01*
X1406886Y7166340D01*
X1414397Y7167420D01*
X1560049Y7183831D01*
X1560052Y7183832D01*
X1560055Y7183832D01*
X1730322Y7243411D01*
X1883062Y7339384D01*
X2010616Y7466938D01*
X2103314Y7614466D01*
X3199363Y7614466D01*
X3219558Y7435220D01*
X3219559Y7435215D01*
X3279139Y7264946D01*
X3375112Y7112207D01*
X3502666Y6984653D01*
X3655406Y6888680D01*
X3780268Y6844989D01*
X3825673Y6829101D01*
X3825678Y6829100D01*
X4004924Y6808904D01*
X4004928Y6808904D01*
X4004932Y6808904D01*
X4184177Y6829100D01*
X4184180Y6829101D01*
X4184183Y6829101D01*
X4354450Y6888680D01*
X4507190Y6984653D01*
X4634744Y7112207D01*
X4730717Y7264947D01*
X4790296Y7435214D01*
X4790297Y7435220D01*
X4810493Y7614466D01*
X4810493Y7614473D01*
X4790297Y7793719D01*
X4790296Y7793724D01*
X4730716Y7963993D01*
X4634743Y8116732D01*
X4507190Y8244285D01*
X4354451Y8340258D01*
X4184182Y8399838D01*
X4184177Y8399839D01*
X4004932Y8420034D01*
X4004924Y8420034D01*
X3825678Y8399839D01*
X3825673Y8399838D01*
X3655404Y8340258D01*
X3502665Y8244285D01*
X3375112Y8116732D01*
X3279139Y7963993D01*
X3219559Y7793724D01*
X3219558Y7793719D01*
X3199363Y7614473D01*
X3199363Y7614466D01*
X2103314Y7614466D01*
X2106589Y7619678D01*
X2166168Y7789945D01*
X2166169Y7789951D01*
X2186365Y7969197D01*
X2186365Y7969204D01*
X2166169Y8148450D01*
X2166168Y8148455D01*
X2157420Y8173455D01*
X2106589Y8318722D01*
X2090880Y8343722D01*
X2036399Y8430429D01*
X2010616Y8471462D01*
X1883062Y8599016D01*
X1873656Y8604926D01*
X1730323Y8694989D01*
X1560054Y8754569D01*
X1560049Y8754570D01*
X1380804Y8774765D01*
X1380796Y8774765D01*
X1201550Y8754570D01*
X1201545Y8754569D01*
X1031276Y8694989D01*
X878537Y8599016D01*
X750984Y8471463D01*
X655011Y8318724D01*
X595431Y8148455D01*
X595430Y8148450D01*
X575235Y7969204D01*
X575235Y7969197D01*
X281300Y7969197D01*
X281300Y10869197D01*
X4325235Y10869197D01*
X4345430Y10689951D01*
X4345431Y10689946D01*
X4405011Y10519677D01*
X4429873Y10480110D01*
X4500984Y10366938D01*
X4628538Y10239384D01*
X4781278Y10143411D01*
X4951545Y10083832D01*
X4951550Y10083831D01*
X5130796Y10063635D01*
X5130800Y10063635D01*
X5130804Y10063635D01*
X5310049Y10083831D01*
X5310052Y10083832D01*
X5310055Y10083832D01*
X5480322Y10143411D01*
X5633062Y10239384D01*
X5760616Y10366938D01*
X5856589Y10519678D01*
X5916168Y10689945D01*
X5922281Y10744200D01*
X5936365Y10869197D01*
X5936365Y10869204D01*
X5916169Y11048450D01*
X5916168Y11048455D01*
X5900328Y11093724D01*
X5856589Y11218722D01*
X5760616Y11371462D01*
X5633062Y11499016D01*
X5608604Y11514384D01*
X5480323Y11594989D01*
X5310054Y11654569D01*
X5310049Y11654570D01*
X5130804Y11674765D01*
X5130796Y11674765D01*
X4951550Y11654570D01*
X4951545Y11654569D01*
X4781276Y11594989D01*
X4628537Y11499016D01*
X4500984Y11371463D01*
X4405011Y11218724D01*
X4345431Y11048455D01*
X4345430Y11048450D01*
X4325235Y10869204D01*
X4325235Y10869197D01*
X281300Y10869197D01*
X281300Y11918532D01*
X300985Y11985571D01*
X353789Y12031326D01*
X422947Y12041270D01*
X486503Y12012245D01*
X522342Y11959487D01*
X580011Y11794677D01*
X643147Y11694197D01*
X675984Y11641938D01*
X803538Y11514384D01*
X956278Y11418411D01*
X1077250Y11376081D01*
X1126545Y11358832D01*
X1126550Y11358831D01*
X1305796Y11338635D01*
X1305800Y11338635D01*
X1305804Y11338635D01*
X1485049Y11358831D01*
X1485052Y11358832D01*
X1485055Y11358832D01*
X1655322Y11418411D01*
X1808062Y11514384D01*
X1935616Y11641938D01*
X2031589Y11794678D01*
X2091168Y11964945D01*
X2093492Y11985571D01*
X2111365Y12144197D01*
X2111365Y12144204D01*
X2091169Y12323450D01*
X2091168Y12323455D01*
X2057389Y12419989D01*
X2031589Y12493722D01*
X1935616Y12646462D01*
X1808062Y12774016D01*
X1655323Y12869989D01*
X1485054Y12929569D01*
X1485049Y12929570D01*
X1305804Y12949765D01*
X1305796Y12949765D01*
X1126550Y12929570D01*
X1126545Y12929569D01*
X956276Y12869989D01*
X803537Y12774016D01*
X675984Y12646463D01*
X580009Y12493720D01*
X522341Y12328914D01*
X481620Y12272138D01*
X416667Y12246391D01*
X348105Y12259847D01*
X297703Y12308235D01*
X281300Y12369869D01*
X281300Y15394577D01*
X1969855Y15394577D01*
X1990050Y15215331D01*
X1990051Y15215326D01*
X2049631Y15045057D01*
X2097595Y14968724D01*
X2145604Y14892318D01*
X2273158Y14764764D01*
X2425898Y14668791D01*
X2567610Y14619204D01*
X2596165Y14609212D01*
X2596170Y14609211D01*
X2775416Y14589015D01*
X2775420Y14589015D01*
X2775424Y14589015D01*
X2954669Y14609211D01*
X2954672Y14609212D01*
X2954675Y14609212D01*
X3124942Y14668791D01*
X3162691Y14692511D01*
X3229926Y14711511D01*
X3296761Y14691144D01*
X3333657Y14653489D01*
X3402326Y14544204D01*
X3432953Y14495461D01*
X3560507Y14367907D01*
X3713247Y14271934D01*
X3883514Y14212355D01*
X3883519Y14212354D01*
X4062765Y14192158D01*
X4062769Y14192158D01*
X4062773Y14192158D01*
X4242018Y14212354D01*
X4242021Y14212355D01*
X4242024Y14212355D01*
X4412291Y14271934D01*
X4565031Y14367907D01*
X4692585Y14495461D01*
X4788558Y14648201D01*
X4848137Y14818468D01*
X4853959Y14870144D01*
X4881024Y14934555D01*
X4911201Y14961249D01*
X4986004Y15008250D01*
X5053238Y15027249D01*
X5120073Y15006881D01*
X5165287Y14953613D01*
X5174524Y14884357D01*
X5169015Y14862301D01*
X5120432Y14723458D01*
X5120430Y14723450D01*
X5100235Y14544204D01*
X5100235Y14544197D01*
X5120430Y14364951D01*
X5120433Y14364938D01*
X5180010Y14194679D01*
X5183031Y14188406D01*
X5180392Y14187136D01*
X5195809Y14132473D01*
X5176811Y14067829D01*
X5130008Y13993342D01*
X5070433Y13823087D01*
X5070430Y13823074D01*
X5050235Y13643828D01*
X5050235Y13643821D01*
X5070430Y13464575D01*
X5070431Y13464570D01*
X5130011Y13294301D01*
X5225984Y13141562D01*
X5353538Y13014008D01*
X5443880Y12957242D01*
X5487921Y12929569D01*
X5506278Y12918035D01*
X5643586Y12869989D01*
X5676545Y12858456D01*
X5676550Y12858455D01*
X5855796Y12838259D01*
X5855800Y12838259D01*
X5855804Y12838259D01*
X6035049Y12858455D01*
X6035052Y12858456D01*
X6035055Y12858456D01*
X6205322Y12918035D01*
X6358062Y13014008D01*
X6485616Y13141562D01*
X6581589Y13294302D01*
X6641168Y13464569D01*
X6661365Y13643824D01*
X6642232Y13813635D01*
X6641169Y13823074D01*
X6641168Y13823079D01*
X6581586Y13993354D01*
X6578569Y13999619D01*
X6581213Y14000893D01*
X6565790Y14055511D01*
X6584790Y14120199D01*
X6592503Y14132473D01*
X6631589Y14194678D01*
X6691168Y14364945D01*
X6691502Y14367908D01*
X6711365Y14544197D01*
X6711365Y14544204D01*
X6691169Y14723450D01*
X6691168Y14723455D01*
X6657922Y14818467D01*
X6631589Y14893722D01*
X6535616Y15046462D01*
X6478080Y15103998D01*
X6444595Y15165321D01*
X6449579Y15235013D01*
X6478080Y15279361D01*
X6490658Y15291938D01*
X6586631Y15444678D01*
X6646210Y15614945D01*
X6646211Y15614951D01*
X6666407Y15794197D01*
X6666407Y15794204D01*
X6646211Y15973450D01*
X6646209Y15973460D01*
X6611798Y16071798D01*
X6608235Y16141577D01*
X6642964Y16202205D01*
X6687890Y16229797D01*
X6688688Y16230077D01*
X6694883Y16232244D01*
X6847623Y16328217D01*
X6975177Y16455771D01*
X7071150Y16608511D01*
X7130729Y16778778D01*
X7142660Y16884668D01*
X7150926Y16958030D01*
X7150926Y16958037D01*
X7130730Y17137283D01*
X7130729Y17137288D01*
X7088557Y17257809D01*
X7071150Y17307555D01*
X6975177Y17460295D01*
X6847623Y17587849D01*
X6777956Y17631624D01*
X6694884Y17683822D01*
X6524615Y17743402D01*
X6524610Y17743403D01*
X6345365Y17763598D01*
X6345357Y17763598D01*
X6166111Y17743403D01*
X6166106Y17743402D01*
X5995837Y17683822D01*
X5843098Y17587849D01*
X5715545Y17460296D01*
X5619572Y17307557D01*
X5559992Y17137288D01*
X5559991Y17137283D01*
X5539796Y16958037D01*
X5539796Y16958030D01*
X5559991Y16778784D01*
X5559992Y16778779D01*
X5594405Y16680434D01*
X5597966Y16610655D01*
X5563237Y16550027D01*
X5518321Y16522439D01*
X5512044Y16520243D01*
X5511317Y16519988D01*
X5358581Y16424017D01*
X5244678Y16310114D01*
X5183355Y16276630D01*
X5113663Y16281614D01*
X5069316Y16310115D01*
X5063104Y16316327D01*
X4910365Y16412300D01*
X4740096Y16471880D01*
X4740091Y16471881D01*
X4560846Y16492076D01*
X4560838Y16492076D01*
X4381592Y16471881D01*
X4381587Y16471880D01*
X4211318Y16412300D01*
X4058579Y16316327D01*
X3931026Y16188774D01*
X3835052Y16036033D01*
X3775472Y15865761D01*
X3769651Y15814092D01*
X3742584Y15749678D01*
X3712405Y15722984D01*
X3675500Y15699794D01*
X3608264Y15680792D01*
X3541428Y15701158D01*
X3504532Y15738814D01*
X3425616Y15864407D01*
X3405236Y15896842D01*
X3277682Y16024396D01*
X3259162Y16036033D01*
X3124943Y16120369D01*
X2954674Y16179949D01*
X2954669Y16179950D01*
X2775424Y16200145D01*
X2775416Y16200145D01*
X2596170Y16179950D01*
X2596165Y16179949D01*
X2425896Y16120369D01*
X2273157Y16024396D01*
X2145604Y15896843D01*
X2049631Y15744104D01*
X1990051Y15573835D01*
X1990050Y15573830D01*
X1969855Y15394584D01*
X1969855Y15394577D01*
X281300Y15394577D01*
X281300Y17634394D01*
X300985Y17701433D01*
X353789Y17747188D01*
X422947Y17757132D01*
X486503Y17728107D01*
X517020Y17688197D01*
X518811Y17684477D01*
X552021Y17631624D01*
X614784Y17531738D01*
X742338Y17404184D01*
X832680Y17347418D01*
X876920Y17319620D01*
X895078Y17308211D01*
X995368Y17273118D01*
X1065345Y17248632D01*
X1065350Y17248631D01*
X1244596Y17228435D01*
X1244600Y17228435D01*
X1244604Y17228435D01*
X1423849Y17248631D01*
X1423852Y17248632D01*
X1423855Y17248632D01*
X1594122Y17308211D01*
X1746862Y17404184D01*
X1874416Y17531738D01*
X1970389Y17684478D01*
X2029968Y17854745D01*
X2043140Y17971651D01*
X2050165Y18033997D01*
X2050165Y18034004D01*
X2029969Y18213250D01*
X2029968Y18213255D01*
X1972452Y18377626D01*
X1970389Y18383522D01*
X1938918Y18433607D01*
X1920051Y18463635D01*
X1874416Y18536262D01*
X1746862Y18663816D01*
X1594123Y18759789D01*
X1423854Y18819369D01*
X1423849Y18819370D01*
X1244604Y18839565D01*
X1244596Y18839565D01*
X1065350Y18819370D01*
X1065345Y18819369D01*
X895076Y18759789D01*
X742337Y18663816D01*
X614784Y18536263D01*
X518810Y18383522D01*
X517018Y18379800D01*
X515222Y18377812D01*
X515106Y18377626D01*
X515073Y18377647D01*
X470193Y18327943D01*
X402765Y18309633D01*
X336142Y18330684D01*
X291476Y18384413D01*
X281300Y18433607D01*
X281300Y20088247D01*
X300985Y20155286D01*
X353789Y20201041D01*
X422947Y20210985D01*
X446255Y20205288D01*
X620737Y20144234D01*
X620743Y20144233D01*
X620745Y20144232D01*
X620746Y20144232D01*
X620750Y20144231D01*
X799996Y20124035D01*
X800000Y20124035D01*
X800004Y20124035D01*
X979249Y20144231D01*
X979252Y20144232D01*
X979255Y20144232D01*
X1149522Y20203811D01*
X1302262Y20299784D01*
X1429816Y20427338D01*
X1525789Y20580078D01*
X1585368Y20750345D01*
X1590003Y20791481D01*
X1605565Y20929597D01*
X1605565Y20929604D01*
X1597974Y20996973D01*
X1982884Y20996973D01*
X2003079Y20817727D01*
X2003080Y20817722D01*
X2062660Y20647453D01*
X2105894Y20578647D01*
X2158633Y20494714D01*
X2286187Y20367160D01*
X2362690Y20319090D01*
X2433232Y20274765D01*
X2438927Y20271187D01*
X2595465Y20216412D01*
X2609194Y20211608D01*
X2609199Y20211607D01*
X2788445Y20191411D01*
X2788468Y20191411D01*
X2788482Y20191407D01*
X2795368Y20190631D01*
X2795232Y20189425D01*
X2855507Y20171726D01*
X2901262Y20118922D01*
X2911206Y20049764D01*
X2882181Y19986208D01*
X2854440Y19962417D01*
X2753537Y19899016D01*
X2625984Y19771463D01*
X2530011Y19618724D01*
X2470431Y19448455D01*
X2470430Y19448450D01*
X2450235Y19269204D01*
X2450235Y19269197D01*
X2470430Y19089951D01*
X2470431Y19089946D01*
X2530011Y18919677D01*
X2577680Y18843813D01*
X2625984Y18766938D01*
X2753538Y18639384D01*
X2906278Y18543411D01*
X3076545Y18483832D01*
X3076550Y18483831D01*
X3255796Y18463635D01*
X3255800Y18463635D01*
X3255804Y18463635D01*
X3435049Y18483831D01*
X3435052Y18483832D01*
X3435055Y18483832D01*
X3605322Y18543411D01*
X3758062Y18639384D01*
X3885616Y18766938D01*
X3981589Y18919678D01*
X4017766Y19023065D01*
X4458579Y19023065D01*
X4478774Y18843819D01*
X4478775Y18843814D01*
X4538355Y18673545D01*
X4602355Y18571691D01*
X4634328Y18520806D01*
X4761882Y18393252D01*
X4786751Y18377626D01*
X4894960Y18309633D01*
X4914622Y18297279D01*
X5027052Y18257938D01*
X5084889Y18237700D01*
X5084894Y18237699D01*
X5264140Y18217503D01*
X5264144Y18217503D01*
X5264148Y18217503D01*
X5443393Y18237699D01*
X5443396Y18237700D01*
X5443399Y18237700D01*
X5613666Y18297279D01*
X5766406Y18393252D01*
X5893960Y18520806D01*
X5925222Y18570560D01*
X5977553Y18616848D01*
X6016331Y18627806D01*
X6050578Y18631665D01*
X6135047Y18641181D01*
X6135050Y18641182D01*
X6135053Y18641182D01*
X6305320Y18700761D01*
X6314865Y18706760D01*
X6382098Y18725759D01*
X6446807Y18706759D01*
X6456274Y18700811D01*
X6456275Y18700811D01*
X6456278Y18700809D01*
X6626545Y18641230D01*
X6626550Y18641229D01*
X6805796Y18621033D01*
X6805800Y18621033D01*
X6805804Y18621033D01*
X6985049Y18641229D01*
X6985052Y18641230D01*
X6985055Y18641230D01*
X7155322Y18700809D01*
X7184419Y18719093D01*
X7251655Y18738093D01*
X7291346Y18731140D01*
X7426537Y18683834D01*
X7426543Y18683833D01*
X7426545Y18683832D01*
X7426546Y18683832D01*
X7426550Y18683831D01*
X7605796Y18663635D01*
X7605800Y18663635D01*
X7605804Y18663635D01*
X7785049Y18683831D01*
X7785052Y18683832D01*
X7785055Y18683832D01*
X7955322Y18743411D01*
X8108062Y18839384D01*
X8235616Y18966938D01*
X8331589Y19119678D01*
X8391168Y19289945D01*
X8391169Y19289951D01*
X8411365Y19469197D01*
X8411365Y19469204D01*
X8391169Y19648450D01*
X8391168Y19648455D01*
X8348126Y19771462D01*
X8331589Y19818722D01*
X8235616Y19971462D01*
X8108062Y20099016D01*
X8068245Y20124035D01*
X7955323Y20194989D01*
X7785054Y20254569D01*
X7785049Y20254570D01*
X7605804Y20274765D01*
X7605796Y20274765D01*
X7426550Y20254570D01*
X7426537Y20254567D01*
X7256280Y20194991D01*
X7227178Y20176705D01*
X7159941Y20157706D01*
X7120253Y20164659D01*
X6985062Y20211965D01*
X6985049Y20211968D01*
X6805804Y20232163D01*
X6805796Y20232163D01*
X6626550Y20211968D01*
X6626537Y20211965D01*
X6456278Y20152388D01*
X6446729Y20146388D01*
X6379491Y20127391D01*
X6314791Y20146389D01*
X6305323Y20152338D01*
X6305316Y20152341D01*
X6135060Y20211917D01*
X6135047Y20211920D01*
X5955802Y20232115D01*
X5955794Y20232115D01*
X5776548Y20211920D01*
X5776543Y20211919D01*
X5606274Y20152339D01*
X5453535Y20056366D01*
X5325984Y19928815D01*
X5325978Y19928808D01*
X5294719Y19879060D01*
X5242384Y19832770D01*
X5203611Y19821814D01*
X5084894Y19808438D01*
X4914622Y19748858D01*
X4761881Y19652884D01*
X4634328Y19525331D01*
X4538355Y19372592D01*
X4478775Y19202323D01*
X4478774Y19202318D01*
X4458579Y19023072D01*
X4458579Y19023065D01*
X4017766Y19023065D01*
X4041168Y19089945D01*
X4045346Y19127025D01*
X4061365Y19269197D01*
X4061365Y19269204D01*
X4041169Y19448450D01*
X4041168Y19448455D01*
X4014268Y19525331D01*
X3981589Y19618722D01*
X3962906Y19648455D01*
X3900770Y19747344D01*
X3885616Y19771462D01*
X3758062Y19899016D01*
X3714158Y19926603D01*
X3605323Y19994989D01*
X3435054Y20054569D01*
X3435049Y20054570D01*
X3255804Y20074765D01*
X3255781Y20074765D01*
X3255766Y20074770D01*
X3248881Y20075545D01*
X3249016Y20076752D01*
X3188742Y20094450D01*
X3142987Y20147254D01*
X3133043Y20216412D01*
X3162068Y20279968D01*
X3189809Y20303759D01*
X3190526Y20304210D01*
X3290711Y20367160D01*
X3418265Y20494714D01*
X3514238Y20647454D01*
X3573817Y20817721D01*
X3585355Y20920124D01*
X3594014Y20996973D01*
X3594014Y20996980D01*
X3573818Y21176226D01*
X3573817Y21176231D01*
X3514237Y21346500D01*
X3460600Y21431862D01*
X3418265Y21499238D01*
X3290711Y21626792D01*
X3245199Y21655389D01*
X3137972Y21722765D01*
X3129624Y21725686D01*
X3890953Y21725686D01*
X3911148Y21546440D01*
X3911149Y21546435D01*
X3970729Y21376166D01*
X4031705Y21279124D01*
X4066702Y21223427D01*
X4194256Y21095873D01*
X4346996Y20999900D01*
X4517263Y20940321D01*
X4517268Y20940320D01*
X4696514Y20920124D01*
X4696518Y20920124D01*
X4696522Y20920124D01*
X4875767Y20940320D01*
X4875770Y20940321D01*
X4875773Y20940321D01*
X5046040Y20999900D01*
X5198780Y21095873D01*
X5326334Y21223427D01*
X5422307Y21376167D01*
X5481886Y21546434D01*
X5483349Y21559416D01*
X5502083Y21725686D01*
X5502083Y21725693D01*
X5481887Y21904939D01*
X5481886Y21904944D01*
X5422306Y22075213D01*
X5326333Y22227952D01*
X5198780Y22355505D01*
X5046041Y22451478D01*
X4875772Y22511058D01*
X4875767Y22511059D01*
X4696522Y22531254D01*
X4696514Y22531254D01*
X4517268Y22511059D01*
X4517263Y22511058D01*
X4346994Y22451478D01*
X4194255Y22355505D01*
X4066702Y22227952D01*
X3970729Y22075213D01*
X3911149Y21904944D01*
X3911148Y21904939D01*
X3890953Y21725693D01*
X3890953Y21725686D01*
X3129624Y21725686D01*
X2967703Y21782345D01*
X2967698Y21782346D01*
X2788453Y21802541D01*
X2788445Y21802541D01*
X2609199Y21782346D01*
X2609194Y21782345D01*
X2438925Y21722765D01*
X2286186Y21626792D01*
X2158633Y21499239D01*
X2062660Y21346500D01*
X2003080Y21176231D01*
X2003079Y21176226D01*
X1982884Y20996980D01*
X1982884Y20996973D01*
X1597974Y20996973D01*
X1585369Y21108850D01*
X1585368Y21108855D01*
X1561792Y21176231D01*
X1525789Y21279122D01*
X1429816Y21431862D01*
X1302262Y21559416D01*
X1149523Y21655389D01*
X979254Y21714969D01*
X979249Y21714970D01*
X800004Y21735165D01*
X799996Y21735165D01*
X620750Y21714970D01*
X620742Y21714968D01*
X446254Y21653912D01*
X376475Y21650351D01*
X315848Y21685080D01*
X283621Y21747073D01*
X281300Y21770954D01*
X281300Y23037327D01*
X300985Y23104366D01*
X353789Y23150121D01*
X422947Y23160065D01*
X486503Y23131040D01*
X492981Y23125008D01*
X506603Y23111386D01*
X566970Y23073455D01*
X620300Y23039945D01*
X659343Y23015413D01*
X712576Y22996786D01*
X829610Y22955834D01*
X829615Y22955833D01*
X1008861Y22935637D01*
X1008865Y22935637D01*
X1008869Y22935637D01*
X1188114Y22955833D01*
X1188117Y22955834D01*
X1188120Y22955834D01*
X1358387Y23015413D01*
X1511127Y23111386D01*
X1638681Y23238940D01*
X1734654Y23391680D01*
X1794233Y23561947D01*
X1794234Y23561953D01*
X1814430Y23741199D01*
X1814430Y23741206D01*
X1794234Y23920452D01*
X1794233Y23920454D01*
X1794233Y23920457D01*
X1792300Y23925979D01*
X1788738Y23995756D01*
X1815833Y24044197D01*
X2875235Y24044197D01*
X2895430Y23864951D01*
X2895431Y23864946D01*
X2955011Y23694677D01*
X2974460Y23663725D01*
X3050984Y23541938D01*
X3178538Y23414384D01*
X3331278Y23318411D01*
X3444563Y23278771D01*
X3501545Y23258832D01*
X3501550Y23258831D01*
X3680796Y23238635D01*
X3680800Y23238635D01*
X3680804Y23238635D01*
X3860049Y23258831D01*
X3860051Y23258832D01*
X3860055Y23258832D01*
X3860058Y23258834D01*
X3860062Y23258834D01*
X4006105Y23309937D01*
X4075884Y23313499D01*
X4136511Y23278771D01*
X4152054Y23258868D01*
X4176977Y23219204D01*
X4236584Y23124340D01*
X4364138Y22996786D01*
X4516878Y22900813D01*
X4605857Y22869678D01*
X4687145Y22841234D01*
X4687150Y22841233D01*
X4866396Y22821037D01*
X4866400Y22821037D01*
X4866404Y22821037D01*
X5045649Y22841233D01*
X5045652Y22841234D01*
X5045655Y22841234D01*
X5215922Y22900813D01*
X5368662Y22996786D01*
X5460606Y23088730D01*
X5521929Y23122215D01*
X5589242Y23118090D01*
X5687139Y23083834D01*
X5687145Y23083833D01*
X5687147Y23083832D01*
X5687148Y23083832D01*
X5687152Y23083831D01*
X5866398Y23063635D01*
X5866402Y23063635D01*
X5866406Y23063635D01*
X6045651Y23083831D01*
X6045654Y23083832D01*
X6045657Y23083832D01*
X6215924Y23143411D01*
X6368664Y23239384D01*
X6496218Y23366938D01*
X6592191Y23519678D01*
X6633841Y23638708D01*
X6674563Y23695483D01*
X6739515Y23721231D01*
X6808077Y23707775D01*
X6855876Y23663725D01*
X6900979Y23591944D01*
X6900984Y23591938D01*
X6937196Y23555726D01*
X6970681Y23494403D01*
X6965697Y23424711D01*
X6954509Y23402073D01*
X6855011Y23243724D01*
X6795431Y23073455D01*
X6795430Y23073450D01*
X6775235Y22894204D01*
X6775235Y22894197D01*
X6795430Y22714951D01*
X6795431Y22714946D01*
X6855011Y22544677D01*
X6924660Y22433832D01*
X6950984Y22391938D01*
X7078538Y22264384D01*
X7231278Y22168411D01*
X7401545Y22108832D01*
X7401550Y22108831D01*
X7580796Y22088635D01*
X7580800Y22088635D01*
X7580804Y22088635D01*
X7760049Y22108831D01*
X7760052Y22108832D01*
X7760055Y22108832D01*
X7930322Y22168411D01*
X8083062Y22264384D01*
X8210616Y22391938D01*
X8306589Y22544678D01*
X8366168Y22714945D01*
X8380397Y22841233D01*
X8386365Y22894197D01*
X8386365Y22894204D01*
X8366169Y23073450D01*
X8366168Y23073455D01*
X8352895Y23111387D01*
X8315171Y23219197D01*
X8875231Y23219197D01*
X8895426Y23039951D01*
X8895427Y23039946D01*
X8955007Y22869677D01*
X8972880Y22841233D01*
X9050980Y22716938D01*
X9178534Y22589384D01*
X9249683Y22544678D01*
X9303190Y22511057D01*
X9331274Y22493411D01*
X9451112Y22451478D01*
X9501541Y22433832D01*
X9501546Y22433831D01*
X9680792Y22413635D01*
X9680796Y22413635D01*
X9680800Y22413635D01*
X9860045Y22433831D01*
X9860048Y22433832D01*
X9860051Y22433832D01*
X10030318Y22493411D01*
X10183058Y22589384D01*
X10310612Y22716938D01*
X10406585Y22869678D01*
X10466164Y23039945D01*
X10466165Y23039951D01*
X10486361Y23219197D01*
X10486361Y23219204D01*
X10466165Y23398450D01*
X10466164Y23398455D01*
X10411132Y23555726D01*
X10406585Y23568722D01*
X10391997Y23591938D01*
X10362610Y23638707D01*
X10310612Y23721462D01*
X10183058Y23849016D01*
X10157698Y23864951D01*
X10030319Y23944989D01*
X9860050Y24004569D01*
X9860045Y24004570D01*
X9680800Y24024765D01*
X9680792Y24024765D01*
X9501546Y24004570D01*
X9501541Y24004569D01*
X9331272Y23944989D01*
X9178533Y23849016D01*
X9050980Y23721463D01*
X8955007Y23568724D01*
X8895427Y23398455D01*
X8895426Y23398450D01*
X8875231Y23219204D01*
X8875231Y23219197D01*
X8315171Y23219197D01*
X8306589Y23243722D01*
X8297095Y23258831D01*
X8213621Y23391679D01*
X8210616Y23396462D01*
X8174403Y23432675D01*
X8140918Y23493998D01*
X8145902Y23563690D01*
X8157091Y23586329D01*
X8160614Y23591937D01*
X8160616Y23591938D01*
X8241856Y23721231D01*
X8256588Y23744676D01*
X8298672Y23864945D01*
X8316168Y23914945D01*
X8316169Y23914951D01*
X8336365Y24094197D01*
X8336365Y24094200D01*
X8334148Y24113874D01*
X8346201Y24182694D01*
X8393549Y24234074D01*
X8461159Y24251700D01*
X8471252Y24250978D01*
X8580797Y24238635D01*
X8580800Y24238635D01*
X8580804Y24238635D01*
X8760049Y24258831D01*
X8760052Y24258832D01*
X8760055Y24258832D01*
X8930322Y24318411D01*
X9083062Y24414384D01*
X9210616Y24541938D01*
X9306589Y24694678D01*
X9366168Y24864945D01*
X9366169Y24864951D01*
X9386365Y25044197D01*
X9386365Y25044204D01*
X9366169Y25223450D01*
X9366168Y25223455D01*
X9320903Y25352814D01*
X9306589Y25393722D01*
X9210616Y25546462D01*
X9083062Y25674016D01*
X9030815Y25706845D01*
X8930323Y25769989D01*
X8760054Y25829569D01*
X8760049Y25829570D01*
X8580804Y25849765D01*
X8580796Y25849765D01*
X8401550Y25829570D01*
X8401545Y25829569D01*
X8231276Y25769989D01*
X8078537Y25674016D01*
X7950984Y25546463D01*
X7855011Y25393724D01*
X7795431Y25223455D01*
X7795430Y25223450D01*
X7775235Y25044204D01*
X7775235Y25044195D01*
X7777451Y25024525D01*
X7765396Y24955703D01*
X7718046Y24904325D01*
X7650436Y24886701D01*
X7640348Y24887423D01*
X7530804Y24899765D01*
X7530796Y24899765D01*
X7351550Y24879570D01*
X7351545Y24879569D01*
X7181276Y24819989D01*
X7028537Y24724016D01*
X6900984Y24596463D01*
X6805008Y24443720D01*
X6763359Y24324693D01*
X6722637Y24267917D01*
X6657684Y24242170D01*
X6589123Y24255627D01*
X6541324Y24299676D01*
X6529552Y24318411D01*
X6496218Y24371462D01*
X6368664Y24499016D01*
X6215925Y24594989D01*
X6045656Y24654569D01*
X6045651Y24654570D01*
X5866406Y24674765D01*
X5866398Y24674765D01*
X5687152Y24654570D01*
X5687147Y24654569D01*
X5516878Y24594989D01*
X5364139Y24499016D01*
X5364138Y24499015D01*
X5272194Y24407072D01*
X5210871Y24373588D01*
X5143559Y24377712D01*
X5045654Y24411971D01*
X5045649Y24411972D01*
X4866404Y24432167D01*
X4866396Y24432167D01*
X4687150Y24411972D01*
X4687142Y24411970D01*
X4541093Y24360865D01*
X4471314Y24357304D01*
X4410687Y24392033D01*
X4395145Y24411935D01*
X4372628Y24447771D01*
X4310616Y24546462D01*
X4183062Y24674016D01*
X4103488Y24724016D01*
X4030323Y24769989D01*
X3860054Y24829569D01*
X3860049Y24829570D01*
X3680804Y24849765D01*
X3680796Y24849765D01*
X3501550Y24829570D01*
X3501545Y24829569D01*
X3331276Y24769989D01*
X3178537Y24674016D01*
X3050984Y24546463D01*
X2955011Y24393724D01*
X2895431Y24223455D01*
X2895430Y24223450D01*
X2875235Y24044204D01*
X2875235Y24044197D01*
X1815833Y24044197D01*
X1821659Y24054612D01*
X1891811Y24124763D01*
X1987784Y24277503D01*
X2047363Y24447770D01*
X2058483Y24546463D01*
X2067560Y24627022D01*
X2067560Y24627029D01*
X2047364Y24806275D01*
X2047363Y24806280D01*
X2026833Y24864951D01*
X1987784Y24976547D01*
X1891811Y25129287D01*
X1764257Y25256841D01*
X1611518Y25352814D01*
X1441249Y25412394D01*
X1441244Y25412395D01*
X1261999Y25432590D01*
X1261991Y25432590D01*
X1082745Y25412395D01*
X1082740Y25412394D01*
X912471Y25352814D01*
X759732Y25256841D01*
X632179Y25129288D01*
X536206Y24976548D01*
X522342Y24936926D01*
X481620Y24880150D01*
X416667Y24854403D01*
X348105Y24867859D01*
X297703Y24916247D01*
X281300Y24977881D01*
X281300Y27345656D01*
X300985Y27412695D01*
X353789Y27458450D01*
X422947Y27468394D01*
X486503Y27439369D01*
X506875Y27416779D01*
X587100Y27302205D01*
X587105Y27302199D01*
X754199Y27135105D01*
X796851Y27105240D01*
X947765Y26999568D01*
X947767Y26999567D01*
X947770Y26999565D01*
X1161937Y26899697D01*
X1390192Y26838537D01*
X1494777Y26829387D01*
X1559845Y26803934D01*
X1600824Y26747344D01*
X1604702Y26677582D01*
X1601011Y26664904D01*
X1548877Y26515916D01*
X1548876Y26515911D01*
X1528681Y26336665D01*
X1528681Y26336658D01*
X1548876Y26157412D01*
X1548877Y26157407D01*
X1608457Y25987138D01*
X1664181Y25898455D01*
X1704430Y25834399D01*
X1831984Y25706845D01*
X1984724Y25610872D01*
X2154991Y25551293D01*
X2154996Y25551292D01*
X2334242Y25531096D01*
X2334246Y25531096D01*
X2334250Y25531096D01*
X2513495Y25551292D01*
X2513498Y25551293D01*
X2513501Y25551293D01*
X2683768Y25610872D01*
X2836508Y25706845D01*
X2964062Y25834399D01*
X3060035Y25987139D01*
X3119614Y26157406D01*
X3119615Y26157412D01*
X3139811Y26336658D01*
X3139811Y26336665D01*
X3119615Y26515911D01*
X3119614Y26515916D01*
X3082375Y26622338D01*
X3060035Y26686183D01*
X2964062Y26838923D01*
X2836508Y26966477D01*
X2683768Y27062450D01*
X2683765Y27062452D01*
X2677861Y27064518D01*
X2621085Y27105240D01*
X2595338Y27170192D01*
X2608794Y27238754D01*
X2631133Y27269238D01*
X2664095Y27302199D01*
X2799635Y27495770D01*
X2899503Y27709937D01*
X2960663Y27938192D01*
X2968433Y28027005D01*
X2993885Y28092073D01*
X3050476Y28133052D01*
X3120238Y28136930D01*
X3157934Y28121190D01*
X3202400Y28093249D01*
X3372670Y28033669D01*
X3372675Y28033668D01*
X3551921Y28013472D01*
X3551925Y28013472D01*
X3551929Y28013472D01*
X3731174Y28033668D01*
X3731177Y28033669D01*
X3731180Y28033669D01*
X3901447Y28093248D01*
X4054187Y28189221D01*
X4181741Y28316775D01*
X4219568Y28376977D01*
X4271898Y28423264D01*
X4340952Y28433914D01*
X4404800Y28405539D01*
X4443173Y28347150D01*
X4443887Y28277284D01*
X4441601Y28270048D01*
X4395432Y28138103D01*
X4395430Y28138095D01*
X4375235Y27958849D01*
X4375235Y27958842D01*
X4395430Y27779596D01*
X4395433Y27779583D01*
X4438847Y27655515D01*
X4442409Y27585736D01*
X4426801Y27548589D01*
X4380008Y27474118D01*
X4320433Y27303863D01*
X4320430Y27303850D01*
X4300235Y27124604D01*
X4300235Y27124597D01*
X4320430Y26945351D01*
X4320431Y26945346D01*
X4380011Y26775077D01*
X4397437Y26747344D01*
X4475984Y26622338D01*
X4603538Y26494784D01*
X4756278Y26398811D01*
X4898584Y26349016D01*
X4926545Y26339232D01*
X4926550Y26339231D01*
X5105796Y26319035D01*
X5105800Y26319035D01*
X5105804Y26319035D01*
X5285049Y26339231D01*
X5285052Y26339232D01*
X5285055Y26339232D01*
X5455322Y26398811D01*
X5608062Y26494784D01*
X5735616Y26622338D01*
X5831589Y26775078D01*
X5837188Y26791080D01*
X5877906Y26847856D01*
X5942858Y26873605D01*
X6011420Y26860152D01*
X6020201Y26855123D01*
X6030726Y26848509D01*
X6158114Y26803934D01*
X6200993Y26788930D01*
X6200998Y26788929D01*
X6380244Y26768733D01*
X6380248Y26768733D01*
X6380252Y26768733D01*
X6559497Y26788929D01*
X6559500Y26788930D01*
X6559503Y26788930D01*
X6729770Y26848509D01*
X6882510Y26944482D01*
X7010064Y27072036D01*
X7106037Y27224776D01*
X7165616Y27395043D01*
X7168065Y27416779D01*
X7185813Y27574295D01*
X7185813Y27574302D01*
X7165617Y27753548D01*
X7165616Y27753553D01*
X7106036Y27923822D01*
X7010063Y28076561D01*
X6882510Y28204114D01*
X6729771Y28300087D01*
X6559502Y28359667D01*
X6559497Y28359668D01*
X6380252Y28379863D01*
X6380244Y28379863D01*
X6200998Y28359668D01*
X6200990Y28359666D01*
X6026565Y28298632D01*
X5956786Y28295071D01*
X5896159Y28329800D01*
X5880618Y28349701D01*
X5810617Y28461106D01*
X5683063Y28588660D01*
X5683062Y28588661D01*
X5660743Y28602685D01*
X5614453Y28655020D01*
X5603806Y28724074D01*
X5632182Y28787922D01*
X5639013Y28795336D01*
X5660616Y28816938D01*
X5756589Y28969678D01*
X5816168Y29139945D01*
X5822392Y29195182D01*
X5836365Y29319197D01*
X5836365Y29319204D01*
X5816169Y29498450D01*
X5816168Y29498455D01*
X5775406Y29614945D01*
X5756589Y29668722D01*
X5709165Y29744197D01*
X7277135Y29744197D01*
X7297330Y29564951D01*
X7297331Y29564946D01*
X7356911Y29394677D01*
X7404337Y29319200D01*
X7452884Y29241938D01*
X7580438Y29114384D01*
X7733178Y29018411D01*
X7872449Y28969678D01*
X7903445Y28958832D01*
X7910232Y28957283D01*
X7909734Y28955106D01*
X7964335Y28932166D01*
X8003893Y28874573D01*
X8009263Y28849892D01*
X8023753Y28721285D01*
X8023754Y28721281D01*
X8083334Y28551012D01*
X8139826Y28461106D01*
X8179307Y28398273D01*
X8306861Y28270719D01*
X8359509Y28237638D01*
X8436562Y28189222D01*
X8459601Y28174746D01*
X8564344Y28138095D01*
X8629868Y28115167D01*
X8629873Y28115166D01*
X8809119Y28094970D01*
X8809123Y28094970D01*
X8809127Y28094970D01*
X8988372Y28115166D01*
X8988375Y28115167D01*
X8988378Y28115167D01*
X9158645Y28174746D01*
X9311385Y28270719D01*
X9438939Y28398273D01*
X9534912Y28551013D01*
X9594491Y28721280D01*
X9605269Y28816938D01*
X9614688Y28900532D01*
X9614688Y28900539D01*
X9594492Y29079785D01*
X9594491Y29079790D01*
X9573442Y29139945D01*
X9534912Y29250057D01*
X9526493Y29263455D01*
X9485360Y29328919D01*
X9438939Y29402797D01*
X9311385Y29530351D01*
X9305939Y29534694D01*
X9307558Y29536725D01*
X9269173Y29580146D01*
X9258544Y29649203D01*
X9276457Y29698744D01*
X9281589Y29706910D01*
X9319666Y29815727D01*
X9341166Y29877170D01*
X9341169Y29877183D01*
X9361365Y30056429D01*
X9361365Y30056436D01*
X9341169Y30235682D01*
X9341168Y30235687D01*
X9319902Y30296462D01*
X9281589Y30405954D01*
X9185616Y30558694D01*
X9058062Y30686248D01*
X9058060Y30686249D01*
X8905323Y30782221D01*
X8735054Y30841801D01*
X8735049Y30841802D01*
X8555804Y30861997D01*
X8555796Y30861997D01*
X8376550Y30841802D01*
X8376545Y30841801D01*
X8206276Y30782221D01*
X8053539Y30686249D01*
X7925980Y30558691D01*
X7924759Y30557159D01*
X7923691Y30556402D01*
X7921060Y30553770D01*
X7920612Y30554218D01*
X7868771Y30517435D01*
X7733176Y30469989D01*
X7580437Y30374016D01*
X7452884Y30246463D01*
X7356911Y30093724D01*
X7297331Y29923455D01*
X7297330Y29923450D01*
X7277135Y29744204D01*
X7277135Y29744197D01*
X5709165Y29744197D01*
X5660616Y29821462D01*
X5533062Y29949016D01*
X5474710Y29985681D01*
X5380323Y30044989D01*
X5210054Y30104569D01*
X5210049Y30104570D01*
X5030804Y30124765D01*
X5030796Y30124765D01*
X4851550Y30104570D01*
X4851545Y30104569D01*
X4695739Y30050049D01*
X4625960Y30046488D01*
X4565332Y30081217D01*
X4537742Y30126137D01*
X4531588Y30143724D01*
X4473807Y30235682D01*
X4435616Y30296462D01*
X4308062Y30424016D01*
X4308060Y30424017D01*
X4155323Y30519989D01*
X3985054Y30579569D01*
X3985049Y30579570D01*
X3805804Y30599765D01*
X3805796Y30599765D01*
X3626550Y30579570D01*
X3626545Y30579569D01*
X3456276Y30519989D01*
X3303539Y30424017D01*
X3187780Y30308258D01*
X3126457Y30274774D01*
X3056765Y30279758D01*
X3000832Y30321630D01*
X2976415Y30387094D01*
X2976099Y30395922D01*
X2976099Y31611472D01*
X2974860Y31622997D01*
X5977135Y31622997D01*
X5997330Y31443751D01*
X5997331Y31443746D01*
X6056911Y31273477D01*
X6126794Y31162260D01*
X6152884Y31120738D01*
X6280438Y30993184D01*
X6433178Y30897211D01*
X6533814Y30861997D01*
X6603445Y30837632D01*
X6603450Y30837631D01*
X6782696Y30817435D01*
X6782700Y30817435D01*
X6782704Y30817435D01*
X6961949Y30837631D01*
X6961952Y30837632D01*
X6961955Y30837632D01*
X7132222Y30897211D01*
X7284962Y30993184D01*
X7412516Y31120738D01*
X7508489Y31273478D01*
X7568068Y31443745D01*
X7584541Y31589946D01*
X7588265Y31622997D01*
X7588265Y31623004D01*
X7568069Y31802250D01*
X7568068Y31802255D01*
X7566780Y31805936D01*
X7508489Y31972522D01*
X7486577Y32007394D01*
X7452337Y32061887D01*
X7412516Y32125262D01*
X7284962Y32252816D01*
X7255287Y32271462D01*
X7132223Y32348789D01*
X6961954Y32408369D01*
X6961949Y32408370D01*
X6782704Y32428565D01*
X6782696Y32428565D01*
X6603450Y32408370D01*
X6603445Y32408369D01*
X6433176Y32348789D01*
X6280437Y32252816D01*
X6152884Y32125263D01*
X6056911Y31972524D01*
X5997331Y31802255D01*
X5997330Y31802250D01*
X5977135Y31623004D01*
X5977135Y31622997D01*
X2974860Y31622997D01*
X2969691Y31671083D01*
X2933094Y31769204D01*
X2919397Y31805929D01*
X2919393Y31805936D01*
X2833147Y31921145D01*
X2833144Y31921148D01*
X2717935Y32007394D01*
X2717928Y32007398D01*
X2583082Y32057692D01*
X2583084Y32057692D01*
X2544059Y32061887D01*
X2479508Y32088625D01*
X2439660Y32146018D01*
X2434095Y32199059D01*
X2436365Y32219200D01*
X2432577Y32252816D01*
X2416169Y32398450D01*
X2416168Y32398455D01*
X2382389Y32494989D01*
X2356589Y32568722D01*
X2260616Y32721462D01*
X2133062Y32849016D01*
X1980323Y32944989D01*
X1810054Y33004569D01*
X1810049Y33004570D01*
X1630804Y33024765D01*
X1630796Y33024765D01*
X1451550Y33004570D01*
X1451545Y33004569D01*
X1281276Y32944989D01*
X1128537Y32849016D01*
X1000984Y32721463D01*
X905011Y32568724D01*
X845431Y32398455D01*
X845430Y32398450D01*
X825235Y32219204D01*
X825235Y32219203D01*
X827380Y32200162D01*
X815323Y32131340D01*
X767973Y32079962D01*
X717414Y32062991D01*
X668116Y32057691D01*
X533271Y32007398D01*
X533268Y32007396D01*
X479611Y31967228D01*
X414146Y31942811D01*
X345873Y31957663D01*
X296468Y32007068D01*
X281300Y32066495D01*
X281300Y34018277D01*
X2010786Y34018277D01*
X2030981Y33839031D01*
X2030982Y33839026D01*
X2090562Y33668757D01*
X2186535Y33516018D01*
X2314089Y33388464D01*
X2466829Y33292491D01*
X2637096Y33232912D01*
X2637101Y33232911D01*
X2816347Y33212715D01*
X2816351Y33212715D01*
X2816355Y33212715D01*
X2995600Y33232911D01*
X2995603Y33232912D01*
X2995606Y33232912D01*
X3165873Y33292491D01*
X3318613Y33388464D01*
X3446167Y33516018D01*
X3542140Y33668758D01*
X3601719Y33839025D01*
X3601720Y33839031D01*
X3621916Y34018277D01*
X3621916Y34018284D01*
X3601720Y34197530D01*
X3601719Y34197535D01*
X3542140Y34367802D01*
X3446167Y34520542D01*
X3318613Y34648096D01*
X3204693Y34719677D01*
X3165874Y34744069D01*
X2995605Y34803649D01*
X2995600Y34803650D01*
X2816355Y34823845D01*
X2816347Y34823845D01*
X2637101Y34803650D01*
X2637096Y34803649D01*
X2466827Y34744069D01*
X2314088Y34648096D01*
X2186535Y34520543D01*
X2090562Y34367804D01*
X2030982Y34197535D01*
X2030981Y34197530D01*
X2010786Y34018284D01*
X2010786Y34018277D01*
X281300Y34018277D01*
X281300Y35787275D01*
X300985Y35854314D01*
X353789Y35900069D01*
X422947Y35910013D01*
X486503Y35880988D01*
X506875Y35858398D01*
X542300Y35807805D01*
X542305Y35807799D01*
X709399Y35640705D01*
X806184Y35572935D01*
X902965Y35505168D01*
X902967Y35505167D01*
X902970Y35505165D01*
X1117137Y35405297D01*
X1345392Y35344137D01*
X1533718Y35327661D01*
X1580799Y35323541D01*
X1580800Y35323541D01*
X1580801Y35323541D01*
X1620034Y35326974D01*
X1816208Y35344137D01*
X2044463Y35405297D01*
X2258630Y35505165D01*
X2403633Y35606697D01*
X4263315Y35606697D01*
X4283510Y35427451D01*
X4283511Y35427446D01*
X4343091Y35257177D01*
X4407068Y35155359D01*
X4439064Y35104438D01*
X4566618Y34976884D01*
X4576570Y34970631D01*
X4718485Y34881459D01*
X4719358Y34880911D01*
X4881552Y34824157D01*
X4889625Y34821332D01*
X4889630Y34821331D01*
X5068876Y34801135D01*
X5068880Y34801135D01*
X5068884Y34801135D01*
X5248129Y34821331D01*
X5248131Y34821332D01*
X5248135Y34821332D01*
X5248138Y34821334D01*
X5248142Y34821334D01*
X5299180Y34839194D01*
X5418402Y34880911D01*
X5418411Y34880918D01*
X5424679Y34883934D01*
X5425870Y34881459D01*
X5481084Y34897096D01*
X5545863Y34878097D01*
X5638057Y34820167D01*
X5808318Y34760590D01*
X5808324Y34760588D01*
X5808329Y34760587D01*
X5987575Y34740391D01*
X5987579Y34740391D01*
X5987583Y34740391D01*
X6166828Y34760587D01*
X6166830Y34760588D01*
X6166834Y34760588D01*
X6166837Y34760590D01*
X6166841Y34760590D01*
X6338325Y34820595D01*
X6408104Y34824157D01*
X6468731Y34789429D01*
X6496321Y34744509D01*
X6505008Y34719681D01*
X6552472Y34644144D01*
X6600984Y34566938D01*
X6728538Y34439384D01*
X6881278Y34343411D01*
X7020709Y34294622D01*
X7051545Y34283832D01*
X7051550Y34283831D01*
X7230796Y34263635D01*
X7230800Y34263635D01*
X7230804Y34263635D01*
X7410049Y34283831D01*
X7410052Y34283832D01*
X7410055Y34283832D01*
X7580322Y34343411D01*
X7733062Y34439384D01*
X7860616Y34566938D01*
X7956589Y34719678D01*
X8016168Y34889945D01*
X8019120Y34916140D01*
X8025259Y34970631D01*
X8052325Y35035046D01*
X8109919Y35074601D01*
X8179756Y35076740D01*
X8189434Y35073790D01*
X8285306Y35040243D01*
X8285312Y35040242D01*
X8285314Y35040241D01*
X8285315Y35040241D01*
X8285319Y35040240D01*
X8464565Y35020044D01*
X8464569Y35020044D01*
X8464573Y35020044D01*
X8643818Y35040240D01*
X8643821Y35040241D01*
X8643824Y35040241D01*
X8814091Y35099820D01*
X8966831Y35195793D01*
X9094385Y35323347D01*
X9190358Y35476087D01*
X9249937Y35646354D01*
X9249938Y35646360D01*
X9270134Y35825606D01*
X9270134Y35825613D01*
X9249938Y36004859D01*
X9249937Y36004864D01*
X9216730Y36099764D01*
X9190358Y36175131D01*
X9180683Y36190528D01*
X9094384Y36327872D01*
X8961907Y36460349D01*
X8963402Y36461845D01*
X8929138Y36510668D01*
X8923374Y36564302D01*
X8941996Y36729578D01*
X8941996Y36729584D01*
X8921800Y36908830D01*
X8921799Y36908835D01*
X8865518Y37069677D01*
X8862220Y37079102D01*
X8766247Y37231842D01*
X8638693Y37359396D01*
X8485954Y37455369D01*
X8315685Y37514949D01*
X8315680Y37514950D01*
X8136435Y37535145D01*
X8136427Y37535145D01*
X7957181Y37514950D01*
X7957176Y37514949D01*
X7786907Y37455369D01*
X7634168Y37359396D01*
X7506615Y37231843D01*
X7410642Y37079104D01*
X7351062Y36908835D01*
X7351061Y36908830D01*
X7330866Y36729584D01*
X7330866Y36729575D01*
X7339411Y36653729D01*
X7327356Y36584908D01*
X7280006Y36533529D01*
X7212396Y36515905D01*
X7150218Y36534854D01*
X7099386Y36566795D01*
X6929116Y36626375D01*
X6929111Y36626376D01*
X6749866Y36646571D01*
X6749858Y36646571D01*
X6570612Y36626376D01*
X6570607Y36626375D01*
X6400338Y36566795D01*
X6247601Y36470823D01*
X6156274Y36379496D01*
X6094950Y36346012D01*
X6054710Y36343958D01*
X5987583Y36351521D01*
X5987575Y36351521D01*
X5808329Y36331326D01*
X5808316Y36331323D01*
X5638057Y36271746D01*
X5631785Y36268725D01*
X5630602Y36271181D01*
X5575255Y36255562D01*
X5510594Y36274561D01*
X5418403Y36332489D01*
X5248134Y36392069D01*
X5248129Y36392070D01*
X5068884Y36412265D01*
X5068876Y36412265D01*
X4889630Y36392070D01*
X4889625Y36392069D01*
X4719356Y36332489D01*
X4566617Y36236516D01*
X4439064Y36108963D01*
X4343091Y35956224D01*
X4283511Y35785955D01*
X4283510Y35785950D01*
X4263315Y35606704D01*
X4263315Y35606697D01*
X2403633Y35606697D01*
X2452201Y35640705D01*
X2619295Y35807799D01*
X2754835Y36001370D01*
X2854703Y36215537D01*
X2915863Y36443792D01*
X2936459Y36679200D01*
X2915863Y36914608D01*
X2854703Y37142863D01*
X2754835Y37357029D01*
X2644259Y37514948D01*
X2619296Y37550600D01*
X2571441Y37598455D01*
X2497367Y37672529D01*
X2463884Y37733849D01*
X2468868Y37803541D01*
X2510739Y37859475D01*
X2541715Y37876390D01*
X2673131Y37925404D01*
X2788346Y38011654D01*
X2874596Y38126869D01*
X2902058Y38200498D01*
X2943928Y38256432D01*
X3009393Y38280850D01*
X3032123Y38280386D01*
X3180796Y38263635D01*
X3180800Y38263635D01*
X3180804Y38263635D01*
X3360049Y38283831D01*
X3360052Y38283832D01*
X3360055Y38283832D01*
X3530322Y38343411D01*
X3683062Y38439384D01*
X3810616Y38566938D01*
X3906589Y38719678D01*
X3966168Y38889945D01*
X3971802Y38939946D01*
X3986365Y39069197D01*
X3986365Y39069204D01*
X3980732Y39119197D01*
X5912735Y39119197D01*
X5932930Y38939951D01*
X5932931Y38939946D01*
X5992511Y38769677D01*
X6050784Y38676937D01*
X6088484Y38616938D01*
X6216038Y38489384D01*
X6306380Y38432618D01*
X6368109Y38393831D01*
X6368778Y38393411D01*
X6499184Y38347780D01*
X6539045Y38333832D01*
X6539050Y38333831D01*
X6718296Y38313635D01*
X6718300Y38313635D01*
X6718304Y38313635D01*
X6897549Y38333831D01*
X6897552Y38333832D01*
X6897555Y38333832D01*
X7067822Y38393411D01*
X7220562Y38489384D01*
X7348116Y38616938D01*
X7444089Y38769678D01*
X7503668Y38939945D01*
X7503669Y38939951D01*
X7523865Y39119197D01*
X7523865Y39119204D01*
X7503669Y39298450D01*
X7503668Y39298455D01*
X7444088Y39468724D01*
X7348115Y39621463D01*
X7220562Y39749016D01*
X7067823Y39844989D01*
X6897554Y39904569D01*
X6897549Y39904570D01*
X6718304Y39924765D01*
X6718296Y39924765D01*
X6539050Y39904570D01*
X6539045Y39904569D01*
X6368776Y39844989D01*
X6216037Y39749016D01*
X6088484Y39621463D01*
X5992511Y39468724D01*
X5932931Y39298455D01*
X5932930Y39298450D01*
X5912735Y39119204D01*
X5912735Y39119197D01*
X3980732Y39119197D01*
X3966169Y39248450D01*
X3966168Y39248455D01*
X3927679Y39358449D01*
X3906589Y39418722D01*
X3810616Y39571462D01*
X3683062Y39699016D01*
X3603488Y39749016D01*
X3530323Y39794989D01*
X3360054Y39854569D01*
X3360049Y39854570D01*
X3180804Y39874765D01*
X3180796Y39874765D01*
X3069182Y39862190D01*
X3000360Y39874245D01*
X2948981Y39921594D01*
X2931299Y39985410D01*
X2931299Y40117071D01*
X2931298Y40117077D01*
X2924891Y40176684D01*
X2880613Y40295399D01*
X2875629Y40365091D01*
X2905173Y40419197D01*
X4150235Y40419197D01*
X4170430Y40239951D01*
X4170431Y40239946D01*
X4230011Y40069677D01*
X4309244Y39943580D01*
X4325984Y39916938D01*
X4453538Y39789384D01*
X4479938Y39772796D01*
X4597357Y39699016D01*
X4606278Y39693411D01*
X4776545Y39633832D01*
X4776550Y39633831D01*
X4955796Y39613635D01*
X4955800Y39613635D01*
X4955804Y39613635D01*
X5135049Y39633831D01*
X5135052Y39633832D01*
X5135055Y39633832D01*
X5305322Y39693411D01*
X5458062Y39789384D01*
X5585616Y39916938D01*
X5681589Y40069678D01*
X5741168Y40239945D01*
X5749234Y40311531D01*
X5761365Y40419197D01*
X5761365Y40419204D01*
X5741169Y40598450D01*
X5741168Y40598455D01*
X5738657Y40605632D01*
X5681589Y40768722D01*
X5645607Y40825987D01*
X5626607Y40893223D01*
X5636751Y40926513D01*
X5617100Y40923891D01*
X5553844Y40953562D01*
X5548317Y40958761D01*
X5458062Y41049016D01*
X5305323Y41144989D01*
X5135054Y41204569D01*
X5135049Y41204570D01*
X4955804Y41224765D01*
X4955796Y41224765D01*
X4776550Y41204570D01*
X4776545Y41204569D01*
X4606276Y41144989D01*
X4453537Y41049016D01*
X4325984Y40921463D01*
X4230011Y40768724D01*
X4170431Y40598455D01*
X4170430Y40598450D01*
X4150235Y40419204D01*
X4150235Y40419197D01*
X2905173Y40419197D01*
X2909114Y40426414D01*
X2930823Y40443726D01*
X3083062Y40539384D01*
X3210616Y40666938D01*
X3306589Y40819678D01*
X3366168Y40989945D01*
X3368194Y41007922D01*
X3386365Y41169197D01*
X3386365Y41169204D01*
X3366169Y41348450D01*
X3366168Y41348455D01*
X3307073Y41517339D01*
X3306589Y41518722D01*
X3210616Y41671462D01*
X3100059Y41782019D01*
X3066574Y41843342D01*
X3071558Y41913034D01*
X3113430Y41968967D01*
X3178894Y41993384D01*
X3187740Y41993700D01*
X5573980Y41993700D01*
X5641019Y41974015D01*
G37*
%TD.AperFunction*%
%TA.AperFunction,Conductor*%
G36*
X10724388Y38451414D02*
G01*
X10769608Y38398152D01*
X10780300Y38347780D01*
X10780300Y37882890D01*
X10760615Y37815851D01*
X10707811Y37770096D01*
X10638653Y37760152D01*
X10575097Y37789177D01*
X10551307Y37816917D01*
X10485617Y37921461D01*
X10358062Y38049016D01*
X10202370Y38146844D01*
X10156079Y38199179D01*
X10145431Y38268233D01*
X10173806Y38332081D01*
X10232196Y38370453D01*
X10254459Y38375058D01*
X10421068Y38393830D01*
X10421071Y38393831D01*
X10421074Y38393831D01*
X10591341Y38453410D01*
X10591342Y38453412D01*
X10591348Y38453413D01*
X10597614Y38456430D01*
X10598292Y38455022D01*
X10657550Y38471774D01*
X10724388Y38451414D01*
G37*
%TD.AperFunction*%
%TD*%
M02*
