%TF.GenerationSoftware,KiCad,Pcbnew,8.0.0*%
%TF.CreationDate,2025-08-09T21:47:33-07:00*%
%TF.ProjectId,it sure is getting hot in here,69742073-7572-4652-9069-732067657474,rev?*%
%TF.SameCoordinates,Original*%
%TF.FileFunction,Copper,L1,Top*%
%TF.FilePolarity,Positive*%
%FSLAX46Y46*%
G04 Gerber Fmt 4.6, Leading zero omitted, Abs format (unit mm)*
G04 Created by KiCad (PCBNEW 8.0.0) date 2025-08-09 21:47:33*
%MOMM*%
%LPD*%
G01*
G04 APERTURE LIST*
G04 Aperture macros list*
%AMRoundRect*
0 Rectangle with rounded corners*
0 $1 Rounding radius*
0 $2 $3 $4 $5 $6 $7 $8 $9 X,Y pos of 4 corners*
0 Add a 4 corners polygon primitive as box body*
4,1,4,$2,$3,$4,$5,$6,$7,$8,$9,$2,$3,0*
0 Add four circle primitives for the rounded corners*
1,1,$1+$1,$2,$3*
1,1,$1+$1,$4,$5*
1,1,$1+$1,$6,$7*
1,1,$1+$1,$8,$9*
0 Add four rect primitives between the rounded corners*
20,1,$1+$1,$2,$3,$4,$5,0*
20,1,$1+$1,$4,$5,$6,$7,0*
20,1,$1+$1,$6,$7,$8,$9,0*
20,1,$1+$1,$8,$9,$2,$3,0*%
G04 Aperture macros list end*
%TA.AperFunction,SMDPad,CuDef*%
%ADD10RoundRect,0.218750X-0.256250X0.218750X-0.256250X-0.218750X0.256250X-0.218750X0.256250X0.218750X0*%
%TD*%
%TA.AperFunction,SMDPad,CuDef*%
%ADD11RoundRect,0.218750X0.256250X-0.218750X0.256250X0.218750X-0.256250X0.218750X-0.256250X-0.218750X0*%
%TD*%
%TA.AperFunction,SMDPad,CuDef*%
%ADD12RoundRect,0.075000X-0.075000X0.337500X-0.075000X-0.337500X0.075000X-0.337500X0.075000X0.337500X0*%
%TD*%
%TA.AperFunction,SMDPad,CuDef*%
%ADD13RoundRect,0.075000X-0.337500X0.075000X-0.337500X-0.075000X0.337500X-0.075000X0.337500X0.075000X0*%
%TD*%
%TA.AperFunction,HeatsinkPad*%
%ADD14R,3.250000X3.250000*%
%TD*%
%TA.AperFunction,SMDPad,CuDef*%
%ADD15RoundRect,0.135000X-0.185000X0.135000X-0.185000X-0.135000X0.185000X-0.135000X0.185000X0.135000X0*%
%TD*%
%TA.AperFunction,ComponentPad*%
%ADD16R,1.700000X1.700000*%
%TD*%
%TA.AperFunction,ComponentPad*%
%ADD17O,1.700000X1.700000*%
%TD*%
%TA.AperFunction,SMDPad,CuDef*%
%ADD18RoundRect,0.140000X-0.170000X0.140000X-0.170000X-0.140000X0.170000X-0.140000X0.170000X0.140000X0*%
%TD*%
%TA.AperFunction,SMDPad,CuDef*%
%ADD19RoundRect,0.140000X-0.140000X-0.170000X0.140000X-0.170000X0.140000X0.170000X-0.140000X0.170000X0*%
%TD*%
%TA.AperFunction,SMDPad,CuDef*%
%ADD20RoundRect,0.150000X0.650000X0.150000X-0.650000X0.150000X-0.650000X-0.150000X0.650000X-0.150000X0*%
%TD*%
%TA.AperFunction,SMDPad,CuDef*%
%ADD21R,0.800000X1.800000*%
%TD*%
%TA.AperFunction,SMDPad,CuDef*%
%ADD22R,1.800000X3.100000*%
%TD*%
%TA.AperFunction,SMDPad,CuDef*%
%ADD23R,1.000000X0.800000*%
%TD*%
%TA.AperFunction,SMDPad,CuDef*%
%ADD24RoundRect,0.140000X0.170000X-0.140000X0.170000X0.140000X-0.170000X0.140000X-0.170000X-0.140000X0*%
%TD*%
%TA.AperFunction,SMDPad,CuDef*%
%ADD25RoundRect,0.135000X0.185000X-0.135000X0.185000X0.135000X-0.185000X0.135000X-0.185000X-0.135000X0*%
%TD*%
%TA.AperFunction,SMDPad,CuDef*%
%ADD26RoundRect,0.150000X-0.150000X0.512500X-0.150000X-0.512500X0.150000X-0.512500X0.150000X0.512500X0*%
%TD*%
%TA.AperFunction,SMDPad,CuDef*%
%ADD27RoundRect,0.150000X-0.587500X-0.150000X0.587500X-0.150000X0.587500X0.150000X-0.587500X0.150000X0*%
%TD*%
%TA.AperFunction,SMDPad,CuDef*%
%ADD28RoundRect,0.135000X-0.135000X-0.185000X0.135000X-0.185000X0.135000X0.185000X-0.135000X0.185000X0*%
%TD*%
%TA.AperFunction,SMDPad,CuDef*%
%ADD29RoundRect,0.140000X0.140000X0.170000X-0.140000X0.170000X-0.140000X-0.170000X0.140000X-0.170000X0*%
%TD*%
%TA.AperFunction,SMDPad,CuDef*%
%ADD30RoundRect,0.050000X0.387500X0.050000X-0.387500X0.050000X-0.387500X-0.050000X0.387500X-0.050000X0*%
%TD*%
%TA.AperFunction,SMDPad,CuDef*%
%ADD31RoundRect,0.050000X0.050000X0.387500X-0.050000X0.387500X-0.050000X-0.387500X0.050000X-0.387500X0*%
%TD*%
%TA.AperFunction,HeatsinkPad*%
%ADD32R,3.200000X3.200000*%
%TD*%
%TA.AperFunction,ViaPad*%
%ADD33C,0.600000*%
%TD*%
%TA.AperFunction,ViaPad*%
%ADD34C,1.000000*%
%TD*%
%TA.AperFunction,Conductor*%
%ADD35C,0.200000*%
%TD*%
%TA.AperFunction,Conductor*%
%ADD36C,0.500000*%
%TD*%
%TA.AperFunction,Conductor*%
%ADD37C,1.000000*%
%TD*%
G04 APERTURE END LIST*
D10*
%TO.P,D3,1,K*%
%TO.N,Net-(D3-K)*%
X705800Y34431700D03*
%TO.P,D3,2,A*%
%TO.N,+3V3*%
X705800Y32856700D03*
%TD*%
D11*
%TO.P,D1,1,K*%
%TO.N,GND*%
X805800Y13106700D03*
%TO.P,D1,2,A*%
%TO.N,Net-(D1-A)*%
X805800Y14681700D03*
%TD*%
D12*
%TO.P,U1,1,BIAS*%
%TO.N,Net-(U1-BIAS)*%
X8018300Y41556700D03*
%TO.P,U1,2,REFIN+*%
X7368300Y41556700D03*
%TO.P,U1,3,REFIN-*%
%TO.N,Net-(U1-ISENSOR)*%
X6718300Y41556700D03*
%TO.P,U1,4,ISENSOR*%
X6068300Y41556700D03*
%TO.P,U1,5,FORCE+*%
%TO.N,Net-(J1-Pin_1)*%
X5418300Y41556700D03*
D13*
%TO.P,U1,6,FORCE2*%
%TO.N,GND*%
X4280800Y40419200D03*
%TO.P,U1,7,RTDIN+*%
%TO.N,Net-(J1-Pin_1)*%
X4280800Y39769200D03*
%TO.P,U1,8,RTDIN-*%
%TO.N,Net-(J1-Pin_2)*%
X4280800Y39119200D03*
%TO.P,U1,9,FORCE-*%
X4280800Y38469200D03*
%TO.P,U1,10,GND*%
%TO.N,GND*%
X4280800Y37819200D03*
D12*
%TO.P,U1,11,SDI*%
%TO.N,/MOSI*%
X5418300Y36681700D03*
%TO.P,U1,12,SCLK*%
%TO.N,/SCLK*%
X6068300Y36681700D03*
%TO.P,U1,13,~{CS}*%
%TO.N,/MAX2_CS*%
X6718300Y36681700D03*
%TO.P,U1,14,SDO*%
%TO.N,/MISO*%
X7368300Y36681700D03*
%TO.P,U1,15,DGND*%
%TO.N,GND*%
X8018300Y36681700D03*
D13*
%TO.P,U1,16,GND*%
X9155800Y37819200D03*
%TO.P,U1,17,NC*%
%TO.N,unconnected-(U1-NC-Pad17)*%
X9155800Y38469200D03*
%TO.P,U1,18,~{DRDY}*%
%TO.N,/DRDY2*%
X9155800Y39119200D03*
%TO.P,U1,19,DVDD*%
%TO.N,+3V3*%
X9155800Y39769200D03*
%TO.P,U1,20,VDD*%
X9155800Y40419200D03*
D14*
%TO.P,U1,21,GND*%
%TO.N,GND*%
X6718300Y39119200D03*
%TD*%
D15*
%TO.P,R10,1*%
%TO.N,Net-(U1-BIAS)*%
X10380800Y41654200D03*
%TO.P,R10,2*%
%TO.N,Net-(U1-ISENSOR)*%
X10380800Y40634200D03*
%TD*%
D16*
%TO.P,J1,1,Pin_1*%
%TO.N,Net-(J1-Pin_1)*%
X1580800Y39219200D03*
D17*
%TO.P,J1,2,Pin_2*%
%TO.N,Net-(J1-Pin_2)*%
X1580800Y36679200D03*
%TD*%
D18*
%TO.P,C4,1*%
%TO.N,+3V3*%
X10355800Y38399200D03*
%TO.P,C4,2*%
%TO.N,GND*%
X10355800Y37439200D03*
%TD*%
D19*
%TO.P,C3,1*%
%TO.N,Net-(J1-Pin_1)*%
X1675800Y41619200D03*
%TO.P,C3,2*%
%TO.N,Net-(J1-Pin_2)*%
X2635800Y41619200D03*
%TD*%
D20*
%TO.P,U5,1,~{CS}*%
%TO.N,/QSPI_SS*%
X9830800Y10591800D03*
%TO.P,U5,2,DO(IO1)*%
%TO.N,/QSPI_SD1*%
X9830800Y11861800D03*
%TO.P,U5,3,IO2*%
%TO.N,/QSPI_SD2*%
X9830800Y13131800D03*
%TO.P,U5,4,GND*%
%TO.N,GND*%
X9830800Y14401800D03*
%TO.P,U5,5,DI(IO0)*%
%TO.N,/QSPI_SDO*%
X2630800Y14401800D03*
%TO.P,U5,6,CLK*%
%TO.N,/QSPI_SCLK*%
X2630800Y13131800D03*
%TO.P,U5,7,IO3*%
%TO.N,/QSPI_SD3*%
X2630800Y11861800D03*
%TO.P,U5,8,VCC*%
%TO.N,+3V3*%
X2630800Y10591800D03*
%TD*%
D21*
%TO.P,C1000,1,Pin_1*%
%TO.N,/BATT POSTSW*%
X3675800Y4166700D03*
%TO.P,C1000,2,Pin_2*%
%TO.N,/USB_D-*%
X4935800Y4166700D03*
%TO.P,C1000,3,Pin_3*%
%TO.N,/USB_D+*%
X6175800Y4166700D03*
%TO.P,C1000,4,Pin_4*%
%TO.N,GND*%
X7425800Y4166700D03*
D22*
%TO.P,C1000,5*%
%TO.N,N/C*%
X1125800Y1626700D03*
%TO.P,C1000,6*%
X9985800Y1626700D03*
%TD*%
D23*
%TO.P,X1,1,OE/NC*%
%TO.N,+3V3*%
X8469200Y27676400D03*
%TO.P,X1,2,GND*%
%TO.N,GND*%
X6669200Y27676400D03*
%TO.P,X1,3,OUT*%
%TO.N,/XIN*%
X6669200Y26476400D03*
%TO.P,X1,4,VDD*%
%TO.N,+3V3*%
X8469200Y26476400D03*
%TD*%
D16*
%TO.P,J2,1,Pin_1*%
%TO.N,Net-(J2-Pin_1)*%
X1625600Y30713600D03*
D17*
%TO.P,J2,2,Pin_2*%
%TO.N,Net-(J2-Pin_2)*%
X1625600Y28173600D03*
%TD*%
D18*
%TO.P,C21,1*%
%TO.N,+3V3*%
X660400Y22501800D03*
%TO.P,C21,2*%
%TO.N,GND*%
X660400Y21541800D03*
%TD*%
%TO.P,C9,1*%
%TO.N,+3V3*%
X10405800Y30924200D03*
%TO.P,C9,2*%
%TO.N,GND*%
X10405800Y29964200D03*
%TD*%
D24*
%TO.P,C8,1*%
%TO.N,+3V3*%
X10363200Y33327400D03*
%TO.P,C8,2*%
%TO.N,GND*%
X10363200Y34287400D03*
%TD*%
D25*
%TO.P,R7,1*%
%TO.N,+BATT*%
X9255800Y5734200D03*
%TO.P,R7,2*%
%TO.N,/BATT SENSE *%
X9255800Y6754200D03*
%TD*%
D24*
%TO.P,C10,1*%
%TO.N,+1V1*%
X4419600Y26164600D03*
%TO.P,C10,2*%
%TO.N,GND*%
X4419600Y27124600D03*
%TD*%
D18*
%TO.P,C15,1*%
%TO.N,+3V3*%
X1705800Y16874200D03*
%TO.P,C15,2*%
%TO.N,GND*%
X1705800Y15914200D03*
%TD*%
D12*
%TO.P,U3,1,BIAS*%
%TO.N,Net-(U3-BIAS)*%
X8080800Y34244200D03*
%TO.P,U3,2,REFIN+*%
X7430800Y34244200D03*
%TO.P,U3,3,REFIN-*%
%TO.N,Net-(U3-ISENSOR)*%
X6780800Y34244200D03*
%TO.P,U3,4,ISENSOR*%
X6130800Y34244200D03*
%TO.P,U3,5,FORCE+*%
%TO.N,Net-(J2-Pin_1)*%
X5480800Y34244200D03*
D13*
%TO.P,U3,6,FORCE2*%
%TO.N,GND*%
X4343300Y33106700D03*
%TO.P,U3,7,RTDIN+*%
%TO.N,Net-(J2-Pin_1)*%
X4343300Y32456700D03*
%TO.P,U3,8,RTDIN-*%
%TO.N,Net-(J2-Pin_2)*%
X4343300Y31806700D03*
%TO.P,U3,9,FORCE-*%
X4343300Y31156700D03*
%TO.P,U3,10,GND*%
%TO.N,GND*%
X4343300Y30506700D03*
D12*
%TO.P,U3,11,SDI*%
%TO.N,/MOSI*%
X5480800Y29369200D03*
%TO.P,U3,12,SCLK*%
%TO.N,/SCLK*%
X6130800Y29369200D03*
%TO.P,U3,13,~{CS}*%
%TO.N,/MAX_CS*%
X6780800Y29369200D03*
%TO.P,U3,14,SDO*%
%TO.N,/MISO*%
X7430800Y29369200D03*
%TO.P,U3,15,DGND*%
%TO.N,GND*%
X8080800Y29369200D03*
D13*
%TO.P,U3,16,GND*%
X9218300Y30506700D03*
%TO.P,U3,17,NC*%
%TO.N,unconnected-(U3-NC-Pad17)*%
X9218300Y31156700D03*
%TO.P,U3,18,~{DRDY}*%
%TO.N,/DRDY*%
X9218300Y31806700D03*
%TO.P,U3,19,DVDD*%
%TO.N,+3V3*%
X9218300Y32456700D03*
%TO.P,U3,20,VDD*%
X9218300Y33106700D03*
D14*
%TO.P,U3,21,GND*%
%TO.N,GND*%
X6780800Y31806700D03*
%TD*%
D18*
%TO.P,C22,1*%
%TO.N,+3V3*%
X635000Y18920400D03*
%TO.P,C22,2*%
%TO.N,GND*%
X635000Y17960400D03*
%TD*%
D15*
%TO.P,R5,1*%
%TO.N,/RP USB_D-*%
X3632200Y16816800D03*
%TO.P,R5,2*%
%TO.N,/USB_D-*%
X3632200Y15796800D03*
%TD*%
D24*
%TO.P,C12,1*%
%TO.N,+3V3*%
X787400Y10569000D03*
%TO.P,C12,2*%
%TO.N,GND*%
X787400Y11529000D03*
%TD*%
D18*
%TO.P,C19,1*%
%TO.N,+3V3*%
X9880600Y22324000D03*
%TO.P,C19,2*%
%TO.N,GND*%
X9880600Y21364000D03*
%TD*%
D26*
%TO.P,U2,1,GND*%
%TO.N,GND*%
X6755300Y8706700D03*
%TO.P,U2,2,Vout*%
%TO.N,+3V3*%
X4855300Y8706700D03*
%TO.P,U2,3,Vin*%
%TO.N,+BATT*%
X5805300Y6431700D03*
%TD*%
D27*
%TO.P,Q2,1,G*%
%TO.N,GND*%
X1230800Y8844200D03*
%TO.P,Q2,2,S*%
%TO.N,+BATT*%
X1230800Y6944200D03*
%TO.P,Q2,3,D*%
%TO.N,/BATT POSTSW*%
X3105800Y7894200D03*
%TD*%
D18*
%TO.P,C14,1*%
%TO.N,+3V3*%
X10033000Y26438800D03*
%TO.P,C14,2*%
%TO.N,GND*%
X10033000Y25478800D03*
%TD*%
%TO.P,C18,1*%
%TO.N,+3V3*%
X5537200Y16761400D03*
%TO.P,C18,2*%
%TO.N,GND*%
X5537200Y15801400D03*
%TD*%
D28*
%TO.P,R3,1*%
%TO.N,/QSPI_SS*%
X9065800Y9118600D03*
%TO.P,R3,2*%
%TO.N,/BOOTSEL*%
X10085800Y9118600D03*
%TD*%
D15*
%TO.P,R6,1*%
%TO.N,+3V3*%
X3454400Y27154600D03*
%TO.P,R6,2*%
%TO.N,/RUN*%
X3454400Y26134600D03*
%TD*%
D18*
%TO.P,C2,1*%
%TO.N,+3V3*%
X10255800Y5509200D03*
%TO.P,C2,2*%
%TO.N,GND*%
X10255800Y4549200D03*
%TD*%
D29*
%TO.P,C16,1*%
%TO.N,/BATT SENSE *%
X8963600Y7670800D03*
%TO.P,C16,2*%
%TO.N,GND*%
X8003600Y7670800D03*
%TD*%
D25*
%TO.P,R8,1*%
%TO.N,/BATT SENSE *%
X10330800Y6703600D03*
%TO.P,R8,2*%
%TO.N,GND*%
X10330800Y7723600D03*
%TD*%
D30*
%TO.P,U6,1,IOVDD*%
%TO.N,+3V3*%
X8707900Y18926600D03*
%TO.P,U6,2,GPIO0*%
%TO.N,unconnected-(U6-GPIO0-Pad2)*%
X8707900Y19326600D03*
%TO.P,U6,3,GPIO1*%
%TO.N,unconnected-(U6-GPIO1-Pad3)*%
X8707900Y19726600D03*
%TO.P,U6,4,GPIO2*%
%TO.N,unconnected-(U6-GPIO2-Pad4)*%
X8707900Y20126600D03*
%TO.P,U6,5,GPIO3*%
%TO.N,unconnected-(U6-GPIO3-Pad5)*%
X8707900Y20526600D03*
%TO.P,U6,6,GPIO4*%
%TO.N,unconnected-(U6-GPIO4-Pad6)*%
X8707900Y20926600D03*
%TO.P,U6,7,GPIO5*%
%TO.N,unconnected-(U6-GPIO5-Pad7)*%
X8707900Y21326600D03*
%TO.P,U6,8,GPIO6*%
%TO.N,unconnected-(U6-GPIO6-Pad8)*%
X8707900Y21726600D03*
%TO.P,U6,9,GPIO7*%
%TO.N,unconnected-(U6-GPIO7-Pad9)*%
X8707900Y22126600D03*
%TO.P,U6,10,IOVDD*%
%TO.N,+3V3*%
X8707900Y22526600D03*
%TO.P,U6,11,GPIO8*%
%TO.N,/LEDINDICATION*%
X8707900Y22926600D03*
%TO.P,U6,12,GPIO9*%
%TO.N,/DRDY*%
X8707900Y23326600D03*
%TO.P,U6,13,GPIO10*%
%TO.N,unconnected-(U6-GPIO10-Pad13)*%
X8707900Y23726600D03*
%TO.P,U6,14,GPIO11*%
%TO.N,unconnected-(U6-GPIO11-Pad14)*%
X8707900Y24126600D03*
D31*
%TO.P,U6,15,GPIO12*%
%TO.N,/DRDY2*%
X7870400Y24964100D03*
%TO.P,U6,16,GPIO13*%
%TO.N,/MAX2_CS*%
X7470400Y24964100D03*
%TO.P,U6,17,GPIO14*%
%TO.N,unconnected-(U6-GPIO14-Pad17)*%
X7070400Y24964100D03*
%TO.P,U6,18,GPIO15*%
%TO.N,unconnected-(U6-GPIO15-Pad18)*%
X6670400Y24964100D03*
%TO.P,U6,19,TESTEN*%
%TO.N,GND*%
X6270400Y24964100D03*
%TO.P,U6,20,XIN*%
%TO.N,/XIN*%
X5870400Y24964100D03*
%TO.P,U6,21,XOUT*%
%TO.N,unconnected-(U6-XOUT-Pad21)*%
X5470400Y24964100D03*
%TO.P,U6,22,IOVDD*%
%TO.N,+3V3*%
X5070400Y24964100D03*
%TO.P,U6,23,DVDD*%
%TO.N,+1V1*%
X4670400Y24964100D03*
%TO.P,U6,24,SWCLK*%
%TO.N,/SWCLK*%
X4270400Y24964100D03*
%TO.P,U6,25,SWD*%
%TO.N,/SWD*%
X3870400Y24964100D03*
%TO.P,U6,26,RUN*%
%TO.N,/RUN*%
X3470400Y24964100D03*
%TO.P,U6,27,GPIO16*%
%TO.N,/MISO*%
X3070400Y24964100D03*
%TO.P,U6,28,GPIO17*%
%TO.N,unconnected-(U6-GPIO17-Pad28)*%
X2670400Y24964100D03*
D30*
%TO.P,U6,29,GPIO18*%
%TO.N,/SCLK*%
X1832900Y24126600D03*
%TO.P,U6,30,GPIO19*%
%TO.N,/MOSI*%
X1832900Y23726600D03*
%TO.P,U6,31,GPIO20*%
%TO.N,unconnected-(U6-GPIO20-Pad31)*%
X1832900Y23326600D03*
%TO.P,U6,32,GPIO21*%
%TO.N,unconnected-(U6-GPIO21-Pad32)*%
X1832900Y22926600D03*
%TO.P,U6,33,IOVDD*%
%TO.N,+3V3*%
X1832900Y22526600D03*
%TO.P,U6,34,GPIO22*%
%TO.N,unconnected-(U6-GPIO22-Pad34)*%
X1832900Y22126600D03*
%TO.P,U6,35,GPIO23*%
%TO.N,unconnected-(U6-GPIO23-Pad35)*%
X1832900Y21726600D03*
%TO.P,U6,36,GPIO24*%
%TO.N,unconnected-(U6-GPIO24-Pad36)*%
X1832900Y21326600D03*
%TO.P,U6,37,GPIO25*%
%TO.N,/MAX_CS*%
X1832900Y20926600D03*
%TO.P,U6,38,GPIO26_ADC0*%
%TO.N,unconnected-(U6-GPIO26_ADC0-Pad38)*%
X1832900Y20526600D03*
%TO.P,U6,39,GPIO27_ADC1*%
%TO.N,unconnected-(U6-GPIO27_ADC1-Pad39)*%
X1832900Y20126600D03*
%TO.P,U6,40,GPIO28_ADC2*%
%TO.N,unconnected-(U6-GPIO28_ADC2-Pad40)*%
X1832900Y19726600D03*
%TO.P,U6,41,GPIO29_ADC3*%
%TO.N,/BATT SENSE *%
X1832900Y19326600D03*
%TO.P,U6,42,IOVDD*%
%TO.N,+3V3*%
X1832900Y18926600D03*
D31*
%TO.P,U6,43,ADC_AVDD*%
X2670400Y18089100D03*
%TO.P,U6,44,VREG_IN*%
X3070400Y18089100D03*
%TO.P,U6,45,VREG_VOUT*%
%TO.N,+1V1*%
X3470400Y18089100D03*
%TO.P,U6,46,USB_DM*%
%TO.N,/RP USB_D-*%
X3870400Y18089100D03*
%TO.P,U6,47,USB_DP*%
%TO.N,/RP USB_D+*%
X4270400Y18089100D03*
%TO.P,U6,48,USB_VDD*%
%TO.N,+3V3*%
X4670400Y18089100D03*
%TO.P,U6,49,IOVDD*%
X5070400Y18089100D03*
%TO.P,U6,50,DVDD*%
%TO.N,+1V1*%
X5470400Y18089100D03*
%TO.P,U6,51,QSPI_SD3*%
%TO.N,/QSPI_SD3*%
X5870400Y18089100D03*
%TO.P,U6,52,QSPI_SCLK*%
%TO.N,/QSPI_SCLK*%
X6270400Y18089100D03*
%TO.P,U6,53,QSPI_SD0*%
%TO.N,/QSPI_SDO*%
X6670400Y18089100D03*
%TO.P,U6,54,QSPI_SD2*%
%TO.N,/QSPI_SD2*%
X7070400Y18089100D03*
%TO.P,U6,55,QSPI_SD1*%
%TO.N,/QSPI_SD1*%
X7470400Y18089100D03*
%TO.P,U6,56,QSPI_SS*%
%TO.N,/QSPI_SS*%
X7870400Y18089100D03*
D32*
%TO.P,U6,57,GND*%
%TO.N,GND*%
X5270400Y21526600D03*
%TD*%
D15*
%TO.P,R2,1*%
%TO.N,Net-(U3-BIAS)*%
X2855800Y34229200D03*
%TO.P,R2,2*%
%TO.N,Net-(U3-ISENSOR)*%
X2855800Y33209200D03*
%TD*%
D18*
%TO.P,C17,1*%
%TO.N,+3V3*%
X9906000Y18920400D03*
%TO.P,C17,2*%
%TO.N,GND*%
X9906000Y17960400D03*
%TD*%
D24*
%TO.P,C20,1*%
%TO.N,+3V3*%
X5384800Y26164600D03*
%TO.P,C20,2*%
%TO.N,GND*%
X5384800Y27124600D03*
%TD*%
D25*
%TO.P,R9,1*%
%TO.N,/LEDINDICATION*%
X1905800Y33209200D03*
%TO.P,R9,2*%
%TO.N,Net-(D3-K)*%
X1905800Y34229200D03*
%TD*%
%TO.P,R4,1*%
%TO.N,/USB_D+*%
X4597400Y15949200D03*
%TO.P,R4,2*%
%TO.N,/RP USB_D+*%
X4597400Y16969200D03*
%TD*%
D18*
%TO.P,C7,1*%
%TO.N,Net-(J2-Pin_1)*%
X3230800Y31799200D03*
%TO.P,C7,2*%
%TO.N,Net-(J2-Pin_2)*%
X3230800Y30839200D03*
%TD*%
%TO.P,C13,1*%
%TO.N,+1V1*%
X2655800Y16874200D03*
%TO.P,C13,2*%
%TO.N,GND*%
X2655800Y15914200D03*
%TD*%
D24*
%TO.P,C1,1*%
%TO.N,+BATT*%
X8230800Y5768400D03*
%TO.P,C1,2*%
%TO.N,GND*%
X8230800Y6728400D03*
%TD*%
D25*
%TO.P,R1,1*%
%TO.N,Net-(D1-A)*%
X755800Y15909200D03*
%TO.P,R1,2*%
%TO.N,+3V3*%
X755800Y16929200D03*
%TD*%
D33*
%TO.N,/LEDINDICATION*%
X10205800Y24469200D03*
X1630800Y32219200D03*
%TO.N,+3V3*%
X580800Y32219200D03*
%TO.N,GND*%
X2255800Y15914200D03*
%TO.N,+3V3*%
X2005800Y17544200D03*
%TO.N,/DRDY*%
X9955800Y31769200D03*
X7580800Y22894200D03*
%TO.N,+3V3*%
X10405800Y22244200D03*
%TO.N,GND*%
X5955800Y15794200D03*
%TO.N,/MAX2_CS*%
X7530800Y24094200D03*
%TO.N,/MOSI*%
X3805800Y29794200D03*
%TO.N,/DRDY2*%
X8580800Y25044200D03*
%TO.N,Net-(U1-ISENSOR)*%
X6430800Y41519200D03*
X9740035Y41015077D03*
%TO.N,+3V3*%
X10036099Y38201961D03*
%TO.N,/DRDY2*%
X10241819Y39179199D03*
%TO.N,/MOSI*%
X5068880Y35545416D03*
%TO.N,/SCLK*%
X5987579Y35545956D03*
%TO.N,/MAX2_CS*%
X6749862Y35841006D03*
%TO.N,/MISO*%
X8464569Y35825609D03*
%TO.N,GND*%
X8136431Y36729580D03*
X4955800Y40419200D03*
X6718300Y39119200D03*
%TO.N,Net-(J1-Pin_2)*%
X2580800Y41169200D03*
X3180800Y39069200D03*
%TO.N,+3V3*%
X9930800Y39919200D03*
%TO.N,GND*%
X9855800Y37419200D03*
%TO.N,/USB_D+*%
X5880800Y3169200D03*
%TO.N,/USB_D-*%
X4955800Y2444200D03*
%TO.N,/QSPI_SD3*%
X6345361Y16958033D03*
%TO.N,/QSPI_SCLK*%
X5855800Y13643824D03*
%TO.N,/QSPI_SDO*%
X5905800Y14544200D03*
%TO.N,/QSPI_SS*%
X8903240Y17041640D03*
%TO.N,/QSPI_SD1*%
X9305800Y16144200D03*
X7805800Y14619200D03*
%TO.N,/QSPI_SS*%
X7780800Y15619206D03*
%TO.N,/QSPI_SDO*%
X7605800Y19469200D03*
%TO.N,/QSPI_SCLK*%
X6805800Y19426598D03*
%TO.N,/QSPI_SD3*%
X5955798Y19426550D03*
%TO.N,/BATT SENSE *%
X2780800Y19344200D03*
X8577184Y8315025D03*
%TO.N,GND*%
X10200000Y7994200D03*
%TO.N,+3V3*%
X5415745Y17151600D03*
%TO.N,+1V1*%
X5866402Y23869200D03*
%TO.N,/MOSI*%
X800000Y23369200D03*
X5030800Y29319200D03*
%TO.N,/MAX_CS*%
X2755800Y20944200D03*
%TO.N,/MISO*%
X2274096Y26396811D03*
%TO.N,/SWD*%
X3680800Y24044200D03*
%TO.N,/SWCLK*%
X4866400Y23626602D03*
%TO.N,/SCLK*%
X800000Y24244203D03*
%TO.N,/MAX_CS*%
X5180800Y27958845D03*
%TO.N,/SCLK*%
X3551925Y28819037D03*
%TO.N,/MISO*%
X8809123Y28900535D03*
%TO.N,GND*%
X9555800Y14819200D03*
%TO.N,/USB_D+*%
X4490394Y15589088D03*
%TO.N,/USB_D-*%
X3705800Y15069200D03*
%TO.N,Net-(U3-BIAS)*%
X2816351Y34018280D03*
X7230800Y35069200D03*
%TO.N,GND*%
X10240781Y34644144D03*
%TO.N,+3V3*%
X9805800Y32894200D03*
%TO.N,GND*%
X8555800Y30056432D03*
X8082700Y29744200D03*
X6782700Y31623000D03*
X9855800Y20869200D03*
X9880600Y17399000D03*
X4819047Y21526600D03*
X10480800Y25719200D03*
%TO.N,+3V3*%
X9610063Y26213537D03*
%TO.N,GND*%
X6380248Y27574298D03*
X5105800Y27124600D03*
%TO.N,+3V3*%
X5208584Y25860239D03*
X3425343Y27678959D03*
%TO.N,GND*%
X800000Y20929600D03*
%TO.N,+3V3*%
X1019247Y22527792D03*
%TO.N,GND*%
X1244600Y18034000D03*
%TO.N,+3V3*%
X1118099Y18834138D03*
D34*
%TO.N,GND*%
X7416800Y3124200D03*
D33*
%TO.N,+3V3*%
X10380800Y5894200D03*
D34*
%TO.N,GND*%
X6930800Y9575800D03*
D33*
X8243600Y10744200D03*
X812800Y11988800D03*
X8003600Y7162800D03*
%TO.N,+3V3*%
X1244600Y10569000D03*
X9496061Y18898415D03*
D34*
X4927600Y9525000D03*
D33*
%TO.N,+1V1*%
X5264144Y19023068D03*
%TO.N,/BOOTSEL*%
X9926845Y8799116D03*
%TD*%
D35*
%TO.N,/LEDINDICATION*%
X9880600Y24144000D02*
X10205800Y24469200D01*
X9880600Y23188200D02*
X9880600Y24144000D01*
X1905800Y32494200D02*
X1630800Y32219200D01*
X1905800Y33209200D02*
X1905800Y32494200D01*
%TO.N,+3V3*%
X705800Y32344200D02*
X580800Y32219200D01*
X705800Y32856700D02*
X705800Y32344200D01*
%TO.N,Net-(D3-K)*%
X1703300Y34431700D02*
X1905800Y34229200D01*
X705800Y34431700D02*
X1703300Y34431700D01*
%TO.N,GND*%
X2655800Y15914200D02*
X1705800Y15914200D01*
%TO.N,+1V1*%
X3133200Y17351600D02*
X2655800Y16874200D01*
X3470400Y18089100D02*
X3470400Y17555240D01*
X3470400Y17555240D02*
X3266760Y17351600D01*
X3266760Y17351600D02*
X3133200Y17351600D01*
%TO.N,+3V3*%
X2265800Y17434200D02*
X2155800Y17544200D01*
X2155800Y17544200D02*
X2005800Y17544200D01*
X2265800Y17434200D02*
X1705800Y16874200D01*
X2670400Y17838800D02*
X2265800Y17434200D01*
X3070400Y18089100D02*
X2670400Y18089100D01*
X2670400Y18089100D02*
X2670400Y17838800D01*
X1650800Y16929200D02*
X1705800Y16874200D01*
X755800Y16929200D02*
X1650800Y16929200D01*
%TO.N,Net-(D1-A)*%
X805800Y14681700D02*
X805800Y15859200D01*
X805800Y15859200D02*
X755800Y15909200D01*
%TO.N,Net-(U3-BIAS)*%
X2805800Y34028831D02*
X2805800Y34179200D01*
X2816351Y34018280D02*
X2805800Y34028831D01*
%TO.N,GND*%
X10240400Y25478800D02*
X10033000Y25478800D01*
X10480800Y25719200D02*
X10240400Y25478800D01*
%TO.N,/DRDY2*%
X8500700Y24964100D02*
X8580800Y25044200D01*
%TO.N,/MISO*%
X8381588Y28473000D02*
X8809123Y28900535D01*
X7432700Y29185500D02*
X7432700Y28773001D01*
X7432700Y28773001D02*
X7732701Y28473000D01*
X7732701Y28473000D02*
X8381588Y28473000D01*
%TO.N,/DRDY2*%
X7870400Y24964100D02*
X8500700Y24964100D01*
%TO.N,/DRDY*%
X9218300Y31806700D02*
X9918300Y31806700D01*
%TO.N,+3V3*%
X10605800Y32038439D02*
X10405800Y32238439D01*
X10405800Y30924200D02*
X10405800Y31299961D01*
%TO.N,/DRDY*%
X9918300Y31806700D02*
X9955800Y31769200D01*
%TO.N,+3V3*%
X10405800Y32238439D02*
X10405800Y32294200D01*
X10605800Y31499961D02*
X10605800Y32038439D01*
X10405800Y31299961D02*
X10605800Y31499961D01*
X10405800Y32294200D02*
X9805800Y32894200D01*
%TO.N,/DRDY*%
X8707900Y23326600D02*
X8013200Y23326600D01*
X8013200Y23326600D02*
X7580800Y22894200D01*
%TO.N,+3V3*%
X8707900Y22526600D02*
X10123400Y22526600D01*
X10123400Y22526600D02*
X10405800Y22244200D01*
X10341800Y5894200D02*
X9956800Y5509200D01*
X10380800Y5894200D02*
X10341800Y5894200D01*
%TO.N,Net-(J2-Pin_1)*%
X3568300Y32456700D02*
X3555800Y32444200D01*
X3555800Y32444200D02*
X3555800Y32124200D01*
X4343300Y32456700D02*
X3568300Y32456700D01*
X3555800Y33344200D02*
X3555800Y32444200D01*
X4272100Y34060500D02*
X3555800Y33344200D01*
X3555800Y32124200D02*
X3230800Y31799200D01*
X5482700Y34060500D02*
X4272100Y34060500D01*
%TO.N,Net-(U3-ISENSOR)*%
X3425800Y33779200D02*
X2805800Y33159200D01*
X3425800Y33989200D02*
X3425800Y33779200D01*
X4364971Y34928371D02*
X3425800Y33989200D01*
X5248390Y34956700D02*
X5220061Y34928371D01*
X5830799Y34956700D02*
X5248390Y34956700D01*
X6130800Y34656699D02*
X5830799Y34956700D01*
X6130800Y34244200D02*
X6130800Y34656699D01*
X5220061Y34928371D02*
X4364971Y34928371D01*
%TO.N,GND*%
X5948600Y15801400D02*
X5955800Y15794200D01*
X5537200Y15801400D02*
X5948600Y15801400D01*
%TO.N,/QSPI_SDO*%
X2343600Y14401800D02*
X5763400Y14401800D01*
X5763400Y14401800D02*
X5905800Y14544200D01*
%TO.N,/QSPI_SD3*%
X6580800Y13044200D02*
X6580800Y16722594D01*
X5398400Y11861800D02*
X6580800Y13044200D01*
X2343600Y11861800D02*
X5398400Y11861800D01*
X6580800Y16722594D02*
X6345361Y16958033D01*
%TO.N,GND*%
X5480800Y33106700D02*
X6780800Y31806700D01*
X4343300Y33106700D02*
X5480800Y33106700D01*
X5480800Y30506700D02*
X6780800Y31806700D01*
X4343300Y30506700D02*
X5480800Y30506700D01*
X9330800Y29964200D02*
X8648032Y29964200D01*
X9330800Y29964200D02*
X9218300Y30076700D01*
X9218300Y30076700D02*
X9218300Y30506700D01*
X10405800Y29964200D02*
X9330800Y29964200D01*
X8648032Y29964200D02*
X8555800Y30056432D01*
%TO.N,+3V3*%
X9368300Y32456700D02*
X9805800Y32894200D01*
X9218300Y32456700D02*
X9368300Y32456700D01*
%TO.N,/LEDINDICATION*%
X9619000Y22926600D02*
X9880600Y23188200D01*
X8707900Y22926600D02*
X9619000Y22926600D01*
%TO.N,/MOSI*%
X5418300Y35894836D02*
X5068880Y35545416D01*
X5418300Y36681700D02*
X5418300Y35894836D01*
%TO.N,GND*%
X8088551Y36681700D02*
X8136431Y36729580D01*
X8018300Y36681700D02*
X8088551Y36681700D01*
%TO.N,/MISO*%
X7811892Y35825609D02*
X8464569Y35825609D01*
X7368300Y36681700D02*
X7368300Y36269201D01*
%TO.N,GND*%
X10240781Y34409819D02*
X10240781Y34644144D01*
X10363200Y34287400D02*
X10240781Y34409819D01*
%TO.N,+3V3*%
X9830800Y32919200D02*
X9805800Y32894200D01*
%TO.N,/MISO*%
X7368300Y36269201D02*
X7811892Y35825609D01*
%TO.N,+3V3*%
X10363200Y32919200D02*
X9830800Y32919200D01*
%TO.N,/MAX2_CS*%
X7470400Y24154600D02*
X7530800Y24094200D01*
X7470400Y24964100D02*
X7470400Y24154600D01*
%TO.N,Net-(U3-BIAS)*%
X7430800Y34869200D02*
X7230800Y35069200D01*
X7430800Y34244200D02*
X7430800Y34869200D01*
%TO.N,/MAX2_CS*%
X6718300Y35872568D02*
X6749862Y35841006D01*
%TO.N,/SCLK*%
X6068300Y35626677D02*
X5987579Y35545956D01*
X6068300Y36681700D02*
X6068300Y35626677D01*
%TO.N,/MAX2_CS*%
X6718300Y36681700D02*
X6718300Y35872568D01*
%TO.N,Net-(U3-ISENSOR)*%
X2629990Y33159200D02*
X2613468Y33142678D01*
X2805800Y33159200D02*
X2629990Y33159200D01*
%TO.N,/MOSI*%
X4280800Y29319200D02*
X3805800Y29794200D01*
X5030800Y29319200D02*
X4280800Y29319200D01*
%TO.N,Net-(J2-Pin_2)*%
X3155800Y29703800D02*
X1625600Y28173600D01*
X3155800Y30764200D02*
X3155800Y29703800D01*
X3230800Y30839200D02*
X3155800Y30764200D01*
%TO.N,GND*%
X8822368Y30323000D02*
X8555800Y30056432D01*
X8289232Y30323000D02*
X8555800Y30056432D01*
X8082700Y30323000D02*
X8289232Y30323000D01*
X9220200Y30323000D02*
X8822368Y30323000D01*
%TO.N,/MISO*%
X3070400Y24964100D02*
X3070400Y25579676D01*
X3070400Y25579676D02*
X2274096Y26375980D01*
X2274096Y26375980D02*
X2274096Y26396811D01*
%TO.N,Net-(U1-ISENSOR)*%
X6393300Y41556700D02*
X6430800Y41519200D01*
X6068300Y41556700D02*
X6393300Y41556700D01*
X6718300Y41556700D02*
X6468300Y41556700D01*
X6468300Y41556700D02*
X6430800Y41519200D01*
X10120912Y40634200D02*
X9740035Y41015077D01*
X10380800Y40634200D02*
X10120912Y40634200D01*
%TO.N,+3V3*%
X10233338Y38399200D02*
X10036099Y38201961D01*
X10355800Y38399200D02*
X10233338Y38399200D01*
X9930800Y39919200D02*
X9780800Y39769200D01*
X9780800Y39769200D02*
X9155800Y39769200D01*
%TO.N,/DRDY2*%
X10181820Y39119200D02*
X10241819Y39179199D01*
X9155800Y39119200D02*
X10181820Y39119200D01*
%TO.N,GND*%
X9535800Y37439200D02*
X9155800Y37819200D01*
X10355800Y37439200D02*
X9535800Y37439200D01*
X4280800Y40419200D02*
X4955800Y40419200D01*
X4955800Y40419200D02*
X5418300Y40419200D01*
X5418300Y40419200D02*
X6718300Y39119200D01*
X5418300Y37819200D02*
X6718300Y39119200D01*
X4280800Y37819200D02*
X5418300Y37819200D01*
%TO.N,Net-(J1-Pin_1)*%
X3405800Y40489110D02*
X3405800Y39769200D01*
X5418300Y41556700D02*
X4473390Y41556700D01*
X4473390Y41556700D02*
X3405800Y40489110D01*
X3405800Y39769200D02*
X2130800Y39769200D01*
X4280800Y39769200D02*
X3405800Y39769200D01*
X1675800Y39314200D02*
X1580800Y39219200D01*
X1675800Y41619200D02*
X1675800Y39314200D01*
%TO.N,Net-(J1-Pin_2)*%
X2635800Y41224200D02*
X2580800Y41169200D01*
X2635800Y41619200D02*
X2635800Y41224200D01*
X3230800Y39119200D02*
X3180800Y39069200D01*
X4280800Y39119200D02*
X3230800Y39119200D01*
%TO.N,Net-(J1-Pin_1)*%
X2130800Y39769200D02*
X1580800Y39219200D01*
%TO.N,Net-(J1-Pin_2)*%
X3370800Y38469200D02*
X1580800Y36679200D01*
X4280800Y38469200D02*
X3370800Y38469200D01*
X4280800Y38469200D02*
X4280800Y39119200D01*
%TO.N,Net-(U1-BIAS)*%
X9080800Y41654200D02*
X8115800Y41654200D01*
X10380800Y41654200D02*
X9080800Y41654200D01*
X7368300Y41556700D02*
X8018300Y41556700D01*
X8115800Y41654200D02*
X8018300Y41556700D01*
%TO.N,+3V3*%
X9155800Y40419200D02*
X9155800Y39769200D01*
%TO.N,/USB_D-*%
X4917200Y2482800D02*
X4955800Y2444200D01*
X4917200Y4410100D02*
X4917200Y2482800D01*
%TO.N,/QSPI_SCLK*%
X2343600Y13131800D02*
X5343776Y13131800D01*
%TO.N,/USB_D+*%
X4490394Y15842194D02*
X4490394Y15589088D01*
X4597400Y15949200D02*
X4490394Y15842194D01*
%TO.N,/QSPI_SCLK*%
X5343776Y13131800D02*
X5855800Y13643824D01*
%TO.N,/QSPI_SS*%
X7205800Y14334885D02*
X7205800Y15044206D01*
X7205800Y15044206D02*
X7780800Y15619206D01*
X7280800Y14259885D02*
X7205800Y14334885D01*
X7280800Y12684048D02*
X7280800Y14259885D01*
X9373048Y10591800D02*
X7280800Y12684048D01*
X9543600Y10591800D02*
X9373048Y10591800D01*
%TO.N,/USB_D-*%
X3632200Y15142800D02*
X3705800Y15069200D01*
X3632200Y15796800D02*
X3632200Y15142800D01*
%TO.N,/QSPI_SD2*%
X7070400Y17313914D02*
X7070400Y18089100D01*
X8443600Y13431801D02*
X8443600Y15940714D01*
X8743601Y13131800D02*
X8443600Y13431801D01*
X9543600Y13131800D02*
X8743601Y13131800D01*
%TO.N,/QSPI_SD1*%
X7805800Y12799601D02*
X7805800Y14619200D01*
%TO.N,/QSPI_SD2*%
X8443600Y15940714D02*
X7070400Y17313914D01*
%TO.N,/QSPI_SD1*%
X9543600Y11861800D02*
X8743601Y11861800D01*
X8743601Y11861800D02*
X7805800Y12799601D01*
X8881440Y16144200D02*
X7470400Y17555240D01*
X9305800Y16144200D02*
X8881440Y16144200D01*
%TO.N,/QSPI_SS*%
X8903240Y17056260D02*
X8903240Y17041640D01*
X7870400Y18089100D02*
X8903240Y17056260D01*
%TO.N,/QSPI_SD1*%
X7470400Y17555240D02*
X7470400Y18089100D01*
%TO.N,/QSPI_SDO*%
X7605800Y19378069D02*
X7605800Y19469200D01*
X7054329Y18826598D02*
X7605800Y19378069D01*
X6788198Y18826598D02*
X7054329Y18826598D01*
X6670400Y18708800D02*
X6788198Y18826598D01*
X6670400Y18089100D02*
X6670400Y18708800D01*
%TO.N,/QSPI_SCLK*%
X6270400Y18891198D02*
X6805800Y19426598D01*
X6270400Y18089100D02*
X6270400Y18891198D01*
%TO.N,/QSPI_SD3*%
X5870400Y19341152D02*
X5955798Y19426550D01*
X5870400Y18089100D02*
X5870400Y19341152D01*
%TO.N,+1V1*%
X3870508Y19023068D02*
X5264144Y19023068D01*
X3470400Y18622960D02*
X3870508Y19023068D01*
X5470400Y18089100D02*
X5470400Y18816812D01*
X3470400Y18089100D02*
X3470400Y18622960D01*
X5470400Y18816812D02*
X5264144Y19023068D01*
%TO.N,/BATT SENSE *%
X2763200Y19326600D02*
X2780800Y19344200D01*
X1832900Y19326600D02*
X2763200Y19326600D01*
D36*
X8963600Y7928609D02*
X8577184Y8315025D01*
X8963600Y7670800D02*
X8963600Y7928609D01*
D35*
%TO.N,GND*%
X10007600Y7723600D02*
X10007600Y7801800D01*
%TO.N,/BOOTSEL*%
X10085800Y8958071D02*
X9926845Y8799116D01*
X10085800Y9118600D02*
X10085800Y8958071D01*
%TO.N,GND*%
X10007600Y7801800D02*
X10200000Y7994200D01*
%TO.N,+3V3*%
X5353924Y17151600D02*
X5415745Y17151600D01*
X5070400Y17435124D02*
X5353924Y17151600D01*
%TO.N,GND*%
X6270400Y24964100D02*
X6270400Y24384441D01*
X6516402Y23223955D02*
X4819047Y21526600D01*
X6516402Y24138439D02*
X6516402Y23223955D01*
X6270400Y24384441D02*
X6516402Y24138439D01*
%TO.N,+1V1*%
X5509002Y24226600D02*
X5866402Y23869200D01*
X4874040Y24226600D02*
X5509002Y24226600D01*
X4670400Y24964100D02*
X4670400Y24430240D01*
X4670400Y24430240D02*
X4874040Y24226600D01*
%TO.N,/SWCLK*%
X4866400Y23626602D02*
X4270400Y24222602D01*
X4270400Y24222602D02*
X4270400Y24964100D01*
%TO.N,+3V3*%
X3454400Y27649902D02*
X3425343Y27678959D01*
X3454400Y27154600D02*
X3454400Y27649902D01*
%TO.N,/XIN*%
X5870400Y25677600D02*
X5870400Y24964100D01*
X6669200Y26476400D02*
X5870400Y25677600D01*
%TO.N,/MOSI*%
X1157400Y23726600D02*
X1832900Y23726600D01*
X800000Y23369200D02*
X1157400Y23726600D01*
%TO.N,GND*%
X6669200Y27676400D02*
X6482350Y27676400D01*
X5930550Y27124600D02*
X6380248Y27574298D01*
X4978400Y27124600D02*
X5105800Y27124600D01*
%TO.N,/MAX_CS*%
X5581041Y27958845D02*
X5180800Y27958845D01*
X5998598Y28376402D02*
X5581041Y27958845D01*
X6780800Y28956701D02*
X6200501Y28376402D01*
X6780800Y29369200D02*
X6780800Y28956701D01*
%TO.N,GND*%
X5384800Y27124600D02*
X5930550Y27124600D01*
%TO.N,/SCLK*%
X3714262Y28656700D02*
X3551925Y28819037D01*
%TO.N,/MAX_CS*%
X6200501Y28376402D02*
X5998598Y28376402D01*
%TO.N,/SCLK*%
X6130800Y29369200D02*
X6130800Y29074290D01*
X6130800Y29074290D02*
X5713210Y28656700D01*
%TO.N,GND*%
X6482350Y27676400D02*
X6380248Y27574298D01*
%TO.N,/SCLK*%
X5713210Y28656700D02*
X3714262Y28656700D01*
%TO.N,/MOSI*%
X5080800Y29369200D02*
X5030800Y29319200D01*
X5480800Y29369200D02*
X5080800Y29369200D01*
%TO.N,/MAX_CS*%
X2738200Y20926600D02*
X2755800Y20944200D01*
X1832900Y20926600D02*
X2738200Y20926600D01*
%TO.N,/SWD*%
X3870400Y24233800D02*
X3680800Y24044200D01*
X3870400Y24964100D02*
X3870400Y24233800D01*
%TO.N,/SCLK*%
X1832900Y24126600D02*
X917603Y24126600D01*
X917603Y24126600D02*
X800000Y24244203D01*
%TO.N,GND*%
X9543600Y14807000D02*
X9555800Y14819200D01*
X9543600Y14401800D02*
X9543600Y14807000D01*
D37*
X6806100Y9451100D02*
X6930800Y9575800D01*
X6806100Y8503500D02*
X6806100Y9451100D01*
D35*
%TO.N,Net-(J2-Pin_1)*%
X2711200Y31799200D02*
X3230800Y31799200D01*
X1625600Y30713600D02*
X2711200Y31799200D01*
%TO.N,Net-(J2-Pin_2)*%
X3364600Y30973000D02*
X3230800Y30839200D01*
X4345200Y30973000D02*
X3364600Y30973000D01*
X4345200Y30973000D02*
X4345200Y31623000D01*
%TO.N,Net-(U3-ISENSOR)*%
X6782700Y34060500D02*
X6132700Y34060500D01*
%TO.N,Net-(U3-BIAS)*%
X8082700Y34060500D02*
X7432700Y34060500D01*
%TO.N,+3V3*%
X10363200Y32919200D02*
X10363200Y33327400D01*
%TO.N,GND*%
X8082700Y29185500D02*
X8082700Y30323000D01*
X8082700Y30323000D02*
X6782700Y31623000D01*
X9880600Y20894000D02*
X9855800Y20869200D01*
X9880600Y21364000D02*
X9880600Y20894000D01*
X9906000Y17424400D02*
X9880600Y17399000D01*
X9906000Y17960400D02*
X9906000Y17424400D01*
%TO.N,+3V3*%
X9995400Y26476400D02*
X10033000Y26438800D01*
X8469200Y26476400D02*
X9995400Y26476400D01*
X8469200Y27676400D02*
X8469200Y26476400D01*
%TO.N,GND*%
X4978400Y27124600D02*
X4419600Y27124600D01*
X5384800Y27124600D02*
X4978400Y27124600D01*
%TO.N,+3V3*%
X5070400Y25730200D02*
X5078545Y25730200D01*
%TO.N,+1V1*%
X4419600Y25748760D02*
X4670400Y25497960D01*
X4419600Y26164600D02*
X4419600Y25748760D01*
%TO.N,+3V3*%
X5070400Y25730200D02*
X5070400Y25850200D01*
%TO.N,+1V1*%
X4670400Y25497960D02*
X4670400Y24964100D01*
%TO.N,+3V3*%
X5078545Y25730200D02*
X5208584Y25860239D01*
X5070400Y24964100D02*
X5070400Y25730200D01*
X5070400Y25850200D02*
X5384800Y26164600D01*
%TO.N,GND*%
X660400Y21069200D02*
X800000Y20929600D01*
X660400Y21541800D02*
X660400Y21069200D01*
%TO.N,+3V3*%
X1020439Y22526600D02*
X1019247Y22527792D01*
X1371600Y22526600D02*
X1020439Y22526600D01*
X1371600Y22526600D02*
X1832900Y22526600D01*
X685200Y22526600D02*
X1371600Y22526600D01*
X660400Y22501800D02*
X685200Y22526600D01*
%TO.N,GND*%
X635000Y17960400D02*
X1171000Y17960400D01*
X1171000Y17960400D02*
X1244600Y18034000D01*
%TO.N,+3V3*%
X1193800Y18926600D02*
X1193800Y18909839D01*
X1193800Y18926600D02*
X606200Y18926600D01*
X1832900Y18926600D02*
X1193800Y18926600D01*
X1193800Y18909839D02*
X1118099Y18834138D01*
X606200Y18926600D02*
X600000Y18920400D01*
D36*
%TO.N,+BATT*%
X5805300Y5779700D02*
X5816600Y5768400D01*
X5805300Y6431700D02*
X5805300Y5779700D01*
X5816600Y5768400D02*
X8051800Y5768400D01*
X4327900Y5768400D02*
X5816600Y5768400D01*
X3323500Y6772800D02*
X4327900Y5768400D01*
%TO.N,GND*%
X7407200Y3133800D02*
X7416800Y3124200D01*
X7407200Y4410100D02*
X7407200Y3133800D01*
%TO.N,/BATT POSTSW*%
X2373500Y5693800D02*
X3657200Y4410100D01*
X2373500Y8647800D02*
X2373500Y5693800D01*
D35*
%TO.N,GND*%
X7649100Y4549200D02*
X7458000Y4740300D01*
X9956800Y4549200D02*
X7649100Y4549200D01*
D36*
%TO.N,+BATT*%
X8961600Y5768400D02*
X9017000Y5713000D01*
X8051800Y5768400D02*
X8961600Y5768400D01*
D35*
%TO.N,GND*%
X8003600Y7670800D02*
X8003600Y6776600D01*
X787400Y11529000D02*
X787400Y11963400D01*
X787400Y11963400D02*
X812800Y11988800D01*
X8003600Y6776600D02*
X8051800Y6728400D01*
%TO.N,+3V3*%
X8714100Y18920400D02*
X8707900Y18926600D01*
D37*
X4906100Y8503500D02*
X4906100Y9503500D01*
D35*
X2295400Y10569000D02*
X2343600Y10617200D01*
X4670400Y17835124D02*
X5537200Y16968324D01*
X9474076Y18920400D02*
X9496061Y18898415D01*
X787400Y10569000D02*
X1244600Y10569000D01*
X9906000Y18920400D02*
X9347200Y18920400D01*
X5070400Y18089100D02*
X5070400Y17435124D01*
X1244600Y10569000D02*
X2295400Y10569000D01*
X9347200Y18920400D02*
X9474076Y18920400D01*
D37*
X4906100Y9503500D02*
X4927600Y9525000D01*
D35*
X5070400Y17435124D02*
X5537200Y16968324D01*
X5537200Y16968324D02*
X5537200Y16964600D01*
X9347200Y18920400D02*
X8714100Y18920400D01*
X4670400Y18089100D02*
X4670400Y17835124D01*
X1244600Y10569000D02*
X1371600Y10569000D01*
D36*
%TO.N,/BATT SENSE *%
X9017000Y7617400D02*
X8963600Y7670800D01*
X9017000Y6733000D02*
X9017000Y7617400D01*
X9046400Y6703600D02*
X9017000Y6733000D01*
X10007600Y6703600D02*
X9046400Y6703600D01*
D35*
%TO.N,/QSPI_SS*%
X9065800Y9118600D02*
X9065800Y10139400D01*
X9065800Y10139400D02*
X9543600Y10617200D01*
%TO.N,/RP USB_D+*%
X4270400Y17296200D02*
X4597400Y16969200D01*
X4270400Y18089100D02*
X4270400Y17296200D01*
%TO.N,/RP USB_D-*%
X3870400Y18089100D02*
X3870400Y17055000D01*
X3870400Y18089100D02*
X3870400Y17156600D01*
X3870400Y17055000D02*
X3632200Y16816800D01*
X3870400Y17156600D02*
X3530600Y16816800D01*
%TO.N,/RUN*%
X3470400Y26118600D02*
X3454400Y26134600D01*
X3470400Y24964100D02*
X3470400Y26118600D01*
%TD*%
%TA.AperFunction,Conductor*%
%TO.N,GND*%
G36*
X439890Y6175900D02*
G01*
X540731Y6146602D01*
X577606Y6143700D01*
X1499000Y6143700D01*
X1566039Y6124015D01*
X1611794Y6071211D01*
X1623000Y6019700D01*
X1623000Y5619882D01*
X1623000Y5619880D01*
X1622999Y5619880D01*
X1651840Y5474893D01*
X1651843Y5474883D01*
X1708413Y5338310D01*
X1708414Y5338309D01*
X1708416Y5338305D01*
X1722346Y5317458D01*
X1722347Y5317456D01*
X1790551Y5215380D01*
X1790552Y5215379D01*
X2738981Y4266951D01*
X2772466Y4205628D01*
X2775300Y4179270D01*
X2775300Y3218830D01*
X2775301Y3218824D01*
X2781708Y3159217D01*
X2832002Y3024372D01*
X2832006Y3024365D01*
X2918252Y2909156D01*
X2918255Y2909153D01*
X3033464Y2822907D01*
X3033471Y2822903D01*
X3168317Y2772609D01*
X3168316Y2772609D01*
X3175244Y2771865D01*
X3227927Y2766200D01*
X4047759Y2766201D01*
X4114798Y2746517D01*
X4160553Y2693713D01*
X4170979Y2628318D01*
X4150235Y2444204D01*
X4150235Y2444197D01*
X4170430Y2264951D01*
X4170431Y2264946D01*
X4230011Y2094677D01*
X4325984Y1941938D01*
X4453538Y1814384D01*
X4606278Y1718411D01*
X4776545Y1658832D01*
X4776550Y1658831D01*
X4955796Y1638635D01*
X4955800Y1638635D01*
X4955804Y1638635D01*
X5135049Y1658831D01*
X5135052Y1658832D01*
X5135055Y1658832D01*
X5305322Y1718411D01*
X5458062Y1814384D01*
X5585616Y1941938D01*
X5681589Y2094678D01*
X5741168Y2264945D01*
X5741168Y2264952D01*
X5741969Y2268456D01*
X5743111Y2270499D01*
X5743468Y2271518D01*
X5743646Y2271456D01*
X5776074Y2329437D01*
X5837733Y2362299D01*
X5876746Y2364092D01*
X5880800Y2363635D01*
X5993552Y2376340D01*
X6060049Y2383831D01*
X6060052Y2383832D01*
X6060055Y2383832D01*
X6230322Y2443411D01*
X6383062Y2539384D01*
X6510616Y2666938D01*
X6537336Y2709464D01*
X6589670Y2755755D01*
X6629077Y2766782D01*
X6630486Y2766934D01*
X6683283Y2772609D01*
X6758180Y2800545D01*
X6827871Y2805529D01*
X6844849Y2800544D01*
X6918421Y2773103D01*
X6977955Y2766701D01*
X6977972Y2766700D01*
X7175800Y2766700D01*
X7175800Y3916700D01*
X7675800Y3916700D01*
X7675800Y2766700D01*
X7873628Y2766700D01*
X7873644Y2766701D01*
X7933172Y2773102D01*
X7933179Y2773104D01*
X8067886Y2823346D01*
X8067893Y2823350D01*
X8182987Y2909510D01*
X8182990Y2909513D01*
X8269150Y3024607D01*
X8269154Y3024614D01*
X8319396Y3159321D01*
X8319398Y3159328D01*
X8325799Y3218856D01*
X8325800Y3218873D01*
X8325800Y3916700D01*
X7675800Y3916700D01*
X7175800Y3916700D01*
X7175800Y4292700D01*
X7195485Y4359739D01*
X7248289Y4405494D01*
X7299800Y4416700D01*
X8325800Y4416700D01*
X8325800Y4863900D01*
X8345485Y4930939D01*
X8398289Y4976694D01*
X8449800Y4987900D01*
X8465482Y4987900D01*
X8465490Y4987900D01*
X8501793Y4990757D01*
X8578271Y5012977D01*
X8612866Y5017900D01*
X8709305Y5017900D01*
X8756757Y5008461D01*
X8798082Y4991344D01*
X8798087Y4991342D01*
X8922802Y4966535D01*
X8943077Y4962502D01*
X8943081Y4962501D01*
X8943082Y4962501D01*
X9090919Y4962501D01*
X9096986Y4963099D01*
X9097044Y4962501D01*
X9109168Y4963701D01*
X9333935Y4963701D01*
X9400974Y4944016D01*
X9446729Y4891212D01*
X9456673Y4822054D01*
X9453012Y4805106D01*
X9451296Y4799200D01*
X9757448Y4799200D01*
X9820566Y4781933D01*
X9829405Y4776706D01*
X9829408Y4776706D01*
X9829410Y4776704D01*
X9984802Y4731558D01*
X9984805Y4731558D01*
X9984807Y4731557D01*
X10021110Y4728700D01*
X10021118Y4728700D01*
X10381800Y4728700D01*
X10448839Y4709015D01*
X10494594Y4656211D01*
X10505800Y4604700D01*
X10505800Y4423200D01*
X10486115Y4356161D01*
X10433311Y4310406D01*
X10381800Y4299200D01*
X9451296Y4299200D01*
X9493768Y4153005D01*
X9576078Y4013826D01*
X9576085Y4013817D01*
X9690416Y3899486D01*
X9690804Y3899185D01*
X9691030Y3898872D01*
X9695938Y3893964D01*
X9695146Y3893173D01*
X9731715Y3842545D01*
X9735510Y3772779D01*
X9700984Y3712036D01*
X9639098Y3679602D01*
X9614811Y3677200D01*
X9037929Y3677200D01*
X9037923Y3677199D01*
X8978316Y3670792D01*
X8843471Y3620498D01*
X8843464Y3620494D01*
X8728255Y3534248D01*
X8728252Y3534245D01*
X8642006Y3419036D01*
X8642002Y3419029D01*
X8591708Y3284183D01*
X8585301Y3224584D01*
X8585300Y3224573D01*
X8585300Y1638635D01*
X8585301Y118700D01*
X8565616Y51661D01*
X8512812Y5906D01*
X8461301Y-5300D01*
X2650300Y-5300D01*
X2583261Y14385D01*
X2537506Y67189D01*
X2526300Y118700D01*
X2526299Y3224571D01*
X2526298Y3224577D01*
X2526297Y3224584D01*
X2519891Y3284183D01*
X2469596Y3419031D01*
X2469595Y3419032D01*
X2469593Y3419036D01*
X2383347Y3534245D01*
X2383344Y3534248D01*
X2268135Y3620494D01*
X2268128Y3620498D01*
X2133282Y3670792D01*
X2133283Y3670792D01*
X2073683Y3677199D01*
X2073681Y3677200D01*
X2073673Y3677200D01*
X2073665Y3677200D01*
X405300Y3677200D01*
X338261Y3696885D01*
X292506Y3749689D01*
X281300Y3801200D01*
X281300Y6056822D01*
X300985Y6123861D01*
X353789Y6169616D01*
X422947Y6179560D01*
X439890Y6175900D01*
G37*
%TD.AperFunction*%
%TA.AperFunction,Conductor*%
G36*
X6794057Y12305709D02*
G01*
X6838404Y12277208D01*
X6919149Y12196463D01*
X6919155Y12196458D01*
X8493981Y10621632D01*
X8527466Y10560309D01*
X8530300Y10533951D01*
X8530300Y10446114D01*
X8513688Y10384116D01*
X8506225Y10371190D01*
X8506223Y10371187D01*
X8487724Y10302146D01*
X8465299Y10218457D01*
X8465299Y10218455D01*
X8465299Y10050354D01*
X8465300Y10050341D01*
X8465300Y9788196D01*
X8445615Y9721157D01*
X8428981Y9700515D01*
X8424669Y9696204D01*
X8424663Y9696196D01*
X8342931Y9557994D01*
X8342929Y9557989D01*
X8298135Y9403809D01*
X8298134Y9403803D01*
X8295300Y9367789D01*
X8295300Y9151302D01*
X8275615Y9084263D01*
X8232532Y9046152D01*
X8233558Y9044519D01*
X8074921Y8944841D01*
X7947368Y8817288D01*
X7851393Y8664545D01*
X7809848Y8545816D01*
X7769127Y8489040D01*
X7727402Y8467695D01*
X7655946Y8446935D01*
X7586077Y8447134D01*
X7570007Y8456700D01*
X7005300Y8456700D01*
X7005300Y7546905D01*
X7005301Y7546905D01*
X7007788Y7547100D01*
X7065003Y7563723D01*
X7134873Y7563524D01*
X7193543Y7525583D01*
X7222388Y7461945D01*
X7223600Y7444658D01*
X7223600Y7436181D01*
X7223601Y7436152D01*
X7226454Y7399890D01*
X7271569Y7244604D01*
X7353878Y7105426D01*
X7353885Y7105417D01*
X7386733Y7072570D01*
X7420219Y7011248D01*
X7419407Y6987573D01*
X7426294Y6978400D01*
X7753600Y6978400D01*
X7753600Y7707169D01*
X7773285Y7774208D01*
X7826089Y7819963D01*
X7895247Y7829907D01*
X7958803Y7800882D01*
X7965281Y7794850D01*
X8074922Y7685209D01*
X8125073Y7653697D01*
X8171362Y7601366D01*
X8183100Y7548705D01*
X8183100Y7436103D01*
X8185956Y7399809D01*
X8185957Y7399803D01*
X8231104Y7244410D01*
X8231105Y7244407D01*
X8231106Y7244405D01*
X8241920Y7226119D01*
X8249232Y7213756D01*
X8266500Y7150635D01*
X8266500Y6672900D01*
X8246815Y6605861D01*
X8194011Y6560106D01*
X8142500Y6548900D01*
X7996102Y6548900D01*
X7959808Y6546044D01*
X7959805Y6546043D01*
X7904952Y6530106D01*
X7883328Y6523824D01*
X7848734Y6518900D01*
X6729800Y6518900D01*
X6662761Y6538585D01*
X6617006Y6591389D01*
X6605800Y6642900D01*
X6605800Y7009887D01*
X6605799Y7009902D01*
X6602898Y7046768D01*
X6602897Y7046774D01*
X6568457Y7165316D01*
X6557044Y7204598D01*
X6473381Y7346065D01*
X6473378Y7346068D01*
X6468598Y7352231D01*
X6470282Y7353538D01*
X6442057Y7405228D01*
X6447041Y7474920D01*
X6479052Y7522643D01*
X6505300Y7546907D01*
X6505300Y9866497D01*
X7005300Y9866497D01*
X7005300Y8956700D01*
X7555300Y8956700D01*
X7555300Y9284835D01*
X7555299Y9284850D01*
X7552400Y9321690D01*
X7552399Y9321696D01*
X7506583Y9479394D01*
X7506582Y9479397D01*
X7422985Y9620753D01*
X7422978Y9620762D01*
X7306861Y9736879D01*
X7306852Y9736886D01*
X7165496Y9820483D01*
X7165493Y9820484D01*
X7007794Y9866300D01*
X7007797Y9866300D01*
X7005300Y9866497D01*
X6505300Y9866497D01*
X6502803Y9866300D01*
X6345106Y9820484D01*
X6345103Y9820483D01*
X6203747Y9736886D01*
X6203742Y9736882D01*
X6123184Y9656324D01*
X6061860Y9622840D01*
X5992169Y9627824D01*
X5936235Y9669696D01*
X5915840Y9715437D01*
X5915393Y9715301D01*
X5914312Y9718864D01*
X5913883Y9719826D01*
X5913624Y9721126D01*
X5913624Y9721132D01*
X5913616Y9721157D01*
X5906393Y9744968D01*
X5901054Y9762566D01*
X5898099Y9774365D01*
X5895348Y9788196D01*
X5889652Y9816836D01*
X5873079Y9856845D01*
X5868981Y9868301D01*
X5860652Y9895755D01*
X5856414Y9909727D01*
X5856413Y9909728D01*
X5856413Y9909730D01*
X5836005Y9947908D01*
X5830807Y9958897D01*
X5814232Y9998915D01*
X5814230Y9998918D01*
X5814229Y9998921D01*
X5790173Y10034922D01*
X5783915Y10045362D01*
X5763511Y10083536D01*
X5763510Y10083538D01*
X5736043Y10117006D01*
X5728799Y10126775D01*
X5704741Y10162781D01*
X5704737Y10162786D01*
X5674116Y10193406D01*
X5665942Y10202424D01*
X5638484Y10235882D01*
X5638480Y10235885D01*
X5605020Y10263346D01*
X5596005Y10271517D01*
X5565388Y10302135D01*
X5565383Y10302139D01*
X5529365Y10326207D01*
X5519596Y10333452D01*
X5512555Y10339230D01*
X5486138Y10360910D01*
X5486137Y10360911D01*
X5486134Y10360912D01*
X5447962Y10381316D01*
X5437526Y10387571D01*
X5401519Y10411630D01*
X5401509Y10411635D01*
X5361500Y10428208D01*
X5350503Y10433409D01*
X5312326Y10453815D01*
X5312323Y10453816D01*
X5270899Y10466382D01*
X5259455Y10470476D01*
X5219436Y10487052D01*
X5219434Y10487053D01*
X5176968Y10495500D01*
X5165166Y10498456D01*
X5123734Y10511024D01*
X5123730Y10511025D01*
X5080645Y10515269D01*
X5068616Y10517054D01*
X5026144Y10525501D01*
X5026141Y10525501D01*
X4982834Y10525501D01*
X4970680Y10526098D01*
X4927600Y10530341D01*
X4884520Y10526098D01*
X4872366Y10525501D01*
X4829056Y10525501D01*
X4786584Y10517054D01*
X4774555Y10515269D01*
X4731470Y10511025D01*
X4731463Y10511023D01*
X4690037Y10498457D01*
X4678236Y10495501D01*
X4635771Y10487054D01*
X4635770Y10487054D01*
X4595752Y10470479D01*
X4584301Y10466382D01*
X4542872Y10453814D01*
X4504690Y10433406D01*
X4493697Y10428207D01*
X4453684Y10411632D01*
X4453683Y10411631D01*
X4417670Y10387570D01*
X4407240Y10381318D01*
X4369064Y10360912D01*
X4369063Y10360911D01*
X4335599Y10333448D01*
X4325828Y10326202D01*
X4289825Y10302146D01*
X4289821Y10302142D01*
X4259191Y10271513D01*
X4250179Y10263346D01*
X4250178Y10263345D01*
X4216717Y10235883D01*
X4211344Y10229336D01*
X4189251Y10202417D01*
X4181083Y10193405D01*
X4128958Y10141279D01*
X4118647Y10125847D01*
X4065033Y10081043D01*
X3995708Y10072337D01*
X3932681Y10102493D01*
X3895964Y10161937D01*
X3896470Y10229336D01*
X3898373Y10235885D01*
X3928398Y10339231D01*
X3931300Y10376106D01*
X3931300Y10807494D01*
X3928398Y10844369D01*
X3882544Y11002198D01*
X3873671Y11017202D01*
X3839975Y11074180D01*
X3822792Y11141904D01*
X3844952Y11208166D01*
X3899419Y11251929D01*
X3946707Y11261300D01*
X5311731Y11261300D01*
X5311747Y11261299D01*
X5319343Y11261299D01*
X5477454Y11261299D01*
X5477457Y11261299D01*
X5630185Y11302223D01*
X5680304Y11331161D01*
X5767116Y11381280D01*
X5878920Y11493084D01*
X5878920Y11493086D01*
X5889128Y11503293D01*
X5889130Y11503296D01*
X6663042Y12277208D01*
X6724365Y12310693D01*
X6794057Y12305709D01*
G37*
%TD.AperFunction*%
%TA.AperFunction,Conductor*%
G36*
X1423839Y9074515D02*
G01*
X1469594Y9021711D01*
X1480800Y8970200D01*
X1480800Y8044200D01*
X1499000Y8044200D01*
X1566039Y8024515D01*
X1611794Y7971711D01*
X1623000Y7920200D01*
X1623000Y7868700D01*
X1603315Y7801661D01*
X1550511Y7755906D01*
X1499000Y7744700D01*
X577598Y7744700D01*
X540732Y7741799D01*
X540726Y7741798D01*
X439895Y7712503D01*
X370025Y7712702D01*
X311355Y7750644D01*
X282512Y7814283D01*
X281300Y7831579D01*
X281300Y7957342D01*
X300985Y8024381D01*
X353789Y8070136D01*
X422947Y8080080D01*
X439895Y8076418D01*
X540804Y8047101D01*
X540810Y8047100D01*
X577650Y8044201D01*
X577666Y8044200D01*
X980800Y8044200D01*
X980800Y8970200D01*
X1000485Y9037239D01*
X1053289Y9082994D01*
X1104800Y9094200D01*
X1356800Y9094200D01*
X1423839Y9074515D01*
G37*
%TD.AperFunction*%
%TA.AperFunction,Conductor*%
G36*
X998839Y13337015D02*
G01*
X1044594Y13284211D01*
X1055800Y13232700D01*
X1055800Y12195962D01*
X1037400Y12133300D01*
X1037400Y11473500D01*
X1017715Y11406461D01*
X964911Y11360706D01*
X913400Y11349500D01*
X661400Y11349500D01*
X594361Y11369185D01*
X548606Y11421989D01*
X537400Y11473500D01*
X537400Y12282238D01*
X555800Y12344901D01*
X555800Y13232700D01*
X575485Y13299739D01*
X628289Y13345494D01*
X679800Y13356700D01*
X931800Y13356700D01*
X998839Y13337015D01*
G37*
%TD.AperFunction*%
%TA.AperFunction,Conductor*%
G36*
X8958175Y18300215D02*
G01*
X8978817Y18283581D01*
X8993799Y18268599D01*
X9146539Y18172626D01*
X9296321Y18120215D01*
X9316806Y18113047D01*
X9316811Y18113046D01*
X9496057Y18092850D01*
X9496061Y18092850D01*
X9496065Y18092850D01*
X9675307Y18113046D01*
X9675306Y18113046D01*
X9675316Y18113047D01*
X9732169Y18132942D01*
X9773124Y18139900D01*
X10032000Y18139900D01*
X10099039Y18120215D01*
X10144794Y18067411D01*
X10156000Y18015900D01*
X10156000Y17181611D01*
X10176910Y17183255D01*
X10332195Y17228369D01*
X10471374Y17310679D01*
X10471383Y17310686D01*
X10568619Y17407921D01*
X10629942Y17441406D01*
X10699634Y17436422D01*
X10755567Y17394550D01*
X10779984Y17329086D01*
X10780300Y17320240D01*
X10780300Y15306817D01*
X10760615Y15239778D01*
X10707811Y15194023D01*
X10638653Y15184079D01*
X10621707Y15187740D01*
X10583292Y15198900D01*
X10583289Y15198901D01*
X10546449Y15201800D01*
X10080800Y15201800D01*
X10080800Y14275800D01*
X10061115Y14208761D01*
X10008311Y14163006D01*
X9956800Y14151800D01*
X9704800Y14151800D01*
X9637761Y14171485D01*
X9592006Y14224289D01*
X9580800Y14275800D01*
X9580800Y15201800D01*
X9579198Y15203402D01*
X9545713Y15264725D01*
X9550697Y15334417D01*
X9592569Y15390350D01*
X9625927Y15408125D01*
X9655319Y15418410D01*
X9655318Y15418410D01*
X9655322Y15418411D01*
X9808062Y15514384D01*
X9935616Y15641938D01*
X10031589Y15794678D01*
X10091168Y15964945D01*
X10103457Y16074015D01*
X10111365Y16144197D01*
X10111365Y16144204D01*
X10091169Y16323450D01*
X10091168Y16323455D01*
X10031588Y16493724D01*
X9935615Y16646463D01*
X9808062Y16774016D01*
X9808059Y16774018D01*
X9753178Y16808503D01*
X9706887Y16860838D01*
X9695931Y16927380D01*
X9708805Y17041638D01*
X9708805Y17041644D01*
X9688608Y17220893D01*
X9688608Y17220895D01*
X9673998Y17262648D01*
X9662958Y17294200D01*
X9656000Y17335154D01*
X9656000Y17710400D01*
X9379247Y17710400D01*
X9313275Y17729407D01*
X9252765Y17767429D01*
X9082489Y17827010D01*
X9012045Y17834947D01*
X8947632Y17862014D01*
X8938249Y17870486D01*
X8700516Y18108219D01*
X8667031Y18169542D01*
X8672015Y18239234D01*
X8713887Y18295167D01*
X8779351Y18319584D01*
X8788197Y18319900D01*
X8891136Y18319900D01*
X8958175Y18300215D01*
G37*
%TD.AperFunction*%
%TA.AperFunction,Conductor*%
G36*
X2221895Y16143822D02*
G01*
X2221913Y16143882D01*
X2384802Y16096558D01*
X2384805Y16096558D01*
X2384807Y16096557D01*
X2421110Y16093700D01*
X2687700Y16093700D01*
X2754739Y16074015D01*
X2800494Y16021211D01*
X2811700Y15969701D01*
X2811701Y15788201D01*
X2792017Y15721161D01*
X2739213Y15675406D01*
X2687701Y15664200D01*
X1700300Y15664200D01*
X1633261Y15683885D01*
X1587506Y15736689D01*
X1576300Y15788199D01*
X1576299Y15969699D01*
X1595983Y16036739D01*
X1648787Y16082494D01*
X1700299Y16093700D01*
X1940482Y16093700D01*
X1940490Y16093700D01*
X1976793Y16096557D01*
X1976795Y16096558D01*
X1976797Y16096558D01*
X2139687Y16143882D01*
X2140093Y16142482D01*
X2200891Y16149989D01*
X2221895Y16143822D01*
G37*
%TD.AperFunction*%
%TA.AperFunction,Conductor*%
G36*
X10046595Y21524495D02*
G01*
X10056278Y21518411D01*
X10056281Y21518410D01*
X10060402Y21516425D01*
X10112262Y21469602D01*
X10130600Y21404705D01*
X10130600Y20585211D01*
X10151510Y20586855D01*
X10306795Y20631969D01*
X10445974Y20714279D01*
X10445983Y20714286D01*
X10565836Y20834138D01*
X10567384Y20832590D01*
X10614961Y20866951D01*
X10684728Y20870742D01*
X10745469Y20836213D01*
X10777899Y20774326D01*
X10780300Y20750045D01*
X10780300Y19561267D01*
X10760615Y19494228D01*
X10707811Y19448473D01*
X10638653Y19438529D01*
X10575097Y19467554D01*
X10568619Y19473586D01*
X10471692Y19570513D01*
X10471684Y19570519D01*
X10380892Y19624213D01*
X10332395Y19652894D01*
X10332394Y19652895D01*
X10332393Y19652895D01*
X10332390Y19652896D01*
X10176997Y19698043D01*
X10176991Y19698044D01*
X10140697Y19700900D01*
X10140690Y19700900D01*
X9769811Y19700900D01*
X9702772Y19720585D01*
X9657017Y19773389D01*
X9646395Y19816029D01*
X9646342Y19816022D01*
X9646291Y19816446D01*
X9646033Y19817482D01*
X9645900Y19819693D01*
X9645900Y19819702D01*
X9635277Y19908164D01*
X9635276Y19908167D01*
X9634838Y19911815D01*
X9634838Y19941385D01*
X9635276Y19945035D01*
X9635277Y19945036D01*
X9645900Y20033498D01*
X9645900Y20219702D01*
X9635277Y20308164D01*
X9635276Y20308166D01*
X9634838Y20311815D01*
X9634838Y20341385D01*
X9635276Y20345035D01*
X9635277Y20345036D01*
X9645900Y20433498D01*
X9645900Y20619702D01*
X9635277Y20708164D01*
X9635276Y20708166D01*
X9634838Y20711815D01*
X9634838Y20741385D01*
X9635276Y20745035D01*
X9635277Y20745036D01*
X9645900Y20833498D01*
X9645900Y21019702D01*
X9635277Y21108164D01*
X9635276Y21108166D01*
X9634838Y21111815D01*
X9634838Y21141385D01*
X9635276Y21145035D01*
X9635277Y21145036D01*
X9645900Y21233498D01*
X9645900Y21419500D01*
X9665585Y21486539D01*
X9718389Y21532294D01*
X9769900Y21543500D01*
X9980625Y21543500D01*
X10046595Y21524495D01*
G37*
%TD.AperFunction*%
%TA.AperFunction,Conductor*%
G36*
X6808077Y23707775D02*
G01*
X6855876Y23663725D01*
X6900979Y23591944D01*
X6900984Y23591938D01*
X6937196Y23555726D01*
X6970681Y23494403D01*
X6965697Y23424711D01*
X6954509Y23402073D01*
X6855011Y23243724D01*
X6795431Y23073455D01*
X6795430Y23073450D01*
X6775235Y22894204D01*
X6775235Y22894197D01*
X6795430Y22714951D01*
X6795431Y22714946D01*
X6855011Y22544677D01*
X6924870Y22433498D01*
X6950984Y22391938D01*
X7078538Y22264384D01*
X7231278Y22168411D01*
X7391700Y22112277D01*
X7401545Y22108832D01*
X7401550Y22108831D01*
X7580796Y22088635D01*
X7580800Y22088635D01*
X7580804Y22088635D01*
X7638520Y22095138D01*
X7707341Y22083084D01*
X7758721Y22035734D01*
X7775518Y21986702D01*
X7780960Y21941384D01*
X7780961Y21911817D01*
X7775118Y21863160D01*
X7769900Y21819702D01*
X7769900Y21633498D01*
X7772472Y21612083D01*
X7780961Y21541383D01*
X7780961Y21511817D01*
X7777926Y21486539D01*
X7769900Y21419702D01*
X7769900Y21233498D01*
X7775622Y21185846D01*
X7780961Y21141383D01*
X7780961Y21111817D01*
X7775118Y21063160D01*
X7769900Y21019702D01*
X7769900Y20833498D01*
X7775622Y20785846D01*
X7780961Y20741383D01*
X7780961Y20711817D01*
X7780271Y20706068D01*
X7769900Y20619702D01*
X7769900Y20619697D01*
X7769900Y20433501D01*
X7772795Y20409387D01*
X7761242Y20340479D01*
X7714268Y20288756D01*
X7646788Y20270640D01*
X7635797Y20271386D01*
X7605804Y20274765D01*
X7605796Y20274765D01*
X7426550Y20254570D01*
X7426537Y20254567D01*
X7256280Y20194991D01*
X7227178Y20176705D01*
X7159941Y20157706D01*
X7120253Y20164659D01*
X6985062Y20211965D01*
X6985049Y20211968D01*
X6805804Y20232163D01*
X6805796Y20232163D01*
X6626550Y20211968D01*
X6626537Y20211965D01*
X6456278Y20152388D01*
X6446729Y20146388D01*
X6379491Y20127391D01*
X6314791Y20146389D01*
X6305323Y20152338D01*
X6305316Y20152341D01*
X6135060Y20211917D01*
X6135047Y20211920D01*
X5955802Y20232115D01*
X5955794Y20232115D01*
X5776548Y20211920D01*
X5776543Y20211919D01*
X5606274Y20152339D01*
X5453535Y20056366D01*
X5325984Y19928815D01*
X5325978Y19928808D01*
X5294719Y19879060D01*
X5242384Y19832770D01*
X5203611Y19821814D01*
X5084894Y19808438D01*
X4914622Y19748858D01*
X4761880Y19652883D01*
X4759047Y19650623D01*
X4756868Y19649734D01*
X4755986Y19649179D01*
X4755888Y19649334D01*
X4694361Y19624213D01*
X4681732Y19623568D01*
X3791451Y19623568D01*
X3664585Y19589575D01*
X3594735Y19591238D01*
X3536873Y19630401D01*
X3515452Y19668393D01*
X3506589Y19693722D01*
X3410616Y19846462D01*
X3283062Y19974016D01*
X3188397Y20033498D01*
X3166812Y20047061D01*
X3120521Y20099396D01*
X3109873Y20168450D01*
X3138248Y20232298D01*
X3166810Y20257047D01*
X3248163Y20308164D01*
X3258059Y20314382D01*
X3258059Y20314383D01*
X3258062Y20314384D01*
X3385616Y20441938D01*
X3481589Y20594678D01*
X3541168Y20764945D01*
X3549198Y20836213D01*
X3561365Y20944197D01*
X3561365Y20944204D01*
X3541169Y21123450D01*
X3541168Y21123455D01*
X3481588Y21293724D01*
X3442382Y21356120D01*
X3385616Y21446462D01*
X3258062Y21574016D01*
X3163397Y21633498D01*
X3105321Y21669990D01*
X2935049Y21729570D01*
X2877150Y21736093D01*
X2812736Y21763159D01*
X2773180Y21820754D01*
X2767920Y21844513D01*
X2760277Y21908164D01*
X2760274Y21908170D01*
X2759837Y21911816D01*
X2759838Y21941385D01*
X2760276Y21945035D01*
X2760277Y21945036D01*
X2770900Y22033498D01*
X2770900Y22219702D01*
X2760277Y22308164D01*
X2760276Y22308166D01*
X2759838Y22311815D01*
X2759838Y22341385D01*
X2760276Y22345035D01*
X2760277Y22345036D01*
X2770900Y22433498D01*
X2770900Y22619702D01*
X2760277Y22708164D01*
X2760276Y22708166D01*
X2759838Y22711815D01*
X2759838Y22741385D01*
X2760276Y22745035D01*
X2760277Y22745036D01*
X2770900Y22833498D01*
X2770900Y23019702D01*
X2760277Y23108164D01*
X2760276Y23108166D01*
X2759838Y23111815D01*
X2759838Y23141385D01*
X2760276Y23145035D01*
X2760277Y23145036D01*
X2770900Y23233498D01*
X2770900Y23419702D01*
X2770298Y23424711D01*
X2761929Y23494403D01*
X2760277Y23508164D01*
X2760276Y23508166D01*
X2759838Y23511815D01*
X2759837Y23541383D01*
X2760275Y23545032D01*
X2760277Y23545036D01*
X2764848Y23583105D01*
X2792383Y23647314D01*
X2850265Y23686447D01*
X2920116Y23688075D01*
X2979758Y23651680D01*
X2992955Y23634289D01*
X3050982Y23541940D01*
X3050984Y23541938D01*
X3178538Y23414384D01*
X3331278Y23318411D01*
X3444563Y23278771D01*
X3501545Y23258832D01*
X3501550Y23258831D01*
X3680796Y23238635D01*
X3680800Y23238635D01*
X3680804Y23238635D01*
X3860049Y23258831D01*
X3860051Y23258832D01*
X3860055Y23258832D01*
X3860058Y23258834D01*
X3860062Y23258834D01*
X4006105Y23309937D01*
X4075884Y23313499D01*
X4136511Y23278771D01*
X4152054Y23258868D01*
X4167995Y23233498D01*
X4236584Y23124340D01*
X4364138Y22996786D01*
X4516878Y22900813D01*
X4687145Y22841234D01*
X4687150Y22841233D01*
X4866396Y22821037D01*
X4866400Y22821037D01*
X4866404Y22821037D01*
X5045649Y22841233D01*
X5045652Y22841234D01*
X5045655Y22841234D01*
X5215922Y22900813D01*
X5368662Y22996786D01*
X5460606Y23088730D01*
X5521929Y23122215D01*
X5589242Y23118090D01*
X5687139Y23083834D01*
X5687145Y23083833D01*
X5687147Y23083832D01*
X5687148Y23083832D01*
X5687152Y23083831D01*
X5866398Y23063635D01*
X5866402Y23063635D01*
X5866406Y23063635D01*
X6045651Y23083831D01*
X6045654Y23083832D01*
X6045657Y23083832D01*
X6215924Y23143411D01*
X6368664Y23239384D01*
X6496218Y23366938D01*
X6592191Y23519678D01*
X6633841Y23638708D01*
X6674563Y23695483D01*
X6739515Y23721231D01*
X6808077Y23707775D01*
G37*
%TD.AperFunction*%
%TA.AperFunction,Conductor*%
G36*
X841395Y21701615D02*
G01*
X887150Y21648811D01*
X897472Y21612083D01*
X905961Y21541383D01*
X905961Y21511817D01*
X902926Y21486539D01*
X894900Y21419702D01*
X894900Y21233498D01*
X900622Y21185846D01*
X905961Y21141383D01*
X905961Y21111817D01*
X900118Y21063160D01*
X894900Y21019702D01*
X894900Y20833498D01*
X900622Y20785846D01*
X905961Y20741383D01*
X905961Y20711817D01*
X905271Y20706068D01*
X894900Y20619702D01*
X894900Y20433498D01*
X900622Y20385846D01*
X905961Y20341383D01*
X905961Y20311817D01*
X903192Y20288756D01*
X894900Y20219702D01*
X894900Y20033498D01*
X900622Y19985846D01*
X905961Y19941383D01*
X905961Y19911817D01*
X894899Y19819693D01*
X894767Y19817482D01*
X894567Y19816928D01*
X894459Y19816024D01*
X894251Y19816049D01*
X871107Y19751740D01*
X815661Y19709226D01*
X770989Y19700900D01*
X405300Y19700900D01*
X338261Y19720585D01*
X292506Y19773389D01*
X281300Y19824900D01*
X281300Y20639029D01*
X300985Y20706068D01*
X353789Y20751823D01*
X408821Y20761551D01*
X410400Y20763010D01*
X410400Y21597300D01*
X430085Y21664339D01*
X482889Y21710094D01*
X534400Y21721300D01*
X774356Y21721300D01*
X841395Y21701615D01*
G37*
%TD.AperFunction*%
%TA.AperFunction,Conductor*%
G36*
X4648644Y27354915D02*
G01*
X4669286Y27338281D01*
X4678538Y27329029D01*
X4730032Y27296673D01*
X4829861Y27233946D01*
X4831278Y27233056D01*
X5001545Y27173477D01*
X5040074Y27169136D01*
X5104486Y27142071D01*
X5144042Y27084477D01*
X5146181Y27014640D01*
X5110223Y26954733D01*
X5060786Y26926840D01*
X4958407Y26897096D01*
X4951444Y26894082D01*
X4882100Y26885525D01*
X4852956Y26894082D01*
X4845991Y26897096D01*
X4690597Y26942243D01*
X4690591Y26942244D01*
X4654297Y26945100D01*
X4654290Y26945100D01*
X4398900Y26945100D01*
X4331861Y26964785D01*
X4286106Y27017589D01*
X4274900Y27069099D01*
X4274899Y27250599D01*
X4294583Y27317639D01*
X4347387Y27363394D01*
X4398899Y27374600D01*
X4581605Y27374600D01*
X4648644Y27354915D01*
G37*
%TD.AperFunction*%
%TA.AperFunction,Conductor*%
G36*
X9311339Y30486515D02*
G01*
X9357094Y30433711D01*
X9368300Y30382200D01*
X9368300Y29856700D01*
X9473531Y29856700D01*
X9540570Y29837015D01*
X9586325Y29784211D01*
X9597149Y29742427D01*
X9598654Y29723290D01*
X9643769Y29568004D01*
X9726078Y29428826D01*
X9726085Y29428817D01*
X9840416Y29314486D01*
X9840425Y29314479D01*
X9979604Y29232169D01*
X10134889Y29187055D01*
X10155800Y29185411D01*
X10155800Y30019700D01*
X10175485Y30086739D01*
X10228289Y30132494D01*
X10279800Y30143700D01*
X10531800Y30143700D01*
X10598839Y30124015D01*
X10644594Y30071211D01*
X10655800Y30019700D01*
X10655800Y29185410D01*
X10659527Y29181964D01*
X10714952Y29170319D01*
X10764707Y29121266D01*
X10780300Y29061067D01*
X10780300Y27198907D01*
X10760615Y27131868D01*
X10707811Y27086113D01*
X10638653Y27076169D01*
X10593179Y27092175D01*
X10459393Y27171295D01*
X10459390Y27171296D01*
X10303997Y27216443D01*
X10303991Y27216444D01*
X10267697Y27219300D01*
X10267690Y27219300D01*
X9798310Y27219300D01*
X9798302Y27219300D01*
X9762008Y27216444D01*
X9628293Y27177596D01*
X9558424Y27177796D01*
X9499754Y27215739D01*
X9470911Y27279377D01*
X9469699Y27296660D01*
X9469699Y28124272D01*
X9463291Y28183883D01*
X9425458Y28285319D01*
X9420474Y28355011D01*
X9436646Y28394624D01*
X9534911Y28551012D01*
X9534912Y28551013D01*
X9594491Y28721280D01*
X9609155Y28851429D01*
X9614688Y28900532D01*
X9614688Y28900539D01*
X9594492Y29079785D01*
X9594491Y29079790D01*
X9564000Y29166927D01*
X9534912Y29250057D01*
X9526493Y29263455D01*
X9485360Y29328919D01*
X9438939Y29402797D01*
X9311385Y29530351D01*
X9251461Y29568004D01*
X9158643Y29626326D01*
X9107328Y29644282D01*
X9050552Y29685004D01*
X9024806Y29749957D01*
X9038263Y29818519D01*
X9060604Y29849005D01*
X9068300Y29856701D01*
X9068300Y30382200D01*
X9087985Y30449239D01*
X9140789Y30494994D01*
X9192300Y30506200D01*
X9244300Y30506200D01*
X9311339Y30486515D01*
G37*
%TD.AperFunction*%
%TA.AperFunction,Conductor*%
G36*
X7803243Y33367686D02*
G01*
X7855564Y33346013D01*
X7949155Y33333692D01*
X7962489Y33331936D01*
X7968080Y33331200D01*
X7968087Y33331200D01*
X8181300Y33331200D01*
X8248339Y33311515D01*
X8294094Y33258711D01*
X8305300Y33207200D01*
X8305300Y32993973D01*
X8312123Y32942151D01*
X8320095Y32881597D01*
X8320113Y32881465D01*
X8320113Y32881464D01*
X8341781Y32829151D01*
X8349248Y32759681D01*
X8341781Y32734249D01*
X8320113Y32681937D01*
X8320113Y32681936D01*
X8305300Y32569428D01*
X8305300Y32343973D01*
X8320113Y32231465D01*
X8320113Y32231464D01*
X8341781Y32179151D01*
X8349248Y32109681D01*
X8341781Y32084249D01*
X8320113Y32031937D01*
X8320113Y32031936D01*
X8305300Y31919428D01*
X8305300Y31693973D01*
X8320113Y31581465D01*
X8320113Y31581464D01*
X8341781Y31529151D01*
X8349248Y31459681D01*
X8341781Y31434249D01*
X8320113Y31381937D01*
X8320113Y31381936D01*
X8305300Y31269428D01*
X8305300Y31043973D01*
X8320112Y30931467D01*
X8342052Y30878499D01*
X8349520Y30809029D01*
X8342052Y30783597D01*
X8320600Y30731805D01*
X8310711Y30656701D01*
X8310712Y30656700D01*
X8447218Y30656700D01*
X8514257Y30637015D01*
X8522705Y30631075D01*
X8590472Y30579075D01*
X8631674Y30522647D01*
X8635829Y30452901D01*
X8601616Y30391981D01*
X8539899Y30359229D01*
X8514985Y30356700D01*
X8310711Y30356700D01*
X8278733Y30320236D01*
X8267264Y30308767D01*
X8230800Y30276789D01*
X8230800Y30072516D01*
X8211115Y30005477D01*
X8158311Y29959722D01*
X8089153Y29949778D01*
X8025597Y29978803D01*
X8008424Y29997030D01*
X7956424Y30064798D01*
X7931230Y30129967D01*
X7930800Y30140284D01*
X7930800Y30276789D01*
X7930799Y30276789D01*
X7855695Y30266900D01*
X7803903Y30245448D01*
X7734434Y30237981D01*
X7709001Y30245448D01*
X7708347Y30245719D01*
X7656036Y30267387D01*
X7656035Y30267388D01*
X7656033Y30267388D01*
X7543527Y30282200D01*
X7543520Y30282200D01*
X7318080Y30282200D01*
X7318072Y30282200D01*
X7205564Y30267387D01*
X7205563Y30267387D01*
X7153251Y30245719D01*
X7083781Y30238252D01*
X7058349Y30245719D01*
X7031446Y30256862D01*
X7006036Y30267387D01*
X6991971Y30269239D01*
X6893527Y30282200D01*
X6893520Y30282200D01*
X6668080Y30282200D01*
X6668072Y30282200D01*
X6555564Y30267387D01*
X6555563Y30267387D01*
X6503251Y30245719D01*
X6433781Y30238252D01*
X6408349Y30245719D01*
X6381446Y30256862D01*
X6356036Y30267387D01*
X6341971Y30269239D01*
X6243527Y30282200D01*
X6243520Y30282200D01*
X6018080Y30282200D01*
X6018072Y30282200D01*
X5905564Y30267387D01*
X5905563Y30267387D01*
X5853251Y30245719D01*
X5783781Y30238252D01*
X5758349Y30245719D01*
X5731446Y30256862D01*
X5706036Y30267387D01*
X5691971Y30269239D01*
X5593527Y30282200D01*
X5593520Y30282200D01*
X5372406Y30282200D01*
X5305367Y30301885D01*
X5279177Y30324442D01*
X5250888Y30356700D01*
X5046615Y30356700D01*
X4979576Y30376385D01*
X4933821Y30429189D01*
X4923877Y30498347D01*
X4952902Y30561903D01*
X4971128Y30579075D01*
X5038895Y30631075D01*
X5104064Y30656270D01*
X5114382Y30656700D01*
X5250888Y30656700D01*
X5250888Y30656701D01*
X5240999Y30731804D01*
X5240999Y30731806D01*
X5219548Y30783594D01*
X5212079Y30853064D01*
X5219545Y30878494D01*
X5241487Y30931464D01*
X5256300Y31043980D01*
X5256300Y31269420D01*
X5241487Y31381936D01*
X5219817Y31434251D01*
X5212349Y31503715D01*
X5219814Y31529144D01*
X5241487Y31581464D01*
X5256300Y31693980D01*
X5256300Y31919420D01*
X5241487Y32031936D01*
X5219817Y32084251D01*
X5212349Y32153715D01*
X5219814Y32179144D01*
X5241487Y32231464D01*
X5256300Y32343980D01*
X5256300Y32569420D01*
X5241487Y32681936D01*
X5219547Y32734902D01*
X5212079Y32804370D01*
X5219548Y32829808D01*
X5241000Y32881597D01*
X5250888Y32956700D01*
X5114382Y32956700D01*
X5047343Y32976385D01*
X5038895Y32982325D01*
X5023715Y32993973D01*
X4971127Y33034326D01*
X4929926Y33090753D01*
X4925771Y33160499D01*
X4959984Y33221419D01*
X5021701Y33254171D01*
X5046615Y33256700D01*
X5250888Y33256700D01*
X5279177Y33288958D01*
X5338179Y33326383D01*
X5372406Y33331200D01*
X5593513Y33331200D01*
X5593520Y33331200D01*
X5706036Y33346013D01*
X5758350Y33367683D01*
X5827815Y33375151D01*
X5853243Y33367686D01*
X5905564Y33346013D01*
X5999155Y33333692D01*
X6012489Y33331936D01*
X6018080Y33331200D01*
X6018087Y33331200D01*
X6243513Y33331200D01*
X6243520Y33331200D01*
X6356036Y33346013D01*
X6408350Y33367683D01*
X6477815Y33375151D01*
X6503243Y33367686D01*
X6555564Y33346013D01*
X6649155Y33333692D01*
X6662489Y33331936D01*
X6668080Y33331200D01*
X6668087Y33331200D01*
X6893513Y33331200D01*
X6893520Y33331200D01*
X7006036Y33346013D01*
X7058350Y33367683D01*
X7127815Y33375151D01*
X7153243Y33367686D01*
X7205564Y33346013D01*
X7299155Y33333692D01*
X7312489Y33331936D01*
X7318080Y33331200D01*
X7318087Y33331200D01*
X7543513Y33331200D01*
X7543520Y33331200D01*
X7656036Y33346013D01*
X7708350Y33367683D01*
X7777815Y33375151D01*
X7803243Y33367686D01*
G37*
%TD.AperFunction*%
%TA.AperFunction,Conductor*%
G36*
X9248839Y37799015D02*
G01*
X9294594Y37746211D01*
X9305800Y37694700D01*
X9305800Y37169200D01*
X9464003Y37169200D01*
X9531042Y37149515D01*
X9576797Y37096711D01*
X9583079Y37079795D01*
X9593766Y37043011D01*
X9593768Y37043005D01*
X9676078Y36903826D01*
X9676085Y36903817D01*
X9790416Y36789486D01*
X9790425Y36789479D01*
X9929604Y36707169D01*
X10084889Y36662055D01*
X10105800Y36660411D01*
X10105800Y37293436D01*
X10125485Y37360475D01*
X10178289Y37406230D01*
X10208656Y37414645D01*
X10208565Y37415043D01*
X10215350Y37416592D01*
X10215352Y37416593D01*
X10215354Y37416593D01*
X10385621Y37476172D01*
X10415828Y37495153D01*
X10483062Y37514153D01*
X10549898Y37493787D01*
X10595113Y37440520D01*
X10605800Y37390159D01*
X10605800Y36660411D01*
X10626715Y36662056D01*
X10632946Y36663193D01*
X10633426Y36660565D01*
X10691564Y36660404D01*
X10750237Y36622467D01*
X10779086Y36558831D01*
X10780300Y36541524D01*
X10780300Y35186545D01*
X10760615Y35119506D01*
X10707811Y35073751D01*
X10640432Y35064063D01*
X10640431Y35064048D01*
X10640365Y35064054D01*
X10638653Y35063807D01*
X10634145Y35064543D01*
X10613200Y35066191D01*
X10613200Y34231900D01*
X10593515Y34164861D01*
X10540711Y34119106D01*
X10489200Y34107900D01*
X10128502Y34107900D01*
X10092208Y34105044D01*
X10092202Y34105043D01*
X9936810Y34059897D01*
X9936805Y34059894D01*
X9927966Y34054668D01*
X9864848Y34037400D01*
X9558696Y34037400D01*
X9594025Y33915794D01*
X9593825Y33845925D01*
X9555882Y33787255D01*
X9492244Y33758412D01*
X9474948Y33757200D01*
X8855300Y33757200D01*
X8788261Y33776885D01*
X8742506Y33829689D01*
X8731300Y33881200D01*
X8731300Y34537400D01*
X9558696Y34537400D01*
X10113200Y34537400D01*
X10113200Y35066190D01*
X10113199Y35066191D01*
X10092287Y35064546D01*
X10092281Y35064545D01*
X9937009Y35019434D01*
X9937004Y35019432D01*
X9797825Y34937122D01*
X9797816Y34937115D01*
X9683485Y34822784D01*
X9683478Y34822775D01*
X9601168Y34683596D01*
X9558696Y34537400D01*
X8731300Y34537400D01*
X8731300Y34619414D01*
X8731299Y34619428D01*
X8722851Y34683596D01*
X8716487Y34731936D01*
X8658498Y34871933D01*
X8657891Y34872723D01*
X8657587Y34873510D01*
X8654436Y34878968D01*
X8655287Y34879460D01*
X8632695Y34937887D01*
X8646728Y35006333D01*
X8695539Y35056326D01*
X8715310Y35065255D01*
X8739590Y35073751D01*
X8814091Y35099820D01*
X8966831Y35195793D01*
X9094385Y35323347D01*
X9190358Y35476087D01*
X9249937Y35646354D01*
X9265815Y35787275D01*
X9270134Y35825606D01*
X9270134Y35825613D01*
X9249938Y36004859D01*
X9249937Y36004864D01*
X9190357Y36175133D01*
X9129991Y36271205D01*
X9094385Y36327871D01*
X8966831Y36455425D01*
X8910338Y36490922D01*
X8814090Y36551399D01*
X8684717Y36596668D01*
X8627940Y36637390D01*
X8602193Y36702343D01*
X8615649Y36770904D01*
X8637990Y36801392D01*
X8668300Y36831702D01*
X8668300Y37045200D01*
X8687985Y37112239D01*
X8740789Y37157994D01*
X8792300Y37169200D01*
X9005800Y37169200D01*
X9005800Y37694700D01*
X9025485Y37761739D01*
X9078289Y37807494D01*
X9129800Y37818700D01*
X9181800Y37818700D01*
X9248839Y37799015D01*
G37*
%TD.AperFunction*%
%TA.AperFunction,Conductor*%
G36*
X4373839Y37799015D02*
G01*
X4419594Y37746211D01*
X4430800Y37694700D01*
X4430800Y37169200D01*
X4643800Y37169200D01*
X4710839Y37149515D01*
X4756594Y37096711D01*
X4767800Y37045200D01*
X4767800Y36370176D01*
X4748115Y36303137D01*
X4709772Y36265182D01*
X4566617Y36175232D01*
X4439064Y36047679D01*
X4343091Y35894940D01*
X4283511Y35724671D01*
X4283510Y35724667D01*
X4270154Y35606122D01*
X4243087Y35541708D01*
X4185492Y35502153D01*
X4179039Y35500235D01*
X4133187Y35487948D01*
X4133186Y35487948D01*
X4133184Y35487947D01*
X4133180Y35487945D01*
X3996261Y35408896D01*
X3996253Y35408890D01*
X3516681Y34929317D01*
X3455358Y34895832D01*
X3385666Y34900816D01*
X3365880Y34910265D01*
X3333665Y34929317D01*
X3295193Y34952069D01*
X3295192Y34952070D01*
X3295191Y34952070D01*
X3295188Y34952071D01*
X3141008Y34996865D01*
X3141002Y34996866D01*
X3104981Y34999700D01*
X2606630Y34999700D01*
X2606608Y34999699D01*
X2570598Y34996866D01*
X2415394Y34951775D01*
X2346206Y34951775D01*
X2191002Y34996866D01*
X2154988Y34999700D01*
X2154981Y34999700D01*
X1919978Y34999700D01*
X1887885Y35003925D01*
X1803771Y35026463D01*
X1782357Y35032201D01*
X1640854Y35032201D01*
X1573815Y35051886D01*
X1535315Y35091105D01*
X1530081Y35099591D01*
X1516260Y35113412D01*
X1482775Y35174735D01*
X1487759Y35244427D01*
X1529631Y35300360D01*
X1593130Y35324620D01*
X1816208Y35344137D01*
X2044463Y35405297D01*
X2258630Y35505165D01*
X2452201Y35640705D01*
X2619295Y35807799D01*
X2754835Y36001370D01*
X2854703Y36215537D01*
X2915863Y36443792D01*
X2936459Y36679200D01*
X2915863Y36914608D01*
X2881471Y37042961D01*
X2883134Y37112807D01*
X2913563Y37162730D01*
X3240698Y37489864D01*
X3302018Y37523347D01*
X3371710Y37518363D01*
X3427643Y37476491D01*
X3436480Y37460974D01*
X3436974Y37461258D01*
X3441035Y37454223D01*
X3533205Y37334106D01*
X3653321Y37241937D01*
X3793191Y37184002D01*
X3793195Y37184001D01*
X3905602Y37169201D01*
X3905617Y37169200D01*
X4130800Y37169200D01*
X4130800Y37694700D01*
X4150485Y37761739D01*
X4203289Y37807494D01*
X4254800Y37818700D01*
X4306800Y37818700D01*
X4373839Y37799015D01*
G37*
%TD.AperFunction*%
%TA.AperFunction,Conductor*%
G36*
X7740743Y40680186D02*
G01*
X7793064Y40658513D01*
X7886655Y40646192D01*
X7899989Y40644436D01*
X7905580Y40643700D01*
X7905587Y40643700D01*
X8118800Y40643700D01*
X8185839Y40624015D01*
X8231594Y40571211D01*
X8242800Y40519700D01*
X8242800Y40306473D01*
X8249623Y40254651D01*
X8257595Y40194097D01*
X8257613Y40193965D01*
X8257613Y40193964D01*
X8279281Y40141651D01*
X8286748Y40072181D01*
X8279281Y40046749D01*
X8257613Y39994437D01*
X8257613Y39994436D01*
X8242800Y39881928D01*
X8242800Y39656473D01*
X8257613Y39543965D01*
X8257613Y39543964D01*
X8279281Y39491651D01*
X8286748Y39422181D01*
X8279281Y39396749D01*
X8257613Y39344437D01*
X8257613Y39344436D01*
X8242800Y39231928D01*
X8242800Y39006473D01*
X8257613Y38893965D01*
X8257613Y38893964D01*
X8279281Y38841651D01*
X8286748Y38772181D01*
X8279281Y38746749D01*
X8257613Y38694437D01*
X8257613Y38694436D01*
X8242800Y38581928D01*
X8242800Y38356473D01*
X8257612Y38243967D01*
X8279552Y38190999D01*
X8287020Y38121529D01*
X8279552Y38096097D01*
X8258100Y38044305D01*
X8248211Y37969201D01*
X8248212Y37969200D01*
X8384718Y37969200D01*
X8451757Y37949515D01*
X8460199Y37943580D01*
X8527972Y37891575D01*
X8569174Y37835147D01*
X8573329Y37765401D01*
X8539116Y37704481D01*
X8477399Y37671729D01*
X8452485Y37669200D01*
X8248211Y37669200D01*
X8216233Y37632736D01*
X8204764Y37621267D01*
X8168300Y37589289D01*
X8168300Y37385016D01*
X8148615Y37317977D01*
X8095811Y37272222D01*
X8026653Y37262278D01*
X7963097Y37291303D01*
X7945924Y37309530D01*
X7893924Y37377298D01*
X7868730Y37442467D01*
X7868300Y37452784D01*
X7868300Y37589289D01*
X7868299Y37589289D01*
X7793195Y37579400D01*
X7741403Y37557948D01*
X7671934Y37550481D01*
X7646501Y37557948D01*
X7645847Y37558219D01*
X7593536Y37579887D01*
X7593535Y37579888D01*
X7593533Y37579888D01*
X7481027Y37594700D01*
X7481020Y37594700D01*
X7255580Y37594700D01*
X7255572Y37594700D01*
X7143064Y37579887D01*
X7143063Y37579887D01*
X7090751Y37558219D01*
X7021281Y37550752D01*
X6995849Y37558219D01*
X6962227Y37572145D01*
X6943536Y37579887D01*
X6929471Y37581739D01*
X6831027Y37594700D01*
X6831020Y37594700D01*
X6605580Y37594700D01*
X6605572Y37594700D01*
X6493064Y37579887D01*
X6493063Y37579887D01*
X6440751Y37558219D01*
X6371281Y37550752D01*
X6345849Y37558219D01*
X6312227Y37572145D01*
X6293536Y37579887D01*
X6279471Y37581739D01*
X6181027Y37594700D01*
X6181020Y37594700D01*
X5955580Y37594700D01*
X5955572Y37594700D01*
X5843064Y37579887D01*
X5843063Y37579887D01*
X5790751Y37558219D01*
X5721281Y37550752D01*
X5695849Y37558219D01*
X5662227Y37572145D01*
X5643536Y37579887D01*
X5629471Y37581739D01*
X5531027Y37594700D01*
X5531020Y37594700D01*
X5309906Y37594700D01*
X5242867Y37614385D01*
X5216677Y37636942D01*
X5188388Y37669200D01*
X4984115Y37669200D01*
X4917076Y37688885D01*
X4871321Y37741689D01*
X4861377Y37810847D01*
X4890402Y37874403D01*
X4908628Y37891575D01*
X4976396Y37943576D01*
X5041564Y37968770D01*
X5051882Y37969200D01*
X5188388Y37969200D01*
X5188388Y37969201D01*
X5178499Y38044304D01*
X5178499Y38044306D01*
X5157048Y38096094D01*
X5149579Y38165564D01*
X5157045Y38190994D01*
X5178987Y38243964D01*
X5193800Y38356480D01*
X5193800Y38581920D01*
X5178987Y38694436D01*
X5157317Y38746751D01*
X5149849Y38816215D01*
X5157314Y38841644D01*
X5178987Y38893964D01*
X5193800Y39006480D01*
X5193800Y39231920D01*
X5178987Y39344436D01*
X5157317Y39396751D01*
X5149849Y39466215D01*
X5157314Y39491644D01*
X5178987Y39543964D01*
X5193800Y39656480D01*
X5193800Y39881920D01*
X5178987Y39994436D01*
X5157047Y40047402D01*
X5149579Y40116870D01*
X5157048Y40142308D01*
X5178500Y40194097D01*
X5188388Y40269200D01*
X5051882Y40269200D01*
X4984843Y40288885D01*
X4976395Y40294825D01*
X4961215Y40306473D01*
X4908627Y40346826D01*
X4867426Y40403253D01*
X4863271Y40472999D01*
X4897484Y40533919D01*
X4959201Y40566671D01*
X4984115Y40569200D01*
X5188388Y40569200D01*
X5216677Y40601458D01*
X5275679Y40638883D01*
X5309906Y40643700D01*
X5531013Y40643700D01*
X5531020Y40643700D01*
X5643536Y40658513D01*
X5695850Y40680183D01*
X5765315Y40687651D01*
X5790743Y40680186D01*
X5843064Y40658513D01*
X5936655Y40646192D01*
X5949989Y40644436D01*
X5955580Y40643700D01*
X5955587Y40643700D01*
X6181013Y40643700D01*
X6181020Y40643700D01*
X6293536Y40658513D01*
X6345850Y40680183D01*
X6415315Y40687651D01*
X6440743Y40680186D01*
X6493064Y40658513D01*
X6586655Y40646192D01*
X6599989Y40644436D01*
X6605580Y40643700D01*
X6605587Y40643700D01*
X6831013Y40643700D01*
X6831020Y40643700D01*
X6943536Y40658513D01*
X6995850Y40680183D01*
X7065315Y40687651D01*
X7090743Y40680186D01*
X7143064Y40658513D01*
X7236655Y40646192D01*
X7249989Y40644436D01*
X7255580Y40643700D01*
X7255587Y40643700D01*
X7481013Y40643700D01*
X7481020Y40643700D01*
X7593536Y40658513D01*
X7645850Y40680183D01*
X7715315Y40687651D01*
X7740743Y40680186D01*
G37*
%TD.AperFunction*%
%TD*%
M02*
