%TF.GenerationSoftware,KiCad,Pcbnew,8.0.0*%
%TF.CreationDate,2025-08-09T21:47:33-07:00*%
%TF.ProjectId,it sure is getting hot in here,69742073-7572-4652-9069-732067657474,rev?*%
%TF.SameCoordinates,Original*%
%TF.FileFunction,Legend,Top*%
%TF.FilePolarity,Positive*%
%FSLAX46Y46*%
G04 Gerber Fmt 4.6, Leading zero omitted, Abs format (unit mm)*
G04 Created by KiCad (PCBNEW 8.0.0) date 2025-08-09 21:47:33*
%MOMM*%
%LPD*%
G01*
G04 APERTURE LIST*
G04 Aperture macros list*
%AMRoundRect*
0 Rectangle with rounded corners*
0 $1 Rounding radius*
0 $2 $3 $4 $5 $6 $7 $8 $9 X,Y pos of 4 corners*
0 Add a 4 corners polygon primitive as box body*
4,1,4,$2,$3,$4,$5,$6,$7,$8,$9,$2,$3,0*
0 Add four circle primitives for the rounded corners*
1,1,$1+$1,$2,$3*
1,1,$1+$1,$4,$5*
1,1,$1+$1,$6,$7*
1,1,$1+$1,$8,$9*
0 Add four rect primitives between the rounded corners*
20,1,$1+$1,$2,$3,$4,$5,0*
20,1,$1+$1,$4,$5,$6,$7,0*
20,1,$1+$1,$6,$7,$8,$9,0*
20,1,$1+$1,$8,$9,$2,$3,0*%
G04 Aperture macros list end*
%ADD10C,0.120000*%
%ADD11C,0.250000*%
%ADD12C,0.150000*%
%ADD13RoundRect,0.218750X-0.256250X0.218750X-0.256250X-0.218750X0.256250X-0.218750X0.256250X0.218750X0*%
%ADD14RoundRect,0.218750X0.256250X-0.218750X0.256250X0.218750X-0.256250X0.218750X-0.256250X-0.218750X0*%
%ADD15RoundRect,0.075000X-0.075000X0.337500X-0.075000X-0.337500X0.075000X-0.337500X0.075000X0.337500X0*%
%ADD16RoundRect,0.075000X-0.337500X0.075000X-0.337500X-0.075000X0.337500X-0.075000X0.337500X0.075000X0*%
%ADD17R,3.250000X3.250000*%
%ADD18RoundRect,0.135000X-0.185000X0.135000X-0.185000X-0.135000X0.185000X-0.135000X0.185000X0.135000X0*%
%ADD19R,1.700000X1.700000*%
%ADD20O,1.700000X1.700000*%
%ADD21RoundRect,0.140000X-0.170000X0.140000X-0.170000X-0.140000X0.170000X-0.140000X0.170000X0.140000X0*%
%ADD22RoundRect,0.140000X-0.140000X-0.170000X0.140000X-0.170000X0.140000X0.170000X-0.140000X0.170000X0*%
%ADD23RoundRect,0.150000X0.650000X0.150000X-0.650000X0.150000X-0.650000X-0.150000X0.650000X-0.150000X0*%
%ADD24R,0.800000X1.800000*%
%ADD25R,1.800000X3.100000*%
%ADD26R,1.000000X0.800000*%
%ADD27RoundRect,0.140000X0.170000X-0.140000X0.170000X0.140000X-0.170000X0.140000X-0.170000X-0.140000X0*%
%ADD28RoundRect,0.135000X0.185000X-0.135000X0.185000X0.135000X-0.185000X0.135000X-0.185000X-0.135000X0*%
%ADD29RoundRect,0.150000X-0.150000X0.512500X-0.150000X-0.512500X0.150000X-0.512500X0.150000X0.512500X0*%
%ADD30RoundRect,0.150000X-0.587500X-0.150000X0.587500X-0.150000X0.587500X0.150000X-0.587500X0.150000X0*%
%ADD31RoundRect,0.135000X-0.135000X-0.185000X0.135000X-0.185000X0.135000X0.185000X-0.135000X0.185000X0*%
%ADD32RoundRect,0.140000X0.140000X0.170000X-0.140000X0.170000X-0.140000X-0.170000X0.140000X-0.170000X0*%
%ADD33RoundRect,0.050000X0.387500X0.050000X-0.387500X0.050000X-0.387500X-0.050000X0.387500X-0.050000X0*%
%ADD34RoundRect,0.050000X0.050000X0.387500X-0.050000X0.387500X-0.050000X-0.387500X0.050000X-0.387500X0*%
%ADD35R,3.200000X3.200000*%
G04 APERTURE END LIST*
D10*
%TO.C,D3*%
X1440800Y35129200D02*
X-29200Y35129200D01*
X-29200Y35129200D02*
X-29200Y32844200D01*
X1440800Y32844200D02*
X1440800Y35129200D01*
%TO.C,D1*%
X70800Y12409200D02*
X1540800Y12409200D01*
X1540800Y12409200D02*
X1540800Y14694200D01*
X70800Y14694200D02*
X70800Y12409200D01*
%TO.C,U1*%
X8428300Y41729200D02*
X9088300Y41729200D01*
X4108300Y41729200D02*
X5008300Y41729200D01*
X9328300Y40829200D02*
X9328300Y41429200D01*
X4108300Y40829200D02*
X4108300Y41729200D01*
X9328300Y37409200D02*
X9328300Y36509200D01*
X4108300Y37409200D02*
X4108300Y36509200D01*
X9328300Y36509200D02*
X8428300Y36509200D01*
X4108300Y36509200D02*
X5008300Y36509200D01*
X9658300Y41489200D02*
X9328300Y41729200D01*
X9658300Y41969200D01*
X9658300Y41489200D01*
G36*
X9658300Y41489200D02*
G01*
X9328300Y41729200D01*
X9658300Y41969200D01*
X9658300Y41489200D01*
G37*
%TO.C,R10*%
X10760800Y41297841D02*
X10760800Y40990559D01*
X10000800Y41297841D02*
X10000800Y40990559D01*
%TO.C,J1*%
X250800Y40549200D02*
X1580800Y40549200D01*
X250800Y39219200D02*
X250800Y40549200D01*
X250800Y37949200D02*
X250800Y35349200D01*
X250800Y37949200D02*
X2910800Y37949200D01*
X250800Y35349200D02*
X2910800Y35349200D01*
X2910800Y37949200D02*
X2910800Y35349200D01*
%TO.C,C4*%
X10715800Y38027036D02*
X10715800Y37811364D01*
X9995800Y38027036D02*
X9995800Y37811364D01*
%TO.C,C3*%
X2047964Y41979200D02*
X2263636Y41979200D01*
X2047964Y41259200D02*
X2263636Y41259200D01*
%TO.C,U5*%
X3505800Y15221800D02*
X3505800Y14961800D01*
X3505800Y9771800D02*
X3505800Y10031800D01*
X6230800Y15221800D02*
X3505800Y15221800D01*
X6230800Y15221800D02*
X8955800Y15221800D01*
X6230800Y9771800D02*
X3505800Y9771800D01*
X6230800Y9771800D02*
X8955800Y9771800D01*
X8955800Y15221800D02*
X8955800Y14961800D01*
X8955800Y9771800D02*
X8955800Y10031800D01*
X9978300Y9701800D02*
X9498300Y9701800D01*
X9738300Y10031800D01*
X9978300Y9701800D01*
G36*
X9978300Y9701800D02*
G01*
X9498300Y9701800D01*
X9738300Y10031800D01*
X9978300Y9701800D01*
G37*
D11*
%TO.C,C1000*%
X8065800Y3746700D02*
X8955800Y3746700D01*
X8955800Y3746700D02*
X8955800Y3346700D01*
X2155800Y3376700D02*
X2155800Y3746700D01*
X2155800Y3746700D02*
X3045800Y3746700D01*
X655800Y-53300D02*
X655800Y-253300D01*
X655800Y-253300D02*
X2155800Y-253300D01*
X2155800Y-253300D02*
X2255800Y-253300D01*
X2255800Y-253300D02*
X2255800Y-653300D01*
X2255800Y-653300D02*
X8855800Y-653300D01*
X8855800Y-653300D02*
X8955800Y-653300D01*
X8955800Y-653300D02*
X8955800Y-253300D01*
X8955800Y-253300D02*
X10455800Y-253300D01*
X10455800Y-253300D02*
X10455800Y-53300D01*
D12*
%TO.C,X1*%
X5919200Y28406400D02*
X9099200Y28406400D01*
X5919200Y25746400D02*
X5919200Y28406400D01*
X9099200Y28406400D02*
X9219200Y28406400D01*
X9219200Y28406400D02*
X9219200Y25746400D01*
X9219200Y25746400D02*
X5919200Y25746400D01*
X9459200Y28636400D02*
X8199200Y28636400D01*
X9459200Y27176400D02*
X9459200Y28636400D01*
D10*
%TO.C,J2*%
X295600Y32043600D02*
X1625600Y32043600D01*
X295600Y30713600D02*
X295600Y32043600D01*
X295600Y29443600D02*
X295600Y26843600D01*
X295600Y29443600D02*
X2955600Y29443600D01*
X295600Y26843600D02*
X2955600Y26843600D01*
X2955600Y29443600D02*
X2955600Y26843600D01*
%TO.C,C21*%
X300400Y22129636D02*
X300400Y21913964D01*
X1020400Y22129636D02*
X1020400Y21913964D01*
%TO.C,C9*%
X10045800Y30552036D02*
X10045800Y30336364D01*
X10765800Y30552036D02*
X10765800Y30336364D01*
%TO.C,C8*%
X10003200Y33699564D02*
X10003200Y33915236D01*
X10723200Y33699564D02*
X10723200Y33915236D01*
%TO.C,R7*%
X8875800Y6090559D02*
X8875800Y6397841D01*
X9635800Y6090559D02*
X9635800Y6397841D01*
%TO.C,C10*%
X4059600Y26536764D02*
X4059600Y26752436D01*
X4779600Y26536764D02*
X4779600Y26752436D01*
%TO.C,C15*%
X1345800Y16502036D02*
X1345800Y16286364D01*
X2065800Y16502036D02*
X2065800Y16286364D01*
%TO.C,U3*%
X4170800Y34416700D02*
X5070800Y34416700D01*
X4170800Y33516700D02*
X4170800Y34416700D01*
X4170800Y30096700D02*
X4170800Y29196700D01*
X4170800Y29196700D02*
X5070800Y29196700D01*
X8490800Y34416700D02*
X9150800Y34416700D01*
X9390800Y33516700D02*
X9390800Y34116700D01*
X9390800Y30096700D02*
X9390800Y29196700D01*
X9390800Y29196700D02*
X8490800Y29196700D01*
X9720800Y34176700D02*
X9390800Y34416700D01*
X9720800Y34656700D01*
X9720800Y34176700D01*
G36*
X9720800Y34176700D02*
G01*
X9390800Y34416700D01*
X9720800Y34656700D01*
X9720800Y34176700D01*
G37*
%TO.C,C22*%
X275000Y18548236D02*
X275000Y18332564D01*
X995000Y18548236D02*
X995000Y18332564D01*
%TO.C,R5*%
X3252200Y16460441D02*
X3252200Y16153159D01*
X4012200Y16460441D02*
X4012200Y16153159D01*
%TO.C,C12*%
X427400Y10941164D02*
X427400Y11156836D01*
X1147400Y10941164D02*
X1147400Y11156836D01*
%TO.C,C19*%
X9520600Y21951836D02*
X9520600Y21736164D01*
X10240600Y21951836D02*
X10240600Y21736164D01*
%TO.C,U2*%
X4245300Y7569200D02*
X4245300Y8369200D01*
X4245300Y7569200D02*
X4245300Y6769200D01*
X7365300Y7569200D02*
X7365300Y8369200D01*
X7365300Y7569200D02*
X7365300Y6769200D01*
X7645300Y8629200D02*
X7315300Y8869200D01*
X7645300Y9109200D01*
X7645300Y8629200D01*
G36*
X7645300Y8629200D02*
G01*
X7315300Y8869200D01*
X7645300Y9109200D01*
X7645300Y8629200D01*
G37*
%TO.C,Q2*%
X2168300Y9454200D02*
X2818300Y9454200D01*
X2168300Y9454200D02*
X1518300Y9454200D01*
X2168300Y6334200D02*
X2818300Y6334200D01*
X2168300Y6334200D02*
X1518300Y6334200D01*
X1005800Y9404200D02*
X765800Y9734200D01*
X1245800Y9734200D01*
X1005800Y9404200D01*
G36*
X1005800Y9404200D02*
G01*
X765800Y9734200D01*
X1245800Y9734200D01*
X1005800Y9404200D01*
G37*
%TO.C,C14*%
X9673000Y26066636D02*
X9673000Y25850964D01*
X10393000Y26066636D02*
X10393000Y25850964D01*
%TO.C,C18*%
X5177200Y16389236D02*
X5177200Y16173564D01*
X5897200Y16389236D02*
X5897200Y16173564D01*
%TO.C,R3*%
X9422159Y9498600D02*
X9729441Y9498600D01*
X9422159Y8738600D02*
X9729441Y8738600D01*
%TO.C,R6*%
X3074400Y26798241D02*
X3074400Y26490959D01*
X3834400Y26798241D02*
X3834400Y26490959D01*
%TO.C,C2*%
X10615800Y5137036D02*
X10615800Y4921364D01*
X9895800Y5137036D02*
X9895800Y4921364D01*
%TO.C,C16*%
X8591436Y8030800D02*
X8375764Y8030800D01*
X8591436Y7310800D02*
X8375764Y7310800D01*
%TO.C,R8*%
X9950800Y7059959D02*
X9950800Y7367241D01*
X10710800Y7059959D02*
X10710800Y7367241D01*
%TO.C,U6*%
X1660400Y25136600D02*
X1660400Y24486600D01*
X1660400Y17916600D02*
X1660400Y18566600D01*
X2310400Y25136600D02*
X1660400Y25136600D01*
X2310400Y17916600D02*
X1660400Y17916600D01*
X8230400Y25136600D02*
X8880400Y25136600D01*
X8230400Y17916600D02*
X8580400Y17916600D01*
X8880400Y25136600D02*
X8880400Y24486600D01*
X8880400Y18566600D02*
X8880400Y18156600D01*
X9120400Y17586600D02*
X8640400Y17586600D01*
X8880400Y17916600D01*
X9120400Y17586600D01*
G36*
X9120400Y17586600D02*
G01*
X8640400Y17586600D01*
X8880400Y17916600D01*
X9120400Y17586600D01*
G37*
%TO.C,R2*%
X2475800Y33872841D02*
X2475800Y33565559D01*
X3235800Y33872841D02*
X3235800Y33565559D01*
%TO.C,C17*%
X9546000Y18548236D02*
X9546000Y18332564D01*
X10266000Y18548236D02*
X10266000Y18332564D01*
%TO.C,C20*%
X5024800Y26536764D02*
X5024800Y26752436D01*
X5744800Y26536764D02*
X5744800Y26752436D01*
%TO.C,R9*%
X1525800Y33565559D02*
X1525800Y33872841D01*
X2285800Y33565559D02*
X2285800Y33872841D01*
%TO.C,R4*%
X4217400Y16305559D02*
X4217400Y16612841D01*
X4977400Y16305559D02*
X4977400Y16612841D01*
%TO.C,C7*%
X3590800Y31427036D02*
X3590800Y31211364D01*
X2870800Y31427036D02*
X2870800Y31211364D01*
%TO.C,C13*%
X2295800Y16502036D02*
X2295800Y16286364D01*
X3015800Y16502036D02*
X3015800Y16286364D01*
%TO.C,C1*%
X7870800Y6140564D02*
X7870800Y6356236D01*
X8590800Y6140564D02*
X8590800Y6356236D01*
%TO.C,R1*%
X375800Y16265559D02*
X375800Y16572841D01*
X1135800Y16265559D02*
X1135800Y16572841D01*
%TD*%
%LPC*%
D13*
%TO.C,D3*%
X705800Y34431700D03*
X705800Y32856700D03*
%TD*%
D14*
%TO.C,D1*%
X805800Y13106700D03*
X805800Y14681700D03*
%TD*%
D15*
%TO.C,U1*%
X8018300Y41556700D03*
X7368300Y41556700D03*
X6718300Y41556700D03*
X6068300Y41556700D03*
X5418300Y41556700D03*
D16*
X4280800Y40419200D03*
X4280800Y39769200D03*
X4280800Y39119200D03*
X4280800Y38469200D03*
X4280800Y37819200D03*
D15*
X5418300Y36681700D03*
X6068300Y36681700D03*
X6718300Y36681700D03*
X7368300Y36681700D03*
X8018300Y36681700D03*
D16*
X9155800Y37819200D03*
X9155800Y38469200D03*
X9155800Y39119200D03*
X9155800Y39769200D03*
X9155800Y40419200D03*
D17*
X6718300Y39119200D03*
%TD*%
D18*
%TO.C,R10*%
X10380800Y41654200D03*
X10380800Y40634200D03*
%TD*%
D19*
%TO.C,J1*%
X1580800Y39219200D03*
D20*
X1580800Y36679200D03*
%TD*%
D21*
%TO.C,C4*%
X10355800Y38399200D03*
X10355800Y37439200D03*
%TD*%
D22*
%TO.C,C3*%
X1675800Y41619200D03*
X2635800Y41619200D03*
%TD*%
D23*
%TO.C,U5*%
X9830800Y10591800D03*
X9830800Y11861800D03*
X9830800Y13131800D03*
X9830800Y14401800D03*
X2630800Y14401800D03*
X2630800Y13131800D03*
X2630800Y11861800D03*
X2630800Y10591800D03*
%TD*%
D24*
%TO.C,C1000*%
X3675800Y4166700D03*
X4935800Y4166700D03*
X6175800Y4166700D03*
X7425800Y4166700D03*
D25*
X1125800Y1626700D03*
X9985800Y1626700D03*
%TD*%
D26*
%TO.C,X1*%
X8469200Y27676400D03*
X6669200Y27676400D03*
X6669200Y26476400D03*
X8469200Y26476400D03*
%TD*%
D19*
%TO.C,J2*%
X1625600Y30713600D03*
D20*
X1625600Y28173600D03*
%TD*%
D21*
%TO.C,C21*%
X660400Y22501800D03*
X660400Y21541800D03*
%TD*%
%TO.C,C9*%
X10405800Y30924200D03*
X10405800Y29964200D03*
%TD*%
D27*
%TO.C,C8*%
X10363200Y33327400D03*
X10363200Y34287400D03*
%TD*%
D28*
%TO.C,R7*%
X9255800Y5734200D03*
X9255800Y6754200D03*
%TD*%
D27*
%TO.C,C10*%
X4419600Y26164600D03*
X4419600Y27124600D03*
%TD*%
D21*
%TO.C,C15*%
X1705800Y16874200D03*
X1705800Y15914200D03*
%TD*%
D15*
%TO.C,U3*%
X8080800Y34244200D03*
X7430800Y34244200D03*
X6780800Y34244200D03*
X6130800Y34244200D03*
X5480800Y34244200D03*
D16*
X4343300Y33106700D03*
X4343300Y32456700D03*
X4343300Y31806700D03*
X4343300Y31156700D03*
X4343300Y30506700D03*
D15*
X5480800Y29369200D03*
X6130800Y29369200D03*
X6780800Y29369200D03*
X7430800Y29369200D03*
X8080800Y29369200D03*
D16*
X9218300Y30506700D03*
X9218300Y31156700D03*
X9218300Y31806700D03*
X9218300Y32456700D03*
X9218300Y33106700D03*
D17*
X6780800Y31806700D03*
%TD*%
D21*
%TO.C,C22*%
X635000Y18920400D03*
X635000Y17960400D03*
%TD*%
D18*
%TO.C,R5*%
X3632200Y16816800D03*
X3632200Y15796800D03*
%TD*%
D27*
%TO.C,C12*%
X787400Y10569000D03*
X787400Y11529000D03*
%TD*%
D21*
%TO.C,C19*%
X9880600Y22324000D03*
X9880600Y21364000D03*
%TD*%
D29*
%TO.C,U2*%
X6755300Y8706700D03*
X4855300Y8706700D03*
X5805300Y6431700D03*
%TD*%
D30*
%TO.C,Q2*%
X1230800Y8844200D03*
X1230800Y6944200D03*
X3105800Y7894200D03*
%TD*%
D21*
%TO.C,C14*%
X10033000Y26438800D03*
X10033000Y25478800D03*
%TD*%
%TO.C,C18*%
X5537200Y16761400D03*
X5537200Y15801400D03*
%TD*%
D31*
%TO.C,R3*%
X9065800Y9118600D03*
X10085800Y9118600D03*
%TD*%
D18*
%TO.C,R6*%
X3454400Y27154600D03*
X3454400Y26134600D03*
%TD*%
D21*
%TO.C,C2*%
X10255800Y5509200D03*
X10255800Y4549200D03*
%TD*%
D32*
%TO.C,C16*%
X8963600Y7670800D03*
X8003600Y7670800D03*
%TD*%
D28*
%TO.C,R8*%
X10330800Y6703600D03*
X10330800Y7723600D03*
%TD*%
D33*
%TO.C,U6*%
X8707900Y18926600D03*
X8707900Y19326600D03*
X8707900Y19726600D03*
X8707900Y20126600D03*
X8707900Y20526600D03*
X8707900Y20926600D03*
X8707900Y21326600D03*
X8707900Y21726600D03*
X8707900Y22126600D03*
X8707900Y22526600D03*
X8707900Y22926600D03*
X8707900Y23326600D03*
X8707900Y23726600D03*
X8707900Y24126600D03*
D34*
X7870400Y24964100D03*
X7470400Y24964100D03*
X7070400Y24964100D03*
X6670400Y24964100D03*
X6270400Y24964100D03*
X5870400Y24964100D03*
X5470400Y24964100D03*
X5070400Y24964100D03*
X4670400Y24964100D03*
X4270400Y24964100D03*
X3870400Y24964100D03*
X3470400Y24964100D03*
X3070400Y24964100D03*
X2670400Y24964100D03*
D33*
X1832900Y24126600D03*
X1832900Y23726600D03*
X1832900Y23326600D03*
X1832900Y22926600D03*
X1832900Y22526600D03*
X1832900Y22126600D03*
X1832900Y21726600D03*
X1832900Y21326600D03*
X1832900Y20926600D03*
X1832900Y20526600D03*
X1832900Y20126600D03*
X1832900Y19726600D03*
X1832900Y19326600D03*
X1832900Y18926600D03*
D34*
X2670400Y18089100D03*
X3070400Y18089100D03*
X3470400Y18089100D03*
X3870400Y18089100D03*
X4270400Y18089100D03*
X4670400Y18089100D03*
X5070400Y18089100D03*
X5470400Y18089100D03*
X5870400Y18089100D03*
X6270400Y18089100D03*
X6670400Y18089100D03*
X7070400Y18089100D03*
X7470400Y18089100D03*
X7870400Y18089100D03*
D35*
X5270400Y21526600D03*
%TD*%
D18*
%TO.C,R2*%
X2855800Y34229200D03*
X2855800Y33209200D03*
%TD*%
D21*
%TO.C,C17*%
X9906000Y18920400D03*
X9906000Y17960400D03*
%TD*%
D27*
%TO.C,C20*%
X5384800Y26164600D03*
X5384800Y27124600D03*
%TD*%
D28*
%TO.C,R9*%
X1905800Y33209200D03*
X1905800Y34229200D03*
%TD*%
%TO.C,R4*%
X4597400Y15949200D03*
X4597400Y16969200D03*
%TD*%
D21*
%TO.C,C7*%
X3230800Y31799200D03*
X3230800Y30839200D03*
%TD*%
%TO.C,C13*%
X2655800Y16874200D03*
X2655800Y15914200D03*
%TD*%
D27*
%TO.C,C1*%
X8230800Y5768400D03*
X8230800Y6728400D03*
%TD*%
D28*
%TO.C,R1*%
X755800Y15909200D03*
X755800Y16929200D03*
%TD*%
%LPD*%
M02*
