M48
; DRILL file {KiCad 8.0.0} date 2025-08-09T21:47:33-0700
; FORMAT={-:-/ absolute / inch / decimal}
; #@! TF.CreationDate,2025-08-09T21:47:33-07:00
; #@! TF.GenerationSoftware,Kicad,Pcbnew,8.0.0
; #@! TF.FileFunction,Plated,1,4,PTH
FMAT,2
INCH
; #@! TA.AperFunction,Plated,PTH,ViaDrill
T1C0.0118
; #@! TA.AperFunction,Plated,PTH,ViaDrill
T2C0.0197
; #@! TA.AperFunction,Plated,PTH,ComponentDrill
T3C0.0394
%
G90
G05
T1
X0.0229Y1.2685
X0.0315Y0.9545
X0.0315Y0.92
X0.0315Y0.824
X0.032Y0.472
X0.0401Y0.8869
X0.044Y0.7415
X0.049Y0.71
X0.049Y0.4161
X0.0642Y1.2685
X0.079Y0.6907
X0.0888Y0.6265
X0.0895Y1.0392
X0.1016Y1.6208
X0.1085Y0.8246
X0.1095Y0.7616
X0.1109Y1.3393
X0.1252Y1.5382
X0.1349Y1.0897
X0.1398Y1.1346
X0.1449Y0.9466
X0.1459Y0.5933
X0.1498Y1.173
X0.1768Y0.6137
X0.1897Y0.8475
X0.1916Y0.9302
X0.1951Y1.5913
X0.1951Y0.0962
X0.1981Y1.1543
X0.1996Y1.3994
X0.201Y1.0679
X0.204Y1.1007
X0.2051Y1.0181
X0.2072Y0.7489
X0.2132Y0.6753
X0.2305Y0.5372
X0.231Y0.9397
X0.2315Y0.1248
X0.2325Y0.5726
X0.2345Y0.7648
X0.2345Y0.6218
X0.2357Y1.3994
X0.2498Y0.6676
X0.2512Y1.0856
X0.2532Y1.6346
X0.2645Y1.5401
X0.2657Y1.4111
X0.267Y1.245
X0.2679Y0.7648
X0.2847Y1.3807
X0.2965Y0.9486
X0.2985Y0.9013
X0.2994Y0.7665
X0.3063Y0.6149
X0.3073Y0.5756
X0.3151Y0.282
X0.3182Y1.171
X0.3203Y1.446
X0.3246Y0.423
X0.3333Y1.4105
X0.3368Y1.1833
X0.3377Y0.3274
X0.3378Y0.986
X0.3468Y1.1378
X0.3505Y0.6709
X0.3664Y0.6356
X0.3739Y0.744
X0.3762Y0.5834
X0.3783Y1.032
X0.3835Y1.6148
X0.3861Y1.295
X0.388Y1.4732
X0.388Y0.8216
X0.389Y0.685
X0.3908Y0.3464
X0.391Y1.5716
X0.392Y1.2508
X0.3951Y1.504
X0.4016Y0.3147
X0.4018Y0.9634
X0.4032Y1.3639
X0.4032Y1.5425
X0.4087Y0.2321
X0.4097Y0.8758
X0.4126Y1.0126
T2
X0.194Y0.375
X0.2729Y0.377
X0.292Y0.123
T3
X0.0622Y1.5441
X0.0622Y1.4441
X0.064Y1.2092
X0.064Y1.1092
M30
