%TF.GenerationSoftware,KiCad,Pcbnew,7.0.5*%
%TF.CreationDate,2023-12-09T18:35:52-08:00*%
%TF.ProjectId,Lyrav3,4c797261-7633-42e6-9b69-6361645f7063,rev?*%
%TF.SameCoordinates,Original*%
%TF.FileFunction,Copper,L1,Top*%
%TF.FilePolarity,Positive*%
%FSLAX46Y46*%
G04 Gerber Fmt 4.6, Leading zero omitted, Abs format (unit mm)*
G04 Created by KiCad (PCBNEW 7.0.5) date 2023-12-09 18:35:52*
%MOMM*%
%LPD*%
G01*
G04 APERTURE LIST*
G04 Aperture macros list*
%AMRoundRect*
0 Rectangle with rounded corners*
0 $1 Rounding radius*
0 $2 $3 $4 $5 $6 $7 $8 $9 X,Y pos of 4 corners*
0 Add a 4 corners polygon primitive as box body*
4,1,4,$2,$3,$4,$5,$6,$7,$8,$9,$2,$3,0*
0 Add four circle primitives for the rounded corners*
1,1,$1+$1,$2,$3*
1,1,$1+$1,$4,$5*
1,1,$1+$1,$6,$7*
1,1,$1+$1,$8,$9*
0 Add four rect primitives between the rounded corners*
20,1,$1+$1,$2,$3,$4,$5,0*
20,1,$1+$1,$4,$5,$6,$7,0*
20,1,$1+$1,$6,$7,$8,$9,0*
20,1,$1+$1,$8,$9,$2,$3,0*%
%AMFreePoly0*
4,1,19,0.500000,-0.750000,0.000000,-0.750000,0.000000,-0.744911,-0.071157,-0.744911,-0.207708,-0.704816,-0.327430,-0.627875,-0.420627,-0.520320,-0.479746,-0.390866,-0.500000,-0.250000,-0.500000,0.250000,-0.479746,0.390866,-0.420627,0.520320,-0.327430,0.627875,-0.207708,0.704816,-0.071157,0.744911,0.000000,0.744911,0.000000,0.750000,0.500000,0.750000,0.500000,-0.750000,0.500000,-0.750000,
$1*%
%AMFreePoly1*
4,1,19,0.000000,0.744911,0.071157,0.744911,0.207708,0.704816,0.327430,0.627875,0.420627,0.520320,0.479746,0.390866,0.500000,0.250000,0.500000,-0.250000,0.479746,-0.390866,0.420627,-0.520320,0.327430,-0.627875,0.207708,-0.704816,0.071157,-0.744911,0.000000,-0.744911,0.000000,-0.750000,-0.500000,-0.750000,-0.500000,0.750000,0.000000,0.750000,0.000000,0.744911,0.000000,0.744911,
$1*%
G04 Aperture macros list end*
%TA.AperFunction,SMDPad,CuDef*%
%ADD10RoundRect,0.200000X-0.200000X-0.275000X0.200000X-0.275000X0.200000X0.275000X-0.200000X0.275000X0*%
%TD*%
%TA.AperFunction,SMDPad,CuDef*%
%ADD11RoundRect,0.200000X0.200000X0.275000X-0.200000X0.275000X-0.200000X-0.275000X0.200000X-0.275000X0*%
%TD*%
%TA.AperFunction,SMDPad,CuDef*%
%ADD12RoundRect,0.200000X-0.275000X0.200000X-0.275000X-0.200000X0.275000X-0.200000X0.275000X0.200000X0*%
%TD*%
%TA.AperFunction,SMDPad,CuDef*%
%ADD13RoundRect,0.218750X0.256250X-0.218750X0.256250X0.218750X-0.256250X0.218750X-0.256250X-0.218750X0*%
%TD*%
%TA.AperFunction,SMDPad,CuDef*%
%ADD14RoundRect,0.225000X0.225000X0.250000X-0.225000X0.250000X-0.225000X-0.250000X0.225000X-0.250000X0*%
%TD*%
%TA.AperFunction,SMDPad,CuDef*%
%ADD15RoundRect,0.225000X-0.225000X-0.250000X0.225000X-0.250000X0.225000X0.250000X-0.225000X0.250000X0*%
%TD*%
%TA.AperFunction,SMDPad,CuDef*%
%ADD16RoundRect,0.225000X0.250000X-0.225000X0.250000X0.225000X-0.250000X0.225000X-0.250000X-0.225000X0*%
%TD*%
%TA.AperFunction,SMDPad,CuDef*%
%ADD17RoundRect,0.225000X-0.250000X0.225000X-0.250000X-0.225000X0.250000X-0.225000X0.250000X0.225000X0*%
%TD*%
%TA.AperFunction,SMDPad,CuDef*%
%ADD18RoundRect,0.243750X-0.243750X-0.456250X0.243750X-0.456250X0.243750X0.456250X-0.243750X0.456250X0*%
%TD*%
%TA.AperFunction,ComponentPad*%
%ADD19C,5.600000*%
%TD*%
%TA.AperFunction,SMDPad,CuDef*%
%ADD20R,0.350000X0.375000*%
%TD*%
%TA.AperFunction,SMDPad,CuDef*%
%ADD21R,0.375000X0.350000*%
%TD*%
%TA.AperFunction,SMDPad,CuDef*%
%ADD22R,1.070000X0.530000*%
%TD*%
%TA.AperFunction,SMDPad,CuDef*%
%ADD23RoundRect,0.150000X-0.625000X0.150000X-0.625000X-0.150000X0.625000X-0.150000X0.625000X0.150000X0*%
%TD*%
%TA.AperFunction,SMDPad,CuDef*%
%ADD24RoundRect,0.250000X-0.650000X0.350000X-0.650000X-0.350000X0.650000X-0.350000X0.650000X0.350000X0*%
%TD*%
%TA.AperFunction,SMDPad,CuDef*%
%ADD25RoundRect,0.050000X-0.050000X0.387500X-0.050000X-0.387500X0.050000X-0.387500X0.050000X0.387500X0*%
%TD*%
%TA.AperFunction,SMDPad,CuDef*%
%ADD26RoundRect,0.050000X-0.387500X0.050000X-0.387500X-0.050000X0.387500X-0.050000X0.387500X0.050000X0*%
%TD*%
%TA.AperFunction,SMDPad,CuDef*%
%ADD27R,3.200000X3.200000*%
%TD*%
%TA.AperFunction,SMDPad,CuDef*%
%ADD28RoundRect,0.150000X-0.150000X0.587500X-0.150000X-0.587500X0.150000X-0.587500X0.150000X0.587500X0*%
%TD*%
%TA.AperFunction,ComponentPad*%
%ADD29R,1.700000X1.700000*%
%TD*%
%TA.AperFunction,ComponentPad*%
%ADD30O,1.700000X1.700000*%
%TD*%
%TA.AperFunction,SMDPad,CuDef*%
%ADD31R,1.400000X1.200000*%
%TD*%
%TA.AperFunction,ComponentPad*%
%ADD32R,2.200000X2.200000*%
%TD*%
%TA.AperFunction,ComponentPad*%
%ADD33C,2.200000*%
%TD*%
%TA.AperFunction,ComponentPad*%
%ADD34O,1.900000X1.200000*%
%TD*%
%TA.AperFunction,ComponentPad*%
%ADD35O,1.400000X1.200000*%
%TD*%
%TA.AperFunction,SMDPad,CuDef*%
%ADD36R,1.600000X0.400000*%
%TD*%
%TA.AperFunction,SMDPad,CuDef*%
%ADD37FreePoly0,180.000000*%
%TD*%
%TA.AperFunction,SMDPad,CuDef*%
%ADD38FreePoly1,180.000000*%
%TD*%
%TA.AperFunction,SMDPad,CuDef*%
%ADD39R,1.000000X0.600000*%
%TD*%
%TA.AperFunction,SMDPad,CuDef*%
%ADD40R,0.250000X0.800000*%
%TD*%
%TA.AperFunction,SMDPad,CuDef*%
%ADD41R,0.800000X0.250000*%
%TD*%
%TA.AperFunction,SMDPad,CuDef*%
%ADD42O,1.770000X0.450000*%
%TD*%
%TA.AperFunction,SMDPad,CuDef*%
%ADD43R,0.600000X1.550000*%
%TD*%
%TA.AperFunction,SMDPad,CuDef*%
%ADD44R,0.580000X0.300000*%
%TD*%
%TA.AperFunction,SMDPad,CuDef*%
%ADD45R,0.580000X0.250000*%
%TD*%
%TA.AperFunction,SMDPad,CuDef*%
%ADD46R,0.350000X0.630000*%
%TD*%
%TA.AperFunction,SMDPad,CuDef*%
%ADD47RoundRect,0.125000X0.475000X0.125000X-0.475000X0.125000X-0.475000X-0.125000X0.475000X-0.125000X0*%
%TD*%
%TA.AperFunction,SMDPad,CuDef*%
%ADD48O,0.480000X1.330000*%
%TD*%
%TA.AperFunction,SMDPad,CuDef*%
%ADD49R,0.800000X0.400000*%
%TD*%
%TA.AperFunction,SMDPad,CuDef*%
%ADD50R,2.300000X3.000000*%
%TD*%
G04 APERTURE END LIST*
D10*
%TO.P,R27,1*%
%TO.N,GND*%
X119538000Y-86772000D03*
%TO.P,R27,2*%
%TO.N,/P4 EN *%
X121188000Y-86772000D03*
%TD*%
%TO.P,R26,1*%
%TO.N,GND*%
X119538000Y-84782000D03*
%TO.P,R26,2*%
%TO.N,/P2 EN *%
X121188000Y-84782000D03*
%TD*%
%TO.P,R22,1*%
%TO.N,/QSPI_SS*%
X119538000Y-76822000D03*
%TO.P,R22,2*%
%TO.N,/BOOTSEL*%
X121188000Y-76822000D03*
%TD*%
D11*
%TO.P,R20,1*%
%TO.N,/P4-*%
X200723000Y-109474000D03*
%TO.P,R20,2*%
%TO.N,Net-(Q3B-D)*%
X199073000Y-109474000D03*
%TD*%
%TO.P,R19,1*%
%TO.N,/P2-*%
X200342000Y-99441000D03*
%TO.P,R19,2*%
%TO.N,Net-(Q2B-D)*%
X198692000Y-99441000D03*
%TD*%
D10*
%TO.P,R18,1*%
%TO.N,/RP USB_D-*%
X199225400Y-85598000D03*
%TO.P,R18,2*%
%TO.N,/USB_D-*%
X200875400Y-85598000D03*
%TD*%
%TO.P,R17,1*%
%TO.N,GND*%
X116628000Y-80802000D03*
%TO.P,R17,2*%
%TO.N,/P3 EN *%
X118278000Y-80802000D03*
%TD*%
%TO.P,R16,1*%
%TO.N,GND*%
X116628000Y-78812000D03*
%TO.P,R16,2*%
%TO.N,/P1 EN *%
X118278000Y-78812000D03*
%TD*%
D11*
%TO.P,R15,2*%
%TO.N,/RP USB_D+*%
X199225400Y-84074000D03*
%TO.P,R15,1*%
%TO.N,/USB_D+*%
X200875400Y-84074000D03*
%TD*%
D10*
%TO.P,R14,1*%
%TO.N,+3V3*%
X113718000Y-88762000D03*
%TO.P,R14,2*%
%TO.N,/RUN*%
X115368000Y-88762000D03*
%TD*%
D11*
%TO.P,R9,1*%
%TO.N,/P3-*%
X200723000Y-104775000D03*
%TO.P,R9,2*%
%TO.N,Net-(Q3A-D)*%
X199073000Y-104775000D03*
%TD*%
%TO.P,R8,1*%
%TO.N,/P1-*%
X200342000Y-94488000D03*
%TO.P,R8,2*%
%TO.N,Net-(Q2A-D)*%
X198692000Y-94488000D03*
%TD*%
D12*
%TO.P,R7,1*%
%TO.N,+3V3*%
X197154800Y-75476600D03*
%TO.P,R7,2*%
%TO.N,/I2C0 SDA*%
X197154800Y-77126600D03*
%TD*%
%TO.P,R6,1*%
%TO.N,+3V3*%
X195503800Y-75476601D03*
%TO.P,R6,2*%
%TO.N,/I2C0 SCL*%
X195503800Y-77126601D03*
%TD*%
D10*
%TO.P,R5,1*%
%TO.N,/BATT SENSE *%
X110808000Y-84782000D03*
%TO.P,R5,2*%
%TO.N,GND*%
X112458000Y-84782000D03*
%TD*%
%TO.P,R4,1*%
%TO.N,+12V*%
X110808000Y-82792000D03*
%TO.P,R4,2*%
%TO.N,/BATT SENSE *%
X112458000Y-82792000D03*
%TD*%
%TO.P,R3,1*%
%TO.N,Net-(D2-A)*%
X195173600Y-94284800D03*
%TO.P,R3,2*%
%TO.N,+3V3*%
X196823600Y-94284800D03*
%TD*%
D13*
%TO.P,D3,1,K*%
%TO.N,+12V*%
X194564000Y-98323500D03*
%TO.P,D3,2,A*%
%TO.N,Net-(D3-A)*%
X194564000Y-96748500D03*
%TD*%
D14*
%TO.P,C29,1*%
%TO.N,Net-(U9-BP)*%
X193307000Y-112649000D03*
%TO.P,C29,2*%
%TO.N,GND*%
X191757000Y-112649000D03*
%TD*%
D15*
%TO.P,C28,1*%
%TO.N,+3V3*%
X131088000Y-80752000D03*
%TO.P,C28,2*%
%TO.N,GND*%
X132638000Y-80752000D03*
%TD*%
%TO.P,C27,1*%
%TO.N,+3V3*%
X131088000Y-78782000D03*
%TO.P,C27,2*%
%TO.N,GND*%
X132638000Y-78782000D03*
%TD*%
%TO.P,C26,1*%
%TO.N,+3V3*%
X131088000Y-76812000D03*
%TO.P,C26,2*%
%TO.N,GND*%
X132638000Y-76812000D03*
%TD*%
%TO.P,C25,1*%
%TO.N,+3V3*%
X128218000Y-88632000D03*
%TO.P,C25,2*%
%TO.N,GND*%
X129768000Y-88632000D03*
%TD*%
%TO.P,C24,1*%
%TO.N,+3V3*%
X128218000Y-86662000D03*
%TO.P,C24,2*%
%TO.N,GND*%
X129768000Y-86662000D03*
%TD*%
%TO.P,C23,1*%
%TO.N,+3V3*%
X128218000Y-84692000D03*
%TO.P,C23,2*%
%TO.N,GND*%
X129768000Y-84692000D03*
%TD*%
%TO.P,C22,1*%
%TO.N,+3V3*%
X128218000Y-82722000D03*
%TO.P,C22,2*%
%TO.N,GND*%
X129768000Y-82722000D03*
%TD*%
%TO.P,C21,1*%
%TO.N,+3V3*%
X128218000Y-80752000D03*
%TO.P,C21,2*%
%TO.N,GND*%
X129768000Y-80752000D03*
%TD*%
%TO.P,C20,1*%
%TO.N,+3V3*%
X128218000Y-78782000D03*
%TO.P,C20,2*%
%TO.N,GND*%
X129768000Y-78782000D03*
%TD*%
%TO.P,C19,1*%
%TO.N,+3V3*%
X128218000Y-76812000D03*
%TO.P,C19,2*%
%TO.N,GND*%
X129768000Y-76812000D03*
%TD*%
%TO.P,C18,1*%
%TO.N,+1V1*%
X125348000Y-88632000D03*
%TO.P,C18,2*%
%TO.N,GND*%
X126898000Y-88632000D03*
%TD*%
%TO.P,C17,1*%
%TO.N,+1V1*%
X125348000Y-86662000D03*
%TO.P,C17,2*%
%TO.N,GND*%
X126898000Y-86662000D03*
%TD*%
%TO.P,C16,1*%
%TO.N,+1V1*%
X125348000Y-84692000D03*
%TO.P,C16,2*%
%TO.N,GND*%
X126898000Y-84692000D03*
%TD*%
%TO.P,C15,1*%
%TO.N,+3V3*%
X125348000Y-82722000D03*
%TO.P,C15,2*%
%TO.N,GND*%
X126898000Y-82722000D03*
%TD*%
D14*
%TO.P,C14,1*%
%TO.N,Net-(U5-C1)*%
X201816000Y-75057000D03*
%TO.P,C14,2*%
%TO.N,GND*%
X200266000Y-75057000D03*
%TD*%
D15*
%TO.P,C13,1*%
%TO.N,+3V3*%
X199377000Y-70993000D03*
%TO.P,C13,2*%
%TO.N,GND*%
X200927000Y-70993000D03*
%TD*%
D16*
%TO.P,C12,1*%
%TO.N,+3V3*%
X202946000Y-73559000D03*
%TO.P,C12,2*%
%TO.N,GND*%
X202946000Y-72009000D03*
%TD*%
%TO.P,C11,1*%
%TO.N,+3V3*%
X197612000Y-69253400D03*
%TO.P,C11,2*%
%TO.N,GND*%
X197612000Y-67703400D03*
%TD*%
D17*
%TO.P,C10,1*%
%TO.N,+3V3*%
X197612000Y-64491400D03*
%TO.P,C10,2*%
%TO.N,GND*%
X197612000Y-66041400D03*
%TD*%
D16*
%TO.P,C9,1*%
%TO.N,Net-(U3-CAP)*%
X194564000Y-66639800D03*
%TO.P,C9,2*%
%TO.N,GND*%
X194564000Y-65089800D03*
%TD*%
D14*
%TO.P,C8,1*%
%TO.N,+12VA*%
X194549000Y-107442000D03*
%TO.P,C8,2*%
%TO.N,GND*%
X192999000Y-107442000D03*
%TD*%
%TO.P,C6,1*%
%TO.N,+3V3*%
X193307000Y-114554000D03*
%TO.P,C6,2*%
%TO.N,GND*%
X191757000Y-114554000D03*
%TD*%
%TO.P,C5,1*%
%TO.N,+12VA*%
X200673000Y-113665000D03*
%TO.P,C5,2*%
%TO.N,GND*%
X199123000Y-113665000D03*
%TD*%
D17*
%TO.P,C3,1*%
%TO.N,+3V3*%
X194564000Y-68059000D03*
%TO.P,C3,2*%
%TO.N,GND*%
X194564000Y-69609000D03*
%TD*%
D15*
%TO.P,C2,1*%
%TO.N,+3V3*%
X190791800Y-70408800D03*
%TO.P,C2,2*%
%TO.N,GND*%
X192341800Y-70408800D03*
%TD*%
%TO.P,C1,1*%
%TO.N,+3V3*%
X190614000Y-75590400D03*
%TO.P,C1,2*%
%TO.N,GND*%
X192164000Y-75590400D03*
%TD*%
D18*
%TO.P,D2,1,K*%
%TO.N,GND*%
X191860700Y-94183200D03*
%TO.P,D2,2,A*%
%TO.N,Net-(D2-A)*%
X193735700Y-94183200D03*
%TD*%
D19*
%TO.P,H3,1,1*%
%TO.N,GND*%
X186600000Y-116025000D03*
%TD*%
D20*
%TO.P,U5,1,SCL/SPC*%
%TO.N,/I2C0 SCL*%
X200164000Y-73787500D03*
%TO.P,U5,2,GND*%
%TO.N,GND*%
X200664000Y-73787500D03*
%TO.P,U5,3,GND*%
X201164000Y-73787500D03*
%TO.P,U5,4,C1*%
%TO.N,Net-(U5-C1)*%
X201664000Y-73787500D03*
D21*
%TO.P,U5,5,Vdd*%
%TO.N,+3V3*%
X201676500Y-73275000D03*
%TO.P,U5,6,Vdd_IO*%
X201676500Y-72775000D03*
D20*
%TO.P,U5,7,INT*%
%TO.N,unconnected-(U5-INT-Pad7)*%
X201664000Y-72262500D03*
%TO.P,U5,8,DRDY*%
%TO.N,unconnected-(U5-DRDY-Pad8)*%
X201164000Y-72262500D03*
%TO.P,U5,9,SDO/SA1*%
%TO.N,GND*%
X200664000Y-72262500D03*
%TO.P,U5,10,~{CS}*%
%TO.N,+3V3*%
X200164000Y-72262500D03*
D21*
%TO.P,U5,11,SDA/SDI/SDO*%
%TO.N,/I2C0 SDA*%
X200151500Y-72775000D03*
%TO.P,U5,12,GND*%
%TO.N,GND*%
X200151500Y-73275000D03*
%TD*%
D22*
%TO.P,Q2,1,G*%
%TO.N,/P1 EN *%
X196970000Y-96078000D03*
%TO.P,Q2,2,S*%
%TO.N,GND*%
X196970000Y-97028000D03*
%TO.P,Q2,3,G*%
%TO.N,/P2 EN *%
X196970000Y-97978000D03*
%TO.P,Q2,4,D*%
%TO.N,Net-(Q2B-D)*%
X199270000Y-97978000D03*
%TO.P,Q2,5,S*%
%TO.N,GND*%
X199270000Y-97028000D03*
%TO.P,Q2,6,D*%
%TO.N,Net-(Q2A-D)*%
X199270000Y-96078000D03*
%TD*%
D23*
%TO.P,J5,1,Pin_1*%
%TO.N,/SWCLK*%
X188690000Y-90271600D03*
%TO.P,J5,2,Pin_2*%
%TO.N,GND*%
X188690000Y-91271600D03*
%TO.P,J5,3,Pin_3*%
%TO.N,/SWD*%
X188690000Y-92271600D03*
D24*
%TO.P,J5,MP*%
%TO.N,N/C*%
X184815000Y-88971600D03*
X184815000Y-93571600D03*
%TD*%
D25*
%TO.P,U8,1,IOVDD*%
%TO.N,+3V3*%
X196770400Y-80090500D03*
%TO.P,U8,2,GPIO0*%
%TO.N,/BRKOUT1*%
X196370400Y-80090500D03*
%TO.P,U8,3,GPIO1*%
%TO.N,/BRKOUT2*%
X195970400Y-80090500D03*
%TO.P,U8,4,GPIO2*%
%TO.N,/BRKOUT3*%
X195570400Y-80090500D03*
%TO.P,U8,5,GPIO3*%
%TO.N,/BRKOUT4*%
X195170400Y-80090500D03*
%TO.P,U8,6,GPIO4*%
%TO.N,/I2C0 SDA*%
X194770400Y-80090500D03*
%TO.P,U8,7,GPIO5*%
%TO.N,/I2C0 SCL*%
X194370400Y-80090500D03*
%TO.P,U8,8,GPIO6*%
%TO.N,/BUZZER*%
X193970400Y-80090500D03*
%TO.P,U8,9,GPIO7*%
%TO.N,unconnected-(U8-GPIO7-Pad9)*%
X193570400Y-80090500D03*
%TO.P,U8,10,IOVDD*%
%TO.N,+3V3*%
X193170400Y-80090500D03*
%TO.P,U8,11,GPIO8*%
%TO.N,unconnected-(U8-GPIO8-Pad11)*%
X192770400Y-80090500D03*
%TO.P,U8,12,GPIO9*%
%TO.N,unconnected-(U8-GPIO9-Pad12)*%
X192370400Y-80090500D03*
%TO.P,U8,13,GPIO10*%
%TO.N,unconnected-(U8-GPIO10-Pad13)*%
X191970400Y-80090500D03*
%TO.P,U8,14,GPIO11*%
%TO.N,unconnected-(U8-GPIO11-Pad14)*%
X191570400Y-80090500D03*
D26*
%TO.P,U8,15,GPIO12*%
%TO.N,unconnected-(U8-GPIO12-Pad15)*%
X190732900Y-80928000D03*
%TO.P,U8,16,GPIO13*%
%TO.N,/BRKOUT5*%
X190732900Y-81328000D03*
%TO.P,U8,17,GPIO14*%
%TO.N,/BRKOUT6*%
X190732900Y-81728000D03*
%TO.P,U8,18,GPIO15*%
%TO.N,/BRKOUT7*%
X190732900Y-82128000D03*
%TO.P,U8,19,TESTEN*%
%TO.N,GND*%
X190732900Y-82528000D03*
%TO.P,U8,20,XIN*%
%TO.N,/XIN*%
X190732900Y-82928000D03*
%TO.P,U8,21,XOUT*%
%TO.N,unconnected-(U8-XOUT-Pad21)*%
X190732900Y-83328000D03*
%TO.P,U8,22,IOVDD*%
%TO.N,+3V3*%
X190732900Y-83728000D03*
%TO.P,U8,23,DVDD*%
%TO.N,+1V1*%
X190732900Y-84128000D03*
%TO.P,U8,24,SWCLK*%
%TO.N,/SWCLK*%
X190732900Y-84528000D03*
%TO.P,U8,25,SWD*%
%TO.N,/SWD*%
X190732900Y-84928000D03*
%TO.P,U8,26,RUN*%
%TO.N,/RUN*%
X190732900Y-85328000D03*
%TO.P,U8,27,GPIO16*%
%TO.N,unconnected-(U8-GPIO16-Pad27)*%
X190732900Y-85728000D03*
%TO.P,U8,28,GPIO17*%
%TO.N,unconnected-(U8-GPIO17-Pad28)*%
X190732900Y-86128000D03*
D25*
%TO.P,U8,29,GPIO18*%
%TO.N,unconnected-(U8-GPIO18-Pad29)*%
X191570400Y-86965500D03*
%TO.P,U8,30,GPIO19*%
%TO.N,unconnected-(U8-GPIO19-Pad30)*%
X191970400Y-86965500D03*
%TO.P,U8,31,GPIO20*%
%TO.N,unconnected-(U8-GPIO20-Pad31)*%
X192370400Y-86965500D03*
%TO.P,U8,32,GPIO21*%
%TO.N,unconnected-(U8-GPIO21-Pad32)*%
X192770400Y-86965500D03*
%TO.P,U8,33,IOVDD*%
%TO.N,+3V3*%
X193170400Y-86965500D03*
%TO.P,U8,34,GPIO22*%
%TO.N,unconnected-(U8-GPIO22-Pad34)*%
X193570400Y-86965500D03*
%TO.P,U8,35,GPIO23*%
%TO.N,/LEDRED*%
X193970400Y-86965500D03*
%TO.P,U8,36,GPIO24*%
%TO.N,/LEDGREEN*%
X194370400Y-86965500D03*
%TO.P,U8,37,GPIO25*%
%TO.N,/LEDBLUE*%
X194770400Y-86965500D03*
%TO.P,U8,38,GPIO26_ADC0*%
%TO.N,unconnected-(U8-GPIO26_ADC0-Pad38)*%
X195170400Y-86965500D03*
%TO.P,U8,39,GPIO27_ADC1*%
%TO.N,unconnected-(U8-GPIO27_ADC1-Pad39)*%
X195570400Y-86965500D03*
%TO.P,U8,40,GPIO28_ADC2*%
%TO.N,/BATT SENSE *%
X195970400Y-86965500D03*
%TO.P,U8,41,GPIO29_ADC3*%
%TO.N,unconnected-(U8-GPIO29_ADC3-Pad41)*%
X196370400Y-86965500D03*
%TO.P,U8,42,IOVDD*%
%TO.N,+3V3*%
X196770400Y-86965500D03*
D26*
%TO.P,U8,43,ADC_AVDD*%
X197607900Y-86128000D03*
%TO.P,U8,44,VREG_IN*%
X197607900Y-85728000D03*
%TO.P,U8,45,VREG_VOUT*%
%TO.N,+1V1*%
X197607900Y-85328000D03*
%TO.P,U8,46,USB_DM*%
%TO.N,/RP USB_D-*%
X197607900Y-84928000D03*
%TO.P,U8,47,USB_DP*%
%TO.N,/RP USB_D+*%
X197607900Y-84528000D03*
%TO.P,U8,48,USB_VDD*%
%TO.N,+3V3*%
X197607900Y-84128000D03*
%TO.P,U8,49,IOVDD*%
X197607900Y-83728000D03*
%TO.P,U8,50,DVDD*%
%TO.N,+1V1*%
X197607900Y-83328000D03*
%TO.P,U8,51,QSPI_SD3*%
%TO.N,/QSPI_SD3*%
X197607900Y-82928000D03*
%TO.P,U8,52,QSPI_SCLK*%
%TO.N,/QSPI_SCLK*%
X197607900Y-82528000D03*
%TO.P,U8,53,QSPI_SD0*%
%TO.N,/QSPI_SDO*%
X197607900Y-82128000D03*
%TO.P,U8,54,QSPI_SD2*%
%TO.N,/QSPI_SD2*%
X197607900Y-81728000D03*
%TO.P,U8,55,QSPI_SD1*%
%TO.N,/QSPI_SD1*%
X197607900Y-81328000D03*
%TO.P,U8,56,QSPI_SS*%
%TO.N,/QSPI_SS*%
X197607900Y-80928000D03*
D27*
%TO.P,U8,57,GND*%
%TO.N,GND*%
X194170400Y-83528000D03*
%TD*%
D22*
%TO.P,Q3,1,G*%
%TO.N,/P3 EN *%
X196970000Y-106238000D03*
%TO.P,Q3,2,S*%
%TO.N,GND*%
X196970000Y-107188000D03*
%TO.P,Q3,3,G*%
%TO.N,/P4 EN *%
X196970000Y-108138000D03*
%TO.P,Q3,4,D*%
%TO.N,Net-(Q3B-D)*%
X199270000Y-108138000D03*
%TO.P,Q3,5,S*%
%TO.N,GND*%
X199270000Y-107188000D03*
%TO.P,Q3,6,D*%
%TO.N,Net-(Q3A-D)*%
X199270000Y-106238000D03*
%TD*%
D28*
%TO.P,Q1,1,G*%
%TO.N,GND*%
X194752000Y-100154500D03*
%TO.P,Q1,2,S*%
%TO.N,+12P*%
X192852000Y-100154500D03*
%TO.P,Q1,3,D*%
%TO.N,+12V*%
X193802000Y-102029500D03*
%TD*%
D29*
%TO.P,J8,1,Pin_1*%
%TO.N,/BRKOUT4*%
X206273400Y-67320000D03*
D30*
%TO.P,J8,2,Pin_2*%
%TO.N,/BRKOUT3*%
X206273400Y-69860000D03*
%TO.P,J8,3,Pin_3*%
%TO.N,/BRKOUT2*%
X206273400Y-72400000D03*
%TO.P,J8,4,Pin_4*%
%TO.N,/BRKOUT1*%
X206273400Y-74940000D03*
%TD*%
D31*
%TO.P,X1,1,Tri-state*%
%TO.N,+3V3*%
X185844000Y-84670000D03*
%TO.P,X1,2,GND*%
%TO.N,GND*%
X188044000Y-84670000D03*
%TO.P,X1,3,OUTPUT*%
%TO.N,/XIN*%
X188044000Y-82970000D03*
%TO.P,X1,4,VDD*%
%TO.N,+3V3*%
X185844000Y-82970000D03*
%TD*%
D32*
%TO.P,J1,1,Pin_1*%
%TO.N,/P4-*%
X204724000Y-109728000D03*
D33*
%TO.P,J1,2,Pin_2*%
%TO.N,/PYRO PWR*%
X204724000Y-107188000D03*
%TO.P,J1,3,Pin_3*%
%TO.N,/P3-*%
X204724000Y-104648000D03*
%TO.P,J1,4,Pin_4*%
%TO.N,/PYRO PWR*%
X204724000Y-102108000D03*
%TO.P,J1,5,Pin_5*%
%TO.N,/P2-*%
X204724000Y-99568000D03*
%TO.P,J1,6,Pin_6*%
%TO.N,/PYRO PWR*%
X204724000Y-97028000D03*
%TO.P,J1,7,Pin_7*%
%TO.N,/P1-*%
X204724000Y-94488000D03*
%TO.P,J1,8,Pin_8*%
%TO.N,/PYRO PWR*%
X204724000Y-91948000D03*
%TD*%
D14*
%TO.P,C7,1*%
%TO.N,+12VA*%
X194521000Y-105918000D03*
%TO.P,C7,2*%
%TO.N,GND*%
X192971000Y-105918000D03*
%TD*%
D34*
%TO.P,J7,9*%
%TO.N,N/C*%
X205539000Y-80728000D03*
%TO.P,J7,8*%
X205539000Y-87928000D03*
D35*
%TO.P,J7,7*%
X202639000Y-86748000D03*
%TO.P,J7,6,Shield*%
%TO.N,unconnected-(J7-Shield-Pad6)*%
X202639000Y-81908000D03*
D36*
%TO.P,J7,5,GND*%
%TO.N,GND*%
X202879000Y-83028000D03*
%TO.P,J7,4,ID*%
%TO.N,unconnected-(J7-ID-Pad4)*%
X202889000Y-83678000D03*
%TO.P,J7,3,D+*%
%TO.N,/USB_D+*%
X202889000Y-84328000D03*
%TO.P,J7,2,D-*%
%TO.N,/USB_D-*%
X202889000Y-84978000D03*
%TO.P,J7,1,VBUS*%
%TO.N,Net-(D3-A)*%
X202889000Y-85628000D03*
%TD*%
D19*
%TO.P,H1,1,1*%
%TO.N,GND*%
X186600000Y-62025000D03*
%TD*%
D37*
%TO.P,J4,1,Pin_1*%
%TO.N,GND*%
X193450999Y-60452000D03*
D38*
%TO.P,J4,2,Pin_2*%
%TO.N,/BOOTSEL*%
X192150999Y-60452000D03*
%TD*%
D39*
%TO.P,U9,1,IN*%
%TO.N,+12VA*%
X197388000Y-114615000D03*
%TO.P,U9,2,GND*%
%TO.N,GND*%
X197388000Y-113665000D03*
%TO.P,U9,3,EN*%
%TO.N,+12VA*%
X197388000Y-112715000D03*
%TO.P,U9,4,BP*%
%TO.N,Net-(U9-BP)*%
X194788000Y-112715000D03*
%TO.P,U9,5,OUT*%
%TO.N,+3V3*%
X194788000Y-114615000D03*
%TD*%
D18*
%TO.P,F1,1*%
%TO.N,+12P*%
X192864500Y-104140000D03*
%TO.P,F1,2*%
%TO.N,+12VA*%
X194739500Y-104140000D03*
%TD*%
D19*
%TO.P,H2,1,1*%
%TO.N,GND*%
X205600000Y-62025000D03*
%TD*%
D40*
%TO.P,U2,1,INT2*%
%TO.N,unconnected-(U2-INT2-Pad1)*%
X189959000Y-71801000D03*
%TO.P,U2,2,NC*%
%TO.N,unconnected-(U2-NC-Pad2)*%
X190459000Y-71801000D03*
%TO.P,U2,3,VDD*%
%TO.N,+3V3*%
X190959000Y-71801000D03*
%TO.P,U2,4,GNDA*%
%TO.N,GND*%
X191459000Y-71801000D03*
%TO.P,U2,5,CSB2*%
%TO.N,unconnected-(U2-CSB2-Pad5)*%
X191959000Y-71801000D03*
%TO.P,U2,6,GNDIO*%
%TO.N,GND*%
X192459000Y-71801000D03*
%TO.P,U2,7,PS*%
%TO.N,+3V3*%
X192959000Y-71801000D03*
D41*
%TO.P,U2,8,SCL/SCK*%
%TO.N,/I2C0 SCL*%
X193369000Y-73001000D03*
D40*
%TO.P,U2,9,SDA/SDI*%
%TO.N,/I2C0 SDA*%
X192959000Y-74201000D03*
%TO.P,U2,10,SDO2*%
%TO.N,GND*%
X192459000Y-74201000D03*
%TO.P,U2,11,VDDIO*%
%TO.N,+3V3*%
X191959000Y-74201000D03*
%TO.P,U2,12,INT3*%
%TO.N,unconnected-(U2-INT3-Pad12)*%
X191459000Y-74201000D03*
%TO.P,U2,13,INT4*%
%TO.N,unconnected-(U2-INT4-Pad13)*%
X190959000Y-74201000D03*
%TO.P,U2,14,CSB1*%
%TO.N,+3V3*%
X190459000Y-74201000D03*
%TO.P,U2,15,SDO1*%
%TO.N,GND*%
X189959000Y-74201000D03*
D41*
%TO.P,U2,16,INT1*%
%TO.N,unconnected-(U2-INT1-Pad16)*%
X189549000Y-73001000D03*
%TD*%
D42*
%TO.P,U4,1,VDDI/O*%
%TO.N,+3V3*%
X199656400Y-64751200D03*
%TO.P,U4,2,GND*%
%TO.N,GND*%
X199656400Y-65551200D03*
%TO.P,U4,3,RESERVED*%
%TO.N,+3V3*%
X199656400Y-66351200D03*
%TO.P,U4,4,GND*%
%TO.N,GND*%
X199656400Y-67151200D03*
%TO.P,U4,5,GND*%
X199656400Y-67951200D03*
%TO.P,U4,6,VS*%
%TO.N,+3V3*%
X199656400Y-68751200D03*
D43*
%TO.P,U4,7,~{CS}*%
X201066400Y-69051200D03*
D42*
%TO.P,U4,8,INT1*%
%TO.N,unconnected-(U4-INT1-Pad8)*%
X202476400Y-68751200D03*
%TO.P,U4,9,INT2*%
%TO.N,unconnected-(U4-INT2-Pad9)*%
X202476400Y-67951200D03*
%TO.P,U4,10,NC*%
%TO.N,unconnected-(U4-NC-Pad10)*%
X202476400Y-67151200D03*
%TO.P,U4,11,RESERVED*%
%TO.N,GND*%
X202476400Y-66351200D03*
%TO.P,U4,12,SDO/ALTADDRESS*%
X202476400Y-65551200D03*
%TO.P,U4,13,SDA/SDI/SDIO*%
%TO.N,/I2C0 SDA*%
X202476400Y-64751200D03*
D43*
%TO.P,U4,14,SCL/SCLK*%
%TO.N,/I2C0 SCL*%
X201066400Y-64451200D03*
%TD*%
D37*
%TO.P,J3,1,Pin_1*%
%TO.N,/RUN*%
X197358000Y-60452000D03*
D38*
%TO.P,J3,2,Pin_2*%
%TO.N,GND*%
X196058000Y-60452000D03*
%TD*%
D19*
%TO.P,H4,1,1*%
%TO.N,GND*%
X205600000Y-116025000D03*
%TD*%
D44*
%TO.P,U6,1,ADDR*%
%TO.N,+3V3*%
X197368000Y-100862000D03*
D45*
%TO.P,U6,2,ALERT/RDY*%
%TO.N,unconnected-(U6-ALERT{slash}RDY-Pad2)*%
X197368000Y-101362000D03*
%TO.P,U6,3,GND*%
%TO.N,GND*%
X197368000Y-101862000D03*
D44*
%TO.P,U6,4,AIN0*%
%TO.N,/P1 CONT *%
X197368000Y-102362000D03*
D46*
%TO.P,U6,5,AIN1*%
%TO.N,/P2 CONT *%
X197998000Y-102472000D03*
D44*
%TO.P,U6,6,AIN2*%
%TO.N,/P3 CONT *%
X198628000Y-102362000D03*
D45*
%TO.P,U6,7,AIN3*%
%TO.N,/P4 CONT *%
X198628000Y-101862000D03*
%TO.P,U6,8,VDD*%
%TO.N,+3V3*%
X198628000Y-101362000D03*
D44*
%TO.P,U6,9,SDA*%
%TO.N,/I2C0 SDA*%
X198628000Y-100862000D03*
D46*
%TO.P,U6,10,SCL*%
%TO.N,/I2C0 SCL*%
X197998000Y-100752000D03*
%TD*%
D32*
%TO.P,J2,1,Pin_1*%
%TO.N,/PYRO PWR*%
X187325000Y-97028000D03*
D33*
%TO.P,J2,2,Pin_2*%
%TO.N,+12P*%
X187325000Y-99568000D03*
%TO.P,J2,3,Pin_3*%
%TO.N,+12V*%
X187325000Y-102108000D03*
%TO.P,J2,4,Pin_4*%
%TO.N,+BATT*%
X187325000Y-104648000D03*
%TO.P,J2,5,Pin_5*%
%TO.N,GND*%
X187325000Y-107188000D03*
%TO.P,J2,6,Pin_6*%
%TO.N,+BATT*%
X187325000Y-109728000D03*
%TD*%
D47*
%TO.P,U3,1,VDD*%
%TO.N,+3V3*%
X192920000Y-67584800D03*
%TO.P,U3,2,CAP*%
%TO.N,Net-(U3-CAP)*%
X192920000Y-66334800D03*
%TO.P,U3,3,GND*%
%TO.N,GND*%
X192920000Y-65084800D03*
%TO.P,U3,4,VDDIO*%
%TO.N,+3V3*%
X192920000Y-63834800D03*
%TO.P,U3,5,INT2*%
%TO.N,unconnected-(U3-INT2-Pad5)*%
X190620000Y-63834800D03*
%TO.P,U3,6,INT1*%
%TO.N,unconnected-(U3-INT1-Pad6)*%
X190620000Y-65084800D03*
%TO.P,U3,7,SDL*%
%TO.N,/I2C0 SDA*%
X190620000Y-66334800D03*
%TO.P,U3,8,SCL*%
%TO.N,/I2C0 SCL*%
X190620000Y-67584800D03*
%TD*%
D29*
%TO.P,J6,1,Pin_1*%
%TO.N,/BRKOUT5*%
X186055000Y-67310000D03*
D30*
%TO.P,J6,2,Pin_2*%
%TO.N,/BRKOUT6*%
X186055000Y-69850000D03*
%TO.P,J6,3,Pin_3*%
%TO.N,/BRKOUT7*%
X186055000Y-72390000D03*
%TO.P,J6,4,Pin_4*%
%TO.N,+12VA*%
X186055000Y-74930000D03*
%TO.P,J6,5,Pin_5*%
%TO.N,+3V3*%
X186055000Y-77470000D03*
%TO.P,J6,6,Pin_6*%
%TO.N,GND*%
X186055000Y-80010000D03*
%TD*%
D48*
%TO.P,LED1,1,-*%
%TO.N,/LEDBLUE*%
X200113000Y-89308000D03*
%TO.P,LED1,2,-*%
%TO.N,/LEDGREEN*%
X199263000Y-89308000D03*
%TO.P,LED1,3,-*%
%TO.N,/LEDRED*%
X198413000Y-89308000D03*
%TO.P,LED1,4,+*%
%TO.N,Net-(LED1-+-Pad4)*%
X198413000Y-92048000D03*
%TO.P,LED1,5,+*%
X199263000Y-92048000D03*
%TO.P,LED1,6,+*%
X200113000Y-92048000D03*
%TD*%
D49*
%TO.P,U7,1,~{CS}*%
%TO.N,/QSPI_SS*%
X199400000Y-76962000D03*
%TO.P,U7,2,DO(IO1)*%
%TO.N,/QSPI_SD1*%
X199400000Y-77762000D03*
%TO.P,U7,3,IO2*%
%TO.N,/QSPI_SD2*%
X199400000Y-78562000D03*
%TO.P,U7,4,GND*%
%TO.N,GND*%
X199400000Y-79362000D03*
%TO.P,U7,5,DI(IO0)*%
%TO.N,/QSPI_SDO*%
X203200000Y-79362000D03*
%TO.P,U7,6,CLK*%
%TO.N,/QSPI_SCLK*%
X203200000Y-78562000D03*
%TO.P,U7,7,IO3*%
%TO.N,/QSPI_SD3*%
X203200000Y-77762000D03*
%TO.P,U7,8,VCC*%
%TO.N,+3V3*%
X203200000Y-76962000D03*
D50*
%TO.P,U7,9,EP*%
%TO.N,unconnected-(U7-EP-Pad9)*%
X201300000Y-78162000D03*
%TD*%
D15*
%TO.P,C4,1*%
%TO.N,+3V3*%
X194500200Y-63652400D03*
%TO.P,C4,2*%
%TO.N,GND*%
X196050200Y-63652400D03*
%TD*%
M02*
