M48
; DRILL file {KiCad 7.0.5} date Sat Dec  9 18:35:54 2023
; FORMAT={-:-/ absolute / inch / decimal}
; #@! TF.CreationDate,2023-12-09T18:35:54-08:00
; #@! TF.GenerationSoftware,Kicad,Pcbnew,7.0.5
; #@! TF.FileFunction,Plated,1,4,PTH
FMAT,2
INCH
; #@! TA.AperFunction,Plated,PTH,ComponentDrill
T1C0.0315
; #@! TA.AperFunction,Plated,PTH,ComponentDrill
T2C0.0394
; #@! TA.AperFunction,Plated,PTH,ComponentDrill
T3C0.0433
; #@! TA.AperFunction,Plated,PTH,ComponentDrill
T4C0.1260
%
G90
G05
T2
X7.325Y-2.65
X7.325Y-2.75
X7.325Y-2.85
X7.325Y-2.95
X7.325Y-3.05
X7.325Y-3.15
X8.121Y-2.6504
X8.121Y-2.7504
X8.121Y-2.8504
X8.121Y-2.9504
T3
X7.375Y-3.82
X7.375Y-3.92
X7.375Y-4.02
X7.375Y-4.12
X7.375Y-4.22
X7.375Y-4.32
X8.06Y-3.62
X8.06Y-3.72
X8.06Y-3.82
X8.06Y-3.92
X8.06Y-4.02
X8.06Y-4.12
X8.06Y-4.22
X8.06Y-4.32
T4
X7.3465Y-2.4419
X7.3465Y-4.5679
X8.0945Y-2.4419
X8.0945Y-4.5679
T1
G00X7.974Y-3.2247
M15
G01X7.9819Y-3.2247
M16
G05
G00X7.974Y-3.4153
M15
G01X7.9819Y-3.4153
M16
G05
G00X8.0783Y-3.1783
M15
G01X8.1059Y-3.1783
M16
G05
G00X8.0783Y-3.4617
M15
G01X8.1059Y-3.4617
M16
G05
T0
M30
