%TF.GenerationSoftware,KiCad,Pcbnew,7.0.5*%
%TF.CreationDate,2023-12-09T18:35:52-08:00*%
%TF.ProjectId,Lyrav3,4c797261-7633-42e6-9b69-6361645f7063,rev?*%
%TF.SameCoordinates,Original*%
%TF.FileFunction,Legend,Top*%
%TF.FilePolarity,Positive*%
%FSLAX46Y46*%
G04 Gerber Fmt 4.6, Leading zero omitted, Abs format (unit mm)*
G04 Created by KiCad (PCBNEW 7.0.5) date 2023-12-09 18:35:52*
%MOMM*%
%LPD*%
G01*
G04 APERTURE LIST*
%ADD10C,0.150000*%
%ADD11C,0.120000*%
%ADD12C,0.300000*%
%ADD13C,0.200000*%
%ADD14C,0.250000*%
%ADD15C,0.100000*%
G04 APERTURE END LIST*
D10*
%TO.C,R27*%
X119720142Y-85796819D02*
X119386809Y-85320628D01*
X119148714Y-85796819D02*
X119148714Y-84796819D01*
X119148714Y-84796819D02*
X119529666Y-84796819D01*
X119529666Y-84796819D02*
X119624904Y-84844438D01*
X119624904Y-84844438D02*
X119672523Y-84892057D01*
X119672523Y-84892057D02*
X119720142Y-84987295D01*
X119720142Y-84987295D02*
X119720142Y-85130152D01*
X119720142Y-85130152D02*
X119672523Y-85225390D01*
X119672523Y-85225390D02*
X119624904Y-85273009D01*
X119624904Y-85273009D02*
X119529666Y-85320628D01*
X119529666Y-85320628D02*
X119148714Y-85320628D01*
X120101095Y-84892057D02*
X120148714Y-84844438D01*
X120148714Y-84844438D02*
X120243952Y-84796819D01*
X120243952Y-84796819D02*
X120482047Y-84796819D01*
X120482047Y-84796819D02*
X120577285Y-84844438D01*
X120577285Y-84844438D02*
X120624904Y-84892057D01*
X120624904Y-84892057D02*
X120672523Y-84987295D01*
X120672523Y-84987295D02*
X120672523Y-85082533D01*
X120672523Y-85082533D02*
X120624904Y-85225390D01*
X120624904Y-85225390D02*
X120053476Y-85796819D01*
X120053476Y-85796819D02*
X120672523Y-85796819D01*
X121005857Y-84796819D02*
X121672523Y-84796819D01*
X121672523Y-84796819D02*
X121243952Y-85796819D01*
%TO.C,R26*%
X119720142Y-83806819D02*
X119386809Y-83330628D01*
X119148714Y-83806819D02*
X119148714Y-82806819D01*
X119148714Y-82806819D02*
X119529666Y-82806819D01*
X119529666Y-82806819D02*
X119624904Y-82854438D01*
X119624904Y-82854438D02*
X119672523Y-82902057D01*
X119672523Y-82902057D02*
X119720142Y-82997295D01*
X119720142Y-82997295D02*
X119720142Y-83140152D01*
X119720142Y-83140152D02*
X119672523Y-83235390D01*
X119672523Y-83235390D02*
X119624904Y-83283009D01*
X119624904Y-83283009D02*
X119529666Y-83330628D01*
X119529666Y-83330628D02*
X119148714Y-83330628D01*
X120101095Y-82902057D02*
X120148714Y-82854438D01*
X120148714Y-82854438D02*
X120243952Y-82806819D01*
X120243952Y-82806819D02*
X120482047Y-82806819D01*
X120482047Y-82806819D02*
X120577285Y-82854438D01*
X120577285Y-82854438D02*
X120624904Y-82902057D01*
X120624904Y-82902057D02*
X120672523Y-82997295D01*
X120672523Y-82997295D02*
X120672523Y-83092533D01*
X120672523Y-83092533D02*
X120624904Y-83235390D01*
X120624904Y-83235390D02*
X120053476Y-83806819D01*
X120053476Y-83806819D02*
X120672523Y-83806819D01*
X121529666Y-82806819D02*
X121339190Y-82806819D01*
X121339190Y-82806819D02*
X121243952Y-82854438D01*
X121243952Y-82854438D02*
X121196333Y-82902057D01*
X121196333Y-82902057D02*
X121101095Y-83044914D01*
X121101095Y-83044914D02*
X121053476Y-83235390D01*
X121053476Y-83235390D02*
X121053476Y-83616342D01*
X121053476Y-83616342D02*
X121101095Y-83711580D01*
X121101095Y-83711580D02*
X121148714Y-83759200D01*
X121148714Y-83759200D02*
X121243952Y-83806819D01*
X121243952Y-83806819D02*
X121434428Y-83806819D01*
X121434428Y-83806819D02*
X121529666Y-83759200D01*
X121529666Y-83759200D02*
X121577285Y-83711580D01*
X121577285Y-83711580D02*
X121624904Y-83616342D01*
X121624904Y-83616342D02*
X121624904Y-83378247D01*
X121624904Y-83378247D02*
X121577285Y-83283009D01*
X121577285Y-83283009D02*
X121529666Y-83235390D01*
X121529666Y-83235390D02*
X121434428Y-83187771D01*
X121434428Y-83187771D02*
X121243952Y-83187771D01*
X121243952Y-83187771D02*
X121148714Y-83235390D01*
X121148714Y-83235390D02*
X121101095Y-83283009D01*
X121101095Y-83283009D02*
X121053476Y-83378247D01*
%TO.C,R22*%
X119720142Y-75846819D02*
X119386809Y-75370628D01*
X119148714Y-75846819D02*
X119148714Y-74846819D01*
X119148714Y-74846819D02*
X119529666Y-74846819D01*
X119529666Y-74846819D02*
X119624904Y-74894438D01*
X119624904Y-74894438D02*
X119672523Y-74942057D01*
X119672523Y-74942057D02*
X119720142Y-75037295D01*
X119720142Y-75037295D02*
X119720142Y-75180152D01*
X119720142Y-75180152D02*
X119672523Y-75275390D01*
X119672523Y-75275390D02*
X119624904Y-75323009D01*
X119624904Y-75323009D02*
X119529666Y-75370628D01*
X119529666Y-75370628D02*
X119148714Y-75370628D01*
X120101095Y-74942057D02*
X120148714Y-74894438D01*
X120148714Y-74894438D02*
X120243952Y-74846819D01*
X120243952Y-74846819D02*
X120482047Y-74846819D01*
X120482047Y-74846819D02*
X120577285Y-74894438D01*
X120577285Y-74894438D02*
X120624904Y-74942057D01*
X120624904Y-74942057D02*
X120672523Y-75037295D01*
X120672523Y-75037295D02*
X120672523Y-75132533D01*
X120672523Y-75132533D02*
X120624904Y-75275390D01*
X120624904Y-75275390D02*
X120053476Y-75846819D01*
X120053476Y-75846819D02*
X120672523Y-75846819D01*
X121053476Y-74942057D02*
X121101095Y-74894438D01*
X121101095Y-74894438D02*
X121196333Y-74846819D01*
X121196333Y-74846819D02*
X121434428Y-74846819D01*
X121434428Y-74846819D02*
X121529666Y-74894438D01*
X121529666Y-74894438D02*
X121577285Y-74942057D01*
X121577285Y-74942057D02*
X121624904Y-75037295D01*
X121624904Y-75037295D02*
X121624904Y-75132533D01*
X121624904Y-75132533D02*
X121577285Y-75275390D01*
X121577285Y-75275390D02*
X121005857Y-75846819D01*
X121005857Y-75846819D02*
X121624904Y-75846819D01*
%TO.C,R17*%
X116810142Y-79826819D02*
X116476809Y-79350628D01*
X116238714Y-79826819D02*
X116238714Y-78826819D01*
X116238714Y-78826819D02*
X116619666Y-78826819D01*
X116619666Y-78826819D02*
X116714904Y-78874438D01*
X116714904Y-78874438D02*
X116762523Y-78922057D01*
X116762523Y-78922057D02*
X116810142Y-79017295D01*
X116810142Y-79017295D02*
X116810142Y-79160152D01*
X116810142Y-79160152D02*
X116762523Y-79255390D01*
X116762523Y-79255390D02*
X116714904Y-79303009D01*
X116714904Y-79303009D02*
X116619666Y-79350628D01*
X116619666Y-79350628D02*
X116238714Y-79350628D01*
X117762523Y-79826819D02*
X117191095Y-79826819D01*
X117476809Y-79826819D02*
X117476809Y-78826819D01*
X117476809Y-78826819D02*
X117381571Y-78969676D01*
X117381571Y-78969676D02*
X117286333Y-79064914D01*
X117286333Y-79064914D02*
X117191095Y-79112533D01*
X118095857Y-78826819D02*
X118762523Y-78826819D01*
X118762523Y-78826819D02*
X118333952Y-79826819D01*
%TO.C,R16*%
X116810142Y-77836819D02*
X116476809Y-77360628D01*
X116238714Y-77836819D02*
X116238714Y-76836819D01*
X116238714Y-76836819D02*
X116619666Y-76836819D01*
X116619666Y-76836819D02*
X116714904Y-76884438D01*
X116714904Y-76884438D02*
X116762523Y-76932057D01*
X116762523Y-76932057D02*
X116810142Y-77027295D01*
X116810142Y-77027295D02*
X116810142Y-77170152D01*
X116810142Y-77170152D02*
X116762523Y-77265390D01*
X116762523Y-77265390D02*
X116714904Y-77313009D01*
X116714904Y-77313009D02*
X116619666Y-77360628D01*
X116619666Y-77360628D02*
X116238714Y-77360628D01*
X117762523Y-77836819D02*
X117191095Y-77836819D01*
X117476809Y-77836819D02*
X117476809Y-76836819D01*
X117476809Y-76836819D02*
X117381571Y-76979676D01*
X117381571Y-76979676D02*
X117286333Y-77074914D01*
X117286333Y-77074914D02*
X117191095Y-77122533D01*
X118619666Y-76836819D02*
X118429190Y-76836819D01*
X118429190Y-76836819D02*
X118333952Y-76884438D01*
X118333952Y-76884438D02*
X118286333Y-76932057D01*
X118286333Y-76932057D02*
X118191095Y-77074914D01*
X118191095Y-77074914D02*
X118143476Y-77265390D01*
X118143476Y-77265390D02*
X118143476Y-77646342D01*
X118143476Y-77646342D02*
X118191095Y-77741580D01*
X118191095Y-77741580D02*
X118238714Y-77789200D01*
X118238714Y-77789200D02*
X118333952Y-77836819D01*
X118333952Y-77836819D02*
X118524428Y-77836819D01*
X118524428Y-77836819D02*
X118619666Y-77789200D01*
X118619666Y-77789200D02*
X118667285Y-77741580D01*
X118667285Y-77741580D02*
X118714904Y-77646342D01*
X118714904Y-77646342D02*
X118714904Y-77408247D01*
X118714904Y-77408247D02*
X118667285Y-77313009D01*
X118667285Y-77313009D02*
X118619666Y-77265390D01*
X118619666Y-77265390D02*
X118524428Y-77217771D01*
X118524428Y-77217771D02*
X118333952Y-77217771D01*
X118333952Y-77217771D02*
X118238714Y-77265390D01*
X118238714Y-77265390D02*
X118191095Y-77313009D01*
X118191095Y-77313009D02*
X118143476Y-77408247D01*
%TO.C,R14*%
X113900142Y-87786819D02*
X113566809Y-87310628D01*
X113328714Y-87786819D02*
X113328714Y-86786819D01*
X113328714Y-86786819D02*
X113709666Y-86786819D01*
X113709666Y-86786819D02*
X113804904Y-86834438D01*
X113804904Y-86834438D02*
X113852523Y-86882057D01*
X113852523Y-86882057D02*
X113900142Y-86977295D01*
X113900142Y-86977295D02*
X113900142Y-87120152D01*
X113900142Y-87120152D02*
X113852523Y-87215390D01*
X113852523Y-87215390D02*
X113804904Y-87263009D01*
X113804904Y-87263009D02*
X113709666Y-87310628D01*
X113709666Y-87310628D02*
X113328714Y-87310628D01*
X114852523Y-87786819D02*
X114281095Y-87786819D01*
X114566809Y-87786819D02*
X114566809Y-86786819D01*
X114566809Y-86786819D02*
X114471571Y-86929676D01*
X114471571Y-86929676D02*
X114376333Y-87024914D01*
X114376333Y-87024914D02*
X114281095Y-87072533D01*
X115709666Y-87120152D02*
X115709666Y-87786819D01*
X115471571Y-86739200D02*
X115233476Y-87453485D01*
X115233476Y-87453485D02*
X115852523Y-87453485D01*
%TO.C,R5*%
X111466333Y-83806819D02*
X111133000Y-83330628D01*
X110894905Y-83806819D02*
X110894905Y-82806819D01*
X110894905Y-82806819D02*
X111275857Y-82806819D01*
X111275857Y-82806819D02*
X111371095Y-82854438D01*
X111371095Y-82854438D02*
X111418714Y-82902057D01*
X111418714Y-82902057D02*
X111466333Y-82997295D01*
X111466333Y-82997295D02*
X111466333Y-83140152D01*
X111466333Y-83140152D02*
X111418714Y-83235390D01*
X111418714Y-83235390D02*
X111371095Y-83283009D01*
X111371095Y-83283009D02*
X111275857Y-83330628D01*
X111275857Y-83330628D02*
X110894905Y-83330628D01*
X112371095Y-82806819D02*
X111894905Y-82806819D01*
X111894905Y-82806819D02*
X111847286Y-83283009D01*
X111847286Y-83283009D02*
X111894905Y-83235390D01*
X111894905Y-83235390D02*
X111990143Y-83187771D01*
X111990143Y-83187771D02*
X112228238Y-83187771D01*
X112228238Y-83187771D02*
X112323476Y-83235390D01*
X112323476Y-83235390D02*
X112371095Y-83283009D01*
X112371095Y-83283009D02*
X112418714Y-83378247D01*
X112418714Y-83378247D02*
X112418714Y-83616342D01*
X112418714Y-83616342D02*
X112371095Y-83711580D01*
X112371095Y-83711580D02*
X112323476Y-83759200D01*
X112323476Y-83759200D02*
X112228238Y-83806819D01*
X112228238Y-83806819D02*
X111990143Y-83806819D01*
X111990143Y-83806819D02*
X111894905Y-83759200D01*
X111894905Y-83759200D02*
X111847286Y-83711580D01*
%TO.C,R4*%
X111466333Y-81816819D02*
X111133000Y-81340628D01*
X110894905Y-81816819D02*
X110894905Y-80816819D01*
X110894905Y-80816819D02*
X111275857Y-80816819D01*
X111275857Y-80816819D02*
X111371095Y-80864438D01*
X111371095Y-80864438D02*
X111418714Y-80912057D01*
X111418714Y-80912057D02*
X111466333Y-81007295D01*
X111466333Y-81007295D02*
X111466333Y-81150152D01*
X111466333Y-81150152D02*
X111418714Y-81245390D01*
X111418714Y-81245390D02*
X111371095Y-81293009D01*
X111371095Y-81293009D02*
X111275857Y-81340628D01*
X111275857Y-81340628D02*
X110894905Y-81340628D01*
X112323476Y-81150152D02*
X112323476Y-81816819D01*
X112085381Y-80769200D02*
X111847286Y-81483485D01*
X111847286Y-81483485D02*
X112466333Y-81483485D01*
%TO.C,C28*%
X131220142Y-79681580D02*
X131172523Y-79729200D01*
X131172523Y-79729200D02*
X131029666Y-79776819D01*
X131029666Y-79776819D02*
X130934428Y-79776819D01*
X130934428Y-79776819D02*
X130791571Y-79729200D01*
X130791571Y-79729200D02*
X130696333Y-79633961D01*
X130696333Y-79633961D02*
X130648714Y-79538723D01*
X130648714Y-79538723D02*
X130601095Y-79348247D01*
X130601095Y-79348247D02*
X130601095Y-79205390D01*
X130601095Y-79205390D02*
X130648714Y-79014914D01*
X130648714Y-79014914D02*
X130696333Y-78919676D01*
X130696333Y-78919676D02*
X130791571Y-78824438D01*
X130791571Y-78824438D02*
X130934428Y-78776819D01*
X130934428Y-78776819D02*
X131029666Y-78776819D01*
X131029666Y-78776819D02*
X131172523Y-78824438D01*
X131172523Y-78824438D02*
X131220142Y-78872057D01*
X131601095Y-78872057D02*
X131648714Y-78824438D01*
X131648714Y-78824438D02*
X131743952Y-78776819D01*
X131743952Y-78776819D02*
X131982047Y-78776819D01*
X131982047Y-78776819D02*
X132077285Y-78824438D01*
X132077285Y-78824438D02*
X132124904Y-78872057D01*
X132124904Y-78872057D02*
X132172523Y-78967295D01*
X132172523Y-78967295D02*
X132172523Y-79062533D01*
X132172523Y-79062533D02*
X132124904Y-79205390D01*
X132124904Y-79205390D02*
X131553476Y-79776819D01*
X131553476Y-79776819D02*
X132172523Y-79776819D01*
X132743952Y-79205390D02*
X132648714Y-79157771D01*
X132648714Y-79157771D02*
X132601095Y-79110152D01*
X132601095Y-79110152D02*
X132553476Y-79014914D01*
X132553476Y-79014914D02*
X132553476Y-78967295D01*
X132553476Y-78967295D02*
X132601095Y-78872057D01*
X132601095Y-78872057D02*
X132648714Y-78824438D01*
X132648714Y-78824438D02*
X132743952Y-78776819D01*
X132743952Y-78776819D02*
X132934428Y-78776819D01*
X132934428Y-78776819D02*
X133029666Y-78824438D01*
X133029666Y-78824438D02*
X133077285Y-78872057D01*
X133077285Y-78872057D02*
X133124904Y-78967295D01*
X133124904Y-78967295D02*
X133124904Y-79014914D01*
X133124904Y-79014914D02*
X133077285Y-79110152D01*
X133077285Y-79110152D02*
X133029666Y-79157771D01*
X133029666Y-79157771D02*
X132934428Y-79205390D01*
X132934428Y-79205390D02*
X132743952Y-79205390D01*
X132743952Y-79205390D02*
X132648714Y-79253009D01*
X132648714Y-79253009D02*
X132601095Y-79300628D01*
X132601095Y-79300628D02*
X132553476Y-79395866D01*
X132553476Y-79395866D02*
X132553476Y-79586342D01*
X132553476Y-79586342D02*
X132601095Y-79681580D01*
X132601095Y-79681580D02*
X132648714Y-79729200D01*
X132648714Y-79729200D02*
X132743952Y-79776819D01*
X132743952Y-79776819D02*
X132934428Y-79776819D01*
X132934428Y-79776819D02*
X133029666Y-79729200D01*
X133029666Y-79729200D02*
X133077285Y-79681580D01*
X133077285Y-79681580D02*
X133124904Y-79586342D01*
X133124904Y-79586342D02*
X133124904Y-79395866D01*
X133124904Y-79395866D02*
X133077285Y-79300628D01*
X133077285Y-79300628D02*
X133029666Y-79253009D01*
X133029666Y-79253009D02*
X132934428Y-79205390D01*
%TO.C,C27*%
X131220142Y-77711580D02*
X131172523Y-77759200D01*
X131172523Y-77759200D02*
X131029666Y-77806819D01*
X131029666Y-77806819D02*
X130934428Y-77806819D01*
X130934428Y-77806819D02*
X130791571Y-77759200D01*
X130791571Y-77759200D02*
X130696333Y-77663961D01*
X130696333Y-77663961D02*
X130648714Y-77568723D01*
X130648714Y-77568723D02*
X130601095Y-77378247D01*
X130601095Y-77378247D02*
X130601095Y-77235390D01*
X130601095Y-77235390D02*
X130648714Y-77044914D01*
X130648714Y-77044914D02*
X130696333Y-76949676D01*
X130696333Y-76949676D02*
X130791571Y-76854438D01*
X130791571Y-76854438D02*
X130934428Y-76806819D01*
X130934428Y-76806819D02*
X131029666Y-76806819D01*
X131029666Y-76806819D02*
X131172523Y-76854438D01*
X131172523Y-76854438D02*
X131220142Y-76902057D01*
X131601095Y-76902057D02*
X131648714Y-76854438D01*
X131648714Y-76854438D02*
X131743952Y-76806819D01*
X131743952Y-76806819D02*
X131982047Y-76806819D01*
X131982047Y-76806819D02*
X132077285Y-76854438D01*
X132077285Y-76854438D02*
X132124904Y-76902057D01*
X132124904Y-76902057D02*
X132172523Y-76997295D01*
X132172523Y-76997295D02*
X132172523Y-77092533D01*
X132172523Y-77092533D02*
X132124904Y-77235390D01*
X132124904Y-77235390D02*
X131553476Y-77806819D01*
X131553476Y-77806819D02*
X132172523Y-77806819D01*
X132505857Y-76806819D02*
X133172523Y-76806819D01*
X133172523Y-76806819D02*
X132743952Y-77806819D01*
%TO.C,C26*%
X131220142Y-75741580D02*
X131172523Y-75789200D01*
X131172523Y-75789200D02*
X131029666Y-75836819D01*
X131029666Y-75836819D02*
X130934428Y-75836819D01*
X130934428Y-75836819D02*
X130791571Y-75789200D01*
X130791571Y-75789200D02*
X130696333Y-75693961D01*
X130696333Y-75693961D02*
X130648714Y-75598723D01*
X130648714Y-75598723D02*
X130601095Y-75408247D01*
X130601095Y-75408247D02*
X130601095Y-75265390D01*
X130601095Y-75265390D02*
X130648714Y-75074914D01*
X130648714Y-75074914D02*
X130696333Y-74979676D01*
X130696333Y-74979676D02*
X130791571Y-74884438D01*
X130791571Y-74884438D02*
X130934428Y-74836819D01*
X130934428Y-74836819D02*
X131029666Y-74836819D01*
X131029666Y-74836819D02*
X131172523Y-74884438D01*
X131172523Y-74884438D02*
X131220142Y-74932057D01*
X131601095Y-74932057D02*
X131648714Y-74884438D01*
X131648714Y-74884438D02*
X131743952Y-74836819D01*
X131743952Y-74836819D02*
X131982047Y-74836819D01*
X131982047Y-74836819D02*
X132077285Y-74884438D01*
X132077285Y-74884438D02*
X132124904Y-74932057D01*
X132124904Y-74932057D02*
X132172523Y-75027295D01*
X132172523Y-75027295D02*
X132172523Y-75122533D01*
X132172523Y-75122533D02*
X132124904Y-75265390D01*
X132124904Y-75265390D02*
X131553476Y-75836819D01*
X131553476Y-75836819D02*
X132172523Y-75836819D01*
X133029666Y-74836819D02*
X132839190Y-74836819D01*
X132839190Y-74836819D02*
X132743952Y-74884438D01*
X132743952Y-74884438D02*
X132696333Y-74932057D01*
X132696333Y-74932057D02*
X132601095Y-75074914D01*
X132601095Y-75074914D02*
X132553476Y-75265390D01*
X132553476Y-75265390D02*
X132553476Y-75646342D01*
X132553476Y-75646342D02*
X132601095Y-75741580D01*
X132601095Y-75741580D02*
X132648714Y-75789200D01*
X132648714Y-75789200D02*
X132743952Y-75836819D01*
X132743952Y-75836819D02*
X132934428Y-75836819D01*
X132934428Y-75836819D02*
X133029666Y-75789200D01*
X133029666Y-75789200D02*
X133077285Y-75741580D01*
X133077285Y-75741580D02*
X133124904Y-75646342D01*
X133124904Y-75646342D02*
X133124904Y-75408247D01*
X133124904Y-75408247D02*
X133077285Y-75313009D01*
X133077285Y-75313009D02*
X133029666Y-75265390D01*
X133029666Y-75265390D02*
X132934428Y-75217771D01*
X132934428Y-75217771D02*
X132743952Y-75217771D01*
X132743952Y-75217771D02*
X132648714Y-75265390D01*
X132648714Y-75265390D02*
X132601095Y-75313009D01*
X132601095Y-75313009D02*
X132553476Y-75408247D01*
%TO.C,C25*%
X128350142Y-87561580D02*
X128302523Y-87609200D01*
X128302523Y-87609200D02*
X128159666Y-87656819D01*
X128159666Y-87656819D02*
X128064428Y-87656819D01*
X128064428Y-87656819D02*
X127921571Y-87609200D01*
X127921571Y-87609200D02*
X127826333Y-87513961D01*
X127826333Y-87513961D02*
X127778714Y-87418723D01*
X127778714Y-87418723D02*
X127731095Y-87228247D01*
X127731095Y-87228247D02*
X127731095Y-87085390D01*
X127731095Y-87085390D02*
X127778714Y-86894914D01*
X127778714Y-86894914D02*
X127826333Y-86799676D01*
X127826333Y-86799676D02*
X127921571Y-86704438D01*
X127921571Y-86704438D02*
X128064428Y-86656819D01*
X128064428Y-86656819D02*
X128159666Y-86656819D01*
X128159666Y-86656819D02*
X128302523Y-86704438D01*
X128302523Y-86704438D02*
X128350142Y-86752057D01*
X128731095Y-86752057D02*
X128778714Y-86704438D01*
X128778714Y-86704438D02*
X128873952Y-86656819D01*
X128873952Y-86656819D02*
X129112047Y-86656819D01*
X129112047Y-86656819D02*
X129207285Y-86704438D01*
X129207285Y-86704438D02*
X129254904Y-86752057D01*
X129254904Y-86752057D02*
X129302523Y-86847295D01*
X129302523Y-86847295D02*
X129302523Y-86942533D01*
X129302523Y-86942533D02*
X129254904Y-87085390D01*
X129254904Y-87085390D02*
X128683476Y-87656819D01*
X128683476Y-87656819D02*
X129302523Y-87656819D01*
X130207285Y-86656819D02*
X129731095Y-86656819D01*
X129731095Y-86656819D02*
X129683476Y-87133009D01*
X129683476Y-87133009D02*
X129731095Y-87085390D01*
X129731095Y-87085390D02*
X129826333Y-87037771D01*
X129826333Y-87037771D02*
X130064428Y-87037771D01*
X130064428Y-87037771D02*
X130159666Y-87085390D01*
X130159666Y-87085390D02*
X130207285Y-87133009D01*
X130207285Y-87133009D02*
X130254904Y-87228247D01*
X130254904Y-87228247D02*
X130254904Y-87466342D01*
X130254904Y-87466342D02*
X130207285Y-87561580D01*
X130207285Y-87561580D02*
X130159666Y-87609200D01*
X130159666Y-87609200D02*
X130064428Y-87656819D01*
X130064428Y-87656819D02*
X129826333Y-87656819D01*
X129826333Y-87656819D02*
X129731095Y-87609200D01*
X129731095Y-87609200D02*
X129683476Y-87561580D01*
%TO.C,C24*%
X128350142Y-85591580D02*
X128302523Y-85639200D01*
X128302523Y-85639200D02*
X128159666Y-85686819D01*
X128159666Y-85686819D02*
X128064428Y-85686819D01*
X128064428Y-85686819D02*
X127921571Y-85639200D01*
X127921571Y-85639200D02*
X127826333Y-85543961D01*
X127826333Y-85543961D02*
X127778714Y-85448723D01*
X127778714Y-85448723D02*
X127731095Y-85258247D01*
X127731095Y-85258247D02*
X127731095Y-85115390D01*
X127731095Y-85115390D02*
X127778714Y-84924914D01*
X127778714Y-84924914D02*
X127826333Y-84829676D01*
X127826333Y-84829676D02*
X127921571Y-84734438D01*
X127921571Y-84734438D02*
X128064428Y-84686819D01*
X128064428Y-84686819D02*
X128159666Y-84686819D01*
X128159666Y-84686819D02*
X128302523Y-84734438D01*
X128302523Y-84734438D02*
X128350142Y-84782057D01*
X128731095Y-84782057D02*
X128778714Y-84734438D01*
X128778714Y-84734438D02*
X128873952Y-84686819D01*
X128873952Y-84686819D02*
X129112047Y-84686819D01*
X129112047Y-84686819D02*
X129207285Y-84734438D01*
X129207285Y-84734438D02*
X129254904Y-84782057D01*
X129254904Y-84782057D02*
X129302523Y-84877295D01*
X129302523Y-84877295D02*
X129302523Y-84972533D01*
X129302523Y-84972533D02*
X129254904Y-85115390D01*
X129254904Y-85115390D02*
X128683476Y-85686819D01*
X128683476Y-85686819D02*
X129302523Y-85686819D01*
X130159666Y-85020152D02*
X130159666Y-85686819D01*
X129921571Y-84639200D02*
X129683476Y-85353485D01*
X129683476Y-85353485D02*
X130302523Y-85353485D01*
%TO.C,C23*%
X128350142Y-83621580D02*
X128302523Y-83669200D01*
X128302523Y-83669200D02*
X128159666Y-83716819D01*
X128159666Y-83716819D02*
X128064428Y-83716819D01*
X128064428Y-83716819D02*
X127921571Y-83669200D01*
X127921571Y-83669200D02*
X127826333Y-83573961D01*
X127826333Y-83573961D02*
X127778714Y-83478723D01*
X127778714Y-83478723D02*
X127731095Y-83288247D01*
X127731095Y-83288247D02*
X127731095Y-83145390D01*
X127731095Y-83145390D02*
X127778714Y-82954914D01*
X127778714Y-82954914D02*
X127826333Y-82859676D01*
X127826333Y-82859676D02*
X127921571Y-82764438D01*
X127921571Y-82764438D02*
X128064428Y-82716819D01*
X128064428Y-82716819D02*
X128159666Y-82716819D01*
X128159666Y-82716819D02*
X128302523Y-82764438D01*
X128302523Y-82764438D02*
X128350142Y-82812057D01*
X128731095Y-82812057D02*
X128778714Y-82764438D01*
X128778714Y-82764438D02*
X128873952Y-82716819D01*
X128873952Y-82716819D02*
X129112047Y-82716819D01*
X129112047Y-82716819D02*
X129207285Y-82764438D01*
X129207285Y-82764438D02*
X129254904Y-82812057D01*
X129254904Y-82812057D02*
X129302523Y-82907295D01*
X129302523Y-82907295D02*
X129302523Y-83002533D01*
X129302523Y-83002533D02*
X129254904Y-83145390D01*
X129254904Y-83145390D02*
X128683476Y-83716819D01*
X128683476Y-83716819D02*
X129302523Y-83716819D01*
X129635857Y-82716819D02*
X130254904Y-82716819D01*
X130254904Y-82716819D02*
X129921571Y-83097771D01*
X129921571Y-83097771D02*
X130064428Y-83097771D01*
X130064428Y-83097771D02*
X130159666Y-83145390D01*
X130159666Y-83145390D02*
X130207285Y-83193009D01*
X130207285Y-83193009D02*
X130254904Y-83288247D01*
X130254904Y-83288247D02*
X130254904Y-83526342D01*
X130254904Y-83526342D02*
X130207285Y-83621580D01*
X130207285Y-83621580D02*
X130159666Y-83669200D01*
X130159666Y-83669200D02*
X130064428Y-83716819D01*
X130064428Y-83716819D02*
X129778714Y-83716819D01*
X129778714Y-83716819D02*
X129683476Y-83669200D01*
X129683476Y-83669200D02*
X129635857Y-83621580D01*
%TO.C,C22*%
X128350142Y-81651580D02*
X128302523Y-81699200D01*
X128302523Y-81699200D02*
X128159666Y-81746819D01*
X128159666Y-81746819D02*
X128064428Y-81746819D01*
X128064428Y-81746819D02*
X127921571Y-81699200D01*
X127921571Y-81699200D02*
X127826333Y-81603961D01*
X127826333Y-81603961D02*
X127778714Y-81508723D01*
X127778714Y-81508723D02*
X127731095Y-81318247D01*
X127731095Y-81318247D02*
X127731095Y-81175390D01*
X127731095Y-81175390D02*
X127778714Y-80984914D01*
X127778714Y-80984914D02*
X127826333Y-80889676D01*
X127826333Y-80889676D02*
X127921571Y-80794438D01*
X127921571Y-80794438D02*
X128064428Y-80746819D01*
X128064428Y-80746819D02*
X128159666Y-80746819D01*
X128159666Y-80746819D02*
X128302523Y-80794438D01*
X128302523Y-80794438D02*
X128350142Y-80842057D01*
X128731095Y-80842057D02*
X128778714Y-80794438D01*
X128778714Y-80794438D02*
X128873952Y-80746819D01*
X128873952Y-80746819D02*
X129112047Y-80746819D01*
X129112047Y-80746819D02*
X129207285Y-80794438D01*
X129207285Y-80794438D02*
X129254904Y-80842057D01*
X129254904Y-80842057D02*
X129302523Y-80937295D01*
X129302523Y-80937295D02*
X129302523Y-81032533D01*
X129302523Y-81032533D02*
X129254904Y-81175390D01*
X129254904Y-81175390D02*
X128683476Y-81746819D01*
X128683476Y-81746819D02*
X129302523Y-81746819D01*
X129683476Y-80842057D02*
X129731095Y-80794438D01*
X129731095Y-80794438D02*
X129826333Y-80746819D01*
X129826333Y-80746819D02*
X130064428Y-80746819D01*
X130064428Y-80746819D02*
X130159666Y-80794438D01*
X130159666Y-80794438D02*
X130207285Y-80842057D01*
X130207285Y-80842057D02*
X130254904Y-80937295D01*
X130254904Y-80937295D02*
X130254904Y-81032533D01*
X130254904Y-81032533D02*
X130207285Y-81175390D01*
X130207285Y-81175390D02*
X129635857Y-81746819D01*
X129635857Y-81746819D02*
X130254904Y-81746819D01*
%TO.C,C21*%
X128350142Y-79681580D02*
X128302523Y-79729200D01*
X128302523Y-79729200D02*
X128159666Y-79776819D01*
X128159666Y-79776819D02*
X128064428Y-79776819D01*
X128064428Y-79776819D02*
X127921571Y-79729200D01*
X127921571Y-79729200D02*
X127826333Y-79633961D01*
X127826333Y-79633961D02*
X127778714Y-79538723D01*
X127778714Y-79538723D02*
X127731095Y-79348247D01*
X127731095Y-79348247D02*
X127731095Y-79205390D01*
X127731095Y-79205390D02*
X127778714Y-79014914D01*
X127778714Y-79014914D02*
X127826333Y-78919676D01*
X127826333Y-78919676D02*
X127921571Y-78824438D01*
X127921571Y-78824438D02*
X128064428Y-78776819D01*
X128064428Y-78776819D02*
X128159666Y-78776819D01*
X128159666Y-78776819D02*
X128302523Y-78824438D01*
X128302523Y-78824438D02*
X128350142Y-78872057D01*
X128731095Y-78872057D02*
X128778714Y-78824438D01*
X128778714Y-78824438D02*
X128873952Y-78776819D01*
X128873952Y-78776819D02*
X129112047Y-78776819D01*
X129112047Y-78776819D02*
X129207285Y-78824438D01*
X129207285Y-78824438D02*
X129254904Y-78872057D01*
X129254904Y-78872057D02*
X129302523Y-78967295D01*
X129302523Y-78967295D02*
X129302523Y-79062533D01*
X129302523Y-79062533D02*
X129254904Y-79205390D01*
X129254904Y-79205390D02*
X128683476Y-79776819D01*
X128683476Y-79776819D02*
X129302523Y-79776819D01*
X130254904Y-79776819D02*
X129683476Y-79776819D01*
X129969190Y-79776819D02*
X129969190Y-78776819D01*
X129969190Y-78776819D02*
X129873952Y-78919676D01*
X129873952Y-78919676D02*
X129778714Y-79014914D01*
X129778714Y-79014914D02*
X129683476Y-79062533D01*
%TO.C,C20*%
X128350142Y-77711580D02*
X128302523Y-77759200D01*
X128302523Y-77759200D02*
X128159666Y-77806819D01*
X128159666Y-77806819D02*
X128064428Y-77806819D01*
X128064428Y-77806819D02*
X127921571Y-77759200D01*
X127921571Y-77759200D02*
X127826333Y-77663961D01*
X127826333Y-77663961D02*
X127778714Y-77568723D01*
X127778714Y-77568723D02*
X127731095Y-77378247D01*
X127731095Y-77378247D02*
X127731095Y-77235390D01*
X127731095Y-77235390D02*
X127778714Y-77044914D01*
X127778714Y-77044914D02*
X127826333Y-76949676D01*
X127826333Y-76949676D02*
X127921571Y-76854438D01*
X127921571Y-76854438D02*
X128064428Y-76806819D01*
X128064428Y-76806819D02*
X128159666Y-76806819D01*
X128159666Y-76806819D02*
X128302523Y-76854438D01*
X128302523Y-76854438D02*
X128350142Y-76902057D01*
X128731095Y-76902057D02*
X128778714Y-76854438D01*
X128778714Y-76854438D02*
X128873952Y-76806819D01*
X128873952Y-76806819D02*
X129112047Y-76806819D01*
X129112047Y-76806819D02*
X129207285Y-76854438D01*
X129207285Y-76854438D02*
X129254904Y-76902057D01*
X129254904Y-76902057D02*
X129302523Y-76997295D01*
X129302523Y-76997295D02*
X129302523Y-77092533D01*
X129302523Y-77092533D02*
X129254904Y-77235390D01*
X129254904Y-77235390D02*
X128683476Y-77806819D01*
X128683476Y-77806819D02*
X129302523Y-77806819D01*
X129921571Y-76806819D02*
X130016809Y-76806819D01*
X130016809Y-76806819D02*
X130112047Y-76854438D01*
X130112047Y-76854438D02*
X130159666Y-76902057D01*
X130159666Y-76902057D02*
X130207285Y-76997295D01*
X130207285Y-76997295D02*
X130254904Y-77187771D01*
X130254904Y-77187771D02*
X130254904Y-77425866D01*
X130254904Y-77425866D02*
X130207285Y-77616342D01*
X130207285Y-77616342D02*
X130159666Y-77711580D01*
X130159666Y-77711580D02*
X130112047Y-77759200D01*
X130112047Y-77759200D02*
X130016809Y-77806819D01*
X130016809Y-77806819D02*
X129921571Y-77806819D01*
X129921571Y-77806819D02*
X129826333Y-77759200D01*
X129826333Y-77759200D02*
X129778714Y-77711580D01*
X129778714Y-77711580D02*
X129731095Y-77616342D01*
X129731095Y-77616342D02*
X129683476Y-77425866D01*
X129683476Y-77425866D02*
X129683476Y-77187771D01*
X129683476Y-77187771D02*
X129731095Y-76997295D01*
X129731095Y-76997295D02*
X129778714Y-76902057D01*
X129778714Y-76902057D02*
X129826333Y-76854438D01*
X129826333Y-76854438D02*
X129921571Y-76806819D01*
%TO.C,C19*%
X128350142Y-75741580D02*
X128302523Y-75789200D01*
X128302523Y-75789200D02*
X128159666Y-75836819D01*
X128159666Y-75836819D02*
X128064428Y-75836819D01*
X128064428Y-75836819D02*
X127921571Y-75789200D01*
X127921571Y-75789200D02*
X127826333Y-75693961D01*
X127826333Y-75693961D02*
X127778714Y-75598723D01*
X127778714Y-75598723D02*
X127731095Y-75408247D01*
X127731095Y-75408247D02*
X127731095Y-75265390D01*
X127731095Y-75265390D02*
X127778714Y-75074914D01*
X127778714Y-75074914D02*
X127826333Y-74979676D01*
X127826333Y-74979676D02*
X127921571Y-74884438D01*
X127921571Y-74884438D02*
X128064428Y-74836819D01*
X128064428Y-74836819D02*
X128159666Y-74836819D01*
X128159666Y-74836819D02*
X128302523Y-74884438D01*
X128302523Y-74884438D02*
X128350142Y-74932057D01*
X129302523Y-75836819D02*
X128731095Y-75836819D01*
X129016809Y-75836819D02*
X129016809Y-74836819D01*
X129016809Y-74836819D02*
X128921571Y-74979676D01*
X128921571Y-74979676D02*
X128826333Y-75074914D01*
X128826333Y-75074914D02*
X128731095Y-75122533D01*
X129778714Y-75836819D02*
X129969190Y-75836819D01*
X129969190Y-75836819D02*
X130064428Y-75789200D01*
X130064428Y-75789200D02*
X130112047Y-75741580D01*
X130112047Y-75741580D02*
X130207285Y-75598723D01*
X130207285Y-75598723D02*
X130254904Y-75408247D01*
X130254904Y-75408247D02*
X130254904Y-75027295D01*
X130254904Y-75027295D02*
X130207285Y-74932057D01*
X130207285Y-74932057D02*
X130159666Y-74884438D01*
X130159666Y-74884438D02*
X130064428Y-74836819D01*
X130064428Y-74836819D02*
X129873952Y-74836819D01*
X129873952Y-74836819D02*
X129778714Y-74884438D01*
X129778714Y-74884438D02*
X129731095Y-74932057D01*
X129731095Y-74932057D02*
X129683476Y-75027295D01*
X129683476Y-75027295D02*
X129683476Y-75265390D01*
X129683476Y-75265390D02*
X129731095Y-75360628D01*
X129731095Y-75360628D02*
X129778714Y-75408247D01*
X129778714Y-75408247D02*
X129873952Y-75455866D01*
X129873952Y-75455866D02*
X130064428Y-75455866D01*
X130064428Y-75455866D02*
X130159666Y-75408247D01*
X130159666Y-75408247D02*
X130207285Y-75360628D01*
X130207285Y-75360628D02*
X130254904Y-75265390D01*
%TO.C,C18*%
X125480142Y-87561580D02*
X125432523Y-87609200D01*
X125432523Y-87609200D02*
X125289666Y-87656819D01*
X125289666Y-87656819D02*
X125194428Y-87656819D01*
X125194428Y-87656819D02*
X125051571Y-87609200D01*
X125051571Y-87609200D02*
X124956333Y-87513961D01*
X124956333Y-87513961D02*
X124908714Y-87418723D01*
X124908714Y-87418723D02*
X124861095Y-87228247D01*
X124861095Y-87228247D02*
X124861095Y-87085390D01*
X124861095Y-87085390D02*
X124908714Y-86894914D01*
X124908714Y-86894914D02*
X124956333Y-86799676D01*
X124956333Y-86799676D02*
X125051571Y-86704438D01*
X125051571Y-86704438D02*
X125194428Y-86656819D01*
X125194428Y-86656819D02*
X125289666Y-86656819D01*
X125289666Y-86656819D02*
X125432523Y-86704438D01*
X125432523Y-86704438D02*
X125480142Y-86752057D01*
X126432523Y-87656819D02*
X125861095Y-87656819D01*
X126146809Y-87656819D02*
X126146809Y-86656819D01*
X126146809Y-86656819D02*
X126051571Y-86799676D01*
X126051571Y-86799676D02*
X125956333Y-86894914D01*
X125956333Y-86894914D02*
X125861095Y-86942533D01*
X127003952Y-87085390D02*
X126908714Y-87037771D01*
X126908714Y-87037771D02*
X126861095Y-86990152D01*
X126861095Y-86990152D02*
X126813476Y-86894914D01*
X126813476Y-86894914D02*
X126813476Y-86847295D01*
X126813476Y-86847295D02*
X126861095Y-86752057D01*
X126861095Y-86752057D02*
X126908714Y-86704438D01*
X126908714Y-86704438D02*
X127003952Y-86656819D01*
X127003952Y-86656819D02*
X127194428Y-86656819D01*
X127194428Y-86656819D02*
X127289666Y-86704438D01*
X127289666Y-86704438D02*
X127337285Y-86752057D01*
X127337285Y-86752057D02*
X127384904Y-86847295D01*
X127384904Y-86847295D02*
X127384904Y-86894914D01*
X127384904Y-86894914D02*
X127337285Y-86990152D01*
X127337285Y-86990152D02*
X127289666Y-87037771D01*
X127289666Y-87037771D02*
X127194428Y-87085390D01*
X127194428Y-87085390D02*
X127003952Y-87085390D01*
X127003952Y-87085390D02*
X126908714Y-87133009D01*
X126908714Y-87133009D02*
X126861095Y-87180628D01*
X126861095Y-87180628D02*
X126813476Y-87275866D01*
X126813476Y-87275866D02*
X126813476Y-87466342D01*
X126813476Y-87466342D02*
X126861095Y-87561580D01*
X126861095Y-87561580D02*
X126908714Y-87609200D01*
X126908714Y-87609200D02*
X127003952Y-87656819D01*
X127003952Y-87656819D02*
X127194428Y-87656819D01*
X127194428Y-87656819D02*
X127289666Y-87609200D01*
X127289666Y-87609200D02*
X127337285Y-87561580D01*
X127337285Y-87561580D02*
X127384904Y-87466342D01*
X127384904Y-87466342D02*
X127384904Y-87275866D01*
X127384904Y-87275866D02*
X127337285Y-87180628D01*
X127337285Y-87180628D02*
X127289666Y-87133009D01*
X127289666Y-87133009D02*
X127194428Y-87085390D01*
%TO.C,C17*%
X125480142Y-85591580D02*
X125432523Y-85639200D01*
X125432523Y-85639200D02*
X125289666Y-85686819D01*
X125289666Y-85686819D02*
X125194428Y-85686819D01*
X125194428Y-85686819D02*
X125051571Y-85639200D01*
X125051571Y-85639200D02*
X124956333Y-85543961D01*
X124956333Y-85543961D02*
X124908714Y-85448723D01*
X124908714Y-85448723D02*
X124861095Y-85258247D01*
X124861095Y-85258247D02*
X124861095Y-85115390D01*
X124861095Y-85115390D02*
X124908714Y-84924914D01*
X124908714Y-84924914D02*
X124956333Y-84829676D01*
X124956333Y-84829676D02*
X125051571Y-84734438D01*
X125051571Y-84734438D02*
X125194428Y-84686819D01*
X125194428Y-84686819D02*
X125289666Y-84686819D01*
X125289666Y-84686819D02*
X125432523Y-84734438D01*
X125432523Y-84734438D02*
X125480142Y-84782057D01*
X126432523Y-85686819D02*
X125861095Y-85686819D01*
X126146809Y-85686819D02*
X126146809Y-84686819D01*
X126146809Y-84686819D02*
X126051571Y-84829676D01*
X126051571Y-84829676D02*
X125956333Y-84924914D01*
X125956333Y-84924914D02*
X125861095Y-84972533D01*
X126765857Y-84686819D02*
X127432523Y-84686819D01*
X127432523Y-84686819D02*
X127003952Y-85686819D01*
%TO.C,C16*%
X125480142Y-83621580D02*
X125432523Y-83669200D01*
X125432523Y-83669200D02*
X125289666Y-83716819D01*
X125289666Y-83716819D02*
X125194428Y-83716819D01*
X125194428Y-83716819D02*
X125051571Y-83669200D01*
X125051571Y-83669200D02*
X124956333Y-83573961D01*
X124956333Y-83573961D02*
X124908714Y-83478723D01*
X124908714Y-83478723D02*
X124861095Y-83288247D01*
X124861095Y-83288247D02*
X124861095Y-83145390D01*
X124861095Y-83145390D02*
X124908714Y-82954914D01*
X124908714Y-82954914D02*
X124956333Y-82859676D01*
X124956333Y-82859676D02*
X125051571Y-82764438D01*
X125051571Y-82764438D02*
X125194428Y-82716819D01*
X125194428Y-82716819D02*
X125289666Y-82716819D01*
X125289666Y-82716819D02*
X125432523Y-82764438D01*
X125432523Y-82764438D02*
X125480142Y-82812057D01*
X126432523Y-83716819D02*
X125861095Y-83716819D01*
X126146809Y-83716819D02*
X126146809Y-82716819D01*
X126146809Y-82716819D02*
X126051571Y-82859676D01*
X126051571Y-82859676D02*
X125956333Y-82954914D01*
X125956333Y-82954914D02*
X125861095Y-83002533D01*
X127289666Y-82716819D02*
X127099190Y-82716819D01*
X127099190Y-82716819D02*
X127003952Y-82764438D01*
X127003952Y-82764438D02*
X126956333Y-82812057D01*
X126956333Y-82812057D02*
X126861095Y-82954914D01*
X126861095Y-82954914D02*
X126813476Y-83145390D01*
X126813476Y-83145390D02*
X126813476Y-83526342D01*
X126813476Y-83526342D02*
X126861095Y-83621580D01*
X126861095Y-83621580D02*
X126908714Y-83669200D01*
X126908714Y-83669200D02*
X127003952Y-83716819D01*
X127003952Y-83716819D02*
X127194428Y-83716819D01*
X127194428Y-83716819D02*
X127289666Y-83669200D01*
X127289666Y-83669200D02*
X127337285Y-83621580D01*
X127337285Y-83621580D02*
X127384904Y-83526342D01*
X127384904Y-83526342D02*
X127384904Y-83288247D01*
X127384904Y-83288247D02*
X127337285Y-83193009D01*
X127337285Y-83193009D02*
X127289666Y-83145390D01*
X127289666Y-83145390D02*
X127194428Y-83097771D01*
X127194428Y-83097771D02*
X127003952Y-83097771D01*
X127003952Y-83097771D02*
X126908714Y-83145390D01*
X126908714Y-83145390D02*
X126861095Y-83193009D01*
X126861095Y-83193009D02*
X126813476Y-83288247D01*
%TO.C,C15*%
X125480142Y-81651580D02*
X125432523Y-81699200D01*
X125432523Y-81699200D02*
X125289666Y-81746819D01*
X125289666Y-81746819D02*
X125194428Y-81746819D01*
X125194428Y-81746819D02*
X125051571Y-81699200D01*
X125051571Y-81699200D02*
X124956333Y-81603961D01*
X124956333Y-81603961D02*
X124908714Y-81508723D01*
X124908714Y-81508723D02*
X124861095Y-81318247D01*
X124861095Y-81318247D02*
X124861095Y-81175390D01*
X124861095Y-81175390D02*
X124908714Y-80984914D01*
X124908714Y-80984914D02*
X124956333Y-80889676D01*
X124956333Y-80889676D02*
X125051571Y-80794438D01*
X125051571Y-80794438D02*
X125194428Y-80746819D01*
X125194428Y-80746819D02*
X125289666Y-80746819D01*
X125289666Y-80746819D02*
X125432523Y-80794438D01*
X125432523Y-80794438D02*
X125480142Y-80842057D01*
X126432523Y-81746819D02*
X125861095Y-81746819D01*
X126146809Y-81746819D02*
X126146809Y-80746819D01*
X126146809Y-80746819D02*
X126051571Y-80889676D01*
X126051571Y-80889676D02*
X125956333Y-80984914D01*
X125956333Y-80984914D02*
X125861095Y-81032533D01*
X127337285Y-80746819D02*
X126861095Y-80746819D01*
X126861095Y-80746819D02*
X126813476Y-81223009D01*
X126813476Y-81223009D02*
X126861095Y-81175390D01*
X126861095Y-81175390D02*
X126956333Y-81127771D01*
X126956333Y-81127771D02*
X127194428Y-81127771D01*
X127194428Y-81127771D02*
X127289666Y-81175390D01*
X127289666Y-81175390D02*
X127337285Y-81223009D01*
X127337285Y-81223009D02*
X127384904Y-81318247D01*
X127384904Y-81318247D02*
X127384904Y-81556342D01*
X127384904Y-81556342D02*
X127337285Y-81651580D01*
X127337285Y-81651580D02*
X127289666Y-81699200D01*
X127289666Y-81699200D02*
X127194428Y-81746819D01*
X127194428Y-81746819D02*
X126956333Y-81746819D01*
X126956333Y-81746819D02*
X126861095Y-81699200D01*
X126861095Y-81699200D02*
X126813476Y-81651580D01*
D11*
%TO.C,R27*%
X120125742Y-87294500D02*
X120600258Y-87294500D01*
X120125742Y-86249500D02*
X120600258Y-86249500D01*
%TO.C,R26*%
X120125742Y-85304500D02*
X120600258Y-85304500D01*
X120125742Y-84259500D02*
X120600258Y-84259500D01*
%TO.C,R22*%
X120125742Y-77344500D02*
X120600258Y-77344500D01*
X120125742Y-76299500D02*
X120600258Y-76299500D01*
%TO.C,R20*%
X200135258Y-108951500D02*
X199660742Y-108951500D01*
X200135258Y-109996500D02*
X199660742Y-109996500D01*
%TO.C,R19*%
X199754258Y-98918500D02*
X199279742Y-98918500D01*
X199754258Y-99963500D02*
X199279742Y-99963500D01*
%TO.C,R18*%
X199813142Y-86120500D02*
X200287658Y-86120500D01*
X199813142Y-85075500D02*
X200287658Y-85075500D01*
%TO.C,R17*%
X117215742Y-81324500D02*
X117690258Y-81324500D01*
X117215742Y-80279500D02*
X117690258Y-80279500D01*
%TO.C,R16*%
X117215742Y-79334500D02*
X117690258Y-79334500D01*
X117215742Y-78289500D02*
X117690258Y-78289500D01*
%TO.C,R15*%
X200287658Y-84596500D02*
X199813142Y-84596500D01*
X200287658Y-83551500D02*
X199813142Y-83551500D01*
%TO.C,R14*%
X114305742Y-89284500D02*
X114780258Y-89284500D01*
X114305742Y-88239500D02*
X114780258Y-88239500D01*
%TO.C,R9*%
X200135258Y-104252500D02*
X199660742Y-104252500D01*
X200135258Y-105297500D02*
X199660742Y-105297500D01*
%TO.C,R8*%
X199754258Y-93965500D02*
X199279742Y-93965500D01*
X199754258Y-95010500D02*
X199279742Y-95010500D01*
%TO.C,R7*%
X196632300Y-76064342D02*
X196632300Y-76538858D01*
X197677300Y-76064342D02*
X197677300Y-76538858D01*
%TO.C,R6*%
X194981300Y-76064343D02*
X194981300Y-76538859D01*
X196026300Y-76064343D02*
X196026300Y-76538859D01*
%TO.C,R5*%
X111395742Y-85304500D02*
X111870258Y-85304500D01*
X111395742Y-84259500D02*
X111870258Y-84259500D01*
%TO.C,R4*%
X111395742Y-83314500D02*
X111870258Y-83314500D01*
X111395742Y-82269500D02*
X111870258Y-82269500D01*
%TO.C,R3*%
X195761342Y-94807300D02*
X196235858Y-94807300D01*
X195761342Y-93762300D02*
X196235858Y-93762300D01*
%TO.C,D3*%
X193829000Y-96736000D02*
X193829000Y-99021000D01*
X195299000Y-99021000D02*
X195299000Y-96736000D01*
X193829000Y-99021000D02*
X195299000Y-99021000D01*
%TO.C,C29*%
X192672580Y-112139000D02*
X192391420Y-112139000D01*
X192672580Y-113159000D02*
X192391420Y-113159000D01*
%TO.C,C28*%
X131722420Y-81262000D02*
X132003580Y-81262000D01*
X131722420Y-80242000D02*
X132003580Y-80242000D01*
%TO.C,C27*%
X131722420Y-79292000D02*
X132003580Y-79292000D01*
X131722420Y-78272000D02*
X132003580Y-78272000D01*
%TO.C,C26*%
X131722420Y-77322000D02*
X132003580Y-77322000D01*
X131722420Y-76302000D02*
X132003580Y-76302000D01*
%TO.C,C25*%
X128852420Y-89142000D02*
X129133580Y-89142000D01*
X128852420Y-88122000D02*
X129133580Y-88122000D01*
%TO.C,C24*%
X128852420Y-87172000D02*
X129133580Y-87172000D01*
X128852420Y-86152000D02*
X129133580Y-86152000D01*
%TO.C,C23*%
X128852420Y-85202000D02*
X129133580Y-85202000D01*
X128852420Y-84182000D02*
X129133580Y-84182000D01*
%TO.C,C22*%
X128852420Y-83232000D02*
X129133580Y-83232000D01*
X128852420Y-82212000D02*
X129133580Y-82212000D01*
%TO.C,C21*%
X128852420Y-81262000D02*
X129133580Y-81262000D01*
X128852420Y-80242000D02*
X129133580Y-80242000D01*
%TO.C,C20*%
X128852420Y-79292000D02*
X129133580Y-79292000D01*
X128852420Y-78272000D02*
X129133580Y-78272000D01*
%TO.C,C19*%
X128852420Y-77322000D02*
X129133580Y-77322000D01*
X128852420Y-76302000D02*
X129133580Y-76302000D01*
%TO.C,C18*%
X125982420Y-89142000D02*
X126263580Y-89142000D01*
X125982420Y-88122000D02*
X126263580Y-88122000D01*
%TO.C,C17*%
X125982420Y-87172000D02*
X126263580Y-87172000D01*
X125982420Y-86152000D02*
X126263580Y-86152000D01*
%TO.C,C16*%
X125982420Y-85202000D02*
X126263580Y-85202000D01*
X125982420Y-84182000D02*
X126263580Y-84182000D01*
%TO.C,C15*%
X125982420Y-83232000D02*
X126263580Y-83232000D01*
X125982420Y-82212000D02*
X126263580Y-82212000D01*
%TO.C,C14*%
X201181580Y-74547000D02*
X200900420Y-74547000D01*
X201181580Y-75567000D02*
X200900420Y-75567000D01*
%TO.C,C13*%
X200011420Y-71503000D02*
X200292580Y-71503000D01*
X200011420Y-70483000D02*
X200292580Y-70483000D01*
%TO.C,C12*%
X203456000Y-72924580D02*
X203456000Y-72643420D01*
X202436000Y-72924580D02*
X202436000Y-72643420D01*
%TO.C,C11*%
X198122000Y-68618980D02*
X198122000Y-68337820D01*
X197102000Y-68618980D02*
X197102000Y-68337820D01*
%TO.C,C10*%
X197102000Y-65125820D02*
X197102000Y-65406980D01*
X198122000Y-65125820D02*
X198122000Y-65406980D01*
%TO.C,C9*%
X195074000Y-66005380D02*
X195074000Y-65724220D01*
X194054000Y-66005380D02*
X194054000Y-65724220D01*
%TO.C,C8*%
X193914580Y-106932000D02*
X193633420Y-106932000D01*
X193914580Y-107952000D02*
X193633420Y-107952000D01*
%TO.C,C6*%
X192672580Y-114044000D02*
X192391420Y-114044000D01*
X192672580Y-115064000D02*
X192391420Y-115064000D01*
%TO.C,C5*%
X200038580Y-113155000D02*
X199757420Y-113155000D01*
X200038580Y-114175000D02*
X199757420Y-114175000D01*
%TO.C,C3*%
X194054000Y-68693420D02*
X194054000Y-68974580D01*
X195074000Y-68693420D02*
X195074000Y-68974580D01*
%TO.C,C2*%
X191426220Y-70918800D02*
X191707380Y-70918800D01*
X191426220Y-69898800D02*
X191707380Y-69898800D01*
%TO.C,C1*%
X191248420Y-76100400D02*
X191529580Y-76100400D01*
X191248420Y-75080400D02*
X191529580Y-75080400D01*
%TO.C,D2*%
X191113200Y-93223200D02*
X191113200Y-95143200D01*
X191113200Y-95143200D02*
X193798200Y-95143200D01*
X193798200Y-93223200D02*
X191113200Y-93223200D01*
%TO.C,U5*%
X199814000Y-74125000D02*
X199814000Y-74125000D01*
X201514000Y-74125000D02*
X201514000Y-74125000D01*
X202014000Y-74125000D02*
X201514000Y-74125000D01*
X199814000Y-73625000D02*
X199814000Y-74125000D01*
X202014000Y-73625000D02*
X202014000Y-74125000D01*
X199814000Y-72425000D02*
X199814000Y-71925000D01*
X202014000Y-72425000D02*
X202014000Y-72425000D01*
X199814000Y-71925000D02*
X200314000Y-71925000D01*
X200314000Y-71925000D02*
X200314000Y-71925000D01*
X201514000Y-71925000D02*
X202014000Y-71925000D01*
X202014000Y-71925000D02*
X202014000Y-72425000D01*
D10*
%TO.C,Q2*%
X197230000Y-95488000D02*
X199010000Y-95488000D01*
X197230000Y-98568000D02*
X199010000Y-98568000D01*
D12*
X196970000Y-95358000D02*
G75*
G03*
X196970000Y-95358000I-150000J0D01*
G01*
D11*
%TO.C,J5*%
X188475000Y-88661600D02*
X188475000Y-89711600D01*
X185975000Y-88661600D02*
X188475000Y-88661600D01*
X188475000Y-89711600D02*
X189465000Y-89711600D01*
X184005000Y-89831600D02*
X184005000Y-92711600D01*
X188475000Y-93881600D02*
X188475000Y-92831600D01*
X185975000Y-93881600D02*
X188475000Y-93881600D01*
%TO.C,U8*%
X190560400Y-79918000D02*
X191210400Y-79918000D01*
X197780400Y-80568000D02*
X197780400Y-79918000D01*
X190560400Y-80568000D02*
X190560400Y-79918000D01*
X197780400Y-86488000D02*
X197780400Y-87138000D01*
X190560400Y-86488000D02*
X190560400Y-87138000D01*
X197780400Y-87138000D02*
X197130400Y-87138000D01*
X190560400Y-87138000D02*
X191210400Y-87138000D01*
D10*
%TO.C,Q3*%
X197230000Y-105648000D02*
X199010000Y-105648000D01*
X197230000Y-108728000D02*
X199010000Y-108728000D01*
D12*
X196970000Y-105518000D02*
G75*
G03*
X196970000Y-105518000I-150000J0D01*
G01*
D11*
%TO.C,Q1*%
X195362000Y-101092000D02*
X195362000Y-99417000D01*
X195362000Y-101092000D02*
X195362000Y-101742000D01*
X192242000Y-101092000D02*
X192242000Y-100442000D01*
X192242000Y-101092000D02*
X192242000Y-101742000D01*
%TO.C,J8*%
X204943400Y-65990000D02*
X206273400Y-65990000D01*
X204943400Y-67320000D02*
X204943400Y-65990000D01*
X204943400Y-68590000D02*
X204943400Y-76270000D01*
X204943400Y-68590000D02*
X207603400Y-68590000D01*
X204943400Y-76270000D02*
X207603400Y-76270000D01*
X207603400Y-68590000D02*
X207603400Y-76270000D01*
D13*
%TO.C,X1*%
X184844000Y-82120000D02*
X184844000Y-85520000D01*
X184844000Y-85520000D02*
X189044000Y-85520000D01*
X189044000Y-82120000D02*
X184844000Y-82120000D01*
X189044000Y-85520000D02*
X189044000Y-82120000D01*
D12*
X185044000Y-85870000D02*
G75*
G03*
X185044000Y-85870000I0J0D01*
G01*
D11*
%TO.C,J1*%
X207384000Y-111528000D02*
X208124000Y-111528000D01*
X208124000Y-111528000D02*
X208124000Y-111028000D01*
X201564000Y-111288000D02*
X207884000Y-111288000D01*
X201564000Y-111288000D02*
X201564000Y-90387000D01*
X202024000Y-111288000D02*
X202024000Y-90387000D01*
X207324000Y-111288000D02*
X207324000Y-90387000D01*
X207884000Y-111288000D02*
X207884000Y-90387000D01*
X201564000Y-90387000D02*
X207884000Y-90387000D01*
%TO.C,C7*%
X193886580Y-106428000D02*
X193605420Y-106428000D01*
X193886580Y-105408000D02*
X193605420Y-105408000D01*
D14*
%TO.C,J7*%
X208089000Y-80098000D02*
X208419000Y-80428000D01*
X208419000Y-80428000D02*
X208339000Y-80428000D01*
X208339000Y-80428000D02*
X207689000Y-81078000D01*
X207689000Y-80498000D02*
X208089000Y-80098000D01*
X207689000Y-80578000D02*
X207689000Y-80498000D01*
X207689000Y-80578000D02*
X207689000Y-88078000D01*
X202569000Y-80578000D02*
X207689000Y-80578000D01*
X202569000Y-81078000D02*
X202569000Y-80578000D01*
X208419000Y-81728000D02*
X207689000Y-81728000D01*
X208419000Y-86768000D02*
X208419000Y-81728000D01*
X207689000Y-86768000D02*
X208419000Y-86768000D01*
X207689000Y-88078000D02*
X202569000Y-88078000D01*
X207689000Y-88078000D02*
X207689000Y-88158000D01*
X202569000Y-88078000D02*
X202569000Y-87578000D01*
X207689000Y-88158000D02*
X208089000Y-88558000D01*
X208419000Y-88188000D02*
X207689000Y-87458000D01*
X208419000Y-88228000D02*
X208419000Y-88188000D01*
X208089000Y-88558000D02*
X208419000Y-88228000D01*
D11*
%TO.C,J4*%
X194200999Y-60152000D02*
X194200999Y-60752000D01*
X193500999Y-61452000D02*
X192100999Y-61452000D01*
X192100999Y-59452000D02*
X193500999Y-59452000D01*
X191400999Y-60752000D02*
X191400999Y-60152000D01*
X193500999Y-61452000D02*
G75*
G03*
X194200999Y-60752000I1J699999D01*
G01*
X194200999Y-60152000D02*
G75*
G03*
X193500999Y-59452000I-699999J1D01*
G01*
X191400999Y-60752000D02*
G75*
G03*
X192100999Y-61452000I700000J0D01*
G01*
X192100999Y-59452000D02*
G75*
G03*
X191400999Y-60152000I0J-700000D01*
G01*
D14*
%TO.C,U9*%
X195188000Y-115215000D02*
X196988000Y-115215000D01*
X195188000Y-114065000D02*
X195188000Y-113265000D01*
X195188000Y-112115000D02*
X196988000Y-112115000D01*
X197738000Y-115315000D02*
G75*
G03*
X197738000Y-115315000I-130000J0D01*
G01*
D11*
%TO.C,F1*%
X193543422Y-103430000D02*
X194060578Y-103430000D01*
X193543422Y-104850000D02*
X194060578Y-104850000D01*
D13*
%TO.C,U2*%
X193739000Y-71471000D02*
X193739000Y-72621000D01*
X193619000Y-71471000D02*
X193739000Y-71471000D01*
X193289000Y-71471000D02*
X193619000Y-71471000D01*
X189169000Y-71471000D02*
X189629000Y-71471000D01*
X189169000Y-72671000D02*
X189169000Y-71471000D01*
X193739000Y-73381000D02*
X193739000Y-74521000D01*
X193739000Y-74521000D02*
X193289000Y-74521000D01*
X189629000Y-74521000D02*
X189169000Y-74521000D01*
X189169000Y-74521000D02*
X189169000Y-73331000D01*
D14*
X189539000Y-71221000D02*
G75*
G03*
X189539000Y-71221000I-110000J0D01*
G01*
D10*
%TO.C,U4*%
X202646400Y-64171200D02*
X202646400Y-64341200D01*
X201606400Y-64171200D02*
X202646400Y-64171200D01*
X200526400Y-64171200D02*
X199486400Y-64171200D01*
X199486400Y-64171200D02*
X199486400Y-64341200D01*
X202646400Y-69331200D02*
X202646400Y-69161200D01*
X201606400Y-69331200D02*
X202646400Y-69331200D01*
X200526400Y-69331200D02*
X199486400Y-69331200D01*
X199486400Y-69331200D02*
X199486400Y-69161200D01*
D14*
X198596400Y-64751200D02*
G75*
G03*
X198596400Y-64751200I-120000J0D01*
G01*
D11*
%TO.C,J3*%
X198108000Y-60152000D02*
X198108000Y-60752000D01*
X197408000Y-61452000D02*
X196008000Y-61452000D01*
X196008000Y-59452000D02*
X197408000Y-59452000D01*
X195308000Y-60752000D02*
X195308000Y-60152000D01*
X197408000Y-61452000D02*
G75*
G03*
X198108000Y-60752000I1J699999D01*
G01*
X198108000Y-60152000D02*
G75*
G03*
X197408000Y-59452000I-699999J1D01*
G01*
X195308000Y-60752000D02*
G75*
G03*
X196008000Y-61452000I700000J0D01*
G01*
X196008000Y-59452000D02*
G75*
G03*
X195308000Y-60152000I0J-700000D01*
G01*
D15*
%TO.C,U6*%
X198768000Y-100472000D02*
X198328000Y-100472000D01*
X197678000Y-100472000D02*
X197238000Y-100472000D01*
X197238000Y-100472000D02*
X197238000Y-100562000D01*
X198768000Y-100562000D02*
X198768000Y-100472000D01*
X197238000Y-102662000D02*
X197238000Y-102752000D01*
X198768000Y-102752000D02*
X198768000Y-102662000D01*
X198328000Y-102752000D02*
X198768000Y-102752000D01*
X197238000Y-102752000D02*
X197678000Y-102752000D01*
X197188000Y-100472000D02*
G75*
G03*
X197188000Y-100472000I-80000J0D01*
G01*
D11*
%TO.C,J2*%
X184665000Y-95228000D02*
X183925000Y-95228000D01*
X183925000Y-95228000D02*
X183925000Y-95728000D01*
X190485000Y-95468000D02*
X184165000Y-95468000D01*
X190485000Y-95468000D02*
X190485000Y-111288000D01*
X190025000Y-95468000D02*
X190025000Y-111288000D01*
X184725000Y-95468000D02*
X184725000Y-111288000D01*
X184165000Y-95468000D02*
X184165000Y-111288000D01*
X190485000Y-111288000D02*
X184165000Y-111288000D01*
%TO.C,U3*%
X193270000Y-63099800D02*
X190270000Y-63099800D01*
X191770000Y-68319800D02*
X190270000Y-68319800D01*
%TO.C,J6*%
X184725000Y-65980000D02*
X186055000Y-65980000D01*
X184725000Y-67310000D02*
X184725000Y-65980000D01*
X184725000Y-68580000D02*
X184725000Y-81340000D01*
X184725000Y-68580000D02*
X187385000Y-68580000D01*
X184725000Y-81340000D02*
X187385000Y-81340000D01*
X187385000Y-68580000D02*
X187385000Y-81340000D01*
D10*
%TO.C,LED1*%
X200913000Y-88978000D02*
X200913000Y-89278000D01*
X200693000Y-89198000D02*
X200693000Y-92158000D01*
X197833000Y-89198000D02*
X197833000Y-92158000D01*
D14*
%TO.C,U7*%
X199300000Y-80162000D02*
X199300000Y-79792000D01*
X199300000Y-76532000D02*
X199300000Y-76162000D01*
X199300000Y-76162000D02*
X203300000Y-76162000D01*
X203300000Y-80162000D02*
X199300000Y-80162000D01*
X203300000Y-79792000D02*
X203300000Y-80162000D01*
X203300000Y-76162000D02*
X203300000Y-76532000D01*
D12*
X198750000Y-76962000D02*
G75*
G03*
X198750000Y-76962000I-150000J0D01*
G01*
D11*
%TO.C,C4*%
X195134620Y-64162400D02*
X195415780Y-64162400D01*
X195134620Y-63142400D02*
X195415780Y-63142400D01*
%TD*%
M02*
