%TF.GenerationSoftware,KiCad,Pcbnew,7.0.5*%
%TF.CreationDate,2023-12-09T18:35:52-08:00*%
%TF.ProjectId,Lyrav3,4c797261-7633-42e6-9b69-6361645f7063,rev?*%
%TF.SameCoordinates,Original*%
%TF.FileFunction,Legend,Bot*%
%TF.FilePolarity,Positive*%
%FSLAX46Y46*%
G04 Gerber Fmt 4.6, Leading zero omitted, Abs format (unit mm)*
G04 Created by KiCad (PCBNEW 7.0.5) date 2023-12-09 18:35:52*
%MOMM*%
%LPD*%
G01*
G04 APERTURE LIST*
%ADD10C,0.120000*%
%ADD11C,0.150000*%
%ADD12C,0.500000*%
G04 APERTURE END LIST*
D10*
%TO.C,R25*%
X200135258Y-108980500D02*
X199660742Y-108980500D01*
X200135258Y-107935500D02*
X199660742Y-107935500D01*
%TO.C,R24*%
X199881258Y-98820500D02*
X199406742Y-98820500D01*
X199881258Y-97775500D02*
X199406742Y-97775500D01*
%TO.C,R23*%
X199660742Y-109459500D02*
X200135258Y-109459500D01*
X199660742Y-110504500D02*
X200135258Y-110504500D01*
%TO.C,R21*%
X199406742Y-99836500D02*
X199881258Y-99836500D01*
X199406742Y-98791500D02*
X199881258Y-98791500D01*
%TO.C,R13*%
X200135258Y-106313500D02*
X199660742Y-106313500D01*
X200135258Y-105268500D02*
X199660742Y-105268500D01*
%TO.C,R12*%
X200010258Y-96280500D02*
X199535742Y-96280500D01*
X200010258Y-95235500D02*
X199535742Y-95235500D01*
%TO.C,R11*%
X199660742Y-103744500D02*
X200135258Y-103744500D01*
X199660742Y-104789500D02*
X200135258Y-104789500D01*
%TO.C,R10*%
X199535742Y-94219500D02*
X200010258Y-94219500D01*
X199535742Y-95264500D02*
X200010258Y-95264500D01*
%TO.C,R2*%
X198613500Y-92187257D02*
X198613500Y-91712741D01*
X199658500Y-92187257D02*
X199658500Y-91712741D01*
D11*
%TO.C,BUZZER1*%
X192405000Y-60961000D02*
X200055000Y-60961000D01*
X192405000Y-69341000D02*
X200055000Y-69341000D01*
D12*
X191515000Y-68581000D02*
G75*
G03*
X191515000Y-68581000I-250000J0D01*
G01*
%TD*%
M02*
