%TF.GenerationSoftware,KiCad,Pcbnew,7.0.5*%
%TF.CreationDate,2023-12-09T18:35:52-08:00*%
%TF.ProjectId,Lyrav3,4c797261-7633-42e6-9b69-6361645f7063,rev?*%
%TF.SameCoordinates,Original*%
%TF.FileFunction,Copper,L4,Bot*%
%TF.FilePolarity,Positive*%
%FSLAX46Y46*%
G04 Gerber Fmt 4.6, Leading zero omitted, Abs format (unit mm)*
G04 Created by KiCad (PCBNEW 7.0.5) date 2023-12-09 18:35:52*
%MOMM*%
%LPD*%
G01*
G04 APERTURE LIST*
G04 Aperture macros list*
%AMRoundRect*
0 Rectangle with rounded corners*
0 $1 Rounding radius*
0 $2 $3 $4 $5 $6 $7 $8 $9 X,Y pos of 4 corners*
0 Add a 4 corners polygon primitive as box body*
4,1,4,$2,$3,$4,$5,$6,$7,$8,$9,$2,$3,0*
0 Add four circle primitives for the rounded corners*
1,1,$1+$1,$2,$3*
1,1,$1+$1,$4,$5*
1,1,$1+$1,$6,$7*
1,1,$1+$1,$8,$9*
0 Add four rect primitives between the rounded corners*
20,1,$1+$1,$2,$3,$4,$5,0*
20,1,$1+$1,$4,$5,$6,$7,0*
20,1,$1+$1,$6,$7,$8,$9,0*
20,1,$1+$1,$8,$9,$2,$3,0*%
G04 Aperture macros list end*
%TA.AperFunction,SMDPad,CuDef*%
%ADD10RoundRect,0.200000X0.200000X0.275000X-0.200000X0.275000X-0.200000X-0.275000X0.200000X-0.275000X0*%
%TD*%
%TA.AperFunction,SMDPad,CuDef*%
%ADD11RoundRect,0.200000X-0.200000X-0.275000X0.200000X-0.275000X0.200000X0.275000X-0.200000X0.275000X0*%
%TD*%
%TA.AperFunction,SMDPad,CuDef*%
%ADD12RoundRect,0.200000X0.275000X-0.200000X0.275000X0.200000X-0.275000X0.200000X-0.275000X-0.200000X0*%
%TD*%
%TA.AperFunction,ComponentPad*%
%ADD13C,5.600000*%
%TD*%
%TA.AperFunction,ComponentPad*%
%ADD14R,1.700000X1.700000*%
%TD*%
%TA.AperFunction,ComponentPad*%
%ADD15O,1.700000X1.700000*%
%TD*%
%TA.AperFunction,ComponentPad*%
%ADD16R,2.200000X2.200000*%
%TD*%
%TA.AperFunction,ComponentPad*%
%ADD17C,2.200000*%
%TD*%
%TA.AperFunction,ComponentPad*%
%ADD18O,1.900000X1.200000*%
%TD*%
%TA.AperFunction,ComponentPad*%
%ADD19O,1.400000X1.200000*%
%TD*%
%TA.AperFunction,SMDPad,CuDef*%
%ADD20R,1.680000X1.680000*%
%TD*%
G04 APERTURE END LIST*
D10*
%TO.P,R25,1*%
%TO.N,/P4 CONT *%
X200723000Y-108458000D03*
%TO.P,R25,2*%
%TO.N,GND*%
X199073000Y-108458000D03*
%TD*%
%TO.P,R24,1*%
%TO.N,/P2 CONT *%
X200469000Y-98298000D03*
%TO.P,R24,2*%
%TO.N,GND*%
X198819000Y-98298000D03*
%TD*%
D11*
%TO.P,R23,1*%
%TO.N,Net-(Q3B-D)*%
X199073000Y-109982000D03*
%TO.P,R23,2*%
%TO.N,/P4 CONT *%
X200723000Y-109982000D03*
%TD*%
%TO.P,R21,2*%
%TO.N,/P2 CONT *%
X200469000Y-99314000D03*
%TO.P,R21,1*%
%TO.N,Net-(Q2B-D)*%
X198819000Y-99314000D03*
%TD*%
D10*
%TO.P,R13,1*%
%TO.N,/P3 CONT *%
X200723000Y-105791000D03*
%TO.P,R13,2*%
%TO.N,GND*%
X199073000Y-105791000D03*
%TD*%
%TO.P,R12,1*%
%TO.N,/P1 CONT *%
X200598000Y-95758000D03*
%TO.P,R12,2*%
%TO.N,GND*%
X198948000Y-95758000D03*
%TD*%
D11*
%TO.P,R11,1*%
%TO.N,Net-(Q3A-D)*%
X199073000Y-104267000D03*
%TO.P,R11,2*%
%TO.N,/P3 CONT *%
X200723000Y-104267000D03*
%TD*%
%TO.P,R10,1*%
%TO.N,Net-(Q2A-D)*%
X198948000Y-94742000D03*
%TO.P,R10,2*%
%TO.N,/P1 CONT *%
X200598000Y-94742000D03*
%TD*%
D12*
%TO.P,R2,1*%
%TO.N,Net-(LED1-+-Pad4)*%
X199136000Y-92774999D03*
%TO.P,R2,2*%
%TO.N,+3V3*%
X199136000Y-91124999D03*
%TD*%
D13*
%TO.P,H3,1,1*%
%TO.N,GND*%
X186600000Y-116025000D03*
%TD*%
D14*
%TO.P,J8,1,Pin_1*%
%TO.N,/BRKOUT4*%
X206273400Y-67320000D03*
D15*
%TO.P,J8,2,Pin_2*%
%TO.N,/BRKOUT3*%
X206273400Y-69860000D03*
%TO.P,J8,3,Pin_3*%
%TO.N,/BRKOUT2*%
X206273400Y-72400000D03*
%TO.P,J8,4,Pin_4*%
%TO.N,/BRKOUT1*%
X206273400Y-74940000D03*
%TD*%
D16*
%TO.P,J1,1,Pin_1*%
%TO.N,/P4-*%
X204724000Y-109728000D03*
D17*
%TO.P,J1,2,Pin_2*%
%TO.N,/PYRO PWR*%
X204724000Y-107188000D03*
%TO.P,J1,3,Pin_3*%
%TO.N,/P3-*%
X204724000Y-104648000D03*
%TO.P,J1,4,Pin_4*%
%TO.N,/PYRO PWR*%
X204724000Y-102108000D03*
%TO.P,J1,5,Pin_5*%
%TO.N,/P2-*%
X204724000Y-99568000D03*
%TO.P,J1,6,Pin_6*%
%TO.N,/PYRO PWR*%
X204724000Y-97028000D03*
%TO.P,J1,7,Pin_7*%
%TO.N,/P1-*%
X204724000Y-94488000D03*
%TO.P,J1,8,Pin_8*%
%TO.N,/PYRO PWR*%
X204724000Y-91948000D03*
%TD*%
D18*
%TO.P,J7,9*%
%TO.N,N/C*%
X205539000Y-80728000D03*
%TO.P,J7,8*%
X205539000Y-87928000D03*
D19*
%TO.P,J7,7*%
X202639000Y-86748000D03*
%TO.P,J7,6,Shield*%
%TO.N,unconnected-(J7-Shield-Pad6)*%
X202639000Y-81908000D03*
%TD*%
D13*
%TO.P,H1,1,1*%
%TO.N,GND*%
X186600000Y-62025000D03*
%TD*%
%TO.P,H2,1,1*%
%TO.N,GND*%
X205600000Y-62025000D03*
%TD*%
%TO.P,H4,1,1*%
%TO.N,GND*%
X205600000Y-116025000D03*
%TD*%
D16*
%TO.P,J2,1,Pin_1*%
%TO.N,/PYRO PWR*%
X187325000Y-97028000D03*
D17*
%TO.P,J2,2,Pin_2*%
%TO.N,+12P*%
X187325000Y-99568000D03*
%TO.P,J2,3,Pin_3*%
%TO.N,+12V*%
X187325000Y-102108000D03*
%TO.P,J2,4,Pin_4*%
%TO.N,+BATT*%
X187325000Y-104648000D03*
%TO.P,J2,5,Pin_5*%
%TO.N,GND*%
X187325000Y-107188000D03*
%TO.P,J2,6,Pin_6*%
%TO.N,+BATT*%
X187325000Y-109728000D03*
%TD*%
D14*
%TO.P,J6,1,Pin_1*%
%TO.N,/BRKOUT5*%
X186055000Y-67310000D03*
D15*
%TO.P,J6,2,Pin_2*%
%TO.N,/BRKOUT6*%
X186055000Y-69850000D03*
%TO.P,J6,3,Pin_3*%
%TO.N,/BRKOUT7*%
X186055000Y-72390000D03*
%TO.P,J6,4,Pin_4*%
%TO.N,+12VA*%
X186055000Y-74930000D03*
%TO.P,J6,5,Pin_5*%
%TO.N,+3V3*%
X186055000Y-77470000D03*
%TO.P,J6,6,Pin_6*%
%TO.N,GND*%
X186055000Y-80010000D03*
%TD*%
D20*
%TO.P,BUZZER1,1,+*%
%TO.N,/BUZZER*%
X192715000Y-68301000D03*
%TO.P,BUZZER1,2,-*%
%TO.N,GND*%
X192715000Y-62001000D03*
%TO.P,BUZZER1,3,3*%
X199715000Y-62001000D03*
%TO.P,BUZZER1,4,4*%
%TO.N,/BUZZER*%
X199715000Y-68301000D03*
%TD*%
M02*
