%TF.GenerationSoftware,KiCad,Pcbnew,(7.0.0)*%
%TF.CreationDate,2023-12-17T22:30:30-08:00*%
%TF.ProjectId,Lyrav3,4c797261-7633-42e6-9b69-6361645f7063,rev?*%
%TF.SameCoordinates,Original*%
%TF.FileFunction,Copper,L3,Inr*%
%TF.FilePolarity,Positive*%
%FSLAX46Y46*%
G04 Gerber Fmt 4.6, Leading zero omitted, Abs format (unit mm)*
G04 Created by KiCad (PCBNEW (7.0.0)) date 2023-12-17 22:30:30*
%MOMM*%
%LPD*%
G01*
G04 APERTURE LIST*
%TA.AperFunction,ComponentPad*%
%ADD10C,5.600000*%
%TD*%
%TA.AperFunction,ComponentPad*%
%ADD11R,1.700000X1.700000*%
%TD*%
%TA.AperFunction,ComponentPad*%
%ADD12O,1.700000X1.700000*%
%TD*%
%TA.AperFunction,ComponentPad*%
%ADD13R,2.200000X2.200000*%
%TD*%
%TA.AperFunction,ComponentPad*%
%ADD14C,2.200000*%
%TD*%
%TA.AperFunction,ComponentPad*%
%ADD15R,1.350000X1.350000*%
%TD*%
%TA.AperFunction,ComponentPad*%
%ADD16O,1.350000X1.350000*%
%TD*%
%TA.AperFunction,ComponentPad*%
%ADD17O,1.400000X1.200000*%
%TD*%
%TA.AperFunction,ComponentPad*%
%ADD18O,1.900000X1.200000*%
%TD*%
%TA.AperFunction,ViaPad*%
%ADD19C,0.600000*%
%TD*%
%TA.AperFunction,ViaPad*%
%ADD20C,0.700000*%
%TD*%
%TA.AperFunction,ViaPad*%
%ADD21C,1.000000*%
%TD*%
G04 APERTURE END LIST*
D10*
%TO.N,GND*%
%TO.C,H3*%
X3000000Y3000000D03*
%TD*%
D11*
%TO.N,/BRKOUT1*%
%TO.C,J8*%
X22647999Y47015999D03*
D12*
%TO.N,/BRKOUT2*%
X22647999Y44475999D03*
%TO.N,/BRKOUT3*%
X22647999Y41935999D03*
%TO.N,/BRKOUT4*%
X22647999Y39395999D03*
%TD*%
D10*
%TO.N,GND*%
%TO.C,H1*%
X3000000Y52000000D03*
%TD*%
%TO.N,GND*%
%TO.C,H2*%
X22000000Y52000000D03*
%TD*%
%TO.N,GND*%
%TO.C,H4*%
X22000000Y3000000D03*
%TD*%
D13*
%TO.N,/P4-*%
%TO.C,J2*%
X3343999Y21107999D03*
D14*
%TO.N,+12P*%
X3344000Y18568000D03*
%TO.N,+12V*%
X3344000Y16028000D03*
%TO.N,+BATT*%
X3344000Y13488000D03*
%TO.N,GND*%
X3344000Y10948000D03*
%TO.N,+BATT*%
X3344000Y8408000D03*
%TD*%
D13*
%TO.N,+12P*%
%TO.C,J9*%
X21377999Y8280999D03*
D14*
%TO.N,/P1-*%
X21378000Y10821000D03*
%TO.N,+12P*%
X21378000Y13361000D03*
%TO.N,/P2-*%
X21378000Y15901000D03*
%TO.N,+12P*%
X21378000Y18441000D03*
%TO.N,/P3-*%
X21378000Y20981000D03*
%TD*%
D11*
%TO.N,/BRKOUT7*%
%TO.C,J6*%
X2327999Y47025999D03*
D12*
%TO.N,/BRKOUT6*%
X2327999Y44485999D03*
%TO.N,/BRKOUT5*%
X2327999Y41945999D03*
%TO.N,+12VA*%
X2327999Y39405999D03*
%TO.N,+3V3*%
X2327999Y36865999D03*
%TO.N,GND*%
X2327999Y34325999D03*
%TD*%
D15*
%TO.N,/SWCLK*%
%TO.C,J5*%
X5750399Y24994199D03*
D16*
%TO.N,GND*%
X3750399Y24994199D03*
%TO.N,/SWD*%
X1750399Y24994199D03*
%TD*%
D17*
%TO.N,unconnected-(J7-Shield-Pad6)*%
%TO.C,J7*%
X19826399Y29838599D03*
%TO.N,N/C*%
X19826399Y34678599D03*
D18*
X22726399Y35858599D03*
X22726399Y28658599D03*
%TD*%
D19*
%TO.N,/BATT SENSE *%
X6849200Y38964200D03*
X10913200Y38354600D03*
%TO.N,/SWD*%
X6718098Y31852200D03*
%TO.N,/SWCLK*%
X6341200Y31039400D03*
%TO.N,+1V1*%
X4451610Y32524436D03*
X13199200Y33325400D03*
X11156011Y31797270D03*
%TO.N,/QSPI_SS*%
X20108000Y37592600D03*
%TO.N,/I2C1 SDA*%
X13148400Y37948200D03*
X17493683Y34181260D03*
%TO.N,/I2C1 SCL*%
X18380800Y34239800D03*
%TO.N,/P1 EN *%
X5934800Y20879400D03*
X7222569Y25683528D03*
X8328977Y29122807D03*
%TO.N,/P2 EN *%
X9338400Y28956600D03*
X13554800Y15393000D03*
%TO.N,/QSPI_SS*%
X9948000Y16256600D03*
X16145600Y28194600D03*
%TO.N,/QSPI_SD1*%
X8678000Y16256600D03*
X15553968Y28796481D03*
%TO.N,/QSPI_SD2*%
X7649483Y16615120D03*
X14839587Y29155457D03*
%TO.N,/QSPI_SDO*%
X11218000Y28905800D03*
X6664728Y23385899D03*
%TO.N,/QSPI_SCLK*%
X11063903Y30195362D03*
X7457081Y23087491D03*
%TO.N,/QSPI_SD3*%
X8101908Y23560146D03*
X10964000Y30988598D03*
D20*
%TO.N,+12VA*%
X9084400Y8839800D03*
D19*
%TO.N,/P1 EN *%
X14418400Y8358200D03*
%TO.N,/I2C1 SCL*%
X14774000Y13767400D03*
%TO.N,/I2C1 SDA*%
X13859600Y13985500D03*
%TO.N,+3V3*%
X13130386Y13657702D03*
%TO.N,GND*%
X16806000Y11620800D03*
X14520000Y10008200D03*
%TO.N,+12V*%
X5884000Y5487000D03*
X19600000Y6198200D03*
D21*
%TO.N,+12P*%
X5599666Y7114130D03*
D19*
%TO.N,/BRKOUT5*%
X6341200Y33874100D03*
%TO.N,/BRKOUT6*%
X5596358Y34473600D03*
%TO.N,/BRKOUT7*%
X6166231Y35578405D03*
%TO.N,/BUZZER*%
X7763600Y33833400D03*
%TO.N,/BRKOUT1*%
X9032807Y33878600D03*
%TO.N,/BRKOUT2*%
X9862179Y33844330D03*
%TO.N,+3V3*%
X13148400Y31726899D03*
%TO.N,/BRKOUT3*%
X10643786Y33676116D03*
%TO.N,/BRKOUT4*%
X11268828Y32588772D03*
%TO.N,GND*%
X9846400Y44298200D03*
X9490800Y48355800D03*
%TO.N,/I2C1 SDA*%
X14373632Y39919655D03*
%TO.N,+3V3*%
X12386400Y42938800D03*
%TO.N,/I2C1 SDA*%
X9714200Y38954100D03*
X10557600Y41097800D03*
X13504000Y45212600D03*
%TO.N,GND*%
X9436414Y29750072D03*
X8663771Y29848836D03*
X9511379Y32594079D03*
X8740913Y32624300D03*
%TO.N,/LEDRED*%
X4836301Y27043568D03*
%TO.N,/LEDGREEN*%
X6578402Y28877600D03*
%TO.N,/LEDBLUE*%
X6281812Y29734355D03*
%TO.N,GND*%
X16298000Y18124000D03*
X14570800Y16535000D03*
%TO.N,+3V3*%
X15485200Y13083000D03*
X3366100Y31547400D03*
X2988400Y27540700D03*
%TO.N,GND*%
X2315500Y30887000D03*
%TO.N,Net-(D4-A)*%
X1261200Y32055400D03*
%TO.N,+3V3*%
X1420143Y33327525D03*
D21*
X15332800Y3582000D03*
D19*
%TO.N,GND*%
X11550500Y13689447D03*
X20452942Y23531658D03*
X5919094Y16084884D03*
D21*
X15172019Y5814975D03*
X10926555Y7804100D03*
X8170000Y11255100D03*
D19*
X8227176Y24349774D03*
%TO.N,+3V3*%
X11282911Y22026889D03*
%TO.N,GND*%
X14263520Y22586324D03*
%TO.N,Net-(D2-A)*%
X16709007Y27583325D03*
%TO.N,GND*%
X16755200Y24384600D03*
%TO.N,+3V3*%
X15981445Y25934000D03*
%TO.N,GND*%
X12996000Y27229400D03*
X19092000Y30887000D03*
X15257200Y30734600D03*
X15345800Y34392200D03*
X12065530Y38284848D03*
X7262885Y37788015D03*
X3659400Y37272287D03*
X7328500Y40132600D03*
%TO.N,+3V3*%
X8271600Y44025498D03*
X3684022Y41637156D03*
%TO.N,GND*%
X6241425Y43955746D03*
%TO.N,+3V3*%
X19740520Y46240480D03*
%TO.N,GND*%
X19904800Y47600200D03*
%TO.N,+3V3*%
X17771200Y49784600D03*
%TO.N,GND*%
X16145600Y49835400D03*
X12843600Y53620000D03*
%TO.N,+3V3*%
X6188800Y54204200D03*
X8830400Y49705100D03*
X7966800Y46685800D03*
%TO.N,GND*%
X12437200Y47041400D03*
%TO.N,+3V3*%
X17302789Y42848812D03*
%TO.N,GND*%
X15993200Y42786801D03*
%TO.N,+3V3*%
X16631500Y37948200D03*
%TO.N,GND*%
X18228400Y37999000D03*
%TO.N,+3V3*%
X7482866Y36847306D03*
X14396300Y35154200D03*
X11910157Y36744980D03*
X7452788Y26449168D03*
X12059500Y26518200D03*
%TD*%
%TA.AperFunction,Conductor*%
%TO.N,+3V3*%
G36*
X20198358Y54983110D02*
G01*
X20243683Y54938274D01*
X20260739Y54876843D01*
X20245018Y54815058D01*
X20200675Y54769250D01*
X20147958Y54737532D01*
X20147945Y54737524D01*
X20145081Y54735800D01*
X20142423Y54733780D01*
X20142412Y54733772D01*
X19862822Y54521233D01*
X19862814Y54521227D01*
X19860163Y54519211D01*
X19857739Y54516916D01*
X19857732Y54516909D01*
X19602769Y54275396D01*
X19602754Y54275381D01*
X19600332Y54273086D01*
X19598169Y54270541D01*
X19598158Y54270528D01*
X19370808Y54002870D01*
X19370802Y54002863D01*
X19368635Y54000311D01*
X19366755Y53997539D01*
X19366748Y53997529D01*
X19169679Y53706874D01*
X19169671Y53706862D01*
X19167789Y53704085D01*
X19166214Y53701115D01*
X19166212Y53701111D01*
X19001722Y53390852D01*
X19001717Y53390843D01*
X19000147Y53387880D01*
X18998906Y53384768D01*
X18998902Y53384757D01*
X18890549Y53112810D01*
X18867676Y53055403D01*
X18866775Y53052159D01*
X18866773Y53052152D01*
X18806379Y52834632D01*
X18771929Y52710552D01*
X18771388Y52707253D01*
X18771384Y52707234D01*
X18714573Y52360698D01*
X18714028Y52357371D01*
X18713846Y52354021D01*
X18713845Y52354008D01*
X18694834Y52003357D01*
X18694652Y52000000D01*
X18694834Y51996643D01*
X18713845Y51645993D01*
X18713846Y51645982D01*
X18714028Y51642629D01*
X18714572Y51639308D01*
X18714573Y51639303D01*
X18771384Y51292767D01*
X18771387Y51292752D01*
X18771929Y51289448D01*
X18867676Y50944597D01*
X18868924Y50941465D01*
X18996390Y50621548D01*
X19000147Y50612120D01*
X19167789Y50295915D01*
X19368635Y49999689D01*
X19600332Y49726914D01*
X19602763Y49724611D01*
X19602769Y49724605D01*
X19781622Y49555187D01*
X19860163Y49480789D01*
X20145081Y49264200D01*
X20451747Y49079685D01*
X20776565Y48929409D01*
X21115726Y48815132D01*
X21465254Y48738195D01*
X21821052Y48699500D01*
X22175590Y48699500D01*
X22178948Y48699500D01*
X22534746Y48738195D01*
X22884274Y48815132D01*
X23223435Y48929409D01*
X23548253Y49079685D01*
X23854919Y49264200D01*
X24139837Y49480789D01*
X24399668Y49726914D01*
X24631365Y49999689D01*
X24772866Y50208389D01*
X24819804Y50249590D01*
X24880871Y50262686D01*
X24940576Y50244354D01*
X24983771Y50199244D01*
X24999500Y50138802D01*
X24999500Y4861198D01*
X24983771Y4800756D01*
X24940576Y4755646D01*
X24880871Y4737314D01*
X24819804Y4750410D01*
X24772867Y4791611D01*
X24709959Y4884394D01*
X24631365Y5000311D01*
X24399668Y5273086D01*
X24397235Y5275391D01*
X24397230Y5275396D01*
X24142267Y5516909D01*
X24139837Y5519211D01*
X24000795Y5624908D01*
X23857587Y5733772D01*
X23857585Y5733774D01*
X23854919Y5735800D01*
X23852045Y5737529D01*
X23852041Y5737532D01*
X23551135Y5918581D01*
X23551134Y5918582D01*
X23548253Y5920315D01*
X23430055Y5974999D01*
X23226490Y6069178D01*
X23226483Y6069181D01*
X23223435Y6070591D01*
X23075234Y6120526D01*
X22887457Y6183796D01*
X22887448Y6183799D01*
X22884274Y6184868D01*
X22881006Y6185588D01*
X22880993Y6185591D01*
X22538033Y6261082D01*
X22538023Y6261084D01*
X22534746Y6261805D01*
X22178948Y6300500D01*
X21821052Y6300500D01*
X21817715Y6300138D01*
X21817713Y6300137D01*
X21468600Y6262169D01*
X21468598Y6262169D01*
X21465254Y6261805D01*
X21461979Y6261085D01*
X21461966Y6261082D01*
X21119006Y6185591D01*
X21118988Y6185587D01*
X21115726Y6184868D01*
X21112555Y6183800D01*
X21112542Y6183796D01*
X20779752Y6071665D01*
X20779749Y6071664D01*
X20776565Y6070591D01*
X20569944Y5974999D01*
X20506024Y5964107D01*
X20445344Y5986968D01*
X20404499Y6037331D01*
X20394660Y6101420D01*
X20405565Y6198200D01*
X20385368Y6377455D01*
X20337048Y6515546D01*
X20331308Y6573835D01*
X20352960Y6628256D01*
X20397176Y6666668D01*
X20454090Y6680501D01*
X22522561Y6680501D01*
X22525872Y6680501D01*
X22585483Y6686909D01*
X22720331Y6737204D01*
X22835546Y6823454D01*
X22921796Y6938669D01*
X22972091Y7073517D01*
X22978500Y7133127D01*
X22978499Y9428872D01*
X22972091Y9488483D01*
X22921796Y9623331D01*
X22835546Y9738546D01*
X22828447Y9743860D01*
X22758895Y9795927D01*
X22720782Y9842879D01*
X22709408Y9902274D01*
X22727478Y9959982D01*
X22808466Y10092141D01*
X22904873Y10324889D01*
X22963683Y10569852D01*
X22983449Y10821000D01*
X22963683Y11072148D01*
X22904873Y11317111D01*
X22808466Y11549859D01*
X22730640Y11676859D01*
X22679382Y11760505D01*
X22679379Y11760509D01*
X22676836Y11764659D01*
X22652515Y11793135D01*
X22516386Y11952522D01*
X22516384Y11952524D01*
X22513224Y11956224D01*
X22465816Y11996714D01*
X22433742Y12039086D01*
X22422351Y12091000D01*
X22433742Y12142914D01*
X22465816Y12185287D01*
X22513224Y12225776D01*
X22676836Y12417341D01*
X22808466Y12632141D01*
X22904873Y12864889D01*
X22963683Y13109852D01*
X22983449Y13361000D01*
X22963683Y13612148D01*
X22904873Y13857111D01*
X22808466Y14089859D01*
X22730640Y14216859D01*
X22679382Y14300505D01*
X22679379Y14300509D01*
X22676836Y14304659D01*
X22585555Y14411535D01*
X22516386Y14492522D01*
X22516384Y14492524D01*
X22513224Y14496224D01*
X22465816Y14536714D01*
X22433742Y14579086D01*
X22422351Y14631000D01*
X22433742Y14682914D01*
X22465816Y14725287D01*
X22513224Y14765776D01*
X22676836Y14957341D01*
X22808466Y15172141D01*
X22904873Y15404889D01*
X22963683Y15649852D01*
X22983449Y15901000D01*
X22963683Y16152148D01*
X22904873Y16397111D01*
X22808466Y16629859D01*
X22729413Y16758862D01*
X22679382Y16840505D01*
X22679379Y16840509D01*
X22676836Y16844659D01*
X22656940Y16867954D01*
X22516386Y17032522D01*
X22516384Y17032524D01*
X22513224Y17036224D01*
X22465816Y17076714D01*
X22433742Y17119086D01*
X22422351Y17171000D01*
X22433742Y17222914D01*
X22465816Y17265287D01*
X22513224Y17305776D01*
X22676836Y17497341D01*
X22808466Y17712141D01*
X22904873Y17944889D01*
X22963683Y18189852D01*
X22983449Y18441000D01*
X22963683Y18692148D01*
X22904873Y18937111D01*
X22808466Y19169859D01*
X22728097Y19301009D01*
X22679382Y19380505D01*
X22679379Y19380509D01*
X22676836Y19384659D01*
X22513224Y19576224D01*
X22465820Y19616711D01*
X22433742Y19659088D01*
X22422352Y19711003D01*
X22433743Y19762917D01*
X22465821Y19805291D01*
X22513224Y19845776D01*
X22676836Y20037341D01*
X22808466Y20252141D01*
X22904873Y20484889D01*
X22963683Y20729852D01*
X22983449Y20981000D01*
X22963683Y21232148D01*
X22904873Y21477111D01*
X22808466Y21709859D01*
X22717539Y21858238D01*
X22679382Y21920505D01*
X22679379Y21920509D01*
X22676836Y21924659D01*
X22652800Y21952801D01*
X22516384Y22112524D01*
X22513224Y22116224D01*
X22378942Y22230912D01*
X22325363Y22276673D01*
X22325358Y22276676D01*
X22321659Y22279836D01*
X22317511Y22282378D01*
X22317504Y22282383D01*
X22111017Y22408918D01*
X22111016Y22408919D01*
X22106859Y22411466D01*
X21874111Y22507873D01*
X21869382Y22509009D01*
X21869374Y22509011D01*
X21633881Y22565547D01*
X21633877Y22565548D01*
X21629148Y22566683D01*
X21624295Y22567065D01*
X21382854Y22586067D01*
X21378000Y22586449D01*
X21373146Y22586067D01*
X21131704Y22567065D01*
X21131702Y22567065D01*
X21126852Y22566683D01*
X21122124Y22565549D01*
X21122118Y22565547D01*
X20886625Y22509011D01*
X20886613Y22509008D01*
X20881889Y22507873D01*
X20877392Y22506011D01*
X20877388Y22506009D01*
X20653645Y22413332D01*
X20653640Y22413330D01*
X20649141Y22411466D01*
X20644988Y22408922D01*
X20644982Y22408918D01*
X20438495Y22282383D01*
X20438482Y22282374D01*
X20434341Y22279836D01*
X20430646Y22276681D01*
X20430636Y22276673D01*
X20246476Y22119385D01*
X20246469Y22119379D01*
X20242776Y22116224D01*
X20239621Y22112531D01*
X20239615Y22112524D01*
X20082327Y21928364D01*
X20082319Y21928354D01*
X20079164Y21924659D01*
X20076626Y21920518D01*
X20076617Y21920505D01*
X19950082Y21714018D01*
X19950078Y21714012D01*
X19947534Y21709859D01*
X19945670Y21705360D01*
X19945668Y21705355D01*
X19927905Y21662470D01*
X19851127Y21477111D01*
X19849992Y21472387D01*
X19849989Y21472375D01*
X19793453Y21236882D01*
X19793451Y21236876D01*
X19792317Y21232148D01*
X19791935Y21227298D01*
X19791935Y21227296D01*
X19781215Y21091085D01*
X19772551Y20981000D01*
X19792317Y20729852D01*
X19793452Y20725123D01*
X19793453Y20725119D01*
X19849989Y20489626D01*
X19849991Y20489618D01*
X19851127Y20484889D01*
X19947534Y20252141D01*
X19950081Y20247984D01*
X19950082Y20247983D01*
X20076617Y20041496D01*
X20076622Y20041489D01*
X20079164Y20037341D01*
X20082324Y20033642D01*
X20082327Y20033637D01*
X20196023Y19900517D01*
X20242776Y19845776D01*
X20246476Y19842616D01*
X20246478Y19842614D01*
X20290179Y19805289D01*
X20322256Y19762913D01*
X20333646Y19711000D01*
X20322256Y19659087D01*
X20290179Y19616711D01*
X20246478Y19579387D01*
X20246469Y19579379D01*
X20242776Y19576224D01*
X20239621Y19572531D01*
X20239615Y19572524D01*
X20082327Y19388364D01*
X20082319Y19388354D01*
X20079164Y19384659D01*
X20076626Y19380518D01*
X20076617Y19380505D01*
X19950082Y19174018D01*
X19950078Y19174012D01*
X19947534Y19169859D01*
X19851127Y18937111D01*
X19849992Y18932387D01*
X19849989Y18932375D01*
X19793453Y18696882D01*
X19793451Y18696876D01*
X19792317Y18692148D01*
X19791935Y18687298D01*
X19791935Y18687296D01*
X19786667Y18620362D01*
X19772551Y18441000D01*
X19772933Y18436146D01*
X19783936Y18296335D01*
X19792317Y18189852D01*
X19793452Y18185123D01*
X19793453Y18185119D01*
X19849989Y17949626D01*
X19849991Y17949618D01*
X19851127Y17944889D01*
X19947534Y17712141D01*
X19950081Y17707984D01*
X19950082Y17707983D01*
X20076617Y17501496D01*
X20076622Y17501489D01*
X20079164Y17497341D01*
X20082324Y17493642D01*
X20082327Y17493637D01*
X20229647Y17321148D01*
X20242776Y17305776D01*
X20246476Y17302616D01*
X20246478Y17302614D01*
X20290179Y17265289D01*
X20322256Y17222913D01*
X20333646Y17171000D01*
X20322256Y17119087D01*
X20290179Y17076711D01*
X20246478Y17039387D01*
X20246469Y17039379D01*
X20242776Y17036224D01*
X20239621Y17032531D01*
X20239615Y17032524D01*
X20082327Y16848364D01*
X20082319Y16848354D01*
X20079164Y16844659D01*
X20076626Y16840518D01*
X20076617Y16840505D01*
X19950082Y16634018D01*
X19950078Y16634012D01*
X19947534Y16629859D01*
X19945670Y16625360D01*
X19945668Y16625355D01*
X19852991Y16401612D01*
X19851127Y16397111D01*
X19849992Y16392387D01*
X19849989Y16392375D01*
X19793453Y16156882D01*
X19793451Y16156876D01*
X19792317Y16152148D01*
X19791935Y16147298D01*
X19791935Y16147296D01*
X19782928Y16032854D01*
X19772551Y15901000D01*
X19772933Y15896146D01*
X19788060Y15703935D01*
X19792317Y15649852D01*
X19793452Y15645123D01*
X19793453Y15645119D01*
X19849989Y15409626D01*
X19849991Y15409618D01*
X19851127Y15404889D01*
X19947534Y15172141D01*
X19950081Y15167984D01*
X19950082Y15167983D01*
X20076617Y14961496D01*
X20076622Y14961489D01*
X20079164Y14957341D01*
X20082324Y14953642D01*
X20082327Y14953637D01*
X20205079Y14809913D01*
X20242776Y14765776D01*
X20246476Y14762616D01*
X20246478Y14762614D01*
X20290179Y14725289D01*
X20322256Y14682913D01*
X20333646Y14631000D01*
X20322256Y14579087D01*
X20290179Y14536711D01*
X20246478Y14499387D01*
X20246469Y14499379D01*
X20242776Y14496224D01*
X20239621Y14492531D01*
X20239615Y14492524D01*
X20082327Y14308364D01*
X20082319Y14308354D01*
X20079164Y14304659D01*
X20076626Y14300518D01*
X20076617Y14300505D01*
X19950082Y14094018D01*
X19950078Y14094012D01*
X19947534Y14089859D01*
X19945670Y14085360D01*
X19945668Y14085355D01*
X19852991Y13861612D01*
X19851127Y13857111D01*
X19849992Y13852387D01*
X19849989Y13852375D01*
X19793453Y13616882D01*
X19793451Y13616876D01*
X19792317Y13612148D01*
X19791935Y13607298D01*
X19791935Y13607296D01*
X19790428Y13588145D01*
X19772551Y13361000D01*
X19772933Y13356146D01*
X19786618Y13182257D01*
X19792317Y13109852D01*
X19793452Y13105123D01*
X19793453Y13105119D01*
X19849989Y12869626D01*
X19849991Y12869618D01*
X19851127Y12864889D01*
X19947534Y12632141D01*
X19950081Y12627984D01*
X19950082Y12627983D01*
X20076617Y12421496D01*
X20076622Y12421489D01*
X20079164Y12417341D01*
X20082324Y12413642D01*
X20082327Y12413637D01*
X20231178Y12239356D01*
X20242776Y12225776D01*
X20246476Y12222616D01*
X20246478Y12222614D01*
X20290179Y12185289D01*
X20322256Y12142913D01*
X20333646Y12091000D01*
X20322256Y12039087D01*
X20290179Y11996711D01*
X20246478Y11959387D01*
X20246469Y11959379D01*
X20242776Y11956224D01*
X20239621Y11952531D01*
X20239615Y11952524D01*
X20082327Y11768364D01*
X20082319Y11768354D01*
X20079164Y11764659D01*
X20076626Y11760518D01*
X20076617Y11760505D01*
X19950082Y11554018D01*
X19950078Y11554012D01*
X19947534Y11549859D01*
X19945670Y11545360D01*
X19945668Y11545355D01*
X19903732Y11444111D01*
X19851127Y11317111D01*
X19849992Y11312387D01*
X19849989Y11312375D01*
X19793453Y11076882D01*
X19793451Y11076876D01*
X19792317Y11072148D01*
X19772551Y10821000D01*
X19792317Y10569852D01*
X19793452Y10565123D01*
X19793453Y10565119D01*
X19849989Y10329626D01*
X19849991Y10329618D01*
X19851127Y10324889D01*
X19947534Y10092141D01*
X19950081Y10087984D01*
X19950082Y10087983D01*
X20028520Y9959984D01*
X20046591Y9902274D01*
X20035217Y9842879D01*
X19997105Y9795928D01*
X19927551Y9743860D01*
X19927546Y9743856D01*
X19920454Y9738546D01*
X19915144Y9731454D01*
X19915141Y9731450D01*
X19839519Y9630432D01*
X19839516Y9630428D01*
X19834204Y9623331D01*
X19831104Y9615022D01*
X19831104Y9615020D01*
X19786620Y9495753D01*
X19786619Y9495750D01*
X19783909Y9488483D01*
X19783079Y9480773D01*
X19783079Y9480768D01*
X19777855Y9432181D01*
X19777854Y9432169D01*
X19777500Y9428873D01*
X19777500Y9425552D01*
X19777500Y9425551D01*
X19777500Y7136447D01*
X19777500Y7136429D01*
X19777501Y7133128D01*
X19777854Y7129842D01*
X19777895Y7129083D01*
X19769196Y7076388D01*
X19739141Y7032239D01*
X19693304Y7004827D01*
X19640189Y6999237D01*
X19606923Y7002985D01*
X19600000Y7003765D01*
X19593077Y7002985D01*
X19427665Y6984348D01*
X19427662Y6984348D01*
X19420745Y6983568D01*
X19414182Y6981272D01*
X19414175Y6981270D01*
X19257043Y6926287D01*
X19257036Y6926285D01*
X19250478Y6923989D01*
X19244590Y6920290D01*
X19244587Y6920288D01*
X19103638Y6831724D01*
X19103633Y6831721D01*
X19097738Y6828016D01*
X19092813Y6823092D01*
X19092809Y6823088D01*
X18975112Y6705391D01*
X18975108Y6705387D01*
X18970184Y6700462D01*
X18966479Y6694567D01*
X18966476Y6694562D01*
X18877912Y6553613D01*
X18877910Y6553610D01*
X18874211Y6547722D01*
X18871915Y6541164D01*
X18871913Y6541157D01*
X18816930Y6384025D01*
X18816928Y6384018D01*
X18814632Y6377455D01*
X18813852Y6370538D01*
X18813852Y6370535D01*
X18801601Y6261805D01*
X18794435Y6198200D01*
X18795215Y6191280D01*
X18795215Y6191277D01*
X18811449Y6047190D01*
X18814632Y6018945D01*
X18816928Y6012381D01*
X18816930Y6012376D01*
X18871913Y5855244D01*
X18874211Y5848678D01*
X18970184Y5695938D01*
X19097738Y5568384D01*
X19250478Y5472411D01*
X19420745Y5412832D01*
X19461643Y5408224D01*
X19523088Y5383502D01*
X19563042Y5330678D01*
X19570107Y5264825D01*
X19542268Y5204728D01*
X19370808Y5002870D01*
X19370802Y5002863D01*
X19368635Y5000311D01*
X19366755Y4997539D01*
X19366748Y4997529D01*
X19169679Y4706874D01*
X19169671Y4706862D01*
X19167789Y4704085D01*
X19166214Y4701115D01*
X19166212Y4701111D01*
X19001722Y4390852D01*
X19001717Y4390843D01*
X19000147Y4387880D01*
X18998906Y4384768D01*
X18998902Y4384757D01*
X18868924Y4058536D01*
X18867676Y4055403D01*
X18771929Y3710552D01*
X18771388Y3707253D01*
X18771384Y3707234D01*
X18714573Y3360698D01*
X18714028Y3357371D01*
X18713846Y3354021D01*
X18713845Y3354008D01*
X18694834Y3003357D01*
X18694652Y3000000D01*
X18694834Y2996643D01*
X18713845Y2645993D01*
X18713846Y2645982D01*
X18714028Y2642629D01*
X18714572Y2639308D01*
X18714573Y2639303D01*
X18771384Y2292767D01*
X18771387Y2292752D01*
X18771929Y2289448D01*
X18867676Y1944597D01*
X19000147Y1612120D01*
X19167789Y1295915D01*
X19368635Y999689D01*
X19600332Y726914D01*
X19602763Y724611D01*
X19602769Y724605D01*
X19781622Y555187D01*
X19860163Y480789D01*
X20145081Y264200D01*
X20147958Y262469D01*
X20200675Y230750D01*
X20245018Y184942D01*
X20260739Y123157D01*
X20243683Y61726D01*
X20198358Y16890D01*
X20136746Y500D01*
X4863254Y500D01*
X4801642Y16890D01*
X4756317Y61726D01*
X4739261Y123157D01*
X4754982Y184942D01*
X4799325Y230750D01*
X4810203Y237296D01*
X4854919Y264200D01*
X5139837Y480789D01*
X5399668Y726914D01*
X5631365Y999689D01*
X5832211Y1295915D01*
X5999853Y1612120D01*
X6132324Y1944597D01*
X6228071Y2289448D01*
X6285972Y2642629D01*
X6305348Y3000000D01*
X6285972Y3357371D01*
X6228071Y3710552D01*
X6132324Y4055403D01*
X5999853Y4387880D01*
X5931770Y4516297D01*
X5917326Y4574259D01*
X5931659Y4632250D01*
X5971443Y4676811D01*
X6027439Y4697597D01*
X6063255Y4701632D01*
X6233522Y4761211D01*
X6386262Y4857184D01*
X6513816Y4984738D01*
X6609789Y5137478D01*
X6669368Y5307745D01*
X6689565Y5487000D01*
X6669368Y5666255D01*
X6617329Y5814975D01*
X14166678Y5814975D01*
X14167275Y5808913D01*
X14185397Y5624908D01*
X14185398Y5624902D01*
X14185995Y5618843D01*
X14187762Y5613018D01*
X14187763Y5613013D01*
X14223889Y5493923D01*
X14243205Y5430248D01*
X14246074Y5424880D01*
X14246076Y5424876D01*
X14333234Y5261814D01*
X14333238Y5261808D01*
X14336109Y5256437D01*
X14461136Y5104092D01*
X14613481Y4979065D01*
X14618853Y4976194D01*
X14618857Y4976191D01*
X14760858Y4900291D01*
X14787292Y4886161D01*
X14975887Y4828951D01*
X15172019Y4809634D01*
X15368151Y4828951D01*
X15556746Y4886161D01*
X15730557Y4979065D01*
X15882902Y5104092D01*
X16007929Y5256437D01*
X16100833Y5430248D01*
X16158043Y5618843D01*
X16177360Y5814975D01*
X16158043Y6011107D01*
X16100833Y6199702D01*
X16061371Y6273531D01*
X16010803Y6368137D01*
X16010800Y6368141D01*
X16007929Y6373513D01*
X15882902Y6525858D01*
X15730557Y6650885D01*
X15725186Y6653756D01*
X15725180Y6653760D01*
X15562118Y6740918D01*
X15562114Y6740920D01*
X15556746Y6743789D01*
X15550918Y6745557D01*
X15373981Y6799231D01*
X15373976Y6799232D01*
X15368151Y6800999D01*
X15362092Y6801596D01*
X15362086Y6801597D01*
X15178081Y6819719D01*
X15172019Y6820316D01*
X15165957Y6819719D01*
X14981951Y6801597D01*
X14981943Y6801596D01*
X14975887Y6800999D01*
X14970063Y6799233D01*
X14970056Y6799231D01*
X14793119Y6745557D01*
X14793115Y6745556D01*
X14787292Y6743789D01*
X14781926Y6740922D01*
X14781919Y6740918D01*
X14618857Y6653760D01*
X14618846Y6653753D01*
X14613481Y6650885D01*
X14608773Y6647022D01*
X14608768Y6647018D01*
X14465842Y6529721D01*
X14465837Y6529717D01*
X14461136Y6525858D01*
X14457277Y6521157D01*
X14457273Y6521152D01*
X14339976Y6378226D01*
X14339972Y6378221D01*
X14336109Y6373513D01*
X14333241Y6368148D01*
X14333234Y6368137D01*
X14246076Y6205075D01*
X14246072Y6205068D01*
X14243205Y6199702D01*
X14241438Y6193879D01*
X14241437Y6193875D01*
X14187763Y6016938D01*
X14187761Y6016931D01*
X14185995Y6011107D01*
X14185398Y6005051D01*
X14185397Y6005043D01*
X14168153Y5829952D01*
X14166678Y5814975D01*
X6617329Y5814975D01*
X6609789Y5836522D01*
X6513816Y5989262D01*
X6386262Y6116816D01*
X6380364Y6120522D01*
X6380359Y6120526D01*
X6291505Y6176357D01*
X6250896Y6217976D01*
X6233725Y6273531D01*
X6243767Y6330806D01*
X6278811Y6377201D01*
X6310549Y6403247D01*
X6435576Y6555592D01*
X6528480Y6729403D01*
X6585690Y6917998D01*
X6605007Y7114130D01*
X6585690Y7310262D01*
X6528480Y7498857D01*
X6435576Y7672668D01*
X6327712Y7804100D01*
X9921214Y7804100D01*
X9921811Y7798038D01*
X9939933Y7614033D01*
X9939934Y7614027D01*
X9940531Y7607968D01*
X9942298Y7602143D01*
X9942299Y7602138D01*
X9995973Y7425201D01*
X9997741Y7419373D01*
X10000610Y7414005D01*
X10000612Y7414001D01*
X10087770Y7250939D01*
X10087774Y7250933D01*
X10090645Y7245562D01*
X10094511Y7240851D01*
X10094512Y7240850D01*
X10199988Y7112328D01*
X10215672Y7093217D01*
X10368017Y6968190D01*
X10373389Y6965319D01*
X10373393Y6965316D01*
X10515394Y6889416D01*
X10541828Y6875286D01*
X10730423Y6818076D01*
X10884175Y6802933D01*
X10903811Y6800999D01*
X10926555Y6798759D01*
X10949299Y6800999D01*
X10968935Y6802933D01*
X11122687Y6818076D01*
X11311282Y6875286D01*
X11485093Y6968190D01*
X11637438Y7093217D01*
X11762465Y7245562D01*
X11855369Y7419373D01*
X11912579Y7607968D01*
X11931896Y7804100D01*
X11912579Y8000232D01*
X11855369Y8188827D01*
X11764837Y8358200D01*
X13612835Y8358200D01*
X13613615Y8351277D01*
X13631918Y8188827D01*
X13633032Y8178945D01*
X13635328Y8172381D01*
X13635330Y8172376D01*
X13686858Y8025119D01*
X13692611Y8008678D01*
X13788584Y7855938D01*
X13916138Y7728384D01*
X14068878Y7632411D01*
X14239145Y7572832D01*
X14418400Y7552635D01*
X14597655Y7572832D01*
X14767922Y7632411D01*
X14920662Y7728384D01*
X15048216Y7855938D01*
X15144189Y8008678D01*
X15203768Y8178945D01*
X15223965Y8358200D01*
X15203768Y8537455D01*
X15144189Y8707722D01*
X15048216Y8860462D01*
X14920662Y8988016D01*
X14819453Y9051610D01*
X14773704Y9102804D01*
X14762205Y9170490D01*
X14788480Y9233920D01*
X14844474Y9273647D01*
X14852664Y9276513D01*
X14862953Y9280112D01*
X14862956Y9280114D01*
X14869522Y9282411D01*
X15022262Y9378384D01*
X15149816Y9505938D01*
X15245789Y9658678D01*
X15305368Y9828945D01*
X15325565Y10008200D01*
X15305368Y10187455D01*
X15245789Y10357722D01*
X15149816Y10510462D01*
X15022262Y10638016D01*
X14869522Y10733989D01*
X14862959Y10736286D01*
X14862956Y10736287D01*
X14705824Y10791270D01*
X14705819Y10791272D01*
X14699255Y10793568D01*
X14692335Y10794348D01*
X14692334Y10794348D01*
X14526923Y10812985D01*
X14520000Y10813765D01*
X14513077Y10812985D01*
X14347665Y10794348D01*
X14347662Y10794348D01*
X14340745Y10793568D01*
X14334182Y10791272D01*
X14334175Y10791270D01*
X14177043Y10736287D01*
X14177036Y10736285D01*
X14170478Y10733989D01*
X14164590Y10730290D01*
X14164587Y10730288D01*
X14023638Y10641724D01*
X14023633Y10641721D01*
X14017738Y10638016D01*
X14012813Y10633092D01*
X14012809Y10633088D01*
X13895112Y10515391D01*
X13895108Y10515387D01*
X13890184Y10510462D01*
X13886479Y10504567D01*
X13886476Y10504562D01*
X13797912Y10363613D01*
X13797910Y10363610D01*
X13794211Y10357722D01*
X13791915Y10351164D01*
X13791913Y10351157D01*
X13736930Y10194025D01*
X13736928Y10194018D01*
X13734632Y10187455D01*
X13714435Y10008200D01*
X13734632Y9828945D01*
X13736928Y9822381D01*
X13736930Y9822376D01*
X13791913Y9665244D01*
X13794211Y9658678D01*
X13890184Y9505938D01*
X14017738Y9378384D01*
X14083856Y9336839D01*
X14118946Y9314791D01*
X14164694Y9263599D01*
X14176194Y9195914D01*
X14149922Y9132485D01*
X14093930Y9092756D01*
X14075448Y9086289D01*
X14075439Y9086286D01*
X14068878Y9083989D01*
X14062990Y9080290D01*
X14062987Y9080288D01*
X13922038Y8991724D01*
X13922033Y8991721D01*
X13916138Y8988016D01*
X13911213Y8983092D01*
X13911209Y8983088D01*
X13793512Y8865391D01*
X13793508Y8865387D01*
X13788584Y8860462D01*
X13784879Y8854567D01*
X13784876Y8854562D01*
X13696312Y8713613D01*
X13696310Y8713610D01*
X13692611Y8707722D01*
X13690315Y8701164D01*
X13690313Y8701157D01*
X13635330Y8544025D01*
X13635328Y8544018D01*
X13633032Y8537455D01*
X13632252Y8530538D01*
X13632252Y8530535D01*
X13618993Y8412854D01*
X13612835Y8358200D01*
X11764837Y8358200D01*
X11762465Y8362638D01*
X11637438Y8514983D01*
X11485093Y8640010D01*
X11479722Y8642881D01*
X11479716Y8642885D01*
X11316654Y8730043D01*
X11316650Y8730045D01*
X11311282Y8732914D01*
X11305454Y8734682D01*
X11128517Y8788356D01*
X11128512Y8788357D01*
X11122687Y8790124D01*
X11116628Y8790721D01*
X11116622Y8790722D01*
X10932617Y8808844D01*
X10926555Y8809441D01*
X10920493Y8808844D01*
X10736487Y8790722D01*
X10736479Y8790721D01*
X10730423Y8790124D01*
X10724599Y8788358D01*
X10724592Y8788356D01*
X10547655Y8734682D01*
X10547651Y8734681D01*
X10541828Y8732914D01*
X10536462Y8730047D01*
X10536455Y8730043D01*
X10373393Y8642885D01*
X10373382Y8642878D01*
X10368017Y8640010D01*
X10363309Y8636147D01*
X10363304Y8636143D01*
X10220378Y8518846D01*
X10220373Y8518842D01*
X10215672Y8514983D01*
X10211813Y8510282D01*
X10211809Y8510277D01*
X10094512Y8367351D01*
X10094508Y8367346D01*
X10090645Y8362638D01*
X10087777Y8357273D01*
X10087770Y8357262D01*
X10000612Y8194200D01*
X10000608Y8194193D01*
X9997741Y8188827D01*
X9995974Y8183004D01*
X9995973Y8183000D01*
X9942299Y8006063D01*
X9942297Y8006056D01*
X9940531Y8000232D01*
X9939934Y7994176D01*
X9939933Y7994168D01*
X9925834Y7851010D01*
X9921214Y7804100D01*
X6327712Y7804100D01*
X6310549Y7825013D01*
X6158204Y7950040D01*
X6152833Y7952911D01*
X6152827Y7952915D01*
X5989765Y8040073D01*
X5989761Y8040075D01*
X5984393Y8042944D01*
X5917510Y8063233D01*
X5801628Y8098386D01*
X5801623Y8098387D01*
X5795798Y8100154D01*
X5789739Y8100751D01*
X5789733Y8100752D01*
X5605728Y8118874D01*
X5599666Y8119471D01*
X5593604Y8118874D01*
X5409598Y8100752D01*
X5409590Y8100751D01*
X5403534Y8100154D01*
X5397710Y8098388D01*
X5397703Y8098386D01*
X5220766Y8044712D01*
X5220762Y8044711D01*
X5214939Y8042944D01*
X5209571Y8040076D01*
X5209569Y8040074D01*
X5099789Y7981396D01*
X5045230Y7966816D01*
X4989864Y7977943D01*
X4945174Y8012469D01*
X4920430Y8063233D01*
X4920763Y8119702D01*
X4929683Y8156852D01*
X4949449Y8408000D01*
X4929683Y8659148D01*
X4886313Y8839800D01*
X8229215Y8839800D01*
X8229894Y8833340D01*
X8247223Y8668459D01*
X8247224Y8668452D01*
X8247903Y8661997D01*
X8249910Y8655818D01*
X8249911Y8655817D01*
X8286234Y8544025D01*
X8303150Y8491965D01*
X8306397Y8486341D01*
X8306398Y8486339D01*
X8380920Y8357262D01*
X8392541Y8337135D01*
X8512170Y8204274D01*
X8656807Y8099188D01*
X8820133Y8026471D01*
X8826491Y8025120D01*
X8826493Y8025119D01*
X8862085Y8017554D01*
X8995009Y7989300D01*
X9167288Y7989300D01*
X9173791Y7989300D01*
X9348667Y8026471D01*
X9511993Y8099188D01*
X9656630Y8204274D01*
X9776259Y8337135D01*
X9865650Y8491965D01*
X9920897Y8661997D01*
X9939585Y8839800D01*
X9920897Y9017603D01*
X9865650Y9187635D01*
X9776259Y9342465D01*
X9656630Y9475326D01*
X9568270Y9539524D01*
X9517247Y9576595D01*
X9517245Y9576597D01*
X9511993Y9580412D01*
X9415595Y9623331D01*
X9354605Y9650486D01*
X9354598Y9650489D01*
X9348667Y9653129D01*
X9342314Y9654480D01*
X9342306Y9654482D01*
X9180153Y9688948D01*
X9180150Y9688949D01*
X9173791Y9690300D01*
X8995009Y9690300D01*
X8988650Y9688949D01*
X8988646Y9688948D01*
X8826493Y9654482D01*
X8826482Y9654479D01*
X8820133Y9653129D01*
X8814204Y9650490D01*
X8814194Y9650486D01*
X8662742Y9583055D01*
X8662734Y9583051D01*
X8656808Y9580412D01*
X8651559Y9576599D01*
X8651553Y9576595D01*
X8517423Y9479144D01*
X8517414Y9479137D01*
X8512170Y9475326D01*
X8507826Y9470503D01*
X8507823Y9470499D01*
X8396887Y9347293D01*
X8396882Y9347287D01*
X8392541Y9342465D01*
X8389296Y9336845D01*
X8389292Y9336839D01*
X8306398Y9193262D01*
X8306395Y9193257D01*
X8303150Y9187635D01*
X8301144Y9181463D01*
X8301142Y9181457D01*
X8249911Y9023784D01*
X8247903Y9017603D01*
X8247224Y9011151D01*
X8247223Y9011142D01*
X8231905Y8865391D01*
X8229215Y8839800D01*
X4886313Y8839800D01*
X4870873Y8904111D01*
X4774466Y9136859D01*
X4713896Y9235700D01*
X4645382Y9347505D01*
X4645379Y9347509D01*
X4642836Y9351659D01*
X4579726Y9425551D01*
X4482386Y9539522D01*
X4482384Y9539524D01*
X4479224Y9543224D01*
X4431816Y9583714D01*
X4399742Y9626086D01*
X4388351Y9678000D01*
X4399742Y9729914D01*
X4431816Y9772287D01*
X4479224Y9812776D01*
X4642836Y10004341D01*
X4774466Y10219141D01*
X4870873Y10451889D01*
X4929683Y10696852D01*
X4949449Y10948000D01*
X4929683Y11199148D01*
X4916250Y11255100D01*
X7164659Y11255100D01*
X7165256Y11249038D01*
X7183378Y11065033D01*
X7183379Y11065027D01*
X7183976Y11058968D01*
X7185743Y11053143D01*
X7185744Y11053138D01*
X7217638Y10948000D01*
X7241186Y10870373D01*
X7244055Y10865005D01*
X7244057Y10865001D01*
X7331215Y10701939D01*
X7331219Y10701933D01*
X7334090Y10696562D01*
X7459117Y10544217D01*
X7611462Y10419190D01*
X7616834Y10416319D01*
X7616838Y10416316D01*
X7715439Y10363613D01*
X7785273Y10326286D01*
X7973868Y10269076D01*
X8170000Y10249759D01*
X8366132Y10269076D01*
X8554727Y10326286D01*
X8728538Y10419190D01*
X8880883Y10544217D01*
X9005910Y10696562D01*
X9098814Y10870373D01*
X9156024Y11058968D01*
X9175341Y11255100D01*
X9156024Y11451232D01*
X9104586Y11620800D01*
X16000435Y11620800D01*
X16001215Y11613877D01*
X16019540Y11451232D01*
X16020632Y11441545D01*
X16022928Y11434981D01*
X16022930Y11434976D01*
X16077913Y11277844D01*
X16080211Y11271278D01*
X16176184Y11118538D01*
X16303738Y10990984D01*
X16456478Y10895011D01*
X16626745Y10835432D01*
X16792730Y10816731D01*
X16797914Y10816146D01*
X16806000Y10815235D01*
X16814086Y10816146D01*
X16818407Y10816633D01*
X16985255Y10835432D01*
X17155522Y10895011D01*
X17308262Y10990984D01*
X17435816Y11118538D01*
X17531789Y11271278D01*
X17591368Y11441545D01*
X17611565Y11620800D01*
X17591368Y11800055D01*
X17531789Y11970322D01*
X17435816Y12123062D01*
X17308262Y12250616D01*
X17155522Y12346589D01*
X17148959Y12348886D01*
X17148956Y12348887D01*
X16991824Y12403870D01*
X16991819Y12403872D01*
X16985255Y12406168D01*
X16978335Y12406948D01*
X16978334Y12406948D01*
X16812923Y12425585D01*
X16806000Y12426365D01*
X16799077Y12425585D01*
X16633665Y12406948D01*
X16633662Y12406948D01*
X16626745Y12406168D01*
X16620182Y12403872D01*
X16620175Y12403870D01*
X16463043Y12348887D01*
X16463036Y12348885D01*
X16456478Y12346589D01*
X16450590Y12342890D01*
X16450587Y12342888D01*
X16309638Y12254324D01*
X16309633Y12254321D01*
X16303738Y12250616D01*
X16298813Y12245692D01*
X16298809Y12245688D01*
X16181112Y12127991D01*
X16181108Y12127987D01*
X16176184Y12123062D01*
X16172479Y12117167D01*
X16172476Y12117162D01*
X16083912Y11976213D01*
X16083910Y11976210D01*
X16080211Y11970322D01*
X16077915Y11963764D01*
X16077913Y11963757D01*
X16022930Y11806625D01*
X16022928Y11806618D01*
X16020632Y11800055D01*
X16000435Y11620800D01*
X9104586Y11620800D01*
X9098814Y11639827D01*
X9076797Y11681018D01*
X9008784Y11808262D01*
X9008781Y11808266D01*
X9005910Y11813638D01*
X8880883Y11965983D01*
X8868418Y11976213D01*
X8733250Y12087143D01*
X8733249Y12087144D01*
X8728538Y12091010D01*
X8723167Y12093881D01*
X8723161Y12093885D01*
X8560099Y12181043D01*
X8560095Y12181045D01*
X8554727Y12183914D01*
X8548899Y12185682D01*
X8371962Y12239356D01*
X8371957Y12239357D01*
X8366132Y12241124D01*
X8360073Y12241721D01*
X8360067Y12241722D01*
X8176062Y12259844D01*
X8170000Y12260441D01*
X8163938Y12259844D01*
X7979932Y12241722D01*
X7979924Y12241721D01*
X7973868Y12241124D01*
X7968044Y12239358D01*
X7968037Y12239356D01*
X7791100Y12185682D01*
X7791096Y12185681D01*
X7785273Y12183914D01*
X7779907Y12181047D01*
X7779900Y12181043D01*
X7616838Y12093885D01*
X7616827Y12093878D01*
X7611462Y12091010D01*
X7606754Y12087147D01*
X7606749Y12087143D01*
X7463823Y11969846D01*
X7463818Y11969842D01*
X7459117Y11965983D01*
X7455258Y11961282D01*
X7455254Y11961277D01*
X7337957Y11818351D01*
X7337953Y11818346D01*
X7334090Y11813638D01*
X7331222Y11808273D01*
X7331215Y11808262D01*
X7244057Y11645200D01*
X7244053Y11645193D01*
X7241186Y11639827D01*
X7239419Y11634004D01*
X7239418Y11634000D01*
X7185744Y11457063D01*
X7185742Y11457056D01*
X7183976Y11451232D01*
X7183379Y11445176D01*
X7183378Y11445168D01*
X7170766Y11317111D01*
X7164659Y11255100D01*
X4916250Y11255100D01*
X4870873Y11444111D01*
X4774466Y11676859D01*
X4693942Y11808262D01*
X4645382Y11887505D01*
X4645379Y11887509D01*
X4642836Y11891659D01*
X4590852Y11952524D01*
X4482384Y12079524D01*
X4479224Y12083224D01*
X4431820Y12123711D01*
X4399742Y12166088D01*
X4388352Y12218003D01*
X4399743Y12269917D01*
X4431821Y12312291D01*
X4479224Y12352776D01*
X4642836Y12544341D01*
X4774466Y12759141D01*
X4870873Y12991889D01*
X4929683Y13236852D01*
X4949449Y13488000D01*
X4933595Y13689447D01*
X10744935Y13689447D01*
X10765132Y13510192D01*
X10767428Y13503628D01*
X10767430Y13503623D01*
X10822413Y13346491D01*
X10824711Y13339925D01*
X10920684Y13187185D01*
X11048238Y13059631D01*
X11200978Y12963658D01*
X11371245Y12904079D01*
X11550500Y12883882D01*
X11729755Y12904079D01*
X11900022Y12963658D01*
X12052762Y13059631D01*
X12180316Y13187185D01*
X12276289Y13339925D01*
X12335868Y13510192D01*
X12356065Y13689447D01*
X12335868Y13868702D01*
X12276289Y14038969D01*
X12180316Y14191709D01*
X12052762Y14319263D01*
X11900022Y14415236D01*
X11893459Y14417533D01*
X11893456Y14417534D01*
X11736324Y14472517D01*
X11736319Y14472519D01*
X11729755Y14474815D01*
X11722835Y14475595D01*
X11722834Y14475595D01*
X11557423Y14494232D01*
X11550500Y14495012D01*
X11543577Y14494232D01*
X11378165Y14475595D01*
X11378162Y14475595D01*
X11371245Y14474815D01*
X11364682Y14472519D01*
X11364675Y14472517D01*
X11207543Y14417534D01*
X11207536Y14417532D01*
X11200978Y14415236D01*
X11195090Y14411537D01*
X11195087Y14411535D01*
X11054138Y14322971D01*
X11054133Y14322968D01*
X11048238Y14319263D01*
X11043313Y14314339D01*
X11043309Y14314335D01*
X10925612Y14196638D01*
X10925608Y14196634D01*
X10920684Y14191709D01*
X10916979Y14185814D01*
X10916976Y14185809D01*
X10828412Y14044860D01*
X10828410Y14044857D01*
X10824711Y14038969D01*
X10822415Y14032411D01*
X10822413Y14032404D01*
X10767430Y13875272D01*
X10767428Y13875265D01*
X10765132Y13868702D01*
X10764352Y13861785D01*
X10764352Y13861782D01*
X10758095Y13806245D01*
X10744935Y13689447D01*
X4933595Y13689447D01*
X4929683Y13739148D01*
X4870873Y13984111D01*
X4774466Y14216859D01*
X4709440Y14322971D01*
X4645382Y14427505D01*
X4645379Y14427509D01*
X4642836Y14431659D01*
X4605977Y14474815D01*
X4482386Y14619522D01*
X4482384Y14619524D01*
X4479224Y14623224D01*
X4431816Y14663714D01*
X4399742Y14706086D01*
X4388351Y14758000D01*
X4399742Y14809914D01*
X4431816Y14852287D01*
X4479224Y14892776D01*
X4642836Y15084341D01*
X4774466Y15299141D01*
X4870873Y15531889D01*
X4929683Y15776852D01*
X4930060Y15781652D01*
X4956628Y15840849D01*
X5009476Y15878527D01*
X5074119Y15884346D01*
X5132846Y15856711D01*
X5169568Y15803195D01*
X5191003Y15741936D01*
X5191007Y15741928D01*
X5193305Y15735362D01*
X5197006Y15729472D01*
X5247034Y15649852D01*
X5289278Y15582622D01*
X5416832Y15455068D01*
X5569572Y15359095D01*
X5739839Y15299516D01*
X5919094Y15279319D01*
X6098349Y15299516D01*
X6268616Y15359095D01*
X6322575Y15393000D01*
X12749235Y15393000D01*
X12769432Y15213745D01*
X12771728Y15207181D01*
X12771730Y15207176D01*
X12826713Y15050044D01*
X12829011Y15043478D01*
X12832712Y15037588D01*
X12883134Y14957341D01*
X12924984Y14890738D01*
X13052538Y14763184D01*
X13180288Y14682913D01*
X13200114Y14670456D01*
X13245861Y14619265D01*
X13257363Y14551582D01*
X13231740Y14489719D01*
X13229784Y14487762D01*
X13226084Y14481875D01*
X13226081Y14481870D01*
X13137512Y14340913D01*
X13137510Y14340910D01*
X13133811Y14335022D01*
X13131515Y14328464D01*
X13131513Y14328457D01*
X13076530Y14171325D01*
X13076528Y14171318D01*
X13074232Y14164755D01*
X13073452Y14157838D01*
X13073452Y14157835D01*
X13068103Y14110357D01*
X13054035Y13985500D01*
X13054815Y13978577D01*
X13067974Y13861782D01*
X13074232Y13806245D01*
X13076528Y13799681D01*
X13076530Y13799676D01*
X13131513Y13642544D01*
X13133811Y13635978D01*
X13229784Y13483238D01*
X13357338Y13355684D01*
X13510078Y13259711D01*
X13680345Y13200132D01*
X13859600Y13179935D01*
X14038855Y13200132D01*
X14045426Y13202432D01*
X14045429Y13202432D01*
X14091494Y13218551D01*
X14160042Y13222401D01*
X14220131Y13189191D01*
X14271738Y13137584D01*
X14424478Y13041611D01*
X14594745Y12982032D01*
X14774000Y12961835D01*
X14953255Y12982032D01*
X15123522Y13041611D01*
X15276262Y13137584D01*
X15403816Y13265138D01*
X15499789Y13417878D01*
X15559368Y13588145D01*
X15579565Y13767400D01*
X15559368Y13946655D01*
X15499789Y14116922D01*
X15403816Y14269662D01*
X15276262Y14397216D01*
X15253473Y14411535D01*
X15129412Y14489488D01*
X15123522Y14493189D01*
X15116959Y14495486D01*
X15116956Y14495487D01*
X14959824Y14550470D01*
X14959819Y14550472D01*
X14953255Y14552768D01*
X14946335Y14553548D01*
X14946334Y14553548D01*
X14780923Y14572185D01*
X14774000Y14572965D01*
X14767077Y14572185D01*
X14601670Y14553549D01*
X14601663Y14553548D01*
X14594745Y14552768D01*
X14588176Y14550470D01*
X14588169Y14550468D01*
X14542100Y14534348D01*
X14473555Y14530500D01*
X14413468Y14563710D01*
X14366790Y14610388D01*
X14361862Y14615316D01*
X14274107Y14670456D01*
X14214285Y14708045D01*
X14168536Y14759239D01*
X14157037Y14826927D01*
X14182662Y14888785D01*
X14184616Y14890738D01*
X14280589Y15043478D01*
X14340168Y15213745D01*
X14360365Y15393000D01*
X14340168Y15572255D01*
X14337868Y15578827D01*
X14336318Y15585622D01*
X14337840Y15585970D01*
X14333416Y15638386D01*
X14358714Y15694932D01*
X14408210Y15732184D01*
X14469545Y15740844D01*
X14570800Y15729435D01*
X14750055Y15749632D01*
X14920322Y15809211D01*
X15073062Y15905184D01*
X15200616Y16032738D01*
X15296589Y16185478D01*
X15356168Y16355745D01*
X15376365Y16535000D01*
X15356168Y16714255D01*
X15296589Y16884522D01*
X15200616Y17037262D01*
X15073062Y17164816D01*
X15011159Y17203712D01*
X14926212Y17257088D01*
X14920322Y17260789D01*
X14913759Y17263086D01*
X14913756Y17263087D01*
X14756624Y17318070D01*
X14756619Y17318072D01*
X14750055Y17320368D01*
X14743135Y17321148D01*
X14743134Y17321148D01*
X14577723Y17339785D01*
X14570800Y17340565D01*
X14563877Y17339785D01*
X14398465Y17321148D01*
X14398462Y17321148D01*
X14391545Y17320368D01*
X14384982Y17318072D01*
X14384975Y17318070D01*
X14227843Y17263087D01*
X14227836Y17263085D01*
X14221278Y17260789D01*
X14215390Y17257090D01*
X14215387Y17257088D01*
X14074438Y17168524D01*
X14074433Y17168521D01*
X14068538Y17164816D01*
X14063613Y17159892D01*
X14063609Y17159888D01*
X13945912Y17042191D01*
X13945908Y17042187D01*
X13940984Y17037262D01*
X13937279Y17031367D01*
X13937276Y17031362D01*
X13848712Y16890413D01*
X13848710Y16890410D01*
X13845011Y16884522D01*
X13842715Y16877964D01*
X13842713Y16877957D01*
X13787730Y16720825D01*
X13787728Y16720818D01*
X13785432Y16714255D01*
X13784652Y16707338D01*
X13784652Y16707335D01*
X13775923Y16629859D01*
X13765235Y16535000D01*
X13766015Y16528077D01*
X13777185Y16428935D01*
X13785432Y16355745D01*
X13787730Y16349176D01*
X13789282Y16342378D01*
X13787760Y16342031D01*
X13792181Y16289603D01*
X13766880Y16233063D01*
X13717386Y16195816D01*
X13656051Y16187157D01*
X13561723Y16197785D01*
X13554800Y16198565D01*
X13547877Y16197785D01*
X13382465Y16179148D01*
X13382462Y16179148D01*
X13375545Y16178368D01*
X13368982Y16176072D01*
X13368975Y16176070D01*
X13211843Y16121087D01*
X13211836Y16121085D01*
X13205278Y16118789D01*
X13199390Y16115090D01*
X13199387Y16115088D01*
X13058438Y16026524D01*
X13058433Y16026521D01*
X13052538Y16022816D01*
X13047613Y16017892D01*
X13047609Y16017888D01*
X12929912Y15900191D01*
X12929908Y15900187D01*
X12924984Y15895262D01*
X12921279Y15889367D01*
X12921276Y15889362D01*
X12832712Y15748413D01*
X12832710Y15748410D01*
X12829011Y15742522D01*
X12826715Y15735964D01*
X12826713Y15735957D01*
X12771730Y15578825D01*
X12771728Y15578818D01*
X12769432Y15572255D01*
X12768652Y15565338D01*
X12768652Y15565335D01*
X12757962Y15470453D01*
X12749235Y15393000D01*
X6322575Y15393000D01*
X6421356Y15455068D01*
X6548910Y15582622D01*
X6644883Y15735362D01*
X6704462Y15905629D01*
X6724659Y16084884D01*
X6717187Y16151198D01*
X6727507Y16216360D01*
X6769790Y16267007D01*
X6832065Y16288798D01*
X6896701Y16275564D01*
X6945401Y16231051D01*
X6978014Y16179148D01*
X7019667Y16112858D01*
X7147221Y15985304D01*
X7299961Y15889331D01*
X7470228Y15829752D01*
X7649483Y15809555D01*
X7828738Y15829752D01*
X7876450Y15846448D01*
X7931286Y15852626D01*
X7983375Y15834400D01*
X8022396Y15795379D01*
X8037011Y15772119D01*
X8042999Y15762589D01*
X8048184Y15754338D01*
X8175738Y15626784D01*
X8328478Y15530811D01*
X8498745Y15471232D01*
X8678000Y15451035D01*
X8857255Y15471232D01*
X9027522Y15530811D01*
X9180262Y15626784D01*
X9225319Y15671841D01*
X9280906Y15703935D01*
X9345094Y15703935D01*
X9400681Y15671841D01*
X9445738Y15626784D01*
X9598478Y15530811D01*
X9768745Y15471232D01*
X9948000Y15451035D01*
X10127255Y15471232D01*
X10297522Y15530811D01*
X10450262Y15626784D01*
X10577816Y15754338D01*
X10673789Y15907078D01*
X10733368Y16077345D01*
X10753565Y16256600D01*
X10733368Y16435855D01*
X10673789Y16606122D01*
X10577816Y16758862D01*
X10450262Y16886416D01*
X10297522Y16982389D01*
X10290959Y16984686D01*
X10290956Y16984687D01*
X10133824Y17039670D01*
X10133819Y17039672D01*
X10127255Y17041968D01*
X10120335Y17042748D01*
X10120334Y17042748D01*
X9954923Y17061385D01*
X9948000Y17062165D01*
X9941077Y17061385D01*
X9775665Y17042748D01*
X9775662Y17042748D01*
X9768745Y17041968D01*
X9762182Y17039672D01*
X9762175Y17039670D01*
X9605043Y16984687D01*
X9605036Y16984685D01*
X9598478Y16982389D01*
X9592590Y16978690D01*
X9592587Y16978688D01*
X9451638Y16890124D01*
X9451633Y16890121D01*
X9445738Y16886416D01*
X9440813Y16881492D01*
X9440809Y16881488D01*
X9400681Y16841359D01*
X9345094Y16809265D01*
X9280906Y16809265D01*
X9225319Y16841359D01*
X9185190Y16881488D01*
X9180262Y16886416D01*
X9027522Y16982389D01*
X9020959Y16984686D01*
X9020956Y16984687D01*
X8863824Y17039670D01*
X8863819Y17039672D01*
X8857255Y17041968D01*
X8850335Y17042748D01*
X8850334Y17042748D01*
X8684923Y17061385D01*
X8678000Y17062165D01*
X8671077Y17061385D01*
X8505668Y17042749D01*
X8505659Y17042748D01*
X8498745Y17041968D01*
X8492176Y17039670D01*
X8492165Y17039667D01*
X8451031Y17025274D01*
X8396194Y17019096D01*
X8344106Y17037323D01*
X8305085Y17076344D01*
X8283006Y17111482D01*
X8279299Y17117382D01*
X8151745Y17244936D01*
X8119353Y17265289D01*
X8004895Y17337208D01*
X7999005Y17340909D01*
X7992442Y17343206D01*
X7992439Y17343207D01*
X7835307Y17398190D01*
X7835302Y17398192D01*
X7828738Y17400488D01*
X7821818Y17401268D01*
X7821817Y17401268D01*
X7656406Y17419905D01*
X7649483Y17420685D01*
X7642560Y17419905D01*
X7477148Y17401268D01*
X7477145Y17401268D01*
X7470228Y17400488D01*
X7463665Y17398192D01*
X7463658Y17398190D01*
X7306526Y17343207D01*
X7306519Y17343205D01*
X7299961Y17340909D01*
X7294073Y17337210D01*
X7294070Y17337208D01*
X7153121Y17248644D01*
X7153116Y17248641D01*
X7147221Y17244936D01*
X7142296Y17240012D01*
X7142292Y17240008D01*
X7024595Y17122311D01*
X7024591Y17122307D01*
X7019667Y17117382D01*
X7015962Y17111487D01*
X7015959Y17111482D01*
X6927395Y16970533D01*
X6927393Y16970530D01*
X6923694Y16964642D01*
X6921398Y16958084D01*
X6921396Y16958077D01*
X6866413Y16800945D01*
X6866411Y16800938D01*
X6864115Y16794375D01*
X6863335Y16787458D01*
X6863335Y16787455D01*
X6854308Y16707335D01*
X6843918Y16615120D01*
X6844698Y16608197D01*
X6851389Y16548809D01*
X6841068Y16483644D01*
X6798785Y16432997D01*
X6736510Y16411207D01*
X6671874Y16424441D01*
X6623175Y16468954D01*
X6591493Y16519376D01*
X6548910Y16587146D01*
X6421356Y16714700D01*
X6364202Y16750612D01*
X6274506Y16806972D01*
X6268616Y16810673D01*
X6262053Y16812970D01*
X6262050Y16812971D01*
X6104918Y16867954D01*
X6104913Y16867956D01*
X6098349Y16870252D01*
X6091429Y16871032D01*
X6091428Y16871032D01*
X5926017Y16889669D01*
X5919094Y16890449D01*
X5912171Y16889669D01*
X5746759Y16871032D01*
X5746756Y16871032D01*
X5739839Y16870252D01*
X5733276Y16867956D01*
X5733269Y16867954D01*
X5576137Y16812971D01*
X5576130Y16812969D01*
X5569572Y16810673D01*
X5563684Y16806974D01*
X5563681Y16806972D01*
X5422732Y16718408D01*
X5422727Y16718405D01*
X5416832Y16714700D01*
X5411907Y16709776D01*
X5411903Y16709772D01*
X5294206Y16592075D01*
X5294202Y16592071D01*
X5289278Y16587146D01*
X5285573Y16581251D01*
X5285570Y16581246D01*
X5197006Y16440297D01*
X5197004Y16440294D01*
X5193305Y16434406D01*
X5191008Y16427845D01*
X5191005Y16427836D01*
X5154063Y16322264D01*
X5118815Y16270022D01*
X5062439Y16241853D01*
X4999498Y16245034D01*
X4946249Y16278743D01*
X4916449Y16334271D01*
X4870873Y16524111D01*
X4774466Y16756859D01*
X4706387Y16867954D01*
X4645382Y16967505D01*
X4645379Y16967509D01*
X4642836Y16971659D01*
X4597044Y17025274D01*
X4482386Y17159522D01*
X4482384Y17159524D01*
X4479224Y17163224D01*
X4431817Y17203713D01*
X4399741Y17246088D01*
X4388351Y17298003D01*
X4399742Y17349917D01*
X4431817Y17392288D01*
X4479224Y17432776D01*
X4642836Y17624341D01*
X4774466Y17839141D01*
X4870873Y18071889D01*
X4883384Y18124000D01*
X15492435Y18124000D01*
X15512632Y17944745D01*
X15514928Y17938181D01*
X15514930Y17938176D01*
X15548008Y17843646D01*
X15572211Y17774478D01*
X15668184Y17621738D01*
X15795738Y17494184D01*
X15948478Y17398211D01*
X16118745Y17338632D01*
X16298000Y17318435D01*
X16477255Y17338632D01*
X16647522Y17398211D01*
X16800262Y17494184D01*
X16927816Y17621738D01*
X17023789Y17774478D01*
X17083368Y17944745D01*
X17103565Y18124000D01*
X17083368Y18303255D01*
X17023789Y18473522D01*
X16927816Y18626262D01*
X16800262Y18753816D01*
X16647522Y18849789D01*
X16640959Y18852086D01*
X16640956Y18852087D01*
X16483824Y18907070D01*
X16483819Y18907072D01*
X16477255Y18909368D01*
X16470335Y18910148D01*
X16470334Y18910148D01*
X16304923Y18928785D01*
X16298000Y18929565D01*
X16291077Y18928785D01*
X16125665Y18910148D01*
X16125662Y18910148D01*
X16118745Y18909368D01*
X16112182Y18907072D01*
X16112175Y18907070D01*
X15955043Y18852087D01*
X15955036Y18852085D01*
X15948478Y18849789D01*
X15942590Y18846090D01*
X15942587Y18846088D01*
X15801638Y18757524D01*
X15801633Y18757521D01*
X15795738Y18753816D01*
X15790813Y18748892D01*
X15790809Y18748888D01*
X15673112Y18631191D01*
X15673108Y18631187D01*
X15668184Y18626262D01*
X15664479Y18620367D01*
X15664476Y18620362D01*
X15575912Y18479413D01*
X15575910Y18479410D01*
X15572211Y18473522D01*
X15569915Y18466964D01*
X15569913Y18466957D01*
X15514930Y18309825D01*
X15514928Y18309818D01*
X15512632Y18303255D01*
X15492435Y18124000D01*
X4883384Y18124000D01*
X4929683Y18316852D01*
X4949449Y18568000D01*
X4929683Y18819148D01*
X4870873Y19064111D01*
X4774466Y19296859D01*
X4693478Y19429018D01*
X4675408Y19486728D01*
X4686782Y19546123D01*
X4724896Y19593074D01*
X4794447Y19645140D01*
X4801546Y19650454D01*
X4887796Y19765669D01*
X4938091Y19900517D01*
X4944500Y19960127D01*
X4944499Y20555998D01*
X4963505Y20621967D01*
X5014697Y20667715D01*
X5082382Y20679215D01*
X5145811Y20652943D01*
X5185540Y20596950D01*
X5206709Y20536452D01*
X5206713Y20536444D01*
X5209011Y20529878D01*
X5304984Y20377138D01*
X5432538Y20249584D01*
X5585278Y20153611D01*
X5755545Y20094032D01*
X5934800Y20073835D01*
X6114055Y20094032D01*
X6284322Y20153611D01*
X6437062Y20249584D01*
X6564616Y20377138D01*
X6660589Y20529878D01*
X6720168Y20700145D01*
X6740365Y20879400D01*
X6720168Y21058655D01*
X6660589Y21228922D01*
X6564616Y21381662D01*
X6437062Y21509216D01*
X6284322Y21605189D01*
X6277759Y21607486D01*
X6277756Y21607487D01*
X6120624Y21662470D01*
X6120619Y21662472D01*
X6114055Y21664768D01*
X6107135Y21665548D01*
X6107134Y21665548D01*
X5941723Y21684185D01*
X5934800Y21684965D01*
X5927877Y21684185D01*
X5762465Y21665548D01*
X5762462Y21665548D01*
X5755545Y21664768D01*
X5748982Y21662472D01*
X5748975Y21662470D01*
X5591843Y21607487D01*
X5591836Y21607485D01*
X5585278Y21605189D01*
X5579390Y21601490D01*
X5579387Y21601488D01*
X5438438Y21512924D01*
X5438433Y21512921D01*
X5432538Y21509216D01*
X5427613Y21504292D01*
X5427609Y21504288D01*
X5309912Y21386591D01*
X5309908Y21386587D01*
X5304984Y21381662D01*
X5301279Y21375767D01*
X5301276Y21375762D01*
X5212712Y21234813D01*
X5212710Y21234810D01*
X5209011Y21228922D01*
X5206716Y21222365D01*
X5206709Y21222349D01*
X5185540Y21161850D01*
X5145811Y21105857D01*
X5082382Y21079585D01*
X5014697Y21091085D01*
X4963505Y21136833D01*
X4944499Y21202805D01*
X4944499Y22252561D01*
X4944499Y22255872D01*
X4938091Y22315483D01*
X4887796Y22450331D01*
X4801546Y22565546D01*
X4758512Y22597761D01*
X4693431Y22646481D01*
X4693430Y22646482D01*
X4686331Y22651796D01*
X4551483Y22702091D01*
X4543770Y22702921D01*
X4543767Y22702921D01*
X4495180Y22708145D01*
X4495169Y22708146D01*
X4491873Y22708500D01*
X4488550Y22708500D01*
X2199439Y22708500D01*
X2199420Y22708500D01*
X2196128Y22708499D01*
X2192850Y22708147D01*
X2192838Y22708146D01*
X2144231Y22702921D01*
X2144225Y22702920D01*
X2136517Y22702091D01*
X2129252Y22699382D01*
X2129246Y22699380D01*
X2009980Y22654896D01*
X2009978Y22654896D01*
X2001669Y22651796D01*
X1994572Y22646484D01*
X1994568Y22646481D01*
X1893550Y22570859D01*
X1893546Y22570856D01*
X1886454Y22565546D01*
X1881144Y22558454D01*
X1881141Y22558450D01*
X1805519Y22457432D01*
X1805516Y22457428D01*
X1800204Y22450331D01*
X1797104Y22442022D01*
X1797104Y22442020D01*
X1752620Y22322753D01*
X1752619Y22322750D01*
X1749909Y22315483D01*
X1749079Y22307773D01*
X1749079Y22307768D01*
X1743855Y22259181D01*
X1743854Y22259169D01*
X1743500Y22255873D01*
X1743500Y22252552D01*
X1743500Y22252551D01*
X1743500Y19963440D01*
X1743500Y19963422D01*
X1743501Y19960128D01*
X1743853Y19956850D01*
X1743854Y19956839D01*
X1749079Y19908232D01*
X1749080Y19908227D01*
X1749909Y19900517D01*
X1752619Y19893251D01*
X1752620Y19893247D01*
X1770326Y19845776D01*
X1800204Y19765669D01*
X1805518Y19758570D01*
X1805519Y19758569D01*
X1879990Y19659088D01*
X1886454Y19650454D01*
X1893550Y19645142D01*
X1963104Y19593074D01*
X2001217Y19546122D01*
X2012591Y19486728D01*
X1994521Y19429018D01*
X1913534Y19296859D01*
X1911670Y19292360D01*
X1911668Y19292355D01*
X1860929Y19169859D01*
X1817127Y19064111D01*
X1815992Y19059387D01*
X1815989Y19059375D01*
X1759453Y18823882D01*
X1759451Y18823876D01*
X1758317Y18819148D01*
X1738551Y18568000D01*
X1758317Y18316852D01*
X1759452Y18312123D01*
X1759453Y18312119D01*
X1815989Y18076626D01*
X1815991Y18076618D01*
X1817127Y18071889D01*
X1913534Y17839141D01*
X1916081Y17834984D01*
X1916082Y17834983D01*
X2042617Y17628496D01*
X2042622Y17628489D01*
X2045164Y17624341D01*
X2048324Y17620642D01*
X2048327Y17620637D01*
X2205613Y17436479D01*
X2208776Y17432776D01*
X2212476Y17429616D01*
X2212482Y17429610D01*
X2256177Y17392291D01*
X2288255Y17349916D01*
X2299646Y17298003D01*
X2288257Y17246089D01*
X2256180Y17203712D01*
X2214981Y17168524D01*
X2208776Y17163224D01*
X2205621Y17159531D01*
X2205615Y17159524D01*
X2048327Y16975364D01*
X2048319Y16975354D01*
X2045164Y16971659D01*
X2042626Y16967518D01*
X2042617Y16967505D01*
X1916082Y16761018D01*
X1916078Y16761012D01*
X1913534Y16756859D01*
X1911670Y16752360D01*
X1911668Y16752355D01*
X1840793Y16581246D01*
X1817127Y16524111D01*
X1815992Y16519387D01*
X1815989Y16519375D01*
X1759453Y16283882D01*
X1759451Y16283876D01*
X1758317Y16279148D01*
X1757935Y16274298D01*
X1757935Y16274296D01*
X1744842Y16107930D01*
X1738551Y16028000D01*
X1738933Y16023146D01*
X1753972Y15832053D01*
X1758317Y15776852D01*
X1759452Y15772123D01*
X1759453Y15772119D01*
X1815989Y15536626D01*
X1815991Y15536618D01*
X1817127Y15531889D01*
X1913534Y15299141D01*
X1916081Y15294984D01*
X1916082Y15294983D01*
X2042617Y15088496D01*
X2042622Y15088489D01*
X2045164Y15084341D01*
X2048324Y15080642D01*
X2048327Y15080637D01*
X2153632Y14957341D01*
X2208776Y14892776D01*
X2212476Y14889616D01*
X2212478Y14889614D01*
X2256179Y14852289D01*
X2288256Y14809913D01*
X2299646Y14758000D01*
X2288256Y14706087D01*
X2256179Y14663711D01*
X2212478Y14626387D01*
X2212469Y14626379D01*
X2208776Y14623224D01*
X2205621Y14619531D01*
X2205615Y14619524D01*
X2048327Y14435364D01*
X2048319Y14435354D01*
X2045164Y14431659D01*
X2042626Y14427518D01*
X2042617Y14427505D01*
X1916082Y14221018D01*
X1916078Y14221012D01*
X1913534Y14216859D01*
X1911670Y14212360D01*
X1911668Y14212355D01*
X1820570Y13992423D01*
X1817127Y13984111D01*
X1815992Y13979387D01*
X1815989Y13979375D01*
X1759453Y13743882D01*
X1759451Y13743876D01*
X1758317Y13739148D01*
X1757935Y13734298D01*
X1757935Y13734296D01*
X1750714Y13642544D01*
X1738551Y13488000D01*
X1758317Y13236852D01*
X1759452Y13232123D01*
X1759453Y13232119D01*
X1815989Y12996626D01*
X1815991Y12996618D01*
X1817127Y12991889D01*
X1913534Y12759141D01*
X1916081Y12754984D01*
X1916082Y12754983D01*
X2042617Y12548496D01*
X2042622Y12548489D01*
X2045164Y12544341D01*
X2048324Y12540642D01*
X2048327Y12540637D01*
X2205615Y12356477D01*
X2208776Y12352776D01*
X2212476Y12349616D01*
X2212478Y12349614D01*
X2256179Y12312289D01*
X2288256Y12269913D01*
X2299646Y12218000D01*
X2288256Y12166087D01*
X2256179Y12123711D01*
X2212478Y12086387D01*
X2212469Y12086379D01*
X2208776Y12083224D01*
X2205621Y12079531D01*
X2205615Y12079524D01*
X2048327Y11895364D01*
X2048319Y11895354D01*
X2045164Y11891659D01*
X2042626Y11887518D01*
X2042617Y11887505D01*
X1916082Y11681018D01*
X1916078Y11681012D01*
X1913534Y11676859D01*
X1911670Y11672360D01*
X1911668Y11672355D01*
X1818991Y11448612D01*
X1817127Y11444111D01*
X1815992Y11439387D01*
X1815989Y11439375D01*
X1759453Y11203882D01*
X1759451Y11203876D01*
X1758317Y11199148D01*
X1738551Y10948000D01*
X1758317Y10696852D01*
X1759452Y10692123D01*
X1759453Y10692119D01*
X1815989Y10456626D01*
X1815991Y10456618D01*
X1817127Y10451889D01*
X1913534Y10219141D01*
X1916081Y10214984D01*
X1916082Y10214983D01*
X2042617Y10008496D01*
X2042622Y10008489D01*
X2045164Y10004341D01*
X2048324Y10000642D01*
X2048327Y10000637D01*
X2189055Y9835866D01*
X2208776Y9812776D01*
X2212476Y9809616D01*
X2212478Y9809614D01*
X2256179Y9772289D01*
X2288256Y9729913D01*
X2299646Y9678000D01*
X2288256Y9626087D01*
X2256179Y9583711D01*
X2212478Y9546387D01*
X2212469Y9546379D01*
X2208776Y9543224D01*
X2205621Y9539531D01*
X2205615Y9539524D01*
X2048327Y9355364D01*
X2048319Y9355354D01*
X2045164Y9351659D01*
X2042626Y9347518D01*
X2042617Y9347505D01*
X1916082Y9141018D01*
X1916078Y9141012D01*
X1913534Y9136859D01*
X1911670Y9132360D01*
X1911668Y9132355D01*
X1853417Y8991724D01*
X1817127Y8904111D01*
X1815992Y8899387D01*
X1815989Y8899375D01*
X1759453Y8663882D01*
X1759451Y8663876D01*
X1758317Y8659148D01*
X1757935Y8654298D01*
X1757935Y8654296D01*
X1748739Y8537455D01*
X1738551Y8408000D01*
X1738933Y8403146D01*
X1756033Y8185866D01*
X1758317Y8156852D01*
X1759452Y8152123D01*
X1759453Y8152119D01*
X1815989Y7916626D01*
X1815991Y7916618D01*
X1817127Y7911889D01*
X1913534Y7679141D01*
X1916081Y7674984D01*
X1916082Y7674983D01*
X2042617Y7468496D01*
X2042622Y7468489D01*
X2045164Y7464341D01*
X2048324Y7460642D01*
X2048327Y7460637D01*
X2083570Y7419373D01*
X2208776Y7272776D01*
X2246157Y7240850D01*
X2394836Y7113865D01*
X2400341Y7109164D01*
X2404491Y7106621D01*
X2404495Y7106618D01*
X2426364Y7093217D01*
X2615141Y6977534D01*
X2847889Y6881127D01*
X3092852Y6822317D01*
X3344000Y6802551D01*
X3595148Y6822317D01*
X3840111Y6881127D01*
X4072859Y6977534D01*
X4287659Y7109164D01*
X4390391Y7196906D01*
X4453932Y7225446D01*
X4522836Y7215225D01*
X4575357Y7169468D01*
X4591629Y7113865D01*
X4594325Y7114130D01*
X4613044Y6924063D01*
X4613045Y6924057D01*
X4613642Y6917998D01*
X4615409Y6912173D01*
X4615410Y6912168D01*
X4669084Y6735231D01*
X4670852Y6729403D01*
X4673721Y6724035D01*
X4673723Y6724031D01*
X4760881Y6560969D01*
X4760885Y6560963D01*
X4763756Y6555592D01*
X4888783Y6403247D01*
X5041128Y6278220D01*
X5046500Y6275349D01*
X5046504Y6275346D01*
X5188025Y6199702D01*
X5211725Y6187034D01*
X5214939Y6185316D01*
X5214708Y6184886D01*
X5257033Y6154408D01*
X5283494Y6104058D01*
X5284691Y6047190D01*
X5260372Y5995771D01*
X5259107Y5994186D01*
X5254184Y5989262D01*
X5250483Y5983373D01*
X5250479Y5983367D01*
X5161912Y5842413D01*
X5161910Y5842410D01*
X5158211Y5836522D01*
X5155914Y5829961D01*
X5155911Y5829952D01*
X5122969Y5735811D01*
X5091636Y5687156D01*
X5041636Y5658019D01*
X4983857Y5654747D01*
X4930886Y5678052D01*
X4857599Y5733764D01*
X4857583Y5733775D01*
X4854919Y5735800D01*
X4852045Y5737529D01*
X4852041Y5737532D01*
X4551135Y5918581D01*
X4551134Y5918582D01*
X4548253Y5920315D01*
X4430055Y5974999D01*
X4226490Y6069178D01*
X4226483Y6069181D01*
X4223435Y6070591D01*
X4075234Y6120526D01*
X3887457Y6183796D01*
X3887448Y6183799D01*
X3884274Y6184868D01*
X3881006Y6185588D01*
X3880993Y6185591D01*
X3538033Y6261082D01*
X3538023Y6261084D01*
X3534746Y6261805D01*
X3178948Y6300500D01*
X2821052Y6300500D01*
X2817715Y6300138D01*
X2817713Y6300137D01*
X2468600Y6262169D01*
X2468598Y6262169D01*
X2465254Y6261805D01*
X2461979Y6261085D01*
X2461966Y6261082D01*
X2119006Y6185591D01*
X2118988Y6185587D01*
X2115726Y6184868D01*
X2112555Y6183800D01*
X2112542Y6183796D01*
X1779752Y6071665D01*
X1779749Y6071664D01*
X1776565Y6070591D01*
X1773522Y6069184D01*
X1773509Y6069178D01*
X1454802Y5921729D01*
X1454792Y5921725D01*
X1451747Y5920315D01*
X1448873Y5918586D01*
X1448864Y5918581D01*
X1147958Y5737532D01*
X1147945Y5737524D01*
X1145081Y5735800D01*
X1142423Y5733780D01*
X1142412Y5733772D01*
X862822Y5521233D01*
X862814Y5521227D01*
X860163Y5519211D01*
X857739Y5516916D01*
X857732Y5516909D01*
X602769Y5275396D01*
X602754Y5275381D01*
X600332Y5273086D01*
X598169Y5270541D01*
X598158Y5270528D01*
X370808Y5002870D01*
X370802Y5002863D01*
X368635Y5000311D01*
X366755Y4997539D01*
X366748Y4997529D01*
X227133Y4791611D01*
X180196Y4750410D01*
X119129Y4737314D01*
X59424Y4755646D01*
X16229Y4800756D01*
X500Y4861198D01*
X500Y24994200D01*
X569864Y24994200D01*
X570393Y24988491D01*
X583037Y24852036D01*
X589965Y24777277D01*
X649583Y24567741D01*
X652135Y24562615D01*
X652137Y24562611D01*
X744133Y24377858D01*
X744135Y24377854D01*
X746688Y24372728D01*
X877973Y24198878D01*
X1038968Y24052112D01*
X1224190Y23937428D01*
X1427331Y23858730D01*
X1641474Y23818700D01*
X1853597Y23818700D01*
X1859326Y23818700D01*
X2073469Y23858730D01*
X2276610Y23937428D01*
X2461832Y24052112D01*
X2622827Y24198878D01*
X2651446Y24236777D01*
X2695128Y24273050D01*
X2750400Y24286050D01*
X2805672Y24273050D01*
X2849353Y24236777D01*
X2877973Y24198878D01*
X2882207Y24195018D01*
X2882210Y24195015D01*
X2916287Y24163950D01*
X3038968Y24052112D01*
X3224190Y23937428D01*
X3427331Y23858730D01*
X3641474Y23818700D01*
X3853597Y23818700D01*
X3859326Y23818700D01*
X4073469Y23858730D01*
X4276610Y23937428D01*
X4461832Y24052112D01*
X4472808Y24062119D01*
X4533729Y24092403D01*
X4601463Y24085986D01*
X4655614Y24044796D01*
X4717854Y23961654D01*
X4833069Y23875404D01*
X4967917Y23825109D01*
X5027527Y23818700D01*
X5793317Y23818701D01*
X5850230Y23804868D01*
X5894446Y23766457D01*
X5916099Y23712036D01*
X5910359Y23653747D01*
X5881659Y23571727D01*
X5881657Y23571719D01*
X5879360Y23565154D01*
X5878580Y23558237D01*
X5878580Y23558234D01*
X5876366Y23538581D01*
X5859163Y23385899D01*
X5879360Y23206644D01*
X5881656Y23200080D01*
X5881658Y23200075D01*
X5936641Y23042943D01*
X5938939Y23036377D01*
X6034912Y22883637D01*
X6162466Y22756083D01*
X6315206Y22660110D01*
X6485473Y22600531D01*
X6664728Y22580334D01*
X6755867Y22590604D01*
X6810702Y22584426D01*
X6857429Y22555065D01*
X6954819Y22457675D01*
X7107559Y22361702D01*
X7277826Y22302123D01*
X7457081Y22281926D01*
X7636336Y22302123D01*
X7806603Y22361702D01*
X7959343Y22457675D01*
X8086897Y22585229D01*
X8087585Y22586324D01*
X13457955Y22586324D01*
X13458735Y22579401D01*
X13473277Y22450331D01*
X13478152Y22407069D01*
X13480448Y22400505D01*
X13480450Y22400500D01*
X13532220Y22252551D01*
X13537731Y22236802D01*
X13633704Y22084062D01*
X13761258Y21956508D01*
X13913998Y21860535D01*
X14084265Y21800956D01*
X14263520Y21780759D01*
X14442775Y21800956D01*
X14613042Y21860535D01*
X14765782Y21956508D01*
X14893336Y22084062D01*
X14989309Y22236802D01*
X15048888Y22407069D01*
X15069085Y22586324D01*
X15048888Y22765579D01*
X14989309Y22935846D01*
X14893336Y23088586D01*
X14765782Y23216140D01*
X14613042Y23312113D01*
X14606479Y23314410D01*
X14606476Y23314411D01*
X14449344Y23369394D01*
X14449339Y23369396D01*
X14442775Y23371692D01*
X14435855Y23372472D01*
X14435854Y23372472D01*
X14270443Y23391109D01*
X14263520Y23391889D01*
X14256597Y23391109D01*
X14091185Y23372472D01*
X14091182Y23372472D01*
X14084265Y23371692D01*
X14077702Y23369396D01*
X14077695Y23369394D01*
X13920563Y23314411D01*
X13920556Y23314409D01*
X13913998Y23312113D01*
X13908110Y23308414D01*
X13908107Y23308412D01*
X13767158Y23219848D01*
X13767153Y23219845D01*
X13761258Y23216140D01*
X13756333Y23211216D01*
X13756329Y23211212D01*
X13638632Y23093515D01*
X13638628Y23093511D01*
X13633704Y23088586D01*
X13629999Y23082691D01*
X13629996Y23082686D01*
X13541432Y22941737D01*
X13541430Y22941734D01*
X13537731Y22935846D01*
X13535435Y22929288D01*
X13535433Y22929281D01*
X13480450Y22772149D01*
X13480448Y22772142D01*
X13478152Y22765579D01*
X13477372Y22758662D01*
X13477372Y22758659D01*
X13466010Y22657813D01*
X13457955Y22586324D01*
X8087585Y22586324D01*
X8094772Y22597761D01*
X8128724Y22651796D01*
X8168502Y22715104D01*
X8207526Y22754126D01*
X8259612Y22772351D01*
X8281163Y22774778D01*
X8451430Y22834357D01*
X8604170Y22930330D01*
X8731724Y23057884D01*
X8827697Y23210624D01*
X8887276Y23380891D01*
X8904263Y23531658D01*
X19647377Y23531658D01*
X19648157Y23524735D01*
X19665659Y23369394D01*
X19667574Y23352403D01*
X19669870Y23345839D01*
X19669872Y23345834D01*
X19724855Y23188702D01*
X19727153Y23182136D01*
X19730854Y23176246D01*
X19818739Y23036377D01*
X19823126Y23029396D01*
X19950680Y22901842D01*
X20103420Y22805869D01*
X20273687Y22746290D01*
X20452942Y22726093D01*
X20632197Y22746290D01*
X20802464Y22805869D01*
X20955204Y22901842D01*
X21082758Y23029396D01*
X21178731Y23182136D01*
X21238310Y23352403D01*
X21258507Y23531658D01*
X21238310Y23710913D01*
X21178731Y23881180D01*
X21082758Y24033920D01*
X20955204Y24161474D01*
X20935442Y24173891D01*
X20808354Y24253746D01*
X20802464Y24257447D01*
X20795901Y24259744D01*
X20795898Y24259745D01*
X20638766Y24314728D01*
X20638761Y24314730D01*
X20632197Y24317026D01*
X20625277Y24317806D01*
X20625276Y24317806D01*
X20459865Y24336443D01*
X20452942Y24337223D01*
X20446019Y24336443D01*
X20280607Y24317806D01*
X20280604Y24317806D01*
X20273687Y24317026D01*
X20267124Y24314730D01*
X20267117Y24314728D01*
X20109985Y24259745D01*
X20109978Y24259743D01*
X20103420Y24257447D01*
X20097532Y24253748D01*
X20097529Y24253746D01*
X19956580Y24165182D01*
X19956575Y24165179D01*
X19950680Y24161474D01*
X19945755Y24156550D01*
X19945751Y24156546D01*
X19828054Y24038849D01*
X19828050Y24038845D01*
X19823126Y24033920D01*
X19819421Y24028025D01*
X19819418Y24028020D01*
X19730854Y23887071D01*
X19730852Y23887068D01*
X19727153Y23881180D01*
X19724857Y23874622D01*
X19724855Y23874615D01*
X19669872Y23717483D01*
X19669870Y23717476D01*
X19667574Y23710913D01*
X19666794Y23703996D01*
X19666794Y23703993D01*
X19661445Y23656514D01*
X19647377Y23531658D01*
X8904263Y23531658D01*
X8907473Y23560146D01*
X8887276Y23739401D01*
X8877809Y23766457D01*
X8871868Y23783436D01*
X8865690Y23838274D01*
X8883916Y23890362D01*
X8896047Y23909668D01*
X8952965Y24000252D01*
X9012544Y24170519D01*
X9032741Y24349774D01*
X9028817Y24384600D01*
X15949635Y24384600D01*
X15950415Y24377677D01*
X15966290Y24236776D01*
X15969832Y24205345D01*
X15972128Y24198781D01*
X15972130Y24198776D01*
X16027113Y24041644D01*
X16029411Y24035078D01*
X16033112Y24029188D01*
X16092070Y23935356D01*
X16125384Y23882338D01*
X16252938Y23754784D01*
X16405678Y23658811D01*
X16575945Y23599232D01*
X16755200Y23579035D01*
X16934455Y23599232D01*
X17104722Y23658811D01*
X17257462Y23754784D01*
X17385016Y23882338D01*
X17480989Y24035078D01*
X17540568Y24205345D01*
X17560765Y24384600D01*
X17540568Y24563855D01*
X17480989Y24734122D01*
X17385016Y24886862D01*
X17257462Y25014416D01*
X17104722Y25110389D01*
X17098159Y25112686D01*
X17098156Y25112687D01*
X16941024Y25167670D01*
X16941019Y25167672D01*
X16934455Y25169968D01*
X16927535Y25170748D01*
X16927534Y25170748D01*
X16762123Y25189385D01*
X16755200Y25190165D01*
X16748277Y25189385D01*
X16582865Y25170748D01*
X16582862Y25170748D01*
X16575945Y25169968D01*
X16569382Y25167672D01*
X16569375Y25167670D01*
X16412243Y25112687D01*
X16412236Y25112685D01*
X16405678Y25110389D01*
X16399790Y25106690D01*
X16399787Y25106688D01*
X16258838Y25018124D01*
X16258833Y25018121D01*
X16252938Y25014416D01*
X16248013Y25009492D01*
X16248009Y25009488D01*
X16130312Y24891791D01*
X16130308Y24891787D01*
X16125384Y24886862D01*
X16121679Y24880967D01*
X16121676Y24880962D01*
X16033112Y24740013D01*
X16033110Y24740010D01*
X16029411Y24734122D01*
X16027115Y24727564D01*
X16027113Y24727557D01*
X15972130Y24570425D01*
X15972128Y24570418D01*
X15969832Y24563855D01*
X15949635Y24384600D01*
X9028817Y24384600D01*
X9012544Y24529029D01*
X8952965Y24699296D01*
X8856992Y24852036D01*
X8729438Y24979590D01*
X8706186Y24994200D01*
X8582588Y25071862D01*
X8576698Y25075563D01*
X8570135Y25077860D01*
X8570132Y25077861D01*
X8413000Y25132844D01*
X8412995Y25132846D01*
X8406431Y25135142D01*
X8399511Y25135922D01*
X8399510Y25135922D01*
X8234099Y25154559D01*
X8227176Y25155339D01*
X8220253Y25154559D01*
X8062166Y25136748D01*
X7994479Y25148249D01*
X7943287Y25194000D01*
X7924283Y25259975D01*
X7942051Y25321636D01*
X7941633Y25321837D01*
X7942819Y25324302D01*
X7943294Y25325947D01*
X7944656Y25328115D01*
X7948358Y25334006D01*
X8007937Y25504273D01*
X8028134Y25683528D01*
X8007937Y25862783D01*
X7948358Y26033050D01*
X7852385Y26185790D01*
X7724831Y26313344D01*
X7572091Y26409317D01*
X7565528Y26411614D01*
X7565525Y26411615D01*
X7408393Y26466598D01*
X7408388Y26466600D01*
X7401824Y26468896D01*
X7394904Y26469676D01*
X7394903Y26469676D01*
X7229492Y26488313D01*
X7222569Y26489093D01*
X7215646Y26488313D01*
X7050234Y26469676D01*
X7050231Y26469676D01*
X7043314Y26468896D01*
X7036751Y26466600D01*
X7036744Y26466598D01*
X6879612Y26411615D01*
X6879605Y26411613D01*
X6873047Y26409317D01*
X6867159Y26405618D01*
X6867156Y26405616D01*
X6726207Y26317052D01*
X6726202Y26317049D01*
X6720307Y26313344D01*
X6715381Y26308419D01*
X6715382Y26308419D01*
X6608576Y26201613D01*
X6562149Y26172359D01*
X6507643Y26166005D01*
X6494376Y26167432D01*
X6473273Y26169700D01*
X6469951Y26169700D01*
X5380569Y26169700D01*
X5319373Y26185852D01*
X5274121Y26230102D01*
X5256600Y26290920D01*
X5271376Y26352462D01*
X5314600Y26398695D01*
X5316150Y26399670D01*
X5338563Y26413752D01*
X5466117Y26541306D01*
X5562090Y26694046D01*
X5621669Y26864313D01*
X5641866Y27043568D01*
X5621669Y27222823D01*
X5619368Y27229400D01*
X12190435Y27229400D01*
X12191215Y27222477D01*
X12207703Y27076135D01*
X12210632Y27050145D01*
X12212928Y27043581D01*
X12212930Y27043576D01*
X12267913Y26886444D01*
X12270211Y26879878D01*
X12366184Y26727138D01*
X12493738Y26599584D01*
X12646478Y26503611D01*
X12816745Y26444032D01*
X12996000Y26423835D01*
X13175255Y26444032D01*
X13345522Y26503611D01*
X13498262Y26599584D01*
X13625816Y26727138D01*
X13721789Y26879878D01*
X13781368Y27050145D01*
X13801565Y27229400D01*
X13781368Y27408655D01*
X13721789Y27578922D01*
X13625816Y27731662D01*
X13498262Y27859216D01*
X13345522Y27955189D01*
X13338959Y27957486D01*
X13338956Y27957487D01*
X13181824Y28012470D01*
X13181819Y28012472D01*
X13175255Y28014768D01*
X13168335Y28015548D01*
X13168334Y28015548D01*
X13002923Y28034185D01*
X12996000Y28034965D01*
X12989077Y28034185D01*
X12823665Y28015548D01*
X12823662Y28015548D01*
X12816745Y28014768D01*
X12810182Y28012472D01*
X12810175Y28012470D01*
X12653043Y27957487D01*
X12653036Y27957485D01*
X12646478Y27955189D01*
X12640590Y27951490D01*
X12640587Y27951488D01*
X12499638Y27862924D01*
X12499633Y27862921D01*
X12493738Y27859216D01*
X12488813Y27854292D01*
X12488809Y27854288D01*
X12371112Y27736591D01*
X12371108Y27736587D01*
X12366184Y27731662D01*
X12362479Y27725767D01*
X12362476Y27725762D01*
X12273912Y27584813D01*
X12273910Y27584810D01*
X12270211Y27578922D01*
X12267915Y27572364D01*
X12267913Y27572357D01*
X12212930Y27415225D01*
X12212928Y27415218D01*
X12210632Y27408655D01*
X12209852Y27401738D01*
X12209852Y27401735D01*
X12206346Y27370617D01*
X12190435Y27229400D01*
X5619368Y27229400D01*
X5562090Y27393090D01*
X5466117Y27545830D01*
X5338563Y27673384D01*
X5185823Y27769357D01*
X5179260Y27771654D01*
X5179257Y27771655D01*
X5022125Y27826638D01*
X5022120Y27826640D01*
X5015556Y27828936D01*
X5008636Y27829716D01*
X5008635Y27829716D01*
X4843224Y27848353D01*
X4836301Y27849133D01*
X4829378Y27848353D01*
X4663966Y27829716D01*
X4663963Y27829716D01*
X4657046Y27828936D01*
X4650483Y27826640D01*
X4650476Y27826638D01*
X4493344Y27771655D01*
X4493337Y27771653D01*
X4486779Y27769357D01*
X4480891Y27765658D01*
X4480888Y27765656D01*
X4339939Y27677092D01*
X4339934Y27677089D01*
X4334039Y27673384D01*
X4329114Y27668460D01*
X4329110Y27668456D01*
X4211413Y27550759D01*
X4211409Y27550755D01*
X4206485Y27545830D01*
X4202780Y27539935D01*
X4202777Y27539930D01*
X4114213Y27398981D01*
X4114211Y27398978D01*
X4110512Y27393090D01*
X4108216Y27386532D01*
X4108214Y27386525D01*
X4053231Y27229393D01*
X4053229Y27229386D01*
X4050933Y27222823D01*
X4050153Y27215906D01*
X4050153Y27215903D01*
X4034961Y27081063D01*
X4030736Y27043568D01*
X4050933Y26864313D01*
X4053229Y26857749D01*
X4053231Y26857744D01*
X4100657Y26722210D01*
X4110512Y26694046D01*
X4206485Y26541306D01*
X4334039Y26413752D01*
X4486779Y26317779D01*
X4657046Y26258200D01*
X4667788Y26256990D01*
X4722845Y26236839D01*
X4762491Y26193644D01*
X4777860Y26137063D01*
X4765517Y26079746D01*
X4728220Y26034507D01*
X4724953Y26032062D01*
X4724946Y26032056D01*
X4717854Y26026746D01*
X4712544Y26019654D01*
X4712537Y26019646D01*
X4655614Y25943606D01*
X4601464Y25902416D01*
X4533732Y25895997D01*
X4472809Y25926281D01*
X4466066Y25932428D01*
X4461832Y25936288D01*
X4456962Y25939303D01*
X4456960Y25939305D01*
X4281486Y26047953D01*
X4281485Y26047954D01*
X4276610Y26050972D01*
X4271263Y26053044D01*
X4271260Y26053045D01*
X4078817Y26127598D01*
X4078818Y26127598D01*
X4073469Y26129670D01*
X4067843Y26130722D01*
X4067835Y26130724D01*
X3864955Y26168648D01*
X3864952Y26168649D01*
X3859326Y26169700D01*
X3641474Y26169700D01*
X3635848Y26168649D01*
X3635844Y26168648D01*
X3432964Y26130724D01*
X3432953Y26130722D01*
X3427331Y26129670D01*
X3421984Y26127599D01*
X3421982Y26127598D01*
X3229539Y26053045D01*
X3229532Y26053042D01*
X3224190Y26050972D01*
X3219318Y26047956D01*
X3219313Y26047953D01*
X3043839Y25939305D01*
X3043831Y25939300D01*
X3038968Y25936288D01*
X3034737Y25932432D01*
X3034733Y25932428D01*
X2882213Y25793388D01*
X2882209Y25793384D01*
X2877973Y25789522D01*
X2874520Y25784951D01*
X2874514Y25784943D01*
X2849353Y25751624D01*
X2805671Y25715352D01*
X2750400Y25702352D01*
X2695129Y25715352D01*
X2651447Y25751624D01*
X2626285Y25784943D01*
X2626283Y25784945D01*
X2622827Y25789522D01*
X2461832Y25936288D01*
X2456962Y25939303D01*
X2456960Y25939305D01*
X2281486Y26047953D01*
X2281485Y26047954D01*
X2276610Y26050972D01*
X2271263Y26053044D01*
X2271260Y26053045D01*
X2078817Y26127598D01*
X2078818Y26127598D01*
X2073469Y26129670D01*
X2067843Y26130722D01*
X2067835Y26130724D01*
X1864955Y26168648D01*
X1864952Y26168649D01*
X1859326Y26169700D01*
X1641474Y26169700D01*
X1635848Y26168649D01*
X1635844Y26168648D01*
X1432964Y26130724D01*
X1432953Y26130722D01*
X1427331Y26129670D01*
X1421984Y26127599D01*
X1421982Y26127598D01*
X1229539Y26053045D01*
X1229532Y26053042D01*
X1224190Y26050972D01*
X1219318Y26047956D01*
X1219313Y26047953D01*
X1043839Y25939305D01*
X1043831Y25939300D01*
X1038968Y25936288D01*
X1034737Y25932432D01*
X1034733Y25932428D01*
X882213Y25793388D01*
X882209Y25793384D01*
X877973Y25789522D01*
X874519Y25784949D01*
X874516Y25784945D01*
X812145Y25702352D01*
X746688Y25615672D01*
X744138Y25610552D01*
X744133Y25610543D01*
X652137Y25425790D01*
X652133Y25425782D01*
X649583Y25420659D01*
X648014Y25415147D01*
X648014Y25415145D01*
X603865Y25259975D01*
X589965Y25211123D01*
X589436Y25205418D01*
X589436Y25205416D01*
X580288Y25106688D01*
X569864Y24994200D01*
X500Y24994200D01*
X500Y32055400D01*
X455635Y32055400D01*
X456415Y32048477D01*
X474943Y31884030D01*
X475832Y31876145D01*
X478128Y31869581D01*
X478130Y31869576D01*
X533113Y31712444D01*
X535411Y31705878D01*
X631384Y31553138D01*
X758938Y31425584D01*
X911678Y31329611D01*
X1081945Y31270032D01*
X1261200Y31249835D01*
X1411942Y31266820D01*
X1473275Y31258161D01*
X1522770Y31220913D01*
X1548071Y31164372D01*
X1542865Y31102647D01*
X1532432Y31072831D01*
X1532431Y31072826D01*
X1530132Y31066255D01*
X1509935Y30887000D01*
X1530132Y30707745D01*
X1532428Y30701181D01*
X1532430Y30701176D01*
X1587413Y30544044D01*
X1589711Y30537478D01*
X1604231Y30514370D01*
X1681527Y30391353D01*
X1685684Y30384738D01*
X1813238Y30257184D01*
X1965978Y30161211D01*
X2136245Y30101632D01*
X2315500Y30081435D01*
X2494755Y30101632D01*
X2665022Y30161211D01*
X2817762Y30257184D01*
X2945316Y30384738D01*
X3041289Y30537478D01*
X3100868Y30707745D01*
X3121065Y30887000D01*
X3100868Y31066255D01*
X3041289Y31236522D01*
X2945316Y31389262D01*
X2817762Y31516816D01*
X2811504Y31520748D01*
X2670912Y31609088D01*
X2665022Y31612789D01*
X2658459Y31615086D01*
X2658456Y31615087D01*
X2501324Y31670070D01*
X2501319Y31670072D01*
X2494755Y31672368D01*
X2487835Y31673148D01*
X2487834Y31673148D01*
X2322423Y31691785D01*
X2315500Y31692565D01*
X2308577Y31691785D01*
X2164759Y31675581D01*
X2103422Y31684240D01*
X2053928Y31721490D01*
X2028628Y31778032D01*
X2033834Y31839756D01*
X2046568Y31876145D01*
X2066765Y32055400D01*
X2046568Y32234655D01*
X1986989Y32404922D01*
X1911893Y32524436D01*
X3646045Y32524436D01*
X3646825Y32517513D01*
X3660250Y32398357D01*
X3666242Y32345181D01*
X3668538Y32338617D01*
X3668540Y32338612D01*
X3723523Y32181480D01*
X3725821Y32174914D01*
X3729522Y32169024D01*
X3774326Y32097718D01*
X3821794Y32022174D01*
X3949348Y31894620D01*
X4102088Y31798647D01*
X4272355Y31739068D01*
X4451610Y31718871D01*
X4630865Y31739068D01*
X4801132Y31798647D01*
X4953872Y31894620D01*
X5081426Y32022174D01*
X5177399Y32174914D01*
X5236978Y32345181D01*
X5257175Y32524436D01*
X5236978Y32703691D01*
X5177399Y32873958D01*
X5081426Y33026698D01*
X4953872Y33154252D01*
X4801132Y33250225D01*
X4794569Y33252522D01*
X4794566Y33252523D01*
X4637434Y33307506D01*
X4637429Y33307508D01*
X4630865Y33309804D01*
X4623945Y33310584D01*
X4623944Y33310584D01*
X4458533Y33329221D01*
X4451610Y33330001D01*
X4444687Y33329221D01*
X4279275Y33310584D01*
X4279272Y33310584D01*
X4272355Y33309804D01*
X4265792Y33307508D01*
X4265785Y33307506D01*
X4108653Y33252523D01*
X4108646Y33252521D01*
X4102088Y33250225D01*
X4096200Y33246526D01*
X4096197Y33246524D01*
X3955248Y33157960D01*
X3955243Y33157957D01*
X3949348Y33154252D01*
X3944423Y33149328D01*
X3944419Y33149324D01*
X3826722Y33031627D01*
X3826718Y33031623D01*
X3821794Y33026698D01*
X3818089Y33020803D01*
X3818086Y33020798D01*
X3729522Y32879849D01*
X3729520Y32879846D01*
X3725821Y32873958D01*
X3723525Y32867400D01*
X3723523Y32867393D01*
X3668540Y32710261D01*
X3668538Y32710254D01*
X3666242Y32703691D01*
X3665462Y32696774D01*
X3665462Y32696771D01*
X3658792Y32637568D01*
X3646045Y32524436D01*
X1911893Y32524436D01*
X1891016Y32557662D01*
X1763462Y32685216D01*
X1746961Y32695584D01*
X1616612Y32777488D01*
X1610722Y32781189D01*
X1604159Y32783486D01*
X1604156Y32783487D01*
X1447024Y32838470D01*
X1447019Y32838472D01*
X1440455Y32840768D01*
X1433535Y32841548D01*
X1433534Y32841548D01*
X1268123Y32860185D01*
X1261200Y32860965D01*
X1254277Y32860185D01*
X1088865Y32841548D01*
X1088862Y32841548D01*
X1081945Y32840768D01*
X1075382Y32838472D01*
X1075375Y32838470D01*
X918243Y32783487D01*
X918236Y32783485D01*
X911678Y32781189D01*
X905790Y32777490D01*
X905787Y32777488D01*
X764838Y32688924D01*
X764833Y32688921D01*
X758938Y32685216D01*
X754013Y32680292D01*
X754009Y32680288D01*
X636312Y32562591D01*
X636308Y32562587D01*
X631384Y32557662D01*
X627679Y32551767D01*
X627676Y32551762D01*
X539112Y32410813D01*
X539110Y32410810D01*
X535411Y32404922D01*
X533115Y32398364D01*
X533113Y32398357D01*
X478130Y32241225D01*
X478128Y32241218D01*
X475832Y32234655D01*
X475052Y32227738D01*
X475052Y32227735D01*
X463922Y32128949D01*
X455635Y32055400D01*
X500Y32055400D01*
X500Y34326000D01*
X972341Y34326000D01*
X972813Y34320605D01*
X991171Y34110768D01*
X992937Y34090592D01*
X994336Y34085370D01*
X994337Y34085366D01*
X1052694Y33867570D01*
X1052697Y33867562D01*
X1054097Y33862337D01*
X1056385Y33857430D01*
X1056386Y33857428D01*
X1151678Y33653073D01*
X1151681Y33653067D01*
X1153965Y33648170D01*
X1157064Y33643743D01*
X1157066Y33643741D01*
X1286399Y33459034D01*
X1286402Y33459030D01*
X1289505Y33454599D01*
X1456599Y33287505D01*
X1461031Y33284402D01*
X1461033Y33284400D01*
X1562060Y33213660D01*
X1650170Y33151965D01*
X1655070Y33149680D01*
X1655072Y33149679D01*
X1658006Y33148311D01*
X1864337Y33052097D01*
X1869567Y33050696D01*
X1869569Y33050695D01*
X1879508Y33048032D01*
X2092592Y32990937D01*
X2328000Y32970341D01*
X2563408Y32990937D01*
X2791663Y33052097D01*
X3005830Y33151965D01*
X3199401Y33287505D01*
X3366495Y33454599D01*
X3502035Y33648170D01*
X3601903Y33862337D01*
X3663063Y34090592D01*
X3683659Y34326000D01*
X3670745Y34473600D01*
X4790793Y34473600D01*
X4791573Y34466677D01*
X4809266Y34309640D01*
X4810990Y34294345D01*
X4813286Y34287781D01*
X4813288Y34287776D01*
X4853633Y34172478D01*
X4870569Y34124078D01*
X4966542Y33971338D01*
X5094096Y33843784D01*
X5246836Y33747811D01*
X5417103Y33688232D01*
X5486513Y33680412D01*
X5549937Y33654141D01*
X5589667Y33598149D01*
X5615411Y33524578D01*
X5711384Y33371838D01*
X5838938Y33244284D01*
X5991678Y33148311D01*
X6161945Y33088732D01*
X6341200Y33068535D01*
X6520455Y33088732D01*
X6690722Y33148311D01*
X6843462Y33244284D01*
X6945955Y33346778D01*
X7006040Y33379985D01*
X7074588Y33376136D01*
X7130388Y33336542D01*
X7133784Y33331138D01*
X7261338Y33203584D01*
X7414078Y33107611D01*
X7584345Y33048032D01*
X7763600Y33027835D01*
X7849021Y33037460D01*
X7910354Y33028801D01*
X7959849Y32991553D01*
X7985150Y32935012D01*
X7979944Y32873286D01*
X7957844Y32810128D01*
X7957842Y32810120D01*
X7955545Y32803555D01*
X7954765Y32796638D01*
X7954765Y32796635D01*
X7939031Y32656985D01*
X7935348Y32624300D01*
X7936128Y32617377D01*
X7951934Y32477088D01*
X7955545Y32445045D01*
X7957841Y32438481D01*
X7957843Y32438476D01*
X8007982Y32295188D01*
X8015124Y32274778D01*
X8018825Y32268888D01*
X8106754Y32128949D01*
X8111097Y32122038D01*
X8238651Y31994484D01*
X8391391Y31898511D01*
X8561658Y31838932D01*
X8740913Y31818735D01*
X8920168Y31838932D01*
X8926741Y31841233D01*
X8926745Y31841233D01*
X9049052Y31884030D01*
X9103887Y31890210D01*
X9149346Y31874305D01*
X9149688Y31875015D01*
X9155965Y31871992D01*
X9161857Y31868290D01*
X9332124Y31808711D01*
X9511379Y31788514D01*
X9690634Y31808711D01*
X9860901Y31868290D01*
X10013641Y31964263D01*
X10141195Y32091817D01*
X10164527Y32128951D01*
X10207519Y32170365D01*
X10264883Y32186892D01*
X10323321Y32174700D01*
X10369290Y32136614D01*
X10392136Y32081462D01*
X10386563Y32022026D01*
X10372943Y31983102D01*
X10372940Y31983091D01*
X10370643Y31976525D01*
X10369863Y31969608D01*
X10369863Y31969605D01*
X10351994Y31811010D01*
X10350446Y31797270D01*
X10351226Y31790347D01*
X10360003Y31712444D01*
X10370643Y31618015D01*
X10372897Y31611573D01*
X10371162Y31549727D01*
X10342845Y31501711D01*
X10343450Y31501229D01*
X10340038Y31496952D01*
X10339703Y31496382D01*
X10339118Y31495797D01*
X10339106Y31495783D01*
X10334184Y31490860D01*
X10330480Y31484966D01*
X10330479Y31484964D01*
X10241912Y31344011D01*
X10241910Y31344008D01*
X10238211Y31338120D01*
X10235915Y31331562D01*
X10235913Y31331555D01*
X10180930Y31174423D01*
X10180928Y31174416D01*
X10178632Y31167853D01*
X10177852Y31160936D01*
X10177852Y31160933D01*
X10169198Y31084122D01*
X10158435Y30988598D01*
X10159215Y30981675D01*
X10177654Y30818018D01*
X10178632Y30809343D01*
X10180928Y30802779D01*
X10180930Y30802774D01*
X10233121Y30653621D01*
X10238211Y30639076D01*
X10241910Y30633189D01*
X10241912Y30633185D01*
X10291778Y30553824D01*
X10310004Y30501736D01*
X10303826Y30446899D01*
X10280835Y30381194D01*
X10280832Y30381183D01*
X10278535Y30374617D01*
X10277755Y30367697D01*
X10277755Y30367695D01*
X10273483Y30329779D01*
X10247210Y30266350D01*
X10191217Y30226621D01*
X10122670Y30222772D01*
X10062582Y30255982D01*
X9943604Y30374960D01*
X9938676Y30379888D01*
X9931369Y30384479D01*
X9791826Y30472160D01*
X9785936Y30475861D01*
X9779373Y30478158D01*
X9779370Y30478159D01*
X9622238Y30533142D01*
X9622233Y30533144D01*
X9615669Y30535440D01*
X9608749Y30536220D01*
X9608748Y30536220D01*
X9443337Y30554857D01*
X9436414Y30555637D01*
X9429491Y30554857D01*
X9264082Y30536221D01*
X9264073Y30536220D01*
X9257159Y30535440D01*
X9250593Y30533143D01*
X9250582Y30533140D01*
X9196940Y30514370D01*
X9142103Y30508192D01*
X9090016Y30526418D01*
X9019188Y30570922D01*
X9019180Y30570926D01*
X9013293Y30574625D01*
X9006730Y30576922D01*
X9006727Y30576923D01*
X8849595Y30631906D01*
X8849590Y30631908D01*
X8843026Y30634204D01*
X8836106Y30634984D01*
X8836105Y30634984D01*
X8670694Y30653621D01*
X8663771Y30654401D01*
X8656848Y30653621D01*
X8491436Y30634984D01*
X8491433Y30634984D01*
X8484516Y30634204D01*
X8477953Y30631908D01*
X8477946Y30631906D01*
X8320814Y30576923D01*
X8320807Y30576921D01*
X8314249Y30574625D01*
X8308361Y30570926D01*
X8308358Y30570924D01*
X8167409Y30482360D01*
X8167404Y30482357D01*
X8161509Y30478652D01*
X8156584Y30473728D01*
X8156580Y30473724D01*
X8038883Y30356027D01*
X8038879Y30356023D01*
X8033955Y30351098D01*
X8030250Y30345203D01*
X8030247Y30345198D01*
X7941683Y30204249D01*
X7941681Y30204246D01*
X7937982Y30198358D01*
X7935686Y30191800D01*
X7935684Y30191793D01*
X7880701Y30034661D01*
X7880699Y30034654D01*
X7878403Y30028091D01*
X7877623Y30021174D01*
X7877623Y30021171D01*
X7863637Y29897042D01*
X7858206Y29848836D01*
X7858986Y29841913D01*
X7858986Y29836256D01*
X7849547Y29788803D01*
X7822667Y29748575D01*
X7704089Y29629998D01*
X7704085Y29629994D01*
X7699161Y29625069D01*
X7695456Y29619174D01*
X7695453Y29619169D01*
X7606889Y29478220D01*
X7606887Y29478217D01*
X7603188Y29472329D01*
X7600892Y29465771D01*
X7600890Y29465764D01*
X7545907Y29308632D01*
X7545905Y29308625D01*
X7543609Y29302062D01*
X7542829Y29295147D01*
X7542829Y29295143D01*
X7539398Y29264689D01*
X7516496Y29205687D01*
X7467459Y29165674D01*
X7405063Y29155072D01*
X7345562Y29176645D01*
X7305399Y29223669D01*
X7304191Y29227122D01*
X7208218Y29379862D01*
X7105941Y29482139D01*
X7076580Y29528866D01*
X7070402Y29583701D01*
X7087377Y29734355D01*
X7067180Y29913610D01*
X7007601Y30083877D01*
X6911628Y30236617D01*
X6878742Y30269503D01*
X6846648Y30325091D01*
X6846648Y30389278D01*
X6878739Y30444862D01*
X6971016Y30537138D01*
X7066989Y30689878D01*
X7126568Y30860145D01*
X7146765Y31039400D01*
X7141100Y31089677D01*
X7152600Y31157362D01*
X7198346Y31208553D01*
X7220360Y31222384D01*
X7347914Y31349938D01*
X7443887Y31502678D01*
X7503466Y31672945D01*
X7523663Y31852200D01*
X7503466Y32031455D01*
X7443887Y32201722D01*
X7347914Y32354462D01*
X7220360Y32482016D01*
X7160171Y32519835D01*
X7073510Y32574288D01*
X7067620Y32577989D01*
X7061057Y32580286D01*
X7061054Y32580287D01*
X6903922Y32635270D01*
X6903917Y32635272D01*
X6897353Y32637568D01*
X6890433Y32638348D01*
X6890432Y32638348D01*
X6725021Y32656985D01*
X6718098Y32657765D01*
X6711175Y32656985D01*
X6545763Y32638348D01*
X6545760Y32638348D01*
X6538843Y32637568D01*
X6532280Y32635272D01*
X6532273Y32635270D01*
X6375141Y32580287D01*
X6375134Y32580285D01*
X6368576Y32577989D01*
X6362688Y32574290D01*
X6362685Y32574288D01*
X6221736Y32485724D01*
X6221731Y32485721D01*
X6215836Y32482016D01*
X6210911Y32477092D01*
X6210907Y32477088D01*
X6093210Y32359391D01*
X6093206Y32359387D01*
X6088282Y32354462D01*
X6084577Y32348567D01*
X6084574Y32348562D01*
X5996010Y32207613D01*
X5996008Y32207610D01*
X5992309Y32201722D01*
X5990013Y32195164D01*
X5990011Y32195157D01*
X5935028Y32038025D01*
X5935026Y32038018D01*
X5932730Y32031455D01*
X5931950Y32024538D01*
X5931950Y32024535D01*
X5916895Y31890913D01*
X5912533Y31852200D01*
X5914116Y31838153D01*
X5918198Y31801923D01*
X5906698Y31734240D01*
X5860952Y31683049D01*
X5844834Y31672921D01*
X5838938Y31669216D01*
X5834016Y31664295D01*
X5834012Y31664291D01*
X5716312Y31546591D01*
X5716308Y31546587D01*
X5711384Y31541662D01*
X5707679Y31535767D01*
X5707676Y31535762D01*
X5619112Y31394813D01*
X5619110Y31394810D01*
X5615411Y31388922D01*
X5613115Y31382364D01*
X5613113Y31382357D01*
X5558130Y31225225D01*
X5558128Y31225218D01*
X5555832Y31218655D01*
X5535635Y31039400D01*
X5536415Y31032477D01*
X5551417Y30899325D01*
X5555832Y30860145D01*
X5558128Y30853581D01*
X5558130Y30853576D01*
X5613113Y30696444D01*
X5615411Y30689878D01*
X5711384Y30537138D01*
X5716312Y30532210D01*
X5744269Y30504253D01*
X5776363Y30448666D01*
X5776363Y30384479D01*
X5744270Y30328891D01*
X5651996Y30236617D01*
X5648291Y30230722D01*
X5648288Y30230717D01*
X5559724Y30089768D01*
X5559722Y30089765D01*
X5556023Y30083877D01*
X5553727Y30077319D01*
X5553725Y30077312D01*
X5498742Y29920180D01*
X5498740Y29920173D01*
X5496444Y29913610D01*
X5495664Y29906693D01*
X5495664Y29906690D01*
X5478909Y29757983D01*
X5476247Y29734355D01*
X5477027Y29727434D01*
X5477027Y29727432D01*
X5494919Y29568630D01*
X5496444Y29555100D01*
X5498740Y29548536D01*
X5498742Y29548531D01*
X5548225Y29407117D01*
X5556023Y29384833D01*
X5559724Y29378943D01*
X5631514Y29264689D01*
X5651996Y29232093D01*
X5656924Y29227165D01*
X5754272Y29129817D01*
X5783632Y29083091D01*
X5789811Y29028253D01*
X5783204Y28969614D01*
X5772837Y28877600D01*
X5773617Y28870677D01*
X5789856Y28726545D01*
X5793034Y28698345D01*
X5795330Y28691781D01*
X5795332Y28691776D01*
X5850315Y28534644D01*
X5852613Y28528078D01*
X5856314Y28522188D01*
X5934963Y28397018D01*
X5948586Y28375338D01*
X6076140Y28247784D01*
X6228880Y28151811D01*
X6399147Y28092232D01*
X6578402Y28072035D01*
X6757657Y28092232D01*
X6927924Y28151811D01*
X7080664Y28247784D01*
X7208218Y28375338D01*
X7304191Y28528078D01*
X7363770Y28698345D01*
X7367981Y28735723D01*
X7390880Y28794718D01*
X7439916Y28834733D01*
X7502312Y28845336D01*
X7561813Y28823765D01*
X7601979Y28776739D01*
X7603188Y28773285D01*
X7606886Y28767399D01*
X7606888Y28767396D01*
X7681742Y28648267D01*
X7699161Y28620545D01*
X7826715Y28492991D01*
X7979455Y28397018D01*
X8149722Y28337439D01*
X8328977Y28317242D01*
X8508232Y28337439D01*
X8514805Y28339740D01*
X8514809Y28339740D01*
X8633405Y28381239D01*
X8669705Y28393942D01*
X8738252Y28397791D01*
X8798341Y28364581D01*
X8836138Y28326784D01*
X8988878Y28230811D01*
X9159145Y28171232D01*
X9338400Y28151035D01*
X9517655Y28171232D01*
X9687922Y28230811D01*
X9840662Y28326784D01*
X9968216Y28454338D01*
X10064189Y28607078D01*
X10123768Y28777345D01*
X10143965Y28956600D01*
X10136196Y29025548D01*
X10124548Y29128932D01*
X10123768Y29135855D01*
X10097746Y29210219D01*
X10091568Y29265056D01*
X10109795Y29317145D01*
X10116485Y29327792D01*
X10162203Y29400550D01*
X10221782Y29570817D01*
X10226834Y29615659D01*
X10253105Y29679083D01*
X10309097Y29718813D01*
X10377645Y29722663D01*
X10437734Y29689453D01*
X10560568Y29566620D01*
X10560568Y29566619D01*
X10561641Y29565546D01*
X10561499Y29565405D01*
X10595366Y29521270D01*
X10605365Y29462417D01*
X10586706Y29405711D01*
X10495912Y29261214D01*
X10495908Y29261206D01*
X10492211Y29255322D01*
X10489915Y29248764D01*
X10489913Y29248757D01*
X10434930Y29091625D01*
X10434928Y29091618D01*
X10432632Y29085055D01*
X10431852Y29078138D01*
X10431852Y29078135D01*
X10413662Y28916688D01*
X10412435Y28905800D01*
X10413215Y28898877D01*
X10431598Y28735716D01*
X10432632Y28726545D01*
X10434928Y28719981D01*
X10434930Y28719976D01*
X10474435Y28607078D01*
X10492211Y28556278D01*
X10588184Y28403538D01*
X10715738Y28275984D01*
X10868478Y28180011D01*
X11038745Y28120432D01*
X11218000Y28100235D01*
X11397255Y28120432D01*
X11567522Y28180011D01*
X11720262Y28275984D01*
X11847816Y28403538D01*
X11943789Y28556278D01*
X12003368Y28726545D01*
X12023565Y28905800D01*
X12003368Y29085055D01*
X11978733Y29155457D01*
X14034022Y29155457D01*
X14034802Y29148534D01*
X14049910Y29014440D01*
X14054219Y28976202D01*
X14056515Y28969638D01*
X14056517Y28969633D01*
X14110630Y28814988D01*
X14113798Y28805935D01*
X14209771Y28653195D01*
X14337325Y28525641D01*
X14490065Y28429668D01*
X14660332Y28370089D01*
X14833774Y28350547D01*
X14879870Y28335856D01*
X14916835Y28304644D01*
X14920448Y28300113D01*
X14924152Y28294219D01*
X15051706Y28166665D01*
X15204446Y28070692D01*
X15303535Y28036020D01*
X15350260Y28006661D01*
X15379620Y27959934D01*
X15417510Y27851651D01*
X15417513Y27851644D01*
X15419811Y27845078D01*
X15515784Y27692338D01*
X15643338Y27564784D01*
X15796078Y27468811D01*
X15802644Y27466514D01*
X15802645Y27466513D01*
X15859256Y27446704D01*
X15905983Y27417344D01*
X15935343Y27370617D01*
X15980916Y27240377D01*
X15980920Y27240369D01*
X15983218Y27233803D01*
X16079191Y27081063D01*
X16206745Y26953509D01*
X16359485Y26857536D01*
X16529752Y26797957D01*
X16709007Y26777760D01*
X16888262Y26797957D01*
X17058529Y26857536D01*
X17211269Y26953509D01*
X17338823Y27081063D01*
X17434796Y27233803D01*
X17494375Y27404070D01*
X17513417Y27573072D01*
X17513792Y27576402D01*
X17514572Y27583325D01*
X17494375Y27762580D01*
X17434796Y27932847D01*
X17338823Y28085587D01*
X17211269Y28213141D01*
X17183147Y28230811D01*
X17148291Y28252713D01*
X17058529Y28309114D01*
X16995349Y28331222D01*
X16948622Y28360582D01*
X16919262Y28407309D01*
X16873687Y28537555D01*
X16873686Y28537556D01*
X16871389Y28544122D01*
X16775416Y28696862D01*
X16761076Y28711202D01*
X21272146Y28711202D01*
X21272426Y28705318D01*
X21272426Y28705311D01*
X21281162Y28521934D01*
X21282146Y28501270D01*
X21283535Y28495542D01*
X21283537Y28495533D01*
X21326602Y28318022D01*
X21331696Y28297024D01*
X21334149Y28291653D01*
X21389143Y28171232D01*
X21419004Y28105847D01*
X21422431Y28101034D01*
X21422432Y28101033D01*
X21482830Y28016215D01*
X21540914Y27934648D01*
X21545191Y27930570D01*
X21625193Y27854288D01*
X21693022Y27789614D01*
X21869828Y27675987D01*
X21875311Y27673792D01*
X21875313Y27673791D01*
X22059460Y27600070D01*
X22064943Y27597875D01*
X22271315Y27558100D01*
X23125871Y27558100D01*
X23128825Y27558100D01*
X23285618Y27573072D01*
X23487275Y27632284D01*
X23674082Y27728589D01*
X23839286Y27858508D01*
X23976919Y28017344D01*
X24082004Y28199356D01*
X24150744Y28397967D01*
X24180654Y28605998D01*
X24170654Y28815930D01*
X24121104Y29020176D01*
X24033796Y29211353D01*
X23911886Y29382552D01*
X23866007Y29426297D01*
X23764051Y29523512D01*
X23764049Y29523514D01*
X23759778Y29527586D01*
X23660610Y29591318D01*
X23587944Y29638018D01*
X23587941Y29638020D01*
X23582972Y29641213D01*
X23577492Y29643407D01*
X23577486Y29643410D01*
X23393339Y29717131D01*
X23393332Y29717133D01*
X23387857Y29719325D01*
X23382062Y29720442D01*
X23382055Y29720444D01*
X23187282Y29757983D01*
X23187279Y29757984D01*
X23181485Y29759100D01*
X22323975Y29759100D01*
X22321046Y29758821D01*
X22321039Y29758820D01*
X22173062Y29744690D01*
X22173056Y29744689D01*
X22167182Y29744128D01*
X22161512Y29742464D01*
X22161511Y29742463D01*
X21971187Y29686579D01*
X21971182Y29686578D01*
X21965525Y29684916D01*
X21960284Y29682215D01*
X21960281Y29682213D01*
X21783968Y29591318D01*
X21783964Y29591316D01*
X21778718Y29588611D01*
X21774076Y29584962D01*
X21774072Y29584958D01*
X21618159Y29462346D01*
X21618152Y29462340D01*
X21613514Y29458692D01*
X21609650Y29454233D01*
X21609645Y29454228D01*
X21490862Y29317145D01*
X21475881Y29299856D01*
X21472930Y29294746D01*
X21472928Y29294742D01*
X21373752Y29122965D01*
X21373749Y29122960D01*
X21370796Y29117844D01*
X21368865Y29112265D01*
X21368861Y29112256D01*
X21303987Y28924815D01*
X21303984Y28924806D01*
X21302056Y28919233D01*
X21301216Y28913397D01*
X21301215Y28913389D01*
X21272985Y28717042D01*
X21272984Y28717036D01*
X21272146Y28711202D01*
X16761076Y28711202D01*
X16647862Y28824416D01*
X16495122Y28920389D01*
X16488560Y28922685D01*
X16488548Y28922691D01*
X16396033Y28955063D01*
X16349307Y28984423D01*
X16319946Y29031150D01*
X16282055Y29139436D01*
X16282054Y29139437D01*
X16279757Y29146003D01*
X16183784Y29298743D01*
X16056230Y29426297D01*
X15998858Y29462346D01*
X15909380Y29518569D01*
X15903490Y29522270D01*
X15896927Y29524567D01*
X15896924Y29524568D01*
X15739792Y29579551D01*
X15739787Y29579553D01*
X15733223Y29581849D01*
X15726305Y29582629D01*
X15726303Y29582629D01*
X15559778Y29601392D01*
X15513681Y29616084D01*
X15476715Y29647299D01*
X15473109Y29651821D01*
X15469403Y29657719D01*
X15383935Y29743187D01*
X15351546Y29799898D01*
X15352463Y29865200D01*
X15386433Y29920979D01*
X15436903Y29947952D01*
X15436455Y29949232D01*
X15470149Y29961022D01*
X15606722Y30008811D01*
X15759462Y30104784D01*
X15887016Y30232338D01*
X15982989Y30385078D01*
X16042568Y30555345D01*
X16062765Y30734600D01*
X16045594Y30887000D01*
X18286435Y30887000D01*
X18306632Y30707745D01*
X18308928Y30701181D01*
X18308930Y30701176D01*
X18363913Y30544044D01*
X18366211Y30537478D01*
X18380731Y30514370D01*
X18458027Y30391353D01*
X18462184Y30384738D01*
X18589738Y30257184D01*
X18595638Y30253477D01*
X18595641Y30253475D01*
X18602388Y30249235D01*
X18641335Y30210334D01*
X18659605Y30158407D01*
X18654378Y30110794D01*
X18655380Y30110551D01*
X18653988Y30104818D01*
X18652056Y30099233D01*
X18651215Y30093390D01*
X18651215Y30093386D01*
X18622985Y29897042D01*
X18622984Y29897036D01*
X18622146Y29891202D01*
X18622426Y29885318D01*
X18622426Y29885311D01*
X18629617Y29734355D01*
X18632146Y29681270D01*
X18633535Y29675542D01*
X18633537Y29675533D01*
X18670162Y29524568D01*
X18681696Y29477024D01*
X18684149Y29471653D01*
X18764941Y29294742D01*
X18769004Y29285847D01*
X18772431Y29281034D01*
X18772432Y29281033D01*
X18884991Y29122965D01*
X18890914Y29114648D01*
X18895191Y29110570D01*
X19036112Y28976202D01*
X19043022Y28969614D01*
X19219828Y28855987D01*
X19225311Y28853792D01*
X19225313Y28853791D01*
X19334616Y28810033D01*
X19414943Y28777875D01*
X19621315Y28738100D01*
X19975871Y28738100D01*
X19978825Y28738100D01*
X20135618Y28753072D01*
X20337275Y28812284D01*
X20524082Y28908589D01*
X20689286Y29038508D01*
X20826919Y29197344D01*
X20932004Y29379356D01*
X21000744Y29577967D01*
X21030654Y29785998D01*
X21020654Y29995930D01*
X20971104Y30200176D01*
X20883796Y30391353D01*
X20761886Y30562552D01*
X20665557Y30654401D01*
X20614051Y30703512D01*
X20614049Y30703514D01*
X20609778Y30707586D01*
X20461670Y30802770D01*
X20437944Y30818018D01*
X20437941Y30818020D01*
X20432972Y30821213D01*
X20427492Y30823407D01*
X20427486Y30823410D01*
X20243339Y30897131D01*
X20243332Y30897133D01*
X20237857Y30899325D01*
X20232062Y30900442D01*
X20232055Y30900444D01*
X20037282Y30937983D01*
X20037279Y30937984D01*
X20031485Y30939100D01*
X20025582Y30939100D01*
X20002508Y30939100D01*
X19944567Y30953470D01*
X19900055Y30993248D01*
X19879288Y31049215D01*
X19879221Y31049806D01*
X19877368Y31066255D01*
X19817789Y31236522D01*
X19721816Y31389262D01*
X19594262Y31516816D01*
X19588004Y31520748D01*
X19447412Y31609088D01*
X19441522Y31612789D01*
X19434959Y31615086D01*
X19434956Y31615087D01*
X19277824Y31670070D01*
X19277819Y31670072D01*
X19271255Y31672368D01*
X19264335Y31673148D01*
X19264334Y31673148D01*
X19098923Y31691785D01*
X19092000Y31692565D01*
X19085077Y31691785D01*
X18919665Y31673148D01*
X18919662Y31673148D01*
X18912745Y31672368D01*
X18906182Y31670072D01*
X18906175Y31670070D01*
X18749043Y31615087D01*
X18749036Y31615085D01*
X18742478Y31612789D01*
X18736590Y31609090D01*
X18736587Y31609088D01*
X18595638Y31520524D01*
X18595633Y31520521D01*
X18589738Y31516816D01*
X18584813Y31511892D01*
X18584809Y31511888D01*
X18467112Y31394191D01*
X18467108Y31394187D01*
X18462184Y31389262D01*
X18458479Y31383367D01*
X18458476Y31383362D01*
X18369912Y31242413D01*
X18369910Y31242410D01*
X18366211Y31236522D01*
X18363915Y31229964D01*
X18363913Y31229957D01*
X18308930Y31072825D01*
X18308928Y31072818D01*
X18306632Y31066255D01*
X18286435Y30887000D01*
X16045594Y30887000D01*
X16042568Y30913855D01*
X15982989Y31084122D01*
X15887016Y31236862D01*
X15759462Y31364416D01*
X15712075Y31394191D01*
X15612612Y31456688D01*
X15606722Y31460389D01*
X15600159Y31462686D01*
X15600156Y31462687D01*
X15443024Y31517670D01*
X15443019Y31517672D01*
X15436455Y31519968D01*
X15429535Y31520748D01*
X15429534Y31520748D01*
X15264123Y31539385D01*
X15257200Y31540165D01*
X15250277Y31539385D01*
X15084865Y31520748D01*
X15084862Y31520748D01*
X15077945Y31519968D01*
X15071382Y31517672D01*
X15071375Y31517670D01*
X14914243Y31462687D01*
X14914236Y31462685D01*
X14907678Y31460389D01*
X14901790Y31456690D01*
X14901787Y31456688D01*
X14760838Y31368124D01*
X14760833Y31368121D01*
X14754938Y31364416D01*
X14750013Y31359492D01*
X14750009Y31359488D01*
X14632312Y31241791D01*
X14632308Y31241787D01*
X14627384Y31236862D01*
X14623679Y31230967D01*
X14623676Y31230962D01*
X14535112Y31090013D01*
X14535110Y31090010D01*
X14531411Y31084122D01*
X14529115Y31077564D01*
X14529113Y31077557D01*
X14474130Y30920425D01*
X14474128Y30920418D01*
X14471832Y30913855D01*
X14471052Y30906938D01*
X14471052Y30906935D01*
X14460836Y30816264D01*
X14451635Y30734600D01*
X14452415Y30727677D01*
X14470076Y30570924D01*
X14471832Y30555345D01*
X14474128Y30548781D01*
X14474130Y30548776D01*
X14510490Y30444866D01*
X14531411Y30385078D01*
X14627384Y30232338D01*
X14632312Y30227410D01*
X14712851Y30146871D01*
X14745239Y30090166D01*
X14744326Y30024870D01*
X14710366Y29969092D01*
X14659885Y29942102D01*
X14660332Y29940825D01*
X14496630Y29883544D01*
X14496623Y29883542D01*
X14490065Y29881246D01*
X14484177Y29877547D01*
X14484174Y29877545D01*
X14343225Y29788981D01*
X14343220Y29788978D01*
X14337325Y29785273D01*
X14332400Y29780349D01*
X14332396Y29780345D01*
X14214699Y29662648D01*
X14214695Y29662644D01*
X14209771Y29657719D01*
X14206066Y29651824D01*
X14206063Y29651819D01*
X14117499Y29510870D01*
X14117497Y29510867D01*
X14113798Y29504979D01*
X14111502Y29498421D01*
X14111500Y29498414D01*
X14056517Y29341282D01*
X14056515Y29341275D01*
X14054219Y29334712D01*
X14053439Y29327795D01*
X14053439Y29327792D01*
X14039318Y29202459D01*
X14034022Y29155457D01*
X11978733Y29155457D01*
X11943789Y29255322D01*
X11847816Y29408062D01*
X11720262Y29535616D01*
X11720402Y29535757D01*
X11686536Y29579895D01*
X11676537Y29638748D01*
X11695197Y29695452D01*
X11785987Y29839943D01*
X11785988Y29839946D01*
X11789692Y29845840D01*
X11849271Y30016107D01*
X11869468Y30195362D01*
X11849271Y30374617D01*
X11789692Y30544884D01*
X11736122Y30630139D01*
X11717897Y30682227D01*
X11724075Y30737064D01*
X11749368Y30809343D01*
X11769565Y30988598D01*
X11749368Y31167853D01*
X11747114Y31174293D01*
X11748850Y31236154D01*
X11777168Y31284154D01*
X11776561Y31284638D01*
X11779997Y31288947D01*
X11780330Y31289511D01*
X11780382Y31289564D01*
X11785827Y31295008D01*
X11881800Y31447748D01*
X11941379Y31618015D01*
X11961576Y31797270D01*
X11959157Y31818735D01*
X11942159Y31969602D01*
X11941379Y31976525D01*
X11921095Y32034491D01*
X11914917Y32089329D01*
X11933144Y32141418D01*
X11958317Y32181480D01*
X11994617Y32239250D01*
X12054196Y32409517D01*
X12074393Y32588772D01*
X12054196Y32768027D01*
X11994617Y32938294D01*
X11898644Y33091034D01*
X11771090Y33218588D01*
X11618350Y33314561D01*
X11611788Y33316857D01*
X11611776Y33316863D01*
X11587379Y33325400D01*
X12393635Y33325400D01*
X12394415Y33318477D01*
X12412918Y33154252D01*
X12413832Y33146145D01*
X12416128Y33139581D01*
X12416130Y33139576D01*
X12468306Y32990466D01*
X12473411Y32975878D01*
X12569384Y32823138D01*
X12696938Y32695584D01*
X12849678Y32599611D01*
X13019945Y32540032D01*
X13199200Y32519835D01*
X13378455Y32540032D01*
X13548722Y32599611D01*
X13701462Y32695584D01*
X13829016Y32823138D01*
X13924989Y32975878D01*
X13984568Y33146145D01*
X14004765Y33325400D01*
X13984568Y33504655D01*
X13924989Y33674922D01*
X13829016Y33827662D01*
X13701462Y33955216D01*
X13548722Y34051189D01*
X13542159Y34053486D01*
X13542156Y34053487D01*
X13385024Y34108470D01*
X13385019Y34108472D01*
X13378455Y34110768D01*
X13371535Y34111548D01*
X13371534Y34111548D01*
X13206123Y34130185D01*
X13199200Y34130965D01*
X13192277Y34130185D01*
X13026865Y34111548D01*
X13026862Y34111548D01*
X13019945Y34110768D01*
X13013382Y34108472D01*
X13013375Y34108470D01*
X12856243Y34053487D01*
X12856236Y34053485D01*
X12849678Y34051189D01*
X12843790Y34047490D01*
X12843787Y34047488D01*
X12702838Y33958924D01*
X12702833Y33958921D01*
X12696938Y33955216D01*
X12692013Y33950292D01*
X12692009Y33950288D01*
X12574312Y33832591D01*
X12574308Y33832587D01*
X12569384Y33827662D01*
X12565679Y33821767D01*
X12565676Y33821762D01*
X12477112Y33680813D01*
X12477110Y33680810D01*
X12473411Y33674922D01*
X12471115Y33668364D01*
X12471113Y33668357D01*
X12416130Y33511225D01*
X12416128Y33511218D01*
X12413832Y33504655D01*
X12413052Y33497738D01*
X12413052Y33497735D01*
X12399302Y33375695D01*
X12393635Y33325400D01*
X11587379Y33325400D01*
X11508468Y33353012D01*
X11458522Y33385714D01*
X11429647Y33437965D01*
X11428579Y33495219D01*
X11429154Y33496861D01*
X11449351Y33676116D01*
X11429154Y33855371D01*
X11369575Y34025638D01*
X11273602Y34178378D01*
X11146048Y34305932D01*
X11008753Y34392200D01*
X14540235Y34392200D01*
X14541015Y34385277D01*
X14551260Y34294345D01*
X14560432Y34212945D01*
X14562728Y34206381D01*
X14562730Y34206376D01*
X14617713Y34049244D01*
X14620011Y34042678D01*
X14623712Y34036788D01*
X14678063Y33950288D01*
X14715984Y33889938D01*
X14843538Y33762384D01*
X14996278Y33666411D01*
X15166545Y33606832D01*
X15345800Y33586635D01*
X15525055Y33606832D01*
X15695322Y33666411D01*
X15848062Y33762384D01*
X15975616Y33889938D01*
X16071589Y34042678D01*
X16120081Y34181260D01*
X16688118Y34181260D01*
X16688898Y34174337D01*
X16698922Y34085366D01*
X16708315Y34002005D01*
X16710611Y33995441D01*
X16710613Y33995436D01*
X16764976Y33840077D01*
X16767894Y33831738D01*
X16863867Y33678998D01*
X16991421Y33551444D01*
X17144161Y33455471D01*
X17314428Y33395892D01*
X17493683Y33375695D01*
X17672938Y33395892D01*
X17843205Y33455471D01*
X17920300Y33503915D01*
X17979325Y33522726D01*
X18030746Y33512493D01*
X18031278Y33514011D01*
X18201545Y33454432D01*
X18380800Y33434235D01*
X18560055Y33454432D01*
X18730322Y33514011D01*
X18883062Y33609984D01*
X18996517Y33723440D01*
X19043637Y33752935D01*
X19098915Y33758878D01*
X19151233Y33740071D01*
X19219828Y33695987D01*
X19225311Y33693792D01*
X19225313Y33693791D01*
X19409460Y33620070D01*
X19414943Y33617875D01*
X19621315Y33578100D01*
X19975871Y33578100D01*
X19978825Y33578100D01*
X20135618Y33593072D01*
X20337275Y33652284D01*
X20524082Y33748589D01*
X20689286Y33878508D01*
X20826919Y34037344D01*
X20932004Y34219356D01*
X21000744Y34417967D01*
X21030654Y34625998D01*
X21020654Y34835930D01*
X20971104Y35040176D01*
X20883796Y35231353D01*
X20761886Y35402552D01*
X20659648Y35500035D01*
X20614051Y35543512D01*
X20614049Y35543514D01*
X20609778Y35547586D01*
X20510610Y35611318D01*
X20437944Y35658018D01*
X20437941Y35658020D01*
X20432972Y35661213D01*
X20427492Y35663407D01*
X20427486Y35663410D01*
X20243339Y35737131D01*
X20243332Y35737133D01*
X20237857Y35739325D01*
X20232062Y35740442D01*
X20232055Y35740444D01*
X20037282Y35777983D01*
X20037279Y35777984D01*
X20031485Y35779100D01*
X19673975Y35779100D01*
X19671046Y35778821D01*
X19671039Y35778820D01*
X19523062Y35764690D01*
X19523056Y35764689D01*
X19517182Y35764128D01*
X19511512Y35762464D01*
X19511511Y35762463D01*
X19321187Y35706579D01*
X19321182Y35706578D01*
X19315525Y35704916D01*
X19310284Y35702215D01*
X19310281Y35702213D01*
X19133968Y35611318D01*
X19133964Y35611316D01*
X19128718Y35608611D01*
X19124076Y35604962D01*
X19124072Y35604958D01*
X18968159Y35482346D01*
X18968152Y35482340D01*
X18963514Y35478692D01*
X18959650Y35474233D01*
X18959645Y35474228D01*
X18829747Y35324318D01*
X18825881Y35319856D01*
X18822930Y35314746D01*
X18822928Y35314742D01*
X18743731Y35177568D01*
X18720796Y35137844D01*
X18718863Y35132262D01*
X18718860Y35132253D01*
X18708995Y35103751D01*
X18676365Y35053603D01*
X18624051Y35024572D01*
X18565018Y35023432D01*
X18560055Y35025168D01*
X18553143Y35025947D01*
X18553138Y35025948D01*
X18387723Y35044585D01*
X18380800Y35045365D01*
X18373877Y35044585D01*
X18208465Y35025948D01*
X18208462Y35025948D01*
X18201545Y35025168D01*
X18194982Y35022872D01*
X18194975Y35022870D01*
X18037843Y34967887D01*
X18037836Y34967885D01*
X18031278Y34965589D01*
X18025394Y34961893D01*
X18025388Y34961889D01*
X17954180Y34917146D01*
X17895160Y34898336D01*
X17843735Y34908566D01*
X17843205Y34907049D01*
X17679507Y34964330D01*
X17679502Y34964332D01*
X17672938Y34966628D01*
X17666018Y34967408D01*
X17666017Y34967408D01*
X17500606Y34986045D01*
X17493683Y34986825D01*
X17486760Y34986045D01*
X17321348Y34967408D01*
X17321345Y34967408D01*
X17314428Y34966628D01*
X17307865Y34964332D01*
X17307858Y34964330D01*
X17150726Y34909347D01*
X17150719Y34909345D01*
X17144161Y34907049D01*
X17138273Y34903350D01*
X17138270Y34903348D01*
X16997321Y34814784D01*
X16997316Y34814781D01*
X16991421Y34811076D01*
X16986496Y34806152D01*
X16986492Y34806148D01*
X16868795Y34688451D01*
X16868791Y34688447D01*
X16863867Y34683522D01*
X16860162Y34677627D01*
X16860159Y34677622D01*
X16771595Y34536673D01*
X16771593Y34536670D01*
X16767894Y34530782D01*
X16765598Y34524224D01*
X16765596Y34524217D01*
X16710613Y34367085D01*
X16710611Y34367078D01*
X16708315Y34360515D01*
X16707535Y34353598D01*
X16707535Y34353595D01*
X16700119Y34287776D01*
X16688118Y34181260D01*
X16120081Y34181260D01*
X16131168Y34212945D01*
X16151365Y34392200D01*
X16131168Y34571455D01*
X16071589Y34741722D01*
X15975616Y34894462D01*
X15848062Y35022016D01*
X15841804Y35025948D01*
X15717982Y35103751D01*
X15695322Y35117989D01*
X15688759Y35120286D01*
X15688756Y35120287D01*
X15531624Y35175270D01*
X15531619Y35175272D01*
X15525055Y35177568D01*
X15518135Y35178348D01*
X15518134Y35178348D01*
X15352723Y35196985D01*
X15345800Y35197765D01*
X15338877Y35196985D01*
X15173465Y35178348D01*
X15173462Y35178348D01*
X15166545Y35177568D01*
X15159982Y35175272D01*
X15159975Y35175270D01*
X15002843Y35120287D01*
X15002836Y35120285D01*
X14996278Y35117989D01*
X14990390Y35114290D01*
X14990387Y35114288D01*
X14849438Y35025724D01*
X14849433Y35025721D01*
X14843538Y35022016D01*
X14838613Y35017092D01*
X14838609Y35017088D01*
X14720912Y34899391D01*
X14720908Y34899387D01*
X14715984Y34894462D01*
X14712279Y34888567D01*
X14712276Y34888562D01*
X14623712Y34747613D01*
X14623710Y34747610D01*
X14620011Y34741722D01*
X14617715Y34735164D01*
X14617713Y34735157D01*
X14562730Y34578025D01*
X14562728Y34578018D01*
X14560432Y34571455D01*
X14559652Y34564538D01*
X14559652Y34564535D01*
X14547681Y34458288D01*
X14540235Y34392200D01*
X11008753Y34392200D01*
X10993308Y34401905D01*
X10986745Y34404202D01*
X10986742Y34404203D01*
X10829610Y34459186D01*
X10829605Y34459188D01*
X10823041Y34461484D01*
X10816121Y34462264D01*
X10816120Y34462264D01*
X10650709Y34480901D01*
X10643786Y34481681D01*
X10636863Y34480901D01*
X10471447Y34462264D01*
X10471440Y34462263D01*
X10464531Y34461484D01*
X10457969Y34459189D01*
X10456891Y34458942D01*
X10408533Y34457588D01*
X10363336Y34474841D01*
X10217592Y34566418D01*
X10217588Y34566420D01*
X10211701Y34570119D01*
X10205138Y34572416D01*
X10205135Y34572417D01*
X10048003Y34627400D01*
X10047998Y34627402D01*
X10041434Y34629698D01*
X10034514Y34630478D01*
X10034513Y34630478D01*
X9869102Y34649115D01*
X9862179Y34649895D01*
X9855256Y34649115D01*
X9689844Y34630478D01*
X9689841Y34630478D01*
X9682924Y34629698D01*
X9676359Y34627401D01*
X9676351Y34627399D01*
X9520341Y34572809D01*
X9465504Y34566631D01*
X9413417Y34584856D01*
X9388222Y34600687D01*
X9388216Y34600690D01*
X9382329Y34604389D01*
X9375766Y34606686D01*
X9375763Y34606687D01*
X9218631Y34661670D01*
X9218626Y34661672D01*
X9212062Y34663968D01*
X9205142Y34664748D01*
X9205141Y34664748D01*
X9039730Y34683385D01*
X9032807Y34684165D01*
X9025884Y34683385D01*
X8860472Y34664748D01*
X8860469Y34664748D01*
X8853552Y34663968D01*
X8846989Y34661672D01*
X8846982Y34661670D01*
X8689850Y34606687D01*
X8689843Y34606685D01*
X8683285Y34604389D01*
X8677397Y34600690D01*
X8677394Y34600688D01*
X8536445Y34512124D01*
X8536440Y34512121D01*
X8530545Y34508416D01*
X8525619Y34503491D01*
X8525620Y34503491D01*
X8463284Y34441155D01*
X8407696Y34409062D01*
X8343509Y34409062D01*
X8287922Y34441156D01*
X8270790Y34458288D01*
X8265862Y34463216D01*
X8188025Y34512124D01*
X8119012Y34555488D01*
X8113122Y34559189D01*
X8106559Y34561486D01*
X8106556Y34561487D01*
X7949424Y34616470D01*
X7949419Y34616472D01*
X7942855Y34618768D01*
X7935935Y34619548D01*
X7935934Y34619548D01*
X7770523Y34638185D01*
X7763600Y34638965D01*
X7756677Y34638185D01*
X7591265Y34619548D01*
X7591262Y34619548D01*
X7584345Y34618768D01*
X7577782Y34616472D01*
X7577775Y34616470D01*
X7420643Y34561487D01*
X7420636Y34561485D01*
X7414078Y34559189D01*
X7408190Y34555490D01*
X7408187Y34555488D01*
X7267238Y34466924D01*
X7267233Y34466921D01*
X7261338Y34463216D01*
X7256413Y34458292D01*
X7256413Y34458291D01*
X7158847Y34360725D01*
X7098758Y34327516D01*
X7030210Y34331366D01*
X6974411Y34370958D01*
X6971016Y34376362D01*
X6843462Y34503916D01*
X6836300Y34508416D01*
X6696612Y34596188D01*
X6690722Y34599889D01*
X6684160Y34602185D01*
X6684148Y34602191D01*
X6563033Y34644571D01*
X6507040Y34684300D01*
X6480768Y34747729D01*
X6492268Y34815414D01*
X6538015Y34866605D01*
X6668493Y34948589D01*
X6796047Y35076143D01*
X6892020Y35228883D01*
X6951599Y35399150D01*
X6971796Y35578405D01*
X6951599Y35757660D01*
X6897872Y35911202D01*
X21272146Y35911202D01*
X21272426Y35905318D01*
X21272426Y35905311D01*
X21280280Y35740444D01*
X21282146Y35701270D01*
X21283535Y35695542D01*
X21283537Y35695533D01*
X21321501Y35539048D01*
X21331696Y35497024D01*
X21334149Y35491653D01*
X21414941Y35314742D01*
X21419004Y35305847D01*
X21422431Y35301034D01*
X21422432Y35301033D01*
X21493500Y35201231D01*
X21540914Y35134648D01*
X21573318Y35103751D01*
X21678113Y35003829D01*
X21693022Y34989614D01*
X21869828Y34875987D01*
X21875311Y34873792D01*
X21875313Y34873791D01*
X22022706Y34814784D01*
X22064943Y34797875D01*
X22271315Y34758100D01*
X23125871Y34758100D01*
X23128825Y34758100D01*
X23285618Y34773072D01*
X23487275Y34832284D01*
X23674082Y34928589D01*
X23839286Y35058508D01*
X23976919Y35217344D01*
X24082004Y35399356D01*
X24150744Y35597967D01*
X24180654Y35805998D01*
X24170654Y36015930D01*
X24121104Y36220176D01*
X24033796Y36411353D01*
X23911886Y36582552D01*
X23852932Y36638764D01*
X23764051Y36723512D01*
X23764049Y36723514D01*
X23759778Y36727586D01*
X23632270Y36809531D01*
X23587944Y36838018D01*
X23587941Y36838020D01*
X23582972Y36841213D01*
X23577492Y36843407D01*
X23577486Y36843410D01*
X23393339Y36917131D01*
X23393332Y36917133D01*
X23387857Y36919325D01*
X23382062Y36920442D01*
X23382055Y36920444D01*
X23187282Y36957983D01*
X23187279Y36957984D01*
X23181485Y36959100D01*
X22323975Y36959100D01*
X22321046Y36958821D01*
X22321039Y36958820D01*
X22173062Y36944690D01*
X22173056Y36944689D01*
X22167182Y36944128D01*
X22161512Y36942464D01*
X22161511Y36942463D01*
X21971187Y36886579D01*
X21971182Y36886578D01*
X21965525Y36884916D01*
X21960284Y36882215D01*
X21960281Y36882213D01*
X21783968Y36791318D01*
X21783964Y36791316D01*
X21778718Y36788611D01*
X21774076Y36784962D01*
X21774072Y36784958D01*
X21618159Y36662346D01*
X21618152Y36662340D01*
X21613514Y36658692D01*
X21609650Y36654233D01*
X21609645Y36654228D01*
X21514306Y36544201D01*
X21475881Y36499856D01*
X21472930Y36494746D01*
X21472928Y36494742D01*
X21373752Y36322965D01*
X21373749Y36322960D01*
X21370796Y36317844D01*
X21368865Y36312265D01*
X21368861Y36312256D01*
X21303987Y36124815D01*
X21303984Y36124806D01*
X21302056Y36119233D01*
X21301216Y36113397D01*
X21301215Y36113389D01*
X21272985Y35917042D01*
X21272984Y35917036D01*
X21272146Y35911202D01*
X6897872Y35911202D01*
X6892020Y35927927D01*
X6796047Y36080667D01*
X6668493Y36208221D01*
X6515753Y36304194D01*
X6509190Y36306491D01*
X6509187Y36306492D01*
X6352055Y36361475D01*
X6352050Y36361477D01*
X6345486Y36363773D01*
X6338566Y36364553D01*
X6338565Y36364553D01*
X6173154Y36383190D01*
X6166231Y36383970D01*
X6159308Y36383190D01*
X5993896Y36364553D01*
X5993893Y36364553D01*
X5986976Y36363773D01*
X5980413Y36361477D01*
X5980406Y36361475D01*
X5823274Y36306492D01*
X5823267Y36306490D01*
X5816709Y36304194D01*
X5810821Y36300495D01*
X5810818Y36300493D01*
X5669869Y36211929D01*
X5669864Y36211926D01*
X5663969Y36208221D01*
X5659044Y36203297D01*
X5659040Y36203293D01*
X5541343Y36085596D01*
X5541339Y36085592D01*
X5536415Y36080667D01*
X5532710Y36074772D01*
X5532707Y36074767D01*
X5444143Y35933818D01*
X5444141Y35933815D01*
X5440442Y35927927D01*
X5438146Y35921369D01*
X5438144Y35921362D01*
X5383161Y35764230D01*
X5383159Y35764223D01*
X5380863Y35757660D01*
X5380083Y35750743D01*
X5380083Y35750740D01*
X5374127Y35697880D01*
X5360666Y35578405D01*
X5361446Y35571482D01*
X5380082Y35406074D01*
X5380083Y35406071D01*
X5380863Y35399150D01*
X5383162Y35392581D01*
X5383164Y35392571D01*
X5387562Y35380002D01*
X5392358Y35315996D01*
X5364509Y35258166D01*
X5311476Y35222009D01*
X5253406Y35201689D01*
X5253397Y35201686D01*
X5246836Y35199389D01*
X5240948Y35195690D01*
X5240945Y35195688D01*
X5099996Y35107124D01*
X5099991Y35107121D01*
X5094096Y35103416D01*
X5089171Y35098492D01*
X5089167Y35098488D01*
X4971470Y34980791D01*
X4971466Y34980787D01*
X4966542Y34975862D01*
X4962837Y34969967D01*
X4962834Y34969962D01*
X4874270Y34829013D01*
X4874268Y34829010D01*
X4870569Y34823122D01*
X4868273Y34816564D01*
X4868271Y34816557D01*
X4813288Y34659425D01*
X4813286Y34659418D01*
X4810990Y34652855D01*
X4810210Y34645938D01*
X4810210Y34645935D01*
X4791616Y34480901D01*
X4790793Y34473600D01*
X3670745Y34473600D01*
X3663063Y34561408D01*
X3606499Y34772511D01*
X3603305Y34784431D01*
X3603304Y34784433D01*
X3601903Y34789663D01*
X3502035Y35003829D01*
X3366495Y35197401D01*
X3199401Y35364495D01*
X3194970Y35367598D01*
X3194966Y35367601D01*
X3013405Y35494731D01*
X2974540Y35539049D01*
X2960529Y35596306D01*
X2974540Y35653563D01*
X3013406Y35697881D01*
X3194638Y35824781D01*
X3202909Y35831722D01*
X3362278Y35991091D01*
X3369215Y35999357D01*
X3498498Y36183992D01*
X3503886Y36193324D01*
X3600429Y36400361D01*
X3640427Y36448636D01*
X3698926Y36471176D01*
X3838655Y36486919D01*
X4008922Y36546498D01*
X4161662Y36642471D01*
X4289216Y36770025D01*
X4385189Y36922765D01*
X4444768Y37093032D01*
X4464965Y37272287D01*
X4444768Y37451542D01*
X4385189Y37621809D01*
X4289216Y37774549D01*
X4161662Y37902103D01*
X4093845Y37944715D01*
X4014812Y37994375D01*
X4008922Y37998076D01*
X4002359Y38000373D01*
X4002356Y38000374D01*
X3845224Y38055357D01*
X3845219Y38055359D01*
X3838655Y38057655D01*
X3831735Y38058435D01*
X3831734Y38058435D01*
X3666323Y38077072D01*
X3659400Y38077852D01*
X3652477Y38077072D01*
X3487065Y38058435D01*
X3487062Y38058435D01*
X3480145Y38057655D01*
X3473582Y38055359D01*
X3473575Y38055357D01*
X3316443Y38000374D01*
X3316436Y38000372D01*
X3309878Y37998076D01*
X3303993Y37994379D01*
X3303982Y37994373D01*
X3250434Y37960726D01*
X3205487Y37943515D01*
X3157373Y37944715D01*
X3113339Y37964145D01*
X3013405Y38034120D01*
X2974539Y38078439D01*
X2960529Y38135695D01*
X2974540Y38192952D01*
X3013406Y38237270D01*
X3194961Y38364396D01*
X3194961Y38364397D01*
X3199401Y38367505D01*
X3366495Y38534599D01*
X3502035Y38728170D01*
X3601903Y38942337D01*
X3607761Y38964200D01*
X6043635Y38964200D01*
X6044415Y38957277D01*
X6053613Y38875637D01*
X6063832Y38784945D01*
X6066128Y38778381D01*
X6066130Y38778376D01*
X6120188Y38623888D01*
X6123411Y38614678D01*
X6127112Y38608788D01*
X6196317Y38498648D01*
X6219384Y38461938D01*
X6346938Y38334384D01*
X6417134Y38290277D01*
X6475556Y38253568D01*
X6514578Y38214546D01*
X6532804Y38162458D01*
X6526626Y38107620D01*
X6479816Y37973843D01*
X6479814Y37973835D01*
X6477517Y37967270D01*
X6476737Y37960353D01*
X6476737Y37960350D01*
X6469969Y37900281D01*
X6457320Y37788015D01*
X6458100Y37781092D01*
X6475516Y37626514D01*
X6477517Y37608760D01*
X6479813Y37602196D01*
X6479815Y37602191D01*
X6534798Y37445059D01*
X6537096Y37438493D01*
X6540797Y37432603D01*
X6612565Y37318384D01*
X6633069Y37285753D01*
X6760623Y37158199D01*
X6913363Y37062226D01*
X7083630Y37002647D01*
X7262885Y36982450D01*
X7442140Y37002647D01*
X7612407Y37062226D01*
X7765147Y37158199D01*
X7892701Y37285753D01*
X7988674Y37438493D01*
X8048253Y37608760D01*
X8068450Y37788015D01*
X8048253Y37967270D01*
X7988674Y38137537D01*
X7892701Y38290277D01*
X7765147Y38417831D01*
X7713215Y38450462D01*
X7636528Y38498648D01*
X7597506Y38537670D01*
X7579280Y38589759D01*
X7585458Y38644597D01*
X7608130Y38709390D01*
X7634568Y38784945D01*
X7653627Y38954100D01*
X8908635Y38954100D01*
X8909415Y38947177D01*
X8917475Y38875637D01*
X8928832Y38774845D01*
X8931128Y38768281D01*
X8931130Y38768276D01*
X8986113Y38611144D01*
X8988411Y38604578D01*
X9084384Y38451838D01*
X9211938Y38324284D01*
X9364678Y38228311D01*
X9534945Y38168732D01*
X9714200Y38148535D01*
X9893455Y38168732D01*
X9900026Y38171032D01*
X9900029Y38171032D01*
X9987283Y38201564D01*
X10051291Y38206361D01*
X10109122Y38178512D01*
X10145280Y38125478D01*
X10185110Y38011651D01*
X10185113Y38011644D01*
X10187411Y38005078D01*
X10191112Y37999188D01*
X10252114Y37902103D01*
X10283384Y37852338D01*
X10410938Y37724784D01*
X10563678Y37628811D01*
X10733945Y37569232D01*
X10913200Y37549035D01*
X11092455Y37569232D01*
X11262722Y37628811D01*
X11379668Y37702294D01*
X11431755Y37720519D01*
X11486593Y37714341D01*
X11533320Y37684980D01*
X11563268Y37655032D01*
X11716008Y37559059D01*
X11886275Y37499480D01*
X12065530Y37479283D01*
X12244785Y37499480D01*
X12251358Y37501781D01*
X12251362Y37501781D01*
X12348318Y37535707D01*
X12403156Y37541886D01*
X12455245Y37523660D01*
X12494267Y37484638D01*
X12514876Y37451839D01*
X12518584Y37445938D01*
X12646138Y37318384D01*
X12798878Y37222411D01*
X12969145Y37162832D01*
X13148400Y37142635D01*
X13327655Y37162832D01*
X13497922Y37222411D01*
X13650662Y37318384D01*
X13778216Y37445938D01*
X13874189Y37598678D01*
X13933768Y37768945D01*
X13953965Y37948200D01*
X13948241Y37999000D01*
X17422835Y37999000D01*
X17423615Y37992077D01*
X17433752Y37902103D01*
X17443032Y37819745D01*
X17445328Y37813181D01*
X17445330Y37813176D01*
X17500313Y37656044D01*
X17502611Y37649478D01*
X17598584Y37496738D01*
X17726138Y37369184D01*
X17878878Y37273211D01*
X18049145Y37213632D01*
X18228400Y37193435D01*
X18407655Y37213632D01*
X18577922Y37273211D01*
X18730662Y37369184D01*
X18858216Y37496738D01*
X18918450Y37592600D01*
X19302435Y37592600D01*
X19303215Y37585677D01*
X19319798Y37438493D01*
X19322632Y37413345D01*
X19324928Y37406781D01*
X19324930Y37406776D01*
X19379913Y37249644D01*
X19382211Y37243078D01*
X19478184Y37090338D01*
X19605738Y36962784D01*
X19758478Y36866811D01*
X19928745Y36807232D01*
X20108000Y36787035D01*
X20287255Y36807232D01*
X20457522Y36866811D01*
X20610262Y36962784D01*
X20737816Y37090338D01*
X20833789Y37243078D01*
X20893368Y37413345D01*
X20913565Y37592600D01*
X20893368Y37771855D01*
X20833789Y37942122D01*
X20737816Y38094862D01*
X20610262Y38222416D01*
X20594988Y38232013D01*
X20463412Y38314688D01*
X20457522Y38318389D01*
X20450959Y38320686D01*
X20450956Y38320687D01*
X20293824Y38375670D01*
X20293819Y38375672D01*
X20287255Y38377968D01*
X20280335Y38378748D01*
X20280334Y38378748D01*
X20114923Y38397385D01*
X20108000Y38398165D01*
X20101077Y38397385D01*
X19935665Y38378748D01*
X19935662Y38378748D01*
X19928745Y38377968D01*
X19922182Y38375672D01*
X19922175Y38375670D01*
X19765043Y38320687D01*
X19765036Y38320685D01*
X19758478Y38318389D01*
X19752590Y38314690D01*
X19752587Y38314688D01*
X19611638Y38226124D01*
X19611633Y38226121D01*
X19605738Y38222416D01*
X19600813Y38217492D01*
X19600809Y38217488D01*
X19483112Y38099791D01*
X19483108Y38099787D01*
X19478184Y38094862D01*
X19474479Y38088967D01*
X19474476Y38088962D01*
X19385912Y37948013D01*
X19385910Y37948010D01*
X19382211Y37942122D01*
X19379915Y37935564D01*
X19379913Y37935557D01*
X19324930Y37778425D01*
X19324928Y37778418D01*
X19322632Y37771855D01*
X19321852Y37764938D01*
X19321852Y37764935D01*
X19308180Y37643588D01*
X19302435Y37592600D01*
X18918450Y37592600D01*
X18954189Y37649478D01*
X19013768Y37819745D01*
X19033965Y37999000D01*
X19013768Y38178255D01*
X18954189Y38348522D01*
X18858216Y38501262D01*
X18730662Y38628816D01*
X18577922Y38724789D01*
X18571359Y38727086D01*
X18571356Y38727087D01*
X18414224Y38782070D01*
X18414219Y38782072D01*
X18407655Y38784368D01*
X18400735Y38785148D01*
X18400734Y38785148D01*
X18235323Y38803785D01*
X18228400Y38804565D01*
X18221477Y38803785D01*
X18056065Y38785148D01*
X18056062Y38785148D01*
X18049145Y38784368D01*
X18042582Y38782072D01*
X18042575Y38782070D01*
X17885443Y38727087D01*
X17885436Y38727085D01*
X17878878Y38724789D01*
X17872990Y38721090D01*
X17872987Y38721088D01*
X17732038Y38632524D01*
X17732033Y38632521D01*
X17726138Y38628816D01*
X17721213Y38623892D01*
X17721209Y38623888D01*
X17603512Y38506191D01*
X17603508Y38506187D01*
X17598584Y38501262D01*
X17594879Y38495367D01*
X17594876Y38495362D01*
X17506312Y38354413D01*
X17506310Y38354410D01*
X17502611Y38348522D01*
X17500315Y38341964D01*
X17500313Y38341957D01*
X17445330Y38184825D01*
X17445328Y38184818D01*
X17443032Y38178255D01*
X17442252Y38171338D01*
X17442252Y38171335D01*
X17429760Y38060466D01*
X17422835Y37999000D01*
X13948241Y37999000D01*
X13933768Y38127455D01*
X13874189Y38297722D01*
X13778216Y38450462D01*
X13650662Y38578016D01*
X13497922Y38673989D01*
X13491359Y38676286D01*
X13491356Y38676287D01*
X13334224Y38731270D01*
X13334219Y38731272D01*
X13327655Y38733568D01*
X13320735Y38734348D01*
X13320734Y38734348D01*
X13155323Y38752985D01*
X13148400Y38753765D01*
X13141477Y38752985D01*
X12976065Y38734348D01*
X12976062Y38734348D01*
X12969145Y38733568D01*
X12962577Y38731270D01*
X12962569Y38731268D01*
X12865609Y38697341D01*
X12810771Y38691163D01*
X12758683Y38709390D01*
X12719662Y38748411D01*
X12699053Y38781211D01*
X12699050Y38781214D01*
X12695346Y38787110D01*
X12567792Y38914664D01*
X12531563Y38937428D01*
X12420942Y39006936D01*
X12415052Y39010637D01*
X12408489Y39012934D01*
X12408486Y39012935D01*
X12251354Y39067918D01*
X12251349Y39067920D01*
X12244785Y39070216D01*
X12237865Y39070996D01*
X12237864Y39070996D01*
X12072453Y39089633D01*
X12065530Y39090413D01*
X12058607Y39089633D01*
X11893195Y39070996D01*
X11893192Y39070996D01*
X11886275Y39070216D01*
X11879712Y39067920D01*
X11879705Y39067918D01*
X11722573Y39012935D01*
X11722566Y39012933D01*
X11716008Y39010637D01*
X11710123Y39006940D01*
X11710112Y39006934D01*
X11599061Y38937156D01*
X11546973Y38918930D01*
X11492135Y38925109D01*
X11445409Y38954469D01*
X11420390Y38979488D01*
X11415462Y38984416D01*
X11262722Y39080389D01*
X11256159Y39082686D01*
X11256156Y39082687D01*
X11099024Y39137670D01*
X11099019Y39137672D01*
X11092455Y39139968D01*
X11085535Y39140748D01*
X11085534Y39140748D01*
X10920123Y39159385D01*
X10913200Y39160165D01*
X10906277Y39159385D01*
X10740865Y39140748D01*
X10740862Y39140748D01*
X10733945Y39139968D01*
X10727380Y39137671D01*
X10727372Y39137669D01*
X10640114Y39107136D01*
X10576106Y39102340D01*
X10518276Y39130190D01*
X10482118Y39183224D01*
X10442287Y39297055D01*
X10442286Y39297057D01*
X10439989Y39303622D01*
X10344016Y39456362D01*
X10216462Y39583916D01*
X10063722Y39679889D01*
X10057159Y39682186D01*
X10057156Y39682187D01*
X9900024Y39737170D01*
X9900019Y39737172D01*
X9893455Y39739468D01*
X9886535Y39740248D01*
X9886534Y39740248D01*
X9721123Y39758885D01*
X9714200Y39759665D01*
X9707277Y39758885D01*
X9541865Y39740248D01*
X9541862Y39740248D01*
X9534945Y39739468D01*
X9528382Y39737172D01*
X9528375Y39737170D01*
X9371243Y39682187D01*
X9371236Y39682185D01*
X9364678Y39679889D01*
X9358790Y39676190D01*
X9358787Y39676188D01*
X9217838Y39587624D01*
X9217833Y39587621D01*
X9211938Y39583916D01*
X9207013Y39578992D01*
X9207009Y39578988D01*
X9089312Y39461291D01*
X9089308Y39461287D01*
X9084384Y39456362D01*
X9080679Y39450467D01*
X9080676Y39450462D01*
X8992112Y39309513D01*
X8992110Y39309510D01*
X8988411Y39303622D01*
X8986115Y39297064D01*
X8986113Y39297057D01*
X8931130Y39139925D01*
X8931128Y39139918D01*
X8928832Y39133355D01*
X8928052Y39126438D01*
X8928052Y39126435D01*
X8910553Y38971123D01*
X8908635Y38954100D01*
X7653627Y38954100D01*
X7654765Y38964200D01*
X7634568Y39143455D01*
X7617732Y39191569D01*
X7598163Y39247496D01*
X7593368Y39311508D01*
X7621223Y39369342D01*
X7665968Y39399842D01*
X7665175Y39401489D01*
X7671452Y39404513D01*
X7678022Y39406811D01*
X7830762Y39502784D01*
X7958316Y39630338D01*
X8054289Y39783078D01*
X8102079Y39919655D01*
X13568067Y39919655D01*
X13568847Y39912732D01*
X13582715Y39789644D01*
X13588264Y39740400D01*
X13590560Y39733836D01*
X13590562Y39733831D01*
X13645545Y39576699D01*
X13647843Y39570133D01*
X13743816Y39417393D01*
X13871370Y39289839D01*
X14024110Y39193866D01*
X14194377Y39134287D01*
X14373632Y39114090D01*
X14552887Y39134287D01*
X14723154Y39193866D01*
X14875894Y39289839D01*
X14982055Y39396000D01*
X21292341Y39396000D01*
X21292813Y39390605D01*
X21305333Y39247496D01*
X21312937Y39160592D01*
X21314336Y39155370D01*
X21314337Y39155366D01*
X21372694Y38937570D01*
X21372697Y38937562D01*
X21374097Y38932337D01*
X21376385Y38927430D01*
X21376386Y38927428D01*
X21471678Y38723073D01*
X21471681Y38723067D01*
X21473965Y38718170D01*
X21477064Y38713743D01*
X21477066Y38713741D01*
X21606399Y38529034D01*
X21606402Y38529030D01*
X21609505Y38524599D01*
X21776599Y38357505D01*
X21781031Y38354402D01*
X21781033Y38354400D01*
X21912381Y38262429D01*
X21970170Y38221965D01*
X21975070Y38219680D01*
X21975072Y38219679D01*
X22003633Y38206361D01*
X22184337Y38122097D01*
X22189567Y38120696D01*
X22189569Y38120695D01*
X22231619Y38109428D01*
X22412592Y38060937D01*
X22648000Y38040341D01*
X22883408Y38060937D01*
X23111663Y38122097D01*
X23325830Y38221965D01*
X23519401Y38357505D01*
X23686495Y38524599D01*
X23822035Y38718170D01*
X23921903Y38932337D01*
X23983063Y39160592D01*
X24003659Y39396000D01*
X23983063Y39631408D01*
X23921903Y39859663D01*
X23822035Y40073829D01*
X23686495Y40267401D01*
X23519401Y40434495D01*
X23514968Y40437599D01*
X23514961Y40437605D01*
X23333842Y40564425D01*
X23294976Y40608743D01*
X23280965Y40666000D01*
X23294976Y40723257D01*
X23333842Y40767575D01*
X23514961Y40894396D01*
X23514961Y40894397D01*
X23519401Y40897505D01*
X23686495Y41064599D01*
X23822035Y41258170D01*
X23921903Y41472337D01*
X23983063Y41700592D01*
X24003659Y41936000D01*
X23983063Y42171408D01*
X23921903Y42399663D01*
X23822035Y42613829D01*
X23686495Y42807401D01*
X23519401Y42974495D01*
X23514968Y42977599D01*
X23514961Y42977605D01*
X23333842Y43104425D01*
X23294976Y43148743D01*
X23280965Y43206000D01*
X23294976Y43263257D01*
X23333842Y43307575D01*
X23514961Y43434396D01*
X23514961Y43434397D01*
X23519401Y43437505D01*
X23686495Y43604599D01*
X23822035Y43798170D01*
X23921903Y44012337D01*
X23983063Y44240592D01*
X24003659Y44476000D01*
X23983063Y44711408D01*
X23921903Y44939663D01*
X23822035Y45153829D01*
X23686495Y45347401D01*
X23564568Y45469328D01*
X23533273Y45522073D01*
X23531084Y45583366D01*
X23558537Y45638211D01*
X23608916Y45673190D01*
X23740331Y45722204D01*
X23855546Y45808454D01*
X23941796Y45923669D01*
X23992091Y46058517D01*
X23998500Y46118127D01*
X23998499Y47913872D01*
X23992091Y47973483D01*
X23941796Y48108331D01*
X23855546Y48223546D01*
X23835090Y48238859D01*
X23747431Y48304481D01*
X23747430Y48304482D01*
X23740331Y48309796D01*
X23669965Y48336041D01*
X23612752Y48357380D01*
X23612750Y48357381D01*
X23605483Y48360091D01*
X23597770Y48360921D01*
X23597767Y48360921D01*
X23549180Y48366145D01*
X23549169Y48366146D01*
X23545873Y48366500D01*
X23542550Y48366500D01*
X21753439Y48366500D01*
X21753420Y48366500D01*
X21750128Y48366499D01*
X21746850Y48366147D01*
X21746838Y48366146D01*
X21698231Y48360921D01*
X21698225Y48360920D01*
X21690517Y48360091D01*
X21683252Y48357382D01*
X21683246Y48357380D01*
X21563980Y48312896D01*
X21563978Y48312896D01*
X21555669Y48309796D01*
X21548572Y48304484D01*
X21548568Y48304481D01*
X21447550Y48228859D01*
X21447546Y48228856D01*
X21440454Y48223546D01*
X21435144Y48216454D01*
X21435141Y48216450D01*
X21359519Y48115432D01*
X21359516Y48115428D01*
X21354204Y48108331D01*
X21351104Y48100022D01*
X21351104Y48100020D01*
X21306620Y47980753D01*
X21306619Y47980750D01*
X21303909Y47973483D01*
X21303079Y47965773D01*
X21303079Y47965768D01*
X21297855Y47917181D01*
X21297854Y47917169D01*
X21297500Y47913873D01*
X21297500Y47910552D01*
X21297500Y47910551D01*
X21297500Y46121440D01*
X21297500Y46121422D01*
X21297501Y46118128D01*
X21297853Y46114850D01*
X21297854Y46114839D01*
X21303079Y46066232D01*
X21303080Y46066227D01*
X21303909Y46058517D01*
X21306619Y46051251D01*
X21306620Y46051247D01*
X21318959Y46018165D01*
X21354204Y45923669D01*
X21440454Y45808454D01*
X21555669Y45722204D01*
X21660271Y45683190D01*
X21687082Y45673190D01*
X21737462Y45638211D01*
X21764915Y45583367D01*
X21762726Y45522074D01*
X21731431Y45469327D01*
X21609505Y45347401D01*
X21606402Y45342971D01*
X21606399Y45342966D01*
X21477073Y45158269D01*
X21477068Y45158262D01*
X21473965Y45153829D01*
X21471677Y45148923D01*
X21471675Y45148919D01*
X21376386Y44944573D01*
X21376383Y44944568D01*
X21374097Y44939663D01*
X21372698Y44934443D01*
X21372694Y44934431D01*
X21314337Y44716635D01*
X21314335Y44716629D01*
X21312937Y44711408D01*
X21312465Y44706023D01*
X21312465Y44706018D01*
X21301495Y44580634D01*
X21292341Y44476000D01*
X21292813Y44470605D01*
X21308502Y44291277D01*
X21312937Y44240592D01*
X21314336Y44235370D01*
X21314337Y44235366D01*
X21372694Y44017570D01*
X21372697Y44017562D01*
X21374097Y44012337D01*
X21376385Y44007430D01*
X21376386Y44007428D01*
X21471678Y43803073D01*
X21471681Y43803067D01*
X21473965Y43798170D01*
X21477064Y43793743D01*
X21477066Y43793741D01*
X21606399Y43609034D01*
X21606402Y43609030D01*
X21609505Y43604599D01*
X21776599Y43437505D01*
X21781032Y43434401D01*
X21781038Y43434396D01*
X21962158Y43307575D01*
X22001024Y43263257D01*
X22015035Y43206000D01*
X22001024Y43148743D01*
X21962159Y43104425D01*
X21781041Y42977605D01*
X21776599Y42974495D01*
X21772775Y42970672D01*
X21772769Y42970666D01*
X21613334Y42811231D01*
X21613328Y42811225D01*
X21609505Y42807401D01*
X21606402Y42802971D01*
X21606399Y42802966D01*
X21477073Y42618269D01*
X21477068Y42618262D01*
X21473965Y42613829D01*
X21471677Y42608923D01*
X21471675Y42608919D01*
X21376386Y42404573D01*
X21376383Y42404568D01*
X21374097Y42399663D01*
X21372698Y42394443D01*
X21372694Y42394431D01*
X21314337Y42176635D01*
X21314335Y42176629D01*
X21312937Y42171408D01*
X21312465Y42166023D01*
X21312465Y42166018D01*
X21296367Y41982016D01*
X21292341Y41936000D01*
X21292813Y41930605D01*
X21311003Y41722688D01*
X21312937Y41700592D01*
X21314336Y41695370D01*
X21314337Y41695366D01*
X21372694Y41477570D01*
X21372697Y41477562D01*
X21374097Y41472337D01*
X21376385Y41467430D01*
X21376386Y41467428D01*
X21471678Y41263073D01*
X21471681Y41263067D01*
X21473965Y41258170D01*
X21477064Y41253743D01*
X21477066Y41253741D01*
X21606399Y41069034D01*
X21606402Y41069030D01*
X21609505Y41064599D01*
X21776599Y40897505D01*
X21781032Y40894401D01*
X21781038Y40894396D01*
X21962158Y40767575D01*
X22001024Y40723257D01*
X22015035Y40666000D01*
X22001024Y40608743D01*
X21962159Y40564425D01*
X21781041Y40437605D01*
X21776599Y40434495D01*
X21772775Y40430672D01*
X21772769Y40430666D01*
X21613334Y40271231D01*
X21613328Y40271225D01*
X21609505Y40267401D01*
X21606402Y40262971D01*
X21606399Y40262966D01*
X21477073Y40078269D01*
X21477068Y40078262D01*
X21473965Y40073829D01*
X21471677Y40068923D01*
X21471675Y40068919D01*
X21376386Y39864573D01*
X21376383Y39864568D01*
X21374097Y39859663D01*
X21372698Y39854443D01*
X21372694Y39854431D01*
X21314337Y39636635D01*
X21314335Y39636629D01*
X21312937Y39631408D01*
X21312465Y39626023D01*
X21312465Y39626018D01*
X21297622Y39456362D01*
X21292341Y39396000D01*
X14982055Y39396000D01*
X15003448Y39417393D01*
X15099421Y39570133D01*
X15159000Y39740400D01*
X15179197Y39919655D01*
X15159000Y40098910D01*
X15099421Y40269177D01*
X15003448Y40421917D01*
X14875894Y40549471D01*
X14793187Y40601439D01*
X14729044Y40641743D01*
X14723154Y40645444D01*
X14716591Y40647741D01*
X14716588Y40647742D01*
X14559456Y40702725D01*
X14559451Y40702727D01*
X14552887Y40705023D01*
X14545967Y40705803D01*
X14545966Y40705803D01*
X14380555Y40724440D01*
X14373632Y40725220D01*
X14366709Y40724440D01*
X14201297Y40705803D01*
X14201294Y40705803D01*
X14194377Y40705023D01*
X14187814Y40702727D01*
X14187807Y40702725D01*
X14030675Y40647742D01*
X14030668Y40647740D01*
X14024110Y40645444D01*
X14018222Y40641745D01*
X14018219Y40641743D01*
X13877270Y40553179D01*
X13877265Y40553176D01*
X13871370Y40549471D01*
X13866445Y40544547D01*
X13866441Y40544543D01*
X13748744Y40426846D01*
X13748740Y40426842D01*
X13743816Y40421917D01*
X13740111Y40416022D01*
X13740108Y40416017D01*
X13651544Y40275068D01*
X13651542Y40275065D01*
X13647843Y40269177D01*
X13645547Y40262619D01*
X13645545Y40262612D01*
X13590562Y40105480D01*
X13590560Y40105473D01*
X13588264Y40098910D01*
X13587484Y40091993D01*
X13587484Y40091990D01*
X13585938Y40078269D01*
X13568067Y39919655D01*
X8102079Y39919655D01*
X8113868Y39953345D01*
X8134065Y40132600D01*
X8113868Y40311855D01*
X8054289Y40482122D01*
X7958316Y40634862D01*
X7830762Y40762416D01*
X7678022Y40858389D01*
X7671459Y40860686D01*
X7671456Y40860687D01*
X7514324Y40915670D01*
X7514319Y40915672D01*
X7507755Y40917968D01*
X7500835Y40918748D01*
X7500834Y40918748D01*
X7335423Y40937385D01*
X7328500Y40938165D01*
X7321577Y40937385D01*
X7156165Y40918748D01*
X7156162Y40918748D01*
X7149245Y40917968D01*
X7142682Y40915672D01*
X7142675Y40915670D01*
X6985543Y40860687D01*
X6985536Y40860685D01*
X6978978Y40858389D01*
X6973090Y40854690D01*
X6973087Y40854688D01*
X6832138Y40766124D01*
X6832133Y40766121D01*
X6826238Y40762416D01*
X6821313Y40757492D01*
X6821309Y40757488D01*
X6703612Y40639791D01*
X6703608Y40639787D01*
X6698684Y40634862D01*
X6694979Y40628967D01*
X6694976Y40628962D01*
X6606412Y40488013D01*
X6606410Y40488010D01*
X6602711Y40482122D01*
X6600415Y40475564D01*
X6600413Y40475557D01*
X6545430Y40318425D01*
X6545428Y40318418D01*
X6543132Y40311855D01*
X6542352Y40304938D01*
X6542352Y40304935D01*
X6523715Y40139523D01*
X6522935Y40132600D01*
X6543132Y39953345D01*
X6545429Y39946779D01*
X6545431Y39946773D01*
X6579537Y39849304D01*
X6584333Y39785298D01*
X6556485Y39727468D01*
X6511730Y39696954D01*
X6512523Y39695309D01*
X6506252Y39692290D01*
X6499678Y39689989D01*
X6493783Y39686286D01*
X6493781Y39686284D01*
X6352838Y39597724D01*
X6352833Y39597721D01*
X6346938Y39594016D01*
X6342013Y39589092D01*
X6342009Y39589088D01*
X6224312Y39471391D01*
X6224308Y39471387D01*
X6219384Y39466462D01*
X6215679Y39460567D01*
X6215676Y39460562D01*
X6127112Y39319613D01*
X6127110Y39319610D01*
X6123411Y39313722D01*
X6121115Y39307164D01*
X6121113Y39307157D01*
X6066130Y39150025D01*
X6066128Y39150018D01*
X6063832Y39143455D01*
X6063052Y39136538D01*
X6063052Y39136535D01*
X6044415Y38971123D01*
X6043635Y38964200D01*
X3607761Y38964200D01*
X3663063Y39170592D01*
X3683659Y39406000D01*
X3663063Y39641408D01*
X3605984Y39854431D01*
X3603305Y39864431D01*
X3603304Y39864433D01*
X3601903Y39869663D01*
X3502035Y40083829D01*
X3366495Y40277401D01*
X3199401Y40444495D01*
X3194968Y40447599D01*
X3194961Y40447605D01*
X3013842Y40574425D01*
X2974976Y40618743D01*
X2960965Y40676000D01*
X2974976Y40733257D01*
X3013842Y40777575D01*
X3194961Y40904396D01*
X3194961Y40904397D01*
X3199401Y40907505D01*
X3366495Y41074599D01*
X3382741Y41097800D01*
X9752035Y41097800D01*
X9772232Y40918545D01*
X9774528Y40911981D01*
X9774530Y40911976D01*
X9828588Y40757488D01*
X9831811Y40748278D01*
X9927784Y40595538D01*
X10055338Y40467984D01*
X10208078Y40372011D01*
X10378345Y40312432D01*
X10557600Y40292235D01*
X10736855Y40312432D01*
X10907122Y40372011D01*
X11059862Y40467984D01*
X11187416Y40595538D01*
X11283389Y40748278D01*
X11342968Y40918545D01*
X11363165Y41097800D01*
X11342968Y41277055D01*
X11283389Y41447322D01*
X11187416Y41600062D01*
X11059862Y41727616D01*
X10907122Y41823589D01*
X10900559Y41825886D01*
X10900556Y41825887D01*
X10743424Y41880870D01*
X10743419Y41880872D01*
X10736855Y41883168D01*
X10729935Y41883948D01*
X10729934Y41883948D01*
X10564523Y41902585D01*
X10557600Y41903365D01*
X10550677Y41902585D01*
X10385265Y41883948D01*
X10385262Y41883948D01*
X10378345Y41883168D01*
X10371782Y41880872D01*
X10371775Y41880870D01*
X10214643Y41825887D01*
X10214636Y41825885D01*
X10208078Y41823589D01*
X10202190Y41819890D01*
X10202187Y41819888D01*
X10061238Y41731324D01*
X10061233Y41731321D01*
X10055338Y41727616D01*
X10050413Y41722692D01*
X10050409Y41722688D01*
X9932712Y41604991D01*
X9932708Y41604987D01*
X9927784Y41600062D01*
X9924079Y41594167D01*
X9924076Y41594162D01*
X9835512Y41453213D01*
X9835510Y41453210D01*
X9831811Y41447322D01*
X9829515Y41440764D01*
X9829513Y41440757D01*
X9774530Y41283625D01*
X9774528Y41283618D01*
X9772232Y41277055D01*
X9771452Y41270138D01*
X9771452Y41270135D01*
X9770104Y41258170D01*
X9752035Y41097800D01*
X3382741Y41097800D01*
X3502035Y41268170D01*
X3601903Y41482337D01*
X3663063Y41710592D01*
X3683659Y41946000D01*
X3663063Y42181408D01*
X3605984Y42394431D01*
X3603305Y42404431D01*
X3603304Y42404433D01*
X3601903Y42409663D01*
X3502035Y42623829D01*
X3387921Y42786801D01*
X15187635Y42786801D01*
X15188415Y42779878D01*
X15206550Y42618919D01*
X15207832Y42607546D01*
X15210128Y42600982D01*
X15210130Y42600977D01*
X15265113Y42443845D01*
X15267411Y42437279D01*
X15363384Y42284539D01*
X15490938Y42156985D01*
X15643678Y42061012D01*
X15813945Y42001433D01*
X15993200Y41981236D01*
X16172455Y42001433D01*
X16342722Y42061012D01*
X16495462Y42156985D01*
X16623016Y42284539D01*
X16718989Y42437279D01*
X16778568Y42607546D01*
X16798765Y42786801D01*
X16778568Y42966056D01*
X16718989Y43136323D01*
X16623016Y43289063D01*
X16495462Y43416617D01*
X16456120Y43441337D01*
X16348612Y43508889D01*
X16342722Y43512590D01*
X16336159Y43514887D01*
X16336156Y43514888D01*
X16179024Y43569871D01*
X16179019Y43569873D01*
X16172455Y43572169D01*
X16165535Y43572949D01*
X16165534Y43572949D01*
X16000123Y43591586D01*
X15993200Y43592366D01*
X15986277Y43591586D01*
X15820865Y43572949D01*
X15820862Y43572949D01*
X15813945Y43572169D01*
X15807382Y43569873D01*
X15807375Y43569871D01*
X15650243Y43514888D01*
X15650236Y43514886D01*
X15643678Y43512590D01*
X15637790Y43508891D01*
X15637787Y43508889D01*
X15496838Y43420325D01*
X15496833Y43420322D01*
X15490938Y43416617D01*
X15486013Y43411693D01*
X15486009Y43411689D01*
X15368312Y43293992D01*
X15368308Y43293988D01*
X15363384Y43289063D01*
X15359679Y43283168D01*
X15359676Y43283163D01*
X15271112Y43142214D01*
X15271110Y43142211D01*
X15267411Y43136323D01*
X15265115Y43129765D01*
X15265113Y43129758D01*
X15210130Y42972626D01*
X15210128Y42972619D01*
X15207832Y42966056D01*
X15187635Y42786801D01*
X3387921Y42786801D01*
X3366495Y42817401D01*
X3199401Y42984495D01*
X3194970Y42987598D01*
X3194966Y42987601D01*
X3013841Y43114426D01*
X2974976Y43158744D01*
X2960965Y43216001D01*
X2974976Y43273258D01*
X3013839Y43317574D01*
X3199401Y43447505D01*
X3366495Y43614599D01*
X3502035Y43808170D01*
X3570851Y43955746D01*
X5435860Y43955746D01*
X5436640Y43948823D01*
X5452487Y43808170D01*
X5456057Y43776491D01*
X5458353Y43769927D01*
X5458355Y43769922D01*
X5512705Y43614599D01*
X5515636Y43606224D01*
X5611609Y43453484D01*
X5739163Y43325930D01*
X5891903Y43229957D01*
X6062170Y43170378D01*
X6241425Y43150181D01*
X6420680Y43170378D01*
X6590947Y43229957D01*
X6743687Y43325930D01*
X6871241Y43453484D01*
X6967214Y43606224D01*
X7026793Y43776491D01*
X7046990Y43955746D01*
X7026793Y44135001D01*
X6969687Y44298200D01*
X9040835Y44298200D01*
X9041615Y44291277D01*
X9060002Y44128081D01*
X9061032Y44118945D01*
X9063328Y44112381D01*
X9063330Y44112376D01*
X9118313Y43955244D01*
X9120611Y43948678D01*
X9216584Y43795938D01*
X9344138Y43668384D01*
X9496878Y43572411D01*
X9667145Y43512832D01*
X9846400Y43492635D01*
X10025655Y43512832D01*
X10195922Y43572411D01*
X10348662Y43668384D01*
X10476216Y43795938D01*
X10572189Y43948678D01*
X10631768Y44118945D01*
X10651965Y44298200D01*
X10631768Y44477455D01*
X10572189Y44647722D01*
X10476216Y44800462D01*
X10348662Y44928016D01*
X10195922Y45023989D01*
X10189359Y45026286D01*
X10189356Y45026287D01*
X10032224Y45081270D01*
X10032219Y45081272D01*
X10025655Y45083568D01*
X10018735Y45084348D01*
X10018734Y45084348D01*
X9853323Y45102985D01*
X9846400Y45103765D01*
X9839477Y45102985D01*
X9674065Y45084348D01*
X9674062Y45084348D01*
X9667145Y45083568D01*
X9660582Y45081272D01*
X9660575Y45081270D01*
X9503443Y45026287D01*
X9503436Y45026285D01*
X9496878Y45023989D01*
X9490990Y45020290D01*
X9490987Y45020288D01*
X9350038Y44931724D01*
X9350033Y44931721D01*
X9344138Y44928016D01*
X9339213Y44923092D01*
X9339209Y44923088D01*
X9221512Y44805391D01*
X9221508Y44805387D01*
X9216584Y44800462D01*
X9212879Y44794567D01*
X9212876Y44794562D01*
X9124312Y44653613D01*
X9124310Y44653610D01*
X9120611Y44647722D01*
X9118315Y44641164D01*
X9118313Y44641157D01*
X9063330Y44484025D01*
X9063328Y44484018D01*
X9061032Y44477455D01*
X9060252Y44470538D01*
X9060252Y44470535D01*
X9042295Y44311159D01*
X9040835Y44298200D01*
X6969687Y44298200D01*
X6967214Y44305268D01*
X6871241Y44458008D01*
X6743687Y44585562D01*
X6590947Y44681535D01*
X6584384Y44683832D01*
X6584381Y44683833D01*
X6427249Y44738816D01*
X6427244Y44738818D01*
X6420680Y44741114D01*
X6413760Y44741894D01*
X6413759Y44741894D01*
X6248348Y44760531D01*
X6241425Y44761311D01*
X6234502Y44760531D01*
X6069090Y44741894D01*
X6069087Y44741894D01*
X6062170Y44741114D01*
X6055607Y44738818D01*
X6055600Y44738816D01*
X5898468Y44683833D01*
X5898461Y44683831D01*
X5891903Y44681535D01*
X5886015Y44677836D01*
X5886012Y44677834D01*
X5745063Y44589270D01*
X5745058Y44589267D01*
X5739163Y44585562D01*
X5734238Y44580638D01*
X5734234Y44580634D01*
X5616537Y44462937D01*
X5616533Y44462933D01*
X5611609Y44458008D01*
X5607904Y44452113D01*
X5607901Y44452108D01*
X5519337Y44311159D01*
X5519335Y44311156D01*
X5515636Y44305268D01*
X5513340Y44298710D01*
X5513338Y44298703D01*
X5458355Y44141571D01*
X5458353Y44141564D01*
X5456057Y44135001D01*
X5455277Y44128084D01*
X5455277Y44128081D01*
X5443363Y44022337D01*
X5435860Y43955746D01*
X3570851Y43955746D01*
X3601903Y44022337D01*
X3663063Y44250592D01*
X3683659Y44486000D01*
X3663063Y44721408D01*
X3605984Y44934431D01*
X3603305Y44944431D01*
X3603304Y44944433D01*
X3601903Y44949663D01*
X3502035Y45163829D01*
X3467885Y45212600D01*
X12698435Y45212600D01*
X12699215Y45205677D01*
X12710785Y45102985D01*
X12718632Y45033345D01*
X12720928Y45026781D01*
X12720930Y45026776D01*
X12775913Y44869644D01*
X12778211Y44863078D01*
X12781912Y44857188D01*
X12842155Y44761311D01*
X12874184Y44710338D01*
X13001738Y44582784D01*
X13154478Y44486811D01*
X13324745Y44427232D01*
X13504000Y44407035D01*
X13683255Y44427232D01*
X13853522Y44486811D01*
X14006262Y44582784D01*
X14133816Y44710338D01*
X14229789Y44863078D01*
X14289368Y45033345D01*
X14309565Y45212600D01*
X14289368Y45391855D01*
X14229789Y45562122D01*
X14133816Y45714862D01*
X14006262Y45842416D01*
X13853522Y45938389D01*
X13846959Y45940686D01*
X13846956Y45940687D01*
X13689824Y45995670D01*
X13689819Y45995672D01*
X13683255Y45997968D01*
X13676335Y45998748D01*
X13676334Y45998748D01*
X13510923Y46017385D01*
X13504000Y46018165D01*
X13497077Y46017385D01*
X13331665Y45998748D01*
X13331662Y45998748D01*
X13324745Y45997968D01*
X13318182Y45995672D01*
X13318175Y45995670D01*
X13161043Y45940687D01*
X13161036Y45940685D01*
X13154478Y45938389D01*
X13148590Y45934690D01*
X13148587Y45934688D01*
X13007638Y45846124D01*
X13007633Y45846121D01*
X13001738Y45842416D01*
X12996813Y45837492D01*
X12996809Y45837488D01*
X12879112Y45719791D01*
X12879108Y45719787D01*
X12874184Y45714862D01*
X12870479Y45708967D01*
X12870476Y45708962D01*
X12781912Y45568013D01*
X12781910Y45568010D01*
X12778211Y45562122D01*
X12775915Y45555564D01*
X12775913Y45555557D01*
X12720930Y45398425D01*
X12720928Y45398418D01*
X12718632Y45391855D01*
X12717852Y45384938D01*
X12717852Y45384935D01*
X12699215Y45219523D01*
X12698435Y45212600D01*
X3467885Y45212600D01*
X3366495Y45357401D01*
X3244569Y45479327D01*
X3213273Y45532073D01*
X3211084Y45593366D01*
X3238537Y45648211D01*
X3288916Y45683190D01*
X3420331Y45732204D01*
X3535546Y45818454D01*
X3621796Y45933669D01*
X3672091Y46068517D01*
X3678500Y46128127D01*
X3678499Y47041400D01*
X11631635Y47041400D01*
X11632415Y47034477D01*
X11639636Y46970384D01*
X11651832Y46862145D01*
X11654128Y46855581D01*
X11654130Y46855576D01*
X11709113Y46698444D01*
X11711411Y46691878D01*
X11807384Y46539138D01*
X11934938Y46411584D01*
X12087678Y46315611D01*
X12257945Y46256032D01*
X12437200Y46235835D01*
X12616455Y46256032D01*
X12786722Y46315611D01*
X12939462Y46411584D01*
X13067016Y46539138D01*
X13162989Y46691878D01*
X13222568Y46862145D01*
X13242765Y47041400D01*
X13222568Y47220655D01*
X13162989Y47390922D01*
X13067016Y47543662D01*
X13010478Y47600200D01*
X19099235Y47600200D01*
X19119432Y47420945D01*
X19121728Y47414381D01*
X19121730Y47414376D01*
X19176713Y47257244D01*
X19179011Y47250678D01*
X19274984Y47097938D01*
X19402538Y46970384D01*
X19555278Y46874411D01*
X19725545Y46814832D01*
X19904800Y46794635D01*
X20084055Y46814832D01*
X20254322Y46874411D01*
X20407062Y46970384D01*
X20534616Y47097938D01*
X20630589Y47250678D01*
X20690168Y47420945D01*
X20710365Y47600200D01*
X20690168Y47779455D01*
X20630589Y47949722D01*
X20534616Y48102462D01*
X20407062Y48230016D01*
X20392988Y48238859D01*
X20260212Y48322288D01*
X20254322Y48325989D01*
X20247759Y48328286D01*
X20247756Y48328287D01*
X20090624Y48383270D01*
X20090619Y48383272D01*
X20084055Y48385568D01*
X20077135Y48386348D01*
X20077134Y48386348D01*
X19911723Y48404985D01*
X19904800Y48405765D01*
X19897877Y48404985D01*
X19732465Y48386348D01*
X19732462Y48386348D01*
X19725545Y48385568D01*
X19718982Y48383272D01*
X19718975Y48383270D01*
X19561843Y48328287D01*
X19561836Y48328285D01*
X19555278Y48325989D01*
X19549390Y48322290D01*
X19549387Y48322288D01*
X19408438Y48233724D01*
X19408433Y48233721D01*
X19402538Y48230016D01*
X19397613Y48225092D01*
X19397609Y48225088D01*
X19279912Y48107391D01*
X19279908Y48107387D01*
X19274984Y48102462D01*
X19271279Y48096567D01*
X19271276Y48096562D01*
X19182712Y47955613D01*
X19182710Y47955610D01*
X19179011Y47949722D01*
X19176715Y47943164D01*
X19176713Y47943157D01*
X19121730Y47786025D01*
X19121728Y47786018D01*
X19119432Y47779455D01*
X19118652Y47772538D01*
X19118652Y47772535D01*
X19106681Y47666288D01*
X19099235Y47600200D01*
X13010478Y47600200D01*
X12939462Y47671216D01*
X12786722Y47767189D01*
X12780159Y47769486D01*
X12780156Y47769487D01*
X12623024Y47824470D01*
X12623019Y47824472D01*
X12616455Y47826768D01*
X12609535Y47827548D01*
X12609534Y47827548D01*
X12444123Y47846185D01*
X12437200Y47846965D01*
X12430277Y47846185D01*
X12264865Y47827548D01*
X12264862Y47827548D01*
X12257945Y47826768D01*
X12251382Y47824472D01*
X12251375Y47824470D01*
X12094243Y47769487D01*
X12094236Y47769485D01*
X12087678Y47767189D01*
X12081790Y47763490D01*
X12081787Y47763488D01*
X11940838Y47674924D01*
X11940833Y47674921D01*
X11934938Y47671216D01*
X11930013Y47666292D01*
X11930009Y47666288D01*
X11812312Y47548591D01*
X11812308Y47548587D01*
X11807384Y47543662D01*
X11803679Y47537767D01*
X11803676Y47537762D01*
X11715112Y47396813D01*
X11715110Y47396810D01*
X11711411Y47390922D01*
X11709115Y47384364D01*
X11709113Y47384357D01*
X11654130Y47227225D01*
X11654128Y47227218D01*
X11651832Y47220655D01*
X11631635Y47041400D01*
X3678499Y47041400D01*
X3678499Y47923872D01*
X3672091Y47983483D01*
X3621796Y48118331D01*
X3535546Y48233546D01*
X3420331Y48319796D01*
X3323799Y48355800D01*
X8685235Y48355800D01*
X8686015Y48348877D01*
X8699962Y48225088D01*
X8705432Y48176545D01*
X8707728Y48169981D01*
X8707730Y48169976D01*
X8732209Y48100020D01*
X8765011Y48006278D01*
X8790465Y47965769D01*
X8816789Y47923873D01*
X8860984Y47853538D01*
X8988538Y47725984D01*
X9141278Y47630011D01*
X9311545Y47570432D01*
X9490800Y47550235D01*
X9670055Y47570432D01*
X9840322Y47630011D01*
X9993062Y47725984D01*
X10120616Y47853538D01*
X10216589Y48006278D01*
X10276168Y48176545D01*
X10296365Y48355800D01*
X10276168Y48535055D01*
X10216589Y48705322D01*
X10120616Y48858062D01*
X9993062Y48985616D01*
X9840322Y49081589D01*
X9833759Y49083886D01*
X9833756Y49083887D01*
X9676624Y49138870D01*
X9676619Y49138872D01*
X9670055Y49141168D01*
X9663135Y49141948D01*
X9663134Y49141948D01*
X9497723Y49160585D01*
X9490800Y49161365D01*
X9483877Y49160585D01*
X9318465Y49141948D01*
X9318462Y49141948D01*
X9311545Y49141168D01*
X9304982Y49138872D01*
X9304975Y49138870D01*
X9147843Y49083887D01*
X9147836Y49083885D01*
X9141278Y49081589D01*
X9135390Y49077890D01*
X9135387Y49077888D01*
X8994438Y48989324D01*
X8994433Y48989321D01*
X8988538Y48985616D01*
X8983613Y48980692D01*
X8983609Y48980688D01*
X8865912Y48862991D01*
X8865908Y48862987D01*
X8860984Y48858062D01*
X8857279Y48852167D01*
X8857276Y48852162D01*
X8768712Y48711213D01*
X8768710Y48711210D01*
X8765011Y48705322D01*
X8762715Y48698764D01*
X8762713Y48698757D01*
X8707730Y48541625D01*
X8707728Y48541618D01*
X8705432Y48535055D01*
X8685235Y48355800D01*
X3323799Y48355800D01*
X3319563Y48357380D01*
X3292752Y48367380D01*
X3292750Y48367381D01*
X3285483Y48370091D01*
X3277770Y48370921D01*
X3277767Y48370921D01*
X3229180Y48376145D01*
X3229169Y48376146D01*
X3225873Y48376500D01*
X3222550Y48376500D01*
X1433439Y48376500D01*
X1433420Y48376500D01*
X1430128Y48376499D01*
X1426850Y48376147D01*
X1426838Y48376146D01*
X1378231Y48370921D01*
X1378225Y48370920D01*
X1370517Y48370091D01*
X1363252Y48367382D01*
X1363246Y48367380D01*
X1243980Y48322896D01*
X1243978Y48322896D01*
X1235669Y48319796D01*
X1228572Y48314484D01*
X1228568Y48314481D01*
X1127550Y48238859D01*
X1127546Y48238856D01*
X1120454Y48233546D01*
X1115144Y48226454D01*
X1115141Y48226450D01*
X1039519Y48125432D01*
X1039516Y48125428D01*
X1034204Y48118331D01*
X1031104Y48110022D01*
X1031104Y48110020D01*
X986620Y47990753D01*
X986619Y47990750D01*
X983909Y47983483D01*
X983079Y47975773D01*
X983079Y47975768D01*
X977855Y47927181D01*
X977854Y47927169D01*
X977500Y47923873D01*
X977500Y47920552D01*
X977500Y47920551D01*
X977500Y46131440D01*
X977500Y46131422D01*
X977501Y46128128D01*
X977853Y46124850D01*
X977854Y46124839D01*
X983079Y46076232D01*
X983080Y46076227D01*
X983909Y46068517D01*
X986619Y46061251D01*
X986620Y46061247D01*
X990350Y46051247D01*
X1034204Y45933669D01*
X1120454Y45818454D01*
X1235669Y45732204D01*
X1345405Y45691275D01*
X1367082Y45683190D01*
X1417462Y45648211D01*
X1444915Y45593367D01*
X1442726Y45532074D01*
X1411431Y45479327D01*
X1289505Y45357401D01*
X1286402Y45352971D01*
X1286399Y45352966D01*
X1157073Y45168269D01*
X1157068Y45168262D01*
X1153965Y45163829D01*
X1151677Y45158923D01*
X1151675Y45158919D01*
X1056386Y44954573D01*
X1056383Y44954568D01*
X1054097Y44949663D01*
X1052698Y44944443D01*
X1052694Y44944431D01*
X994337Y44726635D01*
X994335Y44726629D01*
X992937Y44721408D01*
X992465Y44716023D01*
X992465Y44716018D01*
X980484Y44579077D01*
X972341Y44486000D01*
X972813Y44480605D01*
X988771Y44298200D01*
X992937Y44250592D01*
X994336Y44245370D01*
X994337Y44245366D01*
X1052694Y44027570D01*
X1052697Y44027562D01*
X1054097Y44022337D01*
X1056385Y44017430D01*
X1056386Y44017428D01*
X1151678Y43813073D01*
X1151681Y43813067D01*
X1153965Y43808170D01*
X1157064Y43803743D01*
X1157066Y43803741D01*
X1286399Y43619034D01*
X1286402Y43619030D01*
X1289505Y43614599D01*
X1456599Y43447505D01*
X1461032Y43444401D01*
X1461038Y43444396D01*
X1642158Y43317575D01*
X1681024Y43273257D01*
X1695035Y43216000D01*
X1681024Y43158743D01*
X1642159Y43114425D01*
X1627878Y43104425D01*
X1456599Y42984495D01*
X1452775Y42980672D01*
X1452769Y42980666D01*
X1293334Y42821231D01*
X1293328Y42821225D01*
X1289505Y42817401D01*
X1286402Y42812971D01*
X1286399Y42812966D01*
X1157073Y42628269D01*
X1157068Y42628262D01*
X1153965Y42623829D01*
X1151677Y42618923D01*
X1151675Y42618919D01*
X1056386Y42414573D01*
X1056383Y42414568D01*
X1054097Y42409663D01*
X1052698Y42404443D01*
X1052694Y42404431D01*
X994337Y42186635D01*
X994335Y42186629D01*
X992937Y42181408D01*
X992465Y42176023D01*
X992465Y42176018D01*
X977392Y42003732D01*
X972341Y41946000D01*
X972813Y41940605D01*
X991878Y41722688D01*
X992937Y41710592D01*
X994336Y41705370D01*
X994337Y41705366D01*
X1052694Y41487570D01*
X1052697Y41487562D01*
X1054097Y41482337D01*
X1056385Y41477430D01*
X1056386Y41477428D01*
X1151678Y41273073D01*
X1151681Y41273067D01*
X1153965Y41268170D01*
X1157064Y41263743D01*
X1157066Y41263741D01*
X1286399Y41079034D01*
X1286402Y41079030D01*
X1289505Y41074599D01*
X1456599Y40907505D01*
X1461032Y40904401D01*
X1461038Y40904396D01*
X1642158Y40777575D01*
X1681024Y40733257D01*
X1695035Y40676000D01*
X1681024Y40618743D01*
X1642159Y40574425D01*
X1461041Y40447605D01*
X1456599Y40444495D01*
X1452775Y40440672D01*
X1452769Y40440666D01*
X1293334Y40281231D01*
X1293328Y40281225D01*
X1289505Y40277401D01*
X1286402Y40272971D01*
X1286399Y40272966D01*
X1157073Y40088269D01*
X1157068Y40088262D01*
X1153965Y40083829D01*
X1151677Y40078923D01*
X1151675Y40078919D01*
X1056386Y39874573D01*
X1056383Y39874568D01*
X1054097Y39869663D01*
X1052698Y39864443D01*
X1052694Y39864431D01*
X994337Y39646635D01*
X994335Y39646629D01*
X992937Y39641408D01*
X992465Y39636023D01*
X992465Y39636018D01*
X981240Y39507713D01*
X972341Y39406000D01*
X972813Y39400605D01*
X991831Y39183224D01*
X992937Y39170592D01*
X994336Y39165370D01*
X994337Y39165366D01*
X1052694Y38947570D01*
X1052697Y38947562D01*
X1054097Y38942337D01*
X1056385Y38937430D01*
X1056386Y38937428D01*
X1151678Y38733073D01*
X1151681Y38733067D01*
X1153965Y38728170D01*
X1157064Y38723743D01*
X1157066Y38723741D01*
X1286399Y38539034D01*
X1286402Y38539030D01*
X1289505Y38534599D01*
X1456599Y38367505D01*
X1461031Y38364402D01*
X1461033Y38364400D01*
X1642595Y38237269D01*
X1681460Y38192951D01*
X1695471Y38135694D01*
X1681460Y38078437D01*
X1642595Y38034119D01*
X1461352Y37907212D01*
X1453092Y37900281D01*
X1293719Y37740908D01*
X1286784Y37732643D01*
X1157508Y37548018D01*
X1152110Y37538668D01*
X1056856Y37334398D01*
X1053168Y37324264D01*
X1001056Y37129781D01*
X1000688Y37118552D01*
X1011631Y37116000D01*
X2454000Y37116000D01*
X2516000Y37099387D01*
X2561387Y37054000D01*
X2578000Y36992000D01*
X2578000Y36740000D01*
X2561387Y36678000D01*
X2516000Y36632613D01*
X2454000Y36616000D01*
X1011631Y36616000D01*
X1000688Y36613449D01*
X1001056Y36602220D01*
X1053168Y36407737D01*
X1056856Y36397603D01*
X1152113Y36193324D01*
X1157501Y36183992D01*
X1286784Y35999357D01*
X1293721Y35991091D01*
X1453090Y35831722D01*
X1461356Y35824785D01*
X1642595Y35697880D01*
X1681460Y35653562D01*
X1695471Y35596305D01*
X1681460Y35539048D01*
X1642594Y35494730D01*
X1461034Y35367601D01*
X1461029Y35367598D01*
X1456599Y35364495D01*
X1452775Y35360672D01*
X1452769Y35360666D01*
X1293334Y35201231D01*
X1293328Y35201225D01*
X1289505Y35197401D01*
X1286402Y35192971D01*
X1286399Y35192966D01*
X1157073Y35008269D01*
X1157068Y35008262D01*
X1153965Y35003829D01*
X1151677Y34998923D01*
X1151675Y34998919D01*
X1056386Y34794573D01*
X1056383Y34794568D01*
X1054097Y34789663D01*
X1052698Y34784443D01*
X1052694Y34784431D01*
X994337Y34566635D01*
X994336Y34566631D01*
X992937Y34561408D01*
X992465Y34556023D01*
X992465Y34556018D01*
X975379Y34360725D01*
X972341Y34326000D01*
X500Y34326000D01*
X500Y50138802D01*
X16229Y50199244D01*
X59424Y50244354D01*
X119129Y50262686D01*
X180196Y50249590D01*
X227133Y50208389D01*
X368635Y49999689D01*
X600332Y49726914D01*
X602763Y49724611D01*
X602769Y49724605D01*
X781622Y49555187D01*
X860163Y49480789D01*
X1145081Y49264200D01*
X1451747Y49079685D01*
X1776565Y48929409D01*
X2115726Y48815132D01*
X2465254Y48738195D01*
X2821052Y48699500D01*
X3175590Y48699500D01*
X3178948Y48699500D01*
X3534746Y48738195D01*
X3884274Y48815132D01*
X4223435Y48929409D01*
X4548253Y49079685D01*
X4854919Y49264200D01*
X5139837Y49480789D01*
X5399668Y49726914D01*
X5491817Y49835400D01*
X15340035Y49835400D01*
X15360232Y49656145D01*
X15362528Y49649581D01*
X15362530Y49649576D01*
X15417513Y49492444D01*
X15419811Y49485878D01*
X15515784Y49333138D01*
X15643338Y49205584D01*
X15796078Y49109611D01*
X15966345Y49050032D01*
X16145600Y49029835D01*
X16324855Y49050032D01*
X16495122Y49109611D01*
X16647862Y49205584D01*
X16775416Y49333138D01*
X16871389Y49485878D01*
X16930968Y49656145D01*
X16951165Y49835400D01*
X16930968Y50014655D01*
X16871389Y50184922D01*
X16775416Y50337662D01*
X16647862Y50465216D01*
X16495122Y50561189D01*
X16488559Y50563486D01*
X16488556Y50563487D01*
X16331424Y50618470D01*
X16331419Y50618472D01*
X16324855Y50620768D01*
X16317935Y50621548D01*
X16317934Y50621548D01*
X16152523Y50640185D01*
X16145600Y50640965D01*
X16138677Y50640185D01*
X15973265Y50621548D01*
X15973262Y50621548D01*
X15966345Y50620768D01*
X15959782Y50618472D01*
X15959775Y50618470D01*
X15802643Y50563487D01*
X15802636Y50563485D01*
X15796078Y50561189D01*
X15790190Y50557490D01*
X15790187Y50557488D01*
X15649238Y50468924D01*
X15649233Y50468921D01*
X15643338Y50465216D01*
X15638413Y50460292D01*
X15638409Y50460288D01*
X15520712Y50342591D01*
X15520708Y50342587D01*
X15515784Y50337662D01*
X15512079Y50331767D01*
X15512076Y50331762D01*
X15423512Y50190813D01*
X15423510Y50190810D01*
X15419811Y50184922D01*
X15417515Y50178364D01*
X15417513Y50178357D01*
X15362530Y50021225D01*
X15362528Y50021218D01*
X15360232Y50014655D01*
X15359452Y50007738D01*
X15359452Y50007735D01*
X15340815Y49842323D01*
X15340035Y49835400D01*
X5491817Y49835400D01*
X5631365Y49999689D01*
X5832211Y50295915D01*
X5999853Y50612120D01*
X6132324Y50944597D01*
X6228071Y51289448D01*
X6285972Y51642629D01*
X6305348Y52000000D01*
X6285972Y52357371D01*
X6228071Y52710552D01*
X6132324Y53055403D01*
X5999853Y53387880D01*
X5876790Y53620000D01*
X12038035Y53620000D01*
X12058232Y53440745D01*
X12060528Y53434181D01*
X12060530Y53434176D01*
X12115513Y53277044D01*
X12117811Y53270478D01*
X12213784Y53117738D01*
X12341338Y52990184D01*
X12494078Y52894211D01*
X12664345Y52834632D01*
X12843600Y52814435D01*
X13022855Y52834632D01*
X13193122Y52894211D01*
X13345862Y52990184D01*
X13473416Y53117738D01*
X13569389Y53270478D01*
X13628968Y53440745D01*
X13649165Y53620000D01*
X13628968Y53799255D01*
X13569389Y53969522D01*
X13473416Y54122262D01*
X13345862Y54249816D01*
X13193122Y54345789D01*
X13186559Y54348086D01*
X13186556Y54348087D01*
X13029424Y54403070D01*
X13029419Y54403072D01*
X13022855Y54405368D01*
X13015935Y54406148D01*
X13015934Y54406148D01*
X12850523Y54424785D01*
X12843600Y54425565D01*
X12836677Y54424785D01*
X12671265Y54406148D01*
X12671262Y54406148D01*
X12664345Y54405368D01*
X12657782Y54403072D01*
X12657775Y54403070D01*
X12500643Y54348087D01*
X12500636Y54348085D01*
X12494078Y54345789D01*
X12488190Y54342090D01*
X12488187Y54342088D01*
X12347238Y54253524D01*
X12347233Y54253521D01*
X12341338Y54249816D01*
X12336413Y54244892D01*
X12336409Y54244888D01*
X12218712Y54127191D01*
X12218708Y54127187D01*
X12213784Y54122262D01*
X12210079Y54116367D01*
X12210076Y54116362D01*
X12121512Y53975413D01*
X12121510Y53975410D01*
X12117811Y53969522D01*
X12115515Y53962964D01*
X12115513Y53962957D01*
X12060530Y53805825D01*
X12060528Y53805818D01*
X12058232Y53799255D01*
X12057452Y53792338D01*
X12057452Y53792335D01*
X12051253Y53737314D01*
X12038035Y53620000D01*
X5876790Y53620000D01*
X5832211Y53704085D01*
X5631365Y54000311D01*
X5399668Y54273086D01*
X5397235Y54275391D01*
X5397230Y54275396D01*
X5142267Y54516909D01*
X5139837Y54519211D01*
X4854919Y54735800D01*
X4852045Y54737529D01*
X4852041Y54737532D01*
X4799325Y54769250D01*
X4754982Y54815058D01*
X4739261Y54876843D01*
X4756317Y54938274D01*
X4801642Y54983110D01*
X4863254Y54999500D01*
X20136746Y54999500D01*
X20198358Y54983110D01*
G37*
%TD.AperFunction*%
%TD*%
M02*
