%TF.GenerationSoftware,KiCad,Pcbnew,7.0.5*%
%TF.CreationDate,2023-12-24T21:30:35-08:00*%
%TF.ProjectId,Lyrav3,4c797261-7633-42e6-9b69-6361645f7063,rev?*%
%TF.SameCoordinates,Original*%
%TF.FileFunction,Soldermask,Top*%
%TF.FilePolarity,Negative*%
%FSLAX46Y46*%
G04 Gerber Fmt 4.6, Leading zero omitted, Abs format (unit mm)*
G04 Created by KiCad (PCBNEW 7.0.5) date 2023-12-24 21:30:35*
%MOMM*%
%LPD*%
G01*
G04 APERTURE LIST*
G04 Aperture macros list*
%AMRoundRect*
0 Rectangle with rounded corners*
0 $1 Rounding radius*
0 $2 $3 $4 $5 $6 $7 $8 $9 X,Y pos of 4 corners*
0 Add a 4 corners polygon primitive as box body*
4,1,4,$2,$3,$4,$5,$6,$7,$8,$9,$2,$3,0*
0 Add four circle primitives for the rounded corners*
1,1,$1+$1,$2,$3*
1,1,$1+$1,$4,$5*
1,1,$1+$1,$6,$7*
1,1,$1+$1,$8,$9*
0 Add four rect primitives between the rounded corners*
20,1,$1+$1,$2,$3,$4,$5,0*
20,1,$1+$1,$4,$5,$6,$7,0*
20,1,$1+$1,$6,$7,$8,$9,0*
20,1,$1+$1,$8,$9,$2,$3,0*%
G04 Aperture macros list end*
%ADD10R,1.000000X1.500000*%
%ADD11RoundRect,0.243750X0.456250X-0.243750X0.456250X0.243750X-0.456250X0.243750X-0.456250X-0.243750X0*%
%ADD12C,5.600000*%
%ADD13O,1.700000X1.700000*%
%ADD14R,1.700000X1.700000*%
%ADD15R,1.300000X3.400000*%
%ADD16R,0.800000X1.000000*%
%ADD17C,1.600000*%
%ADD18R,1.600000X1.600000*%
%ADD19C,2.200000*%
%ADD20R,2.200000X2.200000*%
%ADD21O,1.400000X1.200000*%
%ADD22O,1.900000X1.200000*%
G04 APERTURE END LIST*
D10*
%TO.C,J1*%
X2114400Y31242600D03*
X814400Y31242600D03*
%TD*%
D11*
%TO.C,D2*%
X18533200Y27557300D03*
X18533200Y25682300D03*
%TD*%
D12*
%TO.C,H3*%
X3000000Y3000000D03*
%TD*%
D13*
%TO.C,J8*%
X22648000Y39396000D03*
X22648000Y41936000D03*
X22648000Y44476000D03*
D14*
X22648000Y47016000D03*
%TD*%
D15*
%TO.C,LS1*%
X14602800Y41097800D03*
X5902800Y41097800D03*
%TD*%
D12*
%TO.C,H1*%
X3000000Y52000000D03*
%TD*%
%TO.C,H2*%
X22000000Y52000000D03*
%TD*%
D16*
%TO.C,D4*%
X8805000Y25832400D03*
X7705000Y25832400D03*
X7705000Y24332400D03*
X8805000Y24332400D03*
%TD*%
D12*
%TO.C,H4*%
X22000000Y3000000D03*
%TD*%
D17*
%TO.C,C9*%
X4664800Y26619800D03*
D18*
X2164800Y26619800D03*
%TD*%
D19*
%TO.C,J2*%
X3293200Y8433400D03*
X3293200Y10973400D03*
X3293200Y13513400D03*
X3293200Y16053400D03*
X3293200Y18593400D03*
D20*
X3293200Y21133400D03*
%TD*%
D19*
%TO.C,J9*%
X21327200Y21006400D03*
X21327200Y18466400D03*
X21327200Y15926400D03*
X21327200Y13386400D03*
X21327200Y10846400D03*
D20*
X21327200Y8306400D03*
%TD*%
D13*
%TO.C,J6*%
X2328000Y34326000D03*
X2328000Y36866000D03*
X2328000Y39406000D03*
X2328000Y41946000D03*
X2328000Y44486000D03*
D14*
X2328000Y47026000D03*
%TD*%
D21*
%TO.C,J7*%
X19639100Y30448200D03*
X19639100Y35288200D03*
D22*
X22539100Y36468200D03*
X22539100Y29268200D03*
%TD*%
M02*
