%TF.GenerationSoftware,KiCad,Pcbnew,7.0.5*%
%TF.CreationDate,2023-12-24T21:30:35-08:00*%
%TF.ProjectId,Lyrav3,4c797261-7633-42e6-9b69-6361645f7063,rev?*%
%TF.SameCoordinates,Original*%
%TF.FileFunction,Copper,L3,Inr*%
%TF.FilePolarity,Positive*%
%FSLAX46Y46*%
G04 Gerber Fmt 4.6, Leading zero omitted, Abs format (unit mm)*
G04 Created by KiCad (PCBNEW 7.0.5) date 2023-12-24 21:30:35*
%MOMM*%
%LPD*%
G01*
G04 APERTURE LIST*
%TA.AperFunction,ComponentPad*%
%ADD10C,5.600000*%
%TD*%
%TA.AperFunction,ComponentPad*%
%ADD11O,1.700000X1.700000*%
%TD*%
%TA.AperFunction,ComponentPad*%
%ADD12R,1.700000X1.700000*%
%TD*%
%TA.AperFunction,ComponentPad*%
%ADD13C,1.600000*%
%TD*%
%TA.AperFunction,ComponentPad*%
%ADD14R,1.600000X1.600000*%
%TD*%
%TA.AperFunction,ComponentPad*%
%ADD15C,2.200000*%
%TD*%
%TA.AperFunction,ComponentPad*%
%ADD16R,2.200000X2.200000*%
%TD*%
%TA.AperFunction,ComponentPad*%
%ADD17O,1.400000X1.200000*%
%TD*%
%TA.AperFunction,ComponentPad*%
%ADD18O,1.900000X1.200000*%
%TD*%
%TA.AperFunction,ViaPad*%
%ADD19C,0.600000*%
%TD*%
%TA.AperFunction,ViaPad*%
%ADD20C,1.000000*%
%TD*%
%TA.AperFunction,ViaPad*%
%ADD21C,0.700000*%
%TD*%
G04 APERTURE END LIST*
D10*
%TO.N,GND*%
%TO.C,H3*%
X3000000Y3000000D03*
%TD*%
D11*
%TO.N,/BRKOUT4*%
%TO.C,J8*%
X22648000Y39396000D03*
%TO.N,/BRKOUT3*%
X22648000Y41936000D03*
%TO.N,/BRKOUT2*%
X22648000Y44476000D03*
D12*
%TO.N,/BRKOUT1*%
X22648000Y47016000D03*
%TD*%
D10*
%TO.N,GND*%
%TO.C,H1*%
X3000000Y52000000D03*
%TD*%
%TO.N,GND*%
%TO.C,H2*%
X22000000Y52000000D03*
%TD*%
%TO.N,GND*%
%TO.C,H4*%
X22000000Y3000000D03*
%TD*%
D13*
%TO.N,GND*%
%TO.C,C9*%
X4664800Y26619800D03*
D14*
%TO.N,+12P*%
X2164800Y26619800D03*
%TD*%
D15*
%TO.N,+BATT*%
%TO.C,J2*%
X3293200Y8433400D03*
%TO.N,GND*%
X3293200Y10973400D03*
%TO.N,+BATT*%
X3293200Y13513400D03*
%TO.N,+12V*%
X3293200Y16053400D03*
%TO.N,+12P*%
X3293200Y18593400D03*
D16*
%TO.N,/P4-*%
X3293200Y21133400D03*
%TD*%
D15*
%TO.N,/P3-*%
%TO.C,J9*%
X21327200Y21006400D03*
%TO.N,+12P*%
X21327200Y18466400D03*
%TO.N,/P2-*%
X21327200Y15926400D03*
%TO.N,+12P*%
X21327200Y13386400D03*
%TO.N,/P1-*%
X21327200Y10846400D03*
D16*
%TO.N,+12P*%
X21327200Y8306400D03*
%TD*%
D11*
%TO.N,GND*%
%TO.C,J6*%
X2328000Y34326000D03*
%TO.N,+3V3*%
X2328000Y36866000D03*
%TO.N,+12P*%
X2328000Y39406000D03*
%TO.N,/BRKOUT5*%
X2328000Y41946000D03*
%TO.N,/BRKOUT6*%
X2328000Y44486000D03*
D12*
%TO.N,/BRKOUT7*%
X2328000Y47026000D03*
%TD*%
D17*
%TO.N,unconnected-(J7-Shield-Pad6)*%
%TO.C,J7*%
X19639100Y30448200D03*
%TO.N,N/C*%
X19639100Y35288200D03*
D18*
X22539100Y36468200D03*
X22539100Y29268200D03*
%TD*%
D19*
%TO.N,+3V3*%
X9861883Y27172407D03*
%TO.N,/I2C1 SCL*%
X7789000Y43333000D03*
X11345000Y39904000D03*
%TO.N,GND*%
X9704502Y25934000D03*
%TO.N,/P4 EN *%
X10075000Y22759000D03*
X10075000Y29617000D03*
%TO.N,GND*%
X13916317Y26072003D03*
%TO.N,Net-(D4-RK)*%
X6519000Y24918000D03*
%TO.N,Net-(D4-GK)*%
X7789000Y23648000D03*
%TO.N,Net-(D4-BK)*%
X8805000Y23648000D03*
%TO.N,+3V3*%
X13758000Y28601000D03*
D20*
X10532200Y3556600D03*
X13300800Y3582000D03*
%TO.N,GND*%
X17822000Y5741000D03*
D19*
X3750400Y30252000D03*
X10633800Y41834400D03*
%TO.N,/QSPI_SS*%
X18025200Y52350000D03*
X18863400Y36627400D03*
X17237800Y35535200D03*
X14901614Y24876915D03*
%TO.N,+3V3*%
X8957399Y36906801D03*
%TO.N,/BUZZER*%
X8424000Y38354600D03*
%TO.N,+3V3*%
X7179400Y42113702D03*
%TO.N,GND*%
X15485200Y41072400D03*
X12716600Y53620000D03*
%TO.N,+3V3*%
X12608400Y49784600D03*
%TO.N,GND*%
X11808400Y49759200D03*
%TO.N,+3V3*%
X8604400Y49784600D03*
%TO.N,GND*%
X9408400Y49835400D03*
%TO.N,+3V3*%
X6722200Y54128000D03*
%TO.N,/RUN*%
X8144600Y53594600D03*
X8373208Y34443000D03*
%TO.N,/BATT SENSE *%
X4944200Y36932200D03*
%TO.N,GND*%
X3217002Y37897398D03*
X9440000Y38176800D03*
X14850200Y36627400D03*
X16320800Y31852200D03*
X16219200Y34544600D03*
%TO.N,+3V3*%
X17009200Y28728000D03*
%TO.N,Net-(D2-A)*%
X18507800Y28194600D03*
%TO.N,GND*%
X18507800Y25494800D03*
%TO.N,+1V1*%
X12970600Y32258600D03*
D20*
%TO.N,GND*%
X7179400Y13284800D03*
D19*
X19422200Y7036400D03*
X19473000Y12014800D03*
D20*
X15173441Y22085312D03*
D19*
X19650800Y17653600D03*
X18812600Y31522000D03*
%TO.N,VBUS*%
X21124000Y30582200D03*
X10276100Y18085400D03*
%TO.N,GND*%
X5350600Y17755200D03*
D20*
X16395088Y11739491D03*
X15893600Y17298000D03*
X10076100Y20207751D03*
D19*
%TO.N,/I2C1 SCL*%
X7331800Y47295400D03*
X16831400Y47727200D03*
%TO.N,GND*%
X14164400Y44095000D03*
%TO.N,+3V3*%
X14037400Y45060200D03*
%TO.N,GND*%
X19320600Y45822200D03*
%TO.N,+3V3*%
X19295200Y43764800D03*
X8675024Y39969734D03*
%TO.N,GND*%
X7331800Y40107200D03*
X9694000Y40564400D03*
%TO.N,+3V3*%
X9821000Y43450400D03*
%TO.N,/BATT SENSE *%
X11573600Y34468400D03*
%TO.N,+3V3*%
X13656400Y36068600D03*
%TO.N,+1V1*%
X13275400Y33782600D03*
%TO.N,+3V3*%
X14697800Y35027200D03*
X14748600Y32360200D03*
%TO.N,GND*%
X9389200Y33274600D03*
X11980000Y33274600D03*
X11980000Y30683800D03*
X9389200Y30683800D03*
%TO.N,+3V3*%
X4360000Y29185200D03*
%TO.N,/SWCLK*%
X8200443Y32456680D03*
%TO.N,/SWD*%
X8500200Y33198400D03*
%TO.N,+1V1*%
X5833200Y33935000D03*
%TO.N,+3V3*%
X5861710Y31963400D03*
%TO.N,GND*%
X4950347Y32960200D03*
X23156000Y20625400D03*
%TO.N,+3V3*%
X23098400Y22708200D03*
%TO.N,/QSPI_SCLK*%
X20084608Y26405581D03*
%TO.N,/QSPI_SD3*%
X20879600Y26316178D03*
%TO.N,/QSPI_SCLK*%
X13176600Y30531400D03*
%TO.N,/QSPI_SD3*%
X12927931Y31326150D03*
D21*
%TO.N,GND*%
X16650427Y27024533D03*
%TD*%
%TA.AperFunction,Conductor*%
%TO.N,+3V3*%
G36*
X20203786Y54979815D02*
G01*
X20249541Y54927011D01*
X20259485Y54857853D01*
X20230460Y54794297D01*
X20200677Y54769252D01*
X20145081Y54735800D01*
X20056768Y54668667D01*
X19860172Y54519219D01*
X19860163Y54519211D01*
X19600331Y54273086D01*
X19368641Y54000320D01*
X19368634Y54000310D01*
X19167790Y53704087D01*
X19167784Y53704078D01*
X19000151Y53387889D01*
X19000142Y53387871D01*
X18867674Y53055400D01*
X18867673Y53055397D01*
X18834180Y52934766D01*
X18797278Y52875436D01*
X18734157Y52845476D01*
X18664860Y52854397D01*
X18627019Y52880259D01*
X18527462Y52979816D01*
X18374723Y53075789D01*
X18204454Y53135369D01*
X18204449Y53135370D01*
X18025204Y53155565D01*
X18025196Y53155565D01*
X17845950Y53135370D01*
X17845945Y53135369D01*
X17675676Y53075789D01*
X17522937Y52979816D01*
X17395384Y52852263D01*
X17299411Y52699524D01*
X17239831Y52529255D01*
X17239830Y52529250D01*
X17219635Y52350004D01*
X17219635Y52349997D01*
X17239830Y52170751D01*
X17239831Y52170746D01*
X17299411Y52000477D01*
X17351296Y51917903D01*
X17395384Y51847738D01*
X17522938Y51720184D01*
X17675678Y51624211D01*
X17845945Y51564632D01*
X17845950Y51564631D01*
X18025196Y51544435D01*
X18025200Y51544435D01*
X18025204Y51544435D01*
X18204449Y51564631D01*
X18204452Y51564632D01*
X18204455Y51564632D01*
X18374722Y51624211D01*
X18526952Y51719864D01*
X18594187Y51738864D01*
X18661022Y51718497D01*
X18706237Y51665229D01*
X18715289Y51634931D01*
X18771926Y51289461D01*
X18771932Y51289435D01*
X18867672Y50944608D01*
X18867674Y50944601D01*
X19000142Y50612130D01*
X19000151Y50612112D01*
X19167784Y50295923D01*
X19167787Y50295918D01*
X19167789Y50295915D01*
X19358491Y50014650D01*
X19368634Y49999691D01*
X19368641Y49999681D01*
X19600331Y49726915D01*
X19600332Y49726914D01*
X19860163Y49480789D01*
X20145081Y49264200D01*
X20451747Y49079685D01*
X20451749Y49079684D01*
X20451751Y49079683D01*
X20451755Y49079681D01*
X20680546Y48973832D01*
X20776565Y48929409D01*
X21115726Y48815132D01*
X21465254Y48738195D01*
X21821052Y48699500D01*
X21821058Y48699500D01*
X22178942Y48699500D01*
X22178948Y48699500D01*
X22534746Y48738195D01*
X22884274Y48815132D01*
X23223435Y48929409D01*
X23548253Y49079685D01*
X23854919Y49264200D01*
X24139837Y49480789D01*
X24399668Y49726914D01*
X24631365Y49999689D01*
X24705291Y50108722D01*
X24772867Y50208388D01*
X24826781Y50252829D01*
X24896164Y50261067D01*
X24958985Y50230486D01*
X24995301Y50170796D01*
X24999500Y50138801D01*
X24999500Y4171910D01*
X24979815Y4104871D01*
X24927011Y4059116D01*
X24857853Y4049172D01*
X24794297Y4078197D01*
X24761641Y4122796D01*
X24667989Y4339905D01*
X24667986Y4339913D01*
X24494391Y4640587D01*
X24447119Y4704085D01*
X24287068Y4919072D01*
X24287063Y4919078D01*
X24171859Y5041186D01*
X24048809Y5171611D01*
X24048802Y5171617D01*
X24048800Y5171619D01*
X23782849Y5394779D01*
X23782841Y5394785D01*
X23492779Y5585562D01*
X23182523Y5741378D01*
X23182522Y5741379D01*
X22856263Y5860128D01*
X22670653Y5904118D01*
X22518435Y5940194D01*
X22173594Y5980500D01*
X21826406Y5980500D01*
X21481564Y5940194D01*
X21481565Y5940194D01*
X21143736Y5860128D01*
X20817477Y5741379D01*
X20817476Y5741378D01*
X20507220Y5585562D01*
X20217158Y5394785D01*
X20217150Y5394779D01*
X19951199Y5171619D01*
X19951189Y5171609D01*
X19712936Y4919078D01*
X19712931Y4919072D01*
X19505609Y4640589D01*
X19332016Y4339918D01*
X19332010Y4339905D01*
X19194499Y4021119D01*
X19094924Y3688512D01*
X19094921Y3688498D01*
X19034637Y3346613D01*
X19034636Y3346602D01*
X19014449Y3000004D01*
X19014449Y2999997D01*
X19034636Y2653399D01*
X19034637Y2653388D01*
X19094921Y2311503D01*
X19094924Y2311489D01*
X19094925Y2311485D01*
X19101526Y2289435D01*
X19194499Y1978882D01*
X19332010Y1660096D01*
X19332016Y1660083D01*
X19505609Y1359412D01*
X19712931Y1080929D01*
X19712936Y1080923D01*
X19789577Y999689D01*
X19951191Y828389D01*
X19951197Y828384D01*
X19951199Y828382D01*
X20217150Y605222D01*
X20217158Y605216D01*
X20507220Y414439D01*
X20817476Y258623D01*
X20817477Y258622D01*
X20817480Y258621D01*
X20817484Y258619D01*
X20863229Y241969D01*
X20865831Y241022D01*
X20922095Y199595D01*
X20947030Y134326D01*
X20932720Y65938D01*
X20883708Y16142D01*
X20823420Y500D01*
X4863253Y500D01*
X4796214Y20185D01*
X4750459Y72989D01*
X4740515Y142147D01*
X4769540Y205703D01*
X4799322Y230749D01*
X4854919Y264200D01*
X5139837Y480789D01*
X5399668Y726914D01*
X5631365Y999689D01*
X5832211Y1295915D01*
X5999853Y1612120D01*
X6132324Y1944597D01*
X6228071Y2289448D01*
X6285972Y2642629D01*
X6305348Y3000000D01*
X6285972Y3357371D01*
X6228071Y3710552D01*
X6132324Y4055403D01*
X5999853Y4387880D01*
X5832211Y4704085D01*
X5631365Y5000311D01*
X5631361Y5000316D01*
X5631358Y5000320D01*
X5399668Y5273086D01*
X5311855Y5356267D01*
X5139837Y5519211D01*
X5139830Y5519217D01*
X5139827Y5519219D01*
X5052552Y5585563D01*
X4854919Y5735800D01*
X4846277Y5741000D01*
X16816659Y5741000D01*
X16835975Y5544871D01*
X16835976Y5544868D01*
X16881503Y5394785D01*
X16893188Y5356267D01*
X16986086Y5182468D01*
X16986090Y5182461D01*
X17111116Y5030117D01*
X17263460Y4905091D01*
X17263467Y4905087D01*
X17437266Y4812189D01*
X17437269Y4812189D01*
X17437273Y4812186D01*
X17625868Y4754976D01*
X17822000Y4735659D01*
X18018132Y4754976D01*
X18206727Y4812186D01*
X18238566Y4829204D01*
X18380532Y4905087D01*
X18380538Y4905090D01*
X18532883Y5030117D01*
X18657910Y5182462D01*
X18750814Y5356273D01*
X18808024Y5544868D01*
X18827341Y5741000D01*
X18808024Y5937132D01*
X18750814Y6125727D01*
X18750811Y6125731D01*
X18750811Y6125734D01*
X18657913Y6299533D01*
X18657909Y6299540D01*
X18532883Y6451884D01*
X18380539Y6576910D01*
X18380532Y6576914D01*
X18206733Y6669812D01*
X18206727Y6669814D01*
X18018132Y6727024D01*
X18018129Y6727025D01*
X17822000Y6746341D01*
X17625870Y6727025D01*
X17437266Y6669812D01*
X17263467Y6576914D01*
X17263460Y6576910D01*
X17111116Y6451884D01*
X16986090Y6299540D01*
X16986086Y6299533D01*
X16893188Y6125734D01*
X16835975Y5937130D01*
X16816659Y5741000D01*
X4846277Y5741000D01*
X4548253Y5920315D01*
X4548252Y5920316D01*
X4548248Y5920318D01*
X4548244Y5920320D01*
X4223447Y6070586D01*
X4223441Y6070589D01*
X4223435Y6070591D01*
X4053854Y6127730D01*
X3884273Y6184869D01*
X3534744Y6261806D01*
X3178949Y6300500D01*
X3178948Y6300500D01*
X2821052Y6300500D01*
X2821050Y6300500D01*
X2465255Y6261806D01*
X2115726Y6184869D01*
X1859969Y6098694D01*
X1776565Y6070591D01*
X1776562Y6070590D01*
X1776563Y6070590D01*
X1776552Y6070586D01*
X1451755Y5920320D01*
X1451751Y5920318D01*
X1223367Y5782904D01*
X1145081Y5735800D01*
X1056768Y5668667D01*
X860172Y5519219D01*
X860163Y5519211D01*
X600331Y5273086D01*
X368641Y5000320D01*
X368633Y5000310D01*
X227133Y4791612D01*
X173219Y4747171D01*
X103836Y4738933D01*
X41015Y4769514D01*
X4699Y4829204D01*
X500Y4861199D01*
X500Y8433400D01*
X1687751Y8433400D01*
X1707517Y8182249D01*
X1766326Y7937290D01*
X1862733Y7704541D01*
X1994360Y7489747D01*
X1994361Y7489744D01*
X1994364Y7489741D01*
X2157976Y7298176D01*
X2254596Y7215655D01*
X2349543Y7134562D01*
X2349546Y7134561D01*
X2564340Y7002934D01*
X2658179Y6964065D01*
X2797089Y6906527D01*
X3042052Y6847717D01*
X3293200Y6827951D01*
X3544348Y6847717D01*
X3789311Y6906527D01*
X4022059Y7002934D01*
X4076665Y7036397D01*
X18616635Y7036397D01*
X18636830Y6857151D01*
X18636831Y6857146D01*
X18696411Y6686877D01*
X18792382Y6534141D01*
X18792384Y6534138D01*
X18919938Y6406584D01*
X19072678Y6310611D01*
X19212155Y6261806D01*
X19242945Y6251032D01*
X19242950Y6251031D01*
X19422196Y6230835D01*
X19422200Y6230835D01*
X19422204Y6230835D01*
X19601449Y6251031D01*
X19601452Y6251032D01*
X19601455Y6251032D01*
X19771722Y6310611D01*
X19924462Y6406584D01*
X20052016Y6534138D01*
X20123480Y6647874D01*
X20175813Y6694164D01*
X20228468Y6705901D01*
X22475072Y6705901D01*
X22534683Y6712309D01*
X22669531Y6762604D01*
X22784746Y6848854D01*
X22870996Y6964069D01*
X22921291Y7098917D01*
X22927700Y7158527D01*
X22927699Y9454272D01*
X22921291Y9513883D01*
X22885341Y9610269D01*
X22870997Y9648729D01*
X22870993Y9648736D01*
X22784747Y9763945D01*
X22708094Y9821328D01*
X22666224Y9877262D01*
X22661240Y9946954D01*
X22676676Y9985379D01*
X22757666Y10117541D01*
X22854073Y10350289D01*
X22912883Y10595252D01*
X22932649Y10846400D01*
X22912883Y11097548D01*
X22854073Y11342511D01*
X22783646Y11512538D01*
X22757666Y11575260D01*
X22626039Y11790054D01*
X22626038Y11790057D01*
X22462424Y11981624D01*
X22462423Y11981624D01*
X22415019Y12022111D01*
X22376827Y12080616D01*
X22376328Y12150484D01*
X22413682Y12209530D01*
X22414956Y12210636D01*
X22462424Y12251176D01*
X22626036Y12442741D01*
X22757666Y12657541D01*
X22854073Y12890289D01*
X22912883Y13135252D01*
X22932649Y13386400D01*
X22912883Y13637548D01*
X22854073Y13882511D01*
X22807196Y13995683D01*
X22757666Y14115260D01*
X22626039Y14330054D01*
X22626038Y14330057D01*
X22462424Y14521624D01*
X22415019Y14562112D01*
X22376827Y14620616D01*
X22376328Y14690484D01*
X22413682Y14749530D01*
X22415020Y14750690D01*
X22462424Y14791176D01*
X22626036Y14982741D01*
X22757666Y15197541D01*
X22854073Y15430289D01*
X22912883Y15675252D01*
X22932649Y15926400D01*
X22912883Y16177548D01*
X22854073Y16422511D01*
X22837679Y16462090D01*
X22757666Y16655260D01*
X22626039Y16870054D01*
X22626038Y16870057D01*
X22462424Y17061624D01*
X22462423Y17061624D01*
X22415019Y17102111D01*
X22376827Y17160616D01*
X22376328Y17230484D01*
X22413682Y17289530D01*
X22414956Y17290636D01*
X22462424Y17331176D01*
X22626036Y17522741D01*
X22757666Y17737541D01*
X22854073Y17970289D01*
X22912883Y18215252D01*
X22932649Y18466400D01*
X22912883Y18717548D01*
X22854073Y18962511D01*
X22757666Y19195259D01*
X22757666Y19195260D01*
X22626039Y19410054D01*
X22626038Y19410057D01*
X22462424Y19601624D01*
X22442695Y19618474D01*
X22415019Y19642111D01*
X22376827Y19700616D01*
X22376328Y19770484D01*
X22413682Y19829530D01*
X22414956Y19830636D01*
X22462424Y19871176D01*
X22528820Y19948917D01*
X22587324Y19987107D01*
X22657192Y19987607D01*
X22689080Y19973377D01*
X22764610Y19925918D01*
X22806478Y19899611D01*
X22887738Y19871177D01*
X22976745Y19840032D01*
X22976750Y19840031D01*
X23155996Y19819835D01*
X23156000Y19819835D01*
X23156004Y19819835D01*
X23335249Y19840031D01*
X23335252Y19840032D01*
X23335255Y19840032D01*
X23505522Y19899611D01*
X23658262Y19995584D01*
X23785816Y20123138D01*
X23881789Y20275878D01*
X23941368Y20446145D01*
X23941369Y20446151D01*
X23961565Y20625397D01*
X23961565Y20625404D01*
X23941369Y20804650D01*
X23941368Y20804655D01*
X23901485Y20918634D01*
X23881789Y20974922D01*
X23862009Y21006401D01*
X23815782Y21079971D01*
X23785816Y21127662D01*
X23658262Y21255216D01*
X23654544Y21257552D01*
X23505523Y21351189D01*
X23335254Y21410769D01*
X23335249Y21410770D01*
X23156004Y21430965D01*
X23155996Y21430965D01*
X22987628Y21411995D01*
X22918806Y21424050D01*
X22867427Y21471399D01*
X22856485Y21498172D01*
X22855579Y21497877D01*
X22854073Y21502510D01*
X22757666Y21735260D01*
X22626039Y21950054D01*
X22626038Y21950057D01*
X22555017Y22033211D01*
X22462424Y22141624D01*
X22327643Y22256738D01*
X22270856Y22305239D01*
X22270853Y22305240D01*
X22056059Y22436867D01*
X21823310Y22533274D01*
X21578351Y22592083D01*
X21327200Y22611849D01*
X21076048Y22592083D01*
X20831089Y22533274D01*
X20598340Y22436867D01*
X20383546Y22305240D01*
X20383543Y22305239D01*
X20191976Y22141624D01*
X20028361Y21950057D01*
X20028360Y21950054D01*
X19896733Y21735260D01*
X19800326Y21502511D01*
X19741517Y21257552D01*
X19721751Y21006401D01*
X19741517Y20755249D01*
X19800326Y20510290D01*
X19896733Y20277541D01*
X20028360Y20062747D01*
X20028361Y20062744D01*
X20104688Y19973377D01*
X20191976Y19871176D01*
X20239379Y19830690D01*
X20277571Y19772185D01*
X20278071Y19702317D01*
X20240717Y19643271D01*
X20239380Y19642112D01*
X20191977Y19601625D01*
X20028361Y19410057D01*
X20028360Y19410054D01*
X19896733Y19195260D01*
X19800326Y18962511D01*
X19763998Y18811189D01*
X19741517Y18717548D01*
X19734589Y18629530D01*
X19729841Y18569198D01*
X19704956Y18503910D01*
X19648725Y18462439D01*
X19620107Y18455708D01*
X19471549Y18438970D01*
X19471545Y18438969D01*
X19301276Y18379389D01*
X19148537Y18283416D01*
X19020984Y18155863D01*
X18925011Y18003124D01*
X18865431Y17832855D01*
X18865430Y17832850D01*
X18845235Y17653604D01*
X18845235Y17653597D01*
X18865430Y17474351D01*
X18865431Y17474346D01*
X18925011Y17304077D01*
X19015154Y17160616D01*
X19020984Y17151338D01*
X19148538Y17023784D01*
X19301278Y16927811D01*
X19466324Y16870059D01*
X19471545Y16868232D01*
X19471550Y16868231D01*
X19650796Y16848035D01*
X19650800Y16848035D01*
X19650803Y16848035D01*
X19789628Y16863677D01*
X19858450Y16851623D01*
X19909830Y16804274D01*
X19927454Y16736663D01*
X19909241Y16675669D01*
X19896732Y16655256D01*
X19800326Y16422511D01*
X19741517Y16177552D01*
X19721751Y15926400D01*
X19741517Y15675249D01*
X19800326Y15430290D01*
X19896733Y15197541D01*
X20028360Y14982747D01*
X20028361Y14982744D01*
X20028364Y14982741D01*
X20191976Y14791176D01*
X20201081Y14783400D01*
X20239379Y14750690D01*
X20277572Y14692183D01*
X20278070Y14622315D01*
X20240716Y14563269D01*
X20239379Y14562110D01*
X20191976Y14521624D01*
X20028361Y14330057D01*
X20028360Y14330054D01*
X19896733Y14115260D01*
X19800326Y13882511D01*
X19741517Y13637552D01*
X19721751Y13386401D01*
X19741517Y13135249D01*
X19785395Y12952485D01*
X19781904Y12882702D01*
X19741240Y12825885D01*
X19676314Y12800072D01*
X19650938Y12800318D01*
X19473004Y12820365D01*
X19472996Y12820365D01*
X19293750Y12800170D01*
X19293745Y12800169D01*
X19123476Y12740589D01*
X18970737Y12644616D01*
X18843184Y12517063D01*
X18747211Y12364324D01*
X18687631Y12194055D01*
X18687630Y12194050D01*
X18667435Y12014804D01*
X18667435Y12014797D01*
X18687630Y11835551D01*
X18687631Y11835546D01*
X18747211Y11665277D01*
X18823816Y11543362D01*
X18843184Y11512538D01*
X18970738Y11384984D01*
X19123478Y11289011D01*
X19293744Y11229432D01*
X19293745Y11229432D01*
X19293750Y11229431D01*
X19472996Y11209235D01*
X19473000Y11209235D01*
X19473002Y11209235D01*
X19517821Y11214286D01*
X19603500Y11223939D01*
X19672321Y11211885D01*
X19723700Y11164536D01*
X19741325Y11096926D01*
X19741001Y11090996D01*
X19721751Y10846400D01*
X19726692Y10783614D01*
X19741517Y10595249D01*
X19800326Y10350290D01*
X19896733Y10117541D01*
X19977720Y9985384D01*
X19995965Y9917938D01*
X19974849Y9851336D01*
X19946305Y9821328D01*
X19869652Y9763945D01*
X19783406Y9648736D01*
X19783402Y9648729D01*
X19733108Y9513883D01*
X19726701Y9454284D01*
X19726701Y9454277D01*
X19726700Y9454265D01*
X19726700Y7946413D01*
X19707015Y7879374D01*
X19654211Y7833619D01*
X19588817Y7823193D01*
X19422204Y7841965D01*
X19422196Y7841965D01*
X19242950Y7821770D01*
X19242945Y7821769D01*
X19072676Y7762189D01*
X18919937Y7666216D01*
X18792384Y7538663D01*
X18696411Y7385924D01*
X18636831Y7215655D01*
X18636830Y7215650D01*
X18616635Y7036404D01*
X18616635Y7036397D01*
X4076665Y7036397D01*
X4236859Y7134564D01*
X4428424Y7298176D01*
X4592036Y7489741D01*
X4723666Y7704541D01*
X4820073Y7937289D01*
X4878883Y8182252D01*
X4898649Y8433400D01*
X4878883Y8684548D01*
X4820073Y8929511D01*
X4723666Y9162259D01*
X4723666Y9162260D01*
X4592039Y9377054D01*
X4592038Y9377057D01*
X4428424Y9568624D01*
X4428423Y9568624D01*
X4381019Y9609111D01*
X4342827Y9667616D01*
X4342328Y9737484D01*
X4379682Y9796530D01*
X4380956Y9797636D01*
X4428424Y9838176D01*
X4592036Y10029741D01*
X4723666Y10244541D01*
X4820073Y10477289D01*
X4878883Y10722252D01*
X4898649Y10973400D01*
X4878883Y11224548D01*
X4820073Y11469511D01*
X4776271Y11575260D01*
X4723666Y11702260D01*
X4700850Y11739492D01*
X15389747Y11739492D01*
X15409063Y11543362D01*
X15466276Y11354758D01*
X15559174Y11180959D01*
X15559178Y11180952D01*
X15684204Y11028608D01*
X15836548Y10903582D01*
X15836555Y10903578D01*
X16010354Y10810680D01*
X16010357Y10810680D01*
X16010361Y10810677D01*
X16198956Y10753467D01*
X16395088Y10734150D01*
X16591220Y10753467D01*
X16779815Y10810677D01*
X16953626Y10903581D01*
X17105971Y11028608D01*
X17230998Y11180953D01*
X17323902Y11354764D01*
X17381112Y11543359D01*
X17400429Y11739491D01*
X17381112Y11935623D01*
X17323902Y12124218D01*
X17323899Y12124222D01*
X17323899Y12124225D01*
X17231001Y12298024D01*
X17230997Y12298031D01*
X17105971Y12450375D01*
X16953627Y12575401D01*
X16953620Y12575405D01*
X16779821Y12668303D01*
X16779815Y12668305D01*
X16591220Y12725515D01*
X16591217Y12725516D01*
X16395088Y12744832D01*
X16198958Y12725516D01*
X16010354Y12668303D01*
X15836555Y12575405D01*
X15836548Y12575401D01*
X15684204Y12450375D01*
X15559178Y12298031D01*
X15559174Y12298024D01*
X15466276Y12124225D01*
X15409063Y11935621D01*
X15389747Y11739492D01*
X4700850Y11739492D01*
X4592039Y11917054D01*
X4592038Y11917057D01*
X4428424Y12108624D01*
X4419319Y12116400D01*
X4381019Y12149111D01*
X4342827Y12207616D01*
X4342328Y12277484D01*
X4379682Y12336530D01*
X4380956Y12337636D01*
X4428424Y12378176D01*
X4592036Y12569741D01*
X4723666Y12784541D01*
X4820073Y13017289D01*
X4878883Y13262252D01*
X4880658Y13284800D01*
X6174059Y13284800D01*
X6193375Y13088671D01*
X6250588Y12900067D01*
X6343486Y12726268D01*
X6343490Y12726261D01*
X6468516Y12573917D01*
X6620860Y12448891D01*
X6620867Y12448887D01*
X6794666Y12355989D01*
X6794669Y12355989D01*
X6794673Y12355986D01*
X6983268Y12298776D01*
X7179400Y12279459D01*
X7375532Y12298776D01*
X7564127Y12355986D01*
X7579727Y12364324D01*
X7726434Y12442741D01*
X7737938Y12448890D01*
X7890283Y12573917D01*
X8015310Y12726262D01*
X8098929Y12882702D01*
X8108211Y12900067D01*
X8108211Y12900068D01*
X8108214Y12900073D01*
X8165424Y13088668D01*
X8184741Y13284800D01*
X8165424Y13480932D01*
X8108214Y13669527D01*
X8108211Y13669531D01*
X8108211Y13669534D01*
X8015313Y13843333D01*
X8015309Y13843340D01*
X7890283Y13995684D01*
X7737939Y14120710D01*
X7737932Y14120714D01*
X7564133Y14213612D01*
X7564127Y14213614D01*
X7375532Y14270824D01*
X7375529Y14270825D01*
X7179400Y14290141D01*
X6983270Y14270825D01*
X6794666Y14213612D01*
X6620867Y14120714D01*
X6620860Y14120710D01*
X6468516Y13995684D01*
X6343490Y13843340D01*
X6343486Y13843333D01*
X6250588Y13669534D01*
X6193375Y13480930D01*
X6174059Y13284800D01*
X4880658Y13284800D01*
X4898649Y13513400D01*
X4878883Y13764548D01*
X4820073Y14009511D01*
X4774013Y14120710D01*
X4723666Y14242260D01*
X4592039Y14457054D01*
X4592038Y14457057D01*
X4428424Y14648624D01*
X4419318Y14656401D01*
X4381019Y14689111D01*
X4342827Y14747616D01*
X4342328Y14817484D01*
X4379682Y14876530D01*
X4380956Y14877636D01*
X4428424Y14918176D01*
X4592036Y15109741D01*
X4723666Y15324541D01*
X4820073Y15557289D01*
X4878883Y15802252D01*
X4898649Y16053400D01*
X4878883Y16304548D01*
X4820073Y16549511D01*
X4767817Y16675669D01*
X4723666Y16782260D01*
X4592039Y16997054D01*
X4592038Y16997057D01*
X4428424Y17188624D01*
X4392736Y17219104D01*
X4381019Y17229111D01*
X4342827Y17287616D01*
X4342328Y17357484D01*
X4379682Y17416530D01*
X4380966Y17417644D01*
X4427738Y17457591D01*
X4491496Y17486160D01*
X4560582Y17475723D01*
X4613058Y17429593D01*
X4621624Y17411875D01*
X4621788Y17411953D01*
X4624807Y17405684D01*
X4688651Y17304077D01*
X4720784Y17252938D01*
X4848338Y17125384D01*
X5001078Y17029411D01*
X5093549Y16997054D01*
X5171345Y16969832D01*
X5171350Y16969831D01*
X5350596Y16949635D01*
X5350600Y16949635D01*
X5350604Y16949635D01*
X5529849Y16969831D01*
X5529852Y16969832D01*
X5529855Y16969832D01*
X5700122Y17029411D01*
X5852862Y17125384D01*
X5980416Y17252938D01*
X6076389Y17405678D01*
X6135968Y17575945D01*
X6135969Y17575951D01*
X6156165Y17755197D01*
X6156165Y17755204D01*
X6135969Y17934450D01*
X6135968Y17934455D01*
X6111940Y18003124D01*
X6083151Y18085397D01*
X9470535Y18085397D01*
X9490730Y17906151D01*
X9490731Y17906146D01*
X9550311Y17735877D01*
X9627260Y17613415D01*
X9646284Y17583138D01*
X9773838Y17455584D01*
X9926578Y17359611D01*
X9932657Y17357484D01*
X10096845Y17300032D01*
X10096850Y17300031D01*
X10276096Y17279835D01*
X10276100Y17279835D01*
X10276104Y17279835D01*
X10437323Y17298000D01*
X14888259Y17298000D01*
X14907575Y17101871D01*
X14964788Y16913267D01*
X15057686Y16739468D01*
X15057690Y16739461D01*
X15182716Y16587117D01*
X15335060Y16462091D01*
X15335067Y16462087D01*
X15508866Y16369189D01*
X15508869Y16369189D01*
X15508873Y16369186D01*
X15697468Y16311976D01*
X15893600Y16292659D01*
X16089732Y16311976D01*
X16278327Y16369186D01*
X16452138Y16462090D01*
X16604483Y16587117D01*
X16729510Y16739462D01*
X16822414Y16913273D01*
X16879624Y17101868D01*
X16898941Y17298000D01*
X16879624Y17494132D01*
X16822414Y17682727D01*
X16822411Y17682731D01*
X16822411Y17682734D01*
X16729513Y17856533D01*
X16729509Y17856540D01*
X16604483Y18008884D01*
X16452139Y18133910D01*
X16452132Y18133914D01*
X16278333Y18226812D01*
X16278327Y18226814D01*
X16152596Y18264954D01*
X16089729Y18284025D01*
X15893600Y18303341D01*
X15697470Y18284025D01*
X15508866Y18226812D01*
X15335067Y18133914D01*
X15335060Y18133910D01*
X15182716Y18008884D01*
X15057690Y17856540D01*
X15057686Y17856533D01*
X14964788Y17682734D01*
X14907575Y17494130D01*
X14888259Y17298000D01*
X10437323Y17298000D01*
X10455349Y17300031D01*
X10455352Y17300032D01*
X10455355Y17300032D01*
X10625622Y17359611D01*
X10778362Y17455584D01*
X10905916Y17583138D01*
X11001889Y17735878D01*
X11061468Y17906145D01*
X11061469Y17906151D01*
X11081665Y18085397D01*
X11081665Y18085404D01*
X11061469Y18264650D01*
X11061468Y18264655D01*
X11034317Y18342249D01*
X11001889Y18434922D01*
X10999345Y18438970D01*
X10935507Y18540568D01*
X10905916Y18587662D01*
X10778362Y18715216D01*
X10774644Y18717552D01*
X10625623Y18811189D01*
X10455354Y18870769D01*
X10455349Y18870770D01*
X10276104Y18890965D01*
X10276096Y18890965D01*
X10096850Y18870770D01*
X10096845Y18870769D01*
X9926576Y18811189D01*
X9773837Y18715216D01*
X9646284Y18587663D01*
X9550311Y18434924D01*
X9490731Y18264655D01*
X9490730Y18264650D01*
X9470535Y18085404D01*
X9470535Y18085397D01*
X6083151Y18085397D01*
X6076389Y18104722D01*
X6058046Y18133914D01*
X6006938Y18215252D01*
X5980416Y18257462D01*
X5852862Y18385016D01*
X5817186Y18407433D01*
X5700123Y18480989D01*
X5529854Y18540569D01*
X5529849Y18540570D01*
X5350604Y18560765D01*
X5350596Y18560765D01*
X5171350Y18540570D01*
X5171342Y18540568D01*
X5061945Y18502288D01*
X4992166Y18498727D01*
X4931539Y18533456D01*
X4899312Y18595449D01*
X4897375Y18609585D01*
X4878883Y18844548D01*
X4820073Y19089511D01*
X4773309Y19202410D01*
X4723666Y19322260D01*
X4642679Y19454417D01*
X4624434Y19521862D01*
X4645550Y19588465D01*
X4674091Y19618471D01*
X4750746Y19675854D01*
X4836996Y19791069D01*
X4887291Y19925917D01*
X4893700Y19985527D01*
X4893700Y20207752D01*
X9070759Y20207752D01*
X9090075Y20011622D01*
X9090076Y20011619D01*
X9145312Y19829530D01*
X9147288Y19823018D01*
X9240186Y19649219D01*
X9240190Y19649212D01*
X9365216Y19496868D01*
X9517560Y19371842D01*
X9517567Y19371838D01*
X9691366Y19278940D01*
X9691369Y19278940D01*
X9691373Y19278937D01*
X9879968Y19221727D01*
X10076100Y19202410D01*
X10272232Y19221727D01*
X10460827Y19278937D01*
X10634638Y19371841D01*
X10786983Y19496868D01*
X10912010Y19649213D01*
X10987835Y19791072D01*
X11004911Y19823018D01*
X11004911Y19823019D01*
X11004914Y19823024D01*
X11062124Y20011619D01*
X11081441Y20207751D01*
X11062124Y20403883D01*
X11004914Y20592478D01*
X11004911Y20592482D01*
X11004911Y20592485D01*
X10912013Y20766284D01*
X10912009Y20766291D01*
X10786983Y20918635D01*
X10634639Y21043661D01*
X10634632Y21043665D01*
X10460833Y21136563D01*
X10460827Y21136565D01*
X10272232Y21193775D01*
X10272229Y21193776D01*
X10076100Y21213092D01*
X9879970Y21193776D01*
X9691366Y21136563D01*
X9517567Y21043665D01*
X9517560Y21043661D01*
X9365216Y20918635D01*
X9240190Y20766291D01*
X9240186Y20766284D01*
X9147288Y20592485D01*
X9090075Y20403881D01*
X9070759Y20207752D01*
X4893700Y20207752D01*
X4893699Y22281272D01*
X4887291Y22340883D01*
X4851491Y22436867D01*
X4836997Y22475729D01*
X4836993Y22475736D01*
X4750747Y22590945D01*
X4750744Y22590948D01*
X4635535Y22677194D01*
X4635528Y22677198D01*
X4500682Y22727492D01*
X4500683Y22727492D01*
X4441083Y22733899D01*
X4441081Y22733900D01*
X4441073Y22733900D01*
X4441064Y22733900D01*
X2145329Y22733900D01*
X2145323Y22733899D01*
X2085716Y22727492D01*
X1950871Y22677198D01*
X1950864Y22677194D01*
X1835655Y22590948D01*
X1835652Y22590945D01*
X1749406Y22475736D01*
X1749402Y22475729D01*
X1699108Y22340883D01*
X1695276Y22305236D01*
X1692701Y22281277D01*
X1692700Y22281265D01*
X1692700Y19985530D01*
X1692701Y19985524D01*
X1699108Y19925917D01*
X1749402Y19791072D01*
X1749406Y19791065D01*
X1835652Y19675856D01*
X1835655Y19675853D01*
X1912304Y19618473D01*
X1954175Y19562539D01*
X1959159Y19492848D01*
X1943720Y19454417D01*
X1862733Y19322260D01*
X1766326Y19089511D01*
X1707517Y18844552D01*
X1687751Y18593401D01*
X1707517Y18342249D01*
X1766326Y18097290D01*
X1862733Y17864541D01*
X1994360Y17649747D01*
X1994361Y17649744D01*
X1994364Y17649741D01*
X2157976Y17458176D01*
X2205379Y17417690D01*
X2243572Y17359183D01*
X2244070Y17289315D01*
X2206716Y17230269D01*
X2205379Y17229110D01*
X2157976Y17188624D01*
X1994361Y16997057D01*
X1994360Y16997054D01*
X1862733Y16782260D01*
X1766326Y16549511D01*
X1707517Y16304552D01*
X1687751Y16053400D01*
X1707517Y15802249D01*
X1766326Y15557290D01*
X1862733Y15324541D01*
X1994360Y15109747D01*
X1994361Y15109744D01*
X1994364Y15109741D01*
X2157976Y14918176D01*
X2202707Y14879972D01*
X2205378Y14877691D01*
X2243571Y14819184D01*
X2244069Y14749316D01*
X2206715Y14690270D01*
X2205379Y14689112D01*
X2157983Y14648632D01*
X2157976Y14648624D01*
X1994361Y14457057D01*
X1994360Y14457054D01*
X1862733Y14242260D01*
X1766326Y14009511D01*
X1707517Y13764552D01*
X1687751Y13513400D01*
X1707517Y13262249D01*
X1766326Y13017290D01*
X1862733Y12784541D01*
X1994360Y12569747D01*
X1994361Y12569744D01*
X1994364Y12569741D01*
X2157976Y12378176D01*
X2205378Y12337691D01*
X2205379Y12337690D01*
X2243572Y12279183D01*
X2244070Y12209315D01*
X2206716Y12150269D01*
X2205379Y12149110D01*
X2157976Y12108624D01*
X1994361Y11917057D01*
X1994360Y11917054D01*
X1862733Y11702260D01*
X1766326Y11469511D01*
X1707517Y11224552D01*
X1687751Y10973400D01*
X1707517Y10722249D01*
X1766326Y10477290D01*
X1862733Y10244541D01*
X1994360Y10029747D01*
X1994361Y10029744D01*
X2032248Y9985384D01*
X2157976Y9838176D01*
X2205378Y9797691D01*
X2205379Y9797690D01*
X2243572Y9739183D01*
X2244070Y9669315D01*
X2206716Y9610269D01*
X2205379Y9609110D01*
X2157976Y9568624D01*
X1994361Y9377057D01*
X1994360Y9377054D01*
X1862733Y9162260D01*
X1766326Y8929511D01*
X1707517Y8684552D01*
X1687751Y8433400D01*
X500Y8433400D01*
X500Y24917997D01*
X5713435Y24917997D01*
X5733630Y24738751D01*
X5733631Y24738746D01*
X5793211Y24568477D01*
X5793212Y24568476D01*
X5889184Y24415738D01*
X6016738Y24288184D01*
X6169478Y24192211D01*
X6339744Y24132632D01*
X6339745Y24132632D01*
X6339750Y24132631D01*
X6518996Y24112435D01*
X6519000Y24112435D01*
X6519004Y24112435D01*
X6698249Y24132631D01*
X6698252Y24132632D01*
X6698255Y24132632D01*
X6868522Y24192211D01*
X6932352Y24232319D01*
X6999587Y24251319D01*
X7066423Y24230952D01*
X7111637Y24177685D01*
X7120876Y24108429D01*
X7103318Y24061353D01*
X7063211Y23997524D01*
X7003631Y23827255D01*
X7003630Y23827250D01*
X6983435Y23648004D01*
X6983435Y23647997D01*
X7003630Y23468751D01*
X7003631Y23468746D01*
X7063211Y23298477D01*
X7086595Y23261262D01*
X7159184Y23145738D01*
X7286738Y23018184D01*
X7439478Y22922211D01*
X7609739Y22862634D01*
X7609745Y22862632D01*
X7609750Y22862631D01*
X7788996Y22842435D01*
X7789000Y22842435D01*
X7789004Y22842435D01*
X7968249Y22862631D01*
X7968252Y22862632D01*
X7968255Y22862632D01*
X8138522Y22922211D01*
X8231027Y22980337D01*
X8298264Y22999337D01*
X8362973Y22980336D01*
X8455475Y22922212D01*
X8625745Y22862632D01*
X8625750Y22862631D01*
X8804996Y22842435D01*
X8805000Y22842435D01*
X8805004Y22842435D01*
X8984249Y22862631D01*
X8984251Y22862632D01*
X8984255Y22862632D01*
X8984258Y22862634D01*
X8984262Y22862634D01*
X9107024Y22905590D01*
X9176803Y22909152D01*
X9237430Y22874424D01*
X9269658Y22812430D01*
X9271200Y22774669D01*
X9269435Y22759000D01*
X9269435Y22758997D01*
X9289630Y22579751D01*
X9289631Y22579746D01*
X9349211Y22409477D01*
X9429660Y22281444D01*
X9445184Y22256738D01*
X9572738Y22129184D01*
X9725478Y22033211D01*
X9895744Y21973633D01*
X9895745Y21973632D01*
X9895750Y21973631D01*
X10074996Y21953435D01*
X10075000Y21953435D01*
X10075004Y21953435D01*
X10254249Y21973631D01*
X10254252Y21973632D01*
X10254255Y21973632D01*
X10424522Y22033211D01*
X10507440Y22085312D01*
X14168100Y22085312D01*
X14187416Y21889183D01*
X14187417Y21889180D01*
X14234108Y21735260D01*
X14244629Y21700579D01*
X14337527Y21526780D01*
X14337531Y21526773D01*
X14462557Y21374429D01*
X14614901Y21249403D01*
X14614908Y21249399D01*
X14788707Y21156501D01*
X14788710Y21156501D01*
X14788714Y21156498D01*
X14977309Y21099288D01*
X15173441Y21079971D01*
X15369573Y21099288D01*
X15558168Y21156498D01*
X15731979Y21249402D01*
X15884324Y21374429D01*
X16009351Y21526774D01*
X16102255Y21700585D01*
X16159465Y21889180D01*
X16178782Y22085312D01*
X16159465Y22281444D01*
X16102255Y22470039D01*
X16102252Y22470043D01*
X16102252Y22470046D01*
X16009354Y22643845D01*
X16009350Y22643852D01*
X15884324Y22796196D01*
X15731980Y22921222D01*
X15731973Y22921226D01*
X15558174Y23014124D01*
X15558168Y23014126D01*
X15369573Y23071336D01*
X15369570Y23071337D01*
X15173441Y23090653D01*
X14977311Y23071337D01*
X14788707Y23014124D01*
X14614908Y22921226D01*
X14614901Y22921222D01*
X14462557Y22796196D01*
X14337531Y22643852D01*
X14337527Y22643845D01*
X14244629Y22470046D01*
X14187416Y22281442D01*
X14168100Y22085312D01*
X10507440Y22085312D01*
X10577262Y22129184D01*
X10704816Y22256738D01*
X10800789Y22409478D01*
X10860368Y22579745D01*
X10861630Y22590946D01*
X10880565Y22758997D01*
X10880565Y22759004D01*
X10860369Y22938250D01*
X10860368Y22938255D01*
X10833820Y23014124D01*
X10800789Y23108522D01*
X10704816Y23261262D01*
X10577262Y23388816D01*
X10577261Y23388816D01*
X10424523Y23484789D01*
X10254254Y23544369D01*
X10254249Y23544370D01*
X10075004Y23564565D01*
X10074996Y23564565D01*
X9895750Y23544370D01*
X9895742Y23544368D01*
X9772974Y23501410D01*
X9703195Y23497849D01*
X9642568Y23532578D01*
X9610341Y23594572D01*
X9608800Y23632338D01*
X9610565Y23648001D01*
X9610565Y23648004D01*
X9590369Y23827250D01*
X9590368Y23827255D01*
X9530788Y23997524D01*
X9445894Y24132631D01*
X9434816Y24150262D01*
X9307262Y24277816D01*
X9154523Y24373789D01*
X8984254Y24433369D01*
X8984249Y24433370D01*
X8805004Y24453565D01*
X8804996Y24453565D01*
X8625750Y24433370D01*
X8625745Y24433369D01*
X8455476Y24373789D01*
X8362972Y24315664D01*
X8295735Y24296664D01*
X8231028Y24315664D01*
X8138523Y24373789D01*
X7968254Y24433369D01*
X7968249Y24433370D01*
X7789004Y24453565D01*
X7788996Y24453565D01*
X7609750Y24433370D01*
X7609745Y24433369D01*
X7439476Y24373789D01*
X7375647Y24333682D01*
X7308410Y24314682D01*
X7241575Y24335050D01*
X7196361Y24388318D01*
X7187124Y24457574D01*
X7204681Y24504647D01*
X7244789Y24568478D01*
X7304368Y24738745D01*
X7307778Y24769011D01*
X7324565Y24917997D01*
X7324565Y24918004D01*
X7304369Y25097250D01*
X7304368Y25097255D01*
X7259165Y25226437D01*
X7244789Y25267522D01*
X7239195Y25276424D01*
X7165909Y25393059D01*
X7148816Y25420262D01*
X7021262Y25547816D01*
X6974065Y25577472D01*
X6868523Y25643789D01*
X6698254Y25703369D01*
X6698249Y25703370D01*
X6519004Y25723565D01*
X6518996Y25723565D01*
X6339750Y25703370D01*
X6339745Y25703369D01*
X6169476Y25643789D01*
X6016737Y25547816D01*
X5889184Y25420263D01*
X5793211Y25267524D01*
X5733631Y25097255D01*
X5733630Y25097250D01*
X5713435Y24918004D01*
X5713435Y24917997D01*
X500Y24917997D01*
X500Y25771930D01*
X864300Y25771930D01*
X864301Y25771924D01*
X870708Y25712317D01*
X921002Y25577472D01*
X921006Y25577465D01*
X1007252Y25462256D01*
X1007255Y25462253D01*
X1122464Y25376007D01*
X1122471Y25376003D01*
X1257317Y25325709D01*
X1257316Y25325709D01*
X1264244Y25324965D01*
X1316927Y25319300D01*
X3012672Y25319301D01*
X3072283Y25325709D01*
X3207131Y25376004D01*
X3322346Y25462254D01*
X3408596Y25577469D01*
X3458891Y25712317D01*
X3458892Y25712328D01*
X3460165Y25717712D01*
X3494733Y25778431D01*
X3556641Y25810822D01*
X3626233Y25804601D01*
X3668525Y25776888D01*
X3825658Y25619755D01*
X3825661Y25619753D01*
X4012066Y25489232D01*
X4218304Y25393061D01*
X4438108Y25334165D01*
X4600030Y25319999D01*
X4664798Y25314332D01*
X4664800Y25314332D01*
X4664802Y25314332D01*
X4721607Y25319302D01*
X4891492Y25334165D01*
X5111296Y25393061D01*
X5317534Y25489232D01*
X5503939Y25619753D01*
X5664847Y25780661D01*
X5772213Y25933997D01*
X8898937Y25933997D01*
X8919132Y25754751D01*
X8919133Y25754746D01*
X8978713Y25584477D01*
X9055512Y25462253D01*
X9074686Y25431738D01*
X9202240Y25304184D01*
X9265604Y25264370D01*
X9325973Y25226437D01*
X9354980Y25208211D01*
X9523021Y25149411D01*
X9525247Y25148632D01*
X9525252Y25148631D01*
X9704498Y25128435D01*
X9704502Y25128435D01*
X9704506Y25128435D01*
X9883751Y25148631D01*
X9883754Y25148632D01*
X9883757Y25148632D01*
X10054024Y25208211D01*
X10206764Y25304184D01*
X10334318Y25431738D01*
X10430291Y25584478D01*
X10489870Y25754745D01*
X10489871Y25754751D01*
X10510067Y25933997D01*
X10510067Y25934004D01*
X10494519Y26072000D01*
X13110752Y26072000D01*
X13130947Y25892754D01*
X13130948Y25892749D01*
X13190528Y25722480D01*
X13265789Y25602704D01*
X13286501Y25569741D01*
X13414055Y25442187D01*
X13492237Y25393062D01*
X13519384Y25376004D01*
X13566795Y25346214D01*
X13654442Y25315545D01*
X13737062Y25286635D01*
X13737067Y25286634D01*
X13916313Y25266438D01*
X13916317Y25266438D01*
X13916319Y25266438D01*
X13945734Y25269753D01*
X14004943Y25276424D01*
X14073764Y25264370D01*
X14125143Y25217021D01*
X14142768Y25149411D01*
X14135868Y25112251D01*
X14116247Y25056176D01*
X14116244Y25056165D01*
X14096049Y24876919D01*
X14096049Y24876912D01*
X14116244Y24697666D01*
X14116245Y24697661D01*
X14175825Y24527392D01*
X14263212Y24388318D01*
X14271798Y24374653D01*
X14399352Y24247099D01*
X14552092Y24151126D01*
X14604945Y24132632D01*
X14722359Y24091547D01*
X14722364Y24091546D01*
X14901610Y24071350D01*
X14901614Y24071350D01*
X14901618Y24071350D01*
X15080863Y24091546D01*
X15080866Y24091547D01*
X15080869Y24091547D01*
X15251136Y24151126D01*
X15403876Y24247099D01*
X15531430Y24374653D01*
X15627403Y24527393D01*
X15686982Y24697660D01*
X15686983Y24697666D01*
X15707179Y24876912D01*
X15707179Y24876919D01*
X15686983Y25056165D01*
X15686982Y25056170D01*
X15654628Y25148632D01*
X15627403Y25226437D01*
X15531430Y25379177D01*
X15415810Y25494797D01*
X17702235Y25494797D01*
X17722430Y25315551D01*
X17722431Y25315546D01*
X17782011Y25145277D01*
X17838001Y25056170D01*
X17877984Y24992538D01*
X18005538Y24864984D01*
X18158278Y24769011D01*
X18328544Y24709433D01*
X18328545Y24709432D01*
X18328550Y24709431D01*
X18507796Y24689235D01*
X18507800Y24689235D01*
X18507804Y24689235D01*
X18687049Y24709431D01*
X18687052Y24709432D01*
X18687055Y24709432D01*
X18857322Y24769011D01*
X19010062Y24864984D01*
X19137616Y24992538D01*
X19233589Y25145278D01*
X19293168Y25315545D01*
X19293591Y25319300D01*
X19313365Y25494797D01*
X19313365Y25494804D01*
X19293169Y25674050D01*
X19293166Y25674063D01*
X19262203Y25762550D01*
X19258641Y25832329D01*
X19293369Y25892956D01*
X19355363Y25925184D01*
X19424938Y25918779D01*
X19466925Y25891187D01*
X19582346Y25775765D01*
X19588459Y25771924D01*
X19727513Y25684550D01*
X19735086Y25679792D01*
X19785124Y25662283D01*
X19905353Y25620213D01*
X19905358Y25620212D01*
X20084604Y25600016D01*
X20084608Y25600016D01*
X20084612Y25600016D01*
X20263854Y25620212D01*
X20263853Y25620212D01*
X20263863Y25620213D01*
X20348003Y25649656D01*
X20417781Y25653217D01*
X20454929Y25637608D01*
X20530076Y25590390D01*
X20530078Y25590389D01*
X20567013Y25577465D01*
X20700345Y25530810D01*
X20700350Y25530809D01*
X20879596Y25510613D01*
X20879600Y25510613D01*
X20879604Y25510613D01*
X21058849Y25530809D01*
X21058852Y25530810D01*
X21058855Y25530810D01*
X21229122Y25590389D01*
X21381862Y25686362D01*
X21509416Y25813916D01*
X21605389Y25966656D01*
X21664968Y26136923D01*
X21664969Y26136929D01*
X21685165Y26316175D01*
X21685165Y26316182D01*
X21664969Y26495428D01*
X21664968Y26495433D01*
X21633686Y26584831D01*
X21605389Y26665700D01*
X21598478Y26676698D01*
X21509415Y26818441D01*
X21381862Y26945994D01*
X21229123Y27041967D01*
X21058854Y27101547D01*
X21058849Y27101548D01*
X20879604Y27121743D01*
X20879596Y27121743D01*
X20700346Y27101547D01*
X20700345Y27101547D01*
X20616202Y27072105D01*
X20546423Y27068544D01*
X20509278Y27084153D01*
X20434135Y27131368D01*
X20434126Y27131372D01*
X20263870Y27190948D01*
X20263857Y27190951D01*
X20084612Y27211146D01*
X20084604Y27211146D01*
X19905358Y27190951D01*
X19905353Y27190950D01*
X19735084Y27131370D01*
X19582345Y27035397D01*
X19454792Y26907844D01*
X19358819Y26755105D01*
X19299239Y26584836D01*
X19299238Y26584831D01*
X19279043Y26405585D01*
X19279043Y26405578D01*
X19299238Y26226332D01*
X19299240Y26226324D01*
X19330205Y26137831D01*
X19333766Y26068052D01*
X19299037Y26007425D01*
X19237044Y25975198D01*
X19167468Y25981604D01*
X19125482Y26009196D01*
X19010062Y26124616D01*
X18857323Y26220589D01*
X18687054Y26280169D01*
X18687049Y26280170D01*
X18507804Y26300365D01*
X18507796Y26300365D01*
X18328550Y26280170D01*
X18328545Y26280169D01*
X18158276Y26220589D01*
X18005537Y26124616D01*
X17877984Y25997063D01*
X17782011Y25844324D01*
X17722431Y25674055D01*
X17722430Y25674050D01*
X17702235Y25494804D01*
X17702235Y25494797D01*
X15415810Y25494797D01*
X15403876Y25506731D01*
X15338490Y25547816D01*
X15251137Y25602704D01*
X15080868Y25662284D01*
X15080863Y25662285D01*
X14901618Y25682480D01*
X14901610Y25682480D01*
X14812987Y25672495D01*
X14744165Y25684550D01*
X14692786Y25731899D01*
X14675162Y25799509D01*
X14682063Y25836670D01*
X14701683Y25892741D01*
X14701686Y25892754D01*
X14721882Y26072000D01*
X14721882Y26072007D01*
X14701686Y26251253D01*
X14701685Y26251258D01*
X14684502Y26300365D01*
X14642106Y26421525D01*
X14632845Y26436263D01*
X14579055Y26521870D01*
X14546133Y26574265D01*
X14418579Y26701819D01*
X14390650Y26719368D01*
X14265840Y26797792D01*
X14095571Y26857372D01*
X14095566Y26857373D01*
X13916321Y26877568D01*
X13916313Y26877568D01*
X13737067Y26857373D01*
X13737062Y26857372D01*
X13566793Y26797792D01*
X13414054Y26701819D01*
X13286501Y26574266D01*
X13190528Y26421527D01*
X13130948Y26251258D01*
X13130947Y26251253D01*
X13110752Y26072007D01*
X13110752Y26072000D01*
X10494519Y26072000D01*
X10489871Y26113250D01*
X10489870Y26113255D01*
X10450305Y26226326D01*
X10430291Y26283522D01*
X10430040Y26283921D01*
X10364007Y26389012D01*
X10334318Y26436262D01*
X10206764Y26563816D01*
X10117668Y26619799D01*
X10054025Y26659789D01*
X9883756Y26719369D01*
X9883751Y26719370D01*
X9704506Y26739565D01*
X9704498Y26739565D01*
X9525252Y26719370D01*
X9525247Y26719369D01*
X9354978Y26659789D01*
X9202239Y26563816D01*
X9074686Y26436263D01*
X8978713Y26283524D01*
X8919133Y26113255D01*
X8919132Y26113250D01*
X8898937Y25934004D01*
X8898937Y25933997D01*
X5772213Y25933997D01*
X5795368Y25967066D01*
X5891539Y26173304D01*
X5950435Y26393108D01*
X5970268Y26619800D01*
X5950435Y26846492D01*
X5902729Y27024534D01*
X15795242Y27024534D01*
X15813930Y26846728D01*
X15813931Y26846726D01*
X15869174Y26676704D01*
X15869177Y26676698D01*
X15958568Y26521868D01*
X15982375Y26495428D01*
X16078191Y26389012D01*
X16078194Y26389010D01*
X16078197Y26389007D01*
X16222834Y26283921D01*
X16386160Y26211204D01*
X16561036Y26174033D01*
X16561037Y26174033D01*
X16739816Y26174033D01*
X16739818Y26174033D01*
X16914694Y26211204D01*
X17078020Y26283921D01*
X17222657Y26389007D01*
X17237581Y26405581D01*
X17251938Y26421527D01*
X17342286Y26521868D01*
X17431677Y26676698D01*
X17486924Y26846730D01*
X17505612Y27024533D01*
X17486924Y27202336D01*
X17431677Y27372368D01*
X17342286Y27527198D01*
X17295430Y27579237D01*
X17222662Y27660055D01*
X17222659Y27660057D01*
X17222658Y27660058D01*
X17222657Y27660059D01*
X17078020Y27765145D01*
X16914694Y27837862D01*
X16914692Y27837863D01*
X16787021Y27865000D01*
X16739818Y27875033D01*
X16561036Y27875033D01*
X16530381Y27868518D01*
X16386160Y27837863D01*
X16386155Y27837861D01*
X16222835Y27765146D01*
X16078195Y27660058D01*
X15958567Y27527197D01*
X15869177Y27372369D01*
X15869174Y27372363D01*
X15813931Y27202341D01*
X15813930Y27202339D01*
X15795242Y27024534D01*
X5902729Y27024534D01*
X5891539Y27066296D01*
X5795368Y27272534D01*
X5664847Y27458939D01*
X5664845Y27458942D01*
X5503941Y27619846D01*
X5317534Y27750368D01*
X5317532Y27750369D01*
X5111297Y27846539D01*
X5111288Y27846542D01*
X4891497Y27905434D01*
X4891493Y27905435D01*
X4891492Y27905435D01*
X4891491Y27905436D01*
X4891486Y27905436D01*
X4664802Y27925268D01*
X4664798Y27925268D01*
X4438113Y27905436D01*
X4438102Y27905434D01*
X4218311Y27846542D01*
X4218302Y27846539D01*
X4012067Y27750369D01*
X4012065Y27750368D01*
X3825662Y27619849D01*
X3668526Y27462713D01*
X3607203Y27429229D01*
X3537511Y27434213D01*
X3481578Y27476085D01*
X3460169Y27521877D01*
X3458891Y27527282D01*
X3444903Y27564785D01*
X3424366Y27619849D01*
X3408597Y27662129D01*
X3408593Y27662136D01*
X3322347Y27777345D01*
X3322344Y27777348D01*
X3207135Y27863594D01*
X3207128Y27863598D01*
X3072282Y27913892D01*
X3072283Y27913892D01*
X3012683Y27920299D01*
X3012681Y27920300D01*
X3012673Y27920300D01*
X3012664Y27920300D01*
X1316929Y27920300D01*
X1316923Y27920299D01*
X1257316Y27913892D01*
X1122471Y27863598D01*
X1122464Y27863594D01*
X1007255Y27777348D01*
X1007252Y27777345D01*
X921006Y27662136D01*
X921002Y27662129D01*
X870708Y27527283D01*
X864301Y27467684D01*
X864300Y27467665D01*
X864300Y25771930D01*
X500Y25771930D01*
X500Y28194597D01*
X17702235Y28194597D01*
X17722430Y28015351D01*
X17722431Y28015346D01*
X17782011Y27845077D01*
X17841521Y27750368D01*
X17877984Y27692338D01*
X18005538Y27564784D01*
X18073824Y27521877D01*
X18146701Y27476085D01*
X18158278Y27468811D01*
X18271397Y27429229D01*
X18328545Y27409232D01*
X18328550Y27409231D01*
X18507796Y27389035D01*
X18507800Y27389035D01*
X18507804Y27389035D01*
X18687049Y27409231D01*
X18687052Y27409232D01*
X18687055Y27409232D01*
X18857322Y27468811D01*
X19010062Y27564784D01*
X19137616Y27692338D01*
X19233589Y27845078D01*
X19293168Y28015345D01*
X19312021Y28182673D01*
X19313365Y28194597D01*
X19313365Y28194604D01*
X19293169Y28373850D01*
X19293168Y28373855D01*
X19293167Y28373855D01*
X19233589Y28544122D01*
X19233510Y28544247D01*
X19181548Y28626944D01*
X19137616Y28696862D01*
X19010062Y28824416D01*
X18998578Y28831632D01*
X18857323Y28920389D01*
X18687054Y28979969D01*
X18687049Y28979970D01*
X18507804Y29000165D01*
X18507796Y29000165D01*
X18328550Y28979970D01*
X18328545Y28979969D01*
X18158276Y28920389D01*
X18005537Y28824416D01*
X17877984Y28696863D01*
X17782011Y28544124D01*
X17722431Y28373855D01*
X17722430Y28373850D01*
X17702235Y28194604D01*
X17702235Y28194597D01*
X500Y28194597D01*
X500Y30251997D01*
X2944835Y30251997D01*
X2965030Y30072751D01*
X2965031Y30072746D01*
X3024611Y29902477D01*
X3092322Y29794716D01*
X3120584Y29749738D01*
X3248138Y29622184D01*
X3316523Y29579215D01*
X3396706Y29528832D01*
X3400878Y29526211D01*
X3423804Y29518189D01*
X3571145Y29466632D01*
X3571150Y29466631D01*
X3750396Y29446435D01*
X3750400Y29446435D01*
X3750404Y29446435D01*
X3929649Y29466631D01*
X3929652Y29466632D01*
X3929655Y29466632D01*
X4099922Y29526211D01*
X4252662Y29622184D01*
X4380216Y29749738D01*
X4476189Y29902478D01*
X4535768Y30072745D01*
X4535769Y30072751D01*
X4555965Y30251997D01*
X4555965Y30252004D01*
X4535769Y30431250D01*
X4535768Y30431255D01*
X4510122Y30504546D01*
X4476189Y30601522D01*
X4424492Y30683797D01*
X8583635Y30683797D01*
X8603830Y30504551D01*
X8603831Y30504546D01*
X8663411Y30334277D01*
X8715856Y30250812D01*
X8759384Y30181538D01*
X8886938Y30053984D01*
X8926480Y30029138D01*
X9026129Y29966524D01*
X9039678Y29958011D01*
X9204347Y29900391D01*
X9261123Y29859669D01*
X9286870Y29794716D01*
X9286612Y29769466D01*
X9269435Y29617005D01*
X9269435Y29616997D01*
X9289630Y29437751D01*
X9289631Y29437746D01*
X9349211Y29267477D01*
X9381809Y29215598D01*
X9445184Y29114738D01*
X9572738Y28987184D01*
X9663080Y28930418D01*
X9700951Y28906622D01*
X9725478Y28891211D01*
X9895744Y28831633D01*
X9895745Y28831632D01*
X9895750Y28831631D01*
X10074996Y28811435D01*
X10075000Y28811435D01*
X10075004Y28811435D01*
X10254249Y28831631D01*
X10254252Y28831632D01*
X10254255Y28831632D01*
X10424522Y28891211D01*
X10577262Y28987184D01*
X10704816Y29114738D01*
X10800789Y29267478D01*
X10860368Y29437745D01*
X10863505Y29465587D01*
X10880565Y29616997D01*
X10880565Y29617004D01*
X10860369Y29796250D01*
X10860368Y29796255D01*
X10840993Y29851626D01*
X10800789Y29966522D01*
X10704816Y30119262D01*
X10577262Y30246816D01*
X10570901Y30250813D01*
X10424521Y30342790D01*
X10294792Y30388184D01*
X10259852Y30400410D01*
X10203077Y30441131D01*
X10177329Y30506083D01*
X10177587Y30531334D01*
X10194765Y30683797D01*
X10194765Y30683804D01*
X10174569Y30863050D01*
X10174568Y30863055D01*
X10114988Y31033324D01*
X10056497Y31126411D01*
X10019016Y31186062D01*
X9891462Y31313616D01*
X9833656Y31349938D01*
X9738723Y31409589D01*
X9568454Y31469169D01*
X9568449Y31469170D01*
X9389204Y31489365D01*
X9389196Y31489365D01*
X9209950Y31469170D01*
X9209945Y31469169D01*
X9039676Y31409589D01*
X8886937Y31313616D01*
X8759384Y31186063D01*
X8663411Y31033324D01*
X8603831Y30863055D01*
X8603830Y30863050D01*
X8583635Y30683804D01*
X8583635Y30683797D01*
X4424492Y30683797D01*
X4380216Y30754262D01*
X4252662Y30881816D01*
X4252661Y30881817D01*
X4099923Y30977789D01*
X3929654Y31037369D01*
X3929649Y31037370D01*
X3750404Y31057565D01*
X3750396Y31057565D01*
X3571150Y31037370D01*
X3571145Y31037369D01*
X3400876Y30977789D01*
X3248137Y30881816D01*
X3120584Y30754263D01*
X3024611Y30601524D01*
X2965031Y30431255D01*
X2965030Y30431250D01*
X2944835Y30252004D01*
X2944835Y30251997D01*
X500Y30251997D01*
X500Y32960197D01*
X4144782Y32960197D01*
X4164977Y32780951D01*
X4164978Y32780946D01*
X4224558Y32610677D01*
X4300866Y32489234D01*
X4320531Y32457938D01*
X4448085Y32330384D01*
X4484712Y32307370D01*
X4562320Y32258605D01*
X4600825Y32234411D01*
X4694239Y32201724D01*
X4771092Y32174832D01*
X4771097Y32174831D01*
X4950343Y32154635D01*
X4950347Y32154635D01*
X4950351Y32154635D01*
X5129596Y32174831D01*
X5129599Y32174832D01*
X5129602Y32174832D01*
X5299869Y32234411D01*
X5452609Y32330384D01*
X5578902Y32456677D01*
X7394878Y32456677D01*
X7415073Y32277431D01*
X7415074Y32277426D01*
X7474654Y32107157D01*
X7526740Y32024263D01*
X7570627Y31954418D01*
X7698181Y31826864D01*
X7788523Y31770098D01*
X7804024Y31760358D01*
X7850921Y31730891D01*
X7960782Y31692449D01*
X8021188Y31671312D01*
X8021193Y31671311D01*
X8200439Y31651115D01*
X8200443Y31651115D01*
X8200447Y31651115D01*
X8379692Y31671311D01*
X8379695Y31671312D01*
X8379698Y31671312D01*
X8549965Y31730891D01*
X8702705Y31826864D01*
X8830259Y31954418D01*
X8926232Y32107158D01*
X8985811Y32277425D01*
X8999862Y32402138D01*
X9026928Y32466551D01*
X9084522Y32506106D01*
X9154359Y32508245D01*
X9164037Y32505295D01*
X9209937Y32489234D01*
X9209943Y32489233D01*
X9209945Y32489232D01*
X9209946Y32489232D01*
X9209950Y32489231D01*
X9389196Y32469035D01*
X9389200Y32469035D01*
X9389204Y32469035D01*
X9568449Y32489231D01*
X9568452Y32489232D01*
X9568455Y32489232D01*
X9738722Y32548811D01*
X9891462Y32644784D01*
X10019016Y32772338D01*
X10114989Y32925078D01*
X10174568Y33095345D01*
X10178409Y33129435D01*
X10194765Y33274597D01*
X10194765Y33274604D01*
X10174569Y33453850D01*
X10174568Y33453855D01*
X10171556Y33462463D01*
X10114989Y33624122D01*
X10019016Y33776862D01*
X9891462Y33904416D01*
X9891462Y33904417D01*
X9738723Y34000389D01*
X9568454Y34059969D01*
X9568449Y34059970D01*
X9389204Y34080165D01*
X9389196Y34080165D01*
X9278340Y34067675D01*
X9209518Y34079730D01*
X9158139Y34127079D01*
X9140515Y34194689D01*
X9147416Y34231851D01*
X9158575Y34263741D01*
X9158577Y34263751D01*
X9178773Y34442997D01*
X9178773Y34443004D01*
X9175912Y34468397D01*
X10768035Y34468397D01*
X10788230Y34289151D01*
X10788231Y34289146D01*
X10847811Y34118877D01*
X10895904Y34042338D01*
X10943784Y33966138D01*
X11071338Y33838584D01*
X11199038Y33758345D01*
X11245329Y33706010D01*
X11255977Y33636957D01*
X11250108Y33612396D01*
X11194631Y33453855D01*
X11194630Y33453850D01*
X11174435Y33274604D01*
X11174435Y33274597D01*
X11194630Y33095351D01*
X11194631Y33095346D01*
X11254211Y32925077D01*
X11328906Y32806202D01*
X11350184Y32772338D01*
X11477738Y32644784D01*
X11532019Y32610677D01*
X11595479Y32570802D01*
X11630478Y32548811D01*
X11746409Y32508245D01*
X11800745Y32489232D01*
X11800750Y32489231D01*
X11979996Y32469035D01*
X11980000Y32469035D01*
X11980001Y32469035D01*
X11992708Y32470467D01*
X12036915Y32475448D01*
X12105736Y32463394D01*
X12157116Y32416045D01*
X12174741Y32348435D01*
X12174019Y32338345D01*
X12165035Y32258605D01*
X12165035Y32258597D01*
X12185230Y32079351D01*
X12185233Y32079338D01*
X12244809Y31909082D01*
X12244810Y31909080D01*
X12244811Y31909078D01*
X12250472Y31900068D01*
X12255354Y31892298D01*
X12274352Y31825060D01*
X12255353Y31760358D01*
X12202139Y31675668D01*
X12163656Y31565689D01*
X12122934Y31508913D01*
X12057982Y31483166D01*
X12032732Y31483424D01*
X11980003Y31489365D01*
X11979996Y31489365D01*
X11800750Y31469170D01*
X11800745Y31469169D01*
X11630476Y31409589D01*
X11477737Y31313616D01*
X11350184Y31186063D01*
X11254211Y31033324D01*
X11194631Y30863055D01*
X11194630Y30863050D01*
X11174435Y30683804D01*
X11174435Y30683797D01*
X11194630Y30504551D01*
X11194631Y30504546D01*
X11254211Y30334277D01*
X11306656Y30250812D01*
X11350184Y30181538D01*
X11477738Y30053984D01*
X11517280Y30029138D01*
X11616929Y29966524D01*
X11630478Y29958011D01*
X11800745Y29898433D01*
X11800745Y29898432D01*
X11800750Y29898431D01*
X11979996Y29878235D01*
X11980000Y29878235D01*
X11980004Y29878235D01*
X12159249Y29898431D01*
X12159252Y29898432D01*
X12159255Y29898432D01*
X12329522Y29958011D01*
X12343071Y29966524D01*
X12383860Y29992154D01*
X12422898Y30016684D01*
X12490134Y30035684D01*
X12556969Y30015317D01*
X12576551Y29999372D01*
X12674338Y29901584D01*
X12684105Y29895447D01*
X12824956Y29806944D01*
X12827078Y29805611D01*
X12961371Y29758620D01*
X12997345Y29746032D01*
X12997350Y29746031D01*
X13176596Y29725835D01*
X13176600Y29725835D01*
X13176604Y29725835D01*
X13355849Y29746031D01*
X13355852Y29746032D01*
X13355855Y29746032D01*
X13526122Y29805611D01*
X13678862Y29901584D01*
X13806416Y30029138D01*
X13902389Y30181878D01*
X13961968Y30352145D01*
X13961969Y30352151D01*
X13982165Y30531397D01*
X13982165Y30531404D01*
X13961969Y30710650D01*
X13961968Y30710655D01*
X13944192Y30761455D01*
X13902389Y30880922D01*
X13901827Y30881816D01*
X13815165Y31019738D01*
X13806416Y31033662D01*
X13753486Y31086592D01*
X13720001Y31147915D01*
X13717947Y31188151D01*
X13733496Y31326150D01*
X13731626Y31342745D01*
X13713300Y31505400D01*
X13713297Y31505413D01*
X13653721Y31675670D01*
X13643178Y31692449D01*
X13624177Y31759685D01*
X13643177Y31824393D01*
X13660648Y31852197D01*
X15515235Y31852197D01*
X15535430Y31672951D01*
X15535431Y31672946D01*
X15595011Y31502677D01*
X15640167Y31430812D01*
X15690984Y31349938D01*
X15818538Y31222384D01*
X15898482Y31172152D01*
X15962392Y31131994D01*
X15971278Y31126411D01*
X16141545Y31066833D01*
X16141545Y31066832D01*
X16141550Y31066831D01*
X16320796Y31046635D01*
X16320800Y31046635D01*
X16320804Y31046635D01*
X16500049Y31066831D01*
X16500052Y31066832D01*
X16500055Y31066832D01*
X16670322Y31126411D01*
X16823062Y31222384D01*
X16950616Y31349938D01*
X17046589Y31502678D01*
X17053349Y31521997D01*
X18007035Y31521997D01*
X18027230Y31342751D01*
X18027231Y31342746D01*
X18086811Y31172477D01*
X18142115Y31084462D01*
X18182784Y31019738D01*
X18310338Y30892184D01*
X18378927Y30849087D01*
X18407904Y30830879D01*
X18454195Y30778544D01*
X18464843Y30709490D01*
X18464670Y30708239D01*
X18434846Y30500802D01*
X18444845Y30290873D01*
X18494396Y30086622D01*
X18494398Y30086618D01*
X18581698Y29895457D01*
X18581701Y29895452D01*
X18581702Y29895450D01*
X18581704Y29895447D01*
X18701338Y29727444D01*
X18703615Y29724247D01*
X18703620Y29724241D01*
X18855720Y29579215D01*
X18950678Y29518189D01*
X19032528Y29465587D01*
X19227643Y29387475D01*
X19330828Y29367588D01*
X19434014Y29347700D01*
X19434015Y29347700D01*
X19791519Y29347700D01*
X19791525Y29347700D01*
X19948318Y29362672D01*
X20149975Y29421884D01*
X20336782Y29518189D01*
X20501986Y29648108D01*
X20639619Y29806944D01*
X20639623Y29806952D01*
X20640679Y29808433D01*
X20641401Y29809002D01*
X20643487Y29811408D01*
X20643950Y29811007D01*
X20695598Y29851626D01*
X20765151Y29858271D01*
X20782644Y29853553D01*
X20919653Y29805612D01*
X20944745Y29796832D01*
X20944746Y29796832D01*
X20944750Y29796831D01*
X21014842Y29788934D01*
X21043671Y29785686D01*
X21108086Y29758620D01*
X21147641Y29701026D01*
X21149780Y29631189D01*
X21146970Y29621911D01*
X21132193Y29579215D01*
X21114756Y29528833D01*
X21088714Y29347700D01*
X21084846Y29320799D01*
X21094845Y29110873D01*
X21144396Y28906622D01*
X21144398Y28906618D01*
X21231698Y28715457D01*
X21231701Y28715452D01*
X21231702Y28715450D01*
X21231704Y28715447D01*
X21294727Y28626944D01*
X21353615Y28544247D01*
X21353620Y28544241D01*
X21505720Y28399215D01*
X21600678Y28338189D01*
X21682528Y28285587D01*
X21877643Y28207475D01*
X21980829Y28187588D01*
X22084014Y28167700D01*
X22084015Y28167700D01*
X22941519Y28167700D01*
X22941525Y28167700D01*
X23098318Y28182672D01*
X23299975Y28241884D01*
X23486782Y28338189D01*
X23651986Y28468108D01*
X23789619Y28626944D01*
X23894704Y28808956D01*
X23963444Y29007567D01*
X23993354Y29215598D01*
X23983354Y29425530D01*
X23933804Y29629776D01*
X23925431Y29648110D01*
X23846501Y29820944D01*
X23846498Y29820949D01*
X23846497Y29820950D01*
X23846496Y29820953D01*
X23724586Y29992152D01*
X23724584Y29992154D01*
X23724579Y29992160D01*
X23572479Y30137186D01*
X23395674Y30250812D01*
X23392714Y30251997D01*
X23200557Y30328925D01*
X23200555Y30328926D01*
X22994186Y30368700D01*
X22994185Y30368700D01*
X22136675Y30368700D01*
X22103489Y30365532D01*
X22055110Y30360912D01*
X21986503Y30374136D01*
X21935936Y30422352D01*
X21919465Y30490253D01*
X21920102Y30498218D01*
X21929565Y30582200D01*
X21918117Y30683804D01*
X21909369Y30761450D01*
X21909368Y30761455D01*
X21873818Y30863050D01*
X21849789Y30931722D01*
X21753816Y31084462D01*
X21626262Y31212016D01*
X21626262Y31212017D01*
X21473523Y31307989D01*
X21303254Y31367569D01*
X21303249Y31367570D01*
X21124004Y31387765D01*
X21123996Y31387765D01*
X20944750Y31367570D01*
X20944745Y31367569D01*
X20774476Y31307989D01*
X20649819Y31229661D01*
X20582582Y31210661D01*
X20515747Y31231029D01*
X20498277Y31244912D01*
X20422476Y31317188D01*
X20245674Y31430812D01*
X20050555Y31508926D01*
X19844186Y31548700D01*
X19844185Y31548700D01*
X19725970Y31548700D01*
X19658931Y31568385D01*
X19613176Y31621189D01*
X19602750Y31658817D01*
X19597969Y31701250D01*
X19597968Y31701252D01*
X19597968Y31701255D01*
X19538389Y31871522D01*
X19442416Y32024262D01*
X19314862Y32151816D01*
X19278234Y32174831D01*
X19162123Y32247789D01*
X18991854Y32307369D01*
X18991849Y32307370D01*
X18812604Y32327565D01*
X18812596Y32327565D01*
X18633350Y32307370D01*
X18633345Y32307369D01*
X18463076Y32247789D01*
X18310337Y32151816D01*
X18182784Y32024263D01*
X18086811Y31871524D01*
X18027231Y31701255D01*
X18027230Y31701250D01*
X18007035Y31522004D01*
X18007035Y31521997D01*
X17053349Y31521997D01*
X17106168Y31672945D01*
X17106475Y31675670D01*
X17126365Y31852197D01*
X17126365Y31852204D01*
X17106169Y32031450D01*
X17106168Y32031455D01*
X17089413Y32079338D01*
X17046589Y32201722D01*
X17026048Y32234412D01*
X16980207Y32307368D01*
X16950616Y32354462D01*
X16823062Y32482016D01*
X16781319Y32508245D01*
X16670323Y32577989D01*
X16500054Y32637569D01*
X16500049Y32637570D01*
X16320804Y32657765D01*
X16320796Y32657765D01*
X16141550Y32637570D01*
X16141545Y32637569D01*
X15971276Y32577989D01*
X15818537Y32482016D01*
X15690984Y32354463D01*
X15595011Y32201724D01*
X15535431Y32031455D01*
X15535430Y32031450D01*
X15515235Y31852204D01*
X15515235Y31852197D01*
X13660648Y31852197D01*
X13696389Y31909078D01*
X13755968Y32079345D01*
X13759102Y32107158D01*
X13776165Y32258597D01*
X13776165Y32258604D01*
X13755969Y32437850D01*
X13755968Y32437855D01*
X13748941Y32457938D01*
X13696389Y32608122D01*
X13600416Y32760862D01*
X13527077Y32834201D01*
X13493592Y32895524D01*
X13498576Y32965216D01*
X13540448Y33021149D01*
X13573804Y33038924D01*
X13611444Y33052095D01*
X13624922Y33056811D01*
X13777662Y33152784D01*
X13905216Y33280338D01*
X14001189Y33433078D01*
X14060768Y33603345D01*
X14063109Y33624122D01*
X14080965Y33782597D01*
X14080965Y33782604D01*
X14060769Y33961850D01*
X14060768Y33961855D01*
X14019522Y34079730D01*
X14001189Y34132122D01*
X13905216Y34284862D01*
X13777662Y34412416D01*
X13766843Y34419214D01*
X13624923Y34508389D01*
X13521447Y34544597D01*
X15413635Y34544597D01*
X15433830Y34365351D01*
X15433831Y34365346D01*
X15493411Y34195077D01*
X15557251Y34093477D01*
X15589384Y34042338D01*
X15716938Y33914784D01*
X15869678Y33818811D01*
X16009223Y33769982D01*
X16039945Y33759232D01*
X16039950Y33759231D01*
X16219196Y33739035D01*
X16219200Y33739035D01*
X16219204Y33739035D01*
X16398449Y33759231D01*
X16398452Y33759232D01*
X16398455Y33759232D01*
X16568722Y33818811D01*
X16721462Y33914784D01*
X16849016Y34042338D01*
X16944989Y34195078D01*
X17004568Y34365345D01*
X17012671Y34437263D01*
X17024765Y34544597D01*
X17024765Y34544604D01*
X17018319Y34601814D01*
X17030373Y34670635D01*
X17077723Y34722015D01*
X17145333Y34739639D01*
X17155412Y34738918D01*
X17209366Y34732839D01*
X17237798Y34729635D01*
X17237800Y34729635D01*
X17237804Y34729635D01*
X17417049Y34749831D01*
X17417052Y34749832D01*
X17417055Y34749832D01*
X17587322Y34809411D01*
X17740062Y34905384D01*
X17867616Y35032938D01*
X17963589Y35185678D01*
X18023168Y35355945D01*
X18023169Y35355951D01*
X18043365Y35535197D01*
X18043365Y35535204D01*
X18023169Y35714450D01*
X18023168Y35714455D01*
X18011625Y35747444D01*
X17963589Y35884722D01*
X17867616Y36037462D01*
X17740062Y36165016D01*
X17702812Y36188422D01*
X17587323Y36260989D01*
X17417054Y36320569D01*
X17417049Y36320570D01*
X17237804Y36340765D01*
X17237796Y36340765D01*
X17058550Y36320570D01*
X17058545Y36320569D01*
X16888276Y36260989D01*
X16735537Y36165016D01*
X16607984Y36037463D01*
X16512011Y35884724D01*
X16452431Y35714455D01*
X16452430Y35714450D01*
X16432235Y35535204D01*
X16432235Y35535200D01*
X16434911Y35511451D01*
X16438681Y35477986D01*
X16426625Y35409164D01*
X16379275Y35357785D01*
X16311664Y35340162D01*
X16301577Y35340884D01*
X16219204Y35350165D01*
X16219196Y35350165D01*
X16039950Y35329970D01*
X16039945Y35329969D01*
X15869676Y35270389D01*
X15716937Y35174416D01*
X15589384Y35046863D01*
X15493411Y34894124D01*
X15433831Y34723855D01*
X15433830Y34723850D01*
X15413635Y34544604D01*
X15413635Y34544597D01*
X13521447Y34544597D01*
X13454654Y34567969D01*
X13454649Y34567970D01*
X13275404Y34588165D01*
X13275396Y34588165D01*
X13096150Y34567970D01*
X13096145Y34567969D01*
X12925876Y34508389D01*
X12773137Y34412416D01*
X12645582Y34284861D01*
X12580897Y34181915D01*
X12528562Y34135625D01*
X12459509Y34124977D01*
X12395661Y34153352D01*
X12357289Y34211742D01*
X12356577Y34281608D01*
X12358864Y34288848D01*
X12358968Y34289145D01*
X12363121Y34326001D01*
X12379165Y34468397D01*
X12379165Y34468404D01*
X12358969Y34647650D01*
X12358968Y34647655D01*
X12350927Y34670635D01*
X12299389Y34817922D01*
X12203416Y34970662D01*
X12075862Y35098216D01*
X12023889Y35130873D01*
X11923123Y35194189D01*
X11752854Y35253769D01*
X11752849Y35253770D01*
X11573604Y35273965D01*
X11573596Y35273965D01*
X11394350Y35253770D01*
X11394345Y35253769D01*
X11224076Y35194189D01*
X11071337Y35098216D01*
X10943784Y34970663D01*
X10847811Y34817924D01*
X10788231Y34647655D01*
X10788230Y34647650D01*
X10768035Y34468404D01*
X10768035Y34468397D01*
X9175912Y34468397D01*
X9158577Y34622250D01*
X9158576Y34622255D01*
X9123026Y34723850D01*
X9098997Y34792522D01*
X9003024Y34945262D01*
X8875470Y35072816D01*
X8783078Y35130870D01*
X8722731Y35168789D01*
X8552462Y35228369D01*
X8552457Y35228370D01*
X8373212Y35248565D01*
X8373204Y35248565D01*
X8193958Y35228370D01*
X8193953Y35228369D01*
X8023684Y35168789D01*
X7870945Y35072816D01*
X7743392Y34945263D01*
X7647419Y34792524D01*
X7587839Y34622255D01*
X7587838Y34622250D01*
X7567643Y34443004D01*
X7567643Y34442997D01*
X7587838Y34263751D01*
X7587839Y34263746D01*
X7647419Y34093477D01*
X7679552Y34042338D01*
X7743392Y33940738D01*
X7821785Y33862345D01*
X7844097Y33840033D01*
X7877581Y33778710D01*
X7872597Y33709018D01*
X7861409Y33686380D01*
X7774411Y33547924D01*
X7714831Y33377655D01*
X7714830Y33377650D01*
X7694635Y33198404D01*
X7694635Y33198396D01*
X7699639Y33153980D01*
X7687584Y33085159D01*
X7664101Y33052418D01*
X7570628Y32958944D01*
X7570627Y32958943D01*
X7474654Y32806204D01*
X7415074Y32635935D01*
X7415073Y32635930D01*
X7394878Y32456684D01*
X7394878Y32456677D01*
X5578902Y32456677D01*
X5580163Y32457938D01*
X5676136Y32610678D01*
X5735715Y32780945D01*
X5738561Y32806204D01*
X5755912Y32960197D01*
X5755912Y32960201D01*
X5754769Y32970341D01*
X5751935Y32995495D01*
X5763989Y33064315D01*
X5811337Y33115695D01*
X5861271Y33132598D01*
X5889582Y33135788D01*
X6012449Y33149631D01*
X6012452Y33149632D01*
X6012455Y33149632D01*
X6182722Y33209211D01*
X6335462Y33305184D01*
X6463016Y33432738D01*
X6558989Y33585478D01*
X6618568Y33755745D01*
X6620172Y33769982D01*
X6638765Y33934997D01*
X6638765Y33935004D01*
X6618569Y34114250D01*
X6618568Y34114255D01*
X6590287Y34195078D01*
X6558989Y34284522D01*
X6558775Y34284862D01*
X6474356Y34419214D01*
X6463016Y34437262D01*
X6335462Y34564816D01*
X6330442Y34567970D01*
X6182723Y34660789D01*
X6012454Y34720369D01*
X6012449Y34720370D01*
X5833204Y34740565D01*
X5833196Y34740565D01*
X5653950Y34720370D01*
X5653945Y34720369D01*
X5483676Y34660789D01*
X5330937Y34564816D01*
X5203384Y34437263D01*
X5107411Y34284524D01*
X5047831Y34114255D01*
X5047830Y34114250D01*
X5027635Y33935004D01*
X5027635Y33934996D01*
X5031611Y33899706D01*
X5019556Y33830884D01*
X4972207Y33779505D01*
X4922275Y33762603D01*
X4771096Y33745570D01*
X4771092Y33745569D01*
X4600823Y33685989D01*
X4448084Y33590016D01*
X4320531Y33462463D01*
X4224558Y33309724D01*
X4164978Y33139455D01*
X4164977Y33139450D01*
X4144782Y32960204D01*
X4144782Y32960197D01*
X500Y32960197D01*
X500Y34326000D01*
X972341Y34326000D01*
X992936Y34090597D01*
X992938Y34090587D01*
X1054094Y33862345D01*
X1054096Y33862341D01*
X1054097Y33862337D01*
X1111594Y33739035D01*
X1153965Y33648170D01*
X1153967Y33648166D01*
X1197862Y33585478D01*
X1289505Y33454599D01*
X1456599Y33287505D01*
X1475034Y33274597D01*
X1650165Y33151968D01*
X1650167Y33151967D01*
X1650170Y33151965D01*
X1864337Y33052097D01*
X2092592Y32990937D01*
X2280918Y32974461D01*
X2327999Y32970341D01*
X2328000Y32970341D01*
X2328001Y32970341D01*
X2367234Y32973774D01*
X2563408Y32990937D01*
X2791663Y33052097D01*
X3005830Y33151965D01*
X3199401Y33287505D01*
X3366495Y33454599D01*
X3502035Y33648170D01*
X3601903Y33862337D01*
X3663063Y34090592D01*
X3683659Y34326000D01*
X3663063Y34561408D01*
X3601903Y34789663D01*
X3502035Y35003829D01*
X3485415Y35027566D01*
X3366494Y35197403D01*
X3199402Y35364494D01*
X3199401Y35364495D01*
X3013405Y35494731D01*
X2969781Y35549308D01*
X2962588Y35618807D01*
X2994110Y35681161D01*
X3013405Y35697881D01*
X3199082Y35827895D01*
X3366105Y35994918D01*
X3501600Y36188422D01*
X3601429Y36402508D01*
X3601432Y36402514D01*
X3658636Y36616000D01*
X2761686Y36616000D01*
X2787493Y36656156D01*
X2828000Y36794111D01*
X2828000Y36932197D01*
X4138635Y36932197D01*
X4158830Y36752951D01*
X4158831Y36752946D01*
X4218411Y36582677D01*
X4248242Y36535202D01*
X4314384Y36429938D01*
X4441938Y36302384D01*
X4507818Y36260989D01*
X4592839Y36207566D01*
X4594678Y36206411D01*
X4646088Y36188422D01*
X4764945Y36146832D01*
X4764950Y36146831D01*
X4944196Y36126635D01*
X4944200Y36126635D01*
X4944204Y36126635D01*
X5123449Y36146831D01*
X5123452Y36146832D01*
X5123455Y36146832D01*
X5293722Y36206411D01*
X5446462Y36302384D01*
X5574016Y36429938D01*
X5669989Y36582678D01*
X5685637Y36627397D01*
X14044635Y36627397D01*
X14064830Y36448151D01*
X14064831Y36448146D01*
X14124411Y36277877D01*
X14180620Y36188422D01*
X14220384Y36125138D01*
X14347938Y35997584D01*
X14352181Y35994918D01*
X14479248Y35915076D01*
X14500678Y35901611D01*
X14591046Y35869990D01*
X14670945Y35842032D01*
X14670950Y35842031D01*
X14850196Y35821835D01*
X14850200Y35821835D01*
X14850204Y35821835D01*
X15029449Y35842031D01*
X15029452Y35842032D01*
X15029455Y35842032D01*
X15199722Y35901611D01*
X15352462Y35997584D01*
X15480016Y36125138D01*
X15575989Y36277878D01*
X15635568Y36448145D01*
X15643754Y36520799D01*
X15655765Y36627397D01*
X18057835Y36627397D01*
X18078030Y36448151D01*
X18078031Y36448146D01*
X18137611Y36277877D01*
X18193820Y36188422D01*
X18233584Y36125138D01*
X18361138Y35997584D01*
X18365381Y35994918D01*
X18492448Y35915076D01*
X18538739Y35862741D01*
X18549387Y35793687D01*
X18535543Y35753008D01*
X18535951Y35752821D01*
X18534100Y35748769D01*
X18533872Y35748097D01*
X18533498Y35747450D01*
X18464756Y35548835D01*
X18464756Y35548833D01*
X18436193Y35350165D01*
X18434846Y35340799D01*
X18444845Y35130873D01*
X18494396Y34926622D01*
X18494398Y34926618D01*
X18581698Y34735457D01*
X18581701Y34735452D01*
X18581702Y34735450D01*
X18581704Y34735447D01*
X18700965Y34567968D01*
X18703615Y34564247D01*
X18703620Y34564241D01*
X18855720Y34419215D01*
X18950678Y34358189D01*
X19032528Y34305587D01*
X19227643Y34227475D01*
X19330828Y34207588D01*
X19434014Y34187700D01*
X19434015Y34187700D01*
X19791519Y34187700D01*
X19791525Y34187700D01*
X19948318Y34202672D01*
X20149975Y34261884D01*
X20336782Y34358189D01*
X20501986Y34488108D01*
X20639619Y34646944D01*
X20640030Y34647655D01*
X20744701Y34828951D01*
X20744700Y34828951D01*
X20744704Y34828956D01*
X20813444Y35027567D01*
X20843354Y35235598D01*
X20833354Y35445530D01*
X20783804Y35649776D01*
X20783801Y35649783D01*
X20696501Y35840944D01*
X20696498Y35840949D01*
X20696497Y35840950D01*
X20696496Y35840953D01*
X20574586Y36012152D01*
X20574584Y36012154D01*
X20574579Y36012160D01*
X20422479Y36157186D01*
X20245674Y36270812D01*
X20050555Y36348926D01*
X19844186Y36388700D01*
X19844185Y36388700D01*
X19780826Y36388700D01*
X19713787Y36408385D01*
X19668032Y36461189D01*
X19658528Y36520799D01*
X21084846Y36520799D01*
X21094845Y36310873D01*
X21144396Y36106622D01*
X21144398Y36106618D01*
X21231698Y35915457D01*
X21231701Y35915452D01*
X21231702Y35915450D01*
X21231704Y35915447D01*
X21350395Y35748769D01*
X21353615Y35744247D01*
X21353620Y35744241D01*
X21505720Y35599215D01*
X21600678Y35538189D01*
X21682528Y35485587D01*
X21877643Y35407475D01*
X21980829Y35387588D01*
X22084014Y35367700D01*
X22084015Y35367700D01*
X22941519Y35367700D01*
X22941525Y35367700D01*
X23098318Y35382672D01*
X23299975Y35441884D01*
X23486782Y35538189D01*
X23500320Y35548835D01*
X23628684Y35649783D01*
X23651986Y35668108D01*
X23789619Y35826944D01*
X23810287Y35862741D01*
X23894701Y36008951D01*
X23894700Y36008951D01*
X23894704Y36008956D01*
X23963444Y36207567D01*
X23993354Y36415598D01*
X23983354Y36625530D01*
X23933804Y36829776D01*
X23933801Y36829783D01*
X23846501Y37020944D01*
X23846498Y37020949D01*
X23846497Y37020950D01*
X23846496Y37020953D01*
X23724586Y37192152D01*
X23724584Y37192154D01*
X23724579Y37192160D01*
X23572479Y37337186D01*
X23395674Y37450812D01*
X23395174Y37451012D01*
X23200557Y37528925D01*
X23200555Y37528926D01*
X22994186Y37568700D01*
X22994185Y37568700D01*
X22136675Y37568700D01*
X21979881Y37553728D01*
X21979882Y37553728D01*
X21979878Y37553727D01*
X21778227Y37494517D01*
X21591413Y37398209D01*
X21426216Y37268295D01*
X21426212Y37268291D01*
X21288578Y37109454D01*
X21183498Y36927450D01*
X21114756Y36728835D01*
X21114756Y36728833D01*
X21085678Y36526584D01*
X21084846Y36520799D01*
X19658528Y36520799D01*
X19657606Y36526584D01*
X19668965Y36627398D01*
X19668965Y36627404D01*
X19648769Y36806650D01*
X19648768Y36806655D01*
X19604838Y36932200D01*
X19589189Y36976922D01*
X19561522Y37020953D01*
X19527032Y37075844D01*
X19493216Y37129662D01*
X19365662Y37257216D01*
X19349165Y37267582D01*
X19212923Y37353189D01*
X19042654Y37412769D01*
X19042649Y37412770D01*
X18863404Y37432965D01*
X18863396Y37432965D01*
X18684150Y37412770D01*
X18684145Y37412769D01*
X18513876Y37353189D01*
X18361137Y37257216D01*
X18233584Y37129663D01*
X18137611Y36976924D01*
X18078031Y36806655D01*
X18078030Y36806650D01*
X18057835Y36627404D01*
X18057835Y36627397D01*
X15655765Y36627397D01*
X15655765Y36627404D01*
X15635569Y36806650D01*
X15635568Y36806655D01*
X15591638Y36932200D01*
X15575989Y36976922D01*
X15548322Y37020953D01*
X15513832Y37075844D01*
X15480016Y37129662D01*
X15352462Y37257216D01*
X15335965Y37267582D01*
X15199723Y37353189D01*
X15029454Y37412769D01*
X15029449Y37412770D01*
X14850204Y37432965D01*
X14850196Y37432965D01*
X14670950Y37412770D01*
X14670945Y37412769D01*
X14500676Y37353189D01*
X14347937Y37257216D01*
X14220384Y37129663D01*
X14124411Y36976924D01*
X14064831Y36806655D01*
X14064830Y36806650D01*
X14044635Y36627404D01*
X14044635Y36627397D01*
X5685637Y36627397D01*
X5729568Y36752945D01*
X5729569Y36752951D01*
X5749765Y36932197D01*
X5749765Y36932204D01*
X5729569Y37111450D01*
X5729568Y37111455D01*
X5678564Y37257216D01*
X5669989Y37281722D01*
X5664189Y37290952D01*
X5625083Y37353189D01*
X5574016Y37434462D01*
X5446462Y37562016D01*
X5446461Y37562017D01*
X5293723Y37657989D01*
X5123454Y37717569D01*
X5123449Y37717570D01*
X4944204Y37737765D01*
X4944196Y37737765D01*
X4764950Y37717570D01*
X4764945Y37717569D01*
X4594676Y37657989D01*
X4441937Y37562016D01*
X4314384Y37434463D01*
X4218411Y37281724D01*
X4158831Y37111455D01*
X4158830Y37111450D01*
X4138635Y36932204D01*
X4138635Y36932197D01*
X2828000Y36932197D01*
X2828000Y36937889D01*
X2787493Y37075844D01*
X2761686Y37116000D01*
X3006380Y37116000D01*
X3033971Y37112891D01*
X3037746Y37112030D01*
X3216998Y37091833D01*
X3217002Y37091833D01*
X3217006Y37091833D01*
X3396257Y37112030D01*
X3400033Y37112891D01*
X3427624Y37116000D01*
X3658636Y37116000D01*
X3658635Y37116001D01*
X3656295Y37124736D01*
X3657958Y37194586D01*
X3697120Y37252449D01*
X3710089Y37261818D01*
X3719264Y37267582D01*
X3846818Y37395136D01*
X3942791Y37547876D01*
X4002370Y37718143D01*
X4002371Y37718149D01*
X4022567Y37897395D01*
X4022567Y37897402D01*
X4002371Y38076648D01*
X4002370Y38076653D01*
X3967327Y38176800D01*
X3942791Y38246920D01*
X3875133Y38354597D01*
X7618435Y38354597D01*
X7638630Y38175351D01*
X7638631Y38175346D01*
X7698211Y38005077D01*
X7702944Y37997545D01*
X7794184Y37852338D01*
X7921738Y37724784D01*
X8001704Y37674538D01*
X8028041Y37657989D01*
X8074478Y37628811D01*
X8170893Y37595074D01*
X8244745Y37569232D01*
X8244750Y37569231D01*
X8423996Y37549035D01*
X8424000Y37549035D01*
X8424004Y37549035D01*
X8603249Y37569231D01*
X8603252Y37569232D01*
X8603255Y37569232D01*
X8603256Y37569233D01*
X8603259Y37569233D01*
X8677107Y37595074D01*
X8761013Y37624435D01*
X8830790Y37627997D01*
X8889648Y37595074D01*
X8937738Y37546984D01*
X9090478Y37451011D01*
X9250160Y37395136D01*
X9260745Y37391432D01*
X9260750Y37391431D01*
X9439996Y37371235D01*
X9440000Y37371235D01*
X9440004Y37371235D01*
X9619249Y37391431D01*
X9619252Y37391432D01*
X9619255Y37391432D01*
X9789522Y37451011D01*
X9942262Y37546984D01*
X10069816Y37674538D01*
X10165789Y37827278D01*
X10225368Y37997545D01*
X10232319Y38059237D01*
X10245565Y38176797D01*
X10245565Y38176804D01*
X10225369Y38356050D01*
X10225368Y38356055D01*
X10165788Y38526324D01*
X10106867Y38620095D01*
X10069816Y38679062D01*
X9942262Y38806616D01*
X9942261Y38806617D01*
X9789523Y38902589D01*
X9619254Y38962169D01*
X9619249Y38962170D01*
X9440004Y38982365D01*
X9439996Y38982365D01*
X9260750Y38962170D01*
X9260745Y38962169D01*
X9102987Y38906966D01*
X9033208Y38903405D01*
X8974351Y38936327D01*
X8926262Y38984416D01*
X8773523Y39080389D01*
X8603254Y39139969D01*
X8603249Y39139970D01*
X8424004Y39160165D01*
X8423996Y39160165D01*
X8244750Y39139970D01*
X8244745Y39139969D01*
X8074476Y39080389D01*
X7921737Y38984416D01*
X7794184Y38856863D01*
X7698211Y38704124D01*
X7638631Y38533855D01*
X7638630Y38533850D01*
X7618435Y38354604D01*
X7618435Y38354597D01*
X3875133Y38354597D01*
X3846818Y38399660D01*
X3719264Y38527214D01*
X3571445Y38620095D01*
X3525154Y38672430D01*
X3514506Y38741483D01*
X3525035Y38777494D01*
X3538615Y38806616D01*
X3601903Y38942337D01*
X3663063Y39170592D01*
X3683659Y39406000D01*
X3663063Y39641408D01*
X3604584Y39859656D01*
X3601905Y39869656D01*
X3601904Y39869657D01*
X3601903Y39869663D01*
X3502035Y40083829D01*
X3486057Y40106649D01*
X3485673Y40107197D01*
X6526235Y40107197D01*
X6546430Y39927951D01*
X6546431Y39927946D01*
X6606011Y39757677D01*
X6679068Y39641408D01*
X6701984Y39604938D01*
X6829538Y39477384D01*
X6982278Y39381411D01*
X7152544Y39321832D01*
X7152545Y39321832D01*
X7152550Y39321831D01*
X7331796Y39301635D01*
X7331800Y39301635D01*
X7331804Y39301635D01*
X7511049Y39321831D01*
X7511052Y39321832D01*
X7511055Y39321832D01*
X7681322Y39381411D01*
X7834062Y39477384D01*
X7961616Y39604938D01*
X8057589Y39757678D01*
X8117168Y39927945D01*
X8117916Y39934585D01*
X8137365Y40107197D01*
X8137365Y40107204D01*
X8117169Y40286450D01*
X8117168Y40286455D01*
X8116966Y40287032D01*
X8057589Y40456722D01*
X7989932Y40564397D01*
X8888435Y40564397D01*
X8908630Y40385151D01*
X8908631Y40385146D01*
X8968211Y40214877D01*
X9036216Y40106649D01*
X9064184Y40062138D01*
X9191738Y39934584D01*
X9344478Y39838611D01*
X9514745Y39779032D01*
X9514750Y39779031D01*
X9693996Y39758835D01*
X9694000Y39758835D01*
X9694004Y39758835D01*
X9873249Y39779031D01*
X9873252Y39779032D01*
X9873255Y39779032D01*
X10043522Y39838611D01*
X10196262Y39934584D01*
X10323816Y40062138D01*
X10323822Y40062149D01*
X10327298Y40066506D01*
X10384485Y40106649D01*
X10454296Y40109503D01*
X10514568Y40074160D01*
X10546164Y40011843D01*
X10547469Y39975316D01*
X10539435Y39904006D01*
X10539435Y39903997D01*
X10559630Y39724751D01*
X10559631Y39724746D01*
X10619211Y39554477D01*
X10667652Y39477384D01*
X10715184Y39401738D01*
X10842738Y39274184D01*
X10995478Y39178211D01*
X11165744Y39118632D01*
X11165745Y39118632D01*
X11165750Y39118631D01*
X11344996Y39098435D01*
X11345000Y39098435D01*
X11345004Y39098435D01*
X11524249Y39118631D01*
X11524252Y39118632D01*
X11524255Y39118632D01*
X11694522Y39178211D01*
X11847262Y39274184D01*
X11969078Y39396000D01*
X21292341Y39396000D01*
X21312936Y39160597D01*
X21312938Y39160587D01*
X21374094Y38932345D01*
X21374096Y38932341D01*
X21374097Y38932337D01*
X21409292Y38856862D01*
X21473965Y38718170D01*
X21473967Y38718166D01*
X21540473Y38623187D01*
X21609505Y38524599D01*
X21776599Y38357505D01*
X21873384Y38289735D01*
X21970165Y38221968D01*
X21970167Y38221967D01*
X21970170Y38221965D01*
X22184337Y38122097D01*
X22412592Y38060937D01*
X22600918Y38044461D01*
X22647999Y38040341D01*
X22648000Y38040341D01*
X22648001Y38040341D01*
X22687234Y38043774D01*
X22883408Y38060937D01*
X23111663Y38122097D01*
X23325830Y38221965D01*
X23519401Y38357505D01*
X23686495Y38524599D01*
X23822035Y38718170D01*
X23921903Y38932337D01*
X23983063Y39160592D01*
X24003659Y39396000D01*
X23983063Y39631408D01*
X23921903Y39859663D01*
X23822035Y40073829D01*
X23821804Y40074160D01*
X23686494Y40267403D01*
X23519402Y40434494D01*
X23519396Y40434499D01*
X23333842Y40564425D01*
X23290217Y40619002D01*
X23283023Y40688500D01*
X23314546Y40750855D01*
X23333842Y40767575D01*
X23356026Y40783109D01*
X23519401Y40897505D01*
X23686495Y41064599D01*
X23822035Y41258170D01*
X23921903Y41472337D01*
X23983063Y41700592D01*
X24003659Y41936000D01*
X23983063Y42171408D01*
X23921903Y42399663D01*
X23822035Y42613829D01*
X23817877Y42619768D01*
X23686494Y42807403D01*
X23519402Y42974494D01*
X23519396Y42974499D01*
X23333842Y43104425D01*
X23290217Y43159002D01*
X23283023Y43228500D01*
X23314546Y43290855D01*
X23333842Y43307575D01*
X23370148Y43332997D01*
X23519401Y43437505D01*
X23686495Y43604599D01*
X23822035Y43798170D01*
X23921903Y44012337D01*
X23983063Y44240592D01*
X24003659Y44476000D01*
X23983063Y44711408D01*
X23921903Y44939663D01*
X23822035Y45153829D01*
X23686495Y45347401D01*
X23564567Y45469329D01*
X23531084Y45530649D01*
X23536068Y45600341D01*
X23577939Y45656275D01*
X23608915Y45673190D01*
X23740331Y45722204D01*
X23855546Y45808454D01*
X23941796Y45923669D01*
X23992091Y46058517D01*
X23998500Y46118127D01*
X23998499Y47913872D01*
X23992091Y47973483D01*
X23988361Y47983483D01*
X23941797Y48108329D01*
X23941793Y48108336D01*
X23855547Y48223545D01*
X23855544Y48223548D01*
X23740335Y48309794D01*
X23740328Y48309798D01*
X23605482Y48360092D01*
X23605483Y48360092D01*
X23545883Y48366499D01*
X23545881Y48366500D01*
X23545873Y48366500D01*
X23545864Y48366500D01*
X21750129Y48366500D01*
X21750123Y48366499D01*
X21690516Y48360092D01*
X21555671Y48309798D01*
X21555664Y48309794D01*
X21440455Y48223548D01*
X21440452Y48223545D01*
X21354206Y48108336D01*
X21354202Y48108329D01*
X21303908Y47973483D01*
X21298575Y47923873D01*
X21297501Y47913877D01*
X21297500Y47913865D01*
X21297500Y46118130D01*
X21297501Y46118124D01*
X21303908Y46058517D01*
X21354202Y45923672D01*
X21354206Y45923665D01*
X21440452Y45808456D01*
X21440455Y45808453D01*
X21555664Y45722207D01*
X21555671Y45722203D01*
X21687081Y45673190D01*
X21743015Y45631319D01*
X21767432Y45565855D01*
X21752580Y45497582D01*
X21731430Y45469327D01*
X21609503Y45347400D01*
X21473965Y45153831D01*
X21473964Y45153829D01*
X21374098Y44939665D01*
X21374094Y44939656D01*
X21312938Y44711414D01*
X21312936Y44711404D01*
X21292341Y44476001D01*
X21292341Y44476000D01*
X21312936Y44240597D01*
X21312938Y44240587D01*
X21374094Y44012345D01*
X21374096Y44012341D01*
X21374097Y44012337D01*
X21419139Y43915745D01*
X21473965Y43798170D01*
X21473967Y43798166D01*
X21609501Y43604605D01*
X21609506Y43604598D01*
X21776597Y43437507D01*
X21776603Y43437502D01*
X21962158Y43307575D01*
X22005783Y43252998D01*
X22012977Y43183500D01*
X21981454Y43121145D01*
X21962158Y43104425D01*
X21776597Y42974495D01*
X21609505Y42807403D01*
X21473965Y42613831D01*
X21473964Y42613829D01*
X21374098Y42399665D01*
X21374094Y42399656D01*
X21312938Y42171414D01*
X21312936Y42171404D01*
X21292341Y41936001D01*
X21292341Y41936000D01*
X21312936Y41700597D01*
X21312938Y41700587D01*
X21374094Y41472345D01*
X21374096Y41472341D01*
X21374097Y41472337D01*
X21431251Y41349770D01*
X21473965Y41258170D01*
X21473967Y41258166D01*
X21511486Y41204584D01*
X21608060Y41066662D01*
X21609501Y41064605D01*
X21609506Y41064598D01*
X21776597Y40897507D01*
X21776603Y40897502D01*
X21962158Y40767575D01*
X22005783Y40712998D01*
X22012977Y40643500D01*
X21981454Y40581145D01*
X21962158Y40564425D01*
X21776597Y40434495D01*
X21609505Y40267403D01*
X21473965Y40073831D01*
X21473964Y40073829D01*
X21374098Y39859665D01*
X21374094Y39859656D01*
X21312938Y39631414D01*
X21312936Y39631404D01*
X21292341Y39396001D01*
X21292341Y39396000D01*
X11969078Y39396000D01*
X11974816Y39401738D01*
X12070789Y39554478D01*
X12130368Y39724745D01*
X12136485Y39779032D01*
X12150565Y39903997D01*
X12150565Y39904004D01*
X12130369Y40083250D01*
X12130368Y40083255D01*
X12070788Y40253524D01*
X12012297Y40346611D01*
X11974816Y40406262D01*
X11847262Y40533816D01*
X11789456Y40570138D01*
X11694523Y40629789D01*
X11524254Y40689369D01*
X11524249Y40689370D01*
X11345004Y40709565D01*
X11344996Y40709565D01*
X11165750Y40689370D01*
X11165745Y40689369D01*
X10995476Y40629789D01*
X10842737Y40533816D01*
X10715182Y40406261D01*
X10711692Y40401884D01*
X10654501Y40361747D01*
X10584690Y40358902D01*
X10524422Y40394251D01*
X10492833Y40456572D01*
X10491530Y40493087D01*
X10499565Y40564398D01*
X10499565Y40564404D01*
X10479369Y40743650D01*
X10479367Y40743658D01*
X10434324Y40872385D01*
X10430763Y40942163D01*
X10465492Y41002791D01*
X10527485Y41035018D01*
X10565248Y41036559D01*
X10620180Y41030370D01*
X10633799Y41028835D01*
X10633800Y41028835D01*
X10633804Y41028835D01*
X10813049Y41049031D01*
X10813052Y41049032D01*
X10813055Y41049032D01*
X10879828Y41072397D01*
X14679635Y41072397D01*
X14699830Y40893151D01*
X14699831Y40893146D01*
X14759411Y40722877D01*
X14830674Y40609463D01*
X14855384Y40570138D01*
X14982938Y40442584D01*
X15135678Y40346611D01*
X15305945Y40287032D01*
X15305950Y40287031D01*
X15485196Y40266835D01*
X15485200Y40266835D01*
X15485204Y40266835D01*
X15664449Y40287031D01*
X15664452Y40287032D01*
X15664455Y40287032D01*
X15834722Y40346611D01*
X15987462Y40442584D01*
X16115016Y40570138D01*
X16210989Y40722878D01*
X16270568Y40893145D01*
X16271059Y40897502D01*
X16290765Y41072397D01*
X16290765Y41072404D01*
X16270569Y41251650D01*
X16270568Y41251655D01*
X16231333Y41363783D01*
X16210989Y41421922D01*
X16115016Y41574662D01*
X15987462Y41702216D01*
X15974124Y41710597D01*
X15834723Y41798189D01*
X15664454Y41857769D01*
X15664449Y41857770D01*
X15485204Y41877965D01*
X15485196Y41877965D01*
X15305950Y41857770D01*
X15305945Y41857769D01*
X15135676Y41798189D01*
X14982937Y41702216D01*
X14855384Y41574663D01*
X14759411Y41421924D01*
X14699831Y41251655D01*
X14699830Y41251650D01*
X14679635Y41072404D01*
X14679635Y41072397D01*
X10879828Y41072397D01*
X10983322Y41108611D01*
X11136062Y41204584D01*
X11263616Y41332138D01*
X11359589Y41484878D01*
X11419168Y41655145D01*
X11425415Y41710587D01*
X11439365Y41834397D01*
X11439365Y41834404D01*
X11419169Y42013650D01*
X11419168Y42013655D01*
X11363968Y42171408D01*
X11359589Y42183922D01*
X11263616Y42336662D01*
X11136062Y42464216D01*
X11035450Y42527435D01*
X10983323Y42560189D01*
X10813054Y42619769D01*
X10813049Y42619770D01*
X10633804Y42639965D01*
X10633796Y42639965D01*
X10454550Y42619770D01*
X10454545Y42619769D01*
X10284276Y42560189D01*
X10131537Y42464216D01*
X10003984Y42336663D01*
X9908011Y42183924D01*
X9848431Y42013655D01*
X9848430Y42013650D01*
X9828235Y41834404D01*
X9828235Y41834397D01*
X9848430Y41655151D01*
X9848432Y41655143D01*
X9893475Y41526416D01*
X9897036Y41456637D01*
X9862307Y41396010D01*
X9800313Y41363783D01*
X9762550Y41362242D01*
X9694004Y41369965D01*
X9693996Y41369965D01*
X9514750Y41349770D01*
X9514745Y41349769D01*
X9344476Y41290189D01*
X9191737Y41194216D01*
X9064184Y41066663D01*
X8968211Y40913924D01*
X8908631Y40743655D01*
X8908630Y40743650D01*
X8888435Y40564404D01*
X8888435Y40564397D01*
X7989932Y40564397D01*
X7961616Y40609462D01*
X7834062Y40737016D01*
X7823491Y40743658D01*
X7681323Y40832989D01*
X7511054Y40892569D01*
X7511049Y40892570D01*
X7331804Y40912765D01*
X7331796Y40912765D01*
X7152550Y40892570D01*
X7152545Y40892569D01*
X6982276Y40832989D01*
X6829537Y40737016D01*
X6701984Y40609463D01*
X6606011Y40456724D01*
X6546431Y40286455D01*
X6546430Y40286450D01*
X6526235Y40107204D01*
X6526235Y40107197D01*
X3485673Y40107197D01*
X3366494Y40277403D01*
X3199402Y40444494D01*
X3199396Y40444499D01*
X3013842Y40574425D01*
X2970217Y40629002D01*
X2963023Y40698500D01*
X2994546Y40760855D01*
X3013842Y40777575D01*
X3149244Y40872385D01*
X3199401Y40907505D01*
X3366495Y41074599D01*
X3502035Y41268170D01*
X3601903Y41482337D01*
X3663063Y41710592D01*
X3683659Y41946000D01*
X3663063Y42181408D01*
X3604584Y42399656D01*
X3601905Y42409656D01*
X3601904Y42409657D01*
X3601903Y42409663D01*
X3502035Y42623829D01*
X3490737Y42639965D01*
X3366494Y42817403D01*
X3199402Y42984494D01*
X3199396Y42984499D01*
X3013842Y43114425D01*
X2970217Y43169002D01*
X2963023Y43238500D01*
X2994546Y43300855D01*
X3013842Y43317575D01*
X3035866Y43332997D01*
X6983435Y43332997D01*
X7003630Y43153751D01*
X7003631Y43153746D01*
X7063211Y42983477D01*
X7159183Y42830739D01*
X7159184Y42830738D01*
X7286738Y42703184D01*
X7377080Y42646418D01*
X7428945Y42613829D01*
X7439478Y42607211D01*
X7573859Y42560189D01*
X7609745Y42547632D01*
X7609750Y42547631D01*
X7788996Y42527435D01*
X7789000Y42527435D01*
X7789004Y42527435D01*
X7968249Y42547631D01*
X7968252Y42547632D01*
X7968255Y42547632D01*
X8138522Y42607211D01*
X8291262Y42703184D01*
X8418816Y42830738D01*
X8514789Y42983478D01*
X8574368Y43153745D01*
X8574369Y43153751D01*
X8594565Y43332997D01*
X8594565Y43333004D01*
X8574369Y43512250D01*
X8574368Y43512255D01*
X8542053Y43604605D01*
X8514789Y43682522D01*
X8418816Y43835262D01*
X8291262Y43962816D01*
X8291261Y43962817D01*
X8138523Y44058789D01*
X8035047Y44094997D01*
X13358835Y44094997D01*
X13379030Y43915751D01*
X13379031Y43915746D01*
X13438611Y43745477D01*
X13478169Y43682522D01*
X13534584Y43592738D01*
X13662138Y43465184D01*
X13814878Y43369211D01*
X13918352Y43333004D01*
X13985145Y43309632D01*
X13985150Y43309631D01*
X14164396Y43289435D01*
X14164400Y43289435D01*
X14164404Y43289435D01*
X14343649Y43309631D01*
X14343652Y43309632D01*
X14343655Y43309632D01*
X14513922Y43369211D01*
X14666662Y43465184D01*
X14794216Y43592738D01*
X14890189Y43745478D01*
X14949768Y43915745D01*
X14960651Y44012336D01*
X14969965Y44094997D01*
X14969965Y44095004D01*
X14949769Y44274250D01*
X14949768Y44274255D01*
X14890188Y44444524D01*
X14794215Y44597263D01*
X14666662Y44724816D01*
X14513923Y44820789D01*
X14343654Y44880369D01*
X14343649Y44880370D01*
X14164404Y44900565D01*
X14164396Y44900565D01*
X13985150Y44880370D01*
X13985145Y44880369D01*
X13814876Y44820789D01*
X13662137Y44724816D01*
X13534584Y44597263D01*
X13438611Y44444524D01*
X13379031Y44274255D01*
X13379030Y44274250D01*
X13358835Y44095004D01*
X13358835Y44094997D01*
X8035047Y44094997D01*
X7968254Y44118369D01*
X7968249Y44118370D01*
X7789004Y44138565D01*
X7788996Y44138565D01*
X7609750Y44118370D01*
X7609745Y44118369D01*
X7439476Y44058789D01*
X7286737Y43962816D01*
X7159184Y43835263D01*
X7063211Y43682524D01*
X7003631Y43512255D01*
X7003630Y43512250D01*
X6983435Y43333004D01*
X6983435Y43332997D01*
X3035866Y43332997D01*
X3036026Y43333109D01*
X3199401Y43447505D01*
X3366495Y43614599D01*
X3502035Y43808170D01*
X3601903Y44022337D01*
X3663063Y44250592D01*
X3683659Y44486000D01*
X3663063Y44721408D01*
X3604584Y44939656D01*
X3601905Y44949656D01*
X3601904Y44949657D01*
X3601903Y44949663D01*
X3502035Y45163829D01*
X3366495Y45357401D01*
X3244567Y45479329D01*
X3211084Y45540649D01*
X3216068Y45610341D01*
X3257939Y45666275D01*
X3288915Y45683190D01*
X3420331Y45732204D01*
X3535546Y45818454D01*
X3538348Y45822197D01*
X18515035Y45822197D01*
X18535230Y45642951D01*
X18535231Y45642946D01*
X18594811Y45472677D01*
X18596917Y45469326D01*
X18690784Y45319938D01*
X18818338Y45192384D01*
X18971078Y45096411D01*
X19141345Y45036832D01*
X19141350Y45036831D01*
X19320596Y45016635D01*
X19320600Y45016635D01*
X19320604Y45016635D01*
X19499849Y45036831D01*
X19499852Y45036832D01*
X19499855Y45036832D01*
X19670122Y45096411D01*
X19822862Y45192384D01*
X19950416Y45319938D01*
X20046389Y45472678D01*
X20105968Y45642945D01*
X20107894Y45660035D01*
X20126165Y45822197D01*
X20126165Y45822204D01*
X20105969Y46001450D01*
X20105968Y46001455D01*
X20065144Y46118124D01*
X20046389Y46171722D01*
X19950416Y46324462D01*
X19822862Y46452016D01*
X19822861Y46452017D01*
X19670123Y46547989D01*
X19499854Y46607569D01*
X19499849Y46607570D01*
X19320604Y46627765D01*
X19320596Y46627765D01*
X19141350Y46607570D01*
X19141345Y46607569D01*
X18971076Y46547989D01*
X18818337Y46452016D01*
X18690784Y46324463D01*
X18594811Y46171724D01*
X18535231Y46001455D01*
X18535230Y46001450D01*
X18515035Y45822204D01*
X18515035Y45822197D01*
X3538348Y45822197D01*
X3621796Y45933669D01*
X3672091Y46068517D01*
X3678500Y46128127D01*
X3678499Y47295397D01*
X6526235Y47295397D01*
X6546430Y47116151D01*
X6546431Y47116146D01*
X6606011Y46945877D01*
X6701983Y46793138D01*
X6701984Y46793138D01*
X6829538Y46665584D01*
X6982278Y46569611D01*
X7152544Y46510032D01*
X7152545Y46510032D01*
X7152550Y46510031D01*
X7331796Y46489835D01*
X7331800Y46489835D01*
X7331804Y46489835D01*
X7511049Y46510031D01*
X7511052Y46510032D01*
X7511055Y46510032D01*
X7681322Y46569611D01*
X7834062Y46665584D01*
X7961616Y46793138D01*
X8057589Y46945878D01*
X8117168Y47116145D01*
X8137365Y47295400D01*
X8117168Y47474655D01*
X8057589Y47644922D01*
X8005892Y47727197D01*
X16025835Y47727197D01*
X16046030Y47547951D01*
X16046031Y47547946D01*
X16105611Y47377677D01*
X16201583Y47224938D01*
X16201584Y47224938D01*
X16329138Y47097384D01*
X16481878Y47001411D01*
X16640582Y46945878D01*
X16652145Y46941832D01*
X16652150Y46941831D01*
X16831396Y46921635D01*
X16831400Y46921635D01*
X16831404Y46921635D01*
X17010649Y46941831D01*
X17010652Y46941832D01*
X17010655Y46941832D01*
X17180922Y47001411D01*
X17333662Y47097384D01*
X17461216Y47224938D01*
X17557189Y47377678D01*
X17616768Y47547945D01*
X17636965Y47727200D01*
X17616768Y47906455D01*
X17557189Y48076722D01*
X17554645Y48080770D01*
X17461215Y48229463D01*
X17333662Y48357016D01*
X17180923Y48452989D01*
X17010654Y48512569D01*
X17010649Y48512570D01*
X16831404Y48532765D01*
X16831396Y48532765D01*
X16652150Y48512570D01*
X16652145Y48512569D01*
X16481876Y48452989D01*
X16329137Y48357016D01*
X16201584Y48229463D01*
X16105611Y48076724D01*
X16046031Y47906455D01*
X16046030Y47906450D01*
X16025835Y47727204D01*
X16025835Y47727197D01*
X8005892Y47727197D01*
X7961616Y47797662D01*
X7834062Y47925216D01*
X7741331Y47983483D01*
X7681323Y48021189D01*
X7511054Y48080769D01*
X7511049Y48080770D01*
X7331804Y48100965D01*
X7331796Y48100965D01*
X7152550Y48080770D01*
X7152545Y48080769D01*
X6982276Y48021189D01*
X6829537Y47925216D01*
X6701984Y47797663D01*
X6606011Y47644924D01*
X6546431Y47474655D01*
X6546430Y47474650D01*
X6526235Y47295404D01*
X6526235Y47295397D01*
X3678499Y47295397D01*
X3678499Y47923872D01*
X3672091Y47983483D01*
X3637314Y48076724D01*
X3621797Y48118329D01*
X3621793Y48118336D01*
X3535547Y48233545D01*
X3535544Y48233548D01*
X3420335Y48319794D01*
X3420328Y48319798D01*
X3285482Y48370092D01*
X3285483Y48370092D01*
X3225883Y48376499D01*
X3225881Y48376500D01*
X3225873Y48376500D01*
X3225864Y48376500D01*
X1430129Y48376500D01*
X1430123Y48376499D01*
X1370516Y48370092D01*
X1235671Y48319798D01*
X1235664Y48319794D01*
X1120455Y48233548D01*
X1120452Y48233545D01*
X1034206Y48118336D01*
X1034202Y48118329D01*
X983908Y47983483D01*
X977644Y47925216D01*
X977501Y47923877D01*
X977500Y47923865D01*
X977500Y46128130D01*
X977501Y46128124D01*
X983908Y46068517D01*
X1034202Y45933672D01*
X1034206Y45933665D01*
X1120452Y45818456D01*
X1120455Y45818453D01*
X1235664Y45732207D01*
X1235671Y45732203D01*
X1367081Y45683190D01*
X1423015Y45641319D01*
X1447432Y45575855D01*
X1432580Y45507582D01*
X1411430Y45479327D01*
X1289503Y45357400D01*
X1153965Y45163831D01*
X1153964Y45163829D01*
X1054098Y44949665D01*
X1054094Y44949656D01*
X992938Y44721414D01*
X992936Y44721404D01*
X972341Y44486001D01*
X972341Y44486000D01*
X992936Y44250597D01*
X992938Y44250587D01*
X1054094Y44022345D01*
X1054096Y44022341D01*
X1054097Y44022337D01*
X1103802Y43915745D01*
X1153965Y43808170D01*
X1153967Y43808166D01*
X1289501Y43614605D01*
X1289506Y43614598D01*
X1456597Y43447507D01*
X1456603Y43447502D01*
X1642158Y43317575D01*
X1685783Y43262998D01*
X1692977Y43193500D01*
X1661454Y43131145D01*
X1642158Y43114425D01*
X1456597Y42984495D01*
X1289505Y42817403D01*
X1153965Y42623831D01*
X1153964Y42623829D01*
X1054098Y42409665D01*
X1054094Y42409656D01*
X992938Y42181414D01*
X992936Y42181404D01*
X972341Y41946001D01*
X972341Y41946000D01*
X992936Y41710597D01*
X992938Y41710587D01*
X1054094Y41482345D01*
X1054096Y41482341D01*
X1054097Y41482337D01*
X1115914Y41349770D01*
X1153965Y41268170D01*
X1153967Y41268166D01*
X1289501Y41074605D01*
X1289506Y41074598D01*
X1456597Y40907507D01*
X1456603Y40907502D01*
X1642158Y40777575D01*
X1685783Y40722998D01*
X1692977Y40653500D01*
X1661454Y40591145D01*
X1642158Y40574425D01*
X1456597Y40444495D01*
X1289505Y40277403D01*
X1153965Y40083831D01*
X1153964Y40083829D01*
X1054098Y39869665D01*
X1054094Y39869656D01*
X992938Y39641414D01*
X992936Y39641404D01*
X972341Y39406001D01*
X972341Y39406000D01*
X992936Y39170597D01*
X992938Y39170587D01*
X1054094Y38942345D01*
X1054096Y38942341D01*
X1054097Y38942337D01*
X1093955Y38856862D01*
X1153965Y38728170D01*
X1153967Y38728166D01*
X1289501Y38534605D01*
X1289506Y38534598D01*
X1456597Y38367507D01*
X1456603Y38367502D01*
X1642594Y38237270D01*
X1686219Y38182693D01*
X1693413Y38113195D01*
X1661890Y38050840D01*
X1642595Y38034120D01*
X1456922Y37904110D01*
X1456920Y37904109D01*
X1289891Y37737080D01*
X1289886Y37737074D01*
X1154400Y37543580D01*
X1154399Y37543578D01*
X1054570Y37329493D01*
X1054567Y37329487D01*
X997364Y37116001D01*
X997364Y37116000D01*
X1894314Y37116000D01*
X1868507Y37075844D01*
X1828000Y36937889D01*
X1828000Y36794111D01*
X1868507Y36656156D01*
X1894314Y36616000D01*
X997364Y36616000D01*
X1054567Y36402514D01*
X1054570Y36402508D01*
X1154399Y36188422D01*
X1289894Y35994918D01*
X1456917Y35827895D01*
X1642595Y35697881D01*
X1686219Y35643304D01*
X1693412Y35573805D01*
X1661890Y35511451D01*
X1642595Y35494731D01*
X1456594Y35364492D01*
X1289505Y35197403D01*
X1153965Y35003831D01*
X1153964Y35003829D01*
X1054098Y34789665D01*
X1054094Y34789656D01*
X992938Y34561414D01*
X992936Y34561404D01*
X972341Y34326001D01*
X972341Y34326000D01*
X500Y34326000D01*
X500Y50138801D01*
X20185Y50205840D01*
X72989Y50251595D01*
X142147Y50261539D01*
X205703Y50232514D01*
X227133Y50208388D01*
X368633Y49999691D01*
X368641Y49999681D01*
X600331Y49726915D01*
X600332Y49726914D01*
X860163Y49480789D01*
X1145081Y49264200D01*
X1451747Y49079685D01*
X1451749Y49079684D01*
X1451751Y49079683D01*
X1451755Y49079681D01*
X1680546Y48973832D01*
X1776565Y48929409D01*
X2115726Y48815132D01*
X2465254Y48738195D01*
X2821052Y48699500D01*
X2821058Y48699500D01*
X3178942Y48699500D01*
X3178948Y48699500D01*
X3534746Y48738195D01*
X3884274Y48815132D01*
X4223435Y48929409D01*
X4548253Y49079685D01*
X4854919Y49264200D01*
X5139837Y49480789D01*
X5399668Y49726914D01*
X5491814Y49835397D01*
X8602835Y49835397D01*
X8623030Y49656151D01*
X8623031Y49656146D01*
X8682611Y49485877D01*
X8730491Y49409677D01*
X8778584Y49333138D01*
X8906138Y49205584D01*
X9058878Y49109611D01*
X9144413Y49079681D01*
X9229145Y49050032D01*
X9229150Y49050031D01*
X9408396Y49029835D01*
X9408400Y49029835D01*
X9408404Y49029835D01*
X9587649Y49050031D01*
X9587652Y49050032D01*
X9587655Y49050032D01*
X9757922Y49109611D01*
X9910662Y49205584D01*
X10038216Y49333138D01*
X10134189Y49485878D01*
X10193768Y49656145D01*
X10205379Y49759197D01*
X11002835Y49759197D01*
X11023030Y49579951D01*
X11023031Y49579946D01*
X11082611Y49409677D01*
X11130704Y49333138D01*
X11178584Y49256938D01*
X11306138Y49129384D01*
X11458878Y49033411D01*
X11469098Y49029835D01*
X11629145Y48973832D01*
X11629150Y48973831D01*
X11808396Y48953635D01*
X11808400Y48953635D01*
X11808404Y48953635D01*
X11987649Y48973831D01*
X11987652Y48973832D01*
X11987655Y48973832D01*
X12157922Y49033411D01*
X12310662Y49129384D01*
X12438216Y49256938D01*
X12534189Y49409678D01*
X12593768Y49579945D01*
X12602354Y49656146D01*
X12613965Y49759197D01*
X12613965Y49759204D01*
X12593769Y49938450D01*
X12593768Y49938455D01*
X12572341Y49999689D01*
X12534189Y50108722D01*
X12438216Y50261462D01*
X12310662Y50389016D01*
X12189391Y50465216D01*
X12157923Y50484989D01*
X11987654Y50544569D01*
X11987649Y50544570D01*
X11808404Y50564765D01*
X11808396Y50564765D01*
X11629150Y50544570D01*
X11629145Y50544569D01*
X11458876Y50484989D01*
X11306137Y50389016D01*
X11178584Y50261463D01*
X11082611Y50108724D01*
X11023031Y49938455D01*
X11023030Y49938450D01*
X11002835Y49759204D01*
X11002835Y49759197D01*
X10205379Y49759197D01*
X10213965Y49835397D01*
X10213965Y49835404D01*
X10193769Y50014650D01*
X10193768Y50014655D01*
X10134189Y50184922D01*
X10121045Y50205840D01*
X10038215Y50337663D01*
X9910662Y50465216D01*
X9757923Y50561189D01*
X9587654Y50620769D01*
X9587649Y50620770D01*
X9408404Y50640965D01*
X9408396Y50640965D01*
X9229150Y50620770D01*
X9229145Y50620769D01*
X9058876Y50561189D01*
X8906137Y50465216D01*
X8778584Y50337663D01*
X8682611Y50184924D01*
X8623031Y50014655D01*
X8623030Y50014650D01*
X8602835Y49835404D01*
X8602835Y49835397D01*
X5491814Y49835397D01*
X5631365Y49999689D01*
X5832211Y50295915D01*
X5999853Y50612120D01*
X6132324Y50944597D01*
X6228071Y51289448D01*
X6285972Y51642629D01*
X6305348Y52000000D01*
X6285972Y52357371D01*
X6228071Y52710552D01*
X6132324Y53055403D01*
X5999853Y53387880D01*
X5890259Y53594597D01*
X7339035Y53594597D01*
X7359230Y53415351D01*
X7359231Y53415346D01*
X7418811Y53245077D01*
X7475056Y53155565D01*
X7514784Y53092338D01*
X7642338Y52964784D01*
X7732680Y52908019D01*
X7776858Y52880259D01*
X7795078Y52868811D01*
X7861766Y52845476D01*
X7965345Y52809232D01*
X7965350Y52809231D01*
X8144596Y52789035D01*
X8144600Y52789035D01*
X8144604Y52789035D01*
X8323849Y52809231D01*
X8323852Y52809232D01*
X8323855Y52809232D01*
X8494122Y52868811D01*
X8646862Y52964784D01*
X8774416Y53092338D01*
X8870389Y53245078D01*
X8929968Y53415345D01*
X8950165Y53594600D01*
X8947303Y53619997D01*
X11911035Y53619997D01*
X11931230Y53440751D01*
X11931231Y53440746D01*
X11990811Y53270477D01*
X12063016Y53155565D01*
X12086784Y53117738D01*
X12214338Y52990184D01*
X12367078Y52894211D01*
X12506355Y52845476D01*
X12537345Y52834632D01*
X12537350Y52834631D01*
X12716596Y52814435D01*
X12716600Y52814435D01*
X12716604Y52814435D01*
X12895849Y52834631D01*
X12895852Y52834632D01*
X12895855Y52834632D01*
X13066122Y52894211D01*
X13218862Y52990184D01*
X13346416Y53117738D01*
X13442389Y53270478D01*
X13501968Y53440745D01*
X13522165Y53620000D01*
X13507836Y53747171D01*
X13501969Y53799250D01*
X13501968Y53799255D01*
X13442388Y53969524D01*
X13346415Y54122263D01*
X13218862Y54249816D01*
X13066123Y54345789D01*
X12895854Y54405369D01*
X12895849Y54405370D01*
X12716604Y54425565D01*
X12716596Y54425565D01*
X12537350Y54405370D01*
X12537345Y54405369D01*
X12367076Y54345789D01*
X12214337Y54249816D01*
X12086784Y54122263D01*
X11990811Y53969524D01*
X11931231Y53799255D01*
X11931230Y53799250D01*
X11911035Y53620004D01*
X11911035Y53619997D01*
X8947303Y53619997D01*
X8929969Y53773850D01*
X8929968Y53773855D01*
X8921080Y53799255D01*
X8870389Y53944122D01*
X8774416Y54096862D01*
X8646862Y54224416D01*
X8606438Y54249816D01*
X8494123Y54320389D01*
X8323854Y54379969D01*
X8323849Y54379970D01*
X8144604Y54400165D01*
X8144596Y54400165D01*
X7965350Y54379970D01*
X7965345Y54379969D01*
X7795076Y54320389D01*
X7642337Y54224416D01*
X7514784Y54096863D01*
X7418811Y53944124D01*
X7359231Y53773855D01*
X7359230Y53773850D01*
X7339035Y53594604D01*
X7339035Y53594597D01*
X5890259Y53594597D01*
X5890257Y53594600D01*
X5832215Y53704078D01*
X5832213Y53704081D01*
X5832211Y53704085D01*
X5631365Y54000311D01*
X5631361Y54000316D01*
X5631358Y54000320D01*
X5399668Y54273086D01*
X5265512Y54400165D01*
X5139837Y54519211D01*
X5139830Y54519217D01*
X5139827Y54519219D01*
X5072245Y54570593D01*
X4854919Y54735800D01*
X4799323Y54769251D01*
X4752030Y54820679D01*
X4740047Y54889514D01*
X4767182Y54953899D01*
X4824819Y54993393D01*
X4863253Y54999500D01*
X20136747Y54999500D01*
X20203786Y54979815D01*
G37*
%TD.AperFunction*%
%TD*%
M02*
