%TF.GenerationSoftware,KiCad,Pcbnew,7.0.5*%
%TF.CreationDate,2023-08-27T23:52:23-07:00*%
%TF.ProjectId,Lyra V2,4c797261-2056-4322-9e6b-696361645f70,rev?*%
%TF.SameCoordinates,Original*%
%TF.FileFunction,Copper,L4,Bot*%
%TF.FilePolarity,Positive*%
%FSLAX46Y46*%
G04 Gerber Fmt 4.6, Leading zero omitted, Abs format (unit mm)*
G04 Created by KiCad (PCBNEW 7.0.5) date 2023-08-27 23:52:23*
%MOMM*%
%LPD*%
G01*
G04 APERTURE LIST*
G04 Aperture macros list*
%AMRoundRect*
0 Rectangle with rounded corners*
0 $1 Rounding radius*
0 $2 $3 $4 $5 $6 $7 $8 $9 X,Y pos of 4 corners*
0 Add a 4 corners polygon primitive as box body*
4,1,4,$2,$3,$4,$5,$6,$7,$8,$9,$2,$3,0*
0 Add four circle primitives for the rounded corners*
1,1,$1+$1,$2,$3*
1,1,$1+$1,$4,$5*
1,1,$1+$1,$6,$7*
1,1,$1+$1,$8,$9*
0 Add four rect primitives between the rounded corners*
20,1,$1+$1,$2,$3,$4,$5,0*
20,1,$1+$1,$4,$5,$6,$7,0*
20,1,$1+$1,$6,$7,$8,$9,0*
20,1,$1+$1,$8,$9,$2,$3,0*%
G04 Aperture macros list end*
%TA.AperFunction,SMDPad,CuDef*%
%ADD10RoundRect,0.225000X-0.250000X0.225000X-0.250000X-0.225000X0.250000X-0.225000X0.250000X0.225000X0*%
%TD*%
%TA.AperFunction,ComponentPad*%
%ADD11R,3.000000X3.000000*%
%TD*%
%TA.AperFunction,ComponentPad*%
%ADD12C,3.000000*%
%TD*%
%TA.AperFunction,ComponentPad*%
%ADD13R,1.700000X1.700000*%
%TD*%
%TA.AperFunction,ComponentPad*%
%ADD14O,1.700000X1.700000*%
%TD*%
%TA.AperFunction,ComponentPad*%
%ADD15C,5.600000*%
%TD*%
%TA.AperFunction,SMDPad,CuDef*%
%ADD16R,1.500000X1.000000*%
%TD*%
%TA.AperFunction,SMDPad,CuDef*%
%ADD17RoundRect,0.225000X-0.225000X-0.250000X0.225000X-0.250000X0.225000X0.250000X-0.225000X0.250000X0*%
%TD*%
%TA.AperFunction,SMDPad,CuDef*%
%ADD18RoundRect,0.225000X0.250000X-0.225000X0.250000X0.225000X-0.250000X0.225000X-0.250000X-0.225000X0*%
%TD*%
%TA.AperFunction,SMDPad,CuDef*%
%ADD19RoundRect,0.150000X0.150000X-0.650000X0.150000X0.650000X-0.150000X0.650000X-0.150000X-0.650000X0*%
%TD*%
%TA.AperFunction,SMDPad,CuDef*%
%ADD20RoundRect,0.200000X-0.200000X-0.275000X0.200000X-0.275000X0.200000X0.275000X-0.200000X0.275000X0*%
%TD*%
%TA.AperFunction,SMDPad,CuDef*%
%ADD21RoundRect,0.225000X0.225000X0.250000X-0.225000X0.250000X-0.225000X-0.250000X0.225000X-0.250000X0*%
%TD*%
%TA.AperFunction,SMDPad,CuDef*%
%ADD22R,1.000000X1.500000*%
%TD*%
%TA.AperFunction,SMDPad,CuDef*%
%ADD23R,1.500000X2.000000*%
%TD*%
%TA.AperFunction,SMDPad,CuDef*%
%ADD24R,0.800000X1.200000*%
%TD*%
%TA.AperFunction,SMDPad,CuDef*%
%ADD25RoundRect,0.200000X0.200000X0.275000X-0.200000X0.275000X-0.200000X-0.275000X0.200000X-0.275000X0*%
%TD*%
%TA.AperFunction,SMDPad,CuDef*%
%ADD26RoundRect,0.250000X-0.250000X-0.475000X0.250000X-0.475000X0.250000X0.475000X-0.250000X0.475000X0*%
%TD*%
%TA.AperFunction,SMDPad,CuDef*%
%ADD27RoundRect,0.200000X0.275000X-0.200000X0.275000X0.200000X-0.275000X0.200000X-0.275000X-0.200000X0*%
%TD*%
%TA.AperFunction,SMDPad,CuDef*%
%ADD28R,1.300000X3.400000*%
%TD*%
%TA.AperFunction,SMDPad,CuDef*%
%ADD29RoundRect,0.250000X-0.375000X-0.625000X0.375000X-0.625000X0.375000X0.625000X-0.375000X0.625000X0*%
%TD*%
%TA.AperFunction,SMDPad,CuDef*%
%ADD30RoundRect,0.218750X0.218750X0.256250X-0.218750X0.256250X-0.218750X-0.256250X0.218750X-0.256250X0*%
%TD*%
%TA.AperFunction,ViaPad*%
%ADD31C,0.600000*%
%TD*%
%TA.AperFunction,ViaPad*%
%ADD32C,1.000000*%
%TD*%
%TA.AperFunction,Conductor*%
%ADD33C,0.200000*%
%TD*%
%TA.AperFunction,Conductor*%
%ADD34C,0.500000*%
%TD*%
%TA.AperFunction,Conductor*%
%ADD35C,1.000000*%
%TD*%
%TA.AperFunction,Conductor*%
%ADD36C,0.300000*%
%TD*%
%TA.AperFunction,Conductor*%
%ADD37C,0.254000*%
%TD*%
%TA.AperFunction,Conductor*%
%ADD38C,0.000000*%
%TD*%
G04 APERTURE END LIST*
D10*
%TO.P,C25,1*%
%TO.N,+3V3*%
X120345200Y-93433600D03*
%TO.P,C25,2*%
%TO.N,GND*%
X120345200Y-94983600D03*
%TD*%
D11*
%TO.P,J5,1,Pin_1*%
%TO.N,/PYRO PWR*%
X136017000Y-86487000D03*
D12*
%TO.P,J5,2,Pin_2*%
%TO.N,+12P*%
X136017000Y-81407000D03*
%TO.P,J5,3,Pin_3*%
%TO.N,GND*%
X136017000Y-76327000D03*
%TO.P,J5,4,Pin_4*%
%TO.N,+5V*%
X136017000Y-71247000D03*
%TD*%
D11*
%TO.P,J2,1,Pin_1*%
%TO.N,/GPIO26*%
X103784400Y-71399400D03*
D12*
%TO.P,J2,2,Pin_2*%
%TO.N,+3V3*%
X103784400Y-76479400D03*
%TO.P,J2,3,Pin_3*%
%TO.N,GND*%
X103784400Y-81559400D03*
%TO.P,J2,4,Pin_4*%
%TO.N,+12P*%
X103784400Y-86639400D03*
%TD*%
D13*
%TO.P,J4,1,Pin_1*%
%TO.N,/SPI PWR*%
X135356600Y-103098600D03*
D14*
%TO.P,J4,2,Pin_2*%
%TO.N,/SPI0 SCLK*%
X137896600Y-103098600D03*
%TO.P,J4,3,Pin_3*%
%TO.N,/SPI0 MOSI*%
X135356600Y-105638600D03*
%TO.P,J4,4,Pin_4*%
%TO.N,/SPI0 MISO*%
X137896600Y-105638600D03*
%TO.P,J4,5,Pin_5*%
%TO.N,GND*%
X135356600Y-108178600D03*
%TO.P,J4,6,Pin_6*%
%TO.N,/BRKOUT CS*%
X137896600Y-108178600D03*
%TD*%
D13*
%TO.P,J10,1,Pin_1*%
%TO.N,/I2C PWR*%
X109829600Y-71780400D03*
D14*
%TO.P,J10,2,Pin_2*%
%TO.N,/I2C1 SCL*%
X109829600Y-74320400D03*
%TO.P,J10,3,Pin_3*%
%TO.N,/I2C1 SDA*%
X109829600Y-76860400D03*
%TO.P,J10,4,Pin_4*%
%TO.N,GND*%
X109829600Y-79400400D03*
%TD*%
D13*
%TO.P,J11,1,Pin_1*%
%TO.N,/UART PWR*%
X129108200Y-98856800D03*
D14*
%TO.P,J11,2,Pin_2*%
%TO.N,/UART0 TX*%
X129108200Y-96316800D03*
%TO.P,J11,3,Pin_3*%
%TO.N,/UART0 RX*%
X129108200Y-93776800D03*
%TO.P,J11,4,Pin_4*%
%TO.N,GND*%
X129108200Y-91236800D03*
%TD*%
D13*
%TO.P,J12,1,Pin_1*%
%TO.N,GND*%
X102998400Y-108013999D03*
D14*
%TO.P,J12,2,Pin_2*%
%TO.N,/BOOTSEL*%
X102998400Y-105473999D03*
%TO.P,J12,3,Pin_3*%
%TO.N,unconnected-(J12-Pin_3-Pad3)*%
X102998400Y-102933999D03*
%TD*%
D11*
%TO.P,J6,1,Pin_1*%
%TO.N,/P2-*%
X135991600Y-112750600D03*
D12*
%TO.P,J6,2,Pin_2*%
%TO.N,/PYRO PWR*%
X135991600Y-117830600D03*
%TO.P,J6,3,Pin_3*%
%TO.N,/P1-*%
X135991600Y-122910600D03*
%TO.P,J6,4,Pin_4*%
%TO.N,/PYRO PWR*%
X135991600Y-127990600D03*
%TD*%
D15*
%TO.P,H3,1,1*%
%TO.N,GND*%
X136900000Y-134150000D03*
%TD*%
D11*
%TO.P,J3,1,Pin_1*%
%TO.N,+12V*%
X103911400Y-112725200D03*
D12*
%TO.P,J3,2,Pin_2*%
%TO.N,+BATT*%
X103911400Y-117805200D03*
%TO.P,J3,3,Pin_3*%
%TO.N,GND*%
X103911400Y-122885200D03*
%TO.P,J3,4,Pin_4*%
%TO.N,+BATT*%
X103911400Y-127965200D03*
%TD*%
D15*
%TO.P,H4,1,1*%
%TO.N,GND*%
X102900000Y-134150000D03*
%TD*%
%TO.P,H2,1,1*%
%TO.N,GND*%
X136850000Y-65150000D03*
%TD*%
%TO.P,H1,1,1*%
%TO.N,GND*%
X102900000Y-65150000D03*
%TD*%
D13*
%TO.P,J9,1,Pin_1*%
%TO.N,/SERVO1*%
X132969000Y-99542600D03*
D14*
%TO.P,J9,2,Pin_2*%
%TO.N,/SERVO2*%
X132969000Y-97002600D03*
%TO.P,J9,3,Pin_3*%
%TO.N,/SERVO PWR*%
X135509000Y-99542600D03*
%TO.P,J9,4,Pin_4*%
X135509000Y-97002600D03*
%TO.P,J9,5,Pin_5*%
%TO.N,GND*%
X138049000Y-99542600D03*
%TO.P,J9,6,Pin_6*%
X138049000Y-97002600D03*
%TD*%
D13*
%TO.P,J7,1,Pin_1*%
%TO.N,/SWD PWR*%
X127660000Y-82420000D03*
D14*
%TO.P,J7,2,Pin_2*%
%TO.N,/SWCLK*%
X130200000Y-82420000D03*
%TO.P,J7,3,Pin_3*%
%TO.N,/RUN*%
X127660000Y-84960000D03*
%TO.P,J7,4,Pin_4*%
%TO.N,GND*%
X130200000Y-84960000D03*
%TO.P,J7,5,Pin_5*%
X127660000Y-87500000D03*
%TO.P,J7,6,Pin_6*%
%TO.N,/SWD*%
X130200000Y-87500000D03*
%TD*%
D13*
%TO.P,J8,1,Pin_1*%
%TO.N,/SERVO3*%
X133045200Y-93776800D03*
D14*
%TO.P,J8,2,Pin_2*%
%TO.N,/SERVO4*%
X133045200Y-91236800D03*
%TO.P,J8,3,Pin_3*%
%TO.N,/SERVO PWR*%
X135585200Y-93776800D03*
%TO.P,J8,4,Pin_4*%
X135585200Y-91236800D03*
%TO.P,J8,5,Pin_5*%
%TO.N,GND*%
X138125200Y-93776800D03*
%TO.P,J8,6,Pin_6*%
X138125200Y-91236800D03*
%TD*%
D16*
%TO.P,JP5,1,A*%
%TO.N,+5V*%
X124600000Y-83775000D03*
%TO.P,JP5,2,C*%
%TO.N,/SWD PWR*%
X124600000Y-82475000D03*
%TO.P,JP5,3,B*%
%TO.N,+3V3*%
X124600000Y-81175000D03*
%TD*%
D17*
%TO.P,C26,1*%
%TO.N,+3V3*%
X126550000Y-74650000D03*
%TO.P,C26,2*%
%TO.N,GND*%
X128100000Y-74650000D03*
%TD*%
D18*
%TO.P,C12,1*%
%TO.N,Net-(U3-C1)*%
X117875000Y-77400000D03*
%TO.P,C12,2*%
%TO.N,GND*%
X117875000Y-75850000D03*
%TD*%
D19*
%TO.P,U5,1,~{CS}*%
%TO.N,/QSPI_SS*%
X111988600Y-99459600D03*
%TO.P,U5,2,DO(IO1)*%
%TO.N,/QSPI_SD1*%
X110718600Y-99459600D03*
%TO.P,U5,3,IO2*%
%TO.N,/QSPI_SD2*%
X109448600Y-99459600D03*
%TO.P,U5,4,GND*%
%TO.N,GND*%
X108178600Y-99459600D03*
%TO.P,U5,5,DI(IO0)*%
%TO.N,/QSPI_SDO*%
X108178600Y-92259600D03*
%TO.P,U5,6,CLK*%
%TO.N,/QSPI_SCLK*%
X109448600Y-92259600D03*
%TO.P,U5,7,IO3*%
%TO.N,/QSPI_SD3*%
X110718600Y-92259600D03*
%TO.P,U5,8,VCC*%
%TO.N,+3V3*%
X111988600Y-92259600D03*
%TD*%
D17*
%TO.P,C13,1*%
%TO.N,+3V3*%
X120586200Y-78917800D03*
%TO.P,C13,2*%
%TO.N,GND*%
X122136200Y-78917800D03*
%TD*%
D20*
%TO.P,R7,1*%
%TO.N,/P1 CONT*%
X124524000Y-121513800D03*
%TO.P,R7,2*%
%TO.N,GND*%
X126174000Y-121513800D03*
%TD*%
D21*
%TO.P,C28,1*%
%TO.N,+3V3*%
X128000000Y-79300000D03*
%TO.P,C28,2*%
%TO.N,GND*%
X126450000Y-79300000D03*
%TD*%
%TO.P,C16,1*%
%TO.N,+3V3*%
X113150000Y-74975000D03*
%TO.P,C16,2*%
%TO.N,GND*%
X111600000Y-74975000D03*
%TD*%
%TO.P,C11,1*%
%TO.N,+3V3*%
X119125000Y-78875000D03*
%TO.P,C11,2*%
%TO.N,GND*%
X117575000Y-78875000D03*
%TD*%
%TO.P,C18,1*%
%TO.N,+3V3*%
X112090800Y-90474800D03*
%TO.P,C18,2*%
%TO.N,GND*%
X110540800Y-90474800D03*
%TD*%
D22*
%TO.P,JP2,1,A*%
%TO.N,+5V*%
X108850000Y-68625000D03*
%TO.P,JP2,2,C*%
%TO.N,/I2C PWR*%
X110150000Y-68625000D03*
%TO.P,JP2,3,B*%
%TO.N,+3V3*%
X111450000Y-68625000D03*
%TD*%
D23*
%TO.P,J13,MP1,MP1*%
%TO.N,unconnected-(J13-PadMP1)*%
X126477400Y-115443000D03*
%TO.P,J13,MP2,MP2*%
%TO.N,unconnected-(J13-PadMP2)*%
X112587400Y-115443000D03*
%TO.P,J13,MP3,MP3*%
%TO.N,unconnected-(J13-PadMP3)*%
X112587400Y-107243000D03*
%TO.P,J13,MP4,MP4*%
%TO.N,unconnected-(J13-PadMP4)*%
X126477400Y-107243000D03*
D24*
%TO.P,J13,P1,DAT2*%
%TO.N,unconnected-(J13-DAT2-PadP1)*%
X116307400Y-113243000D03*
%TO.P,J13,P2,CD/DAT3*%
%TO.N,/SD CS*%
X117407400Y-113243000D03*
%TO.P,J13,P3,CMD*%
%TO.N,/SPI0 MOSI*%
X118507400Y-113243000D03*
%TO.P,J13,P4,VDD*%
%TO.N,+3V3*%
X119607400Y-113243000D03*
%TO.P,J13,P5,CLK*%
%TO.N,/SPI0 SCLK*%
X120707400Y-113243000D03*
%TO.P,J13,P6,VSS*%
%TO.N,GND*%
X121807400Y-113243000D03*
%TO.P,J13,P7,DAT0*%
%TO.N,/SPI0 MISO*%
X122907400Y-113243000D03*
%TO.P,J13,P8,DAT1*%
%TO.N,unconnected-(J13-DAT1-PadP8)*%
X124007400Y-113243000D03*
%TD*%
D25*
%TO.P,R8,1*%
%TO.N,Net-(Q3-D)*%
X125600000Y-127050000D03*
%TO.P,R8,2*%
%TO.N,/P2 CONT*%
X123950000Y-127050000D03*
%TD*%
D26*
%TO.P,C5,1*%
%TO.N,+12VA*%
X112175000Y-128025000D03*
%TO.P,C5,2*%
%TO.N,GND*%
X114075000Y-128025000D03*
%TD*%
D27*
%TO.P,R13,1*%
%TO.N,/QSPI_SS*%
X105173400Y-107234000D03*
%TO.P,R13,2*%
%TO.N,/BOOTSEL*%
X105173400Y-105584000D03*
%TD*%
D28*
%TO.P,LS1,1,+*%
%TO.N,/BUZZER*%
X119750000Y-67625000D03*
%TO.P,LS1,2,-*%
%TO.N,GND*%
X128450000Y-67625000D03*
%TD*%
D25*
%TO.P,R6,1*%
%TO.N,Net-(Q2-D)*%
X126174000Y-119938800D03*
%TO.P,R6,2*%
%TO.N,/P1 CONT*%
X124524000Y-119938800D03*
%TD*%
D17*
%TO.P,C23,1*%
%TO.N,+3V3*%
X124815600Y-96367600D03*
%TO.P,C23,2*%
%TO.N,GND*%
X126365600Y-96367600D03*
%TD*%
D18*
%TO.P,C30,1*%
%TO.N,+3V3*%
X117348000Y-99504800D03*
%TO.P,C30,2*%
%TO.N,GND*%
X117348000Y-97954800D03*
%TD*%
D22*
%TO.P,JP1,1,A*%
%TO.N,+5V*%
X132400000Y-104675000D03*
%TO.P,JP1,2,C*%
%TO.N,/SERVO PWR*%
X131100000Y-104675000D03*
%TO.P,JP1,3,B*%
%TO.N,+3V3*%
X129800000Y-104675000D03*
%TD*%
D18*
%TO.P,C29,1*%
%TO.N,+3V3*%
X115773200Y-92633800D03*
%TO.P,C29,2*%
%TO.N,GND*%
X115773200Y-91083800D03*
%TD*%
D21*
%TO.P,C17,1*%
%TO.N,+1V1*%
X123355400Y-95732600D03*
%TO.P,C17,2*%
%TO.N,GND*%
X121805400Y-95732600D03*
%TD*%
D29*
%TO.P,F2,1*%
%TO.N,Net-(Q1-S)*%
X111725000Y-120050000D03*
%TO.P,F2,2*%
%TO.N,Net-(F2-Pad2)*%
X114525000Y-120050000D03*
%TD*%
D25*
%TO.P,R14,1*%
%TO.N,+3V3*%
X117690400Y-101625400D03*
%TO.P,R14,2*%
%TO.N,/QSPI_SS*%
X116040400Y-101625400D03*
%TD*%
D10*
%TO.P,C19,1*%
%TO.N,+3V3*%
X114775000Y-76000000D03*
%TO.P,C19,2*%
%TO.N,GND*%
X114775000Y-77550000D03*
%TD*%
D17*
%TO.P,C15,1*%
%TO.N,+1V1*%
X117919200Y-96494600D03*
%TO.P,C15,2*%
%TO.N,GND*%
X119469200Y-96494600D03*
%TD*%
D30*
%TO.P,FB1,1*%
%TO.N,Net-(F2-Pad2)*%
X113825000Y-122000000D03*
%TO.P,FB1,2*%
%TO.N,+12VA*%
X112250000Y-122000000D03*
%TD*%
D18*
%TO.P,C9,1*%
%TO.N,/SERVO PWR*%
X132816600Y-102679800D03*
%TO.P,C9,2*%
%TO.N,GND*%
X132816600Y-101129800D03*
%TD*%
D26*
%TO.P,C6,1*%
%TO.N,+12VA*%
X112175000Y-125975000D03*
%TO.P,C6,2*%
%TO.N,GND*%
X114075000Y-125975000D03*
%TD*%
D17*
%TO.P,C20,1*%
%TO.N,+1V1*%
X116801600Y-94157800D03*
%TO.P,C20,2*%
%TO.N,GND*%
X118351600Y-94157800D03*
%TD*%
D20*
%TO.P,R19,1*%
%TO.N,+3V3*%
X123609600Y-89839800D03*
%TO.P,R19,2*%
%TO.N,/RUN*%
X125259600Y-89839800D03*
%TD*%
%TO.P,R9,1*%
%TO.N,/P2 CONT*%
X123924999Y-125375000D03*
%TO.P,R9,2*%
%TO.N,GND*%
X125574999Y-125375000D03*
%TD*%
D21*
%TO.P,C27,1*%
%TO.N,+3V3*%
X116497400Y-95707200D03*
%TO.P,C27,2*%
%TO.N,GND*%
X114947400Y-95707200D03*
%TD*%
D18*
%TO.P,C22,1*%
%TO.N,+3V3*%
X117297200Y-92672200D03*
%TO.P,C22,2*%
%TO.N,GND*%
X117297200Y-91122200D03*
%TD*%
D26*
%TO.P,C7,1*%
%TO.N,+12VA*%
X112175000Y-123850000D03*
%TO.P,C7,2*%
%TO.N,GND*%
X114075000Y-123850000D03*
%TD*%
D21*
%TO.P,C21,1*%
%TO.N,+3V3*%
X115202000Y-94208600D03*
%TO.P,C21,2*%
%TO.N,GND*%
X113652000Y-94208600D03*
%TD*%
D18*
%TO.P,C24,1*%
%TO.N,+3V3*%
X120904000Y-99530200D03*
%TO.P,C24,2*%
%TO.N,GND*%
X120904000Y-97980200D03*
%TD*%
D21*
%TO.P,C10,1*%
%TO.N,+3V3*%
X120917000Y-74549000D03*
%TO.P,C10,2*%
%TO.N,GND*%
X119367000Y-74549000D03*
%TD*%
D31*
%TO.N,+3V3*%
X120919650Y-93332418D03*
D32*
%TO.N,GND*%
X114884200Y-125958600D03*
D31*
X118567200Y-94691200D03*
X125526800Y-75234800D03*
D32*
X108153200Y-134112000D03*
D31*
X132280491Y-101277480D03*
X111760000Y-77470000D03*
X109905800Y-90474800D03*
D32*
X131495800Y-131800600D03*
D31*
X127076200Y-96570800D03*
X129311400Y-67665600D03*
X116865400Y-78892400D03*
X122478800Y-79527400D03*
X119608600Y-75336400D03*
X122555000Y-116484400D03*
X121589800Y-112369600D03*
X116306600Y-91033600D03*
X128701800Y-75438000D03*
X115062000Y-117119400D03*
X121446811Y-76335715D03*
X119826788Y-96252504D03*
D32*
X108381800Y-131775200D03*
D31*
X121183400Y-96037400D03*
D32*
X128955800Y-135280400D03*
D31*
X118592600Y-76377800D03*
X127127000Y-121920000D03*
X122656600Y-97078800D03*
X121259600Y-94691200D03*
X126212600Y-124917200D03*
X127726902Y-115239800D03*
X114096800Y-77444600D03*
X120878600Y-97307400D03*
X110464600Y-103911400D03*
X120192800Y-95656400D03*
X114325400Y-92837000D03*
X104470200Y-96545400D03*
X118033800Y-98044000D03*
X115547900Y-95910400D03*
X111785400Y-75742800D03*
X108204000Y-100457000D03*
X126085600Y-78917800D03*
D32*
X113792000Y-130606800D03*
D31*
%TO.N,+3V3*%
X121234200Y-75565000D03*
X122318511Y-105189289D03*
D32*
X111455200Y-67614800D03*
D31*
X113151017Y-75686062D03*
X115646200Y-93319600D03*
X116408200Y-81432400D03*
X112606936Y-78091581D03*
X118363500Y-101769209D03*
X124336410Y-96233599D03*
X123621800Y-89128600D03*
X121146940Y-100354382D03*
X114020600Y-76301600D03*
X125202305Y-78848368D03*
X120319800Y-78206600D03*
X127648892Y-78918591D03*
X112522000Y-104190800D03*
X114782600Y-75361800D03*
X117094000Y-100152200D03*
X126516358Y-75386343D03*
X119786400Y-79146400D03*
D32*
X116535200Y-133223000D03*
D31*
X119616586Y-78118439D03*
D32*
X129900500Y-103145664D03*
D31*
X115690956Y-94054570D03*
D32*
X114858800Y-133070600D03*
X110464600Y-130302000D03*
D31*
X125857000Y-98903400D03*
X113003726Y-90565904D03*
X117068600Y-92100400D03*
X119710200Y-112395000D03*
X113842800Y-74980800D03*
X117172349Y-95704239D03*
X123494800Y-80822800D03*
D32*
%TO.N,+5V*%
X130911600Y-134340600D03*
X124637800Y-84886800D03*
D31*
X110286800Y-128841400D03*
D32*
X129336800Y-88849200D03*
D31*
X132695800Y-105613200D03*
%TO.N,Net-(U3-C1)*%
X118618000Y-77495400D03*
%TO.N,+1V1*%
X117449600Y-94919800D03*
X124166410Y-95309037D03*
X117300130Y-96510961D03*
%TO.N,VBUS*%
X104419400Y-93903800D03*
X108432600Y-112166400D03*
D32*
%TO.N,Net-(Q1-S)*%
X111912400Y-118668800D03*
D31*
%TO.N,/SPI0 SCLK*%
X120650000Y-114122200D03*
X124383800Y-111836200D03*
%TO.N,/SPI0 MOSI*%
X118567200Y-111963200D03*
%TO.N,/SPI0 MISO*%
X122809000Y-112344200D03*
%TO.N,/BRKOUT CS*%
X119563000Y-103022400D03*
X126141211Y-109859811D03*
D32*
%TO.N,/PYRO PWR*%
X131495800Y-119405400D03*
D31*
%TO.N,/SWD*%
X126669800Y-95046800D03*
%TO.N,/RUN*%
X125360100Y-94538800D03*
%TO.N,/I2C1 SDA*%
X117475000Y-74041000D03*
X116453138Y-75387593D03*
X123063000Y-76250800D03*
X123469400Y-78867000D03*
D32*
%TO.N,/UART PWR*%
X126619000Y-103098600D03*
D31*
%TO.N,/SD CS*%
X117164000Y-111981637D03*
%TO.N,/BUZZER*%
X119415500Y-98120200D03*
X111887000Y-84607400D03*
X114223800Y-81686400D03*
%TO.N,/P2 EN*%
X130378200Y-113614200D03*
X120878600Y-101346000D03*
%TO.N,Net-(Q2-D)*%
X126517400Y-119303800D03*
%TO.N,/P1 EN*%
X125755400Y-105743498D03*
X129667000Y-122732800D03*
%TO.N,Net-(Q3-D)*%
X126314200Y-127914400D03*
%TO.N,/P1 CONT*%
X124485400Y-122555000D03*
X108542089Y-127998489D03*
X102184200Y-90000898D03*
%TO.N,/P2 CONT*%
X101583500Y-89382600D03*
X116255800Y-128041400D03*
X106730800Y-130657600D03*
%TO.N,/BATT SENSE*%
X113512600Y-102387400D03*
X119370700Y-93648493D03*
%TO.N,/QSPI_SS*%
X113639600Y-101015800D03*
X105257600Y-108178600D03*
%TO.N,/MAG INT*%
X122199400Y-77622400D03*
X117957600Y-82727800D03*
%TO.N,/MAG DRDY*%
X122309475Y-98719670D03*
X122224800Y-76708000D03*
%TO.N,/BARO INT*%
X113588800Y-78409800D03*
X117297200Y-87604600D03*
%TO.N,/QSPI_SD1*%
X115366800Y-99872800D03*
%TO.N,/QSPI_SD2*%
X113974611Y-98750389D03*
%TO.N,/QSPI_SDO*%
X111836200Y-96961900D03*
%TO.N,/QSPI_SCLK*%
X113461800Y-96977200D03*
%TO.N,/QSPI_SD3*%
X114490255Y-96681953D03*
%TO.N,/GYRO INT3*%
X127812800Y-77053500D03*
X122270789Y-83002389D03*
%TO.N,/GYRO INT4*%
X121523452Y-82718327D03*
X129895600Y-76454000D03*
D32*
%TO.N,+12VA*%
X111150400Y-122047000D03*
X126161800Y-130632200D03*
X113842800Y-135255000D03*
%TD*%
D33*
%TO.N,/BATT SENSE*%
X121631000Y-93968329D02*
X121631000Y-93132200D01*
%TO.N,/QSPI_SDO*%
X111836200Y-96083596D02*
X108178600Y-92425996D01*
X108178600Y-92425996D02*
X108178600Y-92259600D01*
X111836200Y-96961900D02*
X111836200Y-96083596D01*
%TO.N,/QSPI_SD3*%
X110718600Y-92695862D02*
X110718600Y-92259600D01*
X114490255Y-96681953D02*
X114490255Y-96467517D01*
X114490255Y-96467517D02*
X110718600Y-92695862D01*
D34*
%TO.N,GND*%
X115344700Y-95707200D02*
X114947400Y-95707200D01*
X115547900Y-95910400D02*
X115344700Y-95707200D01*
D35*
%TO.N,+5V*%
X136017000Y-71247000D02*
X133273800Y-71247000D01*
X133197600Y-71323200D02*
X133197600Y-67614800D01*
X133197600Y-86694432D02*
X133197600Y-71323200D01*
X133273800Y-71247000D02*
X133197600Y-71323200D01*
%TO.N,/PYRO PWR*%
X131495800Y-110286800D02*
X131495800Y-119405400D01*
X128447800Y-102901307D02*
X128447800Y-107238800D01*
X131089400Y-100259707D02*
X128447800Y-102901307D01*
X131089400Y-90983400D02*
X131089400Y-100259707D01*
X128447800Y-107238800D02*
X131495800Y-110286800D01*
X135585800Y-86487000D02*
X131089400Y-90983400D01*
X135932000Y-86487000D02*
X135585800Y-86487000D01*
D36*
%TO.N,GND*%
X128701800Y-75251800D02*
X128100000Y-74650000D01*
D34*
X113652000Y-94411800D02*
X114947400Y-95707200D01*
D33*
X117983000Y-98044000D02*
X117881400Y-97942400D01*
D34*
X110540800Y-90474800D02*
X109905800Y-90474800D01*
D35*
X115785300Y-91071700D02*
X117297200Y-91071700D01*
D34*
X132969000Y-101028200D02*
X132529771Y-101028200D01*
D36*
X126259532Y-79109532D02*
X126450000Y-79300000D01*
D34*
X122136200Y-78917800D02*
X122136200Y-79184800D01*
D35*
X114075000Y-123850000D02*
X114075000Y-128025000D01*
D34*
X125754800Y-125375000D02*
X126212600Y-124917200D01*
D36*
X126259532Y-79026823D02*
X126259532Y-79109532D01*
D35*
X114075000Y-125975000D02*
X114867800Y-125975000D01*
D33*
X118033800Y-98044000D02*
X117983000Y-98044000D01*
X114325400Y-92837000D02*
X113652000Y-93510400D01*
D34*
X126568800Y-96570800D02*
X126365600Y-96367600D01*
X132529771Y-101028200D02*
X132280491Y-101277480D01*
D35*
X114867800Y-125975000D02*
X114884200Y-125958600D01*
D36*
X128701800Y-75438000D02*
X128701800Y-75251800D01*
D37*
X114202200Y-77550000D02*
X114096800Y-77444600D01*
D34*
X127076200Y-96570800D02*
X126568800Y-96570800D01*
X126580200Y-121920000D02*
X126174000Y-121513800D01*
X121589800Y-112369600D02*
X121589800Y-113025400D01*
D37*
X111785400Y-75160400D02*
X111600000Y-74975000D01*
D34*
X108178600Y-100431600D02*
X108204000Y-100457000D01*
D33*
X117875000Y-75850000D02*
X118064800Y-75850000D01*
D34*
X116882800Y-78875000D02*
X116865400Y-78892400D01*
D33*
X113652000Y-93510400D02*
X113652000Y-94208600D01*
D34*
X129270800Y-67625000D02*
X129311400Y-67665600D01*
D36*
X119367000Y-75094800D02*
X119608600Y-75336400D01*
D37*
X114775000Y-77550000D02*
X114202200Y-77550000D01*
D34*
X127127000Y-121920000D02*
X126580200Y-121920000D01*
X121589800Y-113025400D02*
X121807400Y-113243000D01*
X125574999Y-125375000D02*
X125754800Y-125375000D01*
X117575000Y-78875000D02*
X116882800Y-78875000D01*
D33*
X118064800Y-75850000D02*
X118592600Y-76377800D01*
D34*
X113652000Y-94208600D02*
X113652000Y-94411800D01*
X122136200Y-79184800D02*
X122445377Y-79493977D01*
X122445377Y-79493977D02*
X122478800Y-79493977D01*
D36*
X119367000Y-74549000D02*
X119367000Y-75094800D01*
D34*
X108178600Y-99459600D02*
X108178600Y-100431600D01*
D37*
X111785400Y-75742800D02*
X111785400Y-75160400D01*
D34*
X128450000Y-67625000D02*
X129270800Y-67625000D01*
%TO.N,+3V3*%
X119607400Y-113243000D02*
X119607400Y-112497800D01*
X119786400Y-79146400D02*
X120357600Y-79146400D01*
D37*
X113151017Y-75686062D02*
X113151017Y-74976017D01*
D36*
X126516358Y-74683642D02*
X126550000Y-74650000D01*
D34*
X112912622Y-90474800D02*
X113003726Y-90565904D01*
D33*
X121146940Y-100354382D02*
X120904000Y-100111442D01*
D36*
X121234200Y-74866200D02*
X120917000Y-74549000D01*
D34*
X120319800Y-78206600D02*
X120319800Y-78651400D01*
X118219691Y-101625400D02*
X117690400Y-101625400D01*
D33*
X117094000Y-99758800D02*
X117348000Y-99504800D01*
D34*
X119125000Y-78875000D02*
X119515000Y-78875000D01*
D38*
X117068600Y-92443600D02*
X117297200Y-92672200D01*
D34*
X114775000Y-75369400D02*
X114782600Y-75361800D01*
X113837000Y-74975000D02*
X113842800Y-74980800D01*
X112090800Y-90474800D02*
X112912622Y-90474800D01*
D36*
X121234200Y-75565000D02*
X121234200Y-74866200D01*
D37*
X114473400Y-76301600D02*
X114775000Y-76000000D01*
D33*
X120904000Y-100111442D02*
X120904000Y-99530200D01*
D35*
X111450000Y-68625000D02*
X111450000Y-67620000D01*
D34*
X111988600Y-92259600D02*
X111988600Y-90577000D01*
D33*
X119616586Y-78118439D02*
X119616586Y-78383414D01*
X119616586Y-78383414D02*
X119125000Y-78875000D01*
D34*
X124247800Y-80822800D02*
X124600000Y-81175000D01*
D37*
X114020600Y-76301600D02*
X114473400Y-76301600D01*
D34*
X118363500Y-101769209D02*
X118219691Y-101625400D01*
X129900500Y-103145664D02*
X129900500Y-104574500D01*
D37*
X113151017Y-74976017D02*
X113150000Y-74975000D01*
D34*
X119607400Y-112497800D02*
X119710200Y-112395000D01*
D33*
X117094000Y-100152200D02*
X117094000Y-99758800D01*
D38*
X117068600Y-92100400D02*
X117068600Y-92443600D01*
D34*
X114775000Y-76000000D02*
X114775000Y-75369400D01*
X129900500Y-104574500D02*
X129800000Y-104675000D01*
X120357600Y-79146400D02*
X120586200Y-78917800D01*
D33*
X123609600Y-89839800D02*
X123609600Y-89140800D01*
D36*
X126516358Y-75386343D02*
X126516358Y-74683642D01*
D34*
X111988600Y-90577000D02*
X112090800Y-90474800D01*
D33*
X117172349Y-95704239D02*
X116500361Y-95704239D01*
X116500361Y-95704239D02*
X116497400Y-95707200D01*
X123609600Y-89140800D02*
X123621800Y-89128600D01*
D34*
X113150000Y-74975000D02*
X113837000Y-74975000D01*
X120319800Y-78651400D02*
X120586200Y-78917800D01*
X119515000Y-78875000D02*
X119786400Y-79146400D01*
D35*
X111450000Y-67620000D02*
X111455200Y-67614800D01*
D34*
X123494800Y-80822800D02*
X124247800Y-80822800D01*
D35*
%TO.N,+5V*%
X108850000Y-69529400D02*
X108850000Y-68625000D01*
X106476800Y-113995200D02*
X106476800Y-102552920D01*
X106045000Y-75107800D02*
X106045000Y-72334400D01*
X103184200Y-89239600D02*
X105640400Y-89239600D01*
X130484032Y-89408000D02*
X133197600Y-86694432D01*
X129616200Y-89408000D02*
X130484032Y-89408000D01*
X124637800Y-83812800D02*
X124600000Y-83775000D01*
X102793800Y-98869920D02*
X102793800Y-95377000D01*
X110286800Y-128841400D02*
X109950400Y-128505000D01*
X129336800Y-89128600D02*
X129616200Y-89408000D01*
X105640400Y-89239600D02*
X106000000Y-88880000D01*
X108850000Y-66875000D02*
X108850000Y-68625000D01*
X133197600Y-67614800D02*
X130807800Y-65225000D01*
X124637800Y-84886800D02*
X124637800Y-83812800D01*
X106000000Y-88880000D02*
X106000000Y-75152800D01*
X132695800Y-132556400D02*
X132695800Y-104970800D01*
X106045000Y-72334400D02*
X108850000Y-69529400D01*
X110500000Y-65225000D02*
X108850000Y-66875000D01*
X103184200Y-94986600D02*
X103184200Y-89239600D01*
X129336800Y-88849200D02*
X129336800Y-89128600D01*
X109950400Y-128505000D02*
X109950400Y-117468800D01*
X130911600Y-134340600D02*
X132695800Y-132556400D01*
X132695800Y-104970800D02*
X132400000Y-104675000D01*
X106000000Y-75152800D02*
X106045000Y-75107800D01*
X109950400Y-117468800D02*
X106476800Y-113995200D01*
X102793800Y-95377000D02*
X103184200Y-94986600D01*
X130807800Y-65225000D02*
X110500000Y-65225000D01*
X106476800Y-102552920D02*
X102793800Y-98869920D01*
%TO.N,/SERVO PWR*%
X131100000Y-104675000D02*
X131100000Y-102625000D01*
X133104548Y-102625000D02*
X135540000Y-100189548D01*
X135540000Y-100189548D02*
X135540000Y-91285000D01*
X131100000Y-102625000D02*
X133104548Y-102625000D01*
D33*
%TO.N,Net-(U3-C1)*%
X118522600Y-77400000D02*
X118618000Y-77495400D01*
X117875000Y-77400000D02*
X118522600Y-77400000D01*
%TO.N,+1V1*%
X124166410Y-95309037D02*
X123651963Y-95309037D01*
X117449600Y-94668006D02*
X116939394Y-94157800D01*
X117449600Y-94919800D02*
X117449600Y-94668006D01*
X123651963Y-95309037D02*
X123355400Y-95605600D01*
D34*
%TO.N,VBUS*%
X107619800Y-111353600D02*
X107619800Y-102352418D01*
X105130600Y-96945661D02*
X105220200Y-96856061D01*
X105220200Y-94704600D02*
X104419400Y-93903800D01*
X107619800Y-102352418D02*
X105130600Y-99863218D01*
X108432600Y-112166400D02*
X107619800Y-111353600D01*
X105220200Y-96856061D02*
X105220200Y-94704600D01*
X105130600Y-99863218D02*
X105130600Y-96945661D01*
D35*
%TO.N,Net-(Q1-S)*%
X111912400Y-119862600D02*
X111725000Y-120050000D01*
X111912400Y-118668800D02*
X111912400Y-119862600D01*
%TO.N,Net-(F2-Pad2)*%
X113825000Y-122000000D02*
X113825000Y-120750000D01*
X113825000Y-120750000D02*
X114525000Y-120050000D01*
D33*
%TO.N,/SPI0 SCLK*%
X124291800Y-111744200D02*
X121366671Y-111744200D01*
X120707400Y-112403471D02*
X120707400Y-113243000D01*
X120650000Y-114122200D02*
X120650000Y-113300400D01*
X124383800Y-111836200D02*
X124291800Y-111744200D01*
X120650000Y-113300400D02*
X120707400Y-113243000D01*
X121366671Y-111744200D02*
X120707400Y-112403471D01*
%TO.N,/SPI0 MOSI*%
X118567200Y-111963200D02*
X118567200Y-113183200D01*
X118567200Y-113183200D02*
X118507400Y-113243000D01*
%TO.N,/BRKOUT CS*%
X119563000Y-103281600D02*
X119563000Y-103022400D01*
X126141211Y-109859811D02*
X119563000Y-103281600D01*
D35*
%TO.N,/SWD PWR*%
X124600000Y-82475000D02*
X127605000Y-82475000D01*
X127605000Y-82475000D02*
X127660000Y-82420000D01*
D33*
%TO.N,/SWD*%
X126669800Y-90373200D02*
X129543000Y-87500000D01*
X129543000Y-87500000D02*
X130200000Y-87500000D01*
X126669800Y-95046800D02*
X126669800Y-90373200D01*
%TO.N,/RUN*%
X125259600Y-89839800D02*
X125259600Y-87360400D01*
X125044200Y-90055200D02*
X125259600Y-89839800D01*
X125360100Y-94538800D02*
X125044200Y-94222900D01*
X125044200Y-94222900D02*
X125044200Y-90055200D01*
X125259600Y-87360400D02*
X127660000Y-84960000D01*
D34*
%TO.N,/I2C PWR*%
X110150000Y-71460000D02*
X109829600Y-71780400D01*
X110150000Y-68625000D02*
X110150000Y-71460000D01*
D33*
%TO.N,/I2C1 SDA*%
X116453138Y-75062862D02*
X117475000Y-74041000D01*
X116453138Y-75387593D02*
X116453138Y-75062862D01*
X123063000Y-78460600D02*
X123063000Y-76250800D01*
X123469400Y-78867000D02*
X123063000Y-78460600D01*
D35*
%TO.N,/UART PWR*%
X126619000Y-101168200D02*
X129032000Y-98755200D01*
X126619000Y-103098600D02*
X126619000Y-101168200D01*
D33*
%TO.N,/BOOTSEL*%
X105063399Y-105473999D02*
X102998400Y-105473999D01*
X105173400Y-105584000D02*
X105063399Y-105473999D01*
%TO.N,/SD CS*%
X117164000Y-112999600D02*
X117407400Y-113243000D01*
X117164000Y-111981637D02*
X117164000Y-112999600D01*
%TO.N,/BUZZER*%
X116990400Y-102107507D02*
X116990400Y-101143293D01*
X108169800Y-102124601D02*
X108169800Y-102988200D01*
X115849400Y-80060800D02*
X114223800Y-81686400D01*
X106121200Y-100076000D02*
X108169800Y-102124601D01*
X108169800Y-102988200D02*
X108407200Y-103225600D01*
X116990400Y-101143293D02*
X119415500Y-98718193D01*
X119415500Y-98718193D02*
X119415500Y-98120200D01*
X119750000Y-67625000D02*
X115849400Y-71525600D01*
X115872307Y-103225600D02*
X116990400Y-102107507D01*
X108407200Y-103225600D02*
X115872307Y-103225600D01*
X111887000Y-85140800D02*
X106121200Y-90906600D01*
X111887000Y-84607400D02*
X111887000Y-85140800D01*
X106121200Y-90906600D02*
X106121200Y-100076000D01*
X115849400Y-71525600D02*
X115849400Y-80060800D01*
%TO.N,/P2 EN*%
X120878600Y-101346000D02*
X122930400Y-101346000D01*
X127527400Y-107461400D02*
X130378200Y-110312200D01*
X130378200Y-110312200D02*
X130378200Y-113614200D01*
X127527400Y-105943000D02*
X127527400Y-107461400D01*
X122930400Y-101346000D02*
X127527400Y-105943000D01*
D34*
%TO.N,Net-(Q2-D)*%
X126174000Y-119647200D02*
X126517400Y-119303800D01*
X126174000Y-119938800D02*
X126174000Y-119647200D01*
D33*
%TO.N,/P1 EN*%
X125427400Y-105943000D02*
X125427400Y-108543000D01*
X126144211Y-109259811D02*
X126404811Y-109259811D01*
X125755400Y-105943000D02*
X125427400Y-105943000D01*
X125755400Y-105743498D02*
X125755400Y-105943000D01*
X129667000Y-112522000D02*
X129667000Y-122732800D01*
X125427400Y-108543000D02*
X126144211Y-109259811D01*
X126404811Y-109259811D02*
X129667000Y-112522000D01*
D34*
%TO.N,Net-(Q3-D)*%
X125600000Y-127050000D02*
X125600000Y-127200200D01*
X125600000Y-127200200D02*
X126314200Y-127914400D01*
D33*
%TO.N,/P1 CONT*%
X124485400Y-122555000D02*
X124485400Y-121552400D01*
X103377015Y-130022600D02*
X107492800Y-130022600D01*
X108542089Y-128973311D02*
X108542089Y-127998489D01*
X107492800Y-130022600D02*
X108542089Y-128973311D01*
X101244400Y-95072200D02*
X101244400Y-127889985D01*
X124485400Y-121552400D02*
X124524000Y-121513800D01*
X102184200Y-90000898D02*
X102184200Y-94132400D01*
X101244400Y-127889985D02*
X103377015Y-130022600D01*
D34*
X124524000Y-121513800D02*
X124524000Y-119938800D01*
D33*
X102184200Y-94132400D02*
X101244400Y-95072200D01*
%TO.N,/P2 CONT*%
X101583500Y-89382600D02*
X101583500Y-93107500D01*
X103446329Y-130657600D02*
X106730800Y-130657600D01*
X100634800Y-94056200D02*
X100634800Y-127846071D01*
X100634800Y-127846071D02*
X103446329Y-130657600D01*
D34*
X123950000Y-125400001D02*
X123924999Y-125375000D01*
D33*
X101583500Y-93107500D02*
X100634800Y-94056200D01*
D34*
X123950000Y-127050000D02*
X123950000Y-125400001D01*
D33*
X122222000Y-128778000D02*
X123950000Y-127050000D01*
X116992400Y-128778000D02*
X122222000Y-128778000D01*
X116255800Y-128041400D02*
X116992400Y-128778000D01*
%TO.N,/BATT SENSE*%
X119826938Y-94233600D02*
X120868671Y-94233600D01*
X107955471Y-101057000D02*
X108169000Y-101057000D01*
X120868671Y-94233600D02*
X121011071Y-94091200D01*
X107518200Y-100619729D02*
X107955471Y-101057000D01*
X121508129Y-94091200D02*
X121631000Y-93968329D01*
X109499400Y-102387400D02*
X113512600Y-102387400D01*
X107518200Y-90449400D02*
X107518200Y-100619729D01*
X119370700Y-93648493D02*
X119370700Y-93777362D01*
X117703600Y-89204800D02*
X108762800Y-89204800D01*
X121631000Y-93132200D02*
X117703600Y-89204800D01*
X108762800Y-89204800D02*
X107518200Y-90449400D01*
X119370700Y-93777362D02*
X119826938Y-94233600D01*
X108169000Y-101057000D02*
X109499400Y-102387400D01*
X121011071Y-94091200D02*
X121508129Y-94091200D01*
%TO.N,/QSPI_SS*%
X105173400Y-108094400D02*
X105257600Y-108178600D01*
X113639600Y-101015800D02*
X113544800Y-101015800D01*
X113639600Y-101015800D02*
X114249200Y-101625400D01*
X105173400Y-107234000D02*
X105173400Y-108094400D01*
X113544800Y-101015800D02*
X111988600Y-99459600D01*
X114249200Y-101625400D02*
X116040400Y-101625400D01*
%TO.N,/MAG INT*%
X121386200Y-79385262D02*
X118043662Y-82727800D01*
X118043662Y-82727800D02*
X117957600Y-82727800D01*
X121386200Y-78435600D02*
X121386200Y-79385262D01*
X122199400Y-77622400D02*
X121386200Y-78435600D01*
%TO.N,/MAG DRDY*%
X122463000Y-76717600D02*
X122453400Y-76708000D01*
X123866200Y-76205471D02*
X123311529Y-75650800D01*
X125959600Y-87334054D02*
X127183654Y-86110000D01*
X122309475Y-98719670D02*
X123554903Y-99965097D01*
X128810000Y-80873886D02*
X130721000Y-78962886D01*
X127183654Y-86110000D02*
X128136346Y-86110000D01*
X129295600Y-76205471D02*
X123866200Y-76205471D01*
X123554903Y-99965097D02*
X125565600Y-97954400D01*
X128136346Y-86110000D02*
X128810000Y-85436346D01*
X125959600Y-95506138D02*
X125959600Y-87334054D01*
X130721000Y-76430871D02*
X130144129Y-75854000D01*
X122453400Y-76708000D02*
X122224800Y-76708000D01*
X122814471Y-75650800D02*
X122463000Y-76002271D01*
X122463000Y-76002271D02*
X122463000Y-76717600D01*
X128810000Y-85436346D02*
X128810000Y-80873886D01*
X125565600Y-97954400D02*
X125565600Y-95900138D01*
X125565600Y-95900138D02*
X125959600Y-95506138D01*
X130144129Y-75854000D02*
X129647071Y-75854000D01*
X123311529Y-75650800D02*
X122814471Y-75650800D01*
X130721000Y-78962886D02*
X130721000Y-76430871D01*
X129647071Y-75854000D02*
X129295600Y-76205471D01*
%TO.N,/BARO INT*%
X113588800Y-86334600D02*
X113588800Y-78409800D01*
X117297200Y-87604600D02*
X114858800Y-87604600D01*
X114858800Y-87604600D02*
X114630200Y-87376000D01*
X114630200Y-87376000D02*
X113588800Y-86334600D01*
%TO.N,/QSPI_SD1*%
X113995200Y-99618800D02*
X112736000Y-98359600D01*
X111063400Y-98359600D02*
X110718600Y-98704400D01*
X115112800Y-99618800D02*
X113995200Y-99618800D01*
X112736000Y-98359600D02*
X111063400Y-98359600D01*
X115366800Y-99872800D02*
X115112800Y-99618800D01*
X110718600Y-98704400D02*
X110718600Y-99459600D01*
%TO.N,/QSPI_SD2*%
X112908471Y-97729600D02*
X112740271Y-97561400D01*
X110210600Y-97561400D02*
X109448600Y-98323400D01*
X112740271Y-97561400D02*
X110210600Y-97561400D01*
X113974611Y-98750389D02*
X113974611Y-98298682D01*
X113405529Y-97729600D02*
X112908471Y-97729600D01*
X109448600Y-98323400D02*
X109448600Y-99459600D01*
X113974611Y-98298682D02*
X113405529Y-97729600D01*
%TO.N,/QSPI_SCLK*%
X109448600Y-92456000D02*
X109448600Y-92259600D01*
X113461800Y-96977200D02*
X113461800Y-96469200D01*
X113461800Y-96469200D02*
X109448600Y-92456000D01*
%TO.N,/GYRO INT3*%
X126007538Y-80075000D02*
X125380906Y-79448368D01*
X124953776Y-79448368D02*
X124588944Y-79813200D01*
X128442462Y-80075000D02*
X126007538Y-80075000D01*
X125380906Y-79448368D02*
X124953776Y-79448368D01*
X129921000Y-78596462D02*
X128442462Y-80075000D01*
X122270789Y-80583940D02*
X122270789Y-83002389D01*
X129844800Y-77901800D02*
X129921000Y-77978000D01*
X129809300Y-77053500D02*
X129844800Y-77089000D01*
X123041529Y-79813200D02*
X122270789Y-80583940D01*
X127812800Y-77053500D02*
X129809300Y-77053500D01*
X124588944Y-79813200D02*
X123041529Y-79813200D01*
X129921000Y-77978000D02*
X129921000Y-78596462D01*
X129844800Y-77089000D02*
X129844800Y-77901800D01*
%TO.N,/GYRO INT4*%
X130321000Y-78797200D02*
X128378000Y-80740200D01*
X130321000Y-77812315D02*
X130321000Y-78797200D01*
X121829389Y-83602389D02*
X121523452Y-83296452D01*
X122518611Y-83602389D02*
X121829389Y-83602389D01*
X124028200Y-80213200D02*
X123255871Y-80213200D01*
X125917400Y-80740200D02*
X125415800Y-80238600D01*
X125415800Y-80238600D02*
X124053600Y-80238600D01*
X129895600Y-76454000D02*
X130276600Y-76835000D01*
X122870789Y-80598282D02*
X122870789Y-83250211D01*
X128378000Y-80740200D02*
X125917400Y-80740200D01*
X122870789Y-83250211D02*
X122518611Y-83602389D01*
X130276600Y-76835000D02*
X130276600Y-77774800D01*
X123255871Y-80213200D02*
X122870789Y-80598282D01*
X121523452Y-83296452D02*
X121523452Y-82718327D01*
X124053600Y-80238600D02*
X124028200Y-80213200D01*
D35*
%TO.N,+12VA*%
X112250000Y-127950000D02*
X112175000Y-128025000D01*
X111150400Y-122047000D02*
X112203000Y-122047000D01*
X112175000Y-128025000D02*
X112175000Y-131775200D01*
X112203000Y-122047000D02*
X112250000Y-122000000D01*
X112250000Y-122000000D02*
X112250000Y-127950000D01*
%TD*%
%TA.AperFunction,Conductor*%
%TO.N,+1V1*%
G36*
X124450772Y-91970871D02*
G01*
X124499239Y-92021198D01*
X124513285Y-92076162D01*
X124581225Y-95579966D01*
X124562844Y-95647375D01*
X124510936Y-95694145D01*
X124476647Y-95704843D01*
X124448798Y-95709254D01*
X124379504Y-95700300D01*
X124326052Y-95655304D01*
X124305412Y-95588552D01*
X124305399Y-95586781D01*
X124305399Y-95434292D01*
X124305398Y-95434276D01*
X124295255Y-95334992D01*
X124241947Y-95174118D01*
X124241942Y-95174107D01*
X124152975Y-95029871D01*
X124152972Y-95029867D01*
X124033132Y-94910027D01*
X124033128Y-94910024D01*
X123888892Y-94821057D01*
X123888881Y-94821052D01*
X123728006Y-94767744D01*
X123628722Y-94757600D01*
X123605400Y-94757600D01*
X123605400Y-96707599D01*
X123628708Y-96707599D01*
X123628722Y-96707598D01*
X123728007Y-96697455D01*
X123888885Y-96644145D01*
X123904374Y-96634592D01*
X123971766Y-96616150D01*
X124036513Y-96635814D01*
X124133818Y-96698348D01*
X124132071Y-96701065D01*
X124172909Y-96736447D01*
X124179084Y-96747199D01*
X124180880Y-96750725D01*
X124180881Y-96750726D01*
X124242072Y-96870820D01*
X124242074Y-96870822D01*
X124242076Y-96870825D01*
X124337374Y-96966123D01*
X124337378Y-96966126D01*
X124337380Y-96966128D01*
X124457474Y-97027319D01*
X124457476Y-97027319D01*
X124457478Y-97027320D01*
X124507191Y-97035194D01*
X124570326Y-97065123D01*
X124607258Y-97124434D01*
X124611771Y-97155263D01*
X124636008Y-98405229D01*
X124617626Y-98472638D01*
X124599712Y-98495314D01*
X123642583Y-99452444D01*
X123581260Y-99485929D01*
X123511569Y-99480945D01*
X123467223Y-99452445D01*
X122848869Y-98834093D01*
X122815385Y-98772771D01*
X122813814Y-98728764D01*
X122815122Y-98719670D01*
X122794640Y-98577213D01*
X122734852Y-98446297D01*
X122640603Y-98337527D01*
X122519528Y-98259717D01*
X122519526Y-98259716D01*
X122519524Y-98259715D01*
X122519525Y-98259715D01*
X122381438Y-98219170D01*
X122381436Y-98219170D01*
X122237514Y-98219170D01*
X122237511Y-98219170D01*
X122099424Y-98259715D01*
X121978348Y-98337526D01*
X121884098Y-98446296D01*
X121884097Y-98446298D01*
X121824309Y-98577213D01*
X121803828Y-98719670D01*
X121824309Y-98862126D01*
X121869989Y-98962150D01*
X121884098Y-98993043D01*
X121978347Y-99101813D01*
X122099422Y-99179623D01*
X122099425Y-99179624D01*
X122099424Y-99179624D01*
X122206582Y-99211087D01*
X122234755Y-99219360D01*
X122237511Y-99220169D01*
X122237513Y-99220170D01*
X122333642Y-99220170D01*
X122400681Y-99239855D01*
X122421323Y-99256489D01*
X123300545Y-100135710D01*
X123313903Y-100153397D01*
X123319712Y-100160394D01*
X123319714Y-100160396D01*
X123319715Y-100160397D01*
X123319717Y-100160399D01*
X123350035Y-100185574D01*
X123354270Y-100189435D01*
X123362106Y-100197271D01*
X123362108Y-100197272D01*
X123362110Y-100197274D01*
X123371245Y-100203531D01*
X123375818Y-100206985D01*
X123406142Y-100232166D01*
X123406143Y-100232167D01*
X123406145Y-100232168D01*
X123406146Y-100232168D01*
X123414095Y-100236596D01*
X123423067Y-100241063D01*
X123431417Y-100244750D01*
X123431422Y-100244753D01*
X123469789Y-100253776D01*
X123475287Y-100255341D01*
X123512668Y-100267870D01*
X123512668Y-100267869D01*
X123512669Y-100267870D01*
X123521731Y-100269134D01*
X123531651Y-100270053D01*
X123540778Y-100270474D01*
X123540784Y-100270476D01*
X123579825Y-100265029D01*
X123585526Y-100264502D01*
X123600035Y-100263830D01*
X123624895Y-100262682D01*
X123624897Y-100262681D01*
X123624898Y-100262681D01*
X123633769Y-100260595D01*
X123643397Y-100257855D01*
X123652049Y-100254955D01*
X123652049Y-100254954D01*
X123652054Y-100254954D01*
X123686501Y-100235766D01*
X123691593Y-100233231D01*
X123727668Y-100217303D01*
X123727673Y-100217297D01*
X123735202Y-100212140D01*
X123743165Y-100206127D01*
X123750197Y-100200287D01*
X123750201Y-100200286D01*
X123775385Y-100169956D01*
X123779214Y-100165755D01*
X124447194Y-99497776D01*
X124508512Y-99464294D01*
X124578203Y-99469278D01*
X124634137Y-99511149D01*
X124658554Y-99576614D01*
X124658847Y-99583056D01*
X124686135Y-100990281D01*
X124667754Y-101057689D01*
X124615847Y-101104459D01*
X124561459Y-101116683D01*
X123162610Y-101108802D01*
X123098033Y-101090232D01*
X123091333Y-101086084D01*
X123084870Y-101083580D01*
X123059592Y-101070256D01*
X123053881Y-101066344D01*
X123053878Y-101066343D01*
X123053879Y-101066343D01*
X123023702Y-101059244D01*
X123015494Y-101056703D01*
X122986573Y-101045500D01*
X122979649Y-101045500D01*
X122951258Y-101042206D01*
X122944519Y-101040621D01*
X122913809Y-101044905D01*
X122905234Y-101045500D01*
X121419598Y-101045500D01*
X121352559Y-101025815D01*
X121306804Y-100973011D01*
X121296860Y-100903853D01*
X121325885Y-100840297D01*
X121352559Y-100817184D01*
X121356991Y-100814335D01*
X121356993Y-100814335D01*
X121478068Y-100736525D01*
X121572317Y-100627755D01*
X121632105Y-100496839D01*
X121652587Y-100354382D01*
X121632105Y-100211925D01*
X121572317Y-100081009D01*
X121572315Y-100081007D01*
X121572314Y-100081004D01*
X121559757Y-100066513D01*
X121530732Y-100002957D01*
X121540676Y-99933799D01*
X121542965Y-99929057D01*
X121563719Y-99888326D01*
X121563720Y-99888321D01*
X121579500Y-99788693D01*
X121579500Y-99271706D01*
X121563720Y-99172078D01*
X121563719Y-99172076D01*
X121563719Y-99172074D01*
X121502528Y-99051980D01*
X121502526Y-99051978D01*
X121502523Y-99051974D01*
X121407225Y-98956676D01*
X121407221Y-98956673D01*
X121407221Y-98956672D01*
X121407220Y-98956672D01*
X121287126Y-98895481D01*
X121287124Y-98895480D01*
X121287121Y-98895479D01*
X121187493Y-98879700D01*
X121187488Y-98879700D01*
X120620512Y-98879700D01*
X120620507Y-98879700D01*
X120520878Y-98895479D01*
X120400778Y-98956673D01*
X120400774Y-98956676D01*
X120305476Y-99051974D01*
X120305473Y-99051978D01*
X120244279Y-99172078D01*
X120228500Y-99271706D01*
X120228500Y-99788693D01*
X120244279Y-99888321D01*
X120244280Y-99888322D01*
X120244281Y-99888326D01*
X120305472Y-100008420D01*
X120305473Y-100008421D01*
X120305476Y-100008425D01*
X120400774Y-100103723D01*
X120400778Y-100103726D01*
X120400780Y-100103728D01*
X120520874Y-100164919D01*
X120534378Y-100167057D01*
X120597513Y-100196983D01*
X120620414Y-100224257D01*
X120628818Y-100237831D01*
X120647371Y-100305192D01*
X120646127Y-100320748D01*
X120641293Y-100354377D01*
X120641293Y-100354381D01*
X120661774Y-100496838D01*
X120721562Y-100627753D01*
X120721563Y-100627755D01*
X120762872Y-100675428D01*
X120791897Y-100738984D01*
X120781953Y-100808143D01*
X120736198Y-100860946D01*
X120704096Y-100875607D01*
X120668551Y-100886044D01*
X120668550Y-100886045D01*
X120547472Y-100963857D01*
X120547469Y-100963859D01*
X120472550Y-101050320D01*
X120413772Y-101088094D01*
X120378139Y-101093115D01*
X118238116Y-101081059D01*
X118171189Y-101060997D01*
X118151137Y-101044745D01*
X118128742Y-101022350D01*
X118050256Y-100982359D01*
X118015701Y-100964752D01*
X117921924Y-100949900D01*
X117921919Y-100949900D01*
X117908125Y-100949900D01*
X117841086Y-100930215D01*
X117795331Y-100877411D01*
X117785387Y-100808253D01*
X117814412Y-100744697D01*
X117820444Y-100738219D01*
X118253471Y-100305192D01*
X119583559Y-98975103D01*
X119590032Y-98969472D01*
X119599724Y-98962152D01*
X119599728Y-98962151D01*
X119631959Y-98926793D01*
X119633867Y-98924795D01*
X119647674Y-98910990D01*
X119649184Y-98908785D01*
X119654523Y-98902044D01*
X119660508Y-98895479D01*
X119675416Y-98879126D01*
X119677916Y-98872671D01*
X119691249Y-98847375D01*
X119695156Y-98841674D01*
X119702257Y-98811478D01*
X119704792Y-98803294D01*
X119716000Y-98774366D01*
X119716000Y-98767440D01*
X119719294Y-98739049D01*
X119720879Y-98732312D01*
X119716595Y-98701607D01*
X119715999Y-98693029D01*
X119715999Y-98613174D01*
X119715999Y-98583936D01*
X119735684Y-98516900D01*
X119746286Y-98502736D01*
X119746624Y-98502345D01*
X119746628Y-98502343D01*
X119840877Y-98393573D01*
X119900665Y-98262657D01*
X119904110Y-98238693D01*
X120228500Y-98238693D01*
X120244279Y-98338321D01*
X120244280Y-98338324D01*
X120244281Y-98338326D01*
X120299296Y-98446298D01*
X120305473Y-98458421D01*
X120305476Y-98458425D01*
X120400774Y-98553723D01*
X120400778Y-98553726D01*
X120400780Y-98553728D01*
X120520874Y-98614919D01*
X120520876Y-98614919D01*
X120520878Y-98614920D01*
X120620507Y-98630700D01*
X120620512Y-98630700D01*
X121187493Y-98630700D01*
X121287121Y-98614920D01*
X121287121Y-98614919D01*
X121287126Y-98614919D01*
X121407220Y-98553728D01*
X121502528Y-98458420D01*
X121563719Y-98338326D01*
X121575704Y-98262657D01*
X121579500Y-98238693D01*
X121579500Y-97721706D01*
X121563720Y-97622078D01*
X121563719Y-97622076D01*
X121563719Y-97622074D01*
X121502528Y-97501980D01*
X121502526Y-97501978D01*
X121502523Y-97501974D01*
X121418546Y-97417997D01*
X121385061Y-97356674D01*
X121383490Y-97312666D01*
X121384247Y-97307401D01*
X121377740Y-97262146D01*
X121363765Y-97164943D01*
X121303977Y-97034027D01*
X121209728Y-96925257D01*
X121088653Y-96847447D01*
X121088651Y-96847446D01*
X121088649Y-96847445D01*
X121088650Y-96847445D01*
X120950563Y-96806900D01*
X120950561Y-96806900D01*
X120806639Y-96806900D01*
X120806636Y-96806900D01*
X120668549Y-96847445D01*
X120547473Y-96925256D01*
X120453223Y-97034026D01*
X120453222Y-97034028D01*
X120393434Y-97164943D01*
X120372953Y-97307400D01*
X120380096Y-97357084D01*
X120370152Y-97426243D01*
X120345041Y-97462409D01*
X120305473Y-97501978D01*
X120244279Y-97622078D01*
X120228500Y-97721706D01*
X120228500Y-98238693D01*
X119904110Y-98238693D01*
X119921147Y-98120200D01*
X119900665Y-97977743D01*
X119840877Y-97846827D01*
X119746628Y-97738057D01*
X119625553Y-97660247D01*
X119625551Y-97660246D01*
X119625549Y-97660245D01*
X119625550Y-97660245D01*
X119487463Y-97619700D01*
X119487461Y-97619700D01*
X119343539Y-97619700D01*
X119343536Y-97619700D01*
X119205449Y-97660245D01*
X119084373Y-97738056D01*
X118990123Y-97846826D01*
X118990122Y-97846828D01*
X118930334Y-97977743D01*
X118909853Y-98120199D01*
X118930334Y-98262656D01*
X118953290Y-98312921D01*
X118990123Y-98393573D01*
X119035808Y-98446297D01*
X119065410Y-98480459D01*
X119094435Y-98544015D01*
X119084491Y-98613174D01*
X119059378Y-98649343D01*
X118235181Y-99473540D01*
X118173858Y-99507025D01*
X118104166Y-99502041D01*
X118048233Y-99460169D01*
X118023816Y-99394705D01*
X118023500Y-99385859D01*
X118023500Y-99318300D01*
X118023500Y-99246312D01*
X118007719Y-99146674D01*
X117946528Y-99026580D01*
X117946526Y-99026578D01*
X117946523Y-99026574D01*
X117851225Y-98931276D01*
X117851221Y-98931273D01*
X117851220Y-98931272D01*
X117731126Y-98870081D01*
X117731124Y-98870080D01*
X117731121Y-98870079D01*
X117631493Y-98854300D01*
X117631488Y-98854300D01*
X117064512Y-98854300D01*
X117064507Y-98854300D01*
X116964878Y-98870079D01*
X116844778Y-98931273D01*
X116844774Y-98931276D01*
X116749476Y-99026574D01*
X116749473Y-99026578D01*
X116688279Y-99146678D01*
X116672500Y-99246306D01*
X116672500Y-99763292D01*
X116679242Y-99805858D01*
X116670288Y-99875152D01*
X116669563Y-99876769D01*
X116608834Y-100009743D01*
X116588353Y-100152199D01*
X116608834Y-100294656D01*
X116640392Y-100363756D01*
X116668623Y-100425573D01*
X116762872Y-100534343D01*
X116883937Y-100612147D01*
X116929691Y-100664949D01*
X116939635Y-100734107D01*
X116910610Y-100797663D01*
X116904578Y-100804142D01*
X116822348Y-100886373D01*
X116815864Y-100892015D01*
X116806168Y-100899337D01*
X116773959Y-100934667D01*
X116771985Y-100936735D01*
X116758227Y-100950493D01*
X116758222Y-100950499D01*
X116756706Y-100952713D01*
X116751376Y-100959441D01*
X116730483Y-100982359D01*
X116730483Y-100982360D01*
X116727978Y-100988826D01*
X116714659Y-101014095D01*
X116712018Y-101017951D01*
X116657895Y-101062138D01*
X116609016Y-101071880D01*
X116578769Y-101071710D01*
X116511841Y-101051649D01*
X116491783Y-101035391D01*
X116478746Y-101022353D01*
X116478744Y-101022352D01*
X116478742Y-101022350D01*
X116400256Y-100982359D01*
X116365701Y-100964752D01*
X116271924Y-100949900D01*
X115808877Y-100949900D01*
X115805100Y-100950499D01*
X115735807Y-100941538D01*
X115682359Y-100896538D01*
X115661821Y-100833215D01*
X115642151Y-100363756D01*
X115659012Y-100295953D01*
X115691957Y-100261601D01*
X115691223Y-100260753D01*
X115697920Y-100254947D01*
X115697928Y-100254943D01*
X115792177Y-100146173D01*
X115851965Y-100015257D01*
X115872447Y-99872800D01*
X115851965Y-99730343D01*
X115792177Y-99599427D01*
X115697928Y-99490657D01*
X115690571Y-99485929D01*
X115657169Y-99464462D01*
X115611414Y-99411658D01*
X115600318Y-99365338D01*
X115589276Y-99101813D01*
X115528559Y-97652685D01*
X115481942Y-96540091D01*
X115498803Y-96472286D01*
X115549645Y-96424361D01*
X115605833Y-96410900D01*
X115619862Y-96410900D01*
X115619862Y-96410899D01*
X115757950Y-96370354D01*
X115757951Y-96370354D01*
X115757953Y-96370353D01*
X115872439Y-96296777D01*
X115939476Y-96277093D01*
X116006516Y-96296777D01*
X116012360Y-96300773D01*
X116019178Y-96305726D01*
X116019180Y-96305728D01*
X116139274Y-96366919D01*
X116139276Y-96366919D01*
X116139278Y-96366920D01*
X116238907Y-96382700D01*
X116238912Y-96382700D01*
X116755893Y-96382700D01*
X116855521Y-96366920D01*
X116855521Y-96366919D01*
X116855526Y-96366919D01*
X116975620Y-96305728D01*
X116984571Y-96296777D01*
X117000430Y-96280919D01*
X117061753Y-96247434D01*
X117088111Y-96244600D01*
X117669199Y-96244600D01*
X117669199Y-95774289D01*
X117670460Y-95756652D01*
X117677996Y-95704239D01*
X117670460Y-95651826D01*
X117669199Y-95634187D01*
X117669199Y-95519599D01*
X117632879Y-95483280D01*
X117634811Y-95481347D01*
X117605145Y-95447111D01*
X117597726Y-95430866D01*
X117503477Y-95322096D01*
X117385998Y-95246597D01*
X117340244Y-95193794D01*
X117330300Y-95124635D01*
X117359325Y-95061079D01*
X117387941Y-95036743D01*
X117479333Y-94980371D01*
X117599173Y-94860531D01*
X117661206Y-94759960D01*
X117713154Y-94713235D01*
X117782116Y-94702012D01*
X117846199Y-94729856D01*
X117854426Y-94737375D01*
X117873374Y-94756323D01*
X117873378Y-94756326D01*
X117873380Y-94756328D01*
X117993474Y-94817519D01*
X118015249Y-94820967D01*
X118078384Y-94850895D01*
X118108647Y-94891929D01*
X118141822Y-94964571D01*
X118141823Y-94964573D01*
X118236072Y-95073343D01*
X118357147Y-95151153D01*
X118357150Y-95151154D01*
X118357149Y-95151154D01*
X118445737Y-95177165D01*
X118483952Y-95188386D01*
X118495236Y-95191699D01*
X118495238Y-95191700D01*
X118495239Y-95191700D01*
X118639162Y-95191700D01*
X118639162Y-95191699D01*
X118777253Y-95151153D01*
X118898328Y-95073343D01*
X118992577Y-94964573D01*
X119052365Y-94833657D01*
X119072847Y-94691200D01*
X119052365Y-94548743D01*
X119030659Y-94501214D01*
X119013306Y-94463216D01*
X119002100Y-94411704D01*
X119002100Y-94227537D01*
X119021785Y-94160498D01*
X119074589Y-94114743D01*
X119143747Y-94104799D01*
X119161034Y-94108560D01*
X119294733Y-94147817D01*
X119347480Y-94179113D01*
X119570016Y-94401649D01*
X119575659Y-94408133D01*
X119582979Y-94417826D01*
X119582980Y-94417828D01*
X119595073Y-94428852D01*
X119618313Y-94450039D01*
X119620361Y-94451994D01*
X119634141Y-94465774D01*
X119636357Y-94467292D01*
X119643081Y-94472618D01*
X119651804Y-94480570D01*
X119655353Y-94483806D01*
X119691629Y-94543521D01*
X119689863Y-94613368D01*
X119687742Y-94618512D01*
X119685480Y-94625475D01*
X119669700Y-94725106D01*
X119669700Y-95242093D01*
X119685479Y-95341723D01*
X119685480Y-95341724D01*
X119711458Y-95392710D01*
X119724353Y-95461379D01*
X119713768Y-95500511D01*
X119707636Y-95513938D01*
X119707634Y-95513943D01*
X119687153Y-95656400D01*
X119687153Y-95656402D01*
X119687973Y-95662106D01*
X119678029Y-95731264D01*
X119632273Y-95784067D01*
X119616752Y-95792543D01*
X119616737Y-95792549D01*
X119606053Y-95799416D01*
X119539014Y-95819100D01*
X119210707Y-95819100D01*
X119111078Y-95834879D01*
X118990978Y-95896073D01*
X118972025Y-95915026D01*
X118910701Y-95948510D01*
X118841009Y-95943524D01*
X118785076Y-95901652D01*
X118778806Y-95892440D01*
X118716771Y-95791866D01*
X118596932Y-95672027D01*
X118596928Y-95672024D01*
X118452692Y-95583057D01*
X118452681Y-95583052D01*
X118291806Y-95529744D01*
X118192522Y-95519600D01*
X118169200Y-95519600D01*
X118169200Y-96620600D01*
X118149515Y-96687639D01*
X118096711Y-96733394D01*
X118045200Y-96744600D01*
X116969201Y-96744600D01*
X116969201Y-96792922D01*
X116979344Y-96892207D01*
X117032652Y-97053081D01*
X117032657Y-97053092D01*
X117078917Y-97128090D01*
X117097358Y-97195482D01*
X117076436Y-97262146D01*
X117022794Y-97306915D01*
X116992780Y-97315660D01*
X116964877Y-97320080D01*
X116964875Y-97320080D01*
X116964874Y-97320081D01*
X116892252Y-97357084D01*
X116844778Y-97381273D01*
X116844774Y-97381276D01*
X116749476Y-97476574D01*
X116749473Y-97476578D01*
X116688279Y-97596678D01*
X116672500Y-97696306D01*
X116672500Y-98213293D01*
X116688279Y-98312921D01*
X116688280Y-98312924D01*
X116688281Y-98312926D01*
X116729373Y-98393573D01*
X116749473Y-98433021D01*
X116749476Y-98433025D01*
X116844774Y-98528323D01*
X116844778Y-98528326D01*
X116844780Y-98528328D01*
X116964874Y-98589519D01*
X116964876Y-98589519D01*
X116964878Y-98589520D01*
X117064507Y-98605300D01*
X117064512Y-98605300D01*
X117631493Y-98605300D01*
X117731121Y-98589520D01*
X117731121Y-98589519D01*
X117731126Y-98589519D01*
X117827601Y-98540362D01*
X117896267Y-98527467D01*
X117918828Y-98531871D01*
X117961838Y-98544500D01*
X117961839Y-98544500D01*
X118105762Y-98544500D01*
X118105762Y-98544499D01*
X118243853Y-98503953D01*
X118364928Y-98426143D01*
X118459177Y-98317373D01*
X118518965Y-98186457D01*
X118539447Y-98044000D01*
X118518965Y-97901543D01*
X118459177Y-97770627D01*
X118364928Y-97661857D01*
X118350655Y-97652684D01*
X118304902Y-97599880D01*
X118294959Y-97530722D01*
X118323985Y-97467166D01*
X118378694Y-97430664D01*
X118452679Y-97406148D01*
X118452692Y-97406142D01*
X118596928Y-97317175D01*
X118596932Y-97317172D01*
X118716773Y-97197331D01*
X118778806Y-97096760D01*
X118830754Y-97050035D01*
X118899716Y-97038812D01*
X118963799Y-97066656D01*
X118972026Y-97074175D01*
X118990974Y-97093123D01*
X118990978Y-97093126D01*
X118990980Y-97093128D01*
X119111074Y-97154319D01*
X119111076Y-97154319D01*
X119111078Y-97154320D01*
X119210707Y-97170100D01*
X119210712Y-97170100D01*
X119727693Y-97170100D01*
X119827321Y-97154320D01*
X119827321Y-97154319D01*
X119827326Y-97154319D01*
X119947420Y-97093128D01*
X120042728Y-96997820D01*
X120103919Y-96877726D01*
X120119700Y-96778088D01*
X120119700Y-96724388D01*
X120139385Y-96657350D01*
X120152761Y-96641915D01*
X120152108Y-96641349D01*
X120157914Y-96634648D01*
X120157916Y-96634647D01*
X120252165Y-96525877D01*
X120311953Y-96394961D01*
X120332435Y-96252504D01*
X120331615Y-96246803D01*
X120341555Y-96177646D01*
X120387308Y-96124840D01*
X120402847Y-96116355D01*
X120402847Y-96116354D01*
X120402853Y-96116353D01*
X120502575Y-96052265D01*
X120569613Y-96032581D01*
X120636652Y-96052265D01*
X120682407Y-96105069D01*
X120692351Y-96138934D01*
X120698234Y-96179856D01*
X120753016Y-96299810D01*
X120758023Y-96310773D01*
X120852272Y-96419543D01*
X120973347Y-96497353D01*
X120973350Y-96497354D01*
X120973349Y-96497354D01*
X121111436Y-96537899D01*
X121111438Y-96537900D01*
X121111439Y-96537900D01*
X121255362Y-96537900D01*
X121255362Y-96537899D01*
X121393453Y-96497353D01*
X121501704Y-96427784D01*
X121568744Y-96408100D01*
X122063893Y-96408100D01*
X122163521Y-96392320D01*
X122163521Y-96392319D01*
X122163526Y-96392319D01*
X122283620Y-96331128D01*
X122302573Y-96312174D01*
X122363894Y-96278690D01*
X122433585Y-96283673D01*
X122489520Y-96325544D01*
X122495792Y-96334759D01*
X122551297Y-96424746D01*
X122569738Y-96492138D01*
X122548816Y-96558802D01*
X122495174Y-96603571D01*
X122480694Y-96608820D01*
X122446549Y-96618845D01*
X122325473Y-96696656D01*
X122325472Y-96696656D01*
X122325472Y-96696657D01*
X122316031Y-96707553D01*
X122231223Y-96805426D01*
X122231222Y-96805428D01*
X122171434Y-96936343D01*
X122150953Y-97078799D01*
X122171434Y-97221256D01*
X122214548Y-97315660D01*
X122231223Y-97352173D01*
X122325472Y-97460943D01*
X122446547Y-97538753D01*
X122446550Y-97538754D01*
X122446549Y-97538754D01*
X122584636Y-97579299D01*
X122584638Y-97579300D01*
X122584639Y-97579300D01*
X122728562Y-97579300D01*
X122728562Y-97579299D01*
X122866653Y-97538753D01*
X122987728Y-97460943D01*
X123081977Y-97352173D01*
X123141765Y-97221257D01*
X123162247Y-97078800D01*
X123141765Y-96936343D01*
X123094415Y-96832662D01*
X123084471Y-96763503D01*
X123105399Y-96717677D01*
X123105400Y-95982600D01*
X123105399Y-94757599D01*
X123082093Y-94757600D01*
X123082074Y-94757601D01*
X122982792Y-94767744D01*
X122821918Y-94821052D01*
X122821907Y-94821057D01*
X122677671Y-94910024D01*
X122677667Y-94910027D01*
X122557826Y-95029868D01*
X122495792Y-95130441D01*
X122443844Y-95177165D01*
X122374881Y-95188386D01*
X122310799Y-95160543D01*
X122302573Y-95153024D01*
X122283625Y-95134076D01*
X122283621Y-95134073D01*
X122283620Y-95134072D01*
X122163526Y-95072881D01*
X122163524Y-95072880D01*
X122163521Y-95072879D01*
X122063893Y-95057100D01*
X122063888Y-95057100D01*
X121835669Y-95057100D01*
X121768630Y-95037415D01*
X121722875Y-94984611D01*
X121712931Y-94915453D01*
X121722875Y-94881588D01*
X121732491Y-94860533D01*
X121744765Y-94833657D01*
X121765247Y-94691200D01*
X121744765Y-94548743D01*
X121697995Y-94446332D01*
X121688051Y-94377173D01*
X121711832Y-94320098D01*
X121732375Y-94292892D01*
X121732771Y-94292367D01*
X121738395Y-94285903D01*
X121799059Y-94225239D01*
X121805532Y-94219608D01*
X121815224Y-94212288D01*
X121815228Y-94212287D01*
X121847459Y-94176929D01*
X121849367Y-94174931D01*
X121863174Y-94161126D01*
X121864684Y-94158921D01*
X121870023Y-94152180D01*
X121874000Y-94147817D01*
X121890916Y-94129262D01*
X121893417Y-94122805D01*
X121906750Y-94097513D01*
X121910657Y-94091810D01*
X121917757Y-94061623D01*
X121920296Y-94053421D01*
X121931500Y-94024502D01*
X121931500Y-94017576D01*
X121934794Y-93989185D01*
X121936379Y-93982448D01*
X121932095Y-93951737D01*
X121931500Y-93943162D01*
X121931500Y-93195038D01*
X121932095Y-93186462D01*
X121933771Y-93174439D01*
X121933773Y-93174435D01*
X121931566Y-93126690D01*
X121931500Y-93123827D01*
X121931500Y-93104359D01*
X121931499Y-93104353D01*
X121931009Y-93101733D01*
X121930016Y-93093180D01*
X121929198Y-93075480D01*
X121928585Y-93062208D01*
X121925786Y-93055870D01*
X121917333Y-93028573D01*
X121916061Y-93021767D01*
X121899740Y-92995407D01*
X121895734Y-92987808D01*
X121883206Y-92959434D01*
X121878309Y-92954537D01*
X121860561Y-92932131D01*
X121859668Y-92930688D01*
X121856919Y-92926248D01*
X121832175Y-92907562D01*
X121825692Y-92901920D01*
X121108853Y-92185081D01*
X121075368Y-92123758D01*
X121080352Y-92054066D01*
X121122224Y-91998133D01*
X121187688Y-91973716D01*
X121196534Y-91973400D01*
X124028187Y-91973400D01*
X124028200Y-91973400D01*
X124382792Y-91954737D01*
X124450772Y-91970871D01*
G37*
%TD.AperFunction*%
%TD*%
%TA.AperFunction,Conductor*%
%TO.N,+12VA*%
G36*
X109705620Y-129254885D02*
G01*
X109726257Y-129271514D01*
X109821433Y-129366690D01*
X109886347Y-129417546D01*
X109921743Y-129445277D01*
X110049241Y-129502660D01*
X110102295Y-129548124D01*
X110122347Y-129615055D01*
X110103031Y-129682201D01*
X110068798Y-129717778D01*
X110063758Y-129721257D01*
X109936416Y-129834072D01*
X109839782Y-129974068D01*
X109779460Y-130133125D01*
X109779459Y-130133130D01*
X109758955Y-130302000D01*
X109779459Y-130470869D01*
X109779460Y-130470874D01*
X109839782Y-130629931D01*
X109858881Y-130657600D01*
X109936417Y-130769929D01*
X109970425Y-130800057D01*
X110063750Y-130882736D01*
X110214373Y-130961789D01*
X110214375Y-130961790D01*
X110379544Y-131002500D01*
X110549656Y-131002500D01*
X110714825Y-130961790D01*
X110794292Y-130920081D01*
X110865449Y-130882736D01*
X110865450Y-130882734D01*
X110865452Y-130882734D01*
X110992783Y-130769929D01*
X111089418Y-130629930D01*
X111098190Y-130606800D01*
X113086355Y-130606800D01*
X113106859Y-130775669D01*
X113106860Y-130775674D01*
X113167182Y-130934731D01*
X113229475Y-131024977D01*
X113263817Y-131074729D01*
X113357924Y-131158100D01*
X113391150Y-131187536D01*
X113541773Y-131266589D01*
X113541775Y-131266590D01*
X113706944Y-131307300D01*
X113877056Y-131307300D01*
X114042225Y-131266590D01*
X114131249Y-131219866D01*
X114192849Y-131187536D01*
X114192850Y-131187534D01*
X114192852Y-131187534D01*
X114320183Y-131074729D01*
X114416818Y-130934730D01*
X114477140Y-130775672D01*
X114497645Y-130606800D01*
X114477140Y-130437928D01*
X114416818Y-130278870D01*
X114410637Y-130269916D01*
X114374311Y-130217288D01*
X114320183Y-130138871D01*
X114192852Y-130026066D01*
X114192849Y-130026063D01*
X114042226Y-129947010D01*
X113877056Y-129906300D01*
X113706944Y-129906300D01*
X113541773Y-129947010D01*
X113391150Y-130026063D01*
X113263816Y-130138872D01*
X113167182Y-130278868D01*
X113106860Y-130437925D01*
X113106859Y-130437930D01*
X113086355Y-130606800D01*
X111098190Y-130606800D01*
X111149740Y-130470872D01*
X111170245Y-130302000D01*
X111149740Y-130133128D01*
X111139550Y-130106260D01*
X111089417Y-129974068D01*
X111028859Y-129886336D01*
X110992783Y-129834071D01*
X110897916Y-129750026D01*
X110865449Y-129721263D01*
X110714827Y-129642210D01*
X110707955Y-129639604D01*
X110652255Y-129597423D01*
X110628201Y-129531825D01*
X110643431Y-129463635D01*
X110687785Y-129417546D01*
X110721981Y-129396874D01*
X110721985Y-129396871D01*
X110847338Y-129271519D01*
X110908661Y-129238034D01*
X110935019Y-129235200D01*
X111739299Y-129235200D01*
X111765396Y-129239416D01*
X111765681Y-129238089D01*
X111772298Y-129239505D01*
X111875019Y-129249999D01*
X111924999Y-129249998D01*
X111925000Y-129249998D01*
X111925000Y-129235200D01*
X112425000Y-129235200D01*
X112425000Y-129249999D01*
X112474972Y-129249999D01*
X112474986Y-129249998D01*
X112577696Y-129239505D01*
X112584321Y-129238088D01*
X112584605Y-129239415D01*
X112610701Y-129235200D01*
X130332087Y-129235200D01*
X130399126Y-129254885D01*
X130444881Y-129307689D01*
X130456075Y-129357502D01*
X130515465Y-133693004D01*
X130496701Y-133760306D01*
X130479158Y-133782383D01*
X130432566Y-133828975D01*
X130429840Y-133831542D01*
X130383418Y-133872668D01*
X130348186Y-133923709D01*
X130345968Y-133926724D01*
X130307724Y-133975539D01*
X130307719Y-133975548D01*
X130303560Y-133984788D01*
X130292542Y-134004323D01*
X130286787Y-134012661D01*
X130286783Y-134012667D01*
X130286782Y-134012670D01*
X130286780Y-134012674D01*
X130286779Y-134012677D01*
X130264789Y-134070655D01*
X130263357Y-134074113D01*
X130237905Y-134130668D01*
X130236077Y-134140642D01*
X130230053Y-134162253D01*
X130226460Y-134171727D01*
X130226459Y-134171728D01*
X130218984Y-134233285D01*
X130218421Y-134236986D01*
X130207242Y-134297989D01*
X130207241Y-134298002D01*
X130207853Y-134308119D01*
X130207176Y-134330538D01*
X130205955Y-134340599D01*
X130205955Y-134340601D01*
X130213429Y-134402160D01*
X130213768Y-134405889D01*
X130215828Y-134439930D01*
X130217514Y-134467796D01*
X130220529Y-134477472D01*
X130225238Y-134499409D01*
X130226460Y-134509474D01*
X130248453Y-134567469D01*
X130249674Y-134571007D01*
X130268122Y-134630206D01*
X130273362Y-134638874D01*
X130283185Y-134659048D01*
X130286780Y-134668528D01*
X130294824Y-134680181D01*
X130322021Y-134719584D01*
X130324034Y-134722697D01*
X130356128Y-134775785D01*
X130363295Y-134782952D01*
X130377659Y-134800187D01*
X130383417Y-134808529D01*
X130383419Y-134808530D01*
X130383420Y-134808532D01*
X130387868Y-134812472D01*
X130429850Y-134849664D01*
X130432541Y-134852198D01*
X130459315Y-134878972D01*
X130476414Y-134896071D01*
X130482321Y-134900699D01*
X130480954Y-134902443D01*
X130520700Y-134945844D01*
X130533352Y-134998737D01*
X130554285Y-136526856D01*
X130535521Y-136594158D01*
X130483349Y-136640632D01*
X130430845Y-136652553D01*
X107692645Y-136753053D01*
X107625519Y-136733665D01*
X107579531Y-136681063D01*
X107568100Y-136629959D01*
X107558285Y-135280400D01*
X128250155Y-135280400D01*
X128270659Y-135449269D01*
X128270660Y-135449274D01*
X128330982Y-135608331D01*
X128393275Y-135698577D01*
X128427617Y-135748329D01*
X128533305Y-135841960D01*
X128554950Y-135861136D01*
X128705573Y-135940189D01*
X128705575Y-135940190D01*
X128870744Y-135980900D01*
X129040856Y-135980900D01*
X129206025Y-135940190D01*
X129285492Y-135898481D01*
X129356649Y-135861136D01*
X129356650Y-135861134D01*
X129356652Y-135861134D01*
X129483983Y-135748329D01*
X129580618Y-135608330D01*
X129640940Y-135449272D01*
X129661445Y-135280400D01*
X129640940Y-135111528D01*
X129580618Y-134952470D01*
X129576044Y-134945844D01*
X129541688Y-134896071D01*
X129483983Y-134812471D01*
X129356652Y-134699666D01*
X129356649Y-134699663D01*
X129206026Y-134620610D01*
X129040856Y-134579900D01*
X128870744Y-134579900D01*
X128705573Y-134620610D01*
X128554950Y-134699663D01*
X128427616Y-134812472D01*
X128330982Y-134952468D01*
X128270660Y-135111525D01*
X128270659Y-135111530D01*
X128250155Y-135280400D01*
X107558285Y-135280400D01*
X107554744Y-134793497D01*
X107573941Y-134726319D01*
X107626411Y-134680181D01*
X107695495Y-134669735D01*
X107749181Y-134690548D01*
X107752346Y-134692732D01*
X107752348Y-134692734D01*
X107902975Y-134771790D01*
X108068144Y-134812500D01*
X108238256Y-134812500D01*
X108403425Y-134771790D01*
X108502923Y-134719569D01*
X108554049Y-134692736D01*
X108554050Y-134692734D01*
X108554052Y-134692734D01*
X108681383Y-134579929D01*
X108778018Y-134439930D01*
X108838340Y-134280872D01*
X108858845Y-134112000D01*
X108838340Y-133943128D01*
X108830975Y-133923709D01*
X108815457Y-133882789D01*
X108778018Y-133784070D01*
X108769065Y-133771100D01*
X108713727Y-133690929D01*
X108681383Y-133644071D01*
X108576248Y-133550930D01*
X108554049Y-133531263D01*
X108403426Y-133452210D01*
X108238256Y-133411500D01*
X108068144Y-133411500D01*
X107902973Y-133452210D01*
X107752349Y-133531264D01*
X107752347Y-133531266D01*
X107751125Y-133532349D01*
X107750039Y-133532859D01*
X107746176Y-133535526D01*
X107745732Y-133534883D01*
X107687891Y-133562068D01*
X107618628Y-133552883D01*
X107565326Y-133507709D01*
X107544908Y-133440889D01*
X107544904Y-133440433D01*
X107544551Y-133391869D01*
X107542214Y-133070600D01*
X114153155Y-133070600D01*
X114173659Y-133239469D01*
X114173660Y-133239474D01*
X114233982Y-133398531D01*
X114271035Y-133452210D01*
X114330617Y-133538529D01*
X114436305Y-133632160D01*
X114457950Y-133651336D01*
X114608573Y-133730389D01*
X114608575Y-133730390D01*
X114773744Y-133771100D01*
X114943856Y-133771100D01*
X115109025Y-133730390D01*
X115188492Y-133688681D01*
X115259649Y-133651336D01*
X115259650Y-133651334D01*
X115259652Y-133651334D01*
X115386983Y-133538529D01*
X115483618Y-133398530D01*
X115543940Y-133239472D01*
X115545940Y-133223000D01*
X115829555Y-133223000D01*
X115850059Y-133391869D01*
X115850060Y-133391874D01*
X115910382Y-133550931D01*
X115972675Y-133641177D01*
X116007017Y-133690929D01*
X116085328Y-133760306D01*
X116134350Y-133803736D01*
X116265689Y-133872668D01*
X116284975Y-133882790D01*
X116450144Y-133923500D01*
X116620256Y-133923500D01*
X116785425Y-133882790D01*
X116887960Y-133828975D01*
X116936049Y-133803736D01*
X116936050Y-133803734D01*
X116936052Y-133803734D01*
X117063383Y-133690929D01*
X117160018Y-133550930D01*
X117220340Y-133391872D01*
X117240845Y-133223000D01*
X117220340Y-133054128D01*
X117160018Y-132895070D01*
X117063383Y-132755071D01*
X116936052Y-132642266D01*
X116936049Y-132642263D01*
X116785426Y-132563210D01*
X116620256Y-132522500D01*
X116450144Y-132522500D01*
X116284973Y-132563210D01*
X116134350Y-132642263D01*
X116007016Y-132755072D01*
X115910382Y-132895068D01*
X115850060Y-133054125D01*
X115850059Y-133054130D01*
X115829555Y-133223000D01*
X115545940Y-133223000D01*
X115564445Y-133070600D01*
X115543940Y-132901728D01*
X115483618Y-132742670D01*
X115386983Y-132602671D01*
X115259652Y-132489866D01*
X115259649Y-132489863D01*
X115109026Y-132410810D01*
X114943856Y-132370100D01*
X114773744Y-132370100D01*
X114608573Y-132410810D01*
X114457950Y-132489863D01*
X114330616Y-132602672D01*
X114233982Y-132742668D01*
X114173660Y-132901725D01*
X114173659Y-132901730D01*
X114153155Y-133070600D01*
X107542214Y-133070600D01*
X107535747Y-132181440D01*
X107554944Y-132114263D01*
X107607414Y-132068125D01*
X107676498Y-132057679D01*
X107740263Y-132086241D01*
X107761793Y-132110099D01*
X107853617Y-132243129D01*
X107882288Y-132268529D01*
X107980950Y-132355936D01*
X108085504Y-132410810D01*
X108131575Y-132434990D01*
X108296744Y-132475700D01*
X108466856Y-132475700D01*
X108632025Y-132434990D01*
X108734257Y-132381334D01*
X108782649Y-132355936D01*
X108782650Y-132355934D01*
X108782652Y-132355934D01*
X108909983Y-132243129D01*
X109006618Y-132103130D01*
X109066940Y-131944072D01*
X109087445Y-131775200D01*
X109066940Y-131606328D01*
X109006618Y-131447270D01*
X108980412Y-131409305D01*
X108927515Y-131332671D01*
X108909983Y-131307271D01*
X108782652Y-131194466D01*
X108782649Y-131194463D01*
X108632026Y-131115410D01*
X108466856Y-131074700D01*
X108296744Y-131074700D01*
X108131573Y-131115410D01*
X107980950Y-131194463D01*
X107853618Y-131307270D01*
X107853617Y-131307271D01*
X107756982Y-131447270D01*
X107755960Y-131448751D01*
X107701677Y-131492741D01*
X107632228Y-131500400D01*
X107569663Y-131469296D01*
X107533846Y-131409305D01*
X107529913Y-131379216D01*
X107522970Y-130424596D01*
X107542167Y-130357419D01*
X107594637Y-130311281D01*
X107602175Y-130308071D01*
X107603228Y-130307661D01*
X107603233Y-130307661D01*
X107629597Y-130291336D01*
X107637192Y-130287333D01*
X107665565Y-130274806D01*
X107670461Y-130269909D01*
X107692869Y-130252161D01*
X107698752Y-130248519D01*
X107717449Y-130223758D01*
X107723066Y-130217303D01*
X108668851Y-129271519D01*
X108730174Y-129238034D01*
X108756532Y-129235200D01*
X109638581Y-129235200D01*
X109705620Y-129254885D01*
G37*
%TD.AperFunction*%
%TD*%
M02*
