%TF.GenerationSoftware,KiCad,Pcbnew,8.0.0*%
%TF.CreationDate,2024-04-08T20:47:09-07:00*%
%TF.ProjectId,screw switch,73637265-7720-4737-9769-7463682e6b69,rev?*%
%TF.SameCoordinates,Original*%
%TF.FileFunction,Legend,Top*%
%TF.FilePolarity,Positive*%
%FSLAX46Y46*%
G04 Gerber Fmt 4.6, Leading zero omitted, Abs format (unit mm)*
G04 Created by KiCad (PCBNEW 8.0.0) date 2024-04-08 20:47:09*
%MOMM*%
%LPD*%
G01*
G04 APERTURE LIST*
%ADD10C,0.120000*%
%ADD11O,1.000000X1.000000*%
%ADD12O,5.000000X4.000000*%
%ADD13R,1.700000X1.700000*%
%ADD14C,2.200000*%
G04 APERTURE END LIST*
D10*
%TO.C,J5*%
X-9530000Y2330000D02*
X-8200000Y2330000D01*
X-9530000Y1000000D02*
X-9530000Y2330000D01*
X-9530000Y-270000D02*
X-9530000Y-330000D01*
X-9530000Y-270000D02*
X-6870000Y-270000D01*
X-9530000Y-330000D02*
X-6870000Y-330000D01*
X-6870000Y-270000D02*
X-6870000Y-330000D01*
%TO.C,J6*%
X-9530000Y330000D02*
X-8200000Y330000D01*
X-9530000Y-1000000D02*
X-9530000Y330000D01*
X-9530000Y-2270000D02*
X-9530000Y-2330000D01*
X-9530000Y-2270000D02*
X-6870000Y-2270000D01*
X-9530000Y-2330000D02*
X-6870000Y-2330000D01*
X-6870000Y-2270000D02*
X-6870000Y-2330000D01*
%TO.C,J4*%
X6870000Y2330000D02*
X8200000Y2330000D01*
X6870000Y1000000D02*
X6870000Y2330000D01*
X6870000Y-270000D02*
X6870000Y-330000D01*
X6870000Y-270000D02*
X9530000Y-270000D01*
X6870000Y-330000D02*
X9530000Y-330000D01*
X9530000Y-270000D02*
X9530000Y-330000D01*
%TO.C,J3*%
X6870000Y330000D02*
X8200000Y330000D01*
X6870000Y-1000000D02*
X6870000Y330000D01*
X6870000Y-2270000D02*
X6870000Y-2330000D01*
X6870000Y-2270000D02*
X9530000Y-2270000D01*
X6870000Y-2330000D02*
X9530000Y-2330000D01*
X9530000Y-2270000D02*
X9530000Y-2330000D01*
%TD*%
%LPC*%
D11*
%TO.C,J7*%
X-4500000Y0D03*
D12*
X-4525400Y25400D03*
%TD*%
D11*
%TO.C,J2*%
X4500000Y0D03*
D12*
X4474600Y25400D03*
%TD*%
D13*
%TO.C,J5*%
X-8200000Y1000000D03*
%TD*%
%TO.C,J6*%
X-8200000Y-1000000D03*
%TD*%
D14*
%TO.C,H1*%
X0Y0D03*
%TD*%
D13*
%TO.C,J4*%
X8200000Y1000000D03*
%TD*%
%TO.C,J3*%
X8200000Y-1000000D03*
%TD*%
D11*
%TO.C,J8*%
X-4500000Y0D03*
%TD*%
%TO.C,J1*%
X4500000Y0D03*
%TD*%
%LPD*%
M02*
