<?xml version="1.0" standalone="no"?>
 <!DOCTYPE svg PUBLIC "-//W3C//DTD SVG 1.1//EN" 
 "http://www.w3.org/Graphics/SVG/1.1/DTD/svg11.dtd"> 
<svg
  xmlns:svg="http://www.w3.org/2000/svg"
  xmlns="http://www.w3.org/2000/svg"
  xmlns:xlink="http://www.w3.org/1999/xlink"
  version="1.1"
  width="49.2252mm" height="78.9940mm" viewBox="0.0000 0.0000 49.2252 78.9940">
<title>SVG Image created as lyra r1-B_Silkscreen.svg date 2023/08/15 13:53:48 </title>
  <desc>Image generated by PCBNEW </desc>
<g style="fill:#000000; fill-opacity:1.0000;stroke:#000000; stroke-opacity:1.0000;
stroke-linecap:round; stroke-linejoin:round;"
 transform="translate(0 0) scale(1 1)">
</g>
<g style="fill:#000000; fill-opacity:0.0; 
stroke:#000000; stroke-width:0.0000; stroke-opacity:1; 
stroke-linecap:round; stroke-linejoin:round;">
</g>
<g style="fill:#000000; fill-opacity:0.0; 
stroke:#000000; stroke-width:0.2500; stroke-opacity:1; 
stroke-linecap:round; stroke-linejoin:round;">
<g transform="rotate(-270.000000 35.5892 11.9720)">
<text x="35.5892" y="11.9720"
transform="scale(-1 1) translate(-71.178400 0)"
textLength="3.1869" font-size="1.3333" lengthAdjust="spacingAndGlyphs"
text-anchor="start" opacity="0">3V3</text>
</g>
<g class="stroked-text"><desc>3V3</desc>
<path d="M36.7246 11.6647
L36.7246 11.0456
" />
<path d="M36.7246 11.0456
L36.3436 11.3790
" />
<path d="M36.3436 11.3790
L36.3436 11.2361
" />
<path d="M36.3436 11.2361
L36.2960 11.1409
" />
<path d="M36.2960 11.1409
L36.2484 11.0932
" />
<path d="M36.2484 11.0932
L36.1532 11.0456
" />
<path d="M36.1532 11.0456
L35.9151 11.0456
" />
<path d="M35.9151 11.0456
L35.8198 11.0932
" />
<path d="M35.8198 11.0932
L35.7722 11.1409
" />
<path d="M35.7722 11.1409
L35.7246 11.2361
" />
<path d="M35.7246 11.2361
L35.7246 11.5218
" />
<path d="M35.7246 11.5218
L35.7722 11.6170
" />
<path d="M35.7722 11.6170
L35.8198 11.6647
" />
<path d="M36.7246 10.7599
L35.7246 10.4266
" />
<path d="M35.7246 10.4266
L36.7246 10.0932
" />
<path d="M36.7246 9.8551
L36.7246 9.2361
" />
<path d="M36.7246 9.2361
L36.3436 9.5694
" />
<path d="M36.3436 9.5694
L36.3436 9.4266
" />
<path d="M36.3436 9.4266
L36.2960 9.3313
" />
<path d="M36.2960 9.3313
L36.2484 9.2837
" />
<path d="M36.2484 9.2837
L36.1532 9.2361
" />
<path d="M36.1532 9.2361
L35.9151 9.2361
" />
<path d="M35.9151 9.2361
L35.8198 9.2837
" />
<path d="M35.8198 9.2837
L35.7722 9.3313
" />
<path d="M35.7722 9.3313
L35.7246 9.4266
" />
<path d="M35.7246 9.4266
L35.7246 9.7123
" />
<path d="M35.7246 9.7123
L35.7722 9.8075
" />
<path d="M35.7722 9.8075
L35.8198 9.8551
" />
</g><g transform="rotate(-270.000000 33.9792 11.9720)">
<text x="33.9792" y="11.9720"
transform="scale(-1 1) translate(-67.958400 0)"
textLength="7.9964" font-size="1.3333" lengthAdjust="spacingAndGlyphs"
text-anchor="start" opacity="0">UART PWR</text>
</g>
<g class="stroked-text"><desc>UART PWR</desc>
<path d="M35.1146 11.5694
L34.3051 11.5694
" />
<path d="M34.3051 11.5694
L34.2098 11.5218
" />
<path d="M34.2098 11.5218
L34.1622 11.4742
" />
<path d="M34.1622 11.4742
L34.1146 11.3790
" />
<path d="M34.1146 11.3790
L34.1146 11.1885
" />
<path d="M34.1146 11.1885
L34.1622 11.0932
" />
<path d="M34.1622 11.0932
L34.2098 11.0456
" />
<path d="M34.2098 11.0456
L34.3051 10.9980
" />
<path d="M34.3051 10.9980
L35.1146 10.9980
" />
<path d="M34.4003 10.5694
L34.4003 10.0932
" />
<path d="M34.1146 10.6647
L35.1146 10.3313
" />
<path d="M35.1146 10.3313
L34.1146 9.9980
" />
<path d="M34.1146 9.0932
L34.5908 9.4266
" />
<path d="M34.1146 9.6647
L35.1146 9.6647
" />
<path d="M35.1146 9.6647
L35.1146 9.2837
" />
<path d="M35.1146 9.2837
L35.0670 9.1885
" />
<path d="M35.0670 9.1885
L35.0193 9.1409
" />
<path d="M35.0193 9.1409
L34.9241 9.0932
" />
<path d="M34.9241 9.0932
L34.7812 9.0932
" />
<path d="M34.7812 9.0932
L34.6860 9.1409
" />
<path d="M34.6860 9.1409
L34.6384 9.1885
" />
<path d="M34.6384 9.1885
L34.5908 9.2837
" />
<path d="M34.5908 9.2837
L34.5908 9.6647
" />
<path d="M35.1146 8.8075
L35.1146 8.2361
" />
<path d="M34.1146 8.5218
L35.1146 8.5218
" />
<path d="M34.1146 7.1409
L35.1146 7.1409
" />
<path d="M35.1146 7.1409
L35.1146 6.7599
" />
<path d="M35.1146 6.7599
L35.0670 6.6647
" />
<path d="M35.0670 6.6647
L35.0193 6.6170
" />
<path d="M35.0193 6.6170
L34.9241 6.5694
" />
<path d="M34.9241 6.5694
L34.7812 6.5694
" />
<path d="M34.7812 6.5694
L34.6860 6.6170
" />
<path d="M34.6860 6.6170
L34.6384 6.6647
" />
<path d="M34.6384 6.6647
L34.5908 6.7599
" />
<path d="M34.5908 6.7599
L34.5908 7.1409
" />
<path d="M35.1146 6.2361
L34.1146 5.9980
" />
<path d="M34.1146 5.9980
L34.8289 5.8075
" />
<path d="M34.8289 5.8075
L34.1146 5.6170
" />
<path d="M34.1146 5.6170
L35.1146 5.3790
" />
<path d="M34.1146 4.4266
L34.5908 4.7599
" />
<path d="M34.1146 4.9980
L35.1146 4.9980
" />
<path d="M35.1146 4.9980
L35.1146 4.6170
" />
<path d="M35.1146 4.6170
L35.0670 4.5218
" />
<path d="M35.0670 4.5218
L35.0193 4.4742
" />
<path d="M35.0193 4.4742
L34.9241 4.4266
" />
<path d="M34.9241 4.4266
L34.7812 4.4266
" />
<path d="M34.7812 4.4266
L34.6860 4.4742
" />
<path d="M34.6860 4.4742
L34.6384 4.5218
" />
<path d="M34.6384 4.5218
L34.5908 4.6170
" />
<path d="M34.5908 4.6170
L34.5908 4.9980
" />
</g><g transform="rotate(-270.000000 32.3692 11.9720)">
<text x="32.3692" y="11.9720"
transform="scale(-1 1) translate(-64.738400 0)"
textLength="2.2345" font-size="1.3333" lengthAdjust="spacingAndGlyphs"
text-anchor="start" opacity="0">5V</text>
</g>
<g class="stroked-text"><desc>5V</desc>
<path d="M33.5046 11.0932
L33.5046 11.5694
" />
<path d="M33.5046 11.5694
L33.0284 11.6170
" />
<path d="M33.0284 11.6170
L33.0760 11.5694
" />
<path d="M33.0760 11.5694
L33.1236 11.4742
" />
<path d="M33.1236 11.4742
L33.1236 11.2361
" />
<path d="M33.1236 11.2361
L33.0760 11.1409
" />
<path d="M33.0760 11.1409
L33.0284 11.0932
" />
<path d="M33.0284 11.0932
L32.9332 11.0456
" />
<path d="M32.9332 11.0456
L32.6951 11.0456
" />
<path d="M32.6951 11.0456
L32.5998 11.0932
" />
<path d="M32.5998 11.0932
L32.5522 11.1409
" />
<path d="M32.5522 11.1409
L32.5046 11.2361
" />
<path d="M32.5046 11.2361
L32.5046 11.4742
" />
<path d="M32.5046 11.4742
L32.5522 11.5694
" />
<path d="M32.5522 11.5694
L32.5998 11.6170
" />
<path d="M33.5046 10.7599
L32.5046 10.4266
" />
<path d="M32.5046 10.4266
L33.5046 10.0932
" />
</g><g transform="rotate(-90.000000 35.0092 52.3011)">
<text x="35.0092" y="52.3011"
transform="scale(-1 1) translate(-70.018400 0)"
textLength="2.2345" font-size="1.3333" lengthAdjust="spacingAndGlyphs"
text-anchor="start" opacity="0">5V</text>
</g>
<g class="stroked-text"><desc>5V</desc>
<path d="M33.8738 53.1799
L33.8738 52.7037
" />
<path d="M33.8738 52.7037
L34.3500 52.6560
" />
<path d="M34.3500 52.6560
L34.3024 52.7037
" />
<path d="M34.3024 52.7037
L34.2548 52.7989
" />
<path d="M34.2548 52.7989
L34.2548 53.0370
" />
<path d="M34.2548 53.0370
L34.3024 53.1322
" />
<path d="M34.3024 53.1322
L34.3500 53.1799
" />
<path d="M34.3500 53.1799
L34.4452 53.2275
" />
<path d="M34.4452 53.2275
L34.6833 53.2275
" />
<path d="M34.6833 53.2275
L34.7786 53.1799
" />
<path d="M34.7786 53.1799
L34.8262 53.1322
" />
<path d="M34.8262 53.1322
L34.8738 53.0370
" />
<path d="M34.8738 53.0370
L34.8738 52.7989
" />
<path d="M34.8738 52.7989
L34.8262 52.7037
" />
<path d="M34.8262 52.7037
L34.7786 52.6560
" />
<path d="M33.8738 53.5132
L34.8738 53.8465
" />
<path d="M34.8738 53.8465
L33.8738 54.1799
" />
</g><g transform="rotate(-90.000000 36.6192 52.3011)">
<text x="36.6192" y="52.3011"
transform="scale(-1 1) translate(-73.238400 0)"
textLength="5.1869" font-size="1.3333" lengthAdjust="spacingAndGlyphs"
text-anchor="start" opacity="0">SERVO</text>
</g>
<g class="stroked-text"><desc>SERVO</desc>
<path d="M36.4362 52.6560
L36.4838 52.7989
" />
<path d="M36.4838 52.7989
L36.4838 53.0370
" />
<path d="M36.4838 53.0370
L36.4362 53.1322
" />
<path d="M36.4362 53.1322
L36.3886 53.1799
" />
<path d="M36.3886 53.1799
L36.2933 53.2275
" />
<path d="M36.2933 53.2275
L36.1981 53.2275
" />
<path d="M36.1981 53.2275
L36.1029 53.1799
" />
<path d="M36.1029 53.1799
L36.0552 53.1322
" />
<path d="M36.0552 53.1322
L36.0076 53.0370
" />
<path d="M36.0076 53.0370
L35.9600 52.8465
" />
<path d="M35.9600 52.8465
L35.9124 52.7513
" />
<path d="M35.9124 52.7513
L35.8648 52.7037
" />
<path d="M35.8648 52.7037
L35.7695 52.6560
" />
<path d="M35.7695 52.6560
L35.6743 52.6560
" />
<path d="M35.6743 52.6560
L35.5791 52.7037
" />
<path d="M35.5791 52.7037
L35.5314 52.7513
" />
<path d="M35.5314 52.7513
L35.4838 52.8465
" />
<path d="M35.4838 52.8465
L35.4838 53.0846
" />
<path d="M35.4838 53.0846
L35.5314 53.2275
" />
<path d="M35.9600 53.6560
L35.9600 53.9894
" />
<path d="M36.4838 54.1322
L36.4838 53.6560
" />
<path d="M36.4838 53.6560
L35.4838 53.6560
" />
<path d="M35.4838 53.6560
L35.4838 54.1322
" />
<path d="M36.4838 55.1322
L36.0076 54.7989
" />
<path d="M36.4838 54.5608
L35.4838 54.5608
" />
<path d="M35.4838 54.5608
L35.4838 54.9418
" />
<path d="M35.4838 54.9418
L35.5314 55.0370
" />
<path d="M35.5314 55.0370
L35.5791 55.0846
" />
<path d="M35.5791 55.0846
L35.6743 55.1322
" />
<path d="M35.6743 55.1322
L35.8172 55.1322
" />
<path d="M35.8172 55.1322
L35.9124 55.0846
" />
<path d="M35.9124 55.0846
L35.9600 55.0370
" />
<path d="M35.9600 55.0370
L36.0076 54.9418
" />
<path d="M36.0076 54.9418
L36.0076 54.5608
" />
<path d="M35.4838 55.4180
L36.4838 55.7513
" />
<path d="M36.4838 55.7513
L35.4838 56.0846
" />
<path d="M35.4838 56.6084
L35.4838 56.7989
" />
<path d="M35.4838 56.7989
L35.5314 56.8941
" />
<path d="M35.5314 56.8941
L35.6267 56.9894
" />
<path d="M35.6267 56.9894
L35.8172 57.0370
" />
<path d="M35.8172 57.0370
L36.1505 57.0370
" />
<path d="M36.1505 57.0370
L36.3410 56.9894
" />
<path d="M36.3410 56.9894
L36.4362 56.8941
" />
<path d="M36.4362 56.8941
L36.4838 56.7989
" />
<path d="M36.4838 56.7989
L36.4838 56.6084
" />
<path d="M36.4838 56.6084
L36.4362 56.5132
" />
<path d="M36.4362 56.5132
L36.3410 56.4180
" />
<path d="M36.3410 56.4180
L36.1505 56.3703
" />
<path d="M36.1505 56.3703
L35.8172 56.3703
" />
<path d="M35.8172 56.3703
L35.6267 56.4180
" />
<path d="M35.6267 56.4180
L35.5314 56.5132
" />
<path d="M35.5314 56.5132
L35.4838 56.6084
" />
</g><g transform="rotate(-90.000000 38.2292 52.3011)">
<text x="38.2292" y="52.3011"
transform="scale(-1 1) translate(-76.458400 0)"
textLength="3.1869" font-size="1.3333" lengthAdjust="spacingAndGlyphs"
text-anchor="start" opacity="0">12V</text>
</g>
<g class="stroked-text"><desc>12V</desc>
<path d="M38.0938 53.2275
L38.0938 52.6560
" />
<path d="M38.0938 52.9418
L37.0938 52.9418
" />
<path d="M37.0938 52.9418
L37.2367 52.8465
" />
<path d="M37.2367 52.8465
L37.3319 52.7513
" />
<path d="M37.3319 52.7513
L37.3795 52.6560
" />
<path d="M37.1891 53.6084
L37.1414 53.6560
" />
<path d="M37.1414 53.6560
L37.0938 53.7513
" />
<path d="M37.0938 53.7513
L37.0938 53.9894
" />
<path d="M37.0938 53.9894
L37.1414 54.0846
" />
<path d="M37.1414 54.0846
L37.1891 54.1322
" />
<path d="M37.1891 54.1322
L37.2843 54.1799
" />
<path d="M37.2843 54.1799
L37.3795 54.1799
" />
<path d="M37.3795 54.1799
L37.5224 54.1322
" />
<path d="M37.5224 54.1322
L38.0938 53.5608
" />
<path d="M38.0938 53.5608
L38.0938 54.1799
" />
<path d="M37.0938 54.4656
L38.0938 54.7989
" />
<path d="M38.0938 54.7989
L37.0938 55.1322
" />
</g></g>
<g style="fill:#000000; fill-opacity:0.0; 
stroke:#000000; stroke-width:0.2540; stroke-opacity:1; 
stroke-linecap:round; stroke-linejoin:round;">
<g transform="rotate(-90.000000 20.2500 8.0000)">
<text x="20.2500" y="8.6350"
transform="scale(-1 1) translate(-40.500000 0)"
textLength="3.8281" font-size="1.6933" lengthAdjust="spacingAndGlyphs"
text-anchor="middle" opacity="0">LS1</text>
</g>
<g class="stroked-text"><desc>LS1</desc>
<path d="M20.8243 7.1836
L20.8243 6.5788
" />
<path d="M20.8243 6.5788
L19.5543 6.5788
" />
<path d="M20.7638 7.5464
L20.8243 7.7279
" />
<path d="M20.8243 7.7279
L20.8243 8.0302
" />
<path d="M20.8243 8.0302
L20.7638 8.1512
" />
<path d="M20.7638 8.1512
L20.7034 8.2117
" />
<path d="M20.7034 8.2117
L20.5824 8.2721
" />
<path d="M20.5824 8.2721
L20.4615 8.2721
" />
<path d="M20.4615 8.2721
L20.3405 8.2117
" />
<path d="M20.3405 8.2117
L20.2800 8.1512
" />
<path d="M20.2800 8.1512
L20.2196 8.0302
" />
<path d="M20.2196 8.0302
L20.1591 7.7883
" />
<path d="M20.1591 7.7883
L20.0986 7.6674
" />
<path d="M20.0986 7.6674
L20.0381 7.6069
" />
<path d="M20.0381 7.6069
L19.9172 7.5464
" />
<path d="M19.9172 7.5464
L19.7962 7.5464
" />
<path d="M19.7962 7.5464
L19.6753 7.6069
" />
<path d="M19.6753 7.6069
L19.6148 7.6674
" />
<path d="M19.6148 7.6674
L19.5543 7.7883
" />
<path d="M19.5543 7.7883
L19.5543 8.0907
" />
<path d="M19.5543 8.0907
L19.6148 8.2721
" />
<path d="M20.8243 9.4817
L20.8243 8.7560
" />
<path d="M20.8243 9.1188
L19.5543 9.1188
" />
<path d="M19.5543 9.1188
L19.7357 8.9979
" />
<path d="M19.7357 8.9979
L19.8567 8.8769
" />
<path d="M19.8567 8.8769
L19.9172 8.7560
" />
</g><text x="20.8630" y="53.6280"
transform="scale(-1 1) translate(-41.726000 0)"
textLength="2.5581" font-size="1.6933" lengthAdjust="spacingAndGlyphs"
text-anchor="middle" opacity="0">J9</text>
<g class="stroked-text"><desc>J9</desc>
<path d="M21.2863 52.2973
L21.2863 53.2045
" />
<path d="M21.2863 53.2045
L21.3468 53.3859
" />
<path d="M21.3468 53.3859
L21.4678 53.5068
" />
<path d="M21.4678 53.5068
L21.6492 53.5673
" />
<path d="M21.6492 53.5673
L21.7701 53.5673
" />
<path d="M20.6211 53.5673
L20.3792 53.5673
" />
<path d="M20.3792 53.5673
L20.2582 53.5068
" />
<path d="M20.2582 53.5068
L20.1978 53.4464
" />
<path d="M20.1978 53.4464
L20.0768 53.2649
" />
<path d="M20.0768 53.2649
L20.0163 53.0230
" />
<path d="M20.0163 53.0230
L20.0163 52.5392
" />
<path d="M20.0163 52.5392
L20.0768 52.4183
" />
<path d="M20.0768 52.4183
L20.1373 52.3578
" />
<path d="M20.1373 52.3578
L20.2582 52.2973
" />
<path d="M20.2582 52.2973
L20.5001 52.2973
" />
<path d="M20.5001 52.2973
L20.6211 52.3578
" />
<path d="M20.6211 52.3578
L20.6816 52.4183
" />
<path d="M20.6816 52.4183
L20.7420 52.5392
" />
<path d="M20.7420 52.5392
L20.7420 52.8416
" />
<path d="M20.7420 52.8416
L20.6816 52.9626
" />
<path d="M20.6816 52.9626
L20.6211 53.0230
" />
<path d="M20.6211 53.0230
L20.5001 53.0835
" />
<path d="M20.5001 53.0835
L20.2582 53.0835
" />
<path d="M20.2582 53.0835
L20.1373 53.0230
" />
<path d="M20.1373 53.0230
L20.0768 52.9626
" />
<path d="M20.0768 52.9626
L20.0163 52.8416
" />
</g></g>
<g style="fill:#000000; fill-opacity:0.0; 
stroke:#000000; stroke-width:0.1200; stroke-opacity:1; 
stroke-linecap:round; stroke-linejoin:round;">
<path d="M31.5828 71.7275
L32.0922 71.7275
" />
<path d="M31.5828 72.7725
L32.0922 72.7725
" />
<path d="M15.3149 40.3859
L15.3149 40.8605
" />
<path d="M14.2699 40.3859
L14.2699 40.8605
" />
<path d="M18.9444 25.4320
L19.2256 25.4320
" />
<path d="M18.9444 26.4520
L19.2256 26.4520
" />
<path d="M15.1362 20.2036
L14.8550 20.2036
" />
<path d="M15.1362 19.1836
L14.8550 19.1836
" />
<path d="M16.9123 73.0225
L16.4377 73.0225
" />
<path d="M16.9123 71.9775
L16.4377 71.9775
" />
<path d="M17.0697 65.4485
L17.5443 65.4485
" />
<path d="M17.0697 66.4935
L17.5443 66.4935
" />
<path d="M27.4806 18.0700
L27.1994 18.0700
" />
<path d="M27.4806 17.0500
L27.1994 17.0500
" />
<path d="M27.3264 36.4810
L27.6076 36.4810
" />
<path d="M27.3264 37.5010
L27.6076 37.5010
" />
<path d="M16.4953 73.9775
L17.0047 73.9775
" />
<path d="M16.4953 75.0225
L17.0047 75.0225
" />
<path d="M17.5443 67.9935
L17.0697 67.9935
" />
<path d="M17.5443 66.9485
L17.0697 66.9485
" />
<path d="M36.8576 13.9880
L36.8576 11.9880
" />
<path d="M36.8576 11.9880
L32.7576 11.9880
" />
<path d="M36.4076 14.4880
L35.8076 14.4880
" />
<path d="M36.1076 14.1880
L36.4076 14.4880
" />
<path d="M36.1076 14.1880
L35.8076 14.4880
" />
<path d="M32.7576 13.9880
L36.8576 13.9880
" />
<path d="M32.7576 11.9880
L32.7576 13.9880
" />
<path d="M15.6094 17.4564
L15.8906 17.4564
" />
<path d="M15.6094 18.4764
L15.8906 18.4764
" />
<path d="M20.2144 33.9410
L20.4956 33.9410
" />
<path d="M20.2144 34.9610
L20.4956 34.9610
" />
<path d="M10.1529 44.6509
L9.6783 44.6509
" />
<path d="M10.1529 43.6059
L9.6783 43.6059
" />
<path d="M17.8130 36.8776
L17.8130 36.5964
" />
<path d="M18.8330 36.8776
L18.8330 36.5964
" />
<path d="M18.3094 42.7040
L18.5906 42.7040
" />
<path d="M18.3094 43.7240
L18.5906 43.7240
" />
<path d="M27.2266 26.5790
L26.9454 26.5790
" />
<path d="M27.2266 25.5590
L26.9454 25.5590
" />
<path d="M30.1360 18.6894
L30.1360 18.9706
" />
<path d="M29.1160 18.6894
L29.1160 18.9706
" />
<path d="M17.3757 64.9012
L16.1715 64.9012
" />
<path d="M17.3757 63.0812
L16.1715 63.0812
" />
</g>
<g style="fill:#000000; fill-opacity:1.0000; 
stroke:#000000; stroke-width:0.0000; stroke-opacity:1; 
stroke-linecap:round; stroke-linejoin:round;">
<circle cx="20.2500" cy="13.5000" r="0.0500" /> 
<circle cx="20.2500" cy="13.4000" r="0.0500" /> 
</g>
<g style="fill:#000000; fill-opacity:1.0000; 
stroke:#000000; stroke-width:0.2000; stroke-opacity:1; 
stroke-linecap:round; stroke-linejoin:round;">
</g>
<g style="fill:#000000; fill-opacity:0.0; 
stroke:#000000; stroke-width:0.2000; stroke-opacity:1; 
stroke-linecap:round; stroke-linejoin:round;">
<path d="M15.7500 12.5000
L18.2500 12.5000
" />
<path d="M22.2500 12.5000
L24.7500 12.5000
" />
<path d="M24.7500 12.5000
L24.7500 3.5000
" />
<path d="M15.7500 3.5000
L15.7500 12.5000
" />
<path d="M18.2500 3.5000
L15.7500 3.5000
" />
<path d="M24.7500 3.5000
L22.2500 3.5000
" />
</g>
<g style="fill:#000000; fill-opacity:0.0; 
stroke:#000000; stroke-width:0.1000; stroke-opacity:1; 
stroke-linecap:round; stroke-linejoin:round;">
<path d="M20.2500 13.4000 A0.0500 0.0500 0.0 0 0 20.2500 13.5000" />
<path d="M20.2500 13.5000 A0.0500 0.0500 0.0 0 0 20.2500 13.4000" />
<path d="M27.6630 60.2180
L14.0630 60.2180
" />
<path d="M27.6630 59.0930
L27.6630 60.2180
" />
<path d="M27.6630 50.7930
L27.6630 56.5930
" />
<path d="M27.6630 48.4930
L27.6630 45.7680
" />
<path d="M27.6630 45.7680
L14.0630 45.7680
" />
</g>
<g style="fill:#000000; fill-opacity:1.0000; 
stroke:#000000; stroke-width:0.0000; stroke-opacity:1; 
stroke-linecap:round; stroke-linejoin:round;">
<circle cx="14.0880" cy="55.6930" r="0.0500" /> 
<circle cx="14.0880" cy="55.5930" r="0.0500" /> 
</g>
<g style="fill:#000000; fill-opacity:1.0000; 
stroke:#000000; stroke-width:0.1000; stroke-opacity:1; 
stroke-linecap:round; stroke-linejoin:round;">
</g>
<g style="fill:#000000; fill-opacity:0.0; 
stroke:#000000; stroke-width:0.1000; stroke-opacity:1; 
stroke-linecap:round; stroke-linejoin:round;">
<path d="M14.0630 60.2180
L14.0630 59.0930
" />
<path d="M14.0630 50.7930
L14.0630 56.5930
" />
<path d="M14.0630 45.7680
L14.0630 48.3930
" />
<path d="M14.0880 55.5930 A0.0500 0.0500 0.0 0 0 14.0880 55.6930" />
<path d="M14.0880 55.6930 A0.0500 0.0500 0.0 0 0 14.0880 55.5930" />
</g>
<g style="fill:#000000; fill-opacity:0.0; 
stroke:#000000; stroke-width:0.1200; stroke-opacity:1; 
stroke-linecap:round; stroke-linejoin:round;">
<path d="M32.0047 70.5225
L31.4953 70.5225
" />
<path d="M32.0047 69.4775
L31.4953 69.4775
" />
<path d="M32.0047 74.5225
L31.4953 74.5225
" />
<path d="M32.0047 73.4775
L31.4953 73.4775
" />
<path d="M27.1005 42.7627
L27.1005 43.2373
" />
<path d="M26.0555 42.7627
L26.0555 43.2373
" />
<path d="M38.2292 52.3011
L38.2292 50.3011
" />
<path d="M38.2292 50.3011
L34.1292 50.3011
" />
<path d="M37.7792 52.8011
L37.1792 52.8011
" />
<path d="M37.4792 52.5011
L37.7792 52.8011
" />
<path d="M37.4792 52.5011
L37.1792 52.8011
" />
<path d="M34.1292 52.3011
L38.2292 52.3011
" />
<path d="M34.1292 50.3011
L34.1292 52.3011
" />
<path d="M21.9924 26.0670
L22.2736 26.0670
" />
<path d="M21.9924 27.0870
L22.2736 27.0870
" />
<path d="M34.2726 55.4495
L34.2726 55.9721
" />
<path d="M32.8026 55.4495
L32.8026 55.9721
" />
<g >
</g>
<g >
</g>
<g >
</g>
<g >
</g>
<g >
</g>
<g >
</g>
<g >
</g>
<g >
</g>
<g >
</g>
<g >
</g>
<g >
</g>
<g >
</g>
<g >
</g>
<g >
</g>
<g >
</g>
<g >
</g>
<g >
</g>
<g >
</g>
<g >
</g>
<g >
</g>
<g >
</g>
<g >
</g>
<g >
</g>
<g >
</g>
<g >
</g>
<g >
</g>
<g >
</g>
<g >
</g>
<g >
</g>
<g >
</g>
<g >
</g>
<g >
</g>
<g >
</g>
<g >
</g>
<g >
</g>
<g >
</g>
<g >
</g>
<g >
</g>
<g >
</g>
<g >
</g>
<g >
</g>
<g >
</g>
<g >
</g>
<g >
</g>
<g >
</g>
<g >
</g>
<g >
</g>
<g >
</g>
<g >
</g>
<g >
</g>
<g >
</g>
<g >
</g>
<g >
</g>
<g >
</g>
<g >
</g>
<g >
</g>
<g >
</g>
<g >
</g>
<g >
</g>
<g >
</g>
<g >
</g>
<g >
</g>
<g >
</g>
<g >
</g>
<g >
</g>
<g >
</g>
<g >
</g>
<g >
</g>
<g >
</g>
<g >
</g>
<g >
</g>
<g >
</g>
<g >
</g>
<g >
</g>
<g >
</g>
<g >
</g>
<g >
</g>
<g >
</g>
<g >
</g>
<g >
</g>
<g >
</g>
<g >
</g>
<g >
</g>
<g >
</g>
<g >
</g>
</g>
<g style="fill:#000000; fill-opacity:0.0; 
stroke:#000000; stroke-width:0.1200; stroke-opacity:1; 
stroke-linecap:round; stroke-linejoin:round;">
</g>
<g style="fill:#000000; fill-opacity:0.0; 
stroke:#000000; stroke-width:0.1000; stroke-opacity:1; 
stroke-linecap:round; stroke-linejoin:round;">
<path style="fill:#000000; fill-opacity:0.0; 
stroke:#000000; stroke-width:0.1000; stroke-opacity:1; 
stroke-linecap:round; stroke-linejoin:round;fill:none"
d="M 4.0000,1.7500
44.0000,1.7500
44.0000,76.7500
4.0000,76.7500
Z" /> 
<g >
</g>
<g >
</g>
<g >
</g>
<g >
</g>
<g >
</g>
<g >
</g>
<g >
</g>
<g >
</g>
<g >
</g>
<g >
</g>
<g >
</g>
<g >
</g>
<g >
</g>
<g >
</g>
<g >
</g>
<g >
</g>
<g >
</g>
<g >
</g>
<g >
</g>
<g >
</g>
<g >
</g>
<g >
</g>
<g >
</g>
<g >
</g>
<g >
</g>
<g >
</g>
<g >
</g>
<g >
</g>
<g >
</g>
<g >
</g>
<g >
</g>
<g >
</g>
<g >
</g>
<g >
</g>
<g >
</g>
<g >
</g>
<g >
</g>
<g >
</g>
<g >
</g>
<g >
</g>
<g >
</g>
<g >
</g>
<g >
</g>
<g >
</g>
<g >
</g>
<g >
</g>
<g >
</g>
<g >
</g>
<g >
</g>
<g >
</g>
<g >
</g>
<g >
</g>
<g >
</g>
<g >
</g>
<g >
</g>
<g >
</g>
<g >
</g>
<g >
</g>
<g >
</g>
<g >
</g>
<g >
</g>
<g >
</g>
<g >
</g>
<g >
</g>
<g >
</g>
<g >
</g>
<g >
</g>
<g >
</g>
<g >
</g>
<g >
</g>
<g >
</g>
<g >
</g>
<g >
</g>
<g >
</g>
<g >
</g>
<g >
</g>
<g >
</g>
<g >
</g>
<g >
</g>
<g >
</g>
<g >
</g>
<g >
</g>
<g >
</g>
<g >
</g>
<g >
</g>
</g> 
</svg>
