<?xml version="1.0" standalone="no"?>
 <!DOCTYPE svg PUBLIC "-//W3C//DTD SVG 1.1//EN" 
 "http://www.w3.org/Graphics/SVG/1.1/DTD/svg11.dtd"> 
<svg
  xmlns:svg="http://www.w3.org/2000/svg"
  xmlns="http://www.w3.org/2000/svg"
  xmlns:xlink="http://www.w3.org/1999/xlink"
  version="1.1"
  width="49.2252mm" height="78.9940mm" viewBox="0.0000 0.0000 49.2252 78.9940">
<title>SVG Image created as lyra r1-F_Silkscreen.svg date 2023/08/15 13:53:48 </title>
  <desc>Image generated by PCBNEW </desc>
<g style="fill:#000000; fill-opacity:1.0000;stroke:#000000; stroke-opacity:1.0000;
stroke-linecap:round; stroke-linejoin:round;"
 transform="translate(0 0) scale(1 1)">
</g>
<g style="fill:#000000; fill-opacity:0.0; 
stroke:#000000; stroke-width:0.0000; stroke-opacity:1; 
stroke-linecap:round; stroke-linejoin:round;">
</g>
<g style="fill:#000000; fill-opacity:0.0; 
stroke:#000000; stroke-width:0.7500; stroke-opacity:1; 
stroke-linecap:round; stroke-linejoin:round;">
<text x="23.5808" y="11.7726"
textLength="15.1702" font-size="5.3333" lengthAdjust="spacingAndGlyphs"
text-anchor="middle" opacity="0">LYRA</text>
<g class="stroked-text"><desc>LYRA</desc>
<path d="M19.3903 11.3053
L17.4856 11.3053
" />
<path d="M17.4856 11.3053
L17.4856 7.8053
" />
<path d="M21.4856 9.6386
L21.4856 11.3053
" />
<path d="M20.1522 7.8053
L21.4856 9.6386
" />
<path d="M21.4856 9.6386
L22.8189 7.8053
" />
<path d="M26.4379 11.3053
L25.1046 9.6386
" />
<path d="M24.1522 11.3053
L24.1522 7.8053
" />
<path d="M24.1522 7.8053
L25.6760 7.8053
" />
<path d="M25.6760 7.8053
L26.0570 7.9719
" />
<path d="M26.0570 7.9719
L26.2475 8.1386
" />
<path d="M26.2475 8.1386
L26.4379 8.4719
" />
<path d="M26.4379 8.4719
L26.4379 8.9719
" />
<path d="M26.4379 8.9719
L26.2475 9.3053
" />
<path d="M26.2475 9.3053
L26.0570 9.4719
" />
<path d="M26.0570 9.4719
L25.6760 9.6386
" />
<path d="M25.6760 9.6386
L24.1522 9.6386
" />
<path d="M27.9618 10.3053
L29.8665 10.3053
" />
<path d="M27.5808 11.3053
L28.9141 7.8053
" />
<path d="M28.9141 7.8053
L30.2475 11.3053
" />
</g><text x="23.5808" y="17.4076"
textLength="8.8845" font-size="5.3333" lengthAdjust="spacingAndGlyphs"
text-anchor="middle" opacity="0">R1</text>
<g class="stroked-text"><desc>R1</desc>
<path d="M22.9141 16.9403
L21.5808 15.2736
" />
<path d="M20.6284 16.9403
L20.6284 13.4403
" />
<path d="M20.6284 13.4403
L22.1522 13.4403
" />
<path d="M22.1522 13.4403
L22.5332 13.6069
" />
<path d="M22.5332 13.6069
L22.7237 13.7736
" />
<path d="M22.7237 13.7736
L22.9141 14.1069
" />
<path d="M22.9141 14.1069
L22.9141 14.6069
" />
<path d="M22.9141 14.6069
L22.7237 14.9403
" />
<path d="M22.7237 14.9403
L22.5332 15.1069
" />
<path d="M22.5332 15.1069
L22.1522 15.2736
" />
<path d="M22.1522 15.2736
L20.6284 15.2736
" />
<path d="M26.7237 16.9403
L24.4379 16.9403
" />
<path d="M25.5808 16.9403
L25.5808 13.4403
" />
<path d="M25.5808 13.4403
L25.1998 13.9403
" />
<path d="M25.1998 13.9403
L24.8189 14.2736
" />
<path d="M24.8189 14.2736
L24.4379 14.4403
" />
</g></g>
<g style="fill:#000000; fill-opacity:0.0; 
stroke:#000000; stroke-width:0.2500; stroke-opacity:1; 
stroke-linecap:round; stroke-linejoin:round;">
<text x="27.1119" y="46.7176"
textLength="2.2345" font-size="1.3333" lengthAdjust="spacingAndGlyphs"
text-anchor="end" opacity="0">5V</text>
<g class="stroked-text"><desc>5V</desc>
<path d="M25.8522 45.5822
L25.3760 45.5822
" />
<path d="M25.3760 45.5822
L25.3284 46.0584
" />
<path d="M25.3284 46.0584
L25.3760 46.0108
" />
<path d="M25.3760 46.0108
L25.4712 45.9632
" />
<path d="M25.4712 45.9632
L25.7093 45.9632
" />
<path d="M25.7093 45.9632
L25.8046 46.0108
" />
<path d="M25.8046 46.0108
L25.8522 46.0584
" />
<path d="M25.8522 46.0584
L25.8998 46.1536
" />
<path d="M25.8998 46.1536
L25.8998 46.3917
" />
<path d="M25.8998 46.3917
L25.8522 46.4870
" />
<path d="M25.8522 46.4870
L25.8046 46.5346
" />
<path d="M25.8046 46.5346
L25.7093 46.5822
" />
<path d="M25.7093 46.5822
L25.4712 46.5822
" />
<path d="M25.4712 46.5822
L25.3760 46.5346
" />
<path d="M25.3760 46.5346
L25.3284 46.4870
" />
<path d="M26.1855 45.5822
L26.5189 46.5822
" />
<path d="M26.5189 46.5822
L26.8522 45.5822
" />
</g><text x="27.1119" y="48.3276"
textLength="2.8536" font-size="1.3333" lengthAdjust="spacingAndGlyphs"
text-anchor="end" opacity="0">SPI</text>
<g class="stroked-text"><desc>SPI</desc>
<path d="M24.7093 48.1446
L24.8522 48.1922
" />
<path d="M24.8522 48.1922
L25.0903 48.1922
" />
<path d="M25.0903 48.1922
L25.1855 48.1446
" />
<path d="M25.1855 48.1446
L25.2331 48.0970
" />
<path d="M25.2331 48.0970
L25.2808 48.0017
" />
<path d="M25.2808 48.0017
L25.2808 47.9065
" />
<path d="M25.2808 47.9065
L25.2331 47.8113
" />
<path d="M25.2331 47.8113
L25.1855 47.7636
" />
<path d="M25.1855 47.7636
L25.0903 47.7160
" />
<path d="M25.0903 47.7160
L24.8998 47.6684
" />
<path d="M24.8998 47.6684
L24.8046 47.6208
" />
<path d="M24.8046 47.6208
L24.7570 47.5732
" />
<path d="M24.7570 47.5732
L24.7093 47.4779
" />
<path d="M24.7093 47.4779
L24.7093 47.3827
" />
<path d="M24.7093 47.3827
L24.7570 47.2875
" />
<path d="M24.7570 47.2875
L24.8046 47.2398
" />
<path d="M24.8046 47.2398
L24.8998 47.1922
" />
<path d="M24.8998 47.1922
L25.1379 47.1922
" />
<path d="M25.1379 47.1922
L25.2808 47.2398
" />
<path d="M25.7093 48.1922
L25.7093 47.1922
" />
<path d="M25.7093 47.1922
L26.0903 47.1922
" />
<path d="M26.0903 47.1922
L26.1855 47.2398
" />
<path d="M26.1855 47.2398
L26.2331 47.2875
" />
<path d="M26.2331 47.2875
L26.2808 47.3827
" />
<path d="M26.2808 47.3827
L26.2808 47.5256
" />
<path d="M26.2808 47.5256
L26.2331 47.6208
" />
<path d="M26.2331 47.6208
L26.1855 47.6684
" />
<path d="M26.1855 47.6684
L26.0903 47.7160
" />
<path d="M26.0903 47.7160
L25.7093 47.7160
" />
<path d="M26.7093 48.1922
L26.7093 47.1922
" />
</g><text x="27.1119" y="49.9376"
textLength="2.2345" font-size="1.3333" lengthAdjust="spacingAndGlyphs"
text-anchor="end" opacity="0">3V</text>
<g class="stroked-text"><desc>3V</desc>
<path d="M25.2808 48.8022
L25.8998 48.8022
" />
<path d="M25.8998 48.8022
L25.5665 49.1832
" />
<path d="M25.5665 49.1832
L25.7093 49.1832
" />
<path d="M25.7093 49.1832
L25.8046 49.2308
" />
<path d="M25.8046 49.2308
L25.8522 49.2784
" />
<path d="M25.8522 49.2784
L25.8998 49.3736
" />
<path d="M25.8998 49.3736
L25.8998 49.6117
" />
<path d="M25.8998 49.6117
L25.8522 49.7070
" />
<path d="M25.8522 49.7070
L25.8046 49.7546
" />
<path d="M25.8046 49.7546
L25.7093 49.8022
" />
<path d="M25.7093 49.8022
L25.4236 49.8022
" />
<path d="M25.4236 49.8022
L25.3284 49.7546
" />
<path d="M25.3284 49.7546
L25.2808 49.7070
" />
<path d="M26.1855 48.8022
L26.5189 49.8022
" />
<path d="M26.5189 49.8022
L26.8522 48.8022
" />
</g><g transform="rotate(-270.000000 10.3016 45.1952)">
<text x="10.3016" y="45.1952"
textLength="1.9122" font-size="1.6533" lengthAdjust="spacingAndGlyphs"
text-anchor="end" opacity="0">-</text>
</g>
<g class="stroked-text"><desc>-</desc>
<path d="M10.9387 43.7907
L10.9387 44.7355
" />
</g><g transform="rotate(-270.000000 8.3052 45.1952)">
<text x="8.3052" y="45.1952"
textLength="5.1599" font-size="1.6533" lengthAdjust="spacingAndGlyphs"
text-anchor="end" opacity="0">BOOT</text>
</g>
<g class="stroked-text"><desc>BOOT</desc>
<path d="M9.1195 40.9564
L9.0604 41.1336
" />
<path d="M9.0604 41.1336
L9.0014 41.1926
" />
<path d="M9.0014 41.1926
L8.8833 41.2517
" />
<path d="M8.8833 41.2517
L8.7061 41.2517
" />
<path d="M8.7061 41.2517
L8.5880 41.1926
" />
<path d="M8.5880 41.1926
L8.5290 41.1336
" />
<path d="M8.5290 41.1336
L8.4700 41.0155
" />
<path d="M8.4700 41.0155
L8.4700 40.5431
" />
<path d="M8.4700 40.5431
L9.7100 40.5431
" />
<path d="M9.7100 40.5431
L9.7100 40.9564
" />
<path d="M9.7100 40.9564
L9.6509 41.0745
" />
<path d="M9.6509 41.0745
L9.5919 41.1336
" />
<path d="M9.5919 41.1336
L9.4738 41.1926
" />
<path d="M9.4738 41.1926
L9.3557 41.1926
" />
<path d="M9.3557 41.1926
L9.2376 41.1336
" />
<path d="M9.2376 41.1336
L9.1785 41.0745
" />
<path d="M9.1785 41.0745
L9.1195 40.9564
" />
<path d="M9.1195 40.9564
L9.1195 40.5431
" />
<path d="M9.7100 42.0193
L9.7100 42.2555
" />
<path d="M9.7100 42.2555
L9.6509 42.3736
" />
<path d="M9.6509 42.3736
L9.5328 42.4917
" />
<path d="M9.5328 42.4917
L9.2966 42.5507
" />
<path d="M9.2966 42.5507
L8.8833 42.5507
" />
<path d="M8.8833 42.5507
L8.6471 42.4917
" />
<path d="M8.6471 42.4917
L8.5290 42.3736
" />
<path d="M8.5290 42.3736
L8.4700 42.2555
" />
<path d="M8.4700 42.2555
L8.4700 42.0193
" />
<path d="M8.4700 42.0193
L8.5290 41.9012
" />
<path d="M8.5290 41.9012
L8.6471 41.7831
" />
<path d="M8.6471 41.7831
L8.8833 41.7241
" />
<path d="M8.8833 41.7241
L9.2966 41.7241
" />
<path d="M9.2966 41.7241
L9.5328 41.7831
" />
<path d="M9.5328 41.7831
L9.6509 41.9012
" />
<path d="M9.6509 41.9012
L9.7100 42.0193
" />
<path d="M9.7100 43.3183
L9.7100 43.5545
" />
<path d="M9.7100 43.5545
L9.6509 43.6726
" />
<path d="M9.6509 43.6726
L9.5328 43.7907
" />
<path d="M9.5328 43.7907
L9.2966 43.8498
" />
<path d="M9.2966 43.8498
L8.8833 43.8498
" />
<path d="M8.8833 43.8498
L8.6471 43.7907
" />
<path d="M8.6471 43.7907
L8.5290 43.6726
" />
<path d="M8.5290 43.6726
L8.4700 43.5545
" />
<path d="M8.4700 43.5545
L8.4700 43.3183
" />
<path d="M8.4700 43.3183
L8.5290 43.2002
" />
<path d="M8.5290 43.2002
L8.6471 43.0822
" />
<path d="M8.6471 43.0822
L8.8833 43.0231
" />
<path d="M8.8833 43.0231
L9.2966 43.0231
" />
<path d="M9.2966 43.0231
L9.5328 43.0822
" />
<path d="M9.5328 43.0822
L9.6509 43.2002
" />
<path d="M9.6509 43.2002
L9.7100 43.3183
" />
<path d="M9.7100 44.2041
L9.7100 44.9126
" />
<path d="M8.4700 44.5583
L9.7100 44.5583
" />
</g><g transform="rotate(-270.000000 6.3088 45.1952)">
<text x="6.3088" y="45.1952"
textLength="1.9122" font-size="1.6533" lengthAdjust="spacingAndGlyphs"
text-anchor="end" opacity="0">+</text>
</g>
<g class="stroked-text"><desc>+</desc>
<path d="M6.9459 43.7907
L6.9459 44.7355
" />
<path d="M6.4736 44.2631
L7.4183 44.2631
" />
</g><text x="18.8310" y="3.4180"
textLength="3.1869" font-size="1.3333" lengthAdjust="spacingAndGlyphs"
text-anchor="start" opacity="0">3V3</text>
<g class="stroked-text"><desc>3V3</desc>
<path d="M19.1383 2.2826
L19.7574 2.2826
" />
<path d="M19.7574 2.2826
L19.4240 2.6636
" />
<path d="M19.4240 2.6636
L19.5669 2.6636
" />
<path d="M19.5669 2.6636
L19.6621 2.7112
" />
<path d="M19.6621 2.7112
L19.7098 2.7588
" />
<path d="M19.7098 2.7588
L19.7574 2.8540
" />
<path d="M19.7574 2.8540
L19.7574 3.0921
" />
<path d="M19.7574 3.0921
L19.7098 3.1874
" />
<path d="M19.7098 3.1874
L19.6621 3.2350
" />
<path d="M19.6621 3.2350
L19.5669 3.2826
" />
<path d="M19.5669 3.2826
L19.2812 3.2826
" />
<path d="M19.2812 3.2826
L19.1859 3.2350
" />
<path d="M19.1859 3.2350
L19.1383 3.1874
" />
<path d="M20.0431 2.2826
L20.3764 3.2826
" />
<path d="M20.3764 3.2826
L20.7098 2.2826
" />
<path d="M20.9479 2.2826
L21.5669 2.2826
" />
<path d="M21.5669 2.2826
L21.2336 2.6636
" />
<path d="M21.2336 2.6636
L21.3764 2.6636
" />
<path d="M21.3764 2.6636
L21.4717 2.7112
" />
<path d="M21.4717 2.7112
L21.5193 2.7588
" />
<path d="M21.5193 2.7588
L21.5669 2.8540
" />
<path d="M21.5669 2.8540
L21.5669 3.0921
" />
<path d="M21.5669 3.0921
L21.5193 3.1874
" />
<path d="M21.5193 3.1874
L21.4717 3.2350
" />
<path d="M21.4717 3.2350
L21.3764 3.2826
" />
<path d="M21.3764 3.2826
L21.0907 3.2826
" />
<path d="M21.0907 3.2826
L20.9955 3.2350
" />
<path d="M20.9955 3.2350
L20.9479 3.1874
" />
</g><text x="18.8310" y="5.0280"
textLength="6.7583" font-size="1.3333" lengthAdjust="spacingAndGlyphs"
text-anchor="start" opacity="0">I2C PWR</text>
<g class="stroked-text"><desc>I2C PWR</desc>
<path d="M19.2336 4.8926
L19.2336 3.8926
" />
<path d="M19.6621 3.9879
L19.7098 3.9402
" />
<path d="M19.7098 3.9402
L19.8050 3.8926
" />
<path d="M19.8050 3.8926
L20.0431 3.8926
" />
<path d="M20.0431 3.8926
L20.1383 3.9402
" />
<path d="M20.1383 3.9402
L20.1859 3.9879
" />
<path d="M20.1859 3.9879
L20.2336 4.0831
" />
<path d="M20.2336 4.0831
L20.2336 4.1783
" />
<path d="M20.2336 4.1783
L20.1859 4.3212
" />
<path d="M20.1859 4.3212
L19.6145 4.8926
" />
<path d="M19.6145 4.8926
L20.2336 4.8926
" />
<path d="M21.2336 4.7974
L21.1859 4.8450
" />
<path d="M21.1859 4.8450
L21.0431 4.8926
" />
<path d="M21.0431 4.8926
L20.9479 4.8926
" />
<path d="M20.9479 4.8926
L20.8050 4.8450
" />
<path d="M20.8050 4.8450
L20.7098 4.7498
" />
<path d="M20.7098 4.7498
L20.6621 4.6545
" />
<path d="M20.6621 4.6545
L20.6145 4.4640
" />
<path d="M20.6145 4.4640
L20.6145 4.3212
" />
<path d="M20.6145 4.3212
L20.6621 4.1307
" />
<path d="M20.6621 4.1307
L20.7098 4.0355
" />
<path d="M20.7098 4.0355
L20.8050 3.9402
" />
<path d="M20.8050 3.9402
L20.9479 3.8926
" />
<path d="M20.9479 3.8926
L21.0431 3.8926
" />
<path d="M21.0431 3.8926
L21.1859 3.9402
" />
<path d="M21.1859 3.9402
L21.2336 3.9879
" />
<path d="M22.4240 4.8926
L22.4240 3.8926
" />
<path d="M22.4240 3.8926
L22.8050 3.8926
" />
<path d="M22.8050 3.8926
L22.9002 3.9402
" />
<path d="M22.9002 3.9402
L22.9479 3.9879
" />
<path d="M22.9479 3.9879
L22.9955 4.0831
" />
<path d="M22.9955 4.0831
L22.9955 4.2260
" />
<path d="M22.9955 4.2260
L22.9479 4.3212
" />
<path d="M22.9479 4.3212
L22.9002 4.3688
" />
<path d="M22.9002 4.3688
L22.8050 4.4164
" />
<path d="M22.8050 4.4164
L22.4240 4.4164
" />
<path d="M23.3288 3.8926
L23.5669 4.8926
" />
<path d="M23.5669 4.8926
L23.7574 4.1783
" />
<path d="M23.7574 4.1783
L23.9479 4.8926
" />
<path d="M23.9479 4.8926
L24.1859 3.8926
" />
<path d="M25.1383 4.8926
L24.8050 4.4164
" />
<path d="M24.5669 4.8926
L24.5669 3.8926
" />
<path d="M24.5669 3.8926
L24.9479 3.8926
" />
<path d="M24.9479 3.8926
L25.0431 3.9402
" />
<path d="M25.0431 3.9402
L25.0907 3.9879
" />
<path d="M25.0907 3.9879
L25.1383 4.0831
" />
<path d="M25.1383 4.0831
L25.1383 4.2260
" />
<path d="M25.1383 4.2260
L25.0907 4.3212
" />
<path d="M25.0907 4.3212
L25.0431 4.3688
" />
<path d="M25.0431 4.3688
L24.9479 4.4164
" />
<path d="M24.9479 4.4164
L24.5669 4.4164
" />
</g><text x="18.8310" y="6.6380"
textLength="2.2345" font-size="1.3333" lengthAdjust="spacingAndGlyphs"
text-anchor="start" opacity="0">5V</text>
<g class="stroked-text"><desc>5V</desc>
<path d="M19.7098 5.5026
L19.2336 5.5026
" />
<path d="M19.2336 5.5026
L19.1859 5.9788
" />
<path d="M19.1859 5.9788
L19.2336 5.9312
" />
<path d="M19.2336 5.9312
L19.3288 5.8836
" />
<path d="M19.3288 5.8836
L19.5669 5.8836
" />
<path d="M19.5669 5.8836
L19.6621 5.9312
" />
<path d="M19.6621 5.9312
L19.7098 5.9788
" />
<path d="M19.7098 5.9788
L19.7574 6.0740
" />
<path d="M19.7574 6.0740
L19.7574 6.3121
" />
<path d="M19.7574 6.3121
L19.7098 6.4074
" />
<path d="M19.7098 6.4074
L19.6621 6.4550
" />
<path d="M19.6621 6.4550
L19.5669 6.5026
" />
<path d="M19.5669 6.5026
L19.3288 6.5026
" />
<path d="M19.3288 6.5026
L19.2336 6.4550
" />
<path d="M19.2336 6.4550
L19.1859 6.4074
" />
<path d="M20.0431 5.5026
L20.3764 6.5026
" />
<path d="M20.3764 6.5026
L20.7098 5.5026
" />
</g><g transform="rotate(-45.000000 28.0004 27.9740)">
<text x="28.0004" y="27.9740"
textLength="10.7107" font-size="1.3333" lengthAdjust="spacingAndGlyphs"
text-anchor="end" opacity="0">JLCJLCJLCJLC</text>
</g>
<g class="stroked-text"><desc>JLCJLCJLCJLC</desc>
<path d="M20.1786 34.1902
L20.6836 34.6953
" />
<path d="M20.6836 34.6953
L20.7510 34.8299
" />
<path d="M20.7510 34.8299
L20.7510 34.9646
" />
<path d="M20.7510 34.9646
L20.6836 35.0993
" />
<path d="M20.6836 35.0993
L20.6163 35.1667
" />
<path d="M21.5591 34.2238
L21.2224 34.5606
" />
<path d="M21.2224 34.5606
L20.5153 33.8535
" />
<path d="M22.1315 33.5167
L22.1315 33.5841
" />
<path d="M22.1315 33.5841
L22.0642 33.7188
" />
<path d="M22.0642 33.7188
L21.9968 33.7861
" />
<path d="M21.9968 33.7861
L21.8621 33.8535
" />
<path d="M21.8621 33.8535
L21.7275 33.8535
" />
<path d="M21.7275 33.8535
L21.6264 33.8198
" />
<path d="M21.6264 33.8198
L21.4581 33.7188
" />
<path d="M21.4581 33.7188
L21.3571 33.6178
" />
<path d="M21.3571 33.6178
L21.2560 33.4494
" />
<path d="M21.2560 33.4494
L21.2224 33.3484
" />
<path d="M21.2224 33.3484
L21.2224 33.2137
" />
<path d="M21.2224 33.2137
L21.2897 33.0790
" />
<path d="M21.2897 33.0790
L21.3571 33.0117
" />
<path d="M21.3571 33.0117
L21.4918 32.9443
" />
<path d="M21.4918 32.9443
L21.5591 32.9443
" />
<path d="M21.9968 32.3719
L22.5019 32.8770
" />
<path d="M22.5019 32.8770
L22.5692 33.0117
" />
<path d="M22.5692 33.0117
L22.5692 33.1463
" />
<path d="M22.5692 33.1463
L22.5019 33.2810
" />
<path d="M22.5019 33.2810
L22.4346 33.3484
" />
<path d="M23.3774 32.4056
L23.0407 32.7423
" />
<path d="M23.0407 32.7423
L22.3335 32.0352
" />
<path d="M23.9498 31.6985
L23.9498 31.7658
" />
<path d="M23.9498 31.7658
L23.8824 31.9005
" />
<path d="M23.8824 31.9005
L23.8151 31.9678
" />
<path d="M23.8151 31.9678
L23.6804 32.0352
" />
<path d="M23.6804 32.0352
L23.5457 32.0352
" />
<path d="M23.5457 32.0352
L23.4447 32.0015
" />
<path d="M23.4447 32.0015
L23.2764 31.9005
" />
<path d="M23.2764 31.9005
L23.1753 31.7995
" />
<path d="M23.1753 31.7995
L23.0743 31.6311
" />
<path d="M23.0743 31.6311
L23.0407 31.5301
" />
<path d="M23.0407 31.5301
L23.0407 31.3954
" />
<path d="M23.0407 31.3954
L23.1080 31.2607
" />
<path d="M23.1080 31.2607
L23.1753 31.1934
" />
<path d="M23.1753 31.1934
L23.3100 31.1260
" />
<path d="M23.3100 31.1260
L23.3774 31.1260
" />
<path d="M23.8151 30.5536
L24.3202 31.0587
" />
<path d="M24.3202 31.0587
L24.3875 31.1934
" />
<path d="M24.3875 31.1934
L24.3875 31.3281
" />
<path d="M24.3875 31.3281
L24.3202 31.4628
" />
<path d="M24.3202 31.4628
L24.2528 31.5301
" />
<path d="M25.1956 30.5873
L24.8589 30.9240
" />
<path d="M24.8589 30.9240
L24.1518 30.2169
" />
<path d="M25.7681 29.8802
L25.7681 29.9475
" />
<path d="M25.7681 29.9475
L25.7007 30.0822
" />
<path d="M25.7007 30.0822
L25.6334 30.1496
" />
<path d="M25.6334 30.1496
L25.4987 30.2169
" />
<path d="M25.4987 30.2169
L25.3640 30.2169
" />
<path d="M25.3640 30.2169
L25.2630 30.1832
" />
<path d="M25.2630 30.1832
L25.0946 30.0822
" />
<path d="M25.0946 30.0822
L24.9936 29.9812
" />
<path d="M24.9936 29.9812
L24.8926 29.8128
" />
<path d="M24.8926 29.8128
L24.8589 29.7118
" />
<path d="M24.8589 29.7118
L24.8589 29.5771
" />
<path d="M24.8589 29.5771
L24.9263 29.4425
" />
<path d="M24.9263 29.4425
L24.9936 29.3751
" />
<path d="M24.9936 29.3751
L25.1283 29.3078
" />
<path d="M25.1283 29.3078
L25.1956 29.3078
" />
<path d="M25.6334 28.7354
L26.1385 29.2404
" />
<path d="M26.1385 29.2404
L26.2058 29.3751
" />
<path d="M26.2058 29.3751
L26.2058 29.5098
" />
<path d="M26.2058 29.5098
L26.1385 29.6445
" />
<path d="M26.1385 29.6445
L26.0711 29.7118
" />
<path d="M27.0139 28.7690
L26.6772 29.1057
" />
<path d="M26.6772 29.1057
L25.9701 28.3986
" />
<path d="M27.5863 28.0619
L27.5863 28.1293
" />
<path d="M27.5863 28.1293
L27.5190 28.2639
" />
<path d="M27.5190 28.2639
L27.4517 28.3313
" />
<path d="M27.4517 28.3313
L27.3170 28.3986
" />
<path d="M27.3170 28.3986
L27.1823 28.3986
" />
<path d="M27.1823 28.3986
L27.0813 28.3650
" />
<path d="M27.0813 28.3650
L26.9129 28.2639
" />
<path d="M26.9129 28.2639
L26.8119 28.1629
" />
<path d="M26.8119 28.1629
L26.7109 27.9946
" />
<path d="M26.7109 27.9946
L26.6772 27.8936
" />
<path d="M26.6772 27.8936
L26.6772 27.7589
" />
<path d="M26.6772 27.7589
L26.7445 27.6242
" />
<path d="M26.7445 27.6242
L26.8119 27.5568
" />
<path d="M26.8119 27.5568
L26.9466 27.4895
" />
<path d="M26.9466 27.4895
L27.0139 27.4895
" />
</g></g>
<g style="fill:#000000; fill-opacity:0.0; 
stroke:#000000; stroke-width:0.2540; stroke-opacity:1; 
stroke-linecap:round; stroke-linejoin:round;">
<g transform="rotate(-90.000000 24.0020 60.7500)">
<text x="24.0020" y="61.3850"
textLength="4.2515" font-size="1.6933" lengthAdjust="spacingAndGlyphs"
text-anchor="middle" opacity="0">SW2</text>
</g>
<g class="stroked-text"><desc>SW2</desc>
<path d="M24.5158 62.4433
L24.5763 62.2619
" />
<path d="M24.5763 62.2619
L24.5763 61.9595
" />
<path d="M24.5763 61.9595
L24.5158 61.8386
" />
<path d="M24.5158 61.8386
L24.4554 61.7781
" />
<path d="M24.4554 61.7781
L24.3344 61.7176
" />
<path d="M24.3344 61.7176
L24.2135 61.7176
" />
<path d="M24.2135 61.7176
L24.0925 61.7781
" />
<path d="M24.0925 61.7781
L24.0320 61.8386
" />
<path d="M24.0320 61.8386
L23.9716 61.9595
" />
<path d="M23.9716 61.9595
L23.9111 62.2014
" />
<path d="M23.9111 62.2014
L23.8506 62.3224
" />
<path d="M23.8506 62.3224
L23.7901 62.3829
" />
<path d="M23.7901 62.3829
L23.6692 62.4433
" />
<path d="M23.6692 62.4433
L23.5482 62.4433
" />
<path d="M23.5482 62.4433
L23.4273 62.3829
" />
<path d="M23.4273 62.3829
L23.3668 62.3224
" />
<path d="M23.3668 62.3224
L23.3063 62.2014
" />
<path d="M23.3063 62.2014
L23.3063 61.8990
" />
<path d="M23.3063 61.8990
L23.3668 61.7176
" />
<path d="M23.3063 61.2943
L24.5763 60.9919
" />
<path d="M24.5763 60.9919
L23.6692 60.7500
" />
<path d="M23.6692 60.7500
L24.5763 60.5081
" />
<path d="M24.5763 60.5081
L23.3063 60.2057
" />
<path d="M23.4273 59.7824
L23.3668 59.7219
" />
<path d="M23.3668 59.7219
L23.3063 59.6010
" />
<path d="M23.3063 59.6010
L23.3063 59.2986
" />
<path d="M23.3063 59.2986
L23.3668 59.1776
" />
<path d="M23.3668 59.1776
L23.4273 59.1171
" />
<path d="M23.4273 59.1171
L23.5482 59.0567
" />
<path d="M23.5482 59.0567
L23.6692 59.0567
" />
<path d="M23.6692 59.0567
L23.8506 59.1171
" />
<path d="M23.8506 59.1171
L24.5763 59.8429
" />
<path d="M24.5763 59.8429
L24.5763 59.0567
" />
</g></g>
<g style="fill:#000000; fill-opacity:0.0; 
stroke:#000000; stroke-width:0.1200; stroke-opacity:1; 
stroke-linecap:round; stroke-linejoin:round;">
<path d="M13.0225 27.5127
L13.0225 27.9873
" />
<path d="M11.9775 27.5127
L11.9775 27.9873
" />
<path d="M18.8372 66.9900
L19.1628 66.9900
" />
<path d="M18.8372 68.0100
L19.1628 68.0100
" />
<path d="M18.3920 49.8760
L18.6520 49.8760
" />
<path d="M18.6520 49.8760
L18.6520 51.5510
" />
<path d="M23.8420 49.8760
L23.5820 49.8760
" />
<path d="M18.3920 47.1510
L18.3920 49.8760
" />
<path d="M18.3920 47.1510
L18.3920 44.4260
" />
<path d="M23.8420 47.1510
L23.8420 49.8760
" />
<path d="M23.8420 47.1510
L23.8420 44.4260
" />
<path d="M18.3920 44.4260
L18.6520 44.4260
" />
<path d="M23.8420 44.4260
L23.5820 44.4260
" />
<path d="M18.5000 2.4000
L18.5000 6.5000
" />
<path d="M16.5000 2.4000
L18.5000 2.4000
" />
<path d="M16.0000 2.8500
L16.0000 3.4500
" />
<path d="M16.3000 3.1500
L16.0000 2.8500
" />
<path d="M16.3000 3.1500
L16.0000 3.4500
" />
<path d="M18.5000 6.5000
L16.5000 6.5000
" />
<path d="M16.5000 6.5000
L16.5000 2.4000
" />
<path d="M30.1195 57.4873
L30.1195 57.0127
" />
<path d="M31.1645 57.4873
L31.1645 57.0127
" />
<path d="M43.8700 42.6300
L43.8700 43.9600
" />
<path d="M42.5400 42.6300
L43.8700 42.6300
" />
<path d="M41.2700 42.6300
L36.1300 42.6300
" />
<path d="M41.2700 42.6300
L41.2700 45.2300
" />
<path d="M36.1300 42.6300
L36.1300 47.8300
" />
<path d="M43.8700 45.2300
L43.8700 47.8300
" />
<path d="M41.2700 45.2300
L43.8700 45.2300
" />
<path d="M43.8700 47.8300
L36.1300 47.8300
" />
<path d="M31.1125 63.4400
L29.3125 63.4400
" />
<path d="M31.1125 63.4400
L31.9125 63.4400
" />
<path d="M31.1125 66.5600
L30.3125 66.5600
" />
<path d="M31.1125 66.5600
L31.9125 66.5600
" />
<path d="M5.2478 48.1508
L5.2478 46.8208
" />
<path d="M6.5778 48.1508
L5.2478 48.1508
" />
<path d="M7.8478 48.1508
L12.9878 48.1508
" />
<path d="M7.8478 48.1508
L7.8478 45.4908
" />
<path d="M12.9878 48.1508
L12.9878 45.4908
" />
<path d="M7.8478 45.4908
L12.9878 45.4908
" />
<path d="M44.3100 48.9700
L36.6900 48.9700
" />
<path d="M44.3100 48.9700
L44.3100 69.2900
" />
<path d="M36.6900 48.9700
L36.6900 69.2900
" />
<path d="M37.9600 69.2900
L37.9600 48.9700
" />
<path d="M36.6900 69.2900
L44.3100 69.2900
" />
<path d="M25.7650 71.5113
L25.7650 70.9887
" />
<path d="M27.2350 71.5113
L27.2350 70.9887
" />
<path d="M29.1100 36.8600
L29.1100 35.9100
" />
<path d="M29.1100 35.9100
L30.4500 35.9100
" />
<path d="M29.1100 26.6400
L29.1100 27.5900
" />
<path d="M28.1600 36.8600
L29.1100 36.8600
" />
<path d="M28.1600 26.6400
L29.1100 26.6400
" />
<path d="M19.8400 36.8600
L18.8900 36.8600
" />
<path d="M19.8400 26.6400
L18.8900 26.6400
" />
<path d="M18.8900 36.8600
L18.8900 35.9100
" />
<path d="M18.8900 26.6400
L18.8900 27.5900
" />
<path d="M22.6546 53.1220
L22.3734 53.1220
" />
<path d="M22.6546 52.1020
L22.3734 52.1020
" />
<path d="M44.3100 9.2100
L36.6900 9.2100
" />
<path d="M44.3100 9.2100
L44.3100 29.5300
" />
<path d="M36.6900 9.2100
L36.6900 29.5300
" />
<path d="M37.9600 29.5300
L37.9600 9.2100
" />
<path d="M36.6900 29.5300
L44.3100 29.5300
" />
<path d="M35.1050 49.1050
L33.7750 49.1050
" />
<path d="M35.1050 47.7750
L35.1050 49.1050
" />
<path d="M35.1050 46.5050
L35.1050 41.3650
" />
<path d="M35.1050 46.5050
L32.5050 46.5050
" />
<path d="M35.1050 41.3650
L29.9050 41.3650
" />
<path d="M32.5050 49.1050
L29.9050 49.1050
" />
<path d="M32.5050 46.5050
L32.5050 49.1050
" />
<path d="M29.9050 49.1050
L29.9050 41.3650
" />
<path d="M3.6900 29.5300
L11.3100 29.5300
" />
<path d="M3.6900 29.5300
L3.6900 9.2100
" />
<path d="M11.3100 29.5300
L11.3100 9.2100
" />
<path d="M10.0400 9.2100
L10.0400 29.5300
" />
<path d="M11.3100 9.2100
L3.6900 9.2100
" />
<path d="M27.9000 68.8400
L33.9100 68.8400
" />
<path d="M30.1500 75.6600
L33.9100 75.6600
" />
<path d="M33.9100 68.8400
L33.9100 70.1000
" />
<path d="M33.9100 75.6600
L33.9100 74.4000
" />
<path d="M32.2400 30.6406
L32.2400 30.3594
" />
<path d="M33.2600 30.6406
L33.2600 30.3594
" />
<path d="M29.3212 52.4744
L27.5212 52.4744
" />
<path d="M29.3212 52.4744
L30.1212 52.4744
" />
<path d="M29.3212 55.5944
L28.5212 55.5944
" />
<path d="M29.3212 55.5944
L30.1212 55.5944
" />
<path d="M31.9873 68.0225
L31.5127 68.0225
" />
<path d="M31.9873 66.9775
L31.5127 66.9775
" />
</g>
<g style="fill:#000000; fill-opacity:0.0; 
stroke:#000000; stroke-width:0.2000; stroke-opacity:1; 
stroke-linecap:round; stroke-linejoin:round;">
<path d="M22.5000 65.2500
L25.5000 65.2500
" />
<path d="M22.5000 65.2500
L22.5000 64.0730
" />
<path d="M25.5000 65.2500
L25.5000 64.0730
" />
</g>
<g style="fill:#000000; fill-opacity:1.0000; 
stroke:#000000; stroke-width:0.0000; stroke-opacity:1; 
stroke-linecap:round; stroke-linejoin:round;">
<circle cx="27.9680" cy="64.3640" r="0.0358" /> 
<circle cx="27.9680" cy="64.2920" r="0.0358" /> 
</g>
<g style="fill:#000000; fill-opacity:1.0000; 
stroke:#000000; stroke-width:0.2000; stroke-opacity:1; 
stroke-linecap:round; stroke-linejoin:round;">
</g>
<g style="fill:#000000; fill-opacity:0.0; 
stroke:#000000; stroke-width:0.2000; stroke-opacity:1; 
stroke-linecap:round; stroke-linejoin:round;">
<path d="M22.5000 56.2500
L22.5000 57.4270
" />
<path d="M25.5000 56.2500
L25.5000 57.4270
" />
<path d="M25.5000 56.2500
L22.5000 56.2500
" />
</g>
<g style="fill:#000000; fill-opacity:0.0; 
stroke:#000000; stroke-width:0.0716; stroke-opacity:1; 
stroke-linecap:round; stroke-linejoin:round;">
<path d="M27.9680 64.2920 A0.0360 0.0360 0.0 0 0 27.9680 64.3640" />
<path d="M27.9680 64.3640 A0.0360 0.0360 0.0 0 0 27.9680 64.2920" />
</g>
<g style="fill:#000000; fill-opacity:0.0; 
stroke:#000000; stroke-width:0.1200; stroke-opacity:1; 
stroke-linecap:round; stroke-linejoin:round;">
<path d="M15.0800 13.4500
L13.7500 13.4500
" />
<path d="M15.0800 12.1200
L15.0800 13.4500
" />
<path d="M15.0800 10.8500
L15.0800 3.1700
" />
<path d="M15.0800 10.8500
L12.4200 10.8500
" />
<path d="M15.0800 3.1700
L12.4200 3.1700
" />
<path d="M12.4200 10.8500
L12.4200 3.1700
" />
<path d="M3.9400 69.1600
L11.5600 69.1600
" />
<path d="M3.9400 69.1600
L3.9400 48.8400
" />
<path d="M11.5600 69.1600
L11.5600 48.8400
" />
<path d="M10.2900 48.8400
L10.2900 69.1600
" />
<path d="M11.5600 48.8400
L3.9400 48.8400
" />
<path d="M29.3045 52.0677
L28.8299 52.0677
" />
<path d="M29.3045 51.0227
L28.8299 51.0227
" />
<path d="M18.6996 57.7503
L18.6996 58.9545
" />
<path d="M16.8796 57.7503
L16.8796 58.9545
" />
<path d="M20.8775 66.5400
L20.8775 68.4600
" />
<path d="M20.8775 68.4600
L23.5625 68.4600
" />
<path d="M23.5625 66.5400
L20.8775 66.5400
" />
<path d="M34.9304 4.2384
L34.9304 10.3584
" />
<path d="M31.2304 4.2384
L34.9304 4.2384
" />
<path d="M34.9304 10.3584
L31.2304 10.3584
" />
<path d="M31.2304 10.3584
L31.2304 4.2384
" />
<path d="M30.9873 63.0225
L30.5127 63.0225
" />
<path d="M30.9873 61.9775
L30.5127 61.9775
" />
<path d="M27.1119 49.9376
L27.1119 45.8376
" />
<path d="M29.1119 49.9376
L27.1119 49.9376
" />
<path d="M29.6119 49.4876
L29.6119 48.8876
" />
<path d="M29.3119 49.1876
L29.6119 49.4876
" />
<path d="M29.3119 49.1876
L29.6119 48.8876
" />
<path d="M27.1119 45.8376
L29.1119 45.8376
" />
<path d="M29.1119 45.8376
L29.1119 49.9376
" />
<path d="M35.8300 24.4500
L34.5000 24.4500
" />
<path d="M35.8300 23.1200
L35.8300 24.4500
" />
<path d="M35.8300 21.8500
L35.8300 14.1700
" />
<path d="M35.8300 21.8500
L33.1700 21.8500
" />
<path d="M35.8300 14.1700
L33.1700 14.1700
" />
<path d="M33.1700 21.8500
L33.1700 14.1700
" />
<path d="M14.7500 32.4400
L12.9500 32.4400
" />
<path d="M14.7500 32.4400
L15.5500 32.4400
" />
<path d="M14.7500 35.5600
L13.9500 35.5600
" />
<path d="M14.7500 35.5600
L15.5500 35.5600
" />
<path d="M9.9240 31.4084
L9.9240 33.4684
" />
<path d="M8.2140 31.4084
L9.9240 31.4084
" />
<path d="M4.1040 31.4084
L5.7140 31.4084
" />
<path d="M4.1040 31.4084
L4.1040 39.1284
" />
<path d="M9.9240 33.4684
L10.5140 33.4684
" />
<path d="M9.9240 39.1284
L9.9240 37.0684
" />
<path d="M8.2140 39.1284
L9.9240 39.1284
" />
<path d="M4.1040 39.1284
L5.7140 39.1284
" />
<path d="M32.3302 12.4780
L32.6114 12.4780
" />
<path d="M32.3302 13.4980
L32.6114 13.4980
" />
<path d="M33.9128 28.5100
L33.5872 28.5100
" />
<path d="M33.9128 27.4900
L33.5872 27.4900
" />
<path d="M23.7223 18.9445
L23.7223 19.4191
" />
<path d="M22.6773 18.9445
L22.6773 19.4191
" />
<path d="M16.1280 62.7212
L16.1280 64.5212
" />
<path d="M16.1280 62.7212
L16.1280 61.9212
" />
<path d="M19.2480 62.7212
L19.2480 63.5212
" />
<path d="M19.2480 62.7212
L19.2480 61.9212
" />
<path d="M27.6850 68.4600
L27.6850 66.5400
" />
<path d="M27.6850 66.5400
L25.0000 66.5400
" />
<path d="M25.0000 68.4600
L27.6850 68.4600
" />
<path d="M22.0713 18.8975
L22.0713 19.3721
" />
<path d="M21.0263 18.8975
L21.0263 19.3721
" />
<path d="M11.2275 36.6441
L11.2275 36.1695
" />
<path d="M12.2725 36.6441
L12.2725 36.1695
" />
<path d="M22.7350 72.9887
L22.7350 73.5113
" />
<path d="M21.2650 72.9887
L21.2650 73.5113
" />
<path d="M22.4006 54.7730
L22.1194 54.7730
" />
<path d="M22.4006 53.7530
L22.1194 53.7530
" />
<path d="M35.0540 33.3690
L35.0540 34.0090
" />
<path d="M34.3240 35.2490
L35.0140 35.2490
" />
<path d="M34.1140 32.3290
L33.7740 32.3290
" />
<path d="M34.1040 35.0490
L33.7740 35.0490
" />
<path d="M32.8340 33.3690
L32.8340 34.0090
" />
<path d="M34.1040 35.0490 A0.3324 0.3324 0.0 0 0 34.3240 35.2490" />
<path d="M13.8324 42.3590
L15.7524 42.3590
" />
<path d="M15.7524 42.3590
L15.7524 39.6740
" />
<path d="M13.8324 39.6740
L13.8324 42.3590
" />
<path d="M13.7375 27.9873
L13.7375 27.5127
" />
<path d="M14.7825 27.9873
L14.7825 27.5127
" />
</g>
<g style="fill:#000000; fill-opacity:0.0; 
stroke:#000000; stroke-width:0.1270; stroke-opacity:1; 
stroke-linecap:round; stroke-linejoin:round;">
<path d="M27.2500 17.5000
L27.5425 17.5000
" />
<path d="M27.2500 17.5425
L27.2500 17.5000
" />
<path d="M27.2500 19.5000
L27.2500 19.4575
" />
<path d="M27.2500 19.5000
L27.5425 19.5000
" />
<path d="M28.9575 17.5000
L29.2500 17.5000
" />
<path d="M29.2500 17.5000
L29.2500 17.5425
" />
<path d="M29.2500 19.4575
L29.2500 19.5000
" />
<path d="M29.2500 19.5000
L28.9575 19.5000
" />
</g>
<g style="fill:#000000; fill-opacity:0.0; 
stroke:#000000; stroke-width:0.2000; stroke-opacity:1; 
stroke-linecap:round; stroke-linejoin:round;">
<circle cx="28.5000" cy="16.9125" r="0.1000" /> 
</g>
<g style="fill:#000000; fill-opacity:0.0; 
stroke:#000000; stroke-width:0.1200; stroke-opacity:1; 
stroke-linecap:round; stroke-linejoin:round;">
<path d="M43.8550 36.3800
L43.8550 37.7100
" />
<path d="M42.5250 36.3800
L43.8550 36.3800
" />
<path d="M41.2550 36.3800
L36.1150 36.3800
" />
<path d="M41.2550 36.3800
L41.2550 38.9800
" />
<path d="M36.1150 36.3800
L36.1150 41.5800
" />
<path d="M43.8550 38.9800
L43.8550 41.5800
" />
<path d="M41.2550 38.9800
L43.8550 38.9800
" />
<path d="M43.8550 41.5800
L36.1150 41.5800
" />
<path d="M22.4887 69.0150
L23.0113 69.0150
" />
<path d="M22.4887 70.4850
L23.0113 70.4850
" />
<path d="M33.9900 30.6406
L33.9900 30.3594
" />
<path d="M35.0100 30.6406
L35.0100 30.3594
" />
<path d="M27.1500 41.5500
L27.1500 44.4500
" />
<path d="M26.5500 41.5500
L27.1500 41.5500
" />
<path d="M24.8500 41.5500
L24.8500 44.4500
" />
<path d="M20.3500 75.6600
L14.3400 75.6600
" />
<path d="M18.1000 68.8400
L14.3400 68.8400
" />
<path d="M14.3400 75.6600
L14.3400 74.4000
" />
<path d="M14.3400 68.8400
L14.3400 70.1000
" />
</g>
<g style="fill:#000000; fill-opacity:0.0; 
stroke:#000000; stroke-width:0.1270; stroke-opacity:1; 
stroke-linecap:round; stroke-linejoin:round;">
<path d="M13.2500 17.2500
L13.5000 17.2500
" />
<path d="M13.2500 18.2500
L13.2500 17.2500
" />
<path d="M13.2500 20.2500
L13.2500 19.2500
" />
<path d="M13.5000 20.2500
L13.2500 20.2500
" />
<path d="M17.7500 17.2500
L17.5000 17.2500
" />
<path d="M17.7500 18.2500
L17.7500 17.2500
" />
<path d="M17.7500 19.2500
L17.7500 20.2500
" />
<path d="M17.7500 20.2500
L17.5000 20.2500
" />
</g>
<g style="fill:#000000; fill-opacity:0.0; 
stroke:#000000; stroke-width:0.2000; stroke-opacity:1; 
stroke-linecap:round; stroke-linejoin:round;">
<circle cx="13.8710" cy="16.6500" r="0.1000" /> 
</g>
<g style="fill:#000000; fill-opacity:0.0; 
stroke:#000000; stroke-width:0.1200; stroke-opacity:1; 
stroke-linecap:round; stroke-linejoin:round;">
<path d="M25.1883 75.3180
L24.6657 75.3180
" />
<path d="M25.1883 73.8480
L24.6657 73.8480
" />
<g >
</g>
<g >
</g>
<g >
</g>
<g >
</g>
<g >
</g>
<g >
</g>
<g >
</g>
<g >
</g>
<g >
</g>
<g >
</g>
<g >
</g>
<g >
</g>
<g >
</g>
<g >
</g>
<g >
</g>
<g >
</g>
<g >
</g>
<g >
</g>
<g >
</g>
<g >
</g>
<g >
</g>
<g >
</g>
<g >
</g>
<g >
</g>
<g >
</g>
<g >
</g>
<g >
</g>
<g >
</g>
<g >
</g>
<g >
</g>
<g >
</g>
<g >
</g>
<g >
</g>
<g >
</g>
<g >
</g>
<g >
</g>
<g >
</g>
<g >
</g>
<g >
</g>
<g >
</g>
<g >
</g>
<g >
</g>
<g >
</g>
<g >
</g>
<g >
</g>
<g >
</g>
<g >
</g>
<g >
</g>
<g >
</g>
<g >
</g>
<g >
</g>
<g >
</g>
<g >
</g>
<g >
</g>
<g >
</g>
<g >
</g>
<g >
</g>
<g >
</g>
<g >
</g>
<g >
</g>
<g >
</g>
<g >
</g>
<g >
</g>
<g >
</g>
<g >
</g>
<g >
</g>
<g >
</g>
<g >
</g>
<g >
</g>
<g >
</g>
<g >
</g>
<g >
</g>
<g >
</g>
<g >
</g>
<g >
</g>
<g >
</g>
<g >
</g>
<g >
</g>
<g >
</g>
<g >
</g>
<g >
</g>
<g >
</g>
<g >
</g>
<g >
</g>
<g >
</g>
</g>
<g style="fill:#000000; fill-opacity:0.0; 
stroke:#000000; stroke-width:0.1200; stroke-opacity:1; 
stroke-linecap:round; stroke-linejoin:round;">
</g>
<g style="fill:#000000; fill-opacity:0.0; 
stroke:#000000; stroke-width:0.1000; stroke-opacity:1; 
stroke-linecap:round; stroke-linejoin:round;">
<path style="fill:#000000; fill-opacity:0.0; 
stroke:#000000; stroke-width:0.1000; stroke-opacity:1; 
stroke-linecap:round; stroke-linejoin:round;fill:none"
d="M 4.0000,1.7500
44.0000,1.7500
44.0000,76.7500
4.0000,76.7500
Z" /> 
<g >
</g>
<g >
</g>
<g >
</g>
<g >
</g>
<g >
</g>
<g >
</g>
<g >
</g>
<g >
</g>
<g >
</g>
<g >
</g>
<g >
</g>
<g >
</g>
<g >
</g>
<g >
</g>
<g >
</g>
<g >
</g>
<g >
</g>
<g >
</g>
<g >
</g>
<g >
</g>
<g >
</g>
<g >
</g>
<g >
</g>
<g >
</g>
<g >
</g>
<g >
</g>
<g >
</g>
<g >
</g>
<g >
</g>
<g >
</g>
<g >
</g>
<g >
</g>
<g >
</g>
<g >
</g>
<g >
</g>
<g >
</g>
<g >
</g>
<g >
</g>
<g >
</g>
<g >
</g>
<g >
</g>
<g >
</g>
<g >
</g>
<g >
</g>
<g >
</g>
<g >
</g>
<g >
</g>
<g >
</g>
<g >
</g>
<g >
</g>
<g >
</g>
<g >
</g>
<g >
</g>
<g >
</g>
<g >
</g>
<g >
</g>
<g >
</g>
<g >
</g>
<g >
</g>
<g >
</g>
<g >
</g>
<g >
</g>
<g >
</g>
<g >
</g>
<g >
</g>
<g >
</g>
<g >
</g>
<g >
</g>
<g >
</g>
<g >
</g>
<g >
</g>
<g >
</g>
<g >
</g>
<g >
</g>
<g >
</g>
<g >
</g>
<g >
</g>
<g >
</g>
<g >
</g>
<g >
</g>
<g >
</g>
<g >
</g>
<g >
</g>
<g >
</g>
<g >
</g>
</g> 
</svg>
