%TF.GenerationSoftware,KiCad,Pcbnew,7.0.5*%
%TF.CreationDate,2023-12-10T00:27:40-08:00*%
%TF.ProjectId,Lyrav3,4c797261-7633-42e6-9b69-6361645f7063,rev?*%
%TF.SameCoordinates,Original*%
%TF.FileFunction,Copper,L4,Bot*%
%TF.FilePolarity,Positive*%
%FSLAX46Y46*%
G04 Gerber Fmt 4.6, Leading zero omitted, Abs format (unit mm)*
G04 Created by KiCad (PCBNEW 7.0.5) date 2023-12-10 00:27:40*
%MOMM*%
%LPD*%
G01*
G04 APERTURE LIST*
G04 Aperture macros list*
%AMRoundRect*
0 Rectangle with rounded corners*
0 $1 Rounding radius*
0 $2 $3 $4 $5 $6 $7 $8 $9 X,Y pos of 4 corners*
0 Add a 4 corners polygon primitive as box body*
4,1,4,$2,$3,$4,$5,$6,$7,$8,$9,$2,$3,0*
0 Add four circle primitives for the rounded corners*
1,1,$1+$1,$2,$3*
1,1,$1+$1,$4,$5*
1,1,$1+$1,$6,$7*
1,1,$1+$1,$8,$9*
0 Add four rect primitives between the rounded corners*
20,1,$1+$1,$2,$3,$4,$5,0*
20,1,$1+$1,$4,$5,$6,$7,0*
20,1,$1+$1,$6,$7,$8,$9,0*
20,1,$1+$1,$8,$9,$2,$3,0*%
%AMFreePoly0*
4,1,9,3.862500,-0.866500,0.737500,-0.866500,0.737500,-0.450000,-0.737500,-0.450000,-0.737500,0.450000,0.737500,0.450000,0.737500,0.866500,3.862500,0.866500,3.862500,-0.866500,3.862500,-0.866500,$1*%
%AMFreePoly1*
4,1,19,0.000000,0.744911,0.071157,0.744911,0.207708,0.704816,0.327430,0.627875,0.420627,0.520320,0.479746,0.390866,0.500000,0.250000,0.500000,-0.250000,0.479746,-0.390866,0.420627,-0.520320,0.327430,-0.627875,0.207708,-0.704816,0.071157,-0.744911,0.000000,-0.744911,0.000000,-0.750000,-0.500000,-0.750000,-0.500000,0.750000,0.000000,0.750000,0.000000,0.744911,0.000000,0.744911,
$1*%
%AMFreePoly2*
4,1,19,0.500000,-0.750000,0.000000,-0.750000,0.000000,-0.744911,-0.071157,-0.744911,-0.207708,-0.704816,-0.327430,-0.627875,-0.420627,-0.520320,-0.479746,-0.390866,-0.500000,-0.250000,-0.500000,0.250000,-0.479746,0.390866,-0.420627,0.520320,-0.327430,0.627875,-0.207708,0.704816,-0.071157,0.744911,0.000000,0.744911,0.000000,0.750000,0.500000,0.750000,0.500000,-0.750000,0.500000,-0.750000,
$1*%
G04 Aperture macros list end*
%TA.AperFunction,SMDPad,CuDef*%
%ADD10RoundRect,0.150000X-0.587500X-0.150000X0.587500X-0.150000X0.587500X0.150000X-0.587500X0.150000X0*%
%TD*%
%TA.AperFunction,SMDPad,CuDef*%
%ADD11RoundRect,0.150000X0.150000X-0.650000X0.150000X0.650000X-0.150000X0.650000X-0.150000X-0.650000X0*%
%TD*%
%TA.AperFunction,SMDPad,CuDef*%
%ADD12RoundRect,0.112500X0.112500X-0.187500X0.112500X0.187500X-0.112500X0.187500X-0.112500X-0.187500X0*%
%TD*%
%TA.AperFunction,SMDPad,CuDef*%
%ADD13R,1.300000X0.900000*%
%TD*%
%TA.AperFunction,SMDPad,CuDef*%
%ADD14FreePoly0,0.000000*%
%TD*%
%TA.AperFunction,SMDPad,CuDef*%
%ADD15RoundRect,0.200000X0.200000X0.275000X-0.200000X0.275000X-0.200000X-0.275000X0.200000X-0.275000X0*%
%TD*%
%TA.AperFunction,SMDPad,CuDef*%
%ADD16RoundRect,0.200000X0.275000X-0.200000X0.275000X0.200000X-0.275000X0.200000X-0.275000X-0.200000X0*%
%TD*%
%TA.AperFunction,SMDPad,CuDef*%
%ADD17RoundRect,0.200000X-0.200000X-0.275000X0.200000X-0.275000X0.200000X0.275000X-0.200000X0.275000X0*%
%TD*%
%TA.AperFunction,SMDPad,CuDef*%
%ADD18RoundRect,0.200000X-0.275000X0.200000X-0.275000X-0.200000X0.275000X-0.200000X0.275000X0.200000X0*%
%TD*%
%TA.AperFunction,SMDPad,CuDef*%
%ADD19RoundRect,0.225000X0.250000X-0.225000X0.250000X0.225000X-0.250000X0.225000X-0.250000X-0.225000X0*%
%TD*%
%TA.AperFunction,SMDPad,CuDef*%
%ADD20RoundRect,0.225000X-0.225000X-0.250000X0.225000X-0.250000X0.225000X0.250000X-0.225000X0.250000X0*%
%TD*%
%TA.AperFunction,SMDPad,CuDef*%
%ADD21RoundRect,0.225000X0.225000X0.250000X-0.225000X0.250000X-0.225000X-0.250000X0.225000X-0.250000X0*%
%TD*%
%TA.AperFunction,SMDPad,CuDef*%
%ADD22RoundRect,0.225000X-0.250000X0.225000X-0.250000X-0.225000X0.250000X-0.225000X0.250000X0.225000X0*%
%TD*%
%TA.AperFunction,ComponentPad*%
%ADD23C,5.600000*%
%TD*%
%TA.AperFunction,SMDPad,CuDef*%
%ADD24R,0.375000X0.350000*%
%TD*%
%TA.AperFunction,SMDPad,CuDef*%
%ADD25R,0.350000X0.375000*%
%TD*%
%TA.AperFunction,SMDPad,CuDef*%
%ADD26RoundRect,0.150000X0.625000X-0.150000X0.625000X0.150000X-0.625000X0.150000X-0.625000X-0.150000X0*%
%TD*%
%TA.AperFunction,SMDPad,CuDef*%
%ADD27RoundRect,0.250000X0.650000X-0.350000X0.650000X0.350000X-0.650000X0.350000X-0.650000X-0.350000X0*%
%TD*%
%TA.AperFunction,SMDPad,CuDef*%
%ADD28R,3.200000X3.200000*%
%TD*%
%TA.AperFunction,SMDPad,CuDef*%
%ADD29RoundRect,0.050000X0.387500X-0.050000X0.387500X0.050000X-0.387500X0.050000X-0.387500X-0.050000X0*%
%TD*%
%TA.AperFunction,SMDPad,CuDef*%
%ADD30RoundRect,0.050000X0.050000X-0.387500X0.050000X0.387500X-0.050000X0.387500X-0.050000X-0.387500X0*%
%TD*%
%TA.AperFunction,SMDPad,CuDef*%
%ADD31RoundRect,0.150000X-0.150000X0.587500X-0.150000X-0.587500X0.150000X-0.587500X0.150000X0.587500X0*%
%TD*%
%TA.AperFunction,ComponentPad*%
%ADD32R,1.700000X1.700000*%
%TD*%
%TA.AperFunction,ComponentPad*%
%ADD33O,1.700000X1.700000*%
%TD*%
%TA.AperFunction,SMDPad,CuDef*%
%ADD34R,1.200000X1.400000*%
%TD*%
%TA.AperFunction,ComponentPad*%
%ADD35R,2.200000X2.200000*%
%TD*%
%TA.AperFunction,ComponentPad*%
%ADD36C,2.200000*%
%TD*%
%TA.AperFunction,ComponentPad*%
%ADD37O,1.900000X1.200000*%
%TD*%
%TA.AperFunction,ComponentPad*%
%ADD38O,1.400000X1.200000*%
%TD*%
%TA.AperFunction,SMDPad,CuDef*%
%ADD39R,1.600000X0.400000*%
%TD*%
%TA.AperFunction,SMDPad,CuDef*%
%ADD40FreePoly1,0.000000*%
%TD*%
%TA.AperFunction,SMDPad,CuDef*%
%ADD41FreePoly2,0.000000*%
%TD*%
%TA.AperFunction,SMDPad,CuDef*%
%ADD42R,0.800000X0.250000*%
%TD*%
%TA.AperFunction,SMDPad,CuDef*%
%ADD43R,0.250000X0.800000*%
%TD*%
%TA.AperFunction,SMDPad,CuDef*%
%ADD44R,1.550000X0.600000*%
%TD*%
%TA.AperFunction,SMDPad,CuDef*%
%ADD45O,0.450000X1.770000*%
%TD*%
%TA.AperFunction,SMDPad,CuDef*%
%ADD46R,0.300000X0.580000*%
%TD*%
%TA.AperFunction,SMDPad,CuDef*%
%ADD47R,0.250000X0.580000*%
%TD*%
%TA.AperFunction,SMDPad,CuDef*%
%ADD48R,0.630000X0.350000*%
%TD*%
%TA.AperFunction,SMDPad,CuDef*%
%ADD49RoundRect,0.125000X-0.125000X0.475000X-0.125000X-0.475000X0.125000X-0.475000X0.125000X0.475000X0*%
%TD*%
G04 APERTURE END LIST*
D10*
%TO.P,Q5,1,G*%
%TO.N,/P4 EN *%
X197133999Y-110678000D03*
%TO.P,Q5,2,S*%
%TO.N,GND*%
X197133999Y-108778000D03*
%TO.P,Q5,3,D*%
%TO.N,Net-(Q5-D)*%
X199008999Y-109728000D03*
%TD*%
%TO.P,Q4,1,G*%
%TO.N,/P3 EN *%
X196928500Y-105598000D03*
%TO.P,Q4,2,S*%
%TO.N,GND*%
X196928500Y-103698000D03*
%TO.P,Q4,3,D*%
%TO.N,Net-(Q4-D)*%
X198803500Y-104648000D03*
%TD*%
%TO.P,Q3,1,G*%
%TO.N,/P1 EN *%
X197260999Y-95692000D03*
%TO.P,Q3,2,S*%
%TO.N,GND*%
X197260999Y-93792000D03*
%TO.P,Q3,3,D*%
%TO.N,Net-(Q3-D)*%
X199135999Y-94742000D03*
%TD*%
%TO.P,Q2,1,G*%
%TO.N,/P2 EN *%
X197260999Y-100264000D03*
%TO.P,Q2,2,S*%
%TO.N,GND*%
X197260999Y-98364000D03*
%TO.P,Q2,3,D*%
%TO.N,Net-(Q2-D)*%
X199135999Y-99314000D03*
%TD*%
D11*
%TO.P,U7,1,~{CS}*%
%TO.N,/QSPI_SS*%
X194945000Y-98767000D03*
%TO.P,U7,2,DO(IO1)*%
%TO.N,/QSPI_SD1*%
X193675000Y-98767000D03*
%TO.P,U7,3,IO2*%
%TO.N,/QSPI_SD2*%
X192405000Y-98767000D03*
%TO.P,U7,4,GND*%
%TO.N,GND*%
X191135000Y-98767000D03*
%TO.P,U7,5,DI(IO0)*%
%TO.N,/QSPI_SDO*%
X191135000Y-91567000D03*
%TO.P,U7,6,CLK*%
%TO.N,/QSPI_SCLK*%
X192405000Y-91567000D03*
%TO.P,U7,7,IO3*%
%TO.N,/QSPI_SD3*%
X193675000Y-91567000D03*
%TO.P,U7,8,VCC*%
%TO.N,+3V3*%
X194945000Y-91567000D03*
%TD*%
D12*
%TO.P,D3,1,K*%
%TO.N,+12V*%
X200279000Y-89950000D03*
%TO.P,D3,2,A*%
%TO.N,Net-(D3-A)*%
X200279000Y-87850000D03*
%TD*%
D13*
%TO.P,U1,1,GND*%
%TO.N,GND*%
X195154000Y-117070000D03*
D14*
%TO.P,U1,2,VIN*%
%TO.N,+12VA*%
X195241500Y-115570000D03*
D13*
%TO.P,U1,3,VOUT*%
%TO.N,+3V3*%
X195154000Y-114070000D03*
%TD*%
D15*
%TO.P,R27,2*%
%TO.N,/P4 EN *%
X197041000Y-112268000D03*
%TO.P,R27,1*%
%TO.N,GND*%
X198691000Y-112268000D03*
%TD*%
%TO.P,R26,1*%
%TO.N,GND*%
X198564000Y-101981000D03*
%TO.P,R26,2*%
%TO.N,/P2 EN *%
X196914000Y-101981000D03*
%TD*%
%TO.P,R25,2*%
%TO.N,GND*%
X200660000Y-112776000D03*
%TO.P,R25,1*%
%TO.N,/P4 CONT *%
X202310000Y-112776000D03*
%TD*%
D16*
%TO.P,R24,2*%
%TO.N,GND*%
X201041000Y-100521000D03*
%TO.P,R24,1*%
%TO.N,/P2 CONT *%
X201041000Y-102171000D03*
%TD*%
D17*
%TO.P,R23,2*%
%TO.N,/P4 CONT *%
X202310000Y-111252000D03*
%TO.P,R23,1*%
%TO.N,Net-(Q5-D)*%
X200660000Y-111252000D03*
%TD*%
D16*
%TO.P,R22,1*%
%TO.N,/QSPI_SS*%
X202946000Y-67310000D03*
%TO.P,R22,2*%
%TO.N,/BOOTSEL*%
X202946000Y-65660000D03*
%TD*%
D18*
%TO.P,R21,1*%
%TO.N,Net-(Q2-D)*%
X202565000Y-100521000D03*
%TO.P,R21,2*%
%TO.N,/P2 CONT *%
X202565000Y-102171000D03*
%TD*%
D15*
%TO.P,R20,2*%
%TO.N,Net-(Q5-D)*%
X200812400Y-109728000D03*
%TO.P,R20,1*%
%TO.N,/P4-*%
X202462400Y-109728000D03*
%TD*%
%TO.P,R19,2*%
%TO.N,Net-(Q2-D)*%
X200978000Y-99060000D03*
%TO.P,R19,1*%
%TO.N,/P2-*%
X202628000Y-99060000D03*
%TD*%
D17*
%TO.P,R18,2*%
%TO.N,/USB_D-*%
X200799200Y-82931000D03*
%TO.P,R18,1*%
%TO.N,/RP USB_D-*%
X199149200Y-82931000D03*
%TD*%
D15*
%TO.P,R17,1*%
%TO.N,GND*%
X198437000Y-107188000D03*
%TO.P,R17,2*%
%TO.N,/P3 EN *%
X196787000Y-107188000D03*
%TD*%
%TO.P,R16,2*%
%TO.N,/P1 EN *%
X197041000Y-92202000D03*
%TO.P,R16,1*%
%TO.N,GND*%
X198691000Y-92202000D03*
%TD*%
%TO.P,R15,1*%
%TO.N,/USB_D+*%
X200773800Y-84455000D03*
%TO.P,R15,2*%
%TO.N,/RP USB_D+*%
X199123800Y-84455000D03*
%TD*%
D17*
%TO.P,R14,1*%
%TO.N,+3V3*%
X190919686Y-59969400D03*
%TO.P,R14,2*%
%TO.N,/RUN*%
X192569686Y-59969400D03*
%TD*%
D15*
%TO.P,R13,2*%
%TO.N,GND*%
X200749400Y-107188000D03*
%TO.P,R13,1*%
%TO.N,/P3 CONT *%
X202399400Y-107188000D03*
%TD*%
%TO.P,R12,1*%
%TO.N,/P1 CONT *%
X202628000Y-97536000D03*
%TO.P,R12,2*%
%TO.N,GND*%
X200978000Y-97536000D03*
%TD*%
D17*
%TO.P,R11,2*%
%TO.N,/P3 CONT *%
X202348600Y-105664000D03*
%TO.P,R11,1*%
%TO.N,Net-(Q4-D)*%
X200698600Y-105664000D03*
%TD*%
%TO.P,R10,1*%
%TO.N,Net-(Q3-D)*%
X200978000Y-96012000D03*
%TO.P,R10,2*%
%TO.N,/P1 CONT *%
X202628000Y-96012000D03*
%TD*%
D15*
%TO.P,R9,2*%
%TO.N,Net-(Q4-D)*%
X200710800Y-104190800D03*
%TO.P,R9,1*%
%TO.N,/P3-*%
X202360800Y-104190800D03*
%TD*%
%TO.P,R8,2*%
%TO.N,Net-(Q3-D)*%
X200978000Y-94488000D03*
%TO.P,R8,1*%
%TO.N,/P1-*%
X202628000Y-94488000D03*
%TD*%
D18*
%TO.P,R7,2*%
%TO.N,/I2C0 SDA*%
X194576286Y-72973200D03*
%TO.P,R7,1*%
%TO.N,+3V3*%
X194576286Y-71323200D03*
%TD*%
%TO.P,R6,2*%
%TO.N,/I2C0 SCL*%
X196227286Y-72973201D03*
%TO.P,R6,1*%
%TO.N,+3V3*%
X196227286Y-71323201D03*
%TD*%
D15*
%TO.P,R5,1*%
%TO.N,/BATT SENSE *%
X190893200Y-77060399D03*
%TO.P,R5,2*%
%TO.N,GND*%
X189243200Y-77060399D03*
%TD*%
D17*
%TO.P,R4,1*%
%TO.N,+12VA*%
X189268600Y-75590400D03*
%TO.P,R4,2*%
%TO.N,/BATT SENSE *%
X190918600Y-75590400D03*
%TD*%
D16*
%TO.P,R3,1*%
%TO.N,Net-(D2-A)*%
X202133200Y-79285600D03*
%TO.P,R3,2*%
%TO.N,+3V3*%
X202133200Y-77635600D03*
%TD*%
D17*
%TO.P,R2,1*%
%TO.N,Net-(D4-A)*%
X187783200Y-86004400D03*
%TO.P,R2,2*%
%TO.N,+3V3*%
X189433200Y-86004400D03*
%TD*%
D19*
%TO.P,C28,1*%
%TO.N,+3V3*%
X202438000Y-92456000D03*
%TO.P,C28,2*%
%TO.N,GND*%
X202438000Y-90906000D03*
%TD*%
%TO.P,C26,2*%
%TO.N,GND*%
X193294000Y-78358400D03*
%TO.P,C26,1*%
%TO.N,+3V3*%
X193294000Y-79908400D03*
%TD*%
D20*
%TO.P,C25,1*%
%TO.N,+3V3*%
X199123000Y-81407000D03*
%TO.P,C25,2*%
%TO.N,GND*%
X200673000Y-81407000D03*
%TD*%
D21*
%TO.P,C24,1*%
%TO.N,+3V3*%
X189395400Y-84455000D03*
%TO.P,C24,2*%
%TO.N,GND*%
X187845400Y-84455000D03*
%TD*%
%TO.P,C23,1*%
%TO.N,+3V3*%
X192799000Y-89662000D03*
%TO.P,C23,2*%
%TO.N,GND*%
X191249000Y-89662000D03*
%TD*%
%TO.P,C22,1*%
%TO.N,+3V3*%
X196736000Y-89662000D03*
%TO.P,C22,2*%
%TO.N,GND*%
X195186000Y-89662000D03*
%TD*%
D19*
%TO.P,C21,1*%
%TO.N,+3V3*%
X197002400Y-79857600D03*
%TO.P,C21,2*%
%TO.N,GND*%
X197002400Y-78307600D03*
%TD*%
D20*
%TO.P,C17,1*%
%TO.N,+1V1*%
X199136000Y-85979000D03*
%TO.P,C17,2*%
%TO.N,GND*%
X200686000Y-85979000D03*
%TD*%
D21*
%TO.P,C16,1*%
%TO.N,+1V1*%
X189370000Y-82931000D03*
%TO.P,C16,2*%
%TO.N,GND*%
X187820000Y-82931000D03*
%TD*%
D20*
%TO.P,C15,1*%
%TO.N,+3V3*%
X193662000Y-108712000D03*
%TO.P,C15,2*%
%TO.N,GND*%
X195212000Y-108712000D03*
%TD*%
%TO.P,C14,2*%
%TO.N,GND*%
X191579886Y-73986999D03*
%TO.P,C14,1*%
%TO.N,Net-(U5-C1)*%
X190029886Y-73986999D03*
%TD*%
D21*
%TO.P,C13,2*%
%TO.N,GND*%
X190918886Y-69922999D03*
%TO.P,C13,1*%
%TO.N,+3V3*%
X192468886Y-69922999D03*
%TD*%
D19*
%TO.P,C12,2*%
%TO.N,GND*%
X188899886Y-70938999D03*
%TO.P,C12,1*%
%TO.N,+3V3*%
X188899886Y-72488999D03*
%TD*%
%TO.P,C11,2*%
%TO.N,GND*%
X190563086Y-61556600D03*
%TO.P,C11,1*%
%TO.N,+3V3*%
X190563086Y-63106600D03*
%TD*%
D21*
%TO.P,C10,2*%
%TO.N,GND*%
X192632886Y-63042800D03*
%TO.P,C10,1*%
%TO.N,+3V3*%
X194182886Y-63042800D03*
%TD*%
D20*
%TO.P,C9,2*%
%TO.N,GND*%
X199720086Y-64008000D03*
%TO.P,C9,1*%
%TO.N,Net-(U3-CAP)*%
X198170086Y-64008000D03*
%TD*%
D21*
%TO.P,C8,2*%
%TO.N,GND*%
X189979000Y-105791000D03*
%TO.P,C8,1*%
%TO.N,+12VA*%
X191529000Y-105791000D03*
%TD*%
D22*
%TO.P,C6,1*%
%TO.N,+3V3*%
X191770000Y-113906000D03*
%TO.P,C6,2*%
%TO.N,GND*%
X191770000Y-115456000D03*
%TD*%
%TO.P,C5,1*%
%TO.N,+12VA*%
X193421000Y-115557000D03*
%TO.P,C5,2*%
%TO.N,GND*%
X193421000Y-117107000D03*
%TD*%
D19*
%TO.P,C3,2*%
%TO.N,GND*%
X196674486Y-62521800D03*
%TO.P,C3,1*%
%TO.N,+3V3*%
X196674486Y-64071800D03*
%TD*%
D21*
%TO.P,C2,2*%
%TO.N,GND*%
X199922686Y-70358000D03*
%TO.P,C2,1*%
%TO.N,+3V3*%
X201472686Y-70358000D03*
%TD*%
%TO.P,C1,2*%
%TO.N,GND*%
X200100486Y-75539600D03*
%TO.P,C1,1*%
%TO.N,+3V3*%
X201650486Y-75539600D03*
%TD*%
D23*
%TO.P,H3,1,1*%
%TO.N,GND*%
X186600000Y-116025000D03*
%TD*%
D24*
%TO.P,U5,12,GND*%
%TO.N,GND*%
X191694386Y-72204999D03*
%TO.P,U5,11,SDA/SDI/SDO*%
%TO.N,/I2C0 SDA*%
X191694386Y-71704999D03*
D25*
%TO.P,U5,10,~{CS}*%
%TO.N,+3V3*%
X191681886Y-71192499D03*
%TO.P,U5,9,SDO/SA1*%
%TO.N,GND*%
X191181886Y-71192499D03*
%TO.P,U5,8,DRDY*%
%TO.N,unconnected-(U5-DRDY-Pad8)*%
X190681886Y-71192499D03*
%TO.P,U5,7,INT*%
%TO.N,unconnected-(U5-INT-Pad7)*%
X190181886Y-71192499D03*
D24*
%TO.P,U5,6,Vdd_IO*%
%TO.N,+3V3*%
X190169386Y-71704999D03*
%TO.P,U5,5,Vdd*%
X190169386Y-72204999D03*
D25*
%TO.P,U5,4,C1*%
%TO.N,Net-(U5-C1)*%
X190181886Y-72717499D03*
%TO.P,U5,3,GND*%
%TO.N,GND*%
X190681886Y-72717499D03*
%TO.P,U5,2,GND*%
X191181886Y-72717499D03*
%TO.P,U5,1,SCL/SPC*%
%TO.N,/I2C0 SCL*%
X191681886Y-72717499D03*
%TD*%
D26*
%TO.P,J5,1,Pin_1*%
%TO.N,/SWCLK*%
X188518800Y-92964000D03*
%TO.P,J5,2,Pin_2*%
%TO.N,GND*%
X188518800Y-91964000D03*
%TO.P,J5,3,Pin_3*%
%TO.N,/SWD*%
X188518800Y-90964000D03*
D27*
%TO.P,J5,MP*%
%TO.N,N/C*%
X184643800Y-94264000D03*
X184643800Y-89664000D03*
%TD*%
D28*
%TO.P,U8,57,GND*%
%TO.N,GND*%
X194272000Y-84798000D03*
D29*
%TO.P,U8,56,QSPI_SS*%
%TO.N,/QSPI_SS*%
X197709500Y-87398000D03*
%TO.P,U8,55,QSPI_SD1*%
%TO.N,/QSPI_SD1*%
X197709500Y-86998000D03*
%TO.P,U8,54,QSPI_SD2*%
%TO.N,/QSPI_SD2*%
X197709500Y-86598000D03*
%TO.P,U8,53,QSPI_SD0*%
%TO.N,/QSPI_SDO*%
X197709500Y-86198000D03*
%TO.P,U8,52,QSPI_SCLK*%
%TO.N,/QSPI_SCLK*%
X197709500Y-85798000D03*
%TO.P,U8,51,QSPI_SD3*%
%TO.N,/QSPI_SD3*%
X197709500Y-85398000D03*
%TO.P,U8,50,DVDD*%
%TO.N,+1V1*%
X197709500Y-84998000D03*
%TO.P,U8,49,IOVDD*%
%TO.N,+3V3*%
X197709500Y-84598000D03*
%TO.P,U8,48,USB_VDD*%
X197709500Y-84198000D03*
%TO.P,U8,47,USB_DP*%
%TO.N,/RP USB_D+*%
X197709500Y-83798000D03*
%TO.P,U8,46,USB_DM*%
%TO.N,/RP USB_D-*%
X197709500Y-83398000D03*
%TO.P,U8,45,VREG_VOUT*%
%TO.N,+1V1*%
X197709500Y-82998000D03*
%TO.P,U8,44,VREG_IN*%
%TO.N,+3V3*%
X197709500Y-82598000D03*
%TO.P,U8,43,ADC_AVDD*%
X197709500Y-82198000D03*
D30*
%TO.P,U8,42,IOVDD*%
X196872000Y-81360500D03*
%TO.P,U8,41,GPIO29_ADC3*%
%TO.N,/BRKOUT4*%
X196472000Y-81360500D03*
%TO.P,U8,40,GPIO28_ADC2*%
%TO.N,/BRKOUT3*%
X196072000Y-81360500D03*
%TO.P,U8,39,GPIO27_ADC1*%
%TO.N,/BRKOUT2*%
X195672000Y-81360500D03*
%TO.P,U8,38,GPIO26_ADC0*%
%TO.N,/BATT SENSE *%
X195272000Y-81360500D03*
%TO.P,U8,37,GPIO25*%
%TO.N,/BRKOUT1*%
X194872000Y-81360500D03*
%TO.P,U8,36,GPIO24*%
%TO.N,unconnected-(U8-GPIO24-Pad36)*%
X194472000Y-81360500D03*
%TO.P,U8,35,GPIO23*%
%TO.N,unconnected-(U8-GPIO23-Pad35)*%
X194072000Y-81360500D03*
%TO.P,U8,34,GPIO22*%
%TO.N,/BUZZER*%
X193672000Y-81360500D03*
%TO.P,U8,33,IOVDD*%
%TO.N,+3V3*%
X193272000Y-81360500D03*
%TO.P,U8,32,GPIO21*%
%TO.N,unconnected-(U8-GPIO21-Pad32)*%
X192872000Y-81360500D03*
%TO.P,U8,31,GPIO20*%
%TO.N,unconnected-(U8-GPIO20-Pad31)*%
X192472000Y-81360500D03*
%TO.P,U8,30,GPIO19*%
%TO.N,unconnected-(U8-GPIO19-Pad30)*%
X192072000Y-81360500D03*
%TO.P,U8,29,GPIO18*%
%TO.N,/BRKOUT7*%
X191672000Y-81360500D03*
D29*
%TO.P,U8,28,GPIO17*%
%TO.N,/BRKOUT6*%
X190834500Y-82198000D03*
%TO.P,U8,27,GPIO16*%
%TO.N,/BRKOUT5*%
X190834500Y-82598000D03*
%TO.P,U8,26,RUN*%
%TO.N,/RUN*%
X190834500Y-82998000D03*
%TO.P,U8,25,SWD*%
%TO.N,/SWD*%
X190834500Y-83398000D03*
%TO.P,U8,24,SWCLK*%
%TO.N,/SWCLK*%
X190834500Y-83798000D03*
%TO.P,U8,23,DVDD*%
%TO.N,+1V1*%
X190834500Y-84198000D03*
%TO.P,U8,22,IOVDD*%
%TO.N,+3V3*%
X190834500Y-84598000D03*
%TO.P,U8,21,XOUT*%
%TO.N,unconnected-(U8-XOUT-Pad21)*%
X190834500Y-84998000D03*
%TO.P,U8,20,XIN*%
%TO.N,/XIN*%
X190834500Y-85398000D03*
%TO.P,U8,19,TESTEN*%
%TO.N,GND*%
X190834500Y-85798000D03*
%TO.P,U8,18,GPIO15*%
%TO.N,unconnected-(U8-GPIO15-Pad18)*%
X190834500Y-86198000D03*
%TO.P,U8,17,GPIO14*%
%TO.N,/LEDBLUE*%
X190834500Y-86598000D03*
%TO.P,U8,16,GPIO13*%
%TO.N,/LEDGREEN*%
X190834500Y-86998000D03*
%TO.P,U8,15,GPIO12*%
%TO.N,/LEDRED*%
X190834500Y-87398000D03*
D30*
%TO.P,U8,14,GPIO11*%
%TO.N,unconnected-(U8-GPIO11-Pad14)*%
X191672000Y-88235500D03*
%TO.P,U8,13,GPIO10*%
%TO.N,unconnected-(U8-GPIO10-Pad13)*%
X192072000Y-88235500D03*
%TO.P,U8,12,GPIO9*%
%TO.N,unconnected-(U8-GPIO9-Pad12)*%
X192472000Y-88235500D03*
%TO.P,U8,11,GPIO8*%
%TO.N,unconnected-(U8-GPIO8-Pad11)*%
X192872000Y-88235500D03*
%TO.P,U8,10,IOVDD*%
%TO.N,+3V3*%
X193272000Y-88235500D03*
%TO.P,U8,9,GPIO7*%
%TO.N,unconnected-(U8-GPIO7-Pad9)*%
X193672000Y-88235500D03*
%TO.P,U8,8,GPIO6*%
%TO.N,unconnected-(U8-GPIO6-Pad8)*%
X194072000Y-88235500D03*
%TO.P,U8,7,GPIO5*%
%TO.N,/I2C0 SCL*%
X194472000Y-88235500D03*
%TO.P,U8,6,GPIO4*%
%TO.N,/I2C0 SDA*%
X194872000Y-88235500D03*
%TO.P,U8,5,GPIO3*%
%TO.N,unconnected-(U8-GPIO3-Pad5)*%
X195272000Y-88235500D03*
%TO.P,U8,4,GPIO2*%
%TO.N,unconnected-(U8-GPIO2-Pad4)*%
X195672000Y-88235500D03*
%TO.P,U8,3,GPIO1*%
%TO.N,unconnected-(U8-GPIO1-Pad3)*%
X196072000Y-88235500D03*
%TO.P,U8,2,GPIO0*%
%TO.N,unconnected-(U8-GPIO0-Pad2)*%
X196472000Y-88235500D03*
%TO.P,U8,1,IOVDD*%
%TO.N,+3V3*%
X196872000Y-88235500D03*
%TD*%
D31*
%TO.P,Q1,3,D*%
%TO.N,+12V*%
X190515200Y-103932200D03*
%TO.P,Q1,2,S*%
%TO.N,+12P*%
X191465200Y-102057200D03*
%TO.P,Q1,1,G*%
%TO.N,GND*%
X189565200Y-102057200D03*
%TD*%
D32*
%TO.P,J8,1,Pin_1*%
%TO.N,/BRKOUT1*%
X206375000Y-67320000D03*
D33*
%TO.P,J8,2,Pin_2*%
%TO.N,/BRKOUT2*%
X206375000Y-69860000D03*
%TO.P,J8,3,Pin_3*%
%TO.N,/BRKOUT3*%
X206375000Y-72400000D03*
%TO.P,J8,4,Pin_4*%
%TO.N,/BRKOUT4*%
X206375000Y-74940000D03*
%TD*%
D34*
%TO.P,X1,4,VDD*%
%TO.N,+3V3*%
X186219200Y-87307600D03*
%TO.P,X1,3,OUTPUT*%
%TO.N,/XIN*%
X186219200Y-85107600D03*
%TO.P,X1,2,GND*%
%TO.N,GND*%
X184519200Y-85107600D03*
%TO.P,X1,1,Tri-state*%
%TO.N,+3V3*%
X184519200Y-87307600D03*
%TD*%
D35*
%TO.P,J1,1,Pin_1*%
%TO.N,/P4-*%
X204851000Y-109601000D03*
D36*
%TO.P,J1,2,Pin_2*%
%TO.N,/PYRO PWR*%
X204851000Y-107061000D03*
%TO.P,J1,3,Pin_3*%
%TO.N,/P3-*%
X204851000Y-104521000D03*
%TO.P,J1,4,Pin_4*%
%TO.N,/PYRO PWR*%
X204851000Y-101981000D03*
%TO.P,J1,5,Pin_5*%
%TO.N,/P2-*%
X204851000Y-99441000D03*
%TO.P,J1,6,Pin_6*%
%TO.N,/PYRO PWR*%
X204851000Y-96901000D03*
%TO.P,J1,7,Pin_7*%
%TO.N,/P1-*%
X204851000Y-94361000D03*
%TO.P,J1,8,Pin_8*%
%TO.N,/PYRO PWR*%
X204851000Y-91821000D03*
%TD*%
D21*
%TO.P,C7,2*%
%TO.N,GND*%
X189979000Y-107264200D03*
%TO.P,C7,1*%
%TO.N,+12VA*%
X191529000Y-107264200D03*
%TD*%
D37*
%TO.P,J7,9*%
%TO.N,N/C*%
X205377100Y-87623200D03*
%TO.P,J7,8*%
X205377100Y-80423200D03*
D38*
%TO.P,J7,7*%
X202477100Y-81603200D03*
%TO.P,J7,6,Shield*%
%TO.N,unconnected-(J7-Shield-Pad6)*%
X202477100Y-86443200D03*
D39*
%TO.P,J7,5,GND*%
%TO.N,GND*%
X202717100Y-85323200D03*
%TO.P,J7,4,ID*%
%TO.N,unconnected-(J7-ID-Pad4)*%
X202727100Y-84673200D03*
%TO.P,J7,3,D+*%
%TO.N,/USB_D+*%
X202727100Y-84023200D03*
%TO.P,J7,2,D-*%
%TO.N,/USB_D-*%
X202727100Y-83373200D03*
%TO.P,J7,1,VBUS*%
%TO.N,Net-(D3-A)*%
X202727100Y-82723200D03*
%TD*%
D23*
%TO.P,H1,1,1*%
%TO.N,GND*%
X186600000Y-62025000D03*
%TD*%
D40*
%TO.P,J4,2,Pin_2*%
%TO.N,/BOOTSEL*%
X199681687Y-60452000D03*
D41*
%TO.P,J4,1,Pin_1*%
%TO.N,GND*%
X198381687Y-60452000D03*
%TD*%
D23*
%TO.P,H2,1,1*%
%TO.N,GND*%
X205600000Y-62025000D03*
%TD*%
D42*
%TO.P,U2,16,INT1*%
%TO.N,unconnected-(U2-INT1-Pad16)*%
X202715486Y-72950200D03*
D43*
%TO.P,U2,15,SDO1*%
%TO.N,GND*%
X202305486Y-74150200D03*
%TO.P,U2,14,CSB1*%
%TO.N,+3V3*%
X201805486Y-74150200D03*
%TO.P,U2,13,INT4*%
%TO.N,unconnected-(U2-INT4-Pad13)*%
X201305486Y-74150200D03*
%TO.P,U2,12,INT3*%
%TO.N,unconnected-(U2-INT3-Pad12)*%
X200805486Y-74150200D03*
%TO.P,U2,11,VDDIO*%
%TO.N,+3V3*%
X200305486Y-74150200D03*
%TO.P,U2,10,SDO2*%
%TO.N,GND*%
X199805486Y-74150200D03*
%TO.P,U2,9,SDA/SDI*%
%TO.N,/I2C0 SDA*%
X199305486Y-74150200D03*
D42*
%TO.P,U2,8,SCL/SCK*%
%TO.N,/I2C0 SCL*%
X198895486Y-72950200D03*
D43*
%TO.P,U2,7,PS*%
%TO.N,+3V3*%
X199305486Y-71750200D03*
%TO.P,U2,6,GNDIO*%
%TO.N,GND*%
X199805486Y-71750200D03*
%TO.P,U2,5,CSB2*%
%TO.N,unconnected-(U2-CSB2-Pad5)*%
X200305486Y-71750200D03*
%TO.P,U2,4,GNDA*%
%TO.N,GND*%
X200805486Y-71750200D03*
%TO.P,U2,3,VDD*%
%TO.N,+3V3*%
X201305486Y-71750200D03*
%TO.P,U2,2,NC*%
%TO.N,unconnected-(U2-NC-Pad2)*%
X201805486Y-71750200D03*
%TO.P,U2,1,INT2*%
%TO.N,unconnected-(U2-INT2-Pad1)*%
X202305486Y-71750200D03*
%TD*%
D44*
%TO.P,U4,14,SCL/SCLK*%
%TO.N,/I2C0 SCL*%
X189571600Y-66411600D03*
D45*
%TO.P,U4,13,SDA/SDI/SDIO*%
%TO.N,/I2C0 SDA*%
X189871600Y-67821600D03*
%TO.P,U4,12,SDO/ALTADDRESS*%
%TO.N,GND*%
X190671600Y-67821600D03*
%TO.P,U4,11,RESERVED*%
X191471600Y-67821600D03*
%TO.P,U4,10,NC*%
%TO.N,unconnected-(U4-NC-Pad10)*%
X192271600Y-67821600D03*
%TO.P,U4,9,INT2*%
%TO.N,unconnected-(U4-INT2-Pad9)*%
X193071600Y-67821600D03*
%TO.P,U4,8,INT1*%
%TO.N,unconnected-(U4-INT1-Pad8)*%
X193871600Y-67821600D03*
D44*
%TO.P,U4,7,~{CS}*%
%TO.N,+3V3*%
X194171600Y-66411600D03*
D45*
%TO.P,U4,6,VS*%
X193871600Y-65001600D03*
%TO.P,U4,5,GND*%
%TO.N,GND*%
X193071600Y-65001600D03*
%TO.P,U4,4,GND*%
X192271600Y-65001600D03*
%TO.P,U4,3,RESERVED*%
%TO.N,+3V3*%
X191471600Y-65001600D03*
%TO.P,U4,2,GND*%
%TO.N,GND*%
X190671600Y-65001600D03*
%TO.P,U4,1,VDDI/O*%
%TO.N,+3V3*%
X189871600Y-65001600D03*
%TD*%
D40*
%TO.P,J3,2,Pin_2*%
%TO.N,GND*%
X195774686Y-60452000D03*
D41*
%TO.P,J3,1,Pin_1*%
%TO.N,/RUN*%
X194474686Y-60452000D03*
%TD*%
D23*
%TO.P,H4,1,1*%
%TO.N,GND*%
X205600000Y-116025000D03*
%TD*%
D46*
%TO.P,U6,1,ADDR*%
%TO.N,+3V3*%
X193687000Y-106050000D03*
D47*
%TO.P,U6,2,ALERT/RDY*%
%TO.N,unconnected-(U6-ALERT{slash}RDY-Pad2)*%
X194187000Y-106050000D03*
%TO.P,U6,3,GND*%
%TO.N,GND*%
X194687000Y-106050000D03*
D46*
%TO.P,U6,4,AIN0*%
%TO.N,/P1 CONT *%
X195187000Y-106050000D03*
D48*
%TO.P,U6,5,AIN1*%
%TO.N,/P2 CONT *%
X195297000Y-106680000D03*
D46*
%TO.P,U6,6,AIN2*%
%TO.N,/P3 CONT *%
X195187000Y-107310000D03*
D47*
%TO.P,U6,7,AIN3*%
%TO.N,/P4 CONT *%
X194687000Y-107310000D03*
%TO.P,U6,8,VDD*%
%TO.N,+3V3*%
X194187000Y-107310000D03*
D46*
%TO.P,U6,9,SDA*%
%TO.N,/I2C0 SDA*%
X193687000Y-107310000D03*
D48*
%TO.P,U6,10,SCL*%
%TO.N,/I2C0 SCL*%
X193577000Y-106680000D03*
%TD*%
D35*
%TO.P,J2,1,Pin_1*%
%TO.N,/PYRO PWR*%
X186944000Y-96901000D03*
D36*
%TO.P,J2,2,Pin_2*%
%TO.N,+12P*%
X186944000Y-99441000D03*
%TO.P,J2,3,Pin_3*%
%TO.N,+12V*%
X186944000Y-101981000D03*
%TO.P,J2,4,Pin_4*%
%TO.N,+BATT*%
X186944000Y-104521000D03*
%TO.P,J2,5,Pin_5*%
%TO.N,GND*%
X186944000Y-107061000D03*
%TO.P,J2,6,Pin_6*%
%TO.N,+BATT*%
X186944000Y-109601000D03*
%TD*%
D49*
%TO.P,U3,8,SCL*%
%TO.N,/I2C0 SCL*%
X197288686Y-67984400D03*
%TO.P,U3,7,SDL*%
%TO.N,/I2C0 SDA*%
X198538686Y-67984400D03*
%TO.P,U3,6,INT1*%
%TO.N,unconnected-(U3-INT1-Pad6)*%
X199788686Y-67984400D03*
%TO.P,U3,5,INT2*%
%TO.N,unconnected-(U3-INT2-Pad5)*%
X201038686Y-67984400D03*
%TO.P,U3,4,VDDIO*%
%TO.N,+3V3*%
X201038686Y-65684400D03*
%TO.P,U3,3,GND*%
%TO.N,GND*%
X199788686Y-65684400D03*
%TO.P,U3,2,CAP*%
%TO.N,Net-(U3-CAP)*%
X198538686Y-65684400D03*
%TO.P,U3,1,VDD*%
%TO.N,+3V3*%
X197288686Y-65684400D03*
%TD*%
D32*
%TO.P,J6,1,Pin_1*%
%TO.N,/BRKOUT7*%
X186055000Y-67310000D03*
D33*
%TO.P,J6,2,Pin_2*%
%TO.N,/BRKOUT6*%
X186055000Y-69850000D03*
%TO.P,J6,3,Pin_3*%
%TO.N,/BRKOUT5*%
X186055000Y-72390000D03*
%TO.P,J6,4,Pin_4*%
%TO.N,+12VA*%
X186055000Y-74930000D03*
%TO.P,J6,5,Pin_5*%
%TO.N,+3V3*%
X186055000Y-77470000D03*
%TO.P,J6,6,Pin_6*%
%TO.N,GND*%
X186055000Y-80010000D03*
%TD*%
D19*
%TO.P,C4,2*%
%TO.N,GND*%
X201221086Y-62521800D03*
%TO.P,C4,1*%
%TO.N,+3V3*%
X201221086Y-64071800D03*
%TD*%
M02*
