%TF.GenerationSoftware,KiCad,Pcbnew,(7.0.0)*%
%TF.CreationDate,2023-07-06T10:13:40+01:00*%
%TF.ProjectId,wolf flight comp,776f6c66-2066-46c6-9967-687420636f6d,rev?*%
%TF.SameCoordinates,Original*%
%TF.FileFunction,Legend,Top*%
%TF.FilePolarity,Positive*%
%FSLAX46Y46*%
G04 Gerber Fmt 4.6, Leading zero omitted, Abs format (unit mm)*
G04 Created by KiCad (PCBNEW (7.0.0)) date 2023-07-06 10:13:40*
%MOMM*%
%LPD*%
G01*
G04 APERTURE LIST*
%ADD10C,0.200000*%
%ADD11C,0.750000*%
%ADD12C,0.300000*%
%ADD13C,0.500000*%
%ADD14C,0.150000*%
%ADD15C,0.120000*%
%ADD16C,0.127000*%
G04 APERTURE END LIST*
D10*
X160338095Y-67851428D02*
X161100000Y-67851428D01*
X160719047Y-68232380D02*
X160719047Y-67470476D01*
X162509523Y-67708571D02*
X162652380Y-67756190D01*
X162652380Y-67756190D02*
X162699999Y-67803809D01*
X162699999Y-67803809D02*
X162747618Y-67899047D01*
X162747618Y-67899047D02*
X162747618Y-68041904D01*
X162747618Y-68041904D02*
X162699999Y-68137142D01*
X162699999Y-68137142D02*
X162652380Y-68184761D01*
X162652380Y-68184761D02*
X162557142Y-68232380D01*
X162557142Y-68232380D02*
X162176190Y-68232380D01*
X162176190Y-68232380D02*
X162176190Y-67232380D01*
X162176190Y-67232380D02*
X162509523Y-67232380D01*
X162509523Y-67232380D02*
X162604761Y-67280000D01*
X162604761Y-67280000D02*
X162652380Y-67327619D01*
X162652380Y-67327619D02*
X162699999Y-67422857D01*
X162699999Y-67422857D02*
X162699999Y-67518095D01*
X162699999Y-67518095D02*
X162652380Y-67613333D01*
X162652380Y-67613333D02*
X162604761Y-67660952D01*
X162604761Y-67660952D02*
X162509523Y-67708571D01*
X162509523Y-67708571D02*
X162176190Y-67708571D01*
X163366666Y-67232380D02*
X163557142Y-67232380D01*
X163557142Y-67232380D02*
X163652380Y-67280000D01*
X163652380Y-67280000D02*
X163747618Y-67375238D01*
X163747618Y-67375238D02*
X163795237Y-67565714D01*
X163795237Y-67565714D02*
X163795237Y-67899047D01*
X163795237Y-67899047D02*
X163747618Y-68089523D01*
X163747618Y-68089523D02*
X163652380Y-68184761D01*
X163652380Y-68184761D02*
X163557142Y-68232380D01*
X163557142Y-68232380D02*
X163366666Y-68232380D01*
X163366666Y-68232380D02*
X163271428Y-68184761D01*
X163271428Y-68184761D02*
X163176190Y-68089523D01*
X163176190Y-68089523D02*
X163128571Y-67899047D01*
X163128571Y-67899047D02*
X163128571Y-67565714D01*
X163128571Y-67565714D02*
X163176190Y-67375238D01*
X163176190Y-67375238D02*
X163271428Y-67280000D01*
X163271428Y-67280000D02*
X163366666Y-67232380D01*
X164414285Y-67232380D02*
X164604761Y-67232380D01*
X164604761Y-67232380D02*
X164699999Y-67280000D01*
X164699999Y-67280000D02*
X164795237Y-67375238D01*
X164795237Y-67375238D02*
X164842856Y-67565714D01*
X164842856Y-67565714D02*
X164842856Y-67899047D01*
X164842856Y-67899047D02*
X164795237Y-68089523D01*
X164795237Y-68089523D02*
X164699999Y-68184761D01*
X164699999Y-68184761D02*
X164604761Y-68232380D01*
X164604761Y-68232380D02*
X164414285Y-68232380D01*
X164414285Y-68232380D02*
X164319047Y-68184761D01*
X164319047Y-68184761D02*
X164223809Y-68089523D01*
X164223809Y-68089523D02*
X164176190Y-67899047D01*
X164176190Y-67899047D02*
X164176190Y-67565714D01*
X164176190Y-67565714D02*
X164223809Y-67375238D01*
X164223809Y-67375238D02*
X164319047Y-67280000D01*
X164319047Y-67280000D02*
X164414285Y-67232380D01*
X165128571Y-67232380D02*
X165699999Y-67232380D01*
X165414285Y-68232380D02*
X165414285Y-67232380D01*
X166633333Y-67851428D02*
X167395238Y-67851428D01*
D11*
X159657142Y-61379523D02*
X157752380Y-61379523D01*
X157752380Y-61379523D02*
X157752380Y-57379523D01*
X161752380Y-59474761D02*
X161752380Y-61379523D01*
X160419047Y-57379523D02*
X161752380Y-59474761D01*
X161752380Y-59474761D02*
X163085714Y-57379523D01*
X166704761Y-61379523D02*
X165371427Y-59474761D01*
X164419046Y-61379523D02*
X164419046Y-57379523D01*
X164419046Y-57379523D02*
X165942856Y-57379523D01*
X165942856Y-57379523D02*
X166323808Y-57570000D01*
X166323808Y-57570000D02*
X166514285Y-57760476D01*
X166514285Y-57760476D02*
X166704761Y-58141428D01*
X166704761Y-58141428D02*
X166704761Y-58712857D01*
X166704761Y-58712857D02*
X166514285Y-59093809D01*
X166514285Y-59093809D02*
X166323808Y-59284285D01*
X166323808Y-59284285D02*
X165942856Y-59474761D01*
X165942856Y-59474761D02*
X164419046Y-59474761D01*
X168228570Y-60236666D02*
X170133332Y-60236666D01*
X167847618Y-61379523D02*
X169180951Y-57379523D01*
X169180951Y-57379523D02*
X170514285Y-61379523D01*
D10*
X147259523Y-64082380D02*
X146926190Y-63606190D01*
X146688095Y-64082380D02*
X146688095Y-63082380D01*
X146688095Y-63082380D02*
X147069047Y-63082380D01*
X147069047Y-63082380D02*
X147164285Y-63130000D01*
X147164285Y-63130000D02*
X147211904Y-63177619D01*
X147211904Y-63177619D02*
X147259523Y-63272857D01*
X147259523Y-63272857D02*
X147259523Y-63415714D01*
X147259523Y-63415714D02*
X147211904Y-63510952D01*
X147211904Y-63510952D02*
X147164285Y-63558571D01*
X147164285Y-63558571D02*
X147069047Y-63606190D01*
X147069047Y-63606190D02*
X146688095Y-63606190D01*
X147688095Y-63558571D02*
X148021428Y-63558571D01*
X148164285Y-64082380D02*
X147688095Y-64082380D01*
X147688095Y-64082380D02*
X147688095Y-63082380D01*
X147688095Y-63082380D02*
X148164285Y-63082380D01*
X148545238Y-64034761D02*
X148688095Y-64082380D01*
X148688095Y-64082380D02*
X148926190Y-64082380D01*
X148926190Y-64082380D02*
X149021428Y-64034761D01*
X149021428Y-64034761D02*
X149069047Y-63987142D01*
X149069047Y-63987142D02*
X149116666Y-63891904D01*
X149116666Y-63891904D02*
X149116666Y-63796666D01*
X149116666Y-63796666D02*
X149069047Y-63701428D01*
X149069047Y-63701428D02*
X149021428Y-63653809D01*
X149021428Y-63653809D02*
X148926190Y-63606190D01*
X148926190Y-63606190D02*
X148735714Y-63558571D01*
X148735714Y-63558571D02*
X148640476Y-63510952D01*
X148640476Y-63510952D02*
X148592857Y-63463333D01*
X148592857Y-63463333D02*
X148545238Y-63368095D01*
X148545238Y-63368095D02*
X148545238Y-63272857D01*
X148545238Y-63272857D02*
X148592857Y-63177619D01*
X148592857Y-63177619D02*
X148640476Y-63130000D01*
X148640476Y-63130000D02*
X148735714Y-63082380D01*
X148735714Y-63082380D02*
X148973809Y-63082380D01*
X148973809Y-63082380D02*
X149116666Y-63130000D01*
X149545238Y-63558571D02*
X149878571Y-63558571D01*
X150021428Y-64082380D02*
X149545238Y-64082380D01*
X149545238Y-64082380D02*
X149545238Y-63082380D01*
X149545238Y-63082380D02*
X150021428Y-63082380D01*
X150307143Y-63082380D02*
X150878571Y-63082380D01*
X150592857Y-64082380D02*
X150592857Y-63082380D01*
X181188095Y-66182380D02*
X181188095Y-65182380D01*
X181616666Y-65277619D02*
X181664285Y-65230000D01*
X181664285Y-65230000D02*
X181759523Y-65182380D01*
X181759523Y-65182380D02*
X181997618Y-65182380D01*
X181997618Y-65182380D02*
X182092856Y-65230000D01*
X182092856Y-65230000D02*
X182140475Y-65277619D01*
X182140475Y-65277619D02*
X182188094Y-65372857D01*
X182188094Y-65372857D02*
X182188094Y-65468095D01*
X182188094Y-65468095D02*
X182140475Y-65610952D01*
X182140475Y-65610952D02*
X181569047Y-66182380D01*
X181569047Y-66182380D02*
X182188094Y-66182380D01*
X183188094Y-66087142D02*
X183140475Y-66134761D01*
X183140475Y-66134761D02*
X182997618Y-66182380D01*
X182997618Y-66182380D02*
X182902380Y-66182380D01*
X182902380Y-66182380D02*
X182759523Y-66134761D01*
X182759523Y-66134761D02*
X182664285Y-66039523D01*
X182664285Y-66039523D02*
X182616666Y-65944285D01*
X182616666Y-65944285D02*
X182569047Y-65753809D01*
X182569047Y-65753809D02*
X182569047Y-65610952D01*
X182569047Y-65610952D02*
X182616666Y-65420476D01*
X182616666Y-65420476D02*
X182664285Y-65325238D01*
X182664285Y-65325238D02*
X182759523Y-65230000D01*
X182759523Y-65230000D02*
X182902380Y-65182380D01*
X182902380Y-65182380D02*
X182997618Y-65182380D01*
X182997618Y-65182380D02*
X183140475Y-65230000D01*
X183140475Y-65230000D02*
X183188094Y-65277619D01*
D12*
X173973571Y-90600000D02*
X174973571Y-90600000D01*
X173402142Y-90957142D02*
X174473571Y-91314285D01*
X174473571Y-91314285D02*
X174473571Y-90385714D01*
D10*
X169138095Y-72032380D02*
X169138095Y-71032380D01*
X169614285Y-72032380D02*
X169614285Y-71032380D01*
X169614285Y-71032380D02*
X169947618Y-71746666D01*
X169947618Y-71746666D02*
X170280951Y-71032380D01*
X170280951Y-71032380D02*
X170280951Y-72032380D01*
X170757142Y-71032380D02*
X170757142Y-71841904D01*
X170757142Y-71841904D02*
X170804761Y-71937142D01*
X170804761Y-71937142D02*
X170852380Y-71984761D01*
X170852380Y-71984761D02*
X170947618Y-72032380D01*
X170947618Y-72032380D02*
X171138094Y-72032380D01*
X171138094Y-72032380D02*
X171233332Y-71984761D01*
X171233332Y-71984761D02*
X171280951Y-71937142D01*
X171280951Y-71937142D02*
X171328570Y-71841904D01*
X171328570Y-71841904D02*
X171328570Y-71032380D01*
D12*
X174923571Y-99207142D02*
X174923571Y-100064285D01*
X174923571Y-99635714D02*
X173423571Y-99635714D01*
X173423571Y-99635714D02*
X173637857Y-99778571D01*
X173637857Y-99778571D02*
X173780714Y-99921428D01*
X173780714Y-99921428D02*
X173852142Y-100064285D01*
X173716428Y-97564285D02*
X173645000Y-97492857D01*
X173645000Y-97492857D02*
X173573571Y-97350000D01*
X173573571Y-97350000D02*
X173573571Y-96992857D01*
X173573571Y-96992857D02*
X173645000Y-96850000D01*
X173645000Y-96850000D02*
X173716428Y-96778571D01*
X173716428Y-96778571D02*
X173859285Y-96707142D01*
X173859285Y-96707142D02*
X174002142Y-96707142D01*
X174002142Y-96707142D02*
X174216428Y-96778571D01*
X174216428Y-96778571D02*
X175073571Y-97635714D01*
X175073571Y-97635714D02*
X175073571Y-96707142D01*
D10*
X154721428Y-71058571D02*
X154864285Y-71106190D01*
X154864285Y-71106190D02*
X154911904Y-71153809D01*
X154911904Y-71153809D02*
X154959523Y-71249047D01*
X154959523Y-71249047D02*
X154959523Y-71391904D01*
X154959523Y-71391904D02*
X154911904Y-71487142D01*
X154911904Y-71487142D02*
X154864285Y-71534761D01*
X154864285Y-71534761D02*
X154769047Y-71582380D01*
X154769047Y-71582380D02*
X154388095Y-71582380D01*
X154388095Y-71582380D02*
X154388095Y-70582380D01*
X154388095Y-70582380D02*
X154721428Y-70582380D01*
X154721428Y-70582380D02*
X154816666Y-70630000D01*
X154816666Y-70630000D02*
X154864285Y-70677619D01*
X154864285Y-70677619D02*
X154911904Y-70772857D01*
X154911904Y-70772857D02*
X154911904Y-70868095D01*
X154911904Y-70868095D02*
X154864285Y-70963333D01*
X154864285Y-70963333D02*
X154816666Y-71010952D01*
X154816666Y-71010952D02*
X154721428Y-71058571D01*
X154721428Y-71058571D02*
X154388095Y-71058571D01*
X155340476Y-71296666D02*
X155816666Y-71296666D01*
X155245238Y-71582380D02*
X155578571Y-70582380D01*
X155578571Y-70582380D02*
X155911904Y-71582380D01*
X156816666Y-71582380D02*
X156483333Y-71106190D01*
X156245238Y-71582380D02*
X156245238Y-70582380D01*
X156245238Y-70582380D02*
X156626190Y-70582380D01*
X156626190Y-70582380D02*
X156721428Y-70630000D01*
X156721428Y-70630000D02*
X156769047Y-70677619D01*
X156769047Y-70677619D02*
X156816666Y-70772857D01*
X156816666Y-70772857D02*
X156816666Y-70915714D01*
X156816666Y-70915714D02*
X156769047Y-71010952D01*
X156769047Y-71010952D02*
X156721428Y-71058571D01*
X156721428Y-71058571D02*
X156626190Y-71106190D01*
X156626190Y-71106190D02*
X156245238Y-71106190D01*
X157435714Y-70582380D02*
X157626190Y-70582380D01*
X157626190Y-70582380D02*
X157721428Y-70630000D01*
X157721428Y-70630000D02*
X157816666Y-70725238D01*
X157816666Y-70725238D02*
X157864285Y-70915714D01*
X157864285Y-70915714D02*
X157864285Y-71249047D01*
X157864285Y-71249047D02*
X157816666Y-71439523D01*
X157816666Y-71439523D02*
X157721428Y-71534761D01*
X157721428Y-71534761D02*
X157626190Y-71582380D01*
X157626190Y-71582380D02*
X157435714Y-71582380D01*
X157435714Y-71582380D02*
X157340476Y-71534761D01*
X157340476Y-71534761D02*
X157245238Y-71439523D01*
X157245238Y-71439523D02*
X157197619Y-71249047D01*
X157197619Y-71249047D02*
X157197619Y-70915714D01*
X157197619Y-70915714D02*
X157245238Y-70725238D01*
X157245238Y-70725238D02*
X157340476Y-70630000D01*
X157340476Y-70630000D02*
X157435714Y-70582380D01*
X162771428Y-106258571D02*
X162438095Y-106258571D01*
X162438095Y-106782380D02*
X162438095Y-105782380D01*
X162438095Y-105782380D02*
X162914285Y-105782380D01*
X163771428Y-106782380D02*
X163295238Y-106782380D01*
X163295238Y-106782380D02*
X163295238Y-105782380D01*
X164057143Y-106496666D02*
X164533333Y-106496666D01*
X163961905Y-106782380D02*
X164295238Y-105782380D01*
X164295238Y-105782380D02*
X164628571Y-106782380D01*
X164914286Y-106734761D02*
X165057143Y-106782380D01*
X165057143Y-106782380D02*
X165295238Y-106782380D01*
X165295238Y-106782380D02*
X165390476Y-106734761D01*
X165390476Y-106734761D02*
X165438095Y-106687142D01*
X165438095Y-106687142D02*
X165485714Y-106591904D01*
X165485714Y-106591904D02*
X165485714Y-106496666D01*
X165485714Y-106496666D02*
X165438095Y-106401428D01*
X165438095Y-106401428D02*
X165390476Y-106353809D01*
X165390476Y-106353809D02*
X165295238Y-106306190D01*
X165295238Y-106306190D02*
X165104762Y-106258571D01*
X165104762Y-106258571D02*
X165009524Y-106210952D01*
X165009524Y-106210952D02*
X164961905Y-106163333D01*
X164961905Y-106163333D02*
X164914286Y-106068095D01*
X164914286Y-106068095D02*
X164914286Y-105972857D01*
X164914286Y-105972857D02*
X164961905Y-105877619D01*
X164961905Y-105877619D02*
X165009524Y-105830000D01*
X165009524Y-105830000D02*
X165104762Y-105782380D01*
X165104762Y-105782380D02*
X165342857Y-105782380D01*
X165342857Y-105782380D02*
X165485714Y-105830000D01*
X165914286Y-106782380D02*
X165914286Y-105782380D01*
X165914286Y-106258571D02*
X166485714Y-106258571D01*
X166485714Y-106782380D02*
X166485714Y-105782380D01*
D12*
X173523571Y-94285714D02*
X173523571Y-93357142D01*
X173523571Y-93357142D02*
X174095000Y-93857142D01*
X174095000Y-93857142D02*
X174095000Y-93642857D01*
X174095000Y-93642857D02*
X174166428Y-93500000D01*
X174166428Y-93500000D02*
X174237857Y-93428571D01*
X174237857Y-93428571D02*
X174380714Y-93357142D01*
X174380714Y-93357142D02*
X174737857Y-93357142D01*
X174737857Y-93357142D02*
X174880714Y-93428571D01*
X174880714Y-93428571D02*
X174952142Y-93500000D01*
X174952142Y-93500000D02*
X175023571Y-93642857D01*
X175023571Y-93642857D02*
X175023571Y-94071428D01*
X175023571Y-94071428D02*
X174952142Y-94214285D01*
X174952142Y-94214285D02*
X174880714Y-94285714D01*
D10*
X162638095Y-79832380D02*
X162638095Y-78832380D01*
X162638095Y-78832380D02*
X162971428Y-79546666D01*
X162971428Y-79546666D02*
X163304761Y-78832380D01*
X163304761Y-78832380D02*
X163304761Y-79832380D01*
X164352380Y-79737142D02*
X164304761Y-79784761D01*
X164304761Y-79784761D02*
X164161904Y-79832380D01*
X164161904Y-79832380D02*
X164066666Y-79832380D01*
X164066666Y-79832380D02*
X163923809Y-79784761D01*
X163923809Y-79784761D02*
X163828571Y-79689523D01*
X163828571Y-79689523D02*
X163780952Y-79594285D01*
X163780952Y-79594285D02*
X163733333Y-79403809D01*
X163733333Y-79403809D02*
X163733333Y-79260952D01*
X163733333Y-79260952D02*
X163780952Y-79070476D01*
X163780952Y-79070476D02*
X163828571Y-78975238D01*
X163828571Y-78975238D02*
X163923809Y-78880000D01*
X163923809Y-78880000D02*
X164066666Y-78832380D01*
X164066666Y-78832380D02*
X164161904Y-78832380D01*
X164161904Y-78832380D02*
X164304761Y-78880000D01*
X164304761Y-78880000D02*
X164352380Y-78927619D01*
X164780952Y-78832380D02*
X164780952Y-79641904D01*
X164780952Y-79641904D02*
X164828571Y-79737142D01*
X164828571Y-79737142D02*
X164876190Y-79784761D01*
X164876190Y-79784761D02*
X164971428Y-79832380D01*
X164971428Y-79832380D02*
X165161904Y-79832380D01*
X165161904Y-79832380D02*
X165257142Y-79784761D01*
X165257142Y-79784761D02*
X165304761Y-79737142D01*
X165304761Y-79737142D02*
X165352380Y-79641904D01*
X165352380Y-79641904D02*
X165352380Y-78832380D01*
D13*
X156935714Y-63647142D02*
X157935714Y-66647142D01*
X157935714Y-66647142D02*
X158935714Y-63647142D01*
X159792857Y-65790000D02*
X161221429Y-65790000D01*
X159507143Y-66647142D02*
X160507143Y-63647142D01*
X160507143Y-63647142D02*
X161507143Y-66647142D01*
X163935715Y-66647142D02*
X162507143Y-66647142D01*
X162507143Y-66647142D02*
X162507143Y-63647142D01*
X164935714Y-66647142D02*
X164935714Y-63647142D01*
X164935714Y-63647142D02*
X166078571Y-63647142D01*
X166078571Y-63647142D02*
X166364286Y-63790000D01*
X166364286Y-63790000D02*
X166507143Y-63932857D01*
X166507143Y-63932857D02*
X166650000Y-64218571D01*
X166650000Y-64218571D02*
X166650000Y-64647142D01*
X166650000Y-64647142D02*
X166507143Y-64932857D01*
X166507143Y-64932857D02*
X166364286Y-65075714D01*
X166364286Y-65075714D02*
X166078571Y-65218571D01*
X166078571Y-65218571D02*
X164935714Y-65218571D01*
X167935714Y-66647142D02*
X167935714Y-63647142D01*
X167935714Y-65075714D02*
X169650000Y-65075714D01*
X169650000Y-66647142D02*
X169650000Y-63647142D01*
X170935714Y-65790000D02*
X172364286Y-65790000D01*
X170650000Y-66647142D02*
X171650000Y-63647142D01*
X171650000Y-63647142D02*
X172650000Y-66647142D01*
D12*
X172923571Y-97042857D02*
X171423571Y-97042857D01*
X171423571Y-97042857D02*
X171423571Y-96471428D01*
X171423571Y-96471428D02*
X171495000Y-96328571D01*
X171495000Y-96328571D02*
X171566428Y-96257142D01*
X171566428Y-96257142D02*
X171709285Y-96185714D01*
X171709285Y-96185714D02*
X171923571Y-96185714D01*
X171923571Y-96185714D02*
X172066428Y-96257142D01*
X172066428Y-96257142D02*
X172137857Y-96328571D01*
X172137857Y-96328571D02*
X172209285Y-96471428D01*
X172209285Y-96471428D02*
X172209285Y-97042857D01*
X171423571Y-95685714D02*
X172923571Y-95328571D01*
X172923571Y-95328571D02*
X171852142Y-95042857D01*
X171852142Y-95042857D02*
X172923571Y-94757142D01*
X172923571Y-94757142D02*
X171423571Y-94400000D01*
X172923571Y-93828571D02*
X171423571Y-93828571D01*
X171423571Y-93828571D02*
X172495000Y-93328571D01*
X172495000Y-93328571D02*
X171423571Y-92828571D01*
X171423571Y-92828571D02*
X172923571Y-92828571D01*
D10*
X145440476Y-84284761D02*
X145583333Y-84332380D01*
X145583333Y-84332380D02*
X145821428Y-84332380D01*
X145821428Y-84332380D02*
X145916666Y-84284761D01*
X145916666Y-84284761D02*
X145964285Y-84237142D01*
X145964285Y-84237142D02*
X146011904Y-84141904D01*
X146011904Y-84141904D02*
X146011904Y-84046666D01*
X146011904Y-84046666D02*
X145964285Y-83951428D01*
X145964285Y-83951428D02*
X145916666Y-83903809D01*
X145916666Y-83903809D02*
X145821428Y-83856190D01*
X145821428Y-83856190D02*
X145630952Y-83808571D01*
X145630952Y-83808571D02*
X145535714Y-83760952D01*
X145535714Y-83760952D02*
X145488095Y-83713333D01*
X145488095Y-83713333D02*
X145440476Y-83618095D01*
X145440476Y-83618095D02*
X145440476Y-83522857D01*
X145440476Y-83522857D02*
X145488095Y-83427619D01*
X145488095Y-83427619D02*
X145535714Y-83380000D01*
X145535714Y-83380000D02*
X145630952Y-83332380D01*
X145630952Y-83332380D02*
X145869047Y-83332380D01*
X145869047Y-83332380D02*
X146011904Y-83380000D01*
X146440476Y-84332380D02*
X146440476Y-83332380D01*
X146440476Y-83332380D02*
X146821428Y-83332380D01*
X146821428Y-83332380D02*
X146916666Y-83380000D01*
X146916666Y-83380000D02*
X146964285Y-83427619D01*
X146964285Y-83427619D02*
X147011904Y-83522857D01*
X147011904Y-83522857D02*
X147011904Y-83665714D01*
X147011904Y-83665714D02*
X146964285Y-83760952D01*
X146964285Y-83760952D02*
X146916666Y-83808571D01*
X146916666Y-83808571D02*
X146821428Y-83856190D01*
X146821428Y-83856190D02*
X146440476Y-83856190D01*
X147440476Y-84332380D02*
X147440476Y-83332380D01*
X148738095Y-89532380D02*
X148738095Y-90341904D01*
X148738095Y-90341904D02*
X148785714Y-90437142D01*
X148785714Y-90437142D02*
X148833333Y-90484761D01*
X148833333Y-90484761D02*
X148928571Y-90532380D01*
X148928571Y-90532380D02*
X149119047Y-90532380D01*
X149119047Y-90532380D02*
X149214285Y-90484761D01*
X149214285Y-90484761D02*
X149261904Y-90437142D01*
X149261904Y-90437142D02*
X149309523Y-90341904D01*
X149309523Y-90341904D02*
X149309523Y-89532380D01*
X149738095Y-90246666D02*
X150214285Y-90246666D01*
X149642857Y-90532380D02*
X149976190Y-89532380D01*
X149976190Y-89532380D02*
X150309523Y-90532380D01*
X151214285Y-90532380D02*
X150880952Y-90056190D01*
X150642857Y-90532380D02*
X150642857Y-89532380D01*
X150642857Y-89532380D02*
X151023809Y-89532380D01*
X151023809Y-89532380D02*
X151119047Y-89580000D01*
X151119047Y-89580000D02*
X151166666Y-89627619D01*
X151166666Y-89627619D02*
X151214285Y-89722857D01*
X151214285Y-89722857D02*
X151214285Y-89865714D01*
X151214285Y-89865714D02*
X151166666Y-89960952D01*
X151166666Y-89960952D02*
X151119047Y-90008571D01*
X151119047Y-90008571D02*
X151023809Y-90056190D01*
X151023809Y-90056190D02*
X150642857Y-90056190D01*
X151500000Y-89532380D02*
X152071428Y-89532380D01*
X151785714Y-90532380D02*
X151785714Y-89532380D01*
D14*
%TO.C,F1*%
X181816666Y-120343571D02*
X181483333Y-120343571D01*
X181483333Y-120867380D02*
X181483333Y-119867380D01*
X181483333Y-119867380D02*
X181959523Y-119867380D01*
X182864285Y-120867380D02*
X182292857Y-120867380D01*
X182578571Y-120867380D02*
X182578571Y-119867380D01*
X182578571Y-119867380D02*
X182483333Y-120010238D01*
X182483333Y-120010238D02*
X182388095Y-120105476D01*
X182388095Y-120105476D02*
X182292857Y-120153095D01*
D15*
%TO.C,C17*%
X156287380Y-90121200D02*
X156006220Y-90121200D01*
X156287380Y-89101200D02*
X156006220Y-89101200D01*
%TO.C,R8*%
X176163500Y-109998742D02*
X176163500Y-110473258D01*
X175118500Y-109998742D02*
X175118500Y-110473258D01*
%TO.C,U6*%
X161696000Y-100018000D02*
X161696000Y-100278000D01*
X161696000Y-100278000D02*
X160021000Y-100278000D01*
X161696000Y-105468000D02*
X161696000Y-105208000D01*
X164421000Y-100018000D02*
X161696000Y-100018000D01*
X164421000Y-100018000D02*
X167146000Y-100018000D01*
X164421000Y-105468000D02*
X161696000Y-105468000D01*
X164421000Y-105468000D02*
X167146000Y-105468000D01*
X167146000Y-100018000D02*
X167146000Y-100278000D01*
X167146000Y-105468000D02*
X167146000Y-105208000D01*
%TO.C,R13*%
X182137742Y-122577500D02*
X182612258Y-122577500D01*
X182137742Y-123622500D02*
X182612258Y-123622500D01*
%TO.C,J10*%
X183330000Y-77210000D02*
X182000000Y-77210000D01*
X183330000Y-75880000D02*
X183330000Y-77210000D01*
X183330000Y-74610000D02*
X183330000Y-66930000D01*
X183330000Y-74610000D02*
X180670000Y-74610000D01*
X183330000Y-66930000D02*
X180670000Y-66930000D01*
X180670000Y-74610000D02*
X180670000Y-66930000D01*
%TO.C,C19*%
X152271000Y-81572980D02*
X152271000Y-81291820D01*
X153291000Y-81572980D02*
X153291000Y-81291820D01*
%TO.C,R23*%
X168133500Y-111743258D02*
X168133500Y-111268742D01*
X169178500Y-111743258D02*
X169178500Y-111268742D01*
%TO.C,R21*%
X164225500Y-73867742D02*
X164225500Y-74342258D01*
X163180500Y-73867742D02*
X163180500Y-74342258D01*
%TO.C,J7*%
X182873000Y-118894000D02*
X183613000Y-118894000D01*
X183613000Y-118894000D02*
X183613000Y-118394000D01*
X177053000Y-118654000D02*
X183373000Y-118654000D01*
X177053000Y-118654000D02*
X177053000Y-102834000D01*
X177513000Y-118654000D02*
X177513000Y-102834000D01*
X182813000Y-118654000D02*
X182813000Y-102834000D01*
X183373000Y-118654000D02*
X183373000Y-102834000D01*
X177053000Y-102834000D02*
X183373000Y-102834000D01*
%TO.C,C6*%
X173059420Y-76452000D02*
X173340580Y-76452000D01*
X173059420Y-77472000D02*
X173340580Y-77472000D01*
%TO.C,FB2*%
X152144000Y-88476279D02*
X152144000Y-88150721D01*
X153164000Y-88476279D02*
X153164000Y-88150721D01*
%TO.C,C15*%
X161189580Y-79377000D02*
X160908420Y-79377000D01*
X161189580Y-78357000D02*
X160908420Y-78357000D01*
%TO.C,FB1*%
X170215779Y-119737600D02*
X169890221Y-119737600D01*
X170215779Y-118717600D02*
X169890221Y-118717600D01*
%TO.C,R16*%
X166737258Y-76822500D02*
X166262742Y-76822500D01*
X166737258Y-75777500D02*
X166262742Y-75777500D01*
%TO.C,F1*%
X179402064Y-121360000D02*
X178197936Y-121360000D01*
X179402064Y-119540000D02*
X178197936Y-119540000D01*
%TO.C,D3*%
X161727000Y-97267500D02*
X163647000Y-97267500D01*
X163647000Y-97267500D02*
X163647000Y-94582500D01*
X161727000Y-94582500D02*
X161727000Y-97267500D01*
%TO.C,R3*%
X177922500Y-82037742D02*
X177922500Y-82512258D01*
X176877500Y-82037742D02*
X176877500Y-82512258D01*
%TO.C,C9*%
X158323000Y-104153580D02*
X158323000Y-103872420D01*
X159343000Y-104153580D02*
X159343000Y-103872420D01*
%TO.C,R20*%
X162545500Y-111807258D02*
X162545500Y-111332742D01*
X163590500Y-111807258D02*
X163590500Y-111332742D01*
%TO.C,U3*%
X175806000Y-83200000D02*
X174206000Y-83200000D01*
X174206000Y-85000000D02*
X176106000Y-85000000D01*
%TO.C,C14*%
X166978420Y-90803000D02*
X167259580Y-90803000D01*
X166978420Y-91823000D02*
X167259580Y-91823000D01*
%TO.C,J6*%
X175581000Y-101025000D02*
X175581000Y-99695000D01*
X176911000Y-101025000D02*
X175581000Y-101025000D01*
X178181000Y-101025000D02*
X183321000Y-101025000D01*
X178181000Y-101025000D02*
X178181000Y-98425000D01*
X183321000Y-101025000D02*
X183321000Y-95825000D01*
X175581000Y-98425000D02*
X175581000Y-95825000D01*
X178181000Y-98425000D02*
X175581000Y-98425000D01*
X175581000Y-95825000D02*
X183321000Y-95825000D01*
%TO.C,R14*%
X166762258Y-78422500D02*
X166287742Y-78422500D01*
X166762258Y-77377500D02*
X166287742Y-77377500D01*
%TO.C,R6*%
X155087742Y-97927500D02*
X155562258Y-97927500D01*
X155087742Y-98972500D02*
X155562258Y-98972500D01*
%TO.C,Q1*%
X174340100Y-116788800D02*
X172540100Y-116788800D01*
X174340100Y-116788800D02*
X175140100Y-116788800D01*
X174340100Y-119908800D02*
X173540100Y-119908800D01*
X174340100Y-119908800D02*
X175140100Y-119908800D01*
%TO.C,J2*%
X151571000Y-101152000D02*
X150241000Y-101152000D01*
X151571000Y-99822000D02*
X151571000Y-101152000D01*
X151571000Y-98552000D02*
X151571000Y-90872000D01*
X151571000Y-98552000D02*
X148911000Y-98552000D01*
X151571000Y-90872000D02*
X148911000Y-90872000D01*
X148911000Y-98552000D02*
X148911000Y-90872000D01*
%TO.C,C8*%
X155688420Y-75690000D02*
X155969580Y-75690000D01*
X155688420Y-76710000D02*
X155969580Y-76710000D01*
%TO.C,R11*%
X176152500Y-104344742D02*
X176152500Y-104819258D01*
X175107500Y-104344742D02*
X175107500Y-104819258D01*
%TO.C,C18*%
X156261380Y-88495600D02*
X155980220Y-88495600D01*
X156261380Y-87475600D02*
X155980220Y-87475600D01*
%TO.C,C3*%
X175379748Y-124360000D02*
X175902252Y-124360000D01*
X175379748Y-125830000D02*
X175902252Y-125830000D01*
%TO.C,R22*%
X150001500Y-84814142D02*
X150001500Y-85288658D01*
X148956500Y-84814142D02*
X148956500Y-85288658D01*
%TO.C,Y1*%
X151213000Y-83022000D02*
X151213000Y-80222000D01*
X151213000Y-80222000D02*
X147913000Y-80222000D01*
D16*
%TO.C,U5*%
X154320500Y-73160000D02*
X154613000Y-73160000D01*
X154320500Y-73202500D02*
X154320500Y-73160000D01*
X154320500Y-75160000D02*
X154320500Y-75117500D01*
X154320500Y-75160000D02*
X154613000Y-75160000D01*
X156028000Y-73160000D02*
X156320500Y-73160000D01*
X156320500Y-73160000D02*
X156320500Y-73202500D01*
X156320500Y-75117500D02*
X156320500Y-75160000D01*
X156320500Y-75160000D02*
X156028000Y-75160000D01*
D10*
X155670500Y-72572500D02*
G75*
G03*
X155670500Y-72572500I-100000J0D01*
G01*
D15*
%TO.C,D2*%
X155554000Y-96921000D02*
X156019000Y-96921000D01*
X158179000Y-96921000D02*
X158644000Y-96921000D01*
X156018173Y-91573186D02*
G75*
G03*
X155554170Y-96920999I1080827J-2787814D01*
G01*
X156018572Y-92106522D02*
G75*
G03*
X156019000Y-96615683I1080428J-2254478D01*
G01*
X158179000Y-96615684D02*
G75*
G03*
X158179429Y-92106521I-1080000J2254684D01*
G01*
X158643830Y-96920999D02*
G75*
G03*
X158179827Y-91573186I-1544830J2559999D01*
G01*
%TO.C,J5*%
X175581000Y-94802000D02*
X175581000Y-93472000D01*
X176911000Y-94802000D02*
X175581000Y-94802000D01*
X178181000Y-94802000D02*
X183321000Y-94802000D01*
X178181000Y-94802000D02*
X178181000Y-92202000D01*
X183321000Y-94802000D02*
X183321000Y-89602000D01*
X175581000Y-92202000D02*
X175581000Y-89602000D01*
X178181000Y-92202000D02*
X175581000Y-92202000D01*
X175581000Y-89602000D02*
X183321000Y-89602000D01*
%TO.C,U1*%
X173518000Y-128505000D02*
X167508000Y-128505000D01*
X171268000Y-121685000D02*
X167508000Y-121685000D01*
X167508000Y-128505000D02*
X167508000Y-127245000D01*
X167508000Y-121685000D02*
X167508000Y-122945000D01*
%TO.C,R10*%
X165622500Y-95362742D02*
X165622500Y-95837258D01*
X164577500Y-95362742D02*
X164577500Y-95837258D01*
%TO.C,U7*%
X160474000Y-81480000D02*
X160474000Y-81930000D01*
X160474000Y-81930000D02*
X159184000Y-81930000D01*
X160474000Y-88700000D02*
X160474000Y-88250000D01*
X160924000Y-81480000D02*
X160474000Y-81480000D01*
X160924000Y-88700000D02*
X160474000Y-88700000D01*
X167244000Y-81480000D02*
X167694000Y-81480000D01*
X167244000Y-88700000D02*
X167694000Y-88700000D01*
X167694000Y-81480000D02*
X167694000Y-81930000D01*
X167694000Y-88700000D02*
X167694000Y-88250000D01*
%TO.C,C7*%
X157863000Y-73125420D02*
X157863000Y-73406580D01*
X156843000Y-73125420D02*
X156843000Y-73406580D01*
%TO.C,C20*%
X152335620Y-83716400D02*
X152616780Y-83716400D01*
X152335620Y-84736400D02*
X152616780Y-84736400D01*
%TO.C,J1*%
X179290000Y-87560000D02*
X179290000Y-85500000D01*
X181000000Y-87560000D02*
X179290000Y-87560000D01*
X185110000Y-87560000D02*
X183500000Y-87560000D01*
X185110000Y-87560000D02*
X185110000Y-79840000D01*
X179290000Y-85500000D02*
X178700000Y-85500000D01*
X179290000Y-79840000D02*
X179290000Y-81900000D01*
X181000000Y-79840000D02*
X179290000Y-79840000D01*
X185110000Y-79840000D02*
X183500000Y-79840000D01*
%TO.C,Q2*%
X172471500Y-109184000D02*
X170671500Y-109184000D01*
X172471500Y-109184000D02*
X173271500Y-109184000D01*
X172471500Y-112304000D02*
X171671500Y-112304000D01*
X172471500Y-112304000D02*
X173271500Y-112304000D01*
%TO.C,Q3*%
X172460500Y-103784000D02*
X170660500Y-103784000D01*
X172460500Y-103784000D02*
X173260500Y-103784000D01*
X172460500Y-106904000D02*
X171660500Y-106904000D01*
X172460500Y-106904000D02*
X173260500Y-106904000D01*
%TO.C,J3*%
X147888000Y-101152000D02*
X146558000Y-101152000D01*
X147888000Y-99822000D02*
X147888000Y-101152000D01*
X147888000Y-98552000D02*
X147888000Y-85792000D01*
X147888000Y-98552000D02*
X145228000Y-98552000D01*
X147888000Y-85792000D02*
X145228000Y-85792000D01*
X145228000Y-98552000D02*
X145228000Y-85792000D01*
%TO.C,J4*%
X150996000Y-118513000D02*
X151736000Y-118513000D01*
X151736000Y-118513000D02*
X151736000Y-118013000D01*
X145176000Y-118273000D02*
X151496000Y-118273000D01*
X145176000Y-118273000D02*
X145176000Y-102453000D01*
X145636000Y-118273000D02*
X145636000Y-102453000D01*
X150936000Y-118273000D02*
X150936000Y-102453000D01*
X151496000Y-118273000D02*
X151496000Y-102453000D01*
X145176000Y-102453000D02*
X151496000Y-102453000D01*
%TO.C,C2*%
X162425748Y-122048600D02*
X162948252Y-122048600D01*
X162425748Y-123518600D02*
X162948252Y-123518600D01*
%TO.C,R18*%
X164196500Y-111806258D02*
X164196500Y-111331742D01*
X165241500Y-111806258D02*
X165241500Y-111331742D01*
%TO.C,U2*%
X160183000Y-128505000D02*
X154173000Y-128505000D01*
X157933000Y-121685000D02*
X154173000Y-121685000D01*
X154173000Y-128505000D02*
X154173000Y-127245000D01*
X154173000Y-121685000D02*
X154173000Y-122945000D01*
%TO.C,J9*%
X167700000Y-69028000D02*
X167700000Y-70358000D01*
X166370000Y-69028000D02*
X167700000Y-69028000D01*
X165100000Y-69028000D02*
X159960000Y-69028000D01*
X165100000Y-69028000D02*
X165100000Y-71688000D01*
X159960000Y-69028000D02*
X159960000Y-71688000D01*
X165100000Y-71688000D02*
X159960000Y-71688000D01*
%TO.C,C5*%
X173228580Y-72138000D02*
X172947420Y-72138000D01*
X173228580Y-71118000D02*
X172947420Y-71118000D01*
%TO.C,R9*%
X172322258Y-103138500D02*
X171847742Y-103138500D01*
X172322258Y-102093500D02*
X171847742Y-102093500D01*
%TO.C,R17*%
X155020742Y-65415900D02*
X155495258Y-65415900D01*
X155020742Y-66460900D02*
X155495258Y-66460900D01*
%TO.C,C16*%
X170051000Y-82182580D02*
X170051000Y-81901420D01*
X171071000Y-82182580D02*
X171071000Y-81901420D01*
%TO.C,R19*%
X166892500Y-111332742D02*
X166892500Y-111807258D01*
X165847500Y-111332742D02*
X165847500Y-111807258D01*
%TO.C,D1*%
X168515000Y-115790000D02*
X168515000Y-117710000D01*
X168515000Y-117710000D02*
X171200000Y-117710000D01*
X171200000Y-115790000D02*
X168515000Y-115790000D01*
%TO.C,C11*%
X150100420Y-74547000D02*
X150381580Y-74547000D01*
X150100420Y-75567000D02*
X150381580Y-75567000D01*
%TO.C,C12*%
X166640580Y-118210000D02*
X166359420Y-118210000D01*
X166640580Y-117190000D02*
X166359420Y-117190000D01*
%TO.C,C10*%
X156672000Y-104166580D02*
X156672000Y-103885420D01*
X157692000Y-104166580D02*
X157692000Y-103885420D01*
%TO.C,SW1*%
X148348000Y-72715000D02*
X149848000Y-72715000D01*
X152348000Y-71465000D02*
X152348000Y-66965000D01*
X145848000Y-66965000D02*
X145848000Y-71465000D01*
X149848000Y-65715000D02*
X148348000Y-65715000D01*
%TO.C,R12*%
X179038942Y-122577500D02*
X179513458Y-122577500D01*
X179038942Y-123622500D02*
X179513458Y-123622500D01*
D16*
%TO.C,U4*%
X169698000Y-72795000D02*
X169948000Y-72795000D01*
X169698000Y-73795000D02*
X169698000Y-72795000D01*
X169698000Y-75795000D02*
X169698000Y-74795000D01*
X169948000Y-75795000D02*
X169698000Y-75795000D01*
X174198000Y-72795000D02*
X173948000Y-72795000D01*
X174198000Y-73795000D02*
X174198000Y-72795000D01*
X174198000Y-74795000D02*
X174198000Y-75795000D01*
X174198000Y-75795000D02*
X173948000Y-75795000D01*
D10*
X170419000Y-72195000D02*
G75*
G03*
X170419000Y-72195000I-100000J0D01*
G01*
D15*
%TO.C,C21*%
X157478000Y-81433580D02*
X157478000Y-81152420D01*
X158498000Y-81433580D02*
X158498000Y-81152420D01*
%TO.C,C4*%
X162425748Y-124360000D02*
X162948252Y-124360000D01*
X162425748Y-125830000D02*
X162948252Y-125830000D01*
%TO.C,C1*%
X175379748Y-122074000D02*
X175902252Y-122074000D01*
X175379748Y-123544000D02*
X175902252Y-123544000D01*
%TO.C,R7*%
X172322258Y-108663500D02*
X171847742Y-108663500D01*
X172322258Y-107618500D02*
X171847742Y-107618500D01*
%TD*%
M02*
