%TF.GenerationSoftware,KiCad,Pcbnew,(7.0.0)*%
%TF.CreationDate,2023-07-06T10:13:40+01:00*%
%TF.ProjectId,wolf flight comp,776f6c66-2066-46c6-9967-687420636f6d,rev?*%
%TF.SameCoordinates,Original*%
%TF.FileFunction,Legend,Bot*%
%TF.FilePolarity,Positive*%
%FSLAX46Y46*%
G04 Gerber Fmt 4.6, Leading zero omitted, Abs format (unit mm)*
G04 Created by KiCad (PCBNEW (7.0.0)) date 2023-07-06 10:13:40*
%MOMM*%
%LPD*%
G01*
G04 APERTURE LIST*
%ADD10C,0.200000*%
%ADD11C,0.300000*%
%ADD12C,0.150000*%
%ADD13C,0.254000*%
%ADD14C,0.120000*%
%ADD15C,0.100000*%
G04 APERTURE END LIST*
D10*
X167668624Y-108259402D02*
X168173700Y-108764478D01*
X168173700Y-108764478D02*
X168308387Y-108831822D01*
X168308387Y-108831822D02*
X168443074Y-108831822D01*
X168443074Y-108831822D02*
X168577761Y-108764478D01*
X168577761Y-108764478D02*
X168645104Y-108697135D01*
X167702295Y-109639944D02*
X168039013Y-109303227D01*
X168039013Y-109303227D02*
X167331906Y-108596120D01*
X166995188Y-110212364D02*
X167062532Y-110212364D01*
X167062532Y-110212364D02*
X167197219Y-110145020D01*
X167197219Y-110145020D02*
X167264562Y-110077677D01*
X167264562Y-110077677D02*
X167331906Y-109942990D01*
X167331906Y-109942990D02*
X167331906Y-109808303D01*
X167331906Y-109808303D02*
X167298234Y-109707288D01*
X167298234Y-109707288D02*
X167197219Y-109538929D01*
X167197219Y-109538929D02*
X167096203Y-109437914D01*
X167096203Y-109437914D02*
X166927845Y-109336898D01*
X166927845Y-109336898D02*
X166826829Y-109303227D01*
X166826829Y-109303227D02*
X166692142Y-109303227D01*
X166692142Y-109303227D02*
X166557455Y-109370570D01*
X166557455Y-109370570D02*
X166490112Y-109437914D01*
X166490112Y-109437914D02*
X166422768Y-109572601D01*
X166422768Y-109572601D02*
X166422768Y-109639944D01*
X165850349Y-110077677D02*
X166355425Y-110582753D01*
X166355425Y-110582753D02*
X166490112Y-110650097D01*
X166490112Y-110650097D02*
X166624799Y-110650097D01*
X166624799Y-110650097D02*
X166759486Y-110582753D01*
X166759486Y-110582753D02*
X166826829Y-110515410D01*
X165884020Y-111458219D02*
X166220738Y-111121501D01*
X166220738Y-111121501D02*
X165513631Y-110414395D01*
X165176913Y-112030639D02*
X165244257Y-112030639D01*
X165244257Y-112030639D02*
X165378944Y-111963295D01*
X165378944Y-111963295D02*
X165446287Y-111895952D01*
X165446287Y-111895952D02*
X165513631Y-111761265D01*
X165513631Y-111761265D02*
X165513631Y-111626578D01*
X165513631Y-111626578D02*
X165479959Y-111525563D01*
X165479959Y-111525563D02*
X165378944Y-111357204D01*
X165378944Y-111357204D02*
X165277929Y-111256189D01*
X165277929Y-111256189D02*
X165109570Y-111155173D01*
X165109570Y-111155173D02*
X165008555Y-111121502D01*
X165008555Y-111121502D02*
X164873868Y-111121502D01*
X164873868Y-111121502D02*
X164739181Y-111188845D01*
X164739181Y-111188845D02*
X164671837Y-111256189D01*
X164671837Y-111256189D02*
X164604494Y-111390876D01*
X164604494Y-111390876D02*
X164604494Y-111458219D01*
X164032074Y-111895952D02*
X164537150Y-112401028D01*
X164537150Y-112401028D02*
X164671837Y-112468372D01*
X164671837Y-112468372D02*
X164806524Y-112468372D01*
X164806524Y-112468372D02*
X164941211Y-112401028D01*
X164941211Y-112401028D02*
X165008555Y-112333685D01*
X164065745Y-113276494D02*
X164402463Y-112939776D01*
X164402463Y-112939776D02*
X163695356Y-112232670D01*
X163358638Y-113848914D02*
X163425982Y-113848914D01*
X163425982Y-113848914D02*
X163560669Y-113781570D01*
X163560669Y-113781570D02*
X163628012Y-113714227D01*
X163628012Y-113714227D02*
X163695356Y-113579540D01*
X163695356Y-113579540D02*
X163695356Y-113444853D01*
X163695356Y-113444853D02*
X163661684Y-113343837D01*
X163661684Y-113343837D02*
X163560669Y-113175479D01*
X163560669Y-113175479D02*
X163459654Y-113074463D01*
X163459654Y-113074463D02*
X163291295Y-112973448D01*
X163291295Y-112973448D02*
X163190280Y-112939776D01*
X163190280Y-112939776D02*
X163055593Y-112939776D01*
X163055593Y-112939776D02*
X162920906Y-113007120D01*
X162920906Y-113007120D02*
X162853562Y-113074463D01*
X162853562Y-113074463D02*
X162786219Y-113209150D01*
X162786219Y-113209150D02*
X162786219Y-113276494D01*
X162213799Y-113714227D02*
X162718875Y-114219303D01*
X162718875Y-114219303D02*
X162853562Y-114286647D01*
X162853562Y-114286647D02*
X162988249Y-114286647D01*
X162988249Y-114286647D02*
X163122936Y-114219303D01*
X163122936Y-114219303D02*
X163190280Y-114151959D01*
X162247470Y-115094769D02*
X162584188Y-114758051D01*
X162584188Y-114758051D02*
X161877081Y-114050944D01*
X161540364Y-115667189D02*
X161607707Y-115667189D01*
X161607707Y-115667189D02*
X161742394Y-115599845D01*
X161742394Y-115599845D02*
X161809738Y-115532502D01*
X161809738Y-115532502D02*
X161877081Y-115397815D01*
X161877081Y-115397815D02*
X161877081Y-115263128D01*
X161877081Y-115263128D02*
X161843409Y-115162112D01*
X161843409Y-115162112D02*
X161742394Y-114993754D01*
X161742394Y-114993754D02*
X161641379Y-114892738D01*
X161641379Y-114892738D02*
X161473020Y-114791723D01*
X161473020Y-114791723D02*
X161372005Y-114758051D01*
X161372005Y-114758051D02*
X161237318Y-114758051D01*
X161237318Y-114758051D02*
X161102631Y-114825395D01*
X161102631Y-114825395D02*
X161035287Y-114892738D01*
X161035287Y-114892738D02*
X160967944Y-115027425D01*
X160967944Y-115027425D02*
X160967944Y-115094769D01*
X171809523Y-95734761D02*
X171666666Y-95782380D01*
X171666666Y-95782380D02*
X171428571Y-95782380D01*
X171428571Y-95782380D02*
X171333333Y-95734761D01*
X171333333Y-95734761D02*
X171285714Y-95687142D01*
X171285714Y-95687142D02*
X171238095Y-95591904D01*
X171238095Y-95591904D02*
X171238095Y-95496666D01*
X171238095Y-95496666D02*
X171285714Y-95401428D01*
X171285714Y-95401428D02*
X171333333Y-95353809D01*
X171333333Y-95353809D02*
X171428571Y-95306190D01*
X171428571Y-95306190D02*
X171619047Y-95258571D01*
X171619047Y-95258571D02*
X171714285Y-95210952D01*
X171714285Y-95210952D02*
X171761904Y-95163333D01*
X171761904Y-95163333D02*
X171809523Y-95068095D01*
X171809523Y-95068095D02*
X171809523Y-94972857D01*
X171809523Y-94972857D02*
X171761904Y-94877619D01*
X171761904Y-94877619D02*
X171714285Y-94830000D01*
X171714285Y-94830000D02*
X171619047Y-94782380D01*
X171619047Y-94782380D02*
X171380952Y-94782380D01*
X171380952Y-94782380D02*
X171238095Y-94830000D01*
X170809523Y-95258571D02*
X170476190Y-95258571D01*
X170333333Y-95782380D02*
X170809523Y-95782380D01*
X170809523Y-95782380D02*
X170809523Y-94782380D01*
X170809523Y-94782380D02*
X170333333Y-94782380D01*
X169333333Y-95782380D02*
X169666666Y-95306190D01*
X169904761Y-95782380D02*
X169904761Y-94782380D01*
X169904761Y-94782380D02*
X169523809Y-94782380D01*
X169523809Y-94782380D02*
X169428571Y-94830000D01*
X169428571Y-94830000D02*
X169380952Y-94877619D01*
X169380952Y-94877619D02*
X169333333Y-94972857D01*
X169333333Y-94972857D02*
X169333333Y-95115714D01*
X169333333Y-95115714D02*
X169380952Y-95210952D01*
X169380952Y-95210952D02*
X169428571Y-95258571D01*
X169428571Y-95258571D02*
X169523809Y-95306190D01*
X169523809Y-95306190D02*
X169904761Y-95306190D01*
X169047618Y-94782380D02*
X168714285Y-95782380D01*
X168714285Y-95782380D02*
X168380952Y-94782380D01*
X167857142Y-94782380D02*
X167666666Y-94782380D01*
X167666666Y-94782380D02*
X167571428Y-94830000D01*
X167571428Y-94830000D02*
X167476190Y-94925238D01*
X167476190Y-94925238D02*
X167428571Y-95115714D01*
X167428571Y-95115714D02*
X167428571Y-95449047D01*
X167428571Y-95449047D02*
X167476190Y-95639523D01*
X167476190Y-95639523D02*
X167571428Y-95734761D01*
X167571428Y-95734761D02*
X167666666Y-95782380D01*
X167666666Y-95782380D02*
X167857142Y-95782380D01*
X167857142Y-95782380D02*
X167952380Y-95734761D01*
X167952380Y-95734761D02*
X168047618Y-95639523D01*
X168047618Y-95639523D02*
X168095237Y-95449047D01*
X168095237Y-95449047D02*
X168095237Y-95115714D01*
X168095237Y-95115714D02*
X168047618Y-94925238D01*
X168047618Y-94925238D02*
X167952380Y-94830000D01*
X167952380Y-94830000D02*
X167857142Y-94782380D01*
X149809523Y-83084761D02*
X149666666Y-83132380D01*
X149666666Y-83132380D02*
X149428571Y-83132380D01*
X149428571Y-83132380D02*
X149333333Y-83084761D01*
X149333333Y-83084761D02*
X149285714Y-83037142D01*
X149285714Y-83037142D02*
X149238095Y-82941904D01*
X149238095Y-82941904D02*
X149238095Y-82846666D01*
X149238095Y-82846666D02*
X149285714Y-82751428D01*
X149285714Y-82751428D02*
X149333333Y-82703809D01*
X149333333Y-82703809D02*
X149428571Y-82656190D01*
X149428571Y-82656190D02*
X149619047Y-82608571D01*
X149619047Y-82608571D02*
X149714285Y-82560952D01*
X149714285Y-82560952D02*
X149761904Y-82513333D01*
X149761904Y-82513333D02*
X149809523Y-82418095D01*
X149809523Y-82418095D02*
X149809523Y-82322857D01*
X149809523Y-82322857D02*
X149761904Y-82227619D01*
X149761904Y-82227619D02*
X149714285Y-82180000D01*
X149714285Y-82180000D02*
X149619047Y-82132380D01*
X149619047Y-82132380D02*
X149380952Y-82132380D01*
X149380952Y-82132380D02*
X149238095Y-82180000D01*
X148809523Y-83132380D02*
X148809523Y-82132380D01*
X148809523Y-82132380D02*
X148428571Y-82132380D01*
X148428571Y-82132380D02*
X148333333Y-82180000D01*
X148333333Y-82180000D02*
X148285714Y-82227619D01*
X148285714Y-82227619D02*
X148238095Y-82322857D01*
X148238095Y-82322857D02*
X148238095Y-82465714D01*
X148238095Y-82465714D02*
X148285714Y-82560952D01*
X148285714Y-82560952D02*
X148333333Y-82608571D01*
X148333333Y-82608571D02*
X148428571Y-82656190D01*
X148428571Y-82656190D02*
X148809523Y-82656190D01*
X147809523Y-83132380D02*
X147809523Y-82132380D01*
X177411904Y-66951428D02*
X176650000Y-66951428D01*
X177030952Y-67332380D02*
X177030952Y-66570476D01*
X176269047Y-66332380D02*
X175650000Y-66332380D01*
X175650000Y-66332380D02*
X175983333Y-66713333D01*
X175983333Y-66713333D02*
X175840476Y-66713333D01*
X175840476Y-66713333D02*
X175745238Y-66760952D01*
X175745238Y-66760952D02*
X175697619Y-66808571D01*
X175697619Y-66808571D02*
X175650000Y-66903809D01*
X175650000Y-66903809D02*
X175650000Y-67141904D01*
X175650000Y-67141904D02*
X175697619Y-67237142D01*
X175697619Y-67237142D02*
X175745238Y-67284761D01*
X175745238Y-67284761D02*
X175840476Y-67332380D01*
X175840476Y-67332380D02*
X176126190Y-67332380D01*
X176126190Y-67332380D02*
X176221428Y-67284761D01*
X176221428Y-67284761D02*
X176269047Y-67237142D01*
X175364285Y-66332380D02*
X175030952Y-67332380D01*
X175030952Y-67332380D02*
X174697619Y-66332380D01*
X174459523Y-66332380D02*
X173840476Y-66332380D01*
X173840476Y-66332380D02*
X174173809Y-66713333D01*
X174173809Y-66713333D02*
X174030952Y-66713333D01*
X174030952Y-66713333D02*
X173935714Y-66760952D01*
X173935714Y-66760952D02*
X173888095Y-66808571D01*
X173888095Y-66808571D02*
X173840476Y-66903809D01*
X173840476Y-66903809D02*
X173840476Y-67141904D01*
X173840476Y-67141904D02*
X173888095Y-67237142D01*
X173888095Y-67237142D02*
X173935714Y-67284761D01*
X173935714Y-67284761D02*
X174030952Y-67332380D01*
X174030952Y-67332380D02*
X174316666Y-67332380D01*
X174316666Y-67332380D02*
X174411904Y-67284761D01*
X174411904Y-67284761D02*
X174459523Y-67237142D01*
X177461904Y-69701428D02*
X176700000Y-69701428D01*
X177080952Y-70082380D02*
X177080952Y-69320476D01*
X175747619Y-69082380D02*
X176223809Y-69082380D01*
X176223809Y-69082380D02*
X176271428Y-69558571D01*
X176271428Y-69558571D02*
X176223809Y-69510952D01*
X176223809Y-69510952D02*
X176128571Y-69463333D01*
X176128571Y-69463333D02*
X175890476Y-69463333D01*
X175890476Y-69463333D02*
X175795238Y-69510952D01*
X175795238Y-69510952D02*
X175747619Y-69558571D01*
X175747619Y-69558571D02*
X175700000Y-69653809D01*
X175700000Y-69653809D02*
X175700000Y-69891904D01*
X175700000Y-69891904D02*
X175747619Y-69987142D01*
X175747619Y-69987142D02*
X175795238Y-70034761D01*
X175795238Y-70034761D02*
X175890476Y-70082380D01*
X175890476Y-70082380D02*
X176128571Y-70082380D01*
X176128571Y-70082380D02*
X176223809Y-70034761D01*
X176223809Y-70034761D02*
X176271428Y-69987142D01*
X175414285Y-69082380D02*
X175080952Y-70082380D01*
X175080952Y-70082380D02*
X174747619Y-69082380D01*
D11*
X156364285Y-109365000D02*
X155650000Y-109365000D01*
X156507142Y-109793571D02*
X156007142Y-108293571D01*
X156007142Y-108293571D02*
X155507142Y-109793571D01*
X154150000Y-109793571D02*
X154650000Y-109079285D01*
X155007143Y-109793571D02*
X155007143Y-108293571D01*
X155007143Y-108293571D02*
X154435714Y-108293571D01*
X154435714Y-108293571D02*
X154292857Y-108365000D01*
X154292857Y-108365000D02*
X154221428Y-108436428D01*
X154221428Y-108436428D02*
X154150000Y-108579285D01*
X154150000Y-108579285D02*
X154150000Y-108793571D01*
X154150000Y-108793571D02*
X154221428Y-108936428D01*
X154221428Y-108936428D02*
X154292857Y-109007857D01*
X154292857Y-109007857D02*
X154435714Y-109079285D01*
X154435714Y-109079285D02*
X155007143Y-109079285D01*
X153507143Y-109793571D02*
X153507143Y-108293571D01*
X153507143Y-108293571D02*
X153007143Y-109365000D01*
X153007143Y-109365000D02*
X152507143Y-108293571D01*
X152507143Y-108293571D02*
X152507143Y-109793571D01*
X151792857Y-109222142D02*
X150650000Y-109222142D01*
X151221428Y-109793571D02*
X151221428Y-108650714D01*
X156264285Y-106795000D02*
X155550000Y-106795000D01*
X156407142Y-107223571D02*
X155907142Y-105723571D01*
X155907142Y-105723571D02*
X155407142Y-107223571D01*
X154050000Y-107223571D02*
X154550000Y-106509285D01*
X154907143Y-107223571D02*
X154907143Y-105723571D01*
X154907143Y-105723571D02*
X154335714Y-105723571D01*
X154335714Y-105723571D02*
X154192857Y-105795000D01*
X154192857Y-105795000D02*
X154121428Y-105866428D01*
X154121428Y-105866428D02*
X154050000Y-106009285D01*
X154050000Y-106009285D02*
X154050000Y-106223571D01*
X154050000Y-106223571D02*
X154121428Y-106366428D01*
X154121428Y-106366428D02*
X154192857Y-106437857D01*
X154192857Y-106437857D02*
X154335714Y-106509285D01*
X154335714Y-106509285D02*
X154907143Y-106509285D01*
X153407143Y-107223571D02*
X153407143Y-105723571D01*
X153407143Y-105723571D02*
X152907143Y-106795000D01*
X152907143Y-106795000D02*
X152407143Y-105723571D01*
X152407143Y-105723571D02*
X152407143Y-107223571D01*
X151692857Y-106652142D02*
X150550000Y-106652142D01*
X178142857Y-112673571D02*
X178142857Y-111173571D01*
X178142857Y-111173571D02*
X177571428Y-111173571D01*
X177571428Y-111173571D02*
X177428571Y-111245000D01*
X177428571Y-111245000D02*
X177357142Y-111316428D01*
X177357142Y-111316428D02*
X177285714Y-111459285D01*
X177285714Y-111459285D02*
X177285714Y-111673571D01*
X177285714Y-111673571D02*
X177357142Y-111816428D01*
X177357142Y-111816428D02*
X177428571Y-111887857D01*
X177428571Y-111887857D02*
X177571428Y-111959285D01*
X177571428Y-111959285D02*
X178142857Y-111959285D01*
X175857142Y-112673571D02*
X176714285Y-112673571D01*
X176285714Y-112673571D02*
X176285714Y-111173571D01*
X176285714Y-111173571D02*
X176428571Y-111387857D01*
X176428571Y-111387857D02*
X176571428Y-111530714D01*
X176571428Y-111530714D02*
X176714285Y-111602142D01*
X175214286Y-112102142D02*
X174071429Y-112102142D01*
X174642857Y-112673571D02*
X174642857Y-111530714D01*
D10*
X155211904Y-92482380D02*
X155211904Y-93291904D01*
X155211904Y-93291904D02*
X155164285Y-93387142D01*
X155164285Y-93387142D02*
X155116666Y-93434761D01*
X155116666Y-93434761D02*
X155021428Y-93482380D01*
X155021428Y-93482380D02*
X154830952Y-93482380D01*
X154830952Y-93482380D02*
X154735714Y-93434761D01*
X154735714Y-93434761D02*
X154688095Y-93387142D01*
X154688095Y-93387142D02*
X154640476Y-93291904D01*
X154640476Y-93291904D02*
X154640476Y-92482380D01*
D11*
X154542857Y-117723571D02*
X154542857Y-116223571D01*
X154542857Y-116223571D02*
X153971428Y-116223571D01*
X153971428Y-116223571D02*
X153828571Y-116295000D01*
X153828571Y-116295000D02*
X153757142Y-116366428D01*
X153757142Y-116366428D02*
X153685714Y-116509285D01*
X153685714Y-116509285D02*
X153685714Y-116723571D01*
X153685714Y-116723571D02*
X153757142Y-116866428D01*
X153757142Y-116866428D02*
X153828571Y-116937857D01*
X153828571Y-116937857D02*
X153971428Y-117009285D01*
X153971428Y-117009285D02*
X154542857Y-117009285D01*
X152542857Y-116937857D02*
X152328571Y-117009285D01*
X152328571Y-117009285D02*
X152257142Y-117080714D01*
X152257142Y-117080714D02*
X152185714Y-117223571D01*
X152185714Y-117223571D02*
X152185714Y-117437857D01*
X152185714Y-117437857D02*
X152257142Y-117580714D01*
X152257142Y-117580714D02*
X152328571Y-117652142D01*
X152328571Y-117652142D02*
X152471428Y-117723571D01*
X152471428Y-117723571D02*
X153042857Y-117723571D01*
X153042857Y-117723571D02*
X153042857Y-116223571D01*
X153042857Y-116223571D02*
X152542857Y-116223571D01*
X152542857Y-116223571D02*
X152400000Y-116295000D01*
X152400000Y-116295000D02*
X152328571Y-116366428D01*
X152328571Y-116366428D02*
X152257142Y-116509285D01*
X152257142Y-116509285D02*
X152257142Y-116652142D01*
X152257142Y-116652142D02*
X152328571Y-116795000D01*
X152328571Y-116795000D02*
X152400000Y-116866428D01*
X152400000Y-116866428D02*
X152542857Y-116937857D01*
X152542857Y-116937857D02*
X153042857Y-116937857D01*
X151614285Y-116366428D02*
X151542857Y-116295000D01*
X151542857Y-116295000D02*
X151400000Y-116223571D01*
X151400000Y-116223571D02*
X151042857Y-116223571D01*
X151042857Y-116223571D02*
X150900000Y-116295000D01*
X150900000Y-116295000D02*
X150828571Y-116366428D01*
X150828571Y-116366428D02*
X150757142Y-116509285D01*
X150757142Y-116509285D02*
X150757142Y-116652142D01*
X150757142Y-116652142D02*
X150828571Y-116866428D01*
X150828571Y-116866428D02*
X151685714Y-117723571D01*
X151685714Y-117723571D02*
X150757142Y-117723571D01*
D10*
X177261904Y-68782380D02*
X177261904Y-67782380D01*
X176833333Y-67877619D02*
X176785714Y-67830000D01*
X176785714Y-67830000D02*
X176690476Y-67782380D01*
X176690476Y-67782380D02*
X176452381Y-67782380D01*
X176452381Y-67782380D02*
X176357143Y-67830000D01*
X176357143Y-67830000D02*
X176309524Y-67877619D01*
X176309524Y-67877619D02*
X176261905Y-67972857D01*
X176261905Y-67972857D02*
X176261905Y-68068095D01*
X176261905Y-68068095D02*
X176309524Y-68210952D01*
X176309524Y-68210952D02*
X176880952Y-68782380D01*
X176880952Y-68782380D02*
X176261905Y-68782380D01*
X175261905Y-68687142D02*
X175309524Y-68734761D01*
X175309524Y-68734761D02*
X175452381Y-68782380D01*
X175452381Y-68782380D02*
X175547619Y-68782380D01*
X175547619Y-68782380D02*
X175690476Y-68734761D01*
X175690476Y-68734761D02*
X175785714Y-68639523D01*
X175785714Y-68639523D02*
X175833333Y-68544285D01*
X175833333Y-68544285D02*
X175880952Y-68353809D01*
X175880952Y-68353809D02*
X175880952Y-68210952D01*
X175880952Y-68210952D02*
X175833333Y-68020476D01*
X175833333Y-68020476D02*
X175785714Y-67925238D01*
X175785714Y-67925238D02*
X175690476Y-67830000D01*
X175690476Y-67830000D02*
X175547619Y-67782380D01*
X175547619Y-67782380D02*
X175452381Y-67782380D01*
X175452381Y-67782380D02*
X175309524Y-67830000D01*
X175309524Y-67830000D02*
X175261905Y-67877619D01*
D11*
X178292857Y-105173571D02*
X178292857Y-103673571D01*
X178292857Y-103673571D02*
X177721428Y-103673571D01*
X177721428Y-103673571D02*
X177578571Y-103745000D01*
X177578571Y-103745000D02*
X177507142Y-103816428D01*
X177507142Y-103816428D02*
X177435714Y-103959285D01*
X177435714Y-103959285D02*
X177435714Y-104173571D01*
X177435714Y-104173571D02*
X177507142Y-104316428D01*
X177507142Y-104316428D02*
X177578571Y-104387857D01*
X177578571Y-104387857D02*
X177721428Y-104459285D01*
X177721428Y-104459285D02*
X178292857Y-104459285D01*
X176864285Y-103816428D02*
X176792857Y-103745000D01*
X176792857Y-103745000D02*
X176650000Y-103673571D01*
X176650000Y-103673571D02*
X176292857Y-103673571D01*
X176292857Y-103673571D02*
X176150000Y-103745000D01*
X176150000Y-103745000D02*
X176078571Y-103816428D01*
X176078571Y-103816428D02*
X176007142Y-103959285D01*
X176007142Y-103959285D02*
X176007142Y-104102142D01*
X176007142Y-104102142D02*
X176078571Y-104316428D01*
X176078571Y-104316428D02*
X176935714Y-105173571D01*
X176935714Y-105173571D02*
X176007142Y-105173571D01*
X175364286Y-104602142D02*
X174221429Y-104602142D01*
X177642857Y-114637857D02*
X177428571Y-114709285D01*
X177428571Y-114709285D02*
X177357142Y-114780714D01*
X177357142Y-114780714D02*
X177285714Y-114923571D01*
X177285714Y-114923571D02*
X177285714Y-115137857D01*
X177285714Y-115137857D02*
X177357142Y-115280714D01*
X177357142Y-115280714D02*
X177428571Y-115352142D01*
X177428571Y-115352142D02*
X177571428Y-115423571D01*
X177571428Y-115423571D02*
X178142857Y-115423571D01*
X178142857Y-115423571D02*
X178142857Y-113923571D01*
X178142857Y-113923571D02*
X177642857Y-113923571D01*
X177642857Y-113923571D02*
X177500000Y-113995000D01*
X177500000Y-113995000D02*
X177428571Y-114066428D01*
X177428571Y-114066428D02*
X177357142Y-114209285D01*
X177357142Y-114209285D02*
X177357142Y-114352142D01*
X177357142Y-114352142D02*
X177428571Y-114495000D01*
X177428571Y-114495000D02*
X177500000Y-114566428D01*
X177500000Y-114566428D02*
X177642857Y-114637857D01*
X177642857Y-114637857D02*
X178142857Y-114637857D01*
X176714285Y-114995000D02*
X176000000Y-114995000D01*
X176857142Y-115423571D02*
X176357142Y-113923571D01*
X176357142Y-113923571D02*
X175857142Y-115423571D01*
X175571428Y-113923571D02*
X174714286Y-113923571D01*
X175142857Y-115423571D02*
X175142857Y-113923571D01*
X174428571Y-113923571D02*
X173571429Y-113923571D01*
X174000000Y-115423571D02*
X174000000Y-113923571D01*
X173071429Y-114852142D02*
X171928572Y-114852142D01*
D10*
X172061904Y-94051428D02*
X171300000Y-94051428D01*
X171680952Y-94432380D02*
X171680952Y-93670476D01*
X170300000Y-94432380D02*
X170871428Y-94432380D01*
X170585714Y-94432380D02*
X170585714Y-93432380D01*
X170585714Y-93432380D02*
X170680952Y-93575238D01*
X170680952Y-93575238D02*
X170776190Y-93670476D01*
X170776190Y-93670476D02*
X170871428Y-93718095D01*
X169919047Y-93527619D02*
X169871428Y-93480000D01*
X169871428Y-93480000D02*
X169776190Y-93432380D01*
X169776190Y-93432380D02*
X169538095Y-93432380D01*
X169538095Y-93432380D02*
X169442857Y-93480000D01*
X169442857Y-93480000D02*
X169395238Y-93527619D01*
X169395238Y-93527619D02*
X169347619Y-93622857D01*
X169347619Y-93622857D02*
X169347619Y-93718095D01*
X169347619Y-93718095D02*
X169395238Y-93860952D01*
X169395238Y-93860952D02*
X169966666Y-94432380D01*
X169966666Y-94432380D02*
X169347619Y-94432380D01*
X169061904Y-93432380D02*
X168728571Y-94432380D01*
X168728571Y-94432380D02*
X168395238Y-93432380D01*
D11*
X178142857Y-110273571D02*
X178142857Y-108773571D01*
X178142857Y-108773571D02*
X177571428Y-108773571D01*
X177571428Y-108773571D02*
X177428571Y-108845000D01*
X177428571Y-108845000D02*
X177357142Y-108916428D01*
X177357142Y-108916428D02*
X177285714Y-109059285D01*
X177285714Y-109059285D02*
X177285714Y-109273571D01*
X177285714Y-109273571D02*
X177357142Y-109416428D01*
X177357142Y-109416428D02*
X177428571Y-109487857D01*
X177428571Y-109487857D02*
X177571428Y-109559285D01*
X177571428Y-109559285D02*
X178142857Y-109559285D01*
X175857142Y-110273571D02*
X176714285Y-110273571D01*
X176285714Y-110273571D02*
X176285714Y-108773571D01*
X176285714Y-108773571D02*
X176428571Y-108987857D01*
X176428571Y-108987857D02*
X176571428Y-109130714D01*
X176571428Y-109130714D02*
X176714285Y-109202142D01*
X175214286Y-109702142D02*
X174071429Y-109702142D01*
D10*
X172061904Y-96751428D02*
X171300000Y-96751428D01*
X171680952Y-97132380D02*
X171680952Y-96370476D01*
X170347619Y-96132380D02*
X170823809Y-96132380D01*
X170823809Y-96132380D02*
X170871428Y-96608571D01*
X170871428Y-96608571D02*
X170823809Y-96560952D01*
X170823809Y-96560952D02*
X170728571Y-96513333D01*
X170728571Y-96513333D02*
X170490476Y-96513333D01*
X170490476Y-96513333D02*
X170395238Y-96560952D01*
X170395238Y-96560952D02*
X170347619Y-96608571D01*
X170347619Y-96608571D02*
X170300000Y-96703809D01*
X170300000Y-96703809D02*
X170300000Y-96941904D01*
X170300000Y-96941904D02*
X170347619Y-97037142D01*
X170347619Y-97037142D02*
X170395238Y-97084761D01*
X170395238Y-97084761D02*
X170490476Y-97132380D01*
X170490476Y-97132380D02*
X170728571Y-97132380D01*
X170728571Y-97132380D02*
X170823809Y-97084761D01*
X170823809Y-97084761D02*
X170871428Y-97037142D01*
X170014285Y-96132380D02*
X169680952Y-97132380D01*
X169680952Y-97132380D02*
X169347619Y-96132380D01*
X155111904Y-90301428D02*
X154350000Y-90301428D01*
X154730952Y-90682380D02*
X154730952Y-89920476D01*
X153397619Y-89682380D02*
X153873809Y-89682380D01*
X153873809Y-89682380D02*
X153921428Y-90158571D01*
X153921428Y-90158571D02*
X153873809Y-90110952D01*
X153873809Y-90110952D02*
X153778571Y-90063333D01*
X153778571Y-90063333D02*
X153540476Y-90063333D01*
X153540476Y-90063333D02*
X153445238Y-90110952D01*
X153445238Y-90110952D02*
X153397619Y-90158571D01*
X153397619Y-90158571D02*
X153350000Y-90253809D01*
X153350000Y-90253809D02*
X153350000Y-90491904D01*
X153350000Y-90491904D02*
X153397619Y-90587142D01*
X153397619Y-90587142D02*
X153445238Y-90634761D01*
X153445238Y-90634761D02*
X153540476Y-90682380D01*
X153540476Y-90682380D02*
X153778571Y-90682380D01*
X153778571Y-90682380D02*
X153873809Y-90634761D01*
X153873809Y-90634761D02*
X153921428Y-90587142D01*
X153064285Y-89682380D02*
X152730952Y-90682380D01*
X152730952Y-90682380D02*
X152397619Y-89682380D01*
X151011904Y-84201428D02*
X150250000Y-84201428D01*
X150630952Y-84582380D02*
X150630952Y-83820476D01*
X149869047Y-83582380D02*
X149250000Y-83582380D01*
X149250000Y-83582380D02*
X149583333Y-83963333D01*
X149583333Y-83963333D02*
X149440476Y-83963333D01*
X149440476Y-83963333D02*
X149345238Y-84010952D01*
X149345238Y-84010952D02*
X149297619Y-84058571D01*
X149297619Y-84058571D02*
X149250000Y-84153809D01*
X149250000Y-84153809D02*
X149250000Y-84391904D01*
X149250000Y-84391904D02*
X149297619Y-84487142D01*
X149297619Y-84487142D02*
X149345238Y-84534761D01*
X149345238Y-84534761D02*
X149440476Y-84582380D01*
X149440476Y-84582380D02*
X149726190Y-84582380D01*
X149726190Y-84582380D02*
X149821428Y-84534761D01*
X149821428Y-84534761D02*
X149869047Y-84487142D01*
X148964285Y-83582380D02*
X148630952Y-84582380D01*
X148630952Y-84582380D02*
X148297619Y-83582380D01*
X148059523Y-83582380D02*
X147440476Y-83582380D01*
X147440476Y-83582380D02*
X147773809Y-83963333D01*
X147773809Y-83963333D02*
X147630952Y-83963333D01*
X147630952Y-83963333D02*
X147535714Y-84010952D01*
X147535714Y-84010952D02*
X147488095Y-84058571D01*
X147488095Y-84058571D02*
X147440476Y-84153809D01*
X147440476Y-84153809D02*
X147440476Y-84391904D01*
X147440476Y-84391904D02*
X147488095Y-84487142D01*
X147488095Y-84487142D02*
X147535714Y-84534761D01*
X147535714Y-84534761D02*
X147630952Y-84582380D01*
X147630952Y-84582380D02*
X147916666Y-84582380D01*
X147916666Y-84582380D02*
X148011904Y-84534761D01*
X148011904Y-84534761D02*
X148059523Y-84487142D01*
D11*
X154485714Y-113573571D02*
X153557142Y-113573571D01*
X153557142Y-113573571D02*
X154057142Y-114145000D01*
X154057142Y-114145000D02*
X153842857Y-114145000D01*
X153842857Y-114145000D02*
X153700000Y-114216428D01*
X153700000Y-114216428D02*
X153628571Y-114287857D01*
X153628571Y-114287857D02*
X153557142Y-114430714D01*
X153557142Y-114430714D02*
X153557142Y-114787857D01*
X153557142Y-114787857D02*
X153628571Y-114930714D01*
X153628571Y-114930714D02*
X153700000Y-115002142D01*
X153700000Y-115002142D02*
X153842857Y-115073571D01*
X153842857Y-115073571D02*
X154271428Y-115073571D01*
X154271428Y-115073571D02*
X154414285Y-115002142D01*
X154414285Y-115002142D02*
X154485714Y-114930714D01*
X153128571Y-113573571D02*
X152628571Y-115073571D01*
X152628571Y-115073571D02*
X152128571Y-113573571D01*
X151771429Y-113573571D02*
X150842857Y-113573571D01*
X150842857Y-113573571D02*
X151342857Y-114145000D01*
X151342857Y-114145000D02*
X151128572Y-114145000D01*
X151128572Y-114145000D02*
X150985715Y-114216428D01*
X150985715Y-114216428D02*
X150914286Y-114287857D01*
X150914286Y-114287857D02*
X150842857Y-114430714D01*
X150842857Y-114430714D02*
X150842857Y-114787857D01*
X150842857Y-114787857D02*
X150914286Y-114930714D01*
X150914286Y-114930714D02*
X150985715Y-115002142D01*
X150985715Y-115002142D02*
X151128572Y-115073571D01*
X151128572Y-115073571D02*
X151557143Y-115073571D01*
X151557143Y-115073571D02*
X151700000Y-115002142D01*
X151700000Y-115002142D02*
X151771429Y-114930714D01*
D10*
X150161904Y-81401428D02*
X149400000Y-81401428D01*
X149780952Y-81782380D02*
X149780952Y-81020476D01*
X148447619Y-80782380D02*
X148923809Y-80782380D01*
X148923809Y-80782380D02*
X148971428Y-81258571D01*
X148971428Y-81258571D02*
X148923809Y-81210952D01*
X148923809Y-81210952D02*
X148828571Y-81163333D01*
X148828571Y-81163333D02*
X148590476Y-81163333D01*
X148590476Y-81163333D02*
X148495238Y-81210952D01*
X148495238Y-81210952D02*
X148447619Y-81258571D01*
X148447619Y-81258571D02*
X148400000Y-81353809D01*
X148400000Y-81353809D02*
X148400000Y-81591904D01*
X148400000Y-81591904D02*
X148447619Y-81687142D01*
X148447619Y-81687142D02*
X148495238Y-81734761D01*
X148495238Y-81734761D02*
X148590476Y-81782380D01*
X148590476Y-81782380D02*
X148828571Y-81782380D01*
X148828571Y-81782380D02*
X148923809Y-81734761D01*
X148923809Y-81734761D02*
X148971428Y-81687142D01*
X148114285Y-80782380D02*
X147780952Y-81782380D01*
X147780952Y-81782380D02*
X147447619Y-80782380D01*
X155611904Y-96251428D02*
X154850000Y-96251428D01*
X155230952Y-96632380D02*
X155230952Y-95870476D01*
X154469047Y-95632380D02*
X153850000Y-95632380D01*
X153850000Y-95632380D02*
X154183333Y-96013333D01*
X154183333Y-96013333D02*
X154040476Y-96013333D01*
X154040476Y-96013333D02*
X153945238Y-96060952D01*
X153945238Y-96060952D02*
X153897619Y-96108571D01*
X153897619Y-96108571D02*
X153850000Y-96203809D01*
X153850000Y-96203809D02*
X153850000Y-96441904D01*
X153850000Y-96441904D02*
X153897619Y-96537142D01*
X153897619Y-96537142D02*
X153945238Y-96584761D01*
X153945238Y-96584761D02*
X154040476Y-96632380D01*
X154040476Y-96632380D02*
X154326190Y-96632380D01*
X154326190Y-96632380D02*
X154421428Y-96584761D01*
X154421428Y-96584761D02*
X154469047Y-96537142D01*
X153564285Y-95632380D02*
X153230952Y-96632380D01*
X153230952Y-96632380D02*
X152897619Y-95632380D01*
X152659523Y-95632380D02*
X152040476Y-95632380D01*
X152040476Y-95632380D02*
X152373809Y-96013333D01*
X152373809Y-96013333D02*
X152230952Y-96013333D01*
X152230952Y-96013333D02*
X152135714Y-96060952D01*
X152135714Y-96060952D02*
X152088095Y-96108571D01*
X152088095Y-96108571D02*
X152040476Y-96203809D01*
X152040476Y-96203809D02*
X152040476Y-96441904D01*
X152040476Y-96441904D02*
X152088095Y-96537142D01*
X152088095Y-96537142D02*
X152135714Y-96584761D01*
X152135714Y-96584761D02*
X152230952Y-96632380D01*
X152230952Y-96632380D02*
X152516666Y-96632380D01*
X152516666Y-96632380D02*
X152611904Y-96584761D01*
X152611904Y-96584761D02*
X152659523Y-96537142D01*
D11*
X156142857Y-104693571D02*
X156142857Y-103193571D01*
X156142857Y-103193571D02*
X155571428Y-103193571D01*
X155571428Y-103193571D02*
X155428571Y-103265000D01*
X155428571Y-103265000D02*
X155357142Y-103336428D01*
X155357142Y-103336428D02*
X155285714Y-103479285D01*
X155285714Y-103479285D02*
X155285714Y-103693571D01*
X155285714Y-103693571D02*
X155357142Y-103836428D01*
X155357142Y-103836428D02*
X155428571Y-103907857D01*
X155428571Y-103907857D02*
X155571428Y-103979285D01*
X155571428Y-103979285D02*
X156142857Y-103979285D01*
X153785714Y-104550714D02*
X153857142Y-104622142D01*
X153857142Y-104622142D02*
X154071428Y-104693571D01*
X154071428Y-104693571D02*
X154214285Y-104693571D01*
X154214285Y-104693571D02*
X154428571Y-104622142D01*
X154428571Y-104622142D02*
X154571428Y-104479285D01*
X154571428Y-104479285D02*
X154642857Y-104336428D01*
X154642857Y-104336428D02*
X154714285Y-104050714D01*
X154714285Y-104050714D02*
X154714285Y-103836428D01*
X154714285Y-103836428D02*
X154642857Y-103550714D01*
X154642857Y-103550714D02*
X154571428Y-103407857D01*
X154571428Y-103407857D02*
X154428571Y-103265000D01*
X154428571Y-103265000D02*
X154214285Y-103193571D01*
X154214285Y-103193571D02*
X154071428Y-103193571D01*
X154071428Y-103193571D02*
X153857142Y-103265000D01*
X153857142Y-103265000D02*
X153785714Y-103336428D01*
X152357142Y-104693571D02*
X153214285Y-104693571D01*
X152785714Y-104693571D02*
X152785714Y-103193571D01*
X152785714Y-103193571D02*
X152928571Y-103407857D01*
X152928571Y-103407857D02*
X153071428Y-103550714D01*
X153071428Y-103550714D02*
X153214285Y-103622142D01*
X151071429Y-103693571D02*
X151071429Y-104693571D01*
X151428571Y-103122142D02*
X151785714Y-104193571D01*
X151785714Y-104193571D02*
X150857143Y-104193571D01*
X153757142Y-110945000D02*
X153900000Y-110873571D01*
X153900000Y-110873571D02*
X154114285Y-110873571D01*
X154114285Y-110873571D02*
X154328571Y-110945000D01*
X154328571Y-110945000D02*
X154471428Y-111087857D01*
X154471428Y-111087857D02*
X154542857Y-111230714D01*
X154542857Y-111230714D02*
X154614285Y-111516428D01*
X154614285Y-111516428D02*
X154614285Y-111730714D01*
X154614285Y-111730714D02*
X154542857Y-112016428D01*
X154542857Y-112016428D02*
X154471428Y-112159285D01*
X154471428Y-112159285D02*
X154328571Y-112302142D01*
X154328571Y-112302142D02*
X154114285Y-112373571D01*
X154114285Y-112373571D02*
X153971428Y-112373571D01*
X153971428Y-112373571D02*
X153757142Y-112302142D01*
X153757142Y-112302142D02*
X153685714Y-112230714D01*
X153685714Y-112230714D02*
X153685714Y-111730714D01*
X153685714Y-111730714D02*
X153971428Y-111730714D01*
X153042857Y-112373571D02*
X153042857Y-110873571D01*
X153042857Y-110873571D02*
X152185714Y-112373571D01*
X152185714Y-112373571D02*
X152185714Y-110873571D01*
X151471428Y-112373571D02*
X151471428Y-110873571D01*
X151471428Y-110873571D02*
X151114285Y-110873571D01*
X151114285Y-110873571D02*
X150899999Y-110945000D01*
X150899999Y-110945000D02*
X150757142Y-111087857D01*
X150757142Y-111087857D02*
X150685713Y-111230714D01*
X150685713Y-111230714D02*
X150614285Y-111516428D01*
X150614285Y-111516428D02*
X150614285Y-111730714D01*
X150614285Y-111730714D02*
X150685713Y-112016428D01*
X150685713Y-112016428D02*
X150757142Y-112159285D01*
X150757142Y-112159285D02*
X150899999Y-112302142D01*
X150899999Y-112302142D02*
X151114285Y-112373571D01*
X151114285Y-112373571D02*
X151471428Y-112373571D01*
X178142857Y-107823571D02*
X178142857Y-106323571D01*
X178142857Y-106323571D02*
X177571428Y-106323571D01*
X177571428Y-106323571D02*
X177428571Y-106395000D01*
X177428571Y-106395000D02*
X177357142Y-106466428D01*
X177357142Y-106466428D02*
X177285714Y-106609285D01*
X177285714Y-106609285D02*
X177285714Y-106823571D01*
X177285714Y-106823571D02*
X177357142Y-106966428D01*
X177357142Y-106966428D02*
X177428571Y-107037857D01*
X177428571Y-107037857D02*
X177571428Y-107109285D01*
X177571428Y-107109285D02*
X178142857Y-107109285D01*
X176714285Y-106466428D02*
X176642857Y-106395000D01*
X176642857Y-106395000D02*
X176500000Y-106323571D01*
X176500000Y-106323571D02*
X176142857Y-106323571D01*
X176142857Y-106323571D02*
X176000000Y-106395000D01*
X176000000Y-106395000D02*
X175928571Y-106466428D01*
X175928571Y-106466428D02*
X175857142Y-106609285D01*
X175857142Y-106609285D02*
X175857142Y-106752142D01*
X175857142Y-106752142D02*
X175928571Y-106966428D01*
X175928571Y-106966428D02*
X176785714Y-107823571D01*
X176785714Y-107823571D02*
X175857142Y-107823571D01*
X175214286Y-107252142D02*
X174071429Y-107252142D01*
X174642857Y-107823571D02*
X174642857Y-106680714D01*
X177692857Y-117207857D02*
X177478571Y-117279285D01*
X177478571Y-117279285D02*
X177407142Y-117350714D01*
X177407142Y-117350714D02*
X177335714Y-117493571D01*
X177335714Y-117493571D02*
X177335714Y-117707857D01*
X177335714Y-117707857D02*
X177407142Y-117850714D01*
X177407142Y-117850714D02*
X177478571Y-117922142D01*
X177478571Y-117922142D02*
X177621428Y-117993571D01*
X177621428Y-117993571D02*
X178192857Y-117993571D01*
X178192857Y-117993571D02*
X178192857Y-116493571D01*
X178192857Y-116493571D02*
X177692857Y-116493571D01*
X177692857Y-116493571D02*
X177550000Y-116565000D01*
X177550000Y-116565000D02*
X177478571Y-116636428D01*
X177478571Y-116636428D02*
X177407142Y-116779285D01*
X177407142Y-116779285D02*
X177407142Y-116922142D01*
X177407142Y-116922142D02*
X177478571Y-117065000D01*
X177478571Y-117065000D02*
X177550000Y-117136428D01*
X177550000Y-117136428D02*
X177692857Y-117207857D01*
X177692857Y-117207857D02*
X178192857Y-117207857D01*
X176764285Y-117565000D02*
X176050000Y-117565000D01*
X176907142Y-117993571D02*
X176407142Y-116493571D01*
X176407142Y-116493571D02*
X175907142Y-117993571D01*
X175621428Y-116493571D02*
X174764286Y-116493571D01*
X175192857Y-117993571D02*
X175192857Y-116493571D01*
X174478571Y-116493571D02*
X173621429Y-116493571D01*
X174050000Y-117993571D02*
X174050000Y-116493571D01*
X173121429Y-117422142D02*
X171978572Y-117422142D01*
X172550000Y-117993571D02*
X172550000Y-116850714D01*
D12*
%TO.C,R2*%
X163468380Y-126071333D02*
X162992190Y-125738000D01*
X163468380Y-125499905D02*
X162468380Y-125499905D01*
X162468380Y-125499905D02*
X162468380Y-125880857D01*
X162468380Y-125880857D02*
X162516000Y-125976095D01*
X162516000Y-125976095D02*
X162563619Y-126023714D01*
X162563619Y-126023714D02*
X162658857Y-126071333D01*
X162658857Y-126071333D02*
X162801714Y-126071333D01*
X162801714Y-126071333D02*
X162896952Y-126023714D01*
X162896952Y-126023714D02*
X162944571Y-125976095D01*
X162944571Y-125976095D02*
X162992190Y-125880857D01*
X162992190Y-125880857D02*
X162992190Y-125499905D01*
X162563619Y-126452286D02*
X162516000Y-126499905D01*
X162516000Y-126499905D02*
X162468380Y-126595143D01*
X162468380Y-126595143D02*
X162468380Y-126833238D01*
X162468380Y-126833238D02*
X162516000Y-126928476D01*
X162516000Y-126928476D02*
X162563619Y-126976095D01*
X162563619Y-126976095D02*
X162658857Y-127023714D01*
X162658857Y-127023714D02*
X162754095Y-127023714D01*
X162754095Y-127023714D02*
X162896952Y-126976095D01*
X162896952Y-126976095D02*
X163468380Y-126404667D01*
X163468380Y-126404667D02*
X163468380Y-127023714D01*
D13*
%TO.C,LS1*%
X165316428Y-62866573D02*
X165921190Y-62866573D01*
X165921190Y-62866573D02*
X165921190Y-61596573D01*
X164953571Y-62806097D02*
X164772142Y-62866573D01*
X164772142Y-62866573D02*
X164469761Y-62866573D01*
X164469761Y-62866573D02*
X164348809Y-62806097D01*
X164348809Y-62806097D02*
X164288333Y-62745621D01*
X164288333Y-62745621D02*
X164227856Y-62624669D01*
X164227856Y-62624669D02*
X164227856Y-62503716D01*
X164227856Y-62503716D02*
X164288333Y-62382764D01*
X164288333Y-62382764D02*
X164348809Y-62322288D01*
X164348809Y-62322288D02*
X164469761Y-62261811D01*
X164469761Y-62261811D02*
X164711666Y-62201335D01*
X164711666Y-62201335D02*
X164832618Y-62140859D01*
X164832618Y-62140859D02*
X164893095Y-62080383D01*
X164893095Y-62080383D02*
X164953571Y-61959430D01*
X164953571Y-61959430D02*
X164953571Y-61838478D01*
X164953571Y-61838478D02*
X164893095Y-61717526D01*
X164893095Y-61717526D02*
X164832618Y-61657050D01*
X164832618Y-61657050D02*
X164711666Y-61596573D01*
X164711666Y-61596573D02*
X164409285Y-61596573D01*
X164409285Y-61596573D02*
X164227856Y-61657050D01*
X163018332Y-62866573D02*
X163744047Y-62866573D01*
X163381190Y-62866573D02*
X163381190Y-61596573D01*
X163381190Y-61596573D02*
X163502142Y-61778002D01*
X163502142Y-61778002D02*
X163623094Y-61898954D01*
X163623094Y-61898954D02*
X163744047Y-61959430D01*
D14*
%TO.C,R2*%
X161148500Y-126492724D02*
X161148500Y-125983276D01*
X162193500Y-126492724D02*
X162193500Y-125983276D01*
%TO.C,JP2*%
X152250000Y-94950000D02*
X154250000Y-94950000D01*
X154250000Y-94950000D02*
X154250000Y-90850000D01*
X151750000Y-94500000D02*
X151750000Y-93900000D01*
X152050000Y-94200000D02*
X151750000Y-94500000D01*
X152050000Y-94200000D02*
X151750000Y-93900000D01*
X152250000Y-90850000D02*
X152250000Y-94950000D01*
X154250000Y-90850000D02*
X152250000Y-90850000D01*
%TO.C,R15*%
X162637742Y-98427500D02*
X163112258Y-98427500D01*
X162637742Y-99472500D02*
X163112258Y-99472500D01*
%TO.C,JP4*%
X179700000Y-66200000D02*
X177700000Y-66200000D01*
X177700000Y-66200000D02*
X177700000Y-70300000D01*
X180200000Y-66650000D02*
X180200000Y-67250000D01*
X179900000Y-66950000D02*
X180200000Y-66650000D01*
X179900000Y-66950000D02*
X180200000Y-67250000D01*
X179700000Y-70300000D02*
X179700000Y-66200000D01*
X177700000Y-70300000D02*
X179700000Y-70300000D01*
D15*
%TO.C,J8*%
X172027000Y-119239000D02*
X158427000Y-119239000D01*
X172027000Y-118114000D02*
X172027000Y-119239000D01*
X172027000Y-109814000D02*
X172027000Y-115614000D01*
X172027000Y-107514000D02*
X172027000Y-104789000D01*
X172027000Y-104789000D02*
X158427000Y-104789000D01*
X158452000Y-114714000D02*
X158452000Y-114714000D01*
X158452000Y-114614000D02*
X158452000Y-114614000D01*
X158427000Y-119239000D02*
X158427000Y-118114000D01*
X158427000Y-109814000D02*
X158427000Y-115614000D01*
X158427000Y-104789000D02*
X158427000Y-107414000D01*
X158452000Y-114614000D02*
G75*
G03*
X158452000Y-114714000I0J-50000D01*
G01*
X158452000Y-114714000D02*
G75*
G03*
X158452000Y-114614000I0J50000D01*
G01*
D14*
%TO.C,R24*%
X166327500Y-126687258D02*
X166327500Y-126212742D01*
X167372500Y-126687258D02*
X167372500Y-126212742D01*
%TO.C,C13*%
X164345252Y-85825000D02*
X163822748Y-85825000D01*
X164345252Y-84355000D02*
X163822748Y-84355000D01*
%TO.C,R1*%
X169672724Y-127776500D02*
X169163276Y-127776500D01*
X169672724Y-126731500D02*
X169163276Y-126731500D01*
%TO.C,JP3*%
X144850000Y-84750000D02*
X146850000Y-84750000D01*
X146850000Y-84750000D02*
X146850000Y-80650000D01*
X144350000Y-84300000D02*
X144350000Y-83700000D01*
X144650000Y-84000000D02*
X144350000Y-84300000D01*
X144650000Y-84000000D02*
X144350000Y-83700000D01*
X144850000Y-80650000D02*
X144850000Y-84750000D01*
X146850000Y-80650000D02*
X144850000Y-80650000D01*
%TO.C,JP1*%
X174300000Y-93250000D02*
X172300000Y-93250000D01*
X172300000Y-93250000D02*
X172300000Y-97350000D01*
X174800000Y-93700000D02*
X174800000Y-94300000D01*
X174500000Y-94000000D02*
X174800000Y-93700000D01*
X174500000Y-94000000D02*
X174800000Y-94300000D01*
X174300000Y-97350000D02*
X174300000Y-93250000D01*
X172300000Y-97350000D02*
X174300000Y-97350000D01*
%TO.C,R4*%
X169163276Y-124572500D02*
X169672724Y-124572500D01*
X169163276Y-125617500D02*
X169672724Y-125617500D01*
%TO.C,G\u002A\u002A\u002A*%
G36*
X173966211Y-72201793D02*
G01*
X174022081Y-72210976D01*
X174081306Y-72220906D01*
X174102314Y-72224758D01*
X174104644Y-72235832D01*
X174113899Y-72284952D01*
X174129658Y-72370558D01*
X174151374Y-72489616D01*
X174178498Y-72639095D01*
X174210481Y-72815961D01*
X174246777Y-73017182D01*
X174286836Y-73239727D01*
X174330111Y-73480561D01*
X174376053Y-73736654D01*
X174424115Y-74004973D01*
X174737980Y-75758555D01*
X174742143Y-75781813D01*
X174637481Y-75990376D01*
X174602660Y-76061506D01*
X174566517Y-76139892D01*
X174541908Y-76198869D01*
X174532819Y-76229335D01*
X174531010Y-76242488D01*
X174512564Y-76266792D01*
X174502290Y-76282199D01*
X174474563Y-76332585D01*
X174431409Y-76414718D01*
X174374535Y-76525237D01*
X174305649Y-76660783D01*
X174226457Y-76817995D01*
X174138665Y-76993514D01*
X174043979Y-77183979D01*
X173944107Y-77386030D01*
X173847301Y-77582693D01*
X173743692Y-77794070D01*
X173656741Y-77972794D01*
X173585138Y-78121744D01*
X173527572Y-78243794D01*
X173482731Y-78341824D01*
X173476085Y-78357110D01*
X173449304Y-78418710D01*
X173425981Y-78477328D01*
X173411450Y-78520557D01*
X173404400Y-78551272D01*
X173403521Y-78572352D01*
X173405893Y-78595389D01*
X173412484Y-78659329D01*
X173422827Y-78759635D01*
X173436593Y-78893124D01*
X173453454Y-79056616D01*
X173473082Y-79246931D01*
X173495150Y-79460888D01*
X173519329Y-79695307D01*
X173545291Y-79947006D01*
X173572708Y-80212806D01*
X173601252Y-80489526D01*
X173624297Y-80713609D01*
X173651769Y-80982596D01*
X173677692Y-81238445D01*
X173701751Y-81477932D01*
X173723628Y-81697836D01*
X173743008Y-81894934D01*
X173759574Y-82066004D01*
X173773009Y-82207824D01*
X173781938Y-82305566D01*
X173782998Y-82317171D01*
X173789223Y-82390822D01*
X173791368Y-82425556D01*
X173790986Y-82442083D01*
X173786100Y-82474141D01*
X173781363Y-82505227D01*
X173761750Y-82542077D01*
X173759006Y-82545601D01*
X173739566Y-82580732D01*
X173704430Y-82650326D01*
X173655002Y-82751350D01*
X173592689Y-82880770D01*
X173518894Y-83035553D01*
X173435024Y-83212665D01*
X173342483Y-83409072D01*
X173242678Y-83621741D01*
X173137012Y-83847638D01*
X173026891Y-84083730D01*
X172913721Y-84326984D01*
X172798906Y-84574365D01*
X172683852Y-84822841D01*
X172569963Y-85069377D01*
X172458646Y-85310941D01*
X172351305Y-85544498D01*
X172249346Y-85767015D01*
X172154173Y-85975459D01*
X172067192Y-86166796D01*
X171989808Y-86337992D01*
X171923427Y-86486015D01*
X171869452Y-86607830D01*
X171829291Y-86700403D01*
X171804347Y-86760702D01*
X171802623Y-86765879D01*
X171796026Y-86785693D01*
X171791746Y-86816994D01*
X171767403Y-86850397D01*
X171751142Y-86867537D01*
X171718461Y-86919120D01*
X171676701Y-86996203D01*
X171629449Y-87090906D01*
X171580294Y-87195347D01*
X171532825Y-87301647D01*
X171490632Y-87401923D01*
X171457303Y-87488296D01*
X171436427Y-87552884D01*
X171431592Y-87587806D01*
X171434485Y-87618149D01*
X171416352Y-87644065D01*
X171366228Y-87669458D01*
X171362053Y-87671157D01*
X171346217Y-87676925D01*
X171332648Y-87681896D01*
X171319345Y-87688531D01*
X171304309Y-87699292D01*
X171285539Y-87716639D01*
X171261036Y-87743034D01*
X171238247Y-87769829D01*
X171228799Y-87780937D01*
X171186828Y-87832809D01*
X171133123Y-87901112D01*
X171065684Y-87988307D01*
X170982511Y-88096854D01*
X170881604Y-88229214D01*
X170760963Y-88387849D01*
X170618587Y-88575220D01*
X170452476Y-88793787D01*
X169695539Y-89789450D01*
X168920643Y-90138041D01*
X168791715Y-90196064D01*
X168573140Y-90294520D01*
X168342270Y-90398605D01*
X168109295Y-90503722D01*
X167884404Y-90605271D01*
X167677784Y-90698657D01*
X167499625Y-90779281D01*
X166853503Y-91071931D01*
X166429817Y-91440231D01*
X166426871Y-91442792D01*
X166298760Y-91553761D01*
X166198158Y-91639681D01*
X166120963Y-91703560D01*
X166063075Y-91748404D01*
X166020393Y-91777223D01*
X165988816Y-91793023D01*
X165964245Y-91798813D01*
X165942577Y-91797599D01*
X165928738Y-91794954D01*
X165873544Y-91783557D01*
X165785371Y-91764852D01*
X165669744Y-91740028D01*
X165532186Y-91710274D01*
X165378223Y-91676778D01*
X165213377Y-91640727D01*
X164547730Y-91494788D01*
X164094637Y-91494788D01*
X164042396Y-91494803D01*
X163922257Y-91495222D01*
X163820919Y-91496780D01*
X163730812Y-91500220D01*
X163644364Y-91506286D01*
X163554002Y-91515719D01*
X163452155Y-91529262D01*
X163331252Y-91547660D01*
X163183719Y-91571653D01*
X163001986Y-91601986D01*
X162939084Y-91612457D01*
X162781999Y-91637959D01*
X162639140Y-91660249D01*
X162516012Y-91678524D01*
X162418119Y-91691985D01*
X162350967Y-91699829D01*
X162320059Y-91701256D01*
X162313462Y-91698938D01*
X162273067Y-91678487D01*
X162203316Y-91639508D01*
X162109015Y-91584812D01*
X161994973Y-91517209D01*
X161865998Y-91439510D01*
X161726898Y-91354525D01*
X161646405Y-91305037D01*
X161504834Y-91218494D01*
X161387323Y-91148148D01*
X161285941Y-91090019D01*
X161192760Y-91040127D01*
X161099851Y-90994491D01*
X160999284Y-90949130D01*
X160883132Y-90900063D01*
X160743464Y-90843309D01*
X160572352Y-90774888D01*
X160550592Y-90766197D01*
X160385067Y-90699439D01*
X160220430Y-90631995D01*
X160064390Y-90567097D01*
X159924661Y-90507972D01*
X159808953Y-90457853D01*
X159724979Y-90419968D01*
X159699826Y-90408177D01*
X159606625Y-90364372D01*
X159484803Y-90307001D01*
X159341475Y-90239419D01*
X159183753Y-90164981D01*
X159018754Y-90087044D01*
X158853590Y-90008962D01*
X158225821Y-89712041D01*
X157404147Y-88730356D01*
X157257124Y-88555310D01*
X157115796Y-88388230D01*
X156983870Y-88233434D01*
X156863866Y-88093826D01*
X156758308Y-87972308D01*
X156669716Y-87871783D01*
X156637954Y-87836562D01*
X156794710Y-87836562D01*
X156800884Y-87844695D01*
X156831630Y-87882624D01*
X156885634Y-87948184D01*
X156960364Y-88038333D01*
X157053286Y-88150029D01*
X157161869Y-88280228D01*
X157283579Y-88425888D01*
X157415883Y-88583965D01*
X157556249Y-88751418D01*
X158302623Y-89641160D01*
X159135611Y-90032566D01*
X159338514Y-90126837D01*
X159563785Y-90229532D01*
X159797034Y-90334148D01*
X160029035Y-90436614D01*
X160250564Y-90532856D01*
X160452399Y-90618801D01*
X160625313Y-90690375D01*
X160790078Y-90757319D01*
X160939207Y-90818583D01*
X161062610Y-90870744D01*
X161167370Y-90917347D01*
X161260570Y-90961936D01*
X161349292Y-91008054D01*
X161440618Y-91059246D01*
X161541630Y-91119055D01*
X161659411Y-91191025D01*
X161801043Y-91278701D01*
X161861432Y-91316063D01*
X162015521Y-91410208D01*
X162138575Y-91483207D01*
X162233752Y-91536794D01*
X162304212Y-91572703D01*
X162353112Y-91592667D01*
X162383612Y-91598419D01*
X162409815Y-91595743D01*
X162475691Y-91586415D01*
X162571785Y-91571428D01*
X162691636Y-91551822D01*
X162828785Y-91528638D01*
X162976773Y-91502915D01*
X163062096Y-91488252D01*
X163227593Y-91461650D01*
X163390774Y-91437565D01*
X163541814Y-91417351D01*
X163670886Y-91402360D01*
X163768165Y-91393945D01*
X164029949Y-91378274D01*
X164023138Y-91372978D01*
X164344737Y-91372978D01*
X164348713Y-91377764D01*
X164350851Y-91378274D01*
X164382078Y-91385722D01*
X164438572Y-91388866D01*
X164439391Y-91388871D01*
X164486224Y-91393717D01*
X164567696Y-91406851D01*
X164677366Y-91427040D01*
X164808797Y-91453051D01*
X164955546Y-91483650D01*
X165111174Y-91517607D01*
X165265388Y-91551862D01*
X165418385Y-91585570D01*
X165558399Y-91616149D01*
X165678342Y-91642057D01*
X165771125Y-91661756D01*
X165829658Y-91673704D01*
X165970951Y-91701060D01*
X166391967Y-91338416D01*
X166812983Y-90975772D01*
X168222605Y-90340338D01*
X169632228Y-89704903D01*
X170364922Y-88741016D01*
X170470668Y-88601726D01*
X170598735Y-88432535D01*
X170716840Y-88275953D01*
X170822732Y-88134990D01*
X170914164Y-88012657D01*
X170988887Y-87911964D01*
X171044653Y-87835921D01*
X171079213Y-87787540D01*
X171090319Y-87769829D01*
X171077650Y-87772936D01*
X171028040Y-87787952D01*
X170943933Y-87814390D01*
X170828555Y-87851192D01*
X170685131Y-87897301D01*
X170516890Y-87951659D01*
X170327056Y-88013209D01*
X170118857Y-88080891D01*
X169895519Y-88153650D01*
X169660268Y-88230427D01*
X169416330Y-88310164D01*
X169166932Y-88391803D01*
X168915300Y-88474287D01*
X168664660Y-88556558D01*
X168418240Y-88637559D01*
X168179265Y-88716230D01*
X167950961Y-88791516D01*
X167736555Y-88862358D01*
X167539274Y-88927697D01*
X167362343Y-88986478D01*
X167208989Y-89037641D01*
X167082439Y-89080129D01*
X166985918Y-89112884D01*
X166922654Y-89134849D01*
X166895872Y-89144966D01*
X166888704Y-89149162D01*
X166846914Y-89179877D01*
X166787595Y-89228795D01*
X166721136Y-89287445D01*
X166701895Y-89304742D01*
X166645913Y-89354318D01*
X166637602Y-89361627D01*
X166562693Y-89427509D01*
X166455211Y-89521715D01*
X166326445Y-89634334D01*
X166179372Y-89762766D01*
X166016967Y-89904411D01*
X165842210Y-90056667D01*
X165658075Y-90216934D01*
X165467541Y-90382611D01*
X165332286Y-90500269D01*
X165152637Y-90656885D01*
X164984480Y-90803872D01*
X164830382Y-90938964D01*
X164692907Y-91059899D01*
X164574624Y-91164413D01*
X164478099Y-91250242D01*
X164405899Y-91315121D01*
X164360589Y-91356788D01*
X164344737Y-91372978D01*
X164023138Y-91372978D01*
X162708949Y-90351061D01*
X161387949Y-89323848D01*
X161263790Y-89282275D01*
X161496984Y-89282275D01*
X162819447Y-90310358D01*
X162885425Y-90361644D01*
X163090447Y-90520945D01*
X163285213Y-90672176D01*
X163467145Y-90813345D01*
X163633669Y-90942455D01*
X163782209Y-91057513D01*
X163910189Y-91156524D01*
X164015034Y-91237494D01*
X164094167Y-91298428D01*
X164145013Y-91337333D01*
X164164996Y-91352213D01*
X164173235Y-91348096D01*
X164210337Y-91320376D01*
X164274175Y-91269001D01*
X164361650Y-91196659D01*
X164469664Y-91106035D01*
X164595116Y-90999816D01*
X164734907Y-90880688D01*
X164885937Y-90751336D01*
X165045108Y-90614447D01*
X165209319Y-90472707D01*
X165375472Y-90328802D01*
X165540466Y-90185418D01*
X165701203Y-90045241D01*
X165854583Y-89910958D01*
X165997506Y-89785255D01*
X166126873Y-89670817D01*
X166239585Y-89570331D01*
X166332541Y-89486483D01*
X166402644Y-89421959D01*
X166446792Y-89379445D01*
X166461888Y-89361627D01*
X166446513Y-89348504D01*
X166399122Y-89316423D01*
X166324461Y-89268711D01*
X166227349Y-89208397D01*
X166112606Y-89138509D01*
X165985052Y-89062073D01*
X165509946Y-88779567D01*
X165323760Y-88884445D01*
X165291704Y-88902378D01*
X165183322Y-88961733D01*
X165072454Y-89020911D01*
X164978691Y-89069411D01*
X164819808Y-89149500D01*
X164057173Y-89136846D01*
X163294537Y-89124191D01*
X162902627Y-88973441D01*
X162843343Y-88950844D01*
X162694888Y-88896602D01*
X162580062Y-88858571D01*
X162500479Y-88837261D01*
X162457757Y-88833180D01*
X162441684Y-88838326D01*
X162388090Y-88860209D01*
X162306159Y-88896359D01*
X162201947Y-88944032D01*
X162081506Y-89000485D01*
X161950890Y-89062972D01*
X161496984Y-89282275D01*
X161263790Y-89282275D01*
X161027815Y-89203262D01*
X160986555Y-89189509D01*
X160888396Y-89157004D01*
X160755949Y-89113320D01*
X160592942Y-89059679D01*
X160403103Y-88997306D01*
X160190161Y-88927424D01*
X159957843Y-88851255D01*
X159709879Y-88770023D01*
X159449995Y-88684952D01*
X159181920Y-88597264D01*
X158909383Y-88508183D01*
X158713767Y-88444267D01*
X158451900Y-88358695D01*
X158200557Y-88276552D01*
X157963042Y-88198920D01*
X157742661Y-88126879D01*
X157542720Y-88061509D01*
X157366525Y-88003893D01*
X157217382Y-87955110D01*
X157098595Y-87916241D01*
X157013471Y-87888367D01*
X156965316Y-87872569D01*
X156918609Y-87857855D01*
X156850211Y-87839323D01*
X156806344Y-87831684D01*
X156794710Y-87836562D01*
X156637954Y-87836562D01*
X156600613Y-87795155D01*
X156553522Y-87745327D01*
X156530963Y-87725201D01*
X156521933Y-87720857D01*
X156491243Y-87693213D01*
X156492541Y-87649582D01*
X156493272Y-87633837D01*
X156480589Y-87578132D01*
X156452358Y-87501291D01*
X156413475Y-87413350D01*
X156368836Y-87324341D01*
X156323339Y-87244300D01*
X156281880Y-87183260D01*
X156249355Y-87151255D01*
X156223689Y-87130672D01*
X156218180Y-87093472D01*
X156217575Y-87065734D01*
X156213287Y-87051679D01*
X156357553Y-87051679D01*
X156363241Y-87074956D01*
X156385366Y-87131100D01*
X156420194Y-87209034D01*
X156463450Y-87300165D01*
X156510861Y-87395899D01*
X156558154Y-87487642D01*
X156601054Y-87566801D01*
X156635288Y-87624782D01*
X156656583Y-87652991D01*
X156660140Y-87654732D01*
X156696661Y-87668352D01*
X156770018Y-87693947D01*
X156877635Y-87730660D01*
X157016931Y-87777634D01*
X157185328Y-87834010D01*
X157380248Y-87898932D01*
X157599112Y-87971542D01*
X157839342Y-88050982D01*
X158098358Y-88136393D01*
X158373583Y-88226920D01*
X158662438Y-88321704D01*
X158962344Y-88419887D01*
X159067705Y-88454335D01*
X159363623Y-88551026D01*
X159647413Y-88643666D01*
X159916517Y-88731425D01*
X160168377Y-88813472D01*
X160400436Y-88888977D01*
X160610136Y-88957108D01*
X160794918Y-89017036D01*
X160952225Y-89067929D01*
X161079499Y-89108957D01*
X161174183Y-89139291D01*
X161233718Y-89158098D01*
X161255547Y-89164548D01*
X161255775Y-89164547D01*
X161271435Y-89157087D01*
X161270609Y-89155295D01*
X161254650Y-89126465D01*
X161219713Y-89064946D01*
X161167582Y-88973835D01*
X161100038Y-88856226D01*
X161018862Y-88715216D01*
X160925836Y-88553899D01*
X160822741Y-88375372D01*
X160711360Y-88182731D01*
X160593473Y-87979071D01*
X159936564Y-86844829D01*
X160064764Y-86844829D01*
X160067051Y-86851242D01*
X160086612Y-86889713D01*
X160124366Y-86958806D01*
X160178130Y-87054781D01*
X160245722Y-87173894D01*
X160324957Y-87312404D01*
X160413653Y-87466567D01*
X160509627Y-87632641D01*
X160610695Y-87806885D01*
X160714674Y-87985556D01*
X160819381Y-88164911D01*
X160922634Y-88341209D01*
X161022248Y-88510706D01*
X161116040Y-88669661D01*
X161201828Y-88814331D01*
X161277428Y-88940974D01*
X161340657Y-89045848D01*
X161389332Y-89125210D01*
X161409650Y-89157087D01*
X161421270Y-89175317D01*
X161434287Y-89192428D01*
X161446557Y-89187234D01*
X161493726Y-89165609D01*
X161572338Y-89128916D01*
X161678444Y-89079019D01*
X161808096Y-89017779D01*
X161957347Y-88947060D01*
X162122248Y-88868723D01*
X162298851Y-88784630D01*
X163146200Y-88380693D01*
X164091953Y-88380693D01*
X165037707Y-88380693D01*
X165701985Y-88774565D01*
X165842771Y-88858078D01*
X165992932Y-88947238D01*
X166131097Y-89029361D01*
X166252374Y-89101537D01*
X166351872Y-89160853D01*
X166424699Y-89204398D01*
X166465965Y-89229263D01*
X166565665Y-89290089D01*
X166693221Y-89180042D01*
X166714741Y-89161111D01*
X166740696Y-89136410D01*
X166766491Y-89108412D01*
X166793989Y-89074036D01*
X166825055Y-89030204D01*
X166857767Y-88979679D01*
X166994542Y-88979679D01*
X167004823Y-88993815D01*
X167022055Y-88988709D01*
X167077195Y-88971182D01*
X167167583Y-88942017D01*
X167290556Y-88902086D01*
X167443450Y-88852261D01*
X167623602Y-88793411D01*
X167828348Y-88726409D01*
X168055023Y-88652125D01*
X168300965Y-88571430D01*
X168563508Y-88485196D01*
X168839991Y-88394293D01*
X169127748Y-88299593D01*
X169199063Y-88276112D01*
X169528255Y-88167687D01*
X169820003Y-88071488D01*
X170076641Y-87986689D01*
X170300507Y-87912462D01*
X170493934Y-87847978D01*
X170659260Y-87792411D01*
X170798820Y-87744931D01*
X170914950Y-87704713D01*
X171009984Y-87670927D01*
X171086260Y-87642746D01*
X171146112Y-87619342D01*
X171191877Y-87599888D01*
X171225890Y-87583555D01*
X171250486Y-87569516D01*
X171268002Y-87556943D01*
X171280774Y-87545009D01*
X171291136Y-87532885D01*
X171312346Y-87500989D01*
X171351134Y-87432426D01*
X171399641Y-87339500D01*
X171453722Y-87230204D01*
X171509230Y-87112527D01*
X171668709Y-86765879D01*
X171506644Y-86455044D01*
X171496666Y-86435912D01*
X171452782Y-86351814D01*
X171392103Y-86235585D01*
X171316784Y-86091347D01*
X171228977Y-85923223D01*
X171130836Y-85735337D01*
X171024515Y-85531811D01*
X170912167Y-85316768D01*
X170795945Y-85094331D01*
X170678004Y-84868623D01*
X170011430Y-83593036D01*
X169934680Y-83593036D01*
X169903199Y-83594113D01*
X169832376Y-83597482D01*
X169726933Y-83602930D01*
X169590825Y-83610241D01*
X169428008Y-83619196D01*
X169242436Y-83629577D01*
X169038065Y-83641167D01*
X168818849Y-83653749D01*
X168588744Y-83667104D01*
X168369385Y-83679855D01*
X168150770Y-83692461D01*
X167947279Y-83704092D01*
X167762793Y-83714530D01*
X167601194Y-83723559D01*
X167466364Y-83730962D01*
X167362184Y-83736523D01*
X167292536Y-83740024D01*
X167261301Y-83741249D01*
X167221825Y-83747758D01*
X167203044Y-83772099D01*
X167203046Y-83772183D01*
X167209486Y-83797510D01*
X167227745Y-83859951D01*
X167256824Y-83956293D01*
X167295729Y-84083322D01*
X167343462Y-84237823D01*
X167399028Y-84416581D01*
X167461431Y-84616383D01*
X167529673Y-84834013D01*
X167602759Y-85066259D01*
X167679692Y-85309904D01*
X167681680Y-85316190D01*
X167758454Y-85559153D01*
X167831365Y-85790301D01*
X167899418Y-86006458D01*
X167961620Y-86204451D01*
X168016979Y-86381103D01*
X168064499Y-86533241D01*
X168103189Y-86657690D01*
X168124971Y-86728311D01*
X168132054Y-86751276D01*
X168150102Y-86810823D01*
X168156339Y-86833158D01*
X168151372Y-86844327D01*
X168146793Y-86853228D01*
X168128138Y-86889492D01*
X168087562Y-86966001D01*
X168031472Y-87070477D01*
X167961696Y-87199541D01*
X167880061Y-87349813D01*
X167788396Y-87517917D01*
X167688530Y-87700473D01*
X167582289Y-87894103D01*
X167508029Y-88029320D01*
X167405431Y-88216382D01*
X167310170Y-88390346D01*
X167224118Y-88547782D01*
X167149145Y-88685257D01*
X167087121Y-88799341D01*
X167039918Y-88886603D01*
X167009405Y-88943610D01*
X166997454Y-88966932D01*
X166994542Y-88979679D01*
X166857767Y-88979679D01*
X166861550Y-88973836D01*
X166905338Y-88901854D01*
X166958281Y-88811177D01*
X167022244Y-88698726D01*
X167099088Y-88561423D01*
X167190677Y-88396186D01*
X167298873Y-88199939D01*
X167425541Y-87969600D01*
X167528011Y-87782484D01*
X167630420Y-87594061D01*
X167724379Y-87419724D01*
X167808160Y-87262755D01*
X167880034Y-87126432D01*
X167938272Y-87014038D01*
X167981145Y-86928852D01*
X168006924Y-86874155D01*
X168013881Y-86853228D01*
X168002060Y-86846960D01*
X167955563Y-86824817D01*
X167878097Y-86788841D01*
X167774116Y-86741046D01*
X167648079Y-86683444D01*
X167504439Y-86618048D01*
X167347655Y-86546874D01*
X167182182Y-86471932D01*
X167012477Y-86395238D01*
X166842995Y-86318803D01*
X166678193Y-86244643D01*
X166522528Y-86174769D01*
X166380454Y-86111195D01*
X166256430Y-86055935D01*
X166154910Y-86011002D01*
X166080351Y-85978408D01*
X166037210Y-85960169D01*
X166034321Y-85959109D01*
X166020559Y-85956946D01*
X166002531Y-85960025D01*
X165977580Y-85970230D01*
X165943053Y-85989446D01*
X165896291Y-86019556D01*
X165834641Y-86062445D01*
X165755447Y-86119996D01*
X165656052Y-86194094D01*
X165533800Y-86286622D01*
X165386038Y-86399465D01*
X165210108Y-86534506D01*
X165003354Y-86693631D01*
X164847516Y-86813531D01*
X164677774Y-86943826D01*
X164520650Y-87064116D01*
X164379131Y-87172130D01*
X164256205Y-87265597D01*
X164154859Y-87342247D01*
X164078081Y-87399808D01*
X164028857Y-87436010D01*
X164010176Y-87448582D01*
X164003388Y-87444533D01*
X163966665Y-87418692D01*
X163901017Y-87370970D01*
X163809566Y-87303680D01*
X163695436Y-87219140D01*
X163561750Y-87119665D01*
X163411631Y-87007572D01*
X163248203Y-86885177D01*
X163074589Y-86754796D01*
X162978282Y-86682417D01*
X162808706Y-86555187D01*
X162650455Y-86436723D01*
X162506746Y-86329417D01*
X162380792Y-86235660D01*
X162275809Y-86157844D01*
X162195013Y-86098359D01*
X162141617Y-86059597D01*
X162118839Y-86043949D01*
X162111886Y-86044017D01*
X162070355Y-86054893D01*
X161996434Y-86079082D01*
X161894630Y-86114827D01*
X161769447Y-86160370D01*
X161625393Y-86213956D01*
X161466972Y-86273828D01*
X161298690Y-86338228D01*
X161125052Y-86405400D01*
X160950565Y-86473588D01*
X160779735Y-86541034D01*
X160617065Y-86605982D01*
X160467064Y-86666675D01*
X160334235Y-86721356D01*
X160223085Y-86768269D01*
X160138119Y-86805657D01*
X160083844Y-86831762D01*
X160064764Y-86844829D01*
X159936564Y-86844829D01*
X159915511Y-86808479D01*
X159944599Y-86720733D01*
X159952777Y-86694602D01*
X160069468Y-86694602D01*
X160088112Y-86704900D01*
X160108965Y-86698471D01*
X160165244Y-86677914D01*
X160251750Y-86645036D01*
X160363838Y-86601690D01*
X160496864Y-86549728D01*
X160646183Y-86491002D01*
X160807149Y-86427364D01*
X160975118Y-86360667D01*
X161145445Y-86292763D01*
X161313486Y-86225504D01*
X161474594Y-86160741D01*
X161624126Y-86100328D01*
X161757435Y-86046117D01*
X161869879Y-85999960D01*
X161956810Y-85963708D01*
X162013586Y-85939215D01*
X162035560Y-85928332D01*
X162035643Y-85905863D01*
X162028748Y-85847033D01*
X162015591Y-85757604D01*
X161997047Y-85643197D01*
X161973993Y-85509431D01*
X161947303Y-85361927D01*
X161921639Y-85222308D01*
X161896845Y-85085498D01*
X161875727Y-84966952D01*
X161859315Y-84872517D01*
X161850356Y-84818407D01*
X161965061Y-84818407D01*
X161968516Y-84871873D01*
X161978152Y-84949734D01*
X161994519Y-85056272D01*
X162018170Y-85195773D01*
X162049656Y-85372519D01*
X162151174Y-85933904D01*
X163072397Y-86627327D01*
X163171056Y-86701532D01*
X163339217Y-86827732D01*
X163495466Y-86944645D01*
X163636675Y-87049949D01*
X163759716Y-87141324D01*
X163861460Y-87216448D01*
X163938779Y-87273002D01*
X163988544Y-87308664D01*
X164007627Y-87321114D01*
X164019658Y-87313455D01*
X164062620Y-87282324D01*
X164133727Y-87229370D01*
X164229954Y-87156888D01*
X164348280Y-87067170D01*
X164485680Y-86962511D01*
X164639133Y-86845203D01*
X164805616Y-86717539D01*
X164982105Y-86581813D01*
X165942577Y-85842150D01*
X166022434Y-85263089D01*
X166024095Y-85251040D01*
X166044857Y-85099435D01*
X166063492Y-84961616D01*
X166079254Y-84843219D01*
X166091401Y-84749880D01*
X166099189Y-84687233D01*
X166101875Y-84660914D01*
X166096042Y-84651841D01*
X166063987Y-84615731D01*
X166007121Y-84556274D01*
X165929049Y-84477112D01*
X165833374Y-84381883D01*
X165723703Y-84274228D01*
X165603639Y-84157787D01*
X165105818Y-83677773D01*
X164030703Y-83677959D01*
X162955588Y-83678145D01*
X162475892Y-84204257D01*
X162395915Y-84292167D01*
X162286115Y-84413523D01*
X162187269Y-84523546D01*
X162102914Y-84618259D01*
X162036587Y-84693683D01*
X161991826Y-84745840D01*
X161972167Y-84770752D01*
X161967235Y-84785049D01*
X161965061Y-84818407D01*
X161850356Y-84818407D01*
X161848639Y-84808038D01*
X161844727Y-84779358D01*
X161857764Y-84757765D01*
X161896401Y-84708487D01*
X161957451Y-84635407D01*
X162037715Y-84542237D01*
X162133996Y-84432689D01*
X162243094Y-84310474D01*
X162361811Y-84179303D01*
X162879566Y-83611025D01*
X162875391Y-83600438D01*
X165191056Y-83600438D01*
X165197975Y-83610964D01*
X165198030Y-83611025D01*
X165231638Y-83648584D01*
X165290055Y-83709294D01*
X165369637Y-83789490D01*
X165466795Y-83885567D01*
X165577939Y-83993921D01*
X165699480Y-84110948D01*
X165841959Y-84248271D01*
X165975058Y-84379096D01*
X166077480Y-84483109D01*
X166149825Y-84560938D01*
X166192696Y-84613211D01*
X166206694Y-84640556D01*
X166206664Y-84641531D01*
X166204721Y-84660914D01*
X166203192Y-84676170D01*
X166194542Y-84746450D01*
X166181493Y-84846502D01*
X166164822Y-84970457D01*
X166145307Y-85112445D01*
X166123726Y-85266597D01*
X166121059Y-85285498D01*
X166100023Y-85435611D01*
X166081368Y-85570576D01*
X166065814Y-85685033D01*
X166054082Y-85773622D01*
X166046895Y-85830986D01*
X166044973Y-85851766D01*
X166046317Y-85852419D01*
X166074731Y-85865352D01*
X166137243Y-85893558D01*
X166230190Y-85935390D01*
X166349909Y-85989202D01*
X166492737Y-86053349D01*
X166655013Y-86126185D01*
X166833073Y-86206064D01*
X167023254Y-86291340D01*
X167070010Y-86312294D01*
X167257998Y-86396408D01*
X167433279Y-86474627D01*
X167592147Y-86545311D01*
X167730896Y-86606820D01*
X167845822Y-86657515D01*
X167933221Y-86695755D01*
X167989386Y-86719902D01*
X168010614Y-86728316D01*
X168010642Y-86728311D01*
X168006247Y-86708106D01*
X167989922Y-86650727D01*
X167962637Y-86559308D01*
X167925365Y-86436984D01*
X167879076Y-86286887D01*
X167824739Y-86112154D01*
X167763328Y-85915917D01*
X167695811Y-85701310D01*
X167623160Y-85471468D01*
X167546346Y-85229525D01*
X167472898Y-84997900D01*
X167398716Y-84762306D01*
X167329189Y-84539823D01*
X167265355Y-84333853D01*
X167208253Y-84147799D01*
X167158920Y-83985066D01*
X167118396Y-83849057D01*
X167087718Y-83743174D01*
X167067925Y-83670823D01*
X167060055Y-83635405D01*
X167059484Y-83629682D01*
X167054518Y-83580881D01*
X167045749Y-83495404D01*
X167033634Y-83377667D01*
X167018626Y-83232088D01*
X167001182Y-83063082D01*
X166981757Y-82875067D01*
X166960808Y-82672459D01*
X166938788Y-82459675D01*
X166826942Y-81379275D01*
X166591157Y-80974015D01*
X166522837Y-80856883D01*
X166461325Y-80753011D01*
X166414292Y-80676952D01*
X166382527Y-80630338D01*
X166516608Y-80630338D01*
X166526758Y-80653550D01*
X166555038Y-80706911D01*
X166598280Y-80784714D01*
X166653317Y-80881249D01*
X166716980Y-80990808D01*
X166923888Y-81343793D01*
X167042083Y-82480707D01*
X167053853Y-82593455D01*
X167075963Y-82802664D01*
X167096872Y-82997233D01*
X167116137Y-83173230D01*
X167133316Y-83326726D01*
X167147967Y-83453791D01*
X167159645Y-83550496D01*
X167167910Y-83612911D01*
X167172319Y-83637105D01*
X167175748Y-83641827D01*
X167198999Y-83653661D01*
X167223088Y-83651274D01*
X167286812Y-83646546D01*
X167386086Y-83639828D01*
X167517373Y-83631339D01*
X167677133Y-83621297D01*
X167861829Y-83609918D01*
X168067921Y-83597422D01*
X168291872Y-83584025D01*
X168530142Y-83569946D01*
X168779194Y-83555403D01*
X169035488Y-83540613D01*
X169176487Y-83532455D01*
X170105296Y-83532455D01*
X170107416Y-83538178D01*
X170125675Y-83576623D01*
X170161439Y-83648439D01*
X170213247Y-83750786D01*
X170279641Y-83880823D01*
X170359159Y-84035710D01*
X170450343Y-84212608D01*
X170551732Y-84408675D01*
X170661867Y-84621073D01*
X170779287Y-84846960D01*
X170902533Y-85083496D01*
X170960793Y-85195153D01*
X171081812Y-85426898D01*
X171196623Y-85646508D01*
X171303743Y-85851155D01*
X171401685Y-86038012D01*
X171488966Y-86204252D01*
X171564100Y-86347050D01*
X171625603Y-86463577D01*
X171671989Y-86551007D01*
X171701773Y-86606513D01*
X171713471Y-86627269D01*
X171713776Y-86627273D01*
X171726200Y-86606558D01*
X171755131Y-86550105D01*
X171799406Y-86460362D01*
X171857864Y-86339776D01*
X171929339Y-86190794D01*
X172012671Y-86015864D01*
X172106695Y-85817433D01*
X172210249Y-85597950D01*
X172322170Y-85359861D01*
X172441294Y-85105615D01*
X172566460Y-84837658D01*
X172696503Y-84558438D01*
X173665832Y-82474141D01*
X172718289Y-81391804D01*
X172626537Y-81287074D01*
X172470725Y-81109579D01*
X172324323Y-80943247D01*
X172189638Y-80790672D01*
X172068974Y-80654451D01*
X171964637Y-80537177D01*
X171878934Y-80441446D01*
X171814170Y-80369854D01*
X171772650Y-80324996D01*
X171756680Y-80309467D01*
X171753124Y-80314242D01*
X171732535Y-80350445D01*
X171695361Y-80419402D01*
X171643316Y-80517774D01*
X171578110Y-80642220D01*
X171501455Y-80789398D01*
X171415064Y-80955968D01*
X171320647Y-81138590D01*
X171219917Y-81333923D01*
X171114584Y-81538626D01*
X171006361Y-81749359D01*
X170896960Y-81962780D01*
X170788092Y-82175550D01*
X170681468Y-82384327D01*
X170578801Y-82585771D01*
X170481802Y-82776542D01*
X170392183Y-82953298D01*
X170311655Y-83112699D01*
X170241930Y-83251404D01*
X170184721Y-83366073D01*
X170141737Y-83453365D01*
X170114692Y-83509939D01*
X170105296Y-83532455D01*
X169176487Y-83532455D01*
X169197262Y-83531253D01*
X169400494Y-83519135D01*
X169567366Y-83508587D01*
X169701414Y-83499291D01*
X169806175Y-83490924D01*
X169885185Y-83483165D01*
X169941982Y-83475695D01*
X169980101Y-83468191D01*
X170003080Y-83460335D01*
X170014455Y-83451803D01*
X170017870Y-83446388D01*
X170039193Y-83407748D01*
X170077052Y-83336399D01*
X170129739Y-83235692D01*
X170195541Y-83108980D01*
X170272750Y-82959612D01*
X170359653Y-82790943D01*
X170454542Y-82606322D01*
X170555704Y-82409101D01*
X170661431Y-82202633D01*
X170770011Y-81990269D01*
X170879734Y-81775360D01*
X170988890Y-81561258D01*
X171095767Y-81351316D01*
X171198657Y-81148883D01*
X171295847Y-80957313D01*
X171385629Y-80779956D01*
X171466290Y-80620165D01*
X171536121Y-80481291D01*
X171593412Y-80366685D01*
X171636452Y-80279700D01*
X171663530Y-80223687D01*
X171669142Y-80210746D01*
X171828404Y-80210746D01*
X171828793Y-80211453D01*
X171847229Y-80234789D01*
X171890915Y-80286854D01*
X171957432Y-80364846D01*
X172044359Y-80465963D01*
X172149278Y-80587405D01*
X172269768Y-80726371D01*
X172403410Y-80880058D01*
X172547785Y-81045666D01*
X172700472Y-81220392D01*
X172864918Y-81408326D01*
X173032046Y-81599199D01*
X173174850Y-81762062D01*
X173295235Y-81899016D01*
X173395109Y-82012161D01*
X173476376Y-82103596D01*
X173540944Y-82175423D01*
X173590719Y-82229741D01*
X173627606Y-82268650D01*
X173653511Y-82294250D01*
X173670342Y-82308642D01*
X173680004Y-82313925D01*
X173684404Y-82312200D01*
X173685446Y-82305566D01*
X173683844Y-82286704D01*
X173678175Y-82228203D01*
X173668714Y-82133284D01*
X173655772Y-82005014D01*
X173639665Y-81846465D01*
X173620705Y-81660704D01*
X173599205Y-81450802D01*
X173575479Y-81219828D01*
X173549840Y-80970850D01*
X173522602Y-80706938D01*
X173494078Y-80431161D01*
X173484134Y-80335145D01*
X173451208Y-80017776D01*
X173422126Y-79739249D01*
X173396510Y-79496984D01*
X173373978Y-79288398D01*
X173354152Y-79110910D01*
X173336651Y-78961938D01*
X173321097Y-78838899D01*
X173307108Y-78739212D01*
X173294306Y-78660296D01*
X173282311Y-78599567D01*
X173270743Y-78554445D01*
X173259222Y-78522347D01*
X173247368Y-78500692D01*
X173234803Y-78486898D01*
X173221146Y-78478383D01*
X173206017Y-78472565D01*
X173198974Y-78477013D01*
X173168029Y-78509042D01*
X173115920Y-78568685D01*
X173045638Y-78652166D01*
X172960173Y-78755713D01*
X172862517Y-78875552D01*
X172755661Y-79007909D01*
X172642595Y-79149010D01*
X172526310Y-79295082D01*
X172409798Y-79442351D01*
X172296049Y-79587043D01*
X172188053Y-79725384D01*
X172088803Y-79853602D01*
X172001288Y-79967921D01*
X171928500Y-80064569D01*
X171873429Y-80139772D01*
X171839067Y-80189755D01*
X171832848Y-80201997D01*
X171828404Y-80210746D01*
X171669142Y-80210746D01*
X171672936Y-80201997D01*
X171672918Y-80201787D01*
X171661999Y-80178301D01*
X171632490Y-80122231D01*
X171586677Y-80037641D01*
X171526845Y-79928595D01*
X171455279Y-79799158D01*
X171374264Y-79653393D01*
X171286085Y-79495366D01*
X171193027Y-79329140D01*
X171097375Y-79158780D01*
X171001414Y-78988349D01*
X170907429Y-78821912D01*
X170817705Y-78663534D01*
X170734527Y-78517278D01*
X170660181Y-78387209D01*
X170596951Y-78277391D01*
X170547122Y-78191888D01*
X170512979Y-78134765D01*
X170496807Y-78110085D01*
X170493475Y-78108055D01*
X170477121Y-78109118D01*
X170447056Y-78119785D01*
X170400793Y-78141457D01*
X170335847Y-78175532D01*
X170249729Y-78223409D01*
X170139954Y-78286485D01*
X170004034Y-78366159D01*
X169839483Y-78463831D01*
X169643815Y-78580898D01*
X169414542Y-78718759D01*
X169251266Y-78817314D01*
X169067160Y-78928953D01*
X168896542Y-79032962D01*
X168742676Y-79127321D01*
X168608828Y-79210012D01*
X168498267Y-79279014D01*
X168414256Y-79332310D01*
X168360064Y-79367878D01*
X168338957Y-79383701D01*
X168337368Y-79407870D01*
X168347218Y-79471823D01*
X168369249Y-79572353D01*
X168403014Y-79707445D01*
X168448064Y-79875083D01*
X168467043Y-79944535D01*
X168501080Y-80072704D01*
X168529494Y-80184530D01*
X168550803Y-80273907D01*
X168563521Y-80334731D01*
X168566165Y-80360898D01*
X168556038Y-80370251D01*
X168513926Y-80399942D01*
X168443978Y-80445711D01*
X168351317Y-80504287D01*
X168340908Y-80510718D01*
X168241071Y-80572398D01*
X168118364Y-80646771D01*
X167680201Y-80909929D01*
X167101779Y-80765944D01*
X167077394Y-80759883D01*
X166929481Y-80723490D01*
X166796339Y-80691357D01*
X166683230Y-80664707D01*
X166595416Y-80644763D01*
X166538157Y-80632750D01*
X166516715Y-80629891D01*
X166516608Y-80630338D01*
X166382527Y-80630338D01*
X166378177Y-80623955D01*
X166349421Y-80589265D01*
X166324465Y-80568131D01*
X166299748Y-80555801D01*
X166271712Y-80547521D01*
X166188052Y-80526286D01*
X166092685Y-80815082D01*
X166038627Y-80979026D01*
X165966259Y-81199150D01*
X165891255Y-81427936D01*
X165814746Y-81661889D01*
X165737865Y-81897515D01*
X165661742Y-82131321D01*
X165587508Y-82359810D01*
X165516294Y-82579490D01*
X165449232Y-82786865D01*
X165387453Y-82978442D01*
X165332087Y-83150725D01*
X165284266Y-83300220D01*
X165245122Y-83423434D01*
X165215784Y-83516871D01*
X165197385Y-83577037D01*
X165191056Y-83600438D01*
X162875391Y-83600438D01*
X162836339Y-83501405D01*
X162827717Y-83479366D01*
X162803193Y-83416331D01*
X162765659Y-83319660D01*
X162716465Y-83192836D01*
X162656961Y-83039339D01*
X162588495Y-82862651D01*
X162512418Y-82666254D01*
X162430077Y-82453629D01*
X162342822Y-82228257D01*
X162252003Y-81993620D01*
X162182684Y-81814549D01*
X162096527Y-81592102D01*
X162015836Y-81383900D01*
X161941838Y-81193105D01*
X161875761Y-81022873D01*
X161818830Y-80876364D01*
X161772272Y-80756737D01*
X161737316Y-80667150D01*
X161715186Y-80610762D01*
X161707112Y-80590733D01*
X161705239Y-80590233D01*
X161676916Y-80594670D01*
X161626543Y-80607213D01*
X161609428Y-80612496D01*
X161585155Y-80624071D01*
X161561141Y-80643896D01*
X161533997Y-80676813D01*
X161531143Y-80681125D01*
X161500334Y-80727666D01*
X161456763Y-80801299D01*
X161399896Y-80902556D01*
X161326343Y-81036281D01*
X161102930Y-81444146D01*
X160995464Y-82608624D01*
X160887998Y-83773103D01*
X160488207Y-85181860D01*
X160446391Y-85329249D01*
X160380864Y-85560367D01*
X160319088Y-85778445D01*
X160262041Y-85980020D01*
X160210703Y-86161626D01*
X160166051Y-86319800D01*
X160129063Y-86451076D01*
X160100719Y-86551990D01*
X160081998Y-86619078D01*
X160073876Y-86648874D01*
X160072538Y-86654421D01*
X160069468Y-86694602D01*
X159952777Y-86694602D01*
X159957396Y-86679845D01*
X159980968Y-86600757D01*
X160012893Y-86491324D01*
X160052061Y-86355498D01*
X160097365Y-86197227D01*
X160147697Y-86020462D01*
X160201948Y-85829152D01*
X160259010Y-85627247D01*
X160317776Y-85418696D01*
X160377137Y-85207450D01*
X160435984Y-84997457D01*
X160493210Y-84792669D01*
X160547707Y-84597034D01*
X160598365Y-84414502D01*
X160644078Y-84249023D01*
X160683737Y-84104546D01*
X160716234Y-83985022D01*
X160740461Y-83894400D01*
X160755309Y-83836630D01*
X160759670Y-83815661D01*
X160744284Y-83813625D01*
X160690472Y-83809456D01*
X160602151Y-83803633D01*
X160483599Y-83796383D01*
X160339093Y-83787933D01*
X160172909Y-83778510D01*
X159989325Y-83768338D01*
X159792618Y-83757646D01*
X159587064Y-83746660D01*
X159376942Y-83735605D01*
X159166527Y-83724709D01*
X158960097Y-83714198D01*
X158761928Y-83704299D01*
X158576299Y-83695237D01*
X158407486Y-83687240D01*
X158259765Y-83680533D01*
X158137415Y-83675344D01*
X158044712Y-83671899D01*
X157900307Y-83667181D01*
X157129371Y-85340743D01*
X157035071Y-85545715D01*
X156923768Y-85788357D01*
X156818724Y-86018121D01*
X156721223Y-86232167D01*
X156632545Y-86427652D01*
X156553973Y-86601735D01*
X156486787Y-86751576D01*
X156432271Y-86874332D01*
X156391705Y-86967162D01*
X156366372Y-87027225D01*
X156357553Y-87051679D01*
X156213287Y-87051679D01*
X156200462Y-87009647D01*
X156169420Y-86941510D01*
X156069302Y-86750727D01*
X155794000Y-86226388D01*
X155538058Y-85739351D01*
X155301357Y-85289389D01*
X155083777Y-84876278D01*
X154885199Y-84499793D01*
X154705504Y-84159710D01*
X154544572Y-83855802D01*
X154402284Y-83587846D01*
X154278521Y-83355616D01*
X154173162Y-83158888D01*
X154086090Y-82997437D01*
X154017184Y-82871037D01*
X153966325Y-82779464D01*
X153933394Y-82722493D01*
X153918271Y-82699899D01*
X153891779Y-82662029D01*
X153885079Y-82624100D01*
X154009061Y-82624100D01*
X154079245Y-82753731D01*
X154096315Y-82785707D01*
X154132544Y-82854090D01*
X154185818Y-82954901D01*
X154254742Y-83085497D01*
X154337923Y-83243234D01*
X154433968Y-83425469D01*
X154541485Y-83629558D01*
X154659081Y-83852857D01*
X154785362Y-84092722D01*
X154918935Y-84346510D01*
X155058408Y-84611577D01*
X155202387Y-84885280D01*
X155343740Y-85153888D01*
X155481094Y-85414621D01*
X155611802Y-85662468D01*
X155734559Y-85894964D01*
X155848059Y-86109649D01*
X155950997Y-86304058D01*
X156042069Y-86475731D01*
X156119970Y-86622204D01*
X156183395Y-86741014D01*
X156231037Y-86829701D01*
X156261594Y-86885800D01*
X156273758Y-86906850D01*
X156281888Y-86908863D01*
X156305292Y-86885922D01*
X156333909Y-86832704D01*
X156338050Y-86823507D01*
X156360082Y-86775134D01*
X156397828Y-86692618D01*
X156449869Y-86579050D01*
X156514786Y-86437519D01*
X156591160Y-86271116D01*
X156677574Y-86082931D01*
X156772608Y-85876054D01*
X156874844Y-85653577D01*
X156982864Y-85418588D01*
X157095248Y-85174179D01*
X157814849Y-83609450D01*
X157705402Y-83404440D01*
X157654652Y-83309386D01*
X157417374Y-82865212D01*
X157199703Y-82458169D01*
X157001488Y-82087978D01*
X156822580Y-81754361D01*
X156662828Y-81457041D01*
X156522083Y-81195740D01*
X156400194Y-80970181D01*
X156297011Y-80780085D01*
X156212385Y-80625174D01*
X156146164Y-80505172D01*
X156098201Y-80419800D01*
X156068343Y-80368780D01*
X156056442Y-80351835D01*
X156044278Y-80362928D01*
X156005774Y-80403169D01*
X155943279Y-80470432D01*
X155859062Y-80562217D01*
X155755394Y-80676026D01*
X155634542Y-80809360D01*
X155498778Y-80959720D01*
X155350369Y-81124607D01*
X155191586Y-81301523D01*
X155024697Y-81487968D01*
X154009061Y-82624100D01*
X153885079Y-82624100D01*
X153878107Y-82584632D01*
X153878113Y-82583877D01*
X153880133Y-82549014D01*
X153885148Y-82481235D01*
X153987935Y-82481235D01*
X153993036Y-82477004D01*
X154022539Y-82446407D01*
X154075859Y-82388896D01*
X154150259Y-82307535D01*
X154243000Y-82205389D01*
X154351341Y-82085525D01*
X154472544Y-81951006D01*
X154603870Y-81804898D01*
X154742579Y-81650266D01*
X154885933Y-81490175D01*
X155031191Y-81327690D01*
X155175616Y-81165876D01*
X155316468Y-81007798D01*
X155451007Y-80856522D01*
X155576495Y-80715112D01*
X155690192Y-80586634D01*
X155789359Y-80474152D01*
X155871258Y-80380732D01*
X155933148Y-80309439D01*
X155972291Y-80263338D01*
X155985947Y-80245493D01*
X155981295Y-80239480D01*
X155978812Y-80236858D01*
X156138716Y-80236858D01*
X156142637Y-80245493D01*
X156144978Y-80250649D01*
X156169404Y-80298936D01*
X156210653Y-80378692D01*
X156266992Y-80486650D01*
X156336685Y-80619542D01*
X156417998Y-80774102D01*
X156509197Y-80947059D01*
X156608546Y-81135148D01*
X156714312Y-81335100D01*
X156824760Y-81543647D01*
X156938155Y-81757522D01*
X157052763Y-81973457D01*
X157166848Y-82188183D01*
X157278678Y-82398434D01*
X157386516Y-82600941D01*
X157488628Y-82792436D01*
X157583281Y-82969653D01*
X157668739Y-83129322D01*
X157743267Y-83268176D01*
X157805132Y-83382948D01*
X157852598Y-83470369D01*
X157883931Y-83527172D01*
X157897397Y-83550089D01*
X157897914Y-83550333D01*
X157924992Y-83553430D01*
X157990295Y-83558419D01*
X158090187Y-83565087D01*
X158221037Y-83573216D01*
X158379209Y-83582591D01*
X158561070Y-83592996D01*
X158762985Y-83604215D01*
X158859710Y-83609450D01*
X158981322Y-83616032D01*
X159212447Y-83628231D01*
X159218404Y-83628542D01*
X159453952Y-83640721D01*
X159680213Y-83652238D01*
X159893057Y-83662895D01*
X160088358Y-83672493D01*
X160261987Y-83680834D01*
X160409818Y-83687719D01*
X160527723Y-83692951D01*
X160611574Y-83696330D01*
X160657243Y-83697659D01*
X160795095Y-83698958D01*
X160898148Y-82560301D01*
X161001201Y-81421643D01*
X161201957Y-81054769D01*
X161212110Y-81036188D01*
X161272072Y-80925334D01*
X161323332Y-80828687D01*
X161362934Y-80751960D01*
X161387918Y-80700868D01*
X161395330Y-80681125D01*
X161381160Y-80683209D01*
X161331138Y-80695243D01*
X161250406Y-80716368D01*
X161144522Y-80745093D01*
X161019042Y-80779929D01*
X160879525Y-80819387D01*
X160771293Y-80850026D01*
X160638125Y-80887042D01*
X160521531Y-80918682D01*
X160427541Y-80943342D01*
X160362185Y-80959417D01*
X160331493Y-80965300D01*
X160319299Y-80961375D01*
X160274345Y-80936604D01*
X160203803Y-80892065D01*
X160113000Y-80831276D01*
X160007262Y-80757755D01*
X159891918Y-80675018D01*
X159857049Y-80649589D01*
X159764915Y-80581571D01*
X161816914Y-80581571D01*
X161820836Y-80592894D01*
X161838690Y-80640709D01*
X161869799Y-80722614D01*
X161912911Y-80835363D01*
X161966779Y-80975708D01*
X162030153Y-81140399D01*
X162101785Y-81326191D01*
X162180426Y-81529833D01*
X162264827Y-81748079D01*
X162353738Y-81977680D01*
X162407690Y-82116928D01*
X162495777Y-82344336D01*
X162579455Y-82560444D01*
X162657361Y-82761725D01*
X162728133Y-82944654D01*
X162790407Y-83105706D01*
X162842820Y-83241355D01*
X162884007Y-83348076D01*
X162912606Y-83422345D01*
X162927254Y-83460634D01*
X162969225Y-83571852D01*
X164027583Y-83571852D01*
X164074635Y-83571845D01*
X164317290Y-83571548D01*
X164520949Y-83570755D01*
X164688479Y-83569396D01*
X164822745Y-83567400D01*
X164926613Y-83564695D01*
X165002950Y-83561211D01*
X165054620Y-83556876D01*
X165084491Y-83551620D01*
X165095427Y-83545371D01*
X165102399Y-83525245D01*
X165123257Y-83463063D01*
X165154488Y-83368668D01*
X165194857Y-83245876D01*
X165243124Y-83098502D01*
X165298053Y-82930361D01*
X165358406Y-82745269D01*
X165422945Y-82547042D01*
X165490433Y-82339493D01*
X165559632Y-82126440D01*
X165629304Y-81911697D01*
X165698212Y-81699080D01*
X165765119Y-81492404D01*
X165828786Y-81295484D01*
X165887976Y-81112136D01*
X165941451Y-80946175D01*
X165987974Y-80801417D01*
X166026308Y-80681677D01*
X166055213Y-80590770D01*
X166073454Y-80532512D01*
X166079792Y-80510718D01*
X166079676Y-80510364D01*
X166056993Y-80499755D01*
X165997720Y-80479069D01*
X165905789Y-80449504D01*
X165785133Y-80412258D01*
X165639684Y-80368530D01*
X165473377Y-80319516D01*
X165290142Y-80266416D01*
X165093914Y-80210426D01*
X164108274Y-79931318D01*
X162959955Y-80244258D01*
X162721716Y-80309564D01*
X162490218Y-80373916D01*
X162290126Y-80430559D01*
X162123044Y-80479020D01*
X161990577Y-80518825D01*
X161894330Y-80549501D01*
X161835907Y-80570574D01*
X161816914Y-80581571D01*
X159764915Y-80581571D01*
X159731030Y-80556555D01*
X159635707Y-80483773D01*
X159567608Y-80428306D01*
X159523263Y-80387216D01*
X159499201Y-80357563D01*
X159491952Y-80336410D01*
X159492176Y-80330314D01*
X159496106Y-80284698D01*
X159504336Y-80206094D01*
X159516087Y-80101500D01*
X159530578Y-79977915D01*
X159547028Y-79842337D01*
X159552832Y-79794902D01*
X159567986Y-79667080D01*
X159580404Y-79556436D01*
X159589431Y-79469184D01*
X159594412Y-79411534D01*
X159594693Y-79389702D01*
X159594172Y-79389322D01*
X159569366Y-79374591D01*
X159511929Y-79341726D01*
X159425726Y-79292886D01*
X159314622Y-79230232D01*
X159182482Y-79155923D01*
X159033173Y-79072118D01*
X158870559Y-78980977D01*
X158698506Y-78884660D01*
X158520879Y-78785327D01*
X158341544Y-78685136D01*
X158164366Y-78586248D01*
X157993211Y-78490822D01*
X157831943Y-78401018D01*
X157684429Y-78318996D01*
X157554533Y-78246914D01*
X157446122Y-78186934D01*
X157363060Y-78141213D01*
X157309213Y-78111913D01*
X157288446Y-78101192D01*
X157286302Y-78102848D01*
X157267385Y-78131305D01*
X157231596Y-78191904D01*
X157181110Y-78280606D01*
X157118100Y-78393372D01*
X157044741Y-78526162D01*
X156963208Y-78674938D01*
X156875674Y-78835660D01*
X156784316Y-79004289D01*
X156691306Y-79176786D01*
X156598820Y-79349112D01*
X156509032Y-79517228D01*
X156424117Y-79677094D01*
X156346248Y-79824672D01*
X156277601Y-79955921D01*
X156220350Y-80066804D01*
X156176669Y-80153280D01*
X156148733Y-80211311D01*
X156138716Y-80236858D01*
X155978812Y-80236858D01*
X155950767Y-80207244D01*
X155894110Y-80149796D01*
X155814093Y-80069873D01*
X155713480Y-79970210D01*
X155595039Y-79853545D01*
X155461534Y-79722614D01*
X155315734Y-79580152D01*
X155160403Y-79428896D01*
X155046009Y-79317703D01*
X154884440Y-79160824D01*
X154749309Y-79030047D01*
X154638194Y-78923242D01*
X154548672Y-78838281D01*
X154478320Y-78773033D01*
X154424715Y-78725369D01*
X154385435Y-78693159D01*
X154358056Y-78674273D01*
X154340157Y-78666582D01*
X154329314Y-78667956D01*
X154323104Y-78676266D01*
X154319105Y-78689382D01*
X154315699Y-78713289D01*
X154308661Y-78777568D01*
X154298562Y-78878181D01*
X154285692Y-79011981D01*
X154270339Y-79175821D01*
X154252794Y-79366554D01*
X154233344Y-79581034D01*
X154212280Y-79816112D01*
X154189890Y-80068644D01*
X154166464Y-80335480D01*
X154142291Y-80613475D01*
X154120627Y-80864573D01*
X154097876Y-81130013D01*
X154076565Y-81380454D01*
X154056946Y-81612873D01*
X154039267Y-81824247D01*
X154023778Y-82011551D01*
X154010729Y-82171764D01*
X154000371Y-82301862D01*
X153992953Y-82398822D01*
X153988724Y-82459621D01*
X153987935Y-82481235D01*
X153885148Y-82481235D01*
X153885591Y-82475246D01*
X153894227Y-82365693D01*
X153905779Y-82223477D01*
X153919986Y-82051717D01*
X153936587Y-81853535D01*
X153955320Y-81632051D01*
X153975924Y-81390387D01*
X153998138Y-81131663D01*
X154021700Y-80858999D01*
X154046348Y-80575517D01*
X154070322Y-80300810D01*
X154097729Y-79986997D01*
X154121823Y-79710906D01*
X154142777Y-79470021D01*
X154160762Y-79261827D01*
X154175953Y-79083809D01*
X154188521Y-78933451D01*
X154198639Y-78808239D01*
X154206480Y-78705656D01*
X154212215Y-78623188D01*
X154216018Y-78558319D01*
X154218045Y-78508945D01*
X154369558Y-78508945D01*
X154375209Y-78515644D01*
X154407423Y-78548966D01*
X154465673Y-78607451D01*
X154547174Y-78688354D01*
X154649141Y-78788932D01*
X154768788Y-78906439D01*
X154903329Y-79038131D01*
X155049980Y-79181263D01*
X155205954Y-79333091D01*
X155297252Y-79421741D01*
X155448519Y-79568145D01*
X155589207Y-79703719D01*
X155716496Y-79825780D01*
X155827568Y-79931645D01*
X155919606Y-80018634D01*
X155989791Y-80084063D01*
X156035304Y-80125251D01*
X156053327Y-80139515D01*
X156062337Y-80127283D01*
X156089802Y-80080850D01*
X156133659Y-80002897D01*
X156192110Y-79896740D01*
X156263353Y-79765691D01*
X156345591Y-79613063D01*
X156437022Y-79442170D01*
X156535848Y-79256326D01*
X156640268Y-79058843D01*
X157191662Y-78013147D01*
X157358046Y-78013147D01*
X157358824Y-78013686D01*
X157384169Y-78028493D01*
X157442760Y-78061941D01*
X157531441Y-78112249D01*
X157647054Y-78177632D01*
X157786439Y-78256308D01*
X157946440Y-78346495D01*
X158123899Y-78446409D01*
X158315656Y-78554268D01*
X158518555Y-78668289D01*
X159671594Y-79315961D01*
X160603916Y-79473827D01*
X160746691Y-79498027D01*
X160932694Y-79529634D01*
X161103339Y-79558721D01*
X161254224Y-79584533D01*
X161380944Y-79606314D01*
X161479096Y-79623309D01*
X161544277Y-79634762D01*
X161572085Y-79639919D01*
X161591564Y-79642436D01*
X161619749Y-79636326D01*
X161624338Y-79611721D01*
X161628096Y-79553461D01*
X161630636Y-79470259D01*
X161631568Y-79370826D01*
X161631568Y-79117145D01*
X160761154Y-77711387D01*
X160725271Y-77653463D01*
X160589186Y-77434303D01*
X160459719Y-77226599D01*
X160338603Y-77033086D01*
X160227571Y-76856500D01*
X160128357Y-76699576D01*
X160042695Y-76565050D01*
X159972318Y-76455657D01*
X159918960Y-76374132D01*
X159884355Y-76323211D01*
X159870236Y-76305630D01*
X159859701Y-76311123D01*
X159817391Y-76337658D01*
X159746122Y-76384119D01*
X159649269Y-76448212D01*
X159530206Y-76527644D01*
X159392306Y-76620122D01*
X159238945Y-76723351D01*
X159073497Y-76835039D01*
X158899336Y-76952891D01*
X158719836Y-77074615D01*
X158538372Y-77197917D01*
X158358318Y-77320503D01*
X158183049Y-77440080D01*
X158015938Y-77554355D01*
X157860360Y-77661033D01*
X157719689Y-77757822D01*
X157597300Y-77842427D01*
X157496567Y-77912556D01*
X157420864Y-77965915D01*
X157373565Y-78000210D01*
X157358046Y-78013147D01*
X157191662Y-78013147D01*
X157209853Y-77978649D01*
X158546857Y-77068124D01*
X159790716Y-76221034D01*
X159957565Y-76221034D01*
X160007118Y-76300405D01*
X160007382Y-76300828D01*
X160027034Y-76332471D01*
X160067068Y-76397055D01*
X160125628Y-76491584D01*
X160200860Y-76613062D01*
X160290910Y-76758495D01*
X160393923Y-76924888D01*
X160508044Y-77109243D01*
X160631419Y-77308567D01*
X160762193Y-77519863D01*
X160898512Y-77740137D01*
X161740352Y-79100500D01*
X161726415Y-79370826D01*
X161726389Y-79371330D01*
X161722319Y-79514153D01*
X161727420Y-79756034D01*
X161746142Y-80033715D01*
X161756620Y-80156210D01*
X161765928Y-80266604D01*
X161773285Y-80355571D01*
X161778120Y-80416183D01*
X161779858Y-80441513D01*
X161779889Y-80442526D01*
X161795747Y-80456193D01*
X161807497Y-80453345D01*
X161856530Y-80440448D01*
X161940129Y-80418075D01*
X162054575Y-80387231D01*
X162196152Y-80348924D01*
X162361142Y-80304159D01*
X162545827Y-80253943D01*
X162746489Y-80199283D01*
X162959411Y-80141184D01*
X164107187Y-79827737D01*
X165107288Y-80111537D01*
X165135015Y-80119402D01*
X165331190Y-80174893D01*
X165514026Y-80226342D01*
X165679609Y-80272664D01*
X165824024Y-80312778D01*
X165943356Y-80345599D01*
X166033690Y-80370044D01*
X166091111Y-80385030D01*
X166111705Y-80389474D01*
X166114138Y-80379535D01*
X166120245Y-80333117D01*
X166128421Y-80255268D01*
X166138104Y-80152766D01*
X166148731Y-80032387D01*
X166159742Y-79900909D01*
X166170573Y-79765109D01*
X166180664Y-79631765D01*
X166188177Y-79525647D01*
X166289058Y-79525647D01*
X166370030Y-79523241D01*
X166384920Y-79522498D01*
X166448378Y-79517299D01*
X166540111Y-79508181D01*
X166650210Y-79496161D01*
X166768766Y-79482257D01*
X166843960Y-79473146D01*
X166978863Y-79456848D01*
X167138544Y-79437597D01*
X167312892Y-79416612D01*
X167491796Y-79395109D01*
X167665145Y-79374307D01*
X168243759Y-79304934D01*
X169322363Y-78655527D01*
X169348861Y-78639572D01*
X169570609Y-78505913D01*
X169758833Y-78392097D01*
X169916112Y-78296438D01*
X170045023Y-78217254D01*
X170148143Y-78152860D01*
X170228050Y-78101573D01*
X170287321Y-78061709D01*
X170328534Y-78031583D01*
X170354266Y-78009513D01*
X170367094Y-77993814D01*
X170369596Y-77982803D01*
X170364350Y-77974795D01*
X170363778Y-77974312D01*
X170334682Y-77952403D01*
X170275319Y-77909661D01*
X170189108Y-77848461D01*
X170079470Y-77771176D01*
X169949826Y-77680183D01*
X169803595Y-77577855D01*
X169644198Y-77466567D01*
X169475056Y-77348693D01*
X169299589Y-77226609D01*
X169121216Y-77102687D01*
X168943359Y-76979305D01*
X168769438Y-76858835D01*
X168602873Y-76743652D01*
X168447084Y-76636131D01*
X168305492Y-76538646D01*
X168181517Y-76453573D01*
X168078579Y-76383285D01*
X168000099Y-76330158D01*
X167949498Y-76296565D01*
X167930195Y-76284881D01*
X167930022Y-76284932D01*
X167915812Y-76304657D01*
X167882182Y-76358089D01*
X167830818Y-76442385D01*
X167763402Y-76554707D01*
X167681618Y-76692214D01*
X167587151Y-76852065D01*
X167481684Y-77031419D01*
X167366901Y-77227438D01*
X167244486Y-77437279D01*
X167116122Y-77658103D01*
X166319525Y-79030889D01*
X166304292Y-79278268D01*
X166289058Y-79525647D01*
X166188177Y-79525647D01*
X166189451Y-79507653D01*
X166196373Y-79399550D01*
X166200869Y-79314235D01*
X166203169Y-79266114D01*
X166213517Y-79124624D01*
X166227437Y-79024136D01*
X166244850Y-78965264D01*
X166258131Y-78941210D01*
X166291543Y-78882470D01*
X166342925Y-78792907D01*
X166410519Y-78675561D01*
X166492567Y-78533473D01*
X166587313Y-78369683D01*
X166692998Y-78187232D01*
X166807866Y-77989159D01*
X166930160Y-77778505D01*
X167058120Y-77558311D01*
X167178560Y-77350858D01*
X167299313Y-77142225D01*
X167411943Y-76946976D01*
X167514794Y-76768013D01*
X167606212Y-76608234D01*
X167684542Y-76470542D01*
X167748128Y-76357836D01*
X167795317Y-76273017D01*
X167824452Y-76218986D01*
X167833879Y-76198643D01*
X167818222Y-76178632D01*
X167775848Y-76131276D01*
X167709641Y-76059722D01*
X167622395Y-75966856D01*
X167516906Y-75855564D01*
X167395969Y-75728729D01*
X167262381Y-75589239D01*
X167118936Y-75439977D01*
X166968431Y-75283830D01*
X166813660Y-75123681D01*
X166657419Y-74962418D01*
X166502504Y-74802924D01*
X166351710Y-74648085D01*
X166207834Y-74500787D01*
X166073669Y-74363915D01*
X165952012Y-74240353D01*
X165845658Y-74132987D01*
X165757404Y-74044703D01*
X165690043Y-73978385D01*
X165646373Y-73936919D01*
X165629188Y-73923190D01*
X165616240Y-73927151D01*
X165565771Y-73941821D01*
X165481703Y-73965934D01*
X165368311Y-73998274D01*
X165229869Y-74037626D01*
X165070653Y-74082772D01*
X164894937Y-74132497D01*
X164706996Y-74185584D01*
X163810363Y-74438626D01*
X163022842Y-74193958D01*
X162981980Y-74181268D01*
X162809384Y-74127781D01*
X162650252Y-74078647D01*
X162509083Y-74035242D01*
X162390374Y-73998942D01*
X162298621Y-73971123D01*
X162238323Y-73953162D01*
X162213975Y-73946434D01*
X162213634Y-73946483D01*
X162193619Y-73962942D01*
X162146513Y-74007204D01*
X162074656Y-74076938D01*
X161980386Y-74169810D01*
X161866043Y-74283488D01*
X161733966Y-74415638D01*
X161586494Y-74563928D01*
X161425965Y-74726025D01*
X161254720Y-74899595D01*
X161075097Y-75082306D01*
X159957565Y-76221034D01*
X159790716Y-76221034D01*
X159883862Y-76157600D01*
X160974854Y-75042257D01*
X161145370Y-74867843D01*
X161314051Y-74695117D01*
X161471712Y-74533485D01*
X161616024Y-74385342D01*
X161744658Y-74253087D01*
X161855287Y-74139114D01*
X161945581Y-74045821D01*
X162013212Y-73975604D01*
X162055850Y-73930861D01*
X162071168Y-73913986D01*
X162058615Y-73907813D01*
X162009708Y-73889960D01*
X161927677Y-73861942D01*
X161816559Y-73825030D01*
X161680389Y-73780497D01*
X161523201Y-73729617D01*
X161349031Y-73673663D01*
X161161914Y-73613907D01*
X160965885Y-73551622D01*
X160764980Y-73488082D01*
X160563233Y-73424558D01*
X160364679Y-73362324D01*
X160173354Y-73302653D01*
X159993293Y-73246817D01*
X159828531Y-73196090D01*
X159683104Y-73151744D01*
X159561045Y-73115052D01*
X159466392Y-73087287D01*
X159403177Y-73069722D01*
X159375438Y-73063630D01*
X159360135Y-73064341D01*
X159299856Y-73070606D01*
X159211669Y-73082364D01*
X159102557Y-73098443D01*
X158979500Y-73117670D01*
X158849482Y-73138873D01*
X158719482Y-73160878D01*
X158596482Y-73182513D01*
X158487465Y-73202605D01*
X158399410Y-73219982D01*
X158356805Y-73229543D01*
X158339301Y-73233471D01*
X158314117Y-73241899D01*
X158303885Y-73259638D01*
X158277813Y-73311696D01*
X158238796Y-73392596D01*
X158189217Y-73497170D01*
X158131457Y-73620249D01*
X158067895Y-73756665D01*
X158000915Y-73901249D01*
X157932897Y-74048833D01*
X157866222Y-74194247D01*
X157803272Y-74332324D01*
X157746427Y-74457894D01*
X157698070Y-74565789D01*
X157660581Y-74650841D01*
X157636341Y-74707881D01*
X157627732Y-74731740D01*
X157620422Y-74745581D01*
X157590480Y-74783124D01*
X157545298Y-74832518D01*
X157532975Y-74845626D01*
X157487300Y-74896034D01*
X157418675Y-74973220D01*
X157329215Y-75074736D01*
X157221033Y-75198134D01*
X157096244Y-75340967D01*
X156956964Y-75500786D01*
X156805306Y-75675143D01*
X156643386Y-75861591D01*
X156473317Y-76057681D01*
X156297215Y-76260965D01*
X156117193Y-76468996D01*
X155935367Y-76679326D01*
X155753851Y-76889506D01*
X155574760Y-77097088D01*
X155400208Y-77299625D01*
X155232310Y-77494669D01*
X155073180Y-77679771D01*
X154924934Y-77852484D01*
X154789685Y-78010360D01*
X154669548Y-78150950D01*
X154566638Y-78271807D01*
X154483070Y-78370483D01*
X154420957Y-78444530D01*
X154382415Y-78491500D01*
X154369558Y-78508945D01*
X154218045Y-78508945D01*
X154218062Y-78508534D01*
X154218518Y-78471317D01*
X154217559Y-78444154D01*
X154215359Y-78424529D01*
X154212089Y-78409926D01*
X154207922Y-78397831D01*
X154203031Y-78385728D01*
X154197587Y-78371101D01*
X154193920Y-78362311D01*
X154170634Y-78315977D01*
X154128691Y-78237591D01*
X154069938Y-78130447D01*
X153996220Y-77997842D01*
X153909385Y-77843072D01*
X153811278Y-77669434D01*
X153703746Y-77480222D01*
X153588635Y-77278734D01*
X153467792Y-77068266D01*
X153414661Y-76975822D01*
X153297423Y-76770857D01*
X153187496Y-76577340D01*
X153086625Y-76398420D01*
X152996557Y-76237247D01*
X152919035Y-76096969D01*
X152855805Y-75980737D01*
X152808612Y-75891698D01*
X152779201Y-75833002D01*
X152769317Y-75807798D01*
X152865110Y-75807798D01*
X152988513Y-76028512D01*
X153111916Y-76249226D01*
X153142722Y-76176803D01*
X153153035Y-76153365D01*
X153180091Y-76092631D01*
X153222099Y-75998675D01*
X153277752Y-75874410D01*
X153345745Y-75722748D01*
X153424769Y-75546601D01*
X153513520Y-75348881D01*
X153610689Y-75132502D01*
X153714970Y-74900375D01*
X153825057Y-74655413D01*
X153939643Y-74400528D01*
X154031722Y-74195599D01*
X154157870Y-73914239D01*
X154267893Y-73667936D01*
X154362688Y-73454591D01*
X154443151Y-73272107D01*
X154510179Y-73118384D01*
X154564670Y-72991323D01*
X154607520Y-72888826D01*
X154639626Y-72808794D01*
X154661885Y-72749129D01*
X154675193Y-72707730D01*
X154680447Y-72682500D01*
X154678545Y-72671340D01*
X154673404Y-72666997D01*
X154637837Y-72639531D01*
X154575339Y-72592678D01*
X154491345Y-72530468D01*
X154391290Y-72456935D01*
X154280609Y-72376111D01*
X153909884Y-72106219D01*
X153740542Y-72120195D01*
X153718940Y-72122095D01*
X153640947Y-72131032D01*
X153582671Y-72140931D01*
X153555394Y-72149977D01*
X153550632Y-72166827D01*
X153538441Y-72222673D01*
X153519671Y-72314603D01*
X153494905Y-72439596D01*
X153464721Y-72594635D01*
X153429700Y-72776702D01*
X153390423Y-72982777D01*
X153347469Y-73209841D01*
X153301419Y-73454878D01*
X153252852Y-73714867D01*
X153202349Y-73986791D01*
X152865110Y-75807798D01*
X152769317Y-75807798D01*
X152769362Y-75807284D01*
X152773962Y-75778605D01*
X152785517Y-75712554D01*
X152803364Y-75612724D01*
X152826839Y-75482708D01*
X152855282Y-75326100D01*
X152888028Y-75146493D01*
X152924415Y-74947479D01*
X152963781Y-74732653D01*
X153005463Y-74505606D01*
X153048799Y-74269933D01*
X153093126Y-74029226D01*
X153137781Y-73787079D01*
X153182102Y-73547085D01*
X153225426Y-73312836D01*
X153267091Y-73087926D01*
X153306434Y-72875949D01*
X153342792Y-72680496D01*
X153375503Y-72505162D01*
X153403904Y-72353540D01*
X153427333Y-72229222D01*
X153445126Y-72135803D01*
X153455662Y-72081798D01*
X154084037Y-72081798D01*
X154097060Y-72100938D01*
X154130640Y-72132660D01*
X154187604Y-72179312D01*
X154270781Y-72243241D01*
X154382999Y-72326793D01*
X154527085Y-72432314D01*
X154577463Y-72469042D01*
X154694390Y-72554372D01*
X154838992Y-72659980D01*
X154869811Y-72682500D01*
X155007053Y-72782786D01*
X155194357Y-72919704D01*
X155396687Y-73067653D01*
X155609826Y-73223548D01*
X155829558Y-73384309D01*
X156051667Y-73546850D01*
X156271935Y-73708090D01*
X156470503Y-73853362D01*
X156665373Y-73995718D01*
X156847655Y-74128665D01*
X157014650Y-74250246D01*
X157163663Y-74358505D01*
X157291996Y-74451485D01*
X157396954Y-74527230D01*
X157475840Y-74583783D01*
X157525957Y-74619188D01*
X157544608Y-74631489D01*
X157547011Y-74628457D01*
X157564242Y-74596080D01*
X157595603Y-74532452D01*
X157638676Y-74442794D01*
X157691040Y-74332326D01*
X157750276Y-74206267D01*
X157813966Y-74069837D01*
X157879690Y-73928255D01*
X157945029Y-73786741D01*
X158007564Y-73650515D01*
X158064876Y-73524797D01*
X158114545Y-73414806D01*
X158154153Y-73325762D01*
X158181281Y-73262884D01*
X158193508Y-73231393D01*
X158193906Y-73229543D01*
X158193087Y-73222868D01*
X158187611Y-73213954D01*
X158175524Y-73201533D01*
X158154874Y-73184338D01*
X158123709Y-73161102D01*
X158080077Y-73130558D01*
X158022026Y-73091440D01*
X157947603Y-73042480D01*
X157854857Y-72982411D01*
X157741835Y-72909966D01*
X157606585Y-72823878D01*
X157447155Y-72722881D01*
X157261592Y-72605707D01*
X157047945Y-72471089D01*
X156804261Y-72317761D01*
X156528588Y-72144455D01*
X156218974Y-71949904D01*
X156007131Y-71816807D01*
X155075021Y-71940649D01*
X154938191Y-71958837D01*
X154750282Y-71983842D01*
X154577206Y-72006906D01*
X154423492Y-72027424D01*
X154293667Y-72044789D01*
X154192259Y-72058398D01*
X154123796Y-72067645D01*
X154092806Y-72071924D01*
X154088744Y-72072895D01*
X154084037Y-72081798D01*
X153455662Y-72081798D01*
X153456623Y-72076874D01*
X153461159Y-72056029D01*
X153469461Y-72054345D01*
X153514334Y-72047526D01*
X153594125Y-72036213D01*
X153704381Y-72020994D01*
X153840649Y-72002455D01*
X153998475Y-71981183D01*
X154173408Y-71957766D01*
X154360993Y-71932791D01*
X154556778Y-71906846D01*
X154756309Y-71880516D01*
X154955135Y-71854389D01*
X155148801Y-71829053D01*
X155332854Y-71805094D01*
X155502843Y-71783099D01*
X155654312Y-71763657D01*
X155782811Y-71747353D01*
X155883885Y-71734775D01*
X155953081Y-71726510D01*
X155985947Y-71723145D01*
X155990439Y-71723261D01*
X156014755Y-71729663D01*
X156053544Y-71746489D01*
X156109154Y-71775130D01*
X156183934Y-71816980D01*
X156280232Y-71873432D01*
X156400396Y-71945879D01*
X156546775Y-72035713D01*
X156721718Y-72144328D01*
X156927572Y-72273117D01*
X157166687Y-72423472D01*
X158283873Y-73127257D01*
X158819064Y-73041498D01*
X158916672Y-73025887D01*
X158941406Y-73021949D01*
X159661426Y-73021949D01*
X159662327Y-73022947D01*
X159679035Y-73030441D01*
X159717909Y-73044644D01*
X159780359Y-73066005D01*
X159867792Y-73094970D01*
X159981616Y-73131989D01*
X160123239Y-73177509D01*
X160294070Y-73231978D01*
X160495517Y-73295845D01*
X160728987Y-73369556D01*
X160995890Y-73453561D01*
X161297632Y-73548307D01*
X161635622Y-73654242D01*
X162011269Y-73771813D01*
X162425980Y-73901471D01*
X162466047Y-73913986D01*
X162500844Y-73924855D01*
X162725814Y-73994995D01*
X162938677Y-74061167D01*
X163135893Y-74122284D01*
X163313922Y-74177255D01*
X163469225Y-74224991D01*
X163598261Y-74264405D01*
X163697491Y-74294406D01*
X163763373Y-74313905D01*
X163792369Y-74321814D01*
X163808453Y-74320804D01*
X163864690Y-74309825D01*
X163955970Y-74288178D01*
X164078917Y-74256755D01*
X164230152Y-74216446D01*
X164406297Y-74168140D01*
X164603975Y-74112727D01*
X164819808Y-74051098D01*
X164874480Y-74035325D01*
X165067546Y-73979232D01*
X165276651Y-73917947D01*
X165354318Y-73895025D01*
X165788764Y-73895025D01*
X165792300Y-73899474D01*
X165820052Y-73930016D01*
X165872970Y-73986750D01*
X165948208Y-74066693D01*
X166042917Y-74166862D01*
X166154250Y-74284275D01*
X166279359Y-74415949D01*
X166415396Y-74558901D01*
X166559514Y-74710148D01*
X166708865Y-74866708D01*
X166860601Y-75025599D01*
X167011875Y-75183837D01*
X167159839Y-75338440D01*
X167301645Y-75486424D01*
X167434445Y-75624809D01*
X167555393Y-75750610D01*
X167661639Y-75860844D01*
X167750337Y-75952531D01*
X167818639Y-76022686D01*
X167863697Y-76068327D01*
X167891036Y-76092025D01*
X167953384Y-76140890D01*
X168030088Y-76198643D01*
X168044959Y-76209840D01*
X168162703Y-76296661D01*
X168303555Y-76399141D01*
X168464454Y-76515067D01*
X168642342Y-76642225D01*
X168834157Y-76778403D01*
X169036840Y-76921388D01*
X169247331Y-77068967D01*
X169440578Y-77204010D01*
X169638166Y-77342033D01*
X169823019Y-77471104D01*
X169992389Y-77589306D01*
X170143527Y-77694724D01*
X170273685Y-77785442D01*
X170380115Y-77859543D01*
X170460069Y-77915111D01*
X170510798Y-77950230D01*
X170529555Y-77962984D01*
X170536815Y-77973905D01*
X170542107Y-77982803D01*
X170563271Y-78018388D01*
X170607167Y-78094034D01*
X170666616Y-78197539D01*
X170739733Y-78325596D01*
X170824629Y-78474899D01*
X170919420Y-78642142D01*
X171022218Y-78824018D01*
X171131136Y-79017223D01*
X171212170Y-79161046D01*
X171317083Y-79346946D01*
X171414612Y-79519416D01*
X171502846Y-79675097D01*
X171579876Y-79810630D01*
X171643792Y-79922658D01*
X171692686Y-80007822D01*
X171724647Y-80062764D01*
X171737766Y-80084126D01*
X171749223Y-80077106D01*
X171784541Y-80041140D01*
X171840336Y-79978435D01*
X171913493Y-79892652D01*
X172000898Y-79787456D01*
X172099436Y-79666508D01*
X172205994Y-79533471D01*
X172253049Y-79474246D01*
X172375203Y-79320525D01*
X172498595Y-79165276D01*
X172617706Y-79015440D01*
X172727019Y-78877958D01*
X172821015Y-78759771D01*
X172894178Y-78667819D01*
X172962309Y-78581549D01*
X173029950Y-78493204D01*
X173075260Y-78429323D01*
X173101121Y-78385445D01*
X173110415Y-78357110D01*
X173106021Y-78339857D01*
X173105487Y-78339187D01*
X173085943Y-78315595D01*
X173041143Y-78261915D01*
X172972870Y-78180277D01*
X172882911Y-78072811D01*
X172773048Y-77941645D01*
X172645068Y-77788909D01*
X172500753Y-77616732D01*
X172341888Y-77427244D01*
X172170259Y-77222573D01*
X171987648Y-77004850D01*
X171795842Y-76776203D01*
X171596624Y-76538761D01*
X170111555Y-74768909D01*
X169766426Y-74049071D01*
X169757987Y-74031476D01*
X169680191Y-73869795D01*
X169607837Y-73720340D01*
X169543055Y-73587448D01*
X169487979Y-73475455D01*
X169444738Y-73388698D01*
X169415466Y-73331513D01*
X169402293Y-73308237D01*
X169378942Y-73299350D01*
X169323846Y-73293446D01*
X169251757Y-73293660D01*
X169239748Y-73294032D01*
X169152865Y-73290196D01*
X169030058Y-73276985D01*
X168875736Y-73254945D01*
X168806188Y-73243321D01*
X169496341Y-73243321D01*
X169503468Y-73261551D01*
X169527031Y-73313790D01*
X169565059Y-73395731D01*
X169615535Y-73503081D01*
X169676440Y-73631547D01*
X169745754Y-73776837D01*
X169821460Y-73934658D01*
X169894027Y-74085172D01*
X169965399Y-74232436D01*
X170029297Y-74363491D01*
X170083559Y-74473936D01*
X170126021Y-74559367D01*
X170154519Y-74615384D01*
X170166892Y-74637586D01*
X170167469Y-74637813D01*
X170183921Y-74629506D01*
X170222544Y-74603319D01*
X170284120Y-74558644D01*
X170369433Y-74494872D01*
X170479266Y-74411394D01*
X170614401Y-74307600D01*
X170775624Y-74182884D01*
X170963715Y-74036634D01*
X171179460Y-73868243D01*
X171423641Y-73677102D01*
X171697041Y-73462602D01*
X172000444Y-73224134D01*
X172334633Y-72961089D01*
X172700391Y-72672859D01*
X172737251Y-72643784D01*
X172902329Y-72643784D01*
X172931161Y-72711113D01*
X172937633Y-72725678D01*
X172961342Y-72778112D01*
X173000475Y-72864202D01*
X173053681Y-72980993D01*
X173119610Y-73125525D01*
X173196911Y-73294840D01*
X173284233Y-73485981D01*
X173380226Y-73695989D01*
X173483538Y-73921905D01*
X173592820Y-74160773D01*
X173706720Y-74409633D01*
X173784161Y-74578720D01*
X173894330Y-74818980D01*
X173998698Y-75046259D01*
X174095955Y-75257719D01*
X174184788Y-75450518D01*
X174263886Y-75621819D01*
X174331938Y-75768780D01*
X174387630Y-75888563D01*
X174429652Y-75978327D01*
X174456692Y-76035233D01*
X174467439Y-76056441D01*
X174470974Y-76056802D01*
X174491053Y-76034810D01*
X174522089Y-75985030D01*
X174558992Y-75915306D01*
X174636555Y-75758555D01*
X174329774Y-74046421D01*
X174305074Y-73908800D01*
X174258585Y-73651019D01*
X174214270Y-73406904D01*
X174172712Y-73179572D01*
X174134491Y-72972139D01*
X174100189Y-72787723D01*
X174070387Y-72629440D01*
X174045667Y-72500406D01*
X174026609Y-72403739D01*
X174013795Y-72342555D01*
X174007806Y-72319970D01*
X173995170Y-72314043D01*
X173946655Y-72301615D01*
X173872197Y-72287203D01*
X173781456Y-72272185D01*
X173684090Y-72257940D01*
X173589759Y-72245848D01*
X173508120Y-72237286D01*
X173448833Y-72233634D01*
X173421556Y-72236272D01*
X173414735Y-72241592D01*
X173378247Y-72270171D01*
X173317792Y-72317585D01*
X173239848Y-72378753D01*
X173150894Y-72448593D01*
X172902329Y-72643784D01*
X172737251Y-72643784D01*
X173098502Y-72358834D01*
X173164552Y-72305515D01*
X173224422Y-72254460D01*
X173263245Y-72218021D01*
X173274742Y-72201793D01*
X173271879Y-72200726D01*
X173236956Y-72193296D01*
X173166150Y-72180238D01*
X173063971Y-72162326D01*
X172934930Y-72140329D01*
X172783539Y-72115021D01*
X172614309Y-72087174D01*
X172431749Y-72057558D01*
X171598799Y-71923366D01*
X171418728Y-72036311D01*
X171371224Y-72066107D01*
X171288069Y-72118263D01*
X171177501Y-72187614D01*
X171043994Y-72271352D01*
X170892026Y-72366669D01*
X170726070Y-72470759D01*
X170550603Y-72580815D01*
X170370100Y-72694030D01*
X170356438Y-72702599D01*
X170184220Y-72810646D01*
X170023525Y-72911512D01*
X169877835Y-73003008D01*
X169750633Y-73082945D01*
X169645400Y-73149134D01*
X169565619Y-73199386D01*
X169514772Y-73231511D01*
X169496341Y-73243321D01*
X168806188Y-73243321D01*
X168694308Y-73224622D01*
X168669667Y-73220271D01*
X168539045Y-73197671D01*
X168421341Y-73178054D01*
X168323748Y-73162568D01*
X168253457Y-73152360D01*
X168217661Y-73148577D01*
X168199525Y-73151658D01*
X168143597Y-73165729D01*
X168055735Y-73189998D01*
X167940205Y-73223152D01*
X167801275Y-73263880D01*
X167643212Y-73310871D01*
X167470282Y-73362814D01*
X167286754Y-73418397D01*
X167096893Y-73476309D01*
X166904966Y-73535239D01*
X166715242Y-73593875D01*
X166531987Y-73650906D01*
X166359468Y-73705020D01*
X166201952Y-73754906D01*
X166063706Y-73799254D01*
X165948997Y-73836751D01*
X165862092Y-73866086D01*
X165807259Y-73885947D01*
X165788764Y-73895025D01*
X165354318Y-73895025D01*
X165498253Y-73852545D01*
X165728810Y-73784101D01*
X165964780Y-73713692D01*
X166202621Y-73642393D01*
X166438792Y-73571279D01*
X166669752Y-73501425D01*
X166891957Y-73433907D01*
X167101867Y-73369800D01*
X167295940Y-73310179D01*
X167470634Y-73256121D01*
X167622407Y-73208700D01*
X167747717Y-73168992D01*
X167843024Y-73138072D01*
X167904784Y-73117015D01*
X167929457Y-73106898D01*
X167925116Y-73101051D01*
X167888777Y-73088629D01*
X167824011Y-73073407D01*
X167738798Y-73057454D01*
X167695488Y-73050042D01*
X167609901Y-73035219D01*
X167488966Y-73014172D01*
X167336079Y-72987496D01*
X167154638Y-72955785D01*
X166948039Y-72919635D01*
X166719680Y-72879638D01*
X166472959Y-72836391D01*
X166211272Y-72790486D01*
X165938016Y-72742520D01*
X165656589Y-72693085D01*
X163781777Y-72363650D01*
X161721602Y-72687372D01*
X161567516Y-72711614D01*
X161283784Y-72756416D01*
X161013669Y-72799276D01*
X160759994Y-72839736D01*
X160525585Y-72877336D01*
X160313266Y-72911619D01*
X160125862Y-72942125D01*
X159966198Y-72968395D01*
X159837097Y-72989971D01*
X159741385Y-73006395D01*
X159681887Y-73017207D01*
X159661426Y-73021949D01*
X158941406Y-73021949D01*
X159076992Y-73000362D01*
X159230965Y-72975979D01*
X159369721Y-72954138D01*
X159484388Y-72936237D01*
X159566097Y-72923675D01*
X159574143Y-72922451D01*
X159634613Y-72913111D01*
X159732911Y-72897802D01*
X159865754Y-72877039D01*
X160029858Y-72851338D01*
X160221937Y-72821214D01*
X160438707Y-72787183D01*
X160676884Y-72749760D01*
X160933183Y-72709462D01*
X161204321Y-72666804D01*
X161487012Y-72622300D01*
X161777972Y-72576467D01*
X163778003Y-72261324D01*
X165940691Y-72639577D01*
X166175328Y-72680599D01*
X166465529Y-72731292D01*
X166742707Y-72779662D01*
X167003989Y-72825209D01*
X167246506Y-72867436D01*
X167467386Y-72905843D01*
X167663758Y-72939932D01*
X167832752Y-72969204D01*
X167971497Y-72993160D01*
X168077120Y-73011302D01*
X168146753Y-73023130D01*
X168177523Y-73028147D01*
X168179385Y-73028412D01*
X168225722Y-73036027D01*
X168305267Y-73050065D01*
X168410182Y-73069105D01*
X168532627Y-73091725D01*
X168613538Y-73106898D01*
X168664763Y-73116504D01*
X168713607Y-73125597D01*
X168928445Y-73161634D01*
X169104607Y-73183804D01*
X169243198Y-73192183D01*
X169345319Y-73186846D01*
X169412074Y-73167871D01*
X169433315Y-73155373D01*
X169488332Y-73121815D01*
X169573017Y-73069639D01*
X169684054Y-73000906D01*
X169818124Y-72917675D01*
X169971910Y-72822006D01*
X170142095Y-72715959D01*
X170325361Y-72601594D01*
X170518391Y-72480970D01*
X171577607Y-71818621D01*
X172838074Y-72020002D01*
X172841701Y-72020581D01*
X173067017Y-72056625D01*
X173279474Y-72090699D01*
X173475450Y-72122216D01*
X173651321Y-72150588D01*
X173803465Y-72175230D01*
X173928259Y-72195555D01*
X173966211Y-72201793D01*
G37*
D15*
%TO.C,LS1*%
X170000000Y-62400000D02*
X170000000Y-62400000D01*
X169900000Y-62400000D02*
X169900000Y-62400000D01*
D10*
X169000000Y-66900000D02*
X169000000Y-64400000D01*
X169000000Y-60400000D02*
X169000000Y-57900000D01*
X169000000Y-57900000D02*
X160000000Y-57900000D01*
X160000000Y-66900000D02*
X169000000Y-66900000D01*
X160000000Y-64400000D02*
X160000000Y-66900000D01*
X160000000Y-57900000D02*
X160000000Y-60400000D01*
D15*
X169900000Y-62400000D02*
G75*
G03*
X170000000Y-62400000I50000J0D01*
G01*
X170000000Y-62400000D02*
G75*
G03*
X169900000Y-62400000I-50000J0D01*
G01*
D14*
%TO.C,R5*%
X157367500Y-125983276D02*
X157367500Y-126492724D01*
X156322500Y-125983276D02*
X156322500Y-126492724D01*
%TD*%
M02*
