%TF.GenerationSoftware,KiCad,Pcbnew,9.0.5*%
%TF.CreationDate,2025-12-10T00:09:47-08:00*%
%TF.ProjectId,camcontrol stm32,63616d63-6f6e-4747-926f-6c2073746d33,rev?*%
%TF.SameCoordinates,Original*%
%TF.FileFunction,Copper,L2,Inr*%
%TF.FilePolarity,Positive*%
%FSLAX46Y46*%
G04 Gerber Fmt 4.6, Leading zero omitted, Abs format (unit mm)*
G04 Created by KiCad (PCBNEW 9.0.5) date 2025-12-10 00:09:47*
%MOMM*%
%LPD*%
G01*
G04 APERTURE LIST*
G04 Aperture macros list*
%AMRoundRect*
0 Rectangle with rounded corners*
0 $1 Rounding radius*
0 $2 $3 $4 $5 $6 $7 $8 $9 X,Y pos of 4 corners*
0 Add a 4 corners polygon primitive as box body*
4,1,4,$2,$3,$4,$5,$6,$7,$8,$9,$2,$3,0*
0 Add four circle primitives for the rounded corners*
1,1,$1+$1,$2,$3*
1,1,$1+$1,$4,$5*
1,1,$1+$1,$6,$7*
1,1,$1+$1,$8,$9*
0 Add four rect primitives between the rounded corners*
20,1,$1+$1,$2,$3,$4,$5,0*
20,1,$1+$1,$4,$5,$6,$7,0*
20,1,$1+$1,$6,$7,$8,$9,0*
20,1,$1+$1,$8,$9,$2,$3,0*%
G04 Aperture macros list end*
%TA.AperFunction,ComponentPad*%
%ADD10R,1.000000X1.000000*%
%TD*%
%TA.AperFunction,ComponentPad*%
%ADD11C,1.000000*%
%TD*%
%TA.AperFunction,ComponentPad*%
%ADD12RoundRect,0.200000X-0.450000X0.200000X-0.450000X-0.200000X0.450000X-0.200000X0.450000X0.200000X0*%
%TD*%
%TA.AperFunction,ComponentPad*%
%ADD13O,1.300000X0.800000*%
%TD*%
%TA.AperFunction,ComponentPad*%
%ADD14R,1.700000X1.700000*%
%TD*%
%TA.AperFunction,ComponentPad*%
%ADD15C,1.700000*%
%TD*%
%TA.AperFunction,ViaPad*%
%ADD16C,0.600000*%
%TD*%
G04 APERTURE END LIST*
D10*
%TO.N,/CAM1 RX*%
%TO.C,J5*%
X8331200Y-21590000D03*
D11*
%TO.N,/CAM1 TX*%
X9601200Y-21590000D03*
%TO.N,GND*%
X10871200Y-21590000D03*
%TO.N,/CAM2 RX*%
X12141200Y-21590000D03*
%TO.N,/CAM2 TX*%
X13411200Y-21590000D03*
%TO.N,GND*%
X14681200Y-21590000D03*
%TD*%
D12*
%TO.N,GND*%
%TO.C,J3*%
X1270000Y-7284400D03*
D13*
%TO.N,/PWR B*%
X1270000Y-8534400D03*
%TD*%
D12*
%TO.N,GND*%
%TO.C,J1*%
X1297200Y-1635600D03*
D13*
%TO.N,+12V*%
X1297200Y-2885600D03*
%TD*%
D12*
%TO.N,GND*%
%TO.C,J7*%
X1170200Y-19923600D03*
D13*
%TO.N,/PWR A*%
X1170200Y-21173600D03*
%TD*%
D12*
%TO.N,GND*%
%TO.C,J4*%
X1244600Y-14630400D03*
D13*
%TO.N,+12VA*%
X1244600Y-15880400D03*
%TD*%
D14*
%TO.N,GND*%
%TO.C,J2*%
X14478000Y-23799800D03*
D15*
%TO.N,+3V3*%
X11938000Y-23799800D03*
%TO.N,/CAM1 TX*%
X9398000Y-23799800D03*
%TO.N,/CAM1 RX*%
X6858000Y-23799800D03*
%TD*%
D16*
%TO.N,+3V3*%
X8077200Y-4013200D03*
%TO.N,GND*%
X4222636Y-7059804D03*
X7416800Y-812800D03*
X8686800Y-2082800D03*
X3733800Y-18511800D03*
X4876800Y-7162800D03*
X4876800Y-5892800D03*
X8686800Y-5892800D03*
X8051800Y-7797800D03*
X1193800Y-12750800D03*
X11226800Y-17200800D03*
X8051800Y-2717800D03*
X8686800Y-7162800D03*
X8686800Y-4622800D03*
X7670800Y-19423600D03*
X8686800Y-3352800D03*
X10462558Y-19209696D03*
X2187316Y-10472555D03*
X5511800Y-2717800D03*
X14909800Y-4114800D03*
X5511800Y-3987800D03*
X4557497Y-24738707D03*
X5896032Y-21390750D03*
X15213600Y-15341600D03*
X8266800Y-1242800D03*
X10083800Y-2463800D03*
X14524200Y-2794000D03*
X8051800Y-6527800D03*
X4876800Y-8432800D03*
X4876800Y-4622800D03*
X3268922Y-2445668D03*
X4876800Y-2082800D03*
X6781800Y-1447800D03*
X8051800Y-5257800D03*
X8686800Y-8432800D03*
X5266800Y-1242800D03*
X6146800Y-812800D03*
X7569200Y-11379200D03*
X13811055Y-10392965D03*
%TO.N,+3V3*%
X13045583Y-13619569D03*
X5266977Y-17925924D03*
X2844800Y-14020800D03*
X14656200Y-894000D03*
X12783306Y-11183770D03*
X11304521Y-17946430D03*
X3733800Y-24900000D03*
X7670800Y-18463600D03*
X3928351Y-10375111D03*
%TO.N,/VFBSMPS*%
X9218871Y-19111200D03*
X2691257Y-15608189D03*
%TO.N,Net-(D2-K)*%
X508000Y-10363200D03*
%TO.N,Net-(JP1-C)*%
X10911132Y-9083797D03*
%TO.N,/PWR B*%
X14630400Y-11836400D03*
%TO.N,/BOOTSEL*%
X7924800Y-8890000D03*
%TO.N,/PWR A*%
X2685600Y-22689000D03*
X5537200Y-24892000D03*
%TO.N,/LED INDICATION*%
X2387600Y-16560800D03*
%TO.N,/PWR A SENS*%
X4100326Y-22835235D03*
X14681200Y-16408400D03*
%TO.N,/PWRB EN*%
X11582400Y-9398000D03*
X1005600Y-3860800D03*
%TO.N,/CAM1 TX*%
X13514828Y-11113571D03*
%TO.N,/CAM1 RX*%
X12577454Y-12483770D03*
%TO.N,Net-(D1-K)*%
X1701800Y-24180800D03*
%TO.N,/PWR B SENS*%
X3911776Y-6146248D03*
X14579600Y-10769600D03*
%TO.N,/BATT SENSE B*%
X12377789Y-9533787D03*
X3098800Y-709200D03*
%TO.N,/RF CTRL*%
X4004249Y-3685509D03*
X5943600Y-18440400D03*
X508000Y-13411200D03*
%TD*%
%TA.AperFunction,Conductor*%
%TO.N,GND*%
G36*
X3418079Y16028D02*
G01*
X3451934Y13606D01*
X3452970Y12940D01*
X3453885Y12859D01*
X3457709Y9895D01*
X3496281Y-14895D01*
X3526286Y-44900D01*
X3640414Y-110792D01*
X3767708Y-144900D01*
X3767710Y-144900D01*
X3899490Y-144900D01*
X3899492Y-144900D01*
X4026786Y-110792D01*
X4051688Y-96414D01*
X4119587Y-79941D01*
X4185614Y-102792D01*
X4201370Y-116120D01*
X4255226Y-169976D01*
X4328918Y-200500D01*
X13835118Y-200500D01*
X13870933Y-200500D01*
X13879043Y-200765D01*
X14101790Y-215364D01*
X14117848Y-217479D01*
X14322132Y-258113D01*
X14384042Y-290498D01*
X14418616Y-351213D01*
X14414877Y-420983D01*
X14374011Y-477655D01*
X14359944Y-487115D01*
X14348889Y-493497D01*
X14348883Y-493502D01*
X14255702Y-586683D01*
X14255700Y-586686D01*
X14189808Y-700812D01*
X14182641Y-727561D01*
X14155700Y-828108D01*
X14155700Y-959892D01*
X14162182Y-984083D01*
X14189808Y-1087187D01*
X14202806Y-1109699D01*
X14255700Y-1201314D01*
X14348886Y-1294500D01*
X14463014Y-1360392D01*
X14590308Y-1394500D01*
X14590310Y-1394500D01*
X14722090Y-1394500D01*
X14722092Y-1394500D01*
X14849386Y-1360392D01*
X14963514Y-1294500D01*
X15056700Y-1201314D01*
X15122592Y-1087186D01*
X15138228Y-1028829D01*
X15147693Y-1013301D01*
X15152506Y-995757D01*
X15165501Y-984083D01*
X15174591Y-969171D01*
X15190951Y-961223D01*
X15204485Y-949067D01*
X15221727Y-946273D01*
X15237438Y-938641D01*
X15255500Y-940800D01*
X15273455Y-937891D01*
X15289469Y-944861D01*
X15306813Y-946935D01*
X15320839Y-958515D01*
X15337519Y-965776D01*
X15360155Y-990977D01*
X15360692Y-991420D01*
X15361104Y-992033D01*
X15428897Y-1093492D01*
X15437007Y-1107539D01*
X15533926Y-1304071D01*
X15540133Y-1319057D01*
X15610571Y-1526561D01*
X15614769Y-1542228D01*
X15657518Y-1757140D01*
X15659636Y-1773221D01*
X15674235Y-1995956D01*
X15674500Y-2004066D01*
X15674500Y-22708798D01*
X15654815Y-22775837D01*
X15602011Y-22821592D01*
X15532853Y-22831536D01*
X15481610Y-22811901D01*
X15406033Y-22761403D01*
X15406033Y-22761402D01*
X15347702Y-22749800D01*
X14728000Y-22749800D01*
X14728000Y-23366788D01*
X14670993Y-23333875D01*
X14543826Y-23299800D01*
X14412174Y-23299800D01*
X14285007Y-23333875D01*
X14228000Y-23366788D01*
X14228000Y-22749800D01*
X13608297Y-22749800D01*
X13549966Y-22761402D01*
X13549965Y-22761403D01*
X13483808Y-22805608D01*
X13439603Y-22871765D01*
X13439602Y-22871766D01*
X13428000Y-22930097D01*
X13428000Y-23549800D01*
X14044988Y-23549800D01*
X14012075Y-23606807D01*
X13978000Y-23733974D01*
X13978000Y-23865626D01*
X14012075Y-23992793D01*
X14044988Y-24049800D01*
X13428000Y-24049800D01*
X13428000Y-24669502D01*
X13439602Y-24727833D01*
X13439603Y-24727834D01*
X13483808Y-24793991D01*
X13549965Y-24838196D01*
X13549966Y-24838197D01*
X13608297Y-24849799D01*
X13608301Y-24849800D01*
X14228000Y-24849800D01*
X14228000Y-24232812D01*
X14285007Y-24265725D01*
X14412174Y-24299800D01*
X14543826Y-24299800D01*
X14670993Y-24265725D01*
X14728000Y-24232812D01*
X14728000Y-24849800D01*
X15347699Y-24849800D01*
X15347702Y-24849799D01*
X15406033Y-24838197D01*
X15406034Y-24838196D01*
X15481609Y-24787699D01*
X15548286Y-24766821D01*
X15615667Y-24785305D01*
X15662357Y-24837284D01*
X15674500Y-24890801D01*
X15674500Y-25158721D01*
X15654815Y-25225760D01*
X15602011Y-25271515D01*
X15532853Y-25281459D01*
X15518410Y-25278496D01*
X15431092Y-25255100D01*
X15299308Y-25255100D01*
X15172012Y-25289208D01*
X15057886Y-25355100D01*
X15057883Y-25355102D01*
X15027881Y-25385105D01*
X14966558Y-25418590D01*
X14896866Y-25413606D01*
X14852519Y-25385105D01*
X14822516Y-25355102D01*
X14822514Y-25355100D01*
X14738340Y-25306502D01*
X14708387Y-25289208D01*
X14642354Y-25271515D01*
X14581092Y-25255100D01*
X14449308Y-25255100D01*
X14322012Y-25289208D01*
X14207886Y-25355100D01*
X14207883Y-25355102D01*
X14177881Y-25385105D01*
X14116558Y-25418590D01*
X14046866Y-25413606D01*
X14002519Y-25385105D01*
X13972516Y-25355102D01*
X13972514Y-25355100D01*
X13888340Y-25306502D01*
X13858387Y-25289208D01*
X13792354Y-25271515D01*
X13731092Y-25255100D01*
X13599308Y-25255100D01*
X13472012Y-25289208D01*
X13357886Y-25355100D01*
X13357883Y-25355102D01*
X13327881Y-25385105D01*
X13266558Y-25418590D01*
X13196866Y-25413606D01*
X13152519Y-25385105D01*
X13122516Y-25355102D01*
X13122514Y-25355100D01*
X13038340Y-25306502D01*
X13008387Y-25289208D01*
X12942354Y-25271515D01*
X12881092Y-25255100D01*
X12749308Y-25255100D01*
X12622012Y-25289208D01*
X12507886Y-25355100D01*
X12507883Y-25355102D01*
X12477881Y-25385105D01*
X12416558Y-25418590D01*
X12346866Y-25413606D01*
X12302519Y-25385105D01*
X12272516Y-25355102D01*
X12272514Y-25355100D01*
X12188340Y-25306502D01*
X12158387Y-25289208D01*
X12092354Y-25271515D01*
X12031092Y-25255100D01*
X11899308Y-25255100D01*
X11772011Y-25289208D01*
X11731006Y-25312883D01*
X11663105Y-25329354D01*
X11597079Y-25306502D01*
X11581326Y-25293176D01*
X11518174Y-25230024D01*
X11444483Y-25199500D01*
X11444482Y-25199500D01*
X6134561Y-25199500D01*
X6067522Y-25179815D01*
X6021767Y-25127011D01*
X6011823Y-25057853D01*
X6014784Y-25043415D01*
X6037700Y-24957892D01*
X6037700Y-24826108D01*
X6021468Y-24765529D01*
X6023131Y-24695682D01*
X6062293Y-24637819D01*
X6126522Y-24610315D01*
X6195424Y-24621901D01*
X6210133Y-24630336D01*
X6360400Y-24730740D01*
X6360401Y-24730740D01*
X6360402Y-24730741D01*
X6551580Y-24809930D01*
X6689099Y-24837284D01*
X6754530Y-24850299D01*
X6754534Y-24850300D01*
X6754535Y-24850300D01*
X6961466Y-24850300D01*
X6961467Y-24850299D01*
X7164420Y-24809930D01*
X7355598Y-24730741D01*
X7527655Y-24615777D01*
X7673977Y-24469455D01*
X7788941Y-24297398D01*
X7868130Y-24106220D01*
X7908500Y-23903265D01*
X7908500Y-23696335D01*
X7908499Y-23696330D01*
X8347500Y-23696330D01*
X8347500Y-23903269D01*
X8387868Y-24106212D01*
X8387870Y-24106220D01*
X8465013Y-24292460D01*
X8467059Y-24297398D01*
X8500287Y-24347128D01*
X8582024Y-24469457D01*
X8728342Y-24615775D01*
X8728345Y-24615777D01*
X8900402Y-24730741D01*
X9091580Y-24809930D01*
X9229099Y-24837284D01*
X9294530Y-24850299D01*
X9294534Y-24850300D01*
X9294535Y-24850300D01*
X9501466Y-24850300D01*
X9501467Y-24850299D01*
X9704420Y-24809930D01*
X9895598Y-24730741D01*
X10067655Y-24615777D01*
X10213977Y-24469455D01*
X10328941Y-24297398D01*
X10408130Y-24106220D01*
X10448500Y-23903265D01*
X10448500Y-23696335D01*
X10448499Y-23696330D01*
X10887500Y-23696330D01*
X10887500Y-23903269D01*
X10927868Y-24106212D01*
X10927870Y-24106220D01*
X11005013Y-24292460D01*
X11007059Y-24297398D01*
X11040287Y-24347128D01*
X11122024Y-24469457D01*
X11268342Y-24615775D01*
X11268345Y-24615777D01*
X11440402Y-24730741D01*
X11631580Y-24809930D01*
X11769099Y-24837284D01*
X11834530Y-24850299D01*
X11834534Y-24850300D01*
X11834535Y-24850300D01*
X12041466Y-24850300D01*
X12041467Y-24850299D01*
X12244420Y-24809930D01*
X12435598Y-24730741D01*
X12607655Y-24615777D01*
X12753977Y-24469455D01*
X12868941Y-24297398D01*
X12948130Y-24106220D01*
X12988500Y-23903265D01*
X12988500Y-23696335D01*
X12948130Y-23493380D01*
X12868941Y-23302202D01*
X12753977Y-23130145D01*
X12753975Y-23130142D01*
X12607657Y-22983824D01*
X12455543Y-22882186D01*
X12435598Y-22868859D01*
X12244420Y-22789670D01*
X12244412Y-22789668D01*
X12041469Y-22749300D01*
X12041465Y-22749300D01*
X11834535Y-22749300D01*
X11834530Y-22749300D01*
X11631587Y-22789668D01*
X11631579Y-22789670D01*
X11440403Y-22868858D01*
X11268342Y-22983824D01*
X11122024Y-23130142D01*
X11007058Y-23302203D01*
X10927870Y-23493379D01*
X10927868Y-23493387D01*
X10887500Y-23696330D01*
X10448499Y-23696330D01*
X10408130Y-23493380D01*
X10328941Y-23302202D01*
X10213977Y-23130145D01*
X10213975Y-23130142D01*
X10067657Y-22983824D01*
X9915543Y-22882186D01*
X9895598Y-22868859D01*
X9704420Y-22789670D01*
X9704412Y-22789668D01*
X9501469Y-22749300D01*
X9501465Y-22749300D01*
X9294535Y-22749300D01*
X9294530Y-22749300D01*
X9091587Y-22789668D01*
X9091579Y-22789670D01*
X8900403Y-22868858D01*
X8728342Y-22983824D01*
X8582024Y-23130142D01*
X8467058Y-23302203D01*
X8387870Y-23493379D01*
X8387868Y-23493387D01*
X8347500Y-23696330D01*
X7908499Y-23696330D01*
X7868130Y-23493380D01*
X7788941Y-23302202D01*
X7673977Y-23130145D01*
X7673975Y-23130142D01*
X7527657Y-22983824D01*
X7375543Y-22882186D01*
X7355598Y-22868859D01*
X7164420Y-22789670D01*
X7164412Y-22789668D01*
X6961469Y-22749300D01*
X6961465Y-22749300D01*
X6754535Y-22749300D01*
X6754530Y-22749300D01*
X6551587Y-22789668D01*
X6551579Y-22789670D01*
X6360403Y-22868858D01*
X6188342Y-22983824D01*
X6042024Y-23130142D01*
X5927058Y-23302203D01*
X5847870Y-23493379D01*
X5847868Y-23493387D01*
X5807500Y-23696330D01*
X5807500Y-23903269D01*
X5847868Y-24106212D01*
X5847870Y-24106220D01*
X5918882Y-24277658D01*
X5926351Y-24347128D01*
X5895076Y-24409607D01*
X5834987Y-24445259D01*
X5765162Y-24442765D01*
X5742321Y-24432498D01*
X5730389Y-24425609D01*
X5730386Y-24425608D01*
X5603092Y-24391500D01*
X5471308Y-24391500D01*
X5344012Y-24425608D01*
X5229886Y-24491500D01*
X5229883Y-24491502D01*
X5136702Y-24584683D01*
X5136700Y-24584686D01*
X5070808Y-24698812D01*
X5045306Y-24793991D01*
X5036700Y-24826108D01*
X5036700Y-24957892D01*
X5059613Y-25043408D01*
X5057951Y-25113256D01*
X5018789Y-25171119D01*
X4954560Y-25198623D01*
X4939839Y-25199500D01*
X4333305Y-25199500D01*
X4266266Y-25179815D01*
X4220511Y-25127011D01*
X4210567Y-25057853D01*
X4213530Y-25043407D01*
X4234300Y-24965892D01*
X4234300Y-24834108D01*
X4200192Y-24706814D01*
X4134300Y-24592686D01*
X4041114Y-24499500D01*
X3984050Y-24466554D01*
X3926987Y-24433608D01*
X3837412Y-24409607D01*
X3799692Y-24399500D01*
X3667908Y-24399500D01*
X3540612Y-24433608D01*
X3426486Y-24499500D01*
X3426483Y-24499502D01*
X3333302Y-24592683D01*
X3333300Y-24592686D01*
X3267408Y-24706812D01*
X3233300Y-24834108D01*
X3233300Y-24965891D01*
X3254070Y-25043407D01*
X3252407Y-25113257D01*
X3213244Y-25171119D01*
X3149016Y-25198623D01*
X3134295Y-25199500D01*
X2004067Y-25199500D01*
X1995957Y-25199235D01*
X1773221Y-25184636D01*
X1757140Y-25182518D01*
X1542228Y-25139769D01*
X1526561Y-25135571D01*
X1319057Y-25065133D01*
X1304071Y-25058926D01*
X1107539Y-24962007D01*
X1093492Y-24953897D01*
X920335Y-24838197D01*
X911290Y-24832153D01*
X898423Y-24822280D01*
X884340Y-24809930D01*
X794041Y-24730740D01*
X733671Y-24677797D01*
X722202Y-24666328D01*
X647632Y-24581297D01*
X577716Y-24501573D01*
X567845Y-24488708D01*
X567449Y-24488116D01*
X446102Y-24306507D01*
X437992Y-24292460D01*
X392346Y-24199899D01*
X350433Y-24114908D01*
X1201300Y-24114908D01*
X1201300Y-24246691D01*
X1235408Y-24373987D01*
X1255974Y-24409607D01*
X1301300Y-24488114D01*
X1394486Y-24581300D01*
X1508614Y-24647192D01*
X1635908Y-24681300D01*
X1635910Y-24681300D01*
X1767690Y-24681300D01*
X1767692Y-24681300D01*
X1894986Y-24647192D01*
X2009114Y-24581300D01*
X2102300Y-24488114D01*
X2168192Y-24373986D01*
X2202300Y-24246692D01*
X2202300Y-24114908D01*
X2168192Y-23987614D01*
X2102300Y-23873486D01*
X2009114Y-23780300D01*
X1952050Y-23747354D01*
X1894987Y-23714408D01*
X1827517Y-23696330D01*
X1767692Y-23680300D01*
X1635908Y-23680300D01*
X1508612Y-23714408D01*
X1394486Y-23780300D01*
X1394483Y-23780302D01*
X1301302Y-23873483D01*
X1301300Y-23873486D01*
X1235408Y-23987612D01*
X1201300Y-24114908D01*
X350433Y-24114908D01*
X341070Y-24095921D01*
X334866Y-24080942D01*
X264428Y-23873438D01*
X260230Y-23857771D01*
X248217Y-23797376D01*
X217479Y-23642848D01*
X215364Y-23626790D01*
X200765Y-23404043D01*
X200500Y-23395933D01*
X200500Y-22623108D01*
X2185100Y-22623108D01*
X2185100Y-22754892D01*
X2186845Y-22761403D01*
X2219208Y-22882187D01*
X2246869Y-22930097D01*
X2285100Y-22996314D01*
X2378286Y-23089500D01*
X2492414Y-23155392D01*
X2619708Y-23189500D01*
X2619710Y-23189500D01*
X2751490Y-23189500D01*
X2751492Y-23189500D01*
X2878786Y-23155392D01*
X2992914Y-23089500D01*
X3086100Y-22996314D01*
X3151992Y-22882186D01*
X3182228Y-22769343D01*
X3599826Y-22769343D01*
X3599826Y-22901127D01*
X3616880Y-22964774D01*
X3633934Y-23028422D01*
X3666880Y-23085485D01*
X3699826Y-23142549D01*
X3793012Y-23235735D01*
X3891847Y-23292798D01*
X3903975Y-23299800D01*
X3907140Y-23301627D01*
X4034434Y-23335735D01*
X4034436Y-23335735D01*
X4166216Y-23335735D01*
X4166218Y-23335735D01*
X4293512Y-23301627D01*
X4407640Y-23235735D01*
X4500826Y-23142549D01*
X4566718Y-23028421D01*
X4600826Y-22901127D01*
X4600826Y-22769343D01*
X4566718Y-22642049D01*
X4500826Y-22527921D01*
X4407640Y-22434735D01*
X4315757Y-22381686D01*
X4293513Y-22368843D01*
X4229865Y-22351789D01*
X4166218Y-22334735D01*
X4034434Y-22334735D01*
X3907138Y-22368843D01*
X3793012Y-22434735D01*
X3793009Y-22434737D01*
X3699828Y-22527918D01*
X3699826Y-22527921D01*
X3633934Y-22642047D01*
X3616049Y-22708798D01*
X3599826Y-22769343D01*
X3182228Y-22769343D01*
X3186100Y-22754892D01*
X3186100Y-22623108D01*
X3151992Y-22495814D01*
X3086100Y-22381686D01*
X2992914Y-22288500D01*
X2899474Y-22234552D01*
X2878787Y-22222608D01*
X2815139Y-22205554D01*
X2751492Y-22188500D01*
X2619708Y-22188500D01*
X2492412Y-22222608D01*
X2378286Y-22288500D01*
X2378283Y-22288502D01*
X2285102Y-22381683D01*
X2285100Y-22381686D01*
X2219208Y-22495812D01*
X2210605Y-22527921D01*
X2185100Y-22623108D01*
X200500Y-22623108D01*
X200500Y-21590818D01*
X220185Y-21523779D01*
X272989Y-21478024D01*
X342147Y-21468080D01*
X405703Y-21497105D01*
X431888Y-21528820D01*
X439677Y-21542312D01*
X439679Y-21542315D01*
X439680Y-21542316D01*
X551484Y-21654120D01*
X551486Y-21654121D01*
X551490Y-21654124D01*
X657703Y-21715445D01*
X688416Y-21733177D01*
X841143Y-21774100D01*
X841145Y-21774100D01*
X1499255Y-21774100D01*
X1499257Y-21774100D01*
X1651984Y-21733177D01*
X1788916Y-21654120D01*
X1900720Y-21542316D01*
X1979777Y-21405384D01*
X2020700Y-21252657D01*
X2020700Y-21094543D01*
X2014190Y-21070247D01*
X7630700Y-21070247D01*
X7630700Y-22109752D01*
X7642331Y-22168229D01*
X7642332Y-22168230D01*
X7686647Y-22234552D01*
X7752969Y-22278867D01*
X7752970Y-22278868D01*
X7811447Y-22290499D01*
X7811450Y-22290500D01*
X7811452Y-22290500D01*
X8850950Y-22290500D01*
X8850951Y-22290499D01*
X8865768Y-22287552D01*
X8909429Y-22278868D01*
X8909429Y-22278867D01*
X8909431Y-22278867D01*
X8975752Y-22234552D01*
X9008479Y-22185573D01*
X9062089Y-22140769D01*
X9131413Y-22132060D01*
X9180471Y-22151362D01*
X9269382Y-22210771D01*
X9269395Y-22210778D01*
X9395711Y-22263099D01*
X9396872Y-22263580D01*
X9396876Y-22263580D01*
X9396877Y-22263581D01*
X9532204Y-22290500D01*
X9532207Y-22290500D01*
X9670195Y-22290500D01*
X9761241Y-22272389D01*
X9805528Y-22263580D01*
X9888268Y-22229308D01*
X10585443Y-22229308D01*
X10667021Y-22263099D01*
X10667023Y-22263100D01*
X10802253Y-22290000D01*
X10940146Y-22290000D01*
X11075376Y-22263100D01*
X11075390Y-22263096D01*
X11156956Y-22229309D01*
X11156956Y-22229308D01*
X10871201Y-21943553D01*
X10871200Y-21943553D01*
X10585443Y-22229308D01*
X9888268Y-22229308D01*
X9933011Y-22210775D01*
X10047742Y-22134114D01*
X10049796Y-22132060D01*
X10081044Y-22100813D01*
X10145311Y-22036545D01*
X10145314Y-22036542D01*
X10221975Y-21921811D01*
X10238092Y-21882899D01*
X10264970Y-21842674D01*
X10517646Y-21589999D01*
X10474860Y-21547213D01*
X10546200Y-21547213D01*
X10546200Y-21632787D01*
X10568349Y-21715445D01*
X10611136Y-21789554D01*
X10671646Y-21850064D01*
X10745755Y-21892851D01*
X10828413Y-21915000D01*
X10913987Y-21915000D01*
X10996645Y-21892851D01*
X11070754Y-21850064D01*
X11131264Y-21789554D01*
X11174051Y-21715445D01*
X11196200Y-21632787D01*
X11196200Y-21590000D01*
X11224753Y-21590000D01*
X11477428Y-21842675D01*
X11504308Y-21882902D01*
X11520425Y-21921812D01*
X11520426Y-21921813D01*
X11597082Y-22036537D01*
X11597088Y-22036545D01*
X11694654Y-22134111D01*
X11694658Y-22134114D01*
X11809382Y-22210771D01*
X11809395Y-22210778D01*
X11935711Y-22263099D01*
X11936872Y-22263580D01*
X11936876Y-22263580D01*
X11936877Y-22263581D01*
X12072204Y-22290500D01*
X12072207Y-22290500D01*
X12210195Y-22290500D01*
X12301241Y-22272389D01*
X12345528Y-22263580D01*
X12473011Y-22210775D01*
X12587742Y-22134114D01*
X12621043Y-22100813D01*
X12688519Y-22033338D01*
X12749842Y-21999853D01*
X12819534Y-22004837D01*
X12863881Y-22033338D01*
X12964654Y-22134111D01*
X12964658Y-22134114D01*
X13079382Y-22210771D01*
X13079395Y-22210778D01*
X13205711Y-22263099D01*
X13206872Y-22263580D01*
X13206876Y-22263580D01*
X13206877Y-22263581D01*
X13342204Y-22290500D01*
X13342207Y-22290500D01*
X13480195Y-22290500D01*
X13571241Y-22272389D01*
X13615528Y-22263580D01*
X13698268Y-22229308D01*
X14395443Y-22229308D01*
X14477021Y-22263099D01*
X14477023Y-22263100D01*
X14612253Y-22290000D01*
X14750146Y-22290000D01*
X14885376Y-22263100D01*
X14885390Y-22263096D01*
X14966956Y-22229309D01*
X14966956Y-22229308D01*
X14681201Y-21943553D01*
X14681200Y-21943553D01*
X14395443Y-22229308D01*
X13698268Y-22229308D01*
X13743011Y-22210775D01*
X13857742Y-22134114D01*
X13859796Y-22132060D01*
X13891044Y-22100813D01*
X13955311Y-22036545D01*
X13955314Y-22036542D01*
X14031975Y-21921811D01*
X14048092Y-21882899D01*
X14074970Y-21842674D01*
X14327646Y-21589999D01*
X14284860Y-21547213D01*
X14356200Y-21547213D01*
X14356200Y-21632787D01*
X14378349Y-21715445D01*
X14421136Y-21789554D01*
X14481646Y-21850064D01*
X14555755Y-21892851D01*
X14638413Y-21915000D01*
X14723987Y-21915000D01*
X14806645Y-21892851D01*
X14880754Y-21850064D01*
X14941264Y-21789554D01*
X14984051Y-21715445D01*
X15006200Y-21632787D01*
X15006200Y-21589999D01*
X15034753Y-21589999D01*
X15034753Y-21590001D01*
X15320508Y-21875756D01*
X15320509Y-21875756D01*
X15354296Y-21794190D01*
X15354300Y-21794176D01*
X15381200Y-21658946D01*
X15381200Y-21521053D01*
X15354300Y-21385823D01*
X15354299Y-21385821D01*
X15320508Y-21304243D01*
X15034753Y-21589999D01*
X15006200Y-21589999D01*
X15006200Y-21547213D01*
X14984051Y-21464555D01*
X14941264Y-21390446D01*
X14880754Y-21329936D01*
X14806645Y-21287149D01*
X14723987Y-21265000D01*
X14638413Y-21265000D01*
X14555755Y-21287149D01*
X14481646Y-21329936D01*
X14421136Y-21390446D01*
X14378349Y-21464555D01*
X14356200Y-21547213D01*
X14284860Y-21547213D01*
X14074970Y-21337323D01*
X14048090Y-21297094D01*
X14031975Y-21258189D01*
X14031971Y-21258182D01*
X13955314Y-21143458D01*
X13955311Y-21143454D01*
X13857745Y-21045888D01*
X13857741Y-21045885D01*
X13743017Y-20969228D01*
X13743004Y-20969221D01*
X13698266Y-20950690D01*
X14395442Y-20950690D01*
X14681200Y-21236446D01*
X14681201Y-21236446D01*
X14966956Y-20950690D01*
X14885382Y-20916901D01*
X14885376Y-20916899D01*
X14750146Y-20890000D01*
X14612254Y-20890000D01*
X14477024Y-20916899D01*
X14477016Y-20916901D01*
X14395442Y-20950690D01*
X13698266Y-20950690D01*
X13615532Y-20916421D01*
X13615522Y-20916418D01*
X13480195Y-20889500D01*
X13480193Y-20889500D01*
X13342207Y-20889500D01*
X13342205Y-20889500D01*
X13206877Y-20916418D01*
X13206867Y-20916421D01*
X13079395Y-20969221D01*
X13079382Y-20969228D01*
X12964658Y-21045885D01*
X12964654Y-21045888D01*
X12863881Y-21146662D01*
X12802558Y-21180147D01*
X12732866Y-21175163D01*
X12688519Y-21146662D01*
X12587745Y-21045888D01*
X12587741Y-21045885D01*
X12473017Y-20969228D01*
X12473004Y-20969221D01*
X12345532Y-20916421D01*
X12345522Y-20916418D01*
X12210195Y-20889500D01*
X12210193Y-20889500D01*
X12072207Y-20889500D01*
X12072205Y-20889500D01*
X11936877Y-20916418D01*
X11936867Y-20916421D01*
X11809395Y-20969221D01*
X11809382Y-20969228D01*
X11694658Y-21045885D01*
X11694654Y-21045888D01*
X11597088Y-21143454D01*
X11597082Y-21143462D01*
X11520426Y-21258185D01*
X11504308Y-21297097D01*
X11477430Y-21337322D01*
X11224753Y-21590000D01*
X11196200Y-21590000D01*
X11196200Y-21547213D01*
X11174051Y-21464555D01*
X11131264Y-21390446D01*
X11070754Y-21329936D01*
X10996645Y-21287149D01*
X10913987Y-21265000D01*
X10828413Y-21265000D01*
X10745755Y-21287149D01*
X10671646Y-21329936D01*
X10611136Y-21390446D01*
X10568349Y-21464555D01*
X10546200Y-21547213D01*
X10474860Y-21547213D01*
X10264970Y-21337323D01*
X10238090Y-21297094D01*
X10221975Y-21258189D01*
X10221971Y-21258182D01*
X10145314Y-21143458D01*
X10145311Y-21143454D01*
X10047745Y-21045888D01*
X10047741Y-21045885D01*
X9933017Y-20969228D01*
X9933004Y-20969221D01*
X9888266Y-20950690D01*
X10585442Y-20950690D01*
X10871200Y-21236446D01*
X10871201Y-21236446D01*
X11156956Y-20950690D01*
X11075382Y-20916901D01*
X11075376Y-20916899D01*
X10940146Y-20890000D01*
X10802254Y-20890000D01*
X10667024Y-20916899D01*
X10667016Y-20916901D01*
X10585442Y-20950690D01*
X9888266Y-20950690D01*
X9805532Y-20916421D01*
X9805522Y-20916418D01*
X9670195Y-20889500D01*
X9670193Y-20889500D01*
X9532207Y-20889500D01*
X9532205Y-20889500D01*
X9396877Y-20916418D01*
X9396867Y-20916421D01*
X9269395Y-20969221D01*
X9269377Y-20969231D01*
X9180470Y-21028637D01*
X9113793Y-21049515D01*
X9046413Y-21031030D01*
X9008479Y-20994427D01*
X8975752Y-20945448D01*
X8970317Y-20941816D01*
X8909430Y-20901132D01*
X8909429Y-20901131D01*
X8850952Y-20889500D01*
X8850948Y-20889500D01*
X7811452Y-20889500D01*
X7811447Y-20889500D01*
X7752970Y-20901131D01*
X7752969Y-20901132D01*
X7686647Y-20945447D01*
X7642332Y-21011769D01*
X7642331Y-21011770D01*
X7630700Y-21070247D01*
X2014190Y-21070247D01*
X1979777Y-20941816D01*
X1979773Y-20941809D01*
X1900724Y-20804890D01*
X1900718Y-20804882D01*
X1788915Y-20693079D01*
X1783091Y-20688610D01*
X1741890Y-20632181D01*
X1737738Y-20562435D01*
X1771952Y-20501516D01*
X1802287Y-20479752D01*
X1858244Y-20451241D01*
X1858250Y-20451236D01*
X1947836Y-20361650D01*
X1947839Y-20361646D01*
X2005366Y-20248744D01*
X2017268Y-20173600D01*
X1294200Y-20173600D01*
X1250738Y-20160838D01*
X1311814Y-20135540D01*
X1382140Y-20065214D01*
X1420200Y-19973328D01*
X1420200Y-19873872D01*
X1382140Y-19781986D01*
X1311814Y-19711660D01*
X1219928Y-19673600D01*
X1420200Y-19673600D01*
X2017265Y-19673600D01*
X2005364Y-19598450D01*
X2005362Y-19598444D01*
X1947843Y-19485558D01*
X1947836Y-19485549D01*
X1858250Y-19395963D01*
X1858246Y-19395960D01*
X1745344Y-19338433D01*
X1651686Y-19323600D01*
X1420200Y-19323600D01*
X1420200Y-19673600D01*
X1219928Y-19673600D01*
X1120472Y-19673600D01*
X1028586Y-19711660D01*
X958260Y-19781986D01*
X930793Y-19848296D01*
X920200Y-19799600D01*
X920200Y-19323600D01*
X688720Y-19323600D01*
X595049Y-19338435D01*
X595044Y-19338437D01*
X482158Y-19395956D01*
X482149Y-19395963D01*
X412181Y-19465932D01*
X350858Y-19499417D01*
X281166Y-19494433D01*
X225233Y-19452561D01*
X200816Y-19387097D01*
X200500Y-19378251D01*
X200500Y-19045308D01*
X8718371Y-19045308D01*
X8718371Y-19177091D01*
X8752479Y-19304387D01*
X8763572Y-19323600D01*
X8818371Y-19418514D01*
X8911557Y-19511700D01*
X9025685Y-19577592D01*
X9152979Y-19611700D01*
X9152981Y-19611700D01*
X9284761Y-19611700D01*
X9284763Y-19611700D01*
X9412057Y-19577592D01*
X9526185Y-19511700D01*
X9619371Y-19418514D01*
X9685263Y-19304386D01*
X9719371Y-19177092D01*
X9719371Y-19045308D01*
X9685263Y-18918014D01*
X9619371Y-18803886D01*
X9526185Y-18710700D01*
X9469121Y-18677754D01*
X9412058Y-18644808D01*
X9348410Y-18627754D01*
X9284763Y-18610700D01*
X9152979Y-18610700D01*
X9025683Y-18644808D01*
X8911557Y-18710700D01*
X8911554Y-18710702D01*
X8818373Y-18803883D01*
X8818371Y-18803886D01*
X8752479Y-18918012D01*
X8718371Y-19045308D01*
X200500Y-19045308D01*
X200500Y-17860032D01*
X4766477Y-17860032D01*
X4766477Y-17991816D01*
X4783531Y-18055463D01*
X4800585Y-18119111D01*
X4833531Y-18176174D01*
X4866477Y-18233238D01*
X4959663Y-18326424D01*
X5073791Y-18392316D01*
X5201085Y-18426424D01*
X5201087Y-18426424D01*
X5326551Y-18426424D01*
X5393590Y-18446109D01*
X5439345Y-18498913D01*
X5446325Y-18518328D01*
X5459153Y-18566203D01*
X5477208Y-18633587D01*
X5490603Y-18656787D01*
X5543100Y-18747714D01*
X5636286Y-18840900D01*
X5750414Y-18906792D01*
X5877708Y-18940900D01*
X5877710Y-18940900D01*
X6009490Y-18940900D01*
X6009492Y-18940900D01*
X6136786Y-18906792D01*
X6250914Y-18840900D01*
X6344100Y-18747714D01*
X6409992Y-18633586D01*
X6444100Y-18506292D01*
X6444100Y-18397708D01*
X7170300Y-18397708D01*
X7170300Y-18529491D01*
X7204408Y-18656787D01*
X7235535Y-18710700D01*
X7270300Y-18770914D01*
X7363486Y-18864100D01*
X7437429Y-18906791D01*
X7477610Y-18929990D01*
X7477614Y-18929992D01*
X7604908Y-18964100D01*
X7604910Y-18964100D01*
X7736690Y-18964100D01*
X7736692Y-18964100D01*
X7863986Y-18929992D01*
X7978114Y-18864100D01*
X8071300Y-18770914D01*
X8137192Y-18656786D01*
X8171300Y-18529492D01*
X8171300Y-18397708D01*
X8137192Y-18270414D01*
X8071300Y-18156286D01*
X7978114Y-18063100D01*
X7921050Y-18030154D01*
X7863987Y-17997208D01*
X7856374Y-17995168D01*
X7736692Y-17963100D01*
X7604908Y-17963100D01*
X7477612Y-17997208D01*
X7363486Y-18063100D01*
X7363483Y-18063102D01*
X7270302Y-18156283D01*
X7270300Y-18156286D01*
X7204408Y-18270412D01*
X7170300Y-18397708D01*
X6444100Y-18397708D01*
X6444100Y-18374508D01*
X6409992Y-18247214D01*
X6344100Y-18133086D01*
X6250914Y-18039900D01*
X6193850Y-18006954D01*
X6136787Y-17974008D01*
X6073139Y-17956954D01*
X6009492Y-17939900D01*
X5884026Y-17939900D01*
X5816987Y-17920215D01*
X5782607Y-17880538D01*
X10804021Y-17880538D01*
X10804021Y-18012322D01*
X10811411Y-18039902D01*
X10838129Y-18139617D01*
X10847753Y-18156286D01*
X10904021Y-18253744D01*
X10997207Y-18346930D01*
X11111335Y-18412822D01*
X11238629Y-18446930D01*
X11238631Y-18446930D01*
X11370411Y-18446930D01*
X11370413Y-18446930D01*
X11497707Y-18412822D01*
X11611835Y-18346930D01*
X11705021Y-18253744D01*
X11770913Y-18139616D01*
X11805021Y-18012322D01*
X11805021Y-17880538D01*
X11770913Y-17753244D01*
X11705021Y-17639116D01*
X11611835Y-17545930D01*
X11554771Y-17512984D01*
X11497708Y-17480038D01*
X11421177Y-17459532D01*
X11370413Y-17445930D01*
X11238629Y-17445930D01*
X11111333Y-17480038D01*
X10997207Y-17545930D01*
X10997204Y-17545932D01*
X10904023Y-17639113D01*
X10904021Y-17639116D01*
X10838129Y-17753242D01*
X10807538Y-17867411D01*
X10804021Y-17880538D01*
X5782607Y-17880538D01*
X5771232Y-17867411D01*
X5764251Y-17847993D01*
X5733369Y-17732738D01*
X5667477Y-17618610D01*
X5574291Y-17525424D01*
X5517227Y-17492478D01*
X5460164Y-17459532D01*
X5396516Y-17442478D01*
X5332869Y-17425424D01*
X5201085Y-17425424D01*
X5073789Y-17459532D01*
X4959663Y-17525424D01*
X4959660Y-17525426D01*
X4866479Y-17618607D01*
X4866477Y-17618610D01*
X4800585Y-17732736D01*
X4795091Y-17753242D01*
X4766477Y-17860032D01*
X200500Y-17860032D01*
X200500Y-16168752D01*
X220185Y-16101713D01*
X272989Y-16055958D01*
X342147Y-16046014D01*
X405703Y-16075039D01*
X431888Y-16106753D01*
X435022Y-16112182D01*
X435023Y-16112184D01*
X514080Y-16249116D01*
X625884Y-16360920D01*
X625886Y-16360921D01*
X625890Y-16360924D01*
X760668Y-16438737D01*
X762816Y-16439977D01*
X915543Y-16480900D01*
X915545Y-16480900D01*
X1573654Y-16480900D01*
X1573657Y-16480900D01*
X1726384Y-16439977D01*
X1726388Y-16439974D01*
X1731006Y-16438737D01*
X1800856Y-16440400D01*
X1858718Y-16479562D01*
X1886223Y-16543790D01*
X1887100Y-16558512D01*
X1887100Y-16626691D01*
X1921208Y-16753987D01*
X1952911Y-16808897D01*
X1987100Y-16868114D01*
X2080286Y-16961300D01*
X2194414Y-17027192D01*
X2321708Y-17061300D01*
X2321710Y-17061300D01*
X2453490Y-17061300D01*
X2453492Y-17061300D01*
X2580786Y-17027192D01*
X2694914Y-16961300D01*
X2788100Y-16868114D01*
X2853992Y-16753986D01*
X2888100Y-16626692D01*
X2888100Y-16494908D01*
X2853992Y-16367614D01*
X2839497Y-16342508D01*
X14180700Y-16342508D01*
X14180700Y-16474292D01*
X14182471Y-16480900D01*
X14214808Y-16601587D01*
X14229302Y-16626690D01*
X14280700Y-16715714D01*
X14373886Y-16808900D01*
X14488014Y-16874792D01*
X14615308Y-16908900D01*
X14615310Y-16908900D01*
X14747090Y-16908900D01*
X14747092Y-16908900D01*
X14874386Y-16874792D01*
X14988514Y-16808900D01*
X15081700Y-16715714D01*
X15147592Y-16601586D01*
X15181700Y-16474292D01*
X15181700Y-16342508D01*
X15147592Y-16215214D01*
X15081700Y-16101086D01*
X14988514Y-16007900D01*
X14931450Y-15974954D01*
X14874387Y-15942008D01*
X14810739Y-15924954D01*
X14747092Y-15907900D01*
X14615308Y-15907900D01*
X14488012Y-15942008D01*
X14373886Y-16007900D01*
X14373883Y-16007902D01*
X14280702Y-16101083D01*
X14280700Y-16101086D01*
X14214808Y-16215212D01*
X14204553Y-16253486D01*
X14180700Y-16342508D01*
X2839497Y-16342508D01*
X2791546Y-16259455D01*
X2790813Y-16258107D01*
X2783761Y-16225437D01*
X2775881Y-16192956D01*
X2776416Y-16191409D01*
X2776071Y-16189810D01*
X2787799Y-16158519D01*
X2798733Y-16126929D01*
X2800019Y-16125917D01*
X2800594Y-16124385D01*
X2827383Y-16104397D01*
X2853654Y-16083738D01*
X2856217Y-16082884D01*
X2856594Y-16082604D01*
X2857185Y-16082562D01*
X2867630Y-16079085D01*
X2884443Y-16074581D01*
X2998571Y-16008689D01*
X3091757Y-15915503D01*
X3157649Y-15801375D01*
X3191757Y-15674081D01*
X3191757Y-15542297D01*
X3157649Y-15415003D01*
X3091757Y-15300875D01*
X2998571Y-15207689D01*
X2941507Y-15174743D01*
X2884444Y-15141797D01*
X2820796Y-15124743D01*
X2757149Y-15107689D01*
X2625365Y-15107689D01*
X2498069Y-15141797D01*
X2383943Y-15207689D01*
X2383940Y-15207691D01*
X2290759Y-15300872D01*
X2290757Y-15300875D01*
X2224866Y-15415001D01*
X2205486Y-15487327D01*
X2169120Y-15546987D01*
X2106273Y-15577516D01*
X2036898Y-15569221D01*
X1996502Y-15541360D01*
X1985932Y-15530412D01*
X1975120Y-15511684D01*
X1863316Y-15399880D01*
X1855621Y-15395437D01*
X1843772Y-15383164D01*
X1831673Y-15360050D01*
X1816290Y-15338981D01*
X1815731Y-15329592D01*
X1811370Y-15321261D01*
X1813688Y-15295276D01*
X1812138Y-15269235D01*
X1816743Y-15261035D01*
X1817579Y-15251668D01*
X1833576Y-15231062D01*
X1846352Y-15208316D01*
X1857379Y-15200404D01*
X1860427Y-15196479D01*
X1865199Y-15194794D01*
X1876687Y-15186552D01*
X1932644Y-15158041D01*
X1932650Y-15158036D01*
X2022236Y-15068450D01*
X2022239Y-15068446D01*
X2079766Y-14955544D01*
X2091668Y-14880400D01*
X1368600Y-14880400D01*
X1325138Y-14867638D01*
X1386214Y-14842340D01*
X1456540Y-14772014D01*
X1494600Y-14680128D01*
X1494600Y-14580672D01*
X1456540Y-14488786D01*
X1386214Y-14418460D01*
X1294328Y-14380400D01*
X1494600Y-14380400D01*
X2091665Y-14380400D01*
X2079764Y-14305250D01*
X2079762Y-14305244D01*
X2022243Y-14192358D01*
X2022236Y-14192349D01*
X1932650Y-14102763D01*
X1932645Y-14102760D01*
X1843359Y-14057266D01*
X1843357Y-14057264D01*
X1819747Y-14045234D01*
X1819744Y-14045233D01*
X1726086Y-14030400D01*
X1494600Y-14030400D01*
X1494600Y-14380400D01*
X1294328Y-14380400D01*
X1194872Y-14380400D01*
X1102986Y-14418460D01*
X1032660Y-14488786D01*
X1005193Y-14555096D01*
X994600Y-14506400D01*
X994600Y-14069060D01*
X857186Y-14024303D01*
X843946Y-14015235D01*
X828550Y-14010715D01*
X815713Y-13995901D01*
X799539Y-13984824D01*
X793302Y-13970037D01*
X782795Y-13957911D01*
X782363Y-13954908D01*
X2344300Y-13954908D01*
X2344300Y-14086692D01*
X2348606Y-14102763D01*
X2378408Y-14213987D01*
X2411354Y-14271050D01*
X2444300Y-14328114D01*
X2537486Y-14421300D01*
X2651614Y-14487192D01*
X2778908Y-14521300D01*
X2778910Y-14521300D01*
X2910690Y-14521300D01*
X2910692Y-14521300D01*
X3037986Y-14487192D01*
X3152114Y-14421300D01*
X3245300Y-14328114D01*
X3311192Y-14213986D01*
X3345300Y-14086692D01*
X3345300Y-13954908D01*
X3311192Y-13827614D01*
X3245300Y-13713486D01*
X3152114Y-13620300D01*
X3095050Y-13587354D01*
X3037987Y-13554408D01*
X3035259Y-13553677D01*
X12545083Y-13553677D01*
X12545083Y-13685461D01*
X12553940Y-13718516D01*
X12579191Y-13812756D01*
X12601623Y-13851609D01*
X12645083Y-13926883D01*
X12738269Y-14020069D01*
X12852397Y-14085961D01*
X12979691Y-14120069D01*
X12979693Y-14120069D01*
X13111473Y-14120069D01*
X13111475Y-14120069D01*
X13238769Y-14085961D01*
X13352897Y-14020069D01*
X13446083Y-13926883D01*
X13511975Y-13812755D01*
X13546083Y-13685461D01*
X13546083Y-13553677D01*
X13511975Y-13426383D01*
X13446083Y-13312255D01*
X13352897Y-13219069D01*
X13295833Y-13186123D01*
X13238770Y-13153177D01*
X13129926Y-13124013D01*
X13111475Y-13119069D01*
X12979691Y-13119069D01*
X12979689Y-13119069D01*
X12961237Y-13124013D01*
X12961232Y-13124014D01*
X12852397Y-13153177D01*
X12756576Y-13208498D01*
X12756567Y-13208503D01*
X12738275Y-13219065D01*
X12738266Y-13219071D01*
X12645085Y-13312252D01*
X12645083Y-13312255D01*
X12579191Y-13426381D01*
X12554026Y-13520300D01*
X12545083Y-13553677D01*
X3035259Y-13553677D01*
X2974339Y-13537354D01*
X2910692Y-13520300D01*
X2778908Y-13520300D01*
X2651612Y-13554408D01*
X2537486Y-13620300D01*
X2537483Y-13620302D01*
X2444302Y-13713483D01*
X2444300Y-13713486D01*
X2378408Y-13827612D01*
X2362026Y-13888753D01*
X2344300Y-13954908D01*
X782363Y-13954908D01*
X780005Y-13938509D01*
X772387Y-13920446D01*
X775134Y-13904636D01*
X772851Y-13888753D01*
X780994Y-13870921D01*
X784351Y-13851609D01*
X795209Y-13839795D01*
X801876Y-13825197D01*
X809827Y-13817707D01*
X809567Y-13817447D01*
X815500Y-13811514D01*
X908500Y-13718514D01*
X974392Y-13604386D01*
X1008500Y-13477092D01*
X1008500Y-13345308D01*
X974392Y-13218014D01*
X908500Y-13103886D01*
X815314Y-13010700D01*
X758250Y-12977754D01*
X701187Y-12944808D01*
X637539Y-12927754D01*
X573892Y-12910700D01*
X442108Y-12910700D01*
X442106Y-12910700D01*
X356592Y-12933613D01*
X286742Y-12931950D01*
X228880Y-12892787D01*
X201377Y-12828558D01*
X200500Y-12813838D01*
X200500Y-12417878D01*
X12076954Y-12417878D01*
X12076954Y-12549661D01*
X12111062Y-12676957D01*
X12144008Y-12734020D01*
X12176954Y-12791084D01*
X12270140Y-12884270D01*
X12384268Y-12950162D01*
X12511562Y-12984270D01*
X12511564Y-12984270D01*
X12643344Y-12984270D01*
X12643346Y-12984270D01*
X12770640Y-12950162D01*
X12884768Y-12884270D01*
X12977954Y-12791084D01*
X13043846Y-12676956D01*
X13077954Y-12549662D01*
X13077954Y-12417878D01*
X13043846Y-12290584D01*
X12977954Y-12176456D01*
X12884768Y-12083270D01*
X12791785Y-12029586D01*
X12770641Y-12017378D01*
X12706993Y-12000324D01*
X12643346Y-11983270D01*
X12511562Y-11983270D01*
X12384266Y-12017378D01*
X12270140Y-12083270D01*
X12270137Y-12083272D01*
X12176956Y-12176453D01*
X12176954Y-12176456D01*
X12111062Y-12290582D01*
X12076954Y-12417878D01*
X200500Y-12417878D01*
X200500Y-11117878D01*
X12282806Y-11117878D01*
X12282806Y-11249662D01*
X12290010Y-11276548D01*
X12316914Y-11376957D01*
X12349860Y-11434020D01*
X12382806Y-11491084D01*
X12475992Y-11584270D01*
X12590120Y-11650162D01*
X12717414Y-11684270D01*
X12717416Y-11684270D01*
X12849196Y-11684270D01*
X12849198Y-11684270D01*
X12976492Y-11650162D01*
X13090620Y-11584270D01*
X13110632Y-11564257D01*
X13171951Y-11530774D01*
X13241642Y-11535757D01*
X13260312Y-11544554D01*
X13321636Y-11579960D01*
X13321637Y-11579960D01*
X13321642Y-11579963D01*
X13448936Y-11614071D01*
X13448938Y-11614071D01*
X13580718Y-11614071D01*
X13580720Y-11614071D01*
X13708014Y-11579963D01*
X13822142Y-11514071D01*
X13915328Y-11420885D01*
X13981220Y-11306757D01*
X14015328Y-11179463D01*
X14015328Y-11179460D01*
X14016020Y-11176878D01*
X14032844Y-11149275D01*
X14048440Y-11120965D01*
X14050917Y-11119623D01*
X14052385Y-11117217D01*
X14081459Y-11103093D01*
X14109886Y-11087708D01*
X14112696Y-11087919D01*
X14115232Y-11086688D01*
X14147326Y-11090525D01*
X14179559Y-11092951D01*
X14182276Y-11094704D01*
X14184607Y-11094983D01*
X14210473Y-11109980D01*
X14217366Y-11115180D01*
X14272286Y-11170100D01*
X14348475Y-11214088D01*
X14354553Y-11218673D01*
X14371028Y-11240852D01*
X14390090Y-11260844D01*
X14391565Y-11268500D01*
X14396217Y-11274762D01*
X14398085Y-11302326D01*
X14403314Y-11329451D01*
X14400415Y-11336690D01*
X14400943Y-11344471D01*
X14387615Y-11368665D01*
X14377346Y-11394316D01*
X14369958Y-11400717D01*
X14367230Y-11405670D01*
X14359273Y-11409976D01*
X14341879Y-11425049D01*
X14323089Y-11435898D01*
X14323083Y-11435902D01*
X14229902Y-11529083D01*
X14229900Y-11529086D01*
X14164008Y-11643212D01*
X14129900Y-11770508D01*
X14129900Y-11902291D01*
X14164008Y-12029587D01*
X14195003Y-12083270D01*
X14229900Y-12143714D01*
X14323086Y-12236900D01*
X14437214Y-12302792D01*
X14564508Y-12336900D01*
X14564510Y-12336900D01*
X14696290Y-12336900D01*
X14696292Y-12336900D01*
X14823586Y-12302792D01*
X14937714Y-12236900D01*
X15030900Y-12143714D01*
X15096792Y-12029586D01*
X15130900Y-11902292D01*
X15130900Y-11770508D01*
X15096792Y-11643214D01*
X15030900Y-11529086D01*
X14937714Y-11435900D01*
X14868124Y-11395722D01*
X14819908Y-11345155D01*
X14806686Y-11276548D01*
X14832654Y-11211683D01*
X14868122Y-11180949D01*
X14886914Y-11170100D01*
X14980100Y-11076914D01*
X15045992Y-10962786D01*
X15080100Y-10835492D01*
X15080100Y-10703708D01*
X15045992Y-10576414D01*
X14980100Y-10462286D01*
X14886914Y-10369100D01*
X14829850Y-10336154D01*
X14772787Y-10303208D01*
X14709139Y-10286154D01*
X14645492Y-10269100D01*
X14513708Y-10269100D01*
X14386412Y-10303208D01*
X14272286Y-10369100D01*
X14272283Y-10369102D01*
X14179102Y-10462283D01*
X14179100Y-10462286D01*
X14113209Y-10576412D01*
X14078407Y-10706293D01*
X14042041Y-10765953D01*
X13979194Y-10796482D01*
X13909819Y-10788187D01*
X13870951Y-10761880D01*
X13822144Y-10713073D01*
X13822142Y-10713071D01*
X13748435Y-10670516D01*
X13708015Y-10647179D01*
X13644367Y-10630125D01*
X13580720Y-10613071D01*
X13448936Y-10613071D01*
X13321640Y-10647179D01*
X13207514Y-10713071D01*
X13187502Y-10733083D01*
X13126178Y-10766567D01*
X13056486Y-10761581D01*
X13037826Y-10752789D01*
X13003694Y-10733083D01*
X12976493Y-10717378D01*
X12912845Y-10700324D01*
X12849198Y-10683270D01*
X12717414Y-10683270D01*
X12590118Y-10717378D01*
X12475992Y-10783270D01*
X12475989Y-10783272D01*
X12382808Y-10876453D01*
X12382806Y-10876456D01*
X12316914Y-10990582D01*
X12291163Y-11086688D01*
X12282806Y-11117878D01*
X200500Y-11117878D01*
X200500Y-10960561D01*
X220185Y-10893522D01*
X272989Y-10847767D01*
X342147Y-10837823D01*
X356584Y-10840784D01*
X442108Y-10863700D01*
X442110Y-10863700D01*
X573890Y-10863700D01*
X573892Y-10863700D01*
X701186Y-10829592D01*
X815314Y-10763700D01*
X908500Y-10670514D01*
X974392Y-10556386D01*
X1008500Y-10429092D01*
X1008500Y-10309219D01*
X3427851Y-10309219D01*
X3427851Y-10441002D01*
X3461959Y-10568298D01*
X3466644Y-10576412D01*
X3527851Y-10682425D01*
X3621037Y-10775611D01*
X3735165Y-10841503D01*
X3862459Y-10875611D01*
X3862461Y-10875611D01*
X3994241Y-10875611D01*
X3994243Y-10875611D01*
X4121537Y-10841503D01*
X4235665Y-10775611D01*
X4328851Y-10682425D01*
X4394743Y-10568297D01*
X4428851Y-10441003D01*
X4428851Y-10309219D01*
X4394743Y-10181925D01*
X4328851Y-10067797D01*
X4235665Y-9974611D01*
X4165817Y-9934284D01*
X4121538Y-9908719D01*
X4029097Y-9883950D01*
X3994243Y-9874611D01*
X3862459Y-9874611D01*
X3735163Y-9908719D01*
X3621037Y-9974611D01*
X3621034Y-9974613D01*
X3527853Y-10067794D01*
X3527851Y-10067797D01*
X3461959Y-10181923D01*
X3427851Y-10309219D01*
X1008500Y-10309219D01*
X1008500Y-10297308D01*
X974392Y-10170014D01*
X908500Y-10055886D01*
X815314Y-9962700D01*
X758250Y-9929754D01*
X701187Y-9896808D01*
X618345Y-9874611D01*
X573892Y-9862700D01*
X442108Y-9862700D01*
X442106Y-9862700D01*
X356592Y-9885613D01*
X286742Y-9883950D01*
X228880Y-9844787D01*
X201377Y-9780558D01*
X200500Y-9765838D01*
X200500Y-8738010D01*
X220185Y-8670971D01*
X272989Y-8625216D01*
X342147Y-8615272D01*
X405703Y-8644297D01*
X443477Y-8703075D01*
X444275Y-8705917D01*
X460423Y-8766183D01*
X460426Y-8766190D01*
X539475Y-8903109D01*
X539479Y-8903114D01*
X539480Y-8903116D01*
X651284Y-9014920D01*
X651286Y-9014921D01*
X651290Y-9014924D01*
X769525Y-9083186D01*
X788216Y-9093977D01*
X940943Y-9134900D01*
X940945Y-9134900D01*
X1599055Y-9134900D01*
X1599057Y-9134900D01*
X1751784Y-9093977D01*
X1888716Y-9014920D01*
X2000520Y-8903116D01*
X2046135Y-8824108D01*
X7424300Y-8824108D01*
X7424300Y-8955892D01*
X7435449Y-8997500D01*
X7458408Y-9083187D01*
X7478881Y-9118647D01*
X7524300Y-9197314D01*
X7617486Y-9290500D01*
X7731614Y-9356392D01*
X7858908Y-9390500D01*
X7858910Y-9390500D01*
X7990690Y-9390500D01*
X7990692Y-9390500D01*
X8117986Y-9356392D01*
X8232114Y-9290500D01*
X8325300Y-9197314D01*
X8391192Y-9083186D01*
X8408684Y-9017905D01*
X10410632Y-9017905D01*
X10410632Y-9149689D01*
X10427686Y-9213336D01*
X10444740Y-9276984D01*
X10452542Y-9290497D01*
X10510632Y-9391111D01*
X10603818Y-9484297D01*
X10702653Y-9541360D01*
X10717334Y-9549836D01*
X10717946Y-9550189D01*
X10845240Y-9584297D01*
X10845242Y-9584297D01*
X10977022Y-9584297D01*
X10977024Y-9584297D01*
X11002036Y-9577595D01*
X11071885Y-9579257D01*
X11129748Y-9618418D01*
X11141517Y-9635369D01*
X11181900Y-9705314D01*
X11275086Y-9798500D01*
X11389214Y-9864392D01*
X11516508Y-9898500D01*
X11516510Y-9898500D01*
X11648290Y-9898500D01*
X11648292Y-9898500D01*
X11775586Y-9864392D01*
X11835826Y-9829612D01*
X11903723Y-9813139D01*
X11969750Y-9835990D01*
X11985506Y-9849318D01*
X12070475Y-9934287D01*
X12184603Y-10000179D01*
X12311897Y-10034287D01*
X12311899Y-10034287D01*
X12443679Y-10034287D01*
X12443681Y-10034287D01*
X12570975Y-10000179D01*
X12685103Y-9934287D01*
X12778289Y-9841101D01*
X12844181Y-9726973D01*
X12878289Y-9599679D01*
X12878289Y-9467895D01*
X12844181Y-9340601D01*
X12778289Y-9226473D01*
X12685103Y-9133287D01*
X12628039Y-9100341D01*
X12570976Y-9067395D01*
X12507328Y-9050341D01*
X12443681Y-9033287D01*
X12311897Y-9033287D01*
X12184603Y-9067395D01*
X12184602Y-9067395D01*
X12184600Y-9067396D01*
X12184599Y-9067396D01*
X12124363Y-9102174D01*
X12056463Y-9118647D01*
X11990436Y-9095794D01*
X11974682Y-9082468D01*
X11889716Y-8997502D01*
X11889714Y-8997500D01*
X11817647Y-8955892D01*
X11775587Y-8931608D01*
X11673308Y-8904203D01*
X11648292Y-8897500D01*
X11516508Y-8897500D01*
X11491492Y-8904203D01*
X11421642Y-8902538D01*
X11363780Y-8863374D01*
X11352014Y-8846427D01*
X11311632Y-8776483D01*
X11218446Y-8683297D01*
X11150896Y-8644297D01*
X11104319Y-8617405D01*
X11040671Y-8600351D01*
X10977024Y-8583297D01*
X10845240Y-8583297D01*
X10717944Y-8617405D01*
X10603818Y-8683297D01*
X10603815Y-8683299D01*
X10510634Y-8776480D01*
X10510632Y-8776483D01*
X10444740Y-8890609D01*
X10427249Y-8955889D01*
X10410632Y-9017905D01*
X8408684Y-9017905D01*
X8425300Y-8955892D01*
X8425300Y-8824108D01*
X8391192Y-8696814D01*
X8325300Y-8582686D01*
X8232114Y-8489500D01*
X8172956Y-8455345D01*
X8117987Y-8423608D01*
X8054339Y-8406554D01*
X7990692Y-8389500D01*
X7858908Y-8389500D01*
X7731612Y-8423608D01*
X7617486Y-8489500D01*
X7617483Y-8489502D01*
X7524302Y-8582683D01*
X7524300Y-8582686D01*
X7458408Y-8696812D01*
X7439819Y-8766190D01*
X7424300Y-8824108D01*
X2046135Y-8824108D01*
X2079577Y-8766184D01*
X2120500Y-8613457D01*
X2120500Y-8455343D01*
X2079577Y-8302616D01*
X2079573Y-8302609D01*
X2000524Y-8165690D01*
X2000518Y-8165682D01*
X1888715Y-8053879D01*
X1882891Y-8049410D01*
X1841690Y-7992981D01*
X1837538Y-7923235D01*
X1871752Y-7862316D01*
X1902087Y-7840552D01*
X1958044Y-7812041D01*
X1958050Y-7812036D01*
X2047636Y-7722450D01*
X2047639Y-7722446D01*
X2105166Y-7609544D01*
X2117068Y-7534400D01*
X1394000Y-7534400D01*
X1350538Y-7521638D01*
X1411614Y-7496340D01*
X1481940Y-7426014D01*
X1520000Y-7334128D01*
X1520000Y-7234672D01*
X1481940Y-7142786D01*
X1411614Y-7072460D01*
X1319728Y-7034400D01*
X1520000Y-7034400D01*
X2117065Y-7034400D01*
X2105164Y-6959250D01*
X2105162Y-6959244D01*
X2047643Y-6846358D01*
X2047636Y-6846349D01*
X1958050Y-6756763D01*
X1958046Y-6756760D01*
X1845144Y-6699233D01*
X1751486Y-6684400D01*
X1520000Y-6684400D01*
X1520000Y-7034400D01*
X1319728Y-7034400D01*
X1220272Y-7034400D01*
X1128386Y-7072460D01*
X1058060Y-7142786D01*
X1030593Y-7209096D01*
X1020000Y-7160400D01*
X1020000Y-6684400D01*
X788520Y-6684400D01*
X694849Y-6699235D01*
X694844Y-6699237D01*
X581958Y-6756756D01*
X581949Y-6756763D01*
X492363Y-6846349D01*
X492360Y-6846354D01*
X434985Y-6958959D01*
X387010Y-7009755D01*
X319189Y-7026550D01*
X253055Y-7004013D01*
X209603Y-6949298D01*
X200500Y-6902664D01*
X200500Y-6080356D01*
X3411276Y-6080356D01*
X3411276Y-6212139D01*
X3445384Y-6339435D01*
X3478330Y-6396498D01*
X3511276Y-6453562D01*
X3604462Y-6546748D01*
X3718590Y-6612640D01*
X3845884Y-6646748D01*
X3845886Y-6646748D01*
X3977666Y-6646748D01*
X3977668Y-6646748D01*
X4104962Y-6612640D01*
X4219090Y-6546748D01*
X4312276Y-6453562D01*
X4378168Y-6339434D01*
X4412276Y-6212140D01*
X4412276Y-6080356D01*
X4378168Y-5953062D01*
X4312276Y-5838934D01*
X4219090Y-5745748D01*
X4162026Y-5712802D01*
X4104963Y-5679856D01*
X4041315Y-5662802D01*
X3977668Y-5645748D01*
X3845884Y-5645748D01*
X3718588Y-5679856D01*
X3604462Y-5745748D01*
X3604459Y-5745750D01*
X3511278Y-5838931D01*
X3511276Y-5838934D01*
X3445384Y-5953060D01*
X3411276Y-6080356D01*
X200500Y-6080356D01*
X200500Y-1885042D01*
X220185Y-1818003D01*
X272989Y-1772248D01*
X342147Y-1762304D01*
X405703Y-1791329D01*
X443477Y-1850107D01*
X446974Y-1865646D01*
X462035Y-1960749D01*
X462037Y-1960755D01*
X519556Y-2073641D01*
X519563Y-2073650D01*
X609149Y-2163236D01*
X609156Y-2163241D01*
X665112Y-2191752D01*
X715909Y-2239726D01*
X732704Y-2307547D01*
X710167Y-2373682D01*
X684312Y-2400607D01*
X678485Y-2405078D01*
X566681Y-2516882D01*
X566675Y-2516890D01*
X487626Y-2653809D01*
X487623Y-2653816D01*
X446700Y-2806543D01*
X446700Y-2964657D01*
X448500Y-2971373D01*
X487623Y-3117383D01*
X487626Y-3117390D01*
X566675Y-3254309D01*
X566681Y-3254317D01*
X647794Y-3335430D01*
X681279Y-3396753D01*
X676295Y-3466445D01*
X647794Y-3510792D01*
X605102Y-3553483D01*
X605100Y-3553486D01*
X539208Y-3667612D01*
X505100Y-3794908D01*
X505100Y-3926691D01*
X539208Y-4053987D01*
X572154Y-4111050D01*
X605100Y-4168114D01*
X698286Y-4261300D01*
X812414Y-4327192D01*
X939708Y-4361300D01*
X939710Y-4361300D01*
X1071490Y-4361300D01*
X1071492Y-4361300D01*
X1198786Y-4327192D01*
X1312914Y-4261300D01*
X1406100Y-4168114D01*
X1471992Y-4053986D01*
X1506100Y-3926692D01*
X1506100Y-3794908D01*
X1471992Y-3667614D01*
X1471989Y-3667609D01*
X1468880Y-3660100D01*
X1471411Y-3659051D01*
X1461856Y-3619617D01*
X3503749Y-3619617D01*
X3503749Y-3751400D01*
X3537857Y-3878696D01*
X3565568Y-3926692D01*
X3603749Y-3992823D01*
X3696935Y-4086009D01*
X3811063Y-4151901D01*
X3938357Y-4186009D01*
X3938359Y-4186009D01*
X4070139Y-4186009D01*
X4070141Y-4186009D01*
X4197435Y-4151901D01*
X4311563Y-4086009D01*
X4404749Y-3992823D01*
X4431027Y-3947308D01*
X7576700Y-3947308D01*
X7576700Y-4079092D01*
X7593754Y-4142739D01*
X7610808Y-4206387D01*
X7642511Y-4261297D01*
X7676700Y-4320514D01*
X7769886Y-4413700D01*
X7884014Y-4479592D01*
X8011308Y-4513700D01*
X8011310Y-4513700D01*
X8143090Y-4513700D01*
X8143092Y-4513700D01*
X8270386Y-4479592D01*
X8384514Y-4413700D01*
X8477700Y-4320514D01*
X8543592Y-4206386D01*
X8577700Y-4079092D01*
X8577700Y-3947308D01*
X8543592Y-3820014D01*
X8477700Y-3705886D01*
X8384514Y-3612700D01*
X8281953Y-3553486D01*
X8270387Y-3546808D01*
X8206739Y-3529754D01*
X8143092Y-3512700D01*
X8011308Y-3512700D01*
X7884012Y-3546808D01*
X7769886Y-3612700D01*
X7769883Y-3612702D01*
X7676702Y-3705883D01*
X7676700Y-3705886D01*
X7610808Y-3820012D01*
X7582224Y-3926691D01*
X7576700Y-3947308D01*
X4431027Y-3947308D01*
X4470641Y-3878695D01*
X4504749Y-3751401D01*
X4504749Y-3619617D01*
X4470641Y-3492323D01*
X4404749Y-3378195D01*
X4311563Y-3285009D01*
X4254499Y-3252063D01*
X4197436Y-3219117D01*
X4133788Y-3202063D01*
X4070141Y-3185009D01*
X3938357Y-3185009D01*
X3811061Y-3219117D01*
X3696935Y-3285009D01*
X3696932Y-3285011D01*
X3603751Y-3378192D01*
X3603749Y-3378195D01*
X3537857Y-3492321D01*
X3503749Y-3619617D01*
X1461856Y-3619617D01*
X1458112Y-3604165D01*
X1480983Y-3538145D01*
X1535916Y-3494970D01*
X1581970Y-3486100D01*
X1626255Y-3486100D01*
X1626257Y-3486100D01*
X1778984Y-3445177D01*
X1915916Y-3366120D01*
X2027720Y-3254316D01*
X2106777Y-3117384D01*
X2147700Y-2964657D01*
X2147700Y-2806543D01*
X2106777Y-2653816D01*
X2106773Y-2653809D01*
X2027724Y-2516890D01*
X2027718Y-2516882D01*
X1915915Y-2405079D01*
X1910091Y-2400610D01*
X1868890Y-2344181D01*
X1864738Y-2274435D01*
X1898952Y-2213516D01*
X1929287Y-2191752D01*
X1985244Y-2163241D01*
X1985250Y-2163236D01*
X2074836Y-2073650D01*
X2074839Y-2073646D01*
X2132366Y-1960744D01*
X2144268Y-1885600D01*
X1421200Y-1885600D01*
X1377738Y-1872838D01*
X1438814Y-1847540D01*
X1509140Y-1777214D01*
X1547200Y-1685328D01*
X1547200Y-1585872D01*
X1509140Y-1493986D01*
X1438814Y-1423660D01*
X1346928Y-1385600D01*
X1547200Y-1385600D01*
X2144265Y-1385600D01*
X2132364Y-1310450D01*
X2132362Y-1310444D01*
X2074843Y-1197558D01*
X2074836Y-1197549D01*
X1985250Y-1107963D01*
X1985246Y-1107960D01*
X1872344Y-1050433D01*
X1778686Y-1035600D01*
X1547200Y-1035600D01*
X1547200Y-1385600D01*
X1346928Y-1385600D01*
X1247472Y-1385600D01*
X1155586Y-1423660D01*
X1085260Y-1493986D01*
X1057793Y-1560296D01*
X1047200Y-1511600D01*
X1047200Y-1035600D01*
X815720Y-1035600D01*
X722049Y-1050435D01*
X722044Y-1050437D01*
X609158Y-1107956D01*
X609149Y-1107963D01*
X519563Y-1197549D01*
X519560Y-1197553D01*
X462033Y-1310455D01*
X446973Y-1405547D01*
X417044Y-1468682D01*
X357732Y-1505613D01*
X287870Y-1504615D01*
X229637Y-1466005D01*
X201523Y-1402042D01*
X200500Y-1386149D01*
X200500Y-261696D01*
X220185Y-194657D01*
X272989Y-148902D01*
X342147Y-138958D01*
X356586Y-141920D01*
X367708Y-144900D01*
X367710Y-144900D01*
X499490Y-144900D01*
X499492Y-144900D01*
X626786Y-110792D01*
X740914Y-44900D01*
X770919Y-14895D01*
X832242Y18590D01*
X901934Y13606D01*
X946281Y-14895D01*
X976286Y-44900D01*
X1090414Y-110792D01*
X1217708Y-144900D01*
X1217710Y-144900D01*
X1349490Y-144900D01*
X1349492Y-144900D01*
X1476786Y-110792D01*
X1590914Y-44900D01*
X1620919Y-14895D01*
X1682242Y18590D01*
X1751934Y13606D01*
X1796281Y-14895D01*
X1826286Y-44900D01*
X1940414Y-110792D01*
X2067708Y-144900D01*
X2067710Y-144900D01*
X2199490Y-144900D01*
X2199492Y-144900D01*
X2326786Y-110792D01*
X2440914Y-44900D01*
X2470919Y-14895D01*
X2532242Y18590D01*
X2601934Y13606D01*
X2628973Y-480D01*
X2638283Y-6897D01*
X2676286Y-44900D01*
X2781780Y-105807D01*
X2785861Y-108620D01*
X2804875Y-132051D01*
X2825704Y-153896D01*
X2826670Y-158910D01*
X2829887Y-162874D01*
X2833214Y-192864D01*
X2838927Y-222503D01*
X2837029Y-227243D01*
X2837592Y-232317D01*
X2824177Y-259345D01*
X2812959Y-287368D01*
X2807680Y-292584D01*
X2806530Y-294903D01*
X2803503Y-296712D01*
X2797211Y-302931D01*
X2797233Y-302953D01*
X2698302Y-401883D01*
X2698300Y-401886D01*
X2632408Y-516012D01*
X2599071Y-640430D01*
X2598300Y-643308D01*
X2598300Y-775092D01*
X2615354Y-838739D01*
X2632408Y-902387D01*
X2633648Y-904534D01*
X2698300Y-1016514D01*
X2791486Y-1109700D01*
X2905614Y-1175592D01*
X3032908Y-1209700D01*
X3032910Y-1209700D01*
X3164690Y-1209700D01*
X3164692Y-1209700D01*
X3291986Y-1175592D01*
X3406114Y-1109700D01*
X3499300Y-1016514D01*
X3565192Y-902386D01*
X3599300Y-775092D01*
X3599300Y-643308D01*
X3565192Y-516014D01*
X3499300Y-401886D01*
X3406114Y-308700D01*
X3304911Y-250270D01*
X3286961Y-231444D01*
X3266406Y-215510D01*
X3263241Y-206568D01*
X3256695Y-199703D01*
X3251772Y-174163D01*
X3243095Y-149643D01*
X3245267Y-140408D01*
X3243473Y-131096D01*
X3253138Y-106951D01*
X3259096Y-81631D01*
X3266831Y-72748D01*
X3269441Y-66231D01*
X3280720Y-53737D01*
X3288297Y-46410D01*
X3290914Y-44900D01*
X3321654Y-14159D01*
X3322409Y-13430D01*
X3352453Y2325D01*
X3382242Y18590D01*
X3383325Y18513D01*
X3384288Y19017D01*
X3418079Y16028D01*
G37*
%TD.AperFunction*%
%TD*%
M02*
