%TF.GenerationSoftware,KiCad,Pcbnew,9.0.5*%
%TF.CreationDate,2025-12-10T00:03:41-08:00*%
%TF.ProjectId,camcontrol stm32,63616d63-6f6e-4747-926f-6c2073746d33,rev?*%
%TF.SameCoordinates,Original*%
%TF.FileFunction,Soldermask,Bot*%
%TF.FilePolarity,Negative*%
%FSLAX46Y46*%
G04 Gerber Fmt 4.6, Leading zero omitted, Abs format (unit mm)*
G04 Created by KiCad (PCBNEW 9.0.5) date 2025-12-10 00:03:41*
%MOMM*%
%LPD*%
G01*
G04 APERTURE LIST*
G04 Aperture macros list*
%AMRoundRect*
0 Rectangle with rounded corners*
0 $1 Rounding radius*
0 $2 $3 $4 $5 $6 $7 $8 $9 X,Y pos of 4 corners*
0 Add a 4 corners polygon primitive as box body*
4,1,4,$2,$3,$4,$5,$6,$7,$8,$9,$2,$3,0*
0 Add four circle primitives for the rounded corners*
1,1,$1+$1,$2,$3*
1,1,$1+$1,$4,$5*
1,1,$1+$1,$6,$7*
1,1,$1+$1,$8,$9*
0 Add four rect primitives between the rounded corners*
20,1,$1+$1,$2,$3,$4,$5,0*
20,1,$1+$1,$4,$5,$6,$7,0*
20,1,$1+$1,$6,$7,$8,$9,0*
20,1,$1+$1,$8,$9,$2,$3,0*%
%AMFreePoly0*
4,1,23,0.550000,-0.750000,0.000000,-0.750000,0.000000,-0.745722,-0.065263,-0.745722,-0.191342,-0.711940,-0.304381,-0.646677,-0.396677,-0.554381,-0.461940,-0.441342,-0.495722,-0.315263,-0.495722,-0.250000,-0.500000,-0.250000,-0.500000,0.250000,-0.495722,0.250000,-0.495722,0.315263,-0.461940,0.441342,-0.396677,0.554381,-0.304381,0.646677,-0.191342,0.711940,-0.065263,0.745722,0.000000,0.745722,
0.000000,0.750000,0.550000,0.750000,0.550000,-0.750000,0.550000,-0.750000,$1*%
%AMFreePoly1*
4,1,23,0.000000,0.745722,0.065263,0.745722,0.191342,0.711940,0.304381,0.646677,0.396677,0.554381,0.461940,0.441342,0.495722,0.315263,0.495722,0.250000,0.500000,0.250000,0.500000,-0.250000,0.495722,-0.250000,0.495722,-0.315263,0.461940,-0.441342,0.396677,-0.554381,0.304381,-0.646677,0.191342,-0.711940,0.065263,-0.745722,0.000000,-0.745722,0.000000,-0.750000,-0.550000,-0.750000,
-0.550000,0.750000,0.000000,0.750000,0.000000,0.745722,0.000000,0.745722,$1*%
%AMFreePoly2*
4,1,23,0.500000,-0.750000,0.000000,-0.750000,0.000000,-0.745722,-0.065263,-0.745722,-0.191342,-0.711940,-0.304381,-0.646677,-0.396677,-0.554381,-0.461940,-0.441342,-0.495722,-0.315263,-0.495722,-0.250000,-0.500000,-0.250000,-0.500000,0.250000,-0.495722,0.250000,-0.495722,0.315263,-0.461940,0.441342,-0.396677,0.554381,-0.304381,0.646677,-0.191342,0.711940,-0.065263,0.745722,0.000000,0.745722,
0.000000,0.750000,0.500000,0.750000,0.500000,-0.750000,0.500000,-0.750000,$1*%
%AMFreePoly3*
4,1,23,0.000000,0.745722,0.065263,0.745722,0.191342,0.711940,0.304381,0.646677,0.396677,0.554381,0.461940,0.441342,0.495722,0.315263,0.495722,0.250000,0.500000,0.250000,0.500000,-0.250000,0.495722,-0.250000,0.495722,-0.315263,0.461940,-0.441342,0.396677,-0.554381,0.304381,-0.646677,0.191342,-0.711940,0.065263,-0.745722,0.000000,-0.745722,0.000000,-0.750000,-0.500000,-0.750000,
-0.500000,0.750000,0.000000,0.750000,0.000000,0.745722,0.000000,0.745722,$1*%
G04 Aperture macros list end*
%ADD10C,0.500000*%
%ADD11R,1.000000X1.000000*%
%ADD12C,1.000000*%
%ADD13FreePoly0,90.000000*%
%ADD14R,1.500000X1.000000*%
%ADD15FreePoly1,90.000000*%
%ADD16RoundRect,0.200000X-0.450000X0.200000X-0.450000X-0.200000X0.450000X-0.200000X0.450000X0.200000X0*%
%ADD17O,1.300000X0.800000*%
%ADD18RoundRect,0.218750X-0.218750X-0.256250X0.218750X-0.256250X0.218750X0.256250X-0.218750X0.256250X0*%
%ADD19FreePoly2,90.000000*%
%ADD20FreePoly3,90.000000*%
%ADD21C,2.200000*%
%ADD22R,1.700000X1.700000*%
%ADD23C,1.700000*%
G04 APERTURE END LIST*
%TO.C,JP1*%
G36*
X10783000Y-10000200D02*
G01*
X9283000Y-10000200D01*
X9283000Y-8500200D01*
X10783000Y-8500200D01*
X10783000Y-10000200D01*
G37*
%TO.C,J6*%
G36*
X8166800Y-10437000D02*
G01*
X6666800Y-10437000D01*
X6666800Y-10137000D01*
X8166800Y-10137000D01*
X8166800Y-10437000D01*
G37*
%TD*%
D10*
%TO.C,REF\u002A\u002A*%
X433600Y355600D03*
X1283600Y355600D03*
X2133600Y355600D03*
X2983600Y355600D03*
X3833600Y355600D03*
%TD*%
%TO.C,REF\u002A\u002A*%
X15365200Y-25755600D03*
X14515200Y-25755600D03*
X13665200Y-25755600D03*
X12815200Y-25755600D03*
X11965200Y-25755600D03*
%TD*%
D11*
%TO.C,J5*%
X8331200Y-21590000D03*
D12*
X9601200Y-21590000D03*
X10871200Y-21590000D03*
X12141200Y-21590000D03*
X13411200Y-21590000D03*
X14681200Y-21590000D03*
%TD*%
D13*
%TO.C,JP1*%
X10033000Y-10550200D03*
D14*
X10033000Y-9250200D03*
D15*
X10033000Y-7950200D03*
%TD*%
D16*
%TO.C,J3*%
X1270000Y-7284400D03*
D17*
X1270000Y-8534400D03*
%TD*%
D16*
%TO.C,J1*%
X1297200Y-1635600D03*
D17*
X1297200Y-2885600D03*
%TD*%
D18*
%TO.C,D2*%
X888900Y-11379200D03*
X2463900Y-11379200D03*
%TD*%
%TO.C,D1*%
X2184300Y-24180800D03*
X3759300Y-24180800D03*
%TD*%
D16*
%TO.C,J7*%
X1170200Y-19923600D03*
D17*
X1170200Y-21173600D03*
%TD*%
D16*
%TO.C,J4*%
X1244600Y-14630400D03*
D17*
X1244600Y-15880400D03*
%TD*%
D19*
%TO.C,J6*%
X7416800Y-10937000D03*
D20*
X7416800Y-9637000D03*
%TD*%
D21*
%TO.C,H2*%
X13665200Y-27482800D03*
%TD*%
D22*
%TO.C,J2*%
X14478000Y-23799800D03*
D23*
X11938000Y-23799800D03*
X9398000Y-23799800D03*
X6858000Y-23799800D03*
%TD*%
D21*
%TO.C,H1*%
X2184400Y1981200D03*
%TD*%
M02*
