%TF.GenerationSoftware,KiCad,Pcbnew,9.0.5*%
%TF.CreationDate,2025-12-03T22:00:20-08:00*%
%TF.ProjectId,camcontrol,63616d63-6f6e-4747-926f-6c2e6b696361,rev?*%
%TF.SameCoordinates,Original*%
%TF.FileFunction,Soldermask,Bot*%
%TF.FilePolarity,Negative*%
%FSLAX46Y46*%
G04 Gerber Fmt 4.6, Leading zero omitted, Abs format (unit mm)*
G04 Created by KiCad (PCBNEW 9.0.5) date 2025-12-03 22:00:20*
%MOMM*%
%LPD*%
G01*
G04 APERTURE LIST*
G04 Aperture macros list*
%AMRoundRect*
0 Rectangle with rounded corners*
0 $1 Rounding radius*
0 $2 $3 $4 $5 $6 $7 $8 $9 X,Y pos of 4 corners*
0 Add a 4 corners polygon primitive as box body*
4,1,4,$2,$3,$4,$5,$6,$7,$8,$9,$2,$3,0*
0 Add four circle primitives for the rounded corners*
1,1,$1+$1,$2,$3*
1,1,$1+$1,$4,$5*
1,1,$1+$1,$6,$7*
1,1,$1+$1,$8,$9*
0 Add four rect primitives between the rounded corners*
20,1,$1+$1,$2,$3,$4,$5,0*
20,1,$1+$1,$4,$5,$6,$7,0*
20,1,$1+$1,$6,$7,$8,$9,0*
20,1,$1+$1,$8,$9,$2,$3,0*%
%AMFreePoly0*
4,1,23,0.500000,-0.750000,0.000000,-0.750000,0.000000,-0.745722,-0.065263,-0.745722,-0.191342,-0.711940,-0.304381,-0.646677,-0.396677,-0.554381,-0.461940,-0.441342,-0.495722,-0.315263,-0.495722,-0.250000,-0.500000,-0.250000,-0.500000,0.250000,-0.495722,0.250000,-0.495722,0.315263,-0.461940,0.441342,-0.396677,0.554381,-0.304381,0.646677,-0.191342,0.711940,-0.065263,0.745722,0.000000,0.745722,
0.000000,0.750000,0.500000,0.750000,0.500000,-0.750000,0.500000,-0.750000,$1*%
%AMFreePoly1*
4,1,23,0.000000,0.745722,0.065263,0.745722,0.191342,0.711940,0.304381,0.646677,0.396677,0.554381,0.461940,0.441342,0.495722,0.315263,0.495722,0.250000,0.500000,0.250000,0.500000,-0.250000,0.495722,-0.250000,0.495722,-0.315263,0.461940,-0.441342,0.396677,-0.554381,0.304381,-0.646677,0.191342,-0.711940,0.065263,-0.745722,0.000000,-0.745722,0.000000,-0.750000,-0.500000,-0.750000,
-0.500000,0.750000,0.000000,0.750000,0.000000,0.745722,0.000000,0.745722,$1*%
%AMFreePoly2*
4,1,23,0.000000,0.745722,0.065263,0.745722,0.191342,0.711940,0.304381,0.646677,0.396677,0.554381,0.461940,0.441342,0.495722,0.315263,0.495722,0.250000,0.500000,0.250000,0.500000,-0.250000,0.495722,-0.250000,0.495722,-0.315263,0.461940,-0.441342,0.396677,-0.554381,0.304381,-0.646677,0.191342,-0.711940,0.065263,-0.745722,0.000000,-0.745722,0.000000,-0.750000,-0.550000,-0.750000,
-0.550000,0.750000,0.000000,0.750000,0.000000,0.745722,0.000000,0.745722,$1*%
%AMFreePoly3*
4,1,23,0.550000,-0.750000,0.000000,-0.750000,0.000000,-0.745722,-0.065263,-0.745722,-0.191342,-0.711940,-0.304381,-0.646677,-0.396677,-0.554381,-0.461940,-0.441342,-0.495722,-0.315263,-0.495722,-0.250000,-0.500000,-0.250000,-0.500000,0.250000,-0.495722,0.250000,-0.495722,0.315263,-0.461940,0.441342,-0.396677,0.554381,-0.304381,0.646677,-0.191342,0.711940,-0.065263,0.745722,0.000000,0.745722,
0.000000,0.750000,0.550000,0.750000,0.550000,-0.750000,0.550000,-0.750000,$1*%
G04 Aperture macros list end*
%ADD10R,1.350000X1.350000*%
%ADD11C,1.350000*%
%ADD12RoundRect,0.140000X1.110000X0.560000X-1.110000X0.560000X-1.110000X-0.560000X1.110000X-0.560000X0*%
%ADD13R,1.500000X0.800000*%
%ADD14R,0.800000X1.500000*%
%ADD15R,1.050000X2.200000*%
%ADD16R,1.000000X1.050000*%
%ADD17O,1.200000X1.900000*%
%ADD18O,1.200000X1.400000*%
%ADD19C,3.800000*%
%ADD20RoundRect,0.218750X-0.218750X-0.256250X0.218750X-0.256250X0.218750X0.256250X-0.218750X0.256250X0*%
%ADD21FreePoly0,270.000000*%
%ADD22FreePoly1,270.000000*%
%ADD23R,1.500000X1.000000*%
%ADD24RoundRect,0.218750X0.218750X0.256250X-0.218750X0.256250X-0.218750X-0.256250X0.218750X-0.256250X0*%
%ADD25FreePoly2,90.000000*%
%ADD26FreePoly3,90.000000*%
G04 APERTURE END LIST*
%TO.C,J6*%
G36*
X17461800Y-20967800D02*
G01*
X18961800Y-20967800D01*
X18961800Y-21267800D01*
X17461800Y-21267800D01*
X17461800Y-20967800D01*
G37*
%TO.C,J5*%
G36*
X11496800Y-5412800D02*
G01*
X9996800Y-5412800D01*
X9996800Y-5112800D01*
X11496800Y-5112800D01*
X11496800Y-5412800D01*
G37*
%TO.C,JP1*%
G36*
X15539300Y-13962800D02*
G01*
X14039300Y-13962800D01*
X14039300Y-12462800D01*
X15539300Y-12462800D01*
X15539300Y-13962800D01*
G37*
%TD*%
D10*
%TO.C,J8*%
X10646800Y-1662800D03*
D11*
X8646800Y-1662800D03*
X6646800Y-1662800D03*
%TD*%
D12*
%TO.C,J4*%
X17499800Y-8456800D03*
X23749800Y-8456800D03*
X17499800Y-11456800D03*
X23749800Y-11456800D03*
%TD*%
%TO.C,J7*%
X13435800Y-2360800D03*
X19685800Y-2360800D03*
X13435800Y-5360800D03*
X19685800Y-5360800D03*
%TD*%
%TO.C,J3*%
X23749800Y-17552800D03*
X17499800Y-17552800D03*
X23749800Y-14552800D03*
X17499800Y-14552800D03*
%TD*%
D13*
%TO.C,U1*%
X12496800Y-15352800D03*
X12496800Y-14082800D03*
X12496800Y-12812800D03*
X12496800Y-11542800D03*
X12496800Y-10272800D03*
D14*
X10036800Y-7812800D03*
X8766800Y-7812800D03*
X7496800Y-7812800D03*
X6226800Y-7812800D03*
X4956800Y-7812800D03*
D13*
X2496800Y-10272800D03*
X2496800Y-11542800D03*
X2496800Y-12812800D03*
X2496800Y-14082800D03*
X2496800Y-15352800D03*
D14*
X4956800Y-17812800D03*
X6226800Y-17812800D03*
X7496800Y-17812800D03*
X8766800Y-17812800D03*
X10036800Y-17812800D03*
%TD*%
D15*
%TO.C,AE1*%
X5146800Y-20587800D03*
X2146800Y-20587800D03*
D16*
X3646800Y-19087800D03*
%TD*%
D17*
%TO.C,J2*%
X12646800Y-23010300D03*
X5446800Y-23010300D03*
D18*
X6626800Y-20110300D03*
X11466800Y-20110300D03*
%TD*%
D19*
%TO.C,H2*%
X21400000Y-21400000D03*
%TD*%
%TO.C,H1*%
X4000000Y-4000000D03*
%TD*%
D20*
%TO.C,D1*%
X6883300Y-4495800D03*
X8458300Y-4495800D03*
%TD*%
D21*
%TO.C,J6*%
X18211800Y-20467800D03*
D22*
X18211800Y-21767800D03*
%TD*%
D23*
%TO.C,J5*%
X10746800Y-5912800D03*
X10746800Y-4612800D03*
%TD*%
D24*
%TO.C,D3*%
X3225900Y-6883400D03*
X1650900Y-6883400D03*
%TD*%
D12*
%TO.C,J1*%
X9117800Y-20648800D03*
X15367800Y-20648800D03*
X9117800Y-23648800D03*
X15367800Y-23648800D03*
%TD*%
D25*
%TO.C,JP1*%
X14789300Y-11912800D03*
D23*
X14789300Y-13212800D03*
D26*
X14789300Y-14512800D03*
%TD*%
M02*
