M48
; DRILL file {KiCad 9.0.5} date 2025-12-10T00:09:47-0800
; FORMAT={-:-/ absolute / inch / decimal}
; #@! TF.CreationDate,2025-12-10T00:09:47-08:00
; #@! TF.GenerationSoftware,Kicad,Pcbnew,9.0.5
; #@! TF.FileFunction,Plated,1,4,PTH
FMAT,2
INCH
; #@! TA.AperFunction,Plated,PTH,ViaDrill
T1C0.0118
; #@! TA.AperFunction,Plated,PTH,ComponentDrill
T2C0.0197
; #@! TA.AperFunction,Plated,PTH,ComponentDrill
T3C0.0256
; #@! TA.AperFunction,Plated,PTH,ComponentDrill
T4C0.0394
%
G90
G05
T1
X0.02Y-0.408
X0.02Y-0.528
X0.0396Y-0.152
X0.047Y-0.502
X0.067Y-0.952
X0.0861Y-0.4123
X0.094Y-0.652
X0.1057Y-0.8933
X0.106Y-0.6145
X0.112Y-0.552
X0.122Y-0.0279
X0.1287Y-0.0963
X0.147Y-0.7288
X0.147Y-0.9803
X0.154Y-0.242
X0.1547Y-0.4085
X0.1576Y-0.1451
X0.1614Y-0.899
X0.1662Y-0.2779
X0.1794Y-0.974
X0.192Y-0.082
X0.192Y-0.182
X0.192Y-0.232
X0.192Y-0.282
X0.192Y-0.332
X0.2074Y-0.0489
X0.2074Y-0.7057
X0.217Y-0.107
X0.217Y-0.157
X0.218Y-0.98
X0.2321Y-0.8422
X0.234Y-0.726
X0.242Y-0.032
X0.267Y-0.057
X0.292Y-0.032
X0.298Y-0.448
X0.302Y-0.7269
X0.302Y-0.7647
X0.312Y-0.35
X0.317Y-0.107
X0.317Y-0.207
X0.317Y-0.257
X0.317Y-0.307
X0.318Y-0.158
X0.3255Y-0.0489
X0.342Y-0.082
X0.342Y-0.132
X0.342Y-0.182
X0.342Y-0.232
X0.342Y-0.282
X0.342Y-0.332
X0.3629Y-0.7524
X0.397Y-0.097
X0.4119Y-0.7563
X0.4296Y-0.3576
X0.442Y-0.6772
X0.4451Y-0.7066
X0.456Y-0.37
X0.4873Y-0.3753
X0.4952Y-0.4915
X0.5033Y-0.4403
X0.5136Y-0.5362
X0.5321Y-0.4375
X0.5437Y-0.4092
X0.5718Y-0.11
X0.574Y-0.424
X0.576Y-0.466
X0.577Y-0.0352
X0.578Y-0.646
X0.587Y-0.162
X0.599Y-0.604
T2
X0.0461Y-0.7844
X0.0461Y-0.8336
X0.049Y-0.576
X0.049Y-0.6252
X0.05Y-0.2868
X0.05Y-0.336
X0.0511Y-0.0644
X0.0511Y-0.1136
T3
X0.328Y-0.85
X0.378Y-0.85
X0.428Y-0.85
X0.478Y-0.85
X0.528Y-0.85
X0.578Y-0.85
T4
X0.27Y-0.937
X0.37Y-0.937
X0.47Y-0.937
X0.57Y-0.937
M30
