%TF.GenerationSoftware,KiCad,Pcbnew,9.0.5*%
%TF.CreationDate,2025-12-10T00:03:41-08:00*%
%TF.ProjectId,camcontrol stm32,63616d63-6f6e-4747-926f-6c2073746d33,rev?*%
%TF.SameCoordinates,Original*%
%TF.FileFunction,Copper,L1,Top*%
%TF.FilePolarity,Positive*%
%FSLAX46Y46*%
G04 Gerber Fmt 4.6, Leading zero omitted, Abs format (unit mm)*
G04 Created by KiCad (PCBNEW 9.0.5) date 2025-12-10 00:03:41*
%MOMM*%
%LPD*%
G01*
G04 APERTURE LIST*
G04 Aperture macros list*
%AMRoundRect*
0 Rectangle with rounded corners*
0 $1 Rounding radius*
0 $2 $3 $4 $5 $6 $7 $8 $9 X,Y pos of 4 corners*
0 Add a 4 corners polygon primitive as box body*
4,1,4,$2,$3,$4,$5,$6,$7,$8,$9,$2,$3,0*
0 Add four circle primitives for the rounded corners*
1,1,$1+$1,$2,$3*
1,1,$1+$1,$4,$5*
1,1,$1+$1,$6,$7*
1,1,$1+$1,$8,$9*
0 Add four rect primitives between the rounded corners*
20,1,$1+$1,$2,$3,$4,$5,0*
20,1,$1+$1,$4,$5,$6,$7,0*
20,1,$1+$1,$6,$7,$8,$9,0*
20,1,$1+$1,$8,$9,$2,$3,0*%
%AMFreePoly0*
4,1,32,0.425200,0.143648,0.443648,0.125200,0.450400,0.100000,0.450000,0.098769,0.450000,-0.098769,0.450400,-0.100000,0.443648,-0.125200,0.425200,-0.143648,0.400000,-0.150400,0.398769,-0.150000,0.100000,-0.150000,0.100000,-0.448769,0.100400,-0.450000,0.093648,-0.475200,0.075200,-0.493648,0.050000,-0.500400,0.048769,-0.500000,-0.098767,-0.500000,-0.099998,-0.500400,-0.125200,-0.493649,
-0.143649,-0.475200,-0.150400,-0.449998,-0.150000,-0.448767,-0.150000,0.098767,-0.150400,0.099998,-0.143649,0.125200,-0.125200,0.143649,-0.099998,0.150400,-0.098767,0.150000,0.398769,0.150000,0.400000,0.150400,0.425200,0.143648,0.425200,0.143648,$1*%
%AMFreePoly1*
4,1,32,0.075200,0.493648,0.093648,0.475200,0.100400,0.450000,0.100000,0.448769,0.100000,0.150000,0.398769,0.150000,0.400000,0.150400,0.425200,0.143648,0.443648,0.125200,0.450400,0.100000,0.450000,0.098769,0.450000,-0.098769,0.450400,-0.100000,0.443648,-0.125200,0.425200,-0.143648,0.400000,-0.150400,0.398769,-0.150000,-0.098767,-0.150000,-0.099998,-0.150400,-0.125200,-0.143649,
-0.143649,-0.125200,-0.150400,-0.099998,-0.150000,-0.098767,-0.150000,0.448767,-0.150400,0.449998,-0.143649,0.475200,-0.125200,0.493649,-0.099998,0.500400,-0.098767,0.500000,0.048769,0.500000,0.050000,0.500400,0.075200,0.493648,0.075200,0.493648,$1*%
%AMFreePoly2*
4,1,32,0.125200,0.493648,0.143648,0.475200,0.150400,0.450000,0.150000,0.448769,0.150000,-0.098769,0.150400,-0.100000,0.143648,-0.125200,0.125200,-0.143648,0.100000,-0.150400,0.098769,-0.150000,-0.398767,-0.150000,-0.399998,-0.150400,-0.425200,-0.143649,-0.443649,-0.125200,-0.450400,-0.099998,-0.450000,-0.098767,-0.450000,0.098767,-0.450400,0.099998,-0.443649,0.125200,-0.425200,0.143649,
-0.399998,0.150400,-0.398767,0.150000,-0.100000,0.150000,-0.100000,0.448767,-0.100400,0.449998,-0.093649,0.475200,-0.075200,0.493649,-0.049998,0.500400,-0.048767,0.500000,0.098769,0.500000,0.100000,0.500400,0.125200,0.493648,0.125200,0.493648,$1*%
%AMFreePoly3*
4,1,32,0.125200,0.143648,0.143648,0.125200,0.150400,0.100000,0.150000,0.098769,0.150000,-0.448769,0.150400,-0.450000,0.143648,-0.475200,0.125200,-0.493648,0.100000,-0.500400,0.098769,-0.500000,-0.048767,-0.500000,-0.049998,-0.500400,-0.075200,-0.493649,-0.093649,-0.475200,-0.100400,-0.449998,-0.100000,-0.448767,-0.100000,-0.150000,-0.398767,-0.150000,-0.399998,-0.150400,-0.425200,-0.143649,
-0.443649,-0.125200,-0.450400,-0.099998,-0.450000,-0.098767,-0.450000,0.098767,-0.450400,0.099998,-0.443649,0.125200,-0.425200,0.143649,-0.399998,0.150400,-0.398767,0.150000,0.098769,0.150000,0.100000,0.150400,0.125200,0.143648,0.125200,0.143648,$1*%
G04 Aperture macros list end*
%TA.AperFunction,SMDPad,CuDef*%
%ADD10R,1.070000X0.600000*%
%TD*%
%TA.AperFunction,SMDPad,CuDef*%
%ADD11RoundRect,0.140000X-0.170000X0.140000X-0.170000X-0.140000X0.170000X-0.140000X0.170000X0.140000X0*%
%TD*%
%TA.AperFunction,SMDPad,CuDef*%
%ADD12RoundRect,0.135000X-0.185000X0.135000X-0.185000X-0.135000X0.185000X-0.135000X0.185000X0.135000X0*%
%TD*%
%TA.AperFunction,SMDPad,CuDef*%
%ADD13RoundRect,0.125000X-0.125000X-0.125000X0.125000X-0.125000X0.125000X0.125000X-0.125000X0.125000X0*%
%TD*%
%TA.AperFunction,SMDPad,CuDef*%
%ADD14RoundRect,0.100000X0.130000X0.100000X-0.130000X0.100000X-0.130000X-0.100000X0.130000X-0.100000X0*%
%TD*%
%TA.AperFunction,SMDPad,CuDef*%
%ADD15C,0.200000*%
%TD*%
%TA.AperFunction,SMDPad,CuDef*%
%ADD16RoundRect,0.140000X0.170000X-0.140000X0.170000X0.140000X-0.170000X0.140000X-0.170000X-0.140000X0*%
%TD*%
%TA.AperFunction,SMDPad,CuDef*%
%ADD17FreePoly0,0.000000*%
%TD*%
%TA.AperFunction,SMDPad,CuDef*%
%ADD18RoundRect,0.037500X0.262500X0.087500X-0.262500X0.087500X-0.262500X-0.087500X0.262500X-0.087500X0*%
%TD*%
%TA.AperFunction,SMDPad,CuDef*%
%ADD19FreePoly1,0.000000*%
%TD*%
%TA.AperFunction,SMDPad,CuDef*%
%ADD20RoundRect,0.045000X0.105000X1.155000X-0.105000X1.155000X-0.105000X-1.155000X0.105000X-1.155000X0*%
%TD*%
%TA.AperFunction,SMDPad,CuDef*%
%ADD21FreePoly2,0.000000*%
%TD*%
%TA.AperFunction,SMDPad,CuDef*%
%ADD22FreePoly3,0.000000*%
%TD*%
%TA.AperFunction,SMDPad,CuDef*%
%ADD23RoundRect,0.140000X-0.140000X-0.170000X0.140000X-0.170000X0.140000X0.170000X-0.140000X0.170000X0*%
%TD*%
%TA.AperFunction,SMDPad,CuDef*%
%ADD24FreePoly0,180.000000*%
%TD*%
%TA.AperFunction,SMDPad,CuDef*%
%ADD25RoundRect,0.037500X-0.262500X-0.087500X0.262500X-0.087500X0.262500X0.087500X-0.262500X0.087500X0*%
%TD*%
%TA.AperFunction,SMDPad,CuDef*%
%ADD26FreePoly1,180.000000*%
%TD*%
%TA.AperFunction,SMDPad,CuDef*%
%ADD27RoundRect,0.045000X-0.105000X-1.155000X0.105000X-1.155000X0.105000X1.155000X-0.105000X1.155000X0*%
%TD*%
%TA.AperFunction,SMDPad,CuDef*%
%ADD28FreePoly2,180.000000*%
%TD*%
%TA.AperFunction,SMDPad,CuDef*%
%ADD29FreePoly3,180.000000*%
%TD*%
%TA.AperFunction,SMDPad,CuDef*%
%ADD30RoundRect,0.135000X-0.135000X-0.185000X0.135000X-0.185000X0.135000X0.185000X-0.135000X0.185000X0*%
%TD*%
%TA.AperFunction,SMDPad,CuDef*%
%ADD31RoundRect,0.135000X0.135000X0.185000X-0.135000X0.185000X-0.135000X-0.185000X0.135000X-0.185000X0*%
%TD*%
%TA.AperFunction,SMDPad,CuDef*%
%ADD32RoundRect,0.140000X0.140000X0.170000X-0.140000X0.170000X-0.140000X-0.170000X0.140000X-0.170000X0*%
%TD*%
%TA.AperFunction,SMDPad,CuDef*%
%ADD33RoundRect,0.062500X0.062500X-0.187500X0.062500X0.187500X-0.062500X0.187500X-0.062500X-0.187500X0*%
%TD*%
%TA.AperFunction,SMDPad,CuDef*%
%ADD34R,1.600000X0.900000*%
%TD*%
%TA.AperFunction,SMDPad,CuDef*%
%ADD35RoundRect,0.135000X0.185000X-0.135000X0.185000X0.135000X-0.185000X0.135000X-0.185000X-0.135000X0*%
%TD*%
%TA.AperFunction,SMDPad,CuDef*%
%ADD36RoundRect,0.062500X0.375000X0.062500X-0.375000X0.062500X-0.375000X-0.062500X0.375000X-0.062500X0*%
%TD*%
%TA.AperFunction,SMDPad,CuDef*%
%ADD37RoundRect,0.062500X0.062500X0.375000X-0.062500X0.375000X-0.062500X-0.375000X0.062500X-0.375000X0*%
%TD*%
%TA.AperFunction,HeatsinkPad*%
%ADD38R,5.600000X5.600000*%
%TD*%
%TA.AperFunction,SMDPad,CuDef*%
%ADD39RoundRect,0.200000X0.200000X-0.250000X0.200000X0.250000X-0.200000X0.250000X-0.200000X-0.250000X0*%
%TD*%
%TA.AperFunction,SMDPad,CuDef*%
%ADD40R,1.000000X1.050000*%
%TD*%
%TA.AperFunction,SMDPad,CuDef*%
%ADD41R,1.050000X2.200000*%
%TD*%
%TA.AperFunction,SMDPad,CuDef*%
%ADD42RoundRect,0.147500X-0.147500X-0.172500X0.147500X-0.172500X0.147500X0.172500X-0.147500X0.172500X0*%
%TD*%
%TA.AperFunction,SMDPad,CuDef*%
%ADD43RoundRect,0.062500X0.062500X-0.062500X0.062500X0.062500X-0.062500X0.062500X-0.062500X-0.062500X0*%
%TD*%
%TA.AperFunction,SMDPad,CuDef*%
%ADD44RoundRect,0.150000X-0.150000X0.587500X-0.150000X-0.587500X0.150000X-0.587500X0.150000X0.587500X0*%
%TD*%
%TA.AperFunction,SMDPad,CuDef*%
%ADD45RoundRect,0.100000X-0.100000X0.130000X-0.100000X-0.130000X0.100000X-0.130000X0.100000X0.130000X0*%
%TD*%
%TA.AperFunction,ComponentPad*%
%ADD46R,1.000000X1.000000*%
%TD*%
%TA.AperFunction,ComponentPad*%
%ADD47C,1.000000*%
%TD*%
%TA.AperFunction,ComponentPad*%
%ADD48RoundRect,0.200000X-0.450000X0.200000X-0.450000X-0.200000X0.450000X-0.200000X0.450000X0.200000X0*%
%TD*%
%TA.AperFunction,ComponentPad*%
%ADD49O,1.300000X0.800000*%
%TD*%
%TA.AperFunction,ComponentPad*%
%ADD50R,1.700000X1.700000*%
%TD*%
%TA.AperFunction,ComponentPad*%
%ADD51C,1.700000*%
%TD*%
%TA.AperFunction,ViaPad*%
%ADD52C,0.600000*%
%TD*%
%TA.AperFunction,Conductor*%
%ADD53C,0.300000*%
%TD*%
%TA.AperFunction,Conductor*%
%ADD54C,0.200000*%
%TD*%
%TA.AperFunction,Conductor*%
%ADD55C,0.500000*%
%TD*%
%TA.AperFunction,Conductor*%
%ADD56C,0.400000*%
%TD*%
G04 APERTURE END LIST*
D10*
%TO.P,U4,1,GND*%
%TO.N,GND*%
X13866400Y-2794000D03*
%TO.P,U4,2,Vout*%
%TO.N,+3V3*%
X13866400Y-894000D03*
%TO.P,U4,3,Vin*%
%TO.N,Net-(D3-K)*%
X11386400Y-1844000D03*
%TD*%
D11*
%TO.P,C6,1*%
%TO.N,+3V3*%
X15060200Y-1298000D03*
%TO.P,C6,2*%
%TO.N,GND*%
X15060200Y-2258000D03*
%TD*%
D12*
%TO.P,R3,1*%
%TO.N,/PWR B SENS*%
X2540000Y-6957600D03*
%TO.P,R3,2*%
%TO.N,/PWR B*%
X2540000Y-7977600D03*
%TD*%
D13*
%TO.P,D3,1,K*%
%TO.N,Net-(D3-K)*%
X10218600Y-4495800D03*
%TO.P,D3,2,A*%
%TO.N,Net-(D3-A)*%
X12418600Y-4495800D03*
%TD*%
D14*
%TO.P,C2,1*%
%TO.N,Net-(U1-RF2)*%
X6282800Y-5027900D03*
%TO.P,C2,2*%
%TO.N,Net-(U2-RFO_out)*%
X5642800Y-5027900D03*
%TD*%
D15*
%TO.P,U2,A1,RFO_in*%
%TO.N,Net-(U2-RFO_in)*%
X6006800Y-7082800D03*
%TO.P,U2,A2,RFI_N_out*%
%TO.N,Net-(U2-RFI_N_out)*%
X6716800Y-7082800D03*
%TO.P,U2,A3,RFI_P_out*%
%TO.N,Net-(U2-RFI_P_out)*%
X7346800Y-7082800D03*
%TO.P,U2,B1,GND2*%
%TO.N,GND*%
X5666800Y-6312800D03*
%TO.P,U2,B2,GND3*%
X6506800Y-6392800D03*
%TO.P,U2,C1,RFO_out*%
%TO.N,Net-(U2-RFO_out)*%
X5666800Y-5702800D03*
%TO.P,U2,C2,GND1*%
%TO.N,GND*%
X6506800Y-5702800D03*
%TO.P,U2,C3,RFI_in*%
%TO.N,Net-(U1-RF1)*%
X7346800Y-5702800D03*
%TD*%
D16*
%TO.P,C13,1*%
%TO.N,+3V3*%
X12673200Y-11270200D03*
%TO.P,C13,2*%
%TO.N,GND*%
X12673200Y-10310200D03*
%TD*%
D11*
%TO.P,C9,1*%
%TO.N,+3V3*%
X7237600Y-18463600D03*
%TO.P,C9,2*%
%TO.N,GND*%
X7237600Y-19423600D03*
%TD*%
D17*
%TO.P,U5,1,EN/UVLO*%
%TO.N,/PRWA EN*%
X5183000Y-21869400D03*
D18*
%TO.P,U5,2,OLVO*%
%TO.N,GND*%
X5333000Y-21394400D03*
%TO.P,U5,3,AUXOFF*%
%TO.N,unconnected-(U5-AUXOFF-Pad3)*%
X5333000Y-20944400D03*
D19*
%TO.P,U5,4,~{FLT}*%
%TO.N,unconnected-(U5-~{FLT}-Pad4)*%
X5183000Y-20469400D03*
D20*
%TO.P,U5,5,IN*%
%TO.N,+12VA*%
X4683000Y-21169400D03*
%TO.P,U5,6,OUT*%
%TO.N,/PWR A SENS*%
X4183000Y-21169400D03*
D21*
%TO.P,U5,7,DVDT*%
%TO.N,unconnected-(U5-DVDT-Pad7)*%
X3683000Y-20469400D03*
D18*
%TO.P,U5,8,GND*%
%TO.N,GND*%
X3533000Y-20944400D03*
%TO.P,U5,9,ILM*%
%TO.N,Net-(U5-ILM)*%
X3533000Y-21394400D03*
D22*
%TO.P,U5,10,ITIMER*%
%TO.N,unconnected-(U5-ITIMER-Pad10)*%
X3683000Y-21869400D03*
%TD*%
D23*
%TO.P,C12,1*%
%TO.N,+12V*%
X2596000Y-2895600D03*
%TO.P,C12,2*%
%TO.N,GND*%
X3556000Y-2895600D03*
%TD*%
D24*
%TO.P,U6,1,EN/UVLO*%
%TO.N,/PWRB EN*%
X1144000Y-4249400D03*
D25*
%TO.P,U6,2,OLVO*%
%TO.N,GND*%
X994000Y-4724400D03*
%TO.P,U6,3,AUXOFF*%
%TO.N,unconnected-(U6-AUXOFF-Pad3)*%
X994000Y-5174400D03*
D26*
%TO.P,U6,4,~{FLT}*%
%TO.N,unconnected-(U6-~{FLT}-Pad4)*%
X1144000Y-5649400D03*
D27*
%TO.P,U6,5,IN*%
%TO.N,+12V*%
X1644000Y-4949400D03*
%TO.P,U6,6,OUT*%
%TO.N,/PWR B SENS*%
X2144000Y-4949400D03*
D28*
%TO.P,U6,7,DVDT*%
%TO.N,unconnected-(U6-DVDT-Pad7)*%
X2644000Y-5649400D03*
D25*
%TO.P,U6,8,GND*%
%TO.N,GND*%
X2794000Y-5174400D03*
%TO.P,U6,9,ILM*%
%TO.N,Net-(U6-ILM)*%
X2794000Y-4724400D03*
D29*
%TO.P,U6,10,ITIMER*%
%TO.N,unconnected-(U6-ITIMER-Pad10)*%
X2644000Y-4249400D03*
%TD*%
D30*
%TO.P,R10,1*%
%TO.N,Net-(D3-A)*%
X13381800Y-4191000D03*
%TO.P,R10,2*%
%TO.N,GND*%
X14401800Y-4191000D03*
%TD*%
D31*
%TO.P,R4,1*%
%TO.N,GND*%
X9095200Y-9271000D03*
%TO.P,R4,2*%
%TO.N,/BOOTSEL*%
X8075200Y-9271000D03*
%TD*%
D32*
%TO.P,C8,1*%
%TO.N,+3V3*%
X5203000Y-18511800D03*
%TO.P,C8,2*%
%TO.N,GND*%
X4243000Y-18511800D03*
%TD*%
D33*
%TO.P,U7,1,OUT1*%
%TO.N,/CURRENT SENSE A*%
X13563600Y-14854000D03*
%TO.P,U7,2,IN-1*%
%TO.N,/PWR A*%
X14063600Y-14854000D03*
%TO.P,U7,3,IN+1*%
%TO.N,/PWR A SENS*%
X14563600Y-14854000D03*
%TO.P,U7,4,GND*%
%TO.N,GND*%
X15063600Y-14854000D03*
%TO.P,U7,5,IN+2*%
%TO.N,/PWR B SENS*%
X15063600Y-12954000D03*
%TO.P,U7,6,IN-2*%
%TO.N,/PWR B*%
X14563600Y-12954000D03*
%TO.P,U7,7,OUT2*%
%TO.N,/CURRENT SENSE B*%
X14063600Y-12954000D03*
%TO.P,U7,8,VS*%
%TO.N,+3V3*%
X13563600Y-12954000D03*
D34*
%TO.P,U7,9*%
%TO.N,N/C*%
X14313600Y-13904000D03*
%TD*%
D30*
%TO.P,R1,1*%
%TO.N,Net-(D1-K)*%
X2207800Y-24180800D03*
%TO.P,R1,2*%
%TO.N,GND*%
X3227800Y-24180800D03*
%TD*%
D11*
%TO.P,C4,1*%
%TO.N,GND*%
X3566800Y-7002800D03*
%TO.P,C4,2*%
%TO.N,/VR_PA*%
X3566800Y-7962800D03*
%TD*%
D35*
%TO.P,R6,1*%
%TO.N,Net-(U5-ILM)*%
X2514600Y-21388800D03*
%TO.P,R6,2*%
%TO.N,GND*%
X2514600Y-20368800D03*
%TD*%
D32*
%TO.P,C5,1*%
%TO.N,Net-(D3-K)*%
X11044400Y-3048000D03*
%TO.P,C5,2*%
%TO.N,GND*%
X10084400Y-3048000D03*
%TD*%
D36*
%TO.P,U3,1,PB3*%
%TO.N,unconnected-(U3-PB3-Pad1)*%
X11496400Y-16645800D03*
%TO.P,U3,2,PB4*%
%TO.N,/PRWA EN*%
X11496400Y-16145800D03*
%TO.P,U3,3,PB5*%
%TO.N,unconnected-(U3-PB5-Pad3)*%
X11496400Y-15645800D03*
%TO.P,U3,4,PB6*%
%TO.N,/CAM2 RX*%
X11496400Y-15145800D03*
%TO.P,U3,5,PB7*%
%TO.N,/CAM2 TX*%
X11496400Y-14645800D03*
%TO.P,U3,6,PB8*%
%TO.N,unconnected-(U3-PB8-Pad6)*%
X11496400Y-14145800D03*
%TO.P,U3,7,PA0*%
%TO.N,/CURRENT SENSE A*%
X11496400Y-13645800D03*
%TO.P,U3,8,PA1*%
%TO.N,/CURRENT SENSE B*%
X11496400Y-13145800D03*
%TO.P,U3,9,PA2*%
%TO.N,/CAM1 RX*%
X11496400Y-12645800D03*
%TO.P,U3,10,PA3*%
%TO.N,/CAM1 TX*%
X11496400Y-12145800D03*
%TO.P,U3,11,VDD*%
%TO.N,+3V3*%
X11496400Y-11645800D03*
%TO.P,U3,12,PA4*%
%TO.N,/BATT SENSE B*%
X11496400Y-11145800D03*
D37*
%TO.P,U3,13,PA5*%
%TO.N,/PWRB EN*%
X10808900Y-10458300D03*
%TO.P,U3,14,PA6*%
%TO.N,unconnected-(U3-PA6-Pad14)*%
X10308900Y-10458300D03*
%TO.P,U3,15,PA7*%
%TO.N,unconnected-(U3-PA7-Pad15)*%
X9808900Y-10458300D03*
%TO.P,U3,16,PA8*%
%TO.N,unconnected-(U3-PA8-Pad16)*%
X9308900Y-10458300D03*
%TO.P,U3,17,PA9*%
%TO.N,unconnected-(U3-PA9-Pad17)*%
X8808900Y-10458300D03*
%TO.P,U3,18,NRST*%
%TO.N,unconnected-(U3-NRST-Pad18)*%
X8308900Y-10458300D03*
%TO.P,U3,19,PH3*%
%TO.N,/BOOTSEL*%
X7808900Y-10458300D03*
%TO.P,U3,20,RFI_P*%
%TO.N,Net-(U2-RFI_P_out)*%
X7308900Y-10458300D03*
%TO.P,U3,21,RFI_N*%
%TO.N,Net-(U2-RFI_N_out)*%
X6808900Y-10458300D03*
%TO.P,U3,22,RFO_LP*%
%TO.N,unconnected-(U3-RFO_LP-Pad22)*%
X6308900Y-10458300D03*
%TO.P,U3,23,RFO_HP*%
%TO.N,Net-(U3-RFO_HP)*%
X5808900Y-10458300D03*
%TO.P,U3,24,VR_PA*%
%TO.N,/VR_PA*%
X5308900Y-10458300D03*
D36*
%TO.P,U3,25,VDDPA*%
%TO.N,+3V3*%
X4621400Y-11145800D03*
%TO.P,U3,26,OSC_IN*%
%TO.N,/OSC_IN*%
X4621400Y-11645800D03*
%TO.P,U3,27,OSC_OUT*%
%TO.N,/OSC_OUT*%
X4621400Y-12145800D03*
%TO.P,U3,28,VDDRF*%
%TO.N,+3V3*%
X4621400Y-12645800D03*
%TO.P,U3,29,VDDRF1V55*%
%TO.N,/VFBSMPS*%
X4621400Y-13145800D03*
%TO.P,U3,30,PB0*%
%TO.N,unconnected-(U3-PB0-Pad30)*%
X4621400Y-13645800D03*
%TO.P,U3,31,PB2*%
%TO.N,unconnected-(U3-PB2-Pad31)*%
X4621400Y-14145800D03*
%TO.P,U3,32,PB12*%
%TO.N,unconnected-(U3-PB12-Pad32)*%
X4621400Y-14645800D03*
%TO.P,U3,33,PA10*%
%TO.N,unconnected-(U3-PA10-Pad33)*%
X4621400Y-15145800D03*
%TO.P,U3,34,PA11*%
%TO.N,unconnected-(U3-PA11-Pad34)*%
X4621400Y-15645800D03*
%TO.P,U3,35,PA12*%
%TO.N,/LED INDICATION*%
X4621400Y-16145800D03*
%TO.P,U3,36,PA13*%
%TO.N,/BATT SENSE A*%
X4621400Y-16645800D03*
D37*
%TO.P,U3,37,VBAT*%
%TO.N,+3V3*%
X5308900Y-17333300D03*
%TO.P,U3,38,PC13*%
%TO.N,/RF CTRL*%
X5808900Y-17333300D03*
%TO.P,U3,39,PC14*%
%TO.N,unconnected-(U3-PC14-Pad39)*%
X6308900Y-17333300D03*
%TO.P,U3,40,PC15*%
%TO.N,unconnected-(U3-PC15-Pad40)*%
X6808900Y-17333300D03*
%TO.P,U3,41,VDDA*%
%TO.N,+3V3*%
X7308900Y-17333300D03*
%TO.P,U3,42,PA14*%
%TO.N,unconnected-(U3-PA14-Pad42)*%
X7808900Y-17333300D03*
%TO.P,U3,43,PA15*%
%TO.N,unconnected-(U3-PA15-Pad43)*%
X8308900Y-17333300D03*
%TO.P,U3,44,VDD*%
%TO.N,+3V3*%
X8808900Y-17333300D03*
%TO.P,U3,45,VFBSMPS*%
%TO.N,/VFBSMPS*%
X9308900Y-17333300D03*
%TO.P,U3,46,VDDSMPS*%
%TO.N,+3V3*%
X9808900Y-17333300D03*
%TO.P,U3,47,VLXSMPS*%
%TO.N,unconnected-(U3-VLXSMPS-Pad47)*%
X10308900Y-17333300D03*
%TO.P,U3,48,VSSSMPS*%
%TO.N,GND*%
X10808900Y-17333300D03*
D38*
%TO.P,U3,49,VSS*%
X8058900Y-13895800D03*
%TD*%
D30*
%TO.P,R7,1*%
%TO.N,Net-(D2-K)*%
X531400Y-9956800D03*
%TO.P,R7,2*%
%TO.N,GND*%
X1551400Y-9956800D03*
%TD*%
D12*
%TO.P,R9,1*%
%TO.N,/BATT SENSE A*%
X3175000Y-17348200D03*
%TO.P,R9,2*%
%TO.N,GND*%
X3175000Y-18368200D03*
%TD*%
%TO.P,R2,1*%
%TO.N,Net-(U6-ILM)*%
X3810000Y-4417600D03*
%TO.P,R2,2*%
%TO.N,GND*%
X3810000Y-5437600D03*
%TD*%
D23*
%TO.P,C7,1*%
%TO.N,GND*%
X2415600Y-9017000D03*
%TO.P,C7,2*%
%TO.N,/VR_PA*%
X3375600Y-9017000D03*
%TD*%
D12*
%TO.P,R24,1*%
%TO.N,/BATT SENSE B*%
X3759200Y-709200D03*
%TO.P,R24,2*%
%TO.N,GND*%
X3759200Y-1729200D03*
%TD*%
D35*
%TO.P,R8,1*%
%TO.N,+12VA*%
X2184400Y-18368200D03*
%TO.P,R8,2*%
%TO.N,/BATT SENSE A*%
X2184400Y-17348200D03*
%TD*%
D23*
%TO.P,C18,1*%
%TO.N,/VFBSMPS*%
X9170600Y-18765800D03*
%TO.P,C18,2*%
%TO.N,GND*%
X10130600Y-18765800D03*
%TD*%
D11*
%TO.P,C11,1*%
%TO.N,+3V3*%
X3251200Y-14023400D03*
%TO.P,C11,2*%
%TO.N,GND*%
X3251200Y-14983400D03*
%TD*%
D23*
%TO.P,C14,1*%
%TO.N,+3V3*%
X11050200Y-18511800D03*
%TO.P,C14,2*%
%TO.N,GND*%
X12010200Y-18511800D03*
%TD*%
D39*
%TO.P,Y1,1,1*%
%TO.N,/OSC_OUT*%
X2818000Y-12698200D03*
%TO.P,Y1,2,2*%
%TO.N,GND*%
X2818000Y-11298200D03*
%TO.P,Y1,3,3*%
%TO.N,/OSC_IN*%
X1718000Y-11298200D03*
%TO.P,Y1,4,4*%
%TO.N,GND*%
X1718000Y-12698200D03*
%TD*%
D40*
%TO.P,AE1,1,A*%
%TO.N,Net-(AE1-A)*%
X6766800Y-2742800D03*
D41*
%TO.P,AE1,2,Shield*%
%TO.N,GND*%
X8266800Y-1242800D03*
X5266800Y-1242800D03*
%TD*%
D11*
%TO.P,C10,1*%
%TO.N,+3V3*%
X8228200Y-18463600D03*
%TO.P,C10,2*%
%TO.N,GND*%
X8228200Y-19423600D03*
%TD*%
D35*
%TO.P,R23,1*%
%TO.N,+12V*%
X2641600Y-1729200D03*
%TO.P,R23,2*%
%TO.N,/BATT SENSE B*%
X2641600Y-709200D03*
%TD*%
D42*
%TO.P,L1,1*%
%TO.N,/VR_PA*%
X4751800Y-9252800D03*
%TO.P,L1,2*%
%TO.N,Net-(U3-RFO_HP)*%
X5721800Y-9252800D03*
%TD*%
D43*
%TO.P,U1,1,RF2*%
%TO.N,Net-(U1-RF2)*%
X6392800Y-4247900D03*
%TO.P,U1,2,GND*%
%TO.N,GND*%
X6792800Y-4247900D03*
%TO.P,U1,3,RF1*%
%TO.N,Net-(U1-RF1)*%
X7192800Y-4247900D03*
%TO.P,U1,4,VDD*%
%TO.N,unconnected-(U1-VDD-Pad4)*%
X7192800Y-3847900D03*
%TO.P,U1,5,RFIN*%
%TO.N,Net-(AE1-A)*%
X6792800Y-3847900D03*
%TO.P,U1,6,CTRL*%
%TO.N,/RF CTRL*%
X6392800Y-3847900D03*
%TD*%
D11*
%TO.P,C1,1*%
%TO.N,+12VA*%
X5054600Y-23065800D03*
%TO.P,C1,2*%
%TO.N,GND*%
X5054600Y-24025800D03*
%TD*%
D31*
%TO.P,R5,1*%
%TO.N,/PWR A SENS*%
X4167600Y-23114000D03*
%TO.P,R5,2*%
%TO.N,/PWR A*%
X3147600Y-23114000D03*
%TD*%
D44*
%TO.P,Q1,1,G*%
%TO.N,Net-(D3-A)*%
X11986800Y-6451600D03*
%TO.P,Q1,2,S*%
%TO.N,Net-(D3-K)*%
X10086800Y-6451600D03*
%TO.P,Q1,3,D*%
%TO.N,Net-(JP1-C)*%
X11036800Y-8326600D03*
%TD*%
D45*
%TO.P,C3,1*%
%TO.N,Net-(U2-RFO_in)*%
X5816800Y-7752800D03*
%TO.P,C3,2*%
%TO.N,Net-(U3-RFO_HP)*%
X5816800Y-8392800D03*
%TD*%
D32*
%TO.P,C22,1*%
%TO.N,+3V3*%
X3350200Y-10007600D03*
%TO.P,C22,2*%
%TO.N,GND*%
X2390200Y-10007600D03*
%TD*%
D46*
%TO.P,J5,1,Pin_1*%
%TO.N,/CAM1 RX*%
X8331200Y-21590000D03*
D47*
%TO.P,J5,2,Pin_2*%
%TO.N,/CAM1 TX*%
X9601200Y-21590000D03*
%TO.P,J5,3,Pin_3*%
%TO.N,GND*%
X10871200Y-21590000D03*
%TO.P,J5,4,Pin_4*%
%TO.N,/CAM2 RX*%
X12141200Y-21590000D03*
%TO.P,J5,5,Pin_5*%
%TO.N,/CAM2 TX*%
X13411200Y-21590000D03*
%TO.P,J5,6,Pin_6*%
%TO.N,GND*%
X14681200Y-21590000D03*
%TD*%
D48*
%TO.P,J3,1,Pin_1*%
%TO.N,GND*%
X1270000Y-7284400D03*
D49*
%TO.P,J3,2,Pin_2*%
%TO.N,/PWR B*%
X1270000Y-8534400D03*
%TD*%
D48*
%TO.P,J1,1,Pin_1*%
%TO.N,GND*%
X1297200Y-1635600D03*
D49*
%TO.P,J1,2,Pin_2*%
%TO.N,+12V*%
X1297200Y-2885600D03*
%TD*%
D48*
%TO.P,J7,1,Pin_1*%
%TO.N,GND*%
X1170200Y-19923600D03*
D49*
%TO.P,J7,2,Pin_2*%
%TO.N,/PWR A*%
X1170200Y-21173600D03*
%TD*%
D48*
%TO.P,J4,1,Pin_1*%
%TO.N,GND*%
X1244600Y-14630400D03*
D49*
%TO.P,J4,2,Pin_2*%
%TO.N,+12VA*%
X1244600Y-15880400D03*
%TD*%
D50*
%TO.P,J2,1,Pin_1*%
%TO.N,GND*%
X14478000Y-23799800D03*
D51*
%TO.P,J2,2,Pin_2*%
%TO.N,+3V3*%
X11938000Y-23799800D03*
%TO.P,J2,3,Pin_3*%
%TO.N,/CAM1 TX*%
X9398000Y-23799800D03*
%TO.P,J2,4,Pin_4*%
%TO.N,/CAM1 RX*%
X6858000Y-23799800D03*
%TD*%
D52*
%TO.N,GND*%
X4222636Y-7059804D03*
X7416800Y-812800D03*
X8686800Y-2082800D03*
X3733800Y-18511800D03*
X4876800Y-7162800D03*
X4876800Y-5892800D03*
X8686800Y-5892800D03*
X8051800Y-7797800D03*
X1193800Y-12750800D03*
X11226800Y-17200800D03*
X8051800Y-2717800D03*
X8686800Y-7162800D03*
X8686800Y-4622800D03*
X7670800Y-19423600D03*
X8686800Y-3352800D03*
X10462558Y-19209696D03*
X2187316Y-10472555D03*
X5511800Y-2717800D03*
X14909800Y-4114800D03*
X5511800Y-3987800D03*
X4557497Y-24738707D03*
X5896032Y-21390750D03*
X15213600Y-15341600D03*
X8266800Y-1242800D03*
X10083800Y-2463800D03*
X14524200Y-2794000D03*
X8051800Y-6527800D03*
X4876800Y-8432800D03*
X4876800Y-4622800D03*
X3268922Y-2445668D03*
X4876800Y-2082800D03*
X6781800Y-1447800D03*
X8051800Y-5257800D03*
X8686800Y-8432800D03*
X5266800Y-1242800D03*
X6146800Y-812800D03*
X8051800Y-3987800D03*
X7569200Y-11379200D03*
X13811055Y-10392965D03*
%TO.N,+3V3*%
X13045583Y-13619569D03*
X5266977Y-17925924D03*
X2844800Y-14020800D03*
X14656200Y-894000D03*
X12783306Y-11183770D03*
X11304521Y-17946430D03*
X3733800Y-24900000D03*
X7670800Y-18463600D03*
X3928351Y-10375111D03*
%TO.N,/VFBSMPS*%
X9218871Y-19111200D03*
X2691257Y-15608189D03*
%TO.N,Net-(D2-K)*%
X508000Y-10363200D03*
%TO.N,Net-(JP1-C)*%
X10911132Y-9083797D03*
%TO.N,/PWR B*%
X14630400Y-11836400D03*
%TO.N,/BOOTSEL*%
X7924800Y-8890000D03*
%TO.N,/PWR A*%
X2685600Y-22689000D03*
X5537200Y-24892000D03*
%TO.N,/LED INDICATION*%
X2387600Y-16560800D03*
%TO.N,/PWR A SENS*%
X4100326Y-22835235D03*
X14681200Y-16408400D03*
%TO.N,/PWRB EN*%
X11582400Y-9398000D03*
X1005600Y-3860800D03*
%TO.N,/CAM1 TX*%
X13514828Y-11113571D03*
%TO.N,/CAM1 RX*%
X12577454Y-12483770D03*
%TO.N,Net-(D1-K)*%
X1701800Y-24180800D03*
%TO.N,/PWR B SENS*%
X3911776Y-6146248D03*
X14579600Y-10769600D03*
%TO.N,/BATT SENSE B*%
X12377789Y-9533787D03*
X3098800Y-709200D03*
%TO.N,/RF CTRL*%
X4004249Y-3685509D03*
X5943600Y-18440400D03*
X508000Y-13411200D03*
%TD*%
D53*
%TO.N,GND*%
X3546800Y-5174400D02*
X3810000Y-5437600D01*
X3759200Y-1729200D02*
X3759200Y-1955390D01*
D54*
X5892382Y-21394400D02*
X5896032Y-21390750D01*
X7237600Y-19423600D02*
X7670800Y-19423600D01*
D53*
X4129999Y-5437600D02*
X4222636Y-5530237D01*
D54*
X4368800Y-24180800D02*
X4557497Y-24369497D01*
X3090200Y-20944400D02*
X3533000Y-20944400D01*
D53*
X994000Y-4724400D02*
X584200Y-4724400D01*
D54*
X10972800Y-19052800D02*
X11469200Y-19052800D01*
X14401800Y-4191000D02*
X14833600Y-4191000D01*
X11469200Y-19052800D02*
X12010200Y-18511800D01*
X2415600Y-9017000D02*
X2415600Y-9982200D01*
X3227800Y-24180800D02*
X4368800Y-24180800D01*
D53*
X4222636Y-5530237D02*
X4222636Y-5603220D01*
X2794000Y-5174400D02*
X3546800Y-5174400D01*
D54*
X2898200Y-14630400D02*
X3251200Y-14983400D01*
X4899600Y-24180800D02*
X5054600Y-24025800D01*
X10619454Y-19052800D02*
X10462558Y-19209696D01*
D53*
X3810000Y-5437600D02*
X4129999Y-5437600D01*
D54*
X4243000Y-18511800D02*
X3318600Y-18511800D01*
D55*
X14818600Y-2499600D02*
X15060200Y-2258000D01*
D53*
X10084400Y-2464400D02*
X10083800Y-2463800D01*
X13728290Y-10310200D02*
X13811055Y-10392965D01*
X4527055Y-6755385D02*
X4222636Y-7059804D01*
D54*
X4557497Y-24369497D02*
X4557497Y-24738707D01*
X4368800Y-24180800D02*
X4899600Y-24180800D01*
X4165632Y-7002800D02*
X4222636Y-7059804D01*
X3556000Y-2732746D02*
X3268922Y-2445668D01*
D53*
X3759200Y-1955390D02*
X3268922Y-2445668D01*
D54*
X7670800Y-19423600D02*
X8228200Y-19423600D01*
D53*
X4527055Y-5907639D02*
X4527055Y-6755385D01*
X584200Y-4724400D02*
X351000Y-4957600D01*
D54*
X3556000Y-2895600D02*
X3556000Y-2732746D01*
X11094300Y-17333300D02*
X11226800Y-17200800D01*
X15063600Y-14854000D02*
X15063600Y-15191600D01*
X1718000Y-12698200D02*
X1246400Y-12698200D01*
X10972800Y-19052800D02*
X10619454Y-19052800D01*
X2415600Y-9982200D02*
X2390200Y-10007600D01*
X1244600Y-14630400D02*
X2898200Y-14630400D01*
X2514600Y-20368800D02*
X3090200Y-20944400D01*
X2339400Y-9956800D02*
X2390200Y-10007600D01*
X1551400Y-9956800D02*
X2339400Y-9956800D01*
X14833600Y-4191000D02*
X14909800Y-4114800D01*
X5333000Y-21394400D02*
X5892382Y-21394400D01*
D55*
X13866400Y-2794000D02*
X14524200Y-2794000D01*
D54*
X2514600Y-20368800D02*
X1615400Y-20368800D01*
X2818000Y-11103240D02*
X2187316Y-10472555D01*
X3318600Y-18511800D02*
X3175000Y-18368200D01*
D53*
X4222636Y-5603220D02*
X4527055Y-5907639D01*
D54*
X10808900Y-17333300D02*
X11094300Y-17333300D01*
X10417600Y-19052800D02*
X10972800Y-19052800D01*
X1246400Y-12698200D02*
X1193800Y-12750800D01*
X15063600Y-15191600D02*
X15213600Y-15341600D01*
X1615400Y-20368800D02*
X1170200Y-19923600D01*
D53*
X351000Y-6455200D02*
X1170200Y-7274400D01*
D54*
X3566800Y-7002800D02*
X4165632Y-7002800D01*
D53*
X351000Y-4957600D02*
X351000Y-6455200D01*
D55*
X14524200Y-2794000D02*
X14818600Y-2499600D01*
D53*
X12673200Y-10310200D02*
X13728290Y-10310200D01*
D54*
X10130600Y-18765800D02*
X10417600Y-19052800D01*
X2818000Y-11298200D02*
X2818000Y-11103240D01*
D53*
X10084400Y-3048000D02*
X10084400Y-2464400D01*
D54*
%TO.N,+3V3*%
X5308900Y-18405900D02*
X5203000Y-18511800D01*
X2847400Y-14023400D02*
X2844800Y-14020800D01*
X8116099Y-18463600D02*
X8808900Y-17770799D01*
X7308900Y-17333300D02*
X7308900Y-18392300D01*
X13045583Y-13472017D02*
X13045583Y-13619569D01*
X10249901Y-18211800D02*
X10750200Y-18211800D01*
X7670800Y-18463600D02*
X7237600Y-18463600D01*
X13563600Y-12954000D02*
X13045583Y-13472017D01*
X7670800Y-18463600D02*
X8116099Y-18463600D01*
X3251200Y-14023400D02*
X3251200Y-13578501D01*
X12759630Y-11183770D02*
X12783306Y-11183770D01*
X9808900Y-17770799D02*
X10249901Y-18211800D01*
X3251200Y-14023400D02*
X2847400Y-14023400D01*
X11050200Y-18511800D02*
X11050200Y-18200751D01*
D55*
X14656200Y-894000D02*
X15060200Y-1298000D01*
D54*
X5308900Y-17333300D02*
X5308900Y-18405900D01*
X9808900Y-17333300D02*
X9808900Y-17770799D01*
X11496400Y-11645800D02*
X11933899Y-11645800D01*
D55*
X13866400Y-894000D02*
X14656200Y-894000D01*
D54*
X3350200Y-10007600D02*
X3350200Y-10317599D01*
X8808900Y-17770799D02*
X8808900Y-17333300D01*
X12673200Y-11270200D02*
X12759630Y-11183770D01*
X3350200Y-10317599D02*
X3407712Y-10375111D01*
X11933899Y-11645800D02*
X12309499Y-11270200D01*
X3251200Y-13578501D02*
X4183901Y-12645800D01*
X3407712Y-10375111D02*
X3928351Y-10375111D01*
X11050200Y-18200751D02*
X11304521Y-17946430D01*
X4621400Y-11145800D02*
X3928351Y-10452751D01*
X4183901Y-12645800D02*
X4621400Y-12645800D01*
X10750200Y-18211800D02*
X11050200Y-18511800D01*
X12309499Y-11270200D02*
X12673200Y-11270200D01*
X3928351Y-10452751D02*
X3928351Y-10375111D01*
X7308900Y-18392300D02*
X7237600Y-18463600D01*
D55*
%TO.N,Net-(D3-K)*%
X10086800Y-6451600D02*
X10086800Y-4627600D01*
X10086800Y-4627600D02*
X10218600Y-4495800D01*
X11044400Y-3048000D02*
X11044400Y-2186000D01*
X10218600Y-4495800D02*
X11044400Y-3670000D01*
X11044400Y-3670000D02*
X11044400Y-3048000D01*
X11044400Y-2186000D02*
X11386400Y-1844000D01*
D53*
%TO.N,+12VA*%
X4683000Y-21169400D02*
X4683000Y-22439844D01*
X4683000Y-19542000D02*
X4622800Y-19481800D01*
D55*
X1244600Y-15880400D02*
X1244600Y-17533702D01*
D53*
X4683000Y-22439844D02*
X5054600Y-22811444D01*
X5054600Y-22811444D02*
X5054600Y-23065800D01*
D55*
X3192698Y-19481800D02*
X4622800Y-19481800D01*
D53*
X4683000Y-21169400D02*
X4683000Y-19542000D01*
D55*
X1244600Y-17533702D02*
X3192698Y-19481800D01*
D54*
%TO.N,/VFBSMPS*%
X9170600Y-18765800D02*
X9170600Y-19062929D01*
X3792200Y-15308600D02*
X3492611Y-15608189D01*
X3492611Y-15608189D02*
X2691257Y-15608189D01*
X4183901Y-13145800D02*
X3792200Y-13537501D01*
X9308900Y-17333300D02*
X9308900Y-18627500D01*
X9308900Y-18627500D02*
X9170600Y-18765800D01*
X4621400Y-13145800D02*
X4183901Y-13145800D01*
X3792200Y-13537501D02*
X3792200Y-15308600D01*
X9170600Y-19062929D02*
X9218871Y-19111200D01*
D53*
%TO.N,+12V*%
X2586000Y-2885600D02*
X2596000Y-2895600D01*
X2596000Y-1774800D02*
X2641600Y-1729200D01*
X1644000Y-3232400D02*
X1644000Y-4949400D01*
X1297200Y-2885600D02*
X2586000Y-2885600D01*
X2596000Y-2895600D02*
X2596000Y-1774800D01*
X1297200Y-2885600D02*
X1644000Y-3232400D01*
D56*
%TO.N,Net-(U3-RFO_HP)*%
X5816800Y-10458300D02*
X5816800Y-8392800D01*
D54*
%TO.N,/VR_PA*%
X3566800Y-7962800D02*
X3566800Y-8825800D01*
X3566800Y-8825800D02*
X3375600Y-9017000D01*
X4751800Y-9252800D02*
X3611400Y-9252800D01*
X5308900Y-10458300D02*
X5308900Y-9809900D01*
X3611400Y-9252800D02*
X3375600Y-9017000D01*
X5308900Y-9809900D02*
X4751800Y-9252800D01*
D55*
%TO.N,/PWR B*%
X2096426Y-7977600D02*
X2540000Y-7977600D01*
X1270000Y-8534400D02*
X1539626Y-8534400D01*
D54*
X14563600Y-11903200D02*
X14630400Y-11836400D01*
D55*
X1539626Y-8534400D02*
X2096426Y-7977600D01*
D54*
X14563600Y-12954000D02*
X14563600Y-11903200D01*
%TO.N,/BOOTSEL*%
X7808900Y-9537300D02*
X8075200Y-9271000D01*
X7808900Y-10458300D02*
X7808900Y-9537300D01*
%TO.N,Net-(U2-RFI_P_out)*%
X7308900Y-7120700D02*
X7346800Y-7082800D01*
X7308900Y-10458300D02*
X7308900Y-7120700D01*
D55*
%TO.N,/PWR A*%
X2685600Y-22689000D02*
X1170200Y-21173600D01*
X3110600Y-23114000D02*
X3147600Y-23114000D01*
X2685600Y-22689000D02*
X3110600Y-23114000D01*
D54*
X13049000Y-24259992D02*
X13049000Y-22815800D01*
X5556000Y-24910800D02*
X12398192Y-24910800D01*
X15442200Y-22302200D02*
X15442200Y-20523200D01*
X15290800Y-22453600D02*
X15442200Y-22302200D01*
X13049000Y-22815800D02*
X13411200Y-22453600D01*
X5537200Y-24892000D02*
X5556000Y-24910800D01*
X15442200Y-20523200D02*
X14063600Y-19144600D01*
X12398192Y-24910800D02*
X13049000Y-24259992D01*
X13411200Y-22453600D02*
X15290800Y-22453600D01*
X14063600Y-19144600D02*
X14063600Y-14854000D01*
D53*
%TO.N,Net-(U6-ILM)*%
X2794000Y-4724400D02*
X3503200Y-4724400D01*
X3503200Y-4724400D02*
X3810000Y-4417600D01*
D54*
%TO.N,/LED INDICATION*%
X4621400Y-16145800D02*
X2802600Y-16145800D01*
X2802600Y-16145800D02*
X2387600Y-16560800D01*
D53*
%TO.N,/PWR A SENS*%
X4183000Y-23098600D02*
X4167600Y-23114000D01*
X4183000Y-21169400D02*
X4183000Y-23098600D01*
D54*
X14681200Y-16408400D02*
X14681200Y-14971600D01*
X14681200Y-14971600D02*
X14563600Y-14854000D01*
%TO.N,Net-(U5-ILM)*%
X3533000Y-21394400D02*
X2520200Y-21394400D01*
X2520200Y-21394400D02*
X2514600Y-21388800D01*
%TO.N,Net-(U2-RFI_N_out)*%
X6808900Y-10458300D02*
X6808900Y-7174900D01*
X6808900Y-7174900D02*
X6716800Y-7082800D01*
%TO.N,/OSC_IN*%
X1718000Y-11298200D02*
X2408600Y-11988800D01*
X4167010Y-11645800D02*
X4621400Y-11645800D01*
X2408600Y-11988800D02*
X3824010Y-11988800D01*
X3824010Y-11988800D02*
X4167010Y-11645800D01*
%TO.N,/OSC_OUT*%
X4133700Y-12145800D02*
X4621400Y-12145800D01*
X3581300Y-12698200D02*
X4133700Y-12145800D01*
X2818000Y-12698200D02*
X3581300Y-12698200D01*
%TO.N,/PRWA EN*%
X6465954Y-22024400D02*
X8729154Y-19761200D01*
X12598400Y-16810301D02*
X11933899Y-16145800D01*
X5338000Y-22024400D02*
X6465954Y-22024400D01*
X12598400Y-18897600D02*
X12598400Y-16810301D01*
X11734800Y-19761200D02*
X12598400Y-18897600D01*
X11933899Y-16145800D02*
X11496400Y-16145800D01*
X8729154Y-19761200D02*
X11734800Y-19761200D01*
X5183000Y-21869400D02*
X5338000Y-22024400D01*
D53*
%TO.N,/PWRB EN*%
X1005600Y-4111000D02*
X1005600Y-3860800D01*
D54*
X11582400Y-9398000D02*
X11582400Y-9684800D01*
X11582400Y-9684800D02*
X10808900Y-10458300D01*
D53*
X1144000Y-4249400D02*
X1005600Y-4111000D01*
D54*
%TO.N,Net-(D3-A)*%
X11986800Y-6451600D02*
X11986800Y-4927600D01*
X12723400Y-4191000D02*
X12418600Y-4495800D01*
X13381800Y-4191000D02*
X12723400Y-4191000D01*
X11986800Y-4927600D02*
X12418600Y-4495800D01*
%TO.N,/CURRENT SENSE A*%
X12152575Y-13645800D02*
X11496400Y-13645800D01*
X13360775Y-14854000D02*
X12152575Y-13645800D01*
X13563600Y-14854000D02*
X13360775Y-14854000D01*
%TO.N,/CAM1 TX*%
X11933899Y-12145800D02*
X12221950Y-11857749D01*
X9601200Y-23596600D02*
X9398000Y-23799800D01*
X11496400Y-12145800D02*
X11933899Y-12145800D01*
X9601200Y-21590000D02*
X9601200Y-23596600D01*
X12221950Y-11857749D02*
X13319331Y-11857749D01*
X13514828Y-11662252D02*
X13514828Y-11113571D01*
X13319331Y-11857749D02*
X13514828Y-11662252D01*
%TO.N,/CAM1 RX*%
X12415424Y-12645800D02*
X12577454Y-12483770D01*
X6858000Y-23799800D02*
X8331200Y-22326600D01*
X11496400Y-12645800D02*
X12415424Y-12645800D01*
X8331200Y-22326600D02*
X8331200Y-21590000D01*
%TO.N,Net-(D1-K)*%
X2207800Y-24180800D02*
X1701800Y-24180800D01*
%TO.N,/CAM2 RX*%
X13157200Y-20574000D02*
X13157200Y-16369101D01*
X13157200Y-16369101D02*
X11933899Y-15145800D01*
X12141200Y-21590000D02*
X13157200Y-20574000D01*
X11933899Y-15145800D02*
X11496400Y-15145800D01*
%TO.N,/CAM2 TX*%
X11933899Y-14645800D02*
X13614400Y-16326301D01*
X13614400Y-21386800D02*
X13411200Y-21590000D01*
X11496400Y-14645800D02*
X11933899Y-14645800D01*
X13614400Y-16326301D02*
X13614400Y-21386800D01*
%TO.N,/CURRENT SENSE B*%
X14063600Y-12704001D02*
X14063600Y-12954000D01*
X13832599Y-12473000D02*
X14063600Y-12704001D01*
X11496400Y-13145800D02*
X12704996Y-13145800D01*
X12704996Y-13145800D02*
X13377796Y-12473000D01*
X13377796Y-12473000D02*
X13832599Y-12473000D01*
%TO.N,/PWR B SENS*%
X15341600Y-12676000D02*
X15341600Y-11531600D01*
X15063600Y-12954000D02*
X15341600Y-12676000D01*
D53*
X3155420Y-6194180D02*
X3647146Y-6194180D01*
X3692024Y-6239058D02*
X3785586Y-6239058D01*
X2466800Y-6882800D02*
X3155420Y-6194180D01*
X2144000Y-4949400D02*
X2144000Y-6560000D01*
X2144000Y-6560000D02*
X2466800Y-6882800D01*
X3785586Y-6239058D02*
X3878396Y-6146248D01*
D54*
X15341600Y-11531600D02*
X14579600Y-10769600D01*
D53*
X3878396Y-6146248D02*
X3911776Y-6146248D01*
X3647146Y-6194180D02*
X3692024Y-6239058D01*
D54*
%TO.N,/BATT SENSE A*%
X2184400Y-17348200D02*
X3919000Y-17348200D01*
X3919000Y-17348200D02*
X4621400Y-16645800D01*
%TO.N,/BATT SENSE B*%
X2641600Y-709200D02*
X3098800Y-709200D01*
X3098800Y-709200D02*
X3759200Y-709200D01*
X11496400Y-10415176D02*
X12377789Y-9533787D01*
X11496400Y-11145800D02*
X11496400Y-10415176D01*
%TO.N,Net-(U1-RF1)*%
X7205378Y-4260478D02*
X7192800Y-4247900D01*
X7346800Y-4601900D02*
X7346800Y-5702800D01*
X7205378Y-4260478D02*
G75*
G02*
X7346783Y-4601899I-341478J-341422D01*
G01*
%TO.N,/RF CTRL*%
X5808900Y-17333300D02*
X5808900Y-18305700D01*
X6392800Y-3847900D02*
X6392800Y-3722901D01*
X6022699Y-3352800D02*
X5257800Y-3352800D01*
X5054600Y-3556000D02*
X4133758Y-3556000D01*
X5808900Y-18305700D02*
X5943600Y-18440400D01*
X5257800Y-3352800D02*
X5054600Y-3556000D01*
X4133758Y-3556000D02*
X4004249Y-3685509D01*
X6392800Y-3722901D02*
X6022699Y-3352800D01*
%TD*%
%TA.AperFunction,Conductor*%
%TO.N,Net-(AE1-A)*%
G36*
X7209839Y-2242485D02*
G01*
X7255594Y-2295289D01*
X7266800Y-2346800D01*
X7266800Y-3233898D01*
X7254020Y-3288725D01*
X7130606Y-3539078D01*
X7083309Y-3590505D01*
X7065627Y-3597348D01*
X7066280Y-3598923D01*
X7054995Y-3603597D01*
X6991154Y-3646254D01*
X6948497Y-3710096D01*
X6948496Y-3710097D01*
X6937300Y-3766387D01*
X6937300Y-3848800D01*
X6934749Y-3857485D01*
X6936038Y-3866447D01*
X6925059Y-3890487D01*
X6917615Y-3915839D01*
X6910774Y-3921766D01*
X6907013Y-3930003D01*
X6884778Y-3944292D01*
X6864811Y-3961594D01*
X6854296Y-3963881D01*
X6848235Y-3967777D01*
X6813300Y-3972800D01*
X6772300Y-3972800D01*
X6705261Y-3953115D01*
X6659506Y-3900311D01*
X6648300Y-3848800D01*
X6648300Y-3766391D01*
X6648299Y-3766387D01*
X6637102Y-3710095D01*
X6634312Y-3703360D01*
X6628263Y-3691807D01*
X6623301Y-3679227D01*
X6623301Y-3677052D01*
X6605754Y-3634692D01*
X6588209Y-3592333D01*
X6523368Y-3527492D01*
X6516303Y-3520427D01*
X6516296Y-3520421D01*
X6303119Y-3307244D01*
X6269634Y-3245921D01*
X6266800Y-3219563D01*
X6266800Y-2346800D01*
X6286485Y-2279761D01*
X6339289Y-2234006D01*
X6390800Y-2222800D01*
X7142800Y-2222800D01*
X7209839Y-2242485D01*
G37*
%TD.AperFunction*%
%TD*%
%TA.AperFunction,Conductor*%
%TO.N,Net-(U2-RFO_in)*%
G36*
X6046183Y-7082107D02*
G01*
X6085767Y-7139682D01*
X6088850Y-7205780D01*
X6016800Y-7522800D01*
X6016800Y-7522804D01*
X6016800Y-7858800D01*
X6014249Y-7867485D01*
X6015538Y-7876447D01*
X6004559Y-7900487D01*
X5997115Y-7925839D01*
X5990274Y-7931766D01*
X5986513Y-7940003D01*
X5964278Y-7954292D01*
X5944311Y-7971594D01*
X5933796Y-7973881D01*
X5927735Y-7977777D01*
X5892800Y-7982800D01*
X5740800Y-7982800D01*
X5673761Y-7963115D01*
X5628006Y-7910311D01*
X5616800Y-7858800D01*
X5616800Y-7557124D01*
X5634451Y-7493360D01*
X5861586Y-7114532D01*
X5912940Y-7067161D01*
X5981756Y-7055072D01*
X6046183Y-7082107D01*
G37*
%TD.AperFunction*%
%TD*%
%TA.AperFunction,Conductor*%
%TO.N,Net-(U2-RFO_out)*%
G36*
X5819839Y-4842485D02*
G01*
X5865594Y-4895289D01*
X5876800Y-4946800D01*
X5876800Y-5120880D01*
X5874530Y-5144499D01*
X5781642Y-5623225D01*
X5749548Y-5685288D01*
X5688995Y-5720147D01*
X5619209Y-5716735D01*
X5562346Y-5676136D01*
X5540281Y-5632232D01*
X5411169Y-5158818D01*
X5406800Y-5126192D01*
X5406800Y-4946800D01*
X5426485Y-4879761D01*
X5479289Y-4834006D01*
X5530800Y-4822800D01*
X5752800Y-4822800D01*
X5819839Y-4842485D01*
G37*
%TD.AperFunction*%
%TD*%
%TA.AperFunction,Conductor*%
%TO.N,Net-(U1-RF2)*%
G36*
X6463657Y-4183141D02*
G01*
X6510005Y-4235425D01*
X6521800Y-4288207D01*
X6521800Y-5088800D01*
X6502115Y-5155839D01*
X6449311Y-5201594D01*
X6397800Y-5212800D01*
X6170211Y-5212800D01*
X6161808Y-5210332D01*
X6153148Y-5211620D01*
X6128799Y-5200640D01*
X6103172Y-5193115D01*
X6097438Y-5186498D01*
X6089455Y-5182898D01*
X6074906Y-5160494D01*
X6057417Y-5140311D01*
X6055171Y-5130105D01*
X6051402Y-5124301D01*
X6046212Y-5089390D01*
X6046209Y-5088800D01*
X6045294Y-4896540D01*
X6051241Y-4858005D01*
X6246466Y-4250637D01*
X6285721Y-4192838D01*
X6349994Y-4165437D01*
X6363106Y-4164591D01*
X6396401Y-4164215D01*
X6463657Y-4183141D01*
G37*
%TD.AperFunction*%
%TD*%
%TA.AperFunction,Conductor*%
%TO.N,GND*%
G36*
X8903374Y-220185D02*
G01*
X8949129Y-272989D01*
X8960333Y-324132D01*
X8976777Y-5898206D01*
X8987633Y-9578434D01*
X8968147Y-9645531D01*
X8915478Y-9691442D01*
X8863634Y-9702800D01*
X8582904Y-9702800D01*
X8515865Y-9683115D01*
X8470110Y-9630311D01*
X8460166Y-9561153D01*
X8461287Y-9554609D01*
X8472120Y-9500142D01*
X8475700Y-9482147D01*
X8475699Y-9059854D01*
X8460295Y-8982407D01*
X8401615Y-8894585D01*
X8401613Y-8894582D01*
X8392980Y-8885949D01*
X8394325Y-8884603D01*
X8359194Y-8842566D01*
X8353116Y-8825175D01*
X8325962Y-8723833D01*
X8269286Y-8625667D01*
X8189133Y-8545514D01*
X8189132Y-8545513D01*
X8189129Y-8545511D01*
X8090969Y-8488839D01*
X8090968Y-8488838D01*
X8090967Y-8488838D01*
X7981476Y-8459500D01*
X7868124Y-8459500D01*
X7758633Y-8488838D01*
X7758628Y-8488840D01*
X7725398Y-8508025D01*
X7657497Y-8524496D01*
X7591471Y-8501643D01*
X7548281Y-8446721D01*
X7539400Y-8400637D01*
X7539400Y-7244814D01*
X7541025Y-7236639D01*
X7540110Y-7231564D01*
X7548833Y-7197383D01*
X7548837Y-7197366D01*
X7551104Y-7191893D01*
X7561601Y-7166550D01*
X7577301Y-7128649D01*
X7577301Y-7036950D01*
X7568182Y-7014935D01*
X7553501Y-6979492D01*
X7542209Y-6952233D01*
X7542209Y-6952232D01*
X7477368Y-6887391D01*
X7477367Y-6887390D01*
X7442277Y-6872855D01*
X7392652Y-6852299D01*
X7392650Y-6852299D01*
X7300951Y-6852299D01*
X7300949Y-6852299D01*
X7258591Y-6869845D01*
X7216230Y-6887391D01*
X7178333Y-6925289D01*
X7178332Y-6925291D01*
X7151394Y-6952229D01*
X7119479Y-6984143D01*
X7058155Y-7017627D01*
X6988463Y-7012641D01*
X6944118Y-6984141D01*
X6932403Y-6972426D01*
X6932396Y-6972420D01*
X6929649Y-6969673D01*
X6912209Y-6952232D01*
X6847368Y-6887391D01*
X6847367Y-6887390D01*
X6812277Y-6872855D01*
X6762652Y-6852299D01*
X6762650Y-6852299D01*
X6670950Y-6852299D01*
X6670948Y-6852299D01*
X6670946Y-6852300D01*
X6621325Y-6872852D01*
X6621326Y-6872853D01*
X6586232Y-6887390D01*
X6521390Y-6952233D01*
X6510099Y-6979492D01*
X6486299Y-7036948D01*
X6486299Y-7128652D01*
X6506854Y-7178275D01*
X6515239Y-7198519D01*
X6515241Y-7198522D01*
X6521391Y-7213368D01*
X6547300Y-7239277D01*
X6551861Y-7245075D01*
X6562215Y-7270930D01*
X6575566Y-7295379D01*
X6575026Y-7302919D01*
X6577837Y-7309937D01*
X6578400Y-7321739D01*
X6578400Y-9578800D01*
X6558715Y-9645839D01*
X6505911Y-9691594D01*
X6454400Y-9702800D01*
X6271300Y-9702800D01*
X6204261Y-9683115D01*
X6158506Y-9630311D01*
X6147300Y-9578800D01*
X6147300Y-8339300D01*
X6147299Y-8339286D01*
X6147299Y-8240100D01*
X6147299Y-8240098D01*
X6133926Y-8172863D01*
X6113096Y-8141689D01*
X6092219Y-8075014D01*
X6098216Y-8034642D01*
X6103519Y-8018242D01*
X6133926Y-7972737D01*
X6147300Y-7905503D01*
X6147299Y-7893566D01*
X6152300Y-7858800D01*
X6152300Y-7551917D01*
X6155384Y-7524436D01*
X6156168Y-7520989D01*
X6220981Y-7235810D01*
X6224203Y-7199467D01*
X6223849Y-7191890D01*
X6233154Y-7138656D01*
X6237300Y-7128649D01*
X6237300Y-7036951D01*
X6202209Y-6952232D01*
X6137368Y-6887391D01*
X6137364Y-6887389D01*
X6137362Y-6887388D01*
X6052652Y-6852301D01*
X6052650Y-6852300D01*
X6052649Y-6852300D01*
X5960951Y-6852300D01*
X5960949Y-6852300D01*
X5960947Y-6852301D01*
X5876237Y-6887388D01*
X5876232Y-6887391D01*
X5811389Y-6952233D01*
X5805567Y-6966290D01*
X5775089Y-7009975D01*
X5769713Y-7014934D01*
X5745372Y-7044856D01*
X5745368Y-7044861D01*
X5518237Y-7423684D01*
X5518234Y-7423689D01*
X5503862Y-7457208D01*
X5503861Y-7457210D01*
X5486211Y-7520972D01*
X5486208Y-7520989D01*
X5481301Y-7557109D01*
X5481300Y-7557120D01*
X5481300Y-7557124D01*
X5481300Y-7858800D01*
X5484397Y-7887604D01*
X5486300Y-7896356D01*
X5486301Y-7905502D01*
X5499674Y-7972737D01*
X5529646Y-8017593D01*
X5534904Y-8033191D01*
X5535660Y-8052321D01*
X5541380Y-8070588D01*
X5537012Y-8086507D01*
X5537665Y-8103006D01*
X5527959Y-8119506D01*
X5522895Y-8137968D01*
X5520503Y-8141689D01*
X5499674Y-8172861D01*
X5499672Y-8172866D01*
X5486300Y-8240094D01*
X5486300Y-8734464D01*
X5466615Y-8801503D01*
X5447496Y-8824562D01*
X5431954Y-8839258D01*
X5414471Y-8846978D01*
X5340978Y-8920471D01*
X5337328Y-8928735D01*
X5321996Y-8943234D01*
X5302192Y-8953339D01*
X5284971Y-8967397D01*
X5271678Y-8968910D01*
X5259761Y-8974992D01*
X5237639Y-8972786D01*
X5215550Y-8975302D01*
X5203548Y-8969388D01*
X5190236Y-8968061D01*
X5172817Y-8954245D01*
X5152875Y-8944419D01*
X5136278Y-8925265D01*
X5135494Y-8924643D01*
X5135334Y-8924175D01*
X5134502Y-8923215D01*
X5132622Y-8920471D01*
X5059129Y-8846978D01*
X4964052Y-8804997D01*
X4940807Y-8802300D01*
X4940804Y-8802300D01*
X4694697Y-8802300D01*
X4627658Y-8782615D01*
X4581903Y-8729811D01*
X4570699Y-8677568D01*
X4598827Y-3909768D01*
X4618907Y-3842846D01*
X4671980Y-3797404D01*
X4722825Y-3786500D01*
X5008748Y-3786500D01*
X5008750Y-3786501D01*
X5100450Y-3786501D01*
X5150076Y-3765944D01*
X5185168Y-3751409D01*
X5250009Y-3686568D01*
X5250009Y-3686567D01*
X5267443Y-3669133D01*
X5267452Y-3669123D01*
X5316960Y-3619617D01*
X5378283Y-3586133D01*
X5404639Y-3583300D01*
X5875861Y-3583300D01*
X5942900Y-3602985D01*
X5963542Y-3619619D01*
X6100981Y-3757058D01*
X6134466Y-3818381D01*
X6137300Y-3844739D01*
X6137300Y-3929412D01*
X6148497Y-3985705D01*
X6153172Y-3996991D01*
X6150057Y-3998280D01*
X6164901Y-4045692D01*
X6160396Y-4081093D01*
X6155071Y-4100256D01*
X6148498Y-4110095D01*
X6138818Y-4158759D01*
X6137577Y-4163227D01*
X6135632Y-4166352D01*
X6129553Y-4184391D01*
X6117466Y-4209171D01*
X6117464Y-4209178D01*
X5984444Y-4623016D01*
X5983421Y-4624521D01*
X5983324Y-4626341D01*
X5963859Y-4653325D01*
X5945189Y-4680816D01*
X5943514Y-4681529D01*
X5942449Y-4683007D01*
X5911496Y-4695179D01*
X5880917Y-4708217D01*
X5878582Y-4708124D01*
X5877427Y-4708579D01*
X5842184Y-4706685D01*
X5835563Y-4705367D01*
X5824841Y-4702731D01*
X5790978Y-4692789D01*
X5790972Y-4692788D01*
X5752801Y-4687300D01*
X5752800Y-4687300D01*
X5530800Y-4687300D01*
X5530791Y-4687300D01*
X5501997Y-4690396D01*
X5450484Y-4701603D01*
X5450479Y-4701605D01*
X5438294Y-4707704D01*
X5422863Y-4710774D01*
X5395090Y-4729330D01*
X5390559Y-4731599D01*
X5388328Y-4733089D01*
X5380277Y-4739228D01*
X5346620Y-4761717D01*
X5346615Y-4761722D01*
X5337978Y-4774648D01*
X5333720Y-4781019D01*
X5332980Y-4781694D01*
X5329961Y-4786644D01*
X5328521Y-4788800D01*
X5328514Y-4788812D01*
X5295674Y-4837961D01*
X5295672Y-4837967D01*
X5292838Y-4852214D01*
X5290199Y-4862951D01*
X5276789Y-4908621D01*
X5276788Y-4908627D01*
X5271300Y-4946798D01*
X5271300Y-5126210D01*
X5272498Y-5144172D01*
X5276870Y-5176815D01*
X5280439Y-5194453D01*
X5280445Y-5194479D01*
X5404414Y-5649035D01*
X5409555Y-5667884D01*
X5419211Y-5693079D01*
X5423093Y-5700803D01*
X5431704Y-5737112D01*
X5433918Y-5736672D01*
X5436301Y-5748652D01*
X5471388Y-5833362D01*
X5471389Y-5833364D01*
X5471391Y-5833368D01*
X5536232Y-5898209D01*
X5620951Y-5933300D01*
X5620953Y-5933300D01*
X5712647Y-5933300D01*
X5712649Y-5933300D01*
X5797368Y-5898209D01*
X5862209Y-5833368D01*
X5897300Y-5748649D01*
X5897300Y-5719924D01*
X5904172Y-5679218D01*
X5914659Y-5649041D01*
X5914659Y-5649040D01*
X5914661Y-5649035D01*
X5953232Y-5450241D01*
X5985326Y-5388180D01*
X6045878Y-5353321D01*
X6099154Y-5352245D01*
X6130097Y-5358400D01*
X6435502Y-5358399D01*
X6502737Y-5345026D01*
X6578981Y-5294081D01*
X6629926Y-5217837D01*
X6638917Y-5172632D01*
X6641552Y-5161909D01*
X6651811Y-5126976D01*
X6657300Y-5088800D01*
X6657300Y-4288207D01*
X6654038Y-4258656D01*
X6654037Y-4258646D01*
X6653477Y-4255281D01*
X6654470Y-4255115D01*
X6655668Y-4236907D01*
X6652469Y-4214653D01*
X6657919Y-4202718D01*
X6658781Y-4189626D01*
X6672153Y-4171549D01*
X6681494Y-4151097D01*
X6692532Y-4144003D01*
X6700335Y-4133456D01*
X6721356Y-4125479D01*
X6740272Y-4113323D01*
X6761397Y-4110285D01*
X6765660Y-4108668D01*
X6775207Y-4108300D01*
X6813300Y-4108300D01*
X6880339Y-4127985D01*
X6926094Y-4180789D01*
X6937300Y-4232300D01*
X6937300Y-4329412D01*
X6948496Y-4385702D01*
X6948497Y-4385703D01*
X6991154Y-4449545D01*
X7059645Y-4495309D01*
X7081855Y-4521885D01*
X7104153Y-4548244D01*
X7104288Y-4548728D01*
X7104450Y-4548921D01*
X7113693Y-4582224D01*
X7115238Y-4593958D01*
X7116299Y-4610145D01*
X7116299Y-4656976D01*
X7116300Y-4656985D01*
X7116300Y-5748647D01*
X7116301Y-5748652D01*
X7151388Y-5833362D01*
X7151389Y-5833364D01*
X7151391Y-5833368D01*
X7216232Y-5898209D01*
X7300951Y-5933300D01*
X7300953Y-5933300D01*
X7392647Y-5933300D01*
X7392649Y-5933300D01*
X7477368Y-5898209D01*
X7542209Y-5833368D01*
X7577300Y-5748649D01*
X7577300Y-4556051D01*
X7577300Y-4543627D01*
X7577283Y-4543466D01*
X7577284Y-4531644D01*
X7549874Y-4393834D01*
X7496109Y-4264018D01*
X7486226Y-4249225D01*
X7468563Y-4222786D01*
X7451505Y-4184501D01*
X7448300Y-4171914D01*
X7448300Y-4166392D01*
X7437102Y-4110095D01*
X7429761Y-4099108D01*
X7424513Y-4078498D01*
X7425039Y-4063985D01*
X7420698Y-4050124D01*
X7426280Y-4029766D01*
X7427046Y-4008675D01*
X7434556Y-3997870D01*
X7432428Y-3996989D01*
X7437103Y-3985702D01*
X7448299Y-3929412D01*
X7448300Y-3929409D01*
X7448300Y-3766391D01*
X7448299Y-3766387D01*
X7437103Y-3710097D01*
X7437102Y-3710096D01*
X7437102Y-3710095D01*
X7394445Y-3646255D01*
X7360276Y-3623423D01*
X7360161Y-3623287D01*
X7359991Y-3623233D01*
X7337770Y-3596494D01*
X7315473Y-3569814D01*
X7315450Y-3569636D01*
X7315335Y-3569497D01*
X7311091Y-3534938D01*
X7306764Y-3500489D01*
X7306834Y-3500265D01*
X7306820Y-3500148D01*
X7309364Y-3492223D01*
X7317460Y-3466496D01*
X7317658Y-3466083D01*
X7375555Y-3348637D01*
X7379310Y-3338137D01*
X7382150Y-3332244D01*
X7384467Y-3329678D01*
X7388546Y-3321573D01*
X7389730Y-3318716D01*
X7397299Y-3280662D01*
X7397897Y-3274590D01*
X7398092Y-3274609D01*
X7398642Y-3268222D01*
X7398356Y-3268190D01*
X7402300Y-3233899D01*
X7402300Y-2346808D01*
X7402299Y-2346796D01*
X7399203Y-2317996D01*
X7399201Y-2317990D01*
X7398894Y-2316089D01*
X7397299Y-2296264D01*
X7397299Y-2204948D01*
X7397298Y-2204941D01*
X7389729Y-2166883D01*
X7389729Y-2166881D01*
X7360886Y-2123714D01*
X7317719Y-2094871D01*
X7317718Y-2094870D01*
X7279658Y-2087300D01*
X7279655Y-2087300D01*
X7142800Y-2087300D01*
X6390800Y-2087300D01*
X6390791Y-2087300D01*
X6253949Y-2087300D01*
X6253941Y-2087301D01*
X6215883Y-2094870D01*
X6215880Y-2094871D01*
X6172714Y-2123714D01*
X6143870Y-2166881D01*
X6136300Y-2204941D01*
X6136300Y-2303154D01*
X6135038Y-2320799D01*
X6131300Y-2346796D01*
X6131300Y-2998299D01*
X6128749Y-3006984D01*
X6130038Y-3015943D01*
X6119059Y-3039983D01*
X6111615Y-3065338D01*
X6104775Y-3071264D01*
X6101015Y-3079500D01*
X6078779Y-3093790D01*
X6058811Y-3111093D01*
X6048296Y-3113380D01*
X6042237Y-3117275D01*
X6007308Y-3122297D01*
X6007303Y-3122299D01*
X5976849Y-3122299D01*
X5976847Y-3122299D01*
X5962410Y-3122300D01*
X5962409Y-3122299D01*
X5962407Y-3122300D01*
X5303649Y-3122300D01*
X5211950Y-3122300D01*
X5211949Y-3122300D01*
X5211945Y-3122301D01*
X5187138Y-3132577D01*
X5187136Y-3132578D01*
X5127237Y-3157388D01*
X5127229Y-3157393D01*
X4995442Y-3289181D01*
X4968514Y-3303884D01*
X4942696Y-3320477D01*
X4936495Y-3321368D01*
X4934119Y-3322666D01*
X4907761Y-3325500D01*
X4727008Y-3325500D01*
X4659969Y-3305815D01*
X4614214Y-3253011D01*
X4603010Y-3200768D01*
X4619983Y-323768D01*
X4640063Y-256846D01*
X4693136Y-211404D01*
X4743981Y-200500D01*
X8836335Y-200500D01*
X8903374Y-220185D01*
G37*
%TD.AperFunction*%
%TD*%
M02*
