%TF.GenerationSoftware,KiCad,Pcbnew,8.0.0*%
%TF.CreationDate,2024-03-28T21:59:47-07:00*%
%TF.ProjectId,lyrav3r1,6c797261-7633-4723-912e-6b696361645f,rev?*%
%TF.SameCoordinates,Original*%
%TF.FileFunction,Copper,L3,Inr*%
%TF.FilePolarity,Positive*%
%FSLAX46Y46*%
G04 Gerber Fmt 4.6, Leading zero omitted, Abs format (unit mm)*
G04 Created by KiCad (PCBNEW 8.0.0) date 2024-03-28 21:59:47*
%MOMM*%
%LPD*%
G01*
G04 APERTURE LIST*
%TA.AperFunction,ComponentPad*%
%ADD10C,5.600000*%
%TD*%
%TA.AperFunction,ComponentPad*%
%ADD11R,2.000000X2.000000*%
%TD*%
%TA.AperFunction,ComponentPad*%
%ADD12C,2.000000*%
%TD*%
%TA.AperFunction,ComponentPad*%
%ADD13R,2.200000X2.200000*%
%TD*%
%TA.AperFunction,ComponentPad*%
%ADD14C,2.200000*%
%TD*%
%TA.AperFunction,ComponentPad*%
%ADD15C,1.800000*%
%TD*%
%TA.AperFunction,ComponentPad*%
%ADD16O,1.400000X1.200000*%
%TD*%
%TA.AperFunction,ComponentPad*%
%ADD17O,1.900000X1.200000*%
%TD*%
%TA.AperFunction,ViaPad*%
%ADD18C,0.600000*%
%TD*%
%TA.AperFunction,ViaPad*%
%ADD19C,0.700000*%
%TD*%
%TA.AperFunction,ViaPad*%
%ADD20C,1.000000*%
%TD*%
G04 APERTURE END LIST*
D10*
%TO.N,GND*%
%TO.C,H3*%
X3000000Y3000000D03*
%TD*%
D11*
%TO.N,/BUZZER*%
%TO.C,BZ1*%
X14672400Y45579000D03*
D12*
%TO.N,GND*%
X14672400Y40579000D03*
%TD*%
D13*
%TO.N,+BATT*%
%TO.C,J8*%
X4791800Y9601800D03*
D14*
%TO.N,/P4-*%
X7331800Y9601800D03*
%TO.N,/P3-*%
X9871800Y9601800D03*
%TO.N,/P2-*%
X12411800Y9601800D03*
%TO.N,/P1-*%
X14951800Y9601800D03*
%TO.N,GND*%
X17491800Y9601800D03*
%TO.N,/BATT RAW*%
X20031800Y9601800D03*
%TD*%
D15*
%TO.N,/ANT IN*%
%TO.C,AE1*%
X12843600Y28439000D03*
%TD*%
D10*
%TO.N,GND*%
%TO.C,H1*%
X3000000Y52000000D03*
%TD*%
%TO.N,GND*%
%TO.C,H2*%
X22000000Y52000000D03*
%TD*%
%TO.N,GND*%
%TO.C,H4*%
X22000000Y3000000D03*
%TD*%
D13*
%TO.N,/BATT POSTSW*%
%TO.C,J2*%
X6392000Y17044000D03*
D14*
%TO.N,/BATT RAW*%
X6392000Y14504000D03*
%TD*%
D16*
%TO.N,unconnected-(J7-Shield-Pad6)*%
%TO.C,J7*%
X4879700Y25433000D03*
%TO.N,N/C*%
X4879700Y20593000D03*
D17*
X1979700Y19413000D03*
X1979700Y26613000D03*
%TD*%
D18*
%TO.N,GND*%
X9922600Y44577600D03*
D19*
X10557600Y53620000D03*
D18*
X11827600Y31420400D03*
X10252800Y46279400D03*
X9744800Y45365000D03*
X17288600Y25095800D03*
X23579348Y17992888D03*
X13453200Y49962400D03*
X12030800Y27229400D03*
X11980000Y12243400D03*
X11776800Y635700D03*
X9440000Y31496600D03*
X12437200Y30887000D03*
X5900000Y29025000D03*
X16171000Y30988600D03*
X15879457Y14185415D03*
X16145600Y30175800D03*
X12872800Y49365694D03*
X21718968Y16825193D03*
X12157800Y44222000D03*
X10456000Y29058200D03*
X22024800Y21757400D03*
X8424000Y11176600D03*
X23791000Y41783600D03*
X11091000Y46457200D03*
X12183200Y32969800D03*
X15840800Y27686600D03*
X11375774Y32862826D03*
X17421299Y46674872D03*
X12538800Y44933200D03*
X23867200Y43615000D03*
X9643200Y29566200D03*
X20842000Y20066600D03*
X20108000Y26543600D03*
X13453200Y21387400D03*
X18797600Y43383800D03*
X13350600Y4622400D03*
X24517200Y24995105D03*
X11268800Y27483400D03*
X11294200Y49403600D03*
X10483820Y35431180D03*
X3033199Y24421783D03*
X4868000Y34544600D03*
X19065198Y21793800D03*
X16145600Y28550200D03*
X12843600Y48438400D03*
X16145600Y29363000D03*
X11446600Y47498600D03*
X9440000Y32360200D03*
X15933573Y21345428D03*
X10151200Y4420200D03*
X12843600Y47447800D03*
X10456000Y28042200D03*
X15824574Y19683236D03*
X12843600Y46584200D03*
X9372400Y30491154D03*
D19*
X13707200Y53899400D03*
D18*
X14977200Y27661200D03*
X22902000Y37440200D03*
X7900000Y20775000D03*
D19*
X23460800Y45346000D03*
D18*
X7385200Y50241800D03*
X4868000Y46685800D03*
X10938600Y50140200D03*
X16728800Y4393800D03*
X12183200Y30125000D03*
X11421200Y48438400D03*
X23918000Y38151400D03*
X6028400Y4386000D03*
X10862400Y24587800D03*
X1633379Y36853836D03*
X20260400Y46177800D03*
D20*
X4461600Y11401802D03*
D18*
X9166463Y17882200D03*
X13407020Y19491472D03*
X13859600Y50749800D03*
X10481400Y50800600D03*
X18319600Y49937000D03*
X14164400Y27635800D03*
X1261200Y39266200D03*
X12386400Y45720600D03*
%TO.N,+3V3*%
X10717300Y17773300D03*
X24597839Y21590600D03*
X19169603Y49937000D03*
X23918000Y40573802D03*
D19*
X24502200Y23444800D03*
D18*
X22735866Y17887803D03*
X6429700Y27483362D03*
X1250800Y29515400D03*
X23765600Y10465400D03*
X23926349Y44428670D03*
X22095400Y18688800D03*
X16501200Y14986600D03*
X21808400Y27686287D03*
X13758000Y11598200D03*
X9166187Y20510086D03*
X19343511Y20529512D03*
D19*
X21987600Y47577400D03*
X24133083Y49274182D03*
D18*
X11838400Y16350450D03*
X11878404Y24587800D03*
X15488401Y24909592D03*
X20683377Y14892191D03*
X4868000Y49175000D03*
X18726521Y45044448D03*
X17000000Y49314100D03*
%TO.N,+1V1*%
X12176816Y18944492D03*
X17239640Y19832480D03*
D20*
%TO.N,VBUS*%
X804000Y10824900D03*
X2531200Y21743000D03*
X4360000Y16002600D03*
D18*
%TO.N,Net-(D2-A)*%
X21835200Y13259400D03*
%TO.N,/P3-*%
X2887847Y8342200D03*
D19*
X15205800Y12065600D03*
D18*
%TO.N,/RUN*%
X23520599Y12506399D03*
%TO.N,/BOOTSEL*%
X6178780Y35723020D03*
%TO.N,/GPS 3v3*%
X22572140Y30836200D03*
D20*
X23816386Y27432600D03*
D18*
%TO.N,/SCL*%
X20412794Y25527612D03*
X19265615Y22657088D03*
X22061380Y19835580D03*
X20000271Y37395379D03*
D19*
X24375200Y45466600D03*
D18*
X17060000Y47397000D03*
X16350000Y49987800D03*
X21424998Y45974600D03*
X21952500Y25842208D03*
%TO.N,/BRKOUT4*%
X1211255Y32796407D03*
X11645200Y15092681D03*
X448400Y38862600D03*
%TO.N,/BRKOUT3*%
X12178863Y14466461D03*
X3344000Y43993400D03*
X1921600Y38557806D03*
%TO.N,/BRKOUT2*%
X3191600Y42266200D03*
X499200Y21844600D03*
X13010970Y14589711D03*
%TO.N,/BRKOUT1*%
X4715600Y40386600D03*
X21359377Y38045379D03*
X3191600Y40742200D03*
X12792800Y40437400D03*
X17190200Y21418783D03*
%TO.N,Net-(IC1-1PPS)*%
X23003600Y39421400D03*
X22674998Y34824000D03*
%TO.N,/P2 EN *%
X18584000Y6909400D03*
X14988600Y5799013D03*
%TO.N,/P3 EN *%
X11370400Y6350600D03*
X14437600Y15139000D03*
%TO.N,/P4 EN *%
X7712800Y6249000D03*
X13904408Y15750112D03*
%TO.N,/BATT SENSE *%
X5833200Y11227400D03*
X13700394Y17891472D03*
X3788521Y6232968D03*
X8932000Y16764600D03*
D19*
%TO.N,/P1 CONT *%
X18761800Y1956400D03*
X22292400Y6452200D03*
D18*
%TO.N,/P3 CONT *%
X14029202Y13706600D03*
X2724844Y9743800D03*
%TO.N,/P2 CONT *%
X19006945Y6222893D03*
X12742000Y1677000D03*
%TO.N,/QSPI_SS*%
X4413007Y32676065D03*
X1250800Y33782600D03*
%TO.N,/P4 CONT *%
X15853590Y17994763D03*
X6061800Y1600800D03*
%TO.N,Net-(D3-K)*%
X19827027Y13388876D03*
%TO.N,/SDA*%
X23305832Y19542095D03*
X20311200Y45111000D03*
X20514400Y36576600D03*
D19*
X23215578Y47645712D03*
D18*
X16856800Y45263400D03*
X21003091Y24715094D03*
X16298000Y52019800D03*
%TO.N,/ANT OFF*%
X11519198Y33996200D03*
X16145600Y33996200D03*
%TO.N,/QSPI_SD1*%
X2288124Y33873276D03*
X4389334Y33747294D03*
%TO.N,/BUZZER*%
X22091451Y39151783D03*
X17191164Y18014336D03*
%TO.N,/SX CS*%
X20317304Y29323144D03*
X4817200Y38720600D03*
%TO.N,/BUSY*%
X16936027Y20660232D03*
X8173380Y36217620D03*
%TO.N,/MISO*%
X7306400Y38507000D03*
X20062661Y30134107D03*
%TO.N,/MOSI*%
X6082187Y36978370D03*
X19438861Y30734600D03*
%TO.N,/SCK*%
X20223691Y28438603D03*
X3599401Y39216799D03*
%TO.N,/SX RST*%
X9084400Y36424200D03*
X12284800Y21235000D03*
%TD*%
%TA.AperFunction,Conductor*%
%TO.N,GND*%
G36*
X20205586Y54980315D02*
G01*
X20251341Y54927511D01*
X20261285Y54858353D01*
X20232260Y54794797D01*
X20202475Y54769749D01*
X20145370Y54735391D01*
X20145367Y54735389D01*
X19860486Y54518830D01*
X19860485Y54518829D01*
X19847257Y54506298D01*
X19847256Y54506297D01*
X21059301Y53294252D01*
X20957670Y53220412D01*
X20779588Y53042330D01*
X20705748Y52940699D01*
X19496442Y54150005D01*
X19496441Y54150004D01*
X19369033Y54000008D01*
X19168218Y53703828D01*
X19000606Y53387678D01*
X19000597Y53387660D01*
X18868149Y53055240D01*
X18868147Y53055233D01*
X18772421Y52710458D01*
X18772415Y52710432D01*
X18714527Y52357332D01*
X18714526Y52357315D01*
X18695153Y52000003D01*
X18695153Y51999998D01*
X18714526Y51642686D01*
X18714527Y51642669D01*
X18772415Y51289569D01*
X18772421Y51289543D01*
X18868147Y50944768D01*
X18868149Y50944761D01*
X18912975Y50832257D01*
X18919502Y50762693D01*
X18887384Y50700643D01*
X18838741Y50669320D01*
X18820083Y50662791D01*
X18667340Y50566816D01*
X18539787Y50439263D01*
X18443814Y50286524D01*
X18384234Y50116255D01*
X18384233Y50116250D01*
X18364038Y49937004D01*
X18364038Y49936997D01*
X18384233Y49757751D01*
X18384234Y49757746D01*
X18443814Y49587477D01*
X18539787Y49434738D01*
X18667341Y49307184D01*
X18820081Y49211211D01*
X18856999Y49198293D01*
X18990348Y49151632D01*
X18990353Y49151631D01*
X19169599Y49131435D01*
X19169603Y49131435D01*
X19169607Y49131435D01*
X19348852Y49151631D01*
X19348855Y49151632D01*
X19348858Y49151632D01*
X19519125Y49211211D01*
X19671865Y49307184D01*
X19775628Y49410947D01*
X19836951Y49444432D01*
X19906643Y49439448D01*
X19938351Y49421982D01*
X20145373Y49264608D01*
X20451990Y49080124D01*
X20776739Y48929878D01*
X20776744Y48929877D01*
X21115855Y48815617D01*
X21465339Y48738689D01*
X21821075Y48700001D01*
X21821085Y48700000D01*
X22178915Y48700000D01*
X22178924Y48700001D01*
X22534660Y48738689D01*
X22884144Y48815617D01*
X23223241Y48929872D01*
X23226365Y48931116D01*
X23226432Y48930947D01*
X23226434Y48930947D01*
X23226443Y48930921D01*
X23227082Y48929316D01*
X23288504Y48938921D01*
X23352413Y48910684D01*
X23379759Y48877978D01*
X23415763Y48815617D01*
X23441224Y48771517D01*
X23524668Y48678843D01*
X23554898Y48615852D01*
X23546273Y48546516D01*
X23501531Y48492851D01*
X23434879Y48471893D01*
X23406738Y48474581D01*
X23304970Y48496212D01*
X23304969Y48496212D01*
X23126187Y48496212D01*
X23110375Y48492851D01*
X22951311Y48459042D01*
X22951306Y48459040D01*
X22787986Y48386325D01*
X22643345Y48281236D01*
X22638682Y48277037D01*
X22575689Y48246810D01*
X22506354Y48255437D01*
X22482830Y48268871D01*
X22415193Y48318012D01*
X22251867Y48390729D01*
X22251865Y48390730D01*
X22096835Y48423682D01*
X22076991Y48427900D01*
X21898209Y48427900D01*
X21878365Y48423682D01*
X21723333Y48390730D01*
X21723328Y48390728D01*
X21560008Y48318013D01*
X21415368Y48212925D01*
X21295740Y48080064D01*
X21206350Y47925236D01*
X21206347Y47925230D01*
X21151104Y47755208D01*
X21151103Y47755206D01*
X21132415Y47577400D01*
X21151103Y47399595D01*
X21151104Y47399593D01*
X21206347Y47229571D01*
X21206350Y47229565D01*
X21295741Y47074735D01*
X21340996Y47024474D01*
X21387100Y46973270D01*
X21417330Y46910278D01*
X21408704Y46840943D01*
X21363963Y46787278D01*
X21308835Y46767078D01*
X21245747Y46759970D01*
X21245743Y46759969D01*
X21075474Y46700389D01*
X20922735Y46604416D01*
X20795182Y46476863D01*
X20699209Y46324124D01*
X20639629Y46153855D01*
X20639628Y46153851D01*
X20622994Y46006219D01*
X20595927Y45941805D01*
X20538332Y45902250D01*
X20485891Y45896883D01*
X20311204Y45916565D01*
X20311196Y45916565D01*
X20131950Y45896370D01*
X20131945Y45896369D01*
X19961676Y45836789D01*
X19808937Y45740816D01*
X19681384Y45613263D01*
X19681382Y45613260D01*
X19602944Y45488428D01*
X19550609Y45442137D01*
X19481556Y45431490D01*
X19417708Y45459865D01*
X19392957Y45488429D01*
X19356336Y45546711D01*
X19228783Y45674264D01*
X19076044Y45770237D01*
X18905775Y45829817D01*
X18905770Y45829818D01*
X18726525Y45850013D01*
X18726517Y45850013D01*
X18547271Y45829818D01*
X18547266Y45829817D01*
X18376997Y45770237D01*
X18224258Y45674264D01*
X18096705Y45546711D01*
X18000732Y45393972D01*
X17941152Y45223703D01*
X17941151Y45223698D01*
X17920956Y45044452D01*
X17920956Y45044445D01*
X17941151Y44865199D01*
X17941152Y44865194D01*
X18000732Y44694925D01*
X18062892Y44595999D01*
X18096705Y44542186D01*
X18224259Y44414632D01*
X18271081Y44385212D01*
X18365901Y44325632D01*
X18376999Y44318659D01*
X18547266Y44259080D01*
X18547271Y44259079D01*
X18726517Y44238883D01*
X18726521Y44238883D01*
X18726525Y44238883D01*
X18905770Y44259079D01*
X18905773Y44259080D01*
X18905776Y44259080D01*
X19076043Y44318659D01*
X19228783Y44414632D01*
X19356337Y44542186D01*
X19434776Y44667021D01*
X19487110Y44713311D01*
X19556163Y44723959D01*
X19620012Y44695584D01*
X19644762Y44667021D01*
X19681384Y44608738D01*
X19808938Y44481184D01*
X19961678Y44385211D01*
X20131945Y44325632D01*
X20131950Y44325631D01*
X20311196Y44305435D01*
X20311200Y44305435D01*
X20311204Y44305435D01*
X20490449Y44325631D01*
X20490452Y44325632D01*
X20490455Y44325632D01*
X20660722Y44385211D01*
X20813462Y44481184D01*
X20941016Y44608738D01*
X21036989Y44761478D01*
X21096568Y44931745D01*
X21099791Y44960344D01*
X21113202Y45079381D01*
X21140268Y45143795D01*
X21197862Y45183350D01*
X21250305Y45188718D01*
X21296591Y45183503D01*
X21424995Y45169035D01*
X21424998Y45169035D01*
X21425002Y45169035D01*
X21604247Y45189231D01*
X21604250Y45189232D01*
X21604253Y45189232D01*
X21774520Y45248811D01*
X21927260Y45344784D01*
X22054814Y45472338D01*
X22150787Y45625078D01*
X22210366Y45795345D01*
X22210367Y45795351D01*
X22230563Y45974597D01*
X22230563Y45974604D01*
X22210367Y46153850D01*
X22210366Y46153855D01*
X22196143Y46194503D01*
X22150787Y46324122D01*
X22054814Y46476862D01*
X22013982Y46517694D01*
X21980497Y46579017D01*
X21985481Y46648709D01*
X22027353Y46704642D01*
X22075883Y46726665D01*
X22076989Y46726900D01*
X22076991Y46726900D01*
X22232569Y46759969D01*
X22251863Y46764070D01*
X22251863Y46764071D01*
X22251867Y46764071D01*
X22415193Y46836788D01*
X22559830Y46941874D01*
X22559838Y46941883D01*
X22564485Y46946067D01*
X22627474Y46976301D01*
X22696810Y46967681D01*
X22720350Y46954240D01*
X22787979Y46905104D01*
X22787980Y46905103D01*
X22787982Y46905102D01*
X22787985Y46905100D01*
X22951311Y46832383D01*
X23126187Y46795212D01*
X23126188Y46795212D01*
X23304967Y46795212D01*
X23304969Y46795212D01*
X23479845Y46832383D01*
X23643171Y46905100D01*
X23787808Y47010186D01*
X23799161Y47022794D01*
X23844448Y47073091D01*
X23907437Y47143047D01*
X23996828Y47297877D01*
X24052075Y47467909D01*
X24070763Y47645712D01*
X24052075Y47823515D01*
X23996828Y47993547D01*
X23907437Y48148377D01*
X23823992Y48241052D01*
X23793762Y48304043D01*
X23802387Y48373379D01*
X23847129Y48427044D01*
X23913781Y48448002D01*
X23941919Y48445315D01*
X24043692Y48423682D01*
X24043693Y48423682D01*
X24222472Y48423682D01*
X24222474Y48423682D01*
X24397350Y48460853D01*
X24560676Y48533570D01*
X24705313Y48638656D01*
X24736003Y48672740D01*
X24783850Y48725880D01*
X24843336Y48762529D01*
X24913193Y48761199D01*
X24971242Y48722312D01*
X24999052Y48658216D01*
X25000000Y48642908D01*
X25000000Y46307297D01*
X24980315Y46240258D01*
X24927511Y46194503D01*
X24858353Y46184559D01*
X24808829Y46204659D01*
X24808426Y46203960D01*
X24803397Y46206864D01*
X24803119Y46206976D01*
X24802799Y46207209D01*
X24802797Y46207210D01*
X24802793Y46207212D01*
X24639467Y46279929D01*
X24639465Y46279930D01*
X24510711Y46307297D01*
X24464591Y46317100D01*
X24285809Y46317100D01*
X24255154Y46310585D01*
X24110933Y46279930D01*
X24110928Y46279928D01*
X23947608Y46207213D01*
X23802968Y46102125D01*
X23683340Y45969264D01*
X23593950Y45814436D01*
X23593947Y45814430D01*
X23538704Y45644408D01*
X23538703Y45644406D01*
X23520015Y45466600D01*
X23538703Y45288795D01*
X23551555Y45249241D01*
X23553549Y45179400D01*
X23517467Y45119568D01*
X23499595Y45105931D01*
X23424086Y45058486D01*
X23296533Y44930933D01*
X23200560Y44778194D01*
X23140980Y44607925D01*
X23140979Y44607920D01*
X23120784Y44428674D01*
X23120784Y44428667D01*
X23140979Y44249421D01*
X23140980Y44249416D01*
X23200560Y44079147D01*
X23254439Y43993400D01*
X23296533Y43926408D01*
X23424087Y43798854D01*
X23576827Y43702881D01*
X23745448Y43643878D01*
X23747094Y43643302D01*
X23747099Y43643301D01*
X23926345Y43623105D01*
X23926349Y43623105D01*
X23926353Y43623105D01*
X24105598Y43643301D01*
X24105601Y43643302D01*
X24105604Y43643302D01*
X24275871Y43702881D01*
X24428611Y43798854D01*
X24556165Y43926408D01*
X24652138Y44079148D01*
X24711717Y44249415D01*
X24719519Y44318660D01*
X24731914Y44428667D01*
X24731914Y44428673D01*
X24713567Y44591505D01*
X24725621Y44660327D01*
X24772970Y44711707D01*
X24786348Y44718667D01*
X24802793Y44725988D01*
X24803109Y44726218D01*
X24803325Y44726295D01*
X24808423Y44729238D01*
X24808960Y44728307D01*
X24868912Y44749701D01*
X24936967Y44733881D01*
X24985665Y44683779D01*
X25000000Y44625904D01*
X25000000Y27813304D01*
X24980315Y27746265D01*
X24927511Y27700510D01*
X24858353Y27690566D01*
X24794797Y27719591D01*
X24757340Y27777308D01*
X24747791Y27808786D01*
X24745200Y27817327D01*
X24681586Y27936341D01*
X24652299Y27991133D01*
X24652295Y27991140D01*
X24527269Y28143484D01*
X24374925Y28268510D01*
X24374918Y28268514D01*
X24201119Y28361412D01*
X24201113Y28361414D01*
X24012518Y28418624D01*
X24012515Y28418625D01*
X23816386Y28437941D01*
X23620256Y28418625D01*
X23431652Y28361412D01*
X23257853Y28268514D01*
X23257846Y28268510D01*
X23105502Y28143484D01*
X22980476Y27991140D01*
X22980472Y27991133D01*
X22887572Y27817329D01*
X22851855Y27699588D01*
X22813557Y27641149D01*
X22749745Y27612693D01*
X22680678Y27623254D01*
X22628285Y27669479D01*
X22609975Y27721701D01*
X22593769Y27865537D01*
X22593768Y27865542D01*
X22568994Y27936341D01*
X22534189Y28035809D01*
X22438216Y28188549D01*
X22310662Y28316103D01*
X22310660Y28316104D01*
X22157923Y28412076D01*
X21987654Y28471656D01*
X21987649Y28471657D01*
X21808404Y28491852D01*
X21808396Y28491852D01*
X21629150Y28471657D01*
X21629145Y28471656D01*
X21458876Y28412076D01*
X21306139Y28316104D01*
X21229121Y28239086D01*
X21167797Y28205602D01*
X21098106Y28210586D01*
X21042172Y28252458D01*
X21017756Y28317923D01*
X21018220Y28340651D01*
X21029256Y28438600D01*
X21029256Y28438607D01*
X21009060Y28617853D01*
X21009057Y28617866D01*
X20960997Y28755213D01*
X20957435Y28824992D01*
X20973044Y28862140D01*
X20987775Y28885584D01*
X21043093Y28973622D01*
X21102672Y29143889D01*
X21102673Y29143895D01*
X21122869Y29323141D01*
X21122869Y29323148D01*
X21102673Y29502394D01*
X21102672Y29502399D01*
X21043092Y29672668D01*
X21003886Y29735064D01*
X20947120Y29825406D01*
X20887180Y29885346D01*
X20853695Y29946669D01*
X20851641Y29986911D01*
X20868226Y30134105D01*
X20868226Y30134111D01*
X20848030Y30313357D01*
X20848029Y30313362D01*
X20788449Y30483631D01*
X20692476Y30636370D01*
X20564923Y30763923D01*
X20449900Y30836197D01*
X21766575Y30836197D01*
X21786770Y30656951D01*
X21786771Y30656946D01*
X21846351Y30486677D01*
X21910191Y30385077D01*
X21942324Y30333938D01*
X22069878Y30206384D01*
X22222618Y30110411D01*
X22392885Y30050832D01*
X22392890Y30050831D01*
X22572136Y30030635D01*
X22572140Y30030635D01*
X22572144Y30030635D01*
X22751389Y30050831D01*
X22751392Y30050832D01*
X22751395Y30050832D01*
X22921662Y30110411D01*
X23074402Y30206384D01*
X23201956Y30333938D01*
X23297929Y30486678D01*
X23357508Y30656945D01*
X23357509Y30656951D01*
X23377705Y30836197D01*
X23377705Y30836204D01*
X23357509Y31015450D01*
X23357508Y31015455D01*
X23297928Y31185724D01*
X23201955Y31338463D01*
X23074402Y31466016D01*
X22921663Y31561989D01*
X22751394Y31621569D01*
X22751389Y31621570D01*
X22572144Y31641765D01*
X22572136Y31641765D01*
X22392890Y31621570D01*
X22392885Y31621569D01*
X22222616Y31561989D01*
X22069877Y31466016D01*
X21942324Y31338463D01*
X21846351Y31185724D01*
X21786771Y31015455D01*
X21786770Y31015450D01*
X21766575Y30836204D01*
X21766575Y30836197D01*
X20449900Y30836197D01*
X20412184Y30859896D01*
X20275884Y30907589D01*
X20219108Y30948311D01*
X20199797Y30983677D01*
X20164649Y31084124D01*
X20068676Y31236863D01*
X19941123Y31364416D01*
X19788384Y31460389D01*
X19618115Y31519969D01*
X19618110Y31519970D01*
X19438865Y31540165D01*
X19438857Y31540165D01*
X19259611Y31519970D01*
X19259606Y31519969D01*
X19089337Y31460389D01*
X18936598Y31364416D01*
X18809045Y31236863D01*
X18713072Y31084124D01*
X18653492Y30913855D01*
X18653491Y30913850D01*
X18633296Y30734604D01*
X18633296Y30734597D01*
X18653491Y30555351D01*
X18653492Y30555346D01*
X18713072Y30385077D01*
X18803484Y30241189D01*
X18809045Y30232338D01*
X18936599Y30104784D01*
X19089339Y30008811D01*
X19225637Y29961119D01*
X19282412Y29920397D01*
X19301724Y29885032D01*
X19336872Y29784585D01*
X19432845Y29631845D01*
X19492784Y29571906D01*
X19526269Y29510583D01*
X19528323Y29470342D01*
X19511739Y29323149D01*
X19511739Y29323141D01*
X19531934Y29143895D01*
X19531936Y29143887D01*
X19579998Y29006534D01*
X19583559Y28936756D01*
X19567950Y28899609D01*
X19497903Y28788129D01*
X19438322Y28617858D01*
X19438321Y28617853D01*
X19418126Y28438607D01*
X19418126Y28438600D01*
X19438321Y28259354D01*
X19438322Y28259349D01*
X19497902Y28089080D01*
X19593875Y27936341D01*
X19721429Y27808787D01*
X19874169Y27712814D01*
X20017624Y27662617D01*
X20044436Y27653235D01*
X20044441Y27653234D01*
X20223687Y27633038D01*
X20223691Y27633038D01*
X20223695Y27633038D01*
X20402940Y27653234D01*
X20402943Y27653235D01*
X20402946Y27653235D01*
X20573213Y27712814D01*
X20725953Y27808787D01*
X20802972Y27885807D01*
X20864291Y27919289D01*
X20933983Y27914305D01*
X20989917Y27872434D01*
X21014334Y27806970D01*
X21013870Y27784241D01*
X21002835Y27686293D01*
X21002835Y27686284D01*
X21023030Y27507038D01*
X21023031Y27507033D01*
X21082611Y27336764D01*
X21129256Y27262530D01*
X21178584Y27184025D01*
X21306138Y27056471D01*
X21458878Y26960498D01*
X21629145Y26900919D01*
X21629150Y26900918D01*
X21808396Y26880722D01*
X21811952Y26880722D01*
X21814165Y26880072D01*
X21815319Y26879942D01*
X21815296Y26879741D01*
X21871294Y26863297D01*
X21914013Y26890750D01*
X21935065Y26894993D01*
X21987649Y26900918D01*
X21987652Y26900919D01*
X21987655Y26900919D01*
X22157922Y26960498D01*
X22310662Y27056471D01*
X22438216Y27184025D01*
X22534189Y27336765D01*
X22572181Y27445343D01*
X22612903Y27502117D01*
X22677855Y27527865D01*
X22746417Y27514409D01*
X22796820Y27466022D01*
X22812626Y27416541D01*
X22830361Y27236471D01*
X22849073Y27174787D01*
X22886351Y27051897D01*
X22887574Y27047867D01*
X22980472Y26874068D01*
X22980476Y26874061D01*
X23105502Y26721717D01*
X23257846Y26596691D01*
X23257853Y26596687D01*
X23431652Y26503789D01*
X23431655Y26503789D01*
X23431659Y26503786D01*
X23620254Y26446576D01*
X23816386Y26427259D01*
X24012518Y26446576D01*
X24201113Y26503786D01*
X24206008Y26506402D01*
X24374918Y26596687D01*
X24374924Y26596690D01*
X24527269Y26721717D01*
X24652296Y26874062D01*
X24745200Y27047873D01*
X24757340Y27087894D01*
X24795637Y27146331D01*
X24859449Y27174787D01*
X24928516Y27164227D01*
X24980909Y27118003D01*
X25000000Y27051897D01*
X25000000Y24345097D01*
X24980315Y24278058D01*
X24927511Y24232303D01*
X24858353Y24222359D01*
X24825565Y24231817D01*
X24824473Y24232303D01*
X24766467Y24258129D01*
X24766465Y24258130D01*
X24606415Y24292149D01*
X24591591Y24295300D01*
X24412809Y24295300D01*
X24397985Y24292149D01*
X24237933Y24258130D01*
X24237928Y24258128D01*
X24074608Y24185413D01*
X23929968Y24080325D01*
X23810340Y23947464D01*
X23720950Y23792636D01*
X23720947Y23792630D01*
X23665704Y23622608D01*
X23665703Y23622606D01*
X23647015Y23444800D01*
X23665703Y23266995D01*
X23665704Y23266993D01*
X23720947Y23096971D01*
X23720950Y23096965D01*
X23810341Y22942135D01*
X23852012Y22895854D01*
X23929964Y22809279D01*
X23929967Y22809277D01*
X23929970Y22809274D01*
X24074607Y22704188D01*
X24237933Y22631471D01*
X24371404Y22603101D01*
X24432886Y22569909D01*
X24466662Y22508746D01*
X24462010Y22439031D01*
X24420405Y22382899D01*
X24386578Y22364770D01*
X24248319Y22316391D01*
X24095576Y22220416D01*
X23968023Y22092863D01*
X23872050Y21940124D01*
X23812470Y21769855D01*
X23812469Y21769850D01*
X23792274Y21590604D01*
X23792274Y21590597D01*
X23812469Y21411351D01*
X23812470Y21411346D01*
X23872050Y21241077D01*
X23952235Y21113465D01*
X23968023Y21088338D01*
X24095577Y20960784D01*
X24166021Y20916521D01*
X24215425Y20885478D01*
X24248317Y20864811D01*
X24360633Y20825510D01*
X24418584Y20805232D01*
X24418589Y20805231D01*
X24597835Y20785035D01*
X24597839Y20785035D01*
X24597843Y20785035D01*
X24777088Y20805231D01*
X24777090Y20805232D01*
X24777094Y20805232D01*
X24835045Y20825511D01*
X24904822Y20829073D01*
X24965450Y20794345D01*
X24997678Y20732352D01*
X25000000Y20708469D01*
X25000000Y4859570D01*
X24980315Y4792531D01*
X24927511Y4746776D01*
X24858353Y4736832D01*
X24794797Y4765857D01*
X24773367Y4789983D01*
X24630975Y4999995D01*
X24630964Y5000009D01*
X24503556Y5150004D01*
X23294251Y3940699D01*
X23220412Y4042330D01*
X23042330Y4220412D01*
X22940698Y4294252D01*
X24152742Y5506296D01*
X24139504Y5518837D01*
X23854632Y5735389D01*
X23854629Y5735391D01*
X23548009Y5919877D01*
X23223260Y6070123D01*
X23223256Y6070124D01*
X23194627Y6079770D01*
X23137382Y6119830D01*
X23110882Y6184479D01*
X23116289Y6235596D01*
X23128897Y6274397D01*
X23147585Y6452200D01*
X23128897Y6630003D01*
X23094706Y6735231D01*
X23073652Y6800030D01*
X23073649Y6800036D01*
X22984259Y6954865D01*
X22927109Y7018336D01*
X22864635Y7087722D01*
X22864632Y7087724D01*
X22864631Y7087725D01*
X22864630Y7087726D01*
X22719993Y7192812D01*
X22556667Y7265529D01*
X22556665Y7265530D01*
X22428994Y7292667D01*
X22381791Y7302700D01*
X22203009Y7302700D01*
X22172354Y7296185D01*
X22028133Y7265530D01*
X22028128Y7265528D01*
X21864808Y7192813D01*
X21720168Y7087725D01*
X21600540Y6954864D01*
X21511150Y6800036D01*
X21511147Y6800030D01*
X21455904Y6630008D01*
X21455903Y6630006D01*
X21437215Y6452200D01*
X21445874Y6369812D01*
X21433304Y6301082D01*
X21385572Y6250059D01*
X21349210Y6235750D01*
X21115855Y6184385D01*
X20776744Y6070124D01*
X20776739Y6070123D01*
X20451990Y5919877D01*
X20145370Y5735391D01*
X20145367Y5735389D01*
X19860486Y5518830D01*
X19860485Y5518829D01*
X19847257Y5506298D01*
X19847256Y5506297D01*
X21059301Y4294252D01*
X20957670Y4220412D01*
X20779588Y4042330D01*
X20705748Y3940699D01*
X19496442Y5150005D01*
X19496441Y5150004D01*
X19369033Y5000008D01*
X19168218Y4703828D01*
X19000606Y4387678D01*
X19000597Y4387660D01*
X18868149Y4055240D01*
X18868147Y4055233D01*
X18772421Y3710458D01*
X18772415Y3710432D01*
X18714527Y3357332D01*
X18714526Y3357315D01*
X18695153Y3000003D01*
X18695153Y2999996D01*
X18699499Y2919822D01*
X18683472Y2851815D01*
X18633222Y2803269D01*
X18601462Y2791820D01*
X18497533Y2769730D01*
X18497528Y2769728D01*
X18334208Y2697013D01*
X18189568Y2591925D01*
X18069940Y2459064D01*
X17980550Y2304236D01*
X17980547Y2304230D01*
X17925304Y2134208D01*
X17925303Y2134206D01*
X17906615Y1956400D01*
X17925303Y1778595D01*
X17925304Y1778593D01*
X17980547Y1608571D01*
X17980550Y1608565D01*
X18069941Y1453735D01*
X18098920Y1421551D01*
X18189564Y1320879D01*
X18189567Y1320877D01*
X18189570Y1320874D01*
X18334207Y1215788D01*
X18497533Y1143071D01*
X18672409Y1105900D01*
X18672410Y1105900D01*
X18851189Y1105900D01*
X18851191Y1105900D01*
X19026067Y1143071D01*
X19120172Y1184970D01*
X19189421Y1194254D01*
X19252698Y1164626D01*
X19273240Y1141277D01*
X19369024Y1000006D01*
X19369035Y999992D01*
X19496441Y849998D01*
X19496442Y849998D01*
X20705747Y2059303D01*
X20779588Y1957670D01*
X20957670Y1779588D01*
X21059300Y1705749D01*
X19847257Y493706D01*
X19860495Y481164D01*
X20145367Y264612D01*
X20145370Y264610D01*
X20202475Y230251D01*
X20249770Y178822D01*
X20261753Y109987D01*
X20234618Y45601D01*
X20176982Y6107D01*
X20138547Y0D01*
X4861453Y0D01*
X4794414Y19685D01*
X4748659Y72489D01*
X4738715Y141647D01*
X4767740Y205203D01*
X4797525Y230251D01*
X4854629Y264610D01*
X4854632Y264612D01*
X5139509Y481169D01*
X5152742Y493705D01*
X3940698Y1705749D01*
X4042330Y1779588D01*
X4220412Y1957670D01*
X4294251Y2059302D01*
X5503556Y849998D01*
X5520508Y869954D01*
X5578911Y908305D01*
X5648778Y908993D01*
X5680989Y894671D01*
X5712275Y875012D01*
X5882545Y815432D01*
X5882550Y815431D01*
X6061796Y795235D01*
X6061800Y795235D01*
X6061804Y795235D01*
X6241049Y815431D01*
X6241052Y815432D01*
X6241055Y815432D01*
X6411322Y875011D01*
X6564062Y970984D01*
X6691616Y1098538D01*
X6787589Y1251278D01*
X6847168Y1421545D01*
X6847169Y1421551D01*
X6867365Y1600797D01*
X6867365Y1600804D01*
X6858780Y1676997D01*
X11936435Y1676997D01*
X11956630Y1497751D01*
X11956631Y1497746D01*
X12016211Y1327477D01*
X12099921Y1194254D01*
X12112184Y1174738D01*
X12239738Y1047184D01*
X12392478Y951211D01*
X12554060Y894671D01*
X12562745Y891632D01*
X12562750Y891631D01*
X12741996Y871435D01*
X12742000Y871435D01*
X12742004Y871435D01*
X12921249Y891631D01*
X12921252Y891632D01*
X12921255Y891632D01*
X13091522Y951211D01*
X13244262Y1047184D01*
X13371816Y1174738D01*
X13467789Y1327478D01*
X13527368Y1497745D01*
X13527369Y1497751D01*
X13547565Y1676997D01*
X13547565Y1677004D01*
X13527369Y1856250D01*
X13527368Y1856255D01*
X13467789Y2026522D01*
X13371816Y2179262D01*
X13244262Y2306816D01*
X13212795Y2326588D01*
X13091523Y2402789D01*
X12921254Y2462369D01*
X12921249Y2462370D01*
X12742004Y2482565D01*
X12741996Y2482565D01*
X12562750Y2462370D01*
X12562745Y2462369D01*
X12392476Y2402789D01*
X12239737Y2306816D01*
X12112184Y2179263D01*
X12016211Y2026524D01*
X11956631Y1856255D01*
X11956630Y1856250D01*
X11936435Y1677004D01*
X11936435Y1676997D01*
X6858780Y1676997D01*
X6847169Y1780050D01*
X6847168Y1780055D01*
X6787588Y1950324D01*
X6691615Y2103063D01*
X6564062Y2230616D01*
X6411324Y2326588D01*
X6411321Y2326590D01*
X6341543Y2351006D01*
X6284767Y2391727D01*
X6259020Y2456680D01*
X6260132Y2488109D01*
X6285472Y2642672D01*
X6285473Y2642686D01*
X6304847Y2999998D01*
X6304847Y3000003D01*
X6285473Y3357315D01*
X6285472Y3357332D01*
X6227584Y3710432D01*
X6227578Y3710458D01*
X6131852Y4055233D01*
X6131850Y4055240D01*
X5999402Y4387660D01*
X5999393Y4387678D01*
X5831781Y4703828D01*
X5630975Y4999995D01*
X5630964Y5000009D01*
X5503556Y5150004D01*
X4294251Y3940699D01*
X4220412Y4042330D01*
X4042330Y4220412D01*
X3940698Y4294252D01*
X5152742Y5506296D01*
X5139504Y5518837D01*
X4854632Y5735389D01*
X4854616Y5735400D01*
X4617128Y5878291D01*
X4569833Y5929720D01*
X4557850Y5998554D01*
X4564013Y6025491D01*
X4573889Y6053713D01*
X4573890Y6053719D01*
X4594086Y6232965D01*
X4594086Y6232972D01*
X4592280Y6248997D01*
X6907235Y6248997D01*
X6927430Y6069751D01*
X6927431Y6069746D01*
X6987011Y5899477D01*
X7019144Y5848338D01*
X7082984Y5746738D01*
X7210538Y5619184D01*
X7363278Y5523211D01*
X7437885Y5497105D01*
X7533545Y5463632D01*
X7533550Y5463631D01*
X7712796Y5443435D01*
X7712800Y5443435D01*
X7712804Y5443435D01*
X7892049Y5463631D01*
X7892052Y5463632D01*
X7892055Y5463632D01*
X8062322Y5523211D01*
X8215062Y5619184D01*
X8342616Y5746738D01*
X8438589Y5899478D01*
X8498168Y6069745D01*
X8503811Y6119830D01*
X8518365Y6248997D01*
X8518365Y6249004D01*
X8506918Y6350597D01*
X10564835Y6350597D01*
X10585030Y6171351D01*
X10585031Y6171346D01*
X10644611Y6001077D01*
X10708451Y5899477D01*
X10740584Y5848338D01*
X10868138Y5720784D01*
X10958480Y5664018D01*
X10998501Y5638871D01*
X11020878Y5624811D01*
X11111566Y5593078D01*
X11191145Y5565232D01*
X11191150Y5565231D01*
X11370396Y5545035D01*
X11370400Y5545035D01*
X11370404Y5545035D01*
X11549649Y5565231D01*
X11549652Y5565232D01*
X11549655Y5565232D01*
X11719922Y5624811D01*
X11872662Y5720784D01*
X11950888Y5799010D01*
X14183035Y5799010D01*
X14203230Y5619764D01*
X14203231Y5619759D01*
X14262811Y5449490D01*
X14283020Y5417328D01*
X14358784Y5296751D01*
X14486338Y5169197D01*
X14639078Y5073224D01*
X14809345Y5013645D01*
X14809350Y5013644D01*
X14988596Y4993448D01*
X14988600Y4993448D01*
X14988604Y4993448D01*
X15167849Y5013644D01*
X15167852Y5013645D01*
X15167855Y5013645D01*
X15338122Y5073224D01*
X15490862Y5169197D01*
X15618416Y5296751D01*
X15714389Y5449491D01*
X15773968Y5619758D01*
X15773969Y5619764D01*
X15794165Y5799010D01*
X15794165Y5799017D01*
X15773969Y5978263D01*
X15773968Y5978268D01*
X15747569Y6053713D01*
X15714389Y6148535D01*
X15618416Y6301275D01*
X15490862Y6428829D01*
X15338123Y6524802D01*
X15167854Y6584382D01*
X15167849Y6584383D01*
X14988604Y6604578D01*
X14988596Y6604578D01*
X14809350Y6584383D01*
X14809345Y6584382D01*
X14639076Y6524802D01*
X14486337Y6428829D01*
X14358784Y6301276D01*
X14262811Y6148537D01*
X14203231Y5978268D01*
X14203230Y5978263D01*
X14183035Y5799017D01*
X14183035Y5799010D01*
X11950888Y5799010D01*
X12000216Y5848338D01*
X12096189Y6001078D01*
X12155768Y6171345D01*
X12157237Y6184384D01*
X12175965Y6350597D01*
X12175965Y6350604D01*
X12155769Y6529850D01*
X12155768Y6529855D01*
X12137350Y6582490D01*
X12096189Y6700122D01*
X12000216Y6852862D01*
X11943681Y6909397D01*
X17778435Y6909397D01*
X17798630Y6730151D01*
X17798631Y6730146D01*
X17858211Y6559877D01*
X17940555Y6428829D01*
X17954184Y6407138D01*
X18081738Y6279584D01*
X18153058Y6234771D01*
X18199349Y6182436D01*
X18210306Y6143661D01*
X18221575Y6043644D01*
X18281155Y5873372D01*
X18296885Y5848338D01*
X18377129Y5720631D01*
X18504683Y5593077D01*
X18548998Y5565232D01*
X18641388Y5507179D01*
X18657423Y5497104D01*
X18793493Y5449491D01*
X18827690Y5437525D01*
X18827695Y5437524D01*
X19006941Y5417328D01*
X19006945Y5417328D01*
X19006949Y5417328D01*
X19186194Y5437524D01*
X19186197Y5437525D01*
X19186200Y5437525D01*
X19356467Y5497104D01*
X19509207Y5593077D01*
X19636761Y5720631D01*
X19732734Y5873371D01*
X19792313Y6043638D01*
X19795255Y6069746D01*
X19812510Y6222890D01*
X19812510Y6222897D01*
X19792314Y6402143D01*
X19792313Y6402148D01*
X19788788Y6412223D01*
X19732734Y6572415D01*
X19726403Y6582490D01*
X19636760Y6725156D01*
X19509205Y6852711D01*
X19437884Y6897525D01*
X19391594Y6949859D01*
X19380637Y6988636D01*
X19369369Y7088650D01*
X19369368Y7088655D01*
X19332922Y7192812D01*
X19309789Y7258922D01*
X19282281Y7302700D01*
X19213815Y7411663D01*
X19086262Y7539216D01*
X18933523Y7635189D01*
X18763254Y7694769D01*
X18763249Y7694770D01*
X18584004Y7714965D01*
X18583996Y7714965D01*
X18404750Y7694770D01*
X18404745Y7694769D01*
X18234476Y7635189D01*
X18081737Y7539216D01*
X17954184Y7411663D01*
X17858211Y7258924D01*
X17798631Y7088655D01*
X17798630Y7088650D01*
X17778435Y6909404D01*
X17778435Y6909397D01*
X11943681Y6909397D01*
X11872662Y6980416D01*
X11812313Y7018336D01*
X11719923Y7076389D01*
X11549654Y7135969D01*
X11549649Y7135970D01*
X11370404Y7156165D01*
X11370396Y7156165D01*
X11191150Y7135970D01*
X11191145Y7135969D01*
X11020876Y7076389D01*
X10868137Y6980416D01*
X10740584Y6852863D01*
X10644611Y6700124D01*
X10585031Y6529855D01*
X10585030Y6529850D01*
X10564835Y6350604D01*
X10564835Y6350597D01*
X8506918Y6350597D01*
X8498169Y6428250D01*
X8498168Y6428255D01*
X8462618Y6529850D01*
X8438589Y6598522D01*
X8342616Y6751262D01*
X8215062Y6878816D01*
X8134727Y6929294D01*
X8062323Y6974789D01*
X7892054Y7034369D01*
X7892049Y7034370D01*
X7712804Y7054565D01*
X7712796Y7054565D01*
X7533550Y7034370D01*
X7533545Y7034369D01*
X7363276Y6974789D01*
X7210537Y6878816D01*
X7082984Y6751263D01*
X6987011Y6598524D01*
X6927431Y6428255D01*
X6927430Y6428250D01*
X6907235Y6249004D01*
X6907235Y6248997D01*
X4592280Y6248997D01*
X4573890Y6412218D01*
X4573889Y6412223D01*
X4534496Y6524802D01*
X4514310Y6582490D01*
X4504236Y6598522D01*
X4440397Y6700122D01*
X4418337Y6735230D01*
X4290783Y6862784D01*
X4216599Y6909397D01*
X4138044Y6958757D01*
X3967775Y7018337D01*
X3967770Y7018338D01*
X3788525Y7038533D01*
X3788517Y7038533D01*
X3609271Y7018338D01*
X3609266Y7018337D01*
X3438997Y6958757D01*
X3286258Y6862784D01*
X3158705Y6735231D01*
X3062732Y6582492D01*
X3003152Y6412223D01*
X3003151Y6412219D01*
X3002915Y6410116D01*
X3002383Y6408851D01*
X3001604Y6405436D01*
X3001005Y6405573D01*
X2975848Y6345702D01*
X2918253Y6306147D01*
X2879695Y6300000D01*
X2821075Y6300000D01*
X2465339Y6261312D01*
X2115855Y6184384D01*
X1776744Y6070124D01*
X1776739Y6070123D01*
X1451990Y5919877D01*
X1145370Y5735391D01*
X1145367Y5735389D01*
X860486Y5518830D01*
X860485Y5518829D01*
X847257Y5506298D01*
X847256Y5506297D01*
X2059301Y4294252D01*
X1957670Y4220412D01*
X1779588Y4042330D01*
X1705748Y3940699D01*
X496442Y5150005D01*
X496441Y5150004D01*
X369033Y5000008D01*
X226633Y4789983D01*
X172719Y4745542D01*
X103337Y4737304D01*
X40515Y4767885D01*
X4199Y4827575D01*
X0Y4859570D01*
X0Y9743797D01*
X1919279Y9743797D01*
X1939474Y9564551D01*
X1939475Y9564546D01*
X1999055Y9394277D01*
X2080856Y9264092D01*
X2095028Y9241538D01*
X2222582Y9113984D01*
X2258386Y9091487D01*
X2278213Y9079029D01*
X2324504Y9026694D01*
X2335152Y8957641D01*
X2306777Y8893792D01*
X2299923Y8886355D01*
X2258031Y8844463D01*
X2162058Y8691724D01*
X2102478Y8521455D01*
X2102477Y8521450D01*
X2082282Y8342204D01*
X2082282Y8342197D01*
X2102477Y8162951D01*
X2102478Y8162946D01*
X2162058Y7992677D01*
X2258029Y7839941D01*
X2258031Y7839938D01*
X2385585Y7712384D01*
X2538325Y7616411D01*
X2708592Y7556832D01*
X2708597Y7556831D01*
X2887843Y7536635D01*
X2887847Y7536635D01*
X2887851Y7536635D01*
X3067096Y7556831D01*
X3067099Y7556832D01*
X3067102Y7556832D01*
X3237369Y7616411D01*
X3390109Y7712384D01*
X3517663Y7839938D01*
X3582593Y7943275D01*
X3634925Y7989564D01*
X3687580Y8001301D01*
X5939672Y8001301D01*
X5999283Y8007709D01*
X6134131Y8058004D01*
X6249346Y8144254D01*
X6306728Y8220907D01*
X6362660Y8262776D01*
X6432352Y8267760D01*
X6470783Y8252321D01*
X6602940Y8171334D01*
X6834537Y8075404D01*
X6835689Y8074927D01*
X7080652Y8016117D01*
X7331800Y7996351D01*
X7582948Y8016117D01*
X7827911Y8074927D01*
X8060659Y8171334D01*
X8275459Y8302964D01*
X8467024Y8466576D01*
X8507510Y8513981D01*
X8566016Y8552173D01*
X8635884Y8552672D01*
X8694930Y8515318D01*
X8696035Y8514044D01*
X8736575Y8466577D01*
X8736576Y8466576D01*
X8928143Y8302962D01*
X8928146Y8302961D01*
X9142940Y8171334D01*
X9374537Y8075404D01*
X9375689Y8074927D01*
X9620652Y8016117D01*
X9871800Y7996351D01*
X10122948Y8016117D01*
X10367911Y8074927D01*
X10600659Y8171334D01*
X10815459Y8302964D01*
X11007024Y8466576D01*
X11047510Y8513981D01*
X11106016Y8552173D01*
X11175884Y8552672D01*
X11234930Y8515318D01*
X11236035Y8514044D01*
X11276575Y8466577D01*
X11276576Y8466576D01*
X11468143Y8302962D01*
X11468146Y8302961D01*
X11682940Y8171334D01*
X11914537Y8075404D01*
X11915689Y8074927D01*
X12160652Y8016117D01*
X12411800Y7996351D01*
X12662948Y8016117D01*
X12907911Y8074927D01*
X13140659Y8171334D01*
X13355459Y8302964D01*
X13547024Y8466576D01*
X13587510Y8513981D01*
X13646016Y8552173D01*
X13715884Y8552672D01*
X13774930Y8515318D01*
X13776035Y8514044D01*
X13816575Y8466577D01*
X13816576Y8466576D01*
X14008143Y8302962D01*
X14008146Y8302961D01*
X14222940Y8171334D01*
X14454537Y8075404D01*
X14455689Y8074927D01*
X14700652Y8016117D01*
X14951800Y7996351D01*
X15202948Y8016117D01*
X15447911Y8074927D01*
X15680659Y8171334D01*
X15895459Y8302964D01*
X16087024Y8466576D01*
X16250636Y8658141D01*
X16331679Y8790392D01*
X16349719Y8813274D01*
X16968012Y9431566D01*
X16979282Y9389508D01*
X17051690Y9264092D01*
X17154092Y9161690D01*
X17279508Y9089282D01*
X17321565Y9078013D01*
X16547619Y8304068D01*
X16547619Y8304067D01*
X16548434Y8303371D01*
X16763168Y8171781D01*
X16995843Y8075404D01*
X17240727Y8016613D01*
X17491800Y7996853D01*
X17742872Y8016613D01*
X17987756Y8075404D01*
X18220431Y8171781D01*
X18435161Y8303368D01*
X18435163Y8303370D01*
X18435980Y8304068D01*
X17662034Y9078013D01*
X17704092Y9089282D01*
X17829508Y9161690D01*
X17931910Y9264092D01*
X18004318Y9389508D01*
X18015587Y9431566D01*
X18633879Y8813274D01*
X18651925Y8790383D01*
X18732960Y8658147D01*
X18732961Y8658144D01*
X18732964Y8658141D01*
X18896576Y8466576D01*
X19042197Y8342204D01*
X19088143Y8302962D01*
X19088146Y8302961D01*
X19302940Y8171334D01*
X19534537Y8075404D01*
X19535689Y8074927D01*
X19780652Y8016117D01*
X20031800Y7996351D01*
X20282948Y8016117D01*
X20527911Y8074927D01*
X20760659Y8171334D01*
X20975459Y8302964D01*
X21167024Y8466576D01*
X21330636Y8658141D01*
X21462266Y8872941D01*
X21558673Y9105689D01*
X21617483Y9350652D01*
X21637249Y9601800D01*
X21617483Y9852948D01*
X21558673Y10097911D01*
X21488896Y10266368D01*
X21462266Y10330660D01*
X21379698Y10465397D01*
X22960035Y10465397D01*
X22980230Y10286151D01*
X22980231Y10286146D01*
X23039811Y10115877D01*
X23086288Y10041910D01*
X23135784Y9963138D01*
X23263338Y9835584D01*
X23416078Y9739611D01*
X23586345Y9680032D01*
X23586350Y9680031D01*
X23765596Y9659835D01*
X23765600Y9659835D01*
X23765604Y9659835D01*
X23944849Y9680031D01*
X23944852Y9680032D01*
X23944855Y9680032D01*
X24115122Y9739611D01*
X24267862Y9835584D01*
X24395416Y9963138D01*
X24491389Y10115878D01*
X24550968Y10286145D01*
X24550969Y10286151D01*
X24571165Y10465397D01*
X24571165Y10465404D01*
X24550969Y10644650D01*
X24550968Y10644655D01*
X24548598Y10651428D01*
X24491389Y10814922D01*
X24485119Y10824900D01*
X24410203Y10944129D01*
X24395416Y10967662D01*
X24267862Y11095216D01*
X24214614Y11128674D01*
X24115123Y11191189D01*
X23944854Y11250769D01*
X23944849Y11250770D01*
X23765604Y11270965D01*
X23765596Y11270965D01*
X23586350Y11250770D01*
X23586345Y11250769D01*
X23416076Y11191189D01*
X23263337Y11095216D01*
X23135784Y10967663D01*
X23039811Y10814924D01*
X22980231Y10644655D01*
X22980230Y10644650D01*
X22960035Y10465404D01*
X22960035Y10465397D01*
X21379698Y10465397D01*
X21330639Y10545454D01*
X21330638Y10545457D01*
X21259481Y10628771D01*
X21167024Y10737024D01*
X21008506Y10872411D01*
X20975456Y10900639D01*
X20975453Y10900640D01*
X20760659Y11032267D01*
X20527910Y11128674D01*
X20282951Y11187483D01*
X20031800Y11207249D01*
X19780648Y11187483D01*
X19535689Y11128674D01*
X19302940Y11032267D01*
X19088146Y10900640D01*
X19088143Y10900639D01*
X18896576Y10737024D01*
X18732966Y10545462D01*
X18651926Y10413219D01*
X18633880Y10390329D01*
X18015587Y9772036D01*
X18004318Y9814092D01*
X17931910Y9939508D01*
X17829508Y10041910D01*
X17704092Y10114318D01*
X17662034Y10125588D01*
X18435979Y10899534D01*
X18435162Y10900232D01*
X18220431Y11031820D01*
X17987756Y11128197D01*
X17742872Y11186988D01*
X17491800Y11206748D01*
X17240727Y11186988D01*
X16995843Y11128197D01*
X16763168Y11031820D01*
X16548437Y10900233D01*
X16547619Y10899534D01*
X17321565Y10125588D01*
X17279508Y10114318D01*
X17154092Y10041910D01*
X17051690Y9939508D01*
X16979282Y9814092D01*
X16968012Y9772036D01*
X16349719Y10390328D01*
X16331676Y10413214D01*
X16250636Y10545459D01*
X16087024Y10737024D01*
X15928506Y10872411D01*
X15895456Y10900639D01*
X15895453Y10900640D01*
X15680659Y11032267D01*
X15582225Y11073039D01*
X15527822Y11116880D01*
X15505757Y11183174D01*
X15523036Y11250873D01*
X15574173Y11298484D01*
X15579206Y11300863D01*
X15633393Y11324988D01*
X15778030Y11430074D01*
X15897659Y11562935D01*
X15987050Y11717765D01*
X16042297Y11887797D01*
X16060985Y12065600D01*
X16042297Y12243403D01*
X16014673Y12328419D01*
X15987052Y12413430D01*
X15987049Y12413436D01*
X15963725Y12453835D01*
X15897659Y12568265D01*
X15812280Y12663088D01*
X15778035Y12701122D01*
X15778032Y12701124D01*
X15778031Y12701125D01*
X15778030Y12701126D01*
X15633393Y12806212D01*
X15470067Y12878929D01*
X15470065Y12878930D01*
X15324463Y12909878D01*
X15295191Y12916100D01*
X15116409Y12916100D01*
X15087137Y12909878D01*
X14941533Y12878930D01*
X14941528Y12878928D01*
X14778208Y12806213D01*
X14633568Y12701125D01*
X14513940Y12568264D01*
X14424550Y12413436D01*
X14424548Y12413432D01*
X14395834Y12325059D01*
X14356396Y12267384D01*
X14292037Y12240186D01*
X14223191Y12252101D01*
X14211930Y12258385D01*
X14107524Y12323989D01*
X13937254Y12383569D01*
X13937249Y12383570D01*
X13758004Y12403765D01*
X13757996Y12403765D01*
X13578750Y12383570D01*
X13578745Y12383569D01*
X13408476Y12323989D01*
X13255737Y12228016D01*
X13128184Y12100463D01*
X13032211Y11947724D01*
X12972631Y11777455D01*
X12972630Y11777450D01*
X12952435Y11598204D01*
X12952435Y11598197D01*
X12972630Y11418951D01*
X12972632Y11418943D01*
X13014359Y11299694D01*
X13017920Y11229915D01*
X12983191Y11169288D01*
X12921198Y11137061D01*
X12868370Y11138166D01*
X12662951Y11187483D01*
X12411800Y11207249D01*
X12160648Y11187483D01*
X11915689Y11128674D01*
X11682940Y11032267D01*
X11468146Y10900640D01*
X11468143Y10900639D01*
X11276576Y10737024D01*
X11236090Y10689621D01*
X11177583Y10651428D01*
X11107715Y10650930D01*
X11048669Y10688284D01*
X11047510Y10689621D01*
X11007024Y10737024D01*
X10848506Y10872411D01*
X10815456Y10900639D01*
X10815453Y10900640D01*
X10600659Y11032267D01*
X10367910Y11128674D01*
X10122951Y11187483D01*
X9871800Y11207249D01*
X9620648Y11187483D01*
X9375689Y11128674D01*
X9142940Y11032267D01*
X8928146Y10900640D01*
X8928143Y10900639D01*
X8736576Y10737024D01*
X8696090Y10689621D01*
X8637583Y10651428D01*
X8567715Y10650930D01*
X8508669Y10688284D01*
X8507510Y10689621D01*
X8467024Y10737024D01*
X8308506Y10872411D01*
X8275456Y10900639D01*
X8275453Y10900640D01*
X8060659Y11032267D01*
X7827910Y11128674D01*
X7582951Y11187483D01*
X7331800Y11207249D01*
X7080648Y11187483D01*
X6835687Y11128673D01*
X6835685Y11128673D01*
X6810217Y11118123D01*
X6740748Y11110654D01*
X6678269Y11141930D01*
X6642617Y11202019D01*
X6640287Y11220565D01*
X6639545Y11220481D01*
X6618569Y11406650D01*
X6618568Y11406655D01*
X6563883Y11562935D01*
X6558989Y11576922D01*
X6538100Y11610166D01*
X6470491Y11717765D01*
X6463016Y11729662D01*
X6335462Y11857216D01*
X6286793Y11887797D01*
X6182723Y11953189D01*
X6012454Y12012769D01*
X6012449Y12012770D01*
X5833204Y12032965D01*
X5833196Y12032965D01*
X5653950Y12012770D01*
X5653945Y12012769D01*
X5483676Y11953189D01*
X5330937Y11857216D01*
X5203384Y11729663D01*
X5107411Y11576924D01*
X5047831Y11406655D01*
X5047830Y11406651D01*
X5037213Y11312416D01*
X5010146Y11248002D01*
X4952551Y11208447D01*
X4913993Y11202300D01*
X3643929Y11202300D01*
X3643923Y11202299D01*
X3584316Y11195892D01*
X3449471Y11145598D01*
X3449464Y11145594D01*
X3334255Y11059348D01*
X3334252Y11059345D01*
X3248006Y10944136D01*
X3248002Y10944129D01*
X3197708Y10809283D01*
X3191301Y10749684D01*
X3191300Y10749665D01*
X3191300Y10603435D01*
X3171615Y10536396D01*
X3118811Y10490641D01*
X3049653Y10480697D01*
X3026346Y10486393D01*
X2904101Y10529168D01*
X2904093Y10529170D01*
X2724848Y10549365D01*
X2724840Y10549365D01*
X2545594Y10529170D01*
X2545589Y10529169D01*
X2375320Y10469589D01*
X2222581Y10373616D01*
X2095028Y10246063D01*
X1999055Y10093324D01*
X1939475Y9923055D01*
X1939474Y9923050D01*
X1919279Y9743804D01*
X1919279Y9743797D01*
X0Y9743797D01*
X0Y9928260D01*
X19685Y9995299D01*
X72489Y10041054D01*
X141647Y10050998D01*
X202666Y10024112D01*
X245459Y9988992D01*
X245467Y9988987D01*
X419266Y9896089D01*
X419269Y9896089D01*
X419273Y9896086D01*
X607868Y9838876D01*
X804000Y9819559D01*
X1000132Y9838876D01*
X1188727Y9896086D01*
X1239183Y9923055D01*
X1362532Y9988987D01*
X1362538Y9988990D01*
X1514883Y10114017D01*
X1639910Y10266362D01*
X1706172Y10390329D01*
X1732811Y10440167D01*
X1732811Y10440168D01*
X1732814Y10440173D01*
X1790024Y10628768D01*
X1809341Y10824900D01*
X1790024Y11021032D01*
X1732814Y11209627D01*
X1732811Y11209631D01*
X1732811Y11209634D01*
X1639913Y11383433D01*
X1639909Y11383440D01*
X1514883Y11535784D01*
X1362539Y11660810D01*
X1362532Y11660814D01*
X1188733Y11753712D01*
X1188727Y11753714D01*
X1000132Y11810924D01*
X1000129Y11810925D01*
X804000Y11830241D01*
X607870Y11810925D01*
X419266Y11753712D01*
X245467Y11660814D01*
X245460Y11660809D01*
X202665Y11625688D01*
X138355Y11598375D01*
X69487Y11610166D01*
X17927Y11657318D01*
X0Y11721541D01*
X0Y16002600D01*
X3354659Y16002600D01*
X3373975Y15806471D01*
X3391072Y15750109D01*
X3422410Y15646802D01*
X3431188Y15617867D01*
X3524086Y15444068D01*
X3524090Y15444061D01*
X3649116Y15291717D01*
X3801460Y15166691D01*
X3801467Y15166687D01*
X3975266Y15073789D01*
X3975269Y15073789D01*
X3975273Y15073786D01*
X4163868Y15016576D01*
X4360000Y14997259D01*
X4556132Y15016576D01*
X4686572Y15056146D01*
X4756439Y15056769D01*
X4815552Y15019521D01*
X4845143Y14956228D01*
X4843142Y14908538D01*
X4806317Y14755152D01*
X4786551Y14504000D01*
X4806317Y14252849D01*
X4865126Y14007890D01*
X4961533Y13775141D01*
X5093160Y13560347D01*
X5093161Y13560344D01*
X5093164Y13560341D01*
X5256776Y13368776D01*
X5346940Y13291769D01*
X5448343Y13205162D01*
X5448346Y13205161D01*
X5663140Y13073534D01*
X5819756Y13008662D01*
X5895889Y12977127D01*
X6140852Y12918317D01*
X6392000Y12898551D01*
X6643148Y12918317D01*
X6888111Y12977127D01*
X7120859Y13073534D01*
X7335659Y13205164D01*
X7527224Y13368776D01*
X7690836Y13560341D01*
X7822466Y13775141D01*
X7918873Y14007889D01*
X7977683Y14252852D01*
X7997449Y14504000D01*
X7977683Y14755148D01*
X7918873Y15000111D01*
X7880531Y15092678D01*
X7822466Y15232860D01*
X7741479Y15365017D01*
X7723234Y15432462D01*
X7744350Y15499065D01*
X7772891Y15529071D01*
X7849546Y15586454D01*
X7935796Y15701669D01*
X7986091Y15836517D01*
X7992500Y15896127D01*
X7992499Y16324787D01*
X8012183Y16391823D01*
X8064987Y16437578D01*
X8134146Y16447522D01*
X8197702Y16418497D01*
X8221492Y16390756D01*
X8302179Y16262344D01*
X8302184Y16262338D01*
X8429738Y16134784D01*
X8582478Y16038811D01*
X8752745Y15979232D01*
X8752750Y15979231D01*
X8931996Y15959035D01*
X8932000Y15959035D01*
X8932004Y15959035D01*
X9111249Y15979231D01*
X9111252Y15979232D01*
X9111255Y15979232D01*
X9281522Y16038811D01*
X9434262Y16134784D01*
X9561816Y16262338D01*
X9657789Y16415078D01*
X9717368Y16585345D01*
X9717369Y16585351D01*
X9737565Y16764597D01*
X9737565Y16764604D01*
X9717369Y16943850D01*
X9717368Y16943855D01*
X9681097Y17047512D01*
X9657789Y17114122D01*
X9644156Y17135818D01*
X9598317Y17208771D01*
X9561816Y17266862D01*
X9434262Y17394416D01*
X9281523Y17490389D01*
X9111254Y17549969D01*
X9111249Y17549970D01*
X8932004Y17570165D01*
X8931996Y17570165D01*
X8752750Y17549970D01*
X8752745Y17549969D01*
X8582476Y17490389D01*
X8429737Y17394416D01*
X8302182Y17266861D01*
X8221492Y17138444D01*
X8169157Y17092153D01*
X8100104Y17081506D01*
X8036256Y17109881D01*
X7997884Y17168271D01*
X7992499Y17204417D01*
X7992499Y17773297D01*
X9911735Y17773297D01*
X9931930Y17594051D01*
X9931931Y17594046D01*
X9991511Y17423777D01*
X10076482Y17288548D01*
X10087484Y17271038D01*
X10215038Y17143484D01*
X10275709Y17105362D01*
X10358854Y17053118D01*
X10367778Y17047511D01*
X10451001Y17018390D01*
X10538045Y16987932D01*
X10538050Y16987931D01*
X10717296Y16967735D01*
X10717300Y16967735D01*
X10717304Y16967735D01*
X10896549Y16987931D01*
X10896551Y16987932D01*
X10896555Y16987932D01*
X10896558Y16987934D01*
X10896562Y16987934D01*
X11072667Y17049556D01*
X11142446Y17053118D01*
X11203073Y17018390D01*
X11235301Y16956396D01*
X11228896Y16886821D01*
X11210575Y16855209D01*
X11208585Y16852714D01*
X11112611Y16699974D01*
X11053031Y16529705D01*
X11053030Y16529700D01*
X11032835Y16350454D01*
X11032835Y16350447D01*
X11053030Y16171201D01*
X11053031Y16171196D01*
X11078072Y16099634D01*
X11112611Y16000928D01*
X11178468Y15896117D01*
X11180652Y15892642D01*
X11199652Y15825406D01*
X11179285Y15758570D01*
X11147735Y15727653D01*
X11148384Y15726840D01*
X11142937Y15722497D01*
X11015384Y15594944D01*
X10919411Y15442205D01*
X10859831Y15271936D01*
X10859830Y15271931D01*
X10839635Y15092685D01*
X10839635Y15092678D01*
X10859830Y14913432D01*
X10859831Y14913427D01*
X10919411Y14743158D01*
X10938401Y14712936D01*
X11015384Y14590419D01*
X11142938Y14462865D01*
X11295678Y14366892D01*
X11317641Y14359207D01*
X11319004Y14358730D01*
X11375780Y14318008D01*
X11395092Y14282642D01*
X11453073Y14116940D01*
X11485731Y14064965D01*
X11549047Y13964199D01*
X11676601Y13836645D01*
X11728011Y13804342D01*
X11795935Y13761662D01*
X11829341Y13740672D01*
X11926722Y13706597D01*
X11999608Y13681093D01*
X11999613Y13681092D01*
X12178859Y13660896D01*
X12178863Y13660896D01*
X12178867Y13660896D01*
X12358112Y13681092D01*
X12358115Y13681093D01*
X12358118Y13681093D01*
X12528385Y13740672D01*
X12651408Y13817974D01*
X12718641Y13836973D01*
X12758333Y13830020D01*
X12831707Y13804345D01*
X12831713Y13804344D01*
X12831715Y13804343D01*
X12831716Y13804343D01*
X12831720Y13804342D01*
X13010966Y13784146D01*
X13010970Y13784146D01*
X13010971Y13784146D01*
X13023702Y13785581D01*
X13089123Y13792952D01*
X13157943Y13780898D01*
X13209323Y13733549D01*
X13226226Y13683616D01*
X13243832Y13527350D01*
X13243833Y13527346D01*
X13303413Y13357077D01*
X13364788Y13259400D01*
X13399386Y13204338D01*
X13526940Y13076784D01*
X13586511Y13039353D01*
X13635358Y13008660D01*
X13679680Y12980811D01*
X13849147Y12921512D01*
X13849947Y12921232D01*
X13849952Y12921231D01*
X14029198Y12901035D01*
X14029202Y12901035D01*
X14029206Y12901035D01*
X14208451Y12921231D01*
X14208454Y12921232D01*
X14208457Y12921232D01*
X14378724Y12980811D01*
X14531464Y13076784D01*
X14659018Y13204338D01*
X14754991Y13357078D01*
X14766117Y13388873D01*
X19021462Y13388873D01*
X19041657Y13209627D01*
X19041658Y13209622D01*
X19101238Y13039353D01*
X19175283Y12921512D01*
X19197211Y12886614D01*
X19324765Y12759060D01*
X19477505Y12663087D01*
X19573251Y12629584D01*
X19647772Y12603508D01*
X19647777Y12603507D01*
X19827023Y12583311D01*
X19827027Y12583311D01*
X19827031Y12583311D01*
X20006276Y12603507D01*
X20006279Y12603508D01*
X20006282Y12603508D01*
X20176549Y12663087D01*
X20329289Y12759060D01*
X20456843Y12886614D01*
X20552816Y13039354D01*
X20612395Y13209621D01*
X20614938Y13232188D01*
X20618004Y13259397D01*
X21029635Y13259397D01*
X21049830Y13080151D01*
X21049831Y13080146D01*
X21109411Y12909877D01*
X21191831Y12778708D01*
X21205384Y12757138D01*
X21332938Y12629584D01*
X21406581Y12583311D01*
X21430526Y12568265D01*
X21485678Y12533611D01*
X21563454Y12506396D01*
X21655945Y12474032D01*
X21655950Y12474031D01*
X21835196Y12453835D01*
X21835200Y12453835D01*
X21835204Y12453835D01*
X22014449Y12474031D01*
X22014452Y12474032D01*
X22014455Y12474032D01*
X22106946Y12506396D01*
X22715034Y12506396D01*
X22735229Y12327150D01*
X22735230Y12327145D01*
X22794810Y12156876D01*
X22885359Y12012769D01*
X22890783Y12004137D01*
X23018337Y11876583D01*
X23171077Y11780610D01*
X23316675Y11729663D01*
X23341344Y11721031D01*
X23341349Y11721030D01*
X23520595Y11700834D01*
X23520599Y11700834D01*
X23520603Y11700834D01*
X23699848Y11721030D01*
X23699851Y11721031D01*
X23699854Y11721031D01*
X23870121Y11780610D01*
X24022861Y11876583D01*
X24150415Y12004137D01*
X24246388Y12156877D01*
X24305967Y12327144D01*
X24305968Y12327150D01*
X24326164Y12506396D01*
X24326164Y12506403D01*
X24305968Y12685649D01*
X24305967Y12685654D01*
X24305966Y12685657D01*
X24246388Y12855921D01*
X24231930Y12878930D01*
X24167914Y12980811D01*
X24150415Y13008661D01*
X24022861Y13136215D01*
X23870122Y13232188D01*
X23699853Y13291768D01*
X23699848Y13291769D01*
X23520603Y13311964D01*
X23520595Y13311964D01*
X23341349Y13291769D01*
X23341344Y13291768D01*
X23171075Y13232188D01*
X23018336Y13136215D01*
X22890781Y13008660D01*
X22810042Y12880165D01*
X22769481Y12844289D01*
X22770076Y12785943D01*
X22767791Y12778708D01*
X22735231Y12685657D01*
X22735229Y12685649D01*
X22715034Y12506403D01*
X22715034Y12506396D01*
X22106946Y12506396D01*
X22184722Y12533611D01*
X22337462Y12629584D01*
X22465016Y12757138D01*
X22545756Y12885635D01*
X22586316Y12921512D01*
X22585722Y12979858D01*
X22588008Y12987093D01*
X22620566Y13080138D01*
X22620569Y13080151D01*
X22640765Y13259397D01*
X22640765Y13259404D01*
X22620569Y13438650D01*
X22620568Y13438655D01*
X22560988Y13608924D01*
X22521782Y13671320D01*
X22465016Y13761662D01*
X22337462Y13889216D01*
X22239199Y13950959D01*
X22184723Y13985189D01*
X22014454Y14044769D01*
X22014449Y14044770D01*
X21835204Y14064965D01*
X21835196Y14064965D01*
X21655950Y14044770D01*
X21655945Y14044769D01*
X21485676Y13985189D01*
X21332937Y13889216D01*
X21205384Y13761663D01*
X21109411Y13608924D01*
X21049831Y13438655D01*
X21049830Y13438650D01*
X21029635Y13259404D01*
X21029635Y13259397D01*
X20618004Y13259397D01*
X20632592Y13388873D01*
X20632592Y13388880D01*
X20612396Y13568126D01*
X20612395Y13568131D01*
X20571985Y13683616D01*
X20552816Y13738398D01*
X20526111Y13780898D01*
X20502816Y13817972D01*
X20456843Y13891138D01*
X20456842Y13891139D01*
X20452502Y13896581D01*
X20453930Y13897721D01*
X20424860Y13950959D01*
X20429844Y14020651D01*
X20471716Y14076584D01*
X20537180Y14101001D01*
X20559910Y14100537D01*
X20683374Y14086626D01*
X20683377Y14086626D01*
X20683381Y14086626D01*
X20862626Y14106822D01*
X20862629Y14106823D01*
X20862632Y14106823D01*
X21032899Y14166402D01*
X21185639Y14262375D01*
X21313193Y14389929D01*
X21409166Y14542669D01*
X21468745Y14712936D01*
X21472150Y14743158D01*
X21488942Y14892188D01*
X21488942Y14892195D01*
X21468746Y15071441D01*
X21468745Y15071446D01*
X21445105Y15139004D01*
X21409166Y15241713D01*
X21313193Y15394453D01*
X21185639Y15522007D01*
X21107895Y15570857D01*
X21032900Y15617980D01*
X20862631Y15677560D01*
X20862626Y15677561D01*
X20683381Y15697756D01*
X20683373Y15697756D01*
X20504127Y15677561D01*
X20504122Y15677560D01*
X20333853Y15617980D01*
X20181114Y15522007D01*
X20053561Y15394454D01*
X19957588Y15241715D01*
X19898008Y15071446D01*
X19898007Y15071441D01*
X19877812Y14892195D01*
X19877812Y14892188D01*
X19898007Y14712942D01*
X19898008Y14712937D01*
X19957588Y14542668D01*
X20053561Y14389929D01*
X20057902Y14384486D01*
X20056473Y14383347D01*
X20085543Y14330109D01*
X20080559Y14260417D01*
X20038687Y14204484D01*
X19973223Y14180067D01*
X19950494Y14180531D01*
X19827031Y14194441D01*
X19827023Y14194441D01*
X19647777Y14174246D01*
X19647772Y14174245D01*
X19477503Y14114665D01*
X19324764Y14018692D01*
X19197211Y13891139D01*
X19101238Y13738400D01*
X19041658Y13568131D01*
X19041657Y13568126D01*
X19021462Y13388880D01*
X19021462Y13388873D01*
X14766117Y13388873D01*
X14814570Y13527345D01*
X14818288Y13560344D01*
X14834767Y13706597D01*
X14834767Y13706604D01*
X14814571Y13885850D01*
X14814570Y13885855D01*
X14787156Y13964199D01*
X14754991Y14056122D01*
X14659574Y14207976D01*
X14640575Y14275211D01*
X14660943Y14342047D01*
X14714210Y14387261D01*
X14723615Y14390989D01*
X14787122Y14413211D01*
X14939862Y14509184D01*
X15067416Y14636738D01*
X15163389Y14789478D01*
X15222968Y14959745D01*
X15222969Y14959751D01*
X15225994Y14986597D01*
X15695635Y14986597D01*
X15715830Y14807351D01*
X15715831Y14807346D01*
X15775411Y14637077D01*
X15859819Y14502744D01*
X15871384Y14484338D01*
X15998938Y14356784D01*
X16041391Y14330109D01*
X16128760Y14275211D01*
X16151678Y14260811D01*
X16300140Y14208862D01*
X16321945Y14201232D01*
X16321950Y14201231D01*
X16501196Y14181035D01*
X16501200Y14181035D01*
X16501204Y14181035D01*
X16680449Y14201231D01*
X16680452Y14201232D01*
X16680455Y14201232D01*
X16850722Y14260811D01*
X17003462Y14356784D01*
X17131016Y14484338D01*
X17226989Y14637078D01*
X17286568Y14807345D01*
X17286569Y14807351D01*
X17306765Y14986597D01*
X17306765Y14986604D01*
X17286569Y15165850D01*
X17286568Y15165855D01*
X17249450Y15271931D01*
X17226989Y15336122D01*
X17202509Y15375081D01*
X17168112Y15429824D01*
X17131016Y15488862D01*
X17003462Y15616416D01*
X16963920Y15641262D01*
X16850723Y15712389D01*
X16680454Y15771969D01*
X16680449Y15771970D01*
X16501204Y15792165D01*
X16501196Y15792165D01*
X16321950Y15771970D01*
X16321945Y15771969D01*
X16151676Y15712389D01*
X15998937Y15616416D01*
X15871384Y15488863D01*
X15775411Y15336124D01*
X15715831Y15165855D01*
X15715830Y15165850D01*
X15695635Y14986604D01*
X15695635Y14986597D01*
X15225994Y14986597D01*
X15243165Y15138997D01*
X15243165Y15139004D01*
X15222969Y15318250D01*
X15222968Y15318255D01*
X15195744Y15396056D01*
X15163389Y15488522D01*
X15163175Y15488862D01*
X15118332Y15560229D01*
X15067416Y15641262D01*
X14939862Y15768816D01*
X14879939Y15806468D01*
X14787124Y15864788D01*
X14787120Y15864790D01*
X14758307Y15874872D01*
X14701531Y15915594D01*
X14682221Y15950956D01*
X14630197Y16099634D01*
X14534224Y16252374D01*
X14406670Y16379928D01*
X14394895Y16387327D01*
X14253931Y16475901D01*
X14083662Y16535481D01*
X14083657Y16535482D01*
X13904412Y16555677D01*
X13904404Y16555677D01*
X13725158Y16535482D01*
X13725153Y16535481D01*
X13554884Y16475901D01*
X13402145Y16379928D01*
X13274592Y16252375D01*
X13178619Y16099636D01*
X13119039Y15929367D01*
X13119038Y15929362D01*
X13098843Y15750116D01*
X13098843Y15750109D01*
X13119038Y15570863D01*
X13119041Y15570852D01*
X13122758Y15560229D01*
X13126319Y15490451D01*
X13091590Y15429824D01*
X13029596Y15397597D01*
X13017844Y15396455D01*
X13017889Y15396056D01*
X12831720Y15375081D01*
X12831715Y15375080D01*
X12661444Y15315499D01*
X12591342Y15271451D01*
X12524106Y15252451D01*
X12457270Y15272819D01*
X12412057Y15326087D01*
X12408329Y15335491D01*
X12408108Y15336124D01*
X12370989Y15442203D01*
X12302947Y15550490D01*
X12283947Y15617726D01*
X12304314Y15684561D01*
X12335866Y15715475D01*
X12335216Y15716291D01*
X12340656Y15720631D01*
X12340662Y15720634D01*
X12468216Y15848188D01*
X12564189Y16000928D01*
X12623768Y16171195D01*
X12623769Y16171201D01*
X12643965Y16350447D01*
X12643965Y16350454D01*
X12623769Y16529700D01*
X12623768Y16529705D01*
X12564188Y16699974D01*
X12523578Y16764604D01*
X12468216Y16852712D01*
X12340662Y16980266D01*
X12328462Y16987932D01*
X12187923Y17076239D01*
X12017654Y17135819D01*
X12017649Y17135820D01*
X11838404Y17156015D01*
X11838396Y17156015D01*
X11659150Y17135820D01*
X11659142Y17135818D01*
X11483031Y17074194D01*
X11413252Y17070633D01*
X11352625Y17105362D01*
X11320398Y17167355D01*
X11326803Y17236931D01*
X11345135Y17268555D01*
X11347108Y17271031D01*
X11347116Y17271038D01*
X11443089Y17423778D01*
X11502668Y17594045D01*
X11502669Y17594051D01*
X11522865Y17773297D01*
X11522865Y17773304D01*
X11509551Y17891469D01*
X12894829Y17891469D01*
X12915024Y17712223D01*
X12915025Y17712218D01*
X12974605Y17541949D01*
X13012224Y17482079D01*
X13070578Y17389210D01*
X13198132Y17261656D01*
X13350872Y17165683D01*
X13498219Y17114124D01*
X13521139Y17106104D01*
X13521144Y17106103D01*
X13700390Y17085907D01*
X13700394Y17085907D01*
X13700398Y17085907D01*
X13879643Y17106103D01*
X13879646Y17106104D01*
X13879649Y17106104D01*
X14049916Y17165683D01*
X14202656Y17261656D01*
X14330210Y17389210D01*
X14426183Y17541950D01*
X14485762Y17712217D01*
X14492644Y17773297D01*
X14505959Y17891469D01*
X14505959Y17891476D01*
X14494322Y17994760D01*
X15048025Y17994760D01*
X15068220Y17815514D01*
X15068221Y17815509D01*
X15127801Y17645240D01*
X15174974Y17570165D01*
X15223774Y17492501D01*
X15351328Y17364947D01*
X15504068Y17268974D01*
X15674335Y17209395D01*
X15674340Y17209394D01*
X15853586Y17189198D01*
X15853590Y17189198D01*
X15853594Y17189198D01*
X16032839Y17209394D01*
X16032842Y17209395D01*
X16032845Y17209395D01*
X16203112Y17268974D01*
X16355852Y17364947D01*
X16444485Y17453581D01*
X16505804Y17487063D01*
X16575496Y17482079D01*
X16619844Y17453578D01*
X16688902Y17384520D01*
X16841642Y17288547D01*
X16989152Y17236931D01*
X17011909Y17228968D01*
X17011914Y17228967D01*
X17191160Y17208771D01*
X17191164Y17208771D01*
X17191168Y17208771D01*
X17370413Y17228967D01*
X17370416Y17228968D01*
X17370419Y17228968D01*
X17540686Y17288547D01*
X17693426Y17384520D01*
X17820980Y17512074D01*
X17916953Y17664814D01*
X17976532Y17835081D01*
X17982472Y17887800D01*
X17996729Y18014333D01*
X17996729Y18014340D01*
X17976533Y18193586D01*
X17976532Y18193591D01*
X17934924Y18312500D01*
X17916953Y18363858D01*
X17900485Y18390066D01*
X17877746Y18426256D01*
X17820980Y18516598D01*
X17693426Y18644152D01*
X17644424Y18674942D01*
X17540687Y18740125D01*
X17363846Y18802004D01*
X17364425Y18803660D01*
X17311258Y18833403D01*
X17278404Y18895066D01*
X17284103Y18964703D01*
X17326546Y19020204D01*
X17385949Y19043400D01*
X17418895Y19047112D01*
X17589162Y19106691D01*
X17741902Y19202664D01*
X17869456Y19330218D01*
X17965429Y19482958D01*
X18025008Y19653225D01*
X18025009Y19653231D01*
X18045205Y19832477D01*
X18045205Y19832484D01*
X18025009Y20011730D01*
X18025008Y20011735D01*
X17972930Y20160564D01*
X17965429Y20182002D01*
X17869456Y20334742D01*
X17763804Y20440394D01*
X17730320Y20501717D01*
X17728266Y20541959D01*
X17741592Y20660231D01*
X17741592Y20660234D01*
X17735098Y20717863D01*
X17730266Y20760747D01*
X17742320Y20829567D01*
X17765802Y20862308D01*
X17820016Y20916521D01*
X17915989Y21069261D01*
X17975568Y21239528D01*
X17977754Y21258930D01*
X17995765Y21418780D01*
X17995765Y21418787D01*
X17975569Y21598033D01*
X17975568Y21598038D01*
X17925357Y21741532D01*
X17915989Y21768305D01*
X17820016Y21921045D01*
X17692462Y22048599D01*
X17622018Y22092862D01*
X17539723Y22144572D01*
X17369454Y22204152D01*
X17369449Y22204153D01*
X17190204Y22224348D01*
X17190196Y22224348D01*
X17010950Y22204153D01*
X17010945Y22204152D01*
X16840676Y22144572D01*
X16687937Y22048599D01*
X16560384Y21921046D01*
X16464411Y21768307D01*
X16404831Y21598038D01*
X16404830Y21598033D01*
X16384635Y21418787D01*
X16384635Y21418779D01*
X16395959Y21318270D01*
X16383904Y21249448D01*
X16360422Y21216707D01*
X16306212Y21162496D01*
X16210238Y21009756D01*
X16150658Y20839487D01*
X16150657Y20839482D01*
X16130462Y20660236D01*
X16130462Y20660229D01*
X16150657Y20480983D01*
X16150658Y20480978D01*
X16210238Y20310709D01*
X16306211Y20157970D01*
X16411861Y20052320D01*
X16445346Y19990997D01*
X16447400Y19950756D01*
X16434075Y19832485D01*
X16434075Y19832477D01*
X16454270Y19653231D01*
X16454271Y19653226D01*
X16513851Y19482957D01*
X16589326Y19362840D01*
X16609824Y19330218D01*
X16737378Y19202664D01*
X16783310Y19173803D01*
X16862981Y19123742D01*
X16890118Y19106691D01*
X17060382Y19047113D01*
X17066958Y19044812D01*
X17066377Y19043154D01*
X17119532Y19013427D01*
X17152396Y18951768D01*
X17146707Y18882131D01*
X17104272Y18826624D01*
X17044854Y18803417D01*
X17011913Y18799706D01*
X17011909Y18799705D01*
X16841640Y18740125D01*
X16688903Y18644153D01*
X16600271Y18555521D01*
X16538947Y18522037D01*
X16469256Y18527021D01*
X16424909Y18555522D01*
X16355852Y18624579D01*
X16203113Y18720552D01*
X16032844Y18780132D01*
X16032839Y18780133D01*
X15853594Y18800328D01*
X15853586Y18800328D01*
X15674340Y18780133D01*
X15674335Y18780132D01*
X15504066Y18720552D01*
X15351327Y18624579D01*
X15223774Y18497026D01*
X15127801Y18344287D01*
X15068221Y18174018D01*
X15068220Y18174013D01*
X15048025Y17994767D01*
X15048025Y17994760D01*
X14494322Y17994760D01*
X14485763Y18070722D01*
X14485762Y18070727D01*
X14454831Y18159123D01*
X14426183Y18240994D01*
X14419592Y18251483D01*
X14379885Y18314677D01*
X14330210Y18393734D01*
X14202656Y18521288D01*
X14148173Y18555522D01*
X14049917Y18617261D01*
X13879648Y18676841D01*
X13879643Y18676842D01*
X13700398Y18697037D01*
X13700390Y18697037D01*
X13521144Y18676842D01*
X13521139Y18676841D01*
X13350870Y18617261D01*
X13198131Y18521288D01*
X13070578Y18393735D01*
X12974605Y18240996D01*
X12915025Y18070727D01*
X12915024Y18070722D01*
X12894829Y17891476D01*
X12894829Y17891469D01*
X11509551Y17891469D01*
X11502669Y17952550D01*
X11502668Y17952555D01*
X11465427Y18058984D01*
X11443089Y18122822D01*
X11347116Y18275562D01*
X11219562Y18403116D01*
X11066823Y18499089D01*
X10896554Y18558669D01*
X10896549Y18558670D01*
X10717304Y18578865D01*
X10717296Y18578865D01*
X10538050Y18558670D01*
X10538045Y18558669D01*
X10367776Y18499089D01*
X10215037Y18403116D01*
X10087484Y18275563D01*
X9991511Y18122824D01*
X9931931Y17952555D01*
X9931930Y17952550D01*
X9911735Y17773304D01*
X9911735Y17773297D01*
X7992499Y17773297D01*
X7992499Y18191871D01*
X7992498Y18191877D01*
X7992497Y18191884D01*
X7986091Y18251483D01*
X7962521Y18314677D01*
X7935797Y18386329D01*
X7935793Y18386336D01*
X7849547Y18501545D01*
X7849544Y18501548D01*
X7734335Y18587794D01*
X7734328Y18587798D01*
X7599482Y18638092D01*
X7599483Y18638092D01*
X7539883Y18644499D01*
X7539881Y18644500D01*
X7539873Y18644500D01*
X7539864Y18644500D01*
X5244129Y18644500D01*
X5244123Y18644499D01*
X5184516Y18638092D01*
X5049671Y18587798D01*
X5049664Y18587794D01*
X4934455Y18501548D01*
X4934452Y18501545D01*
X4848206Y18386336D01*
X4848202Y18386329D01*
X4797908Y18251483D01*
X4791685Y18193591D01*
X4791501Y18191877D01*
X4791500Y18191865D01*
X4791500Y17084421D01*
X4771815Y17017382D01*
X4719011Y16971627D01*
X4649853Y16961683D01*
X4631505Y16965760D01*
X4556130Y16988625D01*
X4360000Y17007941D01*
X4163870Y16988625D01*
X3975266Y16931412D01*
X3801467Y16838514D01*
X3801460Y16838510D01*
X3649116Y16713484D01*
X3524090Y16561140D01*
X3524086Y16561133D01*
X3431188Y16387334D01*
X3373975Y16198730D01*
X3354659Y16002600D01*
X0Y16002600D01*
X0Y20996424D01*
X19685Y21063463D01*
X72489Y21109218D01*
X141647Y21119162D01*
X164955Y21113465D01*
X319937Y21059234D01*
X319943Y21059233D01*
X319945Y21059232D01*
X319946Y21059232D01*
X319950Y21059231D01*
X499196Y21039035D01*
X499200Y21039035D01*
X499204Y21039035D01*
X678449Y21059231D01*
X678452Y21059232D01*
X678455Y21059232D01*
X848722Y21118811D01*
X1001462Y21214784D01*
X1129016Y21342338D01*
X1224989Y21495078D01*
X1284568Y21665345D01*
X1284687Y21666402D01*
X1285895Y21677117D01*
X1312961Y21741532D01*
X1370555Y21781087D01*
X1440392Y21783226D01*
X1500299Y21747268D01*
X1531255Y21684630D01*
X1532518Y21675389D01*
X1545175Y21546871D01*
X1545176Y21546868D01*
X1585405Y21414250D01*
X1602388Y21358267D01*
X1695286Y21184468D01*
X1695290Y21184461D01*
X1820316Y21032117D01*
X1972660Y20907091D01*
X1972667Y20907087D01*
X2117697Y20829567D01*
X2146473Y20814186D01*
X2175994Y20805231D01*
X2337756Y20756160D01*
X2396194Y20717863D01*
X2424651Y20654051D01*
X2414090Y20584984D01*
X2367865Y20532590D01*
X2301760Y20513500D01*
X1543089Y20513500D01*
X1503428Y20507219D01*
X1372002Y20486403D01*
X1371999Y20486402D01*
X1258834Y20449632D01*
X1207252Y20432872D01*
X1052911Y20354232D01*
X993009Y20310710D01*
X912772Y20252414D01*
X912770Y20252412D01*
X912769Y20252412D01*
X790288Y20129931D01*
X790288Y20129930D01*
X790286Y20129928D01*
X746559Y20069744D01*
X688468Y19989789D01*
X609828Y19835448D01*
X556297Y19670698D01*
X529200Y19499611D01*
X529200Y19326390D01*
X550633Y19191062D01*
X556298Y19155299D01*
X609827Y18990555D01*
X688468Y18836212D01*
X790286Y18696072D01*
X912772Y18573586D01*
X1052912Y18471768D01*
X1207255Y18393127D01*
X1371999Y18339598D01*
X1543089Y18312500D01*
X1543090Y18312500D01*
X2416310Y18312500D01*
X2416311Y18312500D01*
X2587401Y18339598D01*
X2752145Y18393127D01*
X2906488Y18471768D01*
X3046628Y18573586D01*
X3169114Y18696072D01*
X3270932Y18836212D01*
X3326101Y18944489D01*
X11371251Y18944489D01*
X11391446Y18765243D01*
X11391447Y18765238D01*
X11451027Y18594969D01*
X11504703Y18509545D01*
X11547000Y18442230D01*
X11674554Y18314676D01*
X11827294Y18218703D01*
X11955011Y18174013D01*
X11997561Y18159124D01*
X11997566Y18159123D01*
X12176812Y18138927D01*
X12176816Y18138927D01*
X12176820Y18138927D01*
X12356065Y18159123D01*
X12356068Y18159124D01*
X12356071Y18159124D01*
X12526338Y18218703D01*
X12679078Y18314676D01*
X12806632Y18442230D01*
X12902605Y18594970D01*
X12962184Y18765237D01*
X12963862Y18780131D01*
X12982381Y18944489D01*
X12982381Y18944496D01*
X12962185Y19123742D01*
X12962184Y19123747D01*
X12902604Y19294016D01*
X12806631Y19446755D01*
X12679078Y19574308D01*
X12526339Y19670281D01*
X12356070Y19729861D01*
X12356065Y19729862D01*
X12176820Y19750057D01*
X12176812Y19750057D01*
X11997566Y19729862D01*
X11997561Y19729861D01*
X11827292Y19670281D01*
X11674553Y19574308D01*
X11547000Y19446755D01*
X11451027Y19294016D01*
X11391447Y19123747D01*
X11391446Y19123742D01*
X11371251Y18944496D01*
X11371251Y18944489D01*
X3326101Y18944489D01*
X3349573Y18990555D01*
X3403102Y19155299D01*
X3430200Y19326389D01*
X3430200Y19499611D01*
X3403102Y19670701D01*
X3349573Y19835445D01*
X3270932Y19989788D01*
X3169114Y20129928D01*
X3046628Y20252414D01*
X2906488Y20354232D01*
X2752145Y20432873D01*
X2587401Y20486402D01*
X2587399Y20486403D01*
X2587397Y20486403D01*
X2542127Y20493573D01*
X2515092Y20506389D01*
X3679200Y20506389D01*
X3682366Y20486402D01*
X3703928Y20350258D01*
X3706298Y20335299D01*
X3759827Y20170555D01*
X3838468Y20016212D01*
X3940286Y19876072D01*
X4062772Y19753586D01*
X4202912Y19651768D01*
X4357255Y19573127D01*
X4521999Y19519598D01*
X4693089Y19492500D01*
X4693090Y19492500D01*
X5066310Y19492500D01*
X5066311Y19492500D01*
X5237401Y19519598D01*
X5402145Y19573127D01*
X5556488Y19651768D01*
X5696628Y19753586D01*
X5819114Y19876072D01*
X5920932Y20016212D01*
X5999573Y20170555D01*
X6053102Y20335299D01*
X6080200Y20506389D01*
X6080200Y20510083D01*
X8360622Y20510083D01*
X8380817Y20330837D01*
X8380818Y20330832D01*
X8440398Y20160563D01*
X8508412Y20052320D01*
X8536371Y20007824D01*
X8663925Y19880270D01*
X8816665Y19784297D01*
X8931416Y19744144D01*
X8986932Y19724718D01*
X8986937Y19724717D01*
X9166183Y19704521D01*
X9166187Y19704521D01*
X9166191Y19704521D01*
X9345436Y19724717D01*
X9345439Y19724718D01*
X9345442Y19724718D01*
X9515709Y19784297D01*
X9668449Y19880270D01*
X9796003Y20007824D01*
X9891976Y20160564D01*
X9951555Y20330831D01*
X9951996Y20334742D01*
X9971752Y20510083D01*
X9971752Y20510090D01*
X9951556Y20689336D01*
X9951555Y20689341D01*
X9934648Y20737659D01*
X9891976Y20859608D01*
X9890276Y20862313D01*
X9828402Y20960785D01*
X9796003Y21012348D01*
X9668449Y21139902D01*
X9597534Y21184461D01*
X9517107Y21234997D01*
X11479235Y21234997D01*
X11499430Y21055751D01*
X11499431Y21055746D01*
X11559011Y20885477D01*
X11637386Y20760745D01*
X11654984Y20732738D01*
X11782538Y20605184D01*
X11814686Y20584984D01*
X11898070Y20532590D01*
X11935278Y20509211D01*
X12105545Y20449632D01*
X12105550Y20449631D01*
X12284796Y20429435D01*
X12284800Y20429435D01*
X12284804Y20429435D01*
X12464049Y20449631D01*
X12464052Y20449632D01*
X12464055Y20449632D01*
X12634322Y20509211D01*
X12787062Y20605184D01*
X12914616Y20732738D01*
X13010589Y20885478D01*
X13070168Y21055745D01*
X13071691Y21069261D01*
X13090365Y21234997D01*
X13090365Y21235004D01*
X13070169Y21414250D01*
X13070168Y21414255D01*
X13028186Y21534232D01*
X13010589Y21584522D01*
X13006767Y21590604D01*
X12947687Y21684630D01*
X12914616Y21737262D01*
X12787062Y21864816D01*
X12700778Y21919032D01*
X12634323Y21960789D01*
X12464054Y22020369D01*
X12464049Y22020370D01*
X12284804Y22040565D01*
X12284796Y22040565D01*
X12105550Y22020370D01*
X12105545Y22020369D01*
X11935276Y21960789D01*
X11782537Y21864816D01*
X11654984Y21737263D01*
X11559011Y21584524D01*
X11499431Y21414255D01*
X11499430Y21414250D01*
X11479235Y21235004D01*
X11479235Y21234997D01*
X9517107Y21234997D01*
X9515710Y21235875D01*
X9345441Y21295455D01*
X9345436Y21295456D01*
X9166191Y21315651D01*
X9166183Y21315651D01*
X8986937Y21295456D01*
X8986932Y21295455D01*
X8816663Y21235875D01*
X8663924Y21139902D01*
X8536371Y21012349D01*
X8440398Y20859610D01*
X8380818Y20689341D01*
X8380817Y20689336D01*
X8360622Y20510090D01*
X8360622Y20510083D01*
X6080200Y20510083D01*
X6080200Y20679611D01*
X6053102Y20850701D01*
X5999573Y21015445D01*
X5920932Y21169788D01*
X5819114Y21309928D01*
X5696628Y21432414D01*
X5556488Y21534232D01*
X5457784Y21584524D01*
X5402147Y21612872D01*
X5402146Y21612873D01*
X5402145Y21612873D01*
X5237401Y21666402D01*
X5237399Y21666403D01*
X5237398Y21666403D01*
X5105971Y21687219D01*
X5066311Y21693500D01*
X4693089Y21693500D01*
X4653428Y21687219D01*
X4522002Y21666403D01*
X4357252Y21612872D01*
X4202911Y21534232D01*
X4149021Y21495078D01*
X4062772Y21432414D01*
X4062770Y21432412D01*
X4062769Y21432412D01*
X3940288Y21309931D01*
X3940288Y21309930D01*
X3940286Y21309928D01*
X3929771Y21295455D01*
X3838468Y21169789D01*
X3759828Y21015448D01*
X3706297Y20850698D01*
X3684157Y20710909D01*
X3679200Y20679611D01*
X3679200Y20506389D01*
X2515092Y20506389D01*
X2478992Y20523502D01*
X2442061Y20582814D01*
X2443059Y20652677D01*
X2481669Y20710909D01*
X2545633Y20739023D01*
X2549348Y20739447D01*
X2727332Y20756976D01*
X2915927Y20814186D01*
X2963253Y20839482D01*
X3037253Y20879036D01*
X3089738Y20907090D01*
X3242083Y21032117D01*
X3367110Y21184462D01*
X3436820Y21314880D01*
X3460011Y21358267D01*
X3460011Y21358268D01*
X3460014Y21358273D01*
X3517224Y21546868D01*
X3536541Y21743000D01*
X3517224Y21939132D01*
X3460014Y22127727D01*
X3460011Y22127731D01*
X3460011Y22127734D01*
X3367113Y22301533D01*
X3367109Y22301540D01*
X3242083Y22453884D01*
X3089739Y22578910D01*
X3089732Y22578914D01*
X2943485Y22657085D01*
X18460050Y22657085D01*
X18480245Y22477839D01*
X18480246Y22477834D01*
X18539826Y22307565D01*
X18592115Y22224348D01*
X18635799Y22154826D01*
X18763353Y22027272D01*
X18916093Y21931299D01*
X19086360Y21871720D01*
X19086365Y21871719D01*
X19265611Y21851523D01*
X19267476Y21851523D01*
X19268637Y21851183D01*
X19272534Y21850743D01*
X19272457Y21850061D01*
X19334515Y21831838D01*
X19380270Y21779034D01*
X19391471Y21728508D01*
X19391965Y21666403D01*
X19393662Y21452526D01*
X19374510Y21385332D01*
X19322071Y21339160D01*
X19283550Y21328322D01*
X19164260Y21314882D01*
X19164256Y21314881D01*
X18993987Y21255301D01*
X18841248Y21159328D01*
X18713695Y21031775D01*
X18617722Y20879036D01*
X18558142Y20708767D01*
X18558141Y20708762D01*
X18537946Y20529516D01*
X18537946Y20529509D01*
X18558141Y20350263D01*
X18558142Y20350258D01*
X18617722Y20179989D01*
X18649178Y20129928D01*
X18713695Y20027250D01*
X18841249Y19899696D01*
X18878848Y19876071D01*
X18948222Y19832480D01*
X18993989Y19803723D01*
X19137264Y19753589D01*
X19164256Y19744144D01*
X19164261Y19744143D01*
X19343507Y19723947D01*
X19343511Y19723947D01*
X19343515Y19723947D01*
X19522760Y19744143D01*
X19522763Y19744144D01*
X19522766Y19744144D01*
X19693033Y19803723D01*
X19743728Y19835577D01*
X21255815Y19835577D01*
X21276010Y19656331D01*
X21276011Y19656326D01*
X21335591Y19486057D01*
X21431564Y19333318D01*
X21437426Y19327456D01*
X21470911Y19266133D01*
X21465927Y19196441D01*
X21454739Y19173803D01*
X21369611Y19038324D01*
X21310031Y18868055D01*
X21310030Y18868050D01*
X21289835Y18688804D01*
X21289835Y18688797D01*
X21310030Y18509551D01*
X21310031Y18509546D01*
X21369611Y18339277D01*
X21424776Y18251483D01*
X21465584Y18186538D01*
X21593138Y18058984D01*
X21664195Y18014336D01*
X21745878Y17963011D01*
X21855505Y17924651D01*
X21912281Y17883929D01*
X21937771Y17821493D01*
X21950496Y17708553D01*
X21950497Y17708549D01*
X22010077Y17538280D01*
X22042259Y17487063D01*
X22106050Y17385541D01*
X22233604Y17257987D01*
X22279789Y17228967D01*
X22380504Y17165683D01*
X22386344Y17162014D01*
X22548246Y17105362D01*
X22556611Y17102435D01*
X22556616Y17102434D01*
X22735862Y17082238D01*
X22735866Y17082238D01*
X22735870Y17082238D01*
X22915115Y17102434D01*
X22915118Y17102435D01*
X22915121Y17102435D01*
X23085388Y17162014D01*
X23238128Y17257987D01*
X23365682Y17385541D01*
X23461655Y17538281D01*
X23521234Y17708548D01*
X23521235Y17708554D01*
X23541431Y17887800D01*
X23541431Y17887807D01*
X23521235Y18067053D01*
X23521234Y18067058D01*
X23477560Y18191871D01*
X23461655Y18237325D01*
X23459348Y18240996D01*
X23397594Y18339277D01*
X23365682Y18390065D01*
X23238128Y18517619D01*
X23233204Y18522543D01*
X23234557Y18523897D01*
X23199890Y18573304D01*
X23197052Y18643116D01*
X23232407Y18703380D01*
X23294731Y18734964D01*
X23303467Y18736264D01*
X23305829Y18736531D01*
X23305832Y18736530D01*
X23397521Y18746861D01*
X23485082Y18756726D01*
X23485085Y18756727D01*
X23485087Y18756727D01*
X23655354Y18816306D01*
X23808094Y18912279D01*
X23935648Y19039833D01*
X24031621Y19192573D01*
X24091200Y19362840D01*
X24105083Y19486057D01*
X24111397Y19542092D01*
X24111397Y19542099D01*
X24091201Y19721345D01*
X24091200Y19721350D01*
X24069174Y19784297D01*
X24031621Y19891617D01*
X23935648Y20044357D01*
X23808094Y20171911D01*
X23787101Y20185102D01*
X23655355Y20267884D01*
X23485086Y20327464D01*
X23485081Y20327465D01*
X23305836Y20347660D01*
X23305828Y20347660D01*
X23126582Y20327465D01*
X23126577Y20327464D01*
X22956306Y20267883D01*
X22902746Y20234229D01*
X22835509Y20215229D01*
X22768674Y20235597D01*
X22731781Y20273251D01*
X22691196Y20337842D01*
X22563642Y20465396D01*
X22538845Y20480977D01*
X22410903Y20561369D01*
X22240634Y20620949D01*
X22240629Y20620950D01*
X22061384Y20641145D01*
X22061376Y20641145D01*
X21882130Y20620950D01*
X21882125Y20620949D01*
X21711856Y20561369D01*
X21559117Y20465396D01*
X21431564Y20337843D01*
X21335591Y20185104D01*
X21276011Y20014835D01*
X21276010Y20014830D01*
X21255815Y19835584D01*
X21255815Y19835577D01*
X19743728Y19835577D01*
X19845773Y19899696D01*
X19973327Y20027250D01*
X20069300Y20179990D01*
X20128879Y20350257D01*
X20137800Y20429435D01*
X20149076Y20529509D01*
X20149076Y20529516D01*
X20128880Y20708762D01*
X20128879Y20708767D01*
X20110691Y20760745D01*
X20069300Y20879034D01*
X20069297Y20879038D01*
X20069127Y20879394D01*
X20069085Y20879648D01*
X20067000Y20885607D01*
X20068043Y20885973D01*
X20057772Y20948335D01*
X20085492Y21012471D01*
X20143486Y21051438D01*
X20180845Y21057200D01*
X21809800Y21057200D01*
X21809800Y24257600D01*
X21776961Y24290439D01*
X21743476Y24351762D01*
X21747600Y24419074D01*
X21788459Y24535839D01*
X21791189Y24560070D01*
X21808656Y24715091D01*
X21808656Y24715098D01*
X21787680Y24901269D01*
X21790459Y24901583D01*
X21793945Y24958700D01*
X21835229Y25015068D01*
X21900434Y25040168D01*
X21924453Y25039804D01*
X21952500Y25036643D01*
X21952504Y25036643D01*
X22131749Y25056839D01*
X22131752Y25056840D01*
X22131755Y25056840D01*
X22302022Y25116419D01*
X22454762Y25212392D01*
X22582316Y25339946D01*
X22678289Y25492686D01*
X22737868Y25662953D01*
X22737869Y25662959D01*
X22758065Y25842205D01*
X22758065Y25842212D01*
X22737869Y26021458D01*
X22737868Y26021463D01*
X22734925Y26029874D01*
X22678289Y26191730D01*
X22582316Y26344470D01*
X22454762Y26472024D01*
X22404213Y26503786D01*
X22302023Y26567997D01*
X22131754Y26627577D01*
X22131749Y26627578D01*
X21952504Y26647773D01*
X21948948Y26647773D01*
X21946734Y26648424D01*
X21945581Y26648553D01*
X21945603Y26648755D01*
X21889605Y26665199D01*
X21846887Y26637745D01*
X21825835Y26633502D01*
X21773250Y26627578D01*
X21773245Y26627577D01*
X21602976Y26567997D01*
X21450237Y26472024D01*
X21322684Y26344471D01*
X21226709Y26191728D01*
X21202212Y26121720D01*
X21161490Y26064944D01*
X21096538Y26039197D01*
X21027976Y26052654D01*
X20997490Y26074994D01*
X20915056Y26157428D01*
X20762317Y26253401D01*
X20592048Y26312981D01*
X20592043Y26312982D01*
X20412798Y26333177D01*
X20412790Y26333177D01*
X20233544Y26312982D01*
X20233539Y26312981D01*
X20063270Y26253401D01*
X19910531Y26157428D01*
X19782978Y26029875D01*
X19687005Y25877136D01*
X19627425Y25706867D01*
X19627424Y25706862D01*
X19607229Y25527616D01*
X19607229Y25527609D01*
X19627424Y25348363D01*
X19627425Y25348358D01*
X19687005Y25178089D01*
X19763192Y25056839D01*
X19782978Y25025350D01*
X19910532Y24897796D01*
X20063272Y24801823D01*
X20119320Y24782211D01*
X20176096Y24741489D01*
X20201586Y24679053D01*
X20217721Y24535844D01*
X20217724Y24535832D01*
X20257362Y24422555D01*
X20260924Y24352776D01*
X20226196Y24292149D01*
X20164202Y24259921D01*
X20140321Y24257600D01*
X19371400Y24257600D01*
X19376722Y23586970D01*
X19357570Y23519776D01*
X19305131Y23473604D01*
X19266610Y23462766D01*
X19086364Y23442458D01*
X19086360Y23442457D01*
X18916091Y23382877D01*
X18763352Y23286904D01*
X18635799Y23159351D01*
X18539826Y23006612D01*
X18480246Y22836343D01*
X18480245Y22836338D01*
X18460050Y22657092D01*
X18460050Y22657085D01*
X2943485Y22657085D01*
X2915933Y22671812D01*
X2915927Y22671814D01*
X2727332Y22729024D01*
X2727329Y22729025D01*
X2531200Y22748341D01*
X2335070Y22729025D01*
X2146466Y22671812D01*
X1972667Y22578914D01*
X1972660Y22578910D01*
X1820316Y22453884D01*
X1695290Y22301540D01*
X1695286Y22301533D01*
X1602388Y22127734D01*
X1545175Y21939130D01*
X1543196Y21919032D01*
X1517033Y21854246D01*
X1459998Y21813888D01*
X1390198Y21810773D01*
X1329794Y21845888D01*
X1297964Y21908087D01*
X1296573Y21917306D01*
X1284569Y22023851D01*
X1284568Y22023855D01*
X1260421Y22092863D01*
X1224989Y22194122D01*
X1218687Y22204151D01*
X1129015Y22346863D01*
X1001462Y22474416D01*
X848723Y22570389D01*
X678454Y22629969D01*
X678449Y22629970D01*
X499204Y22650165D01*
X499196Y22650165D01*
X319950Y22629970D01*
X319942Y22629968D01*
X164954Y22575735D01*
X95176Y22572174D01*
X34548Y22606903D01*
X2321Y22668896D01*
X0Y22692777D01*
X0Y25346389D01*
X3679200Y25346389D01*
X3684395Y25313589D01*
X3699595Y25217616D01*
X3706298Y25175299D01*
X3759827Y25010555D01*
X3838468Y24856212D01*
X3940286Y24716072D01*
X4062772Y24593586D01*
X4202912Y24491768D01*
X4357255Y24413127D01*
X4521999Y24359598D01*
X4693089Y24332500D01*
X4693090Y24332500D01*
X5066310Y24332500D01*
X5066311Y24332500D01*
X5237401Y24359598D01*
X5402145Y24413127D01*
X5556488Y24491768D01*
X5688660Y24587797D01*
X11072839Y24587797D01*
X11093034Y24408551D01*
X11093035Y24408546D01*
X11152615Y24238277D01*
X11236971Y24104027D01*
X11248588Y24085538D01*
X11376142Y23957984D01*
X11528882Y23862011D01*
X11699149Y23802432D01*
X11699154Y23802431D01*
X11878400Y23782235D01*
X11878404Y23782235D01*
X11878408Y23782235D01*
X12057653Y23802431D01*
X12057656Y23802432D01*
X12057659Y23802432D01*
X12227926Y23862011D01*
X12380666Y23957984D01*
X12508220Y24085538D01*
X12604193Y24238278D01*
X12663772Y24408545D01*
X12663773Y24408551D01*
X12683969Y24587797D01*
X12683969Y24587804D01*
X12663773Y24767050D01*
X12663772Y24767055D01*
X12651606Y24801823D01*
X12613897Y24909589D01*
X14682836Y24909589D01*
X14703031Y24730343D01*
X14703032Y24730338D01*
X14762612Y24560069D01*
X14805528Y24491769D01*
X14858585Y24407330D01*
X14986139Y24279776D01*
X15020590Y24258129D01*
X15136316Y24185413D01*
X15138879Y24183803D01*
X15309146Y24124224D01*
X15309151Y24124223D01*
X15488397Y24104027D01*
X15488401Y24104027D01*
X15488405Y24104027D01*
X15667650Y24124223D01*
X15667653Y24124224D01*
X15667656Y24124224D01*
X15837923Y24183803D01*
X15990663Y24279776D01*
X16118217Y24407330D01*
X16214190Y24560070D01*
X16273769Y24730337D01*
X16279614Y24782211D01*
X16293966Y24909589D01*
X16293966Y24909596D01*
X16273770Y25088842D01*
X16273769Y25088847D01*
X16242542Y25178089D01*
X16214190Y25259114D01*
X16118217Y25411854D01*
X15990663Y25539408D01*
X15905167Y25593129D01*
X15837924Y25635381D01*
X15667655Y25694961D01*
X15667650Y25694962D01*
X15488405Y25715157D01*
X15488397Y25715157D01*
X15309151Y25694962D01*
X15309146Y25694961D01*
X15138877Y25635381D01*
X14986138Y25539408D01*
X14858585Y25411855D01*
X14762612Y25259116D01*
X14703032Y25088847D01*
X14703031Y25088842D01*
X14682836Y24909596D01*
X14682836Y24909589D01*
X12613897Y24909589D01*
X12604193Y24937322D01*
X12508220Y25090062D01*
X12380666Y25217616D01*
X12227927Y25313589D01*
X12057658Y25373169D01*
X12057653Y25373170D01*
X11878408Y25393365D01*
X11878400Y25393365D01*
X11699154Y25373170D01*
X11699149Y25373169D01*
X11528880Y25313589D01*
X11376141Y25217616D01*
X11248588Y25090063D01*
X11152615Y24937324D01*
X11093035Y24767055D01*
X11093034Y24767050D01*
X11072839Y24587804D01*
X11072839Y24587797D01*
X5688660Y24587797D01*
X5696628Y24593586D01*
X5819114Y24716072D01*
X5920932Y24856212D01*
X5999573Y25010555D01*
X6053102Y25175299D01*
X6080200Y25346389D01*
X6080200Y25519611D01*
X6053102Y25690701D01*
X5999573Y25855445D01*
X5920932Y26009788D01*
X5819114Y26149928D01*
X5696628Y26272414D01*
X5556488Y26374232D01*
X5402145Y26452873D01*
X5237401Y26506402D01*
X5237399Y26506403D01*
X5237398Y26506403D01*
X5105971Y26527219D01*
X5066311Y26533500D01*
X4693089Y26533500D01*
X4653428Y26527219D01*
X4522002Y26506403D01*
X4357252Y26452872D01*
X4202911Y26374232D01*
X4161948Y26344470D01*
X4062772Y26272414D01*
X4062770Y26272412D01*
X4062769Y26272412D01*
X3940288Y26149931D01*
X3940288Y26149930D01*
X3940286Y26149928D01*
X3919792Y26121720D01*
X3838468Y26009789D01*
X3759828Y25855448D01*
X3706297Y25690698D01*
X3680468Y25527616D01*
X3679200Y25519611D01*
X3679200Y25346389D01*
X0Y25346389D01*
X0Y26526389D01*
X529200Y26526389D01*
X556298Y26355299D01*
X609827Y26190555D01*
X688468Y26036212D01*
X790286Y25896072D01*
X912772Y25773586D01*
X1052912Y25671768D01*
X1207255Y25593127D01*
X1371999Y25539598D01*
X1543089Y25512500D01*
X1543090Y25512500D01*
X2416310Y25512500D01*
X2416311Y25512500D01*
X2587401Y25539598D01*
X2752145Y25593127D01*
X2906488Y25671768D01*
X3046628Y25773586D01*
X3169114Y25896072D01*
X3270932Y26036212D01*
X3349573Y26190555D01*
X3403102Y26355299D01*
X3430200Y26526389D01*
X3430200Y26699611D01*
X3403102Y26870701D01*
X3349573Y27035445D01*
X3270932Y27189788D01*
X3169114Y27329928D01*
X3046628Y27452414D01*
X3004036Y27483359D01*
X5624135Y27483359D01*
X5644330Y27304113D01*
X5644331Y27304108D01*
X5703911Y27133839D01*
X5757930Y27047869D01*
X5799884Y26981100D01*
X5927438Y26853546D01*
X6080178Y26757573D01*
X6182649Y26721717D01*
X6250445Y26697994D01*
X6250450Y26697993D01*
X6429696Y26677797D01*
X6429700Y26677797D01*
X6429704Y26677797D01*
X6608949Y26697993D01*
X6608952Y26697994D01*
X6608955Y26697994D01*
X6779222Y26757573D01*
X6931962Y26853546D01*
X7059516Y26981100D01*
X7155489Y27133840D01*
X7215068Y27304107D01*
X7215069Y27304113D01*
X7235265Y27483359D01*
X7235265Y27483366D01*
X7215069Y27662612D01*
X7215068Y27662617D01*
X7206787Y27686284D01*
X7155489Y27832884D01*
X7059516Y27985624D01*
X6931962Y28113178D01*
X6883732Y28143483D01*
X6779223Y28209151D01*
X6608954Y28268731D01*
X6608949Y28268732D01*
X6429704Y28288927D01*
X6429696Y28288927D01*
X6250450Y28268732D01*
X6250445Y28268731D01*
X6080176Y28209151D01*
X5927437Y28113178D01*
X5799884Y27985625D01*
X5703911Y27832886D01*
X5644331Y27662617D01*
X5644330Y27662612D01*
X5624135Y27483366D01*
X5624135Y27483359D01*
X3004036Y27483359D01*
X2906488Y27554232D01*
X2752145Y27632873D01*
X2587401Y27686402D01*
X2587399Y27686403D01*
X2587398Y27686403D01*
X2455971Y27707219D01*
X2416311Y27713500D01*
X1543089Y27713500D01*
X1503428Y27707219D01*
X1372002Y27686403D01*
X1207252Y27632872D01*
X1052911Y27554232D01*
X987955Y27507038D01*
X912772Y27452414D01*
X912770Y27452412D01*
X912769Y27452412D01*
X790288Y27329931D01*
X790288Y27329930D01*
X790286Y27329928D01*
X771527Y27304108D01*
X688468Y27189789D01*
X609828Y27035448D01*
X556297Y26870698D01*
X538380Y26757574D01*
X529200Y26699611D01*
X529200Y26526389D01*
X0Y26526389D01*
X0Y28438994D01*
X11438300Y28438994D01*
X11457464Y28207703D01*
X11457466Y28207692D01*
X11514442Y27982700D01*
X11607675Y27770152D01*
X11734616Y27575853D01*
X11734619Y27575849D01*
X11734621Y27575847D01*
X11891816Y27405087D01*
X11891819Y27405085D01*
X11891822Y27405082D01*
X12074965Y27262536D01*
X12074971Y27262532D01*
X12074974Y27262530D01*
X12279097Y27152064D01*
X12332182Y27133840D01*
X12498615Y27076703D01*
X12498617Y27076703D01*
X12498619Y27076702D01*
X12727551Y27038500D01*
X12727552Y27038500D01*
X12959648Y27038500D01*
X12959649Y27038500D01*
X13188581Y27076702D01*
X13408103Y27152064D01*
X13612226Y27262530D01*
X13795384Y27405087D01*
X13952579Y27575847D01*
X14079524Y27770151D01*
X14172757Y27982700D01*
X14229734Y28207695D01*
X14234014Y28259349D01*
X14248900Y28438994D01*
X14248900Y28439007D01*
X14229735Y28670298D01*
X14229733Y28670309D01*
X14172757Y28895301D01*
X14079524Y29107849D01*
X13952583Y29302148D01*
X13952580Y29302151D01*
X13952579Y29302153D01*
X13795384Y29472913D01*
X13795379Y29472917D01*
X13795377Y29472919D01*
X13612234Y29615465D01*
X13612228Y29615469D01*
X13408104Y29725936D01*
X13408095Y29725939D01*
X13188584Y29801298D01*
X13016882Y29829950D01*
X12959649Y29839500D01*
X12727551Y29839500D01*
X12681764Y29831860D01*
X12498615Y29801298D01*
X12279104Y29725939D01*
X12279095Y29725936D01*
X12074971Y29615469D01*
X12074965Y29615465D01*
X11891822Y29472919D01*
X11891819Y29472916D01*
X11734616Y29302148D01*
X11607675Y29107849D01*
X11514442Y28895301D01*
X11457466Y28670309D01*
X11457464Y28670298D01*
X11438300Y28439007D01*
X11438300Y28438994D01*
X0Y28438994D01*
X0Y29515397D01*
X445235Y29515397D01*
X465430Y29336151D01*
X465431Y29336146D01*
X525011Y29165877D01*
X561473Y29107849D01*
X620984Y29013138D01*
X748538Y28885584D01*
X785849Y28862140D01*
X851510Y28820882D01*
X901278Y28789611D01*
X999582Y28755213D01*
X1071545Y28730032D01*
X1071550Y28730031D01*
X1250796Y28709835D01*
X1250800Y28709835D01*
X1250804Y28709835D01*
X1430049Y28730031D01*
X1430052Y28730032D01*
X1430055Y28730032D01*
X1600322Y28789611D01*
X1753062Y28885584D01*
X1880616Y29013138D01*
X1976589Y29165878D01*
X2036168Y29336145D01*
X2036169Y29336151D01*
X2056365Y29515397D01*
X2056365Y29515404D01*
X2036169Y29694650D01*
X2036168Y29694655D01*
X1990416Y29825407D01*
X1976589Y29864922D01*
X1880616Y30017662D01*
X1753062Y30145216D01*
X1655714Y30206384D01*
X1600323Y30241189D01*
X1430054Y30300769D01*
X1430049Y30300770D01*
X1250804Y30320965D01*
X1250796Y30320965D01*
X1071550Y30300770D01*
X1071545Y30300769D01*
X901276Y30241189D01*
X748537Y30145216D01*
X620984Y30017663D01*
X525011Y29864924D01*
X465431Y29694655D01*
X465430Y29694650D01*
X445235Y29515404D01*
X445235Y29515397D01*
X0Y29515397D01*
X0Y32796404D01*
X405690Y32796404D01*
X425885Y32617158D01*
X425886Y32617153D01*
X485466Y32446884D01*
X581439Y32294145D01*
X708993Y32166591D01*
X861733Y32070618D01*
X931373Y32046250D01*
X1032000Y32011039D01*
X1032005Y32011038D01*
X1211251Y31990842D01*
X1211255Y31990842D01*
X1211259Y31990842D01*
X1390504Y32011038D01*
X1390507Y32011039D01*
X1390510Y32011039D01*
X1560777Y32070618D01*
X1713517Y32166591D01*
X1841071Y32294145D01*
X1937044Y32446885D01*
X1996623Y32617152D01*
X2003261Y32676065D01*
X2016820Y32796404D01*
X2016820Y32796411D01*
X1999780Y32947648D01*
X2011835Y33016470D01*
X2059184Y33067849D01*
X2126794Y33085473D01*
X2136883Y33084751D01*
X2288120Y33067711D01*
X2288124Y33067711D01*
X2288128Y33067711D01*
X2467373Y33087907D01*
X2467376Y33087908D01*
X2467379Y33087908D01*
X2637646Y33147487D01*
X2790386Y33243460D01*
X2917940Y33371014D01*
X3013913Y33523754D01*
X3073492Y33694021D01*
X3079494Y33747291D01*
X3583769Y33747291D01*
X3603964Y33568045D01*
X3603965Y33568040D01*
X3663545Y33397771D01*
X3750858Y33258814D01*
X3769858Y33191577D01*
X3750858Y33126870D01*
X3687218Y33025589D01*
X3627638Y32855320D01*
X3627637Y32855315D01*
X3607442Y32676069D01*
X3607442Y32676062D01*
X3627637Y32496816D01*
X3627638Y32496811D01*
X3687218Y32326542D01*
X3707575Y32294145D01*
X3783191Y32173803D01*
X3910745Y32046249D01*
X4063485Y31950276D01*
X4233752Y31890697D01*
X4233757Y31890696D01*
X4413003Y31870500D01*
X4413007Y31870500D01*
X4413011Y31870500D01*
X4592256Y31890696D01*
X4592259Y31890697D01*
X4592262Y31890697D01*
X4762529Y31950276D01*
X4915269Y32046249D01*
X5042823Y32173803D01*
X5138796Y32326543D01*
X5198375Y32496810D01*
X5211934Y32617152D01*
X5218572Y32676062D01*
X5218572Y32676069D01*
X5198376Y32855315D01*
X5198375Y32855320D01*
X5156267Y32975657D01*
X5138796Y33025587D01*
X5051481Y33164547D01*
X5032482Y33231782D01*
X5051482Y33296489D01*
X5115123Y33397772D01*
X5174702Y33568039D01*
X5174703Y33568045D01*
X5194899Y33747291D01*
X5194899Y33747298D01*
X5174703Y33926544D01*
X5174702Y33926549D01*
X5150331Y33996197D01*
X10713633Y33996197D01*
X10733828Y33816951D01*
X10733829Y33816946D01*
X10793409Y33646677D01*
X10842821Y33568039D01*
X10889382Y33493938D01*
X11016936Y33366384D01*
X11169676Y33270411D01*
X11303694Y33223516D01*
X11339943Y33210832D01*
X11339948Y33210831D01*
X11519194Y33190635D01*
X11519198Y33190635D01*
X11519202Y33190635D01*
X11698447Y33210831D01*
X11698450Y33210832D01*
X11698453Y33210832D01*
X11868720Y33270411D01*
X12021460Y33366384D01*
X12149014Y33493938D01*
X12244987Y33646678D01*
X12304566Y33816945D01*
X12310913Y33873276D01*
X12324763Y33996197D01*
X15340035Y33996197D01*
X15360230Y33816951D01*
X15360231Y33816946D01*
X15419811Y33646677D01*
X15469223Y33568039D01*
X15515784Y33493938D01*
X15643338Y33366384D01*
X15796078Y33270411D01*
X15930096Y33223516D01*
X15966345Y33210832D01*
X15966350Y33210831D01*
X16145596Y33190635D01*
X16145600Y33190635D01*
X16145604Y33190635D01*
X16324849Y33210831D01*
X16324852Y33210832D01*
X16324855Y33210832D01*
X16495122Y33270411D01*
X16647862Y33366384D01*
X16775416Y33493938D01*
X16871389Y33646678D01*
X16930968Y33816945D01*
X16937315Y33873276D01*
X16951165Y33996197D01*
X16951165Y33996204D01*
X16930969Y34175450D01*
X16930968Y34175455D01*
X16905039Y34249556D01*
X16871389Y34345722D01*
X16775416Y34498462D01*
X16647862Y34626016D01*
X16618055Y34644745D01*
X16495123Y34721989D01*
X16324854Y34781569D01*
X16324849Y34781570D01*
X16145604Y34801765D01*
X16145596Y34801765D01*
X15966350Y34781570D01*
X15966345Y34781569D01*
X15796076Y34721989D01*
X15643337Y34626016D01*
X15515784Y34498463D01*
X15419811Y34345724D01*
X15360231Y34175455D01*
X15360230Y34175450D01*
X15340035Y33996204D01*
X15340035Y33996197D01*
X12324763Y33996197D01*
X12324763Y33996204D01*
X12304567Y34175450D01*
X12304566Y34175455D01*
X12278637Y34249556D01*
X12244987Y34345722D01*
X12149014Y34498462D01*
X12021460Y34626016D01*
X11991653Y34644745D01*
X11868721Y34721989D01*
X11698452Y34781569D01*
X11698447Y34781570D01*
X11519202Y34801765D01*
X11519194Y34801765D01*
X11339948Y34781570D01*
X11339943Y34781569D01*
X11169674Y34721989D01*
X11016935Y34626016D01*
X10889382Y34498463D01*
X10793409Y34345724D01*
X10733829Y34175455D01*
X10733828Y34175450D01*
X10713633Y33996204D01*
X10713633Y33996197D01*
X5150331Y33996197D01*
X5115122Y34096818D01*
X5065711Y34175455D01*
X5019150Y34249556D01*
X4891596Y34377110D01*
X4799863Y34434750D01*
X4738857Y34473083D01*
X4568588Y34532663D01*
X4568583Y34532664D01*
X4389338Y34552859D01*
X4389330Y34552859D01*
X4210084Y34532664D01*
X4210079Y34532663D01*
X4039810Y34473083D01*
X3887071Y34377110D01*
X3759518Y34249557D01*
X3663545Y34096818D01*
X3603965Y33926549D01*
X3603964Y33926544D01*
X3583769Y33747298D01*
X3583769Y33747291D01*
X3079494Y33747291D01*
X3093689Y33873273D01*
X3093689Y33873280D01*
X3073493Y34052526D01*
X3073492Y34052531D01*
X3057508Y34098211D01*
X3013913Y34222798D01*
X2917940Y34375538D01*
X2790386Y34503092D01*
X2743324Y34532663D01*
X2637647Y34599065D01*
X2467378Y34658645D01*
X2467373Y34658646D01*
X2288128Y34678841D01*
X2288120Y34678841D01*
X2108874Y34658646D01*
X2108869Y34658645D01*
X1938600Y34599065D01*
X1785858Y34503090D01*
X1780414Y34498748D01*
X1779256Y34500200D01*
X1726101Y34471185D01*
X1656410Y34476180D01*
X1633791Y34487360D01*
X1600319Y34508391D01*
X1430062Y34567967D01*
X1430049Y34567970D01*
X1250804Y34588165D01*
X1250796Y34588165D01*
X1071550Y34567970D01*
X1071545Y34567969D01*
X901276Y34508389D01*
X748537Y34412416D01*
X620984Y34284863D01*
X525011Y34132124D01*
X465431Y33961855D01*
X465430Y33961850D01*
X445235Y33782604D01*
X445235Y33782597D01*
X465430Y33603351D01*
X465433Y33603338D01*
X525009Y33433082D01*
X525010Y33433080D01*
X525011Y33433078D01*
X553999Y33386944D01*
X572999Y33319707D01*
X553999Y33255000D01*
X485466Y33145931D01*
X425886Y32975662D01*
X425885Y32975657D01*
X405690Y32796411D01*
X405690Y32796404D01*
X0Y32796404D01*
X0Y34823997D01*
X21869433Y34823997D01*
X21889628Y34644751D01*
X21889629Y34644746D01*
X21949209Y34474477D01*
X22030112Y34345722D01*
X22045182Y34321738D01*
X22172736Y34194184D01*
X22325476Y34098211D01*
X22456022Y34052531D01*
X22495743Y34038632D01*
X22495748Y34038631D01*
X22674994Y34018435D01*
X22674998Y34018435D01*
X22675002Y34018435D01*
X22854247Y34038631D01*
X22854250Y34038632D01*
X22854253Y34038632D01*
X23024520Y34098211D01*
X23177260Y34194184D01*
X23304814Y34321738D01*
X23400787Y34474478D01*
X23460366Y34644745D01*
X23461932Y34658645D01*
X23480563Y34823997D01*
X23480563Y34824004D01*
X23460367Y35003250D01*
X23460366Y35003255D01*
X23400786Y35173524D01*
X23304813Y35326263D01*
X23177260Y35453816D01*
X23024521Y35549789D01*
X22854252Y35609369D01*
X22854247Y35609370D01*
X22675002Y35629565D01*
X22674994Y35629565D01*
X22495748Y35609370D01*
X22495743Y35609369D01*
X22325474Y35549789D01*
X22172735Y35453816D01*
X22045182Y35326263D01*
X21949209Y35173524D01*
X21889629Y35003255D01*
X21889628Y35003250D01*
X21869433Y34824004D01*
X21869433Y34823997D01*
X0Y34823997D01*
X0Y36978367D01*
X5276622Y36978367D01*
X5296817Y36799121D01*
X5296818Y36799116D01*
X5356398Y36628847D01*
X5395169Y36567144D01*
X5452371Y36476108D01*
X5504275Y36424204D01*
X5539035Y36389444D01*
X5572519Y36328120D01*
X5567535Y36258429D01*
X5552257Y36231437D01*
X5552669Y36231178D01*
X5452991Y36072544D01*
X5393411Y35902275D01*
X5393410Y35902270D01*
X5373215Y35723024D01*
X5373215Y35723017D01*
X5393410Y35543771D01*
X5393411Y35543766D01*
X5452991Y35373497D01*
X5482671Y35326262D01*
X5548964Y35220758D01*
X5676518Y35093204D01*
X5766860Y35036438D01*
X5819678Y35003250D01*
X5829258Y34997231D01*
X5999525Y34937652D01*
X5999530Y34937651D01*
X6178776Y34917455D01*
X6178780Y34917455D01*
X6178784Y34917455D01*
X6358029Y34937651D01*
X6358032Y34937652D01*
X6358035Y34937652D01*
X6528302Y34997231D01*
X6681042Y35093204D01*
X6808596Y35220758D01*
X6904569Y35373498D01*
X6964148Y35543765D01*
X6969110Y35587805D01*
X6984345Y35723017D01*
X6984345Y35723024D01*
X6964149Y35902270D01*
X6964148Y35902275D01*
X6916528Y36038365D01*
X6904569Y36072542D01*
X6903440Y36074338D01*
X6813412Y36217617D01*
X7367815Y36217617D01*
X7388010Y36038371D01*
X7388011Y36038366D01*
X7447591Y35868097D01*
X7543564Y35715358D01*
X7671118Y35587804D01*
X7823858Y35491831D01*
X7932499Y35453816D01*
X7994125Y35432252D01*
X7994130Y35432251D01*
X8173376Y35412055D01*
X8173380Y35412055D01*
X8173384Y35412055D01*
X8352629Y35432251D01*
X8352632Y35432252D01*
X8352635Y35432252D01*
X8522902Y35491831D01*
X8675642Y35587804D01*
X8717838Y35630000D01*
X8779161Y35663486D01*
X8846475Y35659361D01*
X8905145Y35638832D01*
X9084396Y35618635D01*
X9084400Y35618635D01*
X9084404Y35618635D01*
X9263649Y35638831D01*
X9263652Y35638832D01*
X9263655Y35638832D01*
X9433922Y35698411D01*
X9586662Y35794384D01*
X9714216Y35921938D01*
X9810189Y36074678D01*
X9869768Y36244945D01*
X9869769Y36244951D01*
X9889965Y36424197D01*
X9889965Y36424204D01*
X9869769Y36603450D01*
X9869768Y36603455D01*
X9829028Y36719883D01*
X9810189Y36773722D01*
X9714216Y36926462D01*
X9586662Y37054016D01*
X9547120Y37078862D01*
X9433923Y37149989D01*
X9263654Y37209569D01*
X9263649Y37209570D01*
X9084404Y37229765D01*
X9084396Y37229765D01*
X8905150Y37209570D01*
X8905145Y37209569D01*
X8734876Y37149989D01*
X8582134Y37054014D01*
X8582133Y37054014D01*
X8539939Y37011819D01*
X8478616Y36978335D01*
X8411305Y36982459D01*
X8352632Y37002989D01*
X8173384Y37023185D01*
X8173376Y37023185D01*
X7994130Y37002990D01*
X7994125Y37002989D01*
X7823856Y36943409D01*
X7671117Y36847436D01*
X7543564Y36719883D01*
X7447591Y36567144D01*
X7388011Y36396875D01*
X7388010Y36396870D01*
X7367815Y36217624D01*
X7367815Y36217617D01*
X6813412Y36217617D01*
X6808595Y36225283D01*
X6721932Y36311946D01*
X6688447Y36373269D01*
X6693431Y36442961D01*
X6708711Y36469953D01*
X6708298Y36470212D01*
X6712004Y36476110D01*
X6807976Y36628848D01*
X6867555Y36799115D01*
X6867556Y36799121D01*
X6887752Y36978367D01*
X6887752Y36978374D01*
X6867556Y37157620D01*
X6867555Y37157625D01*
X6838796Y37239814D01*
X6807976Y37327892D01*
X6765573Y37395376D01*
X19194706Y37395376D01*
X19214901Y37216130D01*
X19214902Y37216125D01*
X19274482Y37045856D01*
X19370455Y36893117D01*
X19498009Y36765563D01*
X19570708Y36719883D01*
X19651422Y36669167D01*
X19697713Y36616832D01*
X19708670Y36578057D01*
X19729030Y36397350D01*
X19729031Y36397346D01*
X19788611Y36227077D01*
X19884370Y36074678D01*
X19884584Y36074338D01*
X20012138Y35946784D01*
X20051680Y35921938D01*
X20137367Y35868097D01*
X20164878Y35850811D01*
X20326134Y35794385D01*
X20335145Y35791232D01*
X20335150Y35791231D01*
X20514396Y35771035D01*
X20514400Y35771035D01*
X20514404Y35771035D01*
X20693649Y35791231D01*
X20693652Y35791232D01*
X20693655Y35791232D01*
X20863922Y35850811D01*
X21016662Y35946784D01*
X21144216Y36074338D01*
X21240189Y36227078D01*
X21299768Y36397345D01*
X21299769Y36397351D01*
X21319965Y36576597D01*
X21319965Y36576604D01*
X21299769Y36755850D01*
X21299768Y36755855D01*
X21240188Y36926125D01*
X21155977Y37060144D01*
X21136976Y37127381D01*
X21157343Y37194216D01*
X21210611Y37239431D01*
X21274853Y37249337D01*
X21359373Y37239814D01*
X21359377Y37239814D01*
X21359381Y37239814D01*
X21538626Y37260010D01*
X21538629Y37260011D01*
X21538632Y37260011D01*
X21708899Y37319590D01*
X21861639Y37415563D01*
X21989193Y37543117D01*
X22085166Y37695857D01*
X22144745Y37866124D01*
X22145991Y37877184D01*
X22164942Y38045376D01*
X22164942Y38045382D01*
X22144433Y38227403D01*
X22156487Y38296225D01*
X22203836Y38347605D01*
X22253770Y38364507D01*
X22270706Y38366415D01*
X22440973Y38425994D01*
X22593713Y38521967D01*
X22682902Y38611157D01*
X22744221Y38644639D01*
X22811538Y38640513D01*
X22824339Y38636034D01*
X22824345Y38636032D01*
X22824347Y38636032D01*
X22824350Y38636031D01*
X23003596Y38615835D01*
X23003600Y38615835D01*
X23003604Y38615835D01*
X23182849Y38636031D01*
X23182852Y38636032D01*
X23182855Y38636032D01*
X23353122Y38695611D01*
X23505862Y38791584D01*
X23633416Y38919138D01*
X23729389Y39071878D01*
X23788968Y39242145D01*
X23788969Y39242151D01*
X23809165Y39421397D01*
X23809165Y39421404D01*
X23788969Y39600650D01*
X23788968Y39600654D01*
X23787806Y39603975D01*
X23787689Y39606258D01*
X23787418Y39607447D01*
X23787626Y39607495D01*
X23784241Y39673753D01*
X23818967Y39734382D01*
X23880959Y39766613D01*
X23911036Y39767840D01*
X23911036Y39768237D01*
X23918004Y39768237D01*
X24097249Y39788433D01*
X24097252Y39788434D01*
X24097255Y39788434D01*
X24267522Y39848013D01*
X24420262Y39943986D01*
X24547816Y40071540D01*
X24643789Y40224280D01*
X24703368Y40394547D01*
X24708196Y40437397D01*
X24723565Y40573799D01*
X24723565Y40573806D01*
X24703369Y40753052D01*
X24703368Y40753057D01*
X24677589Y40826730D01*
X24643789Y40923324D01*
X24641010Y40927746D01*
X24567382Y41044925D01*
X24547816Y41076064D01*
X24420262Y41203618D01*
X24389785Y41222768D01*
X24267523Y41299591D01*
X24097254Y41359171D01*
X24097249Y41359172D01*
X23918004Y41379367D01*
X23917996Y41379367D01*
X23738750Y41359172D01*
X23738745Y41359171D01*
X23568476Y41299591D01*
X23415737Y41203618D01*
X23288184Y41076065D01*
X23192211Y40923326D01*
X23132631Y40753057D01*
X23132630Y40753052D01*
X23112435Y40573806D01*
X23112435Y40573799D01*
X23132630Y40394553D01*
X23132633Y40394542D01*
X23133795Y40391221D01*
X23133911Y40388941D01*
X23134182Y40387755D01*
X23133974Y40387708D01*
X23137356Y40321443D01*
X23102627Y40260816D01*
X23040633Y40228589D01*
X23010564Y40227361D01*
X23010564Y40226965D01*
X23003596Y40226965D01*
X22824350Y40206770D01*
X22824345Y40206769D01*
X22654076Y40147189D01*
X22501339Y40051217D01*
X22412151Y39962029D01*
X22350827Y39928545D01*
X22283518Y39932669D01*
X22270708Y39937151D01*
X22270704Y39937152D01*
X22091455Y39957348D01*
X22091447Y39957348D01*
X21912201Y39937153D01*
X21912196Y39937152D01*
X21741927Y39877572D01*
X21589188Y39781599D01*
X21461635Y39654046D01*
X21365662Y39501307D01*
X21306082Y39331038D01*
X21306081Y39331033D01*
X21285886Y39151787D01*
X21285886Y39151780D01*
X21306394Y38969759D01*
X21294339Y38900937D01*
X21246990Y38849558D01*
X21197058Y38832656D01*
X21180127Y38830749D01*
X21009855Y38771169D01*
X20857114Y38675195D01*
X20729561Y38547642D01*
X20633588Y38394903D01*
X20574008Y38224634D01*
X20574008Y38224631D01*
X20570392Y38192542D01*
X20543324Y38128129D01*
X20485728Y38088575D01*
X20415891Y38086438D01*
X20381200Y38101434D01*
X20349794Y38121168D01*
X20179525Y38180748D01*
X20179520Y38180749D01*
X20000275Y38200944D01*
X20000267Y38200944D01*
X19821021Y38180749D01*
X19821016Y38180748D01*
X19650747Y38121168D01*
X19498008Y38025195D01*
X19370455Y37897642D01*
X19274482Y37744903D01*
X19214902Y37574634D01*
X19214901Y37574629D01*
X19194706Y37395383D01*
X19194706Y37395376D01*
X6765573Y37395376D01*
X6712003Y37480632D01*
X6584449Y37608186D01*
X6431710Y37704159D01*
X6261441Y37763739D01*
X6261436Y37763740D01*
X6082191Y37783935D01*
X6082183Y37783935D01*
X5902937Y37763740D01*
X5902932Y37763739D01*
X5732663Y37704159D01*
X5579924Y37608186D01*
X5452371Y37480633D01*
X5356398Y37327894D01*
X5296818Y37157625D01*
X5296817Y37157620D01*
X5276622Y36978374D01*
X5276622Y36978367D01*
X0Y36978367D01*
X0Y37996648D01*
X19685Y38063687D01*
X72489Y38109442D01*
X141647Y38119386D01*
X164955Y38113689D01*
X269137Y38077234D01*
X269143Y38077233D01*
X269145Y38077232D01*
X269146Y38077232D01*
X269150Y38077231D01*
X448396Y38057035D01*
X448400Y38057035D01*
X448404Y38057035D01*
X627649Y38077231D01*
X627652Y38077232D01*
X627655Y38077232D01*
X797922Y38136811D01*
X950662Y38232784D01*
X986371Y38268494D01*
X1047691Y38301978D01*
X1117383Y38296994D01*
X1173317Y38255124D01*
X1191092Y38221767D01*
X1195809Y38208287D01*
X1278157Y38077231D01*
X1291784Y38055544D01*
X1419338Y37927990D01*
X1439956Y37915035D01*
X1517787Y37866130D01*
X1572078Y37832017D01*
X1717270Y37781212D01*
X1742345Y37772438D01*
X1742350Y37772437D01*
X1921596Y37752241D01*
X1921600Y37752241D01*
X1921604Y37752241D01*
X2100849Y37772437D01*
X2100852Y37772438D01*
X2100855Y37772438D01*
X2271122Y37832017D01*
X2423862Y37927990D01*
X2551416Y38055544D01*
X2647389Y38208284D01*
X2706968Y38378551D01*
X2706969Y38378557D01*
X2727165Y38557803D01*
X2727165Y38557809D01*
X2713507Y38679026D01*
X2725561Y38747848D01*
X2772910Y38799228D01*
X2840521Y38816852D01*
X2906927Y38795126D01*
X2941720Y38758883D01*
X2969583Y38714539D01*
X2969585Y38714537D01*
X3097139Y38586983D01*
X3187481Y38530217D01*
X3224424Y38507004D01*
X3249879Y38491010D01*
X3420140Y38431433D01*
X3420146Y38431431D01*
X3420151Y38431430D01*
X3599397Y38411234D01*
X3599401Y38411234D01*
X3599405Y38411234D01*
X3778650Y38431430D01*
X3778652Y38431431D01*
X3778656Y38431431D01*
X3778659Y38431433D01*
X3778663Y38431433D01*
X3921437Y38481392D01*
X3991216Y38484954D01*
X4051843Y38450226D01*
X4079433Y38405306D01*
X4091409Y38371081D01*
X4091411Y38371078D01*
X4187384Y38218338D01*
X4314938Y38090784D01*
X4467678Y37994811D01*
X4637945Y37935232D01*
X4637950Y37935231D01*
X4817196Y37915035D01*
X4817200Y37915035D01*
X4817204Y37915035D01*
X4996449Y37935231D01*
X4996452Y37935232D01*
X4996455Y37935232D01*
X5166722Y37994811D01*
X5319462Y38090784D01*
X5447016Y38218338D01*
X5542989Y38371078D01*
X5590549Y38506997D01*
X6500835Y38506997D01*
X6521030Y38327751D01*
X6521031Y38327746D01*
X6580611Y38157477D01*
X6651049Y38045376D01*
X6676584Y38004738D01*
X6804138Y37877184D01*
X6821740Y37866124D01*
X6952542Y37783935D01*
X6956878Y37781211D01*
X7060646Y37744901D01*
X7127145Y37721632D01*
X7127150Y37721631D01*
X7306396Y37701435D01*
X7306400Y37701435D01*
X7306404Y37701435D01*
X7485649Y37721631D01*
X7485652Y37721632D01*
X7485655Y37721632D01*
X7655922Y37781211D01*
X7808662Y37877184D01*
X7936216Y38004738D01*
X8032189Y38157478D01*
X8091768Y38327745D01*
X8094006Y38347605D01*
X8111965Y38506997D01*
X8111965Y38507004D01*
X8091769Y38686250D01*
X8091768Y38686255D01*
X8032188Y38856524D01*
X7992845Y38919138D01*
X7936216Y39009262D01*
X7808662Y39136816D01*
X7784635Y39151913D01*
X7655923Y39232789D01*
X7485654Y39292369D01*
X7485649Y39292370D01*
X7306404Y39312565D01*
X7306396Y39312565D01*
X7127150Y39292370D01*
X7127145Y39292369D01*
X6956876Y39232789D01*
X6804137Y39136816D01*
X6676584Y39009263D01*
X6580611Y38856524D01*
X6521031Y38686255D01*
X6521030Y38686250D01*
X6500835Y38507004D01*
X6500835Y38506997D01*
X5590549Y38506997D01*
X5602568Y38541345D01*
X5602569Y38541351D01*
X5622765Y38720597D01*
X5622765Y38720604D01*
X5602569Y38899850D01*
X5602568Y38899855D01*
X5582308Y38957754D01*
X5542989Y39070122D01*
X5541886Y39071877D01*
X5462234Y39198643D01*
X5447016Y39222862D01*
X5319462Y39350416D01*
X5296470Y39364863D01*
X5166719Y39446391D01*
X5125315Y39460879D01*
X5068539Y39501600D01*
X5042792Y39566553D01*
X5056248Y39635115D01*
X5100297Y39682913D01*
X5217862Y39756784D01*
X5345416Y39884338D01*
X5441389Y40037078D01*
X5500968Y40207345D01*
X5503179Y40226965D01*
X5521165Y40386597D01*
X5521165Y40386604D01*
X5515442Y40437397D01*
X11987235Y40437397D01*
X12007430Y40258151D01*
X12007431Y40258146D01*
X12067011Y40087877D01*
X12149353Y39956832D01*
X12162984Y39935138D01*
X12290538Y39807584D01*
X12353790Y39767840D01*
X12431419Y39719062D01*
X12443278Y39711611D01*
X12551470Y39673753D01*
X12613545Y39652032D01*
X12613550Y39652031D01*
X12792796Y39631835D01*
X12792800Y39631835D01*
X12792804Y39631835D01*
X12972049Y39652031D01*
X12972052Y39652032D01*
X12972055Y39652032D01*
X13142322Y39711611D01*
X13154181Y39719062D01*
X13255413Y39782671D01*
X13322650Y39801672D01*
X13389485Y39781305D01*
X13425194Y39745500D01*
X13448964Y39709118D01*
X14189437Y40449591D01*
X14206475Y40386007D01*
X14272301Y40271993D01*
X14365393Y40178901D01*
X14479407Y40113075D01*
X14542990Y40096038D01*
X13802342Y39355391D01*
X13849168Y39318945D01*
X13849170Y39318944D01*
X14067785Y39200636D01*
X14067796Y39200631D01*
X14302906Y39119917D01*
X14548107Y39079000D01*
X14796693Y39079000D01*
X15041893Y39119917D01*
X15277003Y39200631D01*
X15277014Y39200636D01*
X15495628Y39318943D01*
X15495631Y39318945D01*
X15542456Y39355391D01*
X14801809Y40096038D01*
X14865393Y40113075D01*
X14979407Y40178901D01*
X15072499Y40271993D01*
X15138325Y40386007D01*
X15155362Y40449590D01*
X15895834Y39709118D01*
X15996131Y39862631D01*
X16095987Y40090283D01*
X16157012Y40331262D01*
X16157014Y40331271D01*
X16177541Y40578995D01*
X16177541Y40579006D01*
X16157014Y40826730D01*
X16157012Y40826739D01*
X16095987Y41067718D01*
X15996131Y41295370D01*
X15895834Y41448884D01*
X15155362Y40708411D01*
X15138325Y40771993D01*
X15072499Y40886007D01*
X14979407Y40979099D01*
X14865393Y41044925D01*
X14801810Y41061963D01*
X15542457Y41802610D01*
X15542456Y41802611D01*
X15495629Y41839057D01*
X15277014Y41957365D01*
X15277003Y41957370D01*
X15041893Y42038084D01*
X14796693Y42079000D01*
X14548107Y42079000D01*
X14302906Y42038084D01*
X14067796Y41957370D01*
X14067790Y41957368D01*
X13849161Y41839051D01*
X13802342Y41802612D01*
X13802342Y41802610D01*
X14542990Y41061963D01*
X14479407Y41044925D01*
X14365393Y40979099D01*
X14272301Y40886007D01*
X14206475Y40771993D01*
X14189437Y40708411D01*
X13448964Y41448884D01*
X13348668Y41295370D01*
X13316397Y41221798D01*
X13271440Y41168313D01*
X13204704Y41147623D01*
X13149876Y41162832D01*
X13148594Y41160169D01*
X13142321Y41163190D01*
X12972062Y41222767D01*
X12972049Y41222770D01*
X12792804Y41242965D01*
X12792796Y41242965D01*
X12613550Y41222770D01*
X12613545Y41222769D01*
X12443276Y41163189D01*
X12290537Y41067216D01*
X12162984Y40939663D01*
X12067011Y40786924D01*
X12007431Y40616655D01*
X12007430Y40616650D01*
X11987235Y40437404D01*
X11987235Y40437397D01*
X5515442Y40437397D01*
X5500969Y40565850D01*
X5500968Y40565855D01*
X5441388Y40736124D01*
X5384456Y40826730D01*
X5345416Y40888862D01*
X5217862Y41016416D01*
X5217860Y41016417D01*
X5065123Y41112389D01*
X4894854Y41171969D01*
X4894849Y41171970D01*
X4715604Y41192165D01*
X4715596Y41192165D01*
X4536350Y41171970D01*
X4536345Y41171969D01*
X4366076Y41112389D01*
X4213339Y41016417D01*
X4153167Y40956245D01*
X4091843Y40922761D01*
X4022152Y40927746D01*
X3966218Y40969617D01*
X3948444Y41002972D01*
X3925788Y41067718D01*
X3917389Y41091722D01*
X3821416Y41244462D01*
X3693862Y41372016D01*
X3650588Y41399207D01*
X3604298Y41451541D01*
X3593650Y41520594D01*
X3622025Y41584443D01*
X3650589Y41609194D01*
X3693862Y41636384D01*
X3821416Y41763938D01*
X3917389Y41916678D01*
X3976968Y42086945D01*
X3997165Y42266200D01*
X3976968Y42445455D01*
X3917389Y42615722D01*
X3821416Y42768462D01*
X3693862Y42896016D01*
X3541122Y42991989D01*
X3541123Y42991989D01*
X3535226Y42995694D01*
X3536274Y42997363D01*
X3491628Y43037679D01*
X3473321Y43105108D01*
X3494375Y43171730D01*
X3548105Y43216394D01*
X3556323Y43219604D01*
X3693522Y43267611D01*
X3846262Y43363584D01*
X3973816Y43491138D01*
X4069789Y43643878D01*
X4129368Y43814145D01*
X4149565Y43993400D01*
X4139976Y44078502D01*
X4129369Y44172650D01*
X4129368Y44172655D01*
X4106194Y44238883D01*
X4069789Y44342922D01*
X3973816Y44495662D01*
X3938348Y44531130D01*
X13171900Y44531130D01*
X13171901Y44531124D01*
X13178308Y44471517D01*
X13228602Y44336672D01*
X13228606Y44336665D01*
X13314852Y44221456D01*
X13314855Y44221453D01*
X13430064Y44135207D01*
X13430071Y44135203D01*
X13564917Y44084909D01*
X13564916Y44084909D01*
X13571844Y44084165D01*
X13624527Y44078500D01*
X15720272Y44078501D01*
X15779883Y44084909D01*
X15914731Y44135204D01*
X16029946Y44221454D01*
X16116196Y44336669D01*
X16166491Y44471517D01*
X16172900Y44531127D01*
X16172899Y44531137D01*
X16173254Y44534429D01*
X16174328Y44534314D01*
X16196071Y44595999D01*
X16251237Y44638877D01*
X16320827Y44645123D01*
X16362640Y44628493D01*
X16371038Y44623216D01*
X16507278Y44537611D01*
X16668534Y44481185D01*
X16677545Y44478032D01*
X16677550Y44478031D01*
X16856796Y44457835D01*
X16856800Y44457835D01*
X16856804Y44457835D01*
X17036049Y44478031D01*
X17036052Y44478032D01*
X17036055Y44478032D01*
X17206322Y44537611D01*
X17359062Y44633584D01*
X17486616Y44761138D01*
X17582589Y44913878D01*
X17642168Y45084145D01*
X17646069Y45118765D01*
X17662365Y45263397D01*
X17662365Y45263404D01*
X17642169Y45442650D01*
X17642168Y45442655D01*
X17626151Y45488429D01*
X17582589Y45612922D01*
X17582375Y45613262D01*
X17486615Y45765663D01*
X17359062Y45893216D01*
X17206323Y45989189D01*
X17036054Y46048769D01*
X17036049Y46048770D01*
X16856804Y46068965D01*
X16856796Y46068965D01*
X16677550Y46048770D01*
X16677545Y46048769D01*
X16507276Y45989189D01*
X16362871Y45898452D01*
X16295634Y45879452D01*
X16228799Y45899820D01*
X16183585Y45953088D01*
X16172899Y46003446D01*
X16172899Y46626871D01*
X16172898Y46626877D01*
X16172897Y46626884D01*
X16166491Y46686483D01*
X16161304Y46700389D01*
X16116197Y46821329D01*
X16116193Y46821336D01*
X16029947Y46936545D01*
X16029944Y46936548D01*
X15914735Y47022794D01*
X15914728Y47022798D01*
X15779882Y47073092D01*
X15779883Y47073092D01*
X15720283Y47079499D01*
X15720281Y47079500D01*
X15720273Y47079500D01*
X15720264Y47079500D01*
X13624529Y47079500D01*
X13624523Y47079499D01*
X13564916Y47073092D01*
X13430071Y47022798D01*
X13430064Y47022794D01*
X13314855Y46936548D01*
X13314852Y46936545D01*
X13228606Y46821336D01*
X13228602Y46821329D01*
X13178308Y46686483D01*
X13171901Y46626884D01*
X13171901Y46626877D01*
X13171900Y46626865D01*
X13171900Y44531130D01*
X3938348Y44531130D01*
X3846262Y44623216D01*
X3837864Y44628493D01*
X3693523Y44719189D01*
X3523254Y44778769D01*
X3523249Y44778770D01*
X3344004Y44798965D01*
X3343996Y44798965D01*
X3164750Y44778770D01*
X3164745Y44778769D01*
X2994476Y44719189D01*
X2841737Y44623216D01*
X2714184Y44495663D01*
X2618211Y44342924D01*
X2558631Y44172655D01*
X2558630Y44172650D01*
X2538435Y43993404D01*
X2538435Y43993397D01*
X2558630Y43814151D01*
X2558631Y43814146D01*
X2618211Y43643877D01*
X2714184Y43491138D01*
X2841738Y43363584D01*
X2930320Y43307924D01*
X3000374Y43263906D01*
X2999323Y43262235D01*
X3043964Y43221933D01*
X3062278Y43154506D01*
X3041232Y43087882D01*
X2987506Y43043212D01*
X2979259Y43039992D01*
X2842080Y42991991D01*
X2689337Y42896016D01*
X2561784Y42768463D01*
X2465811Y42615724D01*
X2406231Y42445455D01*
X2406230Y42445450D01*
X2386035Y42266204D01*
X2386035Y42266197D01*
X2406230Y42086951D01*
X2406231Y42086946D01*
X2465811Y41916677D01*
X2561784Y41763938D01*
X2689337Y41636385D01*
X2689340Y41636383D01*
X2732611Y41609193D01*
X2778902Y41556858D01*
X2789549Y41487805D01*
X2761174Y41423956D01*
X2732611Y41399207D01*
X2689340Y41372018D01*
X2689337Y41372016D01*
X2561784Y41244463D01*
X2465811Y41091724D01*
X2406231Y40921455D01*
X2406230Y40921450D01*
X2386035Y40742204D01*
X2386035Y40742197D01*
X2406230Y40562951D01*
X2406231Y40562946D01*
X2465811Y40392677D01*
X2504401Y40331262D01*
X2561784Y40239938D01*
X2689338Y40112384D01*
X2754341Y40071540D01*
X2842078Y40016411D01*
X2970535Y39971462D01*
X3027311Y39930740D01*
X3053059Y39865788D01*
X3039603Y39797226D01*
X3017263Y39766740D01*
X2969585Y39719062D01*
X2873612Y39566323D01*
X2814032Y39396054D01*
X2814031Y39396049D01*
X2793836Y39216803D01*
X2793836Y39216795D01*
X2807493Y39095579D01*
X2795438Y39026757D01*
X2748089Y38975378D01*
X2680478Y38957754D01*
X2614073Y38979481D01*
X2579279Y39015724D01*
X2551416Y39060068D01*
X2423862Y39187622D01*
X2384871Y39212122D01*
X2271123Y39283595D01*
X2100854Y39343175D01*
X2100849Y39343176D01*
X1921604Y39363371D01*
X1921596Y39363371D01*
X1742350Y39343176D01*
X1742345Y39343175D01*
X1572076Y39283595D01*
X1419337Y39187622D01*
X1383628Y39151913D01*
X1322305Y39118428D01*
X1252613Y39123414D01*
X1196680Y39165286D01*
X1178906Y39198641D01*
X1174189Y39212122D01*
X1078216Y39364862D01*
X950662Y39492416D01*
X896951Y39526165D01*
X797923Y39588389D01*
X627654Y39647969D01*
X627649Y39647970D01*
X448404Y39668165D01*
X448396Y39668165D01*
X269150Y39647970D01*
X269142Y39647968D01*
X164954Y39611511D01*
X95175Y39607950D01*
X34548Y39642679D01*
X2321Y39704673D01*
X0Y39728553D01*
X0Y47396997D01*
X16254435Y47396997D01*
X16274630Y47217751D01*
X16274631Y47217746D01*
X16334211Y47047477D01*
X16423671Y46905104D01*
X16430184Y46894738D01*
X16557738Y46767184D01*
X16621850Y46726900D01*
X16664041Y46700389D01*
X16710478Y46671211D01*
X16837212Y46626865D01*
X16880745Y46611632D01*
X16880750Y46611631D01*
X17059996Y46591435D01*
X17060000Y46591435D01*
X17060004Y46591435D01*
X17239249Y46611631D01*
X17239252Y46611632D01*
X17239255Y46611632D01*
X17409522Y46671211D01*
X17562262Y46767184D01*
X17689816Y46894738D01*
X17785789Y47047478D01*
X17845368Y47217745D01*
X17846700Y47229565D01*
X17865565Y47396997D01*
X17865565Y47397004D01*
X17845369Y47576250D01*
X17845368Y47576255D01*
X17785788Y47746524D01*
X17689815Y47899263D01*
X17562262Y48026816D01*
X17409523Y48122789D01*
X17239254Y48182369D01*
X17239249Y48182370D01*
X17060004Y48202565D01*
X17059996Y48202565D01*
X16880750Y48182370D01*
X16880745Y48182369D01*
X16710476Y48122789D01*
X16557737Y48026816D01*
X16430184Y47899263D01*
X16334211Y47746524D01*
X16274631Y47576255D01*
X16274630Y47576250D01*
X16254435Y47397004D01*
X16254435Y47396997D01*
X0Y47396997D01*
X0Y50140431D01*
X19685Y50207470D01*
X72489Y50253225D01*
X141647Y50263169D01*
X205203Y50234144D01*
X226634Y50210018D01*
X369033Y49999994D01*
X369035Y49999992D01*
X496441Y49849998D01*
X496442Y49849998D01*
X1705747Y51059303D01*
X1779588Y50957670D01*
X1957670Y50779588D01*
X2059300Y50705749D01*
X847257Y49493706D01*
X860495Y49481164D01*
X1145367Y49264612D01*
X1145370Y49264610D01*
X1451990Y49080124D01*
X1776739Y48929878D01*
X1776744Y48929877D01*
X2115855Y48815617D01*
X2465339Y48738689D01*
X2821075Y48700001D01*
X2821085Y48700000D01*
X3178915Y48700000D01*
X3178924Y48700001D01*
X3534660Y48738689D01*
X3884132Y48815614D01*
X4009633Y48857900D01*
X4079449Y48860652D01*
X4139669Y48825222D01*
X4154220Y48806364D01*
X4238182Y48672740D01*
X4238184Y48672738D01*
X4365738Y48545184D01*
X4443676Y48496212D01*
X4502833Y48459041D01*
X4518478Y48449211D01*
X4581828Y48427044D01*
X4688745Y48389632D01*
X4688750Y48389631D01*
X4867996Y48369435D01*
X4868000Y48369435D01*
X4868004Y48369435D01*
X5047249Y48389631D01*
X5047252Y48389632D01*
X5047255Y48389632D01*
X5217522Y48449211D01*
X5370262Y48545184D01*
X5497816Y48672738D01*
X5593789Y48825478D01*
X5653368Y48995745D01*
X5664707Y49096379D01*
X5673565Y49174997D01*
X5673565Y49175004D01*
X5653369Y49354250D01*
X5653368Y49354255D01*
X5619171Y49451985D01*
X5593789Y49524522D01*
X5497816Y49677262D01*
X5497815Y49677263D01*
X5493475Y49682705D01*
X5495883Y49684627D01*
X5468933Y49733983D01*
X5473917Y49803675D01*
X5495591Y49840617D01*
X5620607Y49987797D01*
X15544435Y49987797D01*
X15564630Y49808551D01*
X15564631Y49808546D01*
X15624211Y49638277D01*
X15656131Y49587477D01*
X15720184Y49485538D01*
X15847738Y49357984D01*
X16000478Y49262011D01*
X16137442Y49214086D01*
X16194217Y49173364D01*
X16213529Y49137998D01*
X16274210Y48964579D01*
X16298233Y48926347D01*
X16370184Y48811838D01*
X16497738Y48684284D01*
X16650478Y48588311D01*
X16773725Y48545185D01*
X16820745Y48528732D01*
X16820750Y48528731D01*
X16999996Y48508535D01*
X17000000Y48508535D01*
X17000004Y48508535D01*
X17179249Y48528731D01*
X17179252Y48528732D01*
X17179255Y48528732D01*
X17349522Y48588311D01*
X17502262Y48684284D01*
X17629816Y48811838D01*
X17725789Y48964578D01*
X17785368Y49134845D01*
X17785369Y49134851D01*
X17805565Y49314097D01*
X17805565Y49314104D01*
X17785369Y49493350D01*
X17785368Y49493355D01*
X17740347Y49622017D01*
X17725789Y49663622D01*
X17717218Y49677262D01*
X17681578Y49733983D01*
X17629816Y49816362D01*
X17502262Y49943916D01*
X17413016Y49999993D01*
X17349521Y50039890D01*
X17266810Y50068832D01*
X17212557Y50087815D01*
X17155783Y50128536D01*
X17136471Y50163902D01*
X17120334Y50210018D01*
X17075789Y50337322D01*
X16979816Y50490062D01*
X16852262Y50617616D01*
X16780370Y50662789D01*
X16699523Y50713589D01*
X16529254Y50773169D01*
X16529249Y50773170D01*
X16350004Y50793365D01*
X16349996Y50793365D01*
X16170750Y50773170D01*
X16170745Y50773169D01*
X16000476Y50713589D01*
X15847737Y50617616D01*
X15720184Y50490063D01*
X15624211Y50337324D01*
X15564631Y50167055D01*
X15564630Y50167050D01*
X15544435Y49987804D01*
X15544435Y49987797D01*
X5620607Y49987797D01*
X5630966Y49999993D01*
X5831781Y50296173D01*
X5999393Y50612323D01*
X5999402Y50612341D01*
X6131850Y50944761D01*
X6131852Y50944768D01*
X6227578Y51289543D01*
X6227584Y51289569D01*
X6285472Y51642669D01*
X6285473Y51642686D01*
X6304847Y51999998D01*
X6304847Y52000003D01*
X6303774Y52019797D01*
X15492435Y52019797D01*
X15512630Y51840551D01*
X15512631Y51840546D01*
X15572211Y51670277D01*
X15600452Y51625332D01*
X15668184Y51517538D01*
X15795738Y51389984D01*
X15948478Y51294011D01*
X16118745Y51234432D01*
X16118750Y51234431D01*
X16297996Y51214235D01*
X16298000Y51214235D01*
X16298004Y51214235D01*
X16477249Y51234431D01*
X16477252Y51234432D01*
X16477255Y51234432D01*
X16647522Y51294011D01*
X16800262Y51389984D01*
X16927816Y51517538D01*
X17023789Y51670278D01*
X17083368Y51840545D01*
X17101334Y51999998D01*
X17103565Y52019797D01*
X17103565Y52019804D01*
X17083369Y52199050D01*
X17083368Y52199055D01*
X17023788Y52369324D01*
X16927815Y52522063D01*
X16800262Y52649616D01*
X16647523Y52745589D01*
X16477254Y52805169D01*
X16477249Y52805170D01*
X16298004Y52825365D01*
X16297996Y52825365D01*
X16118750Y52805170D01*
X16118745Y52805169D01*
X15948476Y52745589D01*
X15795737Y52649616D01*
X15668184Y52522063D01*
X15572211Y52369324D01*
X15512631Y52199055D01*
X15512630Y52199050D01*
X15492435Y52019804D01*
X15492435Y52019797D01*
X6303774Y52019797D01*
X6285473Y52357315D01*
X6285472Y52357332D01*
X6227584Y52710432D01*
X6227578Y52710458D01*
X6131852Y53055233D01*
X6131850Y53055240D01*
X5999402Y53387660D01*
X5999393Y53387678D01*
X5831781Y53703828D01*
X5630975Y53999995D01*
X5630964Y54000009D01*
X5503556Y54150004D01*
X4294251Y52940699D01*
X4220412Y53042330D01*
X4042330Y53220412D01*
X3940698Y53294252D01*
X5152742Y54506296D01*
X5139504Y54518837D01*
X4854632Y54735389D01*
X4854629Y54735391D01*
X4797525Y54769749D01*
X4750230Y54821178D01*
X4738247Y54890013D01*
X4765382Y54954399D01*
X4823018Y54993893D01*
X4861453Y55000000D01*
X20138547Y55000000D01*
X20205586Y54980315D01*
G37*
%TD.AperFunction*%
%TD*%
M02*
