%TF.GenerationSoftware,KiCad,Pcbnew,8.0.0*%
%TF.CreationDate,2024-03-22T17:22:37-07:00*%
%TF.ProjectId,lyrav3r1,6c797261-7633-4723-912e-6b696361645f,rev?*%
%TF.SameCoordinates,Original*%
%TF.FileFunction,Legend,Bot*%
%TF.FilePolarity,Positive*%
%FSLAX46Y46*%
G04 Gerber Fmt 4.6, Leading zero omitted, Abs format (unit mm)*
G04 Created by KiCad (PCBNEW 8.0.0) date 2024-03-22 17:22:37*
%MOMM*%
%LPD*%
G01*
G04 APERTURE LIST*
G04 Aperture macros list*
%AMRoundRect*
0 Rectangle with rounded corners*
0 $1 Rounding radius*
0 $2 $3 $4 $5 $6 $7 $8 $9 X,Y pos of 4 corners*
0 Add a 4 corners polygon primitive as box body*
4,1,4,$2,$3,$4,$5,$6,$7,$8,$9,$2,$3,0*
0 Add four circle primitives for the rounded corners*
1,1,$1+$1,$2,$3*
1,1,$1+$1,$4,$5*
1,1,$1+$1,$6,$7*
1,1,$1+$1,$8,$9*
0 Add four rect primitives between the rounded corners*
20,1,$1+$1,$2,$3,$4,$5,0*
20,1,$1+$1,$4,$5,$6,$7,0*
20,1,$1+$1,$6,$7,$8,$9,0*
20,1,$1+$1,$8,$9,$2,$3,0*%
%AMFreePoly0*
4,1,19,0.500000,-0.750000,0.000000,-0.750000,0.000000,-0.744911,-0.071157,-0.744911,-0.207708,-0.704816,-0.327430,-0.627875,-0.420627,-0.520320,-0.479746,-0.390866,-0.500000,-0.250000,-0.500000,0.250000,-0.479746,0.390866,-0.420627,0.520320,-0.327430,0.627875,-0.207708,0.704816,-0.071157,0.744911,0.000000,0.744911,0.000000,0.750000,0.500000,0.750000,0.500000,-0.750000,0.500000,-0.750000,
$1*%
%AMFreePoly1*
4,1,19,0.000000,0.744911,0.071157,0.744911,0.207708,0.704816,0.327430,0.627875,0.420627,0.520320,0.479746,0.390866,0.500000,0.250000,0.500000,-0.250000,0.479746,-0.390866,0.420627,-0.520320,0.327430,-0.627875,0.207708,-0.704816,0.071157,-0.744911,0.000000,-0.744911,0.000000,-0.750000,-0.500000,-0.750000,-0.500000,0.750000,0.000000,0.750000,0.000000,0.744911,0.000000,0.744911,
$1*%
G04 Aperture macros list end*
%ADD10C,0.150000*%
%ADD11C,0.250000*%
%ADD12C,0.120000*%
%ADD13C,0.400000*%
%ADD14C,0.300000*%
%ADD15C,0.200000*%
%ADD16C,0.140000*%
%ADD17R,1.200000X5.000000*%
%ADD18R,1.400000X5.000000*%
%ADD19RoundRect,0.135000X0.135000X0.185000X-0.135000X0.185000X-0.135000X-0.185000X0.135000X-0.185000X0*%
%ADD20RoundRect,0.140000X-0.170000X0.140000X-0.170000X-0.140000X0.170000X-0.140000X0.170000X0.140000X0*%
%ADD21RoundRect,0.225000X-0.225000X-0.250000X0.225000X-0.250000X0.225000X0.250000X-0.225000X0.250000X0*%
%ADD22RoundRect,0.140000X0.170000X-0.140000X0.170000X0.140000X-0.170000X0.140000X-0.170000X-0.140000X0*%
%ADD23R,2.200000X2.200000*%
%ADD24C,2.200000*%
%ADD25C,5.600000*%
%ADD26RoundRect,0.140000X0.140000X0.170000X-0.140000X0.170000X-0.140000X-0.170000X0.140000X-0.170000X0*%
%ADD27RoundRect,0.135000X-0.135000X-0.185000X0.135000X-0.185000X0.135000X0.185000X-0.135000X0.185000X0*%
%ADD28RoundRect,0.140000X-0.140000X-0.170000X0.140000X-0.170000X0.140000X0.170000X-0.140000X0.170000X0*%
%ADD29R,2.000000X2.000000*%
%ADD30C,2.000000*%
%ADD31FreePoly0,180.000000*%
%ADD32FreePoly1,180.000000*%
%ADD33C,1.800000*%
%ADD34RoundRect,0.150000X0.587500X0.150000X-0.587500X0.150000X-0.587500X-0.150000X0.587500X-0.150000X0*%
%ADD35RoundRect,0.225000X-0.250000X0.225000X-0.250000X-0.225000X0.250000X-0.225000X0.250000X0.225000X0*%
%ADD36RoundRect,0.225000X0.375000X-0.225000X0.375000X0.225000X-0.375000X0.225000X-0.375000X-0.225000X0*%
%ADD37RoundRect,0.147500X-0.147500X-0.172500X0.147500X-0.172500X0.147500X0.172500X-0.147500X0.172500X0*%
%ADD38RoundRect,0.135000X-0.185000X0.135000X-0.185000X-0.135000X0.185000X-0.135000X0.185000X0.135000X0*%
%ADD39RoundRect,0.250000X0.250000X0.475000X-0.250000X0.475000X-0.250000X-0.475000X0.250000X-0.475000X0*%
%ADD40R,1.000000X1.000000*%
%ADD41RoundRect,0.150000X0.150000X-0.587500X0.150000X0.587500X-0.150000X0.587500X-0.150000X-0.587500X0*%
%ADD42R,0.500000X0.300000*%
%ADD43R,0.300000X0.500000*%
%ADD44RoundRect,0.150000X-0.650000X-0.150000X0.650000X-0.150000X0.650000X0.150000X-0.650000X0.150000X0*%
%ADD45R,0.800000X1.500000*%
%ADD46R,1.500000X0.800000*%
%ADD47R,0.800000X1.000000*%
%ADD48RoundRect,0.050000X-0.050000X0.387500X-0.050000X-0.387500X0.050000X-0.387500X0.050000X0.387500X0*%
%ADD49RoundRect,0.050000X-0.387500X0.050000X-0.387500X-0.050000X0.387500X-0.050000X0.387500X0.050000X0*%
%ADD50R,3.200000X3.200000*%
%ADD51RoundRect,0.200000X-0.200000X-0.275000X0.200000X-0.275000X0.200000X0.275000X-0.200000X0.275000X0*%
%ADD52R,2.700000X0.800000*%
%ADD53R,0.530000X1.070000*%
%ADD54RoundRect,0.147500X0.147500X0.172500X-0.147500X0.172500X-0.147500X-0.172500X0.147500X-0.172500X0*%
%ADD55R,0.250000X0.800000*%
%ADD56R,0.800000X0.250000*%
%ADD57RoundRect,0.250000X-0.475000X0.250000X-0.475000X-0.250000X0.475000X-0.250000X0.475000X0.250000X0*%
%ADD58R,0.280000X0.580000*%
%ADD59R,1.600000X0.400000*%
%ADD60O,1.400000X1.200000*%
%ADD61O,1.900000X1.200000*%
%ADD62O,1.770000X0.450000*%
%ADD63R,0.600000X1.550000*%
%ADD64R,0.500000X0.320000*%
%ADD65R,0.250000X0.520000*%
%ADD66R,0.420000X0.320000*%
%ADD67R,1.450000X0.850000*%
G04 APERTURE END LIST*
D10*
X13316666Y56195896D02*
X12840476Y56195896D01*
X13411904Y55910181D02*
X13078571Y56910181D01*
X13078571Y56910181D02*
X12745238Y55910181D01*
X12411904Y56433991D02*
X12078571Y56433991D01*
X11935714Y55910181D02*
X12411904Y55910181D01*
X12411904Y55910181D02*
X12411904Y56910181D01*
X12411904Y56910181D02*
X11935714Y56910181D01*
X11602380Y56910181D02*
X10983333Y56910181D01*
X10983333Y56910181D02*
X11316666Y56529229D01*
X11316666Y56529229D02*
X11173809Y56529229D01*
X11173809Y56529229D02*
X11078571Y56481610D01*
X11078571Y56481610D02*
X11030952Y56433991D01*
X11030952Y56433991D02*
X10983333Y56338753D01*
X10983333Y56338753D02*
X10983333Y56100658D01*
X10983333Y56100658D02*
X11030952Y56005420D01*
X11030952Y56005420D02*
X11078571Y55957800D01*
X11078571Y55957800D02*
X11173809Y55910181D01*
X11173809Y55910181D02*
X11459523Y55910181D01*
X11459523Y55910181D02*
X11554761Y55957800D01*
X11554761Y55957800D02*
X11602380Y56005420D01*
D11*
%TO.C,AE3*%
X8970000Y56525000D02*
X15400000Y56525000D01*
X15400000Y56525000D02*
X15400000Y55025000D01*
X8900000Y55025000D02*
X15400000Y55025000D01*
X9610000Y64525000D02*
X14690000Y64525000D01*
X9590000Y63285000D02*
X14690000Y63285000D01*
X9590000Y62505000D02*
X14690000Y62505000D01*
X9590000Y61705000D02*
X14690000Y61705000D01*
X9590000Y60885000D02*
X14690000Y60885000D01*
X9590000Y59985000D02*
X14690000Y59985000D01*
X14690000Y64525000D02*
X14690000Y56525000D01*
X14690000Y62525000D02*
X9590000Y63285000D01*
X14690000Y61745000D02*
X9590000Y62505000D01*
X14690000Y60945000D02*
X9590000Y61705000D01*
X14690000Y60125000D02*
X9590000Y60885000D01*
X9590000Y64555000D02*
X9590000Y56525000D01*
X8900000Y56525000D02*
X8900000Y55025000D01*
D12*
%TO.C,R2*%
X1412359Y10185000D02*
X1719641Y10185000D01*
X1412359Y9425000D02*
X1719641Y9425000D01*
%TO.C,C29*%
X7025200Y51149964D02*
X7025200Y51365636D01*
X7745200Y51149964D02*
X7745200Y51365636D01*
%TO.C,C11*%
X6824380Y49071400D02*
X6543220Y49071400D01*
X6824380Y50091400D02*
X6543220Y50091400D01*
%TO.C,C10*%
X960800Y49130436D02*
X960800Y48914764D01*
X240800Y49130436D02*
X240800Y48914764D01*
%TO.C,C8*%
X7502600Y12897564D02*
X7502600Y13113236D01*
X8222600Y12897564D02*
X8222600Y13113236D01*
%TO.C,R18*%
X9008959Y21107000D02*
X9316241Y21107000D01*
X9008959Y20347000D02*
X9316241Y20347000D01*
%TO.C,C3*%
X1508964Y9174400D02*
X1724636Y9174400D01*
X1508964Y8454400D02*
X1724636Y8454400D01*
%TO.C,C18*%
X11059364Y20782200D02*
X11275036Y20782200D01*
X11059364Y20062200D02*
X11275036Y20062200D01*
%TO.C,R28*%
X11015559Y26669600D02*
X11322841Y26669600D01*
X11015559Y25909600D02*
X11322841Y25909600D01*
%TO.C,R13*%
X15989959Y45084600D02*
X16297241Y45084600D01*
X15989959Y44324600D02*
X16297241Y44324600D01*
%TO.C,R3*%
X20517641Y11609400D02*
X20210359Y11609400D01*
X20517641Y12369400D02*
X20210359Y12369400D01*
%TO.C,C24*%
X17805436Y26666200D02*
X17589764Y26666200D01*
X17805436Y27386200D02*
X17589764Y27386200D01*
%TO.C,C1*%
X17563600Y44241164D02*
X17563600Y44456836D01*
X18283600Y44241164D02*
X18283600Y44456836D01*
%TO.C,C12*%
X23289236Y15972800D02*
X23073564Y15972800D01*
X23289236Y16692800D02*
X23073564Y16692800D01*
%TO.C,J4*%
X3220000Y35606600D02*
X3220000Y35006600D01*
X1120000Y36306600D02*
X2520000Y36306600D01*
X2520000Y34306600D02*
X1120000Y34306600D01*
X420000Y35006600D02*
X420000Y35606600D01*
X2520000Y36306600D02*
G75*
G02*
X3220000Y35606600I1J-699999D01*
G01*
X3220000Y35006600D02*
G75*
G02*
X2520000Y34306600I-699999J-1D01*
G01*
X420000Y35606600D02*
G75*
G02*
X1120000Y36306600I700000J0D01*
G01*
X1120000Y34306600D02*
G75*
G02*
X420000Y35006600I0J700000D01*
G01*
%TO.C,R15*%
X9341641Y21337600D02*
X9034359Y21337600D01*
X9341641Y22097600D02*
X9034359Y22097600D01*
%TO.C,R16*%
X15991959Y44068600D02*
X16299241Y44068600D01*
X15991959Y43308600D02*
X16299241Y43308600D01*
%TO.C,C28*%
X12827036Y33168600D02*
X12611364Y33168600D01*
X12827036Y33888600D02*
X12611364Y33888600D01*
%TO.C,C21*%
X21463036Y21941800D02*
X21247364Y21941800D01*
X21463036Y22661800D02*
X21247364Y22661800D01*
%TO.C,R1*%
X21273159Y20751400D02*
X21580441Y20751400D01*
X21273159Y19991400D02*
X21580441Y19991400D01*
%TO.C,C4*%
X21399000Y16659364D02*
X21399000Y16875036D01*
X22119000Y16659364D02*
X22119000Y16875036D01*
%TO.C,C14*%
X19875764Y27564000D02*
X20091436Y27564000D01*
X19875764Y26844000D02*
X20091436Y26844000D01*
%TO.C,C17*%
X11011164Y23347600D02*
X11226836Y23347600D01*
X11011164Y22627600D02*
X11226836Y22627600D01*
%TO.C,C2*%
X18577764Y49738200D02*
X18793436Y49738200D01*
X18577764Y49018200D02*
X18793436Y49018200D01*
%TO.C,C16*%
X21485836Y20976600D02*
X21270164Y20976600D01*
X21485836Y21696600D02*
X21270164Y21696600D01*
%TO.C,Q11*%
X17456000Y42410000D02*
X16806000Y42410000D01*
X16156000Y42410000D02*
X16806000Y42410000D01*
X17456000Y39290000D02*
X16806000Y39290000D01*
X16156000Y39290000D02*
X16806000Y39290000D01*
X17968500Y42360000D02*
X17728500Y42690000D01*
X18208500Y42690000D01*
X17968500Y42360000D01*
G36*
X17968500Y42360000D02*
G01*
X17728500Y42690000D01*
X18208500Y42690000D01*
X17968500Y42360000D01*
G37*
%TO.C,C34*%
X23700400Y25996620D02*
X23700400Y26277780D01*
X24720400Y25996620D02*
X24720400Y26277780D01*
%TO.C,C7*%
X8587400Y13398220D02*
X8587400Y13679380D01*
X9607400Y13398220D02*
X9607400Y13679380D01*
%TO.C,C13*%
X23377600Y23565564D02*
X23377600Y23781236D01*
X24097600Y23565564D02*
X24097600Y23781236D01*
%TO.C,D1*%
X422500Y14687500D02*
X2422500Y14687500D01*
X2422500Y18697500D02*
X2422500Y14687500D01*
X422500Y18697500D02*
X422500Y14687500D01*
%TO.C,C25*%
X12941564Y27360800D02*
X13157236Y27360800D01*
X12941564Y26640800D02*
X13157236Y26640800D01*
%TO.C,C19*%
X11087364Y19817000D02*
X11303036Y19817000D01*
X11087364Y19097000D02*
X11303036Y19097000D01*
%TO.C,C50*%
X24066000Y43580764D02*
X24066000Y43796436D01*
X24786000Y43580764D02*
X24786000Y43796436D01*
%TO.C,C26*%
X11008564Y22382400D02*
X11224236Y22382400D01*
X11008564Y21662400D02*
X11224236Y21662400D01*
%TO.C,C32*%
X24786000Y40596036D02*
X24786000Y40380364D01*
X24066000Y40596036D02*
X24066000Y40380364D01*
%TO.C,C20*%
X21455200Y46951620D02*
X21455200Y47232780D01*
X22475200Y46951620D02*
X22475200Y47232780D01*
%TO.C,C22*%
X16877800Y17215564D02*
X16877800Y17431236D01*
X17597800Y17215564D02*
X17597800Y17431236D01*
%TO.C,C27*%
X8316164Y28148200D02*
X8531836Y28148200D01*
X8316164Y27428200D02*
X8531836Y27428200D01*
%TO.C,R14*%
X4358759Y34950000D02*
X4666041Y34950000D01*
X4358759Y34190000D02*
X4666041Y34190000D01*
%TO.C,R4*%
X2710000Y9168759D02*
X2710000Y9476041D01*
X3470000Y9168759D02*
X3470000Y9476041D01*
%TO.C,C9*%
X15071548Y12368800D02*
X15594052Y12368800D01*
X15071548Y10898800D02*
X15594052Y10898800D01*
%TO.C,TP3*%
X24440200Y46392200D02*
X23040200Y46392200D01*
X24440200Y47792200D02*
X24440200Y46392200D01*
X23040200Y46392200D02*
X23040200Y47792200D01*
X23040200Y47792200D02*
X24440200Y47792200D01*
%TO.C,Q4*%
X15728600Y6993700D02*
X15728600Y6343700D01*
X15728600Y5693700D02*
X15728600Y6343700D01*
X18848600Y6993700D02*
X18848600Y6343700D01*
X18848600Y5693700D02*
X18848600Y6343700D01*
X19128600Y4941200D02*
X18798600Y5181200D01*
X19128600Y5421200D01*
X19128600Y4941200D01*
G36*
X19128600Y4941200D02*
G01*
X18798600Y5181200D01*
X19128600Y5421200D01*
X19128600Y4941200D01*
G37*
%TO.C,Q1*%
X9247200Y18731000D02*
X9897200Y18731000D01*
X9247200Y15611000D02*
X9897200Y15611000D01*
X10547200Y18731000D02*
X9897200Y18731000D01*
X10547200Y15611000D02*
X9897200Y15611000D01*
X11059700Y18681000D02*
X10819700Y19011000D01*
X11299700Y19011000D01*
X11059700Y18681000D01*
G36*
X11059700Y18681000D02*
G01*
X10819700Y19011000D01*
X11299700Y19011000D01*
X11059700Y18681000D01*
G37*
%TO.C,Q9*%
X5418400Y6972900D02*
X5418400Y6322900D01*
X5418400Y5672900D02*
X5418400Y6322900D01*
X8538400Y6972900D02*
X8538400Y6322900D01*
X8538400Y5672900D02*
X8538400Y6322900D01*
X8818400Y4920400D02*
X8488400Y5160400D01*
X8818400Y5400400D01*
X8818400Y4920400D01*
G36*
X8818400Y4920400D02*
G01*
X8488400Y5160400D01*
X8818400Y5400400D01*
X8818400Y4920400D01*
G37*
D11*
%TO.C,U3*%
X22440800Y17167000D02*
X22440800Y17557000D01*
X22580800Y17167000D02*
X22440800Y17167000D01*
X24470800Y17167000D02*
X24340800Y17167000D01*
X24470800Y17557000D02*
X24470800Y17167000D01*
X22440800Y18817000D02*
X22440800Y19207000D01*
X22440800Y19207000D02*
X22580800Y19207000D01*
X24340800Y19207000D02*
X24470800Y19207000D01*
X24470800Y19207000D02*
X24470800Y18817000D01*
X23160800Y17857000D02*
G75*
G02*
X23040800Y17857000I-60000J0D01*
G01*
X23040800Y17857000D02*
G75*
G02*
X23160800Y17857000I60000J0D01*
G01*
D12*
%TO.C,U9*%
X2092200Y33866000D02*
X4817200Y33866000D01*
X2092200Y33606000D02*
X2092200Y33866000D01*
X2092200Y28676000D02*
X2092200Y28416000D01*
X2092200Y28416000D02*
X4817200Y28416000D01*
X7542200Y33866000D02*
X4817200Y33866000D01*
X7542200Y33606000D02*
X7542200Y33866000D01*
X7542200Y28676000D02*
X7542200Y28416000D01*
X7542200Y28416000D02*
X4817200Y28416000D01*
X1549700Y28346000D02*
X1069700Y28346000D01*
X1309700Y28676000D01*
X1549700Y28346000D01*
G36*
X1549700Y28346000D02*
G01*
X1069700Y28346000D01*
X1309700Y28676000D01*
X1549700Y28346000D01*
G37*
%TO.C,Q3*%
X12056400Y3195700D02*
X12706400Y3195700D01*
X12056400Y75700D02*
X12706400Y75700D01*
X13356400Y3195700D02*
X12706400Y3195700D01*
X13356400Y75700D02*
X12706400Y75700D01*
X13868900Y3145700D02*
X13628900Y3475700D01*
X14108900Y3475700D01*
X13868900Y3145700D01*
G36*
X13868900Y3145700D02*
G01*
X13628900Y3475700D01*
X14108900Y3475700D01*
X13868900Y3145700D01*
G37*
%TO.C,C6*%
X19240000Y15043636D02*
X19240000Y14827964D01*
X19960000Y15043636D02*
X19960000Y14827964D01*
%TO.C,C33*%
X12991600Y30220364D02*
X12991600Y30436036D01*
X13711600Y30220364D02*
X13711600Y30436036D01*
D11*
%TO.C,U1*%
X11087200Y47803400D02*
X9387200Y47803400D01*
X11087200Y47803400D02*
X11087200Y46103400D01*
X1087200Y47803400D02*
X2787200Y47803400D01*
X1087200Y47803400D02*
X1087200Y46103400D01*
X11087200Y37803400D02*
X11087200Y39503400D01*
X11087200Y37803400D02*
X9387200Y37803400D01*
X1087200Y37803400D02*
X1087200Y39503400D01*
X1087200Y37803400D02*
X2787200Y37803400D01*
D13*
X3877200Y49153400D02*
G75*
G02*
X3477200Y49153400I-200000J0D01*
G01*
X3477200Y49153400D02*
G75*
G02*
X3877200Y49153400I200000J0D01*
G01*
D12*
%TO.C,Q5*%
X8860400Y6972900D02*
X8860400Y6322900D01*
X8860400Y5672900D02*
X8860400Y6322900D01*
X11980400Y6972900D02*
X11980400Y6322900D01*
X11980400Y5672900D02*
X11980400Y6322900D01*
X12260400Y4920400D02*
X11930400Y5160400D01*
X12260400Y5400400D01*
X12260400Y4920400D01*
G36*
X12260400Y4920400D02*
G01*
X11930400Y5160400D01*
X12260400Y5400400D01*
X12260400Y4920400D01*
G37*
%TO.C,R17*%
X17508241Y4313000D02*
X17200959Y4313000D01*
X17508241Y3553000D02*
X17200959Y3553000D01*
%TO.C,C23*%
X12989764Y18140600D02*
X13205436Y18140600D01*
X12989764Y17420600D02*
X13205436Y17420600D01*
D10*
%TO.C,X2*%
X20505200Y22836200D02*
X20505200Y26136200D01*
X23165200Y22836200D02*
X20505200Y22836200D01*
X23395200Y25116200D02*
X23395200Y26376200D01*
X23165200Y26016200D02*
X23165200Y22836200D01*
X20505200Y26136200D02*
X23165200Y26136200D01*
X23165200Y26136200D02*
X23165200Y26016200D01*
X23395200Y26376200D02*
X21935200Y26376200D01*
D12*
%TO.C,C15*%
X10908800Y28861236D02*
X10908800Y28645564D01*
X11628800Y28861236D02*
X11628800Y28645564D01*
%TO.C,U8*%
X12650000Y25700600D02*
X12650000Y25350600D01*
X12650000Y18780600D02*
X12650000Y19430600D01*
X12890000Y26000600D02*
X13300000Y26000600D01*
X13300000Y18780600D02*
X12650000Y18780600D01*
X19220000Y26000600D02*
X19870000Y26000600D01*
X19220000Y18780600D02*
X19870000Y18780600D01*
X19870000Y26000600D02*
X19870000Y25350600D01*
X19870000Y18780600D02*
X19870000Y19430600D01*
X12650000Y26000600D02*
X12320000Y25760600D01*
X12320000Y26240600D01*
X12650000Y26000600D01*
G36*
X12650000Y26000600D02*
G01*
X12320000Y25760600D01*
X12320000Y26240600D01*
X12650000Y26000600D01*
G37*
%TO.C,R7*%
X23291658Y15382100D02*
X22817142Y15382100D01*
X23291658Y14337100D02*
X22817142Y14337100D01*
%TO.C,L2*%
X15452400Y12667800D02*
X15452400Y16187800D01*
X15602400Y16187800D02*
X15452400Y16187800D01*
X15602400Y12667800D02*
X15452400Y12667800D01*
X18822400Y16187800D02*
X18972400Y16187800D01*
X18822400Y12667800D02*
X18972400Y12667800D01*
X18972400Y12667800D02*
X18972400Y16187800D01*
D10*
%TO.C,U10*%
X12116400Y15521000D02*
X12116400Y13741000D01*
X15196400Y15521000D02*
X15196400Y13741000D01*
D14*
X15476400Y13331000D02*
G75*
G02*
X15176400Y13331000I-150000J0D01*
G01*
X15176400Y13331000D02*
G75*
G02*
X15476400Y13331000I150000J0D01*
G01*
D12*
%TO.C,R10*%
X14003041Y4287600D02*
X13695759Y4287600D01*
X14003041Y3527600D02*
X13695759Y3527600D01*
%TO.C,Q8*%
X646800Y13324300D02*
X646800Y12674300D01*
X646800Y12024300D02*
X646800Y12674300D01*
X3766800Y13324300D02*
X3766800Y12674300D01*
X3766800Y12024300D02*
X3766800Y12674300D01*
X4046800Y11271800D02*
X3716800Y11511800D01*
X4046800Y11751800D01*
X4046800Y11271800D01*
G36*
X4046800Y11271800D02*
G01*
X3716800Y11511800D01*
X4046800Y11751800D01*
X4046800Y11271800D01*
G37*
%TO.C,Q2*%
X12252700Y6970600D02*
X12252700Y6320600D01*
X12252700Y5670600D02*
X12252700Y6320600D01*
X15372700Y6970600D02*
X15372700Y6320600D01*
X15372700Y5670600D02*
X15372700Y6320600D01*
X15652700Y4918100D02*
X15322700Y5158100D01*
X15652700Y5398100D01*
X15652700Y4918100D01*
G36*
X15652700Y4918100D02*
G01*
X15322700Y5158100D01*
X15652700Y5398100D01*
X15652700Y4918100D01*
G37*
D15*
%TO.C,U2*%
X20710900Y45623700D02*
X20250900Y45623700D01*
X20710900Y46813700D02*
X20710900Y45623700D01*
X20710900Y48673700D02*
X20710900Y47473700D01*
X20250900Y48673700D02*
X20710900Y48673700D01*
X16590900Y45623700D02*
X16140900Y45623700D01*
X16260900Y48673700D02*
X16590900Y48673700D01*
X16140900Y45623700D02*
X16140900Y46763700D01*
X16140900Y47523700D02*
X16140900Y48673700D01*
X16140900Y48673700D02*
X16260900Y48673700D01*
D11*
X20560900Y48923700D02*
G75*
G02*
X20340900Y48923700I-110000J0D01*
G01*
X20340900Y48923700D02*
G75*
G02*
X20560900Y48923700I110000J0D01*
G01*
D12*
%TO.C,C5*%
X10127400Y13302948D02*
X10127400Y13825452D01*
X11597400Y13302948D02*
X11597400Y13825452D01*
%TO.C,R12*%
X7170441Y4287600D02*
X6863159Y4287600D01*
X7170441Y3527600D02*
X6863159Y3527600D01*
D10*
%TO.C,U7*%
X9786400Y32215400D02*
X9786400Y31055400D01*
X11446400Y32215400D02*
X11446400Y31055400D01*
X11186400Y30625400D02*
G75*
G02*
X11046400Y30625400I-70000J0D01*
G01*
X11046400Y30625400D02*
G75*
G02*
X11186400Y30625400I70000J0D01*
G01*
D12*
%TO.C,R8*%
X23129359Y13969600D02*
X23436641Y13969600D01*
X23129359Y13209600D02*
X23436641Y13209600D01*
D11*
%TO.C,J7*%
X-951100Y27649600D02*
X-621100Y27979600D01*
X-951100Y26349600D02*
X-951100Y21309600D01*
X-951100Y21309600D02*
X-221100Y21309600D01*
X-951100Y19889600D02*
X-951100Y19849600D01*
X-951100Y19849600D02*
X-621100Y19519600D01*
X-871100Y27649600D02*
X-951100Y27649600D01*
X-621100Y27979600D02*
X-221100Y27579600D01*
X-621100Y19519600D02*
X-221100Y19919600D01*
X-221100Y27579600D02*
X-221100Y27499600D01*
X-221100Y27499600D02*
X4898900Y27499600D01*
X-221100Y26999600D02*
X-871100Y27649600D01*
X-221100Y26349600D02*
X-951100Y26349600D01*
X-221100Y20619600D02*
X-951100Y19889600D01*
X-221100Y19999600D02*
X-221100Y27499600D01*
X-221100Y19919600D02*
X-221100Y19999600D01*
X4898900Y27499600D02*
X4898900Y26999600D01*
X4898900Y20499600D02*
X4898900Y19999600D01*
X4898900Y19999600D02*
X-221100Y19999600D01*
D10*
%TO.C,U5*%
X19899600Y44744600D02*
X20939600Y44744600D01*
X19899600Y44574600D02*
X19899600Y44744600D01*
X19899600Y39754600D02*
X19899600Y39584600D01*
X19899600Y39584600D02*
X20939600Y39584600D01*
X23059600Y44744600D02*
X22019600Y44744600D01*
X23059600Y44574600D02*
X23059600Y44744600D01*
X23059600Y39754600D02*
X23059600Y39584600D01*
X23059600Y39584600D02*
X22019600Y39584600D01*
D11*
X24189600Y44164600D02*
G75*
G02*
X23949600Y44164600I-120000J0D01*
G01*
X23949600Y44164600D02*
G75*
G02*
X24189600Y44164600I120000J0D01*
G01*
D10*
%TO.C,FL1*%
X11730800Y32801700D02*
X12320800Y32801700D01*
X11730800Y32421700D02*
X11730800Y32801700D01*
X11730800Y31401700D02*
X11730800Y31781700D01*
X12320800Y31401700D02*
X11730800Y31401700D01*
X12910800Y32801700D02*
X13630800Y32801700D01*
X13630800Y32801700D02*
X13630800Y31401700D01*
X13630800Y31401700D02*
X12910800Y31401700D01*
D16*
X11590800Y32101700D02*
G75*
G02*
X11450800Y32101700I-70000J0D01*
G01*
X11450800Y32101700D02*
G75*
G02*
X11590800Y32101700I70000J0D01*
G01*
D12*
%TO.C,Q10*%
X7687600Y3221100D02*
X8337600Y3221100D01*
X7687600Y101100D02*
X8337600Y101100D01*
X8987600Y3221100D02*
X8337600Y3221100D01*
X8987600Y101100D02*
X8337600Y101100D01*
X9500100Y3171100D02*
X9260100Y3501100D01*
X9740100Y3501100D01*
X9500100Y3171100D01*
G36*
X9500100Y3171100D02*
G01*
X9260100Y3501100D01*
X9740100Y3501100D01*
X9500100Y3171100D01*
G37*
D15*
%TO.C,IC1*%
X15975000Y38075000D02*
X22825000Y38075000D01*
X15975000Y27975000D02*
X15975000Y38075000D01*
X22825000Y38075000D02*
X22825000Y27975000D01*
X22825000Y27975000D02*
X15975000Y27975000D01*
D11*
X24750000Y38350000D02*
G75*
G02*
X24500000Y38350000I-125000J0D01*
G01*
X24500000Y38350000D02*
G75*
G02*
X24750000Y38350000I125000J0D01*
G01*
D12*
%TO.C,R11*%
X10599441Y4262200D02*
X10292159Y4262200D01*
X10599441Y3502200D02*
X10292159Y3502200D01*
%TO.C,Q7*%
X15927400Y3214400D02*
X16577400Y3214400D01*
X15927400Y94400D02*
X16577400Y94400D01*
X17227400Y3214400D02*
X16577400Y3214400D01*
X17227400Y94400D02*
X16577400Y94400D01*
X17739900Y3164400D02*
X17499900Y3494400D01*
X17979900Y3494400D01*
X17739900Y3164400D01*
G36*
X17739900Y3164400D02*
G01*
X17499900Y3494400D01*
X17979900Y3494400D01*
X17739900Y3164400D01*
G37*
%TD*%
%LPC*%
D17*
%TO.C,AE3*%
X12150000Y52365000D03*
D18*
X14700000Y52365000D03*
X9600000Y52365000D03*
%TD*%
D19*
%TO.C,R2*%
X2076000Y9805000D03*
X1056000Y9805000D03*
%TD*%
D20*
%TO.C,C29*%
X7385200Y51737800D03*
X7385200Y50777800D03*
%TD*%
D21*
%TO.C,C11*%
X5908800Y49581400D03*
X7458800Y49581400D03*
%TD*%
D22*
%TO.C,C10*%
X600800Y48542600D03*
X600800Y49502600D03*
%TD*%
D23*
%TO.C,J2*%
X6392000Y17044000D03*
D24*
X6392000Y14504000D03*
%TD*%
D20*
%TO.C,C8*%
X7862600Y13485400D03*
X7862600Y12525400D03*
%TD*%
D25*
%TO.C,H3*%
X2886000Y2947000D03*
%TD*%
D19*
%TO.C,R18*%
X9672600Y20727000D03*
X8652600Y20727000D03*
%TD*%
D26*
%TO.C,C3*%
X2096800Y8814400D03*
X1136800Y8814400D03*
%TD*%
%TO.C,C18*%
X11647200Y20422200D03*
X10687200Y20422200D03*
%TD*%
D19*
%TO.C,R28*%
X11679200Y26289600D03*
X10659200Y26289600D03*
%TD*%
%TO.C,R13*%
X16653600Y44704600D03*
X15633600Y44704600D03*
%TD*%
D27*
%TO.C,R3*%
X19854000Y11989400D03*
X20874000Y11989400D03*
%TD*%
D28*
%TO.C,C24*%
X17217600Y27026200D03*
X18177600Y27026200D03*
%TD*%
D20*
%TO.C,C1*%
X17923600Y44829000D03*
X17923600Y43869000D03*
%TD*%
D29*
%TO.C,BZ1*%
X14012000Y45629800D03*
D30*
X14012000Y40629800D03*
%TD*%
D28*
%TO.C,C12*%
X22701400Y16332800D03*
X23661400Y16332800D03*
%TD*%
D31*
%TO.C,J4*%
X2470000Y35306600D03*
D32*
X1170000Y35306600D03*
%TD*%
D27*
%TO.C,R15*%
X8678000Y21717600D03*
X9698000Y21717600D03*
%TD*%
D19*
%TO.C,R16*%
X16655600Y43688600D03*
X15635600Y43688600D03*
%TD*%
D28*
%TO.C,C28*%
X12239200Y33528600D03*
X13199200Y33528600D03*
%TD*%
%TO.C,C21*%
X20875200Y22301800D03*
X21835200Y22301800D03*
%TD*%
D19*
%TO.C,R1*%
X21936800Y20371400D03*
X20916800Y20371400D03*
%TD*%
D20*
%TO.C,C4*%
X21759000Y17247200D03*
X21759000Y16287200D03*
%TD*%
D23*
%TO.C,J8*%
X4791800Y9601800D03*
D24*
X7331800Y9601800D03*
X9871800Y9601800D03*
X12411800Y9601800D03*
X14951800Y9601800D03*
X17491800Y9601800D03*
X20031800Y9601800D03*
%TD*%
D26*
%TO.C,C14*%
X20463600Y27204000D03*
X19503600Y27204000D03*
%TD*%
%TO.C,C17*%
X11599000Y22987600D03*
X10639000Y22987600D03*
%TD*%
D33*
%TO.C,AE1*%
X12843600Y28439000D03*
%TD*%
D26*
%TO.C,C2*%
X19165600Y49378200D03*
X18205600Y49378200D03*
%TD*%
D28*
%TO.C,C16*%
X20898000Y21336600D03*
X21858000Y21336600D03*
%TD*%
D25*
%TO.C,H1*%
X2886000Y51947000D03*
%TD*%
D34*
%TO.C,Q11*%
X17743500Y41800000D03*
X17743500Y39900000D03*
X15868500Y40850000D03*
%TD*%
D35*
%TO.C,C34*%
X24210400Y26912200D03*
X24210400Y25362200D03*
%TD*%
%TO.C,C7*%
X9097400Y14313800D03*
X9097400Y12763800D03*
%TD*%
D25*
%TO.C,H2*%
X21886000Y51947000D03*
%TD*%
D20*
%TO.C,C13*%
X23737600Y24153400D03*
X23737600Y23193400D03*
%TD*%
D36*
%TO.C,D1*%
X1422500Y15397500D03*
X1422500Y18697500D03*
%TD*%
D26*
%TO.C,C25*%
X13529400Y27000800D03*
X12569400Y27000800D03*
%TD*%
%TO.C,C19*%
X11675200Y19457000D03*
X10715200Y19457000D03*
%TD*%
D20*
%TO.C,C50*%
X24426000Y44168600D03*
X24426000Y43208600D03*
%TD*%
D26*
%TO.C,C26*%
X11596400Y22022400D03*
X10636400Y22022400D03*
%TD*%
D25*
%TO.C,H4*%
X21886000Y2947000D03*
%TD*%
D22*
%TO.C,C32*%
X24426000Y40008200D03*
X24426000Y40968200D03*
%TD*%
D35*
%TO.C,C20*%
X21965200Y47867200D03*
X21965200Y46317200D03*
%TD*%
D20*
%TO.C,C22*%
X17237800Y17803400D03*
X17237800Y16843400D03*
%TD*%
D37*
%TO.C,L1*%
X21401000Y27178600D03*
X22371000Y27178600D03*
%TD*%
D26*
%TO.C,C27*%
X8904000Y27788200D03*
X7944000Y27788200D03*
%TD*%
D19*
%TO.C,R14*%
X5022400Y34570000D03*
X4002400Y34570000D03*
%TD*%
D38*
%TO.C,R4*%
X3090000Y9832400D03*
X3090000Y8812400D03*
%TD*%
D39*
%TO.C,C9*%
X16282800Y11633800D03*
X14382800Y11633800D03*
%TD*%
D40*
%TO.C,TP3*%
X23740200Y47092200D03*
%TD*%
D41*
%TO.C,Q4*%
X18238600Y5406200D03*
X16338600Y5406200D03*
X17288600Y7281200D03*
%TD*%
D34*
%TO.C,Q1*%
X10834700Y18121000D03*
X10834700Y16221000D03*
X8959700Y17171000D03*
%TD*%
D41*
%TO.C,Q9*%
X7928400Y5385400D03*
X6028400Y5385400D03*
X6978400Y7260400D03*
%TD*%
D42*
%TO.C,U3*%
X22590800Y17937000D03*
X22590800Y18437000D03*
D43*
X22960800Y19057000D03*
X23460800Y19057000D03*
X23960800Y19057000D03*
D42*
X24330800Y18437000D03*
X24330800Y17937000D03*
D43*
X23960800Y17317000D03*
X23460800Y17317000D03*
X22960800Y17317000D03*
%TD*%
D44*
%TO.C,U9*%
X1217200Y29236000D03*
X1217200Y30506000D03*
X1217200Y31776000D03*
X1217200Y33046000D03*
X8417200Y33046000D03*
X8417200Y31776000D03*
X8417200Y30506000D03*
X8417200Y29236000D03*
%TD*%
D34*
%TO.C,Q3*%
X13643900Y2585700D03*
X13643900Y685700D03*
X11768900Y1635700D03*
%TD*%
D22*
%TO.C,C6*%
X19600000Y14455800D03*
X19600000Y15415800D03*
%TD*%
D20*
%TO.C,C33*%
X13351600Y30808200D03*
X13351600Y29848200D03*
%TD*%
D45*
%TO.C,U1*%
X3547200Y47803400D03*
X4817200Y47803400D03*
X6087200Y47803400D03*
X7357200Y47803400D03*
X8627200Y47803400D03*
D46*
X11087200Y45343400D03*
X11087200Y44073400D03*
X11087200Y42803400D03*
X11087200Y41533400D03*
X11087200Y40263400D03*
D45*
X8627200Y37803400D03*
X7357200Y37803400D03*
X6087200Y37803400D03*
X4817200Y37803400D03*
X3547200Y37803400D03*
D46*
X1087200Y40263400D03*
X1087200Y41533400D03*
X1087200Y42803400D03*
X1087200Y44073400D03*
X1087200Y45343400D03*
%TD*%
D41*
%TO.C,Q5*%
X11370400Y5385400D03*
X9470400Y5385400D03*
X10420400Y7260400D03*
%TD*%
D27*
%TO.C,R17*%
X16844600Y3933000D03*
X17864600Y3933000D03*
%TD*%
D26*
%TO.C,C23*%
X13577600Y17780600D03*
X12617600Y17780600D03*
%TD*%
D47*
%TO.C,X2*%
X22435200Y25386200D03*
X22435200Y23586200D03*
X21235200Y23586200D03*
X21235200Y25386200D03*
%TD*%
D22*
%TO.C,C15*%
X11268800Y28273400D03*
X11268800Y29233400D03*
%TD*%
D48*
%TO.C,U8*%
X13660000Y25828100D03*
X14060000Y25828100D03*
X14460000Y25828100D03*
X14860000Y25828100D03*
X15260000Y25828100D03*
X15660000Y25828100D03*
X16060000Y25828100D03*
X16460000Y25828100D03*
X16860000Y25828100D03*
X17260000Y25828100D03*
X17660000Y25828100D03*
X18060000Y25828100D03*
X18460000Y25828100D03*
X18860000Y25828100D03*
D49*
X19697500Y24990600D03*
X19697500Y24590600D03*
X19697500Y24190600D03*
X19697500Y23790600D03*
X19697500Y23390600D03*
X19697500Y22990600D03*
X19697500Y22590600D03*
X19697500Y22190600D03*
X19697500Y21790600D03*
X19697500Y21390600D03*
X19697500Y20990600D03*
X19697500Y20590600D03*
X19697500Y20190600D03*
X19697500Y19790600D03*
D48*
X18860000Y18953100D03*
X18460000Y18953100D03*
X18060000Y18953100D03*
X17660000Y18953100D03*
X17260000Y18953100D03*
X16860000Y18953100D03*
X16460000Y18953100D03*
X16060000Y18953100D03*
X15660000Y18953100D03*
X15260000Y18953100D03*
X14860000Y18953100D03*
X14460000Y18953100D03*
X14060000Y18953100D03*
X13660000Y18953100D03*
D49*
X12822500Y19790600D03*
X12822500Y20190600D03*
X12822500Y20590600D03*
X12822500Y20990600D03*
X12822500Y21390600D03*
X12822500Y21790600D03*
X12822500Y22190600D03*
X12822500Y22590600D03*
X12822500Y22990600D03*
X12822500Y23390600D03*
X12822500Y23790600D03*
X12822500Y24190600D03*
X12822500Y24590600D03*
X12822500Y24990600D03*
D50*
X16260000Y22390600D03*
%TD*%
D51*
%TO.C,R7*%
X22229400Y14859600D03*
X23879400Y14859600D03*
%TD*%
D52*
%TO.C,L2*%
X17212400Y15577800D03*
X17212400Y13277800D03*
%TD*%
D53*
%TO.C,U10*%
X14606400Y13481000D03*
X13656400Y13481000D03*
X12706400Y13481000D03*
X12706400Y15781000D03*
X13656400Y15781000D03*
X14606400Y15781000D03*
%TD*%
D27*
%TO.C,R10*%
X13339400Y3907600D03*
X14359400Y3907600D03*
%TD*%
D41*
%TO.C,Q8*%
X3156800Y11736800D03*
X1256800Y11736800D03*
X2206800Y13611800D03*
%TD*%
%TO.C,Q2*%
X14762700Y5383100D03*
X12862700Y5383100D03*
X13812700Y7258100D03*
%TD*%
D54*
%TO.C,L4*%
X11245800Y30175800D03*
X10275800Y30175800D03*
%TD*%
D55*
%TO.C,U2*%
X19920900Y48343700D03*
X19420900Y48343700D03*
X18920900Y48343700D03*
X18420900Y48343700D03*
X17920900Y48343700D03*
X17420900Y48343700D03*
X16920900Y48343700D03*
D56*
X16510900Y47143700D03*
D55*
X16920900Y45943700D03*
X17420900Y45943700D03*
X17920900Y45943700D03*
X18420900Y45943700D03*
X18920900Y45943700D03*
X19420900Y45943700D03*
X19920900Y45943700D03*
D56*
X20330900Y47143700D03*
%TD*%
D57*
%TO.C,C5*%
X10862400Y14514200D03*
X10862400Y12614200D03*
%TD*%
D27*
%TO.C,R12*%
X6506800Y3907600D03*
X7526800Y3907600D03*
%TD*%
D58*
%TO.C,U7*%
X11116400Y31215400D03*
X10616400Y31215400D03*
X10116400Y31215400D03*
X10116400Y32055400D03*
X10616400Y32055400D03*
X11116400Y32055400D03*
%TD*%
D19*
%TO.C,R8*%
X23793000Y13589600D03*
X22773000Y13589600D03*
%TD*%
D59*
%TO.C,J7*%
X4578900Y22449600D03*
X4578900Y23099600D03*
X4578900Y23749600D03*
X4578900Y24399600D03*
X4588900Y25049600D03*
D60*
X4828900Y26169600D03*
X4828900Y21329600D03*
D61*
X1928900Y20149600D03*
X1928900Y27349600D03*
%TD*%
D62*
%TO.C,U5*%
X22889600Y44164600D03*
X22889600Y43364600D03*
X22889600Y42564600D03*
X22889600Y41764600D03*
X22889600Y40964600D03*
X22889600Y40164600D03*
D63*
X21479600Y39864600D03*
D62*
X20069600Y40164600D03*
X20069600Y40964600D03*
X20069600Y41764600D03*
X20069600Y42564600D03*
X20069600Y43364600D03*
X20069600Y44164600D03*
D63*
X21479600Y44464600D03*
%TD*%
D64*
%TO.C,FL1*%
X12030800Y32101700D03*
D65*
X12620800Y32491700D03*
D66*
X13210800Y32391700D03*
X13210800Y31811700D03*
D65*
X12620800Y31711700D03*
%TD*%
D34*
%TO.C,Q10*%
X9275100Y2611100D03*
X9275100Y711100D03*
X7400100Y1661100D03*
%TD*%
D67*
%TO.C,IC1*%
X23900000Y37425000D03*
X23900000Y36325000D03*
X23900000Y35225000D03*
X23900000Y34125000D03*
X23900000Y33025000D03*
X23900000Y31925000D03*
X23900000Y30825000D03*
X23900000Y29725000D03*
X23900000Y28625000D03*
X14900000Y28625000D03*
X14900000Y29725000D03*
X14900000Y30825000D03*
X14900000Y31925000D03*
X14900000Y33025000D03*
X14900000Y34125000D03*
X14900000Y35225000D03*
X14900000Y36325000D03*
X14900000Y37425000D03*
%TD*%
D27*
%TO.C,R11*%
X9935800Y3882200D03*
X10955800Y3882200D03*
%TD*%
D34*
%TO.C,Q7*%
X17514900Y2604400D03*
X17514900Y704400D03*
X15639900Y1654400D03*
%TD*%
%LPD*%
M02*
