%TF.GenerationSoftware,KiCad,Pcbnew,8.0.0*%
%TF.CreationDate,2024-03-28T21:59:47-07:00*%
%TF.ProjectId,lyrav3r1,6c797261-7633-4723-912e-6b696361645f,rev?*%
%TF.SameCoordinates,Original*%
%TF.FileFunction,Copper,L1,Top*%
%TF.FilePolarity,Positive*%
%FSLAX46Y46*%
G04 Gerber Fmt 4.6, Leading zero omitted, Abs format (unit mm)*
G04 Created by KiCad (PCBNEW 8.0.0) date 2024-03-28 21:59:47*
%MOMM*%
%LPD*%
G01*
G04 APERTURE LIST*
G04 Aperture macros list*
%AMRoundRect*
0 Rectangle with rounded corners*
0 $1 Rounding radius*
0 $2 $3 $4 $5 $6 $7 $8 $9 X,Y pos of 4 corners*
0 Add a 4 corners polygon primitive as box body*
4,1,4,$2,$3,$4,$5,$6,$7,$8,$9,$2,$3,0*
0 Add four circle primitives for the rounded corners*
1,1,$1+$1,$2,$3*
1,1,$1+$1,$4,$5*
1,1,$1+$1,$6,$7*
1,1,$1+$1,$8,$9*
0 Add four rect primitives between the rounded corners*
20,1,$1+$1,$2,$3,$4,$5,0*
20,1,$1+$1,$4,$5,$6,$7,0*
20,1,$1+$1,$6,$7,$8,$9,0*
20,1,$1+$1,$8,$9,$2,$3,0*%
%AMFreePoly0*
4,1,19,0.500000,-0.750000,0.000000,-0.750000,0.000000,-0.744911,-0.071157,-0.744911,-0.207708,-0.704816,-0.327430,-0.627875,-0.420627,-0.520320,-0.479746,-0.390866,-0.500000,-0.250000,-0.500000,0.250000,-0.479746,0.390866,-0.420627,0.520320,-0.327430,0.627875,-0.207708,0.704816,-0.071157,0.744911,0.000000,0.744911,0.000000,0.750000,0.500000,0.750000,0.500000,-0.750000,0.500000,-0.750000,
$1*%
%AMFreePoly1*
4,1,19,0.000000,0.744911,0.071157,0.744911,0.207708,0.704816,0.327430,0.627875,0.420627,0.520320,0.479746,0.390866,0.500000,0.250000,0.500000,-0.250000,0.479746,-0.390866,0.420627,-0.520320,0.327430,-0.627875,0.207708,-0.704816,0.071157,-0.744911,0.000000,-0.744911,0.000000,-0.750000,-0.500000,-0.750000,-0.500000,0.750000,0.000000,0.750000,0.000000,0.744911,0.000000,0.744911,
$1*%
G04 Aperture macros list end*
%TA.AperFunction,ComponentPad*%
%ADD10C,5.600000*%
%TD*%
%TA.AperFunction,ComponentPad*%
%ADD11R,2.000000X2.000000*%
%TD*%
%TA.AperFunction,ComponentPad*%
%ADD12C,2.000000*%
%TD*%
%TA.AperFunction,SMDPad,CuDef*%
%ADD13FreePoly0,0.000000*%
%TD*%
%TA.AperFunction,SMDPad,CuDef*%
%ADD14FreePoly1,0.000000*%
%TD*%
%TA.AperFunction,SMDPad,CuDef*%
%ADD15R,1.000000X1.000000*%
%TD*%
%TA.AperFunction,ComponentPad*%
%ADD16R,2.200000X2.200000*%
%TD*%
%TA.AperFunction,ComponentPad*%
%ADD17C,2.200000*%
%TD*%
%TA.AperFunction,ComponentPad*%
%ADD18C,1.800000*%
%TD*%
%TA.AperFunction,SMDPad,CuDef*%
%ADD19RoundRect,0.492126X-0.632874X-0.257874X0.632874X-0.257874X0.632874X0.257874X-0.632874X0.257874X0*%
%TD*%
%TA.AperFunction,SMDPad,CuDef*%
%ADD20RoundRect,0.243750X-0.456250X0.243750X-0.456250X-0.243750X0.456250X-0.243750X0.456250X0.243750X0*%
%TD*%
%TA.AperFunction,SMDPad,CuDef*%
%ADD21RoundRect,0.243750X0.456250X-0.243750X0.456250X0.243750X-0.456250X0.243750X-0.456250X-0.243750X0*%
%TD*%
%TA.AperFunction,ComponentPad*%
%ADD22O,1.400000X1.200000*%
%TD*%
%TA.AperFunction,ComponentPad*%
%ADD23O,1.900000X1.200000*%
%TD*%
%TA.AperFunction,SMDPad,CuDef*%
%ADD24R,1.400000X5.000000*%
%TD*%
%TA.AperFunction,ViaPad*%
%ADD25C,0.600000*%
%TD*%
%TA.AperFunction,ViaPad*%
%ADD26C,0.700000*%
%TD*%
%TA.AperFunction,ViaPad*%
%ADD27C,1.000000*%
%TD*%
%TA.AperFunction,Conductor*%
%ADD28C,0.200000*%
%TD*%
%TA.AperFunction,Conductor*%
%ADD29C,0.300000*%
%TD*%
G04 APERTURE END LIST*
D10*
%TO.P,H3,1,1*%
%TO.N,GND*%
X3000000Y3000000D03*
%TD*%
D11*
%TO.P,BZ1,1,+*%
%TO.N,/BUZZER*%
X14672400Y45579000D03*
D12*
%TO.P,BZ1,2,-*%
%TO.N,GND*%
X14672400Y40579000D03*
%TD*%
D13*
%TO.P,J4,1,Pin_1*%
%TO.N,GND*%
X1627200Y35459000D03*
D14*
%TO.P,J4,2,Pin_2*%
%TO.N,/BOOTSEL*%
X2927200Y35459000D03*
%TD*%
D15*
%TO.P,TP1,1,1*%
%TO.N,/RUN*%
X23765600Y11735400D03*
%TD*%
D16*
%TO.P,J8,1,Pin_1*%
%TO.N,+BATT*%
X4791800Y9601800D03*
D17*
%TO.P,J8,2,Pin_2*%
%TO.N,/P4-*%
X7331800Y9601800D03*
%TO.P,J8,3,Pin_3*%
%TO.N,/P3-*%
X9871800Y9601800D03*
%TO.P,J8,4,Pin_4*%
%TO.N,/P2-*%
X12411800Y9601800D03*
%TO.P,J8,5,Pin_5*%
%TO.N,/P1-*%
X14951800Y9601800D03*
%TO.P,J8,6,Pin_6*%
%TO.N,GND*%
X17491800Y9601800D03*
%TO.P,J8,7,Pin_7*%
%TO.N,/BATT RAW*%
X20031800Y9601800D03*
%TD*%
D18*
%TO.P,AE1,1,A*%
%TO.N,/ANT IN*%
X12843600Y28439000D03*
%TD*%
D10*
%TO.P,H1,1,1*%
%TO.N,GND*%
X3000000Y52000000D03*
%TD*%
D19*
%TO.P,J5,1,Pin_1*%
%TO.N,/BRKOUT1*%
X1820000Y40516200D03*
%TO.P,J5,2,Pin_2*%
%TO.N,/BRKOUT2*%
X1820000Y42266200D03*
%TO.P,J5,3,Pin_3*%
%TO.N,/BRKOUT3*%
X1820000Y44016200D03*
%TO.P,J5,4,Pin_4*%
%TO.N,/BRKOUT4*%
X1820000Y45766200D03*
%TO.P,J5,5,Pin_5*%
%TO.N,GND*%
X1820000Y47516200D03*
%TD*%
D10*
%TO.P,H2,1,1*%
%TO.N,GND*%
X22000000Y52000000D03*
%TD*%
%TO.P,H4,1,1*%
%TO.N,GND*%
X22000000Y3000000D03*
%TD*%
D16*
%TO.P,J2,1,Pin_1*%
%TO.N,/BATT POSTSW*%
X6392000Y17044000D03*
D17*
%TO.P,J2,2,Pin_2*%
%TO.N,/BATT RAW*%
X6392000Y14504000D03*
%TD*%
D20*
%TO.P,D2,1,K*%
%TO.N,GND*%
X21733600Y15814300D03*
%TO.P,D2,2,A*%
%TO.N,Net-(D2-A)*%
X21733600Y13939300D03*
%TD*%
D15*
%TO.P,TP2,1,1*%
%TO.N,Net-(IC1-1PPS)*%
X23816400Y39573800D03*
%TD*%
D21*
%TO.P,D3,1,K*%
%TO.N,Net-(D3-K)*%
X19752400Y13987500D03*
%TO.P,D3,2,A*%
%TO.N,+3V3*%
X19752400Y15862500D03*
%TD*%
D22*
%TO.P,J7,6,Shield*%
%TO.N,unconnected-(J7-Shield-Pad6)*%
X4879700Y25433000D03*
%TO.P,J7,7*%
%TO.N,N/C*%
X4879700Y20593000D03*
D23*
%TO.P,J7,8*%
X1979700Y19413000D03*
%TO.P,J7,9*%
X1979700Y26613000D03*
%TD*%
D24*
%TO.P,AE3,2,Shield*%
%TO.N,GND*%
X14700000Y52365000D03*
X9600000Y52365000D03*
%TD*%
D25*
%TO.N,GND*%
X9922600Y44577600D03*
D26*
X10557600Y53620000D03*
D25*
X11827600Y31420400D03*
X10252800Y46279400D03*
X9744800Y45365000D03*
X17288600Y25095800D03*
X23579348Y17992888D03*
X13453200Y49962400D03*
X12030800Y27229400D03*
X11980000Y12243400D03*
X11776800Y635700D03*
X9440000Y31496600D03*
X12437200Y30887000D03*
X5900000Y29025000D03*
X16171000Y30988600D03*
X15879457Y14185415D03*
X16145600Y30175800D03*
X12872800Y49365694D03*
X21718968Y16825193D03*
X12157800Y44222000D03*
X10456000Y29058200D03*
X22024800Y21757400D03*
X8424000Y11176600D03*
X23791000Y41783600D03*
X11091000Y46457200D03*
X12183200Y32969800D03*
X15840800Y27686600D03*
X11375774Y32862826D03*
X17421299Y46674872D03*
X12538800Y44933200D03*
X23867200Y43615000D03*
X9643200Y29566200D03*
X20842000Y20066600D03*
X20108000Y26543600D03*
X13453200Y21387400D03*
X18797600Y43383800D03*
X13350600Y4622400D03*
X24517200Y24995105D03*
X11268800Y27483400D03*
X11294200Y49403600D03*
X10483820Y35431180D03*
X3033199Y24421783D03*
X4868000Y34544600D03*
X19065198Y21793800D03*
X16145600Y28550200D03*
X12843600Y48438400D03*
X16145600Y29363000D03*
X11446600Y47498600D03*
X9440000Y32360200D03*
X15933573Y21345428D03*
X10151200Y4420200D03*
X12843600Y47447800D03*
X10456000Y28042200D03*
X15824574Y19683236D03*
X12843600Y46584200D03*
X9372400Y30491154D03*
D26*
X13707200Y53899400D03*
D25*
X14977200Y27661200D03*
X22902000Y37440200D03*
X7900000Y20775000D03*
D26*
X23460800Y45346000D03*
D25*
X7385200Y50241800D03*
X4868000Y46685800D03*
X10938600Y50140200D03*
X16728800Y4393800D03*
X12183200Y30125000D03*
X11421200Y48438400D03*
X23918000Y38151400D03*
X6028400Y4386000D03*
X10862400Y24587800D03*
X1633379Y36853836D03*
X20260400Y46177800D03*
D27*
X4461600Y11401802D03*
D25*
X9166463Y17882200D03*
X13407020Y19491472D03*
X13859600Y50749800D03*
X10481400Y50800600D03*
X18319600Y49937000D03*
X14164400Y27635800D03*
X1261200Y39266200D03*
X12386400Y45720600D03*
%TO.N,+3V3*%
X10717300Y17773300D03*
X24597839Y21590600D03*
X19169603Y49937000D03*
X23918000Y40573802D03*
D26*
X24502200Y23444800D03*
D25*
X22735866Y17887803D03*
X6429700Y27483362D03*
X1250800Y29515400D03*
X23765600Y10465400D03*
X23926349Y44428670D03*
X22095400Y18688800D03*
X16501200Y14986600D03*
X21808400Y27686287D03*
X13758000Y11598200D03*
X9166187Y20510086D03*
X19343511Y20529512D03*
D26*
X21987600Y47577400D03*
X24133083Y49274182D03*
D25*
X11838400Y16350450D03*
X11878404Y24587800D03*
X15488401Y24909592D03*
X20683377Y14892191D03*
X4868000Y49175000D03*
X18726521Y45044448D03*
X17000000Y49314100D03*
%TO.N,+1V1*%
X12176816Y18944492D03*
X17239640Y19832480D03*
D27*
%TO.N,VBUS*%
X804000Y10824900D03*
X2531200Y21743000D03*
X4360000Y16002600D03*
D25*
%TO.N,Net-(D2-A)*%
X21835200Y13259400D03*
%TO.N,/P3-*%
X2887847Y8342200D03*
D26*
X15205800Y12065600D03*
D25*
%TO.N,/RUN*%
X23520599Y12506399D03*
%TO.N,/BOOTSEL*%
X6178780Y35723020D03*
%TO.N,/GPS 3v3*%
X22572140Y30836200D03*
D27*
X23816386Y27432600D03*
D25*
%TO.N,/SCL*%
X20412794Y25527612D03*
X19265615Y22657088D03*
X22061380Y19835580D03*
X20000271Y37395379D03*
D26*
X24375200Y45466600D03*
D25*
X17060000Y47397000D03*
X16350000Y49987800D03*
X21424998Y45974600D03*
X21952500Y25842208D03*
%TO.N,/BRKOUT4*%
X1211255Y32796407D03*
X11645200Y15092681D03*
X448400Y38862600D03*
%TO.N,/BRKOUT3*%
X12178863Y14466461D03*
X3344000Y43993400D03*
X1921600Y38557806D03*
%TO.N,/BRKOUT2*%
X3191600Y42266200D03*
X499200Y21844600D03*
X13010970Y14589711D03*
%TO.N,/BRKOUT1*%
X4715600Y40386600D03*
X21359377Y38045379D03*
X3191600Y40742200D03*
X12792800Y40437400D03*
X17190200Y21418783D03*
%TO.N,Net-(IC1-1PPS)*%
X23003600Y39421400D03*
X22674998Y34824000D03*
%TO.N,/P2 EN *%
X18584000Y6909400D03*
X14988600Y5799013D03*
%TO.N,/P3 EN *%
X11370400Y6350600D03*
X14437600Y15139000D03*
%TO.N,/P4 EN *%
X7712800Y6249000D03*
X13904408Y15750112D03*
%TO.N,/BATT SENSE *%
X5833200Y11227400D03*
X13700394Y17891472D03*
X3788521Y6232968D03*
X8932000Y16764600D03*
D26*
%TO.N,/P1 CONT *%
X18761800Y1956400D03*
X22292400Y6452200D03*
D25*
%TO.N,/P3 CONT *%
X14029202Y13706600D03*
X2724844Y9743800D03*
%TO.N,/P2 CONT *%
X19006945Y6222893D03*
X12742000Y1677000D03*
%TO.N,/QSPI_SS*%
X4413007Y32676065D03*
X1250800Y33782600D03*
%TO.N,/P4 CONT *%
X15853590Y17994763D03*
X6061800Y1600800D03*
%TO.N,Net-(D3-K)*%
X19827027Y13388876D03*
%TO.N,/SDA*%
X23305832Y19542095D03*
X20311200Y45111000D03*
X20514400Y36576600D03*
D26*
X23215578Y47645712D03*
D25*
X16856800Y45263400D03*
X21003091Y24715094D03*
X16298000Y52019800D03*
%TO.N,/ANT OFF*%
X11519198Y33996200D03*
X16145600Y33996200D03*
%TO.N,/QSPI_SD1*%
X2288124Y33873276D03*
X4389334Y33747294D03*
%TO.N,/BUZZER*%
X22091451Y39151783D03*
X17191164Y18014336D03*
%TO.N,/SX CS*%
X20317304Y29323144D03*
X4817200Y38720600D03*
%TO.N,/BUSY*%
X16936027Y20660232D03*
X8173380Y36217620D03*
%TO.N,/MISO*%
X7306400Y38507000D03*
X20062661Y30134107D03*
%TO.N,/MOSI*%
X6082187Y36978370D03*
X19438861Y30734600D03*
%TO.N,/SCK*%
X20223691Y28438603D03*
X3599401Y39216799D03*
%TO.N,/SX RST*%
X9084400Y36424200D03*
X12284800Y21235000D03*
%TD*%
D28*
%TO.N,GND*%
X21718968Y15828932D02*
X21733600Y15814300D01*
X1820000Y47516200D02*
X2886000Y48582200D01*
X1627200Y36847657D02*
X1633379Y36853836D01*
X2886000Y48582200D02*
X2886000Y51947000D01*
X21718968Y16825193D02*
X21718968Y15828932D01*
X1627200Y35459000D02*
X1627200Y36847657D01*
%TO.N,+3V3*%
X19752400Y15822500D02*
X20682709Y14892191D01*
X20682709Y14892191D02*
X20683377Y14892191D01*
%TO.N,Net-(D2-A)*%
X21733600Y13939300D02*
X21733600Y13361000D01*
X21733600Y13361000D02*
X21835200Y13259400D01*
%TO.N,/P3-*%
X9871800Y9601800D02*
X8471800Y8201800D01*
D29*
X11321800Y11051800D02*
X13374800Y11051800D01*
D28*
X8471800Y8201800D02*
X3028247Y8201800D01*
D29*
X13374800Y11051800D02*
X13631000Y10795600D01*
X13935800Y10795600D02*
X15205800Y12065600D01*
X9871800Y9601800D02*
X11321800Y11051800D01*
X13631000Y10795600D02*
X13935800Y10795600D01*
D28*
X3028247Y8201800D02*
X2887847Y8342200D01*
%TO.N,/RUN*%
X23520599Y11980401D02*
X23765600Y11735400D01*
X23520599Y12506399D02*
X23520599Y11980401D01*
%TO.N,/BOOTSEL*%
X2927200Y35459000D02*
X5914760Y35459000D01*
X5914760Y35459000D02*
X6178780Y35723020D01*
%TO.N,/SCL*%
X17060000Y47397000D02*
X16350000Y48107000D01*
X21952500Y26622948D02*
X21952500Y25842208D01*
X19265615Y22657088D02*
X19397112Y22657088D01*
X23816400Y46279400D02*
X21729798Y46279400D01*
X21424998Y39324639D02*
X20000271Y37899912D01*
X21134883Y24054400D02*
X20209600Y24054400D01*
X20209600Y25324418D02*
X20412794Y25527612D01*
X21424998Y45974600D02*
X21424998Y39324639D01*
X22061380Y19835580D02*
X22648000Y20422200D01*
X16350000Y48107000D02*
X16350000Y49987800D01*
X20002598Y47397000D02*
X21424998Y45974600D01*
X19676212Y25527612D02*
X19265615Y25117015D01*
X21900000Y33500830D02*
X21900000Y28697126D01*
X17060000Y47397000D02*
X20002598Y47397000D01*
X20000271Y37899912D02*
X20000271Y37395379D01*
X24375200Y45466600D02*
X24375200Y45720600D01*
X21158400Y27417048D02*
X21952500Y26622948D01*
X21136800Y37275000D02*
X21136800Y34264030D01*
X20412794Y25527612D02*
X19676212Y25527612D01*
X19265615Y25117015D02*
X19265615Y22657088D01*
X21900000Y28697126D02*
X21158400Y27955526D01*
X21136800Y34264030D02*
X21900000Y33500830D01*
X21016421Y37395379D02*
X21136800Y37275000D01*
X21158400Y27955526D02*
X21158400Y27417048D01*
X22648000Y22541283D02*
X21134883Y24054400D01*
X21729798Y46279400D02*
X21424998Y45974600D01*
X20209600Y24054400D02*
X20209600Y25324418D01*
X20000271Y37395379D02*
X21016421Y37395379D01*
X24375200Y45720600D02*
X23816400Y46279400D01*
X22648000Y20422200D02*
X22648000Y22541283D01*
%TO.N,/BRKOUT4*%
X8282000Y16495361D02*
X8662761Y16114600D01*
X3879700Y23246186D02*
X3879700Y20220208D01*
X3229700Y25144522D02*
X3801200Y24573022D01*
X448400Y38862600D02*
X448400Y39065800D01*
X3229700Y30777962D02*
X3229700Y25144522D01*
X3801200Y24573022D02*
X3801200Y23324685D01*
X3879700Y20220208D02*
X4598508Y19501400D01*
X3801200Y23324685D02*
X3879700Y23246186D01*
X448400Y39065800D02*
X395000Y39119200D01*
X7300285Y19501400D02*
X8282000Y18519685D01*
X8863914Y16114600D02*
X9885833Y15092681D01*
X8662761Y16114600D02*
X8863914Y16114600D01*
X395000Y44609342D02*
X1551858Y45766200D01*
X8282000Y18519685D02*
X8282000Y16495361D01*
X4598508Y19501400D02*
X7300285Y19501400D01*
X1551858Y45766200D02*
X1820000Y45766200D01*
X1211255Y32796407D02*
X3229700Y30777962D01*
X9885833Y15092681D02*
X11645200Y15092681D01*
X395000Y39119200D02*
X395000Y44609342D01*
%TO.N,/BRKOUT3*%
X9745214Y14466461D02*
X7882000Y16329675D01*
X100000Y26162801D02*
X100000Y37016996D01*
X3479700Y22783101D02*
X100000Y26162801D01*
X7134600Y19101400D02*
X4432823Y19101400D01*
X1640810Y38557806D02*
X1921600Y38557806D01*
X3479700Y20054522D02*
X3479700Y22783101D01*
X3344000Y43993400D02*
X1842800Y43993400D01*
X100000Y37016996D02*
X1640810Y38557806D01*
X12178863Y14466461D02*
X9745214Y14466461D01*
X1842800Y43993400D02*
X1820000Y44016200D01*
X7882000Y18354000D02*
X7134600Y19101400D01*
X4432823Y19101400D02*
X3479700Y20054522D01*
X7882000Y16329675D02*
X7882000Y18354000D01*
%TO.N,/BRKOUT2*%
X13010970Y14396809D02*
X13010970Y14589711D01*
X499200Y21844600D02*
X499200Y18080561D01*
X1454000Y17435400D02*
X5785400Y13104000D01*
X499200Y18080561D02*
X1144361Y17435400D01*
X5785400Y13104000D02*
X11718161Y13104000D01*
X1144361Y17435400D02*
X1454000Y17435400D01*
X11718161Y13104000D02*
X13010970Y14396809D01*
%TO.N,/BRKOUT1*%
X22597200Y25038115D02*
X22597200Y27974282D01*
X23222140Y32744374D02*
X21536800Y34429715D01*
X20828383Y17780600D02*
X21682800Y17780600D01*
X23352200Y24283115D02*
X22597200Y25038115D01*
X12792800Y40437400D02*
X4766400Y40437400D01*
X2965600Y40516200D02*
X3191600Y40742200D01*
X23597839Y21176386D02*
X23597839Y22722814D01*
X21536800Y37867956D02*
X21359377Y38045379D01*
X23352200Y22968454D02*
X23352200Y24283115D01*
X17190200Y21418783D02*
X20828383Y17780600D01*
X22597200Y27974282D02*
X23222140Y28599222D01*
X21536800Y34429715D02*
X21536800Y37867956D01*
X4766400Y40437400D02*
X4715600Y40386600D01*
X24273600Y17272600D02*
X24273600Y20500624D01*
X24273600Y20500624D02*
X23597839Y21176386D01*
X23597839Y22722814D02*
X23352200Y22968454D01*
X22190800Y17272600D02*
X24273600Y17272600D01*
X1820000Y40516200D02*
X2965600Y40516200D01*
X23222140Y28599222D02*
X23222140Y32744374D01*
X21682800Y17780600D02*
X22190800Y17272600D01*
%TO.N,Net-(IC1-1PPS)*%
X22674998Y34824000D02*
X24518000Y36667002D01*
X23664000Y39421400D02*
X23816400Y39573800D01*
X23003600Y39421400D02*
X23664000Y39421400D01*
X24518000Y36667002D02*
X24518000Y38872200D01*
X24518000Y38872200D02*
X23816400Y39573800D01*
%TO.N,/P2 EN *%
X16098987Y6909400D02*
X18584000Y6909400D01*
X14988600Y5799013D02*
X16098987Y6909400D01*
%TO.N,/P3 EN *%
X22032000Y10893000D02*
X22032000Y8407000D01*
X14437600Y14712417D02*
X17375017Y11775000D01*
X18754486Y11775000D02*
X19127686Y11401800D01*
X18824715Y7576200D02*
X12596000Y7576200D01*
X19127686Y11401800D02*
X21523200Y11401800D01*
X17375017Y11775000D02*
X18754486Y11775000D01*
X19027915Y7373000D02*
X18824715Y7576200D01*
X20998000Y7373000D02*
X19027915Y7373000D01*
X22032000Y8407000D02*
X20998000Y7373000D01*
X21523200Y11401800D02*
X22032000Y10893000D01*
X12596000Y7576200D02*
X11370400Y6350600D01*
X14437600Y15139000D02*
X14437600Y14712417D01*
%TO.N,/P4 EN *%
X13748452Y14356600D02*
X14227731Y14356600D01*
X19854000Y7976200D02*
X9440000Y7976200D01*
X13616000Y15461704D02*
X13904408Y15750112D01*
X21632000Y9981499D02*
X21632000Y9222101D01*
X14227731Y14356600D02*
X17582531Y11001800D01*
X13737600Y14356600D02*
X13616000Y14478200D01*
X19904800Y7925400D02*
X19854000Y7976200D01*
X9440000Y7976200D02*
X7712800Y6249000D01*
X17582531Y11001800D02*
X20611699Y11001800D01*
X20611699Y11001800D02*
X21632000Y9981499D01*
X13616000Y14478200D02*
X13616000Y15461704D01*
X20335299Y7925400D02*
X19904800Y7925400D01*
X21632000Y9222101D02*
X20335299Y7925400D01*
%TO.N,/BATT SENSE *%
X4808798Y12251802D02*
X5833200Y11227400D01*
X2124800Y8992200D02*
X2973331Y8992200D01*
X3788521Y6232968D02*
X1972400Y8049089D01*
X1972400Y8839800D02*
X2124800Y8992200D01*
X4109518Y12251802D02*
X4808798Y12251802D01*
X2973331Y8992200D02*
X3385200Y9404069D01*
X12929122Y17120200D02*
X10202000Y17120200D01*
X9287600Y17120200D02*
X8932000Y16764600D01*
X10202000Y17120200D02*
X9287600Y17120200D01*
X3385200Y11527484D02*
X4109518Y12251802D01*
X1972400Y8049089D02*
X1972400Y8839800D01*
X3385200Y9404069D02*
X3385200Y11527484D01*
X13700394Y17891472D02*
X12929122Y17120200D01*
%TO.N,/P1 CONT *%
X22063800Y6223600D02*
X22292400Y6452200D01*
X18761800Y1956400D02*
X18761800Y4117578D01*
X18761800Y4117578D02*
X20867822Y6223600D01*
X20867822Y6223600D02*
X22063800Y6223600D01*
%TO.N,/P3 CONT *%
X10550759Y12651802D02*
X3943832Y12651802D01*
X12305200Y11501800D02*
X11700761Y11501800D01*
X11700761Y11501800D02*
X10550759Y12651802D01*
X3943832Y12651802D02*
X2724844Y11432814D01*
X14029202Y13225802D02*
X12305200Y11501800D01*
X2724844Y11432814D02*
X2724844Y9743800D01*
X14029202Y13706600D02*
X14029202Y13225802D01*
%TO.N,/P2 CONT *%
X14887229Y1677000D02*
X19006945Y5796716D01*
X12742000Y1677000D02*
X14887229Y1677000D01*
X19006945Y5796716D02*
X19006945Y6222893D01*
%TO.N,/QSPI_SS*%
X2357335Y32676065D02*
X1250800Y33782600D01*
X4413007Y32676065D02*
X2357335Y32676065D01*
%TO.N,/P4 CONT *%
X22597200Y8362914D02*
X20857886Y6623600D01*
X18364441Y12679931D02*
X18415241Y12679931D01*
X18415241Y12679931D02*
X19105772Y11989400D01*
X12600029Y661000D02*
X11660229Y1600800D01*
X17754841Y16093512D02*
X17754841Y13289531D01*
X22597200Y11278200D02*
X22597200Y8362914D01*
X17754841Y13289531D02*
X18364441Y12679931D01*
X11660229Y1600800D02*
X6061800Y1600800D01*
X15853590Y17994763D02*
X17754841Y16093512D01*
X21886000Y11989400D02*
X22597200Y11278200D01*
X20399514Y6623600D02*
X14436914Y661000D01*
X20857886Y6623600D02*
X20399514Y6623600D01*
X14436914Y661000D02*
X12600029Y661000D01*
X19105772Y11989400D02*
X21886000Y11989400D01*
%TO.N,Net-(D3-K)*%
X19752400Y13463503D02*
X19827027Y13388876D01*
X19752400Y13947500D02*
X19752400Y13463503D01*
%TO.N,/SDA*%
X19350271Y37191761D02*
X19965432Y36576600D01*
X15700000Y51421800D02*
X15700000Y47151400D01*
X23079800Y19768127D02*
X23079800Y22675169D01*
X20736800Y34098345D02*
X21492400Y33342744D01*
X17669600Y50648200D02*
X16298000Y52019800D01*
X21252500Y24964503D02*
X21003091Y24715094D01*
X16856800Y45263400D02*
X17675752Y44444448D01*
X20311200Y42113800D02*
X19350271Y41152871D01*
X19965432Y36576600D02*
X20514400Y36576600D01*
X20758400Y27251363D02*
X21252500Y26757263D01*
X16298000Y52019800D02*
X15700000Y51421800D01*
X20758400Y28121212D02*
X20758400Y27251363D01*
X20514400Y36576600D02*
X20736800Y36354200D01*
X23079800Y22675169D02*
X22952200Y22802769D01*
X23305832Y19542095D02*
X23079800Y19768127D01*
X20311200Y45111000D02*
X20311200Y42113800D01*
X21492400Y33342744D02*
X21492400Y28855212D01*
X16856800Y45994600D02*
X16856800Y45263400D01*
X21530106Y24715094D02*
X21003091Y24715094D01*
X19350271Y41152871D02*
X19350271Y37191761D01*
X17675752Y44444448D02*
X19644648Y44444448D01*
X18177600Y48565400D02*
X17669600Y49073400D01*
X15700000Y47151400D02*
X16856800Y45994600D01*
X21252500Y26757263D02*
X21252500Y24964503D01*
X22952200Y23293000D02*
X21530106Y24715094D01*
X22952200Y22802769D02*
X22952200Y23293000D01*
X19644648Y44444448D02*
X20311200Y45111000D01*
X22295890Y48565400D02*
X18177600Y48565400D01*
X23215578Y47645712D02*
X22295890Y48565400D01*
X17669600Y49073400D02*
X17669600Y50648200D01*
X20736800Y36354200D02*
X20736800Y34098345D01*
X21492400Y28855212D02*
X20758400Y28121212D01*
D29*
%TO.N,/ANT OFF*%
X12047998Y34525000D02*
X11519198Y33996200D01*
X15616800Y34525000D02*
X12047998Y34525000D01*
X16145600Y33996200D02*
X15616800Y34525000D01*
D28*
%TO.N,/QSPI_SD1*%
X4263352Y33873276D02*
X4389334Y33747294D01*
X2288124Y33873276D02*
X4263352Y33873276D01*
%TO.N,/BUZZER*%
X24666400Y27080518D02*
X24666400Y31865800D01*
X18580927Y13079931D02*
X19214258Y12446600D01*
X23762082Y26176200D02*
X24666400Y27080518D01*
X23762082Y23124257D02*
X23762082Y26176200D01*
X18560269Y13079931D02*
X18580927Y13079931D01*
X17191164Y18014336D02*
X18177600Y17027900D01*
X18177600Y13462600D02*
X18560269Y13079931D01*
X19214258Y12446600D02*
X22241600Y12446600D01*
X18177600Y17027900D02*
X18177600Y13462600D01*
X24730800Y15748600D02*
X24730800Y20609110D01*
X22074998Y39135330D02*
X22091451Y39151783D01*
X24730800Y20609110D02*
X23997839Y21342071D01*
X22241600Y12446600D02*
X24629200Y14834200D01*
X24666400Y31865800D02*
X22074998Y34457202D01*
X24629200Y15647000D02*
X24730800Y15748600D01*
X24629200Y14834200D02*
X24629200Y15647000D01*
X23997839Y21342071D02*
X23997839Y22888500D01*
X23997839Y22888500D02*
X23762082Y23124257D01*
X22074998Y34457202D02*
X22074998Y39135330D01*
%TO.N,/SX CS*%
X20241599Y33418261D02*
X20241598Y33462182D01*
X5304400Y39207800D02*
X4817200Y38720600D01*
X20692400Y32967460D02*
X20241599Y33418261D01*
X15052316Y37778370D02*
X13622886Y39207800D01*
X20692400Y29698240D02*
X20692400Y32967460D01*
X20317304Y29323144D02*
X20692400Y29698240D01*
X20241598Y33462182D02*
X19936800Y33766980D01*
X19936800Y33766980D02*
X19936800Y34817400D01*
X16975830Y37778370D02*
X15052316Y37778370D01*
X13622886Y39207800D02*
X5304400Y39207800D01*
X19936800Y34817400D02*
X16975830Y37778370D01*
%TO.N,/BUSY*%
X5033200Y33658200D02*
X7592620Y36217620D01*
X3879700Y25060208D02*
X3879700Y30660700D01*
X12901791Y19905482D02*
X7010318Y19905482D01*
X4406908Y22508892D02*
X4406908Y24533000D01*
X7592620Y36217620D02*
X8173380Y36217620D01*
X16936027Y20660232D02*
X13749993Y20660232D01*
X13231233Y20141472D02*
X13137781Y20141472D01*
X4406908Y24533000D02*
X3879700Y25060208D01*
X13749993Y20660232D02*
X13231233Y20141472D01*
X13137781Y20141472D02*
X12901791Y19905482D01*
X3879700Y30660700D02*
X5033200Y31814200D01*
X7010318Y19905482D02*
X4406908Y22508892D01*
X5033200Y31814200D02*
X5033200Y33658200D01*
%TO.N,/MISO*%
X9615155Y37378370D02*
X8486525Y38507000D01*
X20062661Y33031513D02*
X19841598Y33252576D01*
X19841598Y33296496D02*
X15759724Y37378370D01*
X20062661Y30134107D02*
X20062661Y33031513D01*
X8486525Y38507000D02*
X7306400Y38507000D01*
X19841598Y33252576D02*
X19841598Y33296496D01*
X15759724Y37378370D02*
X9615155Y37378370D01*
%TO.N,/MOSI*%
X9353639Y37074200D02*
X6178017Y37074200D01*
X19438861Y30734600D02*
X19438861Y33133544D01*
X15594035Y36978370D02*
X9449469Y36978370D01*
X9449469Y36978370D02*
X9353639Y37074200D01*
X19438861Y33133544D02*
X15594035Y36978370D01*
X6178017Y37074200D02*
X6082187Y36978370D01*
%TO.N,/SCK*%
X20223691Y28438603D02*
X20510106Y28438603D01*
X16554400Y39165000D02*
X14231372Y39165000D01*
X14231372Y39165000D02*
X13788572Y39607800D01*
X20510106Y28438603D02*
X21092400Y29020896D01*
X20336800Y33932660D02*
X20336800Y35382600D01*
X3990402Y39607800D02*
X3599401Y39216799D01*
X21092400Y33177060D02*
X20336800Y33932660D01*
X21092400Y29020896D02*
X21092400Y33177060D01*
X20336800Y35382600D02*
X16554400Y39165000D01*
X13788572Y39607800D02*
X3990402Y39607800D01*
%TO.N,/SX RST*%
X8275000Y35400000D02*
X9084400Y36209400D01*
X5900000Y30106585D02*
X5900000Y33775000D01*
X7775000Y35400000D02*
X8275000Y35400000D01*
X6138000Y21743000D02*
X6138000Y25547492D01*
X5250000Y29456585D02*
X5900000Y30106585D01*
X8400000Y21525000D02*
X6356000Y21525000D01*
X9084400Y36209400D02*
X9084400Y36424200D01*
X7650000Y35525000D02*
X7775000Y35400000D01*
X5900000Y33775000D02*
X7650000Y35525000D01*
X6138000Y25547492D02*
X5250000Y26435492D01*
X8690000Y21235000D02*
X8400000Y21525000D01*
X6356000Y21525000D02*
X6138000Y21743000D01*
X12284800Y21235000D02*
X8690000Y21235000D01*
X5250000Y26435492D02*
X5250000Y29456585D01*
%TD*%
%TA.AperFunction,Conductor*%
%TO.N,GND*%
G36*
X10959801Y34069315D02*
G01*
X11005556Y34016511D01*
X11015500Y33982646D01*
X11034032Y33853744D01*
X11070356Y33774207D01*
X11093821Y33722827D01*
X11188070Y33614057D01*
X11309145Y33536247D01*
X11309148Y33536246D01*
X11309147Y33536246D01*
X11447234Y33495701D01*
X11447236Y33495700D01*
X11447237Y33495700D01*
X11591160Y33495700D01*
X11591160Y33495701D01*
X11698319Y33527165D01*
X11729248Y33536246D01*
X11729248Y33536247D01*
X11729251Y33536247D01*
X11850326Y33614057D01*
X11944575Y33722827D01*
X11960332Y33757330D01*
X11975837Y33781154D01*
X11975326Y33781525D01*
X11978893Y33786448D01*
X11978899Y33786454D01*
X12119884Y34027589D01*
X12170713Y34075525D01*
X12226929Y34089000D01*
X15437868Y34089000D01*
X15504907Y34069315D01*
X15544912Y34027589D01*
X15581507Y33965000D01*
X15685896Y33786457D01*
X15687269Y33784795D01*
X15704462Y33757336D01*
X15720221Y33722830D01*
X15720222Y33722829D01*
X15720223Y33722827D01*
X15814472Y33614057D01*
X15935547Y33536247D01*
X15935550Y33536246D01*
X15935549Y33536246D01*
X16073636Y33495701D01*
X16073638Y33495700D01*
X16073639Y33495700D01*
X16217562Y33495700D01*
X16217562Y33495701D01*
X16324721Y33527165D01*
X16355650Y33536246D01*
X16355650Y33536247D01*
X16355653Y33536247D01*
X16476728Y33614057D01*
X16570977Y33722827D01*
X16630765Y33853743D01*
X16649298Y33982647D01*
X16678323Y34046202D01*
X16737101Y34083977D01*
X16772036Y34089000D01*
X18007072Y34089000D01*
X18074111Y34069315D01*
X18094753Y34052681D01*
X19057281Y33090153D01*
X19090766Y33028830D01*
X19093600Y33002472D01*
X19093600Y31283984D01*
X19086078Y31241454D01*
X18972495Y30930385D01*
X18972494Y30930382D01*
X18971998Y30927407D01*
X18962486Y30896306D01*
X18953695Y30877056D01*
X18933214Y30734600D01*
X18953695Y30592144D01*
X19013483Y30461229D01*
X19013484Y30461227D01*
X19063314Y30403720D01*
X19092338Y30340167D01*
X19093600Y30322519D01*
X19093600Y25421333D01*
X19073915Y25354294D01*
X19057281Y25333652D01*
X19025156Y25301528D01*
X19025150Y25301520D01*
X18985597Y25233011D01*
X18985594Y25233006D01*
X18965115Y25156576D01*
X18965115Y23329058D01*
X18957593Y23286527D01*
X18799248Y22852870D01*
X18798752Y22849895D01*
X18789240Y22818794D01*
X18780449Y22799544D01*
X18759968Y22657088D01*
X18780449Y22514632D01*
X18836041Y22392904D01*
X18840238Y22383715D01*
X18934487Y22274945D01*
X18934489Y22274944D01*
X18934491Y22274942D01*
X19036639Y22209295D01*
X19082394Y22156491D01*
X19093600Y22104980D01*
X19093600Y21713000D01*
X19073915Y21645961D01*
X19021111Y21600206D01*
X18969600Y21589000D01*
X17742377Y21589000D01*
X17675338Y21608685D01*
X17629583Y21661487D01*
X17615577Y21692155D01*
X17615577Y21692156D01*
X17521328Y21800926D01*
X17400253Y21878736D01*
X17400251Y21878737D01*
X17400249Y21878738D01*
X17400250Y21878738D01*
X17262163Y21919283D01*
X17262161Y21919283D01*
X17118239Y21919283D01*
X17118236Y21919283D01*
X16980149Y21878738D01*
X16859073Y21800927D01*
X16764823Y21692157D01*
X16764822Y21692155D01*
X16750817Y21661488D01*
X16705062Y21608684D01*
X16638023Y21589000D01*
X12694656Y21589000D01*
X12627617Y21608685D01*
X12618689Y21615369D01*
X12546927Y21661487D01*
X12494853Y21694953D01*
X12494851Y21694954D01*
X12494849Y21694955D01*
X12494850Y21694955D01*
X12356763Y21735500D01*
X12356761Y21735500D01*
X12212839Y21735500D01*
X12212837Y21735500D01*
X12112900Y21706157D01*
X12096967Y21702599D01*
X12089022Y21701368D01*
X12089009Y21701364D01*
X11801881Y21596522D01*
X11759350Y21589000D01*
X8812333Y21589000D01*
X8745294Y21608685D01*
X8724652Y21625319D01*
X8584512Y21765459D01*
X8584504Y21765465D01*
X8554889Y21782563D01*
X8554889Y21782564D01*
X8554886Y21782564D01*
X8515994Y21805019D01*
X8515991Y21805021D01*
X8477775Y21815261D01*
X8439562Y21825500D01*
X8439560Y21825500D01*
X6717600Y21825500D01*
X6650561Y21845185D01*
X6604806Y21897989D01*
X6593600Y21949500D01*
X6593600Y24587800D01*
X11372757Y24587800D01*
X11393238Y24445344D01*
X11409794Y24409093D01*
X11453027Y24314427D01*
X11547276Y24205657D01*
X11668351Y24127847D01*
X11668354Y24127846D01*
X11668353Y24127846D01*
X11806440Y24087301D01*
X11806442Y24087300D01*
X11806443Y24087300D01*
X11950366Y24087300D01*
X11950366Y24087301D01*
X12088457Y24127847D01*
X12209532Y24205657D01*
X12303781Y24314427D01*
X12363569Y24445343D01*
X12384051Y24587800D01*
X12363569Y24730257D01*
X12303781Y24861173D01*
X12261826Y24909592D01*
X14982754Y24909592D01*
X15003235Y24767136D01*
X15063023Y24636221D01*
X15063024Y24636219D01*
X15157273Y24527449D01*
X15278348Y24449639D01*
X15278351Y24449638D01*
X15278350Y24449638D01*
X15416437Y24409093D01*
X15416439Y24409092D01*
X15416440Y24409092D01*
X15560363Y24409092D01*
X15560363Y24409093D01*
X15683823Y24445343D01*
X15698451Y24449638D01*
X15698451Y24449639D01*
X15698454Y24449639D01*
X15819529Y24527449D01*
X15913778Y24636219D01*
X15973566Y24767135D01*
X15994048Y24909592D01*
X15973566Y25052049D01*
X15913778Y25182965D01*
X15819529Y25291735D01*
X15698454Y25369545D01*
X15698452Y25369546D01*
X15698450Y25369547D01*
X15698451Y25369547D01*
X15560364Y25410092D01*
X15560362Y25410092D01*
X15416440Y25410092D01*
X15416437Y25410092D01*
X15278350Y25369547D01*
X15157274Y25291736D01*
X15063024Y25182966D01*
X15063023Y25182964D01*
X15003235Y25052049D01*
X14982754Y24909592D01*
X12261826Y24909592D01*
X12209532Y24969943D01*
X12088457Y25047753D01*
X12088455Y25047754D01*
X12088453Y25047755D01*
X12088454Y25047755D01*
X11950367Y25088300D01*
X11950365Y25088300D01*
X11806443Y25088300D01*
X11806440Y25088300D01*
X11668353Y25047755D01*
X11547277Y24969944D01*
X11453027Y24861174D01*
X11453026Y24861172D01*
X11393238Y24730257D01*
X11372757Y24587800D01*
X6593600Y24587800D01*
X6593600Y26926040D01*
X6613285Y26993079D01*
X6650557Y27030353D01*
X6760828Y27101219D01*
X6855077Y27209989D01*
X6914865Y27340905D01*
X6935347Y27483362D01*
X6914865Y27625819D01*
X6855077Y27756735D01*
X6760828Y27865505D01*
X6650560Y27936370D01*
X6604806Y27989173D01*
X6593600Y28040685D01*
X6593600Y28439000D01*
X11738385Y28439000D01*
X11757202Y28235918D01*
X11813017Y28039753D01*
X11813022Y28039740D01*
X11903927Y27857179D01*
X12026837Y27694419D01*
X12177558Y27557020D01*
X12177560Y27557018D01*
X12276741Y27495608D01*
X12350963Y27449652D01*
X12541144Y27375976D01*
X12741624Y27338500D01*
X12741626Y27338500D01*
X12945574Y27338500D01*
X12945576Y27338500D01*
X13146056Y27375976D01*
X13336237Y27449652D01*
X13509641Y27557019D01*
X13660364Y27694421D01*
X13783273Y27857179D01*
X13874182Y28039750D01*
X13929997Y28235917D01*
X13948815Y28439000D01*
X13929997Y28642083D01*
X13874182Y28838250D01*
X13783273Y29020821D01*
X13660364Y29183579D01*
X13660362Y29183582D01*
X13509641Y29320981D01*
X13509639Y29320983D01*
X13336242Y29428345D01*
X13336235Y29428349D01*
X13241146Y29465186D01*
X13146056Y29502024D01*
X12945576Y29539500D01*
X12741624Y29539500D01*
X12541144Y29502024D01*
X12541141Y29502024D01*
X12541141Y29502023D01*
X12350964Y29428349D01*
X12350957Y29428345D01*
X12177560Y29320983D01*
X12177558Y29320981D01*
X12026837Y29183582D01*
X11903927Y29020822D01*
X11813022Y28838261D01*
X11813017Y28838248D01*
X11757202Y28642083D01*
X11738385Y28439001D01*
X11738385Y28439000D01*
X6593600Y28439000D01*
X6593600Y33965000D01*
X6613285Y34032039D01*
X6666089Y34077794D01*
X6717600Y34089000D01*
X10892762Y34089000D01*
X10959801Y34069315D01*
G37*
%TD.AperFunction*%
%TD*%
%TA.AperFunction,Conductor*%
%TO.N,GND*%
G36*
X2982142Y48854400D02*
G01*
X2985569Y48846127D01*
X2985561Y48845703D01*
X2945338Y47735333D01*
X2941614Y47727190D01*
X2935801Y47724257D01*
X1828810Y47516851D01*
X1820047Y47518696D01*
X1816114Y47523276D01*
X1463843Y48255346D01*
X1463345Y48264286D01*
X1469314Y48270961D01*
X1469579Y48271085D01*
X2783727Y48856815D01*
X2788490Y48857827D01*
X2973869Y48857827D01*
X2982142Y48854400D01*
G37*
%TD.AperFunction*%
%TD*%
%TA.AperFunction,Conductor*%
%TO.N,GND*%
G36*
X3002723Y51978776D02*
G01*
X3008559Y51971984D01*
X3008726Y51971426D01*
X3733527Y49324918D01*
X3732408Y49316034D01*
X3730627Y49313668D01*
X2709162Y48264168D01*
X2700936Y48260629D01*
X2692618Y48263944D01*
X2692505Y48264055D01*
X2560125Y48396435D01*
X2558927Y48397838D01*
X1749597Y49513527D01*
X1747513Y49522236D01*
X1748628Y49525678D01*
X2986176Y51971984D01*
X2987003Y51973618D01*
X2993794Y51979453D01*
X3002723Y51978776D01*
G37*
%TD.AperFunction*%
%TD*%
%TA.AperFunction,Conductor*%
%TO.N,GND*%
G36*
X21821628Y16785873D02*
G01*
X21822481Y16784921D01*
X22207363Y16305167D01*
X22209867Y16296570D01*
X22206539Y16289602D01*
X21741755Y15821514D01*
X21733494Y15818058D01*
X21725299Y15821368D01*
X21246302Y16286884D01*
X21242757Y16295107D01*
X21245173Y16302396D01*
X21615456Y16784725D01*
X21623213Y16789200D01*
X21624737Y16789300D01*
X21813355Y16789300D01*
X21821628Y16785873D01*
G37*
%TD.AperFunction*%
%TD*%
%TA.AperFunction,Conductor*%
%TO.N,GND*%
G36*
X21985819Y16714697D02*
G01*
X21992131Y16708345D01*
X21992298Y16699888D01*
X21821775Y16232880D01*
X21815719Y16226284D01*
X21810785Y16225193D01*
X21627151Y16225193D01*
X21618878Y16228620D01*
X21616161Y16232880D01*
X21445637Y16699891D01*
X21446018Y16708835D01*
X21452115Y16714697D01*
X21714458Y16824310D01*
X21723412Y16824336D01*
X21985819Y16714697D01*
G37*
%TD.AperFunction*%
%TD*%
%TA.AperFunction,Conductor*%
%TO.N,GND*%
G36*
X1900106Y36743392D02*
G01*
X1906417Y36737041D01*
X1906535Y36728452D01*
X1730062Y36262620D01*
X1723927Y36256098D01*
X1719121Y36255065D01*
X1535476Y36255065D01*
X1527203Y36258492D01*
X1524444Y36262867D01*
X1451835Y36468381D01*
X1359899Y36728604D01*
X1360374Y36737545D01*
X1366417Y36743294D01*
X1628869Y36852953D01*
X1637823Y36852979D01*
X1900106Y36743392D01*
G37*
%TD.AperFunction*%
%TD*%
%TA.AperFunction,Conductor*%
%TO.N,+3V3*%
G36*
X20443415Y15834558D02*
G01*
X20451538Y15830792D01*
X20454351Y15825406D01*
X20613931Y15107267D01*
X20612381Y15098447D01*
X20610783Y15096456D01*
X20479595Y14965268D01*
X20471322Y14961841D01*
X20466552Y14962857D01*
X20043211Y15151854D01*
X19553882Y15370310D01*
X19547726Y15376811D01*
X19547891Y15385584D01*
X19748522Y15855777D01*
X19754920Y15862039D01*
X19759764Y15862873D01*
X20443415Y15834558D01*
G37*
%TD.AperFunction*%
%TD*%
%TA.AperFunction,Conductor*%
%TO.N,+3V3*%
G36*
X20336969Y15383326D02*
G01*
X20788033Y15174064D01*
X20794096Y15167474D01*
X20793932Y15159007D01*
X20685940Y14896007D01*
X20679628Y14889655D01*
X20679561Y14889628D01*
X20416544Y14781629D01*
X20407589Y14781656D01*
X20401495Y14787510D01*
X20191594Y15237921D01*
X20191206Y15246867D01*
X20193924Y15251134D01*
X20323776Y15380986D01*
X20332048Y15384412D01*
X20336969Y15383326D01*
G37*
%TD.AperFunction*%
%TD*%
%TA.AperFunction,Conductor*%
%TO.N,Net-(D2-A)*%
G36*
X21741761Y13932438D02*
G01*
X22267983Y13483282D01*
X22272051Y13475305D01*
X22269286Y13466787D01*
X22264464Y13463416D01*
X21905909Y13330111D01*
X21770865Y13195067D01*
X21762592Y13191640D01*
X21756699Y13193233D01*
X21325438Y13444723D01*
X21320018Y13451851D01*
X21321225Y13460724D01*
X21322452Y13462447D01*
X21725295Y13931167D01*
X21733283Y13935206D01*
X21741761Y13932438D01*
G37*
%TD.AperFunction*%
%TD*%
%TA.AperFunction,Conductor*%
%TO.N,Net-(D2-A)*%
G36*
X21835246Y13835764D02*
G01*
X21837006Y13833510D01*
X21992518Y13574111D01*
X22105410Y13385804D01*
X22106725Y13376946D01*
X22101391Y13369753D01*
X22099886Y13368992D01*
X21837382Y13259312D01*
X21832832Y13258408D01*
X21549006Y13259354D01*
X21540744Y13262808D01*
X21537345Y13271093D01*
X21537510Y13273012D01*
X21553800Y13368992D01*
X21631947Y13829449D01*
X21636710Y13837032D01*
X21643482Y13839191D01*
X21826973Y13839191D01*
X21835246Y13835764D01*
G37*
%TD.AperFunction*%
%TD*%
%TA.AperFunction,Conductor*%
%TO.N,/P3-*%
G36*
X8867563Y10017774D02*
G01*
X9867958Y9603804D01*
X9874292Y9597474D01*
X9874529Y9596853D01*
X10227954Y8585577D01*
X10227448Y8576637D01*
X10220769Y8570672D01*
X10219756Y8570369D01*
X8366246Y8105449D01*
X8357387Y8106760D01*
X8352051Y8113950D01*
X8351699Y8116797D01*
X8351699Y8300122D01*
X8352170Y8303409D01*
X8851872Y10010248D01*
X8857485Y10017223D01*
X8866387Y10018188D01*
X8867563Y10017774D01*
G37*
%TD.AperFunction*%
%TD*%
%TA.AperFunction,Conductor*%
%TO.N,/P3-*%
G36*
X3108043Y8548479D02*
G01*
X3443082Y8305304D01*
X3447764Y8297671D01*
X3447909Y8295835D01*
X3447909Y8112321D01*
X3444482Y8104048D01*
X3437447Y8100687D01*
X2900741Y8043573D01*
X2892152Y8046105D01*
X2887869Y8053969D01*
X2887803Y8055154D01*
X2886863Y8337316D01*
X2890261Y8345599D01*
X3092917Y8547304D01*
X3101198Y8550710D01*
X3108043Y8548479D01*
G37*
%TD.AperFunction*%
%TD*%
%TA.AperFunction,Conductor*%
%TO.N,/P3-*%
G36*
X14892249Y12195508D02*
G01*
X15201991Y12068164D01*
X15208340Y12061849D01*
X15208363Y12061792D01*
X15335706Y11752051D01*
X15335683Y11743096D01*
X15330373Y11737269D01*
X14824534Y11468619D01*
X14815620Y11467765D01*
X14810773Y11470679D01*
X14610878Y11670574D01*
X14607451Y11678847D01*
X14608816Y11684331D01*
X14877468Y12190175D01*
X14884375Y12195873D01*
X14892249Y12195508D01*
G37*
%TD.AperFunction*%
%TD*%
%TA.AperFunction,Conductor*%
%TO.N,/P3-*%
G36*
X11364978Y11196314D02*
G01*
X11370677Y11189407D01*
X11371190Y11185981D01*
X11371190Y10903416D01*
X11370752Y10900245D01*
X10894877Y9209903D01*
X10889337Y9202868D01*
X10880444Y9201812D01*
X10879305Y9202197D01*
X9875652Y9599878D01*
X9869223Y9606111D01*
X9868989Y9606695D01*
X9496117Y10614598D01*
X9496460Y10623547D01*
X9503030Y10629631D01*
X9503654Y10629842D01*
X11356065Y11197168D01*
X11364978Y11196314D01*
G37*
%TD.AperFunction*%
%TD*%
%TA.AperFunction,Conductor*%
%TO.N,/RUN*%
G36*
X23623170Y12505035D02*
G01*
X24119255Y12241728D01*
X24124956Y12234823D01*
X24124105Y12225909D01*
X24123221Y12224497D01*
X23773665Y11745454D01*
X23766020Y11740791D01*
X23757317Y11742900D01*
X23755933Y11744086D01*
X23271909Y12229079D01*
X23268490Y12237356D01*
X23270034Y12243153D01*
X23417230Y12500508D01*
X23424312Y12505988D01*
X23427386Y12506399D01*
X23617686Y12506399D01*
X23623170Y12505035D01*
G37*
%TD.AperFunction*%
%TD*%
%TA.AperFunction,Conductor*%
%TO.N,/RUN*%
G36*
X23787174Y12395996D02*
G01*
X23793497Y12389657D01*
X23793574Y12380919D01*
X23644527Y12001056D01*
X23641908Y11997057D01*
X23513847Y11868996D01*
X23505574Y11865569D01*
X23497301Y11868996D01*
X23495046Y11872164D01*
X23248826Y12380465D01*
X23248304Y12389405D01*
X23254255Y12396096D01*
X23254828Y12396355D01*
X23515394Y12505228D01*
X23524347Y12505254D01*
X23787174Y12395996D01*
G37*
%TD.AperFunction*%
%TD*%
%TA.AperFunction,Conductor*%
%TO.N,/BOOTSEL*%
G36*
X5974954Y35926709D02*
G01*
X5976246Y35925599D01*
X6176317Y35726467D01*
X6179763Y35718202D01*
X6179763Y35718135D01*
X6178814Y35433259D01*
X6175360Y35424997D01*
X6168628Y35421696D01*
X5701354Y35360725D01*
X5692707Y35363053D01*
X5688238Y35370813D01*
X5688140Y35372327D01*
X5688140Y35555141D01*
X5690436Y35562102D01*
X5958589Y35924269D01*
X5966266Y35928878D01*
X5974954Y35926709D01*
G37*
%TD.AperFunction*%
%TD*%
%TA.AperFunction,Conductor*%
%TO.N,/SCL*%
G36*
X16713864Y47888525D02*
G01*
X17164671Y47678877D01*
X17170726Y47672282D01*
X17170559Y47663825D01*
X17062563Y47400816D01*
X17056251Y47394464D01*
X17056184Y47394437D01*
X16793175Y47286441D01*
X16784220Y47286468D01*
X16778123Y47292329D01*
X16568475Y47743135D01*
X16568095Y47752080D01*
X16570810Y47756338D01*
X16700661Y47886189D01*
X16708933Y47889615D01*
X16713864Y47888525D01*
G37*
%TD.AperFunction*%
%TD*%
%TA.AperFunction,Conductor*%
%TO.N,/SCL*%
G36*
X22052590Y26438781D02*
G01*
X22055307Y26434521D01*
X22225830Y25967514D01*
X22225449Y25958567D01*
X22219351Y25952705D01*
X21957011Y25843093D01*
X21948056Y25843066D01*
X21947989Y25843093D01*
X21685648Y25952705D01*
X21679336Y25959057D01*
X21679169Y25967511D01*
X21849693Y26434522D01*
X21855749Y26441117D01*
X21860683Y26442208D01*
X22044317Y26442208D01*
X22052590Y26438781D01*
G37*
%TD.AperFunction*%
%TD*%
%TA.AperFunction,Conductor*%
%TO.N,/SCL*%
G36*
X21691849Y45864104D02*
G01*
X21698161Y45857752D01*
X21698328Y45849295D01*
X21527805Y45382287D01*
X21521749Y45375691D01*
X21516815Y45374600D01*
X21333181Y45374600D01*
X21324908Y45378027D01*
X21322191Y45382287D01*
X21151667Y45849298D01*
X21152048Y45858242D01*
X21158145Y45864104D01*
X21420488Y45973717D01*
X21429442Y45973743D01*
X21691849Y45864104D01*
G37*
%TD.AperFunction*%
%TD*%
%TA.AperFunction,Conductor*%
%TO.N,/SCL*%
G36*
X22420719Y20324768D02*
G01*
X22550567Y20194920D01*
X22553994Y20186647D01*
X22552903Y20181713D01*
X22343257Y19730910D01*
X22336661Y19724854D01*
X22328204Y19725021D01*
X22065195Y19833017D01*
X22058843Y19839329D01*
X22058816Y19839396D01*
X21950820Y20102405D01*
X21950847Y20111360D01*
X21956706Y20117456D01*
X22407514Y20327105D01*
X22416459Y20327485D01*
X22420719Y20324768D01*
G37*
%TD.AperFunction*%
%TD*%
%TA.AperFunction,Conductor*%
%TO.N,/SCL*%
G36*
X16616851Y49877304D02*
G01*
X16623163Y49870952D01*
X16623330Y49862495D01*
X16452807Y49395487D01*
X16446751Y49388891D01*
X16441817Y49387800D01*
X16258183Y49387800D01*
X16249910Y49391227D01*
X16247193Y49395487D01*
X16076669Y49862498D01*
X16077050Y49871442D01*
X16083147Y49877304D01*
X16345490Y49986917D01*
X16354444Y49986943D01*
X16616851Y49877304D01*
G37*
%TD.AperFunction*%
%TD*%
%TA.AperFunction,Conductor*%
%TO.N,/SCL*%
G36*
X21078862Y46466125D02*
G01*
X21529669Y46256477D01*
X21535724Y46249882D01*
X21535557Y46241425D01*
X21427561Y45978416D01*
X21421249Y45972064D01*
X21421182Y45972037D01*
X21158173Y45864041D01*
X21149218Y45864068D01*
X21143121Y45869929D01*
X20933473Y46320735D01*
X20933093Y46329680D01*
X20935808Y46333938D01*
X21065659Y46463789D01*
X21073931Y46467215D01*
X21078862Y46466125D01*
G37*
%TD.AperFunction*%
%TD*%
%TA.AperFunction,Conductor*%
%TO.N,/SCL*%
G36*
X17652313Y47499807D02*
G01*
X17658909Y47493751D01*
X17660000Y47488817D01*
X17660000Y47305184D01*
X17656573Y47296911D01*
X17652313Y47294194D01*
X17235134Y47141866D01*
X17234418Y47141630D01*
X17211246Y47134825D01*
X17211242Y47134824D01*
X17206270Y47131629D01*
X17203960Y47130483D01*
X17185304Y47123671D01*
X17176357Y47124052D01*
X17170496Y47130149D01*
X17060883Y47392491D01*
X17060857Y47401444D01*
X17060862Y47401458D01*
X17170496Y47663853D01*
X17176848Y47670164D01*
X17185302Y47670331D01*
X17652313Y47499807D01*
G37*
%TD.AperFunction*%
%TD*%
%TA.AperFunction,Conductor*%
%TO.N,/SCL*%
G36*
X20005480Y38028942D02*
G01*
X20008364Y38026830D01*
X20136635Y37898559D01*
X20139372Y37894244D01*
X20273665Y37520670D01*
X20273239Y37511725D01*
X20267146Y37505908D01*
X20004066Y37396544D01*
X19995111Y37396533D01*
X19995081Y37396546D01*
X19931580Y37423078D01*
X19734836Y37505284D01*
X19728524Y37511636D01*
X19728551Y37520591D01*
X19728953Y37521450D01*
X19989707Y38023948D01*
X19996558Y38029711D01*
X20005480Y38028942D01*
G37*
%TD.AperFunction*%
%TD*%
%TA.AperFunction,Conductor*%
%TO.N,/SCL*%
G36*
X20296435Y25800562D02*
G01*
X20302297Y25794464D01*
X20411909Y25532123D01*
X20411936Y25523168D01*
X20411909Y25523101D01*
X20302297Y25260761D01*
X20295945Y25254449D01*
X20287488Y25254283D01*
X20153741Y25303119D01*
X19820481Y25424806D01*
X19813885Y25430862D01*
X19812794Y25435796D01*
X19812794Y25619429D01*
X19816221Y25627702D01*
X19820481Y25630419D01*
X20287491Y25800943D01*
X20296435Y25800562D01*
G37*
%TD.AperFunction*%
%TD*%
%TA.AperFunction,Conductor*%
%TO.N,/SCL*%
G36*
X19365705Y23253661D02*
G01*
X19368422Y23249401D01*
X19538945Y22782394D01*
X19538564Y22773447D01*
X19532466Y22767585D01*
X19270126Y22657973D01*
X19261171Y22657946D01*
X19261104Y22657973D01*
X18998763Y22767585D01*
X18992451Y22773937D01*
X18992284Y22782391D01*
X19162808Y23249402D01*
X19168864Y23255997D01*
X19173798Y23257088D01*
X19357432Y23257088D01*
X19365705Y23253661D01*
G37*
%TD.AperFunction*%
%TD*%
%TA.AperFunction,Conductor*%
%TO.N,/SCL*%
G36*
X21893378Y46374730D02*
G01*
X21898480Y46367371D01*
X21898746Y46364891D01*
X21898746Y46182711D01*
X21897012Y46176581D01*
X21707381Y45868282D01*
X21700127Y45863031D01*
X21692951Y45863597D01*
X21534220Y45929109D01*
X21428503Y45972741D01*
X21422165Y45979063D01*
X21315497Y46238847D01*
X21315524Y46247801D01*
X21321876Y46254113D01*
X21323835Y46254723D01*
X21884566Y46376325D01*
X21893378Y46374730D01*
G37*
%TD.AperFunction*%
%TD*%
%TA.AperFunction,Conductor*%
%TO.N,/SCL*%
G36*
X20416193Y25525197D02*
G01*
X20416240Y25525150D01*
X20616566Y25323879D01*
X20619973Y25315597D01*
X20616527Y25307332D01*
X20616421Y25307228D01*
X20313004Y25012811D01*
X20304856Y25009508D01*
X20121373Y25009508D01*
X20113100Y25012935D01*
X20109673Y25021208D01*
X20109673Y25021280D01*
X20111538Y25323879D01*
X20112722Y25516025D01*
X20116200Y25524275D01*
X20124382Y25527651D01*
X20407908Y25528596D01*
X20416193Y25525197D01*
G37*
%TD.AperFunction*%
%TD*%
%TA.AperFunction,Conductor*%
%TO.N,/SCL*%
G36*
X20592584Y37498186D02*
G01*
X20599180Y37492130D01*
X20600271Y37487196D01*
X20600271Y37303563D01*
X20596844Y37295290D01*
X20592584Y37292573D01*
X20125576Y37122049D01*
X20116629Y37122430D01*
X20110767Y37128528D01*
X20001154Y37390870D01*
X20001128Y37399823D01*
X20001133Y37399837D01*
X20110767Y37662232D01*
X20117119Y37668543D01*
X20125573Y37668710D01*
X20592584Y37498186D01*
G37*
%TD.AperFunction*%
%TD*%
%TA.AperFunction,Conductor*%
%TO.N,/SCL*%
G36*
X24126528Y46112308D02*
G01*
X24612537Y45722234D01*
X24616844Y45714383D01*
X24614339Y45705786D01*
X24613511Y45704860D01*
X24379348Y45469354D01*
X24371084Y45465903D01*
X24371027Y45465903D01*
X24035824Y45466579D01*
X24027558Y45470023D01*
X24024200Y45477178D01*
X24002686Y45704860D01*
X23977446Y45971971D01*
X23980079Y45980527D01*
X23980810Y45981331D01*
X24110935Y46111456D01*
X24119207Y46114882D01*
X24126528Y46112308D01*
G37*
%TD.AperFunction*%
%TD*%
%TA.AperFunction,Conductor*%
%TO.N,/BRKOUT4*%
G36*
X1812075Y45767468D02*
G01*
X1820228Y45763764D01*
X1822687Y45759742D01*
X2086342Y45028100D01*
X2085923Y45019155D01*
X2079302Y45013126D01*
X2078433Y45012851D01*
X1911890Y44967118D01*
X1908792Y44966700D01*
X1131148Y44966700D01*
X1061364Y44960359D01*
X1061360Y44960359D01*
X1061360Y44960358D01*
X1061357Y44960357D01*
X900778Y44910320D01*
X756829Y44823300D01*
X637898Y44704369D01*
X577187Y44603940D01*
X570272Y44598711D01*
X496522Y44578459D01*
X493424Y44578041D01*
X311119Y44578041D01*
X302846Y44581468D01*
X299419Y44589741D01*
X299995Y44593367D01*
X301737Y44598711D01*
X692274Y45796869D01*
X698095Y45803671D01*
X703791Y45804934D01*
X1812075Y45767468D01*
G37*
%TD.AperFunction*%
%TD*%
%TA.AperFunction,Conductor*%
%TO.N,/BRKOUT4*%
G36*
X1487034Y32906940D02*
G01*
X1493132Y32901078D01*
X1702778Y32450275D01*
X1703159Y32441328D01*
X1700442Y32437068D01*
X1570594Y32307220D01*
X1562321Y32303793D01*
X1557387Y32304884D01*
X1263991Y32441328D01*
X1106583Y32514531D01*
X1100528Y32521126D01*
X1100694Y32529582D01*
X1208691Y32792593D01*
X1215001Y32798943D01*
X1478080Y32906967D01*
X1487034Y32906940D01*
G37*
%TD.AperFunction*%
%TD*%
%TA.AperFunction,Conductor*%
%TO.N,/BRKOUT4*%
G36*
X11528841Y15365631D02*
G01*
X11534703Y15359533D01*
X11644315Y15097192D01*
X11644342Y15088237D01*
X11644315Y15088170D01*
X11534703Y14825830D01*
X11528351Y14819518D01*
X11519894Y14819352D01*
X11386147Y14868188D01*
X11052887Y14989875D01*
X11046291Y14995931D01*
X11045200Y15000865D01*
X11045200Y15184498D01*
X11048627Y15192771D01*
X11052887Y15195488D01*
X11519897Y15366012D01*
X11528841Y15365631D01*
G37*
%TD.AperFunction*%
%TD*%
%TA.AperFunction,Conductor*%
%TO.N,/BRKOUT4*%
G36*
X495949Y39448551D02*
G01*
X498200Y39445391D01*
X720153Y38988542D01*
X720686Y38979603D01*
X714742Y38972905D01*
X714140Y38972633D01*
X452911Y38863485D01*
X443956Y38863458D01*
X443889Y38863485D01*
X180609Y38973489D01*
X174297Y38979841D01*
X173799Y38987234D01*
X292719Y39443231D01*
X298122Y39450371D01*
X304040Y39451978D01*
X487676Y39451978D01*
X495949Y39448551D01*
G37*
%TD.AperFunction*%
%TD*%
%TA.AperFunction,Conductor*%
%TO.N,/BRKOUT3*%
G36*
X2807397Y44615697D02*
G01*
X3340461Y44096845D01*
X3343999Y44088619D01*
X3344000Y44088461D01*
X3344000Y43898653D01*
X3340573Y43890380D01*
X3340075Y43889910D01*
X2807367Y43416128D01*
X2798908Y43413191D01*
X2793448Y43414914D01*
X2023666Y43889910D01*
X1835135Y44006244D01*
X1829895Y44013504D01*
X1831323Y44022344D01*
X1835136Y44026157D01*
X2793096Y44617270D01*
X2801934Y44618697D01*
X2807397Y44615697D01*
G37*
%TD.AperFunction*%
%TD*%
%TA.AperFunction,Conductor*%
%TO.N,/BRKOUT3*%
G36*
X3227641Y44266350D02*
G01*
X3233503Y44260252D01*
X3343115Y43997911D01*
X3343142Y43988956D01*
X3343115Y43988889D01*
X3233503Y43726549D01*
X3227151Y43720237D01*
X3218694Y43720071D01*
X3084947Y43768907D01*
X2751687Y43890594D01*
X2745091Y43896650D01*
X2744000Y43901584D01*
X2744000Y44085217D01*
X2747427Y44093490D01*
X2751687Y44096207D01*
X3218697Y44266731D01*
X3227641Y44266350D01*
G37*
%TD.AperFunction*%
%TD*%
%TA.AperFunction,Conductor*%
%TO.N,/BRKOUT3*%
G36*
X1717762Y38761699D02*
G01*
X1918841Y38561956D01*
X1922295Y38553694D01*
X1922295Y38553627D01*
X1921627Y38269509D01*
X1918181Y38261244D01*
X1909899Y38257837D01*
X1909897Y38257837D01*
X1488194Y38258929D01*
X1479951Y38262356D01*
X1350195Y38392112D01*
X1346768Y38400385D01*
X1350172Y38408635D01*
X1701223Y38761648D01*
X1709485Y38765097D01*
X1717762Y38761699D01*
G37*
%TD.AperFunction*%
%TD*%
%TA.AperFunction,Conductor*%
%TO.N,/BRKOUT3*%
G36*
X12062504Y14739411D02*
G01*
X12068366Y14733313D01*
X12177978Y14470972D01*
X12178005Y14462017D01*
X12177978Y14461950D01*
X12068366Y14199610D01*
X12062014Y14193298D01*
X12053557Y14193132D01*
X11919810Y14241968D01*
X11586550Y14363655D01*
X11579954Y14369711D01*
X11578863Y14374645D01*
X11578863Y14558278D01*
X11582290Y14566551D01*
X11586550Y14569268D01*
X11647358Y14591471D01*
X11651371Y14592181D01*
X11717161Y14592181D01*
X11855253Y14632728D01*
X11976328Y14710538D01*
X11976329Y14710539D01*
X11976800Y14710947D01*
X11980448Y14713096D01*
X12053560Y14739792D01*
X12062504Y14739411D01*
G37*
%TD.AperFunction*%
%TD*%
%TA.AperFunction,Conductor*%
%TO.N,/BRKOUT2*%
G36*
X766051Y21734104D02*
G01*
X772363Y21727752D01*
X772530Y21719295D01*
X602007Y21252287D01*
X595951Y21245691D01*
X591017Y21244600D01*
X407383Y21244600D01*
X399110Y21248027D01*
X396393Y21252287D01*
X225869Y21719298D01*
X226250Y21728242D01*
X232347Y21734104D01*
X494690Y21843717D01*
X503644Y21843743D01*
X766051Y21734104D01*
G37*
%TD.AperFunction*%
%TD*%
%TA.AperFunction,Conductor*%
%TO.N,/BRKOUT2*%
G36*
X13015072Y14587000D02*
G01*
X13015119Y14586953D01*
X13213902Y14386840D01*
X13217301Y14378555D01*
X13213847Y14370293D01*
X13212893Y14369444D01*
X12788393Y14031153D01*
X12779787Y14028677D01*
X12772828Y14032030D01*
X12643075Y14161783D01*
X12639648Y14170056D01*
X12639813Y14172014D01*
X12709315Y14580002D01*
X12714083Y14587580D01*
X12720819Y14589735D01*
X13006792Y14590407D01*
X13015072Y14587000D01*
G37*
%TD.AperFunction*%
%TD*%
%TA.AperFunction,Conductor*%
%TO.N,/BRKOUT1*%
G36*
X12676441Y40710350D02*
G01*
X12682303Y40704252D01*
X12791915Y40441911D01*
X12791942Y40432956D01*
X12791915Y40432889D01*
X12682303Y40170549D01*
X12675951Y40164237D01*
X12667494Y40164071D01*
X12533747Y40212907D01*
X12200487Y40334594D01*
X12193891Y40340650D01*
X12192800Y40345584D01*
X12192800Y40529217D01*
X12196227Y40537490D01*
X12200487Y40540207D01*
X12667497Y40710731D01*
X12676441Y40710350D01*
G37*
%TD.AperFunction*%
%TD*%
%TA.AperFunction,Conductor*%
%TO.N,/BRKOUT1*%
G36*
X5296803Y40539712D02*
G01*
X5303917Y40534275D01*
X5305495Y40528406D01*
X5305495Y40344764D01*
X5302068Y40336491D01*
X5298857Y40334215D01*
X4841513Y40114767D01*
X4832571Y40114278D01*
X4825902Y40120254D01*
X4825655Y40120805D01*
X4802813Y40175474D01*
X4716483Y40382091D01*
X4716457Y40391044D01*
X4716462Y40391058D01*
X4826469Y40654346D01*
X4832820Y40660656D01*
X4840270Y40661140D01*
X5296803Y40539712D01*
G37*
%TD.AperFunction*%
%TD*%
%TA.AperFunction,Conductor*%
%TO.N,/BRKOUT1*%
G36*
X2987762Y40946040D02*
G01*
X2988328Y40945513D01*
X3189137Y40745647D01*
X3192583Y40737382D01*
X3192583Y40737315D01*
X3191636Y40453278D01*
X3188182Y40445016D01*
X3180536Y40441632D01*
X2697512Y40416832D01*
X2689074Y40419831D01*
X2685227Y40427917D01*
X2685212Y40428517D01*
X2685212Y40611822D01*
X2688086Y40619503D01*
X2797862Y40745647D01*
X2971255Y40944896D01*
X2979271Y40948886D01*
X2987762Y40946040D01*
G37*
%TD.AperFunction*%
%TD*%
%TA.AperFunction,Conductor*%
%TO.N,/BRKOUT1*%
G36*
X17465979Y21529316D02*
G01*
X17472077Y21523454D01*
X17681723Y21072651D01*
X17682104Y21063704D01*
X17679387Y21059444D01*
X17549539Y20929596D01*
X17541266Y20926169D01*
X17536332Y20927260D01*
X17211200Y21078464D01*
X17209809Y21079230D01*
X17146080Y21120185D01*
X17146081Y21120185D01*
X17087605Y21137355D01*
X17080632Y21142974D01*
X17079675Y21151877D01*
X17080078Y21153025D01*
X17187636Y21414968D01*
X17193946Y21421319D01*
X17457025Y21529343D01*
X17465979Y21529316D01*
G37*
%TD.AperFunction*%
%TD*%
%TA.AperFunction,Conductor*%
%TO.N,/BRKOUT1*%
G36*
X21647214Y38045420D02*
G01*
X21655475Y38041966D01*
X21658874Y38033681D01*
X21658864Y38033227D01*
X21637273Y37521262D01*
X21633500Y37513141D01*
X21625583Y37510055D01*
X21442026Y37510055D01*
X21433753Y37513482D01*
X21433312Y37513948D01*
X21154618Y37825018D01*
X21151650Y37833466D01*
X21155037Y37841077D01*
X21355932Y38042918D01*
X21364194Y38046363D01*
X21647214Y38045420D01*
G37*
%TD.AperFunction*%
%TD*%
%TA.AperFunction,Conductor*%
%TO.N,/BRKOUT1*%
G36*
X2807400Y41115742D02*
G01*
X3120830Y40812967D01*
X3120974Y40812825D01*
X3255900Y40677899D01*
X3259327Y40669626D01*
X3257705Y40663682D01*
X2912681Y40078718D01*
X2905526Y40073333D01*
X2898170Y40073834D01*
X1840554Y40506790D01*
X1834196Y40513096D01*
X1834159Y40522051D01*
X1838833Y40527569D01*
X2793123Y41117280D01*
X2801962Y41118713D01*
X2807400Y41115742D01*
G37*
%TD.AperFunction*%
%TD*%
%TA.AperFunction,Conductor*%
%TO.N,Net-(IC1-1PPS)*%
G36*
X23034337Y35313188D02*
G01*
X23164185Y35183340D01*
X23167612Y35175067D01*
X23166521Y35170133D01*
X22956875Y34719330D01*
X22950279Y34713274D01*
X22941822Y34713441D01*
X22678813Y34821437D01*
X22672461Y34827749D01*
X22672434Y34827816D01*
X22564438Y35090825D01*
X22564465Y35099780D01*
X22570324Y35105876D01*
X23021132Y35315525D01*
X23030077Y35315905D01*
X23034337Y35313188D01*
G37*
%TD.AperFunction*%
%TD*%
%TA.AperFunction,Conductor*%
%TO.N,Net-(IC1-1PPS)*%
G36*
X23325425Y39981119D02*
G01*
X23326378Y39980407D01*
X23807491Y39582005D01*
X23811678Y39574089D01*
X23809040Y39565532D01*
X23808294Y39564713D01*
X23323766Y39081153D01*
X23315489Y39077734D01*
X23308239Y39080260D01*
X23008038Y39317888D01*
X23003678Y39325710D01*
X23003600Y39327062D01*
X23003600Y39517845D01*
X23005577Y39524354D01*
X23309194Y39977906D01*
X23316643Y39982873D01*
X23325425Y39981119D01*
G37*
%TD.AperFunction*%
%TD*%
%TA.AperFunction,Conductor*%
%TO.N,Net-(IC1-1PPS)*%
G36*
X23595913Y39524207D02*
G01*
X23602509Y39518151D01*
X23603600Y39513217D01*
X23603600Y39329584D01*
X23600173Y39321311D01*
X23595913Y39318594D01*
X23128905Y39148070D01*
X23119958Y39148451D01*
X23114096Y39154549D01*
X23004483Y39416891D01*
X23004457Y39425844D01*
X23004462Y39425858D01*
X23114096Y39688253D01*
X23120448Y39694564D01*
X23128902Y39694731D01*
X23595913Y39524207D01*
G37*
%TD.AperFunction*%
%TD*%
%TA.AperFunction,Conductor*%
%TO.N,Net-(IC1-1PPS)*%
G36*
X24313617Y39739506D02*
G01*
X24319516Y39732769D01*
X24319705Y39732153D01*
X24503845Y39068640D01*
X24613885Y38672134D01*
X24612795Y38663246D01*
X24605740Y38657731D01*
X24602611Y38657305D01*
X24420719Y38657305D01*
X24415561Y38658503D01*
X23580581Y39068640D01*
X23574666Y39075364D01*
X23575237Y39084300D01*
X23575239Y39084304D01*
X23814256Y39570441D01*
X23820978Y39576351D01*
X24304684Y39740099D01*
X24313617Y39739506D01*
G37*
%TD.AperFunction*%
%TD*%
%TA.AperFunction,Conductor*%
%TO.N,/P2 EN *%
G36*
X18467641Y7182350D02*
G01*
X18473503Y7176252D01*
X18583115Y6913911D01*
X18583142Y6904956D01*
X18583115Y6904889D01*
X18473503Y6642549D01*
X18467151Y6636237D01*
X18458694Y6636071D01*
X18324947Y6684907D01*
X17991687Y6806594D01*
X17985091Y6812650D01*
X17984000Y6817584D01*
X17984000Y7001217D01*
X17987427Y7009490D01*
X17991687Y7012207D01*
X18458697Y7182731D01*
X18467641Y7182350D01*
G37*
%TD.AperFunction*%
%TD*%
%TA.AperFunction,Conductor*%
%TO.N,/P2 EN *%
G36*
X15347939Y6288201D02*
G01*
X15477787Y6158353D01*
X15481214Y6150080D01*
X15480123Y6145146D01*
X15270477Y5694343D01*
X15263881Y5688287D01*
X15255424Y5688454D01*
X14992415Y5796450D01*
X14986063Y5802762D01*
X14986036Y5802829D01*
X14878040Y6065838D01*
X14878067Y6074793D01*
X14883926Y6080889D01*
X15334734Y6290538D01*
X15343679Y6290918D01*
X15347939Y6288201D01*
G37*
%TD.AperFunction*%
%TD*%
%TA.AperFunction,Conductor*%
%TO.N,/P3 EN *%
G36*
X11729739Y6839788D02*
G01*
X11859587Y6709940D01*
X11863014Y6701667D01*
X11861923Y6696733D01*
X11652277Y6245930D01*
X11645681Y6239874D01*
X11637224Y6240041D01*
X11374215Y6348037D01*
X11367863Y6354349D01*
X11367836Y6354416D01*
X11259840Y6617425D01*
X11259867Y6626380D01*
X11265726Y6632476D01*
X11716534Y6842125D01*
X11725479Y6842505D01*
X11729739Y6839788D01*
G37*
%TD.AperFunction*%
%TD*%
%TA.AperFunction,Conductor*%
%TO.N,/P3 EN *%
G36*
X14628288Y15060144D02*
G01*
X14705632Y15027991D01*
X14711956Y15021651D01*
X14712542Y15014559D01*
X14631688Y14663775D01*
X14628560Y14658130D01*
X14499713Y14529284D01*
X14491440Y14525857D01*
X14483167Y14529284D01*
X14481640Y14531166D01*
X14168101Y15012429D01*
X14166457Y15021230D01*
X14171518Y15028617D01*
X14173387Y15029607D01*
X14432395Y15137829D01*
X14441348Y15137855D01*
X14628288Y15060144D01*
G37*
%TD.AperFunction*%
%TD*%
%TA.AperFunction,Conductor*%
%TO.N,/P4 EN *%
G36*
X13907807Y15747697D02*
G01*
X13907854Y15747650D01*
X14106520Y15548047D01*
X14109927Y15539765D01*
X14106481Y15531500D01*
X14104740Y15530073D01*
X13718955Y15271554D01*
X13712442Y15269574D01*
X13530049Y15269574D01*
X13521776Y15273001D01*
X13518349Y15281274D01*
X13518542Y15283391D01*
X13602651Y15740565D01*
X13607517Y15748079D01*
X13614115Y15750145D01*
X13899522Y15751096D01*
X13907807Y15747697D01*
G37*
%TD.AperFunction*%
%TD*%
%TA.AperFunction,Conductor*%
%TO.N,/P4 EN *%
G36*
X8072139Y6738188D02*
G01*
X8201987Y6608340D01*
X8205414Y6600067D01*
X8204323Y6595133D01*
X7994677Y6144330D01*
X7988081Y6138274D01*
X7979624Y6138441D01*
X7716615Y6246437D01*
X7710263Y6252749D01*
X7710236Y6252816D01*
X7602240Y6515825D01*
X7602267Y6524780D01*
X7608126Y6530876D01*
X8058934Y6740525D01*
X8067879Y6740905D01*
X8072139Y6738188D01*
G37*
%TD.AperFunction*%
%TD*%
%TA.AperFunction,Conductor*%
%TO.N,/BATT SENSE *%
G36*
X5487064Y11718925D02*
G01*
X5937871Y11509277D01*
X5943926Y11502682D01*
X5943759Y11494225D01*
X5835763Y11231216D01*
X5829451Y11224864D01*
X5829384Y11224837D01*
X5566375Y11116841D01*
X5557420Y11116868D01*
X5551323Y11122729D01*
X5341675Y11573535D01*
X5341295Y11582480D01*
X5344010Y11586738D01*
X5473861Y11716589D01*
X5482133Y11720015D01*
X5487064Y11718925D01*
G37*
%TD.AperFunction*%
%TD*%
%TA.AperFunction,Conductor*%
%TO.N,/BATT SENSE *%
G36*
X3442385Y6724493D02*
G01*
X3893192Y6514845D01*
X3899247Y6508250D01*
X3899080Y6499793D01*
X3791084Y6236784D01*
X3784772Y6230432D01*
X3784705Y6230405D01*
X3521696Y6122409D01*
X3512741Y6122436D01*
X3506644Y6128297D01*
X3296996Y6579103D01*
X3296616Y6588048D01*
X3299331Y6592306D01*
X3429182Y6722157D01*
X3437454Y6725583D01*
X3442385Y6724493D01*
G37*
%TD.AperFunction*%
%TD*%
%TA.AperFunction,Conductor*%
%TO.N,/BATT SENSE *%
G36*
X9378417Y17214632D02*
G01*
X9384167Y17207767D01*
X9384706Y17204258D01*
X9384706Y17022833D01*
X9383579Y17017822D01*
X9213924Y16659841D01*
X9207284Y16653833D01*
X9198887Y16654037D01*
X9035364Y16721527D01*
X8935505Y16762741D01*
X8929167Y16769063D01*
X8822033Y17029982D01*
X8822060Y17038935D01*
X8828412Y17045247D01*
X8829343Y17045584D01*
X9369499Y17215419D01*
X9378417Y17214632D01*
G37*
%TD.AperFunction*%
%TD*%
%TA.AperFunction,Conductor*%
%TO.N,/BATT SENSE *%
G36*
X13433568Y18002033D02*
G01*
X13597198Y17934843D01*
X13696578Y17894036D01*
X13702930Y17887724D01*
X13702957Y17887657D01*
X13810953Y17624648D01*
X13810926Y17615693D01*
X13805064Y17609595D01*
X13354261Y17399949D01*
X13345314Y17399568D01*
X13341054Y17402285D01*
X13211206Y17532133D01*
X13207779Y17540406D01*
X13208868Y17545336D01*
X13418518Y17996145D01*
X13425112Y18002199D01*
X13433568Y18002033D01*
G37*
%TD.AperFunction*%
%TD*%
%TA.AperFunction,Conductor*%
%TO.N,/P1 CONT *%
G36*
X18862112Y2652973D02*
G01*
X18864722Y2648994D01*
X19080946Y2101013D01*
X19080795Y2092060D01*
X19074569Y2085921D01*
X18766306Y1957281D01*
X18757351Y1957258D01*
X18757294Y1957281D01*
X18449030Y2085921D01*
X18442715Y2092270D01*
X18442653Y2101012D01*
X18658878Y2648994D01*
X18665102Y2655432D01*
X18669761Y2656400D01*
X18853839Y2656400D01*
X18862112Y2652973D01*
G37*
%TD.AperFunction*%
%TD*%
%TA.AperFunction,Conductor*%
%TO.N,/P1 CONT *%
G36*
X22053203Y6691429D02*
G01*
X22053329Y6691305D01*
X22289942Y6455644D01*
X22293386Y6447379D01*
X22293386Y6447322D01*
X22292434Y6114284D01*
X22288983Y6106020D01*
X22280701Y6102617D01*
X22280324Y6102624D01*
X21693583Y6123204D01*
X21685435Y6126919D01*
X21682293Y6134897D01*
X21682293Y6318878D01*
X21685570Y6326999D01*
X22036659Y6691128D01*
X22044869Y6694704D01*
X22053203Y6691429D01*
G37*
%TD.AperFunction*%
%TD*%
%TA.AperFunction,Conductor*%
%TO.N,/P3 CONT *%
G36*
X2824934Y10340373D02*
G01*
X2827651Y10336113D01*
X2998174Y9869106D01*
X2997793Y9860159D01*
X2991695Y9854297D01*
X2729355Y9744685D01*
X2720400Y9744658D01*
X2720333Y9744685D01*
X2457992Y9854297D01*
X2451680Y9860649D01*
X2451513Y9869103D01*
X2622037Y10336114D01*
X2628093Y10342709D01*
X2633027Y10343800D01*
X2816661Y10343800D01*
X2824934Y10340373D01*
G37*
%TD.AperFunction*%
%TD*%
%TA.AperFunction,Conductor*%
%TO.N,/P3 CONT *%
G36*
X14236248Y13621093D02*
G01*
X14294272Y13596848D01*
X14300584Y13590496D01*
X14300557Y13581541D01*
X14299978Y13580350D01*
X14023168Y13084321D01*
X14016144Y13078767D01*
X14007249Y13079806D01*
X14004678Y13081750D01*
X13876201Y13210227D01*
X13873337Y13214915D01*
X13755338Y13581542D01*
X13756065Y13590467D01*
X13761983Y13595930D01*
X14025408Y13705437D01*
X14034361Y13705447D01*
X14236248Y13621093D01*
G37*
%TD.AperFunction*%
%TD*%
%TA.AperFunction,Conductor*%
%TO.N,/P2 CONT *%
G36*
X13334313Y1779807D02*
G01*
X13340909Y1773751D01*
X13342000Y1768817D01*
X13342000Y1585184D01*
X13338573Y1576911D01*
X13334313Y1574194D01*
X12867305Y1403670D01*
X12858358Y1404051D01*
X12852496Y1410149D01*
X12742883Y1672491D01*
X12742857Y1681444D01*
X12742862Y1681458D01*
X12852496Y1943853D01*
X12858848Y1950164D01*
X12867302Y1950331D01*
X13334313Y1779807D01*
G37*
%TD.AperFunction*%
%TD*%
%TA.AperFunction,Conductor*%
%TO.N,/P2 CONT *%
G36*
X19271143Y6113506D02*
G01*
X19277455Y6107154D01*
X19277428Y6098199D01*
X19276432Y6096318D01*
X18962621Y5615172D01*
X18955231Y5610115D01*
X18946429Y5611764D01*
X18944548Y5613291D01*
X18815700Y5742139D01*
X18812570Y5747792D01*
X18731993Y6098460D01*
X18733480Y6107288D01*
X18738902Y6111880D01*
X19003151Y6221730D01*
X19012104Y6221740D01*
X19271143Y6113506D01*
G37*
%TD.AperFunction*%
%TD*%
%TA.AperFunction,Conductor*%
%TO.N,/QSPI_SS*%
G36*
X1526579Y33893133D02*
G01*
X1532677Y33887271D01*
X1742323Y33436468D01*
X1742704Y33427521D01*
X1739987Y33423261D01*
X1610139Y33293413D01*
X1601866Y33289986D01*
X1596932Y33291077D01*
X1303536Y33427521D01*
X1146128Y33500724D01*
X1140073Y33507319D01*
X1140239Y33515775D01*
X1248236Y33778786D01*
X1254546Y33785136D01*
X1517625Y33893160D01*
X1526579Y33893133D01*
G37*
%TD.AperFunction*%
%TD*%
%TA.AperFunction,Conductor*%
%TO.N,/QSPI_SS*%
G36*
X4296648Y32949015D02*
G01*
X4302510Y32942917D01*
X4412122Y32680576D01*
X4412149Y32671621D01*
X4412122Y32671554D01*
X4302510Y32409214D01*
X4296158Y32402902D01*
X4287701Y32402736D01*
X4153954Y32451572D01*
X3820694Y32573259D01*
X3814098Y32579315D01*
X3813007Y32584249D01*
X3813007Y32767882D01*
X3816434Y32776155D01*
X3820694Y32778872D01*
X4287704Y32949396D01*
X4296648Y32949015D01*
G37*
%TD.AperFunction*%
%TD*%
%TA.AperFunction,Conductor*%
%TO.N,/P4 CONT *%
G36*
X6654113Y1703607D02*
G01*
X6660709Y1697551D01*
X6661800Y1692617D01*
X6661800Y1508984D01*
X6658373Y1500711D01*
X6654113Y1497994D01*
X6187105Y1327470D01*
X6178158Y1327851D01*
X6172296Y1333949D01*
X6062683Y1596291D01*
X6062657Y1605244D01*
X6062662Y1605258D01*
X6172296Y1867653D01*
X6178648Y1873964D01*
X6187102Y1874131D01*
X6654113Y1703607D01*
G37*
%TD.AperFunction*%
%TD*%
%TA.AperFunction,Conductor*%
%TO.N,/P4 CONT *%
G36*
X16129369Y18105296D02*
G01*
X16135467Y18099434D01*
X16345113Y17648631D01*
X16345494Y17639684D01*
X16342777Y17635424D01*
X16212929Y17505576D01*
X16204656Y17502149D01*
X16199722Y17503240D01*
X15906326Y17639684D01*
X15748918Y17712887D01*
X15742863Y17719482D01*
X15743029Y17727938D01*
X15851026Y17990949D01*
X15857336Y17997299D01*
X16120415Y18105323D01*
X16129369Y18105296D01*
G37*
%TD.AperFunction*%
%TD*%
%TA.AperFunction,Conductor*%
%TO.N,Net-(D3-K)*%
G36*
X19760453Y13980730D02*
G01*
X20282303Y13535306D01*
X20286371Y13527329D01*
X20283606Y13518811D01*
X20276396Y13514830D01*
X19897739Y13459590D01*
X19897736Y13459588D01*
X19761864Y13323716D01*
X19753591Y13320289D01*
X19749075Y13321196D01*
X19336760Y13493708D01*
X19330451Y13500062D01*
X19330483Y13509017D01*
X19332494Y13512232D01*
X19744080Y13979564D01*
X19752118Y13983507D01*
X19760453Y13980730D01*
G37*
%TD.AperFunction*%
%TD*%
%TA.AperFunction,Conductor*%
%TO.N,Net-(D3-K)*%
G36*
X19853860Y13944073D02*
G01*
X19855761Y13941576D01*
X19969146Y13741717D01*
X20097677Y13515162D01*
X20098779Y13506276D01*
X20093274Y13499213D01*
X20092012Y13498593D01*
X19831538Y13389761D01*
X19822583Y13389734D01*
X19822516Y13389761D01*
X19558975Y13499874D01*
X19552663Y13506226D01*
X19552086Y13513304D01*
X19650305Y13938434D01*
X19655506Y13945723D01*
X19661705Y13947500D01*
X19845587Y13947500D01*
X19853860Y13944073D01*
G37*
%TD.AperFunction*%
%TD*%
%TA.AperFunction,Conductor*%
%TO.N,/SDA*%
G36*
X16573779Y52130333D02*
G01*
X16579877Y52124471D01*
X16789523Y51673668D01*
X16789904Y51664721D01*
X16787187Y51660461D01*
X16657339Y51530613D01*
X16649066Y51527186D01*
X16644132Y51528277D01*
X16350736Y51664721D01*
X16193328Y51737924D01*
X16187273Y51744519D01*
X16187439Y51752975D01*
X16295436Y52015986D01*
X16301746Y52022336D01*
X16564825Y52130360D01*
X16573779Y52130333D01*
G37*
%TD.AperFunction*%
%TD*%
%TA.AperFunction,Conductor*%
%TO.N,/SDA*%
G36*
X21347851Y25208359D02*
G01*
X21351278Y25200086D01*
X21351221Y25198928D01*
X21304136Y24725601D01*
X21299907Y24717708D01*
X21292532Y24715059D01*
X21007976Y24714111D01*
X20999691Y24717510D01*
X20999644Y24717557D01*
X20800232Y24917909D01*
X20796825Y24926191D01*
X20800271Y24934456D01*
X20801283Y24935353D01*
X21149316Y25209281D01*
X21156552Y25211786D01*
X21339578Y25211786D01*
X21347851Y25208359D01*
G37*
%TD.AperFunction*%
%TD*%
%TA.AperFunction,Conductor*%
%TO.N,/SDA*%
G36*
X17132579Y45373933D02*
G01*
X17138677Y45368071D01*
X17348323Y44917268D01*
X17348704Y44908321D01*
X17345987Y44904061D01*
X17216139Y44774213D01*
X17207866Y44770786D01*
X17202932Y44771877D01*
X16909536Y44908321D01*
X16752128Y44981524D01*
X16746073Y44988119D01*
X16746239Y44996575D01*
X16854236Y45259586D01*
X16860546Y45265936D01*
X17123625Y45373960D01*
X17132579Y45373933D01*
G37*
%TD.AperFunction*%
%TD*%
%TA.AperFunction,Conductor*%
%TO.N,/SDA*%
G36*
X20404085Y36842960D02*
G01*
X20404127Y36842862D01*
X20513235Y36580396D01*
X20513246Y36571441D01*
X20513227Y36571394D01*
X20404223Y36310513D01*
X20397871Y36304201D01*
X20388916Y36304228D01*
X20388640Y36304348D01*
X19874127Y36535031D01*
X19867980Y36541543D01*
X19868238Y36550494D01*
X19870638Y36553977D01*
X19998459Y36681798D01*
X20002136Y36684282D01*
X20388734Y36849134D01*
X20397688Y36849226D01*
X20404085Y36842960D01*
G37*
%TD.AperFunction*%
%TD*%
%TA.AperFunction,Conductor*%
%TO.N,/SDA*%
G36*
X16031174Y52130361D02*
G01*
X16194804Y52063171D01*
X16294184Y52022364D01*
X16300536Y52016052D01*
X16300563Y52015985D01*
X16408559Y51752976D01*
X16408532Y51744021D01*
X16402670Y51737923D01*
X15951867Y51528277D01*
X15942920Y51527896D01*
X15938660Y51530613D01*
X15808812Y51660461D01*
X15805385Y51668734D01*
X15806474Y51673664D01*
X16016124Y52124473D01*
X16022718Y52130527D01*
X16031174Y52130361D01*
G37*
%TD.AperFunction*%
%TD*%
%TA.AperFunction,Conductor*%
%TO.N,/SDA*%
G36*
X20803242Y36576638D02*
G01*
X20811503Y36573184D01*
X20814891Y36565454D01*
X20836261Y36080937D01*
X20833202Y36072520D01*
X20825088Y36068732D01*
X20824572Y36068721D01*
X20641230Y36068721D01*
X20633481Y36071655D01*
X20311568Y36356246D01*
X20307639Y36364293D01*
X20310551Y36372761D01*
X20311012Y36373254D01*
X20510955Y36574139D01*
X20519217Y36577584D01*
X20803242Y36576638D01*
G37*
%TD.AperFunction*%
%TD*%
%TA.AperFunction,Conductor*%
%TO.N,/SDA*%
G36*
X23183103Y20045596D02*
G01*
X23508525Y19762440D01*
X23512517Y19754425D01*
X23509671Y19745934D01*
X23509138Y19745360D01*
X23309278Y19544558D01*
X23301013Y19541112D01*
X23300946Y19541112D01*
X23016909Y19542059D01*
X23008647Y19545513D01*
X23005263Y19553158D01*
X22995353Y19745934D01*
X22980432Y20036170D01*
X22983430Y20044607D01*
X22991516Y20048455D01*
X22992117Y20048470D01*
X23175423Y20048470D01*
X23183103Y20045596D01*
G37*
%TD.AperFunction*%
%TD*%
%TA.AperFunction,Conductor*%
%TO.N,/SDA*%
G36*
X20578051Y45000504D02*
G01*
X20584363Y44994152D01*
X20584530Y44985695D01*
X20414007Y44518687D01*
X20407951Y44512091D01*
X20403017Y44511000D01*
X20219383Y44511000D01*
X20211110Y44514427D01*
X20208393Y44518687D01*
X20037869Y44985698D01*
X20038250Y44994642D01*
X20044347Y45000504D01*
X20306690Y45110117D01*
X20315644Y45110143D01*
X20578051Y45000504D01*
G37*
%TD.AperFunction*%
%TD*%
%TA.AperFunction,Conductor*%
%TO.N,/SDA*%
G36*
X16956890Y45859973D02*
G01*
X16959607Y45855713D01*
X17130130Y45388706D01*
X17129749Y45379759D01*
X17123651Y45373897D01*
X16861311Y45264285D01*
X16852356Y45264258D01*
X16852289Y45264285D01*
X16589948Y45373897D01*
X16583636Y45380249D01*
X16583469Y45388703D01*
X16753993Y45855714D01*
X16760049Y45862309D01*
X16764983Y45863400D01*
X16948617Y45863400D01*
X16956890Y45859973D01*
G37*
%TD.AperFunction*%
%TD*%
%TA.AperFunction,Conductor*%
%TO.N,/SDA*%
G36*
X21128442Y24987149D02*
G01*
X21129001Y24986897D01*
X21637590Y24741358D01*
X21643550Y24734675D01*
X21643039Y24725735D01*
X21640776Y24722549D01*
X21512725Y24594498D01*
X21508740Y24591885D01*
X21128580Y24442139D01*
X21119627Y24442295D01*
X21113488Y24448534D01*
X21004255Y24711299D01*
X21004244Y24720253D01*
X21113135Y24980865D01*
X21119487Y24987176D01*
X21128442Y24987149D01*
G37*
%TD.AperFunction*%
%TD*%
%TA.AperFunction,Conductor*%
%TO.N,/SDA*%
G36*
X20044374Y45221561D02*
G01*
X20208004Y45154371D01*
X20307384Y45113564D01*
X20313736Y45107252D01*
X20313763Y45107185D01*
X20421759Y44844176D01*
X20421732Y44835221D01*
X20415870Y44829123D01*
X19965067Y44619477D01*
X19956120Y44619096D01*
X19951860Y44621813D01*
X19822012Y44751661D01*
X19818585Y44759934D01*
X19819674Y44764864D01*
X20029324Y45215673D01*
X20035918Y45221727D01*
X20044374Y45221561D01*
G37*
%TD.AperFunction*%
%TD*%
%TA.AperFunction,Conductor*%
%TO.N,/SDA*%
G36*
X22798617Y48208227D02*
G01*
X23338993Y47973639D01*
X23345216Y47967202D01*
X23345154Y47958459D01*
X23218141Y47649521D01*
X23211826Y47643172D01*
X23211769Y47643149D01*
X22902831Y47516136D01*
X22893876Y47516159D01*
X22887651Y47522297D01*
X22653063Y48062673D01*
X22652912Y48071626D01*
X22655520Y48075603D01*
X22785686Y48205769D01*
X22793958Y48209195D01*
X22798617Y48208227D01*
G37*
%TD.AperFunction*%
%TD*%
%TA.AperFunction,Conductor*%
%TO.N,/ANT OFF*%
G36*
X11843779Y34520147D02*
G01*
X12043144Y34320782D01*
X12046571Y34312509D01*
X12044971Y34306604D01*
X11801496Y33890177D01*
X11794362Y33884764D01*
X11786952Y33885259D01*
X11523013Y33993637D01*
X11516661Y33999949D01*
X11516634Y34000016D01*
X11408256Y34263955D01*
X11408283Y34272910D01*
X11413172Y34278498D01*
X11829604Y34521975D01*
X11838472Y34523192D01*
X11843779Y34520147D01*
G37*
%TD.AperFunction*%
%TD*%
%TA.AperFunction,Conductor*%
%TO.N,/ANT OFF*%
G36*
X15835192Y34521975D02*
G01*
X16251623Y34278499D01*
X16257036Y34271365D01*
X16256541Y34263955D01*
X16148163Y34000016D01*
X16141851Y33993664D01*
X16141784Y33993637D01*
X15877845Y33885259D01*
X15868890Y33885286D01*
X15863301Y33890177D01*
X15619825Y34306607D01*
X15618608Y34315475D01*
X15621651Y34320780D01*
X15821019Y34520148D01*
X15829291Y34523574D01*
X15835192Y34521975D01*
G37*
%TD.AperFunction*%
%TD*%
%TA.AperFunction,Conductor*%
%TO.N,/QSPI_SD1*%
G36*
X4384816Y34043252D02*
G01*
X4389280Y34035489D01*
X4389378Y34034021D01*
X4390326Y33749662D01*
X4389422Y33745112D01*
X4280001Y33483227D01*
X4273649Y33476915D01*
X4264694Y33476942D01*
X4262717Y33478002D01*
X3824850Y33769803D01*
X3819866Y33777242D01*
X3819638Y33779539D01*
X3819638Y33962999D01*
X3823065Y33971272D01*
X3829829Y33974601D01*
X4376171Y34045584D01*
X4384816Y34043252D01*
G37*
%TD.AperFunction*%
%TD*%
%TA.AperFunction,Conductor*%
%TO.N,/QSPI_SD1*%
G36*
X2880437Y33976083D02*
G01*
X2887033Y33970027D01*
X2888124Y33965093D01*
X2888124Y33781460D01*
X2884697Y33773187D01*
X2880437Y33770470D01*
X2413429Y33599946D01*
X2404482Y33600327D01*
X2398620Y33606425D01*
X2289007Y33868767D01*
X2288981Y33877720D01*
X2288986Y33877734D01*
X2398620Y34140129D01*
X2404972Y34146440D01*
X2413426Y34146607D01*
X2880437Y33976083D01*
G37*
%TD.AperFunction*%
%TD*%
%TA.AperFunction,Conductor*%
%TO.N,/BUZZER*%
G36*
X17466943Y18124869D02*
G01*
X17473041Y18119007D01*
X17682687Y17668204D01*
X17683068Y17659257D01*
X17680351Y17654997D01*
X17550503Y17525149D01*
X17542230Y17521722D01*
X17537296Y17522813D01*
X17243900Y17659257D01*
X17086492Y17732460D01*
X17080437Y17739055D01*
X17080603Y17747511D01*
X17188600Y18010522D01*
X17194910Y18016872D01*
X17457989Y18124896D01*
X17466943Y18124869D01*
G37*
%TD.AperFunction*%
%TD*%
%TA.AperFunction,Conductor*%
%TO.N,/BUZZER*%
G36*
X22357967Y39041427D02*
G01*
X22364278Y39035076D01*
X22364312Y39026270D01*
X22177946Y38562394D01*
X22171682Y38555995D01*
X22167089Y38555056D01*
X21983429Y38555056D01*
X21975156Y38558483D01*
X21972330Y38563055D01*
X21817724Y39026672D01*
X21818358Y39035602D01*
X21824311Y39041167D01*
X22086941Y39150900D01*
X22095895Y39150926D01*
X22357967Y39041427D01*
G37*
%TD.AperFunction*%
%TD*%
%TA.AperFunction,Conductor*%
%TO.N,/SX CS*%
G36*
X5176539Y39209788D02*
G01*
X5306387Y39079940D01*
X5309814Y39071667D01*
X5308723Y39066733D01*
X5099077Y38615930D01*
X5092481Y38609874D01*
X5084024Y38610041D01*
X4821015Y38718037D01*
X4814663Y38724349D01*
X4814636Y38724416D01*
X4706640Y38987425D01*
X4706667Y38996380D01*
X4712526Y39002476D01*
X5163334Y39212125D01*
X5172279Y39212505D01*
X5176539Y39209788D01*
G37*
%TD.AperFunction*%
%TD*%
%TA.AperFunction,Conductor*%
%TO.N,/SX CS*%
G36*
X20784123Y29764348D02*
G01*
X20787550Y29756075D01*
X20786880Y29752173D01*
X20598568Y29219930D01*
X20592578Y29213273D01*
X20583636Y29212802D01*
X20583101Y29213007D01*
X20321813Y29320293D01*
X20315464Y29326602D01*
X20206899Y29589648D01*
X20206910Y29598602D01*
X20213095Y29604860D01*
X20590188Y29766826D01*
X20594805Y29767775D01*
X20775850Y29767775D01*
X20784123Y29764348D01*
G37*
%TD.AperFunction*%
%TD*%
%TA.AperFunction,Conductor*%
%TO.N,/BUSY*%
G36*
X8056831Y36490396D02*
G01*
X8063016Y36484154D01*
X8148851Y36278724D01*
X8172207Y36222827D01*
X8172234Y36213872D01*
X8172215Y36213825D01*
X8063281Y35951778D01*
X8056941Y35945454D01*
X8047986Y35945465D01*
X8047486Y35945687D01*
X7651566Y36132437D01*
X7648284Y36134746D01*
X7520852Y36262178D01*
X7517425Y36270451D01*
X7520852Y36278724D01*
X7524776Y36281313D01*
X8047877Y36490506D01*
X8056831Y36490396D01*
G37*
%TD.AperFunction*%
%TD*%
%TA.AperFunction,Conductor*%
%TO.N,/BUSY*%
G36*
X16819668Y20933182D02*
G01*
X16825530Y20927084D01*
X16935142Y20664743D01*
X16935169Y20655788D01*
X16935142Y20655721D01*
X16825530Y20393381D01*
X16819178Y20387069D01*
X16810721Y20386903D01*
X16676974Y20435739D01*
X16343714Y20557426D01*
X16337118Y20563482D01*
X16336027Y20568416D01*
X16336027Y20752049D01*
X16339454Y20760322D01*
X16343714Y20763039D01*
X16810724Y20933563D01*
X16819668Y20933182D01*
G37*
%TD.AperFunction*%
%TD*%
%TA.AperFunction,Conductor*%
%TO.N,/MISO*%
G36*
X20162751Y30730680D02*
G01*
X20165467Y30726421D01*
X20262591Y30460430D01*
X20335991Y30259413D01*
X20335610Y30250466D01*
X20329512Y30244604D01*
X20067172Y30134992D01*
X20058217Y30134965D01*
X20058150Y30134992D01*
X19795809Y30244604D01*
X19789497Y30250956D01*
X19789330Y30259410D01*
X19861399Y30456785D01*
X19863543Y30460425D01*
X19864238Y30461227D01*
X19924026Y30592143D01*
X19932428Y30650586D01*
X19933015Y30652919D01*
X19959854Y30726421D01*
X19965910Y30733016D01*
X19970844Y30734107D01*
X20154478Y30734107D01*
X20162751Y30730680D01*
G37*
%TD.AperFunction*%
%TD*%
%TA.AperFunction,Conductor*%
%TO.N,/MISO*%
G36*
X7898713Y38609807D02*
G01*
X7905309Y38603751D01*
X7906400Y38598817D01*
X7906400Y38415184D01*
X7902973Y38406911D01*
X7898713Y38404194D01*
X7431705Y38233670D01*
X7422758Y38234051D01*
X7416896Y38240149D01*
X7307283Y38502491D01*
X7307257Y38511444D01*
X7307262Y38511458D01*
X7416896Y38773853D01*
X7423248Y38780164D01*
X7431702Y38780331D01*
X7898713Y38609807D01*
G37*
%TD.AperFunction*%
%TD*%
%TA.AperFunction,Conductor*%
%TO.N,/MOSI*%
G36*
X6095895Y37275912D02*
G01*
X6653490Y37175928D01*
X6661028Y37171095D01*
X6663125Y37164412D01*
X6663125Y36980907D01*
X6659698Y36972634D01*
X6657338Y36970811D01*
X6208541Y36707970D01*
X6199670Y36706746D01*
X6192532Y36712153D01*
X6191832Y36713555D01*
X6084345Y36970811D01*
X6082097Y36976192D01*
X6081194Y36980734D01*
X6082140Y37264436D01*
X6085594Y37272696D01*
X6093879Y37276095D01*
X6095895Y37275912D01*
G37*
%TD.AperFunction*%
%TD*%
%TA.AperFunction,Conductor*%
%TO.N,/MOSI*%
G36*
X19538951Y31331173D02*
G01*
X19541668Y31326913D01*
X19712191Y30859906D01*
X19711810Y30850959D01*
X19705712Y30845097D01*
X19443372Y30735485D01*
X19434417Y30735458D01*
X19434350Y30735485D01*
X19172009Y30845097D01*
X19165697Y30851449D01*
X19165530Y30859903D01*
X19336054Y31326914D01*
X19342110Y31333509D01*
X19347044Y31334600D01*
X19530678Y31334600D01*
X19538951Y31331173D01*
G37*
%TD.AperFunction*%
%TD*%
%TA.AperFunction,Conductor*%
%TO.N,/SCK*%
G36*
X20658104Y28732840D02*
G01*
X20666220Y28729414D01*
X20795652Y28599982D01*
X20799079Y28591709D01*
X20795652Y28583436D01*
X20731351Y28519135D01*
X20444069Y28234638D01*
X20435779Y28231251D01*
X20427590Y28234650D01*
X20226449Y28434454D01*
X20222995Y28442716D01*
X20222995Y28442783D01*
X20223345Y28591355D01*
X20223663Y28726777D01*
X20227109Y28735041D01*
X20235390Y28738448D01*
X20658104Y28732840D01*
G37*
%TD.AperFunction*%
%TD*%
%TA.AperFunction,Conductor*%
%TO.N,/SCK*%
G36*
X4030476Y39701431D02*
G01*
X4036656Y39694951D01*
X4037444Y39690730D01*
X4037444Y39510034D01*
X4036620Y39505722D01*
X3880937Y39113024D01*
X3874703Y39106596D01*
X3865749Y39106460D01*
X3865597Y39106521D01*
X3740331Y39158221D01*
X3602906Y39214940D01*
X3596568Y39221262D01*
X3489132Y39482916D01*
X3489159Y39491871D01*
X3495511Y39498183D01*
X3495659Y39498243D01*
X4021523Y39701642D01*
X4030476Y39701431D01*
G37*
%TD.AperFunction*%
%TD*%
%TA.AperFunction,Conductor*%
%TO.N,/SX RST*%
G36*
X9088502Y36421489D02*
G01*
X9088549Y36421442D01*
X9287566Y36221094D01*
X9290965Y36212809D01*
X9287511Y36204547D01*
X9286789Y36203888D01*
X8880128Y35862391D01*
X8871589Y35859695D01*
X8864331Y35863078D01*
X8734546Y35992863D01*
X8731119Y36001136D01*
X8731211Y36002600D01*
X8783112Y36413991D01*
X8787546Y36421769D01*
X8794689Y36424225D01*
X9080222Y36424896D01*
X9088502Y36421489D01*
G37*
%TD.AperFunction*%
%TD*%
%TA.AperFunction,Conductor*%
%TO.N,/SX RST*%
G36*
X12168441Y21507950D02*
G01*
X12174303Y21501852D01*
X12283915Y21239511D01*
X12283942Y21230556D01*
X12283915Y21230489D01*
X12174303Y20968149D01*
X12167951Y20961837D01*
X12159494Y20961671D01*
X12025747Y21010507D01*
X11692487Y21132194D01*
X11685891Y21138250D01*
X11684800Y21143184D01*
X11684800Y21326817D01*
X11688227Y21335090D01*
X11692487Y21337807D01*
X12159497Y21508331D01*
X12168441Y21507950D01*
G37*
%TD.AperFunction*%
%TD*%
M02*
