M48
; DRILL file {KiCad 8.0.0} date 2024-03-22T17:22:37-0700
; FORMAT={-:-/ absolute / inch / decimal}
; #@! TF.CreationDate,2024-03-22T17:22:37-07:00
; #@! TF.GenerationSoftware,Kicad,Pcbnew,8.0.0
; #@! TF.FileFunction,Plated,1,4,PTH
FMAT,2
INCH
; #@! TA.AperFunction,Plated,PTH,ComponentDrill
T1C0.0315
; #@! TA.AperFunction,Plated,PTH,ComponentDrill
T2C0.0354
; #@! TA.AperFunction,Plated,PTH,ComponentDrill
T3C0.0394
; #@! TA.AperFunction,Plated,PTH,ComponentDrill
T4C0.0433
; #@! TA.AperFunction,Plated,PTH,ComponentDrill
T5C0.1260
%
G90
G05
T2
X0.5057Y1.1196
T3
X0.5517Y1.7964
X0.5517Y1.5996
T4
X0.1887Y0.378
X0.2517Y0.671
X0.2517Y0.571
X0.2887Y0.378
X0.3887Y0.378
X0.4887Y0.378
X0.5887Y0.378
X0.6887Y0.378
X0.7887Y0.378
T5
X0.1136Y2.0452
X0.1136Y0.116
X0.8617Y2.0452
X0.8617Y0.116
T1
G00X0.0622Y1.0768
M15
G01X0.0897Y1.0768
M16
G05
G00X0.0622Y0.7933
M15
G01X0.0897Y0.7933
M16
G05
G00X0.1862Y1.0303
M15
G01X0.1941Y1.0303
M16
G05
G00X0.1862Y0.8397
M15
G01X0.1941Y0.8397
M16
G05
M30
