%TF.GenerationSoftware,KiCad,Pcbnew,8.0.0*%
%TF.CreationDate,2024-04-01T12:03:42-07:00*%
%TF.ProjectId,lyrav3r1,6c797261-7633-4723-912e-6b696361645f,rev?*%
%TF.SameCoordinates,Original*%
%TF.FileFunction,Other,Comment*%
%FSLAX46Y46*%
G04 Gerber Fmt 4.6, Leading zero omitted, Abs format (unit mm)*
G04 Created by KiCad (PCBNEW 8.0.0) date 2024-04-01 12:03:42*
%MOMM*%
%LPD*%
G01*
G04 APERTURE LIST*
%ADD10C,0.150000*%
%ADD11C,0.400000*%
%ADD12C,0.200000*%
%ADD13C,0.250000*%
%ADD14C,0.300000*%
%ADD15C,0.140000*%
G04 APERTURE END LIST*
D10*
%TO.C,H3*%
X5800000Y3000000D02*
G75*
G02*
X200000Y3000000I-2800000J0D01*
G01*
X200000Y3000000D02*
G75*
G02*
X5800000Y3000000I2800000J0D01*
G01*
%TO.C,H1*%
X5800000Y52000000D02*
G75*
G02*
X200000Y52000000I-2800000J0D01*
G01*
X200000Y52000000D02*
G75*
G02*
X5800000Y52000000I2800000J0D01*
G01*
%TO.C,H2*%
X24800000Y52000000D02*
G75*
G02*
X19200000Y52000000I-2800000J0D01*
G01*
X19200000Y52000000D02*
G75*
G02*
X24800000Y52000000I2800000J0D01*
G01*
%TO.C,H4*%
X24800000Y3000000D02*
G75*
G02*
X19200000Y3000000I-2800000J0D01*
G01*
X19200000Y3000000D02*
G75*
G02*
X24800000Y3000000I2800000J0D01*
G01*
D11*
%TO.C,U1*%
X3877200Y49153400D02*
G75*
G02*
X3477200Y49153400I-200000J0D01*
G01*
X3477200Y49153400D02*
G75*
G02*
X3877200Y49153400I200000J0D01*
G01*
D12*
%TO.C,X2*%
X21765200Y23457400D02*
G75*
G02*
X21565200Y23457400I-100000J0D01*
G01*
X21565200Y23457400D02*
G75*
G02*
X21765200Y23457400I100000J0D01*
G01*
D13*
%TO.C,U2*%
X20070900Y48923700D02*
G75*
G02*
X19810900Y48923700I-130000J0D01*
G01*
X19810900Y48923700D02*
G75*
G02*
X20070900Y48923700I130000J0D01*
G01*
D10*
%TO.C,U7*%
X11186400Y30835400D02*
G75*
G02*
X11046400Y30835400I-70000J0D01*
G01*
X11046400Y30835400D02*
G75*
G02*
X11186400Y30835400I70000J0D01*
G01*
D13*
%TO.C,U5*%
X23348800Y44571000D02*
G75*
G02*
X23108800Y44571000I-120000J0D01*
G01*
X23108800Y44571000D02*
G75*
G02*
X23348800Y44571000I120000J0D01*
G01*
D14*
%TO.C,U6*%
X10969200Y11298200D02*
G75*
G02*
X10669200Y11298200I-150000J0D01*
G01*
X10669200Y11298200D02*
G75*
G02*
X10969200Y11298200I150000J0D01*
G01*
D10*
%TO.C,U4*%
X24116400Y46275800D02*
G75*
G02*
X23976400Y46275800I-70000J0D01*
G01*
X23976400Y46275800D02*
G75*
G02*
X24116400Y46275800I70000J0D01*
G01*
D15*
%TO.C,FL1*%
X11590800Y32101700D02*
G75*
G02*
X11450800Y32101700I-70000J0D01*
G01*
X11450800Y32101700D02*
G75*
G02*
X11590800Y32101700I70000J0D01*
G01*
%TD*%
M02*
