%TF.GenerationSoftware,KiCad,Pcbnew,(7.0.0)*%
%TF.CreationDate,2023-07-06T15:18:01+01:00*%
%TF.ProjectId,wolf flight comp,776f6c66-2066-46c6-9967-687420636f6d,rev?*%
%TF.SameCoordinates,Original*%
%TF.FileFunction,Paste,Top*%
%TF.FilePolarity,Positive*%
%FSLAX46Y46*%
G04 Gerber Fmt 4.6, Leading zero omitted, Abs format (unit mm)*
G04 Created by KiCad (PCBNEW (7.0.0)) date 2023-07-06 15:18:01*
%MOMM*%
%LPD*%
G01*
G04 APERTURE LIST*
G04 Aperture macros list*
%AMRoundRect*
0 Rectangle with rounded corners*
0 $1 Rounding radius*
0 $2 $3 $4 $5 $6 $7 $8 $9 X,Y pos of 4 corners*
0 Add a 4 corners polygon primitive as box body*
4,1,4,$2,$3,$4,$5,$6,$7,$8,$9,$2,$3,0*
0 Add four circle primitives for the rounded corners*
1,1,$1+$1,$2,$3*
1,1,$1+$1,$4,$5*
1,1,$1+$1,$6,$7*
1,1,$1+$1,$8,$9*
0 Add four rect primitives between the rounded corners*
20,1,$1+$1,$2,$3,$4,$5,0*
20,1,$1+$1,$4,$5,$6,$7,0*
20,1,$1+$1,$6,$7,$8,$9,0*
20,1,$1+$1,$8,$9,$2,$3,0*%
G04 Aperture macros list end*
%ADD10RoundRect,0.225000X0.225000X0.250000X-0.225000X0.250000X-0.225000X-0.250000X0.225000X-0.250000X0*%
%ADD11RoundRect,0.200000X-0.275000X0.200000X-0.275000X-0.200000X0.275000X-0.200000X0.275000X0.200000X0*%
%ADD12RoundRect,0.150000X-0.650000X-0.150000X0.650000X-0.150000X0.650000X0.150000X-0.650000X0.150000X0*%
%ADD13RoundRect,0.200000X-0.200000X-0.275000X0.200000X-0.275000X0.200000X0.275000X-0.200000X0.275000X0*%
%ADD14RoundRect,0.225000X0.250000X-0.225000X0.250000X0.225000X-0.250000X0.225000X-0.250000X-0.225000X0*%
%ADD15RoundRect,0.200000X0.275000X-0.200000X0.275000X0.200000X-0.275000X0.200000X-0.275000X-0.200000X0*%
%ADD16RoundRect,0.225000X-0.225000X-0.250000X0.225000X-0.250000X0.225000X0.250000X-0.225000X0.250000X0*%
%ADD17RoundRect,0.218750X0.256250X-0.218750X0.256250X0.218750X-0.256250X0.218750X-0.256250X-0.218750X0*%
%ADD18RoundRect,0.218750X0.218750X0.256250X-0.218750X0.256250X-0.218750X-0.256250X0.218750X-0.256250X0*%
%ADD19RoundRect,0.200000X0.200000X0.275000X-0.200000X0.275000X-0.200000X-0.275000X0.200000X-0.275000X0*%
%ADD20RoundRect,0.250000X0.375000X0.625000X-0.375000X0.625000X-0.375000X-0.625000X0.375000X-0.625000X0*%
%ADD21RoundRect,0.243750X0.456250X-0.243750X0.456250X0.243750X-0.456250X0.243750X-0.456250X-0.243750X0*%
%ADD22R,0.500000X0.375000*%
%ADD23R,0.650000X0.300000*%
%ADD24RoundRect,0.150000X-0.512500X-0.150000X0.512500X-0.150000X0.512500X0.150000X-0.512500X0.150000X0*%
%ADD25RoundRect,0.250000X-0.250000X-0.475000X0.250000X-0.475000X0.250000X0.475000X-0.250000X0.475000X0*%
%ADD26R,1.150000X1.000000*%
%ADD27R,0.250000X0.275000*%
%ADD28R,0.275000X0.250000*%
%ADD29R,2.000000X1.500000*%
%ADD30R,2.000000X3.800000*%
%ADD31RoundRect,0.075000X-0.662500X-0.075000X0.662500X-0.075000X0.662500X0.075000X-0.662500X0.075000X0*%
%ADD32RoundRect,0.075000X-0.075000X-0.662500X0.075000X-0.662500X0.075000X0.662500X-0.075000X0.662500X0*%
%ADD33RoundRect,0.225000X-0.250000X0.225000X-0.250000X-0.225000X0.250000X-0.225000X0.250000X0.225000X0*%
%ADD34R,1.400000X0.400000*%
%ADD35R,1.900000X2.300000*%
%ADD36R,1.900000X1.800000*%
%ADD37RoundRect,0.243750X-0.243750X-0.456250X0.243750X-0.456250X0.243750X0.456250X-0.243750X0.456250X0*%
%ADD38R,0.350000X0.590000*%
%ADD39R,0.590000X0.350000*%
G04 APERTURE END LIST*
D10*
%TO.C,C17*%
X156921800Y-89611200D03*
X155371800Y-89611200D03*
%TD*%
D11*
%TO.C,R8*%
X175641000Y-109411000D03*
X175641000Y-111061000D03*
%TD*%
D12*
%TO.C,U6*%
X160821000Y-100838000D03*
X160821000Y-102108000D03*
X160821000Y-103378000D03*
X160821000Y-104648000D03*
X168021000Y-104648000D03*
X168021000Y-103378000D03*
X168021000Y-102108000D03*
X168021000Y-100838000D03*
%TD*%
D13*
%TO.C,R13*%
X181550000Y-123100000D03*
X183200000Y-123100000D03*
%TD*%
D14*
%TO.C,C19*%
X152781000Y-82207400D03*
X152781000Y-80657400D03*
%TD*%
D15*
%TO.C,R23*%
X168656000Y-112331000D03*
X168656000Y-110681000D03*
%TD*%
D11*
%TO.C,R21*%
X163703000Y-73280000D03*
X163703000Y-74930000D03*
%TD*%
D16*
%TO.C,C6*%
X172425000Y-76962000D03*
X173975000Y-76962000D03*
%TD*%
D17*
%TO.C,FB2*%
X152654000Y-89101000D03*
X152654000Y-87526000D03*
%TD*%
D10*
%TO.C,C15*%
X161824000Y-78867000D03*
X160274000Y-78867000D03*
%TD*%
D18*
%TO.C,FB1*%
X170840500Y-119227600D03*
X169265500Y-119227600D03*
%TD*%
D19*
%TO.C,R16*%
X167325000Y-76300000D03*
X165675000Y-76300000D03*
%TD*%
D20*
%TO.C,F1*%
X180200000Y-120450000D03*
X177400000Y-120450000D03*
%TD*%
D21*
%TO.C,D3*%
X162687000Y-96520000D03*
X162687000Y-94645000D03*
%TD*%
D11*
%TO.C,R3*%
X177400000Y-81450000D03*
X177400000Y-83100000D03*
%TD*%
D14*
%TO.C,C9*%
X158833000Y-104788000D03*
X158833000Y-103238000D03*
%TD*%
D15*
%TO.C,R20*%
X163068000Y-112395000D03*
X163068000Y-110745000D03*
%TD*%
D22*
%TO.C,U3*%
X175855999Y-84637499D03*
D23*
X175930999Y-84099999D03*
D22*
X175855999Y-83562499D03*
X174155999Y-83562499D03*
D23*
X174080999Y-84099999D03*
D22*
X174155999Y-84637499D03*
%TD*%
D16*
%TO.C,C14*%
X166344000Y-91313000D03*
X167894000Y-91313000D03*
%TD*%
D19*
%TO.C,R14*%
X167350000Y-77900000D03*
X165700000Y-77900000D03*
%TD*%
D13*
%TO.C,R6*%
X154500000Y-98450000D03*
X156150000Y-98450000D03*
%TD*%
D24*
%TO.C,Q1*%
X173202600Y-117398800D03*
X173202600Y-119298800D03*
X175477600Y-118348800D03*
%TD*%
D16*
%TO.C,C8*%
X155054000Y-76200000D03*
X156604000Y-76200000D03*
%TD*%
D11*
%TO.C,R11*%
X175630000Y-103757000D03*
X175630000Y-105407000D03*
%TD*%
D10*
%TO.C,C18*%
X156895800Y-87985600D03*
X155345800Y-87985600D03*
%TD*%
D25*
%TO.C,C3*%
X174691000Y-125095000D03*
X176591000Y-125095000D03*
%TD*%
D11*
%TO.C,R22*%
X149479000Y-84226400D03*
X149479000Y-85876400D03*
%TD*%
D26*
%TO.C,Y1*%
X150437999Y-80921999D03*
X148687999Y-80921999D03*
X148687999Y-82321999D03*
X150437999Y-82321999D03*
%TD*%
D27*
%TO.C,U5*%
X155570499Y-73397499D03*
X155070499Y-73397499D03*
D28*
X154557999Y-73659999D03*
X154557999Y-74159999D03*
X154557999Y-74659999D03*
D27*
X155070499Y-74922499D03*
X155570499Y-74922499D03*
D28*
X156082999Y-74659999D03*
X156082999Y-74159999D03*
X156082999Y-73659999D03*
%TD*%
D29*
%TO.C,U1*%
X172567999Y-127394999D03*
X172567999Y-125094999D03*
D30*
X166267999Y-125094999D03*
D29*
X172567999Y-122794999D03*
%TD*%
D11*
%TO.C,R10*%
X165100000Y-94775000D03*
X165100000Y-96425000D03*
%TD*%
D31*
%TO.C,U7*%
X159921500Y-82340000D03*
X159921500Y-82840000D03*
X159921500Y-83340000D03*
X159921500Y-83840000D03*
X159921500Y-84340000D03*
X159921500Y-84840000D03*
X159921500Y-85340000D03*
X159921500Y-85840000D03*
X159921500Y-86340000D03*
X159921500Y-86840000D03*
X159921500Y-87340000D03*
X159921500Y-87840000D03*
D32*
X161334000Y-89252500D03*
X161834000Y-89252500D03*
X162334000Y-89252500D03*
X162834000Y-89252500D03*
X163334000Y-89252500D03*
X163834000Y-89252500D03*
X164334000Y-89252500D03*
X164834000Y-89252500D03*
X165334000Y-89252500D03*
X165834000Y-89252500D03*
X166334000Y-89252500D03*
X166834000Y-89252500D03*
D31*
X168246500Y-87840000D03*
X168246500Y-87340000D03*
X168246500Y-86840000D03*
X168246500Y-86340000D03*
X168246500Y-85840000D03*
X168246500Y-85340000D03*
X168246500Y-84840000D03*
X168246500Y-84340000D03*
X168246500Y-83840000D03*
X168246500Y-83340000D03*
X168246500Y-82840000D03*
X168246500Y-82340000D03*
D32*
X166834000Y-80927500D03*
X166334000Y-80927500D03*
X165834000Y-80927500D03*
X165334000Y-80927500D03*
X164834000Y-80927500D03*
X164334000Y-80927500D03*
X163834000Y-80927500D03*
X163334000Y-80927500D03*
X162834000Y-80927500D03*
X162334000Y-80927500D03*
X161834000Y-80927500D03*
X161334000Y-80927500D03*
%TD*%
D33*
%TO.C,C7*%
X157353000Y-72491000D03*
X157353000Y-74041000D03*
%TD*%
D16*
%TO.C,C20*%
X151701200Y-84226400D03*
X153251200Y-84226400D03*
%TD*%
D34*
%TO.C,J1*%
X179399999Y-84999999D03*
X179399999Y-84349999D03*
X179399999Y-83699999D03*
X179399999Y-83049999D03*
X179399999Y-82399999D03*
D35*
X182249999Y-87449999D03*
D36*
X182249999Y-84849999D03*
X182249999Y-82549999D03*
D35*
X182249999Y-79949999D03*
%TD*%
D24*
%TO.C,Q2*%
X171334000Y-109794000D03*
X171334000Y-111694000D03*
X173609000Y-110744000D03*
%TD*%
%TO.C,Q3*%
X171323000Y-104394000D03*
X171323000Y-106294000D03*
X173598000Y-105344000D03*
%TD*%
D25*
%TO.C,C2*%
X161737000Y-122783600D03*
X163637000Y-122783600D03*
%TD*%
D15*
%TO.C,R18*%
X164719000Y-112394000D03*
X164719000Y-110744000D03*
%TD*%
D29*
%TO.C,U2*%
X159232999Y-127394999D03*
X159232999Y-125094999D03*
D30*
X152932999Y-125094999D03*
D29*
X159232999Y-122794999D03*
%TD*%
D10*
%TO.C,C5*%
X173863000Y-71628000D03*
X172313000Y-71628000D03*
%TD*%
D19*
%TO.C,R9*%
X172910000Y-102616000D03*
X171260000Y-102616000D03*
%TD*%
D13*
%TO.C,R17*%
X154433000Y-65938400D03*
X156083000Y-65938400D03*
%TD*%
D14*
%TO.C,C16*%
X170561000Y-82817000D03*
X170561000Y-81267000D03*
%TD*%
D11*
%TO.C,R19*%
X166370000Y-110745000D03*
X166370000Y-112395000D03*
%TD*%
D37*
%TO.C,D1*%
X169262500Y-116750000D03*
X171137500Y-116750000D03*
%TD*%
D16*
%TO.C,C11*%
X149466000Y-75057000D03*
X151016000Y-75057000D03*
%TD*%
D10*
%TO.C,C12*%
X167275000Y-117700000D03*
X165725000Y-117700000D03*
%TD*%
D14*
%TO.C,C10*%
X157182000Y-104801000D03*
X157182000Y-103251000D03*
%TD*%
D13*
%TO.C,R12*%
X178451200Y-123100000D03*
X180101200Y-123100000D03*
%TD*%
D38*
%TO.C,U4*%
X170447999Y-73129999D03*
X170947999Y-73129999D03*
X171447999Y-73129999D03*
X171947999Y-73129999D03*
X172447999Y-73129999D03*
X172947999Y-73129999D03*
X173447999Y-73129999D03*
D39*
X173862999Y-74294999D03*
D38*
X173447999Y-75459999D03*
X172947999Y-75459999D03*
X172447999Y-75459999D03*
X171947999Y-75459999D03*
X171447999Y-75459999D03*
X170947999Y-75459999D03*
X170447999Y-75459999D03*
D39*
X170032999Y-74294999D03*
%TD*%
D14*
%TO.C,C21*%
X157988000Y-82068000D03*
X157988000Y-80518000D03*
%TD*%
D25*
%TO.C,C4*%
X161737000Y-125095000D03*
X163637000Y-125095000D03*
%TD*%
%TO.C,C1*%
X174691000Y-122809000D03*
X176591000Y-122809000D03*
%TD*%
D19*
%TO.C,R7*%
X172910000Y-108141000D03*
X171260000Y-108141000D03*
%TD*%
M02*
