%TF.GenerationSoftware,KiCad,Pcbnew,8.0.0*%
%TF.CreationDate,2024-10-09T20:58:18-07:00*%
%TF.ProjectId,LEO,4c454f2e-6b69-4636-9164-5f7063625858,rev?*%
%TF.SameCoordinates,Original*%
%TF.FileFunction,Legend,Top*%
%TF.FilePolarity,Positive*%
%FSLAX46Y46*%
G04 Gerber Fmt 4.6, Leading zero omitted, Abs format (unit mm)*
G04 Created by KiCad (PCBNEW 8.0.0) date 2024-10-09 20:58:18*
%MOMM*%
%LPD*%
G01*
G04 APERTURE LIST*
G04 Aperture macros list*
%AMRoundRect*
0 Rectangle with rounded corners*
0 $1 Rounding radius*
0 $2 $3 $4 $5 $6 $7 $8 $9 X,Y pos of 4 corners*
0 Add a 4 corners polygon primitive as box body*
4,1,4,$2,$3,$4,$5,$6,$7,$8,$9,$2,$3,0*
0 Add four circle primitives for the rounded corners*
1,1,$1+$1,$2,$3*
1,1,$1+$1,$4,$5*
1,1,$1+$1,$6,$7*
1,1,$1+$1,$8,$9*
0 Add four rect primitives between the rounded corners*
20,1,$1+$1,$2,$3,$4,$5,0*
20,1,$1+$1,$4,$5,$6,$7,0*
20,1,$1+$1,$6,$7,$8,$9,0*
20,1,$1+$1,$8,$9,$2,$3,0*%
%AMFreePoly0*
4,1,19,0.500000,-0.750000,0.000000,-0.750000,0.000000,-0.744911,-0.071157,-0.744911,-0.207708,-0.704816,-0.327430,-0.627875,-0.420627,-0.520320,-0.479746,-0.390866,-0.500000,-0.250000,-0.500000,0.250000,-0.479746,0.390866,-0.420627,0.520320,-0.327430,0.627875,-0.207708,0.704816,-0.071157,0.744911,0.000000,0.744911,0.000000,0.750000,0.500000,0.750000,0.500000,-0.750000,0.500000,-0.750000,
$1*%
%AMFreePoly1*
4,1,19,0.000000,0.744911,0.071157,0.744911,0.207708,0.704816,0.327430,0.627875,0.420627,0.520320,0.479746,0.390866,0.500000,0.250000,0.500000,-0.250000,0.479746,-0.390866,0.420627,-0.520320,0.327430,-0.627875,0.207708,-0.704816,0.071157,-0.744911,0.000000,-0.744911,0.000000,-0.750000,-0.500000,-0.750000,-0.500000,0.750000,0.000000,0.750000,0.000000,0.744911,0.000000,0.744911,
$1*%
G04 Aperture macros list end*
%ADD10C,0.187500*%
%ADD11C,0.125000*%
%ADD12C,0.375000*%
%ADD13C,0.250000*%
%ADD14C,0.200000*%
%ADD15C,0.100000*%
%ADD16C,0.120000*%
%ADD17C,0.000000*%
%ADD18R,1.300000X3.400000*%
%ADD19FreePoly0,0.000000*%
%ADD20FreePoly1,0.000000*%
%ADD21R,1.000000X1.000000*%
%ADD22R,2.200000X2.200000*%
%ADD23C,2.200000*%
%ADD24C,3.800000*%
%ADD25RoundRect,0.410105X-0.589895X-0.214895X0.589895X-0.214895X0.589895X0.214895X-0.589895X0.214895X0*%
%ADD26R,1.500000X1.000000*%
%ADD27RoundRect,0.243750X0.243750X0.456250X-0.243750X0.456250X-0.243750X-0.456250X0.243750X-0.456250X0*%
%ADD28RoundRect,0.243750X-0.456250X0.243750X-0.456250X-0.243750X0.456250X-0.243750X0.456250X0.243750X0*%
%ADD29O,1.400000X1.200000*%
%ADD30O,1.900000X1.200000*%
G04 APERTURE END LIST*
D10*
G36*
X17961530Y1728781D02*
G01*
X16504612Y1728781D01*
X16504612Y2256408D01*
X16902815Y2256408D01*
X16916814Y2222613D01*
X16942679Y2196748D01*
X16976474Y2182749D01*
X16994764Y2180948D01*
X17283081Y2181614D01*
X17283767Y1913551D01*
X17297766Y1879756D01*
X17323631Y1853891D01*
X17357426Y1839892D01*
X17394006Y1839892D01*
X17427801Y1853891D01*
X17453666Y1879756D01*
X17467665Y1913551D01*
X17469466Y1931841D01*
X17468825Y2182043D01*
X17774959Y2182749D01*
X17808754Y2196748D01*
X17834619Y2222613D01*
X17848618Y2256408D01*
X17848618Y2292988D01*
X17834619Y2326783D01*
X17808754Y2352648D01*
X17774959Y2366647D01*
X17756669Y2368448D01*
X17468350Y2367783D01*
X17467665Y2635845D01*
X17453666Y2669640D01*
X17427801Y2695505D01*
X17394006Y2709504D01*
X17357426Y2709504D01*
X17323631Y2695505D01*
X17297766Y2669640D01*
X17283767Y2635845D01*
X17281966Y2617555D01*
X17282606Y2367354D01*
X16976474Y2366647D01*
X16942679Y2352648D01*
X16916814Y2326783D01*
X16902815Y2292988D01*
X16902815Y2256408D01*
X16504612Y2256408D01*
X16504612Y3912173D01*
X16615723Y3912173D01*
X16619421Y3875780D01*
X16636763Y3843574D01*
X16665110Y3820454D01*
X16682111Y3813474D01*
X17392936Y3602051D01*
X17405045Y3597035D01*
X17409800Y3597035D01*
X17414433Y3595657D01*
X17427994Y3597035D01*
X17441625Y3597035D01*
X17446055Y3598871D01*
X17450825Y3599355D01*
X17462825Y3605818D01*
X17475420Y3611034D01*
X17478810Y3614425D01*
X17483031Y3616697D01*
X17491647Y3627262D01*
X17501285Y3636899D01*
X17503119Y3641327D01*
X17506151Y3645044D01*
X17510069Y3658106D01*
X17515284Y3670694D01*
X17515986Y3677830D01*
X17516662Y3680081D01*
X17516431Y3682349D01*
X17517085Y3688984D01*
X17516033Y4024926D01*
X17774959Y4025606D01*
X17808754Y4039605D01*
X17834619Y4065470D01*
X17848618Y4099265D01*
X17848618Y4135845D01*
X17834619Y4169640D01*
X17808754Y4195505D01*
X17774959Y4209504D01*
X17756669Y4211305D01*
X17515452Y4210671D01*
X17515284Y4264417D01*
X17501285Y4298212D01*
X17475420Y4324077D01*
X17441625Y4338076D01*
X17405045Y4338076D01*
X17371250Y4324077D01*
X17345385Y4298212D01*
X17331386Y4264417D01*
X17329585Y4246127D01*
X17329697Y4210183D01*
X17071712Y4209504D01*
X17037917Y4195505D01*
X17012052Y4169640D01*
X16998053Y4135845D01*
X16998053Y4099265D01*
X17012052Y4065470D01*
X17037917Y4039605D01*
X17071712Y4025606D01*
X17090002Y4023805D01*
X17330278Y4024437D01*
X17330936Y3814275D01*
X16717953Y3996597D01*
X16681560Y3992899D01*
X16649354Y3975557D01*
X16626234Y3947210D01*
X16615723Y3912173D01*
X16504612Y3912173D01*
X16504612Y5274698D01*
X17281966Y5274698D01*
X17283767Y4570694D01*
X17297766Y4536899D01*
X17323631Y4511034D01*
X17357426Y4497035D01*
X17394006Y4497035D01*
X17427801Y4511034D01*
X17453666Y4536899D01*
X17467665Y4570694D01*
X17469466Y4588984D01*
X17467665Y5292988D01*
X17453666Y5326783D01*
X17427801Y5352648D01*
X17394006Y5366647D01*
X17357426Y5366647D01*
X17323631Y5352648D01*
X17297766Y5326783D01*
X17283767Y5292988D01*
X17281966Y5274698D01*
X16504612Y5274698D01*
X16504612Y6860413D01*
X16662919Y6860413D01*
X16664720Y6284980D01*
X16678719Y6251185D01*
X16704584Y6225320D01*
X16738379Y6211321D01*
X16774959Y6211321D01*
X16808754Y6225320D01*
X16834619Y6251185D01*
X16848618Y6284980D01*
X16850419Y6303270D01*
X16849274Y6669028D01*
X17076951Y6491048D01*
X17085536Y6482463D01*
X17090635Y6480351D01*
X17095102Y6476859D01*
X17107465Y6473380D01*
X17119331Y6468464D01*
X17124928Y6468464D01*
X17130314Y6466948D01*
X17143064Y6468464D01*
X17155911Y6468464D01*
X17161083Y6470607D01*
X17166637Y6471267D01*
X17177836Y6477547D01*
X17189706Y6482463D01*
X17193662Y6486420D01*
X17198543Y6489156D01*
X17206488Y6499246D01*
X17215571Y6508328D01*
X17217712Y6513499D01*
X17221175Y6517895D01*
X17224654Y6530257D01*
X17229570Y6542123D01*
X17230417Y6550732D01*
X17231086Y6553106D01*
X17230848Y6555105D01*
X17231371Y6560413D01*
X17230111Y6663136D01*
X17257182Y6713692D01*
X17282050Y6737078D01*
X17345562Y6766786D01*
X17543317Y6768175D01*
X17607239Y6740531D01*
X17633658Y6717780D01*
X17663064Y6666726D01*
X17664428Y6458156D01*
X17637107Y6407135D01*
X17586325Y6359381D01*
X17570570Y6326368D01*
X17568647Y6289840D01*
X17580849Y6255355D01*
X17605319Y6228165D01*
X17638332Y6212410D01*
X17674860Y6210487D01*
X17709345Y6222689D01*
X17724145Y6233585D01*
X17772777Y6279318D01*
X17780545Y6285484D01*
X17782798Y6288742D01*
X17784154Y6290016D01*
X17785206Y6292222D01*
X17791002Y6300598D01*
X17831970Y6377108D01*
X17834619Y6379756D01*
X17838822Y6389903D01*
X17845929Y6403175D01*
X17846546Y6408551D01*
X17848618Y6413551D01*
X17850419Y6431841D01*
X17848817Y6676807D01*
X17850104Y6681310D01*
X17848708Y6693459D01*
X17848618Y6707274D01*
X17846546Y6712275D01*
X17845929Y6717650D01*
X17838621Y6734513D01*
X17788982Y6820692D01*
X17784155Y6830808D01*
X17781447Y6833775D01*
X17780545Y6835341D01*
X17778629Y6836862D01*
X17771765Y6844382D01*
X17722597Y6886725D01*
X17715842Y6893901D01*
X17711113Y6896615D01*
X17709346Y6898137D01*
X17707037Y6898954D01*
X17699902Y6903049D01*
X17618302Y6938338D01*
X17618277Y6938363D01*
X17617498Y6938686D01*
X17587245Y6951769D01*
X17585809Y6951813D01*
X17584482Y6952362D01*
X17566192Y6954163D01*
X17344309Y6952605D01*
X17343607Y6952871D01*
X17331858Y6952517D01*
X17309807Y6952362D01*
X17308479Y6951813D01*
X17307044Y6951769D01*
X17289626Y6945906D01*
X17195449Y6901854D01*
X17184942Y6898136D01*
X17180485Y6894855D01*
X17178447Y6893901D01*
X17176767Y6892117D01*
X17170143Y6887239D01*
X17121511Y6841507D01*
X17113744Y6835340D01*
X17111490Y6832083D01*
X17110134Y6830807D01*
X17109080Y6828600D01*
X17103288Y6820227D01*
X17062319Y6743718D01*
X17059671Y6741069D01*
X17059443Y6740521D01*
X16817338Y6929779D01*
X16808754Y6938363D01*
X16803654Y6940476D01*
X16799188Y6943967D01*
X16786824Y6947447D01*
X16774959Y6952362D01*
X16769362Y6952362D01*
X16763976Y6953878D01*
X16751223Y6952362D01*
X16738379Y6952362D01*
X16733209Y6950221D01*
X16727653Y6949560D01*
X16716448Y6943278D01*
X16704584Y6938363D01*
X16700628Y6934408D01*
X16695746Y6931670D01*
X16687797Y6921577D01*
X16678719Y6912498D01*
X16676578Y6907330D01*
X16673115Y6902932D01*
X16669635Y6890569D01*
X16664720Y6878703D01*
X16663872Y6870095D01*
X16663204Y6867720D01*
X16663441Y6865721D01*
X16662919Y6860413D01*
X16504612Y6860413D01*
X16504612Y7931841D01*
X17281966Y7931841D01*
X17283767Y7227837D01*
X17297766Y7194042D01*
X17323631Y7168177D01*
X17357426Y7154178D01*
X17394006Y7154178D01*
X17427801Y7168177D01*
X17453666Y7194042D01*
X17467665Y7227837D01*
X17469466Y7246127D01*
X17467665Y7950131D01*
X17453666Y7983926D01*
X17427801Y8009791D01*
X17394006Y8023790D01*
X17357426Y8023790D01*
X17323631Y8009791D01*
X17297766Y7983926D01*
X17283767Y7950131D01*
X17281966Y7931841D01*
X16504612Y7931841D01*
X16504612Y9346127D01*
X16662919Y9346127D01*
X16664485Y9143895D01*
X16663234Y9139516D01*
X16664611Y9127523D01*
X16664720Y9113551D01*
X16666791Y9108551D01*
X16667409Y9103175D01*
X16674717Y9086312D01*
X16724356Y9000130D01*
X16729183Y8990017D01*
X16731889Y8987052D01*
X16732792Y8985485D01*
X16734708Y8983964D01*
X16741573Y8976443D01*
X16803991Y8922689D01*
X16838476Y8910487D01*
X16875004Y8912410D01*
X16908017Y8928164D01*
X16932488Y8955354D01*
X16944690Y8989839D01*
X16942767Y9026367D01*
X16927013Y9059380D01*
X16914623Y9072954D01*
X16879678Y9103048D01*
X16850246Y9154147D01*
X16848962Y9319912D01*
X16876230Y9370835D01*
X16901098Y9394221D01*
X16964951Y9424089D01*
X17024880Y9425040D01*
X17135903Y9393030D01*
X17693983Y8893064D01*
X17704584Y8882463D01*
X17706875Y8881514D01*
X17708753Y8879832D01*
X17723721Y8874536D01*
X17738379Y8868464D01*
X17740881Y8868464D01*
X17743238Y8867630D01*
X17759080Y8868464D01*
X17774959Y8868464D01*
X17777270Y8869422D01*
X17779766Y8869553D01*
X17794086Y8876388D01*
X17808754Y8882463D01*
X17810521Y8884231D01*
X17812779Y8885308D01*
X17823402Y8897112D01*
X17834619Y8908328D01*
X17835575Y8910637D01*
X17837250Y8912497D01*
X17842546Y8927466D01*
X17848618Y8942123D01*
X17848959Y8945590D01*
X17849452Y8946982D01*
X17849328Y8949335D01*
X17850419Y8960413D01*
X17848618Y9535846D01*
X17834619Y9569641D01*
X17808754Y9595506D01*
X17774959Y9609505D01*
X17738379Y9609505D01*
X17704584Y9595506D01*
X17678719Y9569641D01*
X17664720Y9535846D01*
X17662919Y9517556D01*
X17664009Y9169293D01*
X17258513Y9532564D01*
X17257527Y9534395D01*
X17245713Y9544031D01*
X17233156Y9555280D01*
X17230973Y9556053D01*
X17229180Y9557515D01*
X17212179Y9564495D01*
X17071222Y9605135D01*
X17060673Y9609505D01*
X17053675Y9610195D01*
X17051286Y9610883D01*
X17049018Y9610653D01*
X17042383Y9611306D01*
X16928855Y9609505D01*
X16927527Y9608956D01*
X16926092Y9608912D01*
X16908674Y9603049D01*
X16814497Y9558997D01*
X16803990Y9555279D01*
X16799533Y9551998D01*
X16797495Y9551044D01*
X16795815Y9549260D01*
X16789191Y9544382D01*
X16740559Y9498650D01*
X16732792Y9492483D01*
X16730538Y9489226D01*
X16729182Y9487950D01*
X16728128Y9485743D01*
X16722336Y9477370D01*
X16681367Y9400861D01*
X16678719Y9398212D01*
X16674515Y9388066D01*
X16667409Y9374793D01*
X16666791Y9369418D01*
X16664720Y9364417D01*
X16662919Y9346127D01*
X16504612Y9346127D01*
X16504612Y10588984D01*
X17281966Y10588984D01*
X17283767Y9884980D01*
X17297766Y9851185D01*
X17323631Y9825320D01*
X17357426Y9811321D01*
X17394006Y9811321D01*
X17427801Y9825320D01*
X17453666Y9851185D01*
X17467665Y9884980D01*
X17469466Y9903270D01*
X17467665Y10607274D01*
X17453666Y10641069D01*
X17427801Y10666934D01*
X17394006Y10680933D01*
X17357426Y10680933D01*
X17323631Y10666934D01*
X17297766Y10641069D01*
X17283767Y10607274D01*
X17281966Y10588984D01*
X16504612Y10588984D01*
X16504612Y11912998D01*
X16663030Y11912998D01*
X16664720Y11906239D01*
X16664720Y11899266D01*
X16669117Y11888651D01*
X16671902Y11877512D01*
X16676050Y11871913D01*
X16678719Y11865471D01*
X16686838Y11857352D01*
X16693678Y11848120D01*
X16702959Y11841231D01*
X16704584Y11839606D01*
X16705859Y11839078D01*
X16708435Y11837166D01*
X16837930Y11761175D01*
X16918834Y11690143D01*
X16970887Y11599771D01*
X16999537Y11577027D01*
X17034708Y11566978D01*
X17071049Y11571153D01*
X17103026Y11588918D01*
X17125769Y11617568D01*
X17135818Y11652739D01*
X17131643Y11689079D01*
X17124335Y11705942D01*
X17074700Y11792116D01*
X17069870Y11802237D01*
X17067159Y11805207D01*
X17066259Y11806770D01*
X17064346Y11808288D01*
X17057480Y11815811D01*
X17047787Y11824321D01*
X17664100Y11825411D01*
X17664720Y11642123D01*
X17678719Y11608328D01*
X17704584Y11582463D01*
X17738379Y11568464D01*
X17774959Y11568464D01*
X17808754Y11582463D01*
X17834619Y11608328D01*
X17848618Y11642123D01*
X17850419Y11660413D01*
X17848618Y12192989D01*
X17834619Y12226784D01*
X17808754Y12252649D01*
X17774959Y12266648D01*
X17738379Y12266648D01*
X17704584Y12252649D01*
X17678719Y12226784D01*
X17664720Y12192989D01*
X17662919Y12174699D01*
X17663472Y12011142D01*
X16763175Y12009549D01*
X16752111Y12011195D01*
X16745401Y12009518D01*
X16738379Y12009505D01*
X16727763Y12005108D01*
X16716625Y12002323D01*
X16711025Y11998175D01*
X16704584Y11995506D01*
X16696464Y11987387D01*
X16687233Y11980547D01*
X16683645Y11974568D01*
X16678719Y11969641D01*
X16674324Y11959034D01*
X16668413Y11949180D01*
X16667387Y11942285D01*
X16664720Y11935846D01*
X16664720Y11924358D01*
X16663030Y11912998D01*
X16504612Y11912998D01*
X16504612Y13246127D01*
X17281966Y13246127D01*
X17283767Y12542123D01*
X17297766Y12508328D01*
X17323631Y12482463D01*
X17357426Y12468464D01*
X17394006Y12468464D01*
X17427801Y12482463D01*
X17453666Y12508328D01*
X17467665Y12542123D01*
X17469466Y12560413D01*
X17467665Y13264417D01*
X17453666Y13298212D01*
X17427801Y13324077D01*
X17394006Y13338076D01*
X17357426Y13338076D01*
X17323631Y13324077D01*
X17297766Y13298212D01*
X17283767Y13264417D01*
X17281966Y13246127D01*
X16504612Y13246127D01*
X16504612Y13449187D01*
X17961530Y13449187D01*
X17961530Y1728781D01*
G37*
D11*
X8468255Y33823867D02*
X8753969Y33823867D01*
X8611112Y33323867D02*
X8611112Y33823867D01*
X8920635Y33323867D02*
X8920635Y33823867D01*
X9134921Y33323867D02*
X9134921Y33585772D01*
X9134921Y33585772D02*
X9111111Y33633391D01*
X9111111Y33633391D02*
X9063492Y33657200D01*
X9063492Y33657200D02*
X8992064Y33657200D01*
X8992064Y33657200D02*
X8944445Y33633391D01*
X8944445Y33633391D02*
X8920635Y33609581D01*
X9563492Y33347676D02*
X9515873Y33323867D01*
X9515873Y33323867D02*
X9420635Y33323867D01*
X9420635Y33323867D02*
X9373016Y33347676D01*
X9373016Y33347676D02*
X9349207Y33395296D01*
X9349207Y33395296D02*
X9349207Y33585772D01*
X9349207Y33585772D02*
X9373016Y33633391D01*
X9373016Y33633391D02*
X9420635Y33657200D01*
X9420635Y33657200D02*
X9515873Y33657200D01*
X9515873Y33657200D02*
X9563492Y33633391D01*
X9563492Y33633391D02*
X9587302Y33585772D01*
X9587302Y33585772D02*
X9587302Y33538153D01*
X9587302Y33538153D02*
X9349207Y33490534D01*
X10182539Y33323867D02*
X10182539Y33657200D01*
X10182539Y33561962D02*
X10206349Y33609581D01*
X10206349Y33609581D02*
X10230158Y33633391D01*
X10230158Y33633391D02*
X10277777Y33657200D01*
X10277777Y33657200D02*
X10325396Y33657200D01*
X10563492Y33323867D02*
X10515873Y33347676D01*
X10515873Y33347676D02*
X10492063Y33371486D01*
X10492063Y33371486D02*
X10468254Y33419105D01*
X10468254Y33419105D02*
X10468254Y33561962D01*
X10468254Y33561962D02*
X10492063Y33609581D01*
X10492063Y33609581D02*
X10515873Y33633391D01*
X10515873Y33633391D02*
X10563492Y33657200D01*
X10563492Y33657200D02*
X10634920Y33657200D01*
X10634920Y33657200D02*
X10682539Y33633391D01*
X10682539Y33633391D02*
X10706349Y33609581D01*
X10706349Y33609581D02*
X10730158Y33561962D01*
X10730158Y33561962D02*
X10730158Y33419105D01*
X10730158Y33419105D02*
X10706349Y33371486D01*
X10706349Y33371486D02*
X10682539Y33347676D01*
X10682539Y33347676D02*
X10634920Y33323867D01*
X10634920Y33323867D02*
X10563492Y33323867D01*
X11158730Y33347676D02*
X11111111Y33323867D01*
X11111111Y33323867D02*
X11015873Y33323867D01*
X11015873Y33323867D02*
X10968254Y33347676D01*
X10968254Y33347676D02*
X10944444Y33371486D01*
X10944444Y33371486D02*
X10920635Y33419105D01*
X10920635Y33419105D02*
X10920635Y33561962D01*
X10920635Y33561962D02*
X10944444Y33609581D01*
X10944444Y33609581D02*
X10968254Y33633391D01*
X10968254Y33633391D02*
X11015873Y33657200D01*
X11015873Y33657200D02*
X11111111Y33657200D01*
X11111111Y33657200D02*
X11158730Y33633391D01*
X11373015Y33323867D02*
X11373015Y33823867D01*
X11420634Y33514343D02*
X11563491Y33323867D01*
X11563491Y33657200D02*
X11373015Y33466724D01*
X11968253Y33347676D02*
X11920634Y33323867D01*
X11920634Y33323867D02*
X11825396Y33323867D01*
X11825396Y33323867D02*
X11777777Y33347676D01*
X11777777Y33347676D02*
X11753968Y33395296D01*
X11753968Y33395296D02*
X11753968Y33585772D01*
X11753968Y33585772D02*
X11777777Y33633391D01*
X11777777Y33633391D02*
X11825396Y33657200D01*
X11825396Y33657200D02*
X11920634Y33657200D01*
X11920634Y33657200D02*
X11968253Y33633391D01*
X11968253Y33633391D02*
X11992063Y33585772D01*
X11992063Y33585772D02*
X11992063Y33538153D01*
X11992063Y33538153D02*
X11753968Y33490534D01*
X12134920Y33657200D02*
X12325396Y33657200D01*
X12206348Y33823867D02*
X12206348Y33395296D01*
X12206348Y33395296D02*
X12230158Y33347676D01*
X12230158Y33347676D02*
X12277777Y33323867D01*
X12277777Y33323867D02*
X12325396Y33323867D01*
X12873014Y33323867D02*
X12873014Y33823867D01*
X12920633Y33514343D02*
X13063490Y33323867D01*
X13063490Y33657200D02*
X12873014Y33466724D01*
X13277776Y33657200D02*
X13277776Y33323867D01*
X13277776Y33609581D02*
X13301586Y33633391D01*
X13301586Y33633391D02*
X13349205Y33657200D01*
X13349205Y33657200D02*
X13420633Y33657200D01*
X13420633Y33657200D02*
X13468252Y33633391D01*
X13468252Y33633391D02*
X13492062Y33585772D01*
X13492062Y33585772D02*
X13492062Y33323867D01*
X13801586Y33323867D02*
X13753967Y33347676D01*
X13753967Y33347676D02*
X13730157Y33371486D01*
X13730157Y33371486D02*
X13706348Y33419105D01*
X13706348Y33419105D02*
X13706348Y33561962D01*
X13706348Y33561962D02*
X13730157Y33609581D01*
X13730157Y33609581D02*
X13753967Y33633391D01*
X13753967Y33633391D02*
X13801586Y33657200D01*
X13801586Y33657200D02*
X13873014Y33657200D01*
X13873014Y33657200D02*
X13920633Y33633391D01*
X13920633Y33633391D02*
X13944443Y33609581D01*
X13944443Y33609581D02*
X13968252Y33561962D01*
X13968252Y33561962D02*
X13968252Y33419105D01*
X13968252Y33419105D02*
X13944443Y33371486D01*
X13944443Y33371486D02*
X13920633Y33347676D01*
X13920633Y33347676D02*
X13873014Y33323867D01*
X13873014Y33323867D02*
X13801586Y33323867D01*
X14134919Y33657200D02*
X14230157Y33323867D01*
X14230157Y33323867D02*
X14325395Y33561962D01*
X14325395Y33561962D02*
X14420633Y33323867D01*
X14420633Y33323867D02*
X14515871Y33657200D01*
X14682539Y33347676D02*
X14730158Y33323867D01*
X14730158Y33323867D02*
X14825396Y33323867D01*
X14825396Y33323867D02*
X14873015Y33347676D01*
X14873015Y33347676D02*
X14896824Y33395296D01*
X14896824Y33395296D02*
X14896824Y33419105D01*
X14896824Y33419105D02*
X14873015Y33466724D01*
X14873015Y33466724D02*
X14825396Y33490534D01*
X14825396Y33490534D02*
X14753967Y33490534D01*
X14753967Y33490534D02*
X14706348Y33514343D01*
X14706348Y33514343D02*
X14682539Y33561962D01*
X14682539Y33561962D02*
X14682539Y33585772D01*
X14682539Y33585772D02*
X14706348Y33633391D01*
X14706348Y33633391D02*
X14753967Y33657200D01*
X14753967Y33657200D02*
X14825396Y33657200D01*
X14825396Y33657200D02*
X14873015Y33633391D01*
X8492064Y32852228D02*
X8587302Y32518895D01*
X8587302Y32518895D02*
X8682540Y32756990D01*
X8682540Y32756990D02*
X8777778Y32518895D01*
X8777778Y32518895D02*
X8873016Y32852228D01*
X9063493Y32518895D02*
X9063493Y33018895D01*
X9277779Y32518895D02*
X9277779Y32780800D01*
X9277779Y32780800D02*
X9253969Y32828419D01*
X9253969Y32828419D02*
X9206350Y32852228D01*
X9206350Y32852228D02*
X9134922Y32852228D01*
X9134922Y32852228D02*
X9087303Y32828419D01*
X9087303Y32828419D02*
X9063493Y32804609D01*
X9706350Y32542704D02*
X9658731Y32518895D01*
X9658731Y32518895D02*
X9563493Y32518895D01*
X9563493Y32518895D02*
X9515874Y32542704D01*
X9515874Y32542704D02*
X9492065Y32590324D01*
X9492065Y32590324D02*
X9492065Y32780800D01*
X9492065Y32780800D02*
X9515874Y32828419D01*
X9515874Y32828419D02*
X9563493Y32852228D01*
X9563493Y32852228D02*
X9658731Y32852228D01*
X9658731Y32852228D02*
X9706350Y32828419D01*
X9706350Y32828419D02*
X9730160Y32780800D01*
X9730160Y32780800D02*
X9730160Y32733181D01*
X9730160Y32733181D02*
X9492065Y32685562D01*
X9944445Y32518895D02*
X9944445Y32852228D01*
X9944445Y32756990D02*
X9968255Y32804609D01*
X9968255Y32804609D02*
X9992064Y32828419D01*
X9992064Y32828419D02*
X10039683Y32852228D01*
X10039683Y32852228D02*
X10087302Y32852228D01*
X10444445Y32542704D02*
X10396826Y32518895D01*
X10396826Y32518895D02*
X10301588Y32518895D01*
X10301588Y32518895D02*
X10253969Y32542704D01*
X10253969Y32542704D02*
X10230160Y32590324D01*
X10230160Y32590324D02*
X10230160Y32780800D01*
X10230160Y32780800D02*
X10253969Y32828419D01*
X10253969Y32828419D02*
X10301588Y32852228D01*
X10301588Y32852228D02*
X10396826Y32852228D01*
X10396826Y32852228D02*
X10444445Y32828419D01*
X10444445Y32828419D02*
X10468255Y32780800D01*
X10468255Y32780800D02*
X10468255Y32733181D01*
X10468255Y32733181D02*
X10230160Y32685562D01*
X11063492Y32518895D02*
X11063492Y32852228D01*
X11063492Y33018895D02*
X11039683Y32995085D01*
X11039683Y32995085D02*
X11063492Y32971276D01*
X11063492Y32971276D02*
X11087302Y32995085D01*
X11087302Y32995085D02*
X11063492Y33018895D01*
X11063492Y33018895D02*
X11063492Y32971276D01*
X11230159Y32852228D02*
X11420635Y32852228D01*
X11301587Y33018895D02*
X11301587Y32590324D01*
X11301587Y32590324D02*
X11325397Y32542704D01*
X11325397Y32542704D02*
X11373016Y32518895D01*
X11373016Y32518895D02*
X11420635Y32518895D01*
X11968253Y32518895D02*
X11968253Y32852228D01*
X11968253Y33018895D02*
X11944444Y32995085D01*
X11944444Y32995085D02*
X11968253Y32971276D01*
X11968253Y32971276D02*
X11992063Y32995085D01*
X11992063Y32995085D02*
X11968253Y33018895D01*
X11968253Y33018895D02*
X11968253Y32971276D01*
X12182539Y32542704D02*
X12230158Y32518895D01*
X12230158Y32518895D02*
X12325396Y32518895D01*
X12325396Y32518895D02*
X12373015Y32542704D01*
X12373015Y32542704D02*
X12396824Y32590324D01*
X12396824Y32590324D02*
X12396824Y32614133D01*
X12396824Y32614133D02*
X12373015Y32661752D01*
X12373015Y32661752D02*
X12325396Y32685562D01*
X12325396Y32685562D02*
X12253967Y32685562D01*
X12253967Y32685562D02*
X12206348Y32709371D01*
X12206348Y32709371D02*
X12182539Y32756990D01*
X12182539Y32756990D02*
X12182539Y32780800D01*
X12182539Y32780800D02*
X12206348Y32828419D01*
X12206348Y32828419D02*
X12253967Y32852228D01*
X12253967Y32852228D02*
X12325396Y32852228D01*
X12325396Y32852228D02*
X12373015Y32828419D01*
X13206348Y32518895D02*
X13206348Y32780800D01*
X13206348Y32780800D02*
X13182538Y32828419D01*
X13182538Y32828419D02*
X13134919Y32852228D01*
X13134919Y32852228D02*
X13039681Y32852228D01*
X13039681Y32852228D02*
X12992062Y32828419D01*
X13206348Y32542704D02*
X13158729Y32518895D01*
X13158729Y32518895D02*
X13039681Y32518895D01*
X13039681Y32518895D02*
X12992062Y32542704D01*
X12992062Y32542704D02*
X12968253Y32590324D01*
X12968253Y32590324D02*
X12968253Y32637943D01*
X12968253Y32637943D02*
X12992062Y32685562D01*
X12992062Y32685562D02*
X13039681Y32709371D01*
X13039681Y32709371D02*
X13158729Y32709371D01*
X13158729Y32709371D02*
X13206348Y32733181D01*
X13373015Y32852228D02*
X13563491Y32852228D01*
X13444443Y33018895D02*
X13444443Y32590324D01*
X13444443Y32590324D02*
X13468253Y32542704D01*
X13468253Y32542704D02*
X13515872Y32518895D01*
X13515872Y32518895D02*
X13563491Y32518895D01*
X14325395Y32518895D02*
X14325395Y32780800D01*
X14325395Y32780800D02*
X14301585Y32828419D01*
X14301585Y32828419D02*
X14253966Y32852228D01*
X14253966Y32852228D02*
X14158728Y32852228D01*
X14158728Y32852228D02*
X14111109Y32828419D01*
X14325395Y32542704D02*
X14277776Y32518895D01*
X14277776Y32518895D02*
X14158728Y32518895D01*
X14158728Y32518895D02*
X14111109Y32542704D01*
X14111109Y32542704D02*
X14087300Y32590324D01*
X14087300Y32590324D02*
X14087300Y32637943D01*
X14087300Y32637943D02*
X14111109Y32685562D01*
X14111109Y32685562D02*
X14158728Y32709371D01*
X14158728Y32709371D02*
X14277776Y32709371D01*
X14277776Y32709371D02*
X14325395Y32733181D01*
X14634919Y32518895D02*
X14587300Y32542704D01*
X14587300Y32542704D02*
X14563490Y32590324D01*
X14563490Y32590324D02*
X14563490Y33018895D01*
X14896824Y32518895D02*
X14849205Y32542704D01*
X14849205Y32542704D02*
X14825395Y32590324D01*
X14825395Y32590324D02*
X14825395Y33018895D01*
X8468255Y32047256D02*
X8658731Y32047256D01*
X8539683Y32213923D02*
X8539683Y31785352D01*
X8539683Y31785352D02*
X8563493Y31737732D01*
X8563493Y31737732D02*
X8611112Y31713923D01*
X8611112Y31713923D02*
X8658731Y31713923D01*
X8825397Y31713923D02*
X8825397Y32047256D01*
X8825397Y32213923D02*
X8801588Y32190113D01*
X8801588Y32190113D02*
X8825397Y32166304D01*
X8825397Y32166304D02*
X8849207Y32190113D01*
X8849207Y32190113D02*
X8825397Y32213923D01*
X8825397Y32213923D02*
X8825397Y32166304D01*
X9063492Y31713923D02*
X9063492Y32047256D01*
X9063492Y31999637D02*
X9087302Y32023447D01*
X9087302Y32023447D02*
X9134921Y32047256D01*
X9134921Y32047256D02*
X9206349Y32047256D01*
X9206349Y32047256D02*
X9253968Y32023447D01*
X9253968Y32023447D02*
X9277778Y31975828D01*
X9277778Y31975828D02*
X9277778Y31713923D01*
X9277778Y31975828D02*
X9301587Y32023447D01*
X9301587Y32023447D02*
X9349206Y32047256D01*
X9349206Y32047256D02*
X9420635Y32047256D01*
X9420635Y32047256D02*
X9468254Y32023447D01*
X9468254Y32023447D02*
X9492064Y31975828D01*
X9492064Y31975828D02*
X9492064Y31713923D01*
X9920635Y31737732D02*
X9873016Y31713923D01*
X9873016Y31713923D02*
X9777778Y31713923D01*
X9777778Y31713923D02*
X9730159Y31737732D01*
X9730159Y31737732D02*
X9706350Y31785352D01*
X9706350Y31785352D02*
X9706350Y31975828D01*
X9706350Y31975828D02*
X9730159Y32023447D01*
X9730159Y32023447D02*
X9777778Y32047256D01*
X9777778Y32047256D02*
X9873016Y32047256D01*
X9873016Y32047256D02*
X9920635Y32023447D01*
X9920635Y32023447D02*
X9944445Y31975828D01*
X9944445Y31975828D02*
X9944445Y31928209D01*
X9944445Y31928209D02*
X9706350Y31880590D01*
X10134921Y31737732D02*
X10182540Y31713923D01*
X10182540Y31713923D02*
X10277778Y31713923D01*
X10277778Y31713923D02*
X10325397Y31737732D01*
X10325397Y31737732D02*
X10349206Y31785352D01*
X10349206Y31785352D02*
X10349206Y31809161D01*
X10349206Y31809161D02*
X10325397Y31856780D01*
X10325397Y31856780D02*
X10277778Y31880590D01*
X10277778Y31880590D02*
X10206349Y31880590D01*
X10206349Y31880590D02*
X10158730Y31904399D01*
X10158730Y31904399D02*
X10134921Y31952018D01*
X10134921Y31952018D02*
X10134921Y31975828D01*
X10134921Y31975828D02*
X10158730Y32023447D01*
X10158730Y32023447D02*
X10206349Y32047256D01*
X10206349Y32047256D02*
X10277778Y32047256D01*
X10277778Y32047256D02*
X10325397Y32023447D01*
X10563492Y31761542D02*
X10587302Y31737732D01*
X10587302Y31737732D02*
X10563492Y31713923D01*
X10563492Y31713923D02*
X10539683Y31737732D01*
X10539683Y31737732D02*
X10563492Y31761542D01*
X10563492Y31761542D02*
X10563492Y31713923D01*
X11182539Y31713923D02*
X11182539Y32213923D01*
X11349206Y32047256D02*
X11539682Y32047256D01*
X11420634Y32213923D02*
X11420634Y31785352D01*
X11420634Y31785352D02*
X11444444Y31737732D01*
X11444444Y31737732D02*
X11492063Y31713923D01*
X11492063Y31713923D02*
X11539682Y31713923D01*
X12087300Y31713923D02*
X12087300Y32213923D01*
X12134919Y31904399D02*
X12277776Y31713923D01*
X12277776Y32047256D02*
X12087300Y31856780D01*
X12492062Y32047256D02*
X12492062Y31713923D01*
X12492062Y31999637D02*
X12515872Y32023447D01*
X12515872Y32023447D02*
X12563491Y32047256D01*
X12563491Y32047256D02*
X12634919Y32047256D01*
X12634919Y32047256D02*
X12682538Y32023447D01*
X12682538Y32023447D02*
X12706348Y31975828D01*
X12706348Y31975828D02*
X12706348Y31713923D01*
X13015872Y31713923D02*
X12968253Y31737732D01*
X12968253Y31737732D02*
X12944443Y31761542D01*
X12944443Y31761542D02*
X12920634Y31809161D01*
X12920634Y31809161D02*
X12920634Y31952018D01*
X12920634Y31952018D02*
X12944443Y31999637D01*
X12944443Y31999637D02*
X12968253Y32023447D01*
X12968253Y32023447D02*
X13015872Y32047256D01*
X13015872Y32047256D02*
X13087300Y32047256D01*
X13087300Y32047256D02*
X13134919Y32023447D01*
X13134919Y32023447D02*
X13158729Y31999637D01*
X13158729Y31999637D02*
X13182538Y31952018D01*
X13182538Y31952018D02*
X13182538Y31809161D01*
X13182538Y31809161D02*
X13158729Y31761542D01*
X13158729Y31761542D02*
X13134919Y31737732D01*
X13134919Y31737732D02*
X13087300Y31713923D01*
X13087300Y31713923D02*
X13015872Y31713923D01*
X13349205Y32047256D02*
X13444443Y31713923D01*
X13444443Y31713923D02*
X13539681Y31952018D01*
X13539681Y31952018D02*
X13634919Y31713923D01*
X13634919Y31713923D02*
X13730157Y32047256D01*
X13896825Y31737732D02*
X13944444Y31713923D01*
X13944444Y31713923D02*
X14039682Y31713923D01*
X14039682Y31713923D02*
X14087301Y31737732D01*
X14087301Y31737732D02*
X14111110Y31785352D01*
X14111110Y31785352D02*
X14111110Y31809161D01*
X14111110Y31809161D02*
X14087301Y31856780D01*
X14087301Y31856780D02*
X14039682Y31880590D01*
X14039682Y31880590D02*
X13968253Y31880590D01*
X13968253Y31880590D02*
X13920634Y31904399D01*
X13920634Y31904399D02*
X13896825Y31952018D01*
X13896825Y31952018D02*
X13896825Y31975828D01*
X13896825Y31975828D02*
X13920634Y32023447D01*
X13920634Y32023447D02*
X13968253Y32047256D01*
X13968253Y32047256D02*
X14039682Y32047256D01*
X14039682Y32047256D02*
X14087301Y32023447D01*
X14634920Y32047256D02*
X14825396Y32047256D01*
X14706348Y32213923D02*
X14706348Y31785352D01*
X14706348Y31785352D02*
X14730158Y31737732D01*
X14730158Y31737732D02*
X14777777Y31713923D01*
X14777777Y31713923D02*
X14825396Y31713923D01*
X14992062Y31713923D02*
X14992062Y32213923D01*
X15206348Y31713923D02*
X15206348Y31975828D01*
X15206348Y31975828D02*
X15182538Y32023447D01*
X15182538Y32023447D02*
X15134919Y32047256D01*
X15134919Y32047256D02*
X15063491Y32047256D01*
X15063491Y32047256D02*
X15015872Y32023447D01*
X15015872Y32023447D02*
X14992062Y31999637D01*
X15444443Y31713923D02*
X15444443Y32047256D01*
X15444443Y32213923D02*
X15420634Y32190113D01*
X15420634Y32190113D02*
X15444443Y32166304D01*
X15444443Y32166304D02*
X15468253Y32190113D01*
X15468253Y32190113D02*
X15444443Y32213923D01*
X15444443Y32213923D02*
X15444443Y32166304D01*
X15658729Y31737732D02*
X15706348Y31713923D01*
X15706348Y31713923D02*
X15801586Y31713923D01*
X15801586Y31713923D02*
X15849205Y31737732D01*
X15849205Y31737732D02*
X15873014Y31785352D01*
X15873014Y31785352D02*
X15873014Y31809161D01*
X15873014Y31809161D02*
X15849205Y31856780D01*
X15849205Y31856780D02*
X15801586Y31880590D01*
X15801586Y31880590D02*
X15730157Y31880590D01*
X15730157Y31880590D02*
X15682538Y31904399D01*
X15682538Y31904399D02*
X15658729Y31952018D01*
X15658729Y31952018D02*
X15658729Y31975828D01*
X15658729Y31975828D02*
X15682538Y32023447D01*
X15682538Y32023447D02*
X15730157Y32047256D01*
X15730157Y32047256D02*
X15801586Y32047256D01*
X15801586Y32047256D02*
X15849205Y32023447D01*
X8539683Y30908951D02*
X8539683Y31408951D01*
X8539683Y31218475D02*
X8587302Y31242284D01*
X8587302Y31242284D02*
X8682540Y31242284D01*
X8682540Y31242284D02*
X8730159Y31218475D01*
X8730159Y31218475D02*
X8753969Y31194665D01*
X8753969Y31194665D02*
X8777778Y31147046D01*
X8777778Y31147046D02*
X8777778Y31004189D01*
X8777778Y31004189D02*
X8753969Y30956570D01*
X8753969Y30956570D02*
X8730159Y30932760D01*
X8730159Y30932760D02*
X8682540Y30908951D01*
X8682540Y30908951D02*
X8587302Y30908951D01*
X8587302Y30908951D02*
X8539683Y30932760D01*
X9182540Y30932760D02*
X9134921Y30908951D01*
X9134921Y30908951D02*
X9039683Y30908951D01*
X9039683Y30908951D02*
X8992064Y30932760D01*
X8992064Y30932760D02*
X8968255Y30980380D01*
X8968255Y30980380D02*
X8968255Y31170856D01*
X8968255Y31170856D02*
X8992064Y31218475D01*
X8992064Y31218475D02*
X9039683Y31242284D01*
X9039683Y31242284D02*
X9134921Y31242284D01*
X9134921Y31242284D02*
X9182540Y31218475D01*
X9182540Y31218475D02*
X9206350Y31170856D01*
X9206350Y31170856D02*
X9206350Y31123237D01*
X9206350Y31123237D02*
X8968255Y31075618D01*
X9634921Y30932760D02*
X9587302Y30908951D01*
X9587302Y30908951D02*
X9492064Y30908951D01*
X9492064Y30908951D02*
X9444445Y30932760D01*
X9444445Y30932760D02*
X9420635Y30956570D01*
X9420635Y30956570D02*
X9396826Y31004189D01*
X9396826Y31004189D02*
X9396826Y31147046D01*
X9396826Y31147046D02*
X9420635Y31194665D01*
X9420635Y31194665D02*
X9444445Y31218475D01*
X9444445Y31218475D02*
X9492064Y31242284D01*
X9492064Y31242284D02*
X9587302Y31242284D01*
X9587302Y31242284D02*
X9634921Y31218475D01*
X10063492Y30908951D02*
X10063492Y31170856D01*
X10063492Y31170856D02*
X10039682Y31218475D01*
X10039682Y31218475D02*
X9992063Y31242284D01*
X9992063Y31242284D02*
X9896825Y31242284D01*
X9896825Y31242284D02*
X9849206Y31218475D01*
X10063492Y30932760D02*
X10015873Y30908951D01*
X10015873Y30908951D02*
X9896825Y30908951D01*
X9896825Y30908951D02*
X9849206Y30932760D01*
X9849206Y30932760D02*
X9825397Y30980380D01*
X9825397Y30980380D02*
X9825397Y31027999D01*
X9825397Y31027999D02*
X9849206Y31075618D01*
X9849206Y31075618D02*
X9896825Y31099427D01*
X9896825Y31099427D02*
X10015873Y31099427D01*
X10015873Y31099427D02*
X10063492Y31123237D01*
X10515873Y31242284D02*
X10515873Y30908951D01*
X10301587Y31242284D02*
X10301587Y30980380D01*
X10301587Y30980380D02*
X10325397Y30932760D01*
X10325397Y30932760D02*
X10373016Y30908951D01*
X10373016Y30908951D02*
X10444444Y30908951D01*
X10444444Y30908951D02*
X10492063Y30932760D01*
X10492063Y30932760D02*
X10515873Y30956570D01*
X10730159Y30932760D02*
X10777778Y30908951D01*
X10777778Y30908951D02*
X10873016Y30908951D01*
X10873016Y30908951D02*
X10920635Y30932760D01*
X10920635Y30932760D02*
X10944444Y30980380D01*
X10944444Y30980380D02*
X10944444Y31004189D01*
X10944444Y31004189D02*
X10920635Y31051808D01*
X10920635Y31051808D02*
X10873016Y31075618D01*
X10873016Y31075618D02*
X10801587Y31075618D01*
X10801587Y31075618D02*
X10753968Y31099427D01*
X10753968Y31099427D02*
X10730159Y31147046D01*
X10730159Y31147046D02*
X10730159Y31170856D01*
X10730159Y31170856D02*
X10753968Y31218475D01*
X10753968Y31218475D02*
X10801587Y31242284D01*
X10801587Y31242284D02*
X10873016Y31242284D01*
X10873016Y31242284D02*
X10920635Y31218475D01*
X11349206Y30932760D02*
X11301587Y30908951D01*
X11301587Y30908951D02*
X11206349Y30908951D01*
X11206349Y30908951D02*
X11158730Y30932760D01*
X11158730Y30932760D02*
X11134921Y30980380D01*
X11134921Y30980380D02*
X11134921Y31170856D01*
X11134921Y31170856D02*
X11158730Y31218475D01*
X11158730Y31218475D02*
X11206349Y31242284D01*
X11206349Y31242284D02*
X11301587Y31242284D01*
X11301587Y31242284D02*
X11349206Y31218475D01*
X11349206Y31218475D02*
X11373016Y31170856D01*
X11373016Y31170856D02*
X11373016Y31123237D01*
X11373016Y31123237D02*
X11134921Y31075618D01*
X11968253Y30908951D02*
X11968253Y31242284D01*
X11968253Y31408951D02*
X11944444Y31385141D01*
X11944444Y31385141D02*
X11968253Y31361332D01*
X11968253Y31361332D02*
X11992063Y31385141D01*
X11992063Y31385141D02*
X11968253Y31408951D01*
X11968253Y31408951D02*
X11968253Y31361332D01*
X12134920Y31242284D02*
X12325396Y31242284D01*
X12206348Y31408951D02*
X12206348Y30980380D01*
X12206348Y30980380D02*
X12230158Y30932760D01*
X12230158Y30932760D02*
X12277777Y30908951D01*
X12277777Y30908951D02*
X12325396Y30908951D01*
X12873014Y30908951D02*
X12873014Y31408951D01*
X12920633Y31099427D02*
X13063490Y30908951D01*
X13063490Y31242284D02*
X12873014Y31051808D01*
X13277776Y31242284D02*
X13277776Y30908951D01*
X13277776Y31194665D02*
X13301586Y31218475D01*
X13301586Y31218475D02*
X13349205Y31242284D01*
X13349205Y31242284D02*
X13420633Y31242284D01*
X13420633Y31242284D02*
X13468252Y31218475D01*
X13468252Y31218475D02*
X13492062Y31170856D01*
X13492062Y31170856D02*
X13492062Y30908951D01*
X13801586Y30908951D02*
X13753967Y30932760D01*
X13753967Y30932760D02*
X13730157Y30956570D01*
X13730157Y30956570D02*
X13706348Y31004189D01*
X13706348Y31004189D02*
X13706348Y31147046D01*
X13706348Y31147046D02*
X13730157Y31194665D01*
X13730157Y31194665D02*
X13753967Y31218475D01*
X13753967Y31218475D02*
X13801586Y31242284D01*
X13801586Y31242284D02*
X13873014Y31242284D01*
X13873014Y31242284D02*
X13920633Y31218475D01*
X13920633Y31218475D02*
X13944443Y31194665D01*
X13944443Y31194665D02*
X13968252Y31147046D01*
X13968252Y31147046D02*
X13968252Y31004189D01*
X13968252Y31004189D02*
X13944443Y30956570D01*
X13944443Y30956570D02*
X13920633Y30932760D01*
X13920633Y30932760D02*
X13873014Y30908951D01*
X13873014Y30908951D02*
X13801586Y30908951D01*
X14134919Y31242284D02*
X14230157Y30908951D01*
X14230157Y30908951D02*
X14325395Y31147046D01*
X14325395Y31147046D02*
X14420633Y30908951D01*
X14420633Y30908951D02*
X14515871Y31242284D01*
X14682539Y30932760D02*
X14730158Y30908951D01*
X14730158Y30908951D02*
X14825396Y30908951D01*
X14825396Y30908951D02*
X14873015Y30932760D01*
X14873015Y30932760D02*
X14896824Y30980380D01*
X14896824Y30980380D02*
X14896824Y31004189D01*
X14896824Y31004189D02*
X14873015Y31051808D01*
X14873015Y31051808D02*
X14825396Y31075618D01*
X14825396Y31075618D02*
X14753967Y31075618D01*
X14753967Y31075618D02*
X14706348Y31099427D01*
X14706348Y31099427D02*
X14682539Y31147046D01*
X14682539Y31147046D02*
X14682539Y31170856D01*
X14682539Y31170856D02*
X14706348Y31218475D01*
X14706348Y31218475D02*
X14753967Y31242284D01*
X14753967Y31242284D02*
X14825396Y31242284D01*
X14825396Y31242284D02*
X14873015Y31218475D01*
X8492064Y30437312D02*
X8587302Y30103979D01*
X8587302Y30103979D02*
X8682540Y30342074D01*
X8682540Y30342074D02*
X8777778Y30103979D01*
X8777778Y30103979D02*
X8873016Y30437312D01*
X9063493Y30103979D02*
X9063493Y30603979D01*
X9277779Y30103979D02*
X9277779Y30365884D01*
X9277779Y30365884D02*
X9253969Y30413503D01*
X9253969Y30413503D02*
X9206350Y30437312D01*
X9206350Y30437312D02*
X9134922Y30437312D01*
X9134922Y30437312D02*
X9087303Y30413503D01*
X9087303Y30413503D02*
X9063493Y30389693D01*
X9706350Y30127788D02*
X9658731Y30103979D01*
X9658731Y30103979D02*
X9563493Y30103979D01*
X9563493Y30103979D02*
X9515874Y30127788D01*
X9515874Y30127788D02*
X9492065Y30175408D01*
X9492065Y30175408D02*
X9492065Y30365884D01*
X9492065Y30365884D02*
X9515874Y30413503D01*
X9515874Y30413503D02*
X9563493Y30437312D01*
X9563493Y30437312D02*
X9658731Y30437312D01*
X9658731Y30437312D02*
X9706350Y30413503D01*
X9706350Y30413503D02*
X9730160Y30365884D01*
X9730160Y30365884D02*
X9730160Y30318265D01*
X9730160Y30318265D02*
X9492065Y30270646D01*
X9944445Y30103979D02*
X9944445Y30437312D01*
X9944445Y30342074D02*
X9968255Y30389693D01*
X9968255Y30389693D02*
X9992064Y30413503D01*
X9992064Y30413503D02*
X10039683Y30437312D01*
X10039683Y30437312D02*
X10087302Y30437312D01*
X10444445Y30127788D02*
X10396826Y30103979D01*
X10396826Y30103979D02*
X10301588Y30103979D01*
X10301588Y30103979D02*
X10253969Y30127788D01*
X10253969Y30127788D02*
X10230160Y30175408D01*
X10230160Y30175408D02*
X10230160Y30365884D01*
X10230160Y30365884D02*
X10253969Y30413503D01*
X10253969Y30413503D02*
X10301588Y30437312D01*
X10301588Y30437312D02*
X10396826Y30437312D01*
X10396826Y30437312D02*
X10444445Y30413503D01*
X10444445Y30413503D02*
X10468255Y30365884D01*
X10468255Y30365884D02*
X10468255Y30318265D01*
X10468255Y30318265D02*
X10230160Y30270646D01*
X11063492Y30103979D02*
X11063492Y30437312D01*
X11063492Y30603979D02*
X11039683Y30580169D01*
X11039683Y30580169D02*
X11063492Y30556360D01*
X11063492Y30556360D02*
X11087302Y30580169D01*
X11087302Y30580169D02*
X11063492Y30603979D01*
X11063492Y30603979D02*
X11063492Y30556360D01*
X11230159Y30437312D02*
X11420635Y30437312D01*
X11301587Y30603979D02*
X11301587Y30175408D01*
X11301587Y30175408D02*
X11325397Y30127788D01*
X11325397Y30127788D02*
X11373016Y30103979D01*
X11373016Y30103979D02*
X11420635Y30103979D01*
X11968253Y30103979D02*
X11968253Y30437312D01*
X11968253Y30603979D02*
X11944444Y30580169D01*
X11944444Y30580169D02*
X11968253Y30556360D01*
X11968253Y30556360D02*
X11992063Y30580169D01*
X11992063Y30580169D02*
X11968253Y30603979D01*
X11968253Y30603979D02*
X11968253Y30556360D01*
X12182539Y30127788D02*
X12230158Y30103979D01*
X12230158Y30103979D02*
X12325396Y30103979D01*
X12325396Y30103979D02*
X12373015Y30127788D01*
X12373015Y30127788D02*
X12396824Y30175408D01*
X12396824Y30175408D02*
X12396824Y30199217D01*
X12396824Y30199217D02*
X12373015Y30246836D01*
X12373015Y30246836D02*
X12325396Y30270646D01*
X12325396Y30270646D02*
X12253967Y30270646D01*
X12253967Y30270646D02*
X12206348Y30294455D01*
X12206348Y30294455D02*
X12182539Y30342074D01*
X12182539Y30342074D02*
X12182539Y30365884D01*
X12182539Y30365884D02*
X12206348Y30413503D01*
X12206348Y30413503D02*
X12253967Y30437312D01*
X12253967Y30437312D02*
X12325396Y30437312D01*
X12325396Y30437312D02*
X12373015Y30413503D01*
X12611110Y30437312D02*
X12611110Y30103979D01*
X12611110Y30389693D02*
X12634920Y30413503D01*
X12634920Y30413503D02*
X12682539Y30437312D01*
X12682539Y30437312D02*
X12753967Y30437312D01*
X12753967Y30437312D02*
X12801586Y30413503D01*
X12801586Y30413503D02*
X12825396Y30365884D01*
X12825396Y30365884D02*
X12825396Y30103979D01*
X13087301Y30603979D02*
X13039682Y30508741D01*
X13230158Y30437312D02*
X13420634Y30437312D01*
X13301586Y30603979D02*
X13301586Y30175408D01*
X13301586Y30175408D02*
X13325396Y30127788D01*
X13325396Y30127788D02*
X13373015Y30103979D01*
X13373015Y30103979D02*
X13420634Y30103979D01*
X13611110Y30127788D02*
X13611110Y30103979D01*
X13611110Y30103979D02*
X13587300Y30056360D01*
X13587300Y30056360D02*
X13563491Y30032550D01*
X13825395Y30103979D02*
X13825395Y30603979D01*
X13825395Y30413503D02*
X13873014Y30437312D01*
X13873014Y30437312D02*
X13968252Y30437312D01*
X13968252Y30437312D02*
X14015871Y30413503D01*
X14015871Y30413503D02*
X14039681Y30389693D01*
X14039681Y30389693D02*
X14063490Y30342074D01*
X14063490Y30342074D02*
X14063490Y30199217D01*
X14063490Y30199217D02*
X14039681Y30151598D01*
X14039681Y30151598D02*
X14015871Y30127788D01*
X14015871Y30127788D02*
X13968252Y30103979D01*
X13968252Y30103979D02*
X13873014Y30103979D01*
X13873014Y30103979D02*
X13825395Y30127788D01*
X14230157Y30437312D02*
X14349205Y30103979D01*
X14468252Y30437312D02*
X14349205Y30103979D01*
X14349205Y30103979D02*
X14301586Y29984931D01*
X14301586Y29984931D02*
X14277776Y29961122D01*
X14277776Y29961122D02*
X14230157Y29937312D01*
X8515874Y29322816D02*
X8563493Y29299007D01*
X8563493Y29299007D02*
X8658731Y29299007D01*
X8658731Y29299007D02*
X8706350Y29322816D01*
X8706350Y29322816D02*
X8730159Y29370436D01*
X8730159Y29370436D02*
X8730159Y29394245D01*
X8730159Y29394245D02*
X8706350Y29441864D01*
X8706350Y29441864D02*
X8658731Y29465674D01*
X8658731Y29465674D02*
X8587302Y29465674D01*
X8587302Y29465674D02*
X8539683Y29489483D01*
X8539683Y29489483D02*
X8515874Y29537102D01*
X8515874Y29537102D02*
X8515874Y29560912D01*
X8515874Y29560912D02*
X8539683Y29608531D01*
X8539683Y29608531D02*
X8587302Y29632340D01*
X8587302Y29632340D02*
X8658731Y29632340D01*
X8658731Y29632340D02*
X8706350Y29608531D01*
X9158731Y29632340D02*
X9158731Y29299007D01*
X8944445Y29632340D02*
X8944445Y29370436D01*
X8944445Y29370436D02*
X8968255Y29322816D01*
X8968255Y29322816D02*
X9015874Y29299007D01*
X9015874Y29299007D02*
X9087302Y29299007D01*
X9087302Y29299007D02*
X9134921Y29322816D01*
X9134921Y29322816D02*
X9158731Y29346626D01*
X9396826Y29299007D02*
X9396826Y29799007D01*
X9396826Y29608531D02*
X9444445Y29632340D01*
X9444445Y29632340D02*
X9539683Y29632340D01*
X9539683Y29632340D02*
X9587302Y29608531D01*
X9587302Y29608531D02*
X9611112Y29584721D01*
X9611112Y29584721D02*
X9634921Y29537102D01*
X9634921Y29537102D02*
X9634921Y29394245D01*
X9634921Y29394245D02*
X9611112Y29346626D01*
X9611112Y29346626D02*
X9587302Y29322816D01*
X9587302Y29322816D02*
X9539683Y29299007D01*
X9539683Y29299007D02*
X9444445Y29299007D01*
X9444445Y29299007D02*
X9396826Y29322816D01*
X9777779Y29632340D02*
X9968255Y29632340D01*
X9849207Y29799007D02*
X9849207Y29370436D01*
X9849207Y29370436D02*
X9873017Y29322816D01*
X9873017Y29322816D02*
X9920636Y29299007D01*
X9920636Y29299007D02*
X9968255Y29299007D01*
X10134921Y29299007D02*
X10134921Y29632340D01*
X10134921Y29537102D02*
X10158731Y29584721D01*
X10158731Y29584721D02*
X10182540Y29608531D01*
X10182540Y29608531D02*
X10230159Y29632340D01*
X10230159Y29632340D02*
X10277778Y29632340D01*
X10658731Y29299007D02*
X10658731Y29560912D01*
X10658731Y29560912D02*
X10634921Y29608531D01*
X10634921Y29608531D02*
X10587302Y29632340D01*
X10587302Y29632340D02*
X10492064Y29632340D01*
X10492064Y29632340D02*
X10444445Y29608531D01*
X10658731Y29322816D02*
X10611112Y29299007D01*
X10611112Y29299007D02*
X10492064Y29299007D01*
X10492064Y29299007D02*
X10444445Y29322816D01*
X10444445Y29322816D02*
X10420636Y29370436D01*
X10420636Y29370436D02*
X10420636Y29418055D01*
X10420636Y29418055D02*
X10444445Y29465674D01*
X10444445Y29465674D02*
X10492064Y29489483D01*
X10492064Y29489483D02*
X10611112Y29489483D01*
X10611112Y29489483D02*
X10658731Y29513293D01*
X11111112Y29322816D02*
X11063493Y29299007D01*
X11063493Y29299007D02*
X10968255Y29299007D01*
X10968255Y29299007D02*
X10920636Y29322816D01*
X10920636Y29322816D02*
X10896826Y29346626D01*
X10896826Y29346626D02*
X10873017Y29394245D01*
X10873017Y29394245D02*
X10873017Y29537102D01*
X10873017Y29537102D02*
X10896826Y29584721D01*
X10896826Y29584721D02*
X10920636Y29608531D01*
X10920636Y29608531D02*
X10968255Y29632340D01*
X10968255Y29632340D02*
X11063493Y29632340D01*
X11063493Y29632340D02*
X11111112Y29608531D01*
X11253969Y29632340D02*
X11444445Y29632340D01*
X11325397Y29799007D02*
X11325397Y29370436D01*
X11325397Y29370436D02*
X11349207Y29322816D01*
X11349207Y29322816D02*
X11396826Y29299007D01*
X11396826Y29299007D02*
X11444445Y29299007D01*
X11611111Y29299007D02*
X11611111Y29632340D01*
X11611111Y29799007D02*
X11587302Y29775197D01*
X11587302Y29775197D02*
X11611111Y29751388D01*
X11611111Y29751388D02*
X11634921Y29775197D01*
X11634921Y29775197D02*
X11611111Y29799007D01*
X11611111Y29799007D02*
X11611111Y29751388D01*
X11849206Y29632340D02*
X11849206Y29299007D01*
X11849206Y29584721D02*
X11873016Y29608531D01*
X11873016Y29608531D02*
X11920635Y29632340D01*
X11920635Y29632340D02*
X11992063Y29632340D01*
X11992063Y29632340D02*
X12039682Y29608531D01*
X12039682Y29608531D02*
X12063492Y29560912D01*
X12063492Y29560912D02*
X12063492Y29299007D01*
X12515873Y29632340D02*
X12515873Y29227578D01*
X12515873Y29227578D02*
X12492063Y29179959D01*
X12492063Y29179959D02*
X12468254Y29156150D01*
X12468254Y29156150D02*
X12420635Y29132340D01*
X12420635Y29132340D02*
X12349206Y29132340D01*
X12349206Y29132340D02*
X12301587Y29156150D01*
X12515873Y29322816D02*
X12468254Y29299007D01*
X12468254Y29299007D02*
X12373016Y29299007D01*
X12373016Y29299007D02*
X12325397Y29322816D01*
X12325397Y29322816D02*
X12301587Y29346626D01*
X12301587Y29346626D02*
X12277778Y29394245D01*
X12277778Y29394245D02*
X12277778Y29537102D01*
X12277778Y29537102D02*
X12301587Y29584721D01*
X12301587Y29584721D02*
X12325397Y29608531D01*
X12325397Y29608531D02*
X12373016Y29632340D01*
X12373016Y29632340D02*
X12468254Y29632340D01*
X12468254Y29632340D02*
X12515873Y29608531D01*
X13087301Y29632340D02*
X13182539Y29299007D01*
X13182539Y29299007D02*
X13277777Y29537102D01*
X13277777Y29537102D02*
X13373015Y29299007D01*
X13373015Y29299007D02*
X13468253Y29632340D01*
X13658730Y29299007D02*
X13658730Y29799007D01*
X13873016Y29299007D02*
X13873016Y29560912D01*
X13873016Y29560912D02*
X13849206Y29608531D01*
X13849206Y29608531D02*
X13801587Y29632340D01*
X13801587Y29632340D02*
X13730159Y29632340D01*
X13730159Y29632340D02*
X13682540Y29608531D01*
X13682540Y29608531D02*
X13658730Y29584721D01*
X14301587Y29322816D02*
X14253968Y29299007D01*
X14253968Y29299007D02*
X14158730Y29299007D01*
X14158730Y29299007D02*
X14111111Y29322816D01*
X14111111Y29322816D02*
X14087302Y29370436D01*
X14087302Y29370436D02*
X14087302Y29560912D01*
X14087302Y29560912D02*
X14111111Y29608531D01*
X14111111Y29608531D02*
X14158730Y29632340D01*
X14158730Y29632340D02*
X14253968Y29632340D01*
X14253968Y29632340D02*
X14301587Y29608531D01*
X14301587Y29608531D02*
X14325397Y29560912D01*
X14325397Y29560912D02*
X14325397Y29513293D01*
X14325397Y29513293D02*
X14087302Y29465674D01*
X14539682Y29299007D02*
X14539682Y29632340D01*
X14539682Y29537102D02*
X14563492Y29584721D01*
X14563492Y29584721D02*
X14587301Y29608531D01*
X14587301Y29608531D02*
X14634920Y29632340D01*
X14634920Y29632340D02*
X14682539Y29632340D01*
X15039682Y29322816D02*
X14992063Y29299007D01*
X14992063Y29299007D02*
X14896825Y29299007D01*
X14896825Y29299007D02*
X14849206Y29322816D01*
X14849206Y29322816D02*
X14825397Y29370436D01*
X14825397Y29370436D02*
X14825397Y29560912D01*
X14825397Y29560912D02*
X14849206Y29608531D01*
X14849206Y29608531D02*
X14896825Y29632340D01*
X14896825Y29632340D02*
X14992063Y29632340D01*
X14992063Y29632340D02*
X15039682Y29608531D01*
X15039682Y29608531D02*
X15063492Y29560912D01*
X15063492Y29560912D02*
X15063492Y29513293D01*
X15063492Y29513293D02*
X14825397Y29465674D01*
X15658729Y29299007D02*
X15658729Y29632340D01*
X15658729Y29799007D02*
X15634920Y29775197D01*
X15634920Y29775197D02*
X15658729Y29751388D01*
X15658729Y29751388D02*
X15682539Y29775197D01*
X15682539Y29775197D02*
X15658729Y29799007D01*
X15658729Y29799007D02*
X15658729Y29751388D01*
X15825396Y29632340D02*
X16015872Y29632340D01*
X15896824Y29799007D02*
X15896824Y29370436D01*
X15896824Y29370436D02*
X15920634Y29322816D01*
X15920634Y29322816D02*
X15968253Y29299007D01*
X15968253Y29299007D02*
X16015872Y29299007D01*
X8920635Y28494035D02*
X8920635Y28827368D01*
X8920635Y28994035D02*
X8896826Y28970225D01*
X8896826Y28970225D02*
X8920635Y28946416D01*
X8920635Y28946416D02*
X8944445Y28970225D01*
X8944445Y28970225D02*
X8920635Y28994035D01*
X8920635Y28994035D02*
X8920635Y28946416D01*
X9134921Y28517844D02*
X9182540Y28494035D01*
X9182540Y28494035D02*
X9277778Y28494035D01*
X9277778Y28494035D02*
X9325397Y28517844D01*
X9325397Y28517844D02*
X9349206Y28565464D01*
X9349206Y28565464D02*
X9349206Y28589273D01*
X9349206Y28589273D02*
X9325397Y28636892D01*
X9325397Y28636892D02*
X9277778Y28660702D01*
X9277778Y28660702D02*
X9206349Y28660702D01*
X9206349Y28660702D02*
X9158730Y28684511D01*
X9158730Y28684511D02*
X9134921Y28732130D01*
X9134921Y28732130D02*
X9134921Y28755940D01*
X9134921Y28755940D02*
X9158730Y28803559D01*
X9158730Y28803559D02*
X9206349Y28827368D01*
X9206349Y28827368D02*
X9277778Y28827368D01*
X9277778Y28827368D02*
X9325397Y28803559D01*
X9587302Y28517844D02*
X9587302Y28494035D01*
X9587302Y28494035D02*
X9563492Y28446416D01*
X9563492Y28446416D02*
X9539683Y28422606D01*
X10111111Y28827368D02*
X10301587Y28827368D01*
X10182539Y28494035D02*
X10182539Y28922606D01*
X10182539Y28922606D02*
X10206349Y28970225D01*
X10206349Y28970225D02*
X10253968Y28994035D01*
X10253968Y28994035D02*
X10301587Y28994035D01*
X10468253Y28494035D02*
X10468253Y28827368D01*
X10468253Y28732130D02*
X10492063Y28779749D01*
X10492063Y28779749D02*
X10515872Y28803559D01*
X10515872Y28803559D02*
X10563491Y28827368D01*
X10563491Y28827368D02*
X10611110Y28827368D01*
X10849206Y28494035D02*
X10801587Y28517844D01*
X10801587Y28517844D02*
X10777777Y28541654D01*
X10777777Y28541654D02*
X10753968Y28589273D01*
X10753968Y28589273D02*
X10753968Y28732130D01*
X10753968Y28732130D02*
X10777777Y28779749D01*
X10777777Y28779749D02*
X10801587Y28803559D01*
X10801587Y28803559D02*
X10849206Y28827368D01*
X10849206Y28827368D02*
X10920634Y28827368D01*
X10920634Y28827368D02*
X10968253Y28803559D01*
X10968253Y28803559D02*
X10992063Y28779749D01*
X10992063Y28779749D02*
X11015872Y28732130D01*
X11015872Y28732130D02*
X11015872Y28589273D01*
X11015872Y28589273D02*
X10992063Y28541654D01*
X10992063Y28541654D02*
X10968253Y28517844D01*
X10968253Y28517844D02*
X10920634Y28494035D01*
X10920634Y28494035D02*
X10849206Y28494035D01*
X11230158Y28494035D02*
X11230158Y28827368D01*
X11230158Y28779749D02*
X11253968Y28803559D01*
X11253968Y28803559D02*
X11301587Y28827368D01*
X11301587Y28827368D02*
X11373015Y28827368D01*
X11373015Y28827368D02*
X11420634Y28803559D01*
X11420634Y28803559D02*
X11444444Y28755940D01*
X11444444Y28755940D02*
X11444444Y28494035D01*
X11444444Y28755940D02*
X11468253Y28803559D01*
X11468253Y28803559D02*
X11515872Y28827368D01*
X11515872Y28827368D02*
X11587301Y28827368D01*
X11587301Y28827368D02*
X11634920Y28803559D01*
X11634920Y28803559D02*
X11658730Y28755940D01*
X11658730Y28755940D02*
X11658730Y28494035D01*
X12230158Y28827368D02*
X12325396Y28494035D01*
X12325396Y28494035D02*
X12420634Y28732130D01*
X12420634Y28732130D02*
X12515872Y28494035D01*
X12515872Y28494035D02*
X12611110Y28827368D01*
X12801587Y28494035D02*
X12801587Y28994035D01*
X13015873Y28494035D02*
X13015873Y28755940D01*
X13015873Y28755940D02*
X12992063Y28803559D01*
X12992063Y28803559D02*
X12944444Y28827368D01*
X12944444Y28827368D02*
X12873016Y28827368D01*
X12873016Y28827368D02*
X12825397Y28803559D01*
X12825397Y28803559D02*
X12801587Y28779749D01*
X13444444Y28517844D02*
X13396825Y28494035D01*
X13396825Y28494035D02*
X13301587Y28494035D01*
X13301587Y28494035D02*
X13253968Y28517844D01*
X13253968Y28517844D02*
X13230159Y28565464D01*
X13230159Y28565464D02*
X13230159Y28755940D01*
X13230159Y28755940D02*
X13253968Y28803559D01*
X13253968Y28803559D02*
X13301587Y28827368D01*
X13301587Y28827368D02*
X13396825Y28827368D01*
X13396825Y28827368D02*
X13444444Y28803559D01*
X13444444Y28803559D02*
X13468254Y28755940D01*
X13468254Y28755940D02*
X13468254Y28708321D01*
X13468254Y28708321D02*
X13230159Y28660702D01*
X13682539Y28494035D02*
X13682539Y28827368D01*
X13682539Y28732130D02*
X13706349Y28779749D01*
X13706349Y28779749D02*
X13730158Y28803559D01*
X13730158Y28803559D02*
X13777777Y28827368D01*
X13777777Y28827368D02*
X13825396Y28827368D01*
X14182539Y28517844D02*
X14134920Y28494035D01*
X14134920Y28494035D02*
X14039682Y28494035D01*
X14039682Y28494035D02*
X13992063Y28517844D01*
X13992063Y28517844D02*
X13968254Y28565464D01*
X13968254Y28565464D02*
X13968254Y28755940D01*
X13968254Y28755940D02*
X13992063Y28803559D01*
X13992063Y28803559D02*
X14039682Y28827368D01*
X14039682Y28827368D02*
X14134920Y28827368D01*
X14134920Y28827368D02*
X14182539Y28803559D01*
X14182539Y28803559D02*
X14206349Y28755940D01*
X14206349Y28755940D02*
X14206349Y28708321D01*
X14206349Y28708321D02*
X13968254Y28660702D01*
X14801586Y28494035D02*
X14801586Y28827368D01*
X14801586Y28994035D02*
X14777777Y28970225D01*
X14777777Y28970225D02*
X14801586Y28946416D01*
X14801586Y28946416D02*
X14825396Y28970225D01*
X14825396Y28970225D02*
X14801586Y28994035D01*
X14801586Y28994035D02*
X14801586Y28946416D01*
X14968253Y28827368D02*
X15158729Y28827368D01*
X15039681Y28994035D02*
X15039681Y28565464D01*
X15039681Y28565464D02*
X15063491Y28517844D01*
X15063491Y28517844D02*
X15111110Y28494035D01*
X15111110Y28494035D02*
X15158729Y28494035D01*
X8539683Y27689063D02*
X8539683Y28022396D01*
X8539683Y28189063D02*
X8515874Y28165253D01*
X8515874Y28165253D02*
X8539683Y28141444D01*
X8539683Y28141444D02*
X8563493Y28165253D01*
X8563493Y28165253D02*
X8539683Y28189063D01*
X8539683Y28189063D02*
X8539683Y28141444D01*
X8753969Y27712872D02*
X8801588Y27689063D01*
X8801588Y27689063D02*
X8896826Y27689063D01*
X8896826Y27689063D02*
X8944445Y27712872D01*
X8944445Y27712872D02*
X8968254Y27760492D01*
X8968254Y27760492D02*
X8968254Y27784301D01*
X8968254Y27784301D02*
X8944445Y27831920D01*
X8944445Y27831920D02*
X8896826Y27855730D01*
X8896826Y27855730D02*
X8825397Y27855730D01*
X8825397Y27855730D02*
X8777778Y27879539D01*
X8777778Y27879539D02*
X8753969Y27927158D01*
X8753969Y27927158D02*
X8753969Y27950968D01*
X8753969Y27950968D02*
X8777778Y27998587D01*
X8777778Y27998587D02*
X8825397Y28022396D01*
X8825397Y28022396D02*
X8896826Y28022396D01*
X8896826Y28022396D02*
X8944445Y27998587D01*
X9182540Y28022396D02*
X9182540Y27689063D01*
X9182540Y27974777D02*
X9206350Y27998587D01*
X9206350Y27998587D02*
X9253969Y28022396D01*
X9253969Y28022396D02*
X9325397Y28022396D01*
X9325397Y28022396D02*
X9373016Y27998587D01*
X9373016Y27998587D02*
X9396826Y27950968D01*
X9396826Y27950968D02*
X9396826Y27689063D01*
X9658731Y28189063D02*
X9611112Y28093825D01*
X9801588Y28022396D02*
X9992064Y28022396D01*
X9873016Y28189063D02*
X9873016Y27760492D01*
X9873016Y27760492D02*
X9896826Y27712872D01*
X9896826Y27712872D02*
X9944445Y27689063D01*
X9944445Y27689063D02*
X9992064Y27689063D01*
X10182540Y27712872D02*
X10182540Y27689063D01*
X10182540Y27689063D02*
X10158730Y27641444D01*
X10158730Y27641444D02*
X10134921Y27617634D01*
X10706349Y28022396D02*
X10896825Y28022396D01*
X10777777Y27689063D02*
X10777777Y28117634D01*
X10777777Y28117634D02*
X10801587Y28165253D01*
X10801587Y28165253D02*
X10849206Y28189063D01*
X10849206Y28189063D02*
X10896825Y28189063D01*
X11063491Y27689063D02*
X11063491Y28022396D01*
X11063491Y27927158D02*
X11087301Y27974777D01*
X11087301Y27974777D02*
X11111110Y27998587D01*
X11111110Y27998587D02*
X11158729Y28022396D01*
X11158729Y28022396D02*
X11206348Y28022396D01*
X11444444Y27689063D02*
X11396825Y27712872D01*
X11396825Y27712872D02*
X11373015Y27736682D01*
X11373015Y27736682D02*
X11349206Y27784301D01*
X11349206Y27784301D02*
X11349206Y27927158D01*
X11349206Y27927158D02*
X11373015Y27974777D01*
X11373015Y27974777D02*
X11396825Y27998587D01*
X11396825Y27998587D02*
X11444444Y28022396D01*
X11444444Y28022396D02*
X11515872Y28022396D01*
X11515872Y28022396D02*
X11563491Y27998587D01*
X11563491Y27998587D02*
X11587301Y27974777D01*
X11587301Y27974777D02*
X11611110Y27927158D01*
X11611110Y27927158D02*
X11611110Y27784301D01*
X11611110Y27784301D02*
X11587301Y27736682D01*
X11587301Y27736682D02*
X11563491Y27712872D01*
X11563491Y27712872D02*
X11515872Y27689063D01*
X11515872Y27689063D02*
X11444444Y27689063D01*
X11825396Y27689063D02*
X11825396Y28022396D01*
X11825396Y27974777D02*
X11849206Y27998587D01*
X11849206Y27998587D02*
X11896825Y28022396D01*
X11896825Y28022396D02*
X11968253Y28022396D01*
X11968253Y28022396D02*
X12015872Y27998587D01*
X12015872Y27998587D02*
X12039682Y27950968D01*
X12039682Y27950968D02*
X12039682Y27689063D01*
X12039682Y27950968D02*
X12063491Y27998587D01*
X12063491Y27998587D02*
X12111110Y28022396D01*
X12111110Y28022396D02*
X12182539Y28022396D01*
X12182539Y28022396D02*
X12230158Y27998587D01*
X12230158Y27998587D02*
X12253968Y27950968D01*
X12253968Y27950968D02*
X12253968Y27689063D01*
X12825396Y28022396D02*
X12920634Y27689063D01*
X12920634Y27689063D02*
X13015872Y27927158D01*
X13015872Y27927158D02*
X13111110Y27689063D01*
X13111110Y27689063D02*
X13206348Y28022396D01*
X13396825Y27689063D02*
X13396825Y28189063D01*
X13611111Y27689063D02*
X13611111Y27950968D01*
X13611111Y27950968D02*
X13587301Y27998587D01*
X13587301Y27998587D02*
X13539682Y28022396D01*
X13539682Y28022396D02*
X13468254Y28022396D01*
X13468254Y28022396D02*
X13420635Y27998587D01*
X13420635Y27998587D02*
X13396825Y27974777D01*
X14039682Y27712872D02*
X13992063Y27689063D01*
X13992063Y27689063D02*
X13896825Y27689063D01*
X13896825Y27689063D02*
X13849206Y27712872D01*
X13849206Y27712872D02*
X13825397Y27760492D01*
X13825397Y27760492D02*
X13825397Y27950968D01*
X13825397Y27950968D02*
X13849206Y27998587D01*
X13849206Y27998587D02*
X13896825Y28022396D01*
X13896825Y28022396D02*
X13992063Y28022396D01*
X13992063Y28022396D02*
X14039682Y27998587D01*
X14039682Y27998587D02*
X14063492Y27950968D01*
X14063492Y27950968D02*
X14063492Y27903349D01*
X14063492Y27903349D02*
X13825397Y27855730D01*
X14277777Y27689063D02*
X14277777Y28022396D01*
X14277777Y27927158D02*
X14301587Y27974777D01*
X14301587Y27974777D02*
X14325396Y27998587D01*
X14325396Y27998587D02*
X14373015Y28022396D01*
X14373015Y28022396D02*
X14420634Y28022396D01*
X14777777Y27712872D02*
X14730158Y27689063D01*
X14730158Y27689063D02*
X14634920Y27689063D01*
X14634920Y27689063D02*
X14587301Y27712872D01*
X14587301Y27712872D02*
X14563492Y27760492D01*
X14563492Y27760492D02*
X14563492Y27950968D01*
X14563492Y27950968D02*
X14587301Y27998587D01*
X14587301Y27998587D02*
X14634920Y28022396D01*
X14634920Y28022396D02*
X14730158Y28022396D01*
X14730158Y28022396D02*
X14777777Y27998587D01*
X14777777Y27998587D02*
X14801587Y27950968D01*
X14801587Y27950968D02*
X14801587Y27903349D01*
X14801587Y27903349D02*
X14563492Y27855730D01*
X8539683Y26884091D02*
X8539683Y27217424D01*
X8539683Y27384091D02*
X8515874Y27360281D01*
X8515874Y27360281D02*
X8539683Y27336472D01*
X8539683Y27336472D02*
X8563493Y27360281D01*
X8563493Y27360281D02*
X8539683Y27384091D01*
X8539683Y27384091D02*
X8539683Y27336472D01*
X8706350Y27217424D02*
X8896826Y27217424D01*
X8777778Y27384091D02*
X8777778Y26955520D01*
X8777778Y26955520D02*
X8801588Y26907900D01*
X8801588Y26907900D02*
X8849207Y26884091D01*
X8849207Y26884091D02*
X8896826Y26884091D01*
X9444444Y26884091D02*
X9444444Y27217424D01*
X9444444Y27384091D02*
X9420635Y27360281D01*
X9420635Y27360281D02*
X9444444Y27336472D01*
X9444444Y27336472D02*
X9468254Y27360281D01*
X9468254Y27360281D02*
X9444444Y27384091D01*
X9444444Y27384091D02*
X9444444Y27336472D01*
X9658730Y26907900D02*
X9706349Y26884091D01*
X9706349Y26884091D02*
X9801587Y26884091D01*
X9801587Y26884091D02*
X9849206Y26907900D01*
X9849206Y26907900D02*
X9873015Y26955520D01*
X9873015Y26955520D02*
X9873015Y26979329D01*
X9873015Y26979329D02*
X9849206Y27026948D01*
X9849206Y27026948D02*
X9801587Y27050758D01*
X9801587Y27050758D02*
X9730158Y27050758D01*
X9730158Y27050758D02*
X9682539Y27074567D01*
X9682539Y27074567D02*
X9658730Y27122186D01*
X9658730Y27122186D02*
X9658730Y27145996D01*
X9658730Y27145996D02*
X9682539Y27193615D01*
X9682539Y27193615D02*
X9730158Y27217424D01*
X9730158Y27217424D02*
X9801587Y27217424D01*
X9801587Y27217424D02*
X9849206Y27193615D01*
X10111111Y26907900D02*
X10111111Y26884091D01*
X10111111Y26884091D02*
X10087301Y26836472D01*
X10087301Y26836472D02*
X10063492Y26812662D01*
X10658729Y27217424D02*
X10753967Y26884091D01*
X10753967Y26884091D02*
X10849205Y27122186D01*
X10849205Y27122186D02*
X10944443Y26884091D01*
X10944443Y26884091D02*
X11039681Y27217424D01*
X11230158Y26884091D02*
X11230158Y27384091D01*
X11444444Y26884091D02*
X11444444Y27145996D01*
X11444444Y27145996D02*
X11420634Y27193615D01*
X11420634Y27193615D02*
X11373015Y27217424D01*
X11373015Y27217424D02*
X11301587Y27217424D01*
X11301587Y27217424D02*
X11253968Y27193615D01*
X11253968Y27193615D02*
X11230158Y27169805D01*
X11682539Y26884091D02*
X11682539Y27217424D01*
X11682539Y27384091D02*
X11658730Y27360281D01*
X11658730Y27360281D02*
X11682539Y27336472D01*
X11682539Y27336472D02*
X11706349Y27360281D01*
X11706349Y27360281D02*
X11682539Y27384091D01*
X11682539Y27384091D02*
X11682539Y27336472D01*
X12134920Y26907900D02*
X12087301Y26884091D01*
X12087301Y26884091D02*
X11992063Y26884091D01*
X11992063Y26884091D02*
X11944444Y26907900D01*
X11944444Y26907900D02*
X11920634Y26931710D01*
X11920634Y26931710D02*
X11896825Y26979329D01*
X11896825Y26979329D02*
X11896825Y27122186D01*
X11896825Y27122186D02*
X11920634Y27169805D01*
X11920634Y27169805D02*
X11944444Y27193615D01*
X11944444Y27193615D02*
X11992063Y27217424D01*
X11992063Y27217424D02*
X12087301Y27217424D01*
X12087301Y27217424D02*
X12134920Y27193615D01*
X12349205Y26884091D02*
X12349205Y27384091D01*
X12563491Y26884091D02*
X12563491Y27145996D01*
X12563491Y27145996D02*
X12539681Y27193615D01*
X12539681Y27193615D02*
X12492062Y27217424D01*
X12492062Y27217424D02*
X12420634Y27217424D01*
X12420634Y27217424D02*
X12373015Y27193615D01*
X12373015Y27193615D02*
X12349205Y27169805D01*
X12992062Y26907900D02*
X12944443Y26884091D01*
X12944443Y26884091D02*
X12849205Y26884091D01*
X12849205Y26884091D02*
X12801586Y26907900D01*
X12801586Y26907900D02*
X12777777Y26955520D01*
X12777777Y26955520D02*
X12777777Y27145996D01*
X12777777Y27145996D02*
X12801586Y27193615D01*
X12801586Y27193615D02*
X12849205Y27217424D01*
X12849205Y27217424D02*
X12944443Y27217424D01*
X12944443Y27217424D02*
X12992062Y27193615D01*
X12992062Y27193615D02*
X13015872Y27145996D01*
X13015872Y27145996D02*
X13015872Y27098377D01*
X13015872Y27098377D02*
X12777777Y27050758D01*
X13182538Y27217424D02*
X13301586Y26884091D01*
X13301586Y26884091D02*
X13420633Y27217424D01*
X13801585Y26907900D02*
X13753966Y26884091D01*
X13753966Y26884091D02*
X13658728Y26884091D01*
X13658728Y26884091D02*
X13611109Y26907900D01*
X13611109Y26907900D02*
X13587300Y26955520D01*
X13587300Y26955520D02*
X13587300Y27145996D01*
X13587300Y27145996D02*
X13611109Y27193615D01*
X13611109Y27193615D02*
X13658728Y27217424D01*
X13658728Y27217424D02*
X13753966Y27217424D01*
X13753966Y27217424D02*
X13801585Y27193615D01*
X13801585Y27193615D02*
X13825395Y27145996D01*
X13825395Y27145996D02*
X13825395Y27098377D01*
X13825395Y27098377D02*
X13587300Y27050758D01*
X14039680Y26884091D02*
X14039680Y27217424D01*
X14039680Y27122186D02*
X14063490Y27169805D01*
X14063490Y27169805D02*
X14087299Y27193615D01*
X14087299Y27193615D02*
X14134918Y27217424D01*
X14134918Y27217424D02*
X14182537Y27217424D01*
X14730156Y26884091D02*
X14730156Y27217424D01*
X14730156Y27384091D02*
X14706347Y27360281D01*
X14706347Y27360281D02*
X14730156Y27336472D01*
X14730156Y27336472D02*
X14753966Y27360281D01*
X14753966Y27360281D02*
X14730156Y27384091D01*
X14730156Y27384091D02*
X14730156Y27336472D01*
X14944442Y26907900D02*
X14992061Y26884091D01*
X14992061Y26884091D02*
X15087299Y26884091D01*
X15087299Y26884091D02*
X15134918Y26907900D01*
X15134918Y26907900D02*
X15158727Y26955520D01*
X15158727Y26955520D02*
X15158727Y26979329D01*
X15158727Y26979329D02*
X15134918Y27026948D01*
X15134918Y27026948D02*
X15087299Y27050758D01*
X15087299Y27050758D02*
X15015870Y27050758D01*
X15015870Y27050758D02*
X14968251Y27074567D01*
X14968251Y27074567D02*
X14944442Y27122186D01*
X14944442Y27122186D02*
X14944442Y27145996D01*
X14944442Y27145996D02*
X14968251Y27193615D01*
X14968251Y27193615D02*
X15015870Y27217424D01*
X15015870Y27217424D02*
X15087299Y27217424D01*
X15087299Y27217424D02*
X15134918Y27193615D01*
D12*
X6329138Y37890672D02*
X5614852Y37890672D01*
X5614852Y37890672D02*
X5614852Y39390672D01*
X6829138Y38676386D02*
X7329138Y38676386D01*
X7543424Y37890672D02*
X6829138Y37890672D01*
X6829138Y37890672D02*
X6829138Y39390672D01*
X6829138Y39390672D02*
X7543424Y39390672D01*
X8471996Y39390672D02*
X8757710Y39390672D01*
X8757710Y39390672D02*
X8900567Y39319243D01*
X8900567Y39319243D02*
X9043424Y39176386D01*
X9043424Y39176386D02*
X9114853Y38890672D01*
X9114853Y38890672D02*
X9114853Y38390672D01*
X9114853Y38390672D02*
X9043424Y38104958D01*
X9043424Y38104958D02*
X8900567Y37962100D01*
X8900567Y37962100D02*
X8757710Y37890672D01*
X8757710Y37890672D02*
X8471996Y37890672D01*
X8471996Y37890672D02*
X8329139Y37962100D01*
X8329139Y37962100D02*
X8186281Y38104958D01*
X8186281Y38104958D02*
X8114853Y38390672D01*
X8114853Y38390672D02*
X8114853Y38890672D01*
X8114853Y38890672D02*
X8186281Y39176386D01*
X8186281Y39176386D02*
X8329139Y39319243D01*
X8329139Y39319243D02*
X8471996Y39390672D01*
X10686282Y39390672D02*
X11186282Y37890672D01*
X11186282Y37890672D02*
X11686282Y39390672D01*
X12971996Y37890672D02*
X12114853Y37890672D01*
X12543424Y37890672D02*
X12543424Y39390672D01*
X12543424Y39390672D02*
X12400567Y39176386D01*
X12400567Y39176386D02*
X12257710Y39033529D01*
X12257710Y39033529D02*
X12114853Y38962100D01*
D13*
G36*
X1021019Y8312670D02*
G01*
X1041184Y8293533D01*
X1067644Y8242955D01*
X1068874Y8059908D01*
X840449Y8059373D01*
X839254Y8237276D01*
X863840Y8288790D01*
X882977Y8308955D01*
X934267Y8335788D01*
X971033Y8336526D01*
X1021019Y8312670D01*
G37*
G36*
X1544829Y8360288D02*
G01*
X1564994Y8341152D01*
X1591433Y8290615D01*
X1592793Y8061137D01*
X1316631Y8060489D01*
X1315400Y8243905D01*
X1347251Y8344018D01*
X1359167Y8356574D01*
X1410148Y8383245D01*
X1494198Y8384452D01*
X1544829Y8360288D01*
G37*
G36*
X1307020Y9060639D02*
G01*
X1107848Y9126538D01*
X1306384Y9193208D01*
X1307020Y9060639D01*
G37*
G36*
X3573817Y1495950D02*
G01*
X466275Y1495950D01*
X466275Y2174521D01*
X591275Y2174521D01*
X593282Y1955140D01*
X592256Y1952060D01*
X593466Y1935028D01*
X593677Y1912040D01*
X595395Y1907892D01*
X595714Y1903410D01*
X604472Y1880524D01*
X654557Y1784788D01*
X659961Y1771742D01*
X663880Y1766966D01*
X665145Y1764549D01*
X667639Y1762386D01*
X675506Y1752800D01*
X726830Y1704095D01*
X734874Y1694820D01*
X740010Y1691587D01*
X742066Y1689636D01*
X745116Y1688373D01*
X755611Y1681766D01*
X835851Y1643470D01*
X837305Y1642016D01*
X849354Y1637025D01*
X873735Y1625389D01*
X878215Y1625071D01*
X882365Y1623352D01*
X906751Y1620950D01*
X984608Y1622514D01*
X986355Y1621931D01*
X998461Y1622792D01*
X1026375Y1623352D01*
X1030523Y1625071D01*
X1035005Y1625389D01*
X1057891Y1634147D01*
X1153627Y1684233D01*
X1166673Y1689636D01*
X1171449Y1693556D01*
X1173866Y1694820D01*
X1176029Y1697315D01*
X1185615Y1705181D01*
X1234320Y1756506D01*
X1243595Y1764549D01*
X1246828Y1769686D01*
X1248779Y1771741D01*
X1250042Y1774792D01*
X1256649Y1785286D01*
X1299342Y1874740D01*
X1305488Y1883034D01*
X1312001Y1901265D01*
X1313026Y1903410D01*
X1313089Y1904310D01*
X1313733Y1906109D01*
X1354219Y2075889D01*
X1387649Y2145933D01*
X1406786Y2166098D01*
X1458076Y2192931D01*
X1494842Y2193669D01*
X1544829Y2169812D01*
X1564994Y2150676D01*
X1591521Y2099971D01*
X1593220Y1914290D01*
X1544638Y1761584D01*
X1548095Y1712935D01*
X1569907Y1669310D01*
X1606753Y1637355D01*
X1653022Y1621932D01*
X1701671Y1625389D01*
X1745296Y1647201D01*
X1777251Y1684047D01*
X1787241Y1706422D01*
X1832990Y1850219D01*
X1838873Y1864421D01*
X1839484Y1870632D01*
X1840293Y1873172D01*
X1840059Y1876464D01*
X1841275Y1888807D01*
X1839267Y2108192D01*
X1840293Y2111269D01*
X1839083Y2128291D01*
X1838873Y2151288D01*
X1837154Y2155438D01*
X1836836Y2159918D01*
X1828078Y2182804D01*
X1777996Y2278534D01*
X1772589Y2291588D01*
X1768667Y2296367D01*
X1767405Y2298779D01*
X1764912Y2300941D01*
X1757043Y2310529D01*
X1705721Y2359231D01*
X1697675Y2368508D01*
X1692535Y2371744D01*
X1690481Y2373693D01*
X1687433Y2374956D01*
X1676937Y2381563D01*
X1596697Y2419859D01*
X1595244Y2421312D01*
X1583195Y2426303D01*
X1558814Y2437939D01*
X1554332Y2438258D01*
X1550184Y2439976D01*
X1525798Y2442378D01*
X1447937Y2440815D01*
X1446193Y2441396D01*
X1434101Y2440537D01*
X1406174Y2439976D01*
X1402024Y2438258D01*
X1397544Y2437939D01*
X1374658Y2429181D01*
X1278924Y2379098D01*
X1265875Y2373692D01*
X1261097Y2369771D01*
X1258683Y2368508D01*
X1256521Y2366017D01*
X1246933Y2358147D01*
X1198231Y2306826D01*
X1188954Y2298779D01*
X1185718Y2293640D01*
X1183770Y2291586D01*
X1182508Y2288540D01*
X1175899Y2278041D01*
X1133206Y2188589D01*
X1127061Y2180294D01*
X1120547Y2162064D01*
X1119523Y2159918D01*
X1119459Y2159019D01*
X1118816Y2157219D01*
X1078329Y1987443D01*
X1044899Y1917397D01*
X1025762Y1897231D01*
X974472Y1870398D01*
X937707Y1869660D01*
X887721Y1893516D01*
X867555Y1912653D01*
X841028Y1963358D01*
X839329Y2149041D01*
X887912Y2301743D01*
X884455Y2350393D01*
X862643Y2394017D01*
X825797Y2425973D01*
X779528Y2441396D01*
X730878Y2437939D01*
X687254Y2416127D01*
X655299Y2379281D01*
X645308Y2356906D01*
X599560Y2213111D01*
X593677Y2198907D01*
X593065Y2192696D01*
X592257Y2190155D01*
X592490Y2186865D01*
X591275Y2174521D01*
X466275Y2174521D01*
X466275Y2646039D01*
X591363Y2646039D01*
X602659Y2598593D01*
X631252Y2559081D01*
X672791Y2533519D01*
X720948Y2525800D01*
X745228Y2529111D01*
X854837Y2555473D01*
X2820266Y2555473D01*
X2822668Y1769183D01*
X2841332Y1724123D01*
X2875820Y1689635D01*
X2920880Y1670971D01*
X2969652Y1670971D01*
X3014712Y1689635D01*
X3049200Y1724123D01*
X3067864Y1769183D01*
X3070266Y1793569D01*
X3067864Y2579859D01*
X3049200Y2624919D01*
X3014712Y2659407D01*
X2969652Y2678071D01*
X2920880Y2678071D01*
X2875820Y2659407D01*
X2841332Y2624919D01*
X2822668Y2579859D01*
X2820266Y2555473D01*
X854837Y2555473D01*
X1739273Y2768188D01*
X1756597Y2770489D01*
X1762106Y2773679D01*
X1768394Y2775191D01*
X1783099Y2785833D01*
X1798806Y2794926D01*
X1802705Y2800021D01*
X1807906Y2803784D01*
X1817420Y2819246D01*
X1828450Y2833655D01*
X1830103Y2839856D01*
X1833468Y2845323D01*
X1836340Y2863245D01*
X1841017Y2880781D01*
X1840171Y2887145D01*
X1841187Y2893480D01*
X1836985Y2911129D01*
X1834594Y2929128D01*
X1831376Y2934685D01*
X1829891Y2940926D01*
X1819250Y2955631D01*
X1810156Y2971338D01*
X1805061Y2975238D01*
X1801298Y2980438D01*
X1785836Y2989953D01*
X1771427Y3000982D01*
X1762431Y3004356D01*
X1759759Y3006000D01*
X1756766Y3006480D01*
X1748483Y3009586D01*
X1482606Y3079592D01*
X1742745Y3149839D01*
X1759759Y3152566D01*
X1765165Y3155894D01*
X1771427Y3157584D01*
X1785836Y3168614D01*
X1801298Y3178128D01*
X1805061Y3183329D01*
X1810156Y3187228D01*
X1819250Y3202936D01*
X1829891Y3217640D01*
X1831376Y3223882D01*
X1834594Y3229438D01*
X1836985Y3247438D01*
X1841187Y3265086D01*
X1840171Y3271422D01*
X1841017Y3277785D01*
X1836340Y3295322D01*
X1833468Y3313243D01*
X1830103Y3318711D01*
X1828450Y3324911D01*
X1817420Y3339321D01*
X1807906Y3354782D01*
X1802705Y3358546D01*
X1798806Y3363640D01*
X1783099Y3372734D01*
X1768394Y3383375D01*
X1759310Y3386506D01*
X1756597Y3388077D01*
X1753595Y3388476D01*
X1745228Y3391360D01*
X720948Y3632766D01*
X672791Y3625047D01*
X631252Y3599485D01*
X602659Y3559973D01*
X591363Y3512527D01*
X599082Y3464370D01*
X624644Y3422831D01*
X664156Y3394238D01*
X687322Y3386253D01*
X1211077Y3262813D01*
X977257Y3199673D01*
X961668Y3197601D01*
X954745Y3193594D01*
X946838Y3191458D01*
X933738Y3181432D01*
X919458Y3173164D01*
X914537Y3166735D01*
X908108Y3161814D01*
X899840Y3147534D01*
X889814Y3134434D01*
X887727Y3126612D01*
X883671Y3119604D01*
X881497Y3103250D01*
X877247Y3087309D01*
X878313Y3079283D01*
X877247Y3071257D01*
X881497Y3055317D01*
X883671Y3038962D01*
X887727Y3031955D01*
X889814Y3024132D01*
X899840Y3011033D01*
X908108Y2996752D01*
X914537Y2991832D01*
X919458Y2985402D01*
X933738Y2977135D01*
X946838Y2967108D01*
X958816Y2962616D01*
X961668Y2960965D01*
X964069Y2960646D01*
X969781Y2958504D01*
X1209297Y2895440D01*
X664156Y2764328D01*
X624644Y2735735D01*
X599082Y2694196D01*
X591363Y2646039D01*
X466275Y2646039D01*
X466275Y3864421D01*
X593677Y3864421D01*
X612341Y3819361D01*
X646829Y3784873D01*
X691889Y3766209D01*
X716275Y3763807D01*
X1740661Y3766209D01*
X1785721Y3784873D01*
X1820209Y3819361D01*
X1838873Y3864421D01*
X1838873Y3913193D01*
X1820209Y3958253D01*
X1785721Y3992741D01*
X1740661Y4011405D01*
X1716275Y4013807D01*
X691889Y4011405D01*
X646829Y3992741D01*
X612341Y3958253D01*
X593677Y3913193D01*
X593677Y3864421D01*
X466275Y3864421D01*
X466275Y4793568D01*
X591275Y4793568D01*
X593677Y4197754D01*
X612341Y4152694D01*
X646829Y4118206D01*
X691889Y4099542D01*
X740661Y4099542D01*
X785721Y4118206D01*
X820209Y4152694D01*
X838873Y4197754D01*
X841275Y4222140D01*
X840625Y4383146D01*
X1740661Y4385256D01*
X1785721Y4403920D01*
X1820209Y4438408D01*
X1838873Y4483468D01*
X1838873Y4532240D01*
X1820209Y4577300D01*
X1785721Y4611788D01*
X1740661Y4630452D01*
X1716275Y4632854D01*
X839627Y4630799D01*
X838873Y4817954D01*
X820209Y4863014D01*
X785721Y4897502D01*
X750622Y4912040D01*
X2441716Y4912040D01*
X2460380Y4866980D01*
X2494868Y4832492D01*
X2539928Y4813828D01*
X2564314Y4811426D01*
X2821809Y4812213D01*
X2822668Y4531088D01*
X2841332Y4486028D01*
X2875820Y4451540D01*
X2920880Y4432876D01*
X2969652Y4432876D01*
X3014712Y4451540D01*
X3049200Y4486028D01*
X3067864Y4531088D01*
X3070266Y4555474D01*
X3069479Y4812970D01*
X3350605Y4813828D01*
X3395665Y4832492D01*
X3430153Y4866980D01*
X3448817Y4912040D01*
X3448817Y4960812D01*
X3430153Y5005872D01*
X3395665Y5040360D01*
X3350605Y5059024D01*
X3326219Y5061426D01*
X3068722Y5060640D01*
X3067864Y5341764D01*
X3049200Y5386824D01*
X3014712Y5421312D01*
X2969652Y5439976D01*
X2920880Y5439976D01*
X2875820Y5421312D01*
X2841332Y5386824D01*
X2822668Y5341764D01*
X2820266Y5317378D01*
X2821052Y5059883D01*
X2539928Y5059024D01*
X2494868Y5040360D01*
X2460380Y5005872D01*
X2441716Y4960812D01*
X2441716Y4912040D01*
X750622Y4912040D01*
X740661Y4916166D01*
X691889Y4916166D01*
X646829Y4897502D01*
X612341Y4863014D01*
X593677Y4817954D01*
X591275Y4793568D01*
X466275Y4793568D01*
X466275Y5507854D01*
X591275Y5507854D01*
X593227Y5410635D01*
X592257Y5396982D01*
X593621Y5390980D01*
X593677Y5388230D01*
X594940Y5385179D01*
X597690Y5373088D01*
X641296Y5248019D01*
X641296Y5245372D01*
X647125Y5231300D01*
X655299Y5207856D01*
X658242Y5204463D01*
X659961Y5200313D01*
X675506Y5181371D01*
X772670Y5087098D01*
X782493Y5075772D01*
X787760Y5072456D01*
X789686Y5070588D01*
X792733Y5069326D01*
X803230Y5062718D01*
X892683Y5020025D01*
X900978Y5013879D01*
X919208Y5007366D01*
X921354Y5006341D01*
X922253Y5006278D01*
X924053Y5005634D01*
X1108441Y4961664D01*
X1120460Y4956685D01*
X1135549Y4955199D01*
X1138769Y4954431D01*
X1140591Y4954703D01*
X1144846Y4954283D01*
X1281575Y4956247D01*
X1293779Y4954431D01*
X1308694Y4956637D01*
X1312089Y4956685D01*
X1313790Y4957390D01*
X1318020Y4958015D01*
X1499606Y5005518D01*
X1511195Y5006341D01*
X1529428Y5013319D01*
X1531571Y5013879D01*
X1532295Y5014416D01*
X1534081Y5015099D01*
X1629812Y5065182D01*
X1642863Y5070587D01*
X1647642Y5074510D01*
X1650056Y5075772D01*
X1652216Y5078264D01*
X1661805Y5086132D01*
X1743086Y5169906D01*
X1745296Y5171010D01*
X1754873Y5182054D01*
X1772589Y5200312D01*
X1774308Y5204464D01*
X1777251Y5207856D01*
X1787241Y5230231D01*
X1832990Y5374028D01*
X1838873Y5388230D01*
X1839484Y5394441D01*
X1840293Y5396981D01*
X1840059Y5400273D01*
X1841275Y5412616D01*
X1839322Y5509837D01*
X1840293Y5523489D01*
X1838928Y5529492D01*
X1838873Y5532240D01*
X1837609Y5535290D01*
X1834860Y5547383D01*
X1791254Y5672452D01*
X1791254Y5675099D01*
X1785422Y5689178D01*
X1777251Y5712614D01*
X1774309Y5716006D01*
X1772589Y5720159D01*
X1757043Y5739100D01*
X1690481Y5802264D01*
X1645421Y5820928D01*
X1596648Y5820928D01*
X1551589Y5802263D01*
X1517102Y5767775D01*
X1498438Y5722715D01*
X1498438Y5673942D01*
X1517103Y5628883D01*
X1532649Y5609941D01*
X1559332Y5584620D01*
X1591591Y5492096D01*
X1592708Y5436488D01*
X1561694Y5339006D01*
X1503431Y5278957D01*
X1441306Y5246456D01*
X1279653Y5204168D01*
X1166795Y5202547D01*
X1005386Y5241038D01*
X935864Y5274218D01*
X873665Y5334567D01*
X840958Y5428375D01*
X839841Y5483985D01*
X871061Y5582113D01*
X915446Y5628883D01*
X934111Y5673943D01*
X934111Y5722716D01*
X915446Y5767776D01*
X880959Y5802263D01*
X835899Y5820928D01*
X787126Y5820928D01*
X742066Y5802263D01*
X723124Y5786718D01*
X688232Y5749950D01*
X687254Y5749460D01*
X681796Y5743168D01*
X659961Y5720157D01*
X658242Y5716008D01*
X655299Y5712614D01*
X645308Y5690239D01*
X599560Y5546444D01*
X593677Y5532240D01*
X593065Y5526029D01*
X592257Y5523488D01*
X592490Y5520198D01*
X591275Y5507854D01*
X466275Y5507854D01*
X466275Y6102516D01*
X593677Y6102516D01*
X612341Y6057456D01*
X646829Y6022968D01*
X691889Y6004304D01*
X716275Y6001902D01*
X1740661Y6004304D01*
X1785721Y6022968D01*
X1820209Y6057456D01*
X1838873Y6102516D01*
X1838873Y6151288D01*
X1820209Y6196348D01*
X1785721Y6230836D01*
X1740661Y6249500D01*
X1716275Y6251902D01*
X1316964Y6250966D01*
X1315659Y6574736D01*
X1740661Y6575732D01*
X1785721Y6594396D01*
X1820209Y6628884D01*
X1838873Y6673944D01*
X1838873Y6722716D01*
X1820209Y6767776D01*
X1785721Y6802264D01*
X1740661Y6820928D01*
X1716275Y6823330D01*
X691889Y6820928D01*
X646829Y6802264D01*
X612341Y6767776D01*
X593677Y6722716D01*
X593677Y6673944D01*
X612341Y6628884D01*
X646829Y6594396D01*
X691889Y6575732D01*
X716275Y6573330D01*
X1067965Y6574155D01*
X1069270Y6250385D01*
X691889Y6249500D01*
X646829Y6230836D01*
X612341Y6196348D01*
X593677Y6151288D01*
X593677Y6102516D01*
X466275Y6102516D01*
X466275Y8269759D01*
X591275Y8269759D01*
X593677Y7912040D01*
X612341Y7866980D01*
X646829Y7832492D01*
X691889Y7813828D01*
X716275Y7811426D01*
X1740661Y7813828D01*
X1785721Y7832492D01*
X1820209Y7866980D01*
X1838873Y7912040D01*
X1841275Y7936426D01*
X1840428Y8079283D01*
X2820266Y8079283D01*
X2822668Y7292993D01*
X2841332Y7247933D01*
X2875820Y7213445D01*
X2920880Y7194781D01*
X2969652Y7194781D01*
X3014712Y7213445D01*
X3049200Y7247933D01*
X3067864Y7292993D01*
X3070266Y7317379D01*
X3067864Y8103669D01*
X3049200Y8148729D01*
X3014712Y8183217D01*
X2969652Y8201881D01*
X2920880Y8201881D01*
X2875820Y8183217D01*
X2841332Y8148729D01*
X2822668Y8103669D01*
X2820266Y8079283D01*
X1840428Y8079283D01*
X1839130Y8298259D01*
X1840293Y8301745D01*
X1839002Y8319906D01*
X1838873Y8341764D01*
X1837154Y8345914D01*
X1836836Y8350394D01*
X1828078Y8373280D01*
X1777996Y8469010D01*
X1772589Y8482064D01*
X1768667Y8486843D01*
X1767405Y8489255D01*
X1764912Y8491417D01*
X1757043Y8501005D01*
X1705721Y8549707D01*
X1697675Y8558984D01*
X1692535Y8562220D01*
X1690481Y8564169D01*
X1687433Y8565432D01*
X1676937Y8572039D01*
X1596697Y8610335D01*
X1595244Y8611788D01*
X1583195Y8616779D01*
X1558814Y8628415D01*
X1554332Y8628734D01*
X1550184Y8630452D01*
X1525798Y8632854D01*
X1401005Y8631062D01*
X1398574Y8631872D01*
X1383666Y8630813D01*
X1358555Y8630452D01*
X1354405Y8628734D01*
X1349925Y8628415D01*
X1327039Y8619657D01*
X1231305Y8569574D01*
X1218256Y8564168D01*
X1213478Y8560247D01*
X1211064Y8558984D01*
X1208902Y8556493D01*
X1199314Y8548623D01*
X1167832Y8515449D01*
X1166673Y8516549D01*
X1163626Y8517811D01*
X1153128Y8524420D01*
X1072888Y8562716D01*
X1071435Y8564169D01*
X1059386Y8569160D01*
X1035005Y8580796D01*
X1030523Y8581115D01*
X1026375Y8582833D01*
X1001989Y8585235D01*
X924128Y8583672D01*
X922384Y8584253D01*
X910292Y8583394D01*
X882365Y8582833D01*
X878215Y8581115D01*
X873735Y8580796D01*
X850849Y8572038D01*
X755115Y8521955D01*
X742066Y8516549D01*
X737288Y8512628D01*
X734874Y8511365D01*
X732712Y8508874D01*
X723124Y8501004D01*
X674422Y8449683D01*
X665145Y8441636D01*
X661909Y8436497D01*
X659961Y8434443D01*
X658699Y8431397D01*
X652090Y8420898D01*
X613794Y8340659D01*
X612341Y8339205D01*
X607350Y8327157D01*
X595714Y8302775D01*
X595395Y8298294D01*
X593677Y8294145D01*
X591275Y8269759D01*
X466275Y8269759D01*
X466275Y9111268D01*
X592257Y9111268D01*
X595080Y9102797D01*
X595714Y9093887D01*
X602724Y9079867D01*
X607680Y9064999D01*
X613530Y9058253D01*
X617526Y9050262D01*
X629366Y9039994D01*
X639635Y9028153D01*
X647625Y9024158D01*
X654372Y9018307D01*
X676747Y9008317D01*
X1396944Y8770033D01*
X1406174Y8766209D01*
X1408499Y8766209D01*
X1700640Y8669551D01*
X1749290Y8673008D01*
X1792914Y8694820D01*
X1824870Y8731666D01*
X1840293Y8777935D01*
X1836836Y8826585D01*
X1815024Y8870209D01*
X1778178Y8902164D01*
X1755803Y8912155D01*
X1555129Y8978550D01*
X1553700Y9276259D01*
X1778178Y9351640D01*
X1815024Y9383595D01*
X1836836Y9427219D01*
X1840293Y9475869D01*
X1824870Y9522138D01*
X1792914Y9558984D01*
X1749290Y9580796D01*
X1700640Y9584253D01*
X1676746Y9578820D01*
X691815Y9248071D01*
X683260Y9247463D01*
X669463Y9240565D01*
X654372Y9235497D01*
X647625Y9229647D01*
X639635Y9225651D01*
X629366Y9213811D01*
X617526Y9203542D01*
X613530Y9195552D01*
X607680Y9188805D01*
X602724Y9173938D01*
X595714Y9159917D01*
X595080Y9151008D01*
X592257Y9142536D01*
X593367Y9126902D01*
X592257Y9111268D01*
X466275Y9111268D01*
X466275Y10222140D01*
X591275Y10222140D01*
X593677Y9626326D01*
X612341Y9581266D01*
X646829Y9546778D01*
X691889Y9528114D01*
X740661Y9528114D01*
X785721Y9546778D01*
X820209Y9581266D01*
X838873Y9626326D01*
X841275Y9650712D01*
X841181Y9673945D01*
X2441716Y9673945D01*
X2460380Y9628885D01*
X2494868Y9594397D01*
X2539928Y9575733D01*
X2564314Y9573331D01*
X2821809Y9574118D01*
X2822668Y9292993D01*
X2841332Y9247933D01*
X2875820Y9213445D01*
X2920880Y9194781D01*
X2969652Y9194781D01*
X3014712Y9213445D01*
X3049200Y9247933D01*
X3067864Y9292993D01*
X3070266Y9317379D01*
X3069479Y9574875D01*
X3350605Y9575733D01*
X3395665Y9594397D01*
X3430153Y9628885D01*
X3448817Y9673945D01*
X3448817Y9722717D01*
X3430153Y9767777D01*
X3395665Y9802265D01*
X3350605Y9820929D01*
X3326219Y9823331D01*
X3068722Y9822545D01*
X3067864Y10103669D01*
X3049200Y10148729D01*
X3014712Y10183217D01*
X2969652Y10201881D01*
X2920880Y10201881D01*
X2875820Y10183217D01*
X2841332Y10148729D01*
X2822668Y10103669D01*
X2820266Y10079283D01*
X2821052Y9821788D01*
X2539928Y9820929D01*
X2494868Y9802265D01*
X2460380Y9767777D01*
X2441716Y9722717D01*
X2441716Y9673945D01*
X841181Y9673945D01*
X840625Y9811718D01*
X1740661Y9813828D01*
X1785721Y9832492D01*
X1820209Y9866980D01*
X1838873Y9912040D01*
X1838873Y9960812D01*
X1820209Y10005872D01*
X1785721Y10040360D01*
X1740661Y10059024D01*
X1716275Y10061426D01*
X839627Y10059371D01*
X838873Y10246526D01*
X820209Y10291586D01*
X794416Y10317379D01*
X820209Y10343171D01*
X838873Y10388231D01*
X841275Y10412617D01*
X840625Y10573623D01*
X1740661Y10575733D01*
X1785721Y10594397D01*
X1820209Y10628885D01*
X1838873Y10673945D01*
X1838873Y10722717D01*
X1820209Y10767777D01*
X1785721Y10802265D01*
X1740661Y10820929D01*
X1716275Y10823331D01*
X839627Y10821276D01*
X838873Y11008431D01*
X820209Y11053491D01*
X785721Y11087979D01*
X740661Y11106643D01*
X691889Y11106643D01*
X646829Y11087979D01*
X612341Y11053491D01*
X593677Y11008431D01*
X591275Y10984045D01*
X593677Y10388231D01*
X612341Y10343171D01*
X638133Y10317379D01*
X612341Y10291586D01*
X593677Y10246526D01*
X591275Y10222140D01*
X466275Y10222140D01*
X466275Y11231643D01*
X3573817Y11231643D01*
X3573817Y1495950D01*
G37*
D14*
%TO.C,BZ1*%
X7470600Y34466000D02*
X16470600Y34466000D01*
X7470600Y31966000D02*
X7470600Y34466000D01*
X7470600Y25466000D02*
X7470600Y27966000D01*
X16470600Y34466000D02*
X16470600Y31966000D01*
X16470600Y27966000D02*
X16470600Y25466000D01*
X16470600Y25466000D02*
X7470600Y25466000D01*
D15*
X17370600Y29966000D02*
X17370600Y29966000D01*
X17470600Y29966000D02*
X17470600Y29966000D01*
X17370600Y29966000D02*
G75*
G02*
X17470600Y29966000I50000J0D01*
G01*
X17470600Y29966000D02*
G75*
G02*
X17370600Y29966000I-50000J0D01*
G01*
D16*
%TO.C,J4*%
X10479400Y35889000D02*
X10479400Y36489000D01*
X11179400Y37189000D02*
X12579400Y37189000D01*
X12579400Y35189000D02*
X11179400Y35189000D01*
X13279400Y36489000D02*
X13279400Y35889000D01*
X10479400Y36489000D02*
G75*
G02*
X11179400Y37189000I699999J1D01*
G01*
X11179400Y35189000D02*
G75*
G02*
X10479400Y35889000I-1J699999D01*
G01*
X12579400Y37189000D02*
G75*
G02*
X13279400Y36489000I0J-700000D01*
G01*
X13279400Y35889000D02*
G75*
G02*
X12579400Y35189000I-700000J0D01*
G01*
%TO.C,TP1*%
X6698600Y15857800D02*
X8098600Y15857800D01*
X6698600Y14457800D02*
X6698600Y15857800D01*
X8098600Y15857800D02*
X8098600Y14457800D01*
X8098600Y14457800D02*
X6698600Y14457800D01*
%TO.C,J6*%
X10080600Y14076200D02*
X16400600Y14076200D01*
X10080600Y796200D02*
X10080600Y14076200D01*
X10080600Y796200D02*
X16400600Y796200D01*
X10540600Y796200D02*
X10540600Y14076200D01*
X15840600Y796200D02*
X15840600Y14076200D01*
X15900600Y556200D02*
X16640600Y556200D01*
X16400600Y796200D02*
X16400600Y14076200D01*
X16640600Y556200D02*
X16640600Y1056200D01*
D17*
%TO.C,G\u002A\u002A\u002A*%
G36*
X10287736Y25322382D02*
G01*
X10328307Y25308551D01*
X10349439Y25296976D01*
X10367330Y25281492D01*
X10383765Y25259157D01*
X10400531Y25227030D01*
X10419415Y25182170D01*
X10442203Y25121635D01*
X10442753Y25120129D01*
X10452244Y25094170D01*
X10467738Y25051854D01*
X10488507Y24995164D01*
X10513823Y24926086D01*
X10542959Y24846605D01*
X10575187Y24758705D01*
X10609779Y24664372D01*
X10646008Y24565591D01*
X10672892Y24492300D01*
X10711473Y24387120D01*
X10750234Y24281437D01*
X10788255Y24177758D01*
X10824617Y24078590D01*
X10858402Y23986441D01*
X10888690Y23903817D01*
X10914561Y23833226D01*
X10935097Y23777175D01*
X10943319Y23754723D01*
X10971308Y23678358D01*
X11003066Y23591835D01*
X11035839Y23502649D01*
X11066873Y23418295D01*
X11088694Y23359070D01*
X11116272Y23284195D01*
X11147303Y23199808D01*
X11179071Y23113301D01*
X11208860Y23032069D01*
X11228629Y22978070D01*
X11254712Y22906794D01*
X11284911Y22824332D01*
X11316604Y22737838D01*
X11347171Y22654467D01*
X11370021Y22592185D01*
X11388344Y22542260D01*
X11412381Y22476769D01*
X11441111Y22398491D01*
X11473515Y22310201D01*
X11508574Y22214677D01*
X11545270Y22114695D01*
X11582582Y22013033D01*
X11619491Y21912468D01*
X11620116Y21910766D01*
X11653943Y21818443D01*
X11685644Y21731621D01*
X11714592Y21652033D01*
X11740164Y21581415D01*
X11761733Y21521498D01*
X11778674Y21474019D01*
X11790361Y21440709D01*
X11796170Y21423303D01*
X11796707Y21421180D01*
X11802166Y21408084D01*
X11814720Y21389445D01*
X11823733Y21372854D01*
X11837127Y21342212D01*
X11853349Y21301757D01*
X11870845Y21255724D01*
X11888061Y21208349D01*
X11903443Y21163869D01*
X11915438Y21126520D01*
X11922492Y21100537D01*
X11923707Y21092299D01*
X11927020Y21078977D01*
X11936466Y21049433D01*
X11951302Y21005738D01*
X11970788Y20949959D01*
X11994183Y20884166D01*
X12020747Y20810427D01*
X12049737Y20730812D01*
X12080414Y20647388D01*
X12112035Y20562225D01*
X12143860Y20477391D01*
X12145796Y20472262D01*
X12169118Y20410168D01*
X12197155Y20335014D01*
X12227942Y20252098D01*
X12259514Y20166720D01*
X12289904Y20084180D01*
X12305220Y20042416D01*
X12344702Y19934608D01*
X12378044Y19843722D01*
X12405799Y19768323D01*
X12428522Y19706976D01*
X12446768Y19658247D01*
X12461092Y19620703D01*
X12472048Y19592909D01*
X12480191Y19573430D01*
X12486076Y19560833D01*
X12490258Y19553683D01*
X12493291Y19550547D01*
X12495681Y19549984D01*
X12504763Y19555414D01*
X12529172Y19571080D01*
X12567983Y19596368D01*
X12620272Y19630667D01*
X12685113Y19673365D01*
X12761583Y19723850D01*
X12848756Y19781511D01*
X12945709Y19845734D01*
X13051517Y19915909D01*
X13165254Y19991423D01*
X13285997Y20071664D01*
X13412821Y20156020D01*
X13544801Y20243881D01*
X13654359Y20316868D01*
X14803742Y21082839D01*
X13787308Y21087723D01*
X13622407Y21088542D01*
X13475969Y21089333D01*
X13346918Y21090119D01*
X13234179Y21090919D01*
X13136677Y21091753D01*
X13053335Y21092643D01*
X12983078Y21093609D01*
X12924831Y21094671D01*
X12877518Y21095849D01*
X12840064Y21097166D01*
X12811393Y21098640D01*
X12790430Y21100292D01*
X12776098Y21102143D01*
X12767323Y21104214D01*
X12763030Y21106524D01*
X12762457Y21107262D01*
X12754123Y21125453D01*
X12742312Y21155927D01*
X12728364Y21194649D01*
X12713619Y21237586D01*
X12699417Y21280705D01*
X12687098Y21319973D01*
X12678001Y21351355D01*
X12673466Y21370819D01*
X12673484Y21375090D01*
X12683787Y21375803D01*
X12712481Y21376488D01*
X12758416Y21377140D01*
X12820445Y21377753D01*
X12897419Y21378324D01*
X12988190Y21378846D01*
X13091611Y21379315D01*
X13206532Y21379726D01*
X13331805Y21380074D01*
X13466283Y21380353D01*
X13608816Y21380559D01*
X13758257Y21380687D01*
X13913458Y21380732D01*
X13962290Y21380728D01*
X15245246Y21380517D01*
X15245246Y21210265D01*
X15245246Y21040013D01*
X13916888Y20155829D01*
X12588530Y19271645D01*
X12601932Y19234511D01*
X12609207Y19214503D01*
X12622020Y19179412D01*
X12639178Y19132501D01*
X12659489Y19077030D01*
X12681760Y19016259D01*
X12690574Y18992223D01*
X12718666Y18915565D01*
X12750294Y18829160D01*
X12782809Y18740247D01*
X12813565Y18656068D01*
X12837061Y18591685D01*
X12860956Y18526268D01*
X12885123Y18460308D01*
X12907853Y18398450D01*
X12927440Y18345341D01*
X12942176Y18305627D01*
X12942973Y18303493D01*
X12953197Y18275965D01*
X12968514Y18234491D01*
X12989076Y18178655D01*
X13015036Y18108042D01*
X13046546Y18022237D01*
X13083758Y17920824D01*
X13126824Y17803390D01*
X13175897Y17669517D01*
X13231128Y17518792D01*
X13292671Y17350799D01*
X13360678Y17165124D01*
X13405305Y17043262D01*
X13431180Y16972638D01*
X13461534Y16889847D01*
X13494101Y16801064D01*
X13526617Y16712458D01*
X13556820Y16630204D01*
X13564781Y16608531D01*
X13594071Y16528787D01*
X13626495Y16440478D01*
X13659742Y16349900D01*
X13691502Y16263349D01*
X13719464Y16187120D01*
X13726139Y16168916D01*
X13753875Y16093311D01*
X13784844Y16008959D01*
X13816502Y15922788D01*
X13846304Y15841723D01*
X13869697Y15778146D01*
X13893502Y15712168D01*
X13917429Y15643512D01*
X13939652Y15577585D01*
X13958345Y15519790D01*
X13970357Y15480185D01*
X14002680Y15367839D01*
X13906199Y15365058D01*
X13858817Y15364317D01*
X13825397Y15365823D01*
X13800418Y15370309D01*
X13778362Y15378506D01*
X13768422Y15383345D01*
X13756398Y15390729D01*
X13728883Y15408440D01*
X13686645Y15435969D01*
X13630454Y15472806D01*
X13561077Y15518443D01*
X13479283Y15572372D01*
X13385840Y15634084D01*
X13281516Y15703070D01*
X13167080Y15778822D01*
X13043301Y15860831D01*
X12910946Y15948589D01*
X12770785Y16041586D01*
X12623584Y16139315D01*
X12470114Y16241266D01*
X12311142Y16346931D01*
X12147436Y16455801D01*
X11990144Y16560461D01*
X10253163Y17716509D01*
X8545993Y16580307D01*
X8380135Y16469943D01*
X8218374Y16362348D01*
X8061480Y16258034D01*
X7910223Y16157509D01*
X7765372Y16061285D01*
X7627697Y15969871D01*
X7497968Y15883777D01*
X7376955Y15803515D01*
X7265427Y15729594D01*
X7164154Y15662524D01*
X7073906Y15602816D01*
X6995453Y15550981D01*
X6929565Y15507527D01*
X6877010Y15472965D01*
X6838560Y15447807D01*
X6814983Y15432561D01*
X6807342Y15427841D01*
X6778120Y15411334D01*
X6746041Y15391277D01*
X6740037Y15387266D01*
X6721798Y15376110D01*
X6703455Y15368987D01*
X6680033Y15365012D01*
X6646553Y15363297D01*
X6603524Y15362954D01*
X6502837Y15362954D01*
X6517575Y15414243D01*
X6551361Y15525481D01*
X6593479Y15653162D01*
X6643576Y15796226D01*
X6674268Y15880723D01*
X6700209Y15951324D01*
X6727901Y16026683D01*
X6755212Y16101005D01*
X6780013Y16168493D01*
X6799915Y16222646D01*
X6841685Y16336332D01*
X6886220Y16457599D01*
X6931972Y16582233D01*
X6977397Y16706021D01*
X7020947Y16824751D01*
X7061077Y16934207D01*
X7096241Y17030178D01*
X7101033Y17043262D01*
X7177152Y17251110D01*
X7198371Y17309040D01*
X9122013Y17309040D01*
X9129087Y17312178D01*
X9150620Y17325012D01*
X9184830Y17346371D01*
X9229938Y17375084D01*
X9284165Y17409979D01*
X9345732Y17449885D01*
X9412857Y17493630D01*
X9483763Y17540043D01*
X9556669Y17587952D01*
X9629795Y17636187D01*
X9701363Y17683575D01*
X9769592Y17728946D01*
X9832703Y17771127D01*
X9888916Y17808948D01*
X9936452Y17841238D01*
X9973531Y17866823D01*
X9998374Y17884535D01*
X10008746Y17892722D01*
X10022201Y17903542D01*
X10048465Y17922766D01*
X10084105Y17947943D01*
X10125686Y17976623D01*
X10138821Y17985554D01*
X10253508Y18063270D01*
X10250945Y19040631D01*
X10250541Y19187770D01*
X10250099Y19336764D01*
X10249626Y19485491D01*
X10249130Y19631829D01*
X10248620Y19773657D01*
X10248103Y19908853D01*
X10247588Y20035295D01*
X10247083Y20150862D01*
X10246596Y20253432D01*
X10246136Y20340884D01*
X10245709Y20411094D01*
X10245676Y20416089D01*
X10242969Y20814185D01*
X10221203Y20814146D01*
X10218313Y20813352D01*
X10215000Y20810458D01*
X10211014Y20804682D01*
X10206106Y20795239D01*
X10200025Y20781347D01*
X10192519Y20762222D01*
X10183340Y20737081D01*
X10172237Y20705141D01*
X10158958Y20665619D01*
X10143255Y20617731D01*
X10124876Y20560693D01*
X10103571Y20493724D01*
X10079090Y20416039D01*
X10051182Y20326856D01*
X10019596Y20225390D01*
X9984084Y20110860D01*
X9944394Y19982481D01*
X9900275Y19839470D01*
X9851478Y19681044D01*
X9797751Y19506421D01*
X9738846Y19314815D01*
X9674510Y19105445D01*
X9662974Y19067896D01*
X9607879Y18888568D01*
X9554296Y18714186D01*
X9502510Y18545671D01*
X9452805Y18383948D01*
X9405465Y18229939D01*
X9360774Y18084568D01*
X9319015Y17948758D01*
X9280472Y17823431D01*
X9245430Y17709512D01*
X9214172Y17607923D01*
X9186983Y17519587D01*
X9164146Y17445428D01*
X9145945Y17386369D01*
X9132664Y17343333D01*
X9124588Y17317242D01*
X9122013Y17309040D01*
X7198371Y17309040D01*
X7246664Y17440886D01*
X7309673Y17612868D01*
X7366279Y17767333D01*
X7416584Y17904559D01*
X7460691Y18024825D01*
X7498702Y18128409D01*
X7530718Y18215589D01*
X7556841Y18286642D01*
X7577174Y18341848D01*
X7586457Y18366993D01*
X7604624Y18416215D01*
X7628108Y18479955D01*
X7655502Y18554388D01*
X7685399Y18635688D01*
X7716392Y18720027D01*
X7747072Y18803581D01*
X7757146Y18831031D01*
X7784930Y18906548D01*
X7811365Y18978015D01*
X7835500Y19042888D01*
X7856381Y19098621D01*
X7873058Y19142671D01*
X7884578Y19172490D01*
X7888716Y19182723D01*
X7901491Y19215459D01*
X7916346Y19257323D01*
X7928729Y19295070D01*
X7941418Y19333401D01*
X7958726Y19382625D01*
X7978059Y19435472D01*
X7991480Y19470916D01*
X8010123Y19520006D01*
X8032808Y19580788D01*
X8057047Y19646539D01*
X8080350Y19710537D01*
X8087294Y19729800D01*
X8104228Y19776678D01*
X8126617Y19838299D01*
X8153150Y19911074D01*
X8182518Y19991418D01*
X8213409Y20075742D01*
X8244513Y20160460D01*
X8260385Y20203608D01*
X8290315Y20285000D01*
X8320050Y20366011D01*
X8348417Y20443440D01*
X8374247Y20514083D01*
X8396368Y20574741D01*
X8413609Y20622210D01*
X8421194Y20643223D01*
X8439870Y20694738D01*
X8463018Y20757918D01*
X8488200Y20826150D01*
X8512982Y20892821D01*
X8523329Y20920485D01*
X8539172Y20963339D01*
X9749066Y20963339D01*
X9759338Y20959143D01*
X9783370Y20951120D01*
X9816169Y20940927D01*
X9819566Y20939905D01*
X9877380Y20925150D01*
X9937930Y20915424D01*
X10005968Y20910268D01*
X10086249Y20909224D01*
X10129591Y20910025D01*
X10245359Y20913057D01*
X10238293Y22233755D01*
X10237429Y22392748D01*
X10236568Y22546303D01*
X10235717Y22693293D01*
X10234885Y22832591D01*
X10234079Y22963069D01*
X10233307Y23083600D01*
X10232575Y23193056D01*
X10231893Y23290310D01*
X10231267Y23374235D01*
X10230705Y23443703D01*
X10230214Y23497587D01*
X10229803Y23534759D01*
X10229479Y23554092D01*
X10229351Y23556718D01*
X10226218Y23548235D01*
X10218127Y23523095D01*
X10205714Y23483359D01*
X10189614Y23431092D01*
X10170462Y23368355D01*
X10148895Y23297213D01*
X10125547Y23219728D01*
X10125533Y23219680D01*
X10023592Y22880377D01*
X10017302Y22260031D01*
X10016151Y22145273D01*
X10015035Y22031324D01*
X10013974Y21920539D01*
X10012989Y21815274D01*
X10012102Y21717887D01*
X10011335Y21630733D01*
X10010709Y21556167D01*
X10010245Y21496547D01*
X10009975Y21455927D01*
X10008938Y21272169D01*
X9961046Y21221466D01*
X9936752Y21194819D01*
X9907193Y21160997D01*
X9874719Y21122861D01*
X9841680Y21083271D01*
X9810424Y21045088D01*
X9783302Y21011173D01*
X9762663Y20984387D01*
X9750856Y20967590D01*
X9749066Y20963339D01*
X8539172Y20963339D01*
X8542582Y20972563D01*
X8558854Y21017974D01*
X8571110Y21053711D01*
X8578314Y21076767D01*
X8579689Y21084152D01*
X8569674Y21084556D01*
X8541203Y21084914D01*
X8495358Y21085225D01*
X8433220Y21085489D01*
X8355873Y21085705D01*
X8264398Y21085872D01*
X8159877Y21085989D01*
X8043393Y21086056D01*
X7916027Y21086070D01*
X7778862Y21086033D01*
X7632980Y21085941D01*
X7479462Y21085796D01*
X7319392Y21085595D01*
X7153850Y21085339D01*
X7139258Y21085314D01*
X5702463Y21082839D01*
X6611306Y20477146D01*
X6731616Y20396969D01*
X6847435Y20319791D01*
X6957719Y20246306D01*
X7061424Y20177211D01*
X7157505Y20113200D01*
X7244919Y20054969D01*
X7322622Y20003213D01*
X7389570Y19958629D01*
X7444719Y19921911D01*
X7487024Y19893754D01*
X7515442Y19874855D01*
X7528929Y19865908D01*
X7529876Y19865289D01*
X7530674Y19854140D01*
X7524743Y19829303D01*
X7513667Y19794773D01*
X7499030Y19754543D01*
X7482414Y19712607D01*
X7465404Y19672960D01*
X7449584Y19639595D01*
X7436537Y19616506D01*
X7427847Y19607688D01*
X7427733Y19607685D01*
X7418056Y19613001D01*
X7393082Y19628531D01*
X7353768Y19653647D01*
X7301072Y19687718D01*
X7235952Y19730117D01*
X7159364Y19780214D01*
X7072266Y19837382D01*
X6975615Y19900991D01*
X6870368Y19970413D01*
X6757483Y20045019D01*
X6637917Y20124180D01*
X6512628Y20207267D01*
X6382572Y20293653D01*
X6327693Y20330144D01*
X5241554Y21052603D01*
X5241554Y21217316D01*
X5241701Y21277721D01*
X5242332Y21321264D01*
X5243726Y21350622D01*
X5246163Y21368469D01*
X5249926Y21377481D01*
X5255294Y21380334D01*
X5258650Y21380289D01*
X5270090Y21380111D01*
X5300067Y21379951D01*
X5347577Y21379808D01*
X5411617Y21379684D01*
X5491186Y21379578D01*
X5585280Y21379492D01*
X5692897Y21379425D01*
X5813034Y21379379D01*
X5944689Y21379352D01*
X6086860Y21379346D01*
X6238543Y21379360D01*
X6398736Y21379396D01*
X6566436Y21379454D01*
X6740641Y21379533D01*
X6920349Y21379635D01*
X6983128Y21379675D01*
X8690511Y21380800D01*
X8699832Y21402781D01*
X8704904Y21415980D01*
X8716016Y21445737D01*
X8732505Y21490254D01*
X8753710Y21547734D01*
X8778969Y21616383D01*
X8807622Y21694402D01*
X8839006Y21779995D01*
X8872459Y21871366D01*
X8885983Y21908339D01*
X8922830Y22009090D01*
X8960095Y22110953D01*
X8996764Y22211165D01*
X9031826Y22306958D01*
X9064267Y22395566D01*
X9093076Y22474225D01*
X9117240Y22540168D01*
X9135746Y22590630D01*
X9136317Y22592185D01*
X9163919Y22667425D01*
X9194845Y22751785D01*
X9226475Y22838112D01*
X9256186Y22919252D01*
X9277708Y22978070D01*
X9304149Y23050271D01*
X9334646Y23133405D01*
X9366485Y23220079D01*
X9396949Y23302897D01*
X9417644Y23359070D01*
X9445285Y23434106D01*
X9476878Y23519999D01*
X9509669Y23609254D01*
X9540904Y23694375D01*
X9563018Y23754723D01*
X9580436Y23802275D01*
X9603664Y23865663D01*
X9631783Y23942379D01*
X9663875Y24029917D01*
X9699019Y24125770D01*
X9736298Y24227429D01*
X9774791Y24332389D01*
X9809905Y24428124D01*
X10319303Y24428124D01*
X10319309Y24350554D01*
X10319599Y24264708D01*
X10320147Y24177358D01*
X10323624Y23721735D01*
X10424327Y23384095D01*
X10448776Y23301953D01*
X10472501Y23221928D01*
X10494658Y23146894D01*
X10514400Y23079726D01*
X10530882Y23023301D01*
X10543258Y22980492D01*
X10549482Y22958531D01*
X10573935Y22870608D01*
X10580251Y22094036D01*
X10581512Y21946460D01*
X10582756Y21817337D01*
X10584009Y21705580D01*
X10585297Y21610105D01*
X10586646Y21529824D01*
X10588081Y21463654D01*
X10589630Y21410507D01*
X10591316Y21369297D01*
X10593168Y21338940D01*
X10595210Y21318349D01*
X10597468Y21306439D01*
X10599154Y21302728D01*
X10639442Y21255047D01*
X10681927Y21203871D01*
X10724789Y21151485D01*
X10766208Y21100179D01*
X10804365Y21052240D01*
X10837440Y21009956D01*
X10863613Y20975613D01*
X10881065Y20951501D01*
X10887976Y20939906D01*
X10888019Y20939567D01*
X10885623Y20926258D01*
X10877028Y20914753D01*
X10859620Y20903729D01*
X10830786Y20891858D01*
X10787912Y20877814D01*
X10736049Y20862478D01*
X10662121Y20842527D01*
X10599582Y20829022D01*
X10541861Y20820706D01*
X10499372Y20817213D01*
X10449974Y20813427D01*
X10418742Y20808961D01*
X10404308Y20803569D01*
X10403150Y20799765D01*
X10406424Y20789399D01*
X10415149Y20761271D01*
X10429046Y20716299D01*
X10447830Y20655399D01*
X10471222Y20579488D01*
X10498938Y20489483D01*
X10530697Y20386299D01*
X10566216Y20270854D01*
X10605214Y20144065D01*
X10647409Y20006848D01*
X10692518Y19860120D01*
X10740260Y19704798D01*
X10790353Y19541797D01*
X10842514Y19372036D01*
X10896462Y19196430D01*
X10950402Y19020821D01*
X11005901Y18840220D01*
X11059968Y18664473D01*
X11112314Y18494505D01*
X11162654Y18331240D01*
X11210701Y18175601D01*
X11256168Y18028514D01*
X11298767Y17890902D01*
X11338213Y17763689D01*
X11374218Y17647800D01*
X11406496Y17544159D01*
X11434759Y17453690D01*
X11458722Y17377317D01*
X11478096Y17315964D01*
X11492596Y17270557D01*
X11501934Y17242018D01*
X11505777Y17231346D01*
X11514908Y17223932D01*
X11539012Y17206601D01*
X11576901Y17180148D01*
X11627388Y17145368D01*
X11689283Y17103055D01*
X11761399Y17054004D01*
X11842548Y16999011D01*
X11931542Y16938869D01*
X12027192Y16874374D01*
X12128310Y16806321D01*
X12233708Y16735504D01*
X12342197Y16662719D01*
X12452591Y16588759D01*
X12563700Y16514421D01*
X12674336Y16440498D01*
X12783312Y16367786D01*
X12889438Y16297079D01*
X12991528Y16229172D01*
X13088392Y16164860D01*
X13178842Y16104939D01*
X13261691Y16050202D01*
X13335750Y16001445D01*
X13399831Y15959462D01*
X13452746Y15925048D01*
X13493307Y15898998D01*
X13520325Y15882108D01*
X13532612Y15875170D01*
X13533231Y15875068D01*
X13532210Y15885239D01*
X13526392Y15901442D01*
X13520633Y15916210D01*
X13509109Y15946879D01*
X13492729Y15990989D01*
X13472402Y16046076D01*
X13449039Y16109682D01*
X13423548Y16179342D01*
X13413091Y16207993D01*
X13383877Y16288055D01*
X13353646Y16370835D01*
X13323927Y16452157D01*
X13296245Y16527843D01*
X13272128Y16593719D01*
X13253103Y16645607D01*
X13252368Y16647608D01*
X13186337Y16827499D01*
X13120896Y17005898D01*
X13053936Y17188555D01*
X12983348Y17381221D01*
X12949696Y17473108D01*
X12920217Y17553588D01*
X12890200Y17635503D01*
X12861022Y17715093D01*
X12834062Y17788600D01*
X12810700Y17852262D01*
X12792313Y17902321D01*
X12788488Y17912723D01*
X12768234Y17967821D01*
X12743383Y18035465D01*
X12716063Y18109855D01*
X12688406Y18185194D01*
X12662919Y18254646D01*
X12639318Y18318968D01*
X12610784Y18396716D01*
X12579121Y18482977D01*
X12546133Y18572836D01*
X12513624Y18661379D01*
X12486154Y18736189D01*
X12460394Y18806912D01*
X12436981Y18872307D01*
X12416743Y18929966D01*
X12400510Y18977484D01*
X12389113Y19012453D01*
X12383382Y19032468D01*
X12382861Y19035719D01*
X12379337Y19049802D01*
X12369468Y19079103D01*
X12354309Y19120757D01*
X12334913Y19171900D01*
X12312336Y19229666D01*
X12301217Y19257561D01*
X12272445Y19330284D01*
X12239587Y19414943D01*
X12205115Y19505070D01*
X12171499Y19594195D01*
X12141209Y19675850D01*
X12135766Y19690723D01*
X12114082Y19750061D01*
X12086877Y19824412D01*
X12055367Y19910454D01*
X12020773Y20004860D01*
X11984311Y20104308D01*
X11947201Y20205471D01*
X11910660Y20305026D01*
X11894092Y20350146D01*
X11860474Y20441814D01*
X11827617Y20531645D01*
X11796415Y20617187D01*
X11767755Y20695990D01*
X11742530Y20765600D01*
X11721630Y20823568D01*
X11705946Y20867439D01*
X11698312Y20889125D01*
X11677851Y20946356D01*
X11654136Y21010148D01*
X11630856Y21070670D01*
X11619508Y21099163D01*
X11602441Y21142680D01*
X11581104Y21199209D01*
X11557522Y21263268D01*
X11533720Y21329373D01*
X11517318Y21375916D01*
X11492210Y21447133D01*
X11462964Y21528798D01*
X11432404Y21613100D01*
X11403354Y21692232D01*
X11388380Y21732493D01*
X11363707Y21798656D01*
X11334638Y21876985D01*
X11303464Y21961285D01*
X11272474Y22045362D01*
X11243958Y22123022D01*
X11240293Y22133031D01*
X11213726Y22205583D01*
X11185729Y22281974D01*
X11158213Y22357001D01*
X11133084Y22425459D01*
X11112253Y22482145D01*
X11107709Y22494493D01*
X11092844Y22534926D01*
X11072057Y22591527D01*
X11046148Y22662116D01*
X11015916Y22744514D01*
X10982160Y22836542D01*
X10945678Y22936021D01*
X10907269Y23040771D01*
X10867733Y23148614D01*
X10827868Y23257370D01*
X10788473Y23364861D01*
X10750347Y23468907D01*
X10714289Y23567328D01*
X10681097Y23657946D01*
X10651572Y23738582D01*
X10627786Y23803570D01*
X10600405Y23878301D01*
X10569804Y23961650D01*
X10538557Y24046615D01*
X10509238Y24126198D01*
X10487687Y24184570D01*
X10462952Y24251664D01*
X10436732Y24323125D01*
X10411243Y24392891D01*
X10388701Y24454900D01*
X10375193Y24492300D01*
X10358124Y24539006D01*
X10342989Y24579007D01*
X10331176Y24608737D01*
X10324072Y24624633D01*
X10323096Y24626140D01*
X10321869Y24618104D01*
X10320863Y24592408D01*
X10320092Y24550928D01*
X10319568Y24495541D01*
X10319303Y24428124D01*
X9809905Y24428124D01*
X9813580Y24438143D01*
X9833446Y24492300D01*
X9870407Y24593066D01*
X9906259Y24690823D01*
X9940274Y24783586D01*
X9971724Y24869370D01*
X9999883Y24946190D01*
X10024022Y25012061D01*
X10043414Y25064999D01*
X10057331Y25103018D01*
X10063585Y25120129D01*
X10086477Y25181036D01*
X10105427Y25226205D01*
X10122220Y25258576D01*
X10138643Y25281092D01*
X10156483Y25296693D01*
X10177526Y25308321D01*
X10178030Y25308551D01*
X10233478Y25324978D01*
X10287736Y25322382D01*
G37*
D16*
%TO.C,J2*%
X3363600Y11750800D02*
X3363600Y11250800D01*
X3603600Y11510800D02*
X3603600Y770800D01*
X4103600Y11750800D02*
X3363600Y11750800D01*
X4163600Y11510800D02*
X4163600Y770800D01*
X9463600Y11510800D02*
X9463600Y770800D01*
X9923600Y11510800D02*
X3603600Y11510800D01*
X9923600Y11510800D02*
X9923600Y770800D01*
X9923600Y770800D02*
X3603600Y770800D01*
%TO.C,J1*%
X4188800Y19087400D02*
X6188800Y19087400D01*
X4188800Y16287400D02*
X4188800Y19087400D01*
X6188800Y19087400D02*
X6188800Y16287400D01*
X6188800Y16287400D02*
X4188800Y16287400D01*
%TO.C,TP4*%
X3218800Y38870200D02*
X4618800Y38870200D01*
X3218800Y37470200D02*
X3218800Y38870200D01*
X4618800Y38870200D02*
X4618800Y37470200D01*
X4618800Y37470200D02*
X3218800Y37470200D01*
%TO.C,TP3*%
X5250800Y37651000D02*
X6650800Y37651000D01*
X5250800Y36251000D02*
X5250800Y37651000D01*
X6650800Y37651000D02*
X6650800Y36251000D01*
X6650800Y36251000D02*
X5250800Y36251000D01*
%TO.C,D2*%
X6322400Y12115000D02*
X9007400Y12115000D01*
X9007400Y14035000D02*
X6322400Y14035000D01*
X9007400Y12115000D02*
X9007400Y14035000D01*
%TO.C,D3*%
X15862000Y24005600D02*
X15862000Y21320600D01*
X17782000Y24005600D02*
X15862000Y24005600D01*
X17782000Y21320600D02*
X17782000Y24005600D01*
%TD*%
%LPC*%
D18*
%TO.C,BZ1*%
X16320600Y29966000D03*
X7620600Y29966000D03*
%TD*%
D19*
%TO.C,J4*%
X11229400Y36189000D03*
D20*
X12529400Y36189000D03*
%TD*%
D21*
%TO.C,TP1*%
X7398600Y15157800D03*
%TD*%
D22*
%TO.C,J6*%
X13240600Y2356200D03*
D23*
X13240600Y4896200D03*
X13240600Y7436200D03*
X13240600Y9976200D03*
X13240600Y12516200D03*
%TD*%
D24*
%TO.C,H1*%
X15831400Y37763800D03*
%TD*%
D22*
%TO.C,J2*%
X6763600Y9950800D03*
D23*
X6763600Y7410800D03*
X6763600Y4870800D03*
X6763600Y2330800D03*
%TD*%
D25*
%TO.C,J5*%
X1556600Y19846000D03*
X1556600Y21596000D03*
X1556600Y23346000D03*
X1556600Y25096000D03*
X1556600Y26846000D03*
%TD*%
D26*
%TO.C,J1*%
X5188800Y17037400D03*
X5188800Y18337400D03*
%TD*%
D24*
%TO.C,H2*%
X2369400Y14527100D03*
%TD*%
D21*
%TO.C,TP4*%
X3918800Y38170200D03*
%TD*%
%TO.C,TP3*%
X5950800Y36951000D03*
%TD*%
D27*
%TO.C,D2*%
X8259900Y13075000D03*
X6384900Y13075000D03*
%TD*%
D28*
%TO.C,D3*%
X16822000Y23258100D03*
X16822000Y21383100D03*
%TD*%
D29*
%TO.C,J7*%
X5022900Y34951200D03*
X5022900Y30111200D03*
D30*
X2122900Y28931200D03*
X2122900Y36131200D03*
%TD*%
%LPD*%
M02*
