M48
; DRILL file {KiCad 8.0.0} date 2024-10-09T20:58:18-0700
; FORMAT={-:-/ absolute / inch / decimal}
; #@! TF.CreationDate,2024-10-09T20:58:18-07:00
; #@! TF.GenerationSoftware,Kicad,Pcbnew,8.0.0
; #@! TF.FileFunction,Plated,1,4,PTH
FMAT,2
INCH
; #@! TA.AperFunction,Plated,PTH,ViaDrill
T1C0.0094
; #@! TA.AperFunction,Plated,PTH,ViaDrill
T2C0.0157
; #@! TA.AperFunction,Plated,PTH,ViaDrill
T3C0.0197
; #@! TA.AperFunction,Plated,PTH,ComponentDrill
T4C0.0315
; #@! TA.AperFunction,Plated,PTH,ComponentDrill
T5C0.0433
; #@! TA.AperFunction,Plated,PTH,ComponentDrill
T6C0.0866
%
G90
G05
T1
X0.0443Y1.0948
X0.0493Y0.8648
X0.0493Y0.7458
X0.0563Y0.9378
X0.0795Y0.9865
X0.0843Y1.5278
X0.0852Y1.0388
X0.1253Y0.7698
X0.1323Y0.9988
X0.1855Y1.0505
X0.1943Y1.1068
X0.2023Y0.8878
X0.2033Y0.7978
X0.2063Y0.4948
X0.2101Y0.8368
X0.2223Y0.6314
X0.2283Y1.3338
X0.2363Y0.4668
X0.2433Y1.5213
X0.2453Y1.4278
X0.2463Y0.8018
X0.2593Y0.9709
X0.2613Y0.5968
X0.2773Y1.0488
X0.2773Y0.668
X0.2803Y0.5148
X0.2863Y0.8038
X0.2915Y0.7172
X0.2924Y1.3679
X0.2953Y1.4648
X0.2963Y1.1058
X0.3021Y1.5551
X0.3033Y0.4878
X0.3079Y0.9716
X0.3313Y1.2908
X0.3393Y0.9738
X0.3402Y0.7993
X0.341Y1.3459
X0.3433Y0.8358
X0.3443Y0.9398
X0.3653Y1.2318
X0.3732Y0.3448
X0.3732Y0.2588
X0.3803Y1.5213
X0.3803Y0.8198
X0.3853Y0.8998
X0.3897Y0.4328
X0.3903Y0.8588
X0.3903Y0.7898
X0.3923Y0.9728
X0.4023Y0.1908
X0.4117Y0.3265
X0.4269Y0.2564
X0.4403Y1.5213
X0.4423Y1.2638
X0.4473Y1.0918
X0.4543Y0.9988
X0.4641Y0.919
X0.4651Y0.8415
X0.4853Y1.4358
X0.4873Y0.6108
X0.4883Y1.0458
X0.4967Y0.7639
X0.4989Y0.7286
X0.5009Y0.9768
X0.5113Y1.5148
X0.5153Y0.9008
X0.5155Y0.6856
X0.5174Y0.8346
X0.5193Y0.6178
X0.5333Y0.655
X0.5373Y1.0318
X0.5474Y1.0695
X0.5513Y0.8618
X0.5513Y0.8098
X0.5703Y1.2108
X0.5748Y0.9293
X0.5798Y0.8957
X0.5823Y0.9608
X0.5853Y0.8608
X0.5903Y1.3498
X0.5943Y0.3958
X0.5973Y1.1798
X0.5973Y0.7647
X0.5974Y1.111
X0.6003Y1.0568
X0.6243Y0.8098
X0.6605Y1.0296
X0.6626Y0.9962
X0.6703Y0.9548
X0.6754Y0.1558
X0.682Y0.6858
X0.6822Y0.7531
X0.6823Y0.7878
T2
X0.0303Y0.0348
X0.0727Y0.3572
X0.0813Y0.1328
X0.1353Y1.0788
X0.1933Y0.4319
X0.1963Y0.2288
X0.3503Y0.0808
X0.3522Y0.6072
X0.3989Y0.6496
X0.6243Y0.2578
X0.6253Y0.0548
X0.6293Y0.3798
X0.6833Y0.4928
T3
X0.0276Y0.2878
X0.1253Y0.2118
X0.1936Y0.3428
T5
X0.2663Y0.3918
X0.2663Y0.2918
X0.2663Y0.1918
X0.2663Y0.0918
X0.5213Y0.4928
X0.5213Y0.3928
X0.5213Y0.2928
X0.5213Y0.1928
X0.5213Y0.0928
T6
X0.0933Y0.5719
X0.6233Y1.4868
T4
G00X0.0698Y1.4225
M15
G01X0.0974Y1.4225
M16
G05
G00X0.0698Y1.139
M15
G01X0.0974Y1.139
M16
G05
G00X0.1938Y1.376
M15
G01X0.2017Y1.376
M16
G05
G00X0.1938Y1.1855
M15
G01X0.2017Y1.1855
M16
G05
M30
