%TF.GenerationSoftware,KiCad,Pcbnew,8.0.0*%
%TF.CreationDate,2024-10-09T20:58:18-07:00*%
%TF.ProjectId,LEO,4c454f2e-6b69-4636-9164-5f7063625858,rev?*%
%TF.SameCoordinates,Original*%
%TF.FileFunction,Copper,L1,Top*%
%TF.FilePolarity,Positive*%
%FSLAX46Y46*%
G04 Gerber Fmt 4.6, Leading zero omitted, Abs format (unit mm)*
G04 Created by KiCad (PCBNEW 8.0.0) date 2024-10-09 20:58:18*
%MOMM*%
%LPD*%
G01*
G04 APERTURE LIST*
G04 Aperture macros list*
%AMRoundRect*
0 Rectangle with rounded corners*
0 $1 Rounding radius*
0 $2 $3 $4 $5 $6 $7 $8 $9 X,Y pos of 4 corners*
0 Add a 4 corners polygon primitive as box body*
4,1,4,$2,$3,$4,$5,$6,$7,$8,$9,$2,$3,0*
0 Add four circle primitives for the rounded corners*
1,1,$1+$1,$2,$3*
1,1,$1+$1,$4,$5*
1,1,$1+$1,$6,$7*
1,1,$1+$1,$8,$9*
0 Add four rect primitives between the rounded corners*
20,1,$1+$1,$2,$3,$4,$5,0*
20,1,$1+$1,$4,$5,$6,$7,0*
20,1,$1+$1,$6,$7,$8,$9,0*
20,1,$1+$1,$8,$9,$2,$3,0*%
%AMFreePoly0*
4,1,19,0.500000,-0.750000,0.000000,-0.750000,0.000000,-0.744911,-0.071157,-0.744911,-0.207708,-0.704816,-0.327430,-0.627875,-0.420627,-0.520320,-0.479746,-0.390866,-0.500000,-0.250000,-0.500000,0.250000,-0.479746,0.390866,-0.420627,0.520320,-0.327430,0.627875,-0.207708,0.704816,-0.071157,0.744911,0.000000,0.744911,0.000000,0.750000,0.500000,0.750000,0.500000,-0.750000,0.500000,-0.750000,
$1*%
%AMFreePoly1*
4,1,19,0.000000,0.744911,0.071157,0.744911,0.207708,0.704816,0.327430,0.627875,0.420627,0.520320,0.479746,0.390866,0.500000,0.250000,0.500000,-0.250000,0.479746,-0.390866,0.420627,-0.520320,0.327430,-0.627875,0.207708,-0.704816,0.071157,-0.744911,0.000000,-0.744911,0.000000,-0.750000,-0.500000,-0.750000,-0.500000,0.750000,0.000000,0.750000,0.000000,0.744911,0.000000,0.744911,
$1*%
G04 Aperture macros list end*
%TA.AperFunction,SMDPad,CuDef*%
%ADD10R,1.300000X3.400000*%
%TD*%
%TA.AperFunction,SMDPad,CuDef*%
%ADD11FreePoly0,0.000000*%
%TD*%
%TA.AperFunction,SMDPad,CuDef*%
%ADD12FreePoly1,0.000000*%
%TD*%
%TA.AperFunction,SMDPad,CuDef*%
%ADD13R,1.000000X1.000000*%
%TD*%
%TA.AperFunction,ComponentPad*%
%ADD14R,2.200000X2.200000*%
%TD*%
%TA.AperFunction,ComponentPad*%
%ADD15C,2.200000*%
%TD*%
%TA.AperFunction,ComponentPad*%
%ADD16C,3.800000*%
%TD*%
%TA.AperFunction,SMDPad,CuDef*%
%ADD17RoundRect,0.410105X-0.589895X-0.214895X0.589895X-0.214895X0.589895X0.214895X-0.589895X0.214895X0*%
%TD*%
%TA.AperFunction,SMDPad,CuDef*%
%ADD18R,1.500000X1.000000*%
%TD*%
%TA.AperFunction,SMDPad,CuDef*%
%ADD19RoundRect,0.243750X0.243750X0.456250X-0.243750X0.456250X-0.243750X-0.456250X0.243750X-0.456250X0*%
%TD*%
%TA.AperFunction,SMDPad,CuDef*%
%ADD20RoundRect,0.243750X-0.456250X0.243750X-0.456250X-0.243750X0.456250X-0.243750X0.456250X0.243750X0*%
%TD*%
%TA.AperFunction,ComponentPad*%
%ADD21O,1.400000X1.200000*%
%TD*%
%TA.AperFunction,ComponentPad*%
%ADD22O,1.900000X1.200000*%
%TD*%
%TA.AperFunction,ViaPad*%
%ADD23C,0.600000*%
%TD*%
%TA.AperFunction,ViaPad*%
%ADD24C,0.800000*%
%TD*%
%TA.AperFunction,ViaPad*%
%ADD25C,1.000000*%
%TD*%
%TA.AperFunction,Conductor*%
%ADD26C,0.200000*%
%TD*%
G04 APERTURE END LIST*
D10*
%TO.P,BZ1,1,+*%
%TO.N,/BUZZER*%
X16320600Y29966000D03*
%TO.P,BZ1,2,-*%
%TO.N,GND*%
X7620600Y29966000D03*
%TD*%
D11*
%TO.P,J4,1,Pin_1*%
%TO.N,GND*%
X11229400Y36189000D03*
D12*
%TO.P,J4,2,Pin_2*%
%TO.N,/BOOTSEL*%
X12529400Y36189000D03*
%TD*%
D13*
%TO.P,TP1,1,1*%
%TO.N,/RUN*%
X7398600Y15157800D03*
%TD*%
D14*
%TO.P,J6,1,Pin_1*%
%TO.N,+BATT*%
X13240600Y2356200D03*
D15*
%TO.P,J6,2,Pin_2*%
%TO.N,/P4-*%
X13240600Y4896200D03*
%TO.P,J6,3,Pin_3*%
%TO.N,/P3-*%
X13240600Y7436200D03*
%TO.P,J6,4,Pin_4*%
%TO.N,/P2-*%
X13240600Y9976200D03*
%TO.P,J6,5,Pin_5*%
%TO.N,/P1-*%
X13240600Y12516200D03*
%TD*%
D16*
%TO.P,H1,1,1*%
%TO.N,GND*%
X15831400Y37763800D03*
%TD*%
D14*
%TO.P,J2,1,Pin_1*%
%TO.N,GND*%
X6763600Y9950800D03*
D15*
%TO.P,J2,2,Pin_2*%
%TO.N,/BATT RAW*%
X6763600Y7410800D03*
%TO.P,J2,3,Pin_3*%
X6763600Y4870800D03*
%TO.P,J2,4,Pin_4*%
%TO.N,/BATT POSTSW*%
X6763600Y2330800D03*
%TD*%
D17*
%TO.P,J5,1,Pin_1*%
%TO.N,/BRKOUT1*%
X1556600Y19846000D03*
%TO.P,J5,2,Pin_2*%
%TO.N,/BRKOUT2*%
X1556600Y21596000D03*
%TO.P,J5,3,Pin_3*%
%TO.N,/BRKOUT3*%
X1556600Y23346000D03*
%TO.P,J5,4,Pin_4*%
%TO.N,/BRKOUT4*%
X1556600Y25096000D03*
%TO.P,J5,5,Pin_5*%
%TO.N,GND*%
X1556600Y26846000D03*
%TD*%
D18*
%TO.P,J1,1,Pin_1*%
%TO.N,/SWCLK*%
X5188800Y17037400D03*
%TO.P,J1,2,Pin_2*%
%TO.N,/SWD*%
X5188800Y18337400D03*
%TD*%
D16*
%TO.P,H2,1,1*%
%TO.N,GND*%
X2369400Y14527100D03*
%TD*%
D13*
%TO.P,TP4,1,1*%
%TO.N,/SCL*%
X3918800Y38170200D03*
%TD*%
%TO.P,TP3,1,1*%
%TO.N,/SDA*%
X5950800Y36951000D03*
%TD*%
D19*
%TO.P,D2,1,K*%
%TO.N,GND*%
X8259900Y13075000D03*
%TO.P,D2,2,A*%
%TO.N,Net-(D2-A)*%
X6384900Y13075000D03*
%TD*%
D20*
%TO.P,D3,1,K*%
%TO.N,Net-(D3-K)*%
X16822000Y23258100D03*
%TO.P,D3,2,A*%
%TO.N,+3V3*%
X16822000Y21383100D03*
%TD*%
D21*
%TO.P,J7,6,Shield*%
%TO.N,unconnected-(J7-Shield-Pad6)*%
X5022900Y34951200D03*
%TO.P,J7,7*%
%TO.N,N/C*%
X5022900Y30111200D03*
D22*
%TO.P,J7,8*%
X2122900Y28931200D03*
%TO.P,J7,9*%
X2122900Y36131200D03*
%TD*%
D23*
%TO.N,GND*%
X2140800Y38805200D03*
D24*
X15882200Y1391000D03*
D23*
X2164350Y26384650D03*
X13142213Y21199832D03*
X13903568Y27165289D03*
X1124800Y27807000D03*
X17025200Y24251000D03*
D24*
X4985600Y5810600D03*
D23*
X15247200Y26841800D03*
X8744800Y23870000D03*
X5798400Y33877600D03*
X7043000Y16966400D03*
D24*
X17355400Y12516200D03*
X4909400Y10969400D03*
D25*
X700000Y7309200D03*
D23*
X3181600Y19552000D03*
X9659200Y38640400D03*
X4934800Y28111600D03*
D24*
X1845902Y9072000D03*
D23*
X8719400Y21228400D03*
X14790000Y24403400D03*
X12723875Y24810689D03*
D24*
X15856800Y6547200D03*
D23*
X7525600Y28086200D03*
X15856800Y20568000D03*
X17328337Y19127863D03*
X13546300Y16636000D03*
X9479400Y8757000D03*
X7703400Y12389200D03*
X12986600Y38475000D03*
X7673583Y39500000D03*
X15172622Y19424542D03*
X9479400Y6572600D03*
D24*
X15983800Y9646000D03*
D23*
X15170598Y29966000D03*
X7426596Y34745887D03*
D24*
X8946031Y15423255D03*
D23*
%TO.N,+3V3*%
X17330000Y20009200D03*
X11183200Y38640400D03*
X16829014Y25302541D03*
X7043000Y26638600D03*
X14866472Y21863400D03*
X5336798Y21253800D03*
X11538800Y25368600D03*
X17321802Y17418400D03*
X4712867Y26682713D03*
X11813713Y21375033D03*
X15172799Y28219141D03*
X8660488Y34185400D03*
D24*
X10131314Y16500714D03*
D23*
X5239600Y12567000D03*
X3360000Y25368600D03*
X16776655Y26151798D03*
X14728000Y22751539D03*
X7403100Y18217428D03*
D25*
X4916400Y8706200D03*
D23*
X13093792Y17414189D03*
X6179400Y38640400D03*
X5646000Y16037398D03*
%TO.N,+1V1*%
X7271600Y20415600D03*
X6585800Y24661802D03*
D25*
%TO.N,+BATT*%
X3182200Y5378800D03*
D23*
%TO.N,Net-(D2-A)*%
X7119200Y13075000D03*
%TO.N,/RUN*%
X6636600Y15157800D03*
%TO.N,/BOOTSEL*%
X12326200Y36468400D03*
%TO.N,/SWCLK*%
X6255600Y20364800D03*
%TO.N,/SWD*%
X5163400Y20263200D03*
%TO.N,/SCL*%
X13647000Y26206800D03*
X9786200Y22854000D03*
X14002600Y21888800D03*
X14600869Y23605318D03*
X7500200Y37205000D03*
%TO.N,/BRKOUT4*%
X2019986Y25057304D03*
%TO.N,/BRKOUT3*%
X1429600Y23819200D03*
%TO.N,/BRKOUT2*%
X1251800Y21965000D03*
%TO.N,/BRKOUT1*%
X1251800Y18942400D03*
%TO.N,/P1 EN *%
X9899000Y10992200D03*
X8641510Y20301980D03*
%TO.N,/P2 EN *%
X13189800Y15691200D03*
X12673173Y18505370D03*
%TO.N,/P3 EN *%
X15094800Y10052400D03*
X12615061Y19403494D03*
%TO.N,/P4 EN *%
X17154200Y3956400D03*
X9913200Y21812600D03*
%TO.N,/BATT SENSE *%
X5138000Y22549200D03*
X6001600Y11855800D03*
%TO.N,/P3 CONT *%
X9913200Y20060000D03*
X10844401Y6513201D03*
%TO.N,/P2 CONT *%
X10457800Y8294242D03*
X9659200Y20822000D03*
%TO.N,/QSPI_SS*%
X14993200Y34284000D03*
X14485200Y30753400D03*
%TO.N,/P4 CONT *%
X10218000Y4845400D03*
X12377000Y15513400D03*
%TO.N,Net-(D3-K)*%
X13088200Y22879400D03*
%TO.N,/SDA*%
X14002600Y20568000D03*
X11788200Y23342199D03*
X6230200Y36265200D03*
X12402400Y26562400D03*
%TO.N,/QSPI_SD1*%
X11234000Y32099600D03*
X11361000Y27730800D03*
%TO.N,/QSPI_SCLK*%
X9278200Y31286800D03*
X8617800Y24733600D03*
%TO.N,/QSPI_SD3*%
X7819824Y24678283D03*
X8414600Y32785400D03*
%TO.N,/BUZZER*%
X9964000Y24708200D03*
D24*
%TO.N,VBUS*%
X769200Y883000D03*
X3436200Y27400600D03*
%TO.N,Net-(D1-K)*%
X8897200Y2051400D03*
X2064600Y3372200D03*
%TD*%
D26*
%TO.N,GND*%
X11193600Y36762800D02*
X11193600Y37517800D01*
X12150800Y38475000D02*
X12986600Y38475000D01*
X11193600Y37517800D02*
X12150800Y38475000D01*
X8259900Y12945700D02*
X7703400Y12389200D01*
X1251800Y27680000D02*
X1124800Y27807000D01*
X1251800Y26922200D02*
X1251800Y27680000D01*
%TO.N,+3V3*%
X16796600Y20542600D02*
X17330000Y20009200D01*
X16796600Y21662500D02*
X16796600Y20542600D01*
%TO.N,/RUN*%
X6636600Y15157800D02*
X7398600Y15157800D01*
%TO.N,/SWCLK*%
X6138800Y17037400D02*
X6255600Y17154200D01*
X6255600Y17154200D02*
X6255600Y20364800D01*
X5188800Y17037400D02*
X6138800Y17037400D01*
%TO.N,/SWD*%
X5163400Y20263200D02*
X5163400Y18362800D01*
%TO.N,/SCL*%
X14002600Y21888800D02*
X13230271Y21888800D01*
X9760800Y23946200D02*
X9354400Y24352600D01*
X14379804Y23605318D02*
X14600869Y23605318D01*
X10537871Y26130600D02*
X11985671Y26130600D01*
X9354400Y24352600D02*
X9354400Y24947129D01*
X10537871Y33963929D02*
X6515375Y37986425D01*
X12163471Y25952800D02*
X13393000Y25952800D01*
X13230271Y21888800D02*
X12488200Y22630871D01*
X12488200Y23490728D02*
X11778728Y24200200D01*
X10537871Y26130600D02*
X10537871Y33963929D01*
X14002600Y23228114D02*
X14379804Y23605318D01*
X11778728Y24200200D02*
X11538800Y24200200D01*
X11284800Y23946200D02*
X9760800Y23946200D01*
X10192600Y22854000D02*
X9786200Y22854000D01*
X11985671Y26130600D02*
X12163471Y25952800D01*
X5479400Y38373400D02*
X3537800Y38373400D01*
X13393000Y25952800D02*
X13647000Y26206800D01*
X11284800Y23946200D02*
X10192600Y22854000D01*
X5866375Y37986425D02*
X5479400Y38373400D01*
X11538800Y24200200D02*
X11284800Y23946200D01*
X14002600Y21888800D02*
X14002600Y23228114D01*
X9354400Y24947129D02*
X10537871Y26130600D01*
X12488200Y22630871D02*
X12488200Y23490728D01*
X6515375Y37986425D02*
X5866375Y37986425D01*
%TO.N,/BRKOUT2*%
X1251800Y21965000D02*
X1251800Y21672200D01*
%TO.N,/P1 EN *%
X8641510Y20301980D02*
X8198600Y19859070D01*
X9899000Y13338915D02*
X9899000Y10992200D01*
X8198600Y15039315D02*
X9899000Y13338915D01*
X8198600Y19859070D02*
X8198600Y15039315D01*
%TO.N,/P2 EN *%
X13189800Y15691200D02*
X12393792Y16487208D01*
X12393792Y18225989D02*
X12673173Y18505370D01*
X12393792Y16487208D02*
X12393792Y18225989D01*
%TO.N,/P3 EN *%
X15094800Y17367600D02*
X13058906Y19403494D01*
X15094800Y10052400D02*
X15094800Y17367600D01*
X13058906Y19403494D02*
X12615061Y19403494D01*
%TO.N,/P4 EN *%
X17634800Y4437000D02*
X17154200Y3956400D01*
X13581768Y20099832D02*
X16441000Y17240600D01*
X11625968Y20099832D02*
X13581768Y20099832D01*
X9913200Y21812600D02*
X11625968Y20099832D01*
X17634800Y9646000D02*
X17634800Y4437000D01*
X16441000Y17240600D02*
X16441000Y10839800D01*
X16441000Y10839800D02*
X17634800Y9646000D01*
%TO.N,/BATT SENSE *%
X4138800Y16385600D02*
X4138800Y21550000D01*
X4569400Y12388671D02*
X4569400Y15955000D01*
X4138800Y21550000D02*
X5138000Y22549200D01*
X6001600Y11855800D02*
X5102271Y11855800D01*
X4569400Y15955000D02*
X4138800Y16385600D01*
X5102271Y11855800D02*
X4569400Y12388671D01*
%TO.N,/P3 CONT *%
X11157800Y6826600D02*
X11157800Y16605600D01*
X11157800Y16605600D02*
X9913200Y17850200D01*
X10844401Y6513201D02*
X11157800Y6826600D01*
X9913200Y17850200D02*
X9913200Y20060000D01*
%TO.N,/P2 CONT *%
X9313200Y20476000D02*
X9313200Y16187457D01*
X10757800Y14742857D02*
X10757800Y8594242D01*
X10757800Y8594242D02*
X10457800Y8294242D01*
X9659200Y20822000D02*
X9313200Y20476000D01*
X9313200Y16187457D02*
X10757800Y14742857D01*
%TO.N,/QSPI_SS*%
X14485200Y30753400D02*
X14485200Y33776000D01*
X14485200Y33776000D02*
X14993200Y34284000D01*
%TO.N,/P4 CONT *%
X11557800Y14694200D02*
X12377000Y15513400D01*
X10218000Y4845400D02*
X10624400Y4845400D01*
X11557800Y5778800D02*
X11557800Y14694200D01*
X10624400Y4845400D02*
X11557800Y5778800D01*
%TO.N,Net-(D3-K)*%
X13088200Y23619379D02*
X14534310Y25065490D01*
X14534310Y25065490D02*
X15014610Y25065490D01*
X15014610Y25065490D02*
X16822000Y23258100D01*
X13088200Y22879400D02*
X13088200Y23619379D01*
%TO.N,/SDA*%
X3360200Y36951000D02*
X5950800Y36951000D01*
X11788200Y22765185D02*
X11788200Y23342199D01*
X2762550Y39173400D02*
X2762550Y37548650D01*
X12402400Y26562400D02*
X12402400Y33407350D01*
X14002600Y20568000D02*
X12784095Y20568000D01*
X12442213Y20909882D02*
X12442213Y22111172D01*
X12402400Y33407350D02*
X6469350Y39340400D01*
X12784095Y20568000D02*
X12442213Y20909882D01*
X6469350Y39340400D02*
X2929550Y39340400D01*
X2929550Y39340400D02*
X2762550Y39173400D01*
X2762550Y37548650D02*
X3360200Y36951000D01*
X12442213Y22111172D02*
X11788200Y22765185D01*
%TO.N,/QSPI_SD1*%
X11361000Y31972600D02*
X11234000Y32099600D01*
X11361000Y27730800D02*
X11361000Y31972600D01*
%TO.N,/QSPI_SCLK*%
X8617800Y24776215D02*
X8617800Y24733600D01*
X9278200Y25436615D02*
X8617800Y24776215D01*
X9278200Y31286800D02*
X9278200Y25436615D01*
%TO.N,/QSPI_SD3*%
X8570600Y25701750D02*
X7819824Y24950974D01*
X8414600Y32785400D02*
X8570600Y32629400D01*
X8570600Y32629400D02*
X8570600Y25701750D01*
X7819824Y24950974D02*
X7819824Y24678283D01*
%TO.N,/BUZZER*%
X9964000Y24708200D02*
X11836414Y24708200D01*
X16320600Y27051600D02*
X16320600Y29966000D01*
X12845335Y23942199D02*
X14332800Y25429664D01*
X14332800Y25740474D02*
X14834126Y26241800D01*
X14332800Y25429664D02*
X14332800Y25740474D01*
X14834126Y26241800D02*
X15510800Y26241800D01*
X11836414Y24708200D02*
X12602415Y23942199D01*
X12602415Y23942199D02*
X12845335Y23942199D01*
X15510800Y26241800D02*
X16320600Y27051600D01*
%TD*%
%TA.AperFunction,Conductor*%
%TO.N,/SCL*%
G36*
X4425926Y38667396D02*
G01*
X4911385Y38476319D01*
X4917828Y38470100D01*
X4918800Y38465432D01*
X4918800Y38278168D01*
X4915468Y38269991D01*
X4426273Y37769353D01*
X4418040Y37765831D01*
X4410512Y37768462D01*
X3927846Y38162009D01*
X3923600Y38169893D01*
X3926172Y38178471D01*
X3926962Y38179345D01*
X4413379Y38664790D01*
X4421654Y38668208D01*
X4425926Y38667396D01*
G37*
%TD.AperFunction*%
%TD*%
%TA.AperFunction,Conductor*%
%TO.N,/SWCLK*%
G36*
X5945489Y17528906D02*
G01*
X6184888Y17224911D01*
X6318772Y17091027D01*
X6322199Y17082754D01*
X6319504Y17075284D01*
X5945020Y16623807D01*
X5937101Y16619628D01*
X5930298Y16621069D01*
X5204767Y17027356D01*
X5199223Y17034388D01*
X5200276Y17043281D01*
X5203990Y17047297D01*
X5929806Y17531402D01*
X5938589Y17533140D01*
X5945489Y17528906D01*
G37*
%TD.AperFunction*%
%TD*%
%TA.AperFunction,Conductor*%
%TO.N,/SWD*%
G36*
X5266161Y19333973D02*
G01*
X5266910Y19333149D01*
X5669568Y18845490D01*
X5672193Y18836929D01*
X5668932Y18829882D01*
X5196975Y18344803D01*
X5188749Y18341263D01*
X5180430Y18344576D01*
X5180413Y18344593D01*
X4683388Y18830111D01*
X4679865Y18838343D01*
X4682315Y18845645D01*
X5059887Y19332868D01*
X5067663Y19337307D01*
X5069135Y19337400D01*
X5257888Y19337400D01*
X5266161Y19333973D01*
G37*
%TD.AperFunction*%
%TD*%
%TA.AperFunction,Conductor*%
%TO.N,/SDA*%
G36*
X5458204Y37443610D02*
G01*
X5943502Y36959281D01*
X5946937Y36951012D01*
X5943518Y36942735D01*
X5943502Y36942719D01*
X5458204Y36458391D01*
X5449927Y36454972D01*
X5442630Y36457536D01*
X4955191Y36847488D01*
X4950872Y36855332D01*
X4950800Y36856624D01*
X4950800Y37045377D01*
X4954227Y37053650D01*
X4955191Y37054513D01*
X5442631Y37444466D01*
X5451231Y37446957D01*
X5458204Y37443610D01*
G37*
%TD.AperFunction*%
%TD*%
%TA.AperFunction,Conductor*%
%TO.N,Net-(D3-K)*%
G36*
X16072960Y24152724D02*
G01*
X16666863Y23898466D01*
X16671092Y23895377D01*
X16694072Y23868857D01*
X16815147Y23791047D01*
X16921894Y23759704D01*
X16953238Y23750500D01*
X17008472Y23750500D01*
X17016745Y23747073D01*
X17020172Y23738800D01*
X17019289Y23734344D01*
X16940765Y23543828D01*
X16825743Y23264761D01*
X16819422Y23258418D01*
X16814738Y23257522D01*
X16130852Y23268529D01*
X16122635Y23272088D01*
X16119731Y23277228D01*
X15925986Y24007909D01*
X15927178Y24016784D01*
X15929018Y24019177D01*
X16060083Y24150242D01*
X16068355Y24153668D01*
X16072960Y24152724D01*
G37*
%TD.AperFunction*%
%TD*%
%TA.AperFunction,Conductor*%
%TO.N,+3V3*%
G36*
X16829868Y21376046D02*
G01*
X17336840Y20917225D01*
X17340674Y20909133D01*
X17337664Y20900699D01*
X17337341Y20900356D01*
X16962416Y20518205D01*
X16962337Y20518126D01*
X16829858Y20385648D01*
X16821585Y20382221D01*
X16813312Y20385648D01*
X16812762Y20386237D01*
X16376032Y20887676D01*
X16373183Y20896165D01*
X16376270Y20903309D01*
X16813433Y21375322D01*
X16821569Y21379062D01*
X16829868Y21376046D01*
G37*
%TD.AperFunction*%
%TD*%
%TA.AperFunction,Conductor*%
%TO.N,/RUN*%
G36*
X6906921Y15649151D02*
G01*
X6908775Y15647645D01*
X7391302Y15166081D01*
X7394737Y15157812D01*
X7391318Y15149535D01*
X7391302Y15149519D01*
X6908775Y14667956D01*
X6900498Y14664537D01*
X6892229Y14667972D01*
X6890723Y14669826D01*
X6638513Y15054880D01*
X6636600Y15061291D01*
X6636600Y15254310D01*
X6638513Y15260721D01*
X6890724Y15645776D01*
X6898122Y15650818D01*
X6906921Y15649151D01*
G37*
%TD.AperFunction*%
%TD*%
%TA.AperFunction,Conductor*%
%TO.N,GND*%
G36*
X7785397Y13243198D02*
G01*
X8253474Y13078222D01*
X8260137Y13072240D01*
X8261243Y13068171D01*
X8318778Y12386440D01*
X8316059Y12377908D01*
X8308324Y12373818D01*
X7779651Y12319064D01*
X7771069Y12321621D01*
X7770173Y12322429D01*
X7637001Y12455601D01*
X7633574Y12463874D01*
X7633753Y12465908D01*
X7769993Y13234208D01*
X7774810Y13241753D01*
X7783555Y13243682D01*
X7785397Y13243198D01*
G37*
%TD.AperFunction*%
%TD*%
M02*
