%TF.GenerationSoftware,KiCad,Pcbnew,8.0.0*%
%TF.CreationDate,2024-10-09T20:58:18-07:00*%
%TF.ProjectId,LEO,4c454f2e-6b69-4636-9164-5f7063625858,rev?*%
%TF.SameCoordinates,Original*%
%TF.FileFunction,Legend,Bot*%
%TF.FilePolarity,Positive*%
%FSLAX46Y46*%
G04 Gerber Fmt 4.6, Leading zero omitted, Abs format (unit mm)*
G04 Created by KiCad (PCBNEW 8.0.0) date 2024-10-09 20:58:18*
%MOMM*%
%LPD*%
G01*
G04 APERTURE LIST*
G04 Aperture macros list*
%AMRoundRect*
0 Rectangle with rounded corners*
0 $1 Rounding radius*
0 $2 $3 $4 $5 $6 $7 $8 $9 X,Y pos of 4 corners*
0 Add a 4 corners polygon primitive as box body*
4,1,4,$2,$3,$4,$5,$6,$7,$8,$9,$2,$3,0*
0 Add four circle primitives for the rounded corners*
1,1,$1+$1,$2,$3*
1,1,$1+$1,$4,$5*
1,1,$1+$1,$6,$7*
1,1,$1+$1,$8,$9*
0 Add four rect primitives between the rounded corners*
20,1,$1+$1,$2,$3,$4,$5,0*
20,1,$1+$1,$4,$5,$6,$7,0*
20,1,$1+$1,$6,$7,$8,$9,0*
20,1,$1+$1,$8,$9,$2,$3,0*%
G04 Aperture macros list end*
%ADD10C,0.150000*%
%ADD11C,0.175000*%
%ADD12C,0.120000*%
%ADD13C,0.250000*%
%ADD14C,0.200000*%
%ADD15C,0.100000*%
%ADD16R,2.200000X2.200000*%
%ADD17C,2.200000*%
%ADD18C,3.800000*%
%ADD19RoundRect,0.135000X0.185000X-0.135000X0.185000X0.135000X-0.185000X0.135000X-0.185000X-0.135000X0*%
%ADD20RoundRect,0.140000X-0.170000X0.140000X-0.170000X-0.140000X0.170000X-0.140000X0.170000X0.140000X0*%
%ADD21RoundRect,0.140000X0.170000X-0.140000X0.170000X0.140000X-0.170000X0.140000X-0.170000X-0.140000X0*%
%ADD22RoundRect,0.135000X-0.135000X-0.185000X0.135000X-0.185000X0.135000X0.185000X-0.135000X0.185000X0*%
%ADD23RoundRect,0.150000X0.150000X-0.587500X0.150000X0.587500X-0.150000X0.587500X-0.150000X-0.587500X0*%
%ADD24RoundRect,0.135000X0.135000X0.185000X-0.135000X0.185000X-0.135000X-0.185000X0.135000X-0.185000X0*%
%ADD25R,0.500000X0.300000*%
%ADD26R,0.300000X0.500000*%
%ADD27RoundRect,0.135000X-0.185000X0.135000X-0.185000X-0.135000X0.185000X-0.135000X0.185000X0.135000X0*%
%ADD28RoundRect,0.150000X0.650000X0.150000X-0.650000X0.150000X-0.650000X-0.150000X0.650000X-0.150000X0*%
%ADD29RoundRect,0.140000X-0.140000X-0.170000X0.140000X-0.170000X0.140000X0.170000X-0.140000X0.170000X0*%
%ADD30RoundRect,0.125000X-0.125000X0.125000X-0.125000X-0.125000X0.125000X-0.125000X0.125000X0.125000X0*%
%ADD31R,1.000000X0.800000*%
%ADD32RoundRect,0.050000X0.387500X0.050000X-0.387500X0.050000X-0.387500X-0.050000X0.387500X-0.050000X0*%
%ADD33RoundRect,0.050000X0.050000X0.387500X-0.050000X0.387500X-0.050000X-0.387500X0.050000X-0.387500X0*%
%ADD34R,3.200000X3.200000*%
%ADD35RoundRect,0.150000X-0.150000X0.587500X-0.150000X-0.587500X0.150000X-0.587500X0.150000X0.587500X0*%
%ADD36RoundRect,0.225000X-0.250000X0.225000X-0.250000X-0.225000X0.250000X-0.225000X0.250000X0.225000X0*%
%ADD37R,0.800000X0.250000*%
%ADD38R,0.250000X0.800000*%
%ADD39RoundRect,0.140000X0.140000X0.170000X-0.140000X0.170000X-0.140000X-0.170000X0.140000X-0.170000X0*%
%ADD40R,1.600000X0.400000*%
%ADD41O,1.400000X1.200000*%
%ADD42O,1.900000X1.200000*%
%ADD43O,0.450000X1.770000*%
%ADD44R,1.550000X0.600000*%
%ADD45R,1.000000X0.600000*%
%ADD46R,0.500000X0.280000*%
%ADD47R,0.280000X0.500000*%
%ADD48RoundRect,0.150000X-0.587500X-0.150000X0.587500X-0.150000X0.587500X0.150000X-0.587500X0.150000X0*%
G04 APERTURE END LIST*
D10*
X15233487Y33216844D02*
X15090630Y33216844D01*
X15090630Y33216844D02*
X15019201Y33181130D01*
X15019201Y33181130D02*
X14947773Y33109701D01*
X14947773Y33109701D02*
X14912058Y32966844D01*
X14912058Y32966844D02*
X14912058Y32716844D01*
X14912058Y32716844D02*
X14947773Y32573987D01*
X14947773Y32573987D02*
X15019201Y32502558D01*
X15019201Y32502558D02*
X15090630Y32466844D01*
X15090630Y32466844D02*
X15233487Y32466844D01*
X15233487Y32466844D02*
X15304916Y32502558D01*
X15304916Y32502558D02*
X15376344Y32573987D01*
X15376344Y32573987D02*
X15412058Y32716844D01*
X15412058Y32716844D02*
X15412058Y32966844D01*
X15412058Y32966844D02*
X15376344Y33109701D01*
X15376344Y33109701D02*
X15304916Y33181130D01*
X15304916Y33181130D02*
X15233487Y33216844D01*
X14447773Y33216844D02*
X14304916Y33216844D01*
X14304916Y33216844D02*
X14233487Y33181130D01*
X14233487Y33181130D02*
X14162059Y33109701D01*
X14162059Y33109701D02*
X14126344Y32966844D01*
X14126344Y32966844D02*
X14126344Y32716844D01*
X14126344Y32716844D02*
X14162059Y32573987D01*
X14162059Y32573987D02*
X14233487Y32502558D01*
X14233487Y32502558D02*
X14304916Y32466844D01*
X14304916Y32466844D02*
X14447773Y32466844D01*
X14447773Y32466844D02*
X14519202Y32502558D01*
X14519202Y32502558D02*
X14590630Y32573987D01*
X14590630Y32573987D02*
X14626344Y32716844D01*
X14626344Y32716844D02*
X14626344Y32966844D01*
X14626344Y32966844D02*
X14590630Y33109701D01*
X14590630Y33109701D02*
X14519202Y33181130D01*
X14519202Y33181130D02*
X14447773Y33216844D01*
X13804916Y32466844D02*
X13804916Y33216844D01*
X13804916Y33216844D02*
X13519202Y33216844D01*
X13519202Y33216844D02*
X13447773Y33181130D01*
X13447773Y33181130D02*
X13412059Y33145416D01*
X13412059Y33145416D02*
X13376345Y33073987D01*
X13376345Y33073987D02*
X13376345Y32966844D01*
X13376345Y32966844D02*
X13412059Y32895416D01*
X13412059Y32895416D02*
X13447773Y32859701D01*
X13447773Y32859701D02*
X13519202Y32823987D01*
X13519202Y32823987D02*
X13804916Y32823987D01*
X13090630Y32502558D02*
X12983488Y32466844D01*
X12983488Y32466844D02*
X12804916Y32466844D01*
X12804916Y32466844D02*
X12733488Y32502558D01*
X12733488Y32502558D02*
X12697773Y32538273D01*
X12697773Y32538273D02*
X12662059Y32609701D01*
X12662059Y32609701D02*
X12662059Y32681130D01*
X12662059Y32681130D02*
X12697773Y32752558D01*
X12697773Y32752558D02*
X12733488Y32788273D01*
X12733488Y32788273D02*
X12804916Y32823987D01*
X12804916Y32823987D02*
X12947773Y32859701D01*
X12947773Y32859701D02*
X13019202Y32895416D01*
X13019202Y32895416D02*
X13054916Y32931130D01*
X13054916Y32931130D02*
X13090630Y33002558D01*
X13090630Y33002558D02*
X13090630Y33073987D01*
X13090630Y33073987D02*
X13054916Y33145416D01*
X13054916Y33145416D02*
X13019202Y33181130D01*
X13019202Y33181130D02*
X12947773Y33216844D01*
X12947773Y33216844D02*
X12769202Y33216844D01*
X12769202Y33216844D02*
X12662059Y33181130D01*
X12340630Y32538273D02*
X12304916Y32502558D01*
X12304916Y32502558D02*
X12340630Y32466844D01*
X12340630Y32466844D02*
X12376344Y32502558D01*
X12376344Y32502558D02*
X12340630Y32538273D01*
X12340630Y32538273D02*
X12340630Y32466844D01*
X12340630Y32752558D02*
X12376344Y33181130D01*
X12376344Y33181130D02*
X12340630Y33216844D01*
X12340630Y33216844D02*
X12304916Y33181130D01*
X12304916Y33181130D02*
X12340630Y32752558D01*
X12340630Y32752558D02*
X12340630Y33216844D01*
X15376344Y31259386D02*
X15376344Y32009386D01*
X15376344Y32009386D02*
X14947773Y31259386D01*
X14947773Y31259386D02*
X14947773Y32009386D01*
X14447773Y32009386D02*
X14304916Y32009386D01*
X14304916Y32009386D02*
X14233487Y31973672D01*
X14233487Y31973672D02*
X14162059Y31902243D01*
X14162059Y31902243D02*
X14126344Y31759386D01*
X14126344Y31759386D02*
X14126344Y31509386D01*
X14126344Y31509386D02*
X14162059Y31366529D01*
X14162059Y31366529D02*
X14233487Y31295100D01*
X14233487Y31295100D02*
X14304916Y31259386D01*
X14304916Y31259386D02*
X14447773Y31259386D01*
X14447773Y31259386D02*
X14519202Y31295100D01*
X14519202Y31295100D02*
X14590630Y31366529D01*
X14590630Y31366529D02*
X14626344Y31509386D01*
X14626344Y31509386D02*
X14626344Y31759386D01*
X14626344Y31759386D02*
X14590630Y31902243D01*
X14590630Y31902243D02*
X14519202Y31973672D01*
X14519202Y31973672D02*
X14447773Y32009386D01*
X13233487Y31259386D02*
X13233487Y32009386D01*
X13233487Y32009386D02*
X13054916Y32009386D01*
X13054916Y32009386D02*
X12947773Y31973672D01*
X12947773Y31973672D02*
X12876344Y31902243D01*
X12876344Y31902243D02*
X12840630Y31830815D01*
X12840630Y31830815D02*
X12804916Y31687958D01*
X12804916Y31687958D02*
X12804916Y31580815D01*
X12804916Y31580815D02*
X12840630Y31437958D01*
X12840630Y31437958D02*
X12876344Y31366529D01*
X12876344Y31366529D02*
X12947773Y31295100D01*
X12947773Y31295100D02*
X13054916Y31259386D01*
X13054916Y31259386D02*
X13233487Y31259386D01*
X12519201Y31473672D02*
X12162059Y31473672D01*
X12590630Y31259386D02*
X12340630Y32009386D01*
X12340630Y32009386D02*
X12090630Y31259386D01*
X11947773Y32009386D02*
X11519202Y32009386D01*
X11733487Y31259386D02*
X11733487Y32009386D01*
X11304915Y31473672D02*
X10947773Y31473672D01*
X11376344Y31259386D02*
X11126344Y32009386D01*
X11126344Y32009386D02*
X10876344Y31259386D01*
X10626344Y31330815D02*
X10590630Y31295100D01*
X10590630Y31295100D02*
X10626344Y31259386D01*
X10626344Y31259386D02*
X10662058Y31295100D01*
X10662058Y31295100D02*
X10626344Y31330815D01*
X10626344Y31330815D02*
X10626344Y31259386D01*
X10626344Y31545100D02*
X10662058Y31973672D01*
X10662058Y31973672D02*
X10626344Y32009386D01*
X10626344Y32009386D02*
X10590630Y31973672D01*
X10590630Y31973672D02*
X10626344Y31545100D01*
X10626344Y31545100D02*
X10626344Y32009386D01*
X2205614Y34474259D02*
X2348471Y34474259D01*
X2205614Y34188545D02*
X2348471Y34188545D01*
X2955614Y33867116D02*
X2205614Y33867116D01*
X2205614Y33867116D02*
X2205614Y33688545D01*
X2205614Y33688545D02*
X2241328Y33581402D01*
X2241328Y33581402D02*
X2312757Y33509973D01*
X2312757Y33509973D02*
X2384185Y33474259D01*
X2384185Y33474259D02*
X2527042Y33438545D01*
X2527042Y33438545D02*
X2634185Y33438545D01*
X2634185Y33438545D02*
X2777042Y33474259D01*
X2777042Y33474259D02*
X2848471Y33509973D01*
X2848471Y33509973D02*
X2919900Y33581402D01*
X2919900Y33581402D02*
X2955614Y33688545D01*
X2955614Y33688545D02*
X2955614Y33867116D01*
X2741328Y33152830D02*
X2741328Y32795687D01*
X2955614Y33224259D02*
X2205614Y32974259D01*
X2205614Y32974259D02*
X2955614Y32724259D01*
X2205614Y32545688D02*
X2955614Y32367116D01*
X2955614Y32367116D02*
X2419900Y32224259D01*
X2419900Y32224259D02*
X2955614Y32081402D01*
X2955614Y32081402D02*
X2205614Y31902830D01*
X2241328Y31224259D02*
X2205614Y31295687D01*
X2205614Y31295687D02*
X2205614Y31402830D01*
X2205614Y31402830D02*
X2241328Y31509973D01*
X2241328Y31509973D02*
X2312757Y31581402D01*
X2312757Y31581402D02*
X2384185Y31617116D01*
X2384185Y31617116D02*
X2527042Y31652830D01*
X2527042Y31652830D02*
X2634185Y31652830D01*
X2634185Y31652830D02*
X2777042Y31617116D01*
X2777042Y31617116D02*
X2848471Y31581402D01*
X2848471Y31581402D02*
X2919900Y31509973D01*
X2919900Y31509973D02*
X2955614Y31402830D01*
X2955614Y31402830D02*
X2955614Y31331402D01*
X2955614Y31331402D02*
X2919900Y31224259D01*
X2919900Y31224259D02*
X2884185Y31188545D01*
X2884185Y31188545D02*
X2634185Y31188545D01*
X2634185Y31188545D02*
X2634185Y31331402D01*
X2205614Y30902830D02*
X2348471Y30902830D01*
X2205614Y30617116D02*
X2348471Y30617116D01*
D11*
X207540Y28331641D02*
X207540Y27903069D01*
X957540Y28117355D02*
X207540Y28117355D01*
X957540Y27653069D02*
X207540Y27653069D01*
X564683Y27653069D02*
X564683Y27224498D01*
X957540Y27224498D02*
X207540Y27224498D01*
X207540Y26938784D02*
X957540Y26438784D01*
X207540Y26438784D02*
X957540Y26938784D01*
X564683Y25581640D02*
X564683Y25331640D01*
X957540Y25224497D02*
X957540Y25581640D01*
X957540Y25581640D02*
X207540Y25581640D01*
X207540Y25581640D02*
X207540Y25224497D01*
X957540Y24545926D02*
X957540Y24903069D01*
X957540Y24903069D02*
X207540Y24903069D01*
X207540Y24403069D02*
X957540Y24153069D01*
X957540Y24153069D02*
X207540Y23903069D01*
X957540Y23653069D02*
X207540Y23653069D01*
X957540Y23295926D02*
X207540Y23295926D01*
X207540Y23295926D02*
X957540Y22867355D01*
X957540Y22867355D02*
X207540Y22867355D01*
X921826Y22474498D02*
X957540Y22474498D01*
X957540Y22474498D02*
X1028968Y22510212D01*
X1028968Y22510212D02*
X1064683Y22545926D01*
X564683Y21331640D02*
X600397Y21224497D01*
X600397Y21224497D02*
X636111Y21188783D01*
X636111Y21188783D02*
X707540Y21153069D01*
X707540Y21153069D02*
X814683Y21153069D01*
X814683Y21153069D02*
X886111Y21188783D01*
X886111Y21188783D02*
X921826Y21224497D01*
X921826Y21224497D02*
X957540Y21295926D01*
X957540Y21295926D02*
X957540Y21581640D01*
X957540Y21581640D02*
X207540Y21581640D01*
X207540Y21581640D02*
X207540Y21331640D01*
X207540Y21331640D02*
X243254Y21260211D01*
X243254Y21260211D02*
X278968Y21224497D01*
X278968Y21224497D02*
X350397Y21188783D01*
X350397Y21188783D02*
X421826Y21188783D01*
X421826Y21188783D02*
X493254Y21224497D01*
X493254Y21224497D02*
X528968Y21260211D01*
X528968Y21260211D02*
X564683Y21331640D01*
X564683Y21331640D02*
X564683Y21581640D01*
X564683Y20581640D02*
X600397Y20474497D01*
X600397Y20474497D02*
X636111Y20438783D01*
X636111Y20438783D02*
X707540Y20403069D01*
X707540Y20403069D02*
X814683Y20403069D01*
X814683Y20403069D02*
X886111Y20438783D01*
X886111Y20438783D02*
X921826Y20474497D01*
X921826Y20474497D02*
X957540Y20545926D01*
X957540Y20545926D02*
X957540Y20831640D01*
X957540Y20831640D02*
X207540Y20831640D01*
X207540Y20831640D02*
X207540Y20581640D01*
X207540Y20581640D02*
X243254Y20510211D01*
X243254Y20510211D02*
X278968Y20474497D01*
X278968Y20474497D02*
X350397Y20438783D01*
X350397Y20438783D02*
X421826Y20438783D01*
X421826Y20438783D02*
X493254Y20474497D01*
X493254Y20474497D02*
X528968Y20510211D01*
X528968Y20510211D02*
X564683Y20581640D01*
X564683Y20581640D02*
X564683Y20831640D01*
X957540Y19688783D02*
X957540Y20117354D01*
X957540Y19903069D02*
X207540Y19903069D01*
X207540Y19903069D02*
X314683Y19974497D01*
X314683Y19974497D02*
X386111Y20045926D01*
X386111Y20045926D02*
X421826Y20117354D01*
X278968Y19403068D02*
X243254Y19367354D01*
X243254Y19367354D02*
X207540Y19295925D01*
X207540Y19295925D02*
X207540Y19117354D01*
X207540Y19117354D02*
X243254Y19045925D01*
X243254Y19045925D02*
X278968Y19010211D01*
X278968Y19010211D02*
X350397Y18974497D01*
X350397Y18974497D02*
X421826Y18974497D01*
X421826Y18974497D02*
X528968Y19010211D01*
X528968Y19010211D02*
X957540Y19438783D01*
X957540Y19438783D02*
X957540Y18974497D01*
X207540Y18724497D02*
X207540Y18260211D01*
X207540Y18260211D02*
X493254Y18510211D01*
X493254Y18510211D02*
X493254Y18403068D01*
X493254Y18403068D02*
X528968Y18331639D01*
X528968Y18331639D02*
X564683Y18295925D01*
X564683Y18295925D02*
X636111Y18260211D01*
X636111Y18260211D02*
X814683Y18260211D01*
X814683Y18260211D02*
X886111Y18295925D01*
X886111Y18295925D02*
X921826Y18331639D01*
X921826Y18331639D02*
X957540Y18403068D01*
X957540Y18403068D02*
X957540Y18617354D01*
X957540Y18617354D02*
X921826Y18688782D01*
X921826Y18688782D02*
X886111Y18724497D01*
X921826Y17903068D02*
X957540Y17903068D01*
X957540Y17903068D02*
X1028968Y17938782D01*
X1028968Y17938782D02*
X1064683Y17974496D01*
X2164998Y28224498D02*
X1414998Y28224498D01*
X1414998Y28224498D02*
X1414998Y28045927D01*
X1414998Y28045927D02*
X1450712Y27938784D01*
X1450712Y27938784D02*
X1522141Y27867355D01*
X1522141Y27867355D02*
X1593569Y27831641D01*
X1593569Y27831641D02*
X1736426Y27795927D01*
X1736426Y27795927D02*
X1843569Y27795927D01*
X1843569Y27795927D02*
X1986426Y27831641D01*
X1986426Y27831641D02*
X2057855Y27867355D01*
X2057855Y27867355D02*
X2129284Y27938784D01*
X2129284Y27938784D02*
X2164998Y28045927D01*
X2164998Y28045927D02*
X2164998Y28224498D01*
X1772141Y27474498D02*
X1772141Y27224498D01*
X2164998Y27117355D02*
X2164998Y27474498D01*
X2164998Y27474498D02*
X1414998Y27474498D01*
X1414998Y27474498D02*
X1414998Y27117355D01*
X2164998Y26438784D02*
X2164998Y26795927D01*
X2164998Y26795927D02*
X1414998Y26795927D01*
X1414998Y26295927D02*
X1414998Y25867355D01*
X2164998Y26081641D02*
X1414998Y26081641D01*
X1950712Y25653069D02*
X1950712Y25295926D01*
X2164998Y25724498D02*
X1414998Y25474498D01*
X1414998Y25474498D02*
X2164998Y25224498D01*
X2093569Y24545927D02*
X2129284Y24581641D01*
X2129284Y24581641D02*
X2164998Y24688784D01*
X2164998Y24688784D02*
X2164998Y24760212D01*
X2164998Y24760212D02*
X2129284Y24867355D01*
X2129284Y24867355D02*
X2057855Y24938784D01*
X2057855Y24938784D02*
X1986426Y24974498D01*
X1986426Y24974498D02*
X1843569Y25010212D01*
X1843569Y25010212D02*
X1736426Y25010212D01*
X1736426Y25010212D02*
X1593569Y24974498D01*
X1593569Y24974498D02*
X1522141Y24938784D01*
X1522141Y24938784D02*
X1450712Y24867355D01*
X1450712Y24867355D02*
X1414998Y24760212D01*
X1414998Y24760212D02*
X1414998Y24688784D01*
X1414998Y24688784D02*
X1450712Y24581641D01*
X1450712Y24581641D02*
X1486426Y24545927D01*
X2164998Y23867355D02*
X2164998Y24224498D01*
X2164998Y24224498D02*
X1414998Y24224498D01*
X2164998Y23617355D02*
X1414998Y23617355D01*
X2164998Y23260212D02*
X1414998Y23260212D01*
X1414998Y23260212D02*
X1414998Y22974498D01*
X1414998Y22974498D02*
X1450712Y22903069D01*
X1450712Y22903069D02*
X1486426Y22867355D01*
X1486426Y22867355D02*
X1557855Y22831641D01*
X1557855Y22831641D02*
X1664998Y22831641D01*
X1664998Y22831641D02*
X1736426Y22867355D01*
X1736426Y22867355D02*
X1772141Y22903069D01*
X1772141Y22903069D02*
X1807855Y22974498D01*
X1807855Y22974498D02*
X1807855Y23260212D01*
X2164998Y22510212D02*
X1414998Y22510212D01*
X1414998Y22510212D02*
X1414998Y22224498D01*
X1414998Y22224498D02*
X1450712Y22153069D01*
X1450712Y22153069D02*
X1486426Y22117355D01*
X1486426Y22117355D02*
X1557855Y22081641D01*
X1557855Y22081641D02*
X1664998Y22081641D01*
X1664998Y22081641D02*
X1736426Y22117355D01*
X1736426Y22117355D02*
X1772141Y22153069D01*
X1772141Y22153069D02*
X1807855Y22224498D01*
X1807855Y22224498D02*
X1807855Y22510212D01*
X1772141Y21760212D02*
X1772141Y21510212D01*
X2164998Y21403069D02*
X2164998Y21760212D01*
X2164998Y21760212D02*
X1414998Y21760212D01*
X1414998Y21760212D02*
X1414998Y21403069D01*
X2164998Y20653070D02*
X1807855Y20903070D01*
X2164998Y21081641D02*
X1414998Y21081641D01*
X1414998Y21081641D02*
X1414998Y20795927D01*
X1414998Y20795927D02*
X1450712Y20724498D01*
X1450712Y20724498D02*
X1486426Y20688784D01*
X1486426Y20688784D02*
X1557855Y20653070D01*
X1557855Y20653070D02*
X1664998Y20653070D01*
X1664998Y20653070D02*
X1736426Y20688784D01*
X1736426Y20688784D02*
X1772141Y20724498D01*
X1772141Y20724498D02*
X1807855Y20795927D01*
X1807855Y20795927D02*
X1807855Y21081641D01*
X2129284Y20295927D02*
X2164998Y20295927D01*
X2164998Y20295927D02*
X2236426Y20331641D01*
X2236426Y20331641D02*
X2272141Y20367355D01*
X1414998Y19403069D02*
X2022141Y19403069D01*
X2022141Y19403069D02*
X2093569Y19367355D01*
X2093569Y19367355D02*
X2129284Y19331640D01*
X2129284Y19331640D02*
X2164998Y19260212D01*
X2164998Y19260212D02*
X2164998Y19117355D01*
X2164998Y19117355D02*
X2129284Y19045926D01*
X2129284Y19045926D02*
X2093569Y19010212D01*
X2093569Y19010212D02*
X2022141Y18974498D01*
X2022141Y18974498D02*
X1414998Y18974498D01*
X2164998Y18260212D02*
X2164998Y18617355D01*
X2164998Y18617355D02*
X1414998Y18617355D01*
X1807855Y17867355D02*
X2164998Y17867355D01*
X1414998Y18117355D02*
X1807855Y17867355D01*
X1807855Y17867355D02*
X1414998Y17617355D01*
X1414998Y17367355D02*
X2022141Y17367355D01*
X2022141Y17367355D02*
X2093569Y17331641D01*
X2093569Y17331641D02*
X2129284Y17295926D01*
X2129284Y17295926D02*
X2164998Y17224498D01*
X2164998Y17224498D02*
X2164998Y17081641D01*
X2164998Y17081641D02*
X2129284Y17010212D01*
X2129284Y17010212D02*
X2093569Y16974498D01*
X2093569Y16974498D02*
X2022141Y16938784D01*
X2022141Y16938784D02*
X1414998Y16938784D01*
X2129284Y16545927D02*
X2164998Y16545927D01*
X2164998Y16545927D02*
X2236426Y16581641D01*
X2236426Y16581641D02*
X2272141Y16617355D01*
X3372456Y19403070D02*
X2622456Y19403070D01*
X2622456Y19403070D02*
X3158170Y19153070D01*
X3158170Y19153070D02*
X2622456Y18903070D01*
X2622456Y18903070D02*
X3372456Y18903070D01*
X3158170Y18581641D02*
X3158170Y18224498D01*
X3372456Y18653070D02*
X2622456Y18403070D01*
X2622456Y18403070D02*
X3372456Y18153070D01*
X2622456Y18010213D02*
X2622456Y17581641D01*
X3372456Y17795927D02*
X2622456Y17795927D01*
X2622456Y17438784D02*
X2622456Y17010212D01*
X3372456Y17224498D02*
X2622456Y17224498D01*
X3336742Y16724498D02*
X3372456Y16724498D01*
X3372456Y16724498D02*
X3443884Y16760212D01*
X3443884Y16760212D02*
X3479599Y16795926D01*
X4294200Y18260212D02*
X4294200Y17688783D01*
X4579914Y17974498D02*
X4008485Y17974498D01*
X-4851567Y26055203D02*
X-4351567Y26055203D01*
X-4351567Y26055203D02*
X-4251567Y26088536D01*
X-4251567Y26088536D02*
X-4184900Y26155203D01*
X-4184900Y26155203D02*
X-4151567Y26255203D01*
X-4151567Y26255203D02*
X-4151567Y26321869D01*
X-4151567Y25388536D02*
X-4151567Y25721870D01*
X-4151567Y25721870D02*
X-4851567Y25721870D01*
X-4218234Y24755203D02*
X-4184900Y24788536D01*
X-4184900Y24788536D02*
X-4151567Y24888536D01*
X-4151567Y24888536D02*
X-4151567Y24955203D01*
X-4151567Y24955203D02*
X-4184900Y25055203D01*
X-4184900Y25055203D02*
X-4251567Y25121869D01*
X-4251567Y25121869D02*
X-4318234Y25155203D01*
X-4318234Y25155203D02*
X-4451567Y25188536D01*
X-4451567Y25188536D02*
X-4551567Y25188536D01*
X-4551567Y25188536D02*
X-4684900Y25155203D01*
X-4684900Y25155203D02*
X-4751567Y25121869D01*
X-4751567Y25121869D02*
X-4818234Y25055203D01*
X-4818234Y25055203D02*
X-4851567Y24955203D01*
X-4851567Y24955203D02*
X-4851567Y24888536D01*
X-4851567Y24888536D02*
X-4818234Y24788536D01*
X-4818234Y24788536D02*
X-4784900Y24755203D01*
X-4851567Y24255203D02*
X-4351567Y24255203D01*
X-4351567Y24255203D02*
X-4251567Y24288536D01*
X-4251567Y24288536D02*
X-4184900Y24355203D01*
X-4184900Y24355203D02*
X-4151567Y24455203D01*
X-4151567Y24455203D02*
X-4151567Y24521869D01*
X-4151567Y23588536D02*
X-4151567Y23921870D01*
X-4151567Y23921870D02*
X-4851567Y23921870D01*
X-4218234Y22955203D02*
X-4184900Y22988536D01*
X-4184900Y22988536D02*
X-4151567Y23088536D01*
X-4151567Y23088536D02*
X-4151567Y23155203D01*
X-4151567Y23155203D02*
X-4184900Y23255203D01*
X-4184900Y23255203D02*
X-4251567Y23321869D01*
X-4251567Y23321869D02*
X-4318234Y23355203D01*
X-4318234Y23355203D02*
X-4451567Y23388536D01*
X-4451567Y23388536D02*
X-4551567Y23388536D01*
X-4551567Y23388536D02*
X-4684900Y23355203D01*
X-4684900Y23355203D02*
X-4751567Y23321869D01*
X-4751567Y23321869D02*
X-4818234Y23255203D01*
X-4818234Y23255203D02*
X-4851567Y23155203D01*
X-4851567Y23155203D02*
X-4851567Y23088536D01*
X-4851567Y23088536D02*
X-4818234Y22988536D01*
X-4818234Y22988536D02*
X-4784900Y22955203D01*
X-4851567Y22455203D02*
X-4351567Y22455203D01*
X-4351567Y22455203D02*
X-4251567Y22488536D01*
X-4251567Y22488536D02*
X-4184900Y22555203D01*
X-4184900Y22555203D02*
X-4151567Y22655203D01*
X-4151567Y22655203D02*
X-4151567Y22721869D01*
X-4151567Y21788536D02*
X-4151567Y22121870D01*
X-4151567Y22121870D02*
X-4851567Y22121870D01*
X-4218234Y21155203D02*
X-4184900Y21188536D01*
X-4184900Y21188536D02*
X-4151567Y21288536D01*
X-4151567Y21288536D02*
X-4151567Y21355203D01*
X-4151567Y21355203D02*
X-4184900Y21455203D01*
X-4184900Y21455203D02*
X-4251567Y21521869D01*
X-4251567Y21521869D02*
X-4318234Y21555203D01*
X-4318234Y21555203D02*
X-4451567Y21588536D01*
X-4451567Y21588536D02*
X-4551567Y21588536D01*
X-4551567Y21588536D02*
X-4684900Y21555203D01*
X-4684900Y21555203D02*
X-4751567Y21521869D01*
X-4751567Y21521869D02*
X-4818234Y21455203D01*
X-4818234Y21455203D02*
X-4851567Y21355203D01*
X-4851567Y21355203D02*
X-4851567Y21288536D01*
X-4851567Y21288536D02*
X-4818234Y21188536D01*
X-4818234Y21188536D02*
X-4784900Y21155203D01*
X-4851567Y20655203D02*
X-4351567Y20655203D01*
X-4351567Y20655203D02*
X-4251567Y20688536D01*
X-4251567Y20688536D02*
X-4184900Y20755203D01*
X-4184900Y20755203D02*
X-4151567Y20855203D01*
X-4151567Y20855203D02*
X-4151567Y20921869D01*
X-4151567Y19988536D02*
X-4151567Y20321870D01*
X-4151567Y20321870D02*
X-4851567Y20321870D01*
X-4218234Y19355203D02*
X-4184900Y19388536D01*
X-4184900Y19388536D02*
X-4151567Y19488536D01*
X-4151567Y19488536D02*
X-4151567Y19555203D01*
X-4151567Y19555203D02*
X-4184900Y19655203D01*
X-4184900Y19655203D02*
X-4251567Y19721869D01*
X-4251567Y19721869D02*
X-4318234Y19755203D01*
X-4318234Y19755203D02*
X-4451567Y19788536D01*
X-4451567Y19788536D02*
X-4551567Y19788536D01*
X-4551567Y19788536D02*
X-4684900Y19755203D01*
X-4684900Y19755203D02*
X-4751567Y19721869D01*
X-4751567Y19721869D02*
X-4818234Y19655203D01*
X-4818234Y19655203D02*
X-4851567Y19555203D01*
X-4851567Y19555203D02*
X-4851567Y19488536D01*
X-4851567Y19488536D02*
X-4818234Y19388536D01*
X-4818234Y19388536D02*
X-4784900Y19355203D01*
D12*
%TO.C,R18*%
X6078800Y30246641D02*
X6078800Y29939359D01*
X6838800Y30246641D02*
X6838800Y29939359D01*
%TO.C,C3*%
X3914400Y11341564D02*
X3914400Y11557236D01*
X4634400Y11341564D02*
X4634400Y11557236D01*
%TO.C,C18*%
X5057600Y27762236D02*
X5057600Y27546564D01*
X5777600Y27762236D02*
X5777600Y27546564D01*
%TO.C,R28*%
X12708441Y22802200D02*
X12401159Y22802200D01*
X12708441Y22042200D02*
X12401159Y22042200D01*
%TO.C,Q4*%
X8200800Y12251800D02*
X8200800Y11601800D01*
X8200800Y10951800D02*
X8200800Y11601800D01*
X11320800Y12251800D02*
X11320800Y11601800D01*
X11320800Y10951800D02*
X11320800Y11601800D01*
X11600800Y10199300D02*
X11270800Y10439300D01*
X11600800Y10679300D01*
X11600800Y10199300D01*
G36*
X11600800Y10199300D02*
G01*
X11270800Y10439300D01*
X11600800Y10679300D01*
X11600800Y10199300D01*
G37*
%TO.C,R2*%
X1964000Y11577641D02*
X1964000Y11270359D01*
X2724000Y11577641D02*
X2724000Y11270359D01*
%TO.C,R13*%
X15957159Y25443800D02*
X16264441Y25443800D01*
X15957159Y24683800D02*
X16264441Y24683800D01*
%TO.C,R3*%
X5517759Y13455000D02*
X5825041Y13455000D01*
X5517759Y12695000D02*
X5825041Y12695000D01*
%TO.C,C24*%
X6683200Y27714036D02*
X6683200Y27498364D01*
X7403200Y27714036D02*
X7403200Y27498364D01*
%TO.C,C1*%
X16949593Y18467729D02*
X16949593Y18252057D01*
X17669593Y18467729D02*
X17669593Y18252057D01*
%TO.C,Q9*%
X14642200Y2978500D02*
X14642200Y2328500D01*
X14642200Y1678500D02*
X14642200Y2328500D01*
X17762200Y2978500D02*
X17762200Y2328500D01*
X17762200Y1678500D02*
X17762200Y2328500D01*
X18042200Y926000D02*
X17712200Y1166000D01*
X18042200Y1406000D01*
X18042200Y926000D01*
G36*
X18042200Y926000D02*
G01*
X17712200Y1166000D01*
X18042200Y1406000D01*
X18042200Y926000D01*
G37*
%TO.C,C12*%
X16970000Y26619436D02*
X16970000Y26403764D01*
X17690000Y26619436D02*
X17690000Y26403764D01*
D13*
%TO.C,U3*%
X14913000Y24255000D02*
X15053000Y24255000D01*
X14913000Y23865000D02*
X14913000Y24255000D01*
X14913000Y22215000D02*
X14913000Y22605000D01*
X15053000Y22215000D02*
X14913000Y22215000D01*
X16813000Y24255000D02*
X16943000Y24255000D01*
X16943000Y24255000D02*
X16943000Y23865000D01*
X16943000Y22605000D02*
X16943000Y22215000D01*
X16943000Y22215000D02*
X16813000Y22215000D01*
X15633000Y22905000D02*
G75*
G02*
X15513000Y22905000I-60000J0D01*
G01*
X15513000Y22905000D02*
G75*
G02*
X15633000Y22905000I60000J0D01*
G01*
D12*
%TO.C,R15*%
X7044000Y29888559D02*
X7044000Y30195841D01*
X7804000Y29888559D02*
X7804000Y30195841D01*
%TO.C,U9*%
X10388600Y34977000D02*
X13113600Y34977000D01*
X10388600Y34717000D02*
X10388600Y34977000D01*
X10388600Y29787000D02*
X10388600Y29527000D01*
X10388600Y29527000D02*
X13113600Y29527000D01*
X15838600Y34977000D02*
X13113600Y34977000D01*
X15838600Y34717000D02*
X15838600Y34977000D01*
X15838600Y29787000D02*
X15838600Y29527000D01*
X15838600Y29527000D02*
X13113600Y29527000D01*
X16621100Y34717000D02*
X16381100Y35047000D01*
X16861100Y35047000D01*
X16621100Y34717000D01*
G36*
X16621100Y34717000D02*
G01*
X16381100Y35047000D01*
X16861100Y35047000D01*
X16621100Y34717000D01*
G37*
%TO.C,R20*%
X11057200Y6596759D02*
X11057200Y6904041D01*
X11817200Y6596759D02*
X11817200Y6904041D01*
%TO.C,R16*%
X13648000Y23515641D02*
X13648000Y23208359D01*
X14408000Y23515641D02*
X14408000Y23208359D01*
%TO.C,C21*%
X4067000Y27739436D02*
X4067000Y27523764D01*
X4787000Y27739436D02*
X4787000Y27523764D01*
%TO.C,R1*%
X5240600Y17368841D02*
X5240600Y17061559D01*
X6000600Y17368841D02*
X6000600Y17061559D01*
%TO.C,C4*%
X15913836Y21715400D02*
X15698164Y21715400D01*
X15913836Y20995400D02*
X15698164Y20995400D01*
%TO.C,D1*%
X8479000Y837200D02*
X8479000Y3497200D01*
X10179000Y3497200D02*
X8479000Y3497200D01*
X10179000Y837200D02*
X10179000Y3497200D01*
%TO.C,R24*%
X11082600Y8527159D02*
X11082600Y8834441D01*
X11842600Y8527159D02*
X11842600Y8834441D01*
%TO.C,Q5*%
X14662600Y7906100D02*
X14662600Y7256100D01*
X14662600Y6606100D02*
X14662600Y7256100D01*
X17782600Y7906100D02*
X17782600Y7256100D01*
X17782600Y6606100D02*
X17782600Y7256100D01*
X18062600Y5853600D02*
X17732600Y6093600D01*
X18062600Y6333600D01*
X18062600Y5853600D01*
G36*
X18062600Y5853600D02*
G01*
X17732600Y6093600D01*
X18062600Y6333600D01*
X18062600Y5853600D01*
G37*
%TO.C,R17*%
X10143041Y9568800D02*
X9835759Y9568800D01*
X10143041Y8808800D02*
X9835759Y8808800D01*
%TO.C,R21*%
X9835759Y7486000D02*
X10143041Y7486000D01*
X9835759Y6726000D02*
X10143041Y6726000D01*
%TO.C,C23*%
X7213800Y17363964D02*
X7213800Y17579636D01*
X7933800Y17363964D02*
X7933800Y17579636D01*
D10*
%TO.C,X2*%
X8143400Y18459400D02*
X11443400Y18459400D01*
X8143400Y15799400D02*
X8143400Y18459400D01*
X10423400Y15569400D02*
X11683400Y15569400D01*
X11323400Y15799400D02*
X8143400Y15799400D01*
X11443400Y18459400D02*
X11443400Y15799400D01*
X11443400Y15799400D02*
X11323400Y15799400D01*
X11683400Y15569400D02*
X11683400Y17029400D01*
D12*
%TO.C,C17*%
X6251200Y17338564D02*
X6251200Y17554236D01*
X6971200Y17338564D02*
X6971200Y17554236D01*
%TO.C,C2*%
X12327500Y17008164D02*
X12327500Y17223836D01*
X13047500Y17008164D02*
X13047500Y17223836D01*
%TO.C,C16*%
X7648400Y27711436D02*
X7648400Y27495764D01*
X8368400Y27711436D02*
X8368400Y27495764D01*
%TO.C,U8*%
X3826800Y26171800D02*
X4476800Y26171800D01*
X3826800Y25521800D02*
X3826800Y26171800D01*
X3826800Y19601800D02*
X3826800Y18951800D01*
X3826800Y18951800D02*
X4476800Y18951800D01*
X10746800Y26171800D02*
X10396800Y26171800D01*
X11046800Y25931800D02*
X11046800Y25521800D01*
X11046800Y19601800D02*
X11046800Y18951800D01*
X11046800Y18951800D02*
X10396800Y18951800D01*
X11046800Y26171800D02*
X10806800Y26501800D01*
X11286800Y26501800D01*
X11046800Y26171800D01*
G36*
X11046800Y26171800D02*
G01*
X10806800Y26501800D01*
X11286800Y26501800D01*
X11046800Y26171800D01*
G37*
%TO.C,R10*%
X16388959Y15182200D02*
X16696241Y15182200D01*
X16388959Y14422200D02*
X16696241Y14422200D01*
%TO.C,Q2*%
X14830200Y13011500D02*
X14830200Y12361500D01*
X14830200Y11711500D02*
X14830200Y12361500D01*
X17950200Y13011500D02*
X17950200Y12361500D01*
X17950200Y11711500D02*
X17950200Y12361500D01*
X14880200Y13524000D02*
X14550200Y13284000D01*
X14550200Y13764000D01*
X14880200Y13524000D01*
G36*
X14880200Y13524000D02*
G01*
X14550200Y13284000D01*
X14550200Y13764000D01*
X14880200Y13524000D01*
G37*
%TO.C,R26*%
X12629759Y14801200D02*
X12937041Y14801200D01*
X12629759Y14041200D02*
X12937041Y14041200D01*
%TO.C,R27*%
X9581759Y14420200D02*
X9889041Y14420200D01*
X9581759Y13660200D02*
X9889041Y13660200D01*
%TO.C,C7*%
X564000Y10001020D02*
X564000Y10282180D01*
X1584000Y10001020D02*
X1584000Y10282180D01*
%TO.C,R25*%
X9835759Y8552800D02*
X10143041Y8552800D01*
X9835759Y7792800D02*
X10143041Y7792800D01*
D14*
%TO.C,U2*%
X13504300Y20694000D02*
X14644300Y20694000D01*
X13504300Y20244000D02*
X13504300Y20694000D01*
X13504300Y16124000D02*
X13504300Y16584000D01*
X14694300Y16124000D02*
X13504300Y16124000D01*
X15404300Y20694000D02*
X16554300Y20694000D01*
X16554300Y20694000D02*
X16554300Y20574000D01*
X16554300Y20574000D02*
X16554300Y20244000D01*
X16554300Y16584000D02*
X16554300Y16124000D01*
X16554300Y16124000D02*
X15354300Y16124000D01*
D13*
X16914300Y16384000D02*
G75*
G02*
X16694300Y16384000I-110000J0D01*
G01*
X16694300Y16384000D02*
G75*
G02*
X16914300Y16384000I110000J0D01*
G01*
D12*
%TO.C,R12*%
X16797841Y5174600D02*
X16490559Y5174600D01*
X16797841Y4414600D02*
X16490559Y4414600D01*
%TO.C,C9*%
X14910764Y29157600D02*
X15126436Y29157600D01*
X14910764Y28437600D02*
X15126436Y28437600D01*
%TO.C,C13*%
X9602164Y15644800D02*
X9817836Y15644800D01*
X9602164Y14924800D02*
X9817836Y14924800D01*
%TO.C,C25*%
X11689600Y24778164D02*
X11689600Y24993836D01*
X12409600Y24778164D02*
X12409600Y24993836D01*
%TO.C,C19*%
X2441200Y20485564D02*
X2441200Y20701236D01*
X3161200Y20485564D02*
X3161200Y20701236D01*
%TO.C,C50*%
X4750764Y39444600D02*
X4966436Y39444600D01*
X4750764Y38724600D02*
X4966436Y38724600D01*
%TO.C,C8*%
X13058400Y27368964D02*
X13058400Y27584636D01*
X13778400Y27368964D02*
X13778400Y27584636D01*
D13*
%TO.C,J7*%
X-757100Y36431200D02*
X-427100Y36761200D01*
X-757100Y35131200D02*
X-757100Y30091200D01*
X-757100Y30091200D02*
X-27100Y30091200D01*
X-757100Y28671200D02*
X-757100Y28631200D01*
X-757100Y28631200D02*
X-427100Y28301200D01*
X-677100Y36431200D02*
X-757100Y36431200D01*
X-427100Y36761200D02*
X-27100Y36361200D01*
X-427100Y28301200D02*
X-27100Y28701200D01*
X-27100Y36361200D02*
X-27100Y36281200D01*
X-27100Y36281200D02*
X5092900Y36281200D01*
X-27100Y35781200D02*
X-677100Y36431200D01*
X-27100Y35131200D02*
X-757100Y35131200D01*
X-27100Y29401200D02*
X-757100Y28671200D01*
X-27100Y28781200D02*
X-27100Y36281200D01*
X-27100Y28701200D02*
X-27100Y28781200D01*
X5092900Y36281200D02*
X5092900Y35781200D01*
X5092900Y29281200D02*
X5092900Y28781200D01*
X5092900Y28781200D02*
X-27100Y28781200D01*
D12*
%TO.C,C26*%
X12662636Y21766200D02*
X12446964Y21766200D01*
X12662636Y21046200D02*
X12446964Y21046200D01*
D10*
%TO.C,U5*%
X6190200Y38810400D02*
X6190200Y37770400D01*
X6190200Y35650400D02*
X6190200Y36690400D01*
X6360200Y38810400D02*
X6190200Y38810400D01*
X6360200Y35650400D02*
X6190200Y35650400D01*
X11180200Y38810400D02*
X11350200Y38810400D01*
X11180200Y35650400D02*
X11350200Y35650400D01*
X11350200Y38810400D02*
X11350200Y37770400D01*
X11350200Y35650400D02*
X11350200Y36690400D01*
D13*
X6890200Y39820400D02*
G75*
G02*
X6650200Y39820400I-120000J0D01*
G01*
X6650200Y39820400D02*
G75*
G02*
X6890200Y39820400I120000J0D01*
G01*
D12*
%TO.C,R23*%
X9177600Y5710241D02*
X9177600Y5402959D01*
X9937600Y5710241D02*
X9937600Y5402959D01*
%TO.C,C32*%
X12281636Y39315000D02*
X12065964Y39315000D01*
X12281636Y38595000D02*
X12065964Y38595000D01*
%TO.C,Q3*%
X657000Y6054200D02*
X657000Y5404200D01*
X657000Y4754200D02*
X657000Y5404200D01*
X3777000Y6054200D02*
X3777000Y5404200D01*
X3777000Y4754200D02*
X3777000Y5404200D01*
X707000Y6566700D02*
X377000Y6326700D01*
X377000Y6806700D01*
X707000Y6566700D01*
G36*
X707000Y6566700D02*
G01*
X377000Y6326700D01*
X377000Y6806700D01*
X707000Y6566700D01*
G37*
%TO.C,R22*%
X11031800Y4590159D02*
X11031800Y4897441D01*
X11791800Y4590159D02*
X11791800Y4897441D01*
%TO.C,C22*%
X2441200Y25984436D02*
X2441200Y25768764D01*
X3161200Y25984436D02*
X3161200Y25768764D01*
D13*
%TO.C,U6*%
X3066400Y7455600D02*
X4466400Y7455600D01*
X3346400Y10375600D02*
X4186400Y10375600D01*
X4656400Y9365600D02*
X4656400Y8605600D01*
D15*
%TO.C,U4*%
X14208800Y28213400D02*
X14838800Y28213400D01*
X14208800Y27963400D02*
X14208800Y28213400D01*
X14208800Y25903400D02*
X14208800Y25673400D01*
X14208800Y25673400D02*
X14838800Y25673400D01*
X15858800Y28213400D02*
X16488800Y28213400D01*
X15858800Y25673400D02*
X16488800Y25673400D01*
X16488800Y28213400D02*
X16488800Y27963400D01*
X16488800Y25673400D02*
X16488800Y25933400D01*
D10*
X13958800Y26193400D02*
G75*
G02*
X13818800Y26193400I-70000J0D01*
G01*
X13818800Y26193400D02*
G75*
G02*
X13958800Y26193400I70000J0D01*
G01*
D12*
%TO.C,C6*%
X1067764Y8405800D02*
X1283436Y8405800D01*
X1067764Y7685800D02*
X1283436Y7685800D01*
%TO.C,C27*%
X7443164Y34491600D02*
X7658836Y34491600D01*
X7443164Y33771600D02*
X7658836Y33771600D01*
%TO.C,R11*%
X16823241Y10076800D02*
X16515959Y10076800D01*
X16823241Y9316800D02*
X16515959Y9316800D01*
%TO.C,Q1*%
X1922600Y3281200D02*
X2572600Y3281200D01*
X1922600Y161200D02*
X2572600Y161200D01*
X3222600Y3281200D02*
X2572600Y3281200D01*
X3222600Y161200D02*
X2572600Y161200D01*
X1650100Y-118800D02*
X1170100Y-118800D01*
X1410100Y211200D01*
X1650100Y-118800D01*
G36*
X1650100Y-118800D02*
G01*
X1170100Y-118800D01*
X1410100Y211200D01*
X1650100Y-118800D01*
G37*
%TO.C,R14*%
X13340959Y36035600D02*
X13648241Y36035600D01*
X13340959Y35275600D02*
X13648241Y35275600D01*
%TO.C,C5*%
X4701800Y6591764D02*
X4701800Y6807436D01*
X5421800Y6591764D02*
X5421800Y6807436D01*
%TO.C,R4*%
X2929200Y11270359D02*
X2929200Y11577641D01*
X3689200Y11270359D02*
X3689200Y11577641D01*
%TD*%
%LPC*%
D16*
%TO.C,J6*%
X13240600Y2356200D03*
D17*
X13240600Y4896200D03*
X13240600Y7436200D03*
X13240600Y9976200D03*
X13240600Y12516200D03*
%TD*%
D18*
%TO.C,H1*%
X15831400Y37763800D03*
%TD*%
D16*
%TO.C,J2*%
X6763600Y9950800D03*
D17*
X6763600Y7410800D03*
X6763600Y4870800D03*
X6763600Y2330800D03*
%TD*%
D18*
%TO.C,H2*%
X2369400Y14527100D03*
%TD*%
D19*
%TO.C,R18*%
X6458800Y29583000D03*
X6458800Y30603000D03*
%TD*%
D20*
%TO.C,C3*%
X4274400Y11929400D03*
X4274400Y10969400D03*
%TD*%
D21*
%TO.C,C18*%
X5417600Y27174400D03*
X5417600Y28134400D03*
%TD*%
D22*
%TO.C,R28*%
X12044800Y22422200D03*
X13064800Y22422200D03*
%TD*%
D23*
%TO.C,Q4*%
X10710800Y10664300D03*
X8810800Y10664300D03*
X9760800Y12539300D03*
%TD*%
D19*
%TO.C,R2*%
X2344000Y10914000D03*
X2344000Y11934000D03*
%TD*%
D24*
%TO.C,R13*%
X16620800Y25063800D03*
X15600800Y25063800D03*
%TD*%
%TO.C,R3*%
X6181400Y13075000D03*
X5161400Y13075000D03*
%TD*%
D21*
%TO.C,C24*%
X7043200Y27126200D03*
X7043200Y28086200D03*
%TD*%
%TO.C,C1*%
X17309593Y17879893D03*
X17309593Y18839893D03*
%TD*%
D23*
%TO.C,Q9*%
X17152200Y1391000D03*
X15252200Y1391000D03*
X16202200Y3266000D03*
%TD*%
D21*
%TO.C,C12*%
X17330000Y26031600D03*
X17330000Y26991600D03*
%TD*%
D25*
%TO.C,U3*%
X15063000Y22985000D03*
X15063000Y23485000D03*
D26*
X15433000Y24105000D03*
X15933000Y24105000D03*
X16433000Y24105000D03*
D25*
X16803000Y23485000D03*
X16803000Y22985000D03*
D26*
X16433000Y22365000D03*
X15933000Y22365000D03*
X15433000Y22365000D03*
%TD*%
D27*
%TO.C,R15*%
X7424000Y30552200D03*
X7424000Y29532200D03*
%TD*%
D28*
%TO.C,U9*%
X16713600Y34157000D03*
X16713600Y32887000D03*
X16713600Y31617000D03*
X16713600Y30347000D03*
X9513600Y30347000D03*
X9513600Y31617000D03*
X9513600Y32887000D03*
X9513600Y34157000D03*
%TD*%
D27*
%TO.C,R20*%
X11437200Y7260400D03*
X11437200Y6240400D03*
%TD*%
D19*
%TO.C,R16*%
X14028000Y22852000D03*
X14028000Y23872000D03*
%TD*%
D21*
%TO.C,C21*%
X4427000Y27151600D03*
X4427000Y28111600D03*
%TD*%
D19*
%TO.C,R1*%
X5620600Y16705200D03*
X5620600Y17725200D03*
%TD*%
D29*
%TO.C,C4*%
X15326000Y21355400D03*
X16286000Y21355400D03*
%TD*%
D30*
%TO.C,D1*%
X9329000Y2987200D03*
X9329000Y787200D03*
%TD*%
D27*
%TO.C,R24*%
X11462600Y9190800D03*
X11462600Y8170800D03*
%TD*%
D23*
%TO.C,Q5*%
X17172600Y6318600D03*
X15272600Y6318600D03*
X16222600Y8193600D03*
%TD*%
D22*
%TO.C,R17*%
X9479400Y9188800D03*
X10499400Y9188800D03*
%TD*%
D24*
%TO.C,R21*%
X10499400Y7106000D03*
X9479400Y7106000D03*
%TD*%
D20*
%TO.C,C23*%
X7573800Y17951800D03*
X7573800Y16991800D03*
%TD*%
D31*
%TO.C,X2*%
X10693400Y16529400D03*
X8893400Y16529400D03*
X8893400Y17729400D03*
X10693400Y17729400D03*
%TD*%
D20*
%TO.C,C17*%
X6611200Y17926400D03*
X6611200Y16966400D03*
%TD*%
%TO.C,C2*%
X12687500Y17596000D03*
X12687500Y16636000D03*
%TD*%
D21*
%TO.C,C16*%
X8008400Y27123600D03*
X8008400Y28083600D03*
%TD*%
D32*
%TO.C,U8*%
X10874300Y25161800D03*
X10874300Y24761800D03*
X10874300Y24361800D03*
X10874300Y23961800D03*
X10874300Y23561800D03*
X10874300Y23161800D03*
X10874300Y22761800D03*
X10874300Y22361800D03*
X10874300Y21961800D03*
X10874300Y21561800D03*
X10874300Y21161800D03*
X10874300Y20761800D03*
X10874300Y20361800D03*
X10874300Y19961800D03*
D33*
X10036800Y19124300D03*
X9636800Y19124300D03*
X9236800Y19124300D03*
X8836800Y19124300D03*
X8436800Y19124300D03*
X8036800Y19124300D03*
X7636800Y19124300D03*
X7236800Y19124300D03*
X6836800Y19124300D03*
X6436800Y19124300D03*
X6036800Y19124300D03*
X5636800Y19124300D03*
X5236800Y19124300D03*
X4836800Y19124300D03*
D32*
X3999300Y19961800D03*
X3999300Y20361800D03*
X3999300Y20761800D03*
X3999300Y21161800D03*
X3999300Y21561800D03*
X3999300Y21961800D03*
X3999300Y22361800D03*
X3999300Y22761800D03*
X3999300Y23161800D03*
X3999300Y23561800D03*
X3999300Y23961800D03*
X3999300Y24361800D03*
X3999300Y24761800D03*
X3999300Y25161800D03*
D33*
X4836800Y25999300D03*
X5236800Y25999300D03*
X5636800Y25999300D03*
X6036800Y25999300D03*
X6436800Y25999300D03*
X6836800Y25999300D03*
X7236800Y25999300D03*
X7636800Y25999300D03*
X8036800Y25999300D03*
X8436800Y25999300D03*
X8836800Y25999300D03*
X9236800Y25999300D03*
X9636800Y25999300D03*
X10036800Y25999300D03*
D34*
X7436800Y22561800D03*
%TD*%
D24*
%TO.C,R10*%
X17052600Y14802200D03*
X16032600Y14802200D03*
%TD*%
D35*
%TO.C,Q2*%
X15440200Y13299000D03*
X17340200Y13299000D03*
X16390200Y11424000D03*
%TD*%
D24*
%TO.C,R26*%
X13293400Y14421200D03*
X12273400Y14421200D03*
%TD*%
%TO.C,R27*%
X10245400Y14040200D03*
X9225400Y14040200D03*
%TD*%
D36*
%TO.C,C7*%
X1074000Y10916600D03*
X1074000Y9366600D03*
%TD*%
D24*
%TO.C,R25*%
X10499400Y8172800D03*
X9479400Y8172800D03*
%TD*%
D37*
%TO.C,U2*%
X16224300Y16914000D03*
X16224300Y17414000D03*
X16224300Y17914000D03*
X16224300Y18414000D03*
X16224300Y18914000D03*
X16224300Y19414000D03*
X16224300Y19914000D03*
D38*
X15024300Y20324000D03*
D37*
X13824300Y19914000D03*
X13824300Y19414000D03*
X13824300Y18914000D03*
X13824300Y18414000D03*
X13824300Y17914000D03*
X13824300Y17414000D03*
X13824300Y16914000D03*
D38*
X15024300Y16504000D03*
%TD*%
D22*
%TO.C,R12*%
X16134200Y4794600D03*
X17154200Y4794600D03*
%TD*%
D39*
%TO.C,C9*%
X15498600Y28797600D03*
X14538600Y28797600D03*
%TD*%
%TO.C,C13*%
X10190000Y15284800D03*
X9230000Y15284800D03*
%TD*%
D20*
%TO.C,C25*%
X12049600Y25366000D03*
X12049600Y24406000D03*
%TD*%
%TO.C,C19*%
X2801200Y21073400D03*
X2801200Y20113400D03*
%TD*%
D39*
%TO.C,C50*%
X5338600Y39084600D03*
X4378600Y39084600D03*
%TD*%
D20*
%TO.C,C8*%
X13418400Y27956800D03*
X13418400Y26996800D03*
%TD*%
D40*
%TO.C,J7*%
X4772900Y31231200D03*
X4772900Y31881200D03*
X4772900Y32531200D03*
X4772900Y33181200D03*
X4782900Y33831200D03*
D41*
X5022900Y34951200D03*
X5022900Y30111200D03*
D42*
X2122900Y28931200D03*
X2122900Y36131200D03*
%TD*%
D29*
%TO.C,C26*%
X12074800Y21406200D03*
X13034800Y21406200D03*
%TD*%
D43*
%TO.C,U5*%
X6770200Y38640400D03*
X7570200Y38640400D03*
X8370200Y38640400D03*
X9170200Y38640400D03*
X9970200Y38640400D03*
X10770200Y38640400D03*
D44*
X11070200Y37230400D03*
D43*
X10770200Y35820400D03*
X9970200Y35820400D03*
X9170200Y35820400D03*
X8370200Y35820400D03*
X7570200Y35820400D03*
X6770200Y35820400D03*
D44*
X6470200Y37230400D03*
%TD*%
D19*
%TO.C,R23*%
X9557600Y5046600D03*
X9557600Y6066600D03*
%TD*%
D29*
%TO.C,C32*%
X11693800Y38955000D03*
X12653800Y38955000D03*
%TD*%
D35*
%TO.C,Q3*%
X1267000Y6341700D03*
X3167000Y6341700D03*
X2217000Y4466700D03*
%TD*%
D27*
%TO.C,R22*%
X11411800Y5253800D03*
X11411800Y4233800D03*
%TD*%
D21*
%TO.C,C22*%
X2801200Y25396600D03*
X2801200Y26356600D03*
%TD*%
D45*
%TO.C,U6*%
X2666400Y8035600D03*
X2666400Y8985600D03*
X2666400Y9935600D03*
X4866400Y9935600D03*
X4866400Y8035600D03*
%TD*%
D46*
%TO.C,U4*%
X14468800Y26193400D03*
X14468800Y26693400D03*
X14468800Y27193400D03*
X14468800Y27693400D03*
D47*
X15098800Y27823400D03*
X15598800Y27823400D03*
D46*
X16228800Y27693400D03*
X16228800Y27193400D03*
X16228800Y26693400D03*
X16228800Y26193400D03*
D47*
X15598800Y26063400D03*
X15098800Y26063400D03*
%TD*%
D39*
%TO.C,C6*%
X1655600Y8045800D03*
X695600Y8045800D03*
%TD*%
%TO.C,C27*%
X8031000Y34131600D03*
X7071000Y34131600D03*
%TD*%
D22*
%TO.C,R11*%
X16159600Y9696800D03*
X17179600Y9696800D03*
%TD*%
D48*
%TO.C,Q1*%
X1635100Y771200D03*
X1635100Y2671200D03*
X3510100Y1721200D03*
%TD*%
D24*
%TO.C,R14*%
X14004600Y35655600D03*
X12984600Y35655600D03*
%TD*%
D20*
%TO.C,C5*%
X5061800Y7179600D03*
X5061800Y6219600D03*
%TD*%
D27*
%TO.C,R4*%
X3309200Y11934000D03*
X3309200Y10914000D03*
%TD*%
%LPD*%
M02*
