%TF.GenerationSoftware,KiCad,Pcbnew,7.0.5*%
%TF.CreationDate,2023-08-09T18:59:09-07:00*%
%TF.ProjectId,lyra r1,6c797261-2072-4312-9e6b-696361645f70,rev?*%
%TF.SameCoordinates,Original*%
%TF.FileFunction,Legend,Bot*%
%TF.FilePolarity,Positive*%
%FSLAX46Y46*%
G04 Gerber Fmt 4.6, Leading zero omitted, Abs format (unit mm)*
G04 Created by KiCad (PCBNEW 7.0.5) date 2023-08-09 18:59:09*
%MOMM*%
%LPD*%
G01*
G04 APERTURE LIST*
%ADD10C,0.250000*%
%ADD11C,0.254000*%
%ADD12C,0.120000*%
%ADD13C,0.100000*%
%ADD14C,0.200000*%
G04 APERTURE END LIST*
D10*
X157974580Y-93164669D02*
X157974580Y-92545622D01*
X157974580Y-92545622D02*
X157593628Y-92878955D01*
X157593628Y-92878955D02*
X157593628Y-92736098D01*
X157593628Y-92736098D02*
X157546009Y-92640860D01*
X157546009Y-92640860D02*
X157498390Y-92593241D01*
X157498390Y-92593241D02*
X157403152Y-92545622D01*
X157403152Y-92545622D02*
X157165057Y-92545622D01*
X157165057Y-92545622D02*
X157069819Y-92593241D01*
X157069819Y-92593241D02*
X157022200Y-92640860D01*
X157022200Y-92640860D02*
X156974580Y-92736098D01*
X156974580Y-92736098D02*
X156974580Y-93021812D01*
X156974580Y-93021812D02*
X157022200Y-93117050D01*
X157022200Y-93117050D02*
X157069819Y-93164669D01*
X157974580Y-92259907D02*
X156974580Y-91926574D01*
X156974580Y-91926574D02*
X157974580Y-91593241D01*
X157974580Y-91355145D02*
X157974580Y-90736098D01*
X157974580Y-90736098D02*
X157593628Y-91069431D01*
X157593628Y-91069431D02*
X157593628Y-90926574D01*
X157593628Y-90926574D02*
X157546009Y-90831336D01*
X157546009Y-90831336D02*
X157498390Y-90783717D01*
X157498390Y-90783717D02*
X157403152Y-90736098D01*
X157403152Y-90736098D02*
X157165057Y-90736098D01*
X157165057Y-90736098D02*
X157069819Y-90783717D01*
X157069819Y-90783717D02*
X157022200Y-90831336D01*
X157022200Y-90831336D02*
X156974580Y-90926574D01*
X156974580Y-90926574D02*
X156974580Y-91212288D01*
X156974580Y-91212288D02*
X157022200Y-91307526D01*
X157022200Y-91307526D02*
X157069819Y-91355145D01*
X156364580Y-93069431D02*
X155555057Y-93069431D01*
X155555057Y-93069431D02*
X155459819Y-93021812D01*
X155459819Y-93021812D02*
X155412200Y-92974193D01*
X155412200Y-92974193D02*
X155364580Y-92878955D01*
X155364580Y-92878955D02*
X155364580Y-92688479D01*
X155364580Y-92688479D02*
X155412200Y-92593241D01*
X155412200Y-92593241D02*
X155459819Y-92545622D01*
X155459819Y-92545622D02*
X155555057Y-92498003D01*
X155555057Y-92498003D02*
X156364580Y-92498003D01*
X155650295Y-92069431D02*
X155650295Y-91593241D01*
X155364580Y-92164669D02*
X156364580Y-91831336D01*
X156364580Y-91831336D02*
X155364580Y-91498003D01*
X155364580Y-90593241D02*
X155840771Y-90926574D01*
X155364580Y-91164669D02*
X156364580Y-91164669D01*
X156364580Y-91164669D02*
X156364580Y-90783717D01*
X156364580Y-90783717D02*
X156316961Y-90688479D01*
X156316961Y-90688479D02*
X156269342Y-90640860D01*
X156269342Y-90640860D02*
X156174104Y-90593241D01*
X156174104Y-90593241D02*
X156031247Y-90593241D01*
X156031247Y-90593241D02*
X155936009Y-90640860D01*
X155936009Y-90640860D02*
X155888390Y-90688479D01*
X155888390Y-90688479D02*
X155840771Y-90783717D01*
X155840771Y-90783717D02*
X155840771Y-91164669D01*
X156364580Y-90307526D02*
X156364580Y-89736098D01*
X155364580Y-90021812D02*
X156364580Y-90021812D01*
X155364580Y-88640859D02*
X156364580Y-88640859D01*
X156364580Y-88640859D02*
X156364580Y-88259907D01*
X156364580Y-88259907D02*
X156316961Y-88164669D01*
X156316961Y-88164669D02*
X156269342Y-88117050D01*
X156269342Y-88117050D02*
X156174104Y-88069431D01*
X156174104Y-88069431D02*
X156031247Y-88069431D01*
X156031247Y-88069431D02*
X155936009Y-88117050D01*
X155936009Y-88117050D02*
X155888390Y-88164669D01*
X155888390Y-88164669D02*
X155840771Y-88259907D01*
X155840771Y-88259907D02*
X155840771Y-88640859D01*
X156364580Y-87736097D02*
X155364580Y-87498002D01*
X155364580Y-87498002D02*
X156078866Y-87307526D01*
X156078866Y-87307526D02*
X155364580Y-87117050D01*
X155364580Y-87117050D02*
X156364580Y-86878955D01*
X155364580Y-85926574D02*
X155840771Y-86259907D01*
X155364580Y-86498002D02*
X156364580Y-86498002D01*
X156364580Y-86498002D02*
X156364580Y-86117050D01*
X156364580Y-86117050D02*
X156316961Y-86021812D01*
X156316961Y-86021812D02*
X156269342Y-85974193D01*
X156269342Y-85974193D02*
X156174104Y-85926574D01*
X156174104Y-85926574D02*
X156031247Y-85926574D01*
X156031247Y-85926574D02*
X155936009Y-85974193D01*
X155936009Y-85974193D02*
X155888390Y-86021812D01*
X155888390Y-86021812D02*
X155840771Y-86117050D01*
X155840771Y-86117050D02*
X155840771Y-86498002D01*
X154754580Y-92593241D02*
X154754580Y-93069431D01*
X154754580Y-93069431D02*
X154278390Y-93117050D01*
X154278390Y-93117050D02*
X154326009Y-93069431D01*
X154326009Y-93069431D02*
X154373628Y-92974193D01*
X154373628Y-92974193D02*
X154373628Y-92736098D01*
X154373628Y-92736098D02*
X154326009Y-92640860D01*
X154326009Y-92640860D02*
X154278390Y-92593241D01*
X154278390Y-92593241D02*
X154183152Y-92545622D01*
X154183152Y-92545622D02*
X153945057Y-92545622D01*
X153945057Y-92545622D02*
X153849819Y-92593241D01*
X153849819Y-92593241D02*
X153802200Y-92640860D01*
X153802200Y-92640860D02*
X153754580Y-92736098D01*
X153754580Y-92736098D02*
X153754580Y-92974193D01*
X153754580Y-92974193D02*
X153802200Y-93069431D01*
X153802200Y-93069431D02*
X153849819Y-93117050D01*
X154754580Y-92259907D02*
X153754580Y-91926574D01*
X153754580Y-91926574D02*
X154754580Y-91593241D01*
X155123819Y-134679858D02*
X155123819Y-134203668D01*
X155123819Y-134203668D02*
X155600009Y-134156049D01*
X155600009Y-134156049D02*
X155552390Y-134203668D01*
X155552390Y-134203668D02*
X155504771Y-134298906D01*
X155504771Y-134298906D02*
X155504771Y-134537001D01*
X155504771Y-134537001D02*
X155552390Y-134632239D01*
X155552390Y-134632239D02*
X155600009Y-134679858D01*
X155600009Y-134679858D02*
X155695247Y-134727477D01*
X155695247Y-134727477D02*
X155933342Y-134727477D01*
X155933342Y-134727477D02*
X156028580Y-134679858D01*
X156028580Y-134679858D02*
X156076200Y-134632239D01*
X156076200Y-134632239D02*
X156123819Y-134537001D01*
X156123819Y-134537001D02*
X156123819Y-134298906D01*
X156123819Y-134298906D02*
X156076200Y-134203668D01*
X156076200Y-134203668D02*
X156028580Y-134156049D01*
X155123819Y-135013192D02*
X156123819Y-135346525D01*
X156123819Y-135346525D02*
X155123819Y-135679858D01*
X157686200Y-134156049D02*
X157733819Y-134298906D01*
X157733819Y-134298906D02*
X157733819Y-134537001D01*
X157733819Y-134537001D02*
X157686200Y-134632239D01*
X157686200Y-134632239D02*
X157638580Y-134679858D01*
X157638580Y-134679858D02*
X157543342Y-134727477D01*
X157543342Y-134727477D02*
X157448104Y-134727477D01*
X157448104Y-134727477D02*
X157352866Y-134679858D01*
X157352866Y-134679858D02*
X157305247Y-134632239D01*
X157305247Y-134632239D02*
X157257628Y-134537001D01*
X157257628Y-134537001D02*
X157210009Y-134346525D01*
X157210009Y-134346525D02*
X157162390Y-134251287D01*
X157162390Y-134251287D02*
X157114771Y-134203668D01*
X157114771Y-134203668D02*
X157019533Y-134156049D01*
X157019533Y-134156049D02*
X156924295Y-134156049D01*
X156924295Y-134156049D02*
X156829057Y-134203668D01*
X156829057Y-134203668D02*
X156781438Y-134251287D01*
X156781438Y-134251287D02*
X156733819Y-134346525D01*
X156733819Y-134346525D02*
X156733819Y-134584620D01*
X156733819Y-134584620D02*
X156781438Y-134727477D01*
X157210009Y-135156049D02*
X157210009Y-135489382D01*
X157733819Y-135632239D02*
X157733819Y-135156049D01*
X157733819Y-135156049D02*
X156733819Y-135156049D01*
X156733819Y-135156049D02*
X156733819Y-135632239D01*
X157733819Y-136632239D02*
X157257628Y-136298906D01*
X157733819Y-136060811D02*
X156733819Y-136060811D01*
X156733819Y-136060811D02*
X156733819Y-136441763D01*
X156733819Y-136441763D02*
X156781438Y-136537001D01*
X156781438Y-136537001D02*
X156829057Y-136584620D01*
X156829057Y-136584620D02*
X156924295Y-136632239D01*
X156924295Y-136632239D02*
X157067152Y-136632239D01*
X157067152Y-136632239D02*
X157162390Y-136584620D01*
X157162390Y-136584620D02*
X157210009Y-136537001D01*
X157210009Y-136537001D02*
X157257628Y-136441763D01*
X157257628Y-136441763D02*
X157257628Y-136060811D01*
X156733819Y-136917954D02*
X157733819Y-137251287D01*
X157733819Y-137251287D02*
X156733819Y-137584620D01*
X156733819Y-138108430D02*
X156733819Y-138298906D01*
X156733819Y-138298906D02*
X156781438Y-138394144D01*
X156781438Y-138394144D02*
X156876676Y-138489382D01*
X156876676Y-138489382D02*
X157067152Y-138537001D01*
X157067152Y-138537001D02*
X157400485Y-138537001D01*
X157400485Y-138537001D02*
X157590961Y-138489382D01*
X157590961Y-138489382D02*
X157686200Y-138394144D01*
X157686200Y-138394144D02*
X157733819Y-138298906D01*
X157733819Y-138298906D02*
X157733819Y-138108430D01*
X157733819Y-138108430D02*
X157686200Y-138013192D01*
X157686200Y-138013192D02*
X157590961Y-137917954D01*
X157590961Y-137917954D02*
X157400485Y-137870335D01*
X157400485Y-137870335D02*
X157067152Y-137870335D01*
X157067152Y-137870335D02*
X156876676Y-137917954D01*
X156876676Y-137917954D02*
X156781438Y-138013192D01*
X156781438Y-138013192D02*
X156733819Y-138108430D01*
X159343819Y-134727477D02*
X159343819Y-134156049D01*
X159343819Y-134441763D02*
X158343819Y-134441763D01*
X158343819Y-134441763D02*
X158486676Y-134346525D01*
X158486676Y-134346525D02*
X158581914Y-134251287D01*
X158581914Y-134251287D02*
X158629533Y-134156049D01*
X158439057Y-135108430D02*
X158391438Y-135156049D01*
X158391438Y-135156049D02*
X158343819Y-135251287D01*
X158343819Y-135251287D02*
X158343819Y-135489382D01*
X158343819Y-135489382D02*
X158391438Y-135584620D01*
X158391438Y-135584620D02*
X158439057Y-135632239D01*
X158439057Y-135632239D02*
X158534295Y-135679858D01*
X158534295Y-135679858D02*
X158629533Y-135679858D01*
X158629533Y-135679858D02*
X158772390Y-135632239D01*
X158772390Y-135632239D02*
X159343819Y-135060811D01*
X159343819Y-135060811D02*
X159343819Y-135679858D01*
X158343819Y-135965573D02*
X159343819Y-136298906D01*
X159343819Y-136298906D02*
X158343819Y-136632239D01*
D11*
%TO.C,LS1*%
X142074318Y-88683571D02*
X142074318Y-88078809D01*
X142074318Y-88078809D02*
X140804318Y-88078809D01*
X142013842Y-89046428D02*
X142074318Y-89227857D01*
X142074318Y-89227857D02*
X142074318Y-89530238D01*
X142074318Y-89530238D02*
X142013842Y-89651190D01*
X142013842Y-89651190D02*
X141953365Y-89711666D01*
X141953365Y-89711666D02*
X141832413Y-89772143D01*
X141832413Y-89772143D02*
X141711461Y-89772143D01*
X141711461Y-89772143D02*
X141590508Y-89711666D01*
X141590508Y-89711666D02*
X141530032Y-89651190D01*
X141530032Y-89651190D02*
X141469556Y-89530238D01*
X141469556Y-89530238D02*
X141409080Y-89288333D01*
X141409080Y-89288333D02*
X141348603Y-89167381D01*
X141348603Y-89167381D02*
X141288127Y-89106904D01*
X141288127Y-89106904D02*
X141167175Y-89046428D01*
X141167175Y-89046428D02*
X141046222Y-89046428D01*
X141046222Y-89046428D02*
X140925270Y-89106904D01*
X140925270Y-89106904D02*
X140864794Y-89167381D01*
X140864794Y-89167381D02*
X140804318Y-89288333D01*
X140804318Y-89288333D02*
X140804318Y-89590714D01*
X140804318Y-89590714D02*
X140864794Y-89772143D01*
X142074318Y-90981667D02*
X142074318Y-90255952D01*
X142074318Y-90618809D02*
X140804318Y-90618809D01*
X140804318Y-90618809D02*
X140985746Y-90497857D01*
X140985746Y-90497857D02*
X141106699Y-90376905D01*
X141106699Y-90376905D02*
X141167175Y-90255952D01*
%TO.C,J9*%
X142536332Y-133797318D02*
X142536332Y-134704461D01*
X142536332Y-134704461D02*
X142596809Y-134885889D01*
X142596809Y-134885889D02*
X142717761Y-135006842D01*
X142717761Y-135006842D02*
X142899190Y-135067318D01*
X142899190Y-135067318D02*
X143020142Y-135067318D01*
X141871094Y-135067318D02*
X141629190Y-135067318D01*
X141629190Y-135067318D02*
X141508237Y-135006842D01*
X141508237Y-135006842D02*
X141447761Y-134946365D01*
X141447761Y-134946365D02*
X141326809Y-134764937D01*
X141326809Y-134764937D02*
X141266332Y-134523032D01*
X141266332Y-134523032D02*
X141266332Y-134039222D01*
X141266332Y-134039222D02*
X141326809Y-133918270D01*
X141326809Y-133918270D02*
X141387285Y-133857794D01*
X141387285Y-133857794D02*
X141508237Y-133797318D01*
X141508237Y-133797318D02*
X141750142Y-133797318D01*
X141750142Y-133797318D02*
X141871094Y-133857794D01*
X141871094Y-133857794D02*
X141931571Y-133918270D01*
X141931571Y-133918270D02*
X141992047Y-134039222D01*
X141992047Y-134039222D02*
X141992047Y-134341603D01*
X141992047Y-134341603D02*
X141931571Y-134462556D01*
X141931571Y-134462556D02*
X141871094Y-134523032D01*
X141871094Y-134523032D02*
X141750142Y-134583508D01*
X141750142Y-134583508D02*
X141508237Y-134583508D01*
X141508237Y-134583508D02*
X141387285Y-134523032D01*
X141387285Y-134523032D02*
X141326809Y-134462556D01*
X141326809Y-134462556D02*
X141266332Y-134341603D01*
D12*
%TO.C,R3*%
X152832776Y-153227500D02*
X153342224Y-153227500D01*
X152832776Y-154272500D02*
X153342224Y-154272500D01*
%TO.C,R11*%
X136564900Y-121885942D02*
X136564900Y-122360458D01*
X135519900Y-121885942D02*
X135519900Y-122360458D01*
%TO.C,C22*%
X140194420Y-106932000D02*
X140475580Y-106932000D01*
X140194420Y-107952000D02*
X140475580Y-107952000D01*
%TO.C,C6*%
X136386180Y-101703600D02*
X136105020Y-101703600D01*
X136386180Y-100683600D02*
X136105020Y-100683600D01*
%TO.C,R1*%
X138162258Y-154522500D02*
X137687742Y-154522500D01*
X138162258Y-153477500D02*
X137687742Y-153477500D01*
%TO.C,R14*%
X138319742Y-146948500D02*
X138794258Y-146948500D01*
X138319742Y-147993500D02*
X138794258Y-147993500D01*
%TO.C,C8*%
X148730580Y-99570000D02*
X148449420Y-99570000D01*
X148730580Y-98550000D02*
X148449420Y-98550000D01*
%TO.C,C20*%
X148576420Y-117981000D02*
X148857580Y-117981000D01*
X148576420Y-119001000D02*
X148857580Y-119001000D01*
%TO.C,R5*%
X137745276Y-155477500D02*
X138254724Y-155477500D01*
X137745276Y-156522500D02*
X138254724Y-156522500D01*
%TO.C,R13*%
X138794258Y-149493500D02*
X138319742Y-149493500D01*
X138794258Y-148448500D02*
X138319742Y-148448500D01*
%TO.C,JP2*%
X158107600Y-95488000D02*
X158107600Y-93488000D01*
X158107600Y-93488000D02*
X154007600Y-93488000D01*
X157657600Y-95988000D02*
X157057600Y-95988000D01*
X157357600Y-95688000D02*
X157657600Y-95988000D01*
X157357600Y-95688000D02*
X157057600Y-95988000D01*
X154007600Y-95488000D02*
X158107600Y-95488000D01*
X154007600Y-93488000D02*
X154007600Y-95488000D01*
%TO.C,C5*%
X136859420Y-98956400D02*
X137140580Y-98956400D01*
X136859420Y-99976400D02*
X137140580Y-99976400D01*
%TO.C,C14*%
X141464420Y-115441000D02*
X141745580Y-115441000D01*
X141464420Y-116461000D02*
X141745580Y-116461000D01*
%TO.C,R19*%
X131402858Y-126150900D02*
X130928342Y-126150900D01*
X131402858Y-125105900D02*
X130928342Y-125105900D01*
%TO.C,C21*%
X139063000Y-118377580D02*
X139063000Y-118096420D01*
X140083000Y-118377580D02*
X140083000Y-118096420D01*
%TO.C,C10*%
X139559420Y-124204000D02*
X139840580Y-124204000D01*
X139559420Y-125224000D02*
X139840580Y-125224000D01*
%TO.C,C17*%
X148476580Y-108079000D02*
X148195420Y-108079000D01*
X148476580Y-107059000D02*
X148195420Y-107059000D01*
%TO.C,C7*%
X151386000Y-100189420D02*
X151386000Y-100470580D01*
X150366000Y-100189420D02*
X150366000Y-100470580D01*
%TO.C,F2*%
X138625664Y-146401200D02*
X137421536Y-146401200D01*
X138625664Y-144581200D02*
X137421536Y-144581200D01*
D13*
%TO.C,LS1*%
X141500000Y-95000000D02*
X141500000Y-95000000D01*
X141500000Y-94900000D02*
X141500000Y-94900000D01*
D14*
X137000000Y-94000000D02*
X139500000Y-94000000D01*
X143500000Y-94000000D02*
X146000000Y-94000000D01*
X146000000Y-94000000D02*
X146000000Y-85000000D01*
X137000000Y-85000000D02*
X137000000Y-94000000D01*
X139500000Y-85000000D02*
X137000000Y-85000000D01*
X146000000Y-85000000D02*
X143500000Y-85000000D01*
D13*
X141500000Y-94900000D02*
G75*
G03*
X141500000Y-95000000I0J-50000D01*
G01*
X141500000Y-95000000D02*
G75*
G03*
X141500000Y-94900000I0J50000D01*
G01*
%TO.C,J9*%
X148913000Y-141718000D02*
X135313000Y-141718000D01*
X148913000Y-140593000D02*
X148913000Y-141718000D01*
X148913000Y-132293000D02*
X148913000Y-138093000D01*
X148913000Y-129993000D02*
X148913000Y-127268000D01*
X148913000Y-127268000D02*
X135313000Y-127268000D01*
X135338000Y-137193000D02*
X135338000Y-137193000D01*
X135338000Y-137093000D02*
X135338000Y-137093000D01*
X135313000Y-141718000D02*
X135313000Y-140593000D01*
X135313000Y-132293000D02*
X135313000Y-138093000D01*
X135313000Y-127268000D02*
X135313000Y-129893000D01*
X135338000Y-137093000D02*
G75*
G03*
X135338000Y-137193000I0J-50000D01*
G01*
X135338000Y-137193000D02*
G75*
G03*
X135338000Y-137093000I0J50000D01*
G01*
D12*
%TO.C,R6*%
X153254724Y-152022500D02*
X152745276Y-152022500D01*
X153254724Y-150977500D02*
X152745276Y-150977500D01*
%TO.C,R4*%
X153254724Y-156022500D02*
X152745276Y-156022500D01*
X153254724Y-154977500D02*
X152745276Y-154977500D01*
%TO.C,R7*%
X148350500Y-124262742D02*
X148350500Y-124737258D01*
X147305500Y-124262742D02*
X147305500Y-124737258D01*
%TO.C,JP4*%
X159479200Y-133801100D02*
X159479200Y-131801100D01*
X159479200Y-131801100D02*
X155379200Y-131801100D01*
X159029200Y-134301100D02*
X158429200Y-134301100D01*
X158729200Y-134001100D02*
X159029200Y-134301100D01*
X158729200Y-134001100D02*
X158429200Y-134301100D01*
X155379200Y-133801100D02*
X159479200Y-133801100D01*
X155379200Y-131801100D02*
X155379200Y-133801100D01*
%TO.C,C13*%
X143242420Y-107567000D02*
X143523580Y-107567000D01*
X143242420Y-108587000D02*
X143523580Y-108587000D01*
%TO.C,C15*%
X155522600Y-136949548D02*
X155522600Y-137472052D01*
X154052600Y-136949548D02*
X154052600Y-137472052D01*
%TD*%
M02*
