%TF.GenerationSoftware,KiCad,Pcbnew,8.0.0*%
%TF.CreationDate,2024-03-02T16:22:56-08:00*%
%TF.ProjectId,magswitch,6d616773-7769-4746-9368-2e6b69636164,rev?*%
%TF.SameCoordinates,Original*%
%TF.FileFunction,Copper,L2,Bot*%
%TF.FilePolarity,Positive*%
%FSLAX46Y46*%
G04 Gerber Fmt 4.6, Leading zero omitted, Abs format (unit mm)*
G04 Created by KiCad (PCBNEW 8.0.0) date 2024-03-02 16:22:56*
%MOMM*%
%LPD*%
G01*
G04 APERTURE LIST*
%TA.AperFunction,ComponentPad*%
%ADD10R,1.700000X1.700000*%
%TD*%
%TA.AperFunction,ViaPad*%
%ADD11C,0.600000*%
%TD*%
G04 APERTURE END LIST*
D10*
%TO.P,J1,1,Pin_1*%
%TO.N,/SWITCH*%
X8855400Y-11139200D03*
%TO.P,J1,2,Pin_2*%
%TO.N,GND*%
X6315400Y-11139200D03*
%TD*%
%TO.P,J3,1,Pin_1*%
%TO.N,+BATT*%
X3623000Y-826800D03*
%TO.P,J3,2,Pin_2*%
%TO.N,GND*%
X1083000Y-826800D03*
%TD*%
D11*
%TO.N,GND*%
X4532400Y-7735600D03*
X2348000Y-5983000D03*
%TD*%
%TA.AperFunction,Conductor*%
%TO.N,GND*%
G36*
X2465539Y-520185D02*
G01*
X2511294Y-572989D01*
X2522500Y-624500D01*
X2522500Y-1701478D01*
X2537032Y-1774535D01*
X2537033Y-1774539D01*
X2537034Y-1774540D01*
X2592399Y-1857401D01*
X2675260Y-1912766D01*
X2675264Y-1912767D01*
X2748321Y-1927299D01*
X2748324Y-1927300D01*
X2748326Y-1927300D01*
X4497676Y-1927300D01*
X4497677Y-1927299D01*
X4570740Y-1912766D01*
X4653601Y-1857401D01*
X4708966Y-1774540D01*
X4723500Y-1701474D01*
X4723500Y-624500D01*
X4743185Y-557461D01*
X4795989Y-511706D01*
X4847500Y-500500D01*
X7057897Y-500500D01*
X7124936Y-520185D01*
X7170691Y-572989D01*
X7180836Y-640685D01*
X7149500Y-878711D01*
X7149500Y-1121288D01*
X7181161Y-1361785D01*
X7243947Y-1596104D01*
X7317858Y-1774540D01*
X7336776Y-1820212D01*
X7458064Y-2030289D01*
X7458066Y-2030292D01*
X7458067Y-2030293D01*
X7605733Y-2222736D01*
X7605739Y-2222743D01*
X7777256Y-2394260D01*
X7777262Y-2394265D01*
X7969711Y-2541936D01*
X8179788Y-2663224D01*
X8403900Y-2756054D01*
X8638211Y-2818838D01*
X8818586Y-2842584D01*
X8878711Y-2850500D01*
X8878712Y-2850500D01*
X9121289Y-2850500D01*
X9158853Y-2845554D01*
X9359317Y-2819163D01*
X9428350Y-2829929D01*
X9480606Y-2876309D01*
X9499500Y-2942102D01*
X9499500Y-9914700D01*
X9479815Y-9981739D01*
X9427011Y-10027494D01*
X9375500Y-10038700D01*
X7980723Y-10038700D01*
X7907664Y-10053232D01*
X7907660Y-10053233D01*
X7824799Y-10108599D01*
X7769433Y-10191460D01*
X7769432Y-10191464D01*
X7754900Y-10264521D01*
X7754900Y-11375500D01*
X7735215Y-11442539D01*
X7682411Y-11488294D01*
X7630900Y-11499500D01*
X2942103Y-11499500D01*
X2875064Y-11479815D01*
X2829309Y-11427011D01*
X2819164Y-11359315D01*
X2850500Y-11121288D01*
X2850500Y-10878711D01*
X2818838Y-10638214D01*
X2818838Y-10638211D01*
X2756054Y-10403900D01*
X2663224Y-10179788D01*
X2541936Y-9969711D01*
X2394265Y-9777262D01*
X2394260Y-9777256D01*
X2222743Y-9605739D01*
X2222736Y-9605733D01*
X2030293Y-9458067D01*
X2030292Y-9458066D01*
X2030289Y-9458064D01*
X1820212Y-9336776D01*
X1820205Y-9336773D01*
X1596104Y-9243947D01*
X1361785Y-9181161D01*
X1121289Y-9149500D01*
X1121288Y-9149500D01*
X878712Y-9149500D01*
X878711Y-9149500D01*
X640685Y-9180836D01*
X571650Y-9170070D01*
X519394Y-9123690D01*
X500500Y-9057897D01*
X500500Y-624500D01*
X520185Y-557461D01*
X572989Y-511706D01*
X624500Y-500500D01*
X2398500Y-500500D01*
X2465539Y-520185D01*
G37*
%TD.AperFunction*%
%TD*%
M02*
