%TF.GenerationSoftware,KiCad,Pcbnew,8.0.0*%
%TF.CreationDate,2024-04-08T20:54:29-07:00*%
%TF.ProjectId,magswitch,6d616773-7769-4746-9368-2e6b69636164,rev?*%
%TF.SameCoordinates,Original*%
%TF.FileFunction,Copper,L2,Bot*%
%TF.FilePolarity,Positive*%
%FSLAX46Y46*%
G04 Gerber Fmt 4.6, Leading zero omitted, Abs format (unit mm)*
G04 Created by KiCad (PCBNEW 8.0.0) date 2024-04-08 20:54:29*
%MOMM*%
%LPD*%
G01*
G04 APERTURE LIST*
%TA.AperFunction,ComponentPad*%
%ADD10R,1.700000X1.700000*%
%TD*%
%TA.AperFunction,ViaPad*%
%ADD11C,0.600000*%
%TD*%
%TA.AperFunction,Conductor*%
%ADD12C,0.500000*%
%TD*%
%TA.AperFunction,Conductor*%
%ADD13C,0.200000*%
%TD*%
G04 APERTURE END LIST*
D10*
%TO.P,J1,1,Pin_1*%
%TO.N,+BATT*%
X9968000Y-12079000D03*
%TO.P,J1,2,Pin_2*%
%TO.N,/SWITCH*%
X7428000Y-12079000D03*
%TD*%
%TO.P,J3,1,Pin_1*%
%TO.N,+BATT*%
X3623000Y-826800D03*
%TO.P,J3,2,Pin_2*%
%TO.N,GND*%
X1083000Y-826800D03*
%TD*%
D11*
%TO.N,GND*%
X1281200Y-3849400D03*
X2398800Y-5983000D03*
%TO.N,/SENSE OUT*%
X7097800Y-10047000D03*
X3465600Y-8497600D03*
%TD*%
D12*
%TO.N,GND*%
X2398800Y-4967000D02*
X2398800Y-5983000D01*
X1281200Y-3849400D02*
X2398800Y-4967000D01*
D13*
%TO.N,/SENSE OUT*%
X3465600Y-8497600D02*
X5548400Y-8497600D01*
X5548400Y-8497600D02*
X7097800Y-10047000D01*
%TD*%
%TA.AperFunction,Conductor*%
%TO.N,+BATT*%
G36*
X7775173Y-520185D02*
G01*
X7820928Y-572989D01*
X7830872Y-642147D01*
X7801847Y-705703D01*
X7795815Y-712181D01*
X7684739Y-823256D01*
X7684733Y-823263D01*
X7537067Y-1015706D01*
X7415777Y-1225785D01*
X7415773Y-1225794D01*
X7322947Y-1449895D01*
X7260161Y-1684214D01*
X7228500Y-1924711D01*
X7228500Y-2167288D01*
X7260161Y-2407785D01*
X7322947Y-2642104D01*
X7415773Y-2866205D01*
X7415776Y-2866212D01*
X7537064Y-3076289D01*
X7537066Y-3076292D01*
X7537067Y-3076293D01*
X7684733Y-3268736D01*
X7684739Y-3268743D01*
X7856256Y-3440260D01*
X7856263Y-3440266D01*
X7907063Y-3479246D01*
X8048711Y-3587936D01*
X8258788Y-3709224D01*
X8482900Y-3802054D01*
X8717211Y-3864838D01*
X8897586Y-3888584D01*
X8957711Y-3896500D01*
X8957712Y-3896500D01*
X9200289Y-3896500D01*
X9248388Y-3890167D01*
X9440789Y-3864838D01*
X9675100Y-3802054D01*
X9899212Y-3709224D01*
X10109289Y-3587936D01*
X10276471Y-3459652D01*
X10300014Y-3441588D01*
X10365183Y-3416394D01*
X10433628Y-3430432D01*
X10483617Y-3479246D01*
X10499500Y-3539964D01*
X10499500Y-12375500D01*
X10479815Y-12442539D01*
X10427011Y-12488294D01*
X10375500Y-12499500D01*
X8652500Y-12499500D01*
X8585461Y-12479815D01*
X8539706Y-12427011D01*
X8528500Y-12375500D01*
X8528500Y-11204323D01*
X8528499Y-11204321D01*
X8513967Y-11131264D01*
X8513966Y-11131260D01*
X8507303Y-11121288D01*
X8458601Y-11048399D01*
X8375740Y-10993034D01*
X8375739Y-10993033D01*
X8375735Y-10993032D01*
X8302677Y-10978500D01*
X8302674Y-10978500D01*
X6553326Y-10978500D01*
X6553323Y-10978500D01*
X6480264Y-10993032D01*
X6480260Y-10993033D01*
X6397399Y-11048399D01*
X6342033Y-11131260D01*
X6342032Y-11131264D01*
X6327500Y-11204321D01*
X6327500Y-12375500D01*
X6307815Y-12442539D01*
X6255011Y-12488294D01*
X6203500Y-12499500D01*
X3383866Y-12499500D01*
X3316827Y-12479815D01*
X3271072Y-12427011D01*
X3261128Y-12357853D01*
X3290153Y-12294297D01*
X3296185Y-12287819D01*
X3361260Y-12222743D01*
X3361265Y-12222738D01*
X3508936Y-12030289D01*
X3630224Y-11820212D01*
X3723054Y-11596100D01*
X3785838Y-11361789D01*
X3817500Y-11121288D01*
X3817500Y-10878712D01*
X3785838Y-10638211D01*
X3723054Y-10403900D01*
X3630224Y-10179788D01*
X3508936Y-9969711D01*
X3448018Y-9890321D01*
X3361266Y-9777263D01*
X3361260Y-9777256D01*
X3189743Y-9605739D01*
X3189736Y-9605733D01*
X2997293Y-9458067D01*
X2997292Y-9458066D01*
X2997289Y-9458064D01*
X2787212Y-9336776D01*
X2787205Y-9336773D01*
X2563104Y-9243947D01*
X2328785Y-9181161D01*
X2088289Y-9149500D01*
X2088288Y-9149500D01*
X1845712Y-9149500D01*
X1845711Y-9149500D01*
X1605214Y-9181161D01*
X1370895Y-9243947D01*
X1146794Y-9336773D01*
X1146785Y-9336777D01*
X936706Y-9458067D01*
X744263Y-9605733D01*
X744256Y-9605739D01*
X712181Y-9637815D01*
X650858Y-9671300D01*
X581166Y-9666316D01*
X525233Y-9624444D01*
X500816Y-9558980D01*
X500500Y-9550134D01*
X500500Y-8497600D01*
X2910350Y-8497600D01*
X2929270Y-8641308D01*
X2929271Y-8641312D01*
X2984737Y-8775222D01*
X2984738Y-8775224D01*
X2984739Y-8775225D01*
X3072979Y-8890221D01*
X3187975Y-8978461D01*
X3321891Y-9033930D01*
X3448880Y-9050648D01*
X3465599Y-9052850D01*
X3465600Y-9052850D01*
X3465601Y-9052850D01*
X3480577Y-9050878D01*
X3609309Y-9033930D01*
X3743225Y-8978461D01*
X3858221Y-8890221D01*
X3858223Y-8890217D01*
X3858227Y-8890215D01*
X3863972Y-8884471D01*
X3866488Y-8886987D01*
X3909783Y-8855397D01*
X3951692Y-8848100D01*
X5351856Y-8848100D01*
X5418895Y-8867785D01*
X5439537Y-8884419D01*
X6506240Y-9951122D01*
X6539725Y-10012445D01*
X6540867Y-10038873D01*
X6542550Y-10038873D01*
X6542550Y-10047000D01*
X6561470Y-10190708D01*
X6561471Y-10190712D01*
X6616937Y-10324622D01*
X6616938Y-10324624D01*
X6616939Y-10324625D01*
X6705179Y-10439621D01*
X6820175Y-10527861D01*
X6954091Y-10583330D01*
X7081080Y-10600048D01*
X7097799Y-10602250D01*
X7097800Y-10602250D01*
X7097801Y-10602250D01*
X7112777Y-10600278D01*
X7241509Y-10583330D01*
X7375425Y-10527861D01*
X7490421Y-10439621D01*
X7578661Y-10324625D01*
X7634130Y-10190709D01*
X7653050Y-10047000D01*
X7634130Y-9903291D01*
X7581928Y-9777262D01*
X7578662Y-9769377D01*
X7578661Y-9769376D01*
X7578661Y-9769375D01*
X7490421Y-9654379D01*
X7375425Y-9566139D01*
X7375424Y-9566138D01*
X7375422Y-9566137D01*
X7241512Y-9510671D01*
X7241510Y-9510670D01*
X7241509Y-9510670D01*
X7150438Y-9498680D01*
X7097801Y-9491750D01*
X7089673Y-9491750D01*
X7089673Y-9488243D01*
X7036413Y-9479772D01*
X7001922Y-9455440D01*
X5763613Y-8217131D01*
X5763608Y-8217127D01*
X5683691Y-8170987D01*
X5683687Y-8170985D01*
X5678326Y-8169549D01*
X5678326Y-8169548D01*
X5609876Y-8151208D01*
X5594544Y-8147100D01*
X5594543Y-8147100D01*
X3951692Y-8147100D01*
X3884653Y-8127415D01*
X3865187Y-8109513D01*
X3863972Y-8110729D01*
X3858227Y-8104984D01*
X3858221Y-8104979D01*
X3743225Y-8016739D01*
X3743224Y-8016738D01*
X3743222Y-8016737D01*
X3609312Y-7961271D01*
X3609310Y-7961270D01*
X3609309Y-7961270D01*
X3537454Y-7951810D01*
X3465601Y-7942350D01*
X3465599Y-7942350D01*
X3321891Y-7961270D01*
X3321887Y-7961271D01*
X3187977Y-8016737D01*
X3072979Y-8104979D01*
X2984737Y-8219977D01*
X2929271Y-8353887D01*
X2929270Y-8353891D01*
X2910350Y-8497599D01*
X2910350Y-8497600D01*
X500500Y-8497600D01*
X500500Y-4022980D01*
X520185Y-3955941D01*
X572989Y-3910186D01*
X642147Y-3900242D01*
X705703Y-3929267D01*
X743477Y-3988045D01*
X744275Y-3990887D01*
X744871Y-3993112D01*
X800337Y-4127022D01*
X800338Y-4127024D01*
X800339Y-4127025D01*
X888579Y-4242021D01*
X1003575Y-4330261D01*
X1067289Y-4356651D01*
X1107517Y-4383531D01*
X1861981Y-5137995D01*
X1895466Y-5199318D01*
X1898300Y-5225676D01*
X1898300Y-5728124D01*
X1888862Y-5775575D01*
X1862469Y-5839293D01*
X1843550Y-5982999D01*
X1843550Y-5983000D01*
X1862470Y-6126708D01*
X1862471Y-6126712D01*
X1917937Y-6260622D01*
X1917938Y-6260624D01*
X1917939Y-6260625D01*
X2006179Y-6375621D01*
X2121175Y-6463861D01*
X2255091Y-6519330D01*
X2382080Y-6536048D01*
X2398799Y-6538250D01*
X2398800Y-6538250D01*
X2398801Y-6538250D01*
X2413777Y-6536278D01*
X2542509Y-6519330D01*
X2676425Y-6463861D01*
X2791421Y-6375621D01*
X2879661Y-6260625D01*
X2935130Y-6126709D01*
X2954050Y-5983000D01*
X2935130Y-5839291D01*
X2908737Y-5775572D01*
X2899300Y-5728124D01*
X2899300Y-4901110D01*
X2899300Y-4901108D01*
X2865192Y-4773814D01*
X2799300Y-4659686D01*
X2706114Y-4566500D01*
X1815331Y-3675717D01*
X1788451Y-3635489D01*
X1762061Y-3571775D01*
X1673821Y-3456779D01*
X1558825Y-3368539D01*
X1558824Y-3368538D01*
X1558822Y-3368537D01*
X1424912Y-3313071D01*
X1424910Y-3313070D01*
X1424909Y-3313070D01*
X1353054Y-3303610D01*
X1281201Y-3294150D01*
X1281199Y-3294150D01*
X1137491Y-3313070D01*
X1137487Y-3313071D01*
X1003577Y-3368537D01*
X888579Y-3456779D01*
X800337Y-3571777D01*
X744870Y-3705690D01*
X744274Y-3707915D01*
X743258Y-3709580D01*
X741760Y-3713199D01*
X741195Y-3712965D01*
X707908Y-3767575D01*
X645060Y-3798103D01*
X575685Y-3789806D01*
X521808Y-3745320D01*
X500535Y-3678767D01*
X500500Y-3675819D01*
X500500Y-2051300D01*
X520185Y-1984261D01*
X572989Y-1938506D01*
X624500Y-1927300D01*
X1957676Y-1927300D01*
X1957677Y-1927299D01*
X2030740Y-1912766D01*
X2113601Y-1857401D01*
X2168966Y-1774540D01*
X2183500Y-1701474D01*
X2183500Y-624500D01*
X2203185Y-557461D01*
X2255989Y-511706D01*
X2307500Y-500500D01*
X7708134Y-500500D01*
X7775173Y-520185D01*
G37*
%TD.AperFunction*%
%TD*%
M02*
