%TF.GenerationSoftware,KiCad,Pcbnew,8.0.0*%
%TF.CreationDate,2024-03-02T16:22:56-08:00*%
%TF.ProjectId,magswitch,6d616773-7769-4746-9368-2e6b69636164,rev?*%
%TF.SameCoordinates,Original*%
%TF.FileFunction,Legend,Bot*%
%TF.FilePolarity,Positive*%
%FSLAX46Y46*%
G04 Gerber Fmt 4.6, Leading zero omitted, Abs format (unit mm)*
G04 Created by KiCad (PCBNEW 8.0.0) date 2024-03-02 16:22:56*
%MOMM*%
%LPD*%
G01*
G04 APERTURE LIST*
%ADD10C,0.125000*%
%ADD11C,0.200000*%
%ADD12C,0.250000*%
%ADD13C,0.300000*%
%ADD14C,3.200000*%
%ADD15R,1.700000X1.700000*%
G04 APERTURE END LIST*
D10*
G36*
X9390690Y-7854577D02*
G01*
X8640690Y-7854577D01*
X8640690Y-7686716D01*
X8703190Y-7686716D01*
X8703458Y-7690753D01*
X8703348Y-7691147D01*
X8703505Y-7691462D01*
X8707948Y-7758253D01*
X8741772Y-7792077D01*
X8789608Y-7792077D01*
X8823432Y-7758253D01*
X8828190Y-7734335D01*
X8826078Y-7702581D01*
X8840218Y-7652238D01*
X8866266Y-7623324D01*
X8910100Y-7606339D01*
X9289608Y-7601601D01*
X9323432Y-7567777D01*
X9323432Y-7519941D01*
X9289608Y-7486117D01*
X9265690Y-7481359D01*
X8921265Y-7485659D01*
X8912979Y-7481516D01*
X8888783Y-7484566D01*
X8884785Y-7486115D01*
X8884629Y-7486117D01*
X8884533Y-7486212D01*
X8823334Y-7509926D01*
X8813202Y-7509926D01*
X8799213Y-7519272D01*
X8796169Y-7520452D01*
X8795527Y-7521735D01*
X8792925Y-7523474D01*
X8751053Y-7569951D01*
X8742285Y-7574336D01*
X8733980Y-7588903D01*
X8731758Y-7591370D01*
X8731758Y-7592801D01*
X8730207Y-7595522D01*
X8712624Y-7658121D01*
X8707948Y-7662798D01*
X8703190Y-7686716D01*
X8640690Y-7686716D01*
X8640690Y-7067669D01*
X8703190Y-7067669D01*
X8707948Y-7329682D01*
X8741772Y-7363506D01*
X8765690Y-7368264D01*
X9289608Y-7363506D01*
X9323432Y-7329682D01*
X9323432Y-7281846D01*
X9289608Y-7248022D01*
X9265690Y-7243264D01*
X8827127Y-7247246D01*
X8823432Y-7043751D01*
X8789608Y-7009927D01*
X8741772Y-7009927D01*
X8707948Y-7043751D01*
X8703190Y-7067669D01*
X8640690Y-7067669D01*
X8640690Y-6710526D01*
X8703190Y-6710526D01*
X8703458Y-6714563D01*
X8703348Y-6714957D01*
X8703505Y-6715272D01*
X8705743Y-6748923D01*
X8703348Y-6753715D01*
X8706397Y-6777910D01*
X8707935Y-6781881D01*
X8707948Y-6782063D01*
X8708043Y-6782158D01*
X8731758Y-6843357D01*
X8731758Y-6853490D01*
X8741105Y-6867480D01*
X8742285Y-6870524D01*
X8743567Y-6871165D01*
X8745306Y-6873767D01*
X8787903Y-6912142D01*
X8789903Y-6918141D01*
X8809168Y-6933093D01*
X8812937Y-6934696D01*
X8813202Y-6934934D01*
X8813497Y-6934934D01*
X8846069Y-6948784D01*
X8847530Y-6951219D01*
X8869580Y-6961636D01*
X8952462Y-6978957D01*
X8956058Y-6982553D01*
X8979976Y-6987311D01*
X9038473Y-6984391D01*
X9042204Y-6986630D01*
X9066562Y-6985445D01*
X9146977Y-6961978D01*
X9151073Y-6963344D01*
X9174593Y-6956903D01*
X9212501Y-6934934D01*
X9218178Y-6934934D01*
X9238455Y-6921386D01*
X9241270Y-6918260D01*
X9241477Y-6918141D01*
X9241534Y-6917967D01*
X9280326Y-6874907D01*
X9289095Y-6870524D01*
X9297399Y-6855956D01*
X9299622Y-6853490D01*
X9299622Y-6852058D01*
X9301173Y-6849338D01*
X9318755Y-6786739D01*
X9323432Y-6782063D01*
X9328190Y-6758145D01*
X9327921Y-6754107D01*
X9328032Y-6753714D01*
X9327874Y-6753398D01*
X9325636Y-6719748D01*
X9328032Y-6714957D01*
X9324983Y-6690762D01*
X9323444Y-6686790D01*
X9323432Y-6686608D01*
X9323336Y-6686512D01*
X9299622Y-6625313D01*
X9299622Y-6615180D01*
X9290273Y-6601188D01*
X9289095Y-6598147D01*
X9287813Y-6597506D01*
X9286074Y-6594903D01*
X9241988Y-6557546D01*
X9194154Y-6557546D01*
X9160329Y-6591371D01*
X9160329Y-6639205D01*
X9173877Y-6659482D01*
X9187203Y-6670774D01*
X9203310Y-6712342D01*
X9205301Y-6742278D01*
X9191161Y-6792621D01*
X9164267Y-6822473D01*
X9133566Y-6840266D01*
X9131484Y-6840368D01*
X9054308Y-6862888D01*
X9051404Y-6862311D01*
X8996937Y-6865029D01*
X8995134Y-6864177D01*
X8915944Y-6847627D01*
X8912689Y-6845101D01*
X8878707Y-6830650D01*
X8845157Y-6800425D01*
X8828069Y-6756327D01*
X8826078Y-6726391D01*
X8840410Y-6675364D01*
X8871051Y-6639205D01*
X8871051Y-6591371D01*
X8837226Y-6557546D01*
X8789392Y-6557546D01*
X8769115Y-6571094D01*
X8749064Y-6594756D01*
X8742285Y-6598146D01*
X8734251Y-6612236D01*
X8731758Y-6615180D01*
X8731758Y-6616611D01*
X8730207Y-6619332D01*
X8712624Y-6681931D01*
X8707948Y-6686608D01*
X8703190Y-6710526D01*
X8640690Y-6710526D01*
X8640690Y-6401002D01*
X8703190Y-6401002D01*
X8703458Y-6405039D01*
X8703348Y-6405433D01*
X8703505Y-6405748D01*
X8707948Y-6472539D01*
X8741772Y-6506363D01*
X8789608Y-6506363D01*
X8823432Y-6472539D01*
X8828190Y-6448621D01*
X8826078Y-6416867D01*
X8840218Y-6366524D01*
X8866266Y-6337610D01*
X8910100Y-6320625D01*
X9289608Y-6315887D01*
X9323432Y-6282063D01*
X9323432Y-6234227D01*
X9289608Y-6200403D01*
X9265690Y-6195645D01*
X8921265Y-6199945D01*
X8912979Y-6195802D01*
X8888783Y-6198852D01*
X8884785Y-6200401D01*
X8884629Y-6200403D01*
X8884533Y-6200498D01*
X8823334Y-6224212D01*
X8813202Y-6224212D01*
X8799213Y-6233558D01*
X8796169Y-6234738D01*
X8795527Y-6236021D01*
X8792925Y-6237760D01*
X8751053Y-6284237D01*
X8742285Y-6288622D01*
X8733980Y-6303189D01*
X8731758Y-6305656D01*
X8731758Y-6307087D01*
X8730207Y-6309808D01*
X8712624Y-6372407D01*
X8707948Y-6377084D01*
X8703190Y-6401002D01*
X8640690Y-6401002D01*
X8640690Y-5781955D01*
X8703190Y-5781955D01*
X8707948Y-6043968D01*
X8741772Y-6077792D01*
X8765690Y-6082550D01*
X9289608Y-6077792D01*
X9323432Y-6043968D01*
X9323432Y-5996132D01*
X9289608Y-5962308D01*
X9265690Y-5957550D01*
X8827127Y-5961532D01*
X8823432Y-5758037D01*
X8789608Y-5724213D01*
X8741772Y-5724213D01*
X8707948Y-5758037D01*
X8703190Y-5781955D01*
X8640690Y-5781955D01*
X8640690Y-5424812D01*
X8703190Y-5424812D01*
X8703458Y-5428849D01*
X8703348Y-5429243D01*
X8703505Y-5429558D01*
X8705743Y-5463209D01*
X8703348Y-5468001D01*
X8706397Y-5492196D01*
X8707935Y-5496167D01*
X8707948Y-5496349D01*
X8708043Y-5496444D01*
X8731758Y-5557643D01*
X8731758Y-5567776D01*
X8741105Y-5581766D01*
X8742285Y-5584810D01*
X8743567Y-5585451D01*
X8745306Y-5588053D01*
X8787903Y-5626428D01*
X8789903Y-5632427D01*
X8809168Y-5647379D01*
X8812937Y-5648982D01*
X8813202Y-5649220D01*
X8813497Y-5649220D01*
X8846069Y-5663070D01*
X8847530Y-5665505D01*
X8869580Y-5675922D01*
X8952462Y-5693243D01*
X8956058Y-5696839D01*
X8979976Y-5701597D01*
X9038473Y-5698677D01*
X9042204Y-5700916D01*
X9066562Y-5699731D01*
X9146977Y-5676264D01*
X9151073Y-5677630D01*
X9174593Y-5671189D01*
X9212501Y-5649220D01*
X9218178Y-5649220D01*
X9238455Y-5635672D01*
X9241270Y-5632546D01*
X9241477Y-5632427D01*
X9241534Y-5632253D01*
X9280326Y-5589193D01*
X9289095Y-5584810D01*
X9297399Y-5570242D01*
X9299622Y-5567776D01*
X9299622Y-5566344D01*
X9301173Y-5563624D01*
X9318755Y-5501025D01*
X9323432Y-5496349D01*
X9328190Y-5472431D01*
X9327921Y-5468393D01*
X9328032Y-5468000D01*
X9327874Y-5467684D01*
X9325636Y-5434034D01*
X9328032Y-5429243D01*
X9324983Y-5405048D01*
X9323444Y-5401076D01*
X9323432Y-5400894D01*
X9323336Y-5400798D01*
X9299622Y-5339599D01*
X9299622Y-5329466D01*
X9290273Y-5315474D01*
X9289095Y-5312433D01*
X9287813Y-5311792D01*
X9286074Y-5309189D01*
X9241988Y-5271832D01*
X9194154Y-5271832D01*
X9160329Y-5305657D01*
X9160329Y-5353491D01*
X9173877Y-5373768D01*
X9187203Y-5385060D01*
X9203310Y-5426628D01*
X9205301Y-5456564D01*
X9191161Y-5506907D01*
X9164267Y-5536759D01*
X9133566Y-5554552D01*
X9131484Y-5554654D01*
X9054308Y-5577174D01*
X9051404Y-5576597D01*
X8996937Y-5579315D01*
X8995134Y-5578463D01*
X8915944Y-5561913D01*
X8912689Y-5559387D01*
X8878707Y-5544936D01*
X8845157Y-5514711D01*
X8828069Y-5470613D01*
X8826078Y-5440677D01*
X8840410Y-5389650D01*
X8871051Y-5353491D01*
X8871051Y-5305657D01*
X8837226Y-5271832D01*
X8789392Y-5271832D01*
X8769115Y-5285380D01*
X8749064Y-5309042D01*
X8742285Y-5312432D01*
X8734251Y-5326522D01*
X8731758Y-5329466D01*
X8731758Y-5330897D01*
X8730207Y-5333618D01*
X8712624Y-5396217D01*
X8707948Y-5400894D01*
X8703190Y-5424812D01*
X8640690Y-5424812D01*
X8640690Y-5115288D01*
X8703190Y-5115288D01*
X8703458Y-5119325D01*
X8703348Y-5119719D01*
X8703505Y-5120034D01*
X8707948Y-5186825D01*
X8741772Y-5220649D01*
X8789608Y-5220649D01*
X8823432Y-5186825D01*
X8828190Y-5162907D01*
X8826078Y-5131153D01*
X8840218Y-5080810D01*
X8866266Y-5051896D01*
X8910100Y-5034911D01*
X9289608Y-5030173D01*
X9323432Y-4996349D01*
X9323432Y-4948513D01*
X9289608Y-4914689D01*
X9265690Y-4909931D01*
X8921265Y-4914231D01*
X8912979Y-4910088D01*
X8888783Y-4913138D01*
X8884785Y-4914687D01*
X8884629Y-4914689D01*
X8884533Y-4914784D01*
X8823334Y-4938498D01*
X8813202Y-4938498D01*
X8799213Y-4947844D01*
X8796169Y-4949024D01*
X8795527Y-4950307D01*
X8792925Y-4952046D01*
X8751053Y-4998523D01*
X8742285Y-5002908D01*
X8733980Y-5017475D01*
X8731758Y-5019942D01*
X8731758Y-5021373D01*
X8730207Y-5024094D01*
X8712624Y-5086693D01*
X8707948Y-5091370D01*
X8703190Y-5115288D01*
X8640690Y-5115288D01*
X8640690Y-4496241D01*
X8703190Y-4496241D01*
X8707948Y-4758254D01*
X8741772Y-4792078D01*
X8765690Y-4796836D01*
X9289608Y-4792078D01*
X9323432Y-4758254D01*
X9323432Y-4710418D01*
X9289608Y-4676594D01*
X9265690Y-4671836D01*
X8827127Y-4675818D01*
X8823432Y-4472323D01*
X8789608Y-4438499D01*
X8741772Y-4438499D01*
X8707948Y-4472323D01*
X8703190Y-4496241D01*
X8640690Y-4496241D01*
X8640690Y-4139098D01*
X8703190Y-4139098D01*
X8703458Y-4143135D01*
X8703348Y-4143529D01*
X8703505Y-4143844D01*
X8705743Y-4177495D01*
X8703348Y-4182287D01*
X8706397Y-4206482D01*
X8707935Y-4210453D01*
X8707948Y-4210635D01*
X8708043Y-4210730D01*
X8731758Y-4271929D01*
X8731758Y-4282062D01*
X8741105Y-4296052D01*
X8742285Y-4299096D01*
X8743567Y-4299737D01*
X8745306Y-4302339D01*
X8787903Y-4340714D01*
X8789903Y-4346713D01*
X8809168Y-4361665D01*
X8812937Y-4363268D01*
X8813202Y-4363506D01*
X8813497Y-4363506D01*
X8846069Y-4377356D01*
X8847530Y-4379791D01*
X8869580Y-4390208D01*
X8952462Y-4407529D01*
X8956058Y-4411125D01*
X8979976Y-4415883D01*
X9038473Y-4412963D01*
X9042204Y-4415202D01*
X9066562Y-4414017D01*
X9146977Y-4390550D01*
X9151073Y-4391916D01*
X9174593Y-4385475D01*
X9212501Y-4363506D01*
X9218178Y-4363506D01*
X9238455Y-4349958D01*
X9241270Y-4346832D01*
X9241477Y-4346713D01*
X9241534Y-4346539D01*
X9280326Y-4303479D01*
X9289095Y-4299096D01*
X9297399Y-4284528D01*
X9299622Y-4282062D01*
X9299622Y-4280630D01*
X9301173Y-4277910D01*
X9318755Y-4215311D01*
X9323432Y-4210635D01*
X9328190Y-4186717D01*
X9327921Y-4182679D01*
X9328032Y-4182286D01*
X9327874Y-4181970D01*
X9325636Y-4148320D01*
X9328032Y-4143529D01*
X9324983Y-4119334D01*
X9323444Y-4115362D01*
X9323432Y-4115180D01*
X9323336Y-4115084D01*
X9299622Y-4053885D01*
X9299622Y-4043752D01*
X9290273Y-4029760D01*
X9289095Y-4026719D01*
X9287813Y-4026078D01*
X9286074Y-4023475D01*
X9241988Y-3986118D01*
X9194154Y-3986118D01*
X9160329Y-4019943D01*
X9160329Y-4067777D01*
X9173877Y-4088054D01*
X9187203Y-4099346D01*
X9203310Y-4140914D01*
X9205301Y-4170850D01*
X9191161Y-4221193D01*
X9164267Y-4251045D01*
X9133566Y-4268838D01*
X9131484Y-4268940D01*
X9054308Y-4291460D01*
X9051404Y-4290883D01*
X8996937Y-4293601D01*
X8995134Y-4292749D01*
X8915944Y-4276199D01*
X8912689Y-4273673D01*
X8878707Y-4259222D01*
X8845157Y-4228997D01*
X8828069Y-4184899D01*
X8826078Y-4154963D01*
X8840410Y-4103936D01*
X8871051Y-4067777D01*
X8871051Y-4019943D01*
X8837226Y-3986118D01*
X8789392Y-3986118D01*
X8769115Y-3999666D01*
X8749064Y-4023328D01*
X8742285Y-4026718D01*
X8734251Y-4040808D01*
X8731758Y-4043752D01*
X8731758Y-4045183D01*
X8730207Y-4047904D01*
X8712624Y-4110503D01*
X8707948Y-4115180D01*
X8703190Y-4139098D01*
X8640690Y-4139098D01*
X8640690Y-3829574D01*
X8703190Y-3829574D01*
X8703458Y-3833611D01*
X8703348Y-3834005D01*
X8703505Y-3834320D01*
X8707948Y-3901111D01*
X8741772Y-3934935D01*
X8789608Y-3934935D01*
X8823432Y-3901111D01*
X8828190Y-3877193D01*
X8826078Y-3845439D01*
X8840218Y-3795096D01*
X8866266Y-3766182D01*
X8910100Y-3749197D01*
X9289608Y-3744459D01*
X9323432Y-3710635D01*
X9323432Y-3662799D01*
X9289608Y-3628975D01*
X9265690Y-3624217D01*
X8921265Y-3628517D01*
X8912979Y-3624374D01*
X8888783Y-3627424D01*
X8884785Y-3628973D01*
X8884629Y-3628975D01*
X8884533Y-3629070D01*
X8823334Y-3652784D01*
X8813202Y-3652784D01*
X8799213Y-3662130D01*
X8796169Y-3663310D01*
X8795527Y-3664593D01*
X8792925Y-3666332D01*
X8751053Y-3712809D01*
X8742285Y-3717194D01*
X8733980Y-3731761D01*
X8731758Y-3734228D01*
X8731758Y-3735659D01*
X8730207Y-3738380D01*
X8712624Y-3800979D01*
X8707948Y-3805656D01*
X8703190Y-3829574D01*
X8640690Y-3829574D01*
X8640690Y-3210527D01*
X8703190Y-3210527D01*
X8707948Y-3472540D01*
X8741772Y-3506364D01*
X8765690Y-3511122D01*
X9289608Y-3506364D01*
X9323432Y-3472540D01*
X9323432Y-3424704D01*
X9289608Y-3390880D01*
X9265690Y-3386122D01*
X8827127Y-3390104D01*
X8823432Y-3186609D01*
X8789608Y-3152785D01*
X8741772Y-3152785D01*
X8707948Y-3186609D01*
X8703190Y-3210527D01*
X8640690Y-3210527D01*
X8640690Y-2853384D01*
X8703190Y-2853384D01*
X8703458Y-2857421D01*
X8703348Y-2857815D01*
X8703505Y-2858130D01*
X8705743Y-2891781D01*
X8703348Y-2896573D01*
X8706397Y-2920768D01*
X8707935Y-2924739D01*
X8707948Y-2924921D01*
X8708043Y-2925016D01*
X8731758Y-2986215D01*
X8731758Y-2996348D01*
X8741105Y-3010338D01*
X8742285Y-3013382D01*
X8743567Y-3014023D01*
X8745306Y-3016625D01*
X8787903Y-3055000D01*
X8789903Y-3060999D01*
X8809168Y-3075951D01*
X8812937Y-3077554D01*
X8813202Y-3077792D01*
X8813497Y-3077792D01*
X8846069Y-3091642D01*
X8847530Y-3094077D01*
X8869580Y-3104494D01*
X8952462Y-3121815D01*
X8956058Y-3125411D01*
X8979976Y-3130169D01*
X9038473Y-3127249D01*
X9042204Y-3129488D01*
X9066562Y-3128303D01*
X9146977Y-3104836D01*
X9151073Y-3106202D01*
X9174593Y-3099761D01*
X9212501Y-3077792D01*
X9218178Y-3077792D01*
X9238455Y-3064244D01*
X9241270Y-3061118D01*
X9241477Y-3060999D01*
X9241534Y-3060825D01*
X9280326Y-3017765D01*
X9289095Y-3013382D01*
X9297399Y-2998814D01*
X9299622Y-2996348D01*
X9299622Y-2994916D01*
X9301173Y-2992196D01*
X9318755Y-2929597D01*
X9323432Y-2924921D01*
X9328190Y-2901003D01*
X9327921Y-2896965D01*
X9328032Y-2896572D01*
X9327874Y-2896256D01*
X9325636Y-2862606D01*
X9328032Y-2857815D01*
X9324983Y-2833620D01*
X9323444Y-2829648D01*
X9323432Y-2829466D01*
X9323336Y-2829370D01*
X9299622Y-2768171D01*
X9299622Y-2758038D01*
X9290273Y-2744046D01*
X9289095Y-2741005D01*
X9287813Y-2740364D01*
X9286074Y-2737761D01*
X9241988Y-2700404D01*
X9194154Y-2700404D01*
X9160329Y-2734229D01*
X9160329Y-2782063D01*
X9173877Y-2802340D01*
X9187203Y-2813632D01*
X9203310Y-2855200D01*
X9205301Y-2885136D01*
X9191161Y-2935479D01*
X9164267Y-2965331D01*
X9133566Y-2983124D01*
X9131484Y-2983226D01*
X9054308Y-3005746D01*
X9051404Y-3005169D01*
X8996937Y-3007887D01*
X8995134Y-3007035D01*
X8915944Y-2990485D01*
X8912689Y-2987959D01*
X8878707Y-2973508D01*
X8845157Y-2943283D01*
X8828069Y-2899185D01*
X8826078Y-2869249D01*
X8840410Y-2818222D01*
X8871051Y-2782063D01*
X8871051Y-2734229D01*
X8837226Y-2700404D01*
X8789392Y-2700404D01*
X8769115Y-2713952D01*
X8749064Y-2737614D01*
X8742285Y-2741004D01*
X8734251Y-2755094D01*
X8731758Y-2758038D01*
X8731758Y-2759469D01*
X8730207Y-2762190D01*
X8712624Y-2824789D01*
X8707948Y-2829466D01*
X8703190Y-2853384D01*
X8640690Y-2853384D01*
X8640690Y-2637904D01*
X9390690Y-2637904D01*
X9390690Y-7854577D01*
G37*
D11*
G36*
X5426345Y-3153451D02*
G01*
X4188250Y-3153451D01*
X4188250Y-2153695D01*
X4288250Y-2153695D01*
X4290111Y-2947952D01*
X4288494Y-2960680D01*
X4290155Y-2966773D01*
X4290171Y-2973204D01*
X4295262Y-2985494D01*
X4298761Y-2998323D01*
X4302663Y-3003361D01*
X4305103Y-3009252D01*
X4314508Y-3018657D01*
X4322651Y-3029172D01*
X4328185Y-3032334D01*
X4332693Y-3036842D01*
X4344978Y-3041930D01*
X4356528Y-3048531D01*
X4362852Y-3049334D01*
X4368741Y-3051774D01*
X4382042Y-3051774D01*
X4395235Y-3053451D01*
X4401384Y-3051774D01*
X4407759Y-3051774D01*
X4420049Y-3046682D01*
X4432878Y-3043184D01*
X4437916Y-3039281D01*
X4443807Y-3036842D01*
X4453212Y-3027436D01*
X4463727Y-3019294D01*
X4469530Y-3011118D01*
X4471397Y-3009252D01*
X4472155Y-3007419D01*
X4475074Y-3003309D01*
X4746266Y-2526464D01*
X4747314Y-2973204D01*
X4762246Y-3009252D01*
X4789836Y-3036842D01*
X4825884Y-3051774D01*
X4864902Y-3051774D01*
X4900950Y-3036842D01*
X4928540Y-3009252D01*
X4943472Y-2973204D01*
X4945393Y-2953695D01*
X4943531Y-2159437D01*
X4944261Y-2153695D01*
X5126345Y-2153695D01*
X5128266Y-2973204D01*
X5143198Y-3009252D01*
X5170788Y-3036842D01*
X5206836Y-3051774D01*
X5245854Y-3051774D01*
X5281902Y-3036842D01*
X5309492Y-3009252D01*
X5324424Y-2973204D01*
X5326345Y-2953695D01*
X5324424Y-2134186D01*
X5309492Y-2098138D01*
X5281902Y-2070548D01*
X5245854Y-2055616D01*
X5206836Y-2055616D01*
X5170788Y-2070548D01*
X5143198Y-2098138D01*
X5128266Y-2134186D01*
X5126345Y-2153695D01*
X4944261Y-2153695D01*
X4945149Y-2146710D01*
X4943487Y-2140616D01*
X4943472Y-2134186D01*
X4938380Y-2121895D01*
X4934882Y-2109067D01*
X4930979Y-2104028D01*
X4928540Y-2098138D01*
X4919134Y-2088732D01*
X4910992Y-2078218D01*
X4905457Y-2075055D01*
X4900950Y-2070548D01*
X4888664Y-2065459D01*
X4877115Y-2058859D01*
X4870790Y-2058055D01*
X4864902Y-2055616D01*
X4851602Y-2055616D01*
X4838409Y-2053939D01*
X4832260Y-2055616D01*
X4825884Y-2055616D01*
X4813592Y-2060707D01*
X4800765Y-2064206D01*
X4795726Y-2068108D01*
X4789836Y-2070548D01*
X4780430Y-2079953D01*
X4769916Y-2088096D01*
X4764112Y-2096271D01*
X4762246Y-2098138D01*
X4761487Y-2099970D01*
X4758569Y-2104081D01*
X4487376Y-2580925D01*
X4486329Y-2134186D01*
X4471397Y-2098138D01*
X4443807Y-2070548D01*
X4407759Y-2055616D01*
X4368741Y-2055616D01*
X4332693Y-2070548D01*
X4305103Y-2098138D01*
X4290171Y-2134186D01*
X4288250Y-2153695D01*
X4188250Y-2153695D01*
X4188250Y-1953939D01*
X5426345Y-1953939D01*
X5426345Y-3153451D01*
G37*
G36*
X5444366Y-8875546D02*
G01*
X5491476Y-8921253D01*
X5520082Y-9030610D01*
X5521705Y-9272315D01*
X5493377Y-9391103D01*
X5449765Y-9436052D01*
X5407932Y-9457936D01*
X5302753Y-9459112D01*
X5262379Y-9439842D01*
X5215270Y-9394135D01*
X5186665Y-9284780D01*
X5185042Y-9043072D01*
X5213369Y-8924286D01*
X5256981Y-8879338D01*
X5298815Y-8857453D01*
X5403993Y-8856277D01*
X5444366Y-8875546D01*
G37*
G36*
X5820041Y-9757695D02*
G01*
X3364819Y-9757695D01*
X3364819Y-8777204D01*
X3464819Y-8777204D01*
X3479751Y-8813252D01*
X3507341Y-8840842D01*
X3543389Y-8855774D01*
X3562898Y-8857695D01*
X3691703Y-8857175D01*
X3693391Y-9577204D01*
X3708323Y-9613252D01*
X3735913Y-9640842D01*
X3771961Y-9655774D01*
X3810979Y-9655774D01*
X3847027Y-9640842D01*
X3874617Y-9613252D01*
X3889549Y-9577204D01*
X3891470Y-9557695D01*
X3889826Y-8856377D01*
X4039550Y-8855774D01*
X4075598Y-8840842D01*
X4103188Y-8813252D01*
X4118120Y-8777204D01*
X4118120Y-8757695D01*
X4186707Y-8757695D01*
X4188526Y-9389703D01*
X4187492Y-9392808D01*
X4188579Y-9408115D01*
X4188628Y-9424823D01*
X4190003Y-9428142D01*
X4190258Y-9431728D01*
X4197265Y-9450036D01*
X4237330Y-9526619D01*
X4241655Y-9537060D01*
X4244793Y-9540884D01*
X4245804Y-9542816D01*
X4247797Y-9544544D01*
X4254091Y-9552214D01*
X4295149Y-9591178D01*
X4301586Y-9598600D01*
X4305696Y-9601187D01*
X4307339Y-9602746D01*
X4309777Y-9603756D01*
X4318177Y-9609043D01*
X4382368Y-9639679D01*
X4383531Y-9640842D01*
X4393167Y-9644833D01*
X4412675Y-9654144D01*
X4416258Y-9654398D01*
X4419579Y-9655774D01*
X4439088Y-9657695D01*
X4576702Y-9656157D01*
X4578961Y-9656910D01*
X4591953Y-9655986D01*
X4610978Y-9655774D01*
X4614298Y-9654398D01*
X4617881Y-9654144D01*
X4636190Y-9647138D01*
X4712778Y-9607070D01*
X4723218Y-9602747D01*
X4727040Y-9599610D01*
X4728971Y-9598600D01*
X4730700Y-9596606D01*
X4738372Y-9590310D01*
X4777332Y-9549253D01*
X4784755Y-9542816D01*
X4787343Y-9538703D01*
X4788903Y-9537060D01*
X4789913Y-9534621D01*
X4795198Y-9526225D01*
X4825834Y-9462033D01*
X4826997Y-9460871D01*
X4830988Y-9451234D01*
X4840299Y-9431727D01*
X4840553Y-9428143D01*
X4841929Y-9424823D01*
X4843850Y-9405314D01*
X4842753Y-9024361D01*
X4986707Y-9024361D01*
X4988456Y-9284928D01*
X4986825Y-9295889D01*
X4988610Y-9307963D01*
X4988628Y-9310537D01*
X4989193Y-9311901D01*
X4989693Y-9315281D01*
X5026723Y-9456840D01*
X5026723Y-9462918D01*
X5031037Y-9473333D01*
X5034383Y-9486123D01*
X5038810Y-9492098D01*
X5041655Y-9498966D01*
X5054091Y-9514120D01*
X5131826Y-9589543D01*
X5139681Y-9598600D01*
X5143893Y-9601251D01*
X5145435Y-9602747D01*
X5147875Y-9603757D01*
X5156272Y-9609043D01*
X5220463Y-9639679D01*
X5221626Y-9640842D01*
X5231262Y-9644833D01*
X5250770Y-9654144D01*
X5254353Y-9654398D01*
X5257674Y-9655774D01*
X5277183Y-9657695D01*
X5414797Y-9656157D01*
X5417056Y-9656910D01*
X5430048Y-9655986D01*
X5449073Y-9655774D01*
X5452393Y-9654398D01*
X5455976Y-9654144D01*
X5474285Y-9647138D01*
X5550873Y-9607070D01*
X5561313Y-9602747D01*
X5565134Y-9599610D01*
X5567066Y-9598600D01*
X5568796Y-9596604D01*
X5576466Y-9590310D01*
X5644350Y-9520344D01*
X5649135Y-9517474D01*
X5655596Y-9508753D01*
X5665093Y-9498966D01*
X5667937Y-9492097D01*
X5672364Y-9486124D01*
X5678959Y-9467663D01*
X5714136Y-9320152D01*
X5718120Y-9310537D01*
X5719308Y-9298466D01*
X5719923Y-9295890D01*
X5719705Y-9294431D01*
X5720041Y-9291028D01*
X5718291Y-9030460D01*
X5719923Y-9019499D01*
X5718137Y-9007424D01*
X5718120Y-9004852D01*
X5717555Y-9003488D01*
X5717055Y-9000107D01*
X5680024Y-8858547D01*
X5680024Y-8852471D01*
X5675710Y-8842057D01*
X5672364Y-8829265D01*
X5667936Y-8823289D01*
X5665092Y-8816423D01*
X5652656Y-8801269D01*
X5574923Y-8725849D01*
X5567066Y-8716790D01*
X5562852Y-8714137D01*
X5561312Y-8712643D01*
X5558872Y-8711632D01*
X5550476Y-8706347D01*
X5486283Y-8675710D01*
X5485121Y-8674548D01*
X5475479Y-8670554D01*
X5455976Y-8661246D01*
X5452393Y-8660991D01*
X5449073Y-8659616D01*
X5429564Y-8657695D01*
X5291948Y-8659232D01*
X5289690Y-8658480D01*
X5276696Y-8659403D01*
X5257674Y-8659616D01*
X5254353Y-8660991D01*
X5250770Y-8661246D01*
X5232462Y-8668252D01*
X5155873Y-8708318D01*
X5145436Y-8712642D01*
X5141614Y-8715778D01*
X5139681Y-8716790D01*
X5137949Y-8718786D01*
X5130283Y-8725079D01*
X5062398Y-8795043D01*
X5057612Y-8797915D01*
X5051150Y-8806635D01*
X5041655Y-8816422D01*
X5038809Y-8823291D01*
X5034383Y-8829266D01*
X5027788Y-8847726D01*
X4992611Y-8995235D01*
X4988628Y-9004852D01*
X4987439Y-9016923D01*
X4986825Y-9019500D01*
X4987042Y-9020958D01*
X4986707Y-9024361D01*
X4842753Y-9024361D01*
X4841929Y-8738186D01*
X4826997Y-8702138D01*
X4799407Y-8674548D01*
X4763359Y-8659616D01*
X4724341Y-8659616D01*
X4688293Y-8674548D01*
X4660703Y-8702138D01*
X4645771Y-8738186D01*
X4643850Y-8757695D01*
X4645638Y-9378964D01*
X4625797Y-9420536D01*
X4610487Y-9436671D01*
X4569837Y-9457936D01*
X4464658Y-9459112D01*
X4423864Y-9439642D01*
X4407732Y-9424332D01*
X4386645Y-9384026D01*
X4384786Y-8738186D01*
X4369854Y-8702138D01*
X4342264Y-8674548D01*
X4306216Y-8659616D01*
X4267198Y-8659616D01*
X4231150Y-8674548D01*
X4203560Y-8702138D01*
X4188628Y-8738186D01*
X4186707Y-8757695D01*
X4118120Y-8757695D01*
X4118120Y-8738186D01*
X4103188Y-8702138D01*
X4075598Y-8674548D01*
X4039550Y-8659616D01*
X4020041Y-8657695D01*
X3543389Y-8659616D01*
X3507341Y-8674548D01*
X3479751Y-8702138D01*
X3464819Y-8738186D01*
X3464819Y-8777204D01*
X3364819Y-8777204D01*
X3364819Y-8557695D01*
X5820041Y-8557695D01*
X5820041Y-9757695D01*
G37*
D12*
G36*
X4478967Y-7507763D02*
G01*
X4373650Y-7508387D01*
X4367646Y-7507057D01*
X4359637Y-7508470D01*
X4254656Y-7509092D01*
X4203049Y-7484462D01*
X4182883Y-7465325D01*
X4156212Y-7414344D01*
X4155005Y-7330294D01*
X4179168Y-7279664D01*
X4198305Y-7259499D01*
X4248842Y-7233060D01*
X4478320Y-7231700D01*
X4478967Y-7507763D01*
G37*
G36*
X5478967Y-7507763D02*
G01*
X5254656Y-7509092D01*
X5203049Y-7484462D01*
X5182883Y-7465325D01*
X5156212Y-7414344D01*
X5155005Y-7330294D01*
X5179168Y-7279664D01*
X5198305Y-7259499D01*
X5248842Y-7233060D01*
X5478320Y-7231700D01*
X5478967Y-7507763D01*
G37*
G36*
X5853031Y-8358219D02*
G01*
X2829222Y-8358219D01*
X2829222Y-7822504D01*
X2954222Y-7822504D01*
X2955785Y-7900361D01*
X2955203Y-7902108D01*
X2956063Y-7914214D01*
X2956624Y-7942128D01*
X2958342Y-7946276D01*
X2958661Y-7950758D01*
X2967419Y-7973644D01*
X3017503Y-8069378D01*
X3022907Y-8082425D01*
X3026827Y-8087202D01*
X3028092Y-8089619D01*
X3030586Y-8091782D01*
X3038452Y-8101367D01*
X3089779Y-8150077D01*
X3097821Y-8159349D01*
X3102954Y-8162580D01*
X3105012Y-8164533D01*
X3108065Y-8165797D01*
X3118558Y-8172403D01*
X3198798Y-8210699D01*
X3200252Y-8212153D01*
X3212301Y-8217144D01*
X3236682Y-8228780D01*
X3241162Y-8229098D01*
X3245312Y-8230817D01*
X3269698Y-8233219D01*
X3506722Y-8231049D01*
X3523427Y-8232237D01*
X3529566Y-8230840D01*
X3532179Y-8230817D01*
X3535230Y-8229553D01*
X3547321Y-8226804D01*
X3712553Y-8169195D01*
X3749399Y-8137240D01*
X3771211Y-8093616D01*
X3774668Y-8044966D01*
X3759245Y-7998697D01*
X3727289Y-7961851D01*
X3683665Y-7940039D01*
X3635015Y-7936582D01*
X3611121Y-7942015D01*
X3492541Y-7983358D01*
X3301897Y-7985103D01*
X3250669Y-7960653D01*
X3230502Y-7941515D01*
X3203669Y-7890225D01*
X3202931Y-7853459D01*
X3226787Y-7803473D01*
X3245924Y-7783308D01*
X3306570Y-7751581D01*
X3481601Y-7705793D01*
X3493190Y-7704970D01*
X3511423Y-7697992D01*
X3513566Y-7697432D01*
X3514290Y-7696895D01*
X3516076Y-7696212D01*
X3611812Y-7646126D01*
X3624858Y-7640723D01*
X3629634Y-7636803D01*
X3632051Y-7635539D01*
X3634214Y-7633044D01*
X3643800Y-7625178D01*
X3692505Y-7573853D01*
X3701780Y-7565810D01*
X3705013Y-7560673D01*
X3706964Y-7558618D01*
X3708227Y-7555567D01*
X3714834Y-7545073D01*
X3753130Y-7464832D01*
X3754584Y-7463379D01*
X3759575Y-7451329D01*
X3771211Y-7426949D01*
X3771529Y-7422468D01*
X3773248Y-7418319D01*
X3775650Y-7393933D01*
X3774086Y-7316072D01*
X3774668Y-7314328D01*
X3773808Y-7302236D01*
X3773737Y-7298695D01*
X3906603Y-7298695D01*
X3908395Y-7423484D01*
X3907584Y-7425918D01*
X3908644Y-7440838D01*
X3909005Y-7465938D01*
X3910723Y-7470086D01*
X3911042Y-7474568D01*
X3919800Y-7497454D01*
X3969885Y-7593190D01*
X3975289Y-7606236D01*
X3979208Y-7611012D01*
X3980473Y-7613429D01*
X3982967Y-7615592D01*
X3990834Y-7625178D01*
X4042158Y-7673883D01*
X4050202Y-7683158D01*
X4055338Y-7686391D01*
X4057394Y-7688342D01*
X4060444Y-7689605D01*
X4070939Y-7696212D01*
X4144017Y-7731089D01*
X3917182Y-8057892D01*
X3906632Y-8105509D01*
X3915108Y-8153540D01*
X3941320Y-8194671D01*
X3981276Y-8222640D01*
X4028893Y-8233190D01*
X4076924Y-8224714D01*
X4118055Y-8198502D01*
X4134007Y-8179902D01*
X4428374Y-7755805D01*
X4479548Y-7755502D01*
X4480433Y-8132605D01*
X4499097Y-8177665D01*
X4533585Y-8212153D01*
X4578645Y-8230817D01*
X4627417Y-8230817D01*
X4672477Y-8212153D01*
X4706965Y-8177665D01*
X4725629Y-8132605D01*
X4728031Y-8108219D01*
X4726133Y-7298695D01*
X4906603Y-7298695D01*
X4908395Y-7423484D01*
X4907584Y-7425918D01*
X4908644Y-7440838D01*
X4909005Y-7465938D01*
X4910723Y-7470086D01*
X4911042Y-7474568D01*
X4919800Y-7497454D01*
X4969885Y-7593190D01*
X4975289Y-7606236D01*
X4979208Y-7611012D01*
X4980473Y-7613429D01*
X4982967Y-7615592D01*
X4990834Y-7625178D01*
X5042158Y-7673883D01*
X5050202Y-7683158D01*
X5055338Y-7686391D01*
X5057394Y-7688342D01*
X5060444Y-7689605D01*
X5070939Y-7696212D01*
X5151179Y-7734508D01*
X5152633Y-7735962D01*
X5164682Y-7740953D01*
X5189063Y-7752589D01*
X5193543Y-7752907D01*
X5197693Y-7754626D01*
X5222079Y-7757028D01*
X5479548Y-7755502D01*
X5480433Y-8132605D01*
X5499097Y-8177665D01*
X5533585Y-8212153D01*
X5578645Y-8230817D01*
X5627417Y-8230817D01*
X5672477Y-8212153D01*
X5706965Y-8177665D01*
X5725629Y-8132605D01*
X5728031Y-8108219D01*
X5725629Y-7083833D01*
X5706965Y-7038773D01*
X5672477Y-7004285D01*
X5627417Y-6985621D01*
X5603031Y-6983219D01*
X5241198Y-6985363D01*
X5237712Y-6984201D01*
X5219551Y-6985491D01*
X5197693Y-6985621D01*
X5193543Y-6987339D01*
X5189063Y-6987658D01*
X5166177Y-6996416D01*
X5070443Y-7046499D01*
X5057394Y-7051905D01*
X5052616Y-7055826D01*
X5050202Y-7057089D01*
X5048040Y-7059580D01*
X5038452Y-7067450D01*
X4989750Y-7118771D01*
X4980473Y-7126818D01*
X4977237Y-7131957D01*
X4975289Y-7134011D01*
X4974027Y-7137057D01*
X4967418Y-7147556D01*
X4929122Y-7227795D01*
X4927669Y-7229249D01*
X4922678Y-7241297D01*
X4911042Y-7265679D01*
X4910723Y-7270160D01*
X4909005Y-7274309D01*
X4906603Y-7298695D01*
X4726133Y-7298695D01*
X4725629Y-7083833D01*
X4706965Y-7038773D01*
X4672477Y-7004285D01*
X4627417Y-6985621D01*
X4603031Y-6983219D01*
X4241198Y-6985363D01*
X4237712Y-6984201D01*
X4219551Y-6985491D01*
X4197693Y-6985621D01*
X4193543Y-6987339D01*
X4189063Y-6987658D01*
X4166177Y-6996416D01*
X4070443Y-7046499D01*
X4057394Y-7051905D01*
X4052616Y-7055826D01*
X4050202Y-7057089D01*
X4048040Y-7059580D01*
X4038452Y-7067450D01*
X3989750Y-7118771D01*
X3980473Y-7126818D01*
X3977237Y-7131957D01*
X3975289Y-7134011D01*
X3974027Y-7137057D01*
X3967418Y-7147556D01*
X3929122Y-7227795D01*
X3927669Y-7229249D01*
X3922678Y-7241297D01*
X3911042Y-7265679D01*
X3910723Y-7270160D01*
X3909005Y-7274309D01*
X3906603Y-7298695D01*
X3773737Y-7298695D01*
X3773248Y-7274309D01*
X3771529Y-7270159D01*
X3771211Y-7265679D01*
X3762453Y-7242793D01*
X3712369Y-7147059D01*
X3706964Y-7134010D01*
X3703042Y-7129232D01*
X3701780Y-7126818D01*
X3699288Y-7124656D01*
X3691419Y-7115068D01*
X3640097Y-7066366D01*
X3632051Y-7057089D01*
X3626911Y-7053853D01*
X3624858Y-7051905D01*
X3621811Y-7050643D01*
X3611313Y-7044034D01*
X3531073Y-7005738D01*
X3529620Y-7004285D01*
X3517571Y-6999294D01*
X3493190Y-6987658D01*
X3488708Y-6987339D01*
X3484560Y-6985621D01*
X3460174Y-6983219D01*
X3223149Y-6985388D01*
X3206444Y-6984201D01*
X3200304Y-6985597D01*
X3197693Y-6985621D01*
X3194643Y-6986884D01*
X3182550Y-6989634D01*
X3017319Y-7047243D01*
X2980473Y-7079198D01*
X2958661Y-7122823D01*
X2955204Y-7171472D01*
X2970627Y-7217741D01*
X3002582Y-7254587D01*
X3046207Y-7276399D01*
X3094856Y-7279856D01*
X3118750Y-7274423D01*
X3237330Y-7233079D01*
X3427975Y-7231334D01*
X3479204Y-7255784D01*
X3499369Y-7274921D01*
X3526202Y-7326211D01*
X3526940Y-7362976D01*
X3503084Y-7412962D01*
X3483947Y-7433128D01*
X3423301Y-7464855D01*
X3248268Y-7510643D01*
X3236682Y-7511467D01*
X3218448Y-7518444D01*
X3216306Y-7519005D01*
X3215581Y-7519541D01*
X3213796Y-7520225D01*
X3118062Y-7570308D01*
X3105013Y-7575714D01*
X3100235Y-7579635D01*
X3097821Y-7580898D01*
X3095659Y-7583389D01*
X3086071Y-7591259D01*
X3037369Y-7642580D01*
X3028092Y-7650627D01*
X3024856Y-7655766D01*
X3022908Y-7657820D01*
X3021646Y-7660866D01*
X3015037Y-7671365D01*
X2976741Y-7751604D01*
X2975288Y-7753058D01*
X2970297Y-7765106D01*
X2958661Y-7789488D01*
X2958342Y-7793969D01*
X2956624Y-7798118D01*
X2954222Y-7822504D01*
X2829222Y-7822504D01*
X2829222Y-6858219D01*
X5853031Y-6858219D01*
X5853031Y-8358219D01*
G37*
D13*
G36*
X5971430Y-5211027D02*
G01*
X6071015Y-5308161D01*
X6128394Y-5529296D01*
X6130913Y-5991992D01*
X6074310Y-6227287D01*
X5980647Y-6323314D01*
X5889344Y-6370719D01*
X5674348Y-6372686D01*
X5585262Y-6329829D01*
X5485678Y-6232694D01*
X5428297Y-6011557D01*
X5425778Y-5548864D01*
X5482382Y-5313569D01*
X5576047Y-5217540D01*
X5667347Y-5170136D01*
X5882343Y-5168169D01*
X5971430Y-5211027D01*
G37*
G36*
X8023584Y-6837095D02*
G01*
X747393Y-6837095D01*
X747393Y-5020428D01*
X914060Y-5020428D01*
X916942Y-6549692D01*
X939340Y-6603764D01*
X980724Y-6645148D01*
X1034796Y-6667546D01*
X1093324Y-6667546D01*
X1147396Y-6645148D01*
X1188780Y-6603764D01*
X1211178Y-6549692D01*
X1214060Y-6520428D01*
X1212861Y-5884230D01*
X1772827Y-5882409D01*
X1774085Y-6549692D01*
X1796483Y-6603764D01*
X1837867Y-6645148D01*
X1891939Y-6667546D01*
X1950467Y-6667546D01*
X2004539Y-6645148D01*
X2045923Y-6603764D01*
X2068321Y-6549692D01*
X2071203Y-6520428D01*
X2068431Y-5049692D01*
X2274085Y-5049692D01*
X2296483Y-5103764D01*
X2337867Y-5145148D01*
X2391939Y-5167546D01*
X2421203Y-5170428D01*
X2700054Y-5169521D01*
X2702656Y-6549692D01*
X2725054Y-6603764D01*
X2766438Y-6645148D01*
X2820510Y-6667546D01*
X2879038Y-6667546D01*
X2933110Y-6645148D01*
X2974494Y-6603764D01*
X2996892Y-6549692D01*
X2999774Y-6520428D01*
X2997226Y-5168555D01*
X3307609Y-5167546D01*
X3361681Y-5145148D01*
X3403065Y-5103764D01*
X3425463Y-5049692D01*
X3425463Y-5020428D01*
X3628346Y-5020428D01*
X3631105Y-6211207D01*
X3629524Y-6215952D01*
X3631170Y-6239123D01*
X3631228Y-6263978D01*
X3633290Y-6268956D01*
X3633672Y-6274332D01*
X3644182Y-6301796D01*
X3718190Y-6444337D01*
X3725053Y-6460906D01*
X3729788Y-6466676D01*
X3731275Y-6469539D01*
X3734268Y-6472135D01*
X3743708Y-6483637D01*
X3818863Y-6555538D01*
X3829236Y-6567499D01*
X3835459Y-6571416D01*
X3837868Y-6573721D01*
X3841529Y-6575237D01*
X3854121Y-6583164D01*
X3978646Y-6643070D01*
X3980724Y-6645148D01*
X3996846Y-6651826D01*
X4024442Y-6665102D01*
X4029817Y-6665483D01*
X4034796Y-6667546D01*
X4064060Y-6670428D01*
X4327319Y-6668019D01*
X4331012Y-6669250D01*
X4351440Y-6667798D01*
X4379038Y-6667546D01*
X4384016Y-6665483D01*
X4389392Y-6665102D01*
X4416855Y-6654592D01*
X4559395Y-6580584D01*
X4575968Y-6573720D01*
X4581738Y-6568984D01*
X4584599Y-6567499D01*
X4587193Y-6564507D01*
X4598699Y-6555065D01*
X4670594Y-6479915D01*
X4682559Y-6469539D01*
X4686477Y-6463313D01*
X4688781Y-6460906D01*
X4690296Y-6457246D01*
X4698224Y-6444653D01*
X4758130Y-6320128D01*
X4760209Y-6318050D01*
X4766890Y-6301918D01*
X4780162Y-6274333D01*
X4780543Y-6268958D01*
X4782607Y-6263978D01*
X4785489Y-6234714D01*
X4783834Y-5520428D01*
X5128346Y-5520428D01*
X5131017Y-6010959D01*
X5128523Y-6027719D01*
X5131207Y-6045869D01*
X5131228Y-6049692D01*
X5132074Y-6051736D01*
X5132825Y-6056809D01*
X5202657Y-6325932D01*
X5202657Y-6335404D01*
X5209236Y-6351289D01*
X5214147Y-6370213D01*
X5220786Y-6379173D01*
X5225054Y-6389477D01*
X5243709Y-6412208D01*
X5388298Y-6553239D01*
X5400665Y-6567499D01*
X5407015Y-6571496D01*
X5409296Y-6573721D01*
X5412959Y-6575238D01*
X5425550Y-6583164D01*
X5550075Y-6643070D01*
X5552153Y-6645148D01*
X5568275Y-6651826D01*
X5595871Y-6665102D01*
X5601246Y-6665483D01*
X5606225Y-6667546D01*
X5635489Y-6670428D01*
X5898748Y-6668019D01*
X5902441Y-6669250D01*
X5922869Y-6667798D01*
X5950467Y-6667546D01*
X5955445Y-6665483D01*
X5960821Y-6665102D01*
X5988284Y-6654592D01*
X6130818Y-6580587D01*
X6147397Y-6573721D01*
X6153170Y-6568982D01*
X6156028Y-6567499D01*
X6158621Y-6564509D01*
X6170127Y-6555066D01*
X6300128Y-6421783D01*
X6307702Y-6417239D01*
X6317631Y-6403838D01*
X6331639Y-6389477D01*
X6335906Y-6379173D01*
X6342546Y-6370213D01*
X6352439Y-6342522D01*
X6412739Y-6091857D01*
X6699774Y-6091857D01*
X6701808Y-6213382D01*
X6700952Y-6215953D01*
X6702129Y-6232517D01*
X6702656Y-6263978D01*
X6704719Y-6268958D01*
X6705101Y-6274333D01*
X6715610Y-6301796D01*
X6789619Y-6444338D01*
X6796482Y-6460906D01*
X6801217Y-6466676D01*
X6802704Y-6469539D01*
X6805697Y-6472135D01*
X6815137Y-6483637D01*
X6890292Y-6555538D01*
X6900665Y-6567499D01*
X6906888Y-6571416D01*
X6909297Y-6573721D01*
X6912958Y-6575237D01*
X6925550Y-6583164D01*
X7050075Y-6643070D01*
X7052153Y-6645148D01*
X7068275Y-6651826D01*
X7095871Y-6665102D01*
X7101246Y-6665483D01*
X7106225Y-6667546D01*
X7135489Y-6670428D01*
X7490681Y-6667778D01*
X7511392Y-6669251D01*
X7518788Y-6667569D01*
X7521896Y-6667546D01*
X7525553Y-6666030D01*
X7540066Y-6662731D01*
X7781202Y-6579314D01*
X7825416Y-6540967D01*
X7851590Y-6488620D01*
X7855739Y-6430240D01*
X7837231Y-6374715D01*
X7798884Y-6330501D01*
X7746537Y-6304327D01*
X7688157Y-6300178D01*
X7659483Y-6306697D01*
X7474870Y-6370560D01*
X7174584Y-6372800D01*
X7084735Y-6329575D01*
X7046072Y-6292586D01*
X6999232Y-6202373D01*
X6998015Y-6129677D01*
X7040626Y-6041104D01*
X7077617Y-6002439D01*
X7178952Y-5949824D01*
X7446489Y-5880405D01*
X7460822Y-5879387D01*
X7482742Y-5870998D01*
X7485274Y-5870342D01*
X7486144Y-5869697D01*
X7488285Y-5868878D01*
X7630831Y-5794866D01*
X7647394Y-5788006D01*
X7653163Y-5783271D01*
X7656028Y-5781784D01*
X7658625Y-5778789D01*
X7670125Y-5769352D01*
X7742026Y-5694198D01*
X7753988Y-5683824D01*
X7757905Y-5677600D01*
X7760209Y-5675193D01*
X7761724Y-5671533D01*
X7769653Y-5658939D01*
X7829559Y-5534413D01*
X7831637Y-5532336D01*
X7838315Y-5516213D01*
X7851591Y-5488618D01*
X7851972Y-5483242D01*
X7854035Y-5478264D01*
X7856917Y-5449000D01*
X7854882Y-5327474D01*
X7855739Y-5324904D01*
X7854561Y-5308334D01*
X7854035Y-5276878D01*
X7851972Y-5271899D01*
X7851591Y-5266524D01*
X7841081Y-5239061D01*
X7767072Y-5096518D01*
X7760209Y-5079949D01*
X7755473Y-5074178D01*
X7753988Y-5071318D01*
X7750996Y-5068723D01*
X7741554Y-5057218D01*
X7666407Y-4985325D01*
X7656028Y-4973358D01*
X7649799Y-4969437D01*
X7647394Y-4967136D01*
X7643737Y-4965621D01*
X7631142Y-4957693D01*
X7506617Y-4897786D01*
X7504539Y-4895708D01*
X7488407Y-4889026D01*
X7460822Y-4875755D01*
X7455447Y-4875373D01*
X7450467Y-4873310D01*
X7421203Y-4870428D01*
X7066000Y-4873077D01*
X7045299Y-4871606D01*
X7037907Y-4873286D01*
X7034796Y-4873310D01*
X7031134Y-4874826D01*
X7016625Y-4878126D01*
X6775489Y-4961543D01*
X6731274Y-4999891D01*
X6705101Y-5052238D01*
X6700952Y-5110618D01*
X6719460Y-5166142D01*
X6757808Y-5210357D01*
X6810155Y-5236530D01*
X6868535Y-5240679D01*
X6897208Y-5234159D01*
X7081820Y-5170295D01*
X7382107Y-5168055D01*
X7471955Y-5211280D01*
X7510621Y-5248271D01*
X7557458Y-5338481D01*
X7558675Y-5411179D01*
X7516064Y-5499753D01*
X7479076Y-5538415D01*
X7377738Y-5591031D01*
X7110202Y-5660450D01*
X7095870Y-5661469D01*
X7073946Y-5669857D01*
X7071418Y-5670514D01*
X7070548Y-5671158D01*
X7068406Y-5671978D01*
X6925863Y-5745987D01*
X6909297Y-5752850D01*
X6903526Y-5757585D01*
X6900664Y-5759072D01*
X6898067Y-5762066D01*
X6886566Y-5771505D01*
X6814668Y-5846655D01*
X6802704Y-5857032D01*
X6798785Y-5863257D01*
X6796482Y-5865665D01*
X6794966Y-5869324D01*
X6787039Y-5881918D01*
X6727132Y-6006442D01*
X6725054Y-6008521D01*
X6718372Y-6024652D01*
X6705101Y-6052238D01*
X6704719Y-6057612D01*
X6702656Y-6062593D01*
X6699774Y-6091857D01*
X6412739Y-6091857D01*
X6419307Y-6064553D01*
X6425464Y-6049692D01*
X6427252Y-6031526D01*
X6428169Y-6027719D01*
X6427843Y-6025531D01*
X6428346Y-6020428D01*
X6425674Y-5529896D01*
X6428169Y-5513137D01*
X6425484Y-5494987D01*
X6425464Y-5491164D01*
X6424616Y-5489119D01*
X6423867Y-5484048D01*
X6354036Y-5214924D01*
X6354036Y-5205451D01*
X6347455Y-5189563D01*
X6342546Y-5170643D01*
X6335907Y-5161683D01*
X6331639Y-5151378D01*
X6312984Y-5128648D01*
X6168403Y-4987626D01*
X6156029Y-4973358D01*
X6149673Y-4969357D01*
X6147396Y-4967136D01*
X6143736Y-4965620D01*
X6131143Y-4957693D01*
X6006615Y-4897784D01*
X6004539Y-4895708D01*
X5988421Y-4889031D01*
X5960822Y-4875754D01*
X5955444Y-4875371D01*
X5950467Y-4873310D01*
X5921203Y-4870428D01*
X5657942Y-4872836D01*
X5654250Y-4871606D01*
X5633826Y-4873057D01*
X5606225Y-4873310D01*
X5601244Y-4875373D01*
X5595870Y-4875755D01*
X5568406Y-4886264D01*
X5425866Y-4960272D01*
X5409296Y-4967136D01*
X5403524Y-4971872D01*
X5400664Y-4973358D01*
X5398068Y-4976350D01*
X5386566Y-4985791D01*
X5256565Y-5119072D01*
X5248991Y-5123617D01*
X5239061Y-5137017D01*
X5225054Y-5151379D01*
X5220786Y-5161682D01*
X5214147Y-5170643D01*
X5204254Y-5198334D01*
X5137384Y-5476301D01*
X5131228Y-5491164D01*
X5129439Y-5509329D01*
X5128523Y-5513137D01*
X5128848Y-5515324D01*
X5128346Y-5520428D01*
X4783834Y-5520428D01*
X4782607Y-4991164D01*
X4760209Y-4937092D01*
X4718825Y-4895708D01*
X4664753Y-4873310D01*
X4606225Y-4873310D01*
X4552153Y-4895708D01*
X4510769Y-4937092D01*
X4488371Y-4991164D01*
X4485489Y-5020428D01*
X4488210Y-6194891D01*
X4444636Y-6285467D01*
X4407647Y-6324130D01*
X4317915Y-6370719D01*
X4102919Y-6372686D01*
X4013306Y-6329575D01*
X3974641Y-6292584D01*
X3928273Y-6203278D01*
X3925464Y-4991164D01*
X3903066Y-4937092D01*
X3861682Y-4895708D01*
X3807610Y-4873310D01*
X3749082Y-4873310D01*
X3695010Y-4895708D01*
X3653626Y-4937092D01*
X3631228Y-4991164D01*
X3628346Y-5020428D01*
X3425463Y-5020428D01*
X3425463Y-4991164D01*
X3403065Y-4937092D01*
X3361681Y-4895708D01*
X3307609Y-4873310D01*
X3278345Y-4870428D01*
X2391939Y-4873310D01*
X2337867Y-4895708D01*
X2296483Y-4937092D01*
X2274085Y-4991164D01*
X2274085Y-5049692D01*
X2068431Y-5049692D01*
X2068321Y-4991164D01*
X2045923Y-4937092D01*
X2004539Y-4895708D01*
X1950467Y-4873310D01*
X1891939Y-4873310D01*
X1837867Y-4895708D01*
X1796483Y-4937092D01*
X1774085Y-4991164D01*
X1771203Y-5020428D01*
X1772267Y-5585198D01*
X1212300Y-5587018D01*
X1211178Y-4991164D01*
X1188780Y-4937092D01*
X1147396Y-4895708D01*
X1093324Y-4873310D01*
X1034796Y-4873310D01*
X980724Y-4895708D01*
X939340Y-4937092D01*
X916942Y-4991164D01*
X914060Y-5020428D01*
X747393Y-5020428D01*
X747393Y-4703761D01*
X8023584Y-4703761D01*
X8023584Y-6837095D01*
G37*
G36*
X9473274Y-9729813D02*
G01*
X5845704Y-9729813D01*
X5845704Y-8873864D01*
X6012371Y-8873864D01*
X6034769Y-8927936D01*
X6076153Y-8969320D01*
X6130225Y-8991718D01*
X6159489Y-8994600D01*
X7331610Y-8991718D01*
X7385682Y-8969320D01*
X7427066Y-8927936D01*
X7449464Y-8873864D01*
X7869514Y-8873864D01*
X7891912Y-8927936D01*
X7933296Y-8969320D01*
X7987368Y-8991718D01*
X8016632Y-8994600D01*
X8439831Y-8993559D01*
X8440942Y-9445292D01*
X8463340Y-9499364D01*
X8504724Y-9540748D01*
X8558796Y-9563146D01*
X8617324Y-9563146D01*
X8671396Y-9540748D01*
X8712780Y-9499364D01*
X8735178Y-9445292D01*
X8738060Y-9416028D01*
X8737019Y-8992828D01*
X9188753Y-8991718D01*
X9242825Y-8969320D01*
X9284209Y-8927936D01*
X9306607Y-8873864D01*
X9306607Y-8815336D01*
X9284209Y-8761264D01*
X9242825Y-8719880D01*
X9188753Y-8697482D01*
X9159489Y-8694600D01*
X8736288Y-8695640D01*
X8735178Y-8243907D01*
X8712780Y-8189835D01*
X8671396Y-8148451D01*
X8617324Y-8126053D01*
X8558796Y-8126053D01*
X8504724Y-8148451D01*
X8463340Y-8189835D01*
X8440942Y-8243907D01*
X8438060Y-8273171D01*
X8439100Y-8696371D01*
X7987368Y-8697482D01*
X7933296Y-8719880D01*
X7891912Y-8761264D01*
X7869514Y-8815336D01*
X7869514Y-8873864D01*
X7449464Y-8873864D01*
X7449464Y-8815336D01*
X7427066Y-8761264D01*
X7385682Y-8719880D01*
X7331610Y-8697482D01*
X7302346Y-8694600D01*
X6130225Y-8697482D01*
X6076153Y-8719880D01*
X6034769Y-8761264D01*
X6012371Y-8815336D01*
X6012371Y-8873864D01*
X5845704Y-8873864D01*
X5845704Y-7959386D01*
X9473274Y-7959386D01*
X9473274Y-9729813D01*
G37*
G36*
X4190074Y-3735413D02*
G01*
X562504Y-3735413D01*
X562504Y-2879464D01*
X729171Y-2879464D01*
X751569Y-2933536D01*
X792953Y-2974920D01*
X847025Y-2997318D01*
X876289Y-3000200D01*
X2048410Y-2997318D01*
X2102482Y-2974920D01*
X2143866Y-2933536D01*
X2166264Y-2879464D01*
X2586314Y-2879464D01*
X2608712Y-2933536D01*
X2650096Y-2974920D01*
X2704168Y-2997318D01*
X2733432Y-3000200D01*
X3156631Y-2999159D01*
X3157742Y-3450892D01*
X3180140Y-3504964D01*
X3221524Y-3546348D01*
X3275596Y-3568746D01*
X3334124Y-3568746D01*
X3388196Y-3546348D01*
X3429580Y-3504964D01*
X3451978Y-3450892D01*
X3454860Y-3421628D01*
X3453819Y-2998428D01*
X3905553Y-2997318D01*
X3959625Y-2974920D01*
X4001009Y-2933536D01*
X4023407Y-2879464D01*
X4023407Y-2820936D01*
X4001009Y-2766864D01*
X3959625Y-2725480D01*
X3905553Y-2703082D01*
X3876289Y-2700200D01*
X3453088Y-2701240D01*
X3451978Y-2249507D01*
X3429580Y-2195435D01*
X3388196Y-2154051D01*
X3334124Y-2131653D01*
X3275596Y-2131653D01*
X3221524Y-2154051D01*
X3180140Y-2195435D01*
X3157742Y-2249507D01*
X3154860Y-2278771D01*
X3155900Y-2701971D01*
X2704168Y-2703082D01*
X2650096Y-2725480D01*
X2608712Y-2766864D01*
X2586314Y-2820936D01*
X2586314Y-2879464D01*
X2166264Y-2879464D01*
X2166264Y-2820936D01*
X2143866Y-2766864D01*
X2102482Y-2725480D01*
X2048410Y-2703082D01*
X2019146Y-2700200D01*
X847025Y-2703082D01*
X792953Y-2725480D01*
X751569Y-2766864D01*
X729171Y-2820936D01*
X729171Y-2879464D01*
X562504Y-2879464D01*
X562504Y-1964986D01*
X4190074Y-1964986D01*
X4190074Y-3735413D01*
G37*
%LPC*%
D14*
%TO.C,H1*%
X1000000Y-11000000D03*
%TD*%
D15*
%TO.C,J1*%
X8855400Y-11139200D03*
X6315400Y-11139200D03*
%TD*%
D14*
%TO.C,H2*%
X9000000Y-1000000D03*
%TD*%
D15*
%TO.C,J3*%
X3623000Y-826800D03*
X1083000Y-826800D03*
%TD*%
%LPD*%
M02*
