%TF.GenerationSoftware,KiCad,Pcbnew,8.0.0*%
%TF.CreationDate,2024-04-01T11:56:58-07:00*%
%TF.ProjectId,recivier,72656369-7669-4657-922e-6b696361645f,rev?*%
%TF.SameCoordinates,Original*%
%TF.FileFunction,Legend,Top*%
%TF.FilePolarity,Positive*%
%FSLAX46Y46*%
G04 Gerber Fmt 4.6, Leading zero omitted, Abs format (unit mm)*
G04 Created by KiCad (PCBNEW 8.0.0) date 2024-04-01 11:56:58*
%MOMM*%
%LPD*%
G01*
G04 APERTURE LIST*
G04 Aperture macros list*
%AMRoundRect*
0 Rectangle with rounded corners*
0 $1 Rounding radius*
0 $2 $3 $4 $5 $6 $7 $8 $9 X,Y pos of 4 corners*
0 Add a 4 corners polygon primitive as box body*
4,1,4,$2,$3,$4,$5,$6,$7,$8,$9,$2,$3,0*
0 Add four circle primitives for the rounded corners*
1,1,$1+$1,$2,$3*
1,1,$1+$1,$4,$5*
1,1,$1+$1,$6,$7*
1,1,$1+$1,$8,$9*
0 Add four rect primitives between the rounded corners*
20,1,$1+$1,$2,$3,$4,$5,0*
20,1,$1+$1,$4,$5,$6,$7,0*
20,1,$1+$1,$6,$7,$8,$9,0*
20,1,$1+$1,$8,$9,$2,$3,0*%
%AMFreePoly0*
4,1,19,0.500000,-0.750000,0.000000,-0.750000,0.000000,-0.744911,-0.071157,-0.744911,-0.207708,-0.704816,-0.327430,-0.627875,-0.420627,-0.520320,-0.479746,-0.390866,-0.500000,-0.250000,-0.500000,0.250000,-0.479746,0.390866,-0.420627,0.520320,-0.327430,0.627875,-0.207708,0.704816,-0.071157,0.744911,0.000000,0.744911,0.000000,0.750000,0.500000,0.750000,0.500000,-0.750000,0.500000,-0.750000,
$1*%
%AMFreePoly1*
4,1,19,0.000000,0.744911,0.071157,0.744911,0.207708,0.704816,0.327430,0.627875,0.420627,0.520320,0.479746,0.390866,0.500000,0.250000,0.500000,-0.250000,0.479746,-0.390866,0.420627,-0.520320,0.327430,-0.627875,0.207708,-0.704816,0.071157,-0.744911,0.000000,-0.744911,0.000000,-0.750000,-0.500000,-0.750000,-0.500000,0.750000,0.000000,0.750000,0.000000,0.744911,0.000000,0.744911,
$1*%
G04 Aperture macros list end*
%ADD10C,0.400000*%
%ADD11C,0.187500*%
%ADD12C,0.250000*%
%ADD13C,0.120000*%
%ADD14C,0.100000*%
%ADD15C,0.000000*%
%ADD16C,0.150000*%
%ADD17RoundRect,0.135000X0.135000X0.185000X-0.135000X0.185000X-0.135000X-0.185000X0.135000X-0.185000X0*%
%ADD18RoundRect,0.050000X0.050000X-0.387500X0.050000X0.387500X-0.050000X0.387500X-0.050000X-0.387500X0*%
%ADD19RoundRect,0.050000X0.387500X-0.050000X0.387500X0.050000X-0.387500X0.050000X-0.387500X-0.050000X0*%
%ADD20R,3.200000X3.200000*%
%ADD21RoundRect,0.135000X-0.135000X-0.185000X0.135000X-0.185000X0.135000X0.185000X-0.135000X0.185000X0*%
%ADD22RoundRect,0.140000X0.170000X-0.140000X0.170000X0.140000X-0.170000X0.140000X-0.170000X-0.140000X0*%
%ADD23R,1.700000X1.700000*%
%ADD24O,1.700000X1.700000*%
%ADD25C,4.000000*%
%ADD26RoundRect,0.100000X0.637500X0.100000X-0.637500X0.100000X-0.637500X-0.100000X0.637500X-0.100000X0*%
%ADD27RoundRect,0.225000X-0.225000X-0.250000X0.225000X-0.250000X0.225000X0.250000X-0.225000X0.250000X0*%
%ADD28RoundRect,0.140000X0.140000X0.170000X-0.140000X0.170000X-0.140000X-0.170000X0.140000X-0.170000X0*%
%ADD29RoundRect,0.135000X0.185000X-0.135000X0.185000X0.135000X-0.185000X0.135000X-0.185000X-0.135000X0*%
%ADD30C,5.600000*%
%ADD31RoundRect,0.135000X-0.185000X0.135000X-0.185000X-0.135000X0.185000X-0.135000X0.185000X0.135000X0*%
%ADD32RoundRect,0.225000X0.225000X0.250000X-0.225000X0.250000X-0.225000X-0.250000X0.225000X-0.250000X0*%
%ADD33RoundRect,0.225000X0.250000X-0.225000X0.250000X0.225000X-0.250000X0.225000X-0.250000X-0.225000X0*%
%ADD34C,1.800000*%
%ADD35RoundRect,0.225000X-0.225000X-0.375000X0.225000X-0.375000X0.225000X0.375000X-0.225000X0.375000X0*%
%ADD36RoundRect,0.140000X-0.170000X0.140000X-0.170000X-0.140000X0.170000X-0.140000X0.170000X0.140000X0*%
%ADD37R,1.500000X0.800000*%
%ADD38R,0.800000X1.500000*%
%ADD39RoundRect,0.150000X-0.150000X0.587500X-0.150000X-0.587500X0.150000X-0.587500X0.150000X0.587500X0*%
%ADD40R,0.500000X0.280000*%
%ADD41R,0.280000X0.500000*%
%ADD42RoundRect,0.225000X-0.250000X0.225000X-0.250000X-0.225000X0.250000X-0.225000X0.250000X0.225000X0*%
%ADD43RoundRect,0.140000X-0.140000X-0.170000X0.140000X-0.170000X0.140000X0.170000X-0.140000X0.170000X0*%
%ADD44C,1.200000*%
%ADD45R,1.400000X3.000000*%
%ADD46RoundRect,0.243750X-0.243750X-0.456250X0.243750X-0.456250X0.243750X0.456250X-0.243750X0.456250X0*%
%ADD47O,1.770000X0.700000*%
%ADD48RoundRect,0.150000X0.150000X-0.650000X0.150000X0.650000X-0.150000X0.650000X-0.150000X-0.650000X0*%
%ADD49FreePoly0,90.000000*%
%ADD50FreePoly1,90.000000*%
%ADD51R,1.200000X5.000000*%
%ADD52R,1.400000X5.000000*%
%ADD53R,1.600000X0.400000*%
%ADD54O,1.400000X1.200000*%
%ADD55O,1.900000X1.200000*%
%ADD56R,0.800000X1.000000*%
%ADD57RoundRect,0.375000X-0.625000X-0.375000X0.625000X-0.375000X0.625000X0.375000X-0.625000X0.375000X0*%
%ADD58RoundRect,0.500000X-0.500000X-1.400000X0.500000X-1.400000X0.500000X1.400000X-0.500000X1.400000X0*%
%ADD59RoundRect,0.243750X-0.456250X0.243750X-0.456250X-0.243750X0.456250X-0.243750X0.456250X0.243750X0*%
%ADD60C,1.520000*%
%ADD61O,2.200000X1.400000*%
%ADD62R,1.050000X1.000000*%
%ADD63R,2.200000X1.050000*%
%ADD64C,3.000000*%
%ADD65R,1.500000X1.500000*%
%ADD66C,1.500000*%
G04 APERTURE END LIST*
D10*
X42129928Y95186762D02*
X41177547Y95186762D01*
X41177547Y95186762D02*
X41177547Y97186762D01*
X43177547Y96139143D02*
X43177547Y95186762D01*
X42510881Y97186762D02*
X43177547Y96139143D01*
X43177547Y96139143D02*
X43844214Y97186762D01*
X45653738Y95186762D02*
X44987071Y96139143D01*
X44510881Y95186762D02*
X44510881Y97186762D01*
X44510881Y97186762D02*
X45272786Y97186762D01*
X45272786Y97186762D02*
X45463262Y97091524D01*
X45463262Y97091524D02*
X45558500Y96996286D01*
X45558500Y96996286D02*
X45653738Y96805810D01*
X45653738Y96805810D02*
X45653738Y96520096D01*
X45653738Y96520096D02*
X45558500Y96329620D01*
X45558500Y96329620D02*
X45463262Y96234381D01*
X45463262Y96234381D02*
X45272786Y96139143D01*
X45272786Y96139143D02*
X44510881Y96139143D01*
X46415643Y95758191D02*
X47368024Y95758191D01*
X46225167Y95186762D02*
X46891833Y97186762D01*
X46891833Y97186762D02*
X47558500Y95186762D01*
X48225167Y95948667D02*
X49748977Y95948667D01*
X51748976Y97091524D02*
X51558500Y97186762D01*
X51558500Y97186762D02*
X51272786Y97186762D01*
X51272786Y97186762D02*
X50987071Y97091524D01*
X50987071Y97091524D02*
X50796595Y96901048D01*
X50796595Y96901048D02*
X50701357Y96710572D01*
X50701357Y96710572D02*
X50606119Y96329620D01*
X50606119Y96329620D02*
X50606119Y96043905D01*
X50606119Y96043905D02*
X50701357Y95662953D01*
X50701357Y95662953D02*
X50796595Y95472477D01*
X50796595Y95472477D02*
X50987071Y95282000D01*
X50987071Y95282000D02*
X51272786Y95186762D01*
X51272786Y95186762D02*
X51463262Y95186762D01*
X51463262Y95186762D02*
X51748976Y95282000D01*
X51748976Y95282000D02*
X51844214Y95377239D01*
X51844214Y95377239D02*
X51844214Y96043905D01*
X51844214Y96043905D02*
X51463262Y96043905D01*
X52606119Y95282000D02*
X52891833Y95186762D01*
X52891833Y95186762D02*
X53368024Y95186762D01*
X53368024Y95186762D02*
X53558500Y95282000D01*
X53558500Y95282000D02*
X53653738Y95377239D01*
X53653738Y95377239D02*
X53748976Y95567715D01*
X53748976Y95567715D02*
X53748976Y95758191D01*
X53748976Y95758191D02*
X53653738Y95948667D01*
X53653738Y95948667D02*
X53558500Y96043905D01*
X53558500Y96043905D02*
X53368024Y96139143D01*
X53368024Y96139143D02*
X52987071Y96234381D01*
X52987071Y96234381D02*
X52796595Y96329620D01*
X52796595Y96329620D02*
X52701357Y96424858D01*
X52701357Y96424858D02*
X52606119Y96615334D01*
X52606119Y96615334D02*
X52606119Y96805810D01*
X52606119Y96805810D02*
X52701357Y96996286D01*
X52701357Y96996286D02*
X52796595Y97091524D01*
X52796595Y97091524D02*
X52987071Y97186762D01*
X52987071Y97186762D02*
X53463262Y97186762D01*
X53463262Y97186762D02*
X53748976Y97091524D01*
X55653738Y95186762D02*
X54510881Y95186762D01*
X55082309Y95186762D02*
X55082309Y97186762D01*
X55082309Y97186762D02*
X54891833Y96901048D01*
X54891833Y96901048D02*
X54701357Y96710572D01*
X54701357Y96710572D02*
X54510881Y96615334D01*
D11*
X9383031Y97223765D02*
X9383031Y98023765D01*
X9383031Y98023765D02*
X9687793Y98023765D01*
X9687793Y98023765D02*
X9763983Y97985670D01*
X9763983Y97985670D02*
X9802078Y97947575D01*
X9802078Y97947575D02*
X9840174Y97871384D01*
X9840174Y97871384D02*
X9840174Y97757099D01*
X9840174Y97757099D02*
X9802078Y97680908D01*
X9802078Y97680908D02*
X9763983Y97642813D01*
X9763983Y97642813D02*
X9687793Y97604718D01*
X9687793Y97604718D02*
X9383031Y97604718D01*
X10335412Y98023765D02*
X10487793Y98023765D01*
X10487793Y98023765D02*
X10563983Y97985670D01*
X10563983Y97985670D02*
X10640174Y97909480D01*
X10640174Y97909480D02*
X10678269Y97757099D01*
X10678269Y97757099D02*
X10678269Y97490432D01*
X10678269Y97490432D02*
X10640174Y97338051D01*
X10640174Y97338051D02*
X10563983Y97261860D01*
X10563983Y97261860D02*
X10487793Y97223765D01*
X10487793Y97223765D02*
X10335412Y97223765D01*
X10335412Y97223765D02*
X10259221Y97261860D01*
X10259221Y97261860D02*
X10183031Y97338051D01*
X10183031Y97338051D02*
X10144935Y97490432D01*
X10144935Y97490432D02*
X10144935Y97757099D01*
X10144935Y97757099D02*
X10183031Y97909480D01*
X10183031Y97909480D02*
X10259221Y97985670D01*
X10259221Y97985670D02*
X10335412Y98023765D01*
X11402078Y97223765D02*
X11021126Y97223765D01*
X11021126Y97223765D02*
X11021126Y98023765D01*
X11630649Y97452337D02*
X12011602Y97452337D01*
X11554459Y97223765D02*
X11821126Y98023765D01*
X11821126Y98023765D02*
X12087792Y97223765D01*
X12811602Y97223765D02*
X12544935Y97604718D01*
X12354459Y97223765D02*
X12354459Y98023765D01*
X12354459Y98023765D02*
X12659221Y98023765D01*
X12659221Y98023765D02*
X12735411Y97985670D01*
X12735411Y97985670D02*
X12773506Y97947575D01*
X12773506Y97947575D02*
X12811602Y97871384D01*
X12811602Y97871384D02*
X12811602Y97757099D01*
X12811602Y97757099D02*
X12773506Y97680908D01*
X12773506Y97680908D02*
X12735411Y97642813D01*
X12735411Y97642813D02*
X12659221Y97604718D01*
X12659221Y97604718D02*
X12354459Y97604718D01*
X13154459Y97223765D02*
X13154459Y98023765D01*
X13497315Y97261860D02*
X13611601Y97223765D01*
X13611601Y97223765D02*
X13802077Y97223765D01*
X13802077Y97223765D02*
X13878268Y97261860D01*
X13878268Y97261860D02*
X13916363Y97299956D01*
X13916363Y97299956D02*
X13954458Y97376146D01*
X13954458Y97376146D02*
X13954458Y97452337D01*
X13954458Y97452337D02*
X13916363Y97528527D01*
X13916363Y97528527D02*
X13878268Y97566622D01*
X13878268Y97566622D02*
X13802077Y97604718D01*
X13802077Y97604718D02*
X13649696Y97642813D01*
X13649696Y97642813D02*
X13573506Y97680908D01*
X13573506Y97680908D02*
X13535411Y97719003D01*
X13535411Y97719003D02*
X13497315Y97795194D01*
X13497315Y97795194D02*
X13497315Y97871384D01*
X13497315Y97871384D02*
X13535411Y97947575D01*
X13535411Y97947575D02*
X13573506Y97985670D01*
X13573506Y97985670D02*
X13649696Y98023765D01*
X13649696Y98023765D02*
X13840173Y98023765D01*
X13840173Y98023765D02*
X13954458Y97985670D01*
X11059222Y95935810D02*
X10792555Y96316763D01*
X10602079Y95935810D02*
X10602079Y96735810D01*
X10602079Y96735810D02*
X10906841Y96735810D01*
X10906841Y96735810D02*
X10983031Y96697715D01*
X10983031Y96697715D02*
X11021126Y96659620D01*
X11021126Y96659620D02*
X11059222Y96583429D01*
X11059222Y96583429D02*
X11059222Y96469144D01*
X11059222Y96469144D02*
X11021126Y96392953D01*
X11021126Y96392953D02*
X10983031Y96354858D01*
X10983031Y96354858D02*
X10906841Y96316763D01*
X10906841Y96316763D02*
X10602079Y96316763D01*
X11554460Y96735810D02*
X11706841Y96735810D01*
X11706841Y96735810D02*
X11783031Y96697715D01*
X11783031Y96697715D02*
X11859222Y96621525D01*
X11859222Y96621525D02*
X11897317Y96469144D01*
X11897317Y96469144D02*
X11897317Y96202477D01*
X11897317Y96202477D02*
X11859222Y96050096D01*
X11859222Y96050096D02*
X11783031Y95973905D01*
X11783031Y95973905D02*
X11706841Y95935810D01*
X11706841Y95935810D02*
X11554460Y95935810D01*
X11554460Y95935810D02*
X11478269Y95973905D01*
X11478269Y95973905D02*
X11402079Y96050096D01*
X11402079Y96050096D02*
X11363983Y96202477D01*
X11363983Y96202477D02*
X11363983Y96469144D01*
X11363983Y96469144D02*
X11402079Y96621525D01*
X11402079Y96621525D02*
X11478269Y96697715D01*
X11478269Y96697715D02*
X11554460Y96735810D01*
X12697317Y96012001D02*
X12659221Y95973905D01*
X12659221Y95973905D02*
X12544936Y95935810D01*
X12544936Y95935810D02*
X12468745Y95935810D01*
X12468745Y95935810D02*
X12354459Y95973905D01*
X12354459Y95973905D02*
X12278269Y96050096D01*
X12278269Y96050096D02*
X12240174Y96126286D01*
X12240174Y96126286D02*
X12202078Y96278667D01*
X12202078Y96278667D02*
X12202078Y96392953D01*
X12202078Y96392953D02*
X12240174Y96545334D01*
X12240174Y96545334D02*
X12278269Y96621525D01*
X12278269Y96621525D02*
X12354459Y96697715D01*
X12354459Y96697715D02*
X12468745Y96735810D01*
X12468745Y96735810D02*
X12544936Y96735810D01*
X12544936Y96735810D02*
X12659221Y96697715D01*
X12659221Y96697715D02*
X12697317Y96659620D01*
X13040174Y95935810D02*
X13040174Y96735810D01*
X13497317Y95935810D02*
X13154459Y96392953D01*
X13497317Y96735810D02*
X13040174Y96278667D01*
X13840174Y96354858D02*
X14106840Y96354858D01*
X14221126Y95935810D02*
X13840174Y95935810D01*
X13840174Y95935810D02*
X13840174Y96735810D01*
X13840174Y96735810D02*
X14221126Y96735810D01*
X14449698Y96735810D02*
X14906841Y96735810D01*
X14678269Y95935810D02*
X14678269Y96735810D01*
X15630651Y95935810D02*
X15363984Y96316763D01*
X15173508Y95935810D02*
X15173508Y96735810D01*
X15173508Y96735810D02*
X15478270Y96735810D01*
X15478270Y96735810D02*
X15554460Y96697715D01*
X15554460Y96697715D02*
X15592555Y96659620D01*
X15592555Y96659620D02*
X15630651Y96583429D01*
X15630651Y96583429D02*
X15630651Y96469144D01*
X15630651Y96469144D02*
X15592555Y96392953D01*
X15592555Y96392953D02*
X15554460Y96354858D01*
X15554460Y96354858D02*
X15478270Y96316763D01*
X15478270Y96316763D02*
X15173508Y96316763D01*
X16125889Y96316763D02*
X16125889Y95935810D01*
X15859222Y96735810D02*
X16125889Y96316763D01*
X16125889Y96316763D02*
X16392555Y96735810D01*
X12392555Y94685950D02*
X12506841Y94647855D01*
X12506841Y94647855D02*
X12697317Y94647855D01*
X12697317Y94647855D02*
X12773508Y94685950D01*
X12773508Y94685950D02*
X12811603Y94724046D01*
X12811603Y94724046D02*
X12849698Y94800236D01*
X12849698Y94800236D02*
X12849698Y94876427D01*
X12849698Y94876427D02*
X12811603Y94952617D01*
X12811603Y94952617D02*
X12773508Y94990712D01*
X12773508Y94990712D02*
X12697317Y95028808D01*
X12697317Y95028808D02*
X12544936Y95066903D01*
X12544936Y95066903D02*
X12468746Y95104998D01*
X12468746Y95104998D02*
X12430651Y95143093D01*
X12430651Y95143093D02*
X12392555Y95219284D01*
X12392555Y95219284D02*
X12392555Y95295474D01*
X12392555Y95295474D02*
X12430651Y95371665D01*
X12430651Y95371665D02*
X12468746Y95409760D01*
X12468746Y95409760D02*
X12544936Y95447855D01*
X12544936Y95447855D02*
X12735413Y95447855D01*
X12735413Y95447855D02*
X12849698Y95409760D01*
X13344937Y95028808D02*
X13344937Y94647855D01*
X13078270Y95447855D02*
X13344937Y95028808D01*
X13344937Y95028808D02*
X13611603Y95447855D01*
X13840174Y94685950D02*
X13954460Y94647855D01*
X13954460Y94647855D02*
X14144936Y94647855D01*
X14144936Y94647855D02*
X14221127Y94685950D01*
X14221127Y94685950D02*
X14259222Y94724046D01*
X14259222Y94724046D02*
X14297317Y94800236D01*
X14297317Y94800236D02*
X14297317Y94876427D01*
X14297317Y94876427D02*
X14259222Y94952617D01*
X14259222Y94952617D02*
X14221127Y94990712D01*
X14221127Y94990712D02*
X14144936Y95028808D01*
X14144936Y95028808D02*
X13992555Y95066903D01*
X13992555Y95066903D02*
X13916365Y95104998D01*
X13916365Y95104998D02*
X13878270Y95143093D01*
X13878270Y95143093D02*
X13840174Y95219284D01*
X13840174Y95219284D02*
X13840174Y95295474D01*
X13840174Y95295474D02*
X13878270Y95371665D01*
X13878270Y95371665D02*
X13916365Y95409760D01*
X13916365Y95409760D02*
X13992555Y95447855D01*
X13992555Y95447855D02*
X14183032Y95447855D01*
X14183032Y95447855D02*
X14297317Y95409760D01*
X14525889Y95447855D02*
X14983032Y95447855D01*
X14754460Y94647855D02*
X14754460Y95447855D01*
X15249699Y95066903D02*
X15516365Y95066903D01*
X15630651Y94647855D02*
X15249699Y94647855D01*
X15249699Y94647855D02*
X15249699Y95447855D01*
X15249699Y95447855D02*
X15630651Y95447855D01*
X15973509Y94647855D02*
X15973509Y95447855D01*
X15973509Y95447855D02*
X16240175Y94876427D01*
X16240175Y94876427D02*
X16506842Y95447855D01*
X16506842Y95447855D02*
X16506842Y94647855D01*
X16849699Y94685950D02*
X16963985Y94647855D01*
X16963985Y94647855D02*
X17154461Y94647855D01*
X17154461Y94647855D02*
X17230652Y94685950D01*
X17230652Y94685950D02*
X17268747Y94724046D01*
X17268747Y94724046D02*
X17306842Y94800236D01*
X17306842Y94800236D02*
X17306842Y94876427D01*
X17306842Y94876427D02*
X17268747Y94952617D01*
X17268747Y94952617D02*
X17230652Y94990712D01*
X17230652Y94990712D02*
X17154461Y95028808D01*
X17154461Y95028808D02*
X17002080Y95066903D01*
X17002080Y95066903D02*
X16925890Y95104998D01*
X16925890Y95104998D02*
X16887795Y95143093D01*
X16887795Y95143093D02*
X16849699Y95219284D01*
X16849699Y95219284D02*
X16849699Y95295474D01*
X16849699Y95295474D02*
X16887795Y95371665D01*
X16887795Y95371665D02*
X16925890Y95409760D01*
X16925890Y95409760D02*
X17002080Y95447855D01*
X17002080Y95447855D02*
X17192557Y95447855D01*
X17192557Y95447855D02*
X17306842Y95409760D01*
D12*
X53878727Y49467366D02*
X54640632Y49467366D01*
X54259679Y49086413D02*
X54259679Y49848318D01*
X52259679Y47524088D02*
X52402536Y47476469D01*
X52402536Y47476469D02*
X52640631Y47476469D01*
X52640631Y47476469D02*
X52735869Y47524088D01*
X52735869Y47524088D02*
X52783488Y47571708D01*
X52783488Y47571708D02*
X52831107Y47666946D01*
X52831107Y47666946D02*
X52831107Y47762184D01*
X52831107Y47762184D02*
X52783488Y47857422D01*
X52783488Y47857422D02*
X52735869Y47905041D01*
X52735869Y47905041D02*
X52640631Y47952660D01*
X52640631Y47952660D02*
X52450155Y48000279D01*
X52450155Y48000279D02*
X52354917Y48047898D01*
X52354917Y48047898D02*
X52307298Y48095517D01*
X52307298Y48095517D02*
X52259679Y48190755D01*
X52259679Y48190755D02*
X52259679Y48285993D01*
X52259679Y48285993D02*
X52307298Y48381231D01*
X52307298Y48381231D02*
X52354917Y48428850D01*
X52354917Y48428850D02*
X52450155Y48476469D01*
X52450155Y48476469D02*
X52688250Y48476469D01*
X52688250Y48476469D02*
X52831107Y48428850D01*
X53259679Y47476469D02*
X53259679Y48476469D01*
X53259679Y48476469D02*
X53497774Y48476469D01*
X53497774Y48476469D02*
X53640631Y48428850D01*
X53640631Y48428850D02*
X53735869Y48333612D01*
X53735869Y48333612D02*
X53783488Y48238374D01*
X53783488Y48238374D02*
X53831107Y48047898D01*
X53831107Y48047898D02*
X53831107Y47905041D01*
X53831107Y47905041D02*
X53783488Y47714565D01*
X53783488Y47714565D02*
X53735869Y47619327D01*
X53735869Y47619327D02*
X53640631Y47524088D01*
X53640631Y47524088D02*
X53497774Y47476469D01*
X53497774Y47476469D02*
X53259679Y47476469D01*
X54212060Y47762184D02*
X54688250Y47762184D01*
X54116822Y47476469D02*
X54450155Y48476469D01*
X54450155Y48476469D02*
X54783488Y47476469D01*
X52307298Y45914144D02*
X52450155Y45866525D01*
X52450155Y45866525D02*
X52688250Y45866525D01*
X52688250Y45866525D02*
X52783488Y45914144D01*
X52783488Y45914144D02*
X52831107Y45961764D01*
X52831107Y45961764D02*
X52878726Y46057002D01*
X52878726Y46057002D02*
X52878726Y46152240D01*
X52878726Y46152240D02*
X52831107Y46247478D01*
X52831107Y46247478D02*
X52783488Y46295097D01*
X52783488Y46295097D02*
X52688250Y46342716D01*
X52688250Y46342716D02*
X52497774Y46390335D01*
X52497774Y46390335D02*
X52402536Y46437954D01*
X52402536Y46437954D02*
X52354917Y46485573D01*
X52354917Y46485573D02*
X52307298Y46580811D01*
X52307298Y46580811D02*
X52307298Y46676049D01*
X52307298Y46676049D02*
X52354917Y46771287D01*
X52354917Y46771287D02*
X52402536Y46818906D01*
X52402536Y46818906D02*
X52497774Y46866525D01*
X52497774Y46866525D02*
X52735869Y46866525D01*
X52735869Y46866525D02*
X52878726Y46818906D01*
X53878726Y45961764D02*
X53831107Y45914144D01*
X53831107Y45914144D02*
X53688250Y45866525D01*
X53688250Y45866525D02*
X53593012Y45866525D01*
X53593012Y45866525D02*
X53450155Y45914144D01*
X53450155Y45914144D02*
X53354917Y46009383D01*
X53354917Y46009383D02*
X53307298Y46104621D01*
X53307298Y46104621D02*
X53259679Y46295097D01*
X53259679Y46295097D02*
X53259679Y46437954D01*
X53259679Y46437954D02*
X53307298Y46628430D01*
X53307298Y46628430D02*
X53354917Y46723668D01*
X53354917Y46723668D02*
X53450155Y46818906D01*
X53450155Y46818906D02*
X53593012Y46866525D01*
X53593012Y46866525D02*
X53688250Y46866525D01*
X53688250Y46866525D02*
X53831107Y46818906D01*
X53831107Y46818906D02*
X53878726Y46771287D01*
X54783488Y45866525D02*
X54307298Y45866525D01*
X54307298Y45866525D02*
X54307298Y46866525D01*
X53878727Y44637534D02*
X54640632Y44637534D01*
X53751727Y88669310D02*
X54513632Y88669310D01*
X54132679Y88288357D02*
X54132679Y89050262D01*
X51180298Y86726032D02*
X51323155Y86678413D01*
X51323155Y86678413D02*
X51561250Y86678413D01*
X51561250Y86678413D02*
X51656488Y86726032D01*
X51656488Y86726032D02*
X51704107Y86773652D01*
X51704107Y86773652D02*
X51751726Y86868890D01*
X51751726Y86868890D02*
X51751726Y86964128D01*
X51751726Y86964128D02*
X51704107Y87059366D01*
X51704107Y87059366D02*
X51656488Y87106985D01*
X51656488Y87106985D02*
X51561250Y87154604D01*
X51561250Y87154604D02*
X51370774Y87202223D01*
X51370774Y87202223D02*
X51275536Y87249842D01*
X51275536Y87249842D02*
X51227917Y87297461D01*
X51227917Y87297461D02*
X51180298Y87392699D01*
X51180298Y87392699D02*
X51180298Y87487937D01*
X51180298Y87487937D02*
X51227917Y87583175D01*
X51227917Y87583175D02*
X51275536Y87630794D01*
X51275536Y87630794D02*
X51370774Y87678413D01*
X51370774Y87678413D02*
X51608869Y87678413D01*
X51608869Y87678413D02*
X51751726Y87630794D01*
X52751726Y86773652D02*
X52704107Y86726032D01*
X52704107Y86726032D02*
X52561250Y86678413D01*
X52561250Y86678413D02*
X52466012Y86678413D01*
X52466012Y86678413D02*
X52323155Y86726032D01*
X52323155Y86726032D02*
X52227917Y86821271D01*
X52227917Y86821271D02*
X52180298Y86916509D01*
X52180298Y86916509D02*
X52132679Y87106985D01*
X52132679Y87106985D02*
X52132679Y87249842D01*
X52132679Y87249842D02*
X52180298Y87440318D01*
X52180298Y87440318D02*
X52227917Y87535556D01*
X52227917Y87535556D02*
X52323155Y87630794D01*
X52323155Y87630794D02*
X52466012Y87678413D01*
X52466012Y87678413D02*
X52561250Y87678413D01*
X52561250Y87678413D02*
X52704107Y87630794D01*
X52704107Y87630794D02*
X52751726Y87583175D01*
X53656488Y86678413D02*
X53180298Y86678413D01*
X53180298Y86678413D02*
X53180298Y87678413D01*
X53989822Y86678413D02*
X53989822Y87678413D01*
X54561250Y86678413D02*
X54132679Y87249842D01*
X54561250Y87678413D02*
X53989822Y87106985D01*
X51370775Y85068469D02*
X51370775Y86068469D01*
X51370775Y86068469D02*
X51704108Y85354184D01*
X51704108Y85354184D02*
X52037441Y86068469D01*
X52037441Y86068469D02*
X52037441Y85068469D01*
X52513632Y85068469D02*
X52513632Y86068469D01*
X52942203Y85116088D02*
X53085060Y85068469D01*
X53085060Y85068469D02*
X53323155Y85068469D01*
X53323155Y85068469D02*
X53418393Y85116088D01*
X53418393Y85116088D02*
X53466012Y85163708D01*
X53466012Y85163708D02*
X53513631Y85258946D01*
X53513631Y85258946D02*
X53513631Y85354184D01*
X53513631Y85354184D02*
X53466012Y85449422D01*
X53466012Y85449422D02*
X53418393Y85497041D01*
X53418393Y85497041D02*
X53323155Y85544660D01*
X53323155Y85544660D02*
X53132679Y85592279D01*
X53132679Y85592279D02*
X53037441Y85639898D01*
X53037441Y85639898D02*
X52989822Y85687517D01*
X52989822Y85687517D02*
X52942203Y85782755D01*
X52942203Y85782755D02*
X52942203Y85877993D01*
X52942203Y85877993D02*
X52989822Y85973231D01*
X52989822Y85973231D02*
X53037441Y86020850D01*
X53037441Y86020850D02*
X53132679Y86068469D01*
X53132679Y86068469D02*
X53370774Y86068469D01*
X53370774Y86068469D02*
X53513631Y86020850D01*
X54132679Y86068469D02*
X54323155Y86068469D01*
X54323155Y86068469D02*
X54418393Y86020850D01*
X54418393Y86020850D02*
X54513631Y85925612D01*
X54513631Y85925612D02*
X54561250Y85735136D01*
X54561250Y85735136D02*
X54561250Y85401803D01*
X54561250Y85401803D02*
X54513631Y85211327D01*
X54513631Y85211327D02*
X54418393Y85116088D01*
X54418393Y85116088D02*
X54323155Y85068469D01*
X54323155Y85068469D02*
X54132679Y85068469D01*
X54132679Y85068469D02*
X54037441Y85116088D01*
X54037441Y85116088D02*
X53942203Y85211327D01*
X53942203Y85211327D02*
X53894584Y85401803D01*
X53894584Y85401803D02*
X53894584Y85735136D01*
X53894584Y85735136D02*
X53942203Y85925612D01*
X53942203Y85925612D02*
X54037441Y86020850D01*
X54037441Y86020850D02*
X54132679Y86068469D01*
X51370775Y83458525D02*
X51370775Y84458525D01*
X51370775Y84458525D02*
X51704108Y83744240D01*
X51704108Y83744240D02*
X52037441Y84458525D01*
X52037441Y84458525D02*
X52037441Y83458525D01*
X52704108Y84458525D02*
X52894584Y84458525D01*
X52894584Y84458525D02*
X52989822Y84410906D01*
X52989822Y84410906D02*
X53085060Y84315668D01*
X53085060Y84315668D02*
X53132679Y84125192D01*
X53132679Y84125192D02*
X53132679Y83791859D01*
X53132679Y83791859D02*
X53085060Y83601383D01*
X53085060Y83601383D02*
X52989822Y83506144D01*
X52989822Y83506144D02*
X52894584Y83458525D01*
X52894584Y83458525D02*
X52704108Y83458525D01*
X52704108Y83458525D02*
X52608870Y83506144D01*
X52608870Y83506144D02*
X52513632Y83601383D01*
X52513632Y83601383D02*
X52466013Y83791859D01*
X52466013Y83791859D02*
X52466013Y84125192D01*
X52466013Y84125192D02*
X52513632Y84315668D01*
X52513632Y84315668D02*
X52608870Y84410906D01*
X52608870Y84410906D02*
X52704108Y84458525D01*
X53513632Y83506144D02*
X53656489Y83458525D01*
X53656489Y83458525D02*
X53894584Y83458525D01*
X53894584Y83458525D02*
X53989822Y83506144D01*
X53989822Y83506144D02*
X54037441Y83553764D01*
X54037441Y83553764D02*
X54085060Y83649002D01*
X54085060Y83649002D02*
X54085060Y83744240D01*
X54085060Y83744240D02*
X54037441Y83839478D01*
X54037441Y83839478D02*
X53989822Y83887097D01*
X53989822Y83887097D02*
X53894584Y83934716D01*
X53894584Y83934716D02*
X53704108Y83982335D01*
X53704108Y83982335D02*
X53608870Y84029954D01*
X53608870Y84029954D02*
X53561251Y84077573D01*
X53561251Y84077573D02*
X53513632Y84172811D01*
X53513632Y84172811D02*
X53513632Y84268049D01*
X53513632Y84268049D02*
X53561251Y84363287D01*
X53561251Y84363287D02*
X53608870Y84410906D01*
X53608870Y84410906D02*
X53704108Y84458525D01*
X53704108Y84458525D02*
X53942203Y84458525D01*
X53942203Y84458525D02*
X54085060Y84410906D01*
X54513632Y83458525D02*
X54513632Y84458525D01*
X53751727Y82229534D02*
X54513632Y82229534D01*
X53624727Y74486366D02*
X54386632Y74486366D01*
X54005679Y74105413D02*
X54005679Y74867318D01*
X53481869Y72495469D02*
X53148536Y72971660D01*
X52910441Y72495469D02*
X52910441Y73495469D01*
X52910441Y73495469D02*
X53291393Y73495469D01*
X53291393Y73495469D02*
X53386631Y73447850D01*
X53386631Y73447850D02*
X53434250Y73400231D01*
X53434250Y73400231D02*
X53481869Y73304993D01*
X53481869Y73304993D02*
X53481869Y73162136D01*
X53481869Y73162136D02*
X53434250Y73066898D01*
X53434250Y73066898D02*
X53386631Y73019279D01*
X53386631Y73019279D02*
X53291393Y72971660D01*
X53291393Y72971660D02*
X52910441Y72971660D01*
X53815203Y73495469D02*
X54481869Y72495469D01*
X54481869Y73495469D02*
X53815203Y72495469D01*
X53005679Y71885525D02*
X53577107Y71885525D01*
X53291393Y70885525D02*
X53291393Y71885525D01*
X53815203Y71885525D02*
X54481869Y70885525D01*
X54481869Y71885525D02*
X53815203Y70885525D01*
X53862822Y69180343D02*
X54624726Y69180343D01*
D13*
%TO.C,R7*%
X52148841Y69494800D02*
X51841559Y69494800D01*
X52148841Y68734800D02*
X51841559Y68734800D01*
%TO.C,U3*%
X15632000Y75864600D02*
X16282000Y75864600D01*
X15632000Y75214600D02*
X15632000Y75864600D01*
X15632000Y69294600D02*
X15632000Y68944600D01*
X16282000Y68644600D02*
X15872000Y68644600D01*
X22852000Y75864600D02*
X22202000Y75864600D01*
X22852000Y75214600D02*
X22852000Y75864600D01*
X22852000Y69294600D02*
X22852000Y68644600D01*
X22852000Y68644600D02*
X22202000Y68644600D01*
X15632000Y68644600D02*
X15302000Y68404600D01*
X15302000Y68884600D01*
X15632000Y68644600D01*
G36*
X15632000Y68644600D02*
G01*
X15302000Y68404600D01*
X15302000Y68884600D01*
X15632000Y68644600D01*
G37*
%TO.C,R11*%
X25173559Y17196200D02*
X25480841Y17196200D01*
X25173559Y16436200D02*
X25480841Y16436200D01*
%TO.C,C24*%
X56062800Y9949364D02*
X56062800Y10165036D01*
X56782800Y9949364D02*
X56782800Y10165036D01*
%TO.C,D5*%
X7612200Y29068200D02*
X58532200Y29068200D01*
X7612200Y26468200D02*
X7612200Y29068200D01*
X7612200Y23868200D02*
X7612200Y25198200D01*
X8942200Y23868200D02*
X7612200Y23868200D01*
X10212200Y26468200D02*
X7612200Y26468200D01*
X10212200Y23868200D02*
X10212200Y26468200D01*
X10212200Y23868200D02*
X58532200Y23868200D01*
X58532200Y23868200D02*
X58532200Y29068200D01*
D14*
X622200Y23698200D02*
X65522200Y23698200D01*
X65522200Y113098200D01*
X622200Y113098200D01*
X622200Y23698200D01*
D13*
%TO.C,U5*%
X52061700Y11265600D02*
X49861700Y11265600D01*
X52061700Y11265600D02*
X54261700Y11265600D01*
X52061700Y4495600D02*
X49861700Y4495600D01*
X52061700Y4495600D02*
X54261700Y4495600D01*
X56251700Y4715600D02*
X55921700Y4955600D01*
X56251700Y5195600D01*
X56251700Y4715600D01*
G36*
X56251700Y4715600D02*
G01*
X55921700Y4955600D01*
X56251700Y5195600D01*
X56251700Y4715600D01*
G37*
%TO.C,R1*%
X5592641Y67488200D02*
X5285359Y67488200D01*
X5592641Y66728200D02*
X5285359Y66728200D01*
%TO.C,C30*%
X58966620Y13770200D02*
X59247780Y13770200D01*
X58966620Y12750200D02*
X59247780Y12750200D01*
%TO.C,R12*%
X26748841Y19863200D02*
X26441559Y19863200D01*
X26748841Y19103200D02*
X26441559Y19103200D01*
%TO.C,C9*%
X13520436Y72903800D02*
X13304764Y72903800D01*
X13520436Y72183800D02*
X13304764Y72183800D01*
%TO.C,R10*%
X25578200Y1803559D02*
X25578200Y2110841D01*
X26338200Y1803559D02*
X26338200Y2110841D01*
%TO.C,R17*%
X13540600Y34722441D02*
X13540600Y34415159D01*
X14300600Y34722441D02*
X14300600Y34415159D01*
%TO.C,C20*%
X52296180Y4067400D02*
X52015020Y4067400D01*
X52296180Y3047400D02*
X52015020Y3047400D01*
%TO.C,C22*%
X46964000Y7650820D02*
X46964000Y7931980D01*
X47984000Y7650820D02*
X47984000Y7931980D01*
D12*
%TO.C,SW5*%
X30000000Y2350000D02*
X30000000Y4650000D01*
X30600000Y6500000D02*
X35400000Y6500000D01*
X35400000Y500000D02*
X30600000Y500000D01*
X36000000Y4650000D02*
X36000000Y2350000D01*
X31650000Y5300000D02*
G75*
G02*
X30750000Y5300000I-450000J0D01*
G01*
X30750000Y5300000D02*
G75*
G02*
X31650000Y5300000I450000J0D01*
G01*
X31650000Y1700000D02*
G75*
G02*
X30750000Y1700000I-450000J0D01*
G01*
X30750000Y1700000D02*
G75*
G02*
X31650000Y1700000I450000J0D01*
G01*
X34800000Y3500000D02*
G75*
G02*
X31200000Y3500000I-1800000J0D01*
G01*
X31200000Y3500000D02*
G75*
G02*
X34800000Y3500000I1800000J0D01*
G01*
X35250000Y5300000D02*
G75*
G02*
X34350000Y5300000I-450000J0D01*
G01*
X34350000Y5300000D02*
G75*
G02*
X35250000Y5300000I450000J0D01*
G01*
X35250000Y1700000D02*
G75*
G02*
X34350000Y1700000I-450000J0D01*
G01*
X34350000Y1700000D02*
G75*
G02*
X35250000Y1700000I450000J0D01*
G01*
D13*
%TO.C,C25*%
X57132000Y10325620D02*
X57132000Y10606780D01*
X58152000Y10325620D02*
X58152000Y10606780D01*
%TO.C,C10*%
X19885200Y77691164D02*
X19885200Y77906836D01*
X20605200Y77691164D02*
X20605200Y77906836D01*
%TO.C,C34*%
X9014000Y38323764D02*
X9014000Y38539436D01*
X9734000Y38323764D02*
X9734000Y38539436D01*
%TO.C,J4*%
X54986200Y51985200D02*
X56256200Y51985200D01*
X54986200Y50715200D02*
X54986200Y51985200D01*
X57299129Y48555200D02*
X57696200Y48555200D01*
X57299129Y47795200D02*
X57696200Y47795200D01*
X57299129Y46015200D02*
X57696200Y46015200D01*
X57299129Y45255200D02*
X57696200Y45255200D01*
X57299129Y43475200D02*
X57696200Y43475200D01*
X57299129Y42715200D02*
X57696200Y42715200D01*
X57366200Y51095200D02*
X57696200Y51095200D01*
X57366200Y50335200D02*
X57696200Y50335200D01*
X57696200Y52045200D02*
X57696200Y41765200D01*
X57696200Y49445200D02*
X60356200Y49445200D01*
X57696200Y46905200D02*
X60356200Y46905200D01*
X57696200Y44365200D02*
X60356200Y44365200D01*
X57696200Y41765200D02*
X60356200Y41765200D01*
X60356200Y52045200D02*
X57696200Y52045200D01*
X60356200Y51095200D02*
X66356200Y51095200D01*
X60356200Y51035200D02*
X66356200Y51035200D01*
X60356200Y50915200D02*
X66356200Y50915200D01*
X60356200Y50795200D02*
X66356200Y50795200D01*
X60356200Y50675200D02*
X66356200Y50675200D01*
X60356200Y50555200D02*
X66356200Y50555200D01*
X60356200Y50435200D02*
X66356200Y50435200D01*
X60356200Y48555200D02*
X66356200Y48555200D01*
X60356200Y46015200D02*
X66356200Y46015200D01*
X60356200Y43475200D02*
X66356200Y43475200D01*
X60356200Y41765200D02*
X60356200Y52045200D01*
X66356200Y51095200D02*
X66356200Y50335200D01*
X66356200Y50335200D02*
X60356200Y50335200D01*
X66356200Y48555200D02*
X66356200Y47795200D01*
X66356200Y47795200D02*
X60356200Y47795200D01*
X66356200Y46015200D02*
X66356200Y45255200D01*
X66356200Y45255200D02*
X60356200Y45255200D01*
X66356200Y43475200D02*
X66356200Y42715200D01*
X66356200Y42715200D02*
X60356200Y42715200D01*
%TO.C,R16*%
X14505800Y34724441D02*
X14505800Y34417159D01*
X15265800Y34724441D02*
X15265800Y34417159D01*
%TO.C,R3*%
X11508841Y74244600D02*
X11201559Y74244600D01*
X11508841Y73484600D02*
X11201559Y73484600D01*
D12*
%TO.C,SW1*%
X30000000Y17350000D02*
X30000000Y19650000D01*
X30600000Y21500000D02*
X35400000Y21500000D01*
X35400000Y15500000D02*
X30600000Y15500000D01*
X36000000Y19650000D02*
X36000000Y17350000D01*
X31650000Y20300000D02*
G75*
G02*
X30750000Y20300000I-450000J0D01*
G01*
X30750000Y20300000D02*
G75*
G02*
X31650000Y20300000I450000J0D01*
G01*
X31650000Y16700000D02*
G75*
G02*
X30750000Y16700000I-450000J0D01*
G01*
X30750000Y16700000D02*
G75*
G02*
X31650000Y16700000I450000J0D01*
G01*
X34800000Y18500000D02*
G75*
G02*
X31200000Y18500000I-1800000J0D01*
G01*
X31200000Y18500000D02*
G75*
G02*
X34800000Y18500000I1800000J0D01*
G01*
X35250000Y20300000D02*
G75*
G02*
X34350000Y20300000I-450000J0D01*
G01*
X34350000Y20300000D02*
G75*
G02*
X35250000Y20300000I450000J0D01*
G01*
X35250000Y16700000D02*
G75*
G02*
X34350000Y16700000I-450000J0D01*
G01*
X34350000Y16700000D02*
G75*
G02*
X35250000Y16700000I450000J0D01*
G01*
D13*
%TO.C,D3*%
X7217200Y31938600D02*
X7217200Y29938600D01*
X7217200Y31938600D02*
X11227200Y31938600D01*
X7217200Y29938600D02*
X11227200Y29938600D01*
%TO.C,R2*%
X11201559Y73279400D02*
X11508841Y73279400D01*
X11201559Y72519400D02*
X11508841Y72519400D01*
%TO.C,C33*%
X30929900Y64625236D02*
X30929900Y64409564D01*
X31649900Y64625236D02*
X31649900Y64409564D01*
%TO.C,R4*%
X24464600Y74729441D02*
X24464600Y74422159D01*
X25224600Y74729441D02*
X25224600Y74422159D01*
D15*
%TO.C,G\u002A\u002A\u002A*%
G36*
X8192999Y98383610D02*
G01*
X8227153Y98362562D01*
X8272102Y98321666D01*
X8333531Y98256760D01*
X8385983Y98198612D01*
X8447186Y98131423D01*
X8499738Y98076083D01*
X8537179Y98039253D01*
X8551710Y98027674D01*
X8579045Y98026513D01*
X8637392Y98029981D01*
X8717768Y98037394D01*
X8797526Y98046388D01*
X8911231Y98059378D01*
X8991709Y98065922D01*
X9045613Y98065718D01*
X9079594Y98058468D01*
X9100304Y98043873D01*
X9108575Y98032395D01*
X9116940Y98013119D01*
X9116777Y97990239D01*
X9105340Y97957695D01*
X9079876Y97909429D01*
X9037636Y97839379D01*
X8978246Y97745221D01*
X8852749Y97547966D01*
X8906511Y97436123D01*
X8924953Y97403615D01*
X8954161Y97361762D01*
X8996245Y97308171D01*
X9053316Y97240463D01*
X9127488Y97156239D01*
X9220870Y97053114D01*
X9335574Y96928699D01*
X9473712Y96780604D01*
X9637395Y96606441D01*
X9675098Y96566451D01*
X10389922Y95808621D01*
X11500968Y95087752D01*
X11692847Y94963701D01*
X11875651Y94846376D01*
X12046433Y94737614D01*
X12202249Y94639248D01*
X12340155Y94553114D01*
X12457206Y94481047D01*
X12550458Y94424879D01*
X12616966Y94386448D01*
X12653785Y94367587D01*
X12659392Y94365933D01*
X12687195Y94364824D01*
X12751860Y94361937D01*
X12849950Y94357433D01*
X12978023Y94351473D01*
X13132642Y94344219D01*
X13310364Y94335833D01*
X13507752Y94326477D01*
X13721364Y94316311D01*
X13947764Y94305497D01*
X14065796Y94299846D01*
X15424823Y94234708D01*
X15660216Y94319615D01*
X15723861Y94342736D01*
X15820939Y94378224D01*
X15947037Y94424455D01*
X16097740Y94479807D01*
X16268634Y94542658D01*
X16455306Y94611384D01*
X16653342Y94684362D01*
X16858329Y94759969D01*
X16971238Y94801645D01*
X17214063Y94890861D01*
X17431699Y94969937D01*
X17622337Y95038241D01*
X17784166Y95095144D01*
X17915377Y95140016D01*
X18014158Y95172229D01*
X18078700Y95191152D01*
X18105893Y95196305D01*
X18163324Y95180482D01*
X18203488Y95152822D01*
X18228888Y95119146D01*
X18271423Y95055086D01*
X18328311Y94965348D01*
X18396768Y94854637D01*
X18474010Y94727660D01*
X18557252Y94589121D01*
X18643713Y94443727D01*
X18730608Y94296184D01*
X18815153Y94151196D01*
X18894565Y94013470D01*
X18966060Y93887710D01*
X19026854Y93778625D01*
X19074164Y93690917D01*
X19105205Y93629294D01*
X19106880Y93625682D01*
X19144335Y93526553D01*
X19153564Y93447037D01*
X19132022Y93382611D01*
X19077165Y93328746D01*
X18986447Y93280921D01*
X18893639Y93246389D01*
X18816782Y93221301D01*
X18709821Y93187285D01*
X18576501Y93145476D01*
X18420563Y93097008D01*
X18245749Y93043016D01*
X18055803Y92984633D01*
X17854464Y92922994D01*
X17645478Y92859233D01*
X17432586Y92794484D01*
X17219530Y92729880D01*
X17010053Y92666557D01*
X16807896Y92605649D01*
X16616803Y92548289D01*
X16440516Y92495612D01*
X16282778Y92448753D01*
X16147329Y92408844D01*
X16037915Y92377021D01*
X15958275Y92354418D01*
X15912153Y92342167D01*
X15904660Y92340544D01*
X15844908Y92344634D01*
X15789860Y92367519D01*
X15773039Y92378490D01*
X15758493Y92390149D01*
X15744963Y92406161D01*
X15731190Y92430197D01*
X15715914Y92465929D01*
X15697876Y92517029D01*
X15675815Y92587167D01*
X15648474Y92680013D01*
X15614590Y92799237D01*
X15572906Y92948512D01*
X15522162Y93131507D01*
X15498881Y93215568D01*
X15323918Y93847217D01*
X15316523Y93873912D01*
X15139022Y93883410D01*
X15086334Y93886110D01*
X14997564Y93890516D01*
X14876939Y93896423D01*
X14728681Y93903628D01*
X14557015Y93911928D01*
X14366165Y93921112D01*
X14160355Y93930983D01*
X14120606Y93932883D01*
X15687190Y93932883D01*
X15690590Y93911871D01*
X15703332Y93857946D01*
X15723807Y93777029D01*
X15750405Y93675043D01*
X15781516Y93557907D01*
X15815531Y93431546D01*
X15850840Y93301880D01*
X15885835Y93174828D01*
X15918904Y93056316D01*
X15948440Y92952263D01*
X15972832Y92868591D01*
X15990470Y92811222D01*
X15997700Y92790469D01*
X16011995Y92764424D01*
X16034284Y92756540D01*
X16076690Y92765010D01*
X16107109Y92774154D01*
X16144232Y92785528D01*
X16215865Y92807327D01*
X16317894Y92838302D01*
X16446203Y92877207D01*
X16596680Y92922795D01*
X16765208Y92973817D01*
X16947672Y93029029D01*
X17139960Y93087183D01*
X17171020Y93096574D01*
X17454434Y93182312D01*
X17701580Y93257215D01*
X17914841Y93322029D01*
X18096600Y93377503D01*
X18249241Y93424384D01*
X18375147Y93463420D01*
X18476700Y93495361D01*
X18556283Y93520952D01*
X18616281Y93540944D01*
X18659075Y93556083D01*
X18687049Y93567117D01*
X18702587Y93574795D01*
X18707554Y93578860D01*
X18701395Y93601279D01*
X18676093Y93654505D01*
X18633655Y93734985D01*
X18576093Y93839166D01*
X18505413Y93963493D01*
X18423626Y94104414D01*
X18332740Y94258376D01*
X18234764Y94421823D01*
X18178431Y94514725D01*
X18114284Y94619255D01*
X18066893Y94693612D01*
X18032545Y94742398D01*
X18007529Y94770210D01*
X17988130Y94781652D01*
X17970638Y94781321D01*
X17964772Y94779457D01*
X17798676Y94718793D01*
X17618946Y94652910D01*
X17429199Y94583152D01*
X17233055Y94510867D01*
X17034133Y94437398D01*
X16836053Y94364091D01*
X16642434Y94292291D01*
X16456896Y94223344D01*
X16283059Y94158595D01*
X16124541Y94099389D01*
X15984963Y94047074D01*
X15867944Y94002992D01*
X15777104Y93968490D01*
X15716062Y93944913D01*
X15688436Y93933606D01*
X15687190Y93932883D01*
X14120606Y93932883D01*
X13943809Y93941334D01*
X13763280Y93949938D01*
X13546266Y93960312D01*
X13340607Y93970228D01*
X13149958Y93979506D01*
X12977967Y93987964D01*
X12828290Y93995419D01*
X12704575Y94001690D01*
X12610476Y94006597D01*
X12549645Y94009955D01*
X12526150Y94011527D01*
X12503083Y94023048D01*
X12449079Y94054855D01*
X12366973Y94105153D01*
X12259601Y94172150D01*
X12129798Y94254050D01*
X11980400Y94349060D01*
X11814242Y94455386D01*
X11634159Y94571234D01*
X11442987Y94694810D01*
X11315579Y94777481D01*
X10143894Y95538877D01*
X9435929Y96292817D01*
X8727963Y97046758D01*
X8604794Y97082375D01*
X8481625Y97117991D01*
X8285115Y96946749D01*
X8203107Y96876107D01*
X8144695Y96828696D01*
X8103625Y96800599D01*
X8073640Y96787907D01*
X8048483Y96786698D01*
X8034021Y96789618D01*
X8006422Y96798476D01*
X7989228Y96813540D01*
X7978776Y96843935D01*
X7971403Y96898783D01*
X7965876Y96959290D01*
X7958151Y97051967D01*
X7950994Y97144734D01*
X7946006Y97216702D01*
X7939700Y97318553D01*
X7717232Y97442680D01*
X7631735Y97491568D01*
X7559504Y97535106D01*
X7518402Y97561852D01*
X7507722Y97568802D01*
X7483575Y97588167D01*
X7483000Y97589060D01*
X7481644Y97610135D01*
X7792229Y97610135D01*
X7805206Y97593317D01*
X7845261Y97565651D01*
X7892026Y97539372D01*
X7981296Y97492774D01*
X8041608Y97457181D01*
X8079339Y97424112D01*
X8100865Y97385084D01*
X8112559Y97331617D01*
X8120799Y97255230D01*
X8123016Y97232071D01*
X8132710Y97149793D01*
X8143088Y97091607D01*
X8152824Y97064169D01*
X8156489Y97063485D01*
X8178200Y97082446D01*
X8221843Y97120783D01*
X8279091Y97171180D01*
X8296445Y97186473D01*
X8420554Y97295873D01*
X8536982Y97274589D01*
X8605950Y97261895D01*
X8661735Y97251475D01*
X8685256Y97246960D01*
X8723730Y97255278D01*
X8746414Y97272386D01*
X8762141Y97294808D01*
X8762443Y97320872D01*
X8745634Y97363162D01*
X8729904Y97395070D01*
X8694732Y97470997D01*
X8679235Y97529954D01*
X8684688Y97584074D01*
X8712364Y97645491D01*
X8763540Y97726340D01*
X8764915Y97728391D01*
X8862759Y97874336D01*
X8797817Y97875821D01*
X8740316Y97873074D01*
X8664686Y97864422D01*
X8619947Y97857394D01*
X8551402Y97849634D01*
X8495146Y97850846D01*
X8471938Y97856903D01*
X8441688Y97881403D01*
X8395573Y97927299D01*
X8343376Y97984832D01*
X8341441Y97987070D01*
X8292385Y98042318D01*
X8252502Y98084151D01*
X8229819Y98104189D01*
X8228908Y98104633D01*
X8217266Y98089536D01*
X8200690Y98043382D01*
X8182027Y97974707D01*
X8173999Y97940057D01*
X8154473Y97856317D01*
X8134577Y97798991D01*
X8106296Y97759413D01*
X8061612Y97728911D01*
X7992509Y97698819D01*
X7928451Y97674530D01*
X7862520Y97648031D01*
X7813674Y97624986D01*
X7792303Y97610306D01*
X7792229Y97610135D01*
X7481644Y97610135D01*
X7480709Y97624669D01*
X7511502Y97663422D01*
X7577193Y97706635D01*
X7679598Y97755626D01*
X7756011Y97787002D01*
X7979301Y97874882D01*
X8035279Y98121695D01*
X8060724Y98228773D01*
X8081528Y98302342D01*
X8100051Y98348629D01*
X8118654Y98373861D01*
X8134340Y98382798D01*
X8163955Y98388968D01*
X8192999Y98383610D01*
G37*
D12*
%TO.C,U1*%
X25612200Y91998200D02*
X25612200Y93698200D01*
X25612200Y85398200D02*
X25612200Y83698200D01*
X27312200Y93698200D02*
X25612200Y93698200D01*
X27312200Y83698200D02*
X25612200Y83698200D01*
X33912200Y93698200D02*
X35612200Y93698200D01*
X33912200Y83698200D02*
X35612200Y83698200D01*
X35612200Y91998200D02*
X35612200Y93698200D01*
X35612200Y85398200D02*
X35612200Y83698200D01*
D10*
X37162200Y86288200D02*
G75*
G02*
X36762200Y86288200I-200000J0D01*
G01*
X36762200Y86288200D02*
G75*
G02*
X37162200Y86288200I200000J0D01*
G01*
D13*
%TO.C,C2*%
X37157200Y86911364D02*
X37157200Y87127036D01*
X37877200Y86911364D02*
X37877200Y87127036D01*
%TO.C,J10*%
X54986200Y92122200D02*
X56256200Y92122200D01*
X54986200Y90852200D02*
X54986200Y92122200D01*
X57299129Y88692200D02*
X57696200Y88692200D01*
X57299129Y87932200D02*
X57696200Y87932200D01*
X57299129Y86152200D02*
X57696200Y86152200D01*
X57299129Y85392200D02*
X57696200Y85392200D01*
X57299129Y83612200D02*
X57696200Y83612200D01*
X57299129Y82852200D02*
X57696200Y82852200D01*
X57299129Y81072200D02*
X57696200Y81072200D01*
X57299129Y80312200D02*
X57696200Y80312200D01*
X57366200Y91232200D02*
X57696200Y91232200D01*
X57366200Y90472200D02*
X57696200Y90472200D01*
X57696200Y92182200D02*
X57696200Y79362200D01*
X57696200Y89582200D02*
X60356200Y89582200D01*
X57696200Y87042200D02*
X60356200Y87042200D01*
X57696200Y84502200D02*
X60356200Y84502200D01*
X57696200Y81962200D02*
X60356200Y81962200D01*
X57696200Y79362200D02*
X60356200Y79362200D01*
X60356200Y92182200D02*
X57696200Y92182200D01*
X60356200Y91232200D02*
X66356200Y91232200D01*
X60356200Y91172200D02*
X66356200Y91172200D01*
X60356200Y91052200D02*
X66356200Y91052200D01*
X60356200Y90932200D02*
X66356200Y90932200D01*
X60356200Y90812200D02*
X66356200Y90812200D01*
X60356200Y90692200D02*
X66356200Y90692200D01*
X60356200Y90572200D02*
X66356200Y90572200D01*
X60356200Y88692200D02*
X66356200Y88692200D01*
X60356200Y86152200D02*
X66356200Y86152200D01*
X60356200Y83612200D02*
X66356200Y83612200D01*
X60356200Y81072200D02*
X66356200Y81072200D01*
X60356200Y79362200D02*
X60356200Y92182200D01*
X66356200Y91232200D02*
X66356200Y90472200D01*
X66356200Y90472200D02*
X60356200Y90472200D01*
X66356200Y88692200D02*
X66356200Y87932200D01*
X66356200Y87932200D02*
X60356200Y87932200D01*
X66356200Y86152200D02*
X66356200Y85392200D01*
X66356200Y85392200D02*
X60356200Y85392200D01*
X66356200Y83612200D02*
X66356200Y82852200D01*
X66356200Y82852200D02*
X60356200Y82852200D01*
X66356200Y81072200D02*
X66356200Y80312200D01*
X66356200Y80312200D02*
X60356200Y80312200D01*
D12*
%TO.C,SW3*%
X30000000Y9850000D02*
X30000000Y12150000D01*
X30600000Y14000000D02*
X35400000Y14000000D01*
X35400000Y8000000D02*
X30600000Y8000000D01*
X36000000Y12150000D02*
X36000000Y9850000D01*
X31650000Y12800000D02*
G75*
G02*
X30750000Y12800000I-450000J0D01*
G01*
X30750000Y12800000D02*
G75*
G02*
X31650000Y12800000I450000J0D01*
G01*
X31650000Y9200000D02*
G75*
G02*
X30750000Y9200000I-450000J0D01*
G01*
X30750000Y9200000D02*
G75*
G02*
X31650000Y9200000I450000J0D01*
G01*
X34800000Y11000000D02*
G75*
G02*
X31200000Y11000000I-1800000J0D01*
G01*
X31200000Y11000000D02*
G75*
G02*
X34800000Y11000000I1800000J0D01*
G01*
X35250000Y12800000D02*
G75*
G02*
X34350000Y12800000I-450000J0D01*
G01*
X34350000Y12800000D02*
G75*
G02*
X35250000Y12800000I450000J0D01*
G01*
X35250000Y9200000D02*
G75*
G02*
X34350000Y9200000I-450000J0D01*
G01*
X34350000Y9200000D02*
G75*
G02*
X35250000Y9200000I450000J0D01*
G01*
D13*
%TO.C,Q1*%
X9225100Y34215200D02*
X9225100Y34865200D01*
X9225100Y34215200D02*
X9225100Y33565200D01*
X12345100Y34215200D02*
X12345100Y34865200D01*
X12345100Y34215200D02*
X12345100Y33565200D01*
X12625100Y35137700D02*
X12295100Y35377700D01*
X12625100Y35617700D01*
X12625100Y35137700D01*
G36*
X12625100Y35137700D02*
G01*
X12295100Y35377700D01*
X12625100Y35617700D01*
X12625100Y35137700D01*
G37*
D14*
%TO.C,U7*%
X28168700Y65406400D02*
X28798700Y65406400D01*
X28168700Y65156400D02*
X28168700Y65406400D01*
X28168700Y63126400D02*
X28168700Y62866400D01*
X28168700Y62866400D02*
X28798700Y62866400D01*
X29818700Y65406400D02*
X30448700Y65406400D01*
X29818700Y62866400D02*
X30448700Y62866400D01*
X30448700Y65406400D02*
X30448700Y65156400D01*
X30448700Y62866400D02*
X30448700Y63096400D01*
D16*
X30838700Y63386400D02*
G75*
G02*
X30698700Y63386400I-70000J0D01*
G01*
X30698700Y63386400D02*
G75*
G02*
X30838700Y63386400I70000J0D01*
G01*
D13*
%TO.C,C14*%
X16081736Y67988600D02*
X15866064Y67988600D01*
X16081736Y67268600D02*
X15866064Y67268600D01*
%TO.C,C12*%
X19885200Y66987436D02*
X19885200Y66771764D01*
X20605200Y66987436D02*
X20605200Y66771764D01*
%TO.C,C23*%
X45869400Y7516164D02*
X45869400Y7731836D01*
X46589400Y7516164D02*
X46589400Y7731836D01*
%TO.C,C35*%
X7695600Y34457380D02*
X7695600Y34176220D01*
X8715600Y34457380D02*
X8715600Y34176220D01*
%TO.C,C36*%
X9014000Y40469836D02*
X9014000Y40254164D01*
X9734000Y40469836D02*
X9734000Y40254164D01*
%TO.C,C32*%
X29586164Y66350600D02*
X29801836Y66350600D01*
X29586164Y65630600D02*
X29801836Y65630600D01*
%TO.C,R15*%
X27307159Y80264400D02*
X27614441Y80264400D01*
X27307159Y79504400D02*
X27614441Y79504400D01*
D12*
%TO.C,J8*%
X51678200Y15667400D02*
X51678200Y20007400D01*
X52778200Y15667400D02*
X51678200Y15667400D01*
X56778200Y15667400D02*
X54638200Y15667400D01*
X59778200Y15667400D02*
X58638200Y15667400D01*
X63928200Y16297400D02*
X66028200Y16297400D01*
X63928200Y15667400D02*
X63928200Y21917400D01*
X66028200Y21917400D02*
X53468200Y21917400D01*
X66028200Y21917400D02*
X66028200Y15667400D01*
X66028200Y21297400D02*
X63928200Y21297400D01*
X66028200Y15667400D02*
X61638200Y15667400D01*
D13*
%TO.C,C8*%
X14259636Y74808800D02*
X14043964Y74808800D01*
X14259636Y74088800D02*
X14043964Y74088800D01*
%TO.C,D4*%
X28620600Y80946000D02*
X28620600Y79026000D01*
X28620600Y79026000D02*
X31305600Y79026000D01*
X31305600Y80946000D02*
X28620600Y80946000D01*
D16*
%TO.C,U6*%
X49015000Y64170800D02*
X49015000Y64170800D01*
X49015000Y64170800D02*
X58865000Y64170800D01*
X49015000Y63940800D02*
X49015000Y64170800D01*
X49015000Y54140800D02*
X49015000Y53910800D01*
X49015000Y53910800D02*
X49015000Y53910800D01*
X49015000Y53910800D02*
X58865000Y53910800D01*
X58865000Y64170800D02*
X58865000Y64170800D01*
X58865000Y64170800D02*
X58865000Y63940800D01*
X58865000Y53910800D02*
X58865000Y54140800D01*
X58865000Y53910800D02*
X58865000Y53910800D01*
D12*
X48025000Y63440800D02*
G75*
G02*
X47785000Y63440800I-120000J0D01*
G01*
X47785000Y63440800D02*
G75*
G02*
X48025000Y63440800I120000J0D01*
G01*
D13*
%TO.C,R9*%
X58646600Y11277759D02*
X58646600Y11585041D01*
X59406600Y11277759D02*
X59406600Y11585041D01*
%TO.C,U2*%
X6953800Y67242400D02*
X7213800Y67242400D01*
X6953800Y64517400D02*
X6953800Y67242400D01*
X6953800Y64517400D02*
X6953800Y61792400D01*
X6953800Y61792400D02*
X7213800Y61792400D01*
X12403800Y67242400D02*
X12143800Y67242400D01*
X12403800Y64517400D02*
X12403800Y67242400D01*
X12403800Y64517400D02*
X12403800Y61792400D01*
X12403800Y61792400D02*
X12143800Y61792400D01*
X7213800Y61009900D02*
X6883800Y60769900D01*
X6883800Y61249900D01*
X7213800Y61009900D01*
G36*
X7213800Y61009900D02*
G01*
X6883800Y60769900D01*
X6883800Y61249900D01*
X7213800Y61009900D01*
G37*
%TO.C,C26*%
X56037400Y5252964D02*
X56037400Y5468636D01*
X56757400Y5252964D02*
X56757400Y5468636D01*
%TO.C,C29*%
X58656600Y4940820D02*
X58656600Y5221980D01*
X59676600Y4940820D02*
X59676600Y5221980D01*
%TO.C,J3*%
X2963800Y64213400D02*
X2963800Y65613400D01*
X3663800Y66313400D02*
X4263800Y66313400D01*
X4263800Y63513400D02*
X3663800Y63513400D01*
X4963800Y65613400D02*
X4963800Y64213400D01*
X2963800Y65613400D02*
G75*
G02*
X3663800Y66313400I700000J0D01*
G01*
X3663800Y63513400D02*
G75*
G02*
X2963800Y64213400I-1J699999D01*
G01*
X4263800Y66313400D02*
G75*
G02*
X4963800Y65613400I0J-700000D01*
G01*
X4963800Y64213400D02*
G75*
G02*
X4263800Y63513400I-699999J-1D01*
G01*
%TO.C,C6*%
X24249564Y73462600D02*
X24465236Y73462600D01*
X24249564Y72742600D02*
X24465236Y72742600D01*
%TO.C,R13*%
X26977200Y22176841D02*
X26977200Y21869559D01*
X27737200Y22176841D02*
X27737200Y21869559D01*
%TO.C,R5*%
X29390200Y61212159D02*
X29390200Y61519441D01*
X30150200Y61212159D02*
X30150200Y61519441D01*
%TO.C,R20*%
X52857559Y12370200D02*
X53164841Y12370200D01*
X52857559Y11610200D02*
X53164841Y11610200D01*
%TO.C,C21*%
X57323620Y7877400D02*
X57604780Y7877400D01*
X57323620Y6857400D02*
X57604780Y6857400D01*
D12*
%TO.C,AE1*%
X29695200Y101412700D02*
X36125200Y101412700D01*
X29695200Y99912700D02*
X29695200Y101412700D01*
X29695200Y99912700D02*
X36195200Y99912700D01*
X30405200Y109412700D02*
X35485200Y109412700D01*
X30405200Y108172700D02*
X35505200Y108172700D01*
X30405200Y107392700D02*
X35505200Y107392700D01*
X30405200Y106592700D02*
X35505200Y106592700D01*
X30405200Y105772700D02*
X35505200Y105772700D01*
X30405200Y104872700D02*
X35505200Y104872700D01*
X30405200Y101412700D02*
X30405200Y109412700D01*
X35505200Y108172700D02*
X30405200Y107412700D01*
X35505200Y107392700D02*
X30405200Y106632700D01*
X35505200Y106592700D02*
X30405200Y105832700D01*
X35505200Y105772700D02*
X30405200Y105012700D01*
X35505200Y101412700D02*
X35505200Y109442700D01*
X36195200Y99912700D02*
X36195200Y101412700D01*
D13*
%TO.C,C27*%
X57081200Y4978620D02*
X57081200Y5259780D01*
X58101200Y4978620D02*
X58101200Y5259780D01*
%TO.C,D1*%
X47391800Y70090000D02*
X47391800Y68170000D01*
X47391800Y68170000D02*
X50076800Y68170000D01*
X50076800Y70090000D02*
X47391800Y70090000D01*
%TO.C,C1*%
X37231564Y89436600D02*
X37447236Y89436600D01*
X37231564Y88716600D02*
X37447236Y88716600D01*
%TO.C,C7*%
X13545836Y71938600D02*
X13330164Y71938600D01*
X13545836Y71218600D02*
X13330164Y71218600D01*
%TO.C,R8*%
X39802200Y5158841D02*
X39802200Y4851559D01*
X40562200Y5158841D02*
X40562200Y4851559D01*
D12*
%TO.C,J1*%
X-10600Y77129600D02*
X-10600Y77089600D01*
X-10600Y77089600D02*
X719400Y76359600D01*
X-10600Y75669600D02*
X-10600Y70629600D01*
X-10600Y70629600D02*
X719400Y70629600D01*
X-10600Y69329600D02*
X69400Y69329600D01*
X69400Y69329600D02*
X719400Y69979600D01*
X319400Y77459600D02*
X-10600Y77129600D01*
X319400Y68999600D02*
X-10600Y69329600D01*
X719400Y77059600D02*
X319400Y77459600D01*
X719400Y76979600D02*
X719400Y77059600D01*
X719400Y76979600D02*
X5839400Y76979600D01*
X719400Y75669600D02*
X-10600Y75669600D01*
X719400Y69479600D02*
X719400Y76979600D01*
X719400Y69479600D02*
X719400Y69399600D01*
X719400Y69399600D02*
X319400Y68999600D01*
X5839400Y76979600D02*
X5839400Y76479600D01*
X5839400Y69979600D02*
X5839400Y69479600D01*
X5839400Y69479600D02*
X719400Y69479600D01*
D16*
%TO.C,X1*%
X25366800Y72161800D02*
X28026800Y72161800D01*
X25366800Y68861800D02*
X25366800Y72161800D01*
X26796800Y68621800D02*
X28256800Y68621800D01*
X28026800Y72161800D02*
X28026800Y68981800D01*
X28026800Y68981800D02*
X28026800Y68861800D01*
X28026800Y68861800D02*
X25366800Y68861800D01*
X28256800Y68621800D02*
X28256800Y69881800D01*
D13*
%TO.C,C17*%
X46803836Y56175000D02*
X46588164Y56175000D01*
X46803836Y55455000D02*
X46588164Y55455000D01*
%TO.C,U8*%
X12553200Y43162400D02*
X16313200Y43162400D01*
X12553200Y36342400D02*
X16313200Y36342400D01*
X16313200Y43162400D02*
X16313200Y41902400D01*
X16313200Y36342400D02*
X16313200Y37602400D01*
X11273200Y43062400D02*
X11033200Y43392400D01*
X11513200Y43392400D01*
X11273200Y43062400D01*
G36*
X11273200Y43062400D02*
G01*
X11033200Y43392400D01*
X11513200Y43392400D01*
X11273200Y43062400D01*
G37*
D12*
%TO.C,SW4*%
X37500000Y8600000D02*
X37500000Y13400000D01*
X39350000Y14000000D02*
X41650000Y14000000D01*
X41650000Y8000000D02*
X39350000Y8000000D01*
X43500000Y13400000D02*
X43500000Y8600000D01*
X39150000Y12800000D02*
G75*
G02*
X38250000Y12800000I-450000J0D01*
G01*
X38250000Y12800000D02*
G75*
G02*
X39150000Y12800000I450000J0D01*
G01*
X39150000Y9200000D02*
G75*
G02*
X38250000Y9200000I-450000J0D01*
G01*
X38250000Y9200000D02*
G75*
G02*
X39150000Y9200000I450000J0D01*
G01*
X42300000Y11000000D02*
G75*
G02*
X38700000Y11000000I-1800000J0D01*
G01*
X38700000Y11000000D02*
G75*
G02*
X42300000Y11000000I1800000J0D01*
G01*
X42750000Y12800000D02*
G75*
G02*
X41850000Y12800000I-450000J0D01*
G01*
X41850000Y12800000D02*
G75*
G02*
X42750000Y12800000I450000J0D01*
G01*
X42750000Y9200000D02*
G75*
G02*
X41850000Y9200000I-450000J0D01*
G01*
X41850000Y9200000D02*
G75*
G02*
X42750000Y9200000I450000J0D01*
G01*
D13*
%TO.C,C28*%
X47368000Y5125964D02*
X47368000Y5341636D01*
X48088000Y5125964D02*
X48088000Y5341636D01*
%TO.C,R14*%
X5417000Y43597641D02*
X5417000Y43290359D01*
X6177000Y43597641D02*
X6177000Y43290359D01*
%TO.C,C11*%
X24226764Y72497400D02*
X24442436Y72497400D01*
X24226764Y71777400D02*
X24442436Y71777400D01*
%TO.C,D2*%
X4807200Y47838200D02*
X4807200Y45153200D01*
X6727200Y47838200D02*
X4807200Y47838200D01*
X6727200Y45153200D02*
X6727200Y47838200D01*
%TO.C,C18*%
X44170000Y21755620D02*
X44170000Y22036780D01*
X45190000Y21755620D02*
X45190000Y22036780D01*
%TO.C,J7*%
X55113200Y77004200D02*
X56383200Y77004200D01*
X55113200Y75734200D02*
X55113200Y77004200D01*
X57426129Y73574200D02*
X57823200Y73574200D01*
X57426129Y72814200D02*
X57823200Y72814200D01*
X57426129Y71034200D02*
X57823200Y71034200D01*
X57426129Y70274200D02*
X57823200Y70274200D01*
X57426129Y68494200D02*
X57823200Y68494200D01*
X57426129Y67734200D02*
X57823200Y67734200D01*
X57493200Y76114200D02*
X57823200Y76114200D01*
X57493200Y75354200D02*
X57823200Y75354200D01*
X57823200Y77064200D02*
X57823200Y66784200D01*
X57823200Y74464200D02*
X60483200Y74464200D01*
X57823200Y71924200D02*
X60483200Y71924200D01*
X57823200Y69384200D02*
X60483200Y69384200D01*
X57823200Y66784200D02*
X60483200Y66784200D01*
X60483200Y77064200D02*
X57823200Y77064200D01*
X60483200Y76114200D02*
X66483200Y76114200D01*
X60483200Y76054200D02*
X66483200Y76054200D01*
X60483200Y75934200D02*
X66483200Y75934200D01*
X60483200Y75814200D02*
X66483200Y75814200D01*
X60483200Y75694200D02*
X66483200Y75694200D01*
X60483200Y75574200D02*
X66483200Y75574200D01*
X60483200Y75454200D02*
X66483200Y75454200D01*
X60483200Y73574200D02*
X66483200Y73574200D01*
X60483200Y71034200D02*
X66483200Y71034200D01*
X60483200Y68494200D02*
X66483200Y68494200D01*
X60483200Y66784200D02*
X60483200Y77064200D01*
X66483200Y76114200D02*
X66483200Y75354200D01*
X66483200Y75354200D02*
X60483200Y75354200D01*
X66483200Y73574200D02*
X66483200Y72814200D01*
X66483200Y72814200D02*
X60483200Y72814200D01*
X66483200Y71034200D02*
X66483200Y70274200D01*
X66483200Y70274200D02*
X60483200Y70274200D01*
X66483200Y68494200D02*
X66483200Y67734200D01*
X66483200Y67734200D02*
X60483200Y67734200D01*
D12*
%TO.C,SW2*%
X22000000Y8600000D02*
X22000000Y13400000D01*
X23850000Y14000000D02*
X26150000Y14000000D01*
X26150000Y8000000D02*
X23850000Y8000000D01*
X28000000Y13400000D02*
X28000000Y8600000D01*
X23650000Y12800000D02*
G75*
G02*
X22750000Y12800000I-450000J0D01*
G01*
X22750000Y12800000D02*
G75*
G02*
X23650000Y12800000I450000J0D01*
G01*
X23650000Y9200000D02*
G75*
G02*
X22750000Y9200000I-450000J0D01*
G01*
X22750000Y9200000D02*
G75*
G02*
X23650000Y9200000I450000J0D01*
G01*
X26800000Y11000000D02*
G75*
G02*
X23200000Y11000000I-1800000J0D01*
G01*
X23200000Y11000000D02*
G75*
G02*
X26800000Y11000000I1800000J0D01*
G01*
X27250000Y12800000D02*
G75*
G02*
X26350000Y12800000I-450000J0D01*
G01*
X26350000Y12800000D02*
G75*
G02*
X27250000Y12800000I450000J0D01*
G01*
X27250000Y9200000D02*
G75*
G02*
X26350000Y9200000I-450000J0D01*
G01*
X26350000Y9200000D02*
G75*
G02*
X27250000Y9200000I450000J0D01*
G01*
D13*
%TO.C,C13*%
X14282436Y75774000D02*
X14066764Y75774000D01*
X14282436Y75054000D02*
X14066764Y75054000D01*
%TO.C,R6*%
X30380800Y61214159D02*
X30380800Y61521441D01*
X31140800Y61214159D02*
X31140800Y61521441D01*
%TO.C,C3*%
X38279800Y86954820D02*
X38279800Y87235980D01*
X39299800Y86954820D02*
X39299800Y87235980D01*
D12*
%TO.C,SW6*%
X-3125200Y30570200D02*
X-3125200Y28500200D01*
X-3125200Y28500200D02*
X874800Y28500200D01*
X874800Y32850200D02*
X1764800Y32850200D01*
X874800Y30570200D02*
X-3125200Y30570200D01*
X874800Y24150200D02*
X874800Y32850200D01*
X1764800Y24150200D02*
X874800Y24150200D01*
X4384800Y32850200D02*
X5274800Y32850200D01*
X5274800Y32850200D02*
X5274800Y24150200D01*
X5274800Y24150200D02*
X4384800Y24150200D01*
D13*
%TO.C,C15*%
X16081736Y77234200D02*
X15866064Y77234200D01*
X16081736Y76514200D02*
X15866064Y76514200D01*
%TO.C,C5*%
X10942564Y59721200D02*
X11158236Y59721200D01*
X10942564Y59001200D02*
X11158236Y59001200D01*
%TO.C,C19*%
X54267620Y13770200D02*
X54548780Y13770200D01*
X54267620Y12750200D02*
X54548780Y12750200D01*
%TO.C,C16*%
X43075400Y22347164D02*
X43075400Y22562836D01*
X43795400Y22347164D02*
X43795400Y22562836D01*
D12*
%TO.C,AE2*%
X62028200Y56725800D02*
X62028200Y56595800D01*
X62028200Y55135800D02*
X62028200Y55005800D01*
X64628200Y57165800D02*
X64628200Y54565800D01*
X64088200Y55865800D02*
G75*
G02*
X62568200Y55865800I-760000J0D01*
G01*
X62568200Y55865800D02*
G75*
G02*
X64088200Y55865800I760000J0D01*
G01*
X63508200Y55865800D02*
G75*
G02*
X63148200Y55865800I-180000J0D01*
G01*
X63148200Y55865800D02*
G75*
G02*
X63508200Y55865800I180000J0D01*
G01*
D13*
%TO.C,C4*%
X28394200Y70353164D02*
X28394200Y70568836D01*
X29114200Y70353164D02*
X29114200Y70568836D01*
%TD*%
%LPC*%
D17*
%TO.C,R7*%
X52505200Y69114800D03*
X51485200Y69114800D03*
%TD*%
D18*
%TO.C,U3*%
X16642000Y68817100D03*
X17042000Y68817100D03*
X17442000Y68817100D03*
X17842000Y68817100D03*
X18242000Y68817100D03*
X18642000Y68817100D03*
X19042000Y68817100D03*
X19442000Y68817100D03*
X19842000Y68817100D03*
X20242000Y68817100D03*
X20642000Y68817100D03*
X21042000Y68817100D03*
X21442000Y68817100D03*
X21842000Y68817100D03*
D19*
X22679500Y69654600D03*
X22679500Y70054600D03*
X22679500Y70454600D03*
X22679500Y70854600D03*
X22679500Y71254600D03*
X22679500Y71654600D03*
X22679500Y72054600D03*
X22679500Y72454600D03*
X22679500Y72854600D03*
X22679500Y73254600D03*
X22679500Y73654600D03*
X22679500Y74054600D03*
X22679500Y74454600D03*
X22679500Y74854600D03*
D18*
X21842000Y75692100D03*
X21442000Y75692100D03*
X21042000Y75692100D03*
X20642000Y75692100D03*
X20242000Y75692100D03*
X19842000Y75692100D03*
X19442000Y75692100D03*
X19042000Y75692100D03*
X18642000Y75692100D03*
X18242000Y75692100D03*
X17842000Y75692100D03*
X17442000Y75692100D03*
X17042000Y75692100D03*
X16642000Y75692100D03*
D19*
X15804500Y74854600D03*
X15804500Y74454600D03*
X15804500Y74054600D03*
X15804500Y73654600D03*
X15804500Y73254600D03*
X15804500Y72854600D03*
X15804500Y72454600D03*
X15804500Y72054600D03*
X15804500Y71654600D03*
X15804500Y71254600D03*
X15804500Y70854600D03*
X15804500Y70454600D03*
X15804500Y70054600D03*
X15804500Y69654600D03*
D20*
X19242000Y72254600D03*
%TD*%
D21*
%TO.C,R11*%
X24817200Y16816200D03*
X25837200Y16816200D03*
%TD*%
D22*
%TO.C,C24*%
X56422800Y9577200D03*
X56422800Y10537200D03*
%TD*%
D23*
%TO.C,D5*%
X8942200Y25198200D03*
D24*
X8942200Y27738200D03*
X11482200Y25198200D03*
X11482200Y27738200D03*
X14022200Y25198200D03*
X14022200Y27738200D03*
X16562200Y25198200D03*
X16562200Y27738200D03*
X19102200Y25198200D03*
X19102200Y27738200D03*
X21642200Y25198200D03*
X21642200Y27738200D03*
X24182200Y25198200D03*
X24182200Y27738200D03*
X26722200Y25198200D03*
X26722200Y27738200D03*
X29262200Y25198200D03*
X29262200Y27738200D03*
X31802200Y25198200D03*
X31802200Y27738200D03*
X34342200Y25198200D03*
X34342200Y27738200D03*
X36882200Y25198200D03*
X36882200Y27738200D03*
X39422200Y25198200D03*
X39422200Y27738200D03*
X41962200Y25198200D03*
X41962200Y27738200D03*
X44502200Y25198200D03*
X44502200Y27738200D03*
X47042200Y25198200D03*
X47042200Y27738200D03*
X49582200Y25198200D03*
X49582200Y27738200D03*
X52122200Y25198200D03*
X52122200Y27738200D03*
X54662200Y25198200D03*
X54662200Y27738200D03*
X57202200Y25198200D03*
X57202200Y27738200D03*
D25*
X2622200Y36198200D03*
X63522200Y36198200D03*
%TD*%
D26*
%TO.C,U5*%
X54924200Y4955600D03*
X54924200Y5605600D03*
X54924200Y6255600D03*
X54924200Y6905600D03*
X54924200Y7555600D03*
X54924200Y8205600D03*
X54924200Y8855600D03*
X54924200Y9505600D03*
X54924200Y10155600D03*
X54924200Y10805600D03*
X49199200Y10805600D03*
X49199200Y10155600D03*
X49199200Y9505600D03*
X49199200Y8855600D03*
X49199200Y8205600D03*
X49199200Y7555600D03*
X49199200Y6905600D03*
X49199200Y6255600D03*
X49199200Y5605600D03*
X49199200Y4955600D03*
%TD*%
D17*
%TO.C,R1*%
X5949000Y67108200D03*
X4929000Y67108200D03*
%TD*%
D27*
%TO.C,C30*%
X58332200Y13260200D03*
X59882200Y13260200D03*
%TD*%
D17*
%TO.C,R12*%
X27105200Y19483200D03*
X26085200Y19483200D03*
%TD*%
D28*
%TO.C,C9*%
X13892600Y72543800D03*
X12932600Y72543800D03*
%TD*%
D29*
%TO.C,R10*%
X25958200Y1447200D03*
X25958200Y2467200D03*
%TD*%
D30*
%TO.C,H1*%
X3000000Y97000000D03*
%TD*%
D31*
%TO.C,R17*%
X13920600Y35078800D03*
X13920600Y34058800D03*
%TD*%
D32*
%TO.C,C20*%
X52930600Y3557400D03*
X51380600Y3557400D03*
%TD*%
D33*
%TO.C,C22*%
X47474000Y7016400D03*
X47474000Y8566400D03*
%TD*%
D34*
%TO.C,SW5*%
X29750000Y5750000D03*
X36250000Y5750000D03*
X29750000Y1250000D03*
X36250000Y1250000D03*
%TD*%
D33*
%TO.C,C25*%
X57642000Y9691200D03*
X57642000Y11241200D03*
%TD*%
D22*
%TO.C,C10*%
X20245200Y77319000D03*
X20245200Y78279000D03*
%TD*%
%TO.C,C34*%
X9374000Y37951600D03*
X9374000Y38911600D03*
%TD*%
D23*
%TO.C,J4*%
X56256200Y50715200D03*
D24*
X56256200Y48175200D03*
X56256200Y45635200D03*
X56256200Y43095200D03*
%TD*%
D31*
%TO.C,R16*%
X14885800Y35080800D03*
X14885800Y34060800D03*
%TD*%
D17*
%TO.C,R3*%
X11865200Y73864600D03*
X10845200Y73864600D03*
%TD*%
D34*
%TO.C,SW1*%
X29750000Y20750000D03*
X36250000Y20750000D03*
X29750000Y16250000D03*
X36250000Y16250000D03*
%TD*%
D35*
%TO.C,D3*%
X7927200Y30938600D03*
X11227200Y30938600D03*
%TD*%
D21*
%TO.C,R2*%
X10845200Y72899400D03*
X11865200Y72899400D03*
%TD*%
D36*
%TO.C,C33*%
X31289900Y64997400D03*
X31289900Y64037400D03*
%TD*%
D31*
%TO.C,R4*%
X24844600Y75085800D03*
X24844600Y74065800D03*
%TD*%
D37*
%TO.C,U1*%
X35612200Y86158200D03*
X35612200Y87428200D03*
X35612200Y88698200D03*
X35612200Y89968200D03*
X35612200Y91238200D03*
D38*
X33152200Y93698200D03*
X31882200Y93698200D03*
X30612200Y93698200D03*
X29342200Y93698200D03*
X28072200Y93698200D03*
D37*
X25612200Y91238200D03*
X25612200Y89968200D03*
X25612200Y88698200D03*
X25612200Y87428200D03*
X25612200Y86158200D03*
D38*
X28072200Y83698200D03*
X29342200Y83698200D03*
X30612200Y83698200D03*
X31882200Y83698200D03*
X33152200Y83698200D03*
%TD*%
D30*
%TO.C,H4*%
X63000000Y3000000D03*
%TD*%
D22*
%TO.C,C2*%
X37517200Y86539200D03*
X37517200Y87499200D03*
%TD*%
D23*
%TO.C,J10*%
X56256200Y90852200D03*
D24*
X56256200Y88312200D03*
X56256200Y85772200D03*
X56256200Y83232200D03*
X56256200Y80692200D03*
%TD*%
D34*
%TO.C,SW3*%
X29750000Y13250000D03*
X36250000Y13250000D03*
X29750000Y8750000D03*
X36250000Y8750000D03*
%TD*%
D39*
%TO.C,Q1*%
X11735100Y35152700D03*
X9835100Y35152700D03*
X10785100Y33277700D03*
%TD*%
D40*
%TO.C,U7*%
X30188700Y63386400D03*
X30188700Y63886400D03*
X30188700Y64386400D03*
X30188700Y64886400D03*
D41*
X29558700Y65016400D03*
X29058700Y65016400D03*
D40*
X28428700Y64886400D03*
X28428700Y64386400D03*
X28428700Y63886400D03*
X28428700Y63386400D03*
D41*
X29058700Y63256400D03*
X29558700Y63256400D03*
%TD*%
D28*
%TO.C,C14*%
X16453900Y67628600D03*
X15493900Y67628600D03*
%TD*%
D36*
%TO.C,C12*%
X20245200Y67359600D03*
X20245200Y66399600D03*
%TD*%
D22*
%TO.C,C23*%
X46229400Y7144000D03*
X46229400Y8104000D03*
%TD*%
D42*
%TO.C,C35*%
X8205600Y35091800D03*
X8205600Y33541800D03*
%TD*%
D36*
%TO.C,C36*%
X9374000Y40842000D03*
X9374000Y39882000D03*
%TD*%
D43*
%TO.C,C32*%
X29214000Y65990600D03*
X30174000Y65990600D03*
%TD*%
D21*
%TO.C,R15*%
X26950800Y79884400D03*
X27970800Y79884400D03*
%TD*%
D44*
%TO.C,J8*%
X62208200Y18797400D03*
X55208200Y18797400D03*
D45*
X57708200Y15797400D03*
X60708200Y15797400D03*
X52608200Y21797400D03*
X53708200Y15797400D03*
%TD*%
D28*
%TO.C,C8*%
X14631800Y74448800D03*
X13671800Y74448800D03*
%TD*%
D46*
%TO.C,D4*%
X29368100Y79986000D03*
X31243100Y79986000D03*
%TD*%
D47*
%TO.C,U6*%
X49125000Y63440800D03*
X49125000Y62340800D03*
X49125000Y61240800D03*
X49125000Y60140800D03*
X49125000Y59040800D03*
X49125000Y57940800D03*
X49125000Y56840800D03*
X49125000Y55740800D03*
X49125000Y54640800D03*
X58745000Y54640800D03*
X58745000Y55740800D03*
X58745000Y56840800D03*
X58745000Y57940800D03*
X58745000Y59040800D03*
X58745000Y60140800D03*
X58745000Y61240800D03*
X58745000Y62340800D03*
X58745000Y63440800D03*
%TD*%
D29*
%TO.C,R9*%
X59026600Y10921400D03*
X59026600Y11941400D03*
%TD*%
D48*
%TO.C,U2*%
X7773800Y60917400D03*
X9043800Y60917400D03*
X10313800Y60917400D03*
X11583800Y60917400D03*
X11583800Y68117400D03*
X10313800Y68117400D03*
X9043800Y68117400D03*
X7773800Y68117400D03*
%TD*%
D22*
%TO.C,C26*%
X56397400Y4880800D03*
X56397400Y5840800D03*
%TD*%
D33*
%TO.C,C29*%
X59166600Y4306400D03*
X59166600Y5856400D03*
%TD*%
D49*
%TO.C,J3*%
X3963800Y64263400D03*
D50*
X3963800Y65563400D03*
%TD*%
D30*
%TO.C,H2*%
X63000000Y97000000D03*
%TD*%
D43*
%TO.C,C6*%
X23877400Y73102600D03*
X24837400Y73102600D03*
%TD*%
D31*
%TO.C,R13*%
X27357200Y22533200D03*
X27357200Y21513200D03*
%TD*%
D30*
%TO.C,H3*%
X3000000Y3000000D03*
%TD*%
D29*
%TO.C,R5*%
X29770200Y60855800D03*
X29770200Y61875800D03*
%TD*%
D21*
%TO.C,R20*%
X52501200Y11990200D03*
X53521200Y11990200D03*
%TD*%
D27*
%TO.C,C21*%
X56689200Y7367400D03*
X58239200Y7367400D03*
%TD*%
D51*
%TO.C,AE1*%
X32945200Y97252700D03*
D52*
X30395200Y97252700D03*
X35495200Y97252700D03*
%TD*%
D33*
%TO.C,C27*%
X57591200Y4344200D03*
X57591200Y5894200D03*
%TD*%
D46*
%TO.C,D1*%
X48139300Y69130000D03*
X50014300Y69130000D03*
%TD*%
D43*
%TO.C,C1*%
X36859400Y89076600D03*
X37819400Y89076600D03*
%TD*%
D28*
%TO.C,C7*%
X13918000Y71578600D03*
X12958000Y71578600D03*
%TD*%
D31*
%TO.C,R8*%
X40182200Y5515200D03*
X40182200Y4495200D03*
%TD*%
D53*
%TO.C,J1*%
X5519400Y74529600D03*
X5519400Y73879600D03*
X5519400Y73229600D03*
X5519400Y72579600D03*
X5529400Y71929600D03*
D54*
X5769400Y70809600D03*
X5769400Y75649600D03*
D55*
X2869400Y76829600D03*
X2869400Y69629600D03*
%TD*%
D56*
%TO.C,X1*%
X27296800Y69611800D03*
X27296800Y71411800D03*
X26096800Y71411800D03*
X26096800Y69611800D03*
%TD*%
D28*
%TO.C,C17*%
X47176000Y55815000D03*
X46216000Y55815000D03*
%TD*%
D57*
%TO.C,U8*%
X11253200Y42052400D03*
X11253200Y39752400D03*
D58*
X17553200Y39752400D03*
D57*
X11253200Y37452400D03*
%TD*%
D34*
%TO.C,SW4*%
X38250000Y7750000D03*
X38250000Y14250000D03*
X42750000Y7750000D03*
X42750000Y14250000D03*
%TD*%
D22*
%TO.C,C28*%
X47728000Y4753800D03*
X47728000Y5713800D03*
%TD*%
D31*
%TO.C,R14*%
X5797000Y43954000D03*
X5797000Y42934000D03*
%TD*%
D43*
%TO.C,C11*%
X23854600Y72137400D03*
X24814600Y72137400D03*
%TD*%
D59*
%TO.C,D2*%
X5767200Y47090700D03*
X5767200Y45215700D03*
%TD*%
D33*
%TO.C,C18*%
X44680000Y21121200D03*
X44680000Y22671200D03*
%TD*%
D23*
%TO.C,J7*%
X56383200Y75734200D03*
D24*
X56383200Y73194200D03*
X56383200Y70654200D03*
X56383200Y68114200D03*
%TD*%
D34*
%TO.C,SW2*%
X22750000Y7750000D03*
X22750000Y14250000D03*
X27250000Y7750000D03*
X27250000Y14250000D03*
%TD*%
D28*
%TO.C,C13*%
X14654600Y75414000D03*
X13694600Y75414000D03*
%TD*%
D29*
%TO.C,R6*%
X30760800Y60857800D03*
X30760800Y61877800D03*
%TD*%
D33*
%TO.C,C3*%
X38789800Y86320400D03*
X38789800Y87870400D03*
%TD*%
D60*
%TO.C,SW6*%
X3074800Y30500200D03*
X3074800Y28500200D03*
X3074800Y26500200D03*
D61*
X3074800Y24350200D03*
X3074800Y32650200D03*
%TD*%
D28*
%TO.C,C15*%
X16453900Y76874200D03*
X15493900Y76874200D03*
%TD*%
D43*
%TO.C,C5*%
X10570400Y59361200D03*
X11530400Y59361200D03*
%TD*%
D27*
%TO.C,C19*%
X53633200Y13260200D03*
X55183200Y13260200D03*
%TD*%
D22*
%TO.C,C16*%
X43435400Y21975000D03*
X43435400Y22935000D03*
%TD*%
D62*
%TO.C,AE2*%
X61828200Y55865800D03*
D63*
X63328200Y54365800D03*
X63328200Y57365800D03*
%TD*%
D22*
%TO.C,C4*%
X28754200Y69981000D03*
X28754200Y70941000D03*
%TD*%
D64*
%TO.C,BT1*%
X31675200Y90110200D03*
X31675200Y32310200D03*
D65*
X5075200Y38910200D03*
D66*
X5075200Y51610200D03*
%TD*%
%LPD*%
M02*
