M48
; DRILL file {KiCad 8.0.0} date 2024-06-24T23:08:17-0700
; FORMAT={-:-/ absolute / inch / decimal}
; #@! TF.CreationDate,2024-06-24T23:08:17-07:00
; #@! TF.GenerationSoftware,Kicad,Pcbnew,8.0.0
; #@! TF.FileFunction,Plated,1,4,PTH
FMAT,2
INCH
; #@! TA.AperFunction,Plated,PTH,ViaDrill
T1C0.0118
; #@! TA.AperFunction,Plated,PTH,ViaDrill
T2C0.0138
; #@! TA.AperFunction,Plated,PTH,ViaDrill
T3C0.0197
; #@! TA.AperFunction,Plated,PTH,ComponentDrill
T4C0.0256
; #@! TA.AperFunction,Plated,PTH,ComponentDrill
T5C0.0315
; #@! TA.AperFunction,Plated,PTH,ComponentDrill
T6C0.0433
; #@! TA.AperFunction,Plated,PTH,ComponentDrill
T7C0.1260
%
G90
G05
T1
X0.0177Y1.0797
X0.0395Y1.3377
X0.0427Y1.2913
X0.0726Y0.0439
X0.0748Y1.0955
X0.0961Y1.1238
X0.1398Y0.9596
X0.1584Y1.6693
X0.2067Y0.4144
X0.2087Y1.2963
X0.2383Y1.7088
X0.2441Y0.5207
X0.2668Y1.6852
X0.2693Y0.7128
X0.2949Y1.7928
X0.3051Y1.2776
X0.3051Y0.7766
X0.311Y0.8632
X0.3114Y0.5682
X0.3199Y1.4301
X0.3666Y0.5444
X0.3677Y0.8727
X0.3699Y0.7785
X0.3742Y0.6862
X0.376Y0.8419
X0.3802Y0.7448
X0.3859Y1.0556
X0.388Y1.3839
X0.4075Y0.9833
X0.4116Y0.4201
X0.4203Y1.0586
X0.4232Y0.6919
X0.4276Y1.253
X0.4354Y1.22
X0.4406Y1.1512
X0.4407Y0.6012
X0.4429Y0.8329
X0.4469Y0.9085
X0.4624Y0.9393
X0.4638Y1.0359
X0.4683Y1.1038
X0.4713Y0.1218
X0.472Y1.0704
X0.4873Y1.2528
X0.4935Y0.8392
X0.4953Y1.6618
X0.4959Y1.1191
X0.5079Y1.1864
X0.5197Y0.94
X0.5211Y1.0941
X0.5217Y0.7687
X0.522Y0.5504
X0.5261Y1.5996
X0.5433Y0.8199
X0.5512Y0.9506
X0.5531Y0.7726
X0.565Y0.6191
X0.5703Y1.8348
X0.5767Y1.0402
X0.581Y0.6693
X0.5828Y1.2449
X0.5846Y0.952
X0.5846Y1.6998
X0.5906Y0.8392
X0.5925Y1.0719
X0.5933Y1.8578
X0.5945Y2.0538
X0.5945Y2.0218
X0.5945Y1.9898
X0.5945Y1.9558
X0.5945Y1.9228
X0.5945Y1.8898
X0.6067Y1.3504
X0.6099Y1.7999
X0.6122Y1.6191
X0.6122Y0.7648
X0.6253Y1.2746
X0.6322Y1.8228
X0.6327Y1.1218
X0.6398Y0.8907
X0.6398Y0.8219
X0.6398Y0.7867
X0.6432Y1.5828
X0.6546Y1.8453
X0.657Y1.0988
X0.6594Y0.7219
X0.6713Y1.0683
X0.6713Y0.6033
X0.6713Y0.31
X0.6733Y1.2158
X0.6772Y0.19
X0.6789Y1.8679
X0.6849Y1.1426
X0.6849Y1.2518
X0.685Y0.6683
X0.6863Y2.047
X0.6863Y2.0172
X0.6863Y1.9873
X0.6863Y1.9575
X0.6863Y1.9276
X0.6863Y1.8978
X0.6949Y1.015
X0.7087Y0.5758
X0.7131Y0.8244
X0.7178Y0.8615
X0.734Y1.2457
X0.7352Y1.1612
X0.7577Y1.0758
X0.7618Y0.7274
X0.7651Y1.1891
X0.7775Y1.3006
X0.7837Y0.5876
X0.7854Y0.8618
X0.7894Y0.4341
X0.8023Y0.826
X0.8031Y1.6073
X0.8091Y0.6703
X0.8127Y1.0699
X0.8152Y0.5264
X0.8237Y1.0244
X0.8291Y0.2726
X0.836Y1.2118
X0.8403Y1.1798
X0.8465Y0.8199
X0.8473Y0.9108
X0.8484Y0.9793
T2
X0.0197Y1.9341
X0.0539Y1.4951
X0.0591Y1.6289
X0.0978Y1.375
X0.1122Y1.7785
X0.1159Y2.0118
X0.1772Y1.4459
X0.1896Y1.5977
X0.2519Y1.5768
X0.2784Y0.6549
X0.2868Y1.5829
X0.3052Y1.8275
X0.309Y1.6885
X0.3169Y1.9766
X0.3222Y1.5831
X0.3268Y1.9311
X0.3404Y1.8229
X0.348Y1.6881
X0.3733Y1.5678
X0.3753Y1.4888
X0.3773Y1.4538
X0.3844Y1.6789
X0.3913Y1.6078
X0.4063Y1.5768
X0.4223Y1.4148
X0.4253Y1.6028
X0.4343Y1.3828
X0.4403Y1.5748
X0.45Y1.7683
X0.4521Y0.5229
X0.4523Y1.5288
X0.4523Y1.4948
X0.4583Y1.4148
X0.4693Y1.5578
X0.4743Y1.3848
X0.4862Y2.0266
X0.4863Y1.4948
X0.4883Y1.5288
X0.4923Y1.7668
X0.4963Y1.4128
X0.5053Y1.7148
X0.521Y1.9519
X0.5223Y1.5188
X0.5223Y1.4848
X0.5243Y1.7888
X0.5354Y2.0423
X0.5354Y1.9104
X0.5383Y1.7308
X0.5483Y1.8128
X0.5513Y1.3108
X0.5606Y1.5188
X0.5623Y1.4848
X0.5663Y1.7578
X0.5743Y1.3828
X0.5893Y1.7758
X0.599Y1.5188
X0.6023Y1.4848
X0.6323Y1.3848
X0.6373Y1.5188
X0.6423Y1.4848
X0.6523Y1.3548
X0.6723Y1.3848
X0.6756Y1.5188
X0.6823Y1.4848
X0.6923Y1.3548
X0.7123Y1.3848
X0.7139Y1.5188
X0.7223Y1.4848
X0.7323Y1.3548
X0.7382Y2.0404
X0.7402Y1.9183
X0.7474Y1.5205
X0.8441Y1.3453
X0.8443Y1.5244
X0.8443Y1.488
X0.8443Y1.4518
X0.8443Y1.4156
X0.8443Y1.3794
T3
X0.1183Y0.0858
X0.127Y0.3775
X0.128Y0.2195
X0.2063Y0.1642
X0.7264Y0.4656
X0.7264Y0.19
X0.7264Y0.0541
X0.7303Y0.3278
T4
X0.8346Y0.7774
X0.8346Y0.7274
T6
X0.3063Y0.3938
X0.3063Y0.2938
X0.3063Y0.1938
X0.3063Y0.0938
X0.5633Y0.4928
X0.5633Y0.3928
X0.5633Y0.2928
X0.5633Y0.1928
X0.5633Y0.0928
T7
X0.1323Y0.5908
X0.7453Y1.7358
T5
G00X0.0631Y1.0482
M15
G01X0.0906Y1.0482
M16
G05
G00X0.0631Y0.7648
M15
G01X0.0906Y0.7648
M16
G05
G00X0.1871Y1.0018
M15
G01X0.195Y1.0018
M16
G05
G00X0.1871Y0.8112
M15
G01X0.195Y0.8112
M16
G05
M30
