%TF.GenerationSoftware,KiCad,Pcbnew,8.0.0*%
%TF.CreationDate,2024-06-24T23:08:17-07:00*%
%TF.ProjectId,lyrav3r2,6c797261-7633-4723-922e-6b696361645f,rev?*%
%TF.SameCoordinates,Original*%
%TF.FileFunction,Soldermask,Top*%
%TF.FilePolarity,Negative*%
%FSLAX46Y46*%
G04 Gerber Fmt 4.6, Leading zero omitted, Abs format (unit mm)*
G04 Created by KiCad (PCBNEW 8.0.0) date 2024-06-24 23:08:17*
%MOMM*%
%LPD*%
G01*
G04 APERTURE LIST*
G04 Aperture macros list*
%AMRoundRect*
0 Rectangle with rounded corners*
0 $1 Rounding radius*
0 $2 $3 $4 $5 $6 $7 $8 $9 X,Y pos of 4 corners*
0 Add a 4 corners polygon primitive as box body*
4,1,4,$2,$3,$4,$5,$6,$7,$8,$9,$2,$3,0*
0 Add four circle primitives for the rounded corners*
1,1,$1+$1,$2,$3*
1,1,$1+$1,$4,$5*
1,1,$1+$1,$6,$7*
1,1,$1+$1,$8,$9*
0 Add four rect primitives between the rounded corners*
20,1,$1+$1,$2,$3,$4,$5,0*
20,1,$1+$1,$4,$5,$6,$7,0*
20,1,$1+$1,$6,$7,$8,$9,0*
20,1,$1+$1,$8,$9,$2,$3,0*%
%AMFreePoly0*
4,1,19,0.000000,0.744911,0.071157,0.744911,0.207708,0.704816,0.327430,0.627875,0.420627,0.520320,0.479746,0.390866,0.500000,0.250000,0.500000,-0.250000,0.479746,-0.390866,0.420627,-0.520320,0.327430,-0.627875,0.207708,-0.704816,0.071157,-0.744911,0.000000,-0.744911,0.000000,-0.750000,-0.500000,-0.750000,-0.500000,0.750000,0.000000,0.750000,0.000000,0.744911,0.000000,0.744911,
$1*%
%AMFreePoly1*
4,1,19,0.500000,-0.750000,0.000000,-0.750000,0.000000,-0.744911,-0.071157,-0.744911,-0.207708,-0.704816,-0.327430,-0.627875,-0.420627,-0.520320,-0.479746,-0.390866,-0.500000,-0.250000,-0.500000,0.250000,-0.479746,0.390866,-0.420627,0.520320,-0.327430,0.627875,-0.207708,0.704816,-0.071157,0.744911,0.000000,0.744911,0.000000,0.750000,0.500000,0.750000,0.500000,-0.750000,0.500000,-0.750000,
$1*%
G04 Aperture macros list end*
%ADD10O,1.000000X1.000000*%
%ADD11R,1.000000X1.000000*%
%ADD12FreePoly0,0.000000*%
%ADD13FreePoly1,0.000000*%
%ADD14C,2.200000*%
%ADD15R,2.200000X2.200000*%
%ADD16R,1.500000X0.800000*%
%ADD17R,0.800000X1.500000*%
%ADD18C,5.600000*%
%ADD19RoundRect,0.492126X-0.632874X-0.257874X0.632874X-0.257874X0.632874X0.257874X-0.632874X0.257874X0*%
%ADD20R,1.500000X1.000000*%
%ADD21R,1.400000X5.000000*%
%ADD22R,1.200000X5.000000*%
%ADD23RoundRect,0.243750X-0.243750X-0.456250X0.243750X-0.456250X0.243750X0.456250X-0.243750X0.456250X0*%
%ADD24RoundRect,0.243750X-0.456250X0.243750X-0.456250X-0.243750X0.456250X-0.243750X0.456250X0.243750X0*%
%ADD25O,1.900000X1.200000*%
%ADD26O,1.400000X1.200000*%
G04 APERTURE END LIST*
D10*
%TO.C,BZ1*%
X21200000Y19745000D03*
D11*
X21200000Y18475000D03*
%TD*%
D12*
%TO.C,J4*%
X2424800Y36366800D03*
D13*
X1124800Y36366800D03*
%TD*%
D11*
%TO.C,TP1*%
X20950000Y21975000D03*
%TD*%
D14*
%TO.C,J6*%
X14307400Y12516200D03*
X14307400Y9976200D03*
X14307400Y7436200D03*
X14307400Y4896200D03*
D15*
X14307400Y2356200D03*
%TD*%
D11*
%TO.C,TP5*%
X1250000Y39175000D03*
%TD*%
D16*
%TO.C,U1*%
X1433400Y43965200D03*
X1433400Y45235200D03*
X1433400Y46505200D03*
X1433400Y47775200D03*
X1433400Y49045200D03*
D17*
X3893400Y51505200D03*
X5163400Y51505200D03*
X6433400Y51505200D03*
X7703400Y51505200D03*
X8973400Y51505200D03*
D16*
X11433400Y49045200D03*
X11433400Y47775200D03*
X11433400Y46505200D03*
X11433400Y45235200D03*
X11433400Y43965200D03*
D17*
X8973400Y41505200D03*
X7703400Y41505200D03*
X6433400Y41505200D03*
X5163400Y41505200D03*
X3893400Y41505200D03*
%TD*%
D11*
%TO.C,TP7*%
X4550000Y37925000D03*
%TD*%
D18*
%TO.C,H1*%
X18930200Y44088400D03*
%TD*%
D14*
%TO.C,J2*%
X7779600Y2381600D03*
X7779600Y4921600D03*
X7779600Y7461600D03*
D15*
X7779600Y10001600D03*
%TD*%
D19*
%TO.C,J5*%
X1200000Y10875000D03*
X1200000Y9125000D03*
X1200000Y7375000D03*
X1200000Y5625000D03*
X1200000Y3875000D03*
%TD*%
D11*
%TO.C,TP9*%
X13266000Y42335800D03*
%TD*%
D20*
%TO.C,J1*%
X20100000Y23725000D03*
X20100000Y25025000D03*
%TD*%
D18*
%TO.C,H2*%
X3360000Y15005400D03*
%TD*%
D11*
%TO.C,TP4*%
X18549200Y32810800D03*
%TD*%
%TO.C,TP8*%
X15100000Y41825000D03*
%TD*%
D21*
%TO.C,AE3*%
X18750000Y50175000D03*
X13650000Y50175000D03*
D22*
X16200000Y50175000D03*
%TD*%
D11*
%TO.C,TP3*%
X4100000Y33575000D03*
%TD*%
%TO.C,TP6*%
X4600000Y39525000D03*
%TD*%
D23*
%TO.C,D2*%
X9257500Y13095000D03*
X7382500Y13095000D03*
%TD*%
D24*
%TO.C,D3*%
X21100000Y13975000D03*
X21100000Y15850000D03*
%TD*%
D25*
%TO.C,J7*%
X1952500Y26625000D03*
X1952500Y19425000D03*
D26*
X4852500Y20605000D03*
X4852500Y25445000D03*
%TD*%
M02*
