%TF.GenerationSoftware,KiCad,Pcbnew,8.0.0*%
%TF.CreationDate,2024-03-26T22:18:36-07:00*%
%TF.ProjectId,recivier,72656369-7669-4657-922e-6b696361645f,rev?*%
%TF.SameCoordinates,Original*%
%TF.FileFunction,Copper,L4,Bot*%
%TF.FilePolarity,Positive*%
%FSLAX46Y46*%
G04 Gerber Fmt 4.6, Leading zero omitted, Abs format (unit mm)*
G04 Created by KiCad (PCBNEW 8.0.0) date 2024-03-26 22:18:36*
%MOMM*%
%LPD*%
G01*
G04 APERTURE LIST*
%TA.AperFunction,ComponentPad*%
%ADD10C,1.800000*%
%TD*%
%TA.AperFunction,ComponentPad*%
%ADD11C,5.600000*%
%TD*%
%TA.AperFunction,ComponentPad*%
%ADD12R,3.000000X3.000000*%
%TD*%
%TA.AperFunction,ComponentPad*%
%ADD13C,3.000000*%
%TD*%
%TA.AperFunction,ComponentPad*%
%ADD14C,1.000000*%
%TD*%
%TA.AperFunction,ComponentPad*%
%ADD15R,1.800000X2.500000*%
%TD*%
%TA.AperFunction,ComponentPad*%
%ADD16O,1.800000X2.500000*%
%TD*%
%TA.AperFunction,SMDPad,CuDef*%
%ADD17R,1.400000X5.000000*%
%TD*%
%TA.AperFunction,ComponentPad*%
%ADD18O,1.400000X1.200000*%
%TD*%
%TA.AperFunction,ComponentPad*%
%ADD19O,1.900000X1.200000*%
%TD*%
%TA.AperFunction,ComponentPad*%
%ADD20C,1.520000*%
%TD*%
%TA.AperFunction,ComponentPad*%
%ADD21O,2.200000X1.400000*%
%TD*%
%TA.AperFunction,SMDPad,CuDef*%
%ADD22R,1.500000X1.000000*%
%TD*%
%TA.AperFunction,SMDPad,CuDef*%
%ADD23R,1.000000X1.000000*%
%TD*%
%TA.AperFunction,ViaPad*%
%ADD24C,0.600000*%
%TD*%
%TA.AperFunction,ViaPad*%
%ADD25C,1.000000*%
%TD*%
%TA.AperFunction,Conductor*%
%ADD26C,1.000000*%
%TD*%
%TA.AperFunction,Conductor*%
%ADD27C,0.200000*%
%TD*%
%TA.AperFunction,Conductor*%
%ADD28C,0.500000*%
%TD*%
%TA.AperFunction,Conductor*%
%ADD29C,0.300000*%
%TD*%
G04 APERTURE END LIST*
D10*
%TO.P,SW2,1,1*%
%TO.N,unconnected-(SW2-Pad1)*%
X22833000Y16037600D03*
%TO.P,SW2,2,2*%
%TO.N,+3.3VA*%
X29333000Y16037600D03*
%TO.P,SW2,3,3*%
%TO.N,/BUTTON2*%
X22833000Y11537600D03*
%TO.P,SW2,4,4*%
%TO.N,unconnected-(SW2-Pad4)*%
X29333000Y11537600D03*
%TD*%
%TO.P,SW3,1,1*%
%TO.N,+3.3VA*%
X32077400Y16073600D03*
%TO.P,SW3,2,2*%
%TO.N,unconnected-(SW3-Pad2)*%
X38577400Y16073600D03*
%TO.P,SW3,3,3*%
%TO.N,/BUTTON3*%
X32077400Y11573600D03*
%TO.P,SW3,4,4*%
%TO.N,unconnected-(SW3-Pad4)*%
X38577400Y11573600D03*
%TD*%
D11*
%TO.P,H1,1,1*%
%TO.N,GND*%
X3000000Y77000000D03*
%TD*%
D12*
%TO.P,J5,1,Pin_1*%
%TO.N,Net-(D3-K)*%
X4491800Y14738000D03*
D13*
%TO.P,J5,2,Pin_2*%
%TO.N,GND*%
X4491800Y9658000D03*
%TD*%
D11*
%TO.P,H4,1,1*%
%TO.N,GND*%
X67000000Y3000000D03*
%TD*%
D12*
%TO.P,J4,1,Pin_1*%
%TO.N,/AUDIOOUT*%
X65451800Y18243200D03*
D13*
%TO.P,J4,2,Pin_2*%
%TO.N,GND*%
X65451800Y23323200D03*
%TD*%
D14*
%TO.P,Card1,*%
%TO.N,*%
X20538600Y76452400D03*
X12538600Y76452400D03*
%TD*%
D15*
%TO.P,DS1,1,VSS*%
%TO.N,GND*%
X51126200Y30054200D03*
D16*
%TO.P,DS1,2,VDD*%
%TO.N,+5V*%
X48586200Y30054200D03*
%TO.P,DS1,3,VO*%
%TO.N,Net-(DS1-VO)*%
X46046200Y30054200D03*
%TO.P,DS1,4,RS*%
%TO.N,/LCD CS 5V*%
X43506200Y30054200D03*
%TO.P,DS1,5,R/~{W}*%
%TO.N,/MOSI 2 5V*%
X40966200Y30054200D03*
%TO.P,DS1,6,E*%
%TO.N,/SCLK 2 5V*%
X38426200Y30054200D03*
%TO.P,DS1,7,DB0*%
%TO.N,unconnected-(DS1-DB0-Pad7)*%
X35886200Y30054200D03*
%TO.P,DS1,8,DB1*%
%TO.N,unconnected-(DS1-DB1-Pad8)*%
X33346200Y30054200D03*
%TO.P,DS1,9,DB2*%
%TO.N,unconnected-(DS1-DB2-Pad9)*%
X30806200Y30054200D03*
%TO.P,DS1,10,DB3*%
%TO.N,unconnected-(DS1-DB3-Pad10)*%
X28266200Y30054200D03*
%TO.P,DS1,11,DB4*%
%TO.N,unconnected-(DS1-DB4-Pad11)*%
X25726200Y30054200D03*
%TO.P,DS1,12,DB5*%
%TO.N,unconnected-(DS1-DB5-Pad12)*%
X23186200Y30054200D03*
%TO.P,DS1,13,DB6*%
%TO.N,unconnected-(DS1-DB6-Pad13)*%
X20646200Y30054200D03*
%TO.P,DS1,14,DB7*%
%TO.N,unconnected-(DS1-DB7-Pad14)*%
X18106200Y30054200D03*
%TO.P,DS1,15,PSB*%
%TO.N,GND*%
X15566200Y30054200D03*
%TO.P,DS1,16,NC*%
%TO.N,unconnected-(DS1-NC-Pad16)*%
X13026200Y30054200D03*
%TO.P,DS1,17,~{RST}*%
%TO.N,unconnected-(DS1-~{RST}-Pad17)*%
X10486200Y30054200D03*
%TO.P,DS1,18,VOUT*%
%TO.N,GND*%
X7946200Y30054200D03*
%TO.P,DS1,19,BLA*%
%TO.N,+3.3VA*%
X5406200Y30054200D03*
%TO.P,DS1,20,BLK*%
%TO.N,GND*%
X2866200Y30054200D03*
%TD*%
D10*
%TO.P,SW5,1,1*%
%TO.N,+3.3VA*%
X32179000Y8961600D03*
%TO.P,SW5,2,2*%
%TO.N,unconnected-(SW5-Pad2)*%
X38679000Y8961600D03*
%TO.P,SW5,3,3*%
%TO.N,/BUTTON5*%
X32179000Y4461600D03*
%TO.P,SW5,4,4*%
%TO.N,unconnected-(SW5-Pad4)*%
X38679000Y4461600D03*
%TD*%
D11*
%TO.P,H2,1,1*%
%TO.N,GND*%
X67000000Y77000000D03*
%TD*%
%TO.P,H3,1,1*%
%TO.N,GND*%
X3000000Y3000000D03*
%TD*%
D10*
%TO.P,SW1,1,1*%
%TO.N,+3.3VA*%
X32052000Y23719000D03*
%TO.P,SW1,2,2*%
%TO.N,unconnected-(SW1-Pad2)*%
X38552000Y23719000D03*
%TO.P,SW1,3,3*%
%TO.N,/BUTTON1*%
X32052000Y19219000D03*
%TO.P,SW1,4,4*%
%TO.N,unconnected-(SW1-Pad4)*%
X38552000Y19219000D03*
%TD*%
D17*
%TO.P,AE1,2,Shield*%
%TO.N,GND*%
X32269400Y77145800D03*
X37369400Y77145800D03*
%TD*%
D18*
%TO.P,J1,6,Shield*%
%TO.N,unconnected-(J1-Shield-Pad6)*%
X6404400Y50608200D03*
%TO.P,J1,7*%
%TO.N,N/C*%
X6404400Y55448200D03*
D19*
%TO.P,J1,8*%
X3504400Y56628200D03*
%TO.P,J1,9*%
X3504400Y49428200D03*
%TD*%
D10*
%TO.P,SW4,1,1*%
%TO.N,+3.3VA*%
X41372600Y16103200D03*
%TO.P,SW4,2,2*%
%TO.N,unconnected-(SW4-Pad2)*%
X47872600Y16103200D03*
%TO.P,SW4,3,3*%
%TO.N,/BUTTON4*%
X41372600Y11603200D03*
%TO.P,SW4,4,4*%
%TO.N,unconnected-(SW4-Pad4)*%
X47872600Y11603200D03*
%TD*%
D20*
%TO.P,SW6,1,A*%
%TO.N,+BATT*%
X2815400Y24698000D03*
%TO.P,SW6,2,B*%
%TO.N,Net-(Q1-S)*%
X2815400Y22698000D03*
%TO.P,SW6,3,C*%
%TO.N,unconnected-(SW6-C-Pad3)*%
X2815400Y20698000D03*
D21*
%TO.P,SW6,4*%
%TO.N,N/C*%
X2815400Y18548000D03*
%TO.P,SW6,5*%
X2815400Y26848000D03*
%TD*%
D22*
%TO.P,J2,1,Pin_1*%
%TO.N,/SWCLK*%
X27580400Y53127800D03*
%TO.P,J2,2,Pin_2*%
%TO.N,/SWD*%
X27580400Y54427800D03*
%TD*%
D23*
%TO.P,TP1,1,1*%
%TO.N,/RUN*%
X23795800Y56673400D03*
%TD*%
D24*
%TO.N,GND*%
X61692600Y9525800D03*
X51659600Y8932400D03*
D25*
X10816400Y11842400D03*
D24*
X12421800Y54819200D03*
X33066800Y75444000D03*
X42896600Y9073800D03*
X7997000Y23374000D03*
D25*
X16208917Y5432200D03*
D24*
X36445000Y75215400D03*
D25*
X13205718Y5603400D03*
X6117400Y48672400D03*
D24*
X21155200Y9658000D03*
X29460000Y45776800D03*
X28508700Y42509388D03*
X19777388Y53898855D03*
X7565200Y20122800D03*
X36597400Y77755400D03*
X29506701Y43723845D03*
X18690400Y64014000D03*
X61692600Y14132400D03*
X14194600Y46869000D03*
X20144108Y50852200D03*
X9546400Y25202800D03*
X60651200Y56114600D03*
X11682600Y51923600D03*
D25*
X14651800Y15957200D03*
D24*
X40214300Y68596100D03*
X33792800Y1757400D03*
X38426200Y67440400D03*
D25*
X7235000Y2744800D03*
D24*
X39620000Y35069200D03*
X16858820Y50864420D03*
X54284753Y14216207D03*
X19274600Y50780600D03*
D25*
X4880912Y51662631D03*
D24*
X62983600Y10173800D03*
X52734392Y11247312D03*
X16800400Y53879561D03*
X11502200Y38741000D03*
X23587400Y52355400D03*
X43187700Y10166000D03*
X57425400Y56165400D03*
X36597400Y76409200D03*
X27033400Y51223400D03*
X32762000Y77577600D03*
X59152600Y70618000D03*
X26335800Y43846400D03*
X66772600Y68408200D03*
X18937514Y58520714D03*
X14169200Y57206800D03*
X18817400Y45903800D03*
D25*
X2713800Y43236800D03*
D24*
X67306000Y14763400D03*
X29561600Y62845600D03*
%TO.N,+3.3VA*%
X61692600Y8282400D03*
D25*
X14397800Y22866000D03*
D24*
X22444902Y43154214D03*
X13635800Y2749200D03*
X27961400Y46234000D03*
X26818400Y49423400D03*
X61311600Y68357400D03*
X15058200Y56075800D03*
X51822595Y8098172D03*
X43125200Y35108800D03*
X15159800Y47961200D03*
X54987000Y10191400D03*
X9952800Y39274400D03*
X59053000Y68433600D03*
X22824961Y51547741D03*
D25*
X12492800Y22866000D03*
D24*
X61718000Y12832400D03*
X13991400Y55454200D03*
X26361200Y43008200D03*
X38197600Y33534000D03*
X13508800Y52266200D03*
X19762587Y57713488D03*
X16658400Y66503200D03*
X23084600Y55088200D03*
X25421400Y49423400D03*
D25*
X38807200Y66253000D03*
D24*
X18233201Y47351601D03*
%TO.N,+1V1*%
X15476130Y52848855D03*
X20140945Y52102200D03*
D25*
%TO.N,+5V*%
X48865600Y24009000D03*
X18385600Y11715400D03*
D24*
%TO.N,/MOSI*%
X25065800Y70719600D03*
X17649000Y54489000D03*
X38807200Y37750400D03*
X25751600Y68840000D03*
%TO.N,/MISO*%
X15083600Y63810800D03*
X19884200Y63937800D03*
%TO.N,VBUS*%
X2612200Y51009200D03*
X800000Y41204800D03*
%TO.N,/SWD*%
X24818504Y54502857D03*
X20468400Y54438200D03*
X26666000Y54438200D03*
%TO.N,/SWCLK*%
X20265200Y53219000D03*
%TO.N,/RUN*%
X24151400Y53828600D03*
%TO.N,/SDA*%
X25294400Y42652600D03*
X32889000Y43160600D03*
%TO.N,/QSPI_SD3*%
X15490000Y51237800D03*
X8682800Y41331800D03*
%TO.N,/QSPI_SCLK*%
X11730800Y50450400D03*
X7387400Y42007200D03*
%TO.N,/QSPI_SDO*%
X12391200Y49891600D03*
X6117400Y41357200D03*
%TO.N,/LCD CS*%
X41321800Y43770200D03*
X42007600Y36734400D03*
%TO.N,/BATT SENSE*%
X12899200Y38029800D03*
X15794800Y54514400D03*
%TO.N,/SCLK*%
X17725200Y66452400D03*
X17750600Y62744000D03*
X40639892Y37029317D03*
X18944775Y54566200D03*
%TO.N,unconnected-(U3-GPIO7-Pad9)*%
X18396232Y49544807D03*
%TD*%
D26*
%TO.N,+5V*%
X21107800Y14437600D02*
X24547200Y14437600D01*
X32228600Y22119000D02*
X40905000Y22119000D01*
X18385600Y11715400D02*
X21107800Y14437600D01*
X24547200Y14437600D02*
X32228600Y22119000D01*
X48586200Y24288400D02*
X48865600Y24009000D01*
X48586200Y30054200D02*
X48586200Y24288400D01*
X40905000Y22119000D02*
X48586200Y29800200D01*
X48586200Y29800200D02*
X48586200Y30054200D01*
D27*
%TO.N,/MOSI*%
X22397920Y43821880D02*
X21611400Y44608400D01*
X23094902Y43423453D02*
X22714141Y43804214D01*
X25751600Y68840000D02*
X25751600Y70033800D01*
X22714141Y43804214D02*
X22611305Y43804214D01*
X21611400Y44608400D02*
X21611400Y47248878D01*
X28665119Y37750400D02*
X23094902Y43320617D01*
X22593639Y43821880D02*
X22397920Y43821880D01*
X38807200Y37750400D02*
X28665119Y37750400D01*
X18412593Y50194807D02*
X17649000Y50958400D01*
X18665471Y50194807D02*
X18412593Y50194807D01*
X22611305Y43804214D02*
X22593639Y43821880D01*
X21611400Y47248878D02*
X18665471Y50194807D01*
X17649000Y50958400D02*
X17649000Y54489000D01*
X25751600Y70033800D02*
X25065800Y70719600D01*
X23094902Y43320617D02*
X23094902Y43423453D01*
%TO.N,/MISO*%
X17293400Y61601000D02*
X15083600Y63810800D01*
X19884200Y63937800D02*
X19884200Y62972600D01*
X18512600Y61601000D02*
X17293400Y61601000D01*
X19884200Y62972600D02*
X18512600Y61601000D01*
D28*
%TO.N,VBUS*%
X800000Y41204800D02*
X800000Y49197000D01*
X800000Y49197000D02*
X2612200Y51009200D01*
D27*
%TO.N,/SWD*%
X25086600Y54417400D02*
X25001143Y54502857D01*
X20468400Y54438200D02*
X24753847Y54438200D01*
X25001143Y54502857D02*
X24818504Y54502857D01*
X24753847Y54438200D02*
X24818504Y54502857D01*
%TO.N,/SWCLK*%
X25142000Y53092000D02*
X25177800Y53127800D01*
X20265200Y53219000D02*
X20392200Y53092000D01*
X20392200Y53092000D02*
X25142000Y53092000D01*
X25177800Y53127800D02*
X27580400Y53127800D01*
%TO.N,/RUN*%
X25063486Y53828600D02*
X25546086Y54311200D01*
X25929400Y54311200D02*
X23795800Y56444800D01*
X23795800Y56444800D02*
X23795800Y56673400D01*
X24151400Y53828600D02*
X25063486Y53828600D01*
X25546086Y54311200D02*
X25929400Y54311200D01*
D29*
%TO.N,/SDA*%
X31587788Y41859388D02*
X32889000Y43160600D01*
X25294400Y42652600D02*
X26087612Y41859388D01*
X26087612Y41859388D02*
X31587788Y41859388D01*
D27*
%TO.N,/QSPI_SD3*%
X11502200Y40646000D02*
X10638600Y40646000D01*
X14880400Y51212400D02*
X13356400Y49688400D01*
X15464600Y51212400D02*
X14880400Y51212400D01*
X13204000Y49536000D02*
X13204000Y42347800D01*
X10638600Y40646000D02*
X9368600Y40646000D01*
X13356400Y49688400D02*
X13204000Y49536000D01*
X9368600Y40646000D02*
X8682800Y41331800D01*
X15490000Y51237800D02*
X15464600Y51212400D01*
X13204000Y42347800D02*
X11502200Y40646000D01*
%TO.N,/QSPI_SCLK*%
X11730800Y46843600D02*
X7387400Y42500200D01*
X11730800Y50450400D02*
X11730800Y46843600D01*
X7387400Y42500200D02*
X7387400Y42007200D01*
%TO.N,/QSPI_SDO*%
X6117400Y41357200D02*
X7788961Y41357200D01*
X7788961Y41357200D02*
X12391200Y45959439D01*
X12391200Y45959439D02*
X12391200Y49891600D01*
%TO.N,/LCD CS*%
X41321800Y43770200D02*
X42007600Y43084400D01*
X42007600Y43084400D02*
X42007600Y36734400D01*
%TO.N,/BATT SENSE*%
X16090000Y41220600D02*
X16090000Y54219200D01*
X12899200Y38029800D02*
X16090000Y41220600D01*
X16090000Y54219200D02*
X15794800Y54514400D01*
%TO.N,/SCLK*%
X17750600Y66427000D02*
X17725200Y66452400D01*
X19868961Y51502200D02*
X20762800Y51502200D01*
X17750600Y62744000D02*
X17750600Y66427000D01*
X24507000Y47758000D02*
X29911209Y47758000D01*
X18944775Y54566200D02*
X18944775Y52426386D01*
X29911209Y47758000D02*
X40639892Y37029317D01*
X18944775Y52426386D02*
X19868961Y51502200D01*
X20762800Y51502200D02*
X24507000Y47758000D01*
%TD*%
M02*
