%TF.GenerationSoftware,KiCad,Pcbnew,8.0.0*%
%TF.CreationDate,2024-03-26T22:18:36-07:00*%
%TF.ProjectId,recivier,72656369-7669-4657-922e-6b696361645f,rev?*%
%TF.SameCoordinates,Original*%
%TF.FileFunction,Copper,L2,Inr*%
%TF.FilePolarity,Positive*%
%FSLAX46Y46*%
G04 Gerber Fmt 4.6, Leading zero omitted, Abs format (unit mm)*
G04 Created by KiCad (PCBNEW 8.0.0) date 2024-03-26 22:18:36*
%MOMM*%
%LPD*%
G01*
G04 APERTURE LIST*
%TA.AperFunction,ComponentPad*%
%ADD10C,1.800000*%
%TD*%
%TA.AperFunction,ComponentPad*%
%ADD11C,5.600000*%
%TD*%
%TA.AperFunction,ComponentPad*%
%ADD12R,3.000000X3.000000*%
%TD*%
%TA.AperFunction,ComponentPad*%
%ADD13C,3.000000*%
%TD*%
%TA.AperFunction,ComponentPad*%
%ADD14C,1.000000*%
%TD*%
%TA.AperFunction,ComponentPad*%
%ADD15R,1.800000X2.500000*%
%TD*%
%TA.AperFunction,ComponentPad*%
%ADD16O,1.800000X2.500000*%
%TD*%
%TA.AperFunction,ComponentPad*%
%ADD17O,1.400000X1.200000*%
%TD*%
%TA.AperFunction,ComponentPad*%
%ADD18O,1.900000X1.200000*%
%TD*%
%TA.AperFunction,ComponentPad*%
%ADD19C,1.520000*%
%TD*%
%TA.AperFunction,ComponentPad*%
%ADD20O,2.200000X1.400000*%
%TD*%
%TA.AperFunction,ViaPad*%
%ADD21C,0.600000*%
%TD*%
%TA.AperFunction,ViaPad*%
%ADD22C,1.000000*%
%TD*%
%TA.AperFunction,Conductor*%
%ADD23C,1.000000*%
%TD*%
G04 APERTURE END LIST*
D10*
%TO.N,unconnected-(SW2-Pad1)*%
%TO.C,SW2*%
X22833000Y16037600D03*
%TO.N,+3.3VA*%
X29333000Y16037600D03*
%TO.N,/BUTTON2*%
X22833000Y11537600D03*
%TO.N,unconnected-(SW2-Pad4)*%
X29333000Y11537600D03*
%TD*%
%TO.N,+3.3VA*%
%TO.C,SW3*%
X32077400Y16073600D03*
%TO.N,unconnected-(SW3-Pad2)*%
X38577400Y16073600D03*
%TO.N,/BUTTON3*%
X32077400Y11573600D03*
%TO.N,unconnected-(SW3-Pad4)*%
X38577400Y11573600D03*
%TD*%
D11*
%TO.N,GND*%
%TO.C,H1*%
X3000000Y77000000D03*
%TD*%
D12*
%TO.N,Net-(D3-K)*%
%TO.C,J5*%
X4491800Y14738000D03*
D13*
%TO.N,GND*%
X4491800Y9658000D03*
%TD*%
D11*
%TO.N,GND*%
%TO.C,H4*%
X67000000Y3000000D03*
%TD*%
D12*
%TO.N,/AUDIOOUT*%
%TO.C,J4*%
X65451800Y18243200D03*
D13*
%TO.N,GND*%
X65451800Y23323200D03*
%TD*%
D14*
%TO.N,*%
%TO.C,Card1*%
X20538600Y76452400D03*
X12538600Y76452400D03*
%TD*%
D15*
%TO.N,GND*%
%TO.C,DS1*%
X51126200Y30054200D03*
D16*
%TO.N,+5V*%
X48586200Y30054200D03*
%TO.N,Net-(DS1-VO)*%
X46046200Y30054200D03*
%TO.N,/LCD CS 5V*%
X43506200Y30054200D03*
%TO.N,/MOSI 2 5V*%
X40966200Y30054200D03*
%TO.N,/SCLK 2 5V*%
X38426200Y30054200D03*
%TO.N,unconnected-(DS1-DB0-Pad7)*%
X35886200Y30054200D03*
%TO.N,unconnected-(DS1-DB1-Pad8)*%
X33346200Y30054200D03*
%TO.N,unconnected-(DS1-DB2-Pad9)*%
X30806200Y30054200D03*
%TO.N,unconnected-(DS1-DB3-Pad10)*%
X28266200Y30054200D03*
%TO.N,unconnected-(DS1-DB4-Pad11)*%
X25726200Y30054200D03*
%TO.N,unconnected-(DS1-DB5-Pad12)*%
X23186200Y30054200D03*
%TO.N,unconnected-(DS1-DB6-Pad13)*%
X20646200Y30054200D03*
%TO.N,unconnected-(DS1-DB7-Pad14)*%
X18106200Y30054200D03*
%TO.N,GND*%
X15566200Y30054200D03*
%TO.N,unconnected-(DS1-NC-Pad16)*%
X13026200Y30054200D03*
%TO.N,unconnected-(DS1-~{RST}-Pad17)*%
X10486200Y30054200D03*
%TO.N,GND*%
X7946200Y30054200D03*
%TO.N,+3.3VA*%
X5406200Y30054200D03*
%TO.N,GND*%
X2866200Y30054200D03*
%TD*%
D10*
%TO.N,+3.3VA*%
%TO.C,SW5*%
X32179000Y8961600D03*
%TO.N,unconnected-(SW5-Pad2)*%
X38679000Y8961600D03*
%TO.N,/BUTTON5*%
X32179000Y4461600D03*
%TO.N,unconnected-(SW5-Pad4)*%
X38679000Y4461600D03*
%TD*%
D11*
%TO.N,GND*%
%TO.C,H2*%
X67000000Y77000000D03*
%TD*%
%TO.N,GND*%
%TO.C,H3*%
X3000000Y3000000D03*
%TD*%
D10*
%TO.N,+3.3VA*%
%TO.C,SW1*%
X32052000Y23719000D03*
%TO.N,unconnected-(SW1-Pad2)*%
X38552000Y23719000D03*
%TO.N,/BUTTON1*%
X32052000Y19219000D03*
%TO.N,unconnected-(SW1-Pad4)*%
X38552000Y19219000D03*
%TD*%
D17*
%TO.N,unconnected-(J1-Shield-Pad6)*%
%TO.C,J1*%
X6404400Y50608200D03*
%TO.N,N/C*%
X6404400Y55448200D03*
D18*
X3504400Y56628200D03*
X3504400Y49428200D03*
%TD*%
D10*
%TO.N,+3.3VA*%
%TO.C,SW4*%
X41372600Y16103200D03*
%TO.N,unconnected-(SW4-Pad2)*%
X47872600Y16103200D03*
%TO.N,/BUTTON4*%
X41372600Y11603200D03*
%TO.N,unconnected-(SW4-Pad4)*%
X47872600Y11603200D03*
%TD*%
D19*
%TO.N,+BATT*%
%TO.C,SW6*%
X2815400Y24698000D03*
%TO.N,Net-(Q1-S)*%
X2815400Y22698000D03*
%TO.N,unconnected-(SW6-C-Pad3)*%
X2815400Y20698000D03*
D20*
%TO.N,N/C*%
X2815400Y18548000D03*
X2815400Y26848000D03*
%TD*%
D21*
%TO.N,GND*%
X61692600Y9525800D03*
X51659600Y8932400D03*
D22*
X10816400Y11842400D03*
D21*
X12421800Y54819200D03*
X33066800Y75444000D03*
X42896600Y9073800D03*
X7997000Y23374000D03*
D22*
X16208917Y5432200D03*
D21*
X36445000Y75215400D03*
D22*
X13205718Y5603400D03*
X6117400Y48672400D03*
D21*
X21155200Y9658000D03*
X29460000Y45776800D03*
X28508700Y42509388D03*
X19777388Y53898855D03*
X7565200Y20122800D03*
X36597400Y77755400D03*
X29506701Y43723845D03*
X18690400Y64014000D03*
X61692600Y14132400D03*
X14194600Y46869000D03*
X20144108Y50852200D03*
X9546400Y25202800D03*
X60651200Y56114600D03*
X11682600Y51923600D03*
D22*
X14651800Y15957200D03*
D21*
X40214300Y68596100D03*
X33792800Y1757400D03*
X38426200Y67440400D03*
D22*
X7235000Y2744800D03*
D21*
X39620000Y35069200D03*
X16858820Y50864420D03*
X54284753Y14216207D03*
X19274600Y50780600D03*
D22*
X4880912Y51662631D03*
D21*
X62983600Y10173800D03*
X52734392Y11247312D03*
X16800400Y53879561D03*
X11502200Y38741000D03*
X23587400Y52355400D03*
X43187700Y10166000D03*
X57425400Y56165400D03*
X36597400Y76409200D03*
X27033400Y51223400D03*
X32762000Y77577600D03*
X59152600Y70618000D03*
X26335800Y43846400D03*
X66772600Y68408200D03*
X18937514Y58520714D03*
X14169200Y57206800D03*
X18817400Y45903800D03*
D22*
X2713800Y43236800D03*
D21*
X67306000Y14763400D03*
X29561600Y62845600D03*
%TO.N,+3.3VA*%
X61692600Y8282400D03*
D22*
X14397800Y22866000D03*
D21*
X22444902Y43154214D03*
X13635800Y2749200D03*
X27961400Y46234000D03*
X26818400Y49423400D03*
X61311600Y68357400D03*
X15058200Y56075800D03*
X51822595Y8098172D03*
X43125200Y35108800D03*
X15159800Y47961200D03*
X54987000Y10191400D03*
X9952800Y39274400D03*
X59053000Y68433600D03*
X22824961Y51547741D03*
D22*
X12492800Y22866000D03*
D21*
X61718000Y12832400D03*
X13991400Y55454200D03*
X26361200Y43008200D03*
X38197600Y33534000D03*
X13508800Y52266200D03*
X19762587Y57713488D03*
X16658400Y66503200D03*
X23084600Y55088200D03*
X25421400Y49423400D03*
D22*
X38807200Y66253000D03*
D21*
X18233201Y47351601D03*
%TO.N,+1V1*%
X15476130Y52848855D03*
X20140945Y52102200D03*
D22*
%TO.N,+5V*%
X48865600Y24009000D03*
X18385600Y11715400D03*
D21*
%TO.N,/MOSI*%
X25065800Y70719600D03*
X17649000Y54489000D03*
X38807200Y37750400D03*
X25751600Y68840000D03*
%TO.N,/MISO*%
X15083600Y63810800D03*
X19884200Y63937800D03*
%TO.N,VBUS*%
X2612200Y51009200D03*
X800000Y41204800D03*
%TO.N,/SWD*%
X24818504Y54502857D03*
X20468400Y54438200D03*
X26666000Y54438200D03*
%TO.N,/SWCLK*%
X20265200Y53219000D03*
%TO.N,/RUN*%
X24151400Y53828600D03*
%TO.N,/SDA*%
X25294400Y42652600D03*
X32889000Y43160600D03*
%TO.N,/QSPI_SD3*%
X15490000Y51237800D03*
X8682800Y41331800D03*
%TO.N,/QSPI_SCLK*%
X11730800Y50450400D03*
X7387400Y42007200D03*
%TO.N,/QSPI_SDO*%
X12391200Y49891600D03*
X6117400Y41357200D03*
%TO.N,/LCD CS*%
X41321800Y43770200D03*
X42007600Y36734400D03*
%TO.N,/BATT SENSE*%
X12899200Y38029800D03*
X15794800Y54514400D03*
%TO.N,/SCLK*%
X17725200Y66452400D03*
X17750600Y62744000D03*
X40639892Y37029317D03*
X18944775Y54566200D03*
%TO.N,unconnected-(U3-GPIO7-Pad9)*%
X18396232Y49544807D03*
%TD*%
D23*
%TO.N,+1V1*%
X16222785Y52102200D02*
X15476130Y52848855D01*
X20140945Y52102200D02*
X16222785Y52102200D01*
%TD*%
%TA.AperFunction,Conductor*%
%TO.N,GND*%
G36*
X64869731Y79479815D02*
G01*
X64890373Y79463181D01*
X66059301Y78294252D01*
X65957670Y78220412D01*
X65779588Y78042330D01*
X65705748Y77940699D01*
X64496442Y79150005D01*
X64496441Y79150004D01*
X64369033Y79000008D01*
X64168218Y78703828D01*
X64000606Y78387678D01*
X64000597Y78387660D01*
X63868149Y78055240D01*
X63868147Y78055233D01*
X63772421Y77710458D01*
X63772415Y77710432D01*
X63714527Y77357332D01*
X63714526Y77357315D01*
X63695153Y77000003D01*
X63695153Y76999998D01*
X63714526Y76642686D01*
X63714527Y76642669D01*
X63772415Y76289569D01*
X63772421Y76289543D01*
X63868147Y75944768D01*
X63868149Y75944761D01*
X64000597Y75612341D01*
X64000606Y75612323D01*
X64168218Y75296173D01*
X64369024Y75000006D01*
X64369035Y74999992D01*
X64496441Y74849998D01*
X64496442Y74849998D01*
X65705747Y76059303D01*
X65779588Y75957670D01*
X65957670Y75779588D01*
X66059300Y75705749D01*
X64847257Y74493706D01*
X64860495Y74481164D01*
X65145367Y74264612D01*
X65145370Y74264610D01*
X65451990Y74080124D01*
X65776739Y73929878D01*
X65776744Y73929877D01*
X66115855Y73815617D01*
X66465339Y73738689D01*
X66821075Y73700001D01*
X66821085Y73700000D01*
X67178915Y73700000D01*
X67178924Y73700001D01*
X67534660Y73738689D01*
X67884144Y73815617D01*
X68223255Y73929877D01*
X68223260Y73929878D01*
X68548009Y74080124D01*
X68854629Y74264610D01*
X68854632Y74264612D01*
X69139509Y74481169D01*
X69152742Y74493705D01*
X69152742Y74493706D01*
X67940699Y75705749D01*
X68042330Y75779588D01*
X68220412Y75957670D01*
X68294251Y76059302D01*
X69463181Y74890373D01*
X69496666Y74829050D01*
X69499500Y74802692D01*
X69499500Y5197309D01*
X69479815Y5130270D01*
X69463181Y5109628D01*
X68294251Y3940699D01*
X68220412Y4042330D01*
X68042330Y4220412D01*
X67940698Y4294252D01*
X69152742Y5506296D01*
X69139504Y5518837D01*
X68854632Y5735389D01*
X68854629Y5735391D01*
X68548009Y5919877D01*
X68223260Y6070123D01*
X68223255Y6070124D01*
X67884144Y6184384D01*
X67534660Y6261312D01*
X67178924Y6300000D01*
X66821075Y6300000D01*
X66465339Y6261312D01*
X66115855Y6184384D01*
X65776744Y6070124D01*
X65776739Y6070123D01*
X65451990Y5919877D01*
X65145370Y5735391D01*
X65145367Y5735389D01*
X64860486Y5518830D01*
X64860485Y5518829D01*
X64847257Y5506298D01*
X64847256Y5506297D01*
X66059301Y4294252D01*
X65957670Y4220412D01*
X65779588Y4042330D01*
X65705748Y3940699D01*
X64496442Y5150005D01*
X64496441Y5150004D01*
X64369033Y5000008D01*
X64168218Y4703828D01*
X64000606Y4387678D01*
X64000597Y4387660D01*
X63868149Y4055240D01*
X63868147Y4055233D01*
X63772421Y3710458D01*
X63772415Y3710432D01*
X63714527Y3357332D01*
X63714526Y3357315D01*
X63695153Y3000003D01*
X63695153Y2999998D01*
X63714526Y2642686D01*
X63714527Y2642669D01*
X63772415Y2289569D01*
X63772421Y2289543D01*
X63868147Y1944768D01*
X63868149Y1944761D01*
X64000597Y1612341D01*
X64000606Y1612323D01*
X64168218Y1296173D01*
X64369024Y1000006D01*
X64369035Y999992D01*
X64496441Y849998D01*
X64496442Y849998D01*
X65705747Y2059303D01*
X65779588Y1957670D01*
X65957670Y1779588D01*
X66059301Y1705749D01*
X64890373Y536819D01*
X64829050Y503334D01*
X64802692Y500500D01*
X5197308Y500500D01*
X5130269Y520185D01*
X5109627Y536819D01*
X3940698Y1705749D01*
X4042330Y1779588D01*
X4220412Y1957670D01*
X4294251Y2059302D01*
X5503556Y849998D01*
X5630972Y1000002D01*
X5630975Y1000006D01*
X5831781Y1296173D01*
X5999393Y1612323D01*
X5999402Y1612341D01*
X6131850Y1944761D01*
X6131852Y1944768D01*
X6227578Y2289543D01*
X6227584Y2289569D01*
X6285472Y2642669D01*
X6285473Y2642686D01*
X6291248Y2749197D01*
X12830235Y2749197D01*
X12850430Y2569951D01*
X12850431Y2569946D01*
X12910011Y2399677D01*
X12979197Y2289569D01*
X13005984Y2246938D01*
X13133538Y2119384D01*
X13286278Y2023411D01*
X13456545Y1963832D01*
X13456550Y1963831D01*
X13635796Y1943635D01*
X13635800Y1943635D01*
X13635804Y1943635D01*
X13815049Y1963831D01*
X13815052Y1963832D01*
X13815055Y1963832D01*
X13985322Y2023411D01*
X14138062Y2119384D01*
X14265616Y2246938D01*
X14361589Y2399678D01*
X14421168Y2569945D01*
X14441365Y2749200D01*
X14421168Y2928455D01*
X14361589Y3098722D01*
X14344497Y3125923D01*
X14265615Y3251463D01*
X14138062Y3379016D01*
X13985323Y3474989D01*
X13815054Y3534569D01*
X13815049Y3534570D01*
X13635804Y3554765D01*
X13635796Y3554765D01*
X13456550Y3534570D01*
X13456545Y3534569D01*
X13286276Y3474989D01*
X13133537Y3379016D01*
X13005984Y3251463D01*
X12910011Y3098724D01*
X12850431Y2928455D01*
X12850430Y2928450D01*
X12830235Y2749204D01*
X12830235Y2749197D01*
X6291248Y2749197D01*
X6304847Y2999998D01*
X6304847Y3000003D01*
X6285473Y3357315D01*
X6285472Y3357332D01*
X6227584Y3710432D01*
X6227578Y3710458D01*
X6131852Y4055233D01*
X6131850Y4055240D01*
X5999402Y4387660D01*
X5999393Y4387678D01*
X5960205Y4461594D01*
X30773700Y4461594D01*
X30792864Y4230303D01*
X30792866Y4230292D01*
X30849842Y4005300D01*
X30943075Y3792752D01*
X31070016Y3598453D01*
X31070019Y3598449D01*
X31070021Y3598447D01*
X31227216Y3427687D01*
X31227219Y3427685D01*
X31227222Y3427682D01*
X31410365Y3285136D01*
X31410371Y3285132D01*
X31410374Y3285130D01*
X31614497Y3174664D01*
X31728487Y3135532D01*
X31834015Y3099303D01*
X31834017Y3099303D01*
X31834019Y3099302D01*
X32062951Y3061100D01*
X32062952Y3061100D01*
X32295048Y3061100D01*
X32295049Y3061100D01*
X32523981Y3099302D01*
X32743503Y3174664D01*
X32947626Y3285130D01*
X33130784Y3427687D01*
X33287979Y3598447D01*
X33414924Y3792751D01*
X33508157Y4005300D01*
X33565134Y4230295D01*
X33576581Y4368443D01*
X33584300Y4461594D01*
X37273700Y4461594D01*
X37292864Y4230303D01*
X37292866Y4230292D01*
X37349842Y4005300D01*
X37443075Y3792752D01*
X37570016Y3598453D01*
X37570019Y3598449D01*
X37570021Y3598447D01*
X37727216Y3427687D01*
X37727219Y3427685D01*
X37727222Y3427682D01*
X37910365Y3285136D01*
X37910371Y3285132D01*
X37910374Y3285130D01*
X38114497Y3174664D01*
X38228487Y3135532D01*
X38334015Y3099303D01*
X38334017Y3099303D01*
X38334019Y3099302D01*
X38562951Y3061100D01*
X38562952Y3061100D01*
X38795048Y3061100D01*
X38795049Y3061100D01*
X39023981Y3099302D01*
X39243503Y3174664D01*
X39447626Y3285130D01*
X39630784Y3427687D01*
X39787979Y3598447D01*
X39914924Y3792751D01*
X40008157Y4005300D01*
X40065134Y4230295D01*
X40076581Y4368443D01*
X40084300Y4461594D01*
X40084300Y4461607D01*
X40065135Y4692898D01*
X40065133Y4692909D01*
X40008157Y4917901D01*
X39914924Y5130449D01*
X39787983Y5324748D01*
X39787980Y5324751D01*
X39787979Y5324753D01*
X39630784Y5495513D01*
X39630779Y5495517D01*
X39630777Y5495519D01*
X39447634Y5638065D01*
X39447628Y5638069D01*
X39243504Y5748536D01*
X39243495Y5748539D01*
X39023984Y5823898D01*
X38852282Y5852550D01*
X38795049Y5862100D01*
X38562951Y5862100D01*
X38517164Y5854460D01*
X38334015Y5823898D01*
X38114504Y5748539D01*
X38114495Y5748536D01*
X37910371Y5638069D01*
X37910365Y5638065D01*
X37727222Y5495519D01*
X37727219Y5495516D01*
X37570016Y5324748D01*
X37443075Y5130449D01*
X37349842Y4917901D01*
X37292866Y4692909D01*
X37292864Y4692898D01*
X37273700Y4461607D01*
X37273700Y4461594D01*
X33584300Y4461594D01*
X33584300Y4461607D01*
X33565135Y4692898D01*
X33565133Y4692909D01*
X33508157Y4917901D01*
X33414924Y5130449D01*
X33287983Y5324748D01*
X33287980Y5324751D01*
X33287979Y5324753D01*
X33130784Y5495513D01*
X33130779Y5495517D01*
X33130777Y5495519D01*
X32947634Y5638065D01*
X32947628Y5638069D01*
X32743504Y5748536D01*
X32743495Y5748539D01*
X32523984Y5823898D01*
X32352282Y5852550D01*
X32295049Y5862100D01*
X32062951Y5862100D01*
X32017164Y5854460D01*
X31834015Y5823898D01*
X31614504Y5748539D01*
X31614495Y5748536D01*
X31410371Y5638069D01*
X31410365Y5638065D01*
X31227222Y5495519D01*
X31227219Y5495516D01*
X31070016Y5324748D01*
X30943075Y5130449D01*
X30849842Y4917901D01*
X30792866Y4692909D01*
X30792864Y4692898D01*
X30773700Y4461607D01*
X30773700Y4461594D01*
X5960205Y4461594D01*
X5831781Y4703828D01*
X5630975Y4999995D01*
X5630964Y5000009D01*
X5503556Y5150004D01*
X4294251Y3940699D01*
X4220412Y4042330D01*
X4042330Y4220412D01*
X3940698Y4294252D01*
X5152742Y5506296D01*
X5139504Y5518837D01*
X4854632Y5735389D01*
X4854629Y5735391D01*
X4548009Y5919877D01*
X4223260Y6070123D01*
X4223255Y6070124D01*
X3884144Y6184384D01*
X3534660Y6261312D01*
X3178924Y6300000D01*
X2821075Y6300000D01*
X2465339Y6261312D01*
X2115855Y6184384D01*
X1776744Y6070124D01*
X1776739Y6070123D01*
X1451990Y5919877D01*
X1145370Y5735391D01*
X1145367Y5735389D01*
X860486Y5518830D01*
X860485Y5518829D01*
X847257Y5506298D01*
X847256Y5506297D01*
X2059301Y4294252D01*
X1957670Y4220412D01*
X1779588Y4042330D01*
X1705748Y3940699D01*
X536819Y5109628D01*
X503334Y5170951D01*
X500500Y5197309D01*
X500500Y9657999D01*
X2486691Y9657999D01*
X2507100Y9372638D01*
X2567909Y9093105D01*
X2667891Y8825042D01*
X2804991Y8573962D01*
X2804996Y8573954D01*
X2911682Y8431439D01*
X2911683Y8431438D01*
X3806567Y9326323D01*
X3818297Y9298005D01*
X3901470Y9173528D01*
X4007328Y9067670D01*
X4131805Y8984497D01*
X4160120Y8972769D01*
X3265236Y8077885D01*
X3407760Y7971193D01*
X3407761Y7971192D01*
X3658842Y7834092D01*
X3658841Y7834092D01*
X3926904Y7734110D01*
X4206437Y7673301D01*
X4491799Y7652891D01*
X4491801Y7652891D01*
X4777162Y7673301D01*
X5056695Y7734110D01*
X5324758Y7834092D01*
X5575847Y7971197D01*
X5718361Y8077884D01*
X5718362Y8077885D01*
X4823479Y8972769D01*
X4851795Y8984497D01*
X4976272Y9067670D01*
X5082130Y9173528D01*
X5165303Y9298005D01*
X5177031Y9326322D01*
X6071915Y8431438D01*
X6071916Y8431439D01*
X6178603Y8573953D01*
X6315708Y8825042D01*
X6415690Y9093105D01*
X6476499Y9372638D01*
X6496909Y9657999D01*
X6496909Y9658002D01*
X6476499Y9943363D01*
X6415690Y10222896D01*
X6315708Y10490959D01*
X6178608Y10742039D01*
X6178607Y10742040D01*
X6071915Y10884564D01*
X5177031Y9989680D01*
X5165303Y10017995D01*
X5082130Y10142472D01*
X4976272Y10248330D01*
X4851795Y10331503D01*
X4823478Y10343233D01*
X5718362Y11238117D01*
X5718361Y11238118D01*
X5575846Y11344804D01*
X5575838Y11344809D01*
X5324757Y11481909D01*
X5324758Y11481909D01*
X5056695Y11581891D01*
X4777162Y11642700D01*
X4491801Y11663109D01*
X4491799Y11663109D01*
X4206437Y11642700D01*
X3926904Y11581891D01*
X3658841Y11481909D01*
X3407761Y11344809D01*
X3407753Y11344804D01*
X3265237Y11238118D01*
X3265236Y11238117D01*
X4160121Y10343233D01*
X4131805Y10331503D01*
X4007328Y10248330D01*
X3901470Y10142472D01*
X3818297Y10017995D01*
X3806568Y9989679D01*
X2911683Y10884564D01*
X2911682Y10884563D01*
X2804996Y10742047D01*
X2804991Y10742039D01*
X2667891Y10490959D01*
X2567909Y10222896D01*
X2507100Y9943363D01*
X2486691Y9658002D01*
X2486691Y9657999D01*
X500500Y9657999D01*
X500500Y11715400D01*
X17380259Y11715400D01*
X17399575Y11519271D01*
X17399576Y11519268D01*
X17453261Y11342292D01*
X17456788Y11330667D01*
X17549686Y11156868D01*
X17549690Y11156861D01*
X17674716Y11004517D01*
X17827060Y10879491D01*
X17827067Y10879487D01*
X18000866Y10786589D01*
X18000869Y10786589D01*
X18000873Y10786586D01*
X18189468Y10729376D01*
X18385600Y10710059D01*
X18581732Y10729376D01*
X18770327Y10786586D01*
X18944138Y10879490D01*
X19096483Y11004517D01*
X19221510Y11156862D01*
X19267962Y11243768D01*
X19314411Y11330667D01*
X19314411Y11330668D01*
X19314414Y11330673D01*
X19371624Y11519268D01*
X19373429Y11537594D01*
X21427700Y11537594D01*
X21446864Y11306303D01*
X21446866Y11306292D01*
X21503842Y11081300D01*
X21597075Y10868752D01*
X21724016Y10674453D01*
X21724019Y10674449D01*
X21724021Y10674447D01*
X21881216Y10503687D01*
X21881219Y10503685D01*
X21881222Y10503682D01*
X22064365Y10361136D01*
X22064371Y10361132D01*
X22064374Y10361130D01*
X22268497Y10250664D01*
X22382487Y10211532D01*
X22488015Y10175303D01*
X22488017Y10175303D01*
X22488019Y10175302D01*
X22716951Y10137100D01*
X22716952Y10137100D01*
X22949048Y10137100D01*
X22949049Y10137100D01*
X23177981Y10175302D01*
X23397503Y10250664D01*
X23601626Y10361130D01*
X23613858Y10370650D01*
X23685917Y10426736D01*
X23784784Y10503687D01*
X23941979Y10674447D01*
X24068924Y10868751D01*
X24162157Y11081300D01*
X24219134Y11306295D01*
X24219135Y11306303D01*
X24238300Y11537594D01*
X27927700Y11537594D01*
X27946864Y11306303D01*
X27946866Y11306292D01*
X28003842Y11081300D01*
X28097075Y10868752D01*
X28224016Y10674453D01*
X28224019Y10674449D01*
X28224021Y10674447D01*
X28381216Y10503687D01*
X28381219Y10503685D01*
X28381222Y10503682D01*
X28564365Y10361136D01*
X28564371Y10361132D01*
X28564374Y10361130D01*
X28768497Y10250664D01*
X28882487Y10211532D01*
X28988015Y10175303D01*
X28988017Y10175303D01*
X28988019Y10175302D01*
X29216951Y10137100D01*
X29216952Y10137100D01*
X29449048Y10137100D01*
X29449049Y10137100D01*
X29677981Y10175302D01*
X29897503Y10250664D01*
X30101626Y10361130D01*
X30113858Y10370650D01*
X30185917Y10426736D01*
X30284784Y10503687D01*
X30441979Y10674447D01*
X30568924Y10868751D01*
X30599539Y10938547D01*
X30644494Y10992032D01*
X30711230Y11012723D01*
X30778558Y10994049D01*
X30825102Y10941939D01*
X30826650Y10938548D01*
X30841473Y10904755D01*
X30968416Y10710453D01*
X30968419Y10710449D01*
X30968421Y10710447D01*
X31125616Y10539687D01*
X31125619Y10539685D01*
X31125622Y10539682D01*
X31308765Y10397136D01*
X31308771Y10397132D01*
X31308774Y10397130D01*
X31375296Y10361130D01*
X31398202Y10348734D01*
X31447792Y10299514D01*
X31462900Y10231297D01*
X31438729Y10165742D01*
X31413693Y10142157D01*
X31414421Y10141221D01*
X31227222Y9995519D01*
X31227219Y9995516D01*
X31070016Y9824748D01*
X30943075Y9630449D01*
X30849842Y9417901D01*
X30792866Y9192909D01*
X30792864Y9192898D01*
X30773700Y8961607D01*
X30773700Y8961594D01*
X30792864Y8730303D01*
X30792866Y8730292D01*
X30849842Y8505300D01*
X30943075Y8292752D01*
X31070016Y8098453D01*
X31070019Y8098449D01*
X31070021Y8098447D01*
X31227216Y7927687D01*
X31227219Y7927685D01*
X31227222Y7927682D01*
X31410365Y7785136D01*
X31410371Y7785132D01*
X31410374Y7785130D01*
X31614497Y7674664D01*
X31677920Y7652891D01*
X31834015Y7599303D01*
X31834017Y7599303D01*
X31834019Y7599302D01*
X32062951Y7561100D01*
X32062952Y7561100D01*
X32295048Y7561100D01*
X32295049Y7561100D01*
X32523981Y7599302D01*
X32743503Y7674664D01*
X32947626Y7785130D01*
X33130784Y7927687D01*
X33287979Y8098447D01*
X33414924Y8292751D01*
X33508157Y8505300D01*
X33565134Y8730295D01*
X33569639Y8784663D01*
X33584300Y8961594D01*
X33584300Y8961607D01*
X33565135Y9192898D01*
X33565133Y9192909D01*
X33508157Y9417901D01*
X33414924Y9630449D01*
X33287983Y9824748D01*
X33287980Y9824751D01*
X33287979Y9824753D01*
X33130784Y9995513D01*
X33130779Y9995517D01*
X33130777Y9995519D01*
X32947634Y10138065D01*
X32947619Y10138075D01*
X32858197Y10186468D01*
X32808607Y10235687D01*
X32793499Y10303904D01*
X32817670Y10369459D01*
X32842719Y10393029D01*
X32841979Y10393979D01*
X32982931Y10503687D01*
X33029184Y10539687D01*
X33186379Y10710447D01*
X33313324Y10904751D01*
X33406557Y11117300D01*
X33463534Y11342295D01*
X33463742Y11344804D01*
X33482700Y11573594D01*
X37172100Y11573594D01*
X37191264Y11342303D01*
X37191266Y11342292D01*
X37248242Y11117300D01*
X37341475Y10904752D01*
X37468416Y10710453D01*
X37468419Y10710449D01*
X37468421Y10710447D01*
X37625616Y10539687D01*
X37625619Y10539685D01*
X37625622Y10539682D01*
X37808765Y10397136D01*
X37808771Y10397132D01*
X37808774Y10397130D01*
X37875296Y10361130D01*
X37898202Y10348734D01*
X37947792Y10299514D01*
X37962900Y10231297D01*
X37938729Y10165742D01*
X37913693Y10142157D01*
X37914421Y10141221D01*
X37727222Y9995519D01*
X37727219Y9995516D01*
X37570016Y9824748D01*
X37443075Y9630449D01*
X37349842Y9417901D01*
X37292866Y9192909D01*
X37292864Y9192898D01*
X37273700Y8961607D01*
X37273700Y8961594D01*
X37292864Y8730303D01*
X37292866Y8730292D01*
X37349842Y8505300D01*
X37443075Y8292752D01*
X37570016Y8098453D01*
X37570019Y8098449D01*
X37570021Y8098447D01*
X37727216Y7927687D01*
X37727219Y7927685D01*
X37727222Y7927682D01*
X37910365Y7785136D01*
X37910371Y7785132D01*
X37910374Y7785130D01*
X38114497Y7674664D01*
X38177920Y7652891D01*
X38334015Y7599303D01*
X38334017Y7599303D01*
X38334019Y7599302D01*
X38562951Y7561100D01*
X38562952Y7561100D01*
X38795048Y7561100D01*
X38795049Y7561100D01*
X39023981Y7599302D01*
X39243503Y7674664D01*
X39447626Y7785130D01*
X39630784Y7927687D01*
X39787723Y8098169D01*
X51017030Y8098169D01*
X51037225Y7918923D01*
X51037226Y7918918D01*
X51096806Y7748649D01*
X51157168Y7652584D01*
X51192779Y7595910D01*
X51320333Y7468356D01*
X51473073Y7372383D01*
X51643340Y7312804D01*
X51643345Y7312803D01*
X51822591Y7292607D01*
X51822595Y7292607D01*
X51822599Y7292607D01*
X52001844Y7312803D01*
X52001847Y7312804D01*
X52001850Y7312804D01*
X52172117Y7372383D01*
X52324857Y7468356D01*
X52452411Y7595910D01*
X52548384Y7748650D01*
X52607963Y7918917D01*
X52613853Y7971193D01*
X52628160Y8098169D01*
X52628160Y8098176D01*
X52607964Y8277422D01*
X52607963Y8277427D01*
X52606224Y8282397D01*
X60887035Y8282397D01*
X60907230Y8103151D01*
X60907231Y8103146D01*
X60966811Y7932877D01*
X60975583Y7918917D01*
X61062784Y7780138D01*
X61190338Y7652584D01*
X61275134Y7599303D01*
X61335933Y7561100D01*
X61343078Y7556611D01*
X61513345Y7497032D01*
X61513350Y7497031D01*
X61692596Y7476835D01*
X61692600Y7476835D01*
X61692604Y7476835D01*
X61871849Y7497031D01*
X61871852Y7497032D01*
X61871855Y7497032D01*
X62042122Y7556611D01*
X62194862Y7652584D01*
X62322416Y7780138D01*
X62418389Y7932878D01*
X62477968Y8103145D01*
X62498165Y8282400D01*
X62481372Y8431439D01*
X62477969Y8461650D01*
X62477968Y8461655D01*
X62418388Y8631924D01*
X62322415Y8784663D01*
X62194862Y8912216D01*
X62042123Y9008189D01*
X61871854Y9067769D01*
X61871849Y9067770D01*
X61692604Y9087965D01*
X61692596Y9087965D01*
X61513350Y9067770D01*
X61513345Y9067769D01*
X61343076Y9008189D01*
X61190337Y8912216D01*
X61062784Y8784663D01*
X60966811Y8631924D01*
X60907231Y8461655D01*
X60907230Y8461650D01*
X60887035Y8282404D01*
X60887035Y8282397D01*
X52606224Y8282397D01*
X52548383Y8447696D01*
X52469050Y8573953D01*
X52452411Y8600434D01*
X52324857Y8727988D01*
X52321173Y8730303D01*
X52172118Y8823961D01*
X52001849Y8883541D01*
X52001844Y8883542D01*
X51822599Y8903737D01*
X51822591Y8903737D01*
X51643345Y8883542D01*
X51643340Y8883541D01*
X51473071Y8823961D01*
X51320332Y8727988D01*
X51192779Y8600435D01*
X51096806Y8447696D01*
X51037226Y8277427D01*
X51037225Y8277422D01*
X51017030Y8098176D01*
X51017030Y8098169D01*
X39787723Y8098169D01*
X39787979Y8098447D01*
X39914924Y8292751D01*
X40008157Y8505300D01*
X40065134Y8730295D01*
X40069639Y8784663D01*
X40084300Y8961594D01*
X40084300Y8961607D01*
X40065135Y9192898D01*
X40065133Y9192909D01*
X40008157Y9417901D01*
X39914924Y9630449D01*
X39787983Y9824748D01*
X39787980Y9824751D01*
X39787979Y9824753D01*
X39630784Y9995513D01*
X39630779Y9995517D01*
X39630777Y9995519D01*
X39447634Y10138065D01*
X39447619Y10138075D01*
X39358197Y10186468D01*
X39353231Y10191397D01*
X54181435Y10191397D01*
X54201630Y10012151D01*
X54201631Y10012146D01*
X54261211Y9841877D01*
X54329716Y9732853D01*
X54357184Y9689138D01*
X54484738Y9561584D01*
X54637478Y9465611D01*
X54773828Y9417900D01*
X54807745Y9406032D01*
X54807750Y9406031D01*
X54986996Y9385835D01*
X54987000Y9385835D01*
X54987004Y9385835D01*
X55166249Y9406031D01*
X55166252Y9406032D01*
X55166255Y9406032D01*
X55336522Y9465611D01*
X55489262Y9561584D01*
X55616816Y9689138D01*
X55712789Y9841878D01*
X55772368Y10012145D01*
X55786556Y10138065D01*
X55792565Y10191397D01*
X55792565Y10191404D01*
X55772369Y10370650D01*
X55772368Y10370655D01*
X55755801Y10418000D01*
X55712789Y10540922D01*
X55616816Y10693662D01*
X55489262Y10821216D01*
X55413606Y10868754D01*
X55336523Y10917189D01*
X55166254Y10976769D01*
X55166249Y10976770D01*
X54987004Y10996965D01*
X54986996Y10996965D01*
X54807750Y10976770D01*
X54807745Y10976769D01*
X54637476Y10917189D01*
X54484737Y10821216D01*
X54357184Y10693663D01*
X54261211Y10540924D01*
X54201631Y10370655D01*
X54201630Y10370650D01*
X54181435Y10191404D01*
X54181435Y10191397D01*
X39353231Y10191397D01*
X39308607Y10235687D01*
X39293499Y10303904D01*
X39317670Y10369459D01*
X39342719Y10393029D01*
X39341979Y10393979D01*
X39482931Y10503687D01*
X39529184Y10539687D01*
X39686379Y10710447D01*
X39813324Y10904751D01*
X39867936Y11029256D01*
X39912891Y11082739D01*
X39979626Y11103429D01*
X40046954Y11084755D01*
X40093498Y11032645D01*
X40095047Y11029254D01*
X40136676Y10934350D01*
X40263616Y10740053D01*
X40263619Y10740049D01*
X40263621Y10740047D01*
X40420816Y10569287D01*
X40420819Y10569285D01*
X40420822Y10569282D01*
X40603965Y10426736D01*
X40603971Y10426732D01*
X40603974Y10426730D01*
X40808097Y10316264D01*
X40922087Y10277132D01*
X41027615Y10240903D01*
X41027617Y10240903D01*
X41027619Y10240902D01*
X41256551Y10202700D01*
X41256552Y10202700D01*
X41488648Y10202700D01*
X41488649Y10202700D01*
X41717581Y10240902D01*
X41937103Y10316264D01*
X42141226Y10426730D01*
X42324384Y10569287D01*
X42481579Y10740047D01*
X42482881Y10742039D01*
X42565667Y10868754D01*
X42608524Y10934351D01*
X42701757Y11146900D01*
X42758734Y11371895D01*
X42768974Y11495473D01*
X42777900Y11603194D01*
X46467300Y11603194D01*
X46486464Y11371903D01*
X46486466Y11371892D01*
X46543442Y11146900D01*
X46636675Y10934352D01*
X46763616Y10740053D01*
X46763619Y10740049D01*
X46763621Y10740047D01*
X46920816Y10569287D01*
X46920819Y10569285D01*
X46920822Y10569282D01*
X47103965Y10426736D01*
X47103971Y10426732D01*
X47103974Y10426730D01*
X47308097Y10316264D01*
X47422087Y10277132D01*
X47527615Y10240903D01*
X47527617Y10240903D01*
X47527619Y10240902D01*
X47756551Y10202700D01*
X47756552Y10202700D01*
X47988648Y10202700D01*
X47988649Y10202700D01*
X48217581Y10240902D01*
X48437103Y10316264D01*
X48641226Y10426730D01*
X48824384Y10569287D01*
X48981579Y10740047D01*
X48982881Y10742039D01*
X49065667Y10868754D01*
X49108524Y10934351D01*
X49201757Y11146900D01*
X49258734Y11371895D01*
X49268974Y11495473D01*
X49277900Y11603194D01*
X49277900Y11603207D01*
X49258735Y11834498D01*
X49258733Y11834509D01*
X49201757Y12059501D01*
X49108524Y12272049D01*
X48981583Y12466348D01*
X48981580Y12466351D01*
X48981579Y12466353D01*
X48824384Y12637113D01*
X48824379Y12637117D01*
X48824377Y12637119D01*
X48641234Y12779665D01*
X48641228Y12779669D01*
X48543796Y12832397D01*
X60912435Y12832397D01*
X60932630Y12653151D01*
X60932631Y12653146D01*
X60992211Y12482877D01*
X61088184Y12330138D01*
X61215738Y12202584D01*
X61303327Y12147548D01*
X61351700Y12117153D01*
X61368478Y12106611D01*
X61410100Y12092047D01*
X61538745Y12047032D01*
X61538750Y12047031D01*
X61717996Y12026835D01*
X61718000Y12026835D01*
X61718004Y12026835D01*
X61897249Y12047031D01*
X61897252Y12047032D01*
X61897255Y12047032D01*
X62067522Y12106611D01*
X62220262Y12202584D01*
X62347816Y12330138D01*
X62443789Y12482878D01*
X62503368Y12653145D01*
X62510232Y12714065D01*
X62523565Y12832397D01*
X62523565Y12832404D01*
X62503369Y13011650D01*
X62503368Y13011655D01*
X62443788Y13181924D01*
X62347815Y13334663D01*
X62220262Y13462216D01*
X62067523Y13558189D01*
X61897254Y13617769D01*
X61897249Y13617770D01*
X61718004Y13637965D01*
X61717996Y13637965D01*
X61538750Y13617770D01*
X61538745Y13617769D01*
X61368476Y13558189D01*
X61215737Y13462216D01*
X61088184Y13334663D01*
X60992211Y13181924D01*
X60932631Y13011655D01*
X60932630Y13011650D01*
X60912435Y12832404D01*
X60912435Y12832397D01*
X48543796Y12832397D01*
X48437104Y12890136D01*
X48437095Y12890139D01*
X48217584Y12965498D01*
X48036758Y12995672D01*
X47988649Y13003700D01*
X47756551Y13003700D01*
X47710764Y12996060D01*
X47527615Y12965498D01*
X47308104Y12890139D01*
X47308095Y12890136D01*
X47103971Y12779669D01*
X47103965Y12779665D01*
X46920822Y12637119D01*
X46920819Y12637116D01*
X46920816Y12637114D01*
X46920816Y12637113D01*
X46861867Y12573078D01*
X46763616Y12466348D01*
X46636675Y12272049D01*
X46543442Y12059501D01*
X46486466Y11834509D01*
X46486464Y11834498D01*
X46467300Y11603207D01*
X46467300Y11603194D01*
X42777900Y11603194D01*
X42777900Y11603207D01*
X42758735Y11834498D01*
X42758733Y11834509D01*
X42701757Y12059501D01*
X42608524Y12272049D01*
X42481583Y12466348D01*
X42481580Y12466351D01*
X42481579Y12466353D01*
X42324384Y12637113D01*
X42324379Y12637117D01*
X42324377Y12637119D01*
X42141234Y12779665D01*
X42141228Y12779669D01*
X41937104Y12890136D01*
X41937095Y12890139D01*
X41717584Y12965498D01*
X41536758Y12995672D01*
X41488649Y13003700D01*
X41256551Y13003700D01*
X41210764Y12996060D01*
X41027615Y12965498D01*
X40808104Y12890139D01*
X40808095Y12890136D01*
X40603971Y12779669D01*
X40603965Y12779665D01*
X40420822Y12637119D01*
X40420819Y12637116D01*
X40420816Y12637114D01*
X40420816Y12637113D01*
X40361867Y12573078D01*
X40263616Y12466348D01*
X40136676Y12272051D01*
X40082064Y12147547D01*
X40037108Y12094062D01*
X39970371Y12073372D01*
X39903044Y12092047D01*
X39856500Y12144157D01*
X39854952Y12147548D01*
X39813324Y12242449D01*
X39686383Y12436748D01*
X39686380Y12436751D01*
X39686379Y12436753D01*
X39529184Y12607513D01*
X39529179Y12607517D01*
X39529177Y12607519D01*
X39346034Y12750065D01*
X39346028Y12750069D01*
X39141904Y12860536D01*
X39141895Y12860539D01*
X38922384Y12935898D01*
X38744998Y12965498D01*
X38693449Y12974100D01*
X38461351Y12974100D01*
X38415564Y12966460D01*
X38232415Y12935898D01*
X38012904Y12860539D01*
X38012895Y12860536D01*
X37808771Y12750069D01*
X37808765Y12750065D01*
X37625622Y12607519D01*
X37625619Y12607516D01*
X37468416Y12436748D01*
X37341475Y12242449D01*
X37248242Y12029901D01*
X37191266Y11804909D01*
X37191264Y11804898D01*
X37172100Y11573607D01*
X37172100Y11573594D01*
X33482700Y11573594D01*
X33482700Y11573607D01*
X33463535Y11804898D01*
X33463533Y11804909D01*
X33406557Y12029901D01*
X33313324Y12242449D01*
X33186383Y12436748D01*
X33186380Y12436751D01*
X33186379Y12436753D01*
X33029184Y12607513D01*
X33029179Y12607517D01*
X33029177Y12607519D01*
X32846034Y12750065D01*
X32846028Y12750069D01*
X32641904Y12860536D01*
X32641895Y12860539D01*
X32422384Y12935898D01*
X32244998Y12965498D01*
X32193449Y12974100D01*
X31961351Y12974100D01*
X31915564Y12966460D01*
X31732415Y12935898D01*
X31512904Y12860539D01*
X31512895Y12860536D01*
X31308771Y12750069D01*
X31308765Y12750065D01*
X31125622Y12607519D01*
X31125619Y12607516D01*
X30968416Y12436748D01*
X30841473Y12242446D01*
X30810859Y12172653D01*
X30765903Y12119167D01*
X30699167Y12098478D01*
X30631839Y12117153D01*
X30585296Y12169264D01*
X30583748Y12172654D01*
X30568924Y12206449D01*
X30441983Y12400748D01*
X30441980Y12400751D01*
X30441979Y12400753D01*
X30284784Y12571513D01*
X30284779Y12571517D01*
X30284777Y12571519D01*
X30101634Y12714065D01*
X30101628Y12714069D01*
X29897504Y12824536D01*
X29897495Y12824539D01*
X29677984Y12899898D01*
X29506282Y12928550D01*
X29449049Y12938100D01*
X29216951Y12938100D01*
X29171164Y12930460D01*
X28988015Y12899898D01*
X28768504Y12824539D01*
X28768495Y12824536D01*
X28564371Y12714069D01*
X28564365Y12714065D01*
X28381222Y12571519D01*
X28381219Y12571516D01*
X28224016Y12400748D01*
X28097075Y12206449D01*
X28003842Y11993901D01*
X27946866Y11768909D01*
X27946864Y11768898D01*
X27927700Y11537607D01*
X27927700Y11537594D01*
X24238300Y11537594D01*
X24238300Y11537607D01*
X24219135Y11768898D01*
X24219133Y11768909D01*
X24162157Y11993901D01*
X24068924Y12206449D01*
X23941983Y12400748D01*
X23941980Y12400751D01*
X23941979Y12400753D01*
X23784784Y12571513D01*
X23784779Y12571517D01*
X23784777Y12571519D01*
X23601634Y12714065D01*
X23601628Y12714069D01*
X23397504Y12824536D01*
X23397495Y12824539D01*
X23177984Y12899898D01*
X23006282Y12928550D01*
X22949049Y12938100D01*
X22716951Y12938100D01*
X22671164Y12930460D01*
X22488015Y12899898D01*
X22268504Y12824539D01*
X22268495Y12824536D01*
X22064371Y12714069D01*
X22064365Y12714065D01*
X21881222Y12571519D01*
X21881219Y12571516D01*
X21724016Y12400748D01*
X21597075Y12206449D01*
X21503842Y11993901D01*
X21446866Y11768909D01*
X21446864Y11768898D01*
X21427700Y11537607D01*
X21427700Y11537594D01*
X19373429Y11537594D01*
X19390941Y11715400D01*
X19371624Y11911532D01*
X19314414Y12100127D01*
X19314411Y12100131D01*
X19314411Y12100134D01*
X19221513Y12273933D01*
X19221509Y12273940D01*
X19096483Y12426284D01*
X18944139Y12551310D01*
X18944132Y12551314D01*
X18770333Y12644212D01*
X18770327Y12644214D01*
X18581732Y12701424D01*
X18581729Y12701425D01*
X18385600Y12720741D01*
X18189470Y12701425D01*
X18000866Y12644212D01*
X17827067Y12551314D01*
X17827060Y12551310D01*
X17674716Y12426284D01*
X17549690Y12273940D01*
X17549686Y12273933D01*
X17456788Y12100134D01*
X17399575Y11911530D01*
X17380259Y11715400D01*
X500500Y11715400D01*
X500500Y13190130D01*
X2491300Y13190130D01*
X2491301Y13190124D01*
X2497708Y13130517D01*
X2548002Y12995672D01*
X2548006Y12995665D01*
X2634252Y12880456D01*
X2634255Y12880453D01*
X2749464Y12794207D01*
X2749471Y12794203D01*
X2884317Y12743909D01*
X2884316Y12743909D01*
X2891244Y12743165D01*
X2943927Y12737500D01*
X6039672Y12737501D01*
X6099283Y12743909D01*
X6234131Y12794204D01*
X6349346Y12880454D01*
X6435596Y12995669D01*
X6485891Y13130517D01*
X6492300Y13190127D01*
X6492299Y16037594D01*
X21427700Y16037594D01*
X21446864Y15806303D01*
X21446866Y15806292D01*
X21503842Y15581300D01*
X21597075Y15368752D01*
X21724016Y15174453D01*
X21724019Y15174449D01*
X21724021Y15174447D01*
X21881216Y15003687D01*
X21881219Y15003685D01*
X21881222Y15003682D01*
X22064365Y14861136D01*
X22064371Y14861132D01*
X22064374Y14861130D01*
X22268497Y14750664D01*
X22382487Y14711532D01*
X22488015Y14675303D01*
X22488017Y14675303D01*
X22488019Y14675302D01*
X22716951Y14637100D01*
X22716952Y14637100D01*
X22949048Y14637100D01*
X22949049Y14637100D01*
X23177981Y14675302D01*
X23397503Y14750664D01*
X23601626Y14861130D01*
X23784784Y15003687D01*
X23941979Y15174447D01*
X24068924Y15368751D01*
X24162157Y15581300D01*
X24219134Y15806295D01*
X24222118Y15842303D01*
X24238300Y16037594D01*
X27927700Y16037594D01*
X27946864Y15806303D01*
X27946866Y15806292D01*
X28003842Y15581300D01*
X28097075Y15368752D01*
X28224016Y15174453D01*
X28224019Y15174449D01*
X28224021Y15174447D01*
X28381216Y15003687D01*
X28381219Y15003685D01*
X28381222Y15003682D01*
X28564365Y14861136D01*
X28564371Y14861132D01*
X28564374Y14861130D01*
X28768497Y14750664D01*
X28882487Y14711532D01*
X28988015Y14675303D01*
X28988017Y14675303D01*
X28988019Y14675302D01*
X29216951Y14637100D01*
X29216952Y14637100D01*
X29449048Y14637100D01*
X29449049Y14637100D01*
X29677981Y14675302D01*
X29897503Y14750664D01*
X30101626Y14861130D01*
X30284784Y15003687D01*
X30441979Y15174447D01*
X30568924Y15368751D01*
X30599539Y15438547D01*
X30644494Y15492032D01*
X30711230Y15512723D01*
X30778558Y15494049D01*
X30825102Y15441939D01*
X30826650Y15438548D01*
X30841473Y15404755D01*
X30968416Y15210453D01*
X30968419Y15210449D01*
X30968421Y15210447D01*
X31125616Y15039687D01*
X31125619Y15039685D01*
X31125622Y15039682D01*
X31308765Y14897136D01*
X31308771Y14897132D01*
X31308774Y14897130D01*
X31512897Y14786664D01*
X31617767Y14750662D01*
X31732415Y14711303D01*
X31732417Y14711303D01*
X31732419Y14711302D01*
X31961351Y14673100D01*
X31961352Y14673100D01*
X32193448Y14673100D01*
X32193449Y14673100D01*
X32422381Y14711302D01*
X32641903Y14786664D01*
X32846026Y14897130D01*
X33029184Y15039687D01*
X33186379Y15210447D01*
X33313324Y15404751D01*
X33406557Y15617300D01*
X33463534Y15842295D01*
X33463535Y15842303D01*
X33482700Y16073594D01*
X37172100Y16073594D01*
X37191264Y15842303D01*
X37191266Y15842292D01*
X37248242Y15617300D01*
X37341475Y15404752D01*
X37468416Y15210453D01*
X37468419Y15210449D01*
X37468421Y15210447D01*
X37625616Y15039687D01*
X37625619Y15039685D01*
X37625622Y15039682D01*
X37808765Y14897136D01*
X37808771Y14897132D01*
X37808774Y14897130D01*
X38012897Y14786664D01*
X38117767Y14750662D01*
X38232415Y14711303D01*
X38232417Y14711303D01*
X38232419Y14711302D01*
X38461351Y14673100D01*
X38461352Y14673100D01*
X38693448Y14673100D01*
X38693449Y14673100D01*
X38922381Y14711302D01*
X39141903Y14786664D01*
X39346026Y14897130D01*
X39529184Y15039687D01*
X39686379Y15210447D01*
X39813324Y15404751D01*
X39867936Y15529256D01*
X39912891Y15582739D01*
X39979626Y15603429D01*
X40046954Y15584755D01*
X40093498Y15532645D01*
X40095047Y15529254D01*
X40136676Y15434350D01*
X40263616Y15240053D01*
X40263619Y15240049D01*
X40263621Y15240047D01*
X40420816Y15069287D01*
X40420819Y15069285D01*
X40420822Y15069282D01*
X40603965Y14926736D01*
X40603971Y14926732D01*
X40603974Y14926730D01*
X40808097Y14816264D01*
X40894316Y14786665D01*
X41027615Y14740903D01*
X41027617Y14740903D01*
X41027619Y14740902D01*
X41256551Y14702700D01*
X41256552Y14702700D01*
X41488648Y14702700D01*
X41488649Y14702700D01*
X41717581Y14740902D01*
X41937103Y14816264D01*
X42141226Y14926730D01*
X42324384Y15069287D01*
X42481579Y15240047D01*
X42608524Y15434351D01*
X42701757Y15646900D01*
X42758734Y15871895D01*
X42772464Y16037594D01*
X42777900Y16103194D01*
X46467300Y16103194D01*
X46486464Y15871903D01*
X46486466Y15871892D01*
X46543442Y15646900D01*
X46636675Y15434352D01*
X46763616Y15240053D01*
X46763619Y15240049D01*
X46763621Y15240047D01*
X46920816Y15069287D01*
X46920819Y15069285D01*
X46920822Y15069282D01*
X47103965Y14926736D01*
X47103971Y14926732D01*
X47103974Y14926730D01*
X47308097Y14816264D01*
X47394316Y14786665D01*
X47527615Y14740903D01*
X47527617Y14740903D01*
X47527619Y14740902D01*
X47756551Y14702700D01*
X47756552Y14702700D01*
X47988648Y14702700D01*
X47988649Y14702700D01*
X48217581Y14740902D01*
X48437103Y14816264D01*
X48641226Y14926730D01*
X48824384Y15069287D01*
X48981579Y15240047D01*
X49108524Y15434351D01*
X49201757Y15646900D01*
X49258734Y15871895D01*
X49272464Y16037594D01*
X49277900Y16103194D01*
X49277900Y16103207D01*
X49258735Y16334498D01*
X49258733Y16334509D01*
X49201757Y16559501D01*
X49142176Y16695330D01*
X63451300Y16695330D01*
X63451301Y16695324D01*
X63457708Y16635717D01*
X63508002Y16500872D01*
X63508006Y16500865D01*
X63594252Y16385656D01*
X63594255Y16385653D01*
X63709464Y16299407D01*
X63709471Y16299403D01*
X63844317Y16249109D01*
X63844316Y16249109D01*
X63851244Y16248365D01*
X63903927Y16242700D01*
X66999672Y16242701D01*
X67059283Y16249109D01*
X67194131Y16299404D01*
X67309346Y16385654D01*
X67395596Y16500869D01*
X67445891Y16635717D01*
X67452300Y16695327D01*
X67452299Y19791072D01*
X67445891Y19850683D01*
X67433214Y19884671D01*
X67395597Y19985529D01*
X67395593Y19985536D01*
X67309347Y20100745D01*
X67309344Y20100748D01*
X67194135Y20186994D01*
X67194128Y20186998D01*
X67059282Y20237292D01*
X67059283Y20237292D01*
X66999683Y20243699D01*
X66999681Y20243700D01*
X66999673Y20243700D01*
X66999664Y20243700D01*
X63903929Y20243700D01*
X63903923Y20243699D01*
X63844316Y20237292D01*
X63709471Y20186998D01*
X63709464Y20186994D01*
X63594255Y20100748D01*
X63594252Y20100745D01*
X63508006Y19985536D01*
X63508002Y19985529D01*
X63457708Y19850683D01*
X63454439Y19820273D01*
X63451301Y19791077D01*
X63451300Y19791065D01*
X63451300Y16695330D01*
X49142176Y16695330D01*
X49108524Y16772049D01*
X48981583Y16966348D01*
X48981580Y16966351D01*
X48981579Y16966353D01*
X48824384Y17137113D01*
X48824379Y17137117D01*
X48824377Y17137119D01*
X48641234Y17279665D01*
X48641228Y17279669D01*
X48437104Y17390136D01*
X48437095Y17390139D01*
X48217584Y17465498D01*
X48045882Y17494150D01*
X47988649Y17503700D01*
X47756551Y17503700D01*
X47710764Y17496060D01*
X47527615Y17465498D01*
X47308104Y17390139D01*
X47308095Y17390136D01*
X47103971Y17279669D01*
X47103965Y17279665D01*
X46920822Y17137119D01*
X46920819Y17137116D01*
X46920816Y17137114D01*
X46920816Y17137113D01*
X46861867Y17073078D01*
X46763616Y16966348D01*
X46636675Y16772049D01*
X46543442Y16559501D01*
X46486466Y16334509D01*
X46486464Y16334498D01*
X46467300Y16103207D01*
X46467300Y16103194D01*
X42777900Y16103194D01*
X42777900Y16103207D01*
X42758735Y16334498D01*
X42758733Y16334509D01*
X42701757Y16559501D01*
X42608524Y16772049D01*
X42481583Y16966348D01*
X42481580Y16966351D01*
X42481579Y16966353D01*
X42324384Y17137113D01*
X42324379Y17137117D01*
X42324377Y17137119D01*
X42141234Y17279665D01*
X42141228Y17279669D01*
X41937104Y17390136D01*
X41937095Y17390139D01*
X41717584Y17465498D01*
X41545882Y17494150D01*
X41488649Y17503700D01*
X41256551Y17503700D01*
X41210764Y17496060D01*
X41027615Y17465498D01*
X40808104Y17390139D01*
X40808095Y17390136D01*
X40603971Y17279669D01*
X40603965Y17279665D01*
X40420822Y17137119D01*
X40420819Y17137116D01*
X40420816Y17137114D01*
X40420816Y17137113D01*
X40361867Y17073078D01*
X40263616Y16966348D01*
X40136676Y16772051D01*
X40082064Y16647547D01*
X40037108Y16594062D01*
X39970371Y16573372D01*
X39903044Y16592047D01*
X39856500Y16644157D01*
X39854952Y16647548D01*
X39813324Y16742449D01*
X39686383Y16936748D01*
X39686380Y16936751D01*
X39686379Y16936753D01*
X39529184Y17107513D01*
X39529179Y17107517D01*
X39529177Y17107519D01*
X39346034Y17250065D01*
X39346028Y17250069D01*
X39141904Y17360536D01*
X39141895Y17360539D01*
X38922384Y17435898D01*
X38744998Y17465498D01*
X38693449Y17474100D01*
X38461351Y17474100D01*
X38415564Y17466460D01*
X38232415Y17435898D01*
X38012904Y17360539D01*
X38012895Y17360536D01*
X37808771Y17250069D01*
X37808765Y17250065D01*
X37625622Y17107519D01*
X37625619Y17107516D01*
X37468416Y16936748D01*
X37341475Y16742449D01*
X37248242Y16529901D01*
X37191266Y16304909D01*
X37191264Y16304898D01*
X37172100Y16073607D01*
X37172100Y16073594D01*
X33482700Y16073594D01*
X33482700Y16073607D01*
X33463535Y16304898D01*
X33463533Y16304909D01*
X33406557Y16529901D01*
X33313324Y16742449D01*
X33186383Y16936748D01*
X33186380Y16936751D01*
X33186379Y16936753D01*
X33029184Y17107513D01*
X33029179Y17107517D01*
X33029177Y17107519D01*
X32846034Y17250065D01*
X32846028Y17250069D01*
X32641904Y17360536D01*
X32641895Y17360539D01*
X32422384Y17435898D01*
X32244998Y17465498D01*
X32193449Y17474100D01*
X31961351Y17474100D01*
X31915564Y17466460D01*
X31732415Y17435898D01*
X31512904Y17360539D01*
X31512895Y17360536D01*
X31308771Y17250069D01*
X31308765Y17250065D01*
X31125622Y17107519D01*
X31125619Y17107516D01*
X30968416Y16936748D01*
X30841473Y16742446D01*
X30810859Y16672653D01*
X30765903Y16619167D01*
X30699167Y16598478D01*
X30631839Y16617153D01*
X30585296Y16669264D01*
X30583748Y16672654D01*
X30568924Y16706449D01*
X30441983Y16900748D01*
X30441980Y16900751D01*
X30441979Y16900753D01*
X30284784Y17071513D01*
X30284779Y17071517D01*
X30284777Y17071519D01*
X30101634Y17214065D01*
X30101628Y17214069D01*
X29897504Y17324536D01*
X29897495Y17324539D01*
X29677984Y17399898D01*
X29506282Y17428550D01*
X29449049Y17438100D01*
X29216951Y17438100D01*
X29171164Y17430460D01*
X28988015Y17399898D01*
X28768504Y17324539D01*
X28768495Y17324536D01*
X28564371Y17214069D01*
X28564365Y17214065D01*
X28381222Y17071519D01*
X28381219Y17071516D01*
X28224016Y16900748D01*
X28097075Y16706449D01*
X28003842Y16493901D01*
X27946866Y16268909D01*
X27946864Y16268898D01*
X27927700Y16037607D01*
X27927700Y16037594D01*
X24238300Y16037594D01*
X24238300Y16037607D01*
X24219135Y16268898D01*
X24219133Y16268909D01*
X24162157Y16493901D01*
X24068924Y16706449D01*
X23941983Y16900748D01*
X23941980Y16900751D01*
X23941979Y16900753D01*
X23784784Y17071513D01*
X23784779Y17071517D01*
X23784777Y17071519D01*
X23601634Y17214065D01*
X23601628Y17214069D01*
X23397504Y17324536D01*
X23397495Y17324539D01*
X23177984Y17399898D01*
X23006282Y17428550D01*
X22949049Y17438100D01*
X22716951Y17438100D01*
X22671164Y17430460D01*
X22488015Y17399898D01*
X22268504Y17324539D01*
X22268495Y17324536D01*
X22064371Y17214069D01*
X22064365Y17214065D01*
X21881222Y17071519D01*
X21881219Y17071516D01*
X21724016Y16900748D01*
X21597075Y16706449D01*
X21503842Y16493901D01*
X21446866Y16268909D01*
X21446864Y16268898D01*
X21427700Y16037607D01*
X21427700Y16037594D01*
X6492299Y16037594D01*
X6492299Y16285872D01*
X6485891Y16345483D01*
X6470908Y16385654D01*
X6435597Y16480329D01*
X6435593Y16480336D01*
X6349347Y16595545D01*
X6349344Y16595548D01*
X6234135Y16681794D01*
X6234128Y16681798D01*
X6099282Y16732092D01*
X6099283Y16732092D01*
X6039683Y16738499D01*
X6039681Y16738500D01*
X6039673Y16738500D01*
X6039664Y16738500D01*
X2943929Y16738500D01*
X2943923Y16738499D01*
X2884316Y16732092D01*
X2749471Y16681798D01*
X2749464Y16681794D01*
X2634255Y16595548D01*
X2634252Y16595545D01*
X2548006Y16480336D01*
X2548002Y16480329D01*
X2497708Y16345483D01*
X2491301Y16285884D01*
X2491301Y16285877D01*
X2491300Y16285865D01*
X2491300Y13190130D01*
X500500Y13190130D01*
X500500Y18453514D01*
X1214900Y18453514D01*
X1244459Y18266882D01*
X1302854Y18087164D01*
X1381882Y17932065D01*
X1388640Y17918801D01*
X1499710Y17765927D01*
X1633327Y17632310D01*
X1786201Y17521240D01*
X1865747Y17480710D01*
X1954563Y17435455D01*
X1954565Y17435455D01*
X1954568Y17435453D01*
X2050897Y17404154D01*
X2134281Y17377060D01*
X2320914Y17347500D01*
X2320919Y17347500D01*
X3309886Y17347500D01*
X3496518Y17377060D01*
X3676232Y17435453D01*
X3844599Y17521240D01*
X3997473Y17632310D01*
X4131090Y17765927D01*
X4242160Y17918801D01*
X4327947Y18087168D01*
X4386340Y18266882D01*
X4415900Y18453514D01*
X4415900Y18642487D01*
X4386340Y18829119D01*
X4327945Y19008837D01*
X4242159Y19177200D01*
X4211794Y19218994D01*
X30646700Y19218994D01*
X30665864Y18987703D01*
X30665866Y18987692D01*
X30722842Y18762700D01*
X30816075Y18550152D01*
X30943016Y18355853D01*
X30943019Y18355849D01*
X30943021Y18355847D01*
X31100216Y18185087D01*
X31100219Y18185085D01*
X31100222Y18185082D01*
X31283365Y18042536D01*
X31283371Y18042532D01*
X31283374Y18042530D01*
X31487497Y17932064D01*
X31601487Y17892932D01*
X31707015Y17856703D01*
X31707017Y17856703D01*
X31707019Y17856702D01*
X31935951Y17818500D01*
X31935952Y17818500D01*
X32168048Y17818500D01*
X32168049Y17818500D01*
X32396981Y17856702D01*
X32616503Y17932064D01*
X32820626Y18042530D01*
X33003784Y18185087D01*
X33160979Y18355847D01*
X33287924Y18550151D01*
X33381157Y18762700D01*
X33438134Y18987695D01*
X33438135Y18987703D01*
X33457300Y19218994D01*
X37146700Y19218994D01*
X37165864Y18987703D01*
X37165866Y18987692D01*
X37222842Y18762700D01*
X37316075Y18550152D01*
X37443016Y18355853D01*
X37443019Y18355849D01*
X37443021Y18355847D01*
X37600216Y18185087D01*
X37600219Y18185085D01*
X37600222Y18185082D01*
X37783365Y18042536D01*
X37783371Y18042532D01*
X37783374Y18042530D01*
X37987497Y17932064D01*
X38101487Y17892932D01*
X38207015Y17856703D01*
X38207017Y17856703D01*
X38207019Y17856702D01*
X38435951Y17818500D01*
X38435952Y17818500D01*
X38668048Y17818500D01*
X38668049Y17818500D01*
X38896981Y17856702D01*
X39116503Y17932064D01*
X39320626Y18042530D01*
X39503784Y18185087D01*
X39660979Y18355847D01*
X39787924Y18550151D01*
X39881157Y18762700D01*
X39938134Y18987695D01*
X39938135Y18987703D01*
X39957300Y19218994D01*
X39957300Y19219007D01*
X39938135Y19450298D01*
X39938133Y19450309D01*
X39881157Y19675301D01*
X39787924Y19887849D01*
X39660983Y20082148D01*
X39660980Y20082151D01*
X39660979Y20082153D01*
X39503784Y20252913D01*
X39503779Y20252917D01*
X39503777Y20252919D01*
X39320634Y20395465D01*
X39320628Y20395469D01*
X39116504Y20505936D01*
X39116495Y20505939D01*
X38896984Y20581298D01*
X38725282Y20609950D01*
X38668049Y20619500D01*
X38435951Y20619500D01*
X38390164Y20611860D01*
X38207015Y20581298D01*
X37987504Y20505939D01*
X37987495Y20505936D01*
X37783371Y20395469D01*
X37783365Y20395465D01*
X37600222Y20252919D01*
X37600219Y20252916D01*
X37443016Y20082148D01*
X37316075Y19887849D01*
X37222842Y19675301D01*
X37165866Y19450309D01*
X37165864Y19450298D01*
X37146700Y19219007D01*
X37146700Y19218994D01*
X33457300Y19218994D01*
X33457300Y19219007D01*
X33438135Y19450298D01*
X33438133Y19450309D01*
X33381157Y19675301D01*
X33287924Y19887849D01*
X33160983Y20082148D01*
X33160980Y20082151D01*
X33160979Y20082153D01*
X33003784Y20252913D01*
X33003779Y20252917D01*
X33003777Y20252919D01*
X32820634Y20395465D01*
X32820628Y20395469D01*
X32616504Y20505936D01*
X32616495Y20505939D01*
X32396984Y20581298D01*
X32225282Y20609950D01*
X32168049Y20619500D01*
X31935951Y20619500D01*
X31890164Y20611860D01*
X31707015Y20581298D01*
X31487504Y20505939D01*
X31487495Y20505936D01*
X31283371Y20395469D01*
X31283365Y20395465D01*
X31100222Y20252919D01*
X31100219Y20252916D01*
X30943016Y20082148D01*
X30816075Y19887849D01*
X30722842Y19675301D01*
X30665866Y19450309D01*
X30665864Y19450298D01*
X30646700Y19219007D01*
X30646700Y19218994D01*
X4211794Y19218994D01*
X4131090Y19330073D01*
X3997473Y19463690D01*
X3844599Y19574760D01*
X3844595Y19574762D01*
X3751676Y19622107D01*
X3700880Y19670082D01*
X3684085Y19737903D01*
X3706623Y19804038D01*
X3720284Y19820268D01*
X3784688Y19884671D01*
X3911195Y20065342D01*
X4004407Y20265237D01*
X4061492Y20478280D01*
X4080715Y20698000D01*
X4061492Y20917720D01*
X4004407Y21130763D01*
X3911195Y21330657D01*
X3784688Y21511329D01*
X3784686Y21511332D01*
X3685699Y21610319D01*
X3652214Y21671642D01*
X3657198Y21741334D01*
X3685699Y21785681D01*
X3784687Y21884670D01*
X3911192Y22065338D01*
X3911191Y22065338D01*
X3911195Y22065342D01*
X4004407Y22265237D01*
X4061492Y22478280D01*
X4080715Y22698000D01*
X4066017Y22866000D01*
X11487459Y22866000D01*
X11506775Y22669871D01*
X11563988Y22481267D01*
X11656886Y22307468D01*
X11656890Y22307461D01*
X11781916Y22155117D01*
X11934260Y22030091D01*
X11934267Y22030087D01*
X12108066Y21937189D01*
X12108069Y21937189D01*
X12108073Y21937186D01*
X12296668Y21879976D01*
X12492800Y21860659D01*
X12688932Y21879976D01*
X12877527Y21937186D01*
X13051338Y22030090D01*
X13203683Y22155117D01*
X13328710Y22307462D01*
X13335941Y22320990D01*
X13384903Y22370835D01*
X13453040Y22386296D01*
X13518720Y22362465D01*
X13554659Y22320990D01*
X13561888Y22307464D01*
X13561890Y22307461D01*
X13686916Y22155117D01*
X13839260Y22030091D01*
X13839267Y22030087D01*
X14013066Y21937189D01*
X14013069Y21937189D01*
X14013073Y21937186D01*
X14201668Y21879976D01*
X14397800Y21860659D01*
X14593932Y21879976D01*
X14782527Y21937186D01*
X14956338Y22030090D01*
X15108683Y22155117D01*
X15233710Y22307462D01*
X15325014Y22478280D01*
X15326611Y22481267D01*
X15326611Y22481268D01*
X15326614Y22481273D01*
X15383824Y22669868D01*
X15403141Y22866000D01*
X15383824Y23062132D01*
X15326614Y23250727D01*
X15326611Y23250731D01*
X15326611Y23250734D01*
X15233713Y23424533D01*
X15233709Y23424540D01*
X15108683Y23576884D01*
X14956339Y23701910D01*
X14956332Y23701914D01*
X14924378Y23718994D01*
X30646700Y23718994D01*
X30665864Y23487703D01*
X30665866Y23487692D01*
X30722842Y23262700D01*
X30816075Y23050152D01*
X30943016Y22855853D01*
X30943019Y22855849D01*
X30943021Y22855847D01*
X31100216Y22685087D01*
X31100219Y22685085D01*
X31100222Y22685082D01*
X31283365Y22542536D01*
X31283371Y22542532D01*
X31283374Y22542530D01*
X31487497Y22432064D01*
X31601487Y22392932D01*
X31707015Y22356703D01*
X31707017Y22356703D01*
X31707019Y22356702D01*
X31935951Y22318500D01*
X31935952Y22318500D01*
X32168048Y22318500D01*
X32168049Y22318500D01*
X32396981Y22356702D01*
X32616503Y22432064D01*
X32820626Y22542530D01*
X33003784Y22685087D01*
X33160979Y22855847D01*
X33287924Y23050151D01*
X33381157Y23262700D01*
X33438134Y23487695D01*
X33438135Y23487703D01*
X33457300Y23718994D01*
X37146700Y23718994D01*
X37165864Y23487703D01*
X37165866Y23487692D01*
X37222842Y23262700D01*
X37316075Y23050152D01*
X37443016Y22855853D01*
X37443019Y22855849D01*
X37443021Y22855847D01*
X37600216Y22685087D01*
X37600219Y22685085D01*
X37600222Y22685082D01*
X37783365Y22542536D01*
X37783371Y22542532D01*
X37783374Y22542530D01*
X37987497Y22432064D01*
X38101487Y22392932D01*
X38207015Y22356703D01*
X38207017Y22356703D01*
X38207019Y22356702D01*
X38435951Y22318500D01*
X38435952Y22318500D01*
X38668048Y22318500D01*
X38668049Y22318500D01*
X38896981Y22356702D01*
X39116503Y22432064D01*
X39320626Y22542530D01*
X39503784Y22685087D01*
X39660979Y22855847D01*
X39787924Y23050151D01*
X39881157Y23262700D01*
X39938134Y23487695D01*
X39938135Y23487703D01*
X39957300Y23718994D01*
X39957300Y23719007D01*
X39938135Y23950298D01*
X39938133Y23950309D01*
X39923270Y24009000D01*
X47860259Y24009000D01*
X47879575Y23812871D01*
X47879576Y23812868D01*
X47923737Y23667288D01*
X47936788Y23624267D01*
X48029686Y23450468D01*
X48029690Y23450461D01*
X48154716Y23298117D01*
X48307060Y23173091D01*
X48307067Y23173087D01*
X48480866Y23080189D01*
X48480869Y23080189D01*
X48480873Y23080186D01*
X48669468Y23022976D01*
X48865600Y23003659D01*
X49061732Y23022976D01*
X49250327Y23080186D01*
X49424138Y23173090D01*
X49576483Y23298117D01*
X49597067Y23323199D01*
X63446691Y23323199D01*
X63467100Y23037838D01*
X63527909Y22758305D01*
X63627891Y22490242D01*
X63764991Y22239162D01*
X63764996Y22239154D01*
X63871682Y22096639D01*
X63871683Y22096638D01*
X64766567Y22991523D01*
X64778297Y22963205D01*
X64861470Y22838728D01*
X64967328Y22732870D01*
X65091805Y22649697D01*
X65120120Y22637969D01*
X64225236Y21743085D01*
X64367760Y21636393D01*
X64367761Y21636392D01*
X64618842Y21499292D01*
X64618841Y21499292D01*
X64886904Y21399310D01*
X65166437Y21338501D01*
X65451799Y21318091D01*
X65451801Y21318091D01*
X65737162Y21338501D01*
X66016695Y21399310D01*
X66284758Y21499292D01*
X66535847Y21636397D01*
X66678361Y21743084D01*
X66678362Y21743085D01*
X65783479Y22637969D01*
X65811795Y22649697D01*
X65936272Y22732870D01*
X66042130Y22838728D01*
X66125303Y22963205D01*
X66137031Y22991522D01*
X67031915Y22096638D01*
X67031916Y22096639D01*
X67138603Y22239153D01*
X67275708Y22490242D01*
X67375690Y22758305D01*
X67436499Y23037838D01*
X67456909Y23323199D01*
X67456909Y23323202D01*
X67436499Y23608563D01*
X67375690Y23888096D01*
X67275708Y24156159D01*
X67138608Y24407239D01*
X67138607Y24407240D01*
X67031915Y24549764D01*
X66137031Y23654880D01*
X66125303Y23683195D01*
X66042130Y23807672D01*
X65936272Y23913530D01*
X65811795Y23996703D01*
X65783478Y24008433D01*
X66678362Y24903317D01*
X66678361Y24903318D01*
X66535846Y25010004D01*
X66535838Y25010009D01*
X66284757Y25147109D01*
X66284758Y25147109D01*
X66016695Y25247091D01*
X65737162Y25307900D01*
X65451801Y25328309D01*
X65451799Y25328309D01*
X65166437Y25307900D01*
X64886904Y25247091D01*
X64618841Y25147109D01*
X64367761Y25010009D01*
X64367753Y25010004D01*
X64225237Y24903318D01*
X64225236Y24903317D01*
X65120121Y24008433D01*
X65091805Y23996703D01*
X64967328Y23913530D01*
X64861470Y23807672D01*
X64778297Y23683195D01*
X64766568Y23654879D01*
X63871683Y24549764D01*
X63871682Y24549763D01*
X63764996Y24407247D01*
X63764991Y24407239D01*
X63627891Y24156159D01*
X63527909Y23888096D01*
X63467100Y23608563D01*
X63446691Y23323202D01*
X63446691Y23323199D01*
X49597067Y23323199D01*
X49701510Y23450462D01*
X49751980Y23544884D01*
X49794411Y23624267D01*
X49794411Y23624268D01*
X49794414Y23624273D01*
X49851624Y23812868D01*
X49870941Y24009000D01*
X49851624Y24205132D01*
X49794414Y24393727D01*
X49794411Y24393731D01*
X49794411Y24393734D01*
X49701513Y24567533D01*
X49701509Y24567540D01*
X49576483Y24719884D01*
X49424139Y24844910D01*
X49424132Y24844914D01*
X49250333Y24937812D01*
X49250327Y24937814D01*
X49061732Y24995024D01*
X49061729Y24995025D01*
X48865600Y25014341D01*
X48669470Y24995025D01*
X48480866Y24937812D01*
X48307067Y24844914D01*
X48307060Y24844910D01*
X48154716Y24719884D01*
X48029690Y24567540D01*
X48029686Y24567533D01*
X47936788Y24393734D01*
X47879575Y24205130D01*
X47860259Y24009000D01*
X39923270Y24009000D01*
X39881157Y24175301D01*
X39787924Y24387849D01*
X39660983Y24582148D01*
X39660980Y24582151D01*
X39660979Y24582153D01*
X39503784Y24752913D01*
X39503779Y24752917D01*
X39503777Y24752919D01*
X39320634Y24895465D01*
X39320628Y24895469D01*
X39116504Y25005936D01*
X39116495Y25005939D01*
X38896984Y25081298D01*
X38725282Y25109950D01*
X38668049Y25119500D01*
X38435951Y25119500D01*
X38390164Y25111860D01*
X38207015Y25081298D01*
X37987504Y25005939D01*
X37987495Y25005936D01*
X37783371Y24895469D01*
X37783365Y24895465D01*
X37600222Y24752919D01*
X37600219Y24752916D01*
X37443016Y24582148D01*
X37316075Y24387849D01*
X37222842Y24175301D01*
X37165866Y23950309D01*
X37165864Y23950298D01*
X37146700Y23719007D01*
X37146700Y23718994D01*
X33457300Y23718994D01*
X33457300Y23719007D01*
X33438135Y23950298D01*
X33438133Y23950309D01*
X33381157Y24175301D01*
X33287924Y24387849D01*
X33160983Y24582148D01*
X33160980Y24582151D01*
X33160979Y24582153D01*
X33003784Y24752913D01*
X33003779Y24752917D01*
X33003777Y24752919D01*
X32820634Y24895465D01*
X32820628Y24895469D01*
X32616504Y25005936D01*
X32616495Y25005939D01*
X32396984Y25081298D01*
X32225282Y25109950D01*
X32168049Y25119500D01*
X31935951Y25119500D01*
X31890164Y25111860D01*
X31707015Y25081298D01*
X31487504Y25005939D01*
X31487495Y25005936D01*
X31283371Y24895469D01*
X31283365Y24895465D01*
X31100222Y24752919D01*
X31100219Y24752916D01*
X30943016Y24582148D01*
X30816075Y24387849D01*
X30722842Y24175301D01*
X30665866Y23950309D01*
X30665864Y23950298D01*
X30646700Y23719007D01*
X30646700Y23718994D01*
X14924378Y23718994D01*
X14782533Y23794812D01*
X14782527Y23794814D01*
X14593932Y23852024D01*
X14593929Y23852025D01*
X14397800Y23871341D01*
X14201670Y23852025D01*
X14013066Y23794812D01*
X13839267Y23701914D01*
X13839260Y23701910D01*
X13686916Y23576884D01*
X13561890Y23424540D01*
X13561888Y23424536D01*
X13554658Y23411009D01*
X13505695Y23361165D01*
X13437557Y23345705D01*
X13371878Y23369537D01*
X13335942Y23411009D01*
X13328711Y23424536D01*
X13328709Y23424540D01*
X13203683Y23576884D01*
X13051339Y23701910D01*
X13051332Y23701914D01*
X12877533Y23794812D01*
X12877527Y23794814D01*
X12688932Y23852024D01*
X12688929Y23852025D01*
X12492800Y23871341D01*
X12296670Y23852025D01*
X12108066Y23794812D01*
X11934267Y23701914D01*
X11934260Y23701910D01*
X11781916Y23576884D01*
X11656890Y23424540D01*
X11656886Y23424533D01*
X11563988Y23250734D01*
X11506775Y23062130D01*
X11487459Y22866000D01*
X4066017Y22866000D01*
X4061492Y22917720D01*
X4004407Y23130763D01*
X3911195Y23330657D01*
X3784688Y23511329D01*
X3784686Y23511332D01*
X3685699Y23610319D01*
X3652214Y23671642D01*
X3657198Y23741334D01*
X3685699Y23785681D01*
X3784687Y23884670D01*
X3863134Y23996703D01*
X3911195Y24065342D01*
X4004407Y24265237D01*
X4061492Y24478280D01*
X4080715Y24698000D01*
X4078800Y24719883D01*
X4067862Y24844910D01*
X4061492Y24917720D01*
X4004407Y25130763D01*
X3911195Y25330657D01*
X3784688Y25511329D01*
X3784686Y25511332D01*
X3720290Y25575728D01*
X3686805Y25637051D01*
X3691789Y25706743D01*
X3733661Y25762676D01*
X3751677Y25773894D01*
X3844597Y25821239D01*
X3844596Y25821239D01*
X3844599Y25821240D01*
X3997473Y25932310D01*
X4131090Y26065927D01*
X4242160Y26218801D01*
X4327947Y26387168D01*
X4386340Y26566882D01*
X4415900Y26753514D01*
X4415900Y26942487D01*
X4386340Y27129119D01*
X4327945Y27308837D01*
X4242159Y27477200D01*
X4131090Y27630073D01*
X3997473Y27763690D01*
X3844599Y27874760D01*
X3676236Y27960546D01*
X3496518Y28018941D01*
X3309886Y28048500D01*
X3309881Y28048500D01*
X2320919Y28048500D01*
X2320914Y28048500D01*
X2134281Y28018941D01*
X1954563Y27960546D01*
X1786200Y27874760D01*
X1698979Y27811390D01*
X1633327Y27763690D01*
X1633325Y27763688D01*
X1633324Y27763688D01*
X1499712Y27630076D01*
X1499712Y27630075D01*
X1499710Y27630073D01*
X1452010Y27564421D01*
X1388640Y27477200D01*
X1302854Y27308837D01*
X1244459Y27129119D01*
X1214900Y26942487D01*
X1214900Y26753514D01*
X1244459Y26566882D01*
X1302854Y26387164D01*
X1388640Y26218801D01*
X1499710Y26065927D01*
X1633327Y25932310D01*
X1786201Y25821240D01*
X1874454Y25776273D01*
X1879123Y25773894D01*
X1929919Y25725919D01*
X1946714Y25658098D01*
X1924177Y25591964D01*
X1910510Y25575728D01*
X1846110Y25511328D01*
X1719605Y25330658D01*
X1719604Y25330656D01*
X1626394Y25130765D01*
X1626390Y25130756D01*
X1569309Y24917725D01*
X1569307Y24917715D01*
X1550085Y24698002D01*
X1550085Y24697999D01*
X1569307Y24478286D01*
X1569309Y24478276D01*
X1626390Y24265245D01*
X1626395Y24265231D01*
X1719603Y24065346D01*
X1719607Y24065338D01*
X1846112Y23884670D01*
X1945101Y23785681D01*
X1978586Y23724358D01*
X1973602Y23654666D01*
X1945101Y23610319D01*
X1846113Y23511332D01*
X1719605Y23330658D01*
X1719604Y23330656D01*
X1626394Y23130765D01*
X1626390Y23130756D01*
X1569309Y22917725D01*
X1569307Y22917715D01*
X1550085Y22698002D01*
X1550085Y22697999D01*
X1569307Y22478286D01*
X1569309Y22478276D01*
X1626390Y22265245D01*
X1626395Y22265231D01*
X1719603Y22065346D01*
X1719607Y22065338D01*
X1846112Y21884670D01*
X1945101Y21785681D01*
X1978586Y21724358D01*
X1973602Y21654666D01*
X1945101Y21610319D01*
X1846113Y21511332D01*
X1719605Y21330658D01*
X1719604Y21330656D01*
X1626394Y21130765D01*
X1626390Y21130756D01*
X1569309Y20917725D01*
X1569307Y20917715D01*
X1550085Y20698002D01*
X1550085Y20697999D01*
X1569307Y20478286D01*
X1569309Y20478276D01*
X1626390Y20265245D01*
X1626395Y20265231D01*
X1719603Y20065346D01*
X1719607Y20065338D01*
X1846112Y19884670D01*
X1910509Y19820273D01*
X1943994Y19758950D01*
X1939010Y19689258D01*
X1897138Y19633325D01*
X1879124Y19622108D01*
X1786203Y19574762D01*
X1709764Y19519225D01*
X1633327Y19463690D01*
X1633325Y19463688D01*
X1633324Y19463688D01*
X1499712Y19330076D01*
X1499712Y19330075D01*
X1499710Y19330073D01*
X1452010Y19264421D01*
X1388640Y19177200D01*
X1302854Y19008837D01*
X1244459Y18829119D01*
X1214900Y18642487D01*
X1214900Y18453514D01*
X500500Y18453514D01*
X500500Y29594019D01*
X1466200Y29594019D01*
X1500673Y29376365D01*
X1568767Y29166790D01*
X1668813Y28970440D01*
X1798342Y28792159D01*
X1954158Y28636343D01*
X2132439Y28506814D01*
X2328789Y28406768D01*
X2538363Y28338674D01*
X2616199Y28326346D01*
X2616200Y28326346D01*
X2616200Y29505718D01*
X2634609Y29495089D01*
X2787209Y29454200D01*
X2945191Y29454200D01*
X3097791Y29495089D01*
X3116200Y29505718D01*
X3116200Y28326346D01*
X3194034Y28338674D01*
X3194037Y28338674D01*
X3403610Y28406768D01*
X3599960Y28506814D01*
X3778241Y28636343D01*
X3934057Y28792159D01*
X3934062Y28792165D01*
X4035572Y28931881D01*
X4090902Y28974547D01*
X4160515Y28980526D01*
X4222310Y28947921D01*
X4236208Y28931881D01*
X4337952Y28791842D01*
X4337956Y28791837D01*
X4493836Y28635957D01*
X4493841Y28635953D01*
X4649392Y28522940D01*
X4672178Y28506385D01*
X4788701Y28447013D01*
X4868593Y28406305D01*
X4868596Y28406304D01*
X4973421Y28372245D01*
X5078249Y28338185D01*
X5295978Y28303700D01*
X5295979Y28303700D01*
X5516421Y28303700D01*
X5516422Y28303700D01*
X5734151Y28338185D01*
X5943806Y28406305D01*
X6140222Y28506385D01*
X6318565Y28635958D01*
X6474442Y28791835D01*
X6576191Y28931883D01*
X6631520Y28974547D01*
X6701133Y28980526D01*
X6762929Y28947921D01*
X6776827Y28931882D01*
X6878342Y28792159D01*
X7034158Y28636343D01*
X7212439Y28506814D01*
X7408789Y28406768D01*
X7618363Y28338674D01*
X7696199Y28326346D01*
X7696200Y28326346D01*
X7696200Y29505718D01*
X7714609Y29495089D01*
X7867209Y29454200D01*
X8025191Y29454200D01*
X8177791Y29495089D01*
X8196200Y29505718D01*
X8196200Y28326346D01*
X8274034Y28338674D01*
X8274037Y28338674D01*
X8483610Y28406768D01*
X8679960Y28506814D01*
X8858241Y28636343D01*
X9014057Y28792159D01*
X9014062Y28792165D01*
X9115572Y28931881D01*
X9170902Y28974547D01*
X9240515Y28980526D01*
X9302310Y28947921D01*
X9316208Y28931881D01*
X9417952Y28791842D01*
X9417956Y28791837D01*
X9573836Y28635957D01*
X9573841Y28635953D01*
X9729392Y28522940D01*
X9752178Y28506385D01*
X9868701Y28447013D01*
X9948593Y28406305D01*
X9948596Y28406304D01*
X10053421Y28372245D01*
X10158249Y28338185D01*
X10375978Y28303700D01*
X10375979Y28303700D01*
X10596421Y28303700D01*
X10596422Y28303700D01*
X10814151Y28338185D01*
X11023806Y28406305D01*
X11220222Y28506385D01*
X11398565Y28635958D01*
X11554442Y28791835D01*
X11565004Y28806374D01*
X11655882Y28931455D01*
X11711211Y28974121D01*
X11780825Y28980100D01*
X11842620Y28947495D01*
X11856518Y28931455D01*
X11957952Y28791842D01*
X11957956Y28791837D01*
X12113836Y28635957D01*
X12113841Y28635953D01*
X12269392Y28522940D01*
X12292178Y28506385D01*
X12408701Y28447013D01*
X12488593Y28406305D01*
X12488596Y28406304D01*
X12593421Y28372245D01*
X12698249Y28338185D01*
X12915978Y28303700D01*
X12915979Y28303700D01*
X13136421Y28303700D01*
X13136422Y28303700D01*
X13354151Y28338185D01*
X13563806Y28406305D01*
X13760222Y28506385D01*
X13938565Y28635958D01*
X14094442Y28791835D01*
X14196191Y28931883D01*
X14251520Y28974547D01*
X14321133Y28980526D01*
X14382929Y28947921D01*
X14396827Y28931882D01*
X14498342Y28792159D01*
X14654158Y28636343D01*
X14832439Y28506814D01*
X15028789Y28406768D01*
X15238363Y28338674D01*
X15316199Y28326346D01*
X15316200Y28326346D01*
X15316200Y29505718D01*
X15334609Y29495089D01*
X15487209Y29454200D01*
X15645191Y29454200D01*
X15797791Y29495089D01*
X15816200Y29505718D01*
X15816200Y28326346D01*
X15894034Y28338674D01*
X15894037Y28338674D01*
X16103610Y28406768D01*
X16299960Y28506814D01*
X16478241Y28636343D01*
X16634057Y28792159D01*
X16634062Y28792165D01*
X16735572Y28931881D01*
X16790902Y28974547D01*
X16860515Y28980526D01*
X16922310Y28947921D01*
X16936208Y28931881D01*
X17037952Y28791842D01*
X17037956Y28791837D01*
X17193836Y28635957D01*
X17193841Y28635953D01*
X17349392Y28522940D01*
X17372178Y28506385D01*
X17488701Y28447013D01*
X17568593Y28406305D01*
X17568596Y28406304D01*
X17673421Y28372245D01*
X17778249Y28338185D01*
X17995978Y28303700D01*
X17995979Y28303700D01*
X18216421Y28303700D01*
X18216422Y28303700D01*
X18434151Y28338185D01*
X18643806Y28406305D01*
X18840222Y28506385D01*
X19018565Y28635958D01*
X19174442Y28791835D01*
X19185004Y28806374D01*
X19275882Y28931455D01*
X19331211Y28974121D01*
X19400825Y28980100D01*
X19462620Y28947495D01*
X19476518Y28931455D01*
X19577952Y28791842D01*
X19577956Y28791837D01*
X19733836Y28635957D01*
X19733841Y28635953D01*
X19889392Y28522940D01*
X19912178Y28506385D01*
X20028701Y28447013D01*
X20108593Y28406305D01*
X20108596Y28406304D01*
X20213421Y28372245D01*
X20318249Y28338185D01*
X20535978Y28303700D01*
X20535979Y28303700D01*
X20756421Y28303700D01*
X20756422Y28303700D01*
X20974151Y28338185D01*
X21183806Y28406305D01*
X21380222Y28506385D01*
X21558565Y28635958D01*
X21714442Y28791835D01*
X21725004Y28806374D01*
X21815882Y28931455D01*
X21871211Y28974121D01*
X21940825Y28980100D01*
X22002620Y28947495D01*
X22016518Y28931455D01*
X22117952Y28791842D01*
X22117956Y28791837D01*
X22273836Y28635957D01*
X22273841Y28635953D01*
X22429392Y28522940D01*
X22452178Y28506385D01*
X22568701Y28447013D01*
X22648593Y28406305D01*
X22648596Y28406304D01*
X22753421Y28372245D01*
X22858249Y28338185D01*
X23075978Y28303700D01*
X23075979Y28303700D01*
X23296421Y28303700D01*
X23296422Y28303700D01*
X23514151Y28338185D01*
X23723806Y28406305D01*
X23920222Y28506385D01*
X24098565Y28635958D01*
X24254442Y28791835D01*
X24265004Y28806374D01*
X24355882Y28931455D01*
X24411211Y28974121D01*
X24480825Y28980100D01*
X24542620Y28947495D01*
X24556518Y28931455D01*
X24657952Y28791842D01*
X24657956Y28791837D01*
X24813836Y28635957D01*
X24813841Y28635953D01*
X24969392Y28522940D01*
X24992178Y28506385D01*
X25108701Y28447013D01*
X25188593Y28406305D01*
X25188596Y28406304D01*
X25293421Y28372245D01*
X25398249Y28338185D01*
X25615978Y28303700D01*
X25615979Y28303700D01*
X25836421Y28303700D01*
X25836422Y28303700D01*
X26054151Y28338185D01*
X26263806Y28406305D01*
X26460222Y28506385D01*
X26638565Y28635958D01*
X26794442Y28791835D01*
X26805004Y28806374D01*
X26895882Y28931455D01*
X26951211Y28974121D01*
X27020825Y28980100D01*
X27082620Y28947495D01*
X27096518Y28931455D01*
X27197952Y28791842D01*
X27197956Y28791837D01*
X27353836Y28635957D01*
X27353841Y28635953D01*
X27509392Y28522940D01*
X27532178Y28506385D01*
X27648701Y28447013D01*
X27728593Y28406305D01*
X27728596Y28406304D01*
X27833421Y28372245D01*
X27938249Y28338185D01*
X28155978Y28303700D01*
X28155979Y28303700D01*
X28376421Y28303700D01*
X28376422Y28303700D01*
X28594151Y28338185D01*
X28803806Y28406305D01*
X29000222Y28506385D01*
X29178565Y28635958D01*
X29334442Y28791835D01*
X29345004Y28806374D01*
X29435882Y28931455D01*
X29491211Y28974121D01*
X29560825Y28980100D01*
X29622620Y28947495D01*
X29636518Y28931455D01*
X29737952Y28791842D01*
X29737956Y28791837D01*
X29893836Y28635957D01*
X29893841Y28635953D01*
X30049392Y28522940D01*
X30072178Y28506385D01*
X30188701Y28447013D01*
X30268593Y28406305D01*
X30268596Y28406304D01*
X30373421Y28372245D01*
X30478249Y28338185D01*
X30695978Y28303700D01*
X30695979Y28303700D01*
X30916421Y28303700D01*
X30916422Y28303700D01*
X31134151Y28338185D01*
X31343806Y28406305D01*
X31540222Y28506385D01*
X31718565Y28635958D01*
X31874442Y28791835D01*
X31885004Y28806374D01*
X31975882Y28931455D01*
X32031211Y28974121D01*
X32100825Y28980100D01*
X32162620Y28947495D01*
X32176518Y28931455D01*
X32277952Y28791842D01*
X32277956Y28791837D01*
X32433836Y28635957D01*
X32433841Y28635953D01*
X32589392Y28522940D01*
X32612178Y28506385D01*
X32728701Y28447013D01*
X32808593Y28406305D01*
X32808596Y28406304D01*
X32913421Y28372245D01*
X33018249Y28338185D01*
X33235978Y28303700D01*
X33235979Y28303700D01*
X33456421Y28303700D01*
X33456422Y28303700D01*
X33674151Y28338185D01*
X33883806Y28406305D01*
X34080222Y28506385D01*
X34258565Y28635958D01*
X34414442Y28791835D01*
X34425004Y28806374D01*
X34515882Y28931455D01*
X34571211Y28974121D01*
X34640825Y28980100D01*
X34702620Y28947495D01*
X34716518Y28931455D01*
X34817952Y28791842D01*
X34817956Y28791837D01*
X34973836Y28635957D01*
X34973841Y28635953D01*
X35129392Y28522940D01*
X35152178Y28506385D01*
X35268701Y28447013D01*
X35348593Y28406305D01*
X35348596Y28406304D01*
X35453421Y28372245D01*
X35558249Y28338185D01*
X35775978Y28303700D01*
X35775979Y28303700D01*
X35996421Y28303700D01*
X35996422Y28303700D01*
X36214151Y28338185D01*
X36423806Y28406305D01*
X36620222Y28506385D01*
X36798565Y28635958D01*
X36954442Y28791835D01*
X36965004Y28806374D01*
X37055882Y28931455D01*
X37111211Y28974121D01*
X37180825Y28980100D01*
X37242620Y28947495D01*
X37256518Y28931455D01*
X37357952Y28791842D01*
X37357956Y28791837D01*
X37513836Y28635957D01*
X37513841Y28635953D01*
X37669392Y28522940D01*
X37692178Y28506385D01*
X37808701Y28447013D01*
X37888593Y28406305D01*
X37888596Y28406304D01*
X37993421Y28372245D01*
X38098249Y28338185D01*
X38315978Y28303700D01*
X38315979Y28303700D01*
X38536421Y28303700D01*
X38536422Y28303700D01*
X38754151Y28338185D01*
X38963806Y28406305D01*
X39160222Y28506385D01*
X39338565Y28635958D01*
X39494442Y28791835D01*
X39505004Y28806374D01*
X39595882Y28931455D01*
X39651211Y28974121D01*
X39720825Y28980100D01*
X39782620Y28947495D01*
X39796518Y28931455D01*
X39897952Y28791842D01*
X39897956Y28791837D01*
X40053836Y28635957D01*
X40053841Y28635953D01*
X40209392Y28522940D01*
X40232178Y28506385D01*
X40348701Y28447013D01*
X40428593Y28406305D01*
X40428596Y28406304D01*
X40533421Y28372245D01*
X40638249Y28338185D01*
X40855978Y28303700D01*
X40855979Y28303700D01*
X41076421Y28303700D01*
X41076422Y28303700D01*
X41294151Y28338185D01*
X41503806Y28406305D01*
X41700222Y28506385D01*
X41878565Y28635958D01*
X42034442Y28791835D01*
X42045004Y28806374D01*
X42135882Y28931455D01*
X42191211Y28974121D01*
X42260825Y28980100D01*
X42322620Y28947495D01*
X42336518Y28931455D01*
X42437952Y28791842D01*
X42437956Y28791837D01*
X42593836Y28635957D01*
X42593841Y28635953D01*
X42749392Y28522940D01*
X42772178Y28506385D01*
X42888701Y28447013D01*
X42968593Y28406305D01*
X42968596Y28406304D01*
X43073421Y28372245D01*
X43178249Y28338185D01*
X43395978Y28303700D01*
X43395979Y28303700D01*
X43616421Y28303700D01*
X43616422Y28303700D01*
X43834151Y28338185D01*
X44043806Y28406305D01*
X44240222Y28506385D01*
X44418565Y28635958D01*
X44574442Y28791835D01*
X44585004Y28806374D01*
X44675882Y28931455D01*
X44731211Y28974121D01*
X44800825Y28980100D01*
X44862620Y28947495D01*
X44876518Y28931455D01*
X44977952Y28791842D01*
X44977956Y28791837D01*
X45133836Y28635957D01*
X45133841Y28635953D01*
X45289392Y28522940D01*
X45312178Y28506385D01*
X45428701Y28447013D01*
X45508593Y28406305D01*
X45508596Y28406304D01*
X45613421Y28372245D01*
X45718249Y28338185D01*
X45935978Y28303700D01*
X45935979Y28303700D01*
X46156421Y28303700D01*
X46156422Y28303700D01*
X46374151Y28338185D01*
X46583806Y28406305D01*
X46780222Y28506385D01*
X46958565Y28635958D01*
X47114442Y28791835D01*
X47125004Y28806374D01*
X47215882Y28931455D01*
X47271211Y28974121D01*
X47340825Y28980100D01*
X47402620Y28947495D01*
X47416518Y28931455D01*
X47517952Y28791842D01*
X47517956Y28791837D01*
X47673836Y28635957D01*
X47673841Y28635953D01*
X47829392Y28522940D01*
X47852178Y28506385D01*
X47968701Y28447013D01*
X48048593Y28406305D01*
X48048596Y28406304D01*
X48153421Y28372245D01*
X48258249Y28338185D01*
X48475978Y28303700D01*
X48475979Y28303700D01*
X48696421Y28303700D01*
X48696422Y28303700D01*
X48914151Y28338185D01*
X49123806Y28406305D01*
X49320222Y28506385D01*
X49498565Y28635958D01*
X49549124Y28686518D01*
X49610445Y28720002D01*
X49680136Y28715018D01*
X49736070Y28673147D01*
X49752986Y28642170D01*
X49782846Y28562113D01*
X49782849Y28562107D01*
X49869009Y28447013D01*
X49869012Y28447010D01*
X49984106Y28360850D01*
X49984113Y28360846D01*
X50118820Y28310604D01*
X50118827Y28310602D01*
X50178355Y28304201D01*
X50178372Y28304200D01*
X50876200Y28304200D01*
X50876200Y29505718D01*
X50894609Y29495089D01*
X51047209Y29454200D01*
X51205191Y29454200D01*
X51357791Y29495089D01*
X51376200Y29505718D01*
X51376200Y28304200D01*
X52074028Y28304200D01*
X52074044Y28304201D01*
X52133572Y28310602D01*
X52133579Y28310604D01*
X52268286Y28360846D01*
X52268293Y28360850D01*
X52383387Y28447010D01*
X52383390Y28447013D01*
X52469550Y28562107D01*
X52469554Y28562114D01*
X52519796Y28696821D01*
X52519798Y28696828D01*
X52526199Y28756356D01*
X52526200Y28756373D01*
X52526200Y29804200D01*
X51674682Y29804200D01*
X51685311Y29822609D01*
X51726200Y29975209D01*
X51726200Y30133191D01*
X51685311Y30285791D01*
X51674682Y30304200D01*
X52526200Y30304200D01*
X52526200Y31352028D01*
X52526199Y31352045D01*
X52519798Y31411573D01*
X52519796Y31411580D01*
X52469554Y31546287D01*
X52469550Y31546294D01*
X52383390Y31661388D01*
X52383387Y31661391D01*
X52268293Y31747551D01*
X52268286Y31747555D01*
X52133579Y31797797D01*
X52133572Y31797799D01*
X52074044Y31804200D01*
X51376200Y31804200D01*
X51376200Y30602683D01*
X51357791Y30613311D01*
X51205191Y30654200D01*
X51047209Y30654200D01*
X50894609Y30613311D01*
X50876200Y30602683D01*
X50876200Y31804200D01*
X50178355Y31804200D01*
X50118827Y31797799D01*
X50118820Y31797797D01*
X49984113Y31747555D01*
X49984106Y31747551D01*
X49869012Y31661391D01*
X49869009Y31661388D01*
X49782849Y31546294D01*
X49782843Y31546282D01*
X49752985Y31466231D01*
X49711114Y31410297D01*
X49645649Y31385881D01*
X49577376Y31400733D01*
X49549123Y31421884D01*
X49498563Y31472444D01*
X49498558Y31472448D01*
X49320225Y31602013D01*
X49320224Y31602014D01*
X49320222Y31602015D01*
X49257296Y31634078D01*
X49123806Y31702096D01*
X49123803Y31702097D01*
X48914152Y31770215D01*
X48805286Y31787458D01*
X48696422Y31804700D01*
X48475978Y31804700D01*
X48403401Y31793205D01*
X48258247Y31770215D01*
X48048596Y31702097D01*
X48048593Y31702096D01*
X47852174Y31602013D01*
X47673841Y31472448D01*
X47673836Y31472444D01*
X47517956Y31316564D01*
X47517952Y31316559D01*
X47416518Y31176946D01*
X47361188Y31134280D01*
X47291575Y31128301D01*
X47229780Y31160907D01*
X47215882Y31176946D01*
X47114447Y31316559D01*
X47114443Y31316564D01*
X46958563Y31472444D01*
X46958558Y31472448D01*
X46780225Y31602013D01*
X46780224Y31602014D01*
X46780222Y31602015D01*
X46717296Y31634078D01*
X46583806Y31702096D01*
X46583803Y31702097D01*
X46374152Y31770215D01*
X46265286Y31787458D01*
X46156422Y31804700D01*
X45935978Y31804700D01*
X45863401Y31793205D01*
X45718247Y31770215D01*
X45508596Y31702097D01*
X45508593Y31702096D01*
X45312174Y31602013D01*
X45133841Y31472448D01*
X45133836Y31472444D01*
X44977956Y31316564D01*
X44977952Y31316559D01*
X44876518Y31176946D01*
X44821188Y31134280D01*
X44751575Y31128301D01*
X44689780Y31160907D01*
X44675882Y31176946D01*
X44574447Y31316559D01*
X44574443Y31316564D01*
X44418563Y31472444D01*
X44418558Y31472448D01*
X44240225Y31602013D01*
X44240224Y31602014D01*
X44240222Y31602015D01*
X44177296Y31634078D01*
X44043806Y31702096D01*
X44043803Y31702097D01*
X43834152Y31770215D01*
X43725286Y31787458D01*
X43616422Y31804700D01*
X43395978Y31804700D01*
X43323401Y31793205D01*
X43178247Y31770215D01*
X42968596Y31702097D01*
X42968593Y31702096D01*
X42772174Y31602013D01*
X42593841Y31472448D01*
X42593836Y31472444D01*
X42437956Y31316564D01*
X42437952Y31316559D01*
X42336518Y31176946D01*
X42281188Y31134280D01*
X42211575Y31128301D01*
X42149780Y31160907D01*
X42135882Y31176946D01*
X42034447Y31316559D01*
X42034443Y31316564D01*
X41878563Y31472444D01*
X41878558Y31472448D01*
X41700225Y31602013D01*
X41700224Y31602014D01*
X41700222Y31602015D01*
X41637296Y31634078D01*
X41503806Y31702096D01*
X41503803Y31702097D01*
X41294152Y31770215D01*
X41185286Y31787458D01*
X41076422Y31804700D01*
X40855978Y31804700D01*
X40783401Y31793205D01*
X40638247Y31770215D01*
X40428596Y31702097D01*
X40428593Y31702096D01*
X40232174Y31602013D01*
X40053841Y31472448D01*
X40053836Y31472444D01*
X39897956Y31316564D01*
X39897952Y31316559D01*
X39796518Y31176946D01*
X39741188Y31134280D01*
X39671575Y31128301D01*
X39609780Y31160907D01*
X39595882Y31176946D01*
X39494447Y31316559D01*
X39494443Y31316564D01*
X39338563Y31472444D01*
X39338558Y31472448D01*
X39160225Y31602013D01*
X39160224Y31602014D01*
X39160222Y31602015D01*
X39097296Y31634078D01*
X38963806Y31702096D01*
X38963803Y31702097D01*
X38754152Y31770215D01*
X38645286Y31787458D01*
X38536422Y31804700D01*
X38315978Y31804700D01*
X38243401Y31793205D01*
X38098247Y31770215D01*
X37888596Y31702097D01*
X37888593Y31702096D01*
X37692174Y31602013D01*
X37513841Y31472448D01*
X37513836Y31472444D01*
X37357956Y31316564D01*
X37357952Y31316559D01*
X37256518Y31176946D01*
X37201188Y31134280D01*
X37131575Y31128301D01*
X37069780Y31160907D01*
X37055882Y31176946D01*
X36954447Y31316559D01*
X36954443Y31316564D01*
X36798563Y31472444D01*
X36798558Y31472448D01*
X36620225Y31602013D01*
X36620224Y31602014D01*
X36620222Y31602015D01*
X36557296Y31634078D01*
X36423806Y31702096D01*
X36423803Y31702097D01*
X36214152Y31770215D01*
X36105286Y31787458D01*
X35996422Y31804700D01*
X35775978Y31804700D01*
X35703401Y31793205D01*
X35558247Y31770215D01*
X35348596Y31702097D01*
X35348593Y31702096D01*
X35152174Y31602013D01*
X34973841Y31472448D01*
X34973836Y31472444D01*
X34817956Y31316564D01*
X34817952Y31316559D01*
X34716518Y31176946D01*
X34661188Y31134280D01*
X34591575Y31128301D01*
X34529780Y31160907D01*
X34515882Y31176946D01*
X34414447Y31316559D01*
X34414443Y31316564D01*
X34258563Y31472444D01*
X34258558Y31472448D01*
X34080225Y31602013D01*
X34080224Y31602014D01*
X34080222Y31602015D01*
X34017296Y31634078D01*
X33883806Y31702096D01*
X33883803Y31702097D01*
X33674152Y31770215D01*
X33565286Y31787458D01*
X33456422Y31804700D01*
X33235978Y31804700D01*
X33163401Y31793205D01*
X33018247Y31770215D01*
X32808596Y31702097D01*
X32808593Y31702096D01*
X32612174Y31602013D01*
X32433841Y31472448D01*
X32433836Y31472444D01*
X32277956Y31316564D01*
X32277952Y31316559D01*
X32176518Y31176946D01*
X32121188Y31134280D01*
X32051575Y31128301D01*
X31989780Y31160907D01*
X31975882Y31176946D01*
X31874447Y31316559D01*
X31874443Y31316564D01*
X31718563Y31472444D01*
X31718558Y31472448D01*
X31540225Y31602013D01*
X31540224Y31602014D01*
X31540222Y31602015D01*
X31477296Y31634078D01*
X31343806Y31702096D01*
X31343803Y31702097D01*
X31134152Y31770215D01*
X31025286Y31787458D01*
X30916422Y31804700D01*
X30695978Y31804700D01*
X30623401Y31793205D01*
X30478247Y31770215D01*
X30268596Y31702097D01*
X30268593Y31702096D01*
X30072174Y31602013D01*
X29893841Y31472448D01*
X29893836Y31472444D01*
X29737956Y31316564D01*
X29737952Y31316559D01*
X29636518Y31176946D01*
X29581188Y31134280D01*
X29511575Y31128301D01*
X29449780Y31160907D01*
X29435882Y31176946D01*
X29334447Y31316559D01*
X29334443Y31316564D01*
X29178563Y31472444D01*
X29178558Y31472448D01*
X29000225Y31602013D01*
X29000224Y31602014D01*
X29000222Y31602015D01*
X28937296Y31634078D01*
X28803806Y31702096D01*
X28803803Y31702097D01*
X28594152Y31770215D01*
X28485286Y31787458D01*
X28376422Y31804700D01*
X28155978Y31804700D01*
X28083401Y31793205D01*
X27938247Y31770215D01*
X27728596Y31702097D01*
X27728593Y31702096D01*
X27532174Y31602013D01*
X27353841Y31472448D01*
X27353836Y31472444D01*
X27197956Y31316564D01*
X27197952Y31316559D01*
X27096518Y31176946D01*
X27041188Y31134280D01*
X26971575Y31128301D01*
X26909780Y31160907D01*
X26895882Y31176946D01*
X26794447Y31316559D01*
X26794443Y31316564D01*
X26638563Y31472444D01*
X26638558Y31472448D01*
X26460225Y31602013D01*
X26460224Y31602014D01*
X26460222Y31602015D01*
X26397296Y31634078D01*
X26263806Y31702096D01*
X26263803Y31702097D01*
X26054152Y31770215D01*
X25945286Y31787458D01*
X25836422Y31804700D01*
X25615978Y31804700D01*
X25543401Y31793205D01*
X25398247Y31770215D01*
X25188596Y31702097D01*
X25188593Y31702096D01*
X24992174Y31602013D01*
X24813841Y31472448D01*
X24813836Y31472444D01*
X24657956Y31316564D01*
X24657952Y31316559D01*
X24556518Y31176946D01*
X24501188Y31134280D01*
X24431575Y31128301D01*
X24369780Y31160907D01*
X24355882Y31176946D01*
X24254447Y31316559D01*
X24254443Y31316564D01*
X24098563Y31472444D01*
X24098558Y31472448D01*
X23920225Y31602013D01*
X23920224Y31602014D01*
X23920222Y31602015D01*
X23857296Y31634078D01*
X23723806Y31702096D01*
X23723803Y31702097D01*
X23514152Y31770215D01*
X23405286Y31787458D01*
X23296422Y31804700D01*
X23075978Y31804700D01*
X23003401Y31793205D01*
X22858247Y31770215D01*
X22648596Y31702097D01*
X22648593Y31702096D01*
X22452174Y31602013D01*
X22273841Y31472448D01*
X22273836Y31472444D01*
X22117956Y31316564D01*
X22117952Y31316559D01*
X22016518Y31176946D01*
X21961188Y31134280D01*
X21891575Y31128301D01*
X21829780Y31160907D01*
X21815882Y31176946D01*
X21714447Y31316559D01*
X21714443Y31316564D01*
X21558563Y31472444D01*
X21558558Y31472448D01*
X21380225Y31602013D01*
X21380224Y31602014D01*
X21380222Y31602015D01*
X21317296Y31634078D01*
X21183806Y31702096D01*
X21183803Y31702097D01*
X20974152Y31770215D01*
X20865286Y31787458D01*
X20756422Y31804700D01*
X20535978Y31804700D01*
X20463401Y31793205D01*
X20318247Y31770215D01*
X20108596Y31702097D01*
X20108593Y31702096D01*
X19912174Y31602013D01*
X19733841Y31472448D01*
X19733836Y31472444D01*
X19577956Y31316564D01*
X19577952Y31316559D01*
X19476518Y31176946D01*
X19421188Y31134280D01*
X19351575Y31128301D01*
X19289780Y31160907D01*
X19275882Y31176946D01*
X19174447Y31316559D01*
X19174443Y31316564D01*
X19018563Y31472444D01*
X19018558Y31472448D01*
X18840225Y31602013D01*
X18840224Y31602014D01*
X18840222Y31602015D01*
X18777296Y31634078D01*
X18643806Y31702096D01*
X18643803Y31702097D01*
X18434152Y31770215D01*
X18325286Y31787458D01*
X18216422Y31804700D01*
X17995978Y31804700D01*
X17923401Y31793205D01*
X17778247Y31770215D01*
X17568596Y31702097D01*
X17568593Y31702096D01*
X17372174Y31602013D01*
X17193841Y31472448D01*
X17193836Y31472444D01*
X17037956Y31316564D01*
X16936208Y31176519D01*
X16880878Y31133854D01*
X16811265Y31127875D01*
X16749470Y31160481D01*
X16735572Y31176520D01*
X16634062Y31316236D01*
X16634057Y31316242D01*
X16478241Y31472058D01*
X16299960Y31601587D01*
X16103610Y31701633D01*
X15894036Y31769727D01*
X15816200Y31782056D01*
X15816200Y30602683D01*
X15797791Y30613311D01*
X15645191Y30654200D01*
X15487209Y30654200D01*
X15334609Y30613311D01*
X15316200Y30602683D01*
X15316200Y31782056D01*
X15238364Y31769727D01*
X15238361Y31769727D01*
X15028789Y31701633D01*
X14832439Y31601587D01*
X14654158Y31472058D01*
X14498342Y31316242D01*
X14498342Y31316241D01*
X14396827Y31176519D01*
X14341497Y31133854D01*
X14271883Y31127875D01*
X14210088Y31160481D01*
X14196191Y31176520D01*
X14094447Y31316559D01*
X14094443Y31316564D01*
X13938563Y31472444D01*
X13938558Y31472448D01*
X13760225Y31602013D01*
X13760224Y31602014D01*
X13760222Y31602015D01*
X13697296Y31634078D01*
X13563806Y31702096D01*
X13563803Y31702097D01*
X13354152Y31770215D01*
X13245286Y31787458D01*
X13136422Y31804700D01*
X12915978Y31804700D01*
X12843401Y31793205D01*
X12698247Y31770215D01*
X12488596Y31702097D01*
X12488593Y31702096D01*
X12292174Y31602013D01*
X12113841Y31472448D01*
X12113836Y31472444D01*
X11957956Y31316564D01*
X11957952Y31316559D01*
X11856518Y31176946D01*
X11801188Y31134280D01*
X11731575Y31128301D01*
X11669780Y31160907D01*
X11655882Y31176946D01*
X11554447Y31316559D01*
X11554443Y31316564D01*
X11398563Y31472444D01*
X11398558Y31472448D01*
X11220225Y31602013D01*
X11220224Y31602014D01*
X11220222Y31602015D01*
X11157296Y31634078D01*
X11023806Y31702096D01*
X11023803Y31702097D01*
X10814152Y31770215D01*
X10705286Y31787458D01*
X10596422Y31804700D01*
X10375978Y31804700D01*
X10303401Y31793205D01*
X10158247Y31770215D01*
X9948596Y31702097D01*
X9948593Y31702096D01*
X9752174Y31602013D01*
X9573841Y31472448D01*
X9573836Y31472444D01*
X9417956Y31316564D01*
X9316208Y31176519D01*
X9260878Y31133854D01*
X9191265Y31127875D01*
X9129470Y31160481D01*
X9115572Y31176520D01*
X9014062Y31316236D01*
X9014057Y31316242D01*
X8858241Y31472058D01*
X8679960Y31601587D01*
X8483610Y31701633D01*
X8274036Y31769727D01*
X8196200Y31782056D01*
X8196200Y30602683D01*
X8177791Y30613311D01*
X8025191Y30654200D01*
X7867209Y30654200D01*
X7714609Y30613311D01*
X7696200Y30602683D01*
X7696200Y31782056D01*
X7618364Y31769727D01*
X7618361Y31769727D01*
X7408789Y31701633D01*
X7212439Y31601587D01*
X7034158Y31472058D01*
X6878342Y31316242D01*
X6878342Y31316241D01*
X6776827Y31176519D01*
X6721497Y31133854D01*
X6651883Y31127875D01*
X6590088Y31160481D01*
X6576191Y31176520D01*
X6474447Y31316559D01*
X6474443Y31316564D01*
X6318563Y31472444D01*
X6318558Y31472448D01*
X6140225Y31602013D01*
X6140224Y31602014D01*
X6140222Y31602015D01*
X6077296Y31634078D01*
X5943806Y31702096D01*
X5943803Y31702097D01*
X5734152Y31770215D01*
X5625286Y31787458D01*
X5516422Y31804700D01*
X5295978Y31804700D01*
X5223401Y31793205D01*
X5078247Y31770215D01*
X4868596Y31702097D01*
X4868593Y31702096D01*
X4672174Y31602013D01*
X4493841Y31472448D01*
X4493836Y31472444D01*
X4337956Y31316564D01*
X4236208Y31176519D01*
X4180878Y31133854D01*
X4111265Y31127875D01*
X4049470Y31160481D01*
X4035572Y31176520D01*
X3934062Y31316236D01*
X3934057Y31316242D01*
X3778241Y31472058D01*
X3599960Y31601587D01*
X3403610Y31701633D01*
X3194036Y31769727D01*
X3116200Y31782056D01*
X3116200Y30602683D01*
X3097791Y30613311D01*
X2945191Y30654200D01*
X2787209Y30654200D01*
X2634609Y30613311D01*
X2616200Y30602683D01*
X2616200Y31782056D01*
X2538364Y31769727D01*
X2538361Y31769727D01*
X2328789Y31701633D01*
X2132439Y31601587D01*
X1954158Y31472058D01*
X1798342Y31316242D01*
X1668813Y31137961D01*
X1568767Y30941611D01*
X1500673Y30732036D01*
X1466200Y30514382D01*
X1466200Y30304200D01*
X2317718Y30304200D01*
X2307089Y30285791D01*
X2266200Y30133191D01*
X2266200Y29975209D01*
X2307089Y29822609D01*
X2317718Y29804200D01*
X1466200Y29804200D01*
X1466200Y29594019D01*
X500500Y29594019D01*
X500500Y33533997D01*
X37392035Y33533997D01*
X37412230Y33354751D01*
X37412231Y33354746D01*
X37471811Y33184477D01*
X37567784Y33031738D01*
X37695338Y32904184D01*
X37848078Y32808211D01*
X38018345Y32748632D01*
X38018350Y32748631D01*
X38197596Y32728435D01*
X38197600Y32728435D01*
X38197604Y32728435D01*
X38376849Y32748631D01*
X38376852Y32748632D01*
X38376855Y32748632D01*
X38547122Y32808211D01*
X38699862Y32904184D01*
X38827416Y33031738D01*
X38923389Y33184478D01*
X38982968Y33354745D01*
X39003165Y33534000D01*
X38982968Y33713255D01*
X38923389Y33883522D01*
X38827416Y34036262D01*
X38699862Y34163816D01*
X38547123Y34259789D01*
X38376854Y34319369D01*
X38376849Y34319370D01*
X38197604Y34339565D01*
X38197596Y34339565D01*
X38018350Y34319370D01*
X38018345Y34319369D01*
X37848076Y34259789D01*
X37695337Y34163816D01*
X37567784Y34036263D01*
X37471811Y33883524D01*
X37412231Y33713255D01*
X37412230Y33713250D01*
X37392035Y33534004D01*
X37392035Y33533997D01*
X500500Y33533997D01*
X500500Y35108797D01*
X42319635Y35108797D01*
X42339830Y34929551D01*
X42339831Y34929546D01*
X42399411Y34759277D01*
X42495384Y34606538D01*
X42622938Y34478984D01*
X42775678Y34383011D01*
X42899840Y34339565D01*
X42945945Y34323432D01*
X42945950Y34323431D01*
X43125196Y34303235D01*
X43125200Y34303235D01*
X43125204Y34303235D01*
X43304449Y34323431D01*
X43304452Y34323432D01*
X43304455Y34323432D01*
X43474722Y34383011D01*
X43627462Y34478984D01*
X43755016Y34606538D01*
X43850989Y34759278D01*
X43910568Y34929545D01*
X43930765Y35108800D01*
X43910568Y35288055D01*
X43850989Y35458322D01*
X43755016Y35611062D01*
X43627462Y35738616D01*
X43474723Y35834589D01*
X43304454Y35894169D01*
X43304449Y35894170D01*
X43125204Y35914365D01*
X43125196Y35914365D01*
X42945950Y35894170D01*
X42945945Y35894169D01*
X42775676Y35834589D01*
X42622937Y35738616D01*
X42495384Y35611063D01*
X42399411Y35458324D01*
X42339831Y35288055D01*
X42339830Y35288050D01*
X42319635Y35108804D01*
X42319635Y35108797D01*
X500500Y35108797D01*
X500500Y38029797D01*
X12093635Y38029797D01*
X12113830Y37850551D01*
X12113831Y37850546D01*
X12173411Y37680277D01*
X12186697Y37659133D01*
X12269384Y37527538D01*
X12396938Y37399984D01*
X12549678Y37304011D01*
X12662448Y37264551D01*
X12719945Y37244432D01*
X12719950Y37244431D01*
X12899196Y37224235D01*
X12899200Y37224235D01*
X12899204Y37224235D01*
X13078449Y37244431D01*
X13078452Y37244432D01*
X13078455Y37244432D01*
X13248722Y37304011D01*
X13401462Y37399984D01*
X13529016Y37527538D01*
X13624989Y37680278D01*
X13649525Y37750397D01*
X38001635Y37750397D01*
X38021830Y37571151D01*
X38021831Y37571146D01*
X38081411Y37400877D01*
X38167071Y37264551D01*
X38177384Y37248138D01*
X38304938Y37120584D01*
X38457678Y37024611D01*
X38627945Y36965032D01*
X38627950Y36965031D01*
X38807196Y36944835D01*
X38807200Y36944835D01*
X38807204Y36944835D01*
X38986449Y36965031D01*
X38986452Y36965032D01*
X38986455Y36965032D01*
X39156722Y37024611D01*
X39164207Y37029314D01*
X39834327Y37029314D01*
X39854522Y36850068D01*
X39854523Y36850063D01*
X39914103Y36679794D01*
X39992422Y36555151D01*
X40010076Y36527055D01*
X40137630Y36399501D01*
X40290370Y36303528D01*
X40460637Y36243949D01*
X40460642Y36243948D01*
X40639888Y36223752D01*
X40639892Y36223752D01*
X40639896Y36223752D01*
X40819141Y36243948D01*
X40819144Y36243949D01*
X40819147Y36243949D01*
X40989414Y36303528D01*
X41130699Y36392304D01*
X41197934Y36411304D01*
X41264769Y36390937D01*
X41301664Y36353282D01*
X41377784Y36232138D01*
X41505338Y36104584D01*
X41658078Y36008611D01*
X41828345Y35949032D01*
X41828350Y35949031D01*
X42007596Y35928835D01*
X42007600Y35928835D01*
X42007604Y35928835D01*
X42186849Y35949031D01*
X42186852Y35949032D01*
X42186855Y35949032D01*
X42357122Y36008611D01*
X42509862Y36104584D01*
X42637416Y36232138D01*
X42733389Y36384878D01*
X42792968Y36555145D01*
X42792969Y36555151D01*
X42813165Y36734397D01*
X42813165Y36734404D01*
X42792969Y36913650D01*
X42792968Y36913655D01*
X42733388Y37083924D01*
X42637415Y37236663D01*
X42509862Y37364216D01*
X42357123Y37460189D01*
X42186854Y37519769D01*
X42186849Y37519770D01*
X42007604Y37539965D01*
X42007596Y37539965D01*
X41828350Y37519770D01*
X41828345Y37519769D01*
X41658076Y37460189D01*
X41516793Y37371414D01*
X41449556Y37352414D01*
X41382721Y37372782D01*
X41345827Y37410436D01*
X41277129Y37519768D01*
X41269708Y37531579D01*
X41142154Y37659133D01*
X41108502Y37680278D01*
X40989415Y37755106D01*
X40819146Y37814686D01*
X40819141Y37814687D01*
X40639896Y37834882D01*
X40639888Y37834882D01*
X40460642Y37814687D01*
X40460637Y37814686D01*
X40290368Y37755106D01*
X40137629Y37659133D01*
X40010076Y37531580D01*
X39914103Y37378841D01*
X39854523Y37208572D01*
X39854522Y37208567D01*
X39834327Y37029321D01*
X39834327Y37029314D01*
X39164207Y37029314D01*
X39309462Y37120584D01*
X39437016Y37248138D01*
X39532989Y37400878D01*
X39592568Y37571145D01*
X39604864Y37680277D01*
X39612765Y37750397D01*
X39612765Y37750404D01*
X39592569Y37929650D01*
X39592568Y37929655D01*
X39532988Y38099924D01*
X39437015Y38252663D01*
X39309462Y38380216D01*
X39156723Y38476189D01*
X38986454Y38535769D01*
X38986449Y38535770D01*
X38807204Y38555965D01*
X38807196Y38555965D01*
X38627950Y38535770D01*
X38627945Y38535769D01*
X38457676Y38476189D01*
X38304937Y38380216D01*
X38177384Y38252663D01*
X38081411Y38099924D01*
X38021831Y37929655D01*
X38021830Y37929650D01*
X38001635Y37750404D01*
X38001635Y37750397D01*
X13649525Y37750397D01*
X13684568Y37850545D01*
X13693481Y37929650D01*
X13704765Y38029797D01*
X13704765Y38029804D01*
X13684569Y38209050D01*
X13684568Y38209055D01*
X13624988Y38379324D01*
X13556054Y38489031D01*
X13529016Y38532062D01*
X13401462Y38659616D01*
X13248723Y38755589D01*
X13078454Y38815169D01*
X13078449Y38815170D01*
X12899204Y38835365D01*
X12899196Y38835365D01*
X12719950Y38815170D01*
X12719945Y38815169D01*
X12549676Y38755589D01*
X12396937Y38659616D01*
X12269384Y38532063D01*
X12173411Y38379324D01*
X12113831Y38209055D01*
X12113830Y38209050D01*
X12093635Y38029804D01*
X12093635Y38029797D01*
X500500Y38029797D01*
X500500Y39274397D01*
X9147235Y39274397D01*
X9167430Y39095151D01*
X9167431Y39095146D01*
X9227011Y38924877D01*
X9283256Y38835365D01*
X9322984Y38772138D01*
X9450538Y38644584D01*
X9603278Y38548611D01*
X9773545Y38489032D01*
X9773550Y38489031D01*
X9952796Y38468835D01*
X9952800Y38468835D01*
X9952804Y38468835D01*
X10132049Y38489031D01*
X10132052Y38489032D01*
X10132055Y38489032D01*
X10302322Y38548611D01*
X10455062Y38644584D01*
X10582616Y38772138D01*
X10678589Y38924878D01*
X10738168Y39095145D01*
X10758365Y39274400D01*
X10738168Y39453655D01*
X10678589Y39623922D01*
X10582616Y39776662D01*
X10455062Y39904216D01*
X10302323Y40000189D01*
X10132054Y40059769D01*
X10132049Y40059770D01*
X9952804Y40079965D01*
X9952796Y40079965D01*
X9773550Y40059770D01*
X9773545Y40059769D01*
X9603276Y40000189D01*
X9450537Y39904216D01*
X9322984Y39776663D01*
X9227011Y39623924D01*
X9167431Y39453655D01*
X9167430Y39453650D01*
X9147235Y39274404D01*
X9147235Y39274397D01*
X500500Y39274397D01*
X500500Y40294224D01*
X520185Y40361263D01*
X572989Y40407018D01*
X638383Y40417444D01*
X799996Y40399235D01*
X800000Y40399235D01*
X800004Y40399235D01*
X979249Y40419431D01*
X979252Y40419432D01*
X979255Y40419432D01*
X1149522Y40479011D01*
X1302262Y40574984D01*
X1429816Y40702538D01*
X1525789Y40855278D01*
X1585368Y41025545D01*
X1585369Y41025551D01*
X1605565Y41204797D01*
X1605565Y41204804D01*
X1588395Y41357197D01*
X5311835Y41357197D01*
X5332030Y41177951D01*
X5332031Y41177946D01*
X5391611Y41007677D01*
X5487370Y40855278D01*
X5487584Y40854938D01*
X5615138Y40727384D01*
X5767878Y40631411D01*
X5929134Y40574985D01*
X5938145Y40571832D01*
X5938150Y40571831D01*
X6117396Y40551635D01*
X6117400Y40551635D01*
X6117404Y40551635D01*
X6296649Y40571831D01*
X6296652Y40571832D01*
X6296655Y40571832D01*
X6466922Y40631411D01*
X6619662Y40727384D01*
X6747216Y40854938D01*
X6843189Y41007678D01*
X6902768Y41177945D01*
X6902769Y41177957D01*
X6903750Y41182251D01*
X6937853Y41243233D01*
X6999512Y41276096D01*
X7065599Y41271711D01*
X7208137Y41221834D01*
X7208143Y41221833D01*
X7208145Y41221832D01*
X7208146Y41221832D01*
X7208150Y41221831D01*
X7387396Y41201635D01*
X7387400Y41201635D01*
X7387404Y41201635D01*
X7566649Y41221831D01*
X7566651Y41221832D01*
X7566655Y41221832D01*
X7566658Y41221834D01*
X7566662Y41221834D01*
X7730608Y41279201D01*
X7800387Y41282763D01*
X7861014Y41248035D01*
X7893242Y41186041D01*
X7894783Y41176046D01*
X7897431Y41152549D01*
X7897431Y41152546D01*
X7957011Y40982277D01*
X8036810Y40855278D01*
X8052984Y40829538D01*
X8180538Y40701984D01*
X8270880Y40645218D01*
X8292852Y40631412D01*
X8333278Y40606011D01*
X8421948Y40574984D01*
X8503545Y40546432D01*
X8503550Y40546431D01*
X8682796Y40526235D01*
X8682800Y40526235D01*
X8682804Y40526235D01*
X8862049Y40546431D01*
X8862052Y40546432D01*
X8862055Y40546432D01*
X9032322Y40606011D01*
X9185062Y40701984D01*
X9312616Y40829538D01*
X9408589Y40982278D01*
X9468168Y41152545D01*
X9468168Y41152548D01*
X9468169Y41152551D01*
X9488365Y41331797D01*
X9488365Y41331804D01*
X9468169Y41511050D01*
X9468168Y41511055D01*
X9453028Y41554322D01*
X9408589Y41681322D01*
X9392415Y41707062D01*
X9312615Y41834063D01*
X9185062Y41961616D01*
X9032323Y42057589D01*
X8862054Y42117169D01*
X8862049Y42117170D01*
X8682804Y42137365D01*
X8682796Y42137365D01*
X8503550Y42117170D01*
X8503545Y42117169D01*
X8339591Y42059798D01*
X8269812Y42056237D01*
X8209184Y42090966D01*
X8176957Y42152959D01*
X8175416Y42162958D01*
X8172769Y42186450D01*
X8172768Y42186455D01*
X8148116Y42256905D01*
X8113189Y42356722D01*
X8101558Y42375232D01*
X8017215Y42509463D01*
X7889662Y42637016D01*
X7736923Y42732989D01*
X7566654Y42792569D01*
X7566649Y42792570D01*
X7387404Y42812765D01*
X7387396Y42812765D01*
X7208150Y42792570D01*
X7208145Y42792569D01*
X7037876Y42732989D01*
X6885137Y42637016D01*
X6757584Y42509463D01*
X6661610Y42356722D01*
X6602028Y42186445D01*
X6601043Y42182127D01*
X6566929Y42121152D01*
X6505264Y42088300D01*
X6439200Y42092690D01*
X6296662Y42142567D01*
X6296649Y42142570D01*
X6117404Y42162765D01*
X6117396Y42162765D01*
X5938150Y42142570D01*
X5938145Y42142569D01*
X5767876Y42082989D01*
X5615137Y41987016D01*
X5487584Y41859463D01*
X5391611Y41706724D01*
X5332031Y41536455D01*
X5332030Y41536450D01*
X5311835Y41357204D01*
X5311835Y41357197D01*
X1588395Y41357197D01*
X1585369Y41384050D01*
X1585368Y41384055D01*
X1525789Y41554322D01*
X1429816Y41707062D01*
X1302262Y41834616D01*
X1262720Y41859462D01*
X1149523Y41930589D01*
X979254Y41990169D01*
X979249Y41990170D01*
X800004Y42010365D01*
X799996Y42010365D01*
X638383Y41992156D01*
X569561Y42004211D01*
X518182Y42051560D01*
X500500Y42115376D01*
X500500Y43154211D01*
X21639337Y43154211D01*
X21659532Y42974965D01*
X21659533Y42974960D01*
X21719113Y42804691D01*
X21764167Y42732989D01*
X21815086Y42651952D01*
X21942640Y42524398D01*
X21972019Y42505938D01*
X22085216Y42434811D01*
X22095380Y42428425D01*
X22238386Y42378385D01*
X22265647Y42368846D01*
X22265652Y42368845D01*
X22444898Y42348649D01*
X22444902Y42348649D01*
X22444906Y42348649D01*
X22624151Y42368845D01*
X22624154Y42368846D01*
X22624157Y42368846D01*
X22794424Y42428425D01*
X22947164Y42524398D01*
X23074718Y42651952D01*
X23075123Y42652597D01*
X24488835Y42652597D01*
X24509030Y42473351D01*
X24509031Y42473346D01*
X24568611Y42303077D01*
X24656654Y42162958D01*
X24664584Y42150338D01*
X24792138Y42022784D01*
X24944878Y41926811D01*
X25115145Y41867232D01*
X25115150Y41867231D01*
X25294396Y41847035D01*
X25294400Y41847035D01*
X25294404Y41847035D01*
X25473649Y41867231D01*
X25473652Y41867232D01*
X25473655Y41867232D01*
X25643922Y41926811D01*
X25796662Y42022784D01*
X25924216Y42150338D01*
X25944190Y42182127D01*
X25955398Y42199964D01*
X26007732Y42246256D01*
X26076786Y42256905D01*
X26101347Y42251034D01*
X26181937Y42222834D01*
X26181943Y42222833D01*
X26181945Y42222832D01*
X26181946Y42222832D01*
X26181950Y42222831D01*
X26361196Y42202635D01*
X26361200Y42202635D01*
X26361204Y42202635D01*
X26540449Y42222831D01*
X26540452Y42222832D01*
X26540455Y42222832D01*
X26710722Y42282411D01*
X26863462Y42378384D01*
X26991016Y42505938D01*
X27086989Y42658678D01*
X27146568Y42828945D01*
X27146569Y42828951D01*
X27166765Y43008197D01*
X27166765Y43008204D01*
X27149595Y43160597D01*
X32083435Y43160597D01*
X32103630Y42981351D01*
X32103631Y42981346D01*
X32163211Y42811077D01*
X32258970Y42658678D01*
X32259184Y42658338D01*
X32386738Y42530784D01*
X32539478Y42434811D01*
X32700734Y42378385D01*
X32709745Y42375232D01*
X32709750Y42375231D01*
X32888996Y42355035D01*
X32889000Y42355035D01*
X32889004Y42355035D01*
X33068249Y42375231D01*
X33068252Y42375232D01*
X33068255Y42375232D01*
X33238522Y42434811D01*
X33391262Y42530784D01*
X33518816Y42658338D01*
X33614789Y42811078D01*
X33674368Y42981345D01*
X33676709Y43002122D01*
X33694565Y43160597D01*
X33694565Y43160604D01*
X33674369Y43339850D01*
X33674368Y43339855D01*
X33640036Y43437970D01*
X33614789Y43510122D01*
X33614577Y43510459D01*
X33534428Y43638016D01*
X33518816Y43662862D01*
X33411481Y43770197D01*
X40516235Y43770197D01*
X40536430Y43590951D01*
X40536431Y43590946D01*
X40596011Y43420677D01*
X40650808Y43333469D01*
X40691984Y43267938D01*
X40819538Y43140384D01*
X40972278Y43044411D01*
X41093133Y43002122D01*
X41142545Y42984832D01*
X41142550Y42984831D01*
X41321796Y42964635D01*
X41321800Y42964635D01*
X41321804Y42964635D01*
X41501049Y42984831D01*
X41501052Y42984832D01*
X41501055Y42984832D01*
X41671322Y43044411D01*
X41824062Y43140384D01*
X41951616Y43267938D01*
X42047589Y43420678D01*
X42107168Y43590945D01*
X42127365Y43770200D01*
X42125087Y43790416D01*
X42107169Y43949450D01*
X42107168Y43949455D01*
X42047588Y44119724D01*
X41951615Y44272463D01*
X41824062Y44400016D01*
X41671323Y44495989D01*
X41501054Y44555569D01*
X41501049Y44555570D01*
X41321804Y44575765D01*
X41321796Y44575765D01*
X41142550Y44555570D01*
X41142545Y44555569D01*
X40972276Y44495989D01*
X40819537Y44400016D01*
X40691984Y44272463D01*
X40596011Y44119724D01*
X40536431Y43949455D01*
X40536430Y43949450D01*
X40516235Y43770204D01*
X40516235Y43770197D01*
X33411481Y43770197D01*
X33391262Y43790416D01*
X33386242Y43793570D01*
X33238523Y43886389D01*
X33068254Y43945969D01*
X33068249Y43945970D01*
X32889004Y43966165D01*
X32888996Y43966165D01*
X32709750Y43945970D01*
X32709745Y43945969D01*
X32539476Y43886389D01*
X32386737Y43790416D01*
X32259184Y43662863D01*
X32163211Y43510124D01*
X32103631Y43339855D01*
X32103630Y43339850D01*
X32083435Y43160604D01*
X32083435Y43160597D01*
X27149595Y43160597D01*
X27146569Y43187450D01*
X27146568Y43187455D01*
X27095475Y43333469D01*
X27086989Y43357722D01*
X26991016Y43510462D01*
X26863462Y43638016D01*
X26823920Y43662862D01*
X26710723Y43733989D01*
X26540454Y43793569D01*
X26540449Y43793570D01*
X26361204Y43813765D01*
X26361196Y43813765D01*
X26181950Y43793570D01*
X26181945Y43793569D01*
X26011676Y43733989D01*
X25858937Y43638016D01*
X25731382Y43510461D01*
X25731381Y43510459D01*
X25700200Y43460835D01*
X25647865Y43414545D01*
X25578812Y43403897D01*
X25554253Y43409766D01*
X25473657Y43437968D01*
X25473649Y43437970D01*
X25294404Y43458165D01*
X25294396Y43458165D01*
X25115150Y43437970D01*
X25115145Y43437969D01*
X24944876Y43378389D01*
X24792137Y43282416D01*
X24664584Y43154863D01*
X24568611Y43002124D01*
X24509031Y42831855D01*
X24509030Y42831850D01*
X24488835Y42652604D01*
X24488835Y42652597D01*
X23075123Y42652597D01*
X23170691Y42804692D01*
X23230270Y42974959D01*
X23230990Y42981346D01*
X23250467Y43154211D01*
X23250467Y43154218D01*
X23230271Y43333464D01*
X23230270Y43333469D01*
X23228035Y43339855D01*
X23170691Y43503736D01*
X23166678Y43510122D01*
X23074717Y43656477D01*
X22947164Y43784030D01*
X22794425Y43880003D01*
X22624156Y43939583D01*
X22624151Y43939584D01*
X22444906Y43959779D01*
X22444898Y43959779D01*
X22265652Y43939584D01*
X22265647Y43939583D01*
X22095378Y43880003D01*
X21942639Y43784030D01*
X21815086Y43656477D01*
X21719113Y43503738D01*
X21659533Y43333469D01*
X21659532Y43333464D01*
X21639337Y43154218D01*
X21639337Y43154211D01*
X500500Y43154211D01*
X500500Y46233997D01*
X27155835Y46233997D01*
X27176030Y46054751D01*
X27176031Y46054746D01*
X27235611Y45884477D01*
X27331584Y45731738D01*
X27459138Y45604184D01*
X27611878Y45508211D01*
X27782145Y45448632D01*
X27782150Y45448631D01*
X27961396Y45428435D01*
X27961400Y45428435D01*
X27961404Y45428435D01*
X28140649Y45448631D01*
X28140652Y45448632D01*
X28140655Y45448632D01*
X28310922Y45508211D01*
X28463662Y45604184D01*
X28591216Y45731738D01*
X28687189Y45884478D01*
X28746768Y46054745D01*
X28766965Y46234000D01*
X28746768Y46413255D01*
X28687189Y46583522D01*
X28591216Y46736262D01*
X28463662Y46863816D01*
X28310923Y46959789D01*
X28140654Y47019369D01*
X28140649Y47019370D01*
X27961404Y47039565D01*
X27961396Y47039565D01*
X27782150Y47019370D01*
X27782145Y47019369D01*
X27611876Y46959789D01*
X27459137Y46863816D01*
X27331584Y46736263D01*
X27235611Y46583524D01*
X27176031Y46413255D01*
X27176030Y46413250D01*
X27155835Y46234004D01*
X27155835Y46233997D01*
X500500Y46233997D01*
X500500Y47961197D01*
X14354235Y47961197D01*
X14374430Y47781951D01*
X14374431Y47781946D01*
X14434011Y47611677D01*
X14484795Y47530856D01*
X14529984Y47458938D01*
X14657538Y47331384D01*
X14810278Y47235411D01*
X14980545Y47175832D01*
X14980550Y47175831D01*
X15159796Y47155635D01*
X15159800Y47155635D01*
X15159804Y47155635D01*
X15339049Y47175831D01*
X15339052Y47175832D01*
X15339055Y47175832D01*
X15509322Y47235411D01*
X15662062Y47331384D01*
X15682276Y47351598D01*
X17427636Y47351598D01*
X17447831Y47172352D01*
X17447832Y47172347D01*
X17507412Y47002078D01*
X17594288Y46863816D01*
X17603385Y46849339D01*
X17730939Y46721785D01*
X17883679Y46625812D01*
X18004531Y46583524D01*
X18053946Y46566233D01*
X18053951Y46566232D01*
X18233197Y46546036D01*
X18233201Y46546036D01*
X18233205Y46546036D01*
X18412450Y46566232D01*
X18412453Y46566233D01*
X18412456Y46566233D01*
X18582723Y46625812D01*
X18735463Y46721785D01*
X18863017Y46849339D01*
X18958990Y47002079D01*
X19018569Y47172346D01*
X19036488Y47331384D01*
X19038766Y47351598D01*
X19038766Y47351605D01*
X19018570Y47530851D01*
X19018569Y47530856D01*
X18958990Y47701123D01*
X18863017Y47853863D01*
X18735463Y47981417D01*
X18582724Y48077390D01*
X18412455Y48136970D01*
X18412450Y48136971D01*
X18233205Y48157166D01*
X18233197Y48157166D01*
X18053951Y48136971D01*
X18053946Y48136970D01*
X17883677Y48077390D01*
X17730938Y47981417D01*
X17603385Y47853864D01*
X17507412Y47701125D01*
X17447832Y47530856D01*
X17447831Y47530851D01*
X17427636Y47351605D01*
X17427636Y47351598D01*
X15682276Y47351598D01*
X15789616Y47458938D01*
X15885589Y47611678D01*
X15945168Y47781945D01*
X15953271Y47853863D01*
X15965365Y47961197D01*
X15965365Y47961204D01*
X15945169Y48140450D01*
X15945168Y48140455D01*
X15885588Y48310724D01*
X15789615Y48463463D01*
X15662062Y48591016D01*
X15509323Y48686989D01*
X15339054Y48746569D01*
X15339049Y48746570D01*
X15159804Y48766765D01*
X15159796Y48766765D01*
X14980550Y48746570D01*
X14980545Y48746569D01*
X14810276Y48686989D01*
X14657537Y48591016D01*
X14529984Y48463463D01*
X14434011Y48310724D01*
X14374431Y48140455D01*
X14374430Y48140450D01*
X14354235Y47961204D01*
X14354235Y47961197D01*
X500500Y47961197D01*
X500500Y51009197D01*
X1806635Y51009197D01*
X1826830Y50829951D01*
X1826831Y50829946D01*
X1886411Y50659677D01*
X1973178Y50521589D01*
X1982384Y50506938D01*
X2109938Y50379384D01*
X2188250Y50330177D01*
X2255258Y50288073D01*
X2301549Y50235738D01*
X2312197Y50166684D01*
X2289604Y50110194D01*
X2213170Y50004992D01*
X2134528Y49850648D01*
X2080997Y49685898D01*
X2053900Y49514811D01*
X2053900Y49341590D01*
X2069333Y49244145D01*
X2080998Y49170499D01*
X2134527Y49005755D01*
X2213168Y48851412D01*
X2314986Y48711272D01*
X2437472Y48588786D01*
X2577612Y48486968D01*
X2731955Y48408327D01*
X2896699Y48354798D01*
X3067789Y48327700D01*
X3067790Y48327700D01*
X3941010Y48327700D01*
X3941011Y48327700D01*
X4112101Y48354798D01*
X4276845Y48408327D01*
X4431188Y48486968D01*
X4571328Y48588786D01*
X4693814Y48711272D01*
X4795632Y48851412D01*
X4874273Y49005755D01*
X4927802Y49170499D01*
X4954900Y49341589D01*
X4954900Y49514811D01*
X4927802Y49685901D01*
X4874273Y49850645D01*
X4795632Y50004988D01*
X4693814Y50145128D01*
X4571328Y50267614D01*
X4431188Y50369432D01*
X4276845Y50448073D01*
X4112101Y50501602D01*
X4112099Y50501603D01*
X4112098Y50501603D01*
X3985911Y50521589D01*
X5203900Y50521589D01*
X5207066Y50501602D01*
X5214853Y50452431D01*
X5230998Y50350499D01*
X5284527Y50185755D01*
X5363168Y50031412D01*
X5464986Y49891272D01*
X5587472Y49768786D01*
X5727612Y49666968D01*
X5881955Y49588327D01*
X6046699Y49534798D01*
X6217789Y49507700D01*
X6217790Y49507700D01*
X6591010Y49507700D01*
X6591011Y49507700D01*
X6762101Y49534798D01*
X6926845Y49588327D01*
X7081188Y49666968D01*
X7221328Y49768786D01*
X7343814Y49891272D01*
X7445632Y50031412D01*
X7524273Y50185755D01*
X7577802Y50350499D01*
X7593624Y50450397D01*
X10925235Y50450397D01*
X10945430Y50271151D01*
X10945431Y50271146D01*
X11005011Y50100877D01*
X11038821Y50047069D01*
X11100984Y49948138D01*
X11228538Y49820584D01*
X11381278Y49724611D01*
X11546009Y49666969D01*
X11551548Y49665031D01*
X11558334Y49663482D01*
X11557826Y49661258D01*
X11612269Y49638392D01*
X11651027Y49583182D01*
X11665409Y49542080D01*
X11687012Y49507700D01*
X11761384Y49389338D01*
X11888938Y49261784D01*
X11979280Y49205018D01*
X12034210Y49170503D01*
X12041678Y49165811D01*
X12211945Y49106232D01*
X12211950Y49106231D01*
X12391196Y49086035D01*
X12391200Y49086035D01*
X12391204Y49086035D01*
X12570449Y49106231D01*
X12570452Y49106232D01*
X12570455Y49106232D01*
X12740722Y49165811D01*
X12893462Y49261784D01*
X13021016Y49389338D01*
X13116989Y49542078D01*
X13117943Y49544804D01*
X17590667Y49544804D01*
X17610862Y49365558D01*
X17610863Y49365553D01*
X17670443Y49195284D01*
X17726399Y49106232D01*
X17766416Y49042545D01*
X17893970Y48914991D01*
X18046710Y48819018D01*
X18216977Y48759439D01*
X18216982Y48759438D01*
X18396228Y48739242D01*
X18396232Y48739242D01*
X18396236Y48739242D01*
X18575481Y48759438D01*
X18575484Y48759439D01*
X18575487Y48759439D01*
X18745754Y48819018D01*
X18898494Y48914991D01*
X19026048Y49042545D01*
X19122021Y49195285D01*
X19181600Y49365552D01*
X19188118Y49423397D01*
X24615835Y49423397D01*
X24636030Y49244151D01*
X24636031Y49244146D01*
X24695611Y49073877D01*
X24782481Y48935626D01*
X24791584Y48921138D01*
X24919138Y48793584D01*
X25005623Y48739242D01*
X25050136Y48711272D01*
X25071878Y48697611D01*
X25242145Y48638032D01*
X25242150Y48638031D01*
X25421396Y48617835D01*
X25421400Y48617835D01*
X25421404Y48617835D01*
X25600649Y48638031D01*
X25600652Y48638032D01*
X25600655Y48638032D01*
X25770922Y48697611D01*
X25923662Y48793584D01*
X26032219Y48902141D01*
X26093542Y48935626D01*
X26163234Y48930642D01*
X26207581Y48902141D01*
X26316138Y48793584D01*
X26402623Y48739242D01*
X26447136Y48711272D01*
X26468878Y48697611D01*
X26639145Y48638032D01*
X26639150Y48638031D01*
X26818396Y48617835D01*
X26818400Y48617835D01*
X26818404Y48617835D01*
X26997649Y48638031D01*
X26997652Y48638032D01*
X26997655Y48638032D01*
X27167922Y48697611D01*
X27320662Y48793584D01*
X27448216Y48921138D01*
X27544189Y49073878D01*
X27603768Y49244145D01*
X27603769Y49244151D01*
X27623965Y49423397D01*
X27623965Y49423404D01*
X27603769Y49602650D01*
X27603768Y49602655D01*
X27581264Y49666968D01*
X27544189Y49772922D01*
X27516899Y49816353D01*
X27469825Y49891271D01*
X27448216Y49925662D01*
X27320662Y50053216D01*
X27292590Y50070855D01*
X27167923Y50149189D01*
X26997654Y50208769D01*
X26997649Y50208770D01*
X26818404Y50228965D01*
X26818396Y50228965D01*
X26639150Y50208770D01*
X26639145Y50208769D01*
X26468876Y50149189D01*
X26316137Y50053216D01*
X26207581Y49944659D01*
X26146258Y49911174D01*
X26076566Y49916158D01*
X26032219Y49944659D01*
X25923662Y50053216D01*
X25770923Y50149189D01*
X25600654Y50208769D01*
X25600649Y50208770D01*
X25421404Y50228965D01*
X25421396Y50228965D01*
X25242150Y50208770D01*
X25242145Y50208769D01*
X25071876Y50149189D01*
X24919137Y50053216D01*
X24791584Y49925663D01*
X24695611Y49772924D01*
X24636031Y49602655D01*
X24636030Y49602650D01*
X24615835Y49423404D01*
X24615835Y49423397D01*
X19188118Y49423397D01*
X19188118Y49423400D01*
X19201797Y49544804D01*
X19201797Y49544811D01*
X19181601Y49724057D01*
X19181600Y49724062D01*
X19147825Y49820585D01*
X19122021Y49894329D01*
X19026048Y50047069D01*
X18898494Y50174623D01*
X18844151Y50208769D01*
X18745755Y50270596D01*
X18575486Y50330176D01*
X18575481Y50330177D01*
X18396236Y50350372D01*
X18396228Y50350372D01*
X18216982Y50330177D01*
X18216977Y50330176D01*
X18046708Y50270596D01*
X17893969Y50174623D01*
X17766416Y50047070D01*
X17670443Y49894331D01*
X17610863Y49724062D01*
X17610862Y49724057D01*
X17590667Y49544811D01*
X17590667Y49544804D01*
X13117943Y49544804D01*
X13176568Y49712345D01*
X13177888Y49724057D01*
X13196765Y49891597D01*
X13196765Y49891604D01*
X13176569Y50070850D01*
X13176568Y50070855D01*
X13116988Y50241124D01*
X13061033Y50330175D01*
X13021016Y50393862D01*
X12893462Y50521416D01*
X12850541Y50548385D01*
X12740721Y50617390D01*
X12570446Y50676971D01*
X12563659Y50678520D01*
X12564165Y50680740D01*
X12509710Y50703625D01*
X12470970Y50758822D01*
X12469727Y50762373D01*
X12456589Y50799922D01*
X12456589Y50799923D01*
X12360615Y50952663D01*
X12233062Y51080216D01*
X12080323Y51176189D01*
X11910054Y51235769D01*
X11910049Y51235770D01*
X11730804Y51255965D01*
X11730796Y51255965D01*
X11551550Y51235770D01*
X11551545Y51235769D01*
X11381276Y51176189D01*
X11228537Y51080216D01*
X11100984Y50952663D01*
X11005011Y50799924D01*
X10945431Y50629655D01*
X10945430Y50629650D01*
X10925235Y50450404D01*
X10925235Y50450397D01*
X7593624Y50450397D01*
X7604900Y50521589D01*
X7604900Y50694811D01*
X7577802Y50865901D01*
X7524273Y51030645D01*
X7445632Y51184988D01*
X7343814Y51325128D01*
X7221328Y51447614D01*
X7081188Y51549432D01*
X6926845Y51628073D01*
X6762101Y51681602D01*
X6762099Y51681603D01*
X6762098Y51681603D01*
X6630671Y51702419D01*
X6591011Y51708700D01*
X6217789Y51708700D01*
X6178128Y51702419D01*
X6046702Y51681603D01*
X5881952Y51628072D01*
X5727611Y51549432D01*
X5675352Y51511463D01*
X5587472Y51447614D01*
X5587470Y51447612D01*
X5587469Y51447612D01*
X5464988Y51325131D01*
X5464988Y51325130D01*
X5464986Y51325128D01*
X5421259Y51264944D01*
X5363168Y51184989D01*
X5284528Y51030648D01*
X5230997Y50865898D01*
X5205296Y50703625D01*
X5203900Y50694811D01*
X5203900Y50521589D01*
X3985911Y50521589D01*
X3980671Y50522419D01*
X3941011Y50528700D01*
X3941010Y50528700D01*
X3466920Y50528700D01*
X3399881Y50548385D01*
X3354126Y50601189D01*
X3344182Y50670347D01*
X3349878Y50693655D01*
X3397568Y50829945D01*
X3401619Y50865898D01*
X3417765Y51009197D01*
X3417765Y51009204D01*
X3397569Y51188450D01*
X3397568Y51188455D01*
X3337988Y51358724D01*
X3273953Y51460635D01*
X3242016Y51511462D01*
X3114462Y51639016D01*
X3046687Y51681602D01*
X2961723Y51734989D01*
X2791454Y51794569D01*
X2791449Y51794570D01*
X2612204Y51814765D01*
X2612196Y51814765D01*
X2432950Y51794570D01*
X2432945Y51794569D01*
X2262676Y51734989D01*
X2109937Y51639016D01*
X1982384Y51511463D01*
X1886411Y51358724D01*
X1826831Y51188455D01*
X1826830Y51188450D01*
X1806635Y51009204D01*
X1806635Y51009197D01*
X500500Y51009197D01*
X500500Y52266197D01*
X12703235Y52266197D01*
X12723430Y52086951D01*
X12723431Y52086946D01*
X12783011Y51916677D01*
X12859737Y51794569D01*
X12878984Y51763938D01*
X13006538Y51636384D01*
X13159278Y51540411D01*
X13329545Y51480832D01*
X13329550Y51480831D01*
X13508796Y51460635D01*
X13508800Y51460635D01*
X13508804Y51460635D01*
X13688049Y51480831D01*
X13688052Y51480832D01*
X13688055Y51480832D01*
X13858322Y51540411D01*
X14011062Y51636384D01*
X14138616Y51763938D01*
X14234589Y51916678D01*
X14294168Y52086945D01*
X14294169Y52086951D01*
X14314365Y52266197D01*
X14314365Y52266204D01*
X14293389Y52452375D01*
X14295251Y52452585D01*
X14296565Y52474041D01*
X14279284Y52491950D01*
X14272118Y52508470D01*
X14234589Y52615722D01*
X14138616Y52768462D01*
X14011062Y52896016D01*
X13929285Y52947400D01*
X13858323Y52991989D01*
X13688054Y53051569D01*
X13688049Y53051570D01*
X13508804Y53071765D01*
X13508796Y53071765D01*
X13329550Y53051570D01*
X13329545Y53051569D01*
X13159276Y52991989D01*
X13006537Y52896016D01*
X12878984Y52768463D01*
X12783011Y52615724D01*
X12723431Y52445455D01*
X12723430Y52445450D01*
X12703235Y52266204D01*
X12703235Y52266197D01*
X500500Y52266197D01*
X500500Y55361590D01*
X5203900Y55361590D01*
X5215519Y55288226D01*
X5230998Y55190499D01*
X5284527Y55025755D01*
X5363168Y54871412D01*
X5464986Y54731272D01*
X5587472Y54608786D01*
X5727612Y54506968D01*
X5881955Y54428327D01*
X6046699Y54374798D01*
X6217789Y54347700D01*
X6217790Y54347700D01*
X6591010Y54347700D01*
X6591011Y54347700D01*
X6762101Y54374798D01*
X6926845Y54428327D01*
X7081188Y54506968D01*
X7221328Y54608786D01*
X7343814Y54731272D01*
X7445632Y54871412D01*
X7524273Y55025755D01*
X7577802Y55190499D01*
X7604900Y55361589D01*
X7604900Y55454197D01*
X13185835Y55454197D01*
X13206030Y55274951D01*
X13206031Y55274946D01*
X13265611Y55104677D01*
X13328168Y55005119D01*
X13361584Y54951938D01*
X13489138Y54824384D01*
X13547482Y54787724D01*
X13637324Y54731272D01*
X13641878Y54728411D01*
X13774193Y54682112D01*
X13812145Y54668832D01*
X13812150Y54668831D01*
X13991396Y54648635D01*
X13991400Y54648635D01*
X13991404Y54648635D01*
X14170649Y54668831D01*
X14170652Y54668832D01*
X14170655Y54668832D01*
X14340922Y54728411D01*
X14493662Y54824384D01*
X14621216Y54951938D01*
X14717189Y55104678D01*
X14753197Y55207584D01*
X14793917Y55264359D01*
X14858869Y55290107D01*
X14884119Y55289850D01*
X14966316Y55280588D01*
X15058197Y55270235D01*
X15058200Y55270235D01*
X15058202Y55270235D01*
X15112171Y55276316D01*
X15180993Y55264262D01*
X15232372Y55216913D01*
X15249997Y55149303D01*
X15228271Y55082897D01*
X15213737Y55065416D01*
X15164984Y55016663D01*
X15069011Y54863924D01*
X15009431Y54693655D01*
X15009430Y54693650D01*
X14989235Y54514404D01*
X14989235Y54514397D01*
X15009430Y54335151D01*
X15009431Y54335146D01*
X15069011Y54164877D01*
X15164984Y54012138D01*
X15181708Y53995414D01*
X15215193Y53934091D01*
X15210209Y53864399D01*
X15168337Y53808466D01*
X15141480Y53793172D01*
X15002219Y53735488D01*
X15002209Y53735483D01*
X14838349Y53625995D01*
X14838345Y53625992D01*
X14698993Y53486640D01*
X14698990Y53486636D01*
X14589502Y53322776D01*
X14589497Y53322766D01*
X14514079Y53140692D01*
X14514077Y53140684D01*
X14475630Y52947400D01*
X14475630Y52750311D01*
X14510777Y52573616D01*
X14508348Y52546481D01*
X14523786Y52531357D01*
X14530129Y52518271D01*
X14589497Y52374945D01*
X14589502Y52374935D01*
X14698990Y52211075D01*
X14698993Y52211071D01*
X14927411Y51982653D01*
X14960896Y51921330D01*
X14955912Y51851638D01*
X14927412Y51807292D01*
X14860185Y51740064D01*
X14860184Y51740063D01*
X14764211Y51587324D01*
X14704631Y51417055D01*
X14704630Y51417050D01*
X14684435Y51237804D01*
X14684435Y51237797D01*
X14704630Y51058551D01*
X14704631Y51058546D01*
X14764211Y50888277D01*
X14819728Y50799923D01*
X14860184Y50735538D01*
X14987738Y50607984D01*
X15078080Y50551218D01*
X15125234Y50521589D01*
X15140478Y50512011D01*
X15310745Y50452432D01*
X15310750Y50452431D01*
X15489996Y50432235D01*
X15490000Y50432235D01*
X15490004Y50432235D01*
X15669249Y50452431D01*
X15669252Y50452432D01*
X15669255Y50452432D01*
X15839522Y50512011D01*
X15992262Y50607984D01*
X16119816Y50735538D01*
X16215789Y50888278D01*
X16261410Y51018655D01*
X16302132Y51075431D01*
X16367085Y51101178D01*
X16378452Y51101700D01*
X20239488Y51101700D01*
X20369527Y51127568D01*
X20432780Y51140149D01*
X20614859Y51215568D01*
X20778727Y51325061D01*
X20918084Y51464418D01*
X20973757Y51547738D01*
X22019396Y51547738D01*
X22039591Y51368492D01*
X22039592Y51368487D01*
X22099172Y51198218D01*
X22135660Y51140148D01*
X22195145Y51045479D01*
X22322699Y50917925D01*
X22405495Y50865901D01*
X22462716Y50829946D01*
X22475439Y50821952D01*
X22645706Y50762373D01*
X22645711Y50762372D01*
X22824957Y50742176D01*
X22824961Y50742176D01*
X22824965Y50742176D01*
X23004210Y50762372D01*
X23004213Y50762373D01*
X23004216Y50762373D01*
X23174483Y50821952D01*
X23327223Y50917925D01*
X23454777Y51045479D01*
X23550750Y51198219D01*
X23610329Y51368486D01*
X23615801Y51417050D01*
X23630526Y51547738D01*
X23630526Y51547745D01*
X23610330Y51726991D01*
X23610329Y51726996D01*
X23597402Y51763938D01*
X23550750Y51897263D01*
X23538551Y51916677D01*
X23454776Y52050004D01*
X23327223Y52177557D01*
X23174484Y52273530D01*
X23004215Y52333110D01*
X23004210Y52333111D01*
X22824965Y52353306D01*
X22824957Y52353306D01*
X22645711Y52333111D01*
X22645706Y52333110D01*
X22475437Y52273530D01*
X22322698Y52177557D01*
X22195145Y52050004D01*
X22099172Y51897265D01*
X22039592Y51726996D01*
X22039591Y51726991D01*
X22019396Y51547745D01*
X22019396Y51547738D01*
X20973757Y51547738D01*
X21027577Y51628286D01*
X21032022Y51639016D01*
X21060885Y51708700D01*
X21102996Y51810365D01*
X21141445Y52003659D01*
X21141445Y52200741D01*
X21141445Y52200744D01*
X21102997Y52394030D01*
X21102996Y52394031D01*
X21102996Y52394035D01*
X21102994Y52394040D01*
X21027580Y52576108D01*
X21027573Y52576121D01*
X20958369Y52679692D01*
X20937491Y52746370D01*
X20955976Y52813750D01*
X20956409Y52814447D01*
X20990989Y52869478D01*
X21027268Y52973160D01*
X21050566Y53039738D01*
X21050569Y53039751D01*
X21070765Y53218997D01*
X21070765Y53219004D01*
X21050569Y53398250D01*
X21050568Y53398255D01*
X20990988Y53568524D01*
X20942755Y53645286D01*
X20923755Y53712522D01*
X20944123Y53779358D01*
X20965932Y53803266D01*
X20965738Y53803460D01*
X20969965Y53807688D01*
X20970443Y53808211D01*
X20970648Y53808376D01*
X20970662Y53808384D01*
X21098216Y53935938D01*
X21194189Y54088678D01*
X21253768Y54258945D01*
X21253769Y54258951D01*
X21273965Y54438197D01*
X21273965Y54438204D01*
X21253769Y54617450D01*
X21253768Y54617455D01*
X21231145Y54682107D01*
X21194189Y54787722D01*
X21098216Y54940462D01*
X20970662Y55068016D01*
X20938545Y55088197D01*
X22279035Y55088197D01*
X22299230Y54908951D01*
X22299231Y54908946D01*
X22358811Y54738677D01*
X22440426Y54608789D01*
X22454784Y54585938D01*
X22582338Y54458384D01*
X22735078Y54362411D01*
X22845985Y54323603D01*
X22905345Y54302832D01*
X22905350Y54302831D01*
X23084596Y54282635D01*
X23084600Y54282635D01*
X23084604Y54282635D01*
X23263848Y54302831D01*
X23263849Y54302832D01*
X23263855Y54302832D01*
X23263859Y54302834D01*
X23268331Y54303854D01*
X23338071Y54299585D01*
X23394431Y54258291D01*
X23419519Y54193080D01*
X23412974Y54142011D01*
X23366032Y54007858D01*
X23366030Y54007850D01*
X23345835Y53828604D01*
X23345835Y53828597D01*
X23366030Y53649351D01*
X23366031Y53649346D01*
X23425611Y53479077D01*
X23521584Y53326338D01*
X23649138Y53198784D01*
X23801878Y53102811D01*
X23948316Y53051570D01*
X23972145Y53043232D01*
X23972150Y53043231D01*
X24151396Y53023035D01*
X24151400Y53023035D01*
X24151404Y53023035D01*
X24330649Y53043231D01*
X24330652Y53043232D01*
X24330655Y53043232D01*
X24500922Y53102811D01*
X24653662Y53198784D01*
X24781216Y53326338D01*
X24877189Y53479078D01*
X24935707Y53646314D01*
X24976428Y53703088D01*
X25011794Y53722400D01*
X25121063Y53760635D01*
X25168026Y53777068D01*
X25320766Y53873041D01*
X25448320Y54000595D01*
X25544293Y54153335D01*
X25603872Y54323602D01*
X25605174Y54335151D01*
X25615389Y54425820D01*
X25630517Y54461823D01*
X25846668Y54461823D01*
X25860749Y54433332D01*
X25861829Y54425821D01*
X25880630Y54258950D01*
X25880631Y54258946D01*
X25940211Y54088677D01*
X26002708Y53989214D01*
X26036184Y53935938D01*
X26163738Y53808384D01*
X26209933Y53779358D01*
X26302391Y53721262D01*
X26316478Y53712411D01*
X26343122Y53703088D01*
X26486745Y53652832D01*
X26486750Y53652831D01*
X26665996Y53632635D01*
X26666000Y53632635D01*
X26666004Y53632635D01*
X26845249Y53652831D01*
X26845252Y53652832D01*
X26845255Y53652832D01*
X27015522Y53712411D01*
X27168262Y53808384D01*
X27295816Y53935938D01*
X27391789Y54088678D01*
X27451368Y54258945D01*
X27451369Y54258951D01*
X27471565Y54438197D01*
X27471565Y54438204D01*
X27451369Y54617450D01*
X27451368Y54617455D01*
X27428745Y54682107D01*
X27391789Y54787722D01*
X27295816Y54940462D01*
X27168262Y55068016D01*
X27136143Y55088198D01*
X27015523Y55163989D01*
X26845254Y55223569D01*
X26845249Y55223570D01*
X26666004Y55243765D01*
X26665996Y55243765D01*
X26486750Y55223570D01*
X26486745Y55223569D01*
X26316476Y55163989D01*
X26163737Y55068016D01*
X26036184Y54940463D01*
X25940211Y54787724D01*
X25880631Y54617455D01*
X25880630Y54617451D01*
X25869114Y54515237D01*
X25846668Y54461823D01*
X25630517Y54461823D01*
X25637833Y54479236D01*
X25623753Y54507727D01*
X25622674Y54515238D01*
X25603873Y54682107D01*
X25603872Y54682112D01*
X25586671Y54731270D01*
X25544293Y54852379D01*
X25448320Y55005119D01*
X25320766Y55132673D01*
X25168027Y55228646D01*
X24997758Y55288226D01*
X24997753Y55288227D01*
X24818508Y55308422D01*
X24818500Y55308422D01*
X24639254Y55288227D01*
X24639249Y55288226D01*
X24468980Y55228646D01*
X24316241Y55132673D01*
X24188686Y55005118D01*
X24102573Y54868070D01*
X24050239Y54821780D01*
X23981185Y54811132D01*
X23917337Y54839507D01*
X23878965Y54897897D01*
X23874360Y54947927D01*
X23875652Y54959389D01*
X23890165Y55088200D01*
X23888895Y55099471D01*
X23869969Y55267450D01*
X23869968Y55267455D01*
X23841080Y55350011D01*
X23810389Y55437722D01*
X23808391Y55440901D01*
X23714415Y55590463D01*
X23586862Y55718016D01*
X23434123Y55813989D01*
X23263854Y55873569D01*
X23263849Y55873570D01*
X23084604Y55893765D01*
X23084596Y55893765D01*
X22905350Y55873570D01*
X22905345Y55873569D01*
X22735076Y55813989D01*
X22582337Y55718016D01*
X22454784Y55590463D01*
X22358811Y55437724D01*
X22299231Y55267455D01*
X22299230Y55267450D01*
X22279035Y55088204D01*
X22279035Y55088197D01*
X20938545Y55088197D01*
X20938543Y55088198D01*
X20817923Y55163989D01*
X20647654Y55223569D01*
X20647649Y55223570D01*
X20468404Y55243765D01*
X20468396Y55243765D01*
X20289150Y55223570D01*
X20289145Y55223569D01*
X20118876Y55163989D01*
X19966139Y55068017D01*
X19835801Y54937679D01*
X19774478Y54904195D01*
X19704786Y54909179D01*
X19648853Y54951051D01*
X19643126Y54959389D01*
X19618327Y54998856D01*
X19574591Y55068462D01*
X19447037Y55196016D01*
X19413780Y55216913D01*
X19294298Y55291989D01*
X19124029Y55351569D01*
X19124024Y55351570D01*
X18944779Y55371765D01*
X18944771Y55371765D01*
X18765525Y55351570D01*
X18765520Y55351569D01*
X18595251Y55291989D01*
X18442514Y55196017D01*
X18345968Y55099471D01*
X18284644Y55065987D01*
X18214953Y55070971D01*
X18170606Y55099472D01*
X18151262Y55118816D01*
X17998523Y55214789D01*
X17828254Y55274369D01*
X17828249Y55274370D01*
X17649004Y55294565D01*
X17648996Y55294565D01*
X17469750Y55274370D01*
X17469745Y55274369D01*
X17299476Y55214789D01*
X17146737Y55118816D01*
X17019184Y54991263D01*
X16923211Y54838524D01*
X16863631Y54668255D01*
X16863630Y54668251D01*
X16846550Y54516658D01*
X16839650Y54500240D01*
X16842609Y54494253D01*
X16843689Y54486742D01*
X16863630Y54309751D01*
X16863631Y54309746D01*
X16923211Y54139477D01*
X17017628Y53989214D01*
X17019184Y53986738D01*
X17146738Y53859184D01*
X17176615Y53840411D01*
X17277424Y53777068D01*
X17299478Y53763211D01*
X17430144Y53717489D01*
X17469745Y53703632D01*
X17469750Y53703631D01*
X17648996Y53683435D01*
X17649000Y53683435D01*
X17649004Y53683435D01*
X17828249Y53703631D01*
X17828252Y53703632D01*
X17828255Y53703632D01*
X17998522Y53763211D01*
X18151262Y53859184D01*
X18247809Y53955732D01*
X18309128Y53989214D01*
X18378820Y53984230D01*
X18423168Y53955729D01*
X18442513Y53936384D01*
X18481917Y53911625D01*
X18587987Y53844976D01*
X18595253Y53840411D01*
X18743289Y53788611D01*
X18765520Y53780832D01*
X18765525Y53780831D01*
X18944771Y53760635D01*
X18944775Y53760635D01*
X18944779Y53760635D01*
X19124024Y53780831D01*
X19124027Y53780832D01*
X19124030Y53780832D01*
X19294297Y53840411D01*
X19447037Y53936384D01*
X19574591Y54063938D01*
X19574594Y54063944D01*
X19577372Y54066721D01*
X19638695Y54100206D01*
X19708387Y54095222D01*
X19764321Y54053351D01*
X19770048Y54045011D01*
X19790844Y54011914D01*
X19809844Y53944678D01*
X19789476Y53877843D01*
X19767668Y53853934D01*
X19767862Y53853740D01*
X19763661Y53849540D01*
X19763174Y53849005D01*
X19762941Y53848820D01*
X19635384Y53721263D01*
X19539411Y53568524D01*
X19479831Y53398255D01*
X19479830Y53398250D01*
X19458938Y53212817D01*
X19431872Y53148403D01*
X19374277Y53108848D01*
X19335718Y53102700D01*
X16688568Y53102700D01*
X16621529Y53122385D01*
X16600887Y53139019D01*
X16135728Y53604178D01*
X16102243Y53665501D01*
X16107227Y53735193D01*
X16149099Y53791126D01*
X16157414Y53796838D01*
X16297062Y53884584D01*
X16424616Y54012138D01*
X16520589Y54164878D01*
X16580168Y54335145D01*
X16583241Y54362412D01*
X16597249Y54486742D01*
X16604147Y54503161D01*
X16601189Y54509148D01*
X16600112Y54516644D01*
X16589730Y54608789D01*
X16580169Y54693651D01*
X16580168Y54693655D01*
X16560881Y54748773D01*
X16520589Y54863922D01*
X16424616Y55016662D01*
X16297062Y55144216D01*
X16288966Y55149303D01*
X16144323Y55240189D01*
X15974054Y55299769D01*
X15974049Y55299770D01*
X15794804Y55319965D01*
X15794803Y55319965D01*
X15794801Y55319965D01*
X15794800Y55319965D01*
X15768388Y55316990D01*
X15740826Y55313884D01*
X15672004Y55325940D01*
X15620625Y55373290D01*
X15603002Y55440901D01*
X15624729Y55507306D01*
X15639259Y55524782D01*
X15688016Y55573538D01*
X15783989Y55726278D01*
X15843568Y55896545D01*
X15845227Y55911270D01*
X15863765Y56075797D01*
X15863765Y56075804D01*
X15843569Y56255050D01*
X15843568Y56255055D01*
X15783988Y56425324D01*
X15723492Y56521602D01*
X15688016Y56578062D01*
X15560462Y56705616D01*
X15545828Y56714811D01*
X15407723Y56801589D01*
X15237454Y56861169D01*
X15237449Y56861170D01*
X15058204Y56881365D01*
X15058196Y56881365D01*
X14878950Y56861170D01*
X14878945Y56861169D01*
X14708676Y56801589D01*
X14555937Y56705616D01*
X14428384Y56578063D01*
X14332411Y56425324D01*
X14296403Y56322417D01*
X14255681Y56265641D01*
X14190728Y56239894D01*
X14165478Y56240152D01*
X13991404Y56259765D01*
X13991396Y56259765D01*
X13812150Y56239570D01*
X13812145Y56239569D01*
X13641876Y56179989D01*
X13489137Y56084016D01*
X13361584Y55956463D01*
X13265611Y55803724D01*
X13206031Y55633455D01*
X13206030Y55633450D01*
X13185835Y55454204D01*
X13185835Y55454197D01*
X7604900Y55454197D01*
X7604900Y55534811D01*
X7577802Y55705901D01*
X7524273Y55870645D01*
X7445632Y56024988D01*
X7343814Y56165128D01*
X7221328Y56287614D01*
X7081188Y56389432D01*
X6926845Y56468073D01*
X6762101Y56521602D01*
X6762099Y56521603D01*
X6762098Y56521603D01*
X6630671Y56542419D01*
X6591011Y56548700D01*
X6217789Y56548700D01*
X6178128Y56542419D01*
X6046702Y56521603D01*
X5881952Y56468072D01*
X5727611Y56389432D01*
X5647656Y56331341D01*
X5587472Y56287614D01*
X5587470Y56287612D01*
X5587469Y56287612D01*
X5464988Y56165131D01*
X5464988Y56165130D01*
X5464986Y56165128D01*
X5421259Y56104944D01*
X5363168Y56024989D01*
X5284528Y55870648D01*
X5230997Y55705898D01*
X5203900Y55534811D01*
X5203900Y55361590D01*
X500500Y55361590D01*
X500500Y56541589D01*
X2053900Y56541589D01*
X2057066Y56521602D01*
X2072314Y56425324D01*
X2080998Y56370499D01*
X2134527Y56205755D01*
X2213168Y56051412D01*
X2314986Y55911272D01*
X2437472Y55788786D01*
X2577612Y55686968D01*
X2731955Y55608327D01*
X2896699Y55554798D01*
X3067789Y55527700D01*
X3067790Y55527700D01*
X3941010Y55527700D01*
X3941011Y55527700D01*
X4112101Y55554798D01*
X4276845Y55608327D01*
X4431188Y55686968D01*
X4571328Y55788786D01*
X4693814Y55911272D01*
X4795632Y56051412D01*
X4874273Y56205755D01*
X4927802Y56370499D01*
X4954900Y56541589D01*
X4954900Y56714811D01*
X4927802Y56885901D01*
X4874273Y57050645D01*
X4795632Y57204988D01*
X4693814Y57345128D01*
X4571328Y57467614D01*
X4431188Y57569432D01*
X4276845Y57648073D01*
X4112101Y57701602D01*
X4112099Y57701603D01*
X4112098Y57701603D01*
X4037078Y57713485D01*
X18957022Y57713485D01*
X18977217Y57534239D01*
X18977218Y57534234D01*
X19036798Y57363965D01*
X19132771Y57211226D01*
X19260325Y57083672D01*
X19413065Y56987699D01*
X19583332Y56928120D01*
X19583337Y56928119D01*
X19762583Y56907923D01*
X19762587Y56907923D01*
X19762591Y56907923D01*
X19941836Y56928119D01*
X19941839Y56928120D01*
X19941842Y56928120D01*
X20112109Y56987699D01*
X20264849Y57083672D01*
X20392403Y57211226D01*
X20488376Y57363966D01*
X20547955Y57534233D01*
X20551921Y57569432D01*
X20568152Y57713485D01*
X20568152Y57713492D01*
X20547956Y57892738D01*
X20547955Y57892743D01*
X20488375Y58063012D01*
X20392402Y58215751D01*
X20264849Y58343304D01*
X20112110Y58439277D01*
X19941841Y58498857D01*
X19941836Y58498858D01*
X19762591Y58519053D01*
X19762583Y58519053D01*
X19583337Y58498858D01*
X19583332Y58498857D01*
X19413063Y58439277D01*
X19260324Y58343304D01*
X19132771Y58215751D01*
X19036798Y58063012D01*
X18977218Y57892743D01*
X18977217Y57892738D01*
X18957022Y57713492D01*
X18957022Y57713485D01*
X4037078Y57713485D01*
X3980671Y57722419D01*
X3941011Y57728700D01*
X3067789Y57728700D01*
X3028128Y57722419D01*
X2896702Y57701603D01*
X2731952Y57648072D01*
X2577611Y57569432D01*
X2497656Y57511341D01*
X2437472Y57467614D01*
X2437470Y57467612D01*
X2437469Y57467612D01*
X2314988Y57345131D01*
X2314988Y57345130D01*
X2314986Y57345128D01*
X2271259Y57284944D01*
X2213168Y57204989D01*
X2134528Y57050648D01*
X2080997Y56885898D01*
X2067644Y56801589D01*
X2053900Y56714811D01*
X2053900Y56541589D01*
X500500Y56541589D01*
X500500Y62743997D01*
X16945035Y62743997D01*
X16965230Y62564751D01*
X16965231Y62564746D01*
X17024811Y62394477D01*
X17120784Y62241738D01*
X17248338Y62114184D01*
X17401078Y62018211D01*
X17571345Y61958632D01*
X17571350Y61958631D01*
X17750596Y61938435D01*
X17750600Y61938435D01*
X17750604Y61938435D01*
X17929849Y61958631D01*
X17929852Y61958632D01*
X17929855Y61958632D01*
X18100122Y62018211D01*
X18252862Y62114184D01*
X18380416Y62241738D01*
X18476389Y62394478D01*
X18535968Y62564745D01*
X18556165Y62744000D01*
X18535968Y62923255D01*
X18476389Y63093522D01*
X18380416Y63246262D01*
X18252862Y63373816D01*
X18100123Y63469789D01*
X17929854Y63529369D01*
X17929849Y63529370D01*
X17750604Y63549565D01*
X17750596Y63549565D01*
X17571350Y63529370D01*
X17571345Y63529369D01*
X17401076Y63469789D01*
X17248337Y63373816D01*
X17120784Y63246263D01*
X17024811Y63093524D01*
X16965231Y62923255D01*
X16965230Y62923250D01*
X16945035Y62744004D01*
X16945035Y62743997D01*
X500500Y62743997D01*
X500500Y63810797D01*
X14278035Y63810797D01*
X14298230Y63631551D01*
X14298231Y63631546D01*
X14357811Y63461277D01*
X14412767Y63373816D01*
X14453784Y63308538D01*
X14581338Y63180984D01*
X14626778Y63152432D01*
X14720529Y63093524D01*
X14734078Y63085011D01*
X14904345Y63025432D01*
X14904350Y63025431D01*
X15083596Y63005235D01*
X15083600Y63005235D01*
X15083604Y63005235D01*
X15262849Y63025431D01*
X15262852Y63025432D01*
X15262855Y63025432D01*
X15433122Y63085011D01*
X15585862Y63180984D01*
X15713416Y63308538D01*
X15809389Y63461278D01*
X15868968Y63631545D01*
X15868969Y63631551D01*
X15889165Y63810797D01*
X15889165Y63810804D01*
X15874856Y63937797D01*
X19078635Y63937797D01*
X19098830Y63758551D01*
X19098831Y63758546D01*
X19158411Y63588277D01*
X19232863Y63469789D01*
X19254384Y63435538D01*
X19381938Y63307984D01*
X19534678Y63212011D01*
X19623348Y63180984D01*
X19704945Y63152432D01*
X19704950Y63152431D01*
X19884196Y63132235D01*
X19884200Y63132235D01*
X19884204Y63132235D01*
X20063449Y63152431D01*
X20063452Y63152432D01*
X20063455Y63152432D01*
X20233722Y63212011D01*
X20386462Y63307984D01*
X20514016Y63435538D01*
X20609989Y63588278D01*
X20669568Y63758545D01*
X20669569Y63758551D01*
X20689765Y63937797D01*
X20689765Y63937804D01*
X20669569Y64117050D01*
X20669568Y64117055D01*
X20654428Y64160322D01*
X20609989Y64287322D01*
X20593815Y64313062D01*
X20514015Y64440063D01*
X20386462Y64567616D01*
X20233723Y64663589D01*
X20063454Y64723169D01*
X20063449Y64723170D01*
X19884204Y64743365D01*
X19884196Y64743365D01*
X19704950Y64723170D01*
X19704945Y64723169D01*
X19534676Y64663589D01*
X19381937Y64567616D01*
X19254384Y64440063D01*
X19158411Y64287324D01*
X19098831Y64117055D01*
X19098830Y64117050D01*
X19078635Y63937804D01*
X19078635Y63937797D01*
X15874856Y63937797D01*
X15868969Y63990050D01*
X15868968Y63990055D01*
X15809389Y64160322D01*
X15713416Y64313062D01*
X15585862Y64440616D01*
X15433123Y64536589D01*
X15262854Y64596169D01*
X15262849Y64596170D01*
X15083604Y64616365D01*
X15083596Y64616365D01*
X14904350Y64596170D01*
X14904345Y64596169D01*
X14734076Y64536589D01*
X14581337Y64440616D01*
X14453784Y64313063D01*
X14357811Y64160324D01*
X14298231Y63990055D01*
X14298230Y63990050D01*
X14278035Y63810804D01*
X14278035Y63810797D01*
X500500Y63810797D01*
X500500Y66503197D01*
X15852835Y66503197D01*
X15873030Y66323951D01*
X15873031Y66323946D01*
X15932611Y66153677D01*
X15964531Y66102877D01*
X16028584Y66000938D01*
X16156138Y65873384D01*
X16308878Y65777411D01*
X16454053Y65726612D01*
X16479145Y65717832D01*
X16479150Y65717831D01*
X16658396Y65697635D01*
X16658400Y65697635D01*
X16658404Y65697635D01*
X16837649Y65717831D01*
X16837652Y65717832D01*
X16837655Y65717832D01*
X17007922Y65777411D01*
X17085404Y65826097D01*
X17152640Y65845097D01*
X17217348Y65826097D01*
X17222936Y65822586D01*
X17222938Y65822584D01*
X17375678Y65726611D01*
X17545945Y65667032D01*
X17545950Y65667031D01*
X17725196Y65646835D01*
X17725200Y65646835D01*
X17725204Y65646835D01*
X17904449Y65667031D01*
X17904452Y65667032D01*
X17904455Y65667032D01*
X18074722Y65726611D01*
X18227462Y65822584D01*
X18355016Y65950138D01*
X18450989Y66102878D01*
X18503519Y66253000D01*
X37801859Y66253000D01*
X37821175Y66056871D01*
X37878388Y65868267D01*
X37971286Y65694468D01*
X37971290Y65694461D01*
X38096316Y65542117D01*
X38248660Y65417091D01*
X38248667Y65417087D01*
X38422466Y65324189D01*
X38422469Y65324189D01*
X38422473Y65324186D01*
X38611068Y65266976D01*
X38807200Y65247659D01*
X39003332Y65266976D01*
X39191927Y65324186D01*
X39365738Y65417090D01*
X39518083Y65542117D01*
X39643110Y65694462D01*
X39713470Y65826096D01*
X39736011Y65868267D01*
X39736011Y65868268D01*
X39736014Y65868273D01*
X39793224Y66056868D01*
X39812541Y66253000D01*
X39793224Y66449132D01*
X39736014Y66637727D01*
X39736011Y66637731D01*
X39736011Y66637734D01*
X39643113Y66811533D01*
X39643109Y66811540D01*
X39518083Y66963884D01*
X39365739Y67088910D01*
X39365732Y67088914D01*
X39191933Y67181812D01*
X39191927Y67181814D01*
X39036413Y67228989D01*
X39003329Y67239025D01*
X38807200Y67258341D01*
X38611070Y67239025D01*
X38422466Y67181812D01*
X38248667Y67088914D01*
X38248660Y67088910D01*
X38096316Y66963884D01*
X37971290Y66811540D01*
X37971286Y66811533D01*
X37878388Y66637734D01*
X37821175Y66449130D01*
X37801859Y66253000D01*
X18503519Y66253000D01*
X18510568Y66273145D01*
X18516292Y66323946D01*
X18530765Y66452397D01*
X18530765Y66452404D01*
X18510569Y66631650D01*
X18510568Y66631655D01*
X18450988Y66801924D01*
X18355015Y66954663D01*
X18227462Y67082216D01*
X18074723Y67178189D01*
X17904454Y67237769D01*
X17904449Y67237770D01*
X17725204Y67257965D01*
X17725196Y67257965D01*
X17545950Y67237770D01*
X17545945Y67237769D01*
X17375676Y67178189D01*
X17298195Y67129504D01*
X17230958Y67110504D01*
X17166251Y67129504D01*
X17007923Y67228989D01*
X16837654Y67288569D01*
X16837649Y67288570D01*
X16658404Y67308765D01*
X16658396Y67308765D01*
X16479150Y67288570D01*
X16479145Y67288569D01*
X16308876Y67228989D01*
X16156137Y67133016D01*
X16028584Y67005463D01*
X15932611Y66852724D01*
X15873031Y66682455D01*
X15873030Y66682450D01*
X15852835Y66503204D01*
X15852835Y66503197D01*
X500500Y66503197D01*
X500500Y68839997D01*
X24946035Y68839997D01*
X24966230Y68660751D01*
X24966231Y68660746D01*
X25025811Y68490477D01*
X25109431Y68357397D01*
X25121784Y68337738D01*
X25249338Y68210184D01*
X25402078Y68114211D01*
X25488196Y68084077D01*
X25572345Y68054632D01*
X25572350Y68054631D01*
X25751596Y68034435D01*
X25751600Y68034435D01*
X25751604Y68034435D01*
X25930849Y68054631D01*
X25930852Y68054632D01*
X25930855Y68054632D01*
X26101122Y68114211D01*
X26253862Y68210184D01*
X26381416Y68337738D01*
X26441648Y68433597D01*
X58247435Y68433597D01*
X58267630Y68254351D01*
X58267631Y68254346D01*
X58327211Y68084077D01*
X58375091Y68007877D01*
X58423184Y67931338D01*
X58550738Y67803784D01*
X58703478Y67707811D01*
X58873745Y67648232D01*
X58873750Y67648231D01*
X59052996Y67628035D01*
X59053000Y67628035D01*
X59053004Y67628035D01*
X59232249Y67648231D01*
X59232252Y67648232D01*
X59232255Y67648232D01*
X59402522Y67707811D01*
X59555262Y67803784D01*
X59682816Y67931338D01*
X59778789Y68084078D01*
X59838368Y68254345D01*
X59849979Y68357397D01*
X60506035Y68357397D01*
X60526230Y68178151D01*
X60526231Y68178146D01*
X60585811Y68007877D01*
X60633904Y67931338D01*
X60681784Y67855138D01*
X60809338Y67727584D01*
X60962078Y67631611D01*
X60972298Y67628035D01*
X61132345Y67572032D01*
X61132350Y67572031D01*
X61311596Y67551835D01*
X61311600Y67551835D01*
X61311604Y67551835D01*
X61490849Y67572031D01*
X61490852Y67572032D01*
X61490855Y67572032D01*
X61661122Y67631611D01*
X61813862Y67727584D01*
X61941416Y67855138D01*
X62037389Y68007878D01*
X62096968Y68178145D01*
X62105554Y68254346D01*
X62117165Y68357397D01*
X62117165Y68357404D01*
X62096969Y68536650D01*
X62096968Y68536655D01*
X62053547Y68660745D01*
X62037389Y68706922D01*
X61941416Y68859662D01*
X61813862Y68987216D01*
X61661123Y69083189D01*
X61490854Y69142769D01*
X61490849Y69142770D01*
X61311604Y69162965D01*
X61311596Y69162965D01*
X61132350Y69142770D01*
X61132345Y69142769D01*
X60962076Y69083189D01*
X60809337Y68987216D01*
X60681784Y68859663D01*
X60585811Y68706924D01*
X60526231Y68536655D01*
X60526230Y68536650D01*
X60506035Y68357404D01*
X60506035Y68357397D01*
X59849979Y68357397D01*
X59858565Y68433597D01*
X59858565Y68433604D01*
X59838369Y68612850D01*
X59838368Y68612855D01*
X59778789Y68783122D01*
X59682816Y68935862D01*
X59555262Y69063416D01*
X59402523Y69159389D01*
X59232254Y69218969D01*
X59232249Y69218970D01*
X59053004Y69239165D01*
X59052996Y69239165D01*
X58873750Y69218970D01*
X58873745Y69218969D01*
X58703476Y69159389D01*
X58550737Y69063416D01*
X58423184Y68935863D01*
X58327211Y68783124D01*
X58267631Y68612855D01*
X58267630Y68612850D01*
X58247435Y68433604D01*
X58247435Y68433597D01*
X26441648Y68433597D01*
X26477389Y68490478D01*
X26536968Y68660745D01*
X26542171Y68706924D01*
X26557165Y68839997D01*
X26557165Y68840004D01*
X26536969Y69019250D01*
X26536968Y69019255D01*
X26521515Y69063416D01*
X26477389Y69189522D01*
X26381416Y69342262D01*
X26253862Y69469816D01*
X26101123Y69565789D01*
X25930854Y69625369D01*
X25930849Y69625370D01*
X25751604Y69645565D01*
X25751596Y69645565D01*
X25572350Y69625370D01*
X25572345Y69625369D01*
X25402076Y69565789D01*
X25249337Y69469816D01*
X25121784Y69342263D01*
X25025811Y69189524D01*
X24966231Y69019255D01*
X24966230Y69019250D01*
X24946035Y68840004D01*
X24946035Y68839997D01*
X500500Y68839997D01*
X500500Y70719597D01*
X24260235Y70719597D01*
X24280430Y70540351D01*
X24280431Y70540346D01*
X24340011Y70370077D01*
X24435984Y70217338D01*
X24563538Y70089784D01*
X24716278Y69993811D01*
X24886545Y69934232D01*
X24886550Y69934231D01*
X25065796Y69914035D01*
X25065800Y69914035D01*
X25065804Y69914035D01*
X25245049Y69934231D01*
X25245052Y69934232D01*
X25245055Y69934232D01*
X25415322Y69993811D01*
X25568062Y70089784D01*
X25695616Y70217338D01*
X25791589Y70370078D01*
X25851168Y70540345D01*
X25871365Y70719600D01*
X25851168Y70898855D01*
X25791589Y71069122D01*
X25695616Y71221862D01*
X25568062Y71349416D01*
X25415323Y71445389D01*
X25245054Y71504969D01*
X25245049Y71504970D01*
X25065804Y71525165D01*
X25065796Y71525165D01*
X24886550Y71504970D01*
X24886545Y71504969D01*
X24716276Y71445389D01*
X24563537Y71349416D01*
X24435984Y71221863D01*
X24340011Y71069124D01*
X24280431Y70898855D01*
X24280430Y70898850D01*
X24260235Y70719604D01*
X24260235Y70719597D01*
X500500Y70719597D01*
X500500Y74802692D01*
X520185Y74869731D01*
X536819Y74890373D01*
X1705748Y76059302D01*
X1779588Y75957670D01*
X1957670Y75779588D01*
X2059300Y75705749D01*
X847257Y74493706D01*
X860495Y74481164D01*
X1145367Y74264612D01*
X1145370Y74264610D01*
X1451990Y74080124D01*
X1776739Y73929878D01*
X1776744Y73929877D01*
X2115855Y73815617D01*
X2465339Y73738689D01*
X2821075Y73700001D01*
X2821085Y73700000D01*
X3178915Y73700000D01*
X3178924Y73700001D01*
X3534660Y73738689D01*
X3884144Y73815617D01*
X4223255Y73929877D01*
X4223260Y73929878D01*
X4548009Y74080124D01*
X4854629Y74264610D01*
X4854632Y74264612D01*
X5139509Y74481169D01*
X5152742Y74493705D01*
X5152742Y74493706D01*
X3940699Y75705749D01*
X4042330Y75779588D01*
X4220412Y75957670D01*
X4294251Y76059302D01*
X5503556Y74849998D01*
X5630972Y75000002D01*
X5630975Y75000006D01*
X5831781Y75296173D01*
X5999393Y75612323D01*
X5999402Y75612341D01*
X6131850Y75944761D01*
X6131852Y75944768D01*
X6227578Y76289543D01*
X6227584Y76289569D01*
X6254279Y76452401D01*
X11533259Y76452401D01*
X11537503Y76409310D01*
X11538100Y76397156D01*
X11538100Y76353856D01*
X11546545Y76311394D01*
X11548330Y76299365D01*
X11552575Y76256270D01*
X11552576Y76256266D01*
X11565147Y76214825D01*
X11568103Y76203022D01*
X11576546Y76160573D01*
X11576548Y76160566D01*
X11593117Y76120566D01*
X11597212Y76109123D01*
X11609786Y76067674D01*
X11609787Y76067671D01*
X11630197Y76029487D01*
X11635400Y76018485D01*
X11651968Y75978486D01*
X11651970Y75978482D01*
X11676025Y75942482D01*
X11682278Y75932050D01*
X11693548Y75910964D01*
X11702688Y75893865D01*
X11702694Y75893857D01*
X11730152Y75860398D01*
X11737399Y75850628D01*
X11761460Y75814619D01*
X11761462Y75814617D01*
X11761465Y75814613D01*
X11792079Y75783999D01*
X11800251Y75774984D01*
X11827717Y75741517D01*
X11861179Y75714055D01*
X11861181Y75714054D01*
X11870199Y75705880D01*
X11900814Y75675264D01*
X11900817Y75675262D01*
X11900818Y75675261D01*
X11936817Y75651207D01*
X11936819Y75651206D01*
X11946588Y75643962D01*
X11980062Y75616490D01*
X12018240Y75596084D01*
X12028678Y75589828D01*
X12036499Y75584603D01*
X12064686Y75565768D01*
X12104695Y75549197D01*
X12115691Y75543996D01*
X12153873Y75523586D01*
X12195310Y75511017D01*
X12206760Y75506920D01*
X12246765Y75490349D01*
X12289240Y75481901D01*
X12301014Y75478952D01*
X12342468Y75466376D01*
X12385564Y75462132D01*
X12397590Y75460348D01*
X12428080Y75454283D01*
X12440058Y75451900D01*
X12440059Y75451900D01*
X12483356Y75451900D01*
X12495509Y75451304D01*
X12538600Y75447059D01*
X12581690Y75451304D01*
X12593844Y75451900D01*
X12637142Y75451900D01*
X12653054Y75455066D01*
X12679605Y75460347D01*
X12691637Y75462132D01*
X12734732Y75466376D01*
X12776180Y75478950D01*
X12787953Y75481900D01*
X12830435Y75490349D01*
X12870447Y75506924D01*
X12881880Y75511014D01*
X12923327Y75523586D01*
X12961518Y75544001D01*
X12972510Y75549199D01*
X13012514Y75565768D01*
X13048538Y75589840D01*
X13058951Y75596080D01*
X13089342Y75612323D01*
X13097135Y75616488D01*
X13097139Y75616491D01*
X13130605Y75643956D01*
X13140382Y75651207D01*
X13176381Y75675260D01*
X13176383Y75675262D01*
X13176385Y75675264D01*
X13207008Y75705888D01*
X13216002Y75714041D01*
X13249483Y75741517D01*
X13276959Y75774998D01*
X13285112Y75783992D01*
X13315739Y75814618D01*
X13339800Y75850628D01*
X13347044Y75860395D01*
X13374509Y75893861D01*
X13374512Y75893865D01*
X13380895Y75905809D01*
X13394920Y75932049D01*
X13401160Y75942462D01*
X13425232Y75978486D01*
X13441802Y76018494D01*
X13447002Y76029487D01*
X13467414Y76067673D01*
X13479986Y76109120D01*
X13484076Y76120553D01*
X13500651Y76160565D01*
X13509100Y76203047D01*
X13512050Y76214820D01*
X13524624Y76256268D01*
X13528868Y76299363D01*
X13530654Y76311401D01*
X13539100Y76353859D01*
X13539100Y76397156D01*
X13539697Y76409310D01*
X13543941Y76452400D01*
X13543941Y76452401D01*
X19533259Y76452401D01*
X19537503Y76409310D01*
X19538100Y76397156D01*
X19538100Y76353856D01*
X19546545Y76311394D01*
X19548330Y76299365D01*
X19552575Y76256270D01*
X19552576Y76256266D01*
X19565147Y76214825D01*
X19568103Y76203022D01*
X19576546Y76160573D01*
X19576548Y76160566D01*
X19593117Y76120566D01*
X19597212Y76109123D01*
X19609786Y76067674D01*
X19609787Y76067671D01*
X19630197Y76029487D01*
X19635400Y76018485D01*
X19651968Y75978486D01*
X19651970Y75978482D01*
X19676025Y75942482D01*
X19682278Y75932050D01*
X19693548Y75910964D01*
X19702688Y75893865D01*
X19702694Y75893857D01*
X19730152Y75860398D01*
X19737399Y75850628D01*
X19761460Y75814619D01*
X19761462Y75814617D01*
X19761465Y75814613D01*
X19792079Y75783999D01*
X19800251Y75774984D01*
X19827717Y75741517D01*
X19861179Y75714055D01*
X19861181Y75714054D01*
X19870199Y75705880D01*
X19900814Y75675264D01*
X19900817Y75675262D01*
X19900818Y75675261D01*
X19936817Y75651207D01*
X19936819Y75651206D01*
X19946588Y75643962D01*
X19980062Y75616490D01*
X20018240Y75596084D01*
X20028678Y75589828D01*
X20036499Y75584603D01*
X20064686Y75565768D01*
X20104695Y75549197D01*
X20115691Y75543996D01*
X20153873Y75523586D01*
X20195310Y75511017D01*
X20206760Y75506920D01*
X20246765Y75490349D01*
X20289240Y75481901D01*
X20301014Y75478952D01*
X20342468Y75466376D01*
X20385564Y75462132D01*
X20397590Y75460348D01*
X20428080Y75454283D01*
X20440058Y75451900D01*
X20440059Y75451900D01*
X20483356Y75451900D01*
X20495509Y75451304D01*
X20538600Y75447059D01*
X20581690Y75451304D01*
X20593844Y75451900D01*
X20637142Y75451900D01*
X20653054Y75455066D01*
X20679605Y75460347D01*
X20691637Y75462132D01*
X20734732Y75466376D01*
X20776180Y75478950D01*
X20787953Y75481900D01*
X20830435Y75490349D01*
X20870447Y75506924D01*
X20881880Y75511014D01*
X20923327Y75523586D01*
X20961518Y75544001D01*
X20972510Y75549199D01*
X21012514Y75565768D01*
X21048538Y75589840D01*
X21058951Y75596080D01*
X21089342Y75612323D01*
X21097135Y75616488D01*
X21097139Y75616491D01*
X21130605Y75643956D01*
X21140382Y75651207D01*
X21176381Y75675260D01*
X21176383Y75675262D01*
X21176385Y75675264D01*
X21207008Y75705888D01*
X21216002Y75714041D01*
X21249483Y75741517D01*
X21276959Y75774998D01*
X21285112Y75783992D01*
X21315739Y75814618D01*
X21339800Y75850628D01*
X21347044Y75860395D01*
X21374509Y75893861D01*
X21374512Y75893865D01*
X21380895Y75905809D01*
X21394920Y75932049D01*
X21401160Y75942462D01*
X21425232Y75978486D01*
X21441802Y76018494D01*
X21447002Y76029487D01*
X21467414Y76067673D01*
X21479986Y76109120D01*
X21484076Y76120553D01*
X21500651Y76160565D01*
X21509100Y76203047D01*
X21512050Y76214820D01*
X21524624Y76256268D01*
X21528868Y76299363D01*
X21530654Y76311401D01*
X21539100Y76353859D01*
X21539100Y76397156D01*
X21539697Y76409310D01*
X21543941Y76452400D01*
X21539697Y76495493D01*
X21539100Y76507646D01*
X21539100Y76550942D01*
X21536717Y76562920D01*
X21530652Y76593410D01*
X21528868Y76605439D01*
X21524624Y76648531D01*
X21524624Y76648532D01*
X21512048Y76689986D01*
X21509099Y76701760D01*
X21500651Y76744235D01*
X21484080Y76784241D01*
X21479983Y76795690D01*
X21467414Y76837127D01*
X21447004Y76875309D01*
X21441803Y76886305D01*
X21425232Y76926314D01*
X21401172Y76962322D01*
X21394916Y76972760D01*
X21374511Y77010936D01*
X21374510Y77010938D01*
X21347038Y77044412D01*
X21339794Y77054181D01*
X21315740Y77090181D01*
X21315736Y77090186D01*
X21285120Y77120801D01*
X21276946Y77129819D01*
X21249484Y77163282D01*
X21216016Y77190749D01*
X21207001Y77198921D01*
X21176387Y77229535D01*
X21176383Y77229538D01*
X21176380Y77229540D01*
X21159739Y77240660D01*
X21140372Y77253601D01*
X21130602Y77260848D01*
X21097143Y77288306D01*
X21097135Y77288312D01*
X21080036Y77297452D01*
X21058950Y77308722D01*
X21048518Y77314975D01*
X21012518Y77339030D01*
X21012514Y77339032D01*
X20972515Y77355600D01*
X20961513Y77360803D01*
X20923329Y77381213D01*
X20923328Y77381214D01*
X20923327Y77381214D01*
X20881877Y77393788D01*
X20870434Y77397883D01*
X20830434Y77414452D01*
X20830427Y77414454D01*
X20787978Y77422897D01*
X20776175Y77425853D01*
X20734734Y77438424D01*
X20734730Y77438425D01*
X20691635Y77442670D01*
X20679606Y77444455D01*
X20637144Y77452900D01*
X20637141Y77452900D01*
X20593844Y77452900D01*
X20581690Y77453497D01*
X20538600Y77457741D01*
X20495510Y77453497D01*
X20483356Y77452900D01*
X20440053Y77452900D01*
X20397591Y77444455D01*
X20385563Y77442670D01*
X20342467Y77438424D01*
X20301027Y77425854D01*
X20289226Y77422898D01*
X20246766Y77414452D01*
X20246761Y77414451D01*
X20206759Y77397882D01*
X20195307Y77393784D01*
X20153872Y77381214D01*
X20115691Y77360806D01*
X20104693Y77355605D01*
X20064691Y77339036D01*
X20028680Y77314974D01*
X20018245Y77308720D01*
X19980065Y77288313D01*
X19980060Y77288309D01*
X19946590Y77260843D01*
X19936825Y77253601D01*
X19900825Y77229545D01*
X19900819Y77229540D01*
X19870195Y77198917D01*
X19861184Y77190750D01*
X19827717Y77163283D01*
X19800250Y77129816D01*
X19792083Y77120805D01*
X19761460Y77090181D01*
X19761455Y77090175D01*
X19737399Y77054175D01*
X19730157Y77044410D01*
X19702691Y77010940D01*
X19702687Y77010935D01*
X19682280Y76972755D01*
X19676026Y76962320D01*
X19651964Y76926309D01*
X19635395Y76886307D01*
X19630194Y76875309D01*
X19609786Y76837128D01*
X19597216Y76795693D01*
X19593118Y76784241D01*
X19576549Y76744239D01*
X19576548Y76744234D01*
X19568102Y76701774D01*
X19565146Y76689973D01*
X19552576Y76648533D01*
X19548330Y76605437D01*
X19546545Y76593409D01*
X19538100Y76550947D01*
X19538100Y76507646D01*
X19537503Y76495493D01*
X19533259Y76452401D01*
X13543941Y76452401D01*
X13539697Y76495493D01*
X13539100Y76507646D01*
X13539100Y76550942D01*
X13536717Y76562920D01*
X13530652Y76593410D01*
X13528868Y76605439D01*
X13524624Y76648531D01*
X13524624Y76648532D01*
X13512048Y76689986D01*
X13509099Y76701760D01*
X13500651Y76744235D01*
X13484080Y76784241D01*
X13479983Y76795690D01*
X13467414Y76837127D01*
X13447004Y76875309D01*
X13441803Y76886305D01*
X13425232Y76926314D01*
X13401172Y76962322D01*
X13394916Y76972760D01*
X13374511Y77010936D01*
X13374510Y77010938D01*
X13347038Y77044412D01*
X13339794Y77054181D01*
X13315740Y77090181D01*
X13315736Y77090186D01*
X13285120Y77120801D01*
X13276946Y77129819D01*
X13249484Y77163282D01*
X13216016Y77190749D01*
X13207001Y77198921D01*
X13176387Y77229535D01*
X13176383Y77229538D01*
X13176380Y77229540D01*
X13159739Y77240660D01*
X13140372Y77253601D01*
X13130602Y77260848D01*
X13097143Y77288306D01*
X13097135Y77288312D01*
X13080036Y77297452D01*
X13058950Y77308722D01*
X13048518Y77314975D01*
X13012518Y77339030D01*
X13012514Y77339032D01*
X12972515Y77355600D01*
X12961513Y77360803D01*
X12923329Y77381213D01*
X12923328Y77381214D01*
X12923327Y77381214D01*
X12881877Y77393788D01*
X12870434Y77397883D01*
X12830434Y77414452D01*
X12830427Y77414454D01*
X12787978Y77422897D01*
X12776175Y77425853D01*
X12734734Y77438424D01*
X12734730Y77438425D01*
X12691635Y77442670D01*
X12679606Y77444455D01*
X12637144Y77452900D01*
X12637141Y77452900D01*
X12593844Y77452900D01*
X12581690Y77453497D01*
X12538600Y77457741D01*
X12495510Y77453497D01*
X12483356Y77452900D01*
X12440053Y77452900D01*
X12397591Y77444455D01*
X12385563Y77442670D01*
X12342467Y77438424D01*
X12301027Y77425854D01*
X12289226Y77422898D01*
X12246766Y77414452D01*
X12246761Y77414451D01*
X12206759Y77397882D01*
X12195307Y77393784D01*
X12153872Y77381214D01*
X12115691Y77360806D01*
X12104693Y77355605D01*
X12064691Y77339036D01*
X12028680Y77314974D01*
X12018245Y77308720D01*
X11980065Y77288313D01*
X11980060Y77288309D01*
X11946590Y77260843D01*
X11936825Y77253601D01*
X11900825Y77229545D01*
X11900819Y77229540D01*
X11870195Y77198917D01*
X11861184Y77190750D01*
X11827717Y77163283D01*
X11800250Y77129816D01*
X11792083Y77120805D01*
X11761460Y77090181D01*
X11761455Y77090175D01*
X11737399Y77054175D01*
X11730157Y77044410D01*
X11702691Y77010940D01*
X11702687Y77010935D01*
X11682280Y76972755D01*
X11676026Y76962320D01*
X11651964Y76926309D01*
X11635395Y76886307D01*
X11630194Y76875309D01*
X11609786Y76837128D01*
X11597216Y76795693D01*
X11593118Y76784241D01*
X11576549Y76744239D01*
X11576548Y76744234D01*
X11568102Y76701774D01*
X11565146Y76689973D01*
X11552576Y76648533D01*
X11548330Y76605437D01*
X11546545Y76593409D01*
X11538100Y76550947D01*
X11538100Y76507646D01*
X11537503Y76495493D01*
X11533259Y76452401D01*
X6254279Y76452401D01*
X6285472Y76642669D01*
X6285473Y76642686D01*
X6304847Y76999998D01*
X6304847Y77000003D01*
X6285473Y77357315D01*
X6285472Y77357332D01*
X6227584Y77710432D01*
X6227578Y77710458D01*
X6131852Y78055233D01*
X6131850Y78055240D01*
X5999402Y78387660D01*
X5999393Y78387678D01*
X5831781Y78703828D01*
X5630975Y78999995D01*
X5630964Y79000009D01*
X5503556Y79150004D01*
X4294251Y77940699D01*
X4220412Y78042330D01*
X4042330Y78220412D01*
X3940698Y78294252D01*
X5109627Y79463181D01*
X5170950Y79496666D01*
X5197308Y79499500D01*
X64802692Y79499500D01*
X64869731Y79479815D01*
G37*
%TD.AperFunction*%
%TD*%
M02*
