%TF.GenerationSoftware,KiCad,Pcbnew,8.0.0*%
%TF.CreationDate,2024-03-26T22:18:36-07:00*%
%TF.ProjectId,recivier,72656369-7669-4657-922e-6b696361645f,rev?*%
%TF.SameCoordinates,Original*%
%TF.FileFunction,Copper,L3,Inr*%
%TF.FilePolarity,Positive*%
%FSLAX46Y46*%
G04 Gerber Fmt 4.6, Leading zero omitted, Abs format (unit mm)*
G04 Created by KiCad (PCBNEW 8.0.0) date 2024-03-26 22:18:36*
%MOMM*%
%LPD*%
G01*
G04 APERTURE LIST*
%TA.AperFunction,ComponentPad*%
%ADD10C,1.800000*%
%TD*%
%TA.AperFunction,ComponentPad*%
%ADD11C,5.600000*%
%TD*%
%TA.AperFunction,ComponentPad*%
%ADD12R,3.000000X3.000000*%
%TD*%
%TA.AperFunction,ComponentPad*%
%ADD13C,3.000000*%
%TD*%
%TA.AperFunction,ComponentPad*%
%ADD14C,1.000000*%
%TD*%
%TA.AperFunction,ComponentPad*%
%ADD15R,1.800000X2.500000*%
%TD*%
%TA.AperFunction,ComponentPad*%
%ADD16O,1.800000X2.500000*%
%TD*%
%TA.AperFunction,ComponentPad*%
%ADD17O,1.400000X1.200000*%
%TD*%
%TA.AperFunction,ComponentPad*%
%ADD18O,1.900000X1.200000*%
%TD*%
%TA.AperFunction,ComponentPad*%
%ADD19C,1.520000*%
%TD*%
%TA.AperFunction,ComponentPad*%
%ADD20O,2.200000X1.400000*%
%TD*%
%TA.AperFunction,ViaPad*%
%ADD21C,0.600000*%
%TD*%
%TA.AperFunction,ViaPad*%
%ADD22C,1.000000*%
%TD*%
G04 APERTURE END LIST*
D10*
%TO.N,unconnected-(SW2-Pad1)*%
%TO.C,SW2*%
X22833000Y16037600D03*
%TO.N,+3.3VA*%
X29333000Y16037600D03*
%TO.N,/BUTTON2*%
X22833000Y11537600D03*
%TO.N,unconnected-(SW2-Pad4)*%
X29333000Y11537600D03*
%TD*%
%TO.N,+3.3VA*%
%TO.C,SW3*%
X32077400Y16073600D03*
%TO.N,unconnected-(SW3-Pad2)*%
X38577400Y16073600D03*
%TO.N,/BUTTON3*%
X32077400Y11573600D03*
%TO.N,unconnected-(SW3-Pad4)*%
X38577400Y11573600D03*
%TD*%
D11*
%TO.N,GND*%
%TO.C,H1*%
X3000000Y77000000D03*
%TD*%
D12*
%TO.N,Net-(D3-K)*%
%TO.C,J5*%
X4491800Y14738000D03*
D13*
%TO.N,GND*%
X4491800Y9658000D03*
%TD*%
D11*
%TO.N,GND*%
%TO.C,H4*%
X67000000Y3000000D03*
%TD*%
D12*
%TO.N,/AUDIOOUT*%
%TO.C,J4*%
X65451800Y18243200D03*
D13*
%TO.N,GND*%
X65451800Y23323200D03*
%TD*%
D14*
%TO.N,*%
%TO.C,Card1*%
X20538600Y76452400D03*
X12538600Y76452400D03*
%TD*%
D15*
%TO.N,GND*%
%TO.C,DS1*%
X51126200Y30054200D03*
D16*
%TO.N,+5V*%
X48586200Y30054200D03*
%TO.N,Net-(DS1-VO)*%
X46046200Y30054200D03*
%TO.N,/LCD CS 5V*%
X43506200Y30054200D03*
%TO.N,/MOSI 2 5V*%
X40966200Y30054200D03*
%TO.N,/SCLK 2 5V*%
X38426200Y30054200D03*
%TO.N,unconnected-(DS1-DB0-Pad7)*%
X35886200Y30054200D03*
%TO.N,unconnected-(DS1-DB1-Pad8)*%
X33346200Y30054200D03*
%TO.N,unconnected-(DS1-DB2-Pad9)*%
X30806200Y30054200D03*
%TO.N,unconnected-(DS1-DB3-Pad10)*%
X28266200Y30054200D03*
%TO.N,unconnected-(DS1-DB4-Pad11)*%
X25726200Y30054200D03*
%TO.N,unconnected-(DS1-DB5-Pad12)*%
X23186200Y30054200D03*
%TO.N,unconnected-(DS1-DB6-Pad13)*%
X20646200Y30054200D03*
%TO.N,unconnected-(DS1-DB7-Pad14)*%
X18106200Y30054200D03*
%TO.N,GND*%
X15566200Y30054200D03*
%TO.N,unconnected-(DS1-NC-Pad16)*%
X13026200Y30054200D03*
%TO.N,unconnected-(DS1-~{RST}-Pad17)*%
X10486200Y30054200D03*
%TO.N,GND*%
X7946200Y30054200D03*
%TO.N,+3.3VA*%
X5406200Y30054200D03*
%TO.N,GND*%
X2866200Y30054200D03*
%TD*%
D10*
%TO.N,+3.3VA*%
%TO.C,SW5*%
X32179000Y8961600D03*
%TO.N,unconnected-(SW5-Pad2)*%
X38679000Y8961600D03*
%TO.N,/BUTTON5*%
X32179000Y4461600D03*
%TO.N,unconnected-(SW5-Pad4)*%
X38679000Y4461600D03*
%TD*%
D11*
%TO.N,GND*%
%TO.C,H2*%
X67000000Y77000000D03*
%TD*%
%TO.N,GND*%
%TO.C,H3*%
X3000000Y3000000D03*
%TD*%
D10*
%TO.N,+3.3VA*%
%TO.C,SW1*%
X32052000Y23719000D03*
%TO.N,unconnected-(SW1-Pad2)*%
X38552000Y23719000D03*
%TO.N,/BUTTON1*%
X32052000Y19219000D03*
%TO.N,unconnected-(SW1-Pad4)*%
X38552000Y19219000D03*
%TD*%
D17*
%TO.N,unconnected-(J1-Shield-Pad6)*%
%TO.C,J1*%
X6404400Y50608200D03*
%TO.N,N/C*%
X6404400Y55448200D03*
D18*
X3504400Y56628200D03*
X3504400Y49428200D03*
%TD*%
D10*
%TO.N,+3.3VA*%
%TO.C,SW4*%
X41372600Y16103200D03*
%TO.N,unconnected-(SW4-Pad2)*%
X47872600Y16103200D03*
%TO.N,/BUTTON4*%
X41372600Y11603200D03*
%TO.N,unconnected-(SW4-Pad4)*%
X47872600Y11603200D03*
%TD*%
D19*
%TO.N,+BATT*%
%TO.C,SW6*%
X2815400Y24698000D03*
%TO.N,Net-(Q1-S)*%
X2815400Y22698000D03*
%TO.N,unconnected-(SW6-C-Pad3)*%
X2815400Y20698000D03*
D20*
%TO.N,N/C*%
X2815400Y18548000D03*
X2815400Y26848000D03*
%TD*%
D21*
%TO.N,GND*%
X61692600Y9525800D03*
X51659600Y8932400D03*
D22*
X10816400Y11842400D03*
D21*
X12421800Y54819200D03*
X33066800Y75444000D03*
X42896600Y9073800D03*
X7997000Y23374000D03*
D22*
X16208917Y5432200D03*
D21*
X36445000Y75215400D03*
D22*
X13205718Y5603400D03*
X6117400Y48672400D03*
D21*
X21155200Y9658000D03*
X29460000Y45776800D03*
X28508700Y42509388D03*
X19777388Y53898855D03*
X7565200Y20122800D03*
X36597400Y77755400D03*
X29506701Y43723845D03*
X18690400Y64014000D03*
X61692600Y14132400D03*
X14194600Y46869000D03*
X20144108Y50852200D03*
X9546400Y25202800D03*
X60651200Y56114600D03*
X11682600Y51923600D03*
D22*
X14651800Y15957200D03*
D21*
X40214300Y68596100D03*
X33792800Y1757400D03*
X38426200Y67440400D03*
D22*
X7235000Y2744800D03*
D21*
X39620000Y35069200D03*
X16858820Y50864420D03*
X54284753Y14216207D03*
X19274600Y50780600D03*
D22*
X4880912Y51662631D03*
D21*
X62983600Y10173800D03*
X52734392Y11247312D03*
X16800400Y53879561D03*
X11502200Y38741000D03*
X23587400Y52355400D03*
X43187700Y10166000D03*
X57425400Y56165400D03*
X36597400Y76409200D03*
X27033400Y51223400D03*
X32762000Y77577600D03*
X59152600Y70618000D03*
X26335800Y43846400D03*
X66772600Y68408200D03*
X18937514Y58520714D03*
X14169200Y57206800D03*
X18817400Y45903800D03*
D22*
X2713800Y43236800D03*
D21*
X67306000Y14763400D03*
X29561600Y62845600D03*
%TO.N,+3.3VA*%
X61692600Y8282400D03*
D22*
X14397800Y22866000D03*
D21*
X22444902Y43154214D03*
X13635800Y2749200D03*
X27961400Y46234000D03*
X26818400Y49423400D03*
X61311600Y68357400D03*
X15058200Y56075800D03*
X51822595Y8098172D03*
X43125200Y35108800D03*
X15159800Y47961200D03*
X54987000Y10191400D03*
X9952800Y39274400D03*
X59053000Y68433600D03*
X22824961Y51547741D03*
D22*
X12492800Y22866000D03*
D21*
X61718000Y12832400D03*
X13991400Y55454200D03*
X26361200Y43008200D03*
X38197600Y33534000D03*
X13508800Y52266200D03*
X19762587Y57713488D03*
X16658400Y66503200D03*
X23084600Y55088200D03*
X25421400Y49423400D03*
D22*
X38807200Y66253000D03*
D21*
X18233201Y47351601D03*
%TO.N,+1V1*%
X15476130Y52848855D03*
X20140945Y52102200D03*
D22*
%TO.N,+5V*%
X48865600Y24009000D03*
X18385600Y11715400D03*
D21*
%TO.N,/MOSI*%
X25065800Y70719600D03*
X17649000Y54489000D03*
X38807200Y37750400D03*
X25751600Y68840000D03*
%TO.N,/MISO*%
X15083600Y63810800D03*
X19884200Y63937800D03*
%TO.N,VBUS*%
X2612200Y51009200D03*
X800000Y41204800D03*
%TO.N,/SWD*%
X24818504Y54502857D03*
X20468400Y54438200D03*
X26666000Y54438200D03*
%TO.N,/SWCLK*%
X20265200Y53219000D03*
%TO.N,/RUN*%
X24151400Y53828600D03*
%TO.N,/SDA*%
X25294400Y42652600D03*
X32889000Y43160600D03*
%TO.N,/QSPI_SD3*%
X15490000Y51237800D03*
X8682800Y41331800D03*
%TO.N,/QSPI_SCLK*%
X11730800Y50450400D03*
X7387400Y42007200D03*
%TO.N,/QSPI_SDO*%
X12391200Y49891600D03*
X6117400Y41357200D03*
%TO.N,/LCD CS*%
X41321800Y43770200D03*
X42007600Y36734400D03*
%TO.N,/BATT SENSE*%
X12899200Y38029800D03*
X15794800Y54514400D03*
%TO.N,/SCLK*%
X17725200Y66452400D03*
X17750600Y62744000D03*
X40639892Y37029317D03*
X18944775Y54566200D03*
%TO.N,unconnected-(U3-GPIO7-Pad9)*%
X18396232Y49544807D03*
%TD*%
%TA.AperFunction,Conductor*%
%TO.N,+3.3VA*%
G36*
X64595178Y79479815D02*
G01*
X64640933Y79427011D01*
X64650877Y79357853D01*
X64621852Y79294297D01*
X64613423Y79285487D01*
X64606099Y79278550D01*
X64600328Y79273083D01*
X64600324Y79273078D01*
X64368641Y79000320D01*
X64368634Y79000310D01*
X64167790Y78704087D01*
X64167784Y78704078D01*
X64000151Y78387889D01*
X64000142Y78387871D01*
X63867674Y78055400D01*
X63867672Y78055393D01*
X63771932Y77710566D01*
X63771926Y77710540D01*
X63714029Y77357386D01*
X63714028Y77357369D01*
X63697060Y77044405D01*
X63694652Y77000000D01*
X63710821Y76701770D01*
X63714028Y76642632D01*
X63714029Y76642615D01*
X63771926Y76289461D01*
X63771932Y76289435D01*
X63867672Y75944608D01*
X63867674Y75944601D01*
X64000142Y75612130D01*
X64000151Y75612112D01*
X64167784Y75295923D01*
X64167787Y75295918D01*
X64167789Y75295915D01*
X64343917Y75036145D01*
X64368634Y74999691D01*
X64368641Y74999681D01*
X64500499Y74844446D01*
X64600332Y74726914D01*
X64860163Y74480789D01*
X65145081Y74264200D01*
X65451747Y74079685D01*
X65451749Y74079684D01*
X65451751Y74079683D01*
X65451755Y74079681D01*
X65776552Y73929415D01*
X65776565Y73929409D01*
X66115726Y73815132D01*
X66465254Y73738195D01*
X66821052Y73699500D01*
X66821058Y73699500D01*
X67178942Y73699500D01*
X67178948Y73699500D01*
X67534746Y73738195D01*
X67884274Y73815132D01*
X68223435Y73929409D01*
X68548253Y74079685D01*
X68854919Y74264200D01*
X69139837Y74480789D01*
X69290227Y74623247D01*
X69352432Y74655057D01*
X69421964Y74648188D01*
X69476743Y74604817D01*
X69499378Y74538716D01*
X69499500Y74533222D01*
X69499500Y5466779D01*
X69479815Y5399740D01*
X69427011Y5353985D01*
X69357853Y5344041D01*
X69294297Y5373066D01*
X69290247Y5376735D01*
X69139837Y5519211D01*
X69139829Y5519217D01*
X69139827Y5519219D01*
X68996293Y5628330D01*
X68854919Y5735800D01*
X68548253Y5920315D01*
X68548252Y5920316D01*
X68548248Y5920318D01*
X68548244Y5920320D01*
X68223447Y6070586D01*
X68223441Y6070589D01*
X68223435Y6070591D01*
X68053854Y6127730D01*
X67884273Y6184869D01*
X67534744Y6261806D01*
X67178949Y6300500D01*
X67178948Y6300500D01*
X66821052Y6300500D01*
X66821050Y6300500D01*
X66465255Y6261806D01*
X66115726Y6184869D01*
X65859970Y6098694D01*
X65776565Y6070591D01*
X65776563Y6070590D01*
X65776552Y6070586D01*
X65451755Y5920320D01*
X65451751Y5920318D01*
X65279915Y5816927D01*
X65145081Y5735800D01*
X65056768Y5668667D01*
X64860172Y5519219D01*
X64860163Y5519211D01*
X64600331Y5273086D01*
X64368641Y5000320D01*
X64368634Y5000310D01*
X64167790Y4704087D01*
X64167784Y4704078D01*
X64000151Y4387889D01*
X64000142Y4387871D01*
X63867674Y4055400D01*
X63867672Y4055393D01*
X63771932Y3710566D01*
X63771926Y3710540D01*
X63714029Y3357386D01*
X63714028Y3357369D01*
X63694652Y3000003D01*
X63694652Y2999998D01*
X63697855Y2940930D01*
X63708488Y2744800D01*
X63714028Y2642632D01*
X63714029Y2642615D01*
X63771926Y2289461D01*
X63771932Y2289435D01*
X63867672Y1944608D01*
X63867674Y1944601D01*
X64000142Y1612130D01*
X64000151Y1612112D01*
X64167784Y1295923D01*
X64167787Y1295918D01*
X64167789Y1295915D01*
X64346991Y1031611D01*
X64368634Y999691D01*
X64368641Y999681D01*
X64600324Y726923D01*
X64600328Y726918D01*
X64600331Y726916D01*
X64600332Y726914D01*
X64613414Y714522D01*
X64648547Y654131D01*
X64645452Y584330D01*
X64605111Y527282D01*
X64540332Y501101D01*
X64528139Y500500D01*
X5471861Y500500D01*
X5404822Y520185D01*
X5359067Y572989D01*
X5349123Y642147D01*
X5378148Y705703D01*
X5386576Y714514D01*
X5399668Y726914D01*
X5631365Y999689D01*
X5832211Y1295915D01*
X5999853Y1612120D01*
X6132324Y1944597D01*
X6143450Y1984673D01*
X6186024Y2138007D01*
X6222925Y2197337D01*
X6286045Y2227298D01*
X6355343Y2218377D01*
X6401357Y2183499D01*
X6524116Y2033917D01*
X6676460Y1908891D01*
X6676467Y1908887D01*
X6850266Y1815989D01*
X6850269Y1815989D01*
X6850273Y1815986D01*
X7038868Y1758776D01*
X7235000Y1739459D01*
X7417131Y1757397D01*
X32987235Y1757397D01*
X33007430Y1578151D01*
X33007431Y1578146D01*
X33067011Y1407877D01*
X33137357Y1295923D01*
X33162984Y1255138D01*
X33290538Y1127584D01*
X33443278Y1031611D01*
X33534506Y999689D01*
X33613545Y972032D01*
X33613550Y972031D01*
X33792796Y951835D01*
X33792800Y951835D01*
X33792804Y951835D01*
X33972049Y972031D01*
X33972052Y972032D01*
X33972055Y972032D01*
X34142322Y1031611D01*
X34295062Y1127584D01*
X34422616Y1255138D01*
X34518589Y1407878D01*
X34578168Y1578145D01*
X34598365Y1757400D01*
X34581296Y1908890D01*
X34578169Y1936650D01*
X34578168Y1936655D01*
X34575385Y1944608D01*
X34518589Y2106922D01*
X34422616Y2259662D01*
X34295062Y2387216D01*
X34142323Y2483189D01*
X33972054Y2542769D01*
X33972049Y2542770D01*
X33792804Y2562965D01*
X33792796Y2562965D01*
X33613550Y2542770D01*
X33613545Y2542769D01*
X33443276Y2483189D01*
X33290537Y2387216D01*
X33162984Y2259663D01*
X33067011Y2106924D01*
X33007431Y1936655D01*
X33007430Y1936650D01*
X32987235Y1757404D01*
X32987235Y1757397D01*
X7417131Y1757397D01*
X7431132Y1758776D01*
X7619727Y1815986D01*
X7793538Y1908890D01*
X7945883Y2033917D01*
X8070910Y2186262D01*
X8163814Y2360073D01*
X8221024Y2548668D01*
X8240341Y2744800D01*
X8221024Y2940932D01*
X8163814Y3129527D01*
X8163811Y3129531D01*
X8163811Y3129534D01*
X8070913Y3303333D01*
X8070909Y3303340D01*
X7945883Y3455684D01*
X7793539Y3580710D01*
X7793532Y3580714D01*
X7619733Y3673612D01*
X7619727Y3673614D01*
X7431132Y3730824D01*
X7431129Y3730825D01*
X7235000Y3750141D01*
X7038870Y3730825D01*
X6850266Y3673612D01*
X6676467Y3580714D01*
X6676460Y3580710D01*
X6524115Y3455683D01*
X6486066Y3409320D01*
X6428320Y3369986D01*
X6358475Y3368117D01*
X6298707Y3404305D01*
X6267992Y3467061D01*
X6267873Y3467766D01*
X6228071Y3710552D01*
X6132324Y4055403D01*
X6062641Y4230295D01*
X5999857Y4387871D01*
X5999848Y4387889D01*
X5979187Y4426859D01*
X5888422Y4598060D01*
X5832215Y4704078D01*
X5832213Y4704081D01*
X5832211Y4704085D01*
X5631365Y5000311D01*
X5631361Y5000316D01*
X5631358Y5000320D01*
X5399668Y5273086D01*
X5345124Y5324753D01*
X5139837Y5519211D01*
X5139830Y5519217D01*
X5139827Y5519219D01*
X5029088Y5603400D01*
X12200377Y5603400D01*
X12219693Y5407271D01*
X12276906Y5218667D01*
X12369804Y5044868D01*
X12369808Y5044861D01*
X12494834Y4892517D01*
X12647178Y4767491D01*
X12647185Y4767487D01*
X12820984Y4674589D01*
X12820987Y4674589D01*
X12820991Y4674586D01*
X13009586Y4617376D01*
X13205718Y4598059D01*
X13401850Y4617376D01*
X13590445Y4674586D01*
X13624705Y4692898D01*
X13764250Y4767487D01*
X13764256Y4767490D01*
X13916601Y4892517D01*
X14041628Y5044862D01*
X14134532Y5218673D01*
X14191742Y5407268D01*
X14194198Y5432200D01*
X15203576Y5432200D01*
X15222892Y5236071D01*
X15222893Y5236068D01*
X15247316Y5155555D01*
X15280105Y5047467D01*
X15373003Y4873668D01*
X15373007Y4873661D01*
X15498033Y4721317D01*
X15650377Y4596291D01*
X15650384Y4596287D01*
X15824183Y4503389D01*
X15824186Y4503389D01*
X15824190Y4503386D01*
X16012785Y4446176D01*
X16208917Y4426859D01*
X16405049Y4446176D01*
X16455875Y4461594D01*
X30773700Y4461594D01*
X30792864Y4230303D01*
X30792866Y4230292D01*
X30849842Y4005300D01*
X30943075Y3792752D01*
X31070016Y3598453D01*
X31070019Y3598449D01*
X31070021Y3598447D01*
X31227216Y3427687D01*
X31227219Y3427685D01*
X31227222Y3427682D01*
X31410365Y3285136D01*
X31410371Y3285132D01*
X31410374Y3285130D01*
X31614497Y3174664D01*
X31728487Y3135532D01*
X31834015Y3099303D01*
X31834017Y3099303D01*
X31834019Y3099302D01*
X32062951Y3061100D01*
X32062952Y3061100D01*
X32295048Y3061100D01*
X32295049Y3061100D01*
X32523981Y3099302D01*
X32743503Y3174664D01*
X32947626Y3285130D01*
X33130784Y3427687D01*
X33287979Y3598447D01*
X33414924Y3792751D01*
X33508157Y4005300D01*
X33565134Y4230295D01*
X33578192Y4387880D01*
X33584300Y4461594D01*
X37273700Y4461594D01*
X37292864Y4230303D01*
X37292866Y4230292D01*
X37349842Y4005300D01*
X37443075Y3792752D01*
X37570016Y3598453D01*
X37570019Y3598449D01*
X37570021Y3598447D01*
X37727216Y3427687D01*
X37727219Y3427685D01*
X37727222Y3427682D01*
X37910365Y3285136D01*
X37910371Y3285132D01*
X37910374Y3285130D01*
X38114497Y3174664D01*
X38228487Y3135532D01*
X38334015Y3099303D01*
X38334017Y3099303D01*
X38334019Y3099302D01*
X38562951Y3061100D01*
X38562952Y3061100D01*
X38795048Y3061100D01*
X38795049Y3061100D01*
X39023981Y3099302D01*
X39243503Y3174664D01*
X39447626Y3285130D01*
X39630784Y3427687D01*
X39787979Y3598447D01*
X39914924Y3792751D01*
X40008157Y4005300D01*
X40065134Y4230295D01*
X40078192Y4387880D01*
X40084300Y4461594D01*
X40084300Y4461607D01*
X40065135Y4692898D01*
X40065133Y4692909D01*
X40008157Y4917901D01*
X39914924Y5130449D01*
X39787983Y5324748D01*
X39787980Y5324751D01*
X39787979Y5324753D01*
X39630784Y5495513D01*
X39630779Y5495517D01*
X39630777Y5495519D01*
X39447634Y5638065D01*
X39447628Y5638069D01*
X39243504Y5748536D01*
X39243495Y5748539D01*
X39023984Y5823898D01*
X38852282Y5852550D01*
X38795049Y5862100D01*
X38562951Y5862100D01*
X38517164Y5854460D01*
X38334015Y5823898D01*
X38114504Y5748539D01*
X38114495Y5748536D01*
X37910371Y5638069D01*
X37910365Y5638065D01*
X37727222Y5495519D01*
X37727219Y5495516D01*
X37570016Y5324748D01*
X37443075Y5130449D01*
X37349842Y4917901D01*
X37292866Y4692909D01*
X37292864Y4692898D01*
X37273700Y4461607D01*
X37273700Y4461594D01*
X33584300Y4461594D01*
X33584300Y4461607D01*
X33565135Y4692898D01*
X33565133Y4692909D01*
X33508157Y4917901D01*
X33414924Y5130449D01*
X33287983Y5324748D01*
X33287980Y5324751D01*
X33287979Y5324753D01*
X33130784Y5495513D01*
X33130779Y5495517D01*
X33130777Y5495519D01*
X32947634Y5638065D01*
X32947628Y5638069D01*
X32743504Y5748536D01*
X32743495Y5748539D01*
X32523984Y5823898D01*
X32352282Y5852550D01*
X32295049Y5862100D01*
X32062951Y5862100D01*
X32017164Y5854460D01*
X31834015Y5823898D01*
X31614504Y5748539D01*
X31614495Y5748536D01*
X31410371Y5638069D01*
X31410365Y5638065D01*
X31227222Y5495519D01*
X31227219Y5495516D01*
X31070016Y5324748D01*
X30943075Y5130449D01*
X30849842Y4917901D01*
X30792866Y4692909D01*
X30792864Y4692898D01*
X30773700Y4461607D01*
X30773700Y4461594D01*
X16455875Y4461594D01*
X16593644Y4503386D01*
X16767455Y4596290D01*
X16919800Y4721317D01*
X17044827Y4873662D01*
X17136335Y5044861D01*
X17137728Y5047467D01*
X17137728Y5047468D01*
X17137731Y5047473D01*
X17194941Y5236068D01*
X17214258Y5432200D01*
X17194941Y5628332D01*
X17137731Y5816927D01*
X17137728Y5816931D01*
X17137728Y5816934D01*
X17044830Y5990733D01*
X17044826Y5990740D01*
X16919800Y6143084D01*
X16767456Y6268110D01*
X16767449Y6268114D01*
X16593650Y6361012D01*
X16593644Y6361014D01*
X16405049Y6418224D01*
X16405046Y6418225D01*
X16208917Y6437541D01*
X16012787Y6418225D01*
X15824183Y6361012D01*
X15650384Y6268114D01*
X15650377Y6268110D01*
X15498033Y6143084D01*
X15373007Y5990740D01*
X15373003Y5990733D01*
X15280105Y5816934D01*
X15222892Y5628330D01*
X15203576Y5432200D01*
X14194198Y5432200D01*
X14211059Y5603400D01*
X14191742Y5799532D01*
X14134532Y5988127D01*
X14134529Y5988131D01*
X14134529Y5988134D01*
X14041631Y6161933D01*
X14041627Y6161940D01*
X13916601Y6314284D01*
X13764257Y6439310D01*
X13764250Y6439314D01*
X13590451Y6532212D01*
X13590445Y6532214D01*
X13401850Y6589424D01*
X13401847Y6589425D01*
X13205718Y6608741D01*
X13009588Y6589425D01*
X12820984Y6532212D01*
X12647185Y6439314D01*
X12647178Y6439310D01*
X12494834Y6314284D01*
X12369808Y6161940D01*
X12369804Y6161933D01*
X12276906Y5988134D01*
X12219693Y5799530D01*
X12200377Y5603400D01*
X5029088Y5603400D01*
X4996293Y5628330D01*
X4854919Y5735800D01*
X4548253Y5920315D01*
X4548252Y5920316D01*
X4548248Y5920318D01*
X4548244Y5920320D01*
X4223447Y6070586D01*
X4223441Y6070589D01*
X4223435Y6070591D01*
X4053854Y6127730D01*
X3884273Y6184869D01*
X3534744Y6261806D01*
X3178949Y6300500D01*
X3178948Y6300500D01*
X2821052Y6300500D01*
X2821050Y6300500D01*
X2465255Y6261806D01*
X2115726Y6184869D01*
X1859970Y6098694D01*
X1776565Y6070591D01*
X1776563Y6070590D01*
X1776552Y6070586D01*
X1451755Y5920320D01*
X1451751Y5920318D01*
X1279915Y5816927D01*
X1145081Y5735800D01*
X1056768Y5668667D01*
X860172Y5519219D01*
X860165Y5519214D01*
X860163Y5519211D01*
X709772Y5376754D01*
X647567Y5344943D01*
X578036Y5351813D01*
X523257Y5395184D01*
X500622Y5461286D01*
X500500Y5466779D01*
X500500Y9657999D01*
X2486190Y9657999D01*
X2506604Y9372567D01*
X2567428Y9092963D01*
X2567430Y9092957D01*
X2567431Y9092954D01*
X2657140Y8852435D01*
X2667435Y8824834D01*
X2804570Y8573691D01*
X2804575Y8573683D01*
X2976054Y8344613D01*
X2976070Y8344595D01*
X3178394Y8142271D01*
X3178412Y8142255D01*
X3407482Y7970776D01*
X3407490Y7970771D01*
X3658633Y7833636D01*
X3658632Y7833636D01*
X3658636Y7833635D01*
X3658639Y7833633D01*
X3926754Y7733631D01*
X3926760Y7733630D01*
X3926762Y7733629D01*
X4206366Y7672805D01*
X4206368Y7672805D01*
X4206372Y7672804D01*
X4460020Y7654663D01*
X4491799Y7652390D01*
X4491800Y7652390D01*
X4491801Y7652390D01*
X4520395Y7654436D01*
X4777228Y7672804D01*
X4785770Y7674662D01*
X5056837Y7733629D01*
X5056837Y7733630D01*
X5056846Y7733631D01*
X5324961Y7833633D01*
X5576115Y7970774D01*
X5805195Y8142261D01*
X6007539Y8344605D01*
X6179026Y8573685D01*
X6316167Y8824839D01*
X6416169Y9092954D01*
X6471334Y9346546D01*
X6476995Y9372567D01*
X6476995Y9372568D01*
X6476996Y9372572D01*
X6497410Y9657997D01*
X20349635Y9657997D01*
X20369830Y9478751D01*
X20369831Y9478746D01*
X20429411Y9308477D01*
X20501851Y9193191D01*
X20525384Y9155738D01*
X20652938Y9028184D01*
X20743280Y8971418D01*
X20805370Y8932404D01*
X20805678Y8932211D01*
X20975945Y8872632D01*
X20975950Y8872631D01*
X21155196Y8852435D01*
X21155200Y8852435D01*
X21155204Y8852435D01*
X21334449Y8872631D01*
X21334452Y8872632D01*
X21334455Y8872632D01*
X21504722Y8932211D01*
X21657462Y9028184D01*
X21785016Y9155738D01*
X21880989Y9308478D01*
X21940568Y9478745D01*
X21945003Y9518106D01*
X21960765Y9657997D01*
X21960765Y9658004D01*
X21940569Y9837250D01*
X21940568Y9837255D01*
X21885529Y9994546D01*
X21880989Y10007522D01*
X21785016Y10160262D01*
X21657462Y10287816D01*
X21649280Y10292957D01*
X21504723Y10383789D01*
X21334454Y10443369D01*
X21334449Y10443370D01*
X21155204Y10463565D01*
X21155196Y10463565D01*
X20975950Y10443370D01*
X20975945Y10443369D01*
X20805676Y10383789D01*
X20652937Y10287816D01*
X20525384Y10160263D01*
X20429411Y10007524D01*
X20369831Y9837255D01*
X20369830Y9837250D01*
X20349635Y9658004D01*
X20349635Y9657997D01*
X6497410Y9657997D01*
X6497410Y9658000D01*
X6497396Y9658189D01*
X6491691Y9737965D01*
X6476996Y9943428D01*
X6467573Y9986743D01*
X6416171Y10223038D01*
X6416170Y10223040D01*
X6416169Y10223046D01*
X6316167Y10491161D01*
X6309405Y10503544D01*
X6179029Y10742310D01*
X6179024Y10742318D01*
X6007545Y10971388D01*
X6007529Y10971406D01*
X5805205Y11173730D01*
X5805187Y11173746D01*
X5576117Y11345225D01*
X5576109Y11345230D01*
X5324966Y11482365D01*
X5324967Y11482365D01*
X5176857Y11537607D01*
X5056846Y11582369D01*
X5056843Y11582370D01*
X5056837Y11582372D01*
X4777233Y11643196D01*
X4491801Y11663610D01*
X4491799Y11663610D01*
X4206366Y11643196D01*
X3926762Y11582372D01*
X3658633Y11482365D01*
X3407490Y11345230D01*
X3407482Y11345225D01*
X3178412Y11173746D01*
X3178394Y11173730D01*
X2976070Y10971406D01*
X2976054Y10971388D01*
X2804575Y10742318D01*
X2804570Y10742310D01*
X2667435Y10491167D01*
X2567428Y10223038D01*
X2506604Y9943434D01*
X2486190Y9658002D01*
X2486190Y9657999D01*
X500500Y9657999D01*
X500500Y11842400D01*
X9811059Y11842400D01*
X9830375Y11646271D01*
X9830376Y11646268D01*
X9876119Y11495473D01*
X9887588Y11457667D01*
X9980486Y11283868D01*
X9980490Y11283861D01*
X10105516Y11131517D01*
X10257860Y11006491D01*
X10257867Y11006487D01*
X10431666Y10913589D01*
X10431669Y10913589D01*
X10431673Y10913586D01*
X10620268Y10856376D01*
X10816400Y10837059D01*
X11012532Y10856376D01*
X11201127Y10913586D01*
X11239978Y10934352D01*
X11309280Y10971395D01*
X11374938Y11006490D01*
X11527283Y11131517D01*
X11652310Y11283862D01*
X11728585Y11426562D01*
X11745211Y11457667D01*
X11745211Y11457668D01*
X11745214Y11457673D01*
X11802424Y11646268D01*
X11809233Y11715400D01*
X17380259Y11715400D01*
X17399575Y11519271D01*
X17399576Y11519268D01*
X17453261Y11342292D01*
X17456788Y11330667D01*
X17549686Y11156868D01*
X17549690Y11156861D01*
X17674716Y11004517D01*
X17827060Y10879491D01*
X17827067Y10879487D01*
X18000866Y10786589D01*
X18000869Y10786589D01*
X18000873Y10786586D01*
X18189468Y10729376D01*
X18385600Y10710059D01*
X18581732Y10729376D01*
X18770327Y10786586D01*
X18944138Y10879490D01*
X19096483Y11004517D01*
X19221510Y11156862D01*
X19269859Y11247316D01*
X19314411Y11330667D01*
X19314411Y11330668D01*
X19314414Y11330673D01*
X19371624Y11519268D01*
X19373429Y11537594D01*
X21427700Y11537594D01*
X21446864Y11306303D01*
X21446866Y11306292D01*
X21503842Y11081300D01*
X21597075Y10868752D01*
X21724016Y10674453D01*
X21724019Y10674449D01*
X21724021Y10674447D01*
X21881216Y10503687D01*
X21881219Y10503685D01*
X21881222Y10503682D01*
X22064365Y10361136D01*
X22064371Y10361132D01*
X22064374Y10361130D01*
X22268497Y10250664D01*
X22348969Y10223038D01*
X22488015Y10175303D01*
X22488017Y10175303D01*
X22488019Y10175302D01*
X22716951Y10137100D01*
X22716952Y10137100D01*
X22949048Y10137100D01*
X22949049Y10137100D01*
X23177981Y10175302D01*
X23397503Y10250664D01*
X23601626Y10361130D01*
X23630739Y10383789D01*
X23685917Y10426736D01*
X23784784Y10503687D01*
X23941979Y10674447D01*
X24068924Y10868751D01*
X24162157Y11081300D01*
X24219134Y11306295D01*
X24219135Y11306303D01*
X24238300Y11537594D01*
X27927700Y11537594D01*
X27946864Y11306303D01*
X27946866Y11306292D01*
X28003842Y11081300D01*
X28097075Y10868752D01*
X28224016Y10674453D01*
X28224019Y10674449D01*
X28224021Y10674447D01*
X28381216Y10503687D01*
X28381219Y10503685D01*
X28381222Y10503682D01*
X28564365Y10361136D01*
X28564371Y10361132D01*
X28564374Y10361130D01*
X28768497Y10250664D01*
X28848969Y10223038D01*
X28988015Y10175303D01*
X28988017Y10175303D01*
X28988019Y10175302D01*
X29216951Y10137100D01*
X29216952Y10137100D01*
X29449048Y10137100D01*
X29449049Y10137100D01*
X29677981Y10175302D01*
X29897503Y10250664D01*
X30101626Y10361130D01*
X30130739Y10383789D01*
X30185917Y10426736D01*
X30284784Y10503687D01*
X30441979Y10674447D01*
X30568924Y10868751D01*
X30599539Y10938547D01*
X30644494Y10992032D01*
X30711230Y11012723D01*
X30778558Y10994049D01*
X30825102Y10941939D01*
X30826650Y10938548D01*
X30841473Y10904755D01*
X30968416Y10710453D01*
X30968419Y10710449D01*
X30968421Y10710447D01*
X31125616Y10539687D01*
X31125619Y10539685D01*
X31125622Y10539682D01*
X31308765Y10397136D01*
X31308772Y10397132D01*
X31308774Y10397130D01*
X31390217Y10353055D01*
X31398703Y10348463D01*
X31448294Y10299244D01*
X31463402Y10231027D01*
X31439232Y10165471D01*
X31413999Y10141693D01*
X31414695Y10140799D01*
X31380200Y10113953D01*
X31967941Y9526212D01*
X31947409Y9520710D01*
X31810592Y9441718D01*
X31698882Y9330008D01*
X31619890Y9193191D01*
X31614388Y9172658D01*
X31027811Y9759235D01*
X30943516Y9630210D01*
X30850317Y9417736D01*
X30793361Y9192819D01*
X30774202Y8961606D01*
X30774202Y8961595D01*
X30793361Y8730382D01*
X30850317Y8505465D01*
X30943515Y8292994D01*
X31027812Y8163967D01*
X31614388Y8750543D01*
X31619890Y8730009D01*
X31698882Y8593192D01*
X31810592Y8481482D01*
X31947409Y8402490D01*
X31967941Y8396989D01*
X31380201Y7809249D01*
X31410649Y7785550D01*
X31614697Y7675124D01*
X31614706Y7675121D01*
X31834139Y7599789D01*
X32062993Y7561600D01*
X32295007Y7561600D01*
X32523860Y7599789D01*
X32743293Y7675121D01*
X32743301Y7675124D01*
X32947355Y7785553D01*
X32977797Y7809249D01*
X32977798Y7809250D01*
X32390059Y8396989D01*
X32410591Y8402490D01*
X32547408Y8481482D01*
X32659118Y8593192D01*
X32738110Y8730009D01*
X32743611Y8750542D01*
X33330186Y8163967D01*
X33414482Y8292989D01*
X33507682Y8505465D01*
X33564638Y8730382D01*
X33583798Y8961595D01*
X33583798Y8961606D01*
X33564638Y9192819D01*
X33507682Y9417736D01*
X33414484Y9630207D01*
X33330186Y9759235D01*
X32743611Y9172660D01*
X32738110Y9193191D01*
X32659118Y9330008D01*
X32547408Y9441718D01*
X32410591Y9520710D01*
X32390058Y9526212D01*
X32977797Y10113953D01*
X32977797Y10113955D01*
X32947360Y10137645D01*
X32947354Y10137649D01*
X32857721Y10186156D01*
X32808131Y10235376D01*
X32793023Y10303593D01*
X32817194Y10369148D01*
X32842654Y10393111D01*
X32841979Y10393979D01*
X32982931Y10503687D01*
X33029184Y10539687D01*
X33186379Y10710447D01*
X33313324Y10904751D01*
X33406557Y11117300D01*
X33463534Y11342295D01*
X33463777Y11345226D01*
X33482700Y11573594D01*
X37172100Y11573594D01*
X37191264Y11342303D01*
X37191266Y11342292D01*
X37248242Y11117300D01*
X37341475Y10904752D01*
X37468416Y10710453D01*
X37468419Y10710449D01*
X37468421Y10710447D01*
X37625616Y10539687D01*
X37625619Y10539685D01*
X37625622Y10539682D01*
X37808765Y10397136D01*
X37808771Y10397132D01*
X37808774Y10397130D01*
X37890227Y10353050D01*
X37898202Y10348734D01*
X37947792Y10299514D01*
X37962900Y10231297D01*
X37938729Y10165742D01*
X37913693Y10142157D01*
X37914421Y10141221D01*
X37727222Y9995519D01*
X37727219Y9995516D01*
X37727216Y9995514D01*
X37727216Y9995513D01*
X37719145Y9986745D01*
X37570016Y9824748D01*
X37443075Y9630449D01*
X37349842Y9417901D01*
X37292866Y9192909D01*
X37292864Y9192898D01*
X37273700Y8961607D01*
X37273700Y8961594D01*
X37292864Y8730303D01*
X37292866Y8730292D01*
X37349842Y8505300D01*
X37443075Y8292752D01*
X37570016Y8098453D01*
X37570019Y8098449D01*
X37570021Y8098447D01*
X37727216Y7927687D01*
X37727219Y7927685D01*
X37727222Y7927682D01*
X37910365Y7785136D01*
X37910371Y7785132D01*
X37910374Y7785130D01*
X38077860Y7694491D01*
X38113652Y7675121D01*
X38114497Y7674664D01*
X38179379Y7652390D01*
X38334015Y7599303D01*
X38334017Y7599303D01*
X38334019Y7599302D01*
X38562951Y7561100D01*
X38562952Y7561100D01*
X38795048Y7561100D01*
X38795049Y7561100D01*
X39023981Y7599302D01*
X39243503Y7674664D01*
X39447626Y7785130D01*
X39448170Y7785553D01*
X39509947Y7833636D01*
X39630784Y7927687D01*
X39787979Y8098447D01*
X39914924Y8292751D01*
X40008157Y8505300D01*
X40065134Y8730295D01*
X40065135Y8730303D01*
X40084300Y8961594D01*
X40084300Y8961607D01*
X40065135Y9192898D01*
X40065133Y9192909D01*
X40008157Y9417901D01*
X39914924Y9630449D01*
X39787983Y9824748D01*
X39787980Y9824751D01*
X39787979Y9824753D01*
X39630784Y9995513D01*
X39630779Y9995517D01*
X39630777Y9995519D01*
X39447634Y10138065D01*
X39447619Y10138075D01*
X39358197Y10186468D01*
X39308607Y10235687D01*
X39293499Y10303904D01*
X39317670Y10369459D01*
X39342719Y10393029D01*
X39341979Y10393979D01*
X39482931Y10503687D01*
X39529184Y10539687D01*
X39686379Y10710447D01*
X39813324Y10904751D01*
X39867936Y11029256D01*
X39912891Y11082739D01*
X39979626Y11103429D01*
X40046954Y11084755D01*
X40093498Y11032645D01*
X40095047Y11029254D01*
X40136676Y10934350D01*
X40263616Y10740053D01*
X40263619Y10740049D01*
X40263621Y10740047D01*
X40420816Y10569287D01*
X40420819Y10569285D01*
X40420822Y10569282D01*
X40603965Y10426736D01*
X40603971Y10426732D01*
X40603974Y10426730D01*
X40808097Y10316264D01*
X40922087Y10277132D01*
X41027615Y10240903D01*
X41027617Y10240903D01*
X41027619Y10240902D01*
X41256551Y10202700D01*
X41256552Y10202700D01*
X41488648Y10202700D01*
X41488649Y10202700D01*
X41717581Y10240902D01*
X41937103Y10316264D01*
X42141226Y10426730D01*
X42206971Y10477902D01*
X42271964Y10503544D01*
X42340504Y10489978D01*
X42390829Y10441510D01*
X42406961Y10373528D01*
X42402796Y10352295D01*
X42403882Y10352047D01*
X42402330Y10345250D01*
X42382135Y10166004D01*
X42382135Y10165997D01*
X42402330Y9986751D01*
X42402332Y9986743D01*
X42449445Y9852101D01*
X42453006Y9782322D01*
X42418277Y9721695D01*
X42398383Y9706158D01*
X42394340Y9703618D01*
X42394335Y9703614D01*
X42266784Y9576063D01*
X42170811Y9423324D01*
X42111231Y9253055D01*
X42111230Y9253050D01*
X42091035Y9073804D01*
X42091035Y9073797D01*
X42111230Y8894551D01*
X42111231Y8894546D01*
X42170811Y8724277D01*
X42173351Y8720235D01*
X42266784Y8571538D01*
X42394338Y8443984D01*
X42416374Y8430138D01*
X42525449Y8361601D01*
X42547078Y8348011D01*
X42676898Y8302585D01*
X42717345Y8288432D01*
X42717350Y8288431D01*
X42896596Y8268235D01*
X42896600Y8268235D01*
X42896604Y8268235D01*
X43075849Y8288431D01*
X43075852Y8288432D01*
X43075855Y8288432D01*
X43246122Y8348011D01*
X43398862Y8443984D01*
X43526416Y8571538D01*
X43622389Y8724278D01*
X43681968Y8894545D01*
X43682130Y8895984D01*
X43686233Y8932397D01*
X50854035Y8932397D01*
X50874230Y8753151D01*
X50874231Y8753146D01*
X50933811Y8582877D01*
X50997522Y8481482D01*
X51029784Y8430138D01*
X51157338Y8302584D01*
X51310078Y8206611D01*
X51431948Y8163967D01*
X51480345Y8147032D01*
X51480350Y8147031D01*
X51659596Y8126835D01*
X51659600Y8126835D01*
X51659604Y8126835D01*
X51838849Y8147031D01*
X51838852Y8147032D01*
X51838855Y8147032D01*
X52009122Y8206611D01*
X52161862Y8302584D01*
X52289416Y8430138D01*
X52385389Y8582878D01*
X52444968Y8753145D01*
X52444969Y8753151D01*
X52465165Y8932397D01*
X52465165Y8932404D01*
X52444969Y9111650D01*
X52444968Y9111655D01*
X52385388Y9281924D01*
X52299948Y9417900D01*
X52289416Y9434662D01*
X52198281Y9525797D01*
X60887035Y9525797D01*
X60907230Y9346551D01*
X60907231Y9346546D01*
X60966811Y9176277D01*
X61019161Y9092963D01*
X61062784Y9023538D01*
X61190338Y8895984D01*
X61227504Y8872631D01*
X61303564Y8824839D01*
X61343078Y8800011D01*
X61513345Y8740432D01*
X61513350Y8740431D01*
X61692596Y8720235D01*
X61692600Y8720235D01*
X61692604Y8720235D01*
X61871849Y8740431D01*
X61871852Y8740432D01*
X61871855Y8740432D01*
X62042122Y8800011D01*
X62194862Y8895984D01*
X62322416Y9023538D01*
X62418389Y9176278D01*
X62477968Y9346545D01*
X62477969Y9346551D01*
X62479517Y9353332D01*
X62481926Y9352783D01*
X62504538Y9406607D01*
X62562129Y9446167D01*
X62631966Y9448311D01*
X62641654Y9445360D01*
X62804345Y9388432D01*
X62804350Y9388431D01*
X62983596Y9368235D01*
X62983600Y9368235D01*
X62983604Y9368235D01*
X63162849Y9388431D01*
X63162852Y9388432D01*
X63162855Y9388432D01*
X63333122Y9448011D01*
X63485862Y9543984D01*
X63613416Y9671538D01*
X63709389Y9824278D01*
X63768968Y9994545D01*
X63769077Y9995513D01*
X63789165Y10173797D01*
X63789165Y10173804D01*
X63768969Y10353050D01*
X63768968Y10353055D01*
X63725282Y10477901D01*
X63709389Y10523322D01*
X63699109Y10539682D01*
X63618316Y10668263D01*
X63613416Y10676062D01*
X63485862Y10803616D01*
X63432638Y10837059D01*
X63333123Y10899589D01*
X63162854Y10959169D01*
X63162849Y10959170D01*
X62983604Y10979365D01*
X62983596Y10979365D01*
X62804350Y10959170D01*
X62804345Y10959169D01*
X62634076Y10899589D01*
X62481337Y10803616D01*
X62353784Y10676063D01*
X62257811Y10523324D01*
X62198231Y10353055D01*
X62196683Y10346268D01*
X62194280Y10346817D01*
X62171631Y10292957D01*
X62114025Y10253418D01*
X62044187Y10251301D01*
X62034545Y10254241D01*
X61871862Y10311167D01*
X61871849Y10311170D01*
X61692604Y10331365D01*
X61692596Y10331365D01*
X61513350Y10311170D01*
X61513345Y10311169D01*
X61343076Y10251589D01*
X61190337Y10155616D01*
X61062784Y10028063D01*
X60966811Y9875324D01*
X60907231Y9705055D01*
X60907230Y9705050D01*
X60887035Y9525804D01*
X60887035Y9525797D01*
X52198281Y9525797D01*
X52161862Y9562216D01*
X52139825Y9576063D01*
X52009123Y9658189D01*
X51838854Y9717769D01*
X51838849Y9717770D01*
X51659604Y9737965D01*
X51659596Y9737965D01*
X51480350Y9717770D01*
X51480345Y9717769D01*
X51310076Y9658189D01*
X51157337Y9562216D01*
X51029784Y9434663D01*
X50933811Y9281924D01*
X50874231Y9111655D01*
X50874230Y9111650D01*
X50854035Y8932404D01*
X50854035Y8932397D01*
X43686233Y8932397D01*
X43702165Y9073797D01*
X43702165Y9073804D01*
X43681969Y9253050D01*
X43681968Y9253055D01*
X43634854Y9387699D01*
X43631293Y9457478D01*
X43666022Y9518106D01*
X43685925Y9533648D01*
X43689962Y9536184D01*
X43817516Y9663738D01*
X43913489Y9816478D01*
X43973068Y9986745D01*
X43974056Y9995513D01*
X43993265Y10165997D01*
X43993265Y10166004D01*
X43973069Y10345250D01*
X43973068Y10345255D01*
X43956019Y10393979D01*
X43913489Y10515522D01*
X43909718Y10521523D01*
X43817515Y10668263D01*
X43689962Y10795816D01*
X43537223Y10891789D01*
X43366954Y10951369D01*
X43366949Y10951370D01*
X43187704Y10971565D01*
X43187696Y10971565D01*
X43008450Y10951370D01*
X43008445Y10951369D01*
X42838175Y10891789D01*
X42836945Y10891015D01*
X42836034Y10890758D01*
X42831905Y10888769D01*
X42831556Y10889493D01*
X42769708Y10872016D01*
X42702873Y10892385D01*
X42657660Y10945654D01*
X42648424Y11014910D01*
X42657419Y11045821D01*
X42701757Y11146900D01*
X42758734Y11371895D01*
X42763264Y11426562D01*
X42777900Y11603194D01*
X46467300Y11603194D01*
X46486464Y11371903D01*
X46486466Y11371892D01*
X46543442Y11146900D01*
X46636675Y10934352D01*
X46763616Y10740053D01*
X46763619Y10740049D01*
X46763621Y10740047D01*
X46920816Y10569287D01*
X46920819Y10569285D01*
X46920822Y10569282D01*
X47103965Y10426736D01*
X47103971Y10426732D01*
X47103974Y10426730D01*
X47308097Y10316264D01*
X47422087Y10277132D01*
X47527615Y10240903D01*
X47527617Y10240903D01*
X47527619Y10240902D01*
X47756551Y10202700D01*
X47756552Y10202700D01*
X47988648Y10202700D01*
X47988649Y10202700D01*
X48217581Y10240902D01*
X48437103Y10316264D01*
X48641226Y10426730D01*
X48660216Y10441510D01*
X48755309Y10515524D01*
X48824384Y10569287D01*
X48981579Y10740047D01*
X48983058Y10742310D01*
X49018015Y10795816D01*
X49108524Y10934351D01*
X49201757Y11146900D01*
X49227184Y11247309D01*
X51928827Y11247309D01*
X51949022Y11068063D01*
X51949023Y11068058D01*
X52008603Y10897789D01*
X52078475Y10786589D01*
X52104576Y10745050D01*
X52232130Y10617496D01*
X52308854Y10569287D01*
X52382003Y10523324D01*
X52384870Y10521523D01*
X52509535Y10477901D01*
X52555137Y10461944D01*
X52555142Y10461943D01*
X52734388Y10441747D01*
X52734392Y10441747D01*
X52734396Y10441747D01*
X52913641Y10461943D01*
X52913644Y10461944D01*
X52913647Y10461944D01*
X53083914Y10521523D01*
X53236654Y10617496D01*
X53364208Y10745050D01*
X53460181Y10897790D01*
X53519760Y11068057D01*
X53521252Y11081300D01*
X53539957Y11247309D01*
X53539957Y11247316D01*
X53519761Y11426562D01*
X53519760Y11426567D01*
X53508878Y11457667D01*
X53460181Y11596834D01*
X53364208Y11749574D01*
X53236654Y11877128D01*
X53181904Y11911530D01*
X53083915Y11973101D01*
X52913646Y12032681D01*
X52913641Y12032682D01*
X52734396Y12052877D01*
X52734388Y12052877D01*
X52555142Y12032682D01*
X52555137Y12032681D01*
X52384868Y11973101D01*
X52232129Y11877128D01*
X52104576Y11749575D01*
X52008603Y11596836D01*
X51949023Y11426567D01*
X51949022Y11426562D01*
X51928827Y11247316D01*
X51928827Y11247309D01*
X49227184Y11247309D01*
X49258734Y11371895D01*
X49263264Y11426562D01*
X49277900Y11603194D01*
X49277900Y11603207D01*
X49258735Y11834498D01*
X49258733Y11834509D01*
X49201757Y12059501D01*
X49108524Y12272049D01*
X48981583Y12466348D01*
X48981580Y12466351D01*
X48981579Y12466353D01*
X48824384Y12637113D01*
X48824379Y12637117D01*
X48824377Y12637119D01*
X48641234Y12779665D01*
X48641228Y12779669D01*
X48437104Y12890136D01*
X48437095Y12890139D01*
X48217584Y12965498D01*
X48036758Y12995672D01*
X47988649Y13003700D01*
X47756551Y13003700D01*
X47710764Y12996060D01*
X47527615Y12965498D01*
X47308104Y12890139D01*
X47308095Y12890136D01*
X47103971Y12779669D01*
X47103965Y12779665D01*
X46920822Y12637119D01*
X46920819Y12637116D01*
X46920816Y12637114D01*
X46920816Y12637113D01*
X46861867Y12573078D01*
X46763616Y12466348D01*
X46636675Y12272049D01*
X46543442Y12059501D01*
X46486466Y11834509D01*
X46486464Y11834498D01*
X46467300Y11603207D01*
X46467300Y11603194D01*
X42777900Y11603194D01*
X42777900Y11603207D01*
X42758735Y11834498D01*
X42758733Y11834509D01*
X42701757Y12059501D01*
X42608524Y12272049D01*
X42481583Y12466348D01*
X42481580Y12466351D01*
X42481579Y12466353D01*
X42324384Y12637113D01*
X42324379Y12637117D01*
X42324377Y12637119D01*
X42141234Y12779665D01*
X42141228Y12779669D01*
X41937104Y12890136D01*
X41937095Y12890139D01*
X41717584Y12965498D01*
X41536758Y12995672D01*
X41488649Y13003700D01*
X41256551Y13003700D01*
X41210764Y12996060D01*
X41027615Y12965498D01*
X40808104Y12890139D01*
X40808095Y12890136D01*
X40603971Y12779669D01*
X40603965Y12779665D01*
X40420822Y12637119D01*
X40420819Y12637116D01*
X40420816Y12637114D01*
X40420816Y12637113D01*
X40361867Y12573078D01*
X40263616Y12466348D01*
X40136676Y12272051D01*
X40082064Y12147547D01*
X40037108Y12094062D01*
X39970371Y12073372D01*
X39903044Y12092047D01*
X39856500Y12144157D01*
X39854952Y12147548D01*
X39813324Y12242449D01*
X39686383Y12436748D01*
X39686380Y12436751D01*
X39686379Y12436753D01*
X39529184Y12607513D01*
X39529179Y12607517D01*
X39529177Y12607519D01*
X39346034Y12750065D01*
X39346028Y12750069D01*
X39141904Y12860536D01*
X39141895Y12860539D01*
X38922384Y12935898D01*
X38744998Y12965498D01*
X38693449Y12974100D01*
X38461351Y12974100D01*
X38415564Y12966460D01*
X38232415Y12935898D01*
X38012904Y12860539D01*
X38012895Y12860536D01*
X37808771Y12750069D01*
X37808765Y12750065D01*
X37625622Y12607519D01*
X37625619Y12607516D01*
X37468416Y12436748D01*
X37341475Y12242449D01*
X37248242Y12029901D01*
X37191266Y11804909D01*
X37191264Y11804898D01*
X37172100Y11573607D01*
X37172100Y11573594D01*
X33482700Y11573594D01*
X33482700Y11573607D01*
X33463535Y11804898D01*
X33463533Y11804909D01*
X33406557Y12029901D01*
X33313324Y12242449D01*
X33186383Y12436748D01*
X33186380Y12436751D01*
X33186379Y12436753D01*
X33029184Y12607513D01*
X33029179Y12607517D01*
X33029177Y12607519D01*
X32846034Y12750065D01*
X32846028Y12750069D01*
X32641904Y12860536D01*
X32641895Y12860539D01*
X32422384Y12935898D01*
X32244998Y12965498D01*
X32193449Y12974100D01*
X31961351Y12974100D01*
X31915564Y12966460D01*
X31732415Y12935898D01*
X31512904Y12860539D01*
X31512895Y12860536D01*
X31308771Y12750069D01*
X31308765Y12750065D01*
X31125622Y12607519D01*
X31125619Y12607516D01*
X30968416Y12436748D01*
X30841473Y12242446D01*
X30810859Y12172653D01*
X30765903Y12119167D01*
X30699167Y12098478D01*
X30631839Y12117153D01*
X30585296Y12169264D01*
X30583748Y12172654D01*
X30568924Y12206449D01*
X30441983Y12400748D01*
X30441980Y12400751D01*
X30441979Y12400753D01*
X30284784Y12571513D01*
X30284779Y12571517D01*
X30284777Y12571519D01*
X30101634Y12714065D01*
X30101628Y12714069D01*
X29897504Y12824536D01*
X29897495Y12824539D01*
X29677984Y12899898D01*
X29506282Y12928550D01*
X29449049Y12938100D01*
X29216951Y12938100D01*
X29171164Y12930460D01*
X28988015Y12899898D01*
X28768504Y12824539D01*
X28768495Y12824536D01*
X28564371Y12714069D01*
X28564365Y12714065D01*
X28381222Y12571519D01*
X28381219Y12571516D01*
X28224016Y12400748D01*
X28097075Y12206449D01*
X28003842Y11993901D01*
X27946866Y11768909D01*
X27946864Y11768898D01*
X27927700Y11537607D01*
X27927700Y11537594D01*
X24238300Y11537594D01*
X24238300Y11537607D01*
X24219135Y11768898D01*
X24219133Y11768909D01*
X24162157Y11993901D01*
X24068924Y12206449D01*
X23941983Y12400748D01*
X23941980Y12400751D01*
X23941979Y12400753D01*
X23784784Y12571513D01*
X23784779Y12571517D01*
X23784777Y12571519D01*
X23601634Y12714065D01*
X23601628Y12714069D01*
X23397504Y12824536D01*
X23397495Y12824539D01*
X23177984Y12899898D01*
X23006282Y12928550D01*
X22949049Y12938100D01*
X22716951Y12938100D01*
X22671164Y12930460D01*
X22488015Y12899898D01*
X22268504Y12824539D01*
X22268495Y12824536D01*
X22064371Y12714069D01*
X22064365Y12714065D01*
X21881222Y12571519D01*
X21881219Y12571516D01*
X21724016Y12400748D01*
X21597075Y12206449D01*
X21503842Y11993901D01*
X21446866Y11768909D01*
X21446864Y11768898D01*
X21427700Y11537607D01*
X21427700Y11537594D01*
X19373429Y11537594D01*
X19390941Y11715400D01*
X19371624Y11911532D01*
X19314414Y12100127D01*
X19314411Y12100131D01*
X19314411Y12100134D01*
X19221513Y12273933D01*
X19221509Y12273940D01*
X19096483Y12426284D01*
X18944139Y12551310D01*
X18944132Y12551314D01*
X18770333Y12644212D01*
X18770327Y12644214D01*
X18581732Y12701424D01*
X18581729Y12701425D01*
X18385600Y12720741D01*
X18189470Y12701425D01*
X18000866Y12644212D01*
X17827067Y12551314D01*
X17827060Y12551310D01*
X17674716Y12426284D01*
X17549690Y12273940D01*
X17549686Y12273933D01*
X17456788Y12100134D01*
X17399575Y11911530D01*
X17380259Y11715400D01*
X11809233Y11715400D01*
X11821741Y11842400D01*
X11802424Y12038532D01*
X11745214Y12227127D01*
X11745211Y12227131D01*
X11745211Y12227134D01*
X11652313Y12400933D01*
X11652309Y12400940D01*
X11527283Y12553284D01*
X11374939Y12678310D01*
X11374932Y12678314D01*
X11201133Y12771212D01*
X11201127Y12771214D01*
X11012532Y12828424D01*
X11012529Y12828425D01*
X10816400Y12847741D01*
X10620270Y12828425D01*
X10431666Y12771212D01*
X10257867Y12678314D01*
X10257860Y12678310D01*
X10105516Y12553284D01*
X9980490Y12400940D01*
X9980486Y12400933D01*
X9887588Y12227134D01*
X9830375Y12038530D01*
X9811059Y11842400D01*
X500500Y11842400D01*
X500500Y13190130D01*
X2491300Y13190130D01*
X2491301Y13190124D01*
X2497708Y13130517D01*
X2548002Y12995672D01*
X2548006Y12995665D01*
X2634252Y12880456D01*
X2634255Y12880453D01*
X2749464Y12794207D01*
X2749471Y12794203D01*
X2884317Y12743909D01*
X2884316Y12743909D01*
X2891244Y12743165D01*
X2943927Y12737500D01*
X6039672Y12737501D01*
X6099283Y12743909D01*
X6234131Y12794204D01*
X6349346Y12880454D01*
X6435596Y12995669D01*
X6485891Y13130517D01*
X6492300Y13190127D01*
X6492300Y14216204D01*
X53479188Y14216204D01*
X53499383Y14036958D01*
X53499384Y14036953D01*
X53558964Y13866684D01*
X53611623Y13782878D01*
X53654937Y13713945D01*
X53782491Y13586391D01*
X53935231Y13490418D01*
X54105498Y13430839D01*
X54105503Y13430838D01*
X54284749Y13410642D01*
X54284753Y13410642D01*
X54284757Y13410642D01*
X54464002Y13430838D01*
X54464005Y13430839D01*
X54464008Y13430839D01*
X54634275Y13490418D01*
X54787015Y13586391D01*
X54914569Y13713945D01*
X55010542Y13866685D01*
X55070121Y14036952D01*
X55070122Y14036958D01*
X55080875Y14132397D01*
X60887035Y14132397D01*
X60907230Y13953151D01*
X60907231Y13953146D01*
X60966811Y13782877D01*
X61062784Y13630138D01*
X61190338Y13502584D01*
X61280680Y13445818D01*
X61336662Y13410642D01*
X61343078Y13406611D01*
X61513345Y13347032D01*
X61513350Y13347031D01*
X61692596Y13326835D01*
X61692600Y13326835D01*
X61692604Y13326835D01*
X61871849Y13347031D01*
X61871852Y13347032D01*
X61871855Y13347032D01*
X62042122Y13406611D01*
X62194862Y13502584D01*
X62322416Y13630138D01*
X62418389Y13782878D01*
X62477968Y13953145D01*
X62477969Y13953151D01*
X62498165Y14132397D01*
X62498165Y14132404D01*
X62477969Y14311650D01*
X62477968Y14311655D01*
X62442199Y14413877D01*
X62418389Y14481922D01*
X62322416Y14634662D01*
X62194862Y14762216D01*
X62192982Y14763397D01*
X66500435Y14763397D01*
X66520630Y14584151D01*
X66520631Y14584146D01*
X66580211Y14413877D01*
X66644442Y14311655D01*
X66676184Y14261138D01*
X66803738Y14133584D01*
X66956478Y14037611D01*
X67126745Y13978032D01*
X67126750Y13978031D01*
X67305996Y13957835D01*
X67306000Y13957835D01*
X67306004Y13957835D01*
X67485249Y13978031D01*
X67485252Y13978032D01*
X67485255Y13978032D01*
X67655522Y14037611D01*
X67808262Y14133584D01*
X67935816Y14261138D01*
X68031789Y14413878D01*
X68091368Y14584145D01*
X68109030Y14740902D01*
X68111565Y14763397D01*
X68111565Y14763404D01*
X68091369Y14942650D01*
X68091368Y14942655D01*
X68047058Y15069285D01*
X68031789Y15112922D01*
X68026530Y15121291D01*
X67935815Y15265663D01*
X67808262Y15393216D01*
X67655523Y15489189D01*
X67485254Y15548769D01*
X67485249Y15548770D01*
X67306004Y15568965D01*
X67305996Y15568965D01*
X67126750Y15548770D01*
X67126745Y15548769D01*
X66956476Y15489189D01*
X66803737Y15393216D01*
X66676184Y15265663D01*
X66580211Y15112924D01*
X66520631Y14942655D01*
X66520630Y14942650D01*
X66500435Y14763404D01*
X66500435Y14763397D01*
X62192982Y14763397D01*
X62192971Y14763404D01*
X62042123Y14858189D01*
X61871854Y14917769D01*
X61871849Y14917770D01*
X61692604Y14937965D01*
X61692596Y14937965D01*
X61513350Y14917770D01*
X61513345Y14917769D01*
X61343076Y14858189D01*
X61190337Y14762216D01*
X61062784Y14634663D01*
X60966811Y14481924D01*
X60907231Y14311655D01*
X60907230Y14311650D01*
X60887035Y14132404D01*
X60887035Y14132397D01*
X55080875Y14132397D01*
X55090318Y14216204D01*
X55090318Y14216211D01*
X55070122Y14395457D01*
X55070121Y14395462D01*
X55039867Y14481922D01*
X55010542Y14565729D01*
X54998970Y14584145D01*
X54942762Y14673600D01*
X54914569Y14718469D01*
X54787015Y14846023D01*
X54767653Y14858189D01*
X54634276Y14941996D01*
X54464007Y15001576D01*
X54464002Y15001577D01*
X54284757Y15021772D01*
X54284749Y15021772D01*
X54105503Y15001577D01*
X54105498Y15001576D01*
X53935229Y14941996D01*
X53782490Y14846023D01*
X53654937Y14718470D01*
X53558964Y14565731D01*
X53499384Y14395462D01*
X53499383Y14395457D01*
X53479188Y14216211D01*
X53479188Y14216204D01*
X6492300Y14216204D01*
X6492299Y15957200D01*
X13646459Y15957200D01*
X13665775Y15761071D01*
X13673747Y15734792D01*
X13720308Y15581300D01*
X13722988Y15572467D01*
X13815886Y15398668D01*
X13815890Y15398661D01*
X13940916Y15246317D01*
X14093260Y15121291D01*
X14093267Y15121287D01*
X14267066Y15028389D01*
X14267069Y15028389D01*
X14267073Y15028386D01*
X14455668Y14971176D01*
X14651800Y14951859D01*
X14847932Y14971176D01*
X15036527Y15028386D01*
X15057661Y15039682D01*
X15123432Y15074838D01*
X15210338Y15121290D01*
X15362683Y15246317D01*
X15487710Y15398662D01*
X15549621Y15514490D01*
X15580611Y15572467D01*
X15580611Y15572468D01*
X15580614Y15572473D01*
X15637824Y15761068D01*
X15657141Y15957200D01*
X15649223Y16037594D01*
X21427700Y16037594D01*
X21446864Y15806303D01*
X21446866Y15806292D01*
X21503842Y15581300D01*
X21597075Y15368752D01*
X21724016Y15174453D01*
X21724019Y15174449D01*
X21724021Y15174447D01*
X21881216Y15003687D01*
X21881219Y15003685D01*
X21881222Y15003682D01*
X22064365Y14861136D01*
X22064371Y14861132D01*
X22064374Y14861130D01*
X22201973Y14786665D01*
X22267652Y14751121D01*
X22268497Y14750664D01*
X22362275Y14718470D01*
X22488015Y14675303D01*
X22488017Y14675303D01*
X22488019Y14675302D01*
X22716951Y14637100D01*
X22716952Y14637100D01*
X22949048Y14637100D01*
X22949049Y14637100D01*
X23177981Y14675302D01*
X23397503Y14750664D01*
X23601626Y14861130D01*
X23602170Y14861553D01*
X23716897Y14950849D01*
X23784784Y15003687D01*
X23941979Y15174447D01*
X24068924Y15368751D01*
X24162157Y15581300D01*
X24219134Y15806295D01*
X24219135Y15806303D01*
X24238300Y16037594D01*
X24238300Y16037595D01*
X27928202Y16037595D01*
X27947361Y15806382D01*
X28004317Y15581465D01*
X28097515Y15368994D01*
X28181812Y15239967D01*
X28768388Y15826543D01*
X28773890Y15806009D01*
X28852882Y15669192D01*
X28964592Y15557482D01*
X29101409Y15478490D01*
X29121941Y15472989D01*
X28534201Y14885249D01*
X28564649Y14861550D01*
X28768697Y14751124D01*
X28768706Y14751121D01*
X28988139Y14675789D01*
X29216993Y14637600D01*
X29449007Y14637600D01*
X29677860Y14675789D01*
X29897293Y14751121D01*
X29897301Y14751124D01*
X30101355Y14861553D01*
X30131797Y14885249D01*
X30131798Y14885250D01*
X29544059Y15472989D01*
X29564591Y15478490D01*
X29701408Y15557482D01*
X29813118Y15669192D01*
X29892110Y15806009D01*
X29897611Y15826542D01*
X30484186Y15239967D01*
X30568483Y15368991D01*
X30599539Y15439791D01*
X30644494Y15493277D01*
X30711230Y15513968D01*
X30778558Y15495294D01*
X30825102Y15443184D01*
X30826651Y15439793D01*
X30841916Y15404992D01*
X30926212Y15275967D01*
X31512788Y15862543D01*
X31518290Y15842009D01*
X31597282Y15705192D01*
X31708992Y15593482D01*
X31845809Y15514490D01*
X31866341Y15508989D01*
X31278601Y14921249D01*
X31309049Y14897550D01*
X31513097Y14787124D01*
X31513106Y14787121D01*
X31732539Y14711789D01*
X31961393Y14673600D01*
X32193407Y14673600D01*
X32422260Y14711789D01*
X32641693Y14787121D01*
X32641701Y14787124D01*
X32845755Y14897553D01*
X32876197Y14921249D01*
X32876198Y14921250D01*
X32288459Y15508989D01*
X32308991Y15514490D01*
X32445808Y15593482D01*
X32557518Y15705192D01*
X32636510Y15842009D01*
X32642011Y15862542D01*
X33228586Y15275967D01*
X33312882Y15404989D01*
X33406082Y15617465D01*
X33463038Y15842382D01*
X33482198Y16073594D01*
X37172100Y16073594D01*
X37191264Y15842303D01*
X37191266Y15842292D01*
X37248242Y15617300D01*
X37341475Y15404752D01*
X37468416Y15210453D01*
X37468419Y15210449D01*
X37468421Y15210447D01*
X37625616Y15039687D01*
X37625619Y15039685D01*
X37625622Y15039682D01*
X37808765Y14897136D01*
X37808771Y14897132D01*
X37808774Y14897130D01*
X37957351Y14816724D01*
X38012052Y14787121D01*
X38012897Y14786664D01*
X38117767Y14750662D01*
X38232415Y14711303D01*
X38232417Y14711303D01*
X38232419Y14711302D01*
X38461351Y14673100D01*
X38461352Y14673100D01*
X38693448Y14673100D01*
X38693449Y14673100D01*
X38922381Y14711302D01*
X39141903Y14786664D01*
X39346026Y14897130D01*
X39346570Y14897553D01*
X39480217Y15001575D01*
X39529184Y15039687D01*
X39686379Y15210447D01*
X39813324Y15404751D01*
X39868209Y15529877D01*
X39913165Y15583362D01*
X39979901Y15604052D01*
X40047229Y15585377D01*
X40093772Y15533267D01*
X40095321Y15529876D01*
X40137115Y15434594D01*
X40221412Y15305567D01*
X40807988Y15892143D01*
X40813490Y15871609D01*
X40892482Y15734792D01*
X41004192Y15623082D01*
X41141009Y15544090D01*
X41161541Y15538589D01*
X40573801Y14950849D01*
X40604249Y14927150D01*
X40808297Y14816724D01*
X40808306Y14816721D01*
X41027739Y14741389D01*
X41256593Y14703200D01*
X41488607Y14703200D01*
X41717460Y14741389D01*
X41936893Y14816721D01*
X41936901Y14816724D01*
X42140955Y14927153D01*
X42171397Y14950849D01*
X42171398Y14950850D01*
X41583659Y15538589D01*
X41604191Y15544090D01*
X41741008Y15623082D01*
X41852718Y15734792D01*
X41931710Y15871609D01*
X41937211Y15892142D01*
X42523786Y15305567D01*
X42608082Y15434589D01*
X42701282Y15647065D01*
X42758238Y15871982D01*
X42777398Y16103194D01*
X46467300Y16103194D01*
X46486464Y15871903D01*
X46486466Y15871892D01*
X46543442Y15646900D01*
X46636675Y15434352D01*
X46763616Y15240053D01*
X46763619Y15240049D01*
X46763621Y15240047D01*
X46920816Y15069287D01*
X46920819Y15069285D01*
X46920822Y15069282D01*
X47103965Y14926736D01*
X47103971Y14926732D01*
X47103974Y14926730D01*
X47253107Y14846023D01*
X47307252Y14816721D01*
X47308097Y14816264D01*
X47392979Y14787124D01*
X47527615Y14740903D01*
X47527617Y14740903D01*
X47527619Y14740902D01*
X47756551Y14702700D01*
X47756552Y14702700D01*
X47988648Y14702700D01*
X47988649Y14702700D01*
X48217581Y14740902D01*
X48437103Y14816264D01*
X48641226Y14926730D01*
X48641770Y14927153D01*
X48737387Y15001575D01*
X48824384Y15069287D01*
X48981579Y15240047D01*
X49108524Y15434351D01*
X49201757Y15646900D01*
X49258734Y15871895D01*
X49258735Y15871903D01*
X49277900Y16103194D01*
X49277900Y16103207D01*
X49258735Y16334498D01*
X49258733Y16334509D01*
X49201757Y16559501D01*
X49142176Y16695330D01*
X63451300Y16695330D01*
X63451301Y16695324D01*
X63457708Y16635717D01*
X63508002Y16500872D01*
X63508006Y16500865D01*
X63594252Y16385656D01*
X63594255Y16385653D01*
X63709464Y16299407D01*
X63709471Y16299403D01*
X63844317Y16249109D01*
X63844316Y16249109D01*
X63851244Y16248365D01*
X63903927Y16242700D01*
X66999672Y16242701D01*
X67059283Y16249109D01*
X67194131Y16299404D01*
X67309346Y16385654D01*
X67395596Y16500869D01*
X67445891Y16635717D01*
X67452300Y16695327D01*
X67452299Y19791072D01*
X67445891Y19850683D01*
X67433214Y19884671D01*
X67395597Y19985529D01*
X67395593Y19985536D01*
X67309347Y20100745D01*
X67309344Y20100748D01*
X67194135Y20186994D01*
X67194128Y20186998D01*
X67059282Y20237292D01*
X67059283Y20237292D01*
X66999683Y20243699D01*
X66999681Y20243700D01*
X66999673Y20243700D01*
X66999664Y20243700D01*
X63903929Y20243700D01*
X63903923Y20243699D01*
X63844316Y20237292D01*
X63709471Y20186998D01*
X63709464Y20186994D01*
X63594255Y20100748D01*
X63594252Y20100745D01*
X63508006Y19985536D01*
X63508002Y19985529D01*
X63457708Y19850683D01*
X63454439Y19820273D01*
X63451301Y19791077D01*
X63451300Y19791065D01*
X63451300Y16695330D01*
X49142176Y16695330D01*
X49108524Y16772049D01*
X48981583Y16966348D01*
X48981580Y16966351D01*
X48981579Y16966353D01*
X48824384Y17137113D01*
X48824379Y17137117D01*
X48824377Y17137119D01*
X48641234Y17279665D01*
X48641228Y17279669D01*
X48437104Y17390136D01*
X48437095Y17390139D01*
X48217584Y17465498D01*
X48045882Y17494150D01*
X47988649Y17503700D01*
X47756551Y17503700D01*
X47710764Y17496060D01*
X47527615Y17465498D01*
X47308104Y17390139D01*
X47308095Y17390136D01*
X47103971Y17279669D01*
X47103965Y17279665D01*
X46920822Y17137119D01*
X46920819Y17137116D01*
X46920816Y17137114D01*
X46920816Y17137113D01*
X46861867Y17073078D01*
X46763616Y16966348D01*
X46636675Y16772049D01*
X46543442Y16559501D01*
X46486466Y16334509D01*
X46486464Y16334498D01*
X46467300Y16103207D01*
X46467300Y16103194D01*
X42777398Y16103194D01*
X42777398Y16103195D01*
X42777398Y16103206D01*
X42758238Y16334419D01*
X42701282Y16559336D01*
X42608084Y16771807D01*
X42523786Y16900835D01*
X41937211Y16314260D01*
X41931710Y16334791D01*
X41852718Y16471608D01*
X41741008Y16583318D01*
X41604191Y16662310D01*
X41583658Y16667812D01*
X42171397Y17255553D01*
X42171397Y17255555D01*
X42140960Y17279245D01*
X42140954Y17279249D01*
X41936902Y17389677D01*
X41936893Y17389680D01*
X41717460Y17465012D01*
X41488607Y17503200D01*
X41256593Y17503200D01*
X41027739Y17465012D01*
X40808306Y17389680D01*
X40808297Y17389677D01*
X40604250Y17279251D01*
X40573800Y17255553D01*
X41161541Y16667812D01*
X41141009Y16662310D01*
X41004192Y16583318D01*
X40892482Y16471608D01*
X40813490Y16334791D01*
X40807988Y16314258D01*
X40221411Y16900835D01*
X40137116Y16771810D01*
X40082337Y16646925D01*
X40037381Y16593439D01*
X39970645Y16572749D01*
X39903317Y16591424D01*
X39856774Y16643534D01*
X39855225Y16646925D01*
X39813324Y16742449D01*
X39686383Y16936748D01*
X39686380Y16936751D01*
X39686379Y16936753D01*
X39529184Y17107513D01*
X39529179Y17107517D01*
X39529177Y17107519D01*
X39346034Y17250065D01*
X39346028Y17250069D01*
X39141904Y17360536D01*
X39141895Y17360539D01*
X38922384Y17435898D01*
X38744998Y17465498D01*
X38693449Y17474100D01*
X38461351Y17474100D01*
X38415564Y17466460D01*
X38232415Y17435898D01*
X38012904Y17360539D01*
X38012895Y17360536D01*
X37808771Y17250069D01*
X37808765Y17250065D01*
X37625622Y17107519D01*
X37625619Y17107516D01*
X37468416Y16936748D01*
X37341475Y16742449D01*
X37248242Y16529901D01*
X37191266Y16304909D01*
X37191264Y16304898D01*
X37172100Y16073607D01*
X37172100Y16073594D01*
X33482198Y16073594D01*
X33482198Y16073595D01*
X33482198Y16073606D01*
X33463038Y16304819D01*
X33406082Y16529736D01*
X33312884Y16742207D01*
X33228586Y16871235D01*
X32642011Y16284660D01*
X32636510Y16305191D01*
X32557518Y16442008D01*
X32445808Y16553718D01*
X32308991Y16632710D01*
X32288458Y16638212D01*
X32876197Y17225953D01*
X32876197Y17225955D01*
X32845760Y17249645D01*
X32845754Y17249649D01*
X32641702Y17360077D01*
X32641693Y17360080D01*
X32422260Y17435412D01*
X32193407Y17473600D01*
X31961393Y17473600D01*
X31732539Y17435412D01*
X31513106Y17360080D01*
X31513097Y17360077D01*
X31309050Y17249651D01*
X31278600Y17225953D01*
X31866341Y16638212D01*
X31845809Y16632710D01*
X31708992Y16553718D01*
X31597282Y16442008D01*
X31518290Y16305191D01*
X31512788Y16284658D01*
X30926211Y16871235D01*
X30841917Y16742212D01*
X30810860Y16671408D01*
X30765903Y16617923D01*
X30699167Y16597233D01*
X30631839Y16615908D01*
X30585296Y16668019D01*
X30583748Y16671410D01*
X30568485Y16706205D01*
X30484186Y16835235D01*
X29897611Y16248660D01*
X29892110Y16269191D01*
X29813118Y16406008D01*
X29701408Y16517718D01*
X29564591Y16596710D01*
X29544058Y16602212D01*
X30131797Y17189953D01*
X30131797Y17189955D01*
X30101360Y17213645D01*
X30101354Y17213649D01*
X29897302Y17324077D01*
X29897293Y17324080D01*
X29677860Y17399412D01*
X29449007Y17437600D01*
X29216993Y17437600D01*
X28988139Y17399412D01*
X28768706Y17324080D01*
X28768697Y17324077D01*
X28564650Y17213651D01*
X28534200Y17189953D01*
X29121941Y16602212D01*
X29101409Y16596710D01*
X28964592Y16517718D01*
X28852882Y16406008D01*
X28773890Y16269191D01*
X28768388Y16248658D01*
X28181811Y16835235D01*
X28097516Y16706210D01*
X28004317Y16493736D01*
X27947361Y16268819D01*
X27928202Y16037606D01*
X27928202Y16037595D01*
X24238300Y16037595D01*
X24238300Y16037607D01*
X24219135Y16268898D01*
X24219133Y16268909D01*
X24162157Y16493901D01*
X24068924Y16706449D01*
X23941983Y16900748D01*
X23941980Y16900751D01*
X23941979Y16900753D01*
X23784784Y17071513D01*
X23784779Y17071517D01*
X23784777Y17071519D01*
X23601634Y17214065D01*
X23601628Y17214069D01*
X23397504Y17324536D01*
X23397495Y17324539D01*
X23177984Y17399898D01*
X22965157Y17435412D01*
X22949049Y17438100D01*
X22716951Y17438100D01*
X22700843Y17435412D01*
X22488015Y17399898D01*
X22268504Y17324539D01*
X22268495Y17324536D01*
X22064371Y17214069D01*
X22064365Y17214065D01*
X21881222Y17071519D01*
X21881219Y17071516D01*
X21724016Y16900748D01*
X21597075Y16706449D01*
X21503842Y16493901D01*
X21446866Y16268909D01*
X21446864Y16268898D01*
X21427700Y16037607D01*
X21427700Y16037594D01*
X15649223Y16037594D01*
X15637824Y16153332D01*
X15580614Y16341927D01*
X15580611Y16341931D01*
X15580611Y16341934D01*
X15487713Y16515733D01*
X15487709Y16515740D01*
X15362683Y16668084D01*
X15210339Y16793110D01*
X15210332Y16793114D01*
X15036533Y16886012D01*
X15036527Y16886014D01*
X14910797Y16924154D01*
X14847929Y16943225D01*
X14651800Y16962541D01*
X14455670Y16943225D01*
X14267066Y16886012D01*
X14093267Y16793114D01*
X14093260Y16793110D01*
X13940916Y16668084D01*
X13815890Y16515740D01*
X13815886Y16515733D01*
X13722988Y16341934D01*
X13665775Y16153330D01*
X13646459Y15957200D01*
X6492299Y15957200D01*
X6492299Y16285872D01*
X6485891Y16345483D01*
X6470908Y16385654D01*
X6435597Y16480329D01*
X6435593Y16480336D01*
X6349347Y16595545D01*
X6349344Y16595548D01*
X6234135Y16681794D01*
X6234128Y16681798D01*
X6099282Y16732092D01*
X6099283Y16732092D01*
X6039683Y16738499D01*
X6039681Y16738500D01*
X6039673Y16738500D01*
X6039664Y16738500D01*
X2943929Y16738500D01*
X2943923Y16738499D01*
X2884316Y16732092D01*
X2749471Y16681798D01*
X2749464Y16681794D01*
X2634255Y16595548D01*
X2634252Y16595545D01*
X2548006Y16480336D01*
X2548002Y16480329D01*
X2497708Y16345483D01*
X2491301Y16285884D01*
X2491301Y16285877D01*
X2491300Y16285865D01*
X2491300Y13190130D01*
X500500Y13190130D01*
X500500Y18453514D01*
X1214900Y18453514D01*
X1244459Y18266882D01*
X1302854Y18087164D01*
X1381882Y17932065D01*
X1388640Y17918801D01*
X1499710Y17765927D01*
X1633327Y17632310D01*
X1786201Y17521240D01*
X1821607Y17503200D01*
X1954563Y17435455D01*
X1954565Y17435455D01*
X1954568Y17435453D01*
X2050897Y17404154D01*
X2134281Y17377060D01*
X2320914Y17347500D01*
X2320919Y17347500D01*
X3309886Y17347500D01*
X3496518Y17377060D01*
X3676232Y17435453D01*
X3844599Y17521240D01*
X3997473Y17632310D01*
X4131090Y17765927D01*
X4242160Y17918801D01*
X4327947Y18087168D01*
X4386340Y18266882D01*
X4415900Y18453514D01*
X4415900Y18642487D01*
X4386340Y18829119D01*
X4327945Y19008837D01*
X4242159Y19177200D01*
X4211794Y19218994D01*
X30646700Y19218994D01*
X30665864Y18987703D01*
X30665866Y18987692D01*
X30722842Y18762700D01*
X30816075Y18550152D01*
X30943016Y18355853D01*
X30943019Y18355849D01*
X30943021Y18355847D01*
X31100216Y18185087D01*
X31100219Y18185085D01*
X31100222Y18185082D01*
X31283365Y18042536D01*
X31283371Y18042532D01*
X31283374Y18042530D01*
X31487497Y17932064D01*
X31601487Y17892932D01*
X31707015Y17856703D01*
X31707017Y17856703D01*
X31707019Y17856702D01*
X31935951Y17818500D01*
X31935952Y17818500D01*
X32168048Y17818500D01*
X32168049Y17818500D01*
X32396981Y17856702D01*
X32616503Y17932064D01*
X32820626Y18042530D01*
X33003784Y18185087D01*
X33160979Y18355847D01*
X33287924Y18550151D01*
X33381157Y18762700D01*
X33438134Y18987695D01*
X33438135Y18987703D01*
X33457300Y19218994D01*
X37146700Y19218994D01*
X37165864Y18987703D01*
X37165866Y18987692D01*
X37222842Y18762700D01*
X37316075Y18550152D01*
X37443016Y18355853D01*
X37443019Y18355849D01*
X37443021Y18355847D01*
X37600216Y18185087D01*
X37600219Y18185085D01*
X37600222Y18185082D01*
X37783365Y18042536D01*
X37783371Y18042532D01*
X37783374Y18042530D01*
X37987497Y17932064D01*
X38101487Y17892932D01*
X38207015Y17856703D01*
X38207017Y17856703D01*
X38207019Y17856702D01*
X38435951Y17818500D01*
X38435952Y17818500D01*
X38668048Y17818500D01*
X38668049Y17818500D01*
X38896981Y17856702D01*
X39116503Y17932064D01*
X39320626Y18042530D01*
X39503784Y18185087D01*
X39660979Y18355847D01*
X39787924Y18550151D01*
X39881157Y18762700D01*
X39938134Y18987695D01*
X39938135Y18987703D01*
X39957300Y19218994D01*
X39957300Y19219007D01*
X39938135Y19450298D01*
X39938133Y19450309D01*
X39881157Y19675301D01*
X39787924Y19887849D01*
X39660983Y20082148D01*
X39660980Y20082151D01*
X39660979Y20082153D01*
X39503784Y20252913D01*
X39503779Y20252917D01*
X39503777Y20252919D01*
X39320634Y20395465D01*
X39320628Y20395469D01*
X39116504Y20505936D01*
X39116495Y20505939D01*
X38896984Y20581298D01*
X38725282Y20609950D01*
X38668049Y20619500D01*
X38435951Y20619500D01*
X38390164Y20611860D01*
X38207015Y20581298D01*
X37987504Y20505939D01*
X37987495Y20505936D01*
X37783371Y20395469D01*
X37783365Y20395465D01*
X37600222Y20252919D01*
X37600219Y20252916D01*
X37443016Y20082148D01*
X37316075Y19887849D01*
X37222842Y19675301D01*
X37165866Y19450309D01*
X37165864Y19450298D01*
X37146700Y19219007D01*
X37146700Y19218994D01*
X33457300Y19218994D01*
X33457300Y19219007D01*
X33438135Y19450298D01*
X33438133Y19450309D01*
X33381157Y19675301D01*
X33287924Y19887849D01*
X33160983Y20082148D01*
X33160980Y20082151D01*
X33160979Y20082153D01*
X33003784Y20252913D01*
X33003779Y20252917D01*
X33003777Y20252919D01*
X32820634Y20395465D01*
X32820628Y20395469D01*
X32616504Y20505936D01*
X32616495Y20505939D01*
X32396984Y20581298D01*
X32225282Y20609950D01*
X32168049Y20619500D01*
X31935951Y20619500D01*
X31890164Y20611860D01*
X31707015Y20581298D01*
X31487504Y20505939D01*
X31487495Y20505936D01*
X31283371Y20395469D01*
X31283365Y20395465D01*
X31100222Y20252919D01*
X31100219Y20252916D01*
X30943016Y20082148D01*
X30816075Y19887849D01*
X30722842Y19675301D01*
X30665866Y19450309D01*
X30665864Y19450298D01*
X30646700Y19219007D01*
X30646700Y19218994D01*
X4211794Y19218994D01*
X4131090Y19330073D01*
X3997473Y19463690D01*
X3844599Y19574760D01*
X3844595Y19574762D01*
X3751676Y19622107D01*
X3700880Y19670082D01*
X3684085Y19737903D01*
X3706623Y19804038D01*
X3720284Y19820268D01*
X3784688Y19884671D01*
X3911195Y20065342D01*
X3937987Y20122797D01*
X6759635Y20122797D01*
X6779830Y19943551D01*
X6779831Y19943546D01*
X6839411Y19773277D01*
X6934398Y19622107D01*
X6935384Y19620538D01*
X7062938Y19492984D01*
X7215678Y19397011D01*
X7385945Y19337432D01*
X7385950Y19337431D01*
X7565196Y19317235D01*
X7565200Y19317235D01*
X7565204Y19317235D01*
X7744449Y19337431D01*
X7744452Y19337432D01*
X7744455Y19337432D01*
X7914722Y19397011D01*
X8067462Y19492984D01*
X8195016Y19620538D01*
X8290989Y19773278D01*
X8350568Y19943545D01*
X8350569Y19943551D01*
X8370765Y20122797D01*
X8370765Y20122804D01*
X8350569Y20302050D01*
X8350568Y20302055D01*
X8290988Y20472324D01*
X8222515Y20581298D01*
X8195016Y20625062D01*
X8067462Y20752616D01*
X7914723Y20848589D01*
X7744454Y20908169D01*
X7744449Y20908170D01*
X7565204Y20928365D01*
X7565196Y20928365D01*
X7385950Y20908170D01*
X7385945Y20908169D01*
X7215676Y20848589D01*
X7062937Y20752616D01*
X6935384Y20625063D01*
X6839411Y20472324D01*
X6779831Y20302055D01*
X6779830Y20302050D01*
X6759635Y20122804D01*
X6759635Y20122797D01*
X3937987Y20122797D01*
X4004407Y20265237D01*
X4061492Y20478280D01*
X4080715Y20698000D01*
X4061492Y20917720D01*
X4004407Y21130763D01*
X3911195Y21330657D01*
X3784688Y21511329D01*
X3784686Y21511332D01*
X3685699Y21610319D01*
X3652214Y21671642D01*
X3657198Y21741334D01*
X3685699Y21785681D01*
X3784687Y21884670D01*
X3872301Y22009795D01*
X3911195Y22065342D01*
X4004407Y22265237D01*
X4061492Y22478280D01*
X4080715Y22698000D01*
X4061492Y22917720D01*
X4004407Y23130763D01*
X3911195Y23330657D01*
X3880848Y23373997D01*
X7191435Y23373997D01*
X7211630Y23194751D01*
X7211631Y23194746D01*
X7271211Y23024477D01*
X7338295Y22917715D01*
X7367184Y22871738D01*
X7494738Y22744184D01*
X7647478Y22648211D01*
X7817745Y22588632D01*
X7817750Y22588631D01*
X7996996Y22568435D01*
X7997000Y22568435D01*
X7997004Y22568435D01*
X8176249Y22588631D01*
X8176252Y22588632D01*
X8176255Y22588632D01*
X8346522Y22648211D01*
X8499262Y22744184D01*
X8626816Y22871738D01*
X8722789Y23024478D01*
X8782368Y23194745D01*
X8790025Y23262700D01*
X8802565Y23373997D01*
X8802565Y23374004D01*
X8782369Y23553250D01*
X8782368Y23553255D01*
X8742466Y23667288D01*
X8724373Y23718995D01*
X30647202Y23718995D01*
X30666361Y23487782D01*
X30723317Y23262865D01*
X30816515Y23050394D01*
X30900812Y22921367D01*
X31487388Y23507943D01*
X31492890Y23487409D01*
X31571882Y23350592D01*
X31683592Y23238882D01*
X31820409Y23159890D01*
X31840941Y23154389D01*
X31253201Y22566649D01*
X31283649Y22542950D01*
X31487697Y22432524D01*
X31487706Y22432521D01*
X31707139Y22357189D01*
X31935993Y22319000D01*
X32168007Y22319000D01*
X32396860Y22357189D01*
X32616293Y22432521D01*
X32616301Y22432524D01*
X32820355Y22542953D01*
X32850797Y22566649D01*
X32850798Y22566650D01*
X32263059Y23154389D01*
X32283591Y23159890D01*
X32420408Y23238882D01*
X32532118Y23350592D01*
X32611110Y23487409D01*
X32616611Y23507942D01*
X33203186Y22921367D01*
X33287482Y23050389D01*
X33380682Y23262865D01*
X33437638Y23487782D01*
X33456798Y23718994D01*
X37146700Y23718994D01*
X37165864Y23487703D01*
X37165866Y23487692D01*
X37222842Y23262700D01*
X37316075Y23050152D01*
X37443016Y22855853D01*
X37443019Y22855849D01*
X37443021Y22855847D01*
X37600216Y22685087D01*
X37600219Y22685085D01*
X37600222Y22685082D01*
X37783365Y22542536D01*
X37783371Y22542532D01*
X37783374Y22542530D01*
X37902105Y22478276D01*
X37986652Y22432521D01*
X37987497Y22432064D01*
X38101487Y22392932D01*
X38207015Y22356703D01*
X38207017Y22356703D01*
X38207019Y22356702D01*
X38435951Y22318500D01*
X38435952Y22318500D01*
X38668048Y22318500D01*
X38668049Y22318500D01*
X38896981Y22356702D01*
X39116503Y22432064D01*
X39320626Y22542530D01*
X39321170Y22542953D01*
X39382129Y22590400D01*
X39503784Y22685087D01*
X39660979Y22855847D01*
X39787924Y23050151D01*
X39881157Y23262700D01*
X39938134Y23487695D01*
X39938135Y23487703D01*
X39957300Y23718994D01*
X39957300Y23719007D01*
X39938135Y23950298D01*
X39938133Y23950309D01*
X39923270Y24009000D01*
X47860259Y24009000D01*
X47879575Y23812871D01*
X47879576Y23812868D01*
X47923737Y23667288D01*
X47936788Y23624267D01*
X48029686Y23450468D01*
X48029690Y23450461D01*
X48154716Y23298117D01*
X48307060Y23173091D01*
X48307067Y23173087D01*
X48480866Y23080189D01*
X48480869Y23080189D01*
X48480873Y23080186D01*
X48669468Y23022976D01*
X48865600Y23003659D01*
X49061732Y23022976D01*
X49250327Y23080186D01*
X49424138Y23173090D01*
X49576483Y23298117D01*
X49597067Y23323199D01*
X63446190Y23323199D01*
X63466604Y23037767D01*
X63527428Y22758163D01*
X63527430Y22758157D01*
X63527431Y22758154D01*
X63598859Y22566649D01*
X63627435Y22490034D01*
X63764570Y22238891D01*
X63764575Y22238883D01*
X63936054Y22009813D01*
X63936070Y22009795D01*
X64138394Y21807471D01*
X64138412Y21807455D01*
X64367482Y21635976D01*
X64367490Y21635971D01*
X64618633Y21498836D01*
X64618632Y21498836D01*
X64618636Y21498835D01*
X64618639Y21498833D01*
X64886754Y21398831D01*
X64886760Y21398830D01*
X64886762Y21398829D01*
X65166366Y21338005D01*
X65166368Y21338005D01*
X65166372Y21338004D01*
X65420020Y21319863D01*
X65451799Y21317590D01*
X65451800Y21317590D01*
X65451801Y21317590D01*
X65480395Y21319636D01*
X65737228Y21338004D01*
X66016846Y21398831D01*
X66284961Y21498833D01*
X66536115Y21635974D01*
X66765195Y21807461D01*
X66967539Y22009805D01*
X67139026Y22238885D01*
X67276167Y22490039D01*
X67376169Y22758154D01*
X67410880Y22917720D01*
X67436995Y23037767D01*
X67436995Y23037768D01*
X67436996Y23037772D01*
X67457410Y23323200D01*
X67454388Y23365447D01*
X67448308Y23450468D01*
X67436996Y23608628D01*
X67424235Y23667288D01*
X67376171Y23888238D01*
X67376170Y23888240D01*
X67376169Y23888246D01*
X67276167Y24156361D01*
X67265825Y24175300D01*
X67139029Y24407510D01*
X67139024Y24407518D01*
X66967545Y24636588D01*
X66967529Y24636606D01*
X66765205Y24838930D01*
X66765187Y24838946D01*
X66536117Y25010425D01*
X66536109Y25010430D01*
X66284966Y25147565D01*
X66284967Y25147565D01*
X66136865Y25202804D01*
X66016846Y25247569D01*
X66016843Y25247570D01*
X66016837Y25247572D01*
X65737233Y25308396D01*
X65451801Y25328810D01*
X65451799Y25328810D01*
X65166366Y25308396D01*
X64886762Y25247572D01*
X64618633Y25147565D01*
X64367490Y25010430D01*
X64367482Y25010425D01*
X64138412Y24838946D01*
X64138394Y24838930D01*
X63936070Y24636606D01*
X63936054Y24636588D01*
X63764575Y24407518D01*
X63764570Y24407510D01*
X63627435Y24156367D01*
X63527428Y23888238D01*
X63466604Y23608634D01*
X63446190Y23323202D01*
X63446190Y23323199D01*
X49597067Y23323199D01*
X49701510Y23450462D01*
X49786055Y23608634D01*
X49794411Y23624267D01*
X49794411Y23624268D01*
X49794414Y23624273D01*
X49851624Y23812868D01*
X49870941Y24009000D01*
X49851624Y24205132D01*
X49794414Y24393727D01*
X49794411Y24393731D01*
X49794411Y24393734D01*
X49701513Y24567533D01*
X49701509Y24567540D01*
X49576483Y24719884D01*
X49424139Y24844910D01*
X49424132Y24844914D01*
X49250333Y24937812D01*
X49250327Y24937814D01*
X49061732Y24995024D01*
X49061729Y24995025D01*
X48865600Y25014341D01*
X48669470Y24995025D01*
X48480866Y24937812D01*
X48307067Y24844914D01*
X48307060Y24844910D01*
X48154716Y24719884D01*
X48029690Y24567540D01*
X48029686Y24567533D01*
X47936788Y24393734D01*
X47879575Y24205130D01*
X47860259Y24009000D01*
X39923270Y24009000D01*
X39881157Y24175301D01*
X39787924Y24387849D01*
X39660983Y24582148D01*
X39660980Y24582151D01*
X39660979Y24582153D01*
X39503784Y24752913D01*
X39503779Y24752917D01*
X39503777Y24752919D01*
X39320634Y24895465D01*
X39320628Y24895469D01*
X39116504Y25005936D01*
X39116495Y25005939D01*
X38896984Y25081298D01*
X38725282Y25109950D01*
X38668049Y25119500D01*
X38435951Y25119500D01*
X38390164Y25111860D01*
X38207015Y25081298D01*
X37987504Y25005939D01*
X37987495Y25005936D01*
X37783371Y24895469D01*
X37783365Y24895465D01*
X37600222Y24752919D01*
X37600219Y24752916D01*
X37443016Y24582148D01*
X37316075Y24387849D01*
X37222842Y24175301D01*
X37165866Y23950309D01*
X37165864Y23950298D01*
X37146700Y23719007D01*
X37146700Y23718994D01*
X33456798Y23718994D01*
X33456798Y23718995D01*
X33456798Y23719006D01*
X33437638Y23950219D01*
X33380682Y24175136D01*
X33287484Y24387607D01*
X33203186Y24516635D01*
X32616611Y23930060D01*
X32611110Y23950591D01*
X32532118Y24087408D01*
X32420408Y24199118D01*
X32283591Y24278110D01*
X32263058Y24283612D01*
X32850797Y24871353D01*
X32850797Y24871355D01*
X32820360Y24895045D01*
X32820354Y24895049D01*
X32616302Y25005477D01*
X32616293Y25005480D01*
X32396860Y25080812D01*
X32168007Y25119000D01*
X31935993Y25119000D01*
X31707139Y25080812D01*
X31487706Y25005480D01*
X31487697Y25005477D01*
X31283650Y24895051D01*
X31253200Y24871353D01*
X31840941Y24283612D01*
X31820409Y24278110D01*
X31683592Y24199118D01*
X31571882Y24087408D01*
X31492890Y23950591D01*
X31487388Y23930058D01*
X30900811Y24516635D01*
X30816516Y24387610D01*
X30723317Y24175136D01*
X30666361Y23950219D01*
X30647202Y23719006D01*
X30647202Y23718995D01*
X8724373Y23718995D01*
X8722789Y23723522D01*
X8626816Y23876262D01*
X8499262Y24003816D01*
X8491012Y24009000D01*
X8346523Y24099789D01*
X8176254Y24159369D01*
X8176249Y24159370D01*
X7997004Y24179565D01*
X7996996Y24179565D01*
X7817750Y24159370D01*
X7817745Y24159369D01*
X7647476Y24099789D01*
X7494737Y24003816D01*
X7367184Y23876263D01*
X7271211Y23723524D01*
X7211631Y23553255D01*
X7211630Y23553250D01*
X7191435Y23374004D01*
X7191435Y23373997D01*
X3880848Y23373997D01*
X3784688Y23511329D01*
X3784686Y23511332D01*
X3685699Y23610319D01*
X3652214Y23671642D01*
X3657198Y23741334D01*
X3685699Y23785681D01*
X3784687Y23884670D01*
X3787186Y23888238D01*
X3911195Y24065342D01*
X4004407Y24265237D01*
X4061492Y24478280D01*
X4080715Y24698000D01*
X4078800Y24719883D01*
X4067862Y24844910D01*
X4061492Y24917720D01*
X4004407Y25130763D01*
X3970817Y25202797D01*
X8740835Y25202797D01*
X8761030Y25023551D01*
X8761031Y25023546D01*
X8820611Y24853277D01*
X8904428Y24719884D01*
X8916584Y24700538D01*
X9044138Y24572984D01*
X9133817Y24516635D01*
X9194864Y24478276D01*
X9196878Y24477011D01*
X9367145Y24417432D01*
X9367150Y24417431D01*
X9546396Y24397235D01*
X9546400Y24397235D01*
X9546404Y24397235D01*
X9725649Y24417431D01*
X9725652Y24417432D01*
X9725655Y24417432D01*
X9895922Y24477011D01*
X10048662Y24572984D01*
X10176216Y24700538D01*
X10272189Y24853278D01*
X10331768Y25023545D01*
X10331769Y25023551D01*
X10351965Y25202797D01*
X10351965Y25202804D01*
X10331769Y25382050D01*
X10331768Y25382055D01*
X10272188Y25552324D01*
X10176215Y25705063D01*
X10048662Y25832616D01*
X9895923Y25928589D01*
X9725654Y25988169D01*
X9725649Y25988170D01*
X9546404Y26008365D01*
X9546396Y26008365D01*
X9367150Y25988170D01*
X9367145Y25988169D01*
X9196876Y25928589D01*
X9044137Y25832616D01*
X8916584Y25705063D01*
X8820611Y25552324D01*
X8761031Y25382055D01*
X8761030Y25382050D01*
X8740835Y25202804D01*
X8740835Y25202797D01*
X3970817Y25202797D01*
X3911195Y25330657D01*
X3784688Y25511329D01*
X3784686Y25511332D01*
X3720290Y25575728D01*
X3686805Y25637051D01*
X3691789Y25706743D01*
X3733661Y25762676D01*
X3751677Y25773894D01*
X3844597Y25821239D01*
X3844596Y25821239D01*
X3844599Y25821240D01*
X3997473Y25932310D01*
X4131090Y26065927D01*
X4242160Y26218801D01*
X4327947Y26387168D01*
X4386340Y26566882D01*
X4415900Y26753514D01*
X4415900Y26942487D01*
X4386340Y27129119D01*
X4327945Y27308837D01*
X4242159Y27477200D01*
X4131090Y27630073D01*
X3997473Y27763690D01*
X3844599Y27874760D01*
X3676236Y27960546D01*
X3496518Y28018941D01*
X3309886Y28048500D01*
X3309881Y28048500D01*
X2320919Y28048500D01*
X2320914Y28048500D01*
X2134281Y28018941D01*
X1954563Y27960546D01*
X1786200Y27874760D01*
X1698979Y27811390D01*
X1633327Y27763690D01*
X1633325Y27763688D01*
X1633324Y27763688D01*
X1499712Y27630076D01*
X1499712Y27630075D01*
X1499710Y27630073D01*
X1452010Y27564421D01*
X1388640Y27477200D01*
X1302854Y27308837D01*
X1244459Y27129119D01*
X1214900Y26942487D01*
X1214900Y26753514D01*
X1244459Y26566882D01*
X1302854Y26387164D01*
X1388640Y26218801D01*
X1499710Y26065927D01*
X1633327Y25932310D01*
X1786201Y25821240D01*
X1874454Y25776273D01*
X1879123Y25773894D01*
X1929919Y25725919D01*
X1946714Y25658098D01*
X1924177Y25591964D01*
X1910510Y25575728D01*
X1846110Y25511328D01*
X1719605Y25330658D01*
X1719604Y25330656D01*
X1626394Y25130765D01*
X1626390Y25130756D01*
X1569309Y24917725D01*
X1569307Y24917715D01*
X1550085Y24698002D01*
X1550085Y24697999D01*
X1569307Y24478286D01*
X1569309Y24478276D01*
X1626390Y24265245D01*
X1626395Y24265231D01*
X1719603Y24065346D01*
X1719607Y24065338D01*
X1846112Y23884670D01*
X1945101Y23785681D01*
X1978586Y23724358D01*
X1973602Y23654666D01*
X1945101Y23610319D01*
X1846113Y23511332D01*
X1719605Y23330658D01*
X1719604Y23330656D01*
X1626394Y23130765D01*
X1626390Y23130756D01*
X1569309Y22917725D01*
X1569307Y22917715D01*
X1550085Y22698002D01*
X1550085Y22697999D01*
X1569307Y22478286D01*
X1569309Y22478276D01*
X1626390Y22265245D01*
X1626395Y22265231D01*
X1719603Y22065346D01*
X1719607Y22065338D01*
X1846112Y21884670D01*
X1945101Y21785681D01*
X1978586Y21724358D01*
X1973602Y21654666D01*
X1945101Y21610319D01*
X1846113Y21511332D01*
X1719605Y21330658D01*
X1719604Y21330656D01*
X1626394Y21130765D01*
X1626390Y21130756D01*
X1569309Y20917725D01*
X1569307Y20917715D01*
X1550085Y20698002D01*
X1550085Y20697999D01*
X1569307Y20478286D01*
X1569309Y20478276D01*
X1626390Y20265245D01*
X1626395Y20265231D01*
X1719603Y20065346D01*
X1719607Y20065338D01*
X1846112Y19884670D01*
X1910509Y19820273D01*
X1943994Y19758950D01*
X1939010Y19689258D01*
X1897138Y19633325D01*
X1879124Y19622108D01*
X1786203Y19574762D01*
X1709764Y19519225D01*
X1633327Y19463690D01*
X1633325Y19463688D01*
X1633324Y19463688D01*
X1499712Y19330076D01*
X1499712Y19330075D01*
X1499710Y19330073D01*
X1490383Y19317235D01*
X1388640Y19177200D01*
X1302854Y19008837D01*
X1244459Y18829119D01*
X1214900Y18642487D01*
X1214900Y18453514D01*
X500500Y18453514D01*
X500500Y29593978D01*
X1465700Y29593978D01*
X1481363Y29495089D01*
X1500185Y29376248D01*
X1568303Y29166597D01*
X1568304Y29166594D01*
X1636322Y29033104D01*
X1663329Y28980100D01*
X1668387Y28970175D01*
X1797952Y28791842D01*
X1797956Y28791837D01*
X1953836Y28635957D01*
X1953841Y28635953D01*
X2055806Y28561872D01*
X2132178Y28506385D01*
X2260575Y28440963D01*
X2328593Y28406305D01*
X2328596Y28406304D01*
X2433421Y28372245D01*
X2538249Y28338185D01*
X2755978Y28303700D01*
X2755979Y28303700D01*
X2976421Y28303700D01*
X2976422Y28303700D01*
X3194151Y28338185D01*
X3403806Y28406305D01*
X3600222Y28506385D01*
X3778565Y28635958D01*
X3934442Y28791835D01*
X4036191Y28931883D01*
X4091520Y28974547D01*
X4161133Y28980526D01*
X4222929Y28947921D01*
X4236827Y28931882D01*
X4338342Y28792159D01*
X4494158Y28636343D01*
X4672439Y28506814D01*
X4868789Y28406768D01*
X5078363Y28338674D01*
X5156199Y28326346D01*
X5156200Y28326346D01*
X5156200Y29505718D01*
X5174609Y29495089D01*
X5327209Y29454200D01*
X5485191Y29454200D01*
X5637791Y29495089D01*
X5656200Y29505718D01*
X5656200Y28326346D01*
X5734034Y28338674D01*
X5734037Y28338674D01*
X5943610Y28406768D01*
X6139960Y28506814D01*
X6318241Y28636343D01*
X6474057Y28792159D01*
X6474062Y28792165D01*
X6575572Y28931881D01*
X6630902Y28974547D01*
X6700515Y28980526D01*
X6762310Y28947921D01*
X6776208Y28931881D01*
X6877952Y28791842D01*
X6877956Y28791837D01*
X7033836Y28635957D01*
X7033841Y28635953D01*
X7135806Y28561872D01*
X7212178Y28506385D01*
X7340575Y28440963D01*
X7408593Y28406305D01*
X7408596Y28406304D01*
X7513421Y28372245D01*
X7618249Y28338185D01*
X7835978Y28303700D01*
X7835979Y28303700D01*
X8056421Y28303700D01*
X8056422Y28303700D01*
X8274151Y28338185D01*
X8483806Y28406305D01*
X8680222Y28506385D01*
X8858565Y28635958D01*
X9014442Y28791835D01*
X9085702Y28889916D01*
X9115882Y28931455D01*
X9171211Y28974121D01*
X9240825Y28980100D01*
X9302620Y28947495D01*
X9316518Y28931455D01*
X9417952Y28791842D01*
X9417956Y28791837D01*
X9573836Y28635957D01*
X9573841Y28635953D01*
X9675806Y28561872D01*
X9752178Y28506385D01*
X9880575Y28440963D01*
X9948593Y28406305D01*
X9948596Y28406304D01*
X10053421Y28372245D01*
X10158249Y28338185D01*
X10375978Y28303700D01*
X10375979Y28303700D01*
X10596421Y28303700D01*
X10596422Y28303700D01*
X10814151Y28338185D01*
X11023806Y28406305D01*
X11220222Y28506385D01*
X11398565Y28635958D01*
X11554442Y28791835D01*
X11625702Y28889916D01*
X11655882Y28931455D01*
X11711211Y28974121D01*
X11780825Y28980100D01*
X11842620Y28947495D01*
X11856518Y28931455D01*
X11957952Y28791842D01*
X11957956Y28791837D01*
X12113836Y28635957D01*
X12113841Y28635953D01*
X12215806Y28561872D01*
X12292178Y28506385D01*
X12420575Y28440963D01*
X12488593Y28406305D01*
X12488596Y28406304D01*
X12593421Y28372245D01*
X12698249Y28338185D01*
X12915978Y28303700D01*
X12915979Y28303700D01*
X13136421Y28303700D01*
X13136422Y28303700D01*
X13354151Y28338185D01*
X13563806Y28406305D01*
X13760222Y28506385D01*
X13938565Y28635958D01*
X14094442Y28791835D01*
X14165702Y28889916D01*
X14195882Y28931455D01*
X14251211Y28974121D01*
X14320825Y28980100D01*
X14382620Y28947495D01*
X14396518Y28931455D01*
X14497952Y28791842D01*
X14497956Y28791837D01*
X14653836Y28635957D01*
X14653841Y28635953D01*
X14755806Y28561872D01*
X14832178Y28506385D01*
X14960575Y28440963D01*
X15028593Y28406305D01*
X15028596Y28406304D01*
X15133421Y28372245D01*
X15238249Y28338185D01*
X15455978Y28303700D01*
X15455979Y28303700D01*
X15676421Y28303700D01*
X15676422Y28303700D01*
X15894151Y28338185D01*
X16103806Y28406305D01*
X16300222Y28506385D01*
X16478565Y28635958D01*
X16634442Y28791835D01*
X16705702Y28889916D01*
X16735882Y28931455D01*
X16791211Y28974121D01*
X16860825Y28980100D01*
X16922620Y28947495D01*
X16936518Y28931455D01*
X17037952Y28791842D01*
X17037956Y28791837D01*
X17193836Y28635957D01*
X17193841Y28635953D01*
X17295806Y28561872D01*
X17372178Y28506385D01*
X17500575Y28440963D01*
X17568593Y28406305D01*
X17568596Y28406304D01*
X17673421Y28372245D01*
X17778249Y28338185D01*
X17995978Y28303700D01*
X17995979Y28303700D01*
X18216421Y28303700D01*
X18216422Y28303700D01*
X18434151Y28338185D01*
X18643806Y28406305D01*
X18840222Y28506385D01*
X19018565Y28635958D01*
X19174442Y28791835D01*
X19245702Y28889916D01*
X19275882Y28931455D01*
X19331211Y28974121D01*
X19400825Y28980100D01*
X19462620Y28947495D01*
X19476518Y28931455D01*
X19577952Y28791842D01*
X19577956Y28791837D01*
X19733836Y28635957D01*
X19733841Y28635953D01*
X19835806Y28561872D01*
X19912178Y28506385D01*
X20040575Y28440963D01*
X20108593Y28406305D01*
X20108596Y28406304D01*
X20213421Y28372245D01*
X20318249Y28338185D01*
X20535978Y28303700D01*
X20535979Y28303700D01*
X20756421Y28303700D01*
X20756422Y28303700D01*
X20974151Y28338185D01*
X21183806Y28406305D01*
X21380222Y28506385D01*
X21558565Y28635958D01*
X21714442Y28791835D01*
X21785702Y28889916D01*
X21815882Y28931455D01*
X21871211Y28974121D01*
X21940825Y28980100D01*
X22002620Y28947495D01*
X22016518Y28931455D01*
X22117952Y28791842D01*
X22117956Y28791837D01*
X22273836Y28635957D01*
X22273841Y28635953D01*
X22375806Y28561872D01*
X22452178Y28506385D01*
X22580575Y28440963D01*
X22648593Y28406305D01*
X22648596Y28406304D01*
X22753421Y28372245D01*
X22858249Y28338185D01*
X23075978Y28303700D01*
X23075979Y28303700D01*
X23296421Y28303700D01*
X23296422Y28303700D01*
X23514151Y28338185D01*
X23723806Y28406305D01*
X23920222Y28506385D01*
X24098565Y28635958D01*
X24254442Y28791835D01*
X24325702Y28889916D01*
X24355882Y28931455D01*
X24411211Y28974121D01*
X24480825Y28980100D01*
X24542620Y28947495D01*
X24556518Y28931455D01*
X24657952Y28791842D01*
X24657956Y28791837D01*
X24813836Y28635957D01*
X24813841Y28635953D01*
X24915806Y28561872D01*
X24992178Y28506385D01*
X25120575Y28440963D01*
X25188593Y28406305D01*
X25188596Y28406304D01*
X25293421Y28372245D01*
X25398249Y28338185D01*
X25615978Y28303700D01*
X25615979Y28303700D01*
X25836421Y28303700D01*
X25836422Y28303700D01*
X26054151Y28338185D01*
X26263806Y28406305D01*
X26460222Y28506385D01*
X26638565Y28635958D01*
X26794442Y28791835D01*
X26865702Y28889916D01*
X26895882Y28931455D01*
X26951211Y28974121D01*
X27020825Y28980100D01*
X27082620Y28947495D01*
X27096518Y28931455D01*
X27197952Y28791842D01*
X27197956Y28791837D01*
X27353836Y28635957D01*
X27353841Y28635953D01*
X27455806Y28561872D01*
X27532178Y28506385D01*
X27660575Y28440963D01*
X27728593Y28406305D01*
X27728596Y28406304D01*
X27833421Y28372245D01*
X27938249Y28338185D01*
X28155978Y28303700D01*
X28155979Y28303700D01*
X28376421Y28303700D01*
X28376422Y28303700D01*
X28594151Y28338185D01*
X28803806Y28406305D01*
X29000222Y28506385D01*
X29178565Y28635958D01*
X29334442Y28791835D01*
X29405702Y28889916D01*
X29435882Y28931455D01*
X29491211Y28974121D01*
X29560825Y28980100D01*
X29622620Y28947495D01*
X29636518Y28931455D01*
X29737952Y28791842D01*
X29737956Y28791837D01*
X29893836Y28635957D01*
X29893841Y28635953D01*
X29995806Y28561872D01*
X30072178Y28506385D01*
X30200575Y28440963D01*
X30268593Y28406305D01*
X30268596Y28406304D01*
X30373421Y28372245D01*
X30478249Y28338185D01*
X30695978Y28303700D01*
X30695979Y28303700D01*
X30916421Y28303700D01*
X30916422Y28303700D01*
X31134151Y28338185D01*
X31343806Y28406305D01*
X31540222Y28506385D01*
X31718565Y28635958D01*
X31874442Y28791835D01*
X31945702Y28889916D01*
X31975882Y28931455D01*
X32031211Y28974121D01*
X32100825Y28980100D01*
X32162620Y28947495D01*
X32176518Y28931455D01*
X32277952Y28791842D01*
X32277956Y28791837D01*
X32433836Y28635957D01*
X32433841Y28635953D01*
X32535806Y28561872D01*
X32612178Y28506385D01*
X32740575Y28440963D01*
X32808593Y28406305D01*
X32808596Y28406304D01*
X32913421Y28372245D01*
X33018249Y28338185D01*
X33235978Y28303700D01*
X33235979Y28303700D01*
X33456421Y28303700D01*
X33456422Y28303700D01*
X33674151Y28338185D01*
X33883806Y28406305D01*
X34080222Y28506385D01*
X34258565Y28635958D01*
X34414442Y28791835D01*
X34485702Y28889916D01*
X34515882Y28931455D01*
X34571211Y28974121D01*
X34640825Y28980100D01*
X34702620Y28947495D01*
X34716518Y28931455D01*
X34817952Y28791842D01*
X34817956Y28791837D01*
X34973836Y28635957D01*
X34973841Y28635953D01*
X35075806Y28561872D01*
X35152178Y28506385D01*
X35280575Y28440963D01*
X35348593Y28406305D01*
X35348596Y28406304D01*
X35453421Y28372245D01*
X35558249Y28338185D01*
X35775978Y28303700D01*
X35775979Y28303700D01*
X35996421Y28303700D01*
X35996422Y28303700D01*
X36214151Y28338185D01*
X36423806Y28406305D01*
X36620222Y28506385D01*
X36798565Y28635958D01*
X36954442Y28791835D01*
X37025702Y28889916D01*
X37055882Y28931455D01*
X37111211Y28974121D01*
X37180825Y28980100D01*
X37242620Y28947495D01*
X37256518Y28931455D01*
X37357952Y28791842D01*
X37357956Y28791837D01*
X37513836Y28635957D01*
X37513841Y28635953D01*
X37615806Y28561872D01*
X37692178Y28506385D01*
X37820575Y28440963D01*
X37888593Y28406305D01*
X37888596Y28406304D01*
X37993421Y28372245D01*
X38098249Y28338185D01*
X38315978Y28303700D01*
X38315979Y28303700D01*
X38536421Y28303700D01*
X38536422Y28303700D01*
X38754151Y28338185D01*
X38963806Y28406305D01*
X39160222Y28506385D01*
X39338565Y28635958D01*
X39494442Y28791835D01*
X39565702Y28889916D01*
X39595882Y28931455D01*
X39651211Y28974121D01*
X39720825Y28980100D01*
X39782620Y28947495D01*
X39796518Y28931455D01*
X39897952Y28791842D01*
X39897956Y28791837D01*
X40053836Y28635957D01*
X40053841Y28635953D01*
X40155806Y28561872D01*
X40232178Y28506385D01*
X40360575Y28440963D01*
X40428593Y28406305D01*
X40428596Y28406304D01*
X40533421Y28372245D01*
X40638249Y28338185D01*
X40855978Y28303700D01*
X40855979Y28303700D01*
X41076421Y28303700D01*
X41076422Y28303700D01*
X41294151Y28338185D01*
X41503806Y28406305D01*
X41700222Y28506385D01*
X41878565Y28635958D01*
X42034442Y28791835D01*
X42105702Y28889916D01*
X42135882Y28931455D01*
X42191211Y28974121D01*
X42260825Y28980100D01*
X42322620Y28947495D01*
X42336518Y28931455D01*
X42437952Y28791842D01*
X42437956Y28791837D01*
X42593836Y28635957D01*
X42593841Y28635953D01*
X42695806Y28561872D01*
X42772178Y28506385D01*
X42900575Y28440963D01*
X42968593Y28406305D01*
X42968596Y28406304D01*
X43073421Y28372245D01*
X43178249Y28338185D01*
X43395978Y28303700D01*
X43395979Y28303700D01*
X43616421Y28303700D01*
X43616422Y28303700D01*
X43834151Y28338185D01*
X44043806Y28406305D01*
X44240222Y28506385D01*
X44418565Y28635958D01*
X44574442Y28791835D01*
X44645702Y28889916D01*
X44675882Y28931455D01*
X44731211Y28974121D01*
X44800825Y28980100D01*
X44862620Y28947495D01*
X44876518Y28931455D01*
X44977952Y28791842D01*
X44977956Y28791837D01*
X45133836Y28635957D01*
X45133841Y28635953D01*
X45235806Y28561872D01*
X45312178Y28506385D01*
X45440575Y28440963D01*
X45508593Y28406305D01*
X45508596Y28406304D01*
X45613421Y28372245D01*
X45718249Y28338185D01*
X45935978Y28303700D01*
X45935979Y28303700D01*
X46156421Y28303700D01*
X46156422Y28303700D01*
X46374151Y28338185D01*
X46583806Y28406305D01*
X46780222Y28506385D01*
X46958565Y28635958D01*
X47114442Y28791835D01*
X47185702Y28889916D01*
X47215882Y28931455D01*
X47271211Y28974121D01*
X47340825Y28980100D01*
X47402620Y28947495D01*
X47416518Y28931455D01*
X47517952Y28791842D01*
X47517956Y28791837D01*
X47673836Y28635957D01*
X47673841Y28635953D01*
X47775806Y28561872D01*
X47852178Y28506385D01*
X47980575Y28440963D01*
X48048593Y28406305D01*
X48048596Y28406304D01*
X48153421Y28372245D01*
X48258249Y28338185D01*
X48475978Y28303700D01*
X48475979Y28303700D01*
X48696421Y28303700D01*
X48696422Y28303700D01*
X48914151Y28338185D01*
X49123806Y28406305D01*
X49320222Y28506385D01*
X49498565Y28635958D01*
X49548736Y28686130D01*
X49610057Y28719614D01*
X49679748Y28714630D01*
X49735682Y28672759D01*
X49752598Y28641781D01*
X49782402Y28561872D01*
X49782406Y28561865D01*
X49868652Y28446656D01*
X49868655Y28446653D01*
X49983864Y28360407D01*
X49983871Y28360403D01*
X50118717Y28310109D01*
X50118716Y28310109D01*
X50125644Y28309365D01*
X50178327Y28303700D01*
X52074072Y28303701D01*
X52133683Y28310109D01*
X52268531Y28360404D01*
X52383746Y28446654D01*
X52469996Y28561869D01*
X52520291Y28696717D01*
X52526700Y28756327D01*
X52526699Y31352072D01*
X52520291Y31411683D01*
X52499801Y31466619D01*
X52469997Y31546529D01*
X52469993Y31546536D01*
X52383747Y31661745D01*
X52383744Y31661748D01*
X52268535Y31747994D01*
X52268528Y31747998D01*
X52133682Y31798292D01*
X52133683Y31798292D01*
X52074083Y31804699D01*
X52074081Y31804700D01*
X52074073Y31804700D01*
X52074064Y31804700D01*
X50178329Y31804700D01*
X50178323Y31804699D01*
X50118716Y31798292D01*
X49983871Y31747998D01*
X49983864Y31747994D01*
X49868655Y31661748D01*
X49868652Y31661745D01*
X49782406Y31546536D01*
X49782403Y31546531D01*
X49752598Y31466619D01*
X49710726Y31410686D01*
X49645262Y31386269D01*
X49576989Y31401121D01*
X49548735Y31422272D01*
X49498563Y31472444D01*
X49498558Y31472448D01*
X49320225Y31602013D01*
X49320224Y31602014D01*
X49320222Y31602015D01*
X49202991Y31661748D01*
X49123806Y31702096D01*
X49123803Y31702097D01*
X48914152Y31770215D01*
X48805286Y31787458D01*
X48696422Y31804700D01*
X48475978Y31804700D01*
X48403401Y31793205D01*
X48258247Y31770215D01*
X48048596Y31702097D01*
X48048593Y31702096D01*
X47852174Y31602013D01*
X47673841Y31472448D01*
X47673836Y31472444D01*
X47517956Y31316564D01*
X47517952Y31316559D01*
X47416518Y31176946D01*
X47361188Y31134280D01*
X47291575Y31128301D01*
X47229780Y31160907D01*
X47215882Y31176946D01*
X47114447Y31316559D01*
X47114443Y31316564D01*
X46958563Y31472444D01*
X46958558Y31472448D01*
X46780225Y31602013D01*
X46780224Y31602014D01*
X46780222Y31602015D01*
X46662991Y31661748D01*
X46583806Y31702096D01*
X46583803Y31702097D01*
X46374152Y31770215D01*
X46265286Y31787458D01*
X46156422Y31804700D01*
X45935978Y31804700D01*
X45863401Y31793205D01*
X45718247Y31770215D01*
X45508596Y31702097D01*
X45508593Y31702096D01*
X45312174Y31602013D01*
X45133841Y31472448D01*
X45133836Y31472444D01*
X44977956Y31316564D01*
X44977952Y31316559D01*
X44876518Y31176946D01*
X44821188Y31134280D01*
X44751575Y31128301D01*
X44689780Y31160907D01*
X44675882Y31176946D01*
X44574447Y31316559D01*
X44574443Y31316564D01*
X44418563Y31472444D01*
X44418558Y31472448D01*
X44240225Y31602013D01*
X44240224Y31602014D01*
X44240222Y31602015D01*
X44122991Y31661748D01*
X44043806Y31702096D01*
X44043803Y31702097D01*
X43834152Y31770215D01*
X43725286Y31787458D01*
X43616422Y31804700D01*
X43395978Y31804700D01*
X43323401Y31793205D01*
X43178247Y31770215D01*
X42968596Y31702097D01*
X42968593Y31702096D01*
X42772174Y31602013D01*
X42593841Y31472448D01*
X42593836Y31472444D01*
X42437956Y31316564D01*
X42437952Y31316559D01*
X42336518Y31176946D01*
X42281188Y31134280D01*
X42211575Y31128301D01*
X42149780Y31160907D01*
X42135882Y31176946D01*
X42034447Y31316559D01*
X42034443Y31316564D01*
X41878563Y31472444D01*
X41878558Y31472448D01*
X41700225Y31602013D01*
X41700224Y31602014D01*
X41700222Y31602015D01*
X41582991Y31661748D01*
X41503806Y31702096D01*
X41503803Y31702097D01*
X41294152Y31770215D01*
X41185286Y31787458D01*
X41076422Y31804700D01*
X40855978Y31804700D01*
X40783401Y31793205D01*
X40638247Y31770215D01*
X40428596Y31702097D01*
X40428593Y31702096D01*
X40232174Y31602013D01*
X40053841Y31472448D01*
X40053836Y31472444D01*
X39897956Y31316564D01*
X39897952Y31316559D01*
X39796518Y31176946D01*
X39741188Y31134280D01*
X39671575Y31128301D01*
X39609780Y31160907D01*
X39595882Y31176946D01*
X39494447Y31316559D01*
X39494443Y31316564D01*
X39338563Y31472444D01*
X39338558Y31472448D01*
X39160225Y31602013D01*
X39160224Y31602014D01*
X39160222Y31602015D01*
X39042991Y31661748D01*
X38963806Y31702096D01*
X38963803Y31702097D01*
X38754152Y31770215D01*
X38645286Y31787458D01*
X38536422Y31804700D01*
X38315978Y31804700D01*
X38243401Y31793205D01*
X38098247Y31770215D01*
X37888596Y31702097D01*
X37888593Y31702096D01*
X37692174Y31602013D01*
X37513841Y31472448D01*
X37513836Y31472444D01*
X37357956Y31316564D01*
X37357952Y31316559D01*
X37256518Y31176946D01*
X37201188Y31134280D01*
X37131575Y31128301D01*
X37069780Y31160907D01*
X37055882Y31176946D01*
X36954447Y31316559D01*
X36954443Y31316564D01*
X36798563Y31472444D01*
X36798558Y31472448D01*
X36620225Y31602013D01*
X36620224Y31602014D01*
X36620222Y31602015D01*
X36502991Y31661748D01*
X36423806Y31702096D01*
X36423803Y31702097D01*
X36214152Y31770215D01*
X36105286Y31787458D01*
X35996422Y31804700D01*
X35775978Y31804700D01*
X35703401Y31793205D01*
X35558247Y31770215D01*
X35348596Y31702097D01*
X35348593Y31702096D01*
X35152174Y31602013D01*
X34973841Y31472448D01*
X34973836Y31472444D01*
X34817956Y31316564D01*
X34817952Y31316559D01*
X34716518Y31176946D01*
X34661188Y31134280D01*
X34591575Y31128301D01*
X34529780Y31160907D01*
X34515882Y31176946D01*
X34414447Y31316559D01*
X34414443Y31316564D01*
X34258563Y31472444D01*
X34258558Y31472448D01*
X34080225Y31602013D01*
X34080224Y31602014D01*
X34080222Y31602015D01*
X33962991Y31661748D01*
X33883806Y31702096D01*
X33883803Y31702097D01*
X33674152Y31770215D01*
X33565286Y31787458D01*
X33456422Y31804700D01*
X33235978Y31804700D01*
X33163401Y31793205D01*
X33018247Y31770215D01*
X32808596Y31702097D01*
X32808593Y31702096D01*
X32612174Y31602013D01*
X32433841Y31472448D01*
X32433836Y31472444D01*
X32277956Y31316564D01*
X32277952Y31316559D01*
X32176518Y31176946D01*
X32121188Y31134280D01*
X32051575Y31128301D01*
X31989780Y31160907D01*
X31975882Y31176946D01*
X31874447Y31316559D01*
X31874443Y31316564D01*
X31718563Y31472444D01*
X31718558Y31472448D01*
X31540225Y31602013D01*
X31540224Y31602014D01*
X31540222Y31602015D01*
X31422991Y31661748D01*
X31343806Y31702096D01*
X31343803Y31702097D01*
X31134152Y31770215D01*
X31025286Y31787458D01*
X30916422Y31804700D01*
X30695978Y31804700D01*
X30623401Y31793205D01*
X30478247Y31770215D01*
X30268596Y31702097D01*
X30268593Y31702096D01*
X30072174Y31602013D01*
X29893841Y31472448D01*
X29893836Y31472444D01*
X29737956Y31316564D01*
X29737952Y31316559D01*
X29636518Y31176946D01*
X29581188Y31134280D01*
X29511575Y31128301D01*
X29449780Y31160907D01*
X29435882Y31176946D01*
X29334447Y31316559D01*
X29334443Y31316564D01*
X29178563Y31472444D01*
X29178558Y31472448D01*
X29000225Y31602013D01*
X29000224Y31602014D01*
X29000222Y31602015D01*
X28882991Y31661748D01*
X28803806Y31702096D01*
X28803803Y31702097D01*
X28594152Y31770215D01*
X28485286Y31787458D01*
X28376422Y31804700D01*
X28155978Y31804700D01*
X28083401Y31793205D01*
X27938247Y31770215D01*
X27728596Y31702097D01*
X27728593Y31702096D01*
X27532174Y31602013D01*
X27353841Y31472448D01*
X27353836Y31472444D01*
X27197956Y31316564D01*
X27197952Y31316559D01*
X27096518Y31176946D01*
X27041188Y31134280D01*
X26971575Y31128301D01*
X26909780Y31160907D01*
X26895882Y31176946D01*
X26794447Y31316559D01*
X26794443Y31316564D01*
X26638563Y31472444D01*
X26638558Y31472448D01*
X26460225Y31602013D01*
X26460224Y31602014D01*
X26460222Y31602015D01*
X26342991Y31661748D01*
X26263806Y31702096D01*
X26263803Y31702097D01*
X26054152Y31770215D01*
X25945286Y31787458D01*
X25836422Y31804700D01*
X25615978Y31804700D01*
X25543401Y31793205D01*
X25398247Y31770215D01*
X25188596Y31702097D01*
X25188593Y31702096D01*
X24992174Y31602013D01*
X24813841Y31472448D01*
X24813836Y31472444D01*
X24657956Y31316564D01*
X24657952Y31316559D01*
X24556518Y31176946D01*
X24501188Y31134280D01*
X24431575Y31128301D01*
X24369780Y31160907D01*
X24355882Y31176946D01*
X24254447Y31316559D01*
X24254443Y31316564D01*
X24098563Y31472444D01*
X24098558Y31472448D01*
X23920225Y31602013D01*
X23920224Y31602014D01*
X23920222Y31602015D01*
X23802991Y31661748D01*
X23723806Y31702096D01*
X23723803Y31702097D01*
X23514152Y31770215D01*
X23405286Y31787458D01*
X23296422Y31804700D01*
X23075978Y31804700D01*
X23003401Y31793205D01*
X22858247Y31770215D01*
X22648596Y31702097D01*
X22648593Y31702096D01*
X22452174Y31602013D01*
X22273841Y31472448D01*
X22273836Y31472444D01*
X22117956Y31316564D01*
X22117952Y31316559D01*
X22016518Y31176946D01*
X21961188Y31134280D01*
X21891575Y31128301D01*
X21829780Y31160907D01*
X21815882Y31176946D01*
X21714447Y31316559D01*
X21714443Y31316564D01*
X21558563Y31472444D01*
X21558558Y31472448D01*
X21380225Y31602013D01*
X21380224Y31602014D01*
X21380222Y31602015D01*
X21262991Y31661748D01*
X21183806Y31702096D01*
X21183803Y31702097D01*
X20974152Y31770215D01*
X20865286Y31787458D01*
X20756422Y31804700D01*
X20535978Y31804700D01*
X20463401Y31793205D01*
X20318247Y31770215D01*
X20108596Y31702097D01*
X20108593Y31702096D01*
X19912174Y31602013D01*
X19733841Y31472448D01*
X19733836Y31472444D01*
X19577956Y31316564D01*
X19577952Y31316559D01*
X19476518Y31176946D01*
X19421188Y31134280D01*
X19351575Y31128301D01*
X19289780Y31160907D01*
X19275882Y31176946D01*
X19174447Y31316559D01*
X19174443Y31316564D01*
X19018563Y31472444D01*
X19018558Y31472448D01*
X18840225Y31602013D01*
X18840224Y31602014D01*
X18840222Y31602015D01*
X18722991Y31661748D01*
X18643806Y31702096D01*
X18643803Y31702097D01*
X18434152Y31770215D01*
X18325286Y31787458D01*
X18216422Y31804700D01*
X17995978Y31804700D01*
X17923401Y31793205D01*
X17778247Y31770215D01*
X17568596Y31702097D01*
X17568593Y31702096D01*
X17372174Y31602013D01*
X17193841Y31472448D01*
X17193836Y31472444D01*
X17037956Y31316564D01*
X17037952Y31316559D01*
X16936518Y31176946D01*
X16881188Y31134280D01*
X16811575Y31128301D01*
X16749780Y31160907D01*
X16735882Y31176946D01*
X16634447Y31316559D01*
X16634443Y31316564D01*
X16478563Y31472444D01*
X16478558Y31472448D01*
X16300225Y31602013D01*
X16300224Y31602014D01*
X16300222Y31602015D01*
X16182991Y31661748D01*
X16103806Y31702096D01*
X16103803Y31702097D01*
X15894152Y31770215D01*
X15785286Y31787458D01*
X15676422Y31804700D01*
X15455978Y31804700D01*
X15383401Y31793205D01*
X15238247Y31770215D01*
X15028596Y31702097D01*
X15028593Y31702096D01*
X14832174Y31602013D01*
X14653841Y31472448D01*
X14653836Y31472444D01*
X14497956Y31316564D01*
X14497952Y31316559D01*
X14396518Y31176946D01*
X14341188Y31134280D01*
X14271575Y31128301D01*
X14209780Y31160907D01*
X14195882Y31176946D01*
X14094447Y31316559D01*
X14094443Y31316564D01*
X13938563Y31472444D01*
X13938558Y31472448D01*
X13760225Y31602013D01*
X13760224Y31602014D01*
X13760222Y31602015D01*
X13642991Y31661748D01*
X13563806Y31702096D01*
X13563803Y31702097D01*
X13354152Y31770215D01*
X13245286Y31787458D01*
X13136422Y31804700D01*
X12915978Y31804700D01*
X12843401Y31793205D01*
X12698247Y31770215D01*
X12488596Y31702097D01*
X12488593Y31702096D01*
X12292174Y31602013D01*
X12113841Y31472448D01*
X12113836Y31472444D01*
X11957956Y31316564D01*
X11957952Y31316559D01*
X11856518Y31176946D01*
X11801188Y31134280D01*
X11731575Y31128301D01*
X11669780Y31160907D01*
X11655882Y31176946D01*
X11554447Y31316559D01*
X11554443Y31316564D01*
X11398563Y31472444D01*
X11398558Y31472448D01*
X11220225Y31602013D01*
X11220224Y31602014D01*
X11220222Y31602015D01*
X11102991Y31661748D01*
X11023806Y31702096D01*
X11023803Y31702097D01*
X10814152Y31770215D01*
X10705286Y31787458D01*
X10596422Y31804700D01*
X10375978Y31804700D01*
X10303401Y31793205D01*
X10158247Y31770215D01*
X9948596Y31702097D01*
X9948593Y31702096D01*
X9752174Y31602013D01*
X9573841Y31472448D01*
X9573836Y31472444D01*
X9417956Y31316564D01*
X9417952Y31316559D01*
X9316518Y31176946D01*
X9261188Y31134280D01*
X9191575Y31128301D01*
X9129780Y31160907D01*
X9115882Y31176946D01*
X9014447Y31316559D01*
X9014443Y31316564D01*
X8858563Y31472444D01*
X8858558Y31472448D01*
X8680225Y31602013D01*
X8680224Y31602014D01*
X8680222Y31602015D01*
X8562991Y31661748D01*
X8483806Y31702096D01*
X8483803Y31702097D01*
X8274152Y31770215D01*
X8165286Y31787458D01*
X8056422Y31804700D01*
X7835978Y31804700D01*
X7763401Y31793205D01*
X7618247Y31770215D01*
X7408596Y31702097D01*
X7408593Y31702096D01*
X7212174Y31602013D01*
X7033841Y31472448D01*
X7033836Y31472444D01*
X6877956Y31316564D01*
X6776208Y31176519D01*
X6720878Y31133854D01*
X6651265Y31127875D01*
X6589470Y31160481D01*
X6575572Y31176520D01*
X6474062Y31316236D01*
X6474057Y31316242D01*
X6318241Y31472058D01*
X6139960Y31601587D01*
X5943610Y31701633D01*
X5734036Y31769727D01*
X5656200Y31782056D01*
X5656200Y30602683D01*
X5637791Y30613311D01*
X5485191Y30654200D01*
X5327209Y30654200D01*
X5174609Y30613311D01*
X5156200Y30602683D01*
X5156200Y31782056D01*
X5078364Y31769727D01*
X5078361Y31769727D01*
X4868789Y31701633D01*
X4672439Y31601587D01*
X4494158Y31472058D01*
X4338342Y31316242D01*
X4338342Y31316241D01*
X4236827Y31176519D01*
X4181497Y31133854D01*
X4111883Y31127875D01*
X4050088Y31160481D01*
X4036191Y31176520D01*
X3934447Y31316559D01*
X3934443Y31316564D01*
X3778563Y31472444D01*
X3778558Y31472448D01*
X3600225Y31602013D01*
X3600224Y31602014D01*
X3600222Y31602015D01*
X3482991Y31661748D01*
X3403806Y31702096D01*
X3403803Y31702097D01*
X3194152Y31770215D01*
X3085286Y31787458D01*
X2976422Y31804700D01*
X2755978Y31804700D01*
X2683401Y31793205D01*
X2538247Y31770215D01*
X2328596Y31702097D01*
X2328593Y31702096D01*
X2132174Y31602013D01*
X1953841Y31472448D01*
X1953836Y31472444D01*
X1797956Y31316564D01*
X1797952Y31316559D01*
X1668387Y31138226D01*
X1568304Y30941807D01*
X1568303Y30941804D01*
X1500185Y30732153D01*
X1468851Y30534319D01*
X1465700Y30514422D01*
X1465700Y29593978D01*
X500500Y29593978D01*
X500500Y35069197D01*
X38814435Y35069197D01*
X38834630Y34889951D01*
X38834631Y34889946D01*
X38894211Y34719677D01*
X38990184Y34566938D01*
X39117738Y34439384D01*
X39270478Y34343411D01*
X39440745Y34283832D01*
X39440750Y34283831D01*
X39619996Y34263635D01*
X39620000Y34263635D01*
X39620004Y34263635D01*
X39799249Y34283831D01*
X39799252Y34283832D01*
X39799255Y34283832D01*
X39969522Y34343411D01*
X40122262Y34439384D01*
X40249816Y34566938D01*
X40345789Y34719678D01*
X40405368Y34889945D01*
X40425565Y35069200D01*
X40405368Y35248455D01*
X40345789Y35418722D01*
X40249816Y35571462D01*
X40122262Y35699016D01*
X39969523Y35794989D01*
X39799254Y35854569D01*
X39799249Y35854570D01*
X39620004Y35874765D01*
X39619996Y35874765D01*
X39440750Y35854570D01*
X39440745Y35854569D01*
X39270476Y35794989D01*
X39117737Y35699016D01*
X38990184Y35571463D01*
X38894211Y35418724D01*
X38834631Y35248455D01*
X38834630Y35248450D01*
X38814435Y35069204D01*
X38814435Y35069197D01*
X500500Y35069197D01*
X500500Y38740997D01*
X10696635Y38740997D01*
X10716830Y38561751D01*
X10716831Y38561746D01*
X10776411Y38391477D01*
X10784049Y38379322D01*
X10872384Y38238738D01*
X10999938Y38111184D01*
X11090280Y38054418D01*
X11129464Y38029797D01*
X11152678Y38015211D01*
X11200430Y37998502D01*
X11322945Y37955632D01*
X11322950Y37955631D01*
X11502196Y37935435D01*
X11502200Y37935435D01*
X11502204Y37935435D01*
X11681449Y37955631D01*
X11681452Y37955632D01*
X11681455Y37955632D01*
X11851722Y38015211D01*
X11912078Y38053136D01*
X11979313Y38072136D01*
X12046149Y38051769D01*
X12091363Y37998502D01*
X12101270Y37962026D01*
X12113830Y37850550D01*
X12113831Y37850546D01*
X12173411Y37680277D01*
X12186697Y37659133D01*
X12269384Y37527538D01*
X12396938Y37399984D01*
X12549678Y37304011D01*
X12662448Y37264551D01*
X12719945Y37244432D01*
X12719950Y37244431D01*
X12899196Y37224235D01*
X12899200Y37224235D01*
X12899204Y37224235D01*
X13078449Y37244431D01*
X13078452Y37244432D01*
X13078455Y37244432D01*
X13248722Y37304011D01*
X13401462Y37399984D01*
X13529016Y37527538D01*
X13624989Y37680278D01*
X13649525Y37750397D01*
X38001635Y37750397D01*
X38021830Y37571151D01*
X38021831Y37571146D01*
X38081411Y37400877D01*
X38167071Y37264551D01*
X38177384Y37248138D01*
X38304938Y37120584D01*
X38457678Y37024611D01*
X38627945Y36965032D01*
X38627950Y36965031D01*
X38807196Y36944835D01*
X38807200Y36944835D01*
X38807204Y36944835D01*
X38986449Y36965031D01*
X38986452Y36965032D01*
X38986455Y36965032D01*
X39156722Y37024611D01*
X39164207Y37029314D01*
X39834327Y37029314D01*
X39854522Y36850068D01*
X39854523Y36850063D01*
X39914103Y36679794D01*
X39992422Y36555151D01*
X40010076Y36527055D01*
X40137630Y36399501D01*
X40290370Y36303528D01*
X40460637Y36243949D01*
X40460642Y36243948D01*
X40639888Y36223752D01*
X40639892Y36223752D01*
X40639896Y36223752D01*
X40819141Y36243948D01*
X40819144Y36243949D01*
X40819147Y36243949D01*
X40989414Y36303528D01*
X41130699Y36392304D01*
X41197934Y36411304D01*
X41264769Y36390937D01*
X41301664Y36353282D01*
X41377784Y36232138D01*
X41505338Y36104584D01*
X41658078Y36008611D01*
X41828345Y35949032D01*
X41828350Y35949031D01*
X42007596Y35928835D01*
X42007600Y35928835D01*
X42007604Y35928835D01*
X42186849Y35949031D01*
X42186852Y35949032D01*
X42186855Y35949032D01*
X42357122Y36008611D01*
X42509862Y36104584D01*
X42637416Y36232138D01*
X42733389Y36384878D01*
X42792968Y36555145D01*
X42792969Y36555151D01*
X42813165Y36734397D01*
X42813165Y36734404D01*
X42792969Y36913650D01*
X42792968Y36913655D01*
X42733388Y37083924D01*
X42637415Y37236663D01*
X42509862Y37364216D01*
X42357123Y37460189D01*
X42186854Y37519769D01*
X42186849Y37519770D01*
X42007604Y37539965D01*
X42007596Y37539965D01*
X41828350Y37519770D01*
X41828345Y37519769D01*
X41658076Y37460189D01*
X41516793Y37371414D01*
X41449556Y37352414D01*
X41382721Y37372782D01*
X41345827Y37410436D01*
X41277129Y37519768D01*
X41269708Y37531579D01*
X41142154Y37659133D01*
X41108502Y37680278D01*
X40989415Y37755106D01*
X40819146Y37814686D01*
X40819141Y37814687D01*
X40639896Y37834882D01*
X40639888Y37834882D01*
X40460642Y37814687D01*
X40460637Y37814686D01*
X40290368Y37755106D01*
X40137629Y37659133D01*
X40010076Y37531580D01*
X39914103Y37378841D01*
X39854523Y37208572D01*
X39854522Y37208567D01*
X39834327Y37029321D01*
X39834327Y37029314D01*
X39164207Y37029314D01*
X39309462Y37120584D01*
X39437016Y37248138D01*
X39532989Y37400878D01*
X39592568Y37571145D01*
X39604864Y37680277D01*
X39612765Y37750397D01*
X39612765Y37750404D01*
X39592569Y37929650D01*
X39592568Y37929655D01*
X39549360Y38053135D01*
X39532989Y38099922D01*
X39437016Y38252662D01*
X39309462Y38380216D01*
X39291539Y38391478D01*
X39156723Y38476189D01*
X38986454Y38535769D01*
X38986449Y38535770D01*
X38807204Y38555965D01*
X38807196Y38555965D01*
X38627950Y38535770D01*
X38627945Y38535769D01*
X38457676Y38476189D01*
X38304937Y38380216D01*
X38177384Y38252663D01*
X38081411Y38099924D01*
X38021831Y37929655D01*
X38021830Y37929650D01*
X38001635Y37750404D01*
X38001635Y37750397D01*
X13649525Y37750397D01*
X13684568Y37850545D01*
X13693481Y37929650D01*
X13704765Y38029797D01*
X13704765Y38029804D01*
X13684569Y38209050D01*
X13684568Y38209055D01*
X13624988Y38379324D01*
X13529015Y38532063D01*
X13401462Y38659616D01*
X13248723Y38755589D01*
X13078454Y38815169D01*
X13078449Y38815170D01*
X12899204Y38835365D01*
X12899196Y38835365D01*
X12719950Y38815170D01*
X12719945Y38815169D01*
X12549674Y38755588D01*
X12489320Y38717665D01*
X12422084Y38698665D01*
X12355248Y38719033D01*
X12310035Y38772301D01*
X12300129Y38808776D01*
X12287569Y38920250D01*
X12287568Y38920255D01*
X12227988Y39090524D01*
X12132015Y39243263D01*
X12004462Y39370816D01*
X11851723Y39466789D01*
X11681454Y39526369D01*
X11681449Y39526370D01*
X11502204Y39546565D01*
X11502196Y39546565D01*
X11322950Y39526370D01*
X11322945Y39526369D01*
X11152676Y39466789D01*
X10999937Y39370816D01*
X10872384Y39243263D01*
X10776411Y39090524D01*
X10716831Y38920255D01*
X10716830Y38920250D01*
X10696635Y38741004D01*
X10696635Y38740997D01*
X500500Y38740997D01*
X500500Y40294224D01*
X520185Y40361263D01*
X572989Y40407018D01*
X638383Y40417444D01*
X799996Y40399235D01*
X800000Y40399235D01*
X800004Y40399235D01*
X979249Y40419431D01*
X979252Y40419432D01*
X979255Y40419432D01*
X1149522Y40479011D01*
X1302262Y40574984D01*
X1429816Y40702538D01*
X1525789Y40855278D01*
X1585368Y41025545D01*
X1585369Y41025551D01*
X1605565Y41204797D01*
X1605565Y41204804D01*
X1588395Y41357197D01*
X5311835Y41357197D01*
X5332030Y41177951D01*
X5332031Y41177946D01*
X5391611Y41007677D01*
X5487370Y40855278D01*
X5487584Y40854938D01*
X5615138Y40727384D01*
X5767878Y40631411D01*
X5929134Y40574985D01*
X5938145Y40571832D01*
X5938150Y40571831D01*
X6117396Y40551635D01*
X6117400Y40551635D01*
X6117404Y40551635D01*
X6296649Y40571831D01*
X6296652Y40571832D01*
X6296655Y40571832D01*
X6466922Y40631411D01*
X6619662Y40727384D01*
X6747216Y40854938D01*
X6843189Y41007678D01*
X6902768Y41177945D01*
X6902769Y41177957D01*
X6903750Y41182251D01*
X6937853Y41243233D01*
X6999512Y41276096D01*
X7065599Y41271711D01*
X7208137Y41221834D01*
X7208143Y41221833D01*
X7208145Y41221832D01*
X7208146Y41221832D01*
X7208150Y41221831D01*
X7387396Y41201635D01*
X7387400Y41201635D01*
X7387404Y41201635D01*
X7566649Y41221831D01*
X7566651Y41221832D01*
X7566655Y41221832D01*
X7566658Y41221834D01*
X7566662Y41221834D01*
X7730608Y41279201D01*
X7800387Y41282763D01*
X7861014Y41248035D01*
X7893242Y41186041D01*
X7894783Y41176046D01*
X7897431Y41152549D01*
X7897431Y41152546D01*
X7957011Y40982277D01*
X8036810Y40855278D01*
X8052984Y40829538D01*
X8180538Y40701984D01*
X8270880Y40645218D01*
X8292852Y40631412D01*
X8333278Y40606011D01*
X8421948Y40574984D01*
X8503545Y40546432D01*
X8503550Y40546431D01*
X8682796Y40526235D01*
X8682800Y40526235D01*
X8682804Y40526235D01*
X8862049Y40546431D01*
X8862052Y40546432D01*
X8862055Y40546432D01*
X9032322Y40606011D01*
X9185062Y40701984D01*
X9312616Y40829538D01*
X9408589Y40982278D01*
X9468168Y41152545D01*
X9468168Y41152548D01*
X9468169Y41152551D01*
X9488365Y41331797D01*
X9488365Y41331804D01*
X9468169Y41511050D01*
X9468168Y41511055D01*
X9453028Y41554322D01*
X9408589Y41681322D01*
X9392415Y41707062D01*
X9312615Y41834063D01*
X9185062Y41961616D01*
X9032323Y42057589D01*
X8862054Y42117169D01*
X8862049Y42117170D01*
X8682804Y42137365D01*
X8682796Y42137365D01*
X8503550Y42117170D01*
X8503545Y42117169D01*
X8339591Y42059798D01*
X8269812Y42056237D01*
X8209184Y42090966D01*
X8176957Y42152959D01*
X8175416Y42162958D01*
X8172769Y42186450D01*
X8172768Y42186455D01*
X8122493Y42330133D01*
X8113189Y42356722D01*
X8101558Y42375232D01*
X8017215Y42509463D01*
X7889662Y42637016D01*
X7864865Y42652597D01*
X24488835Y42652597D01*
X24509030Y42473351D01*
X24509031Y42473346D01*
X24568611Y42303077D01*
X24656654Y42162958D01*
X24664584Y42150338D01*
X24792138Y42022784D01*
X24944878Y41926811D01*
X25079879Y41879572D01*
X25115145Y41867232D01*
X25115150Y41867231D01*
X25294396Y41847035D01*
X25294400Y41847035D01*
X25294404Y41847035D01*
X25473649Y41867231D01*
X25473652Y41867232D01*
X25473655Y41867232D01*
X25643922Y41926811D01*
X25796662Y42022784D01*
X25924216Y42150338D01*
X26020189Y42303078D01*
X26079768Y42473345D01*
X26083829Y42509385D01*
X27703135Y42509385D01*
X27723330Y42330139D01*
X27723331Y42330134D01*
X27782911Y42159865D01*
X27827879Y42088300D01*
X27878884Y42007126D01*
X28006438Y41879572D01*
X28159178Y41783599D01*
X28329445Y41724020D01*
X28329450Y41724019D01*
X28508696Y41703823D01*
X28508700Y41703823D01*
X28508704Y41703823D01*
X28687949Y41724019D01*
X28687952Y41724020D01*
X28687955Y41724020D01*
X28858222Y41783599D01*
X29010962Y41879572D01*
X29138516Y42007126D01*
X29234489Y42159866D01*
X29294068Y42330133D01*
X29297064Y42356724D01*
X29314265Y42509385D01*
X29314265Y42509392D01*
X29294069Y42688638D01*
X29294068Y42688643D01*
X29266868Y42766376D01*
X29263307Y42836155D01*
X29298036Y42896783D01*
X29360029Y42929010D01*
X29397792Y42930551D01*
X29454216Y42924194D01*
X29506699Y42918280D01*
X29506701Y42918280D01*
X29506705Y42918280D01*
X29685950Y42938476D01*
X29685953Y42938477D01*
X29685956Y42938477D01*
X29856223Y42998056D01*
X30008963Y43094029D01*
X30075531Y43160597D01*
X32083435Y43160597D01*
X32103630Y42981351D01*
X32103631Y42981346D01*
X32163211Y42811077D01*
X32259184Y42658338D01*
X32386738Y42530784D01*
X32539478Y42434811D01*
X32709745Y42375232D01*
X32709750Y42375231D01*
X32888996Y42355035D01*
X32889000Y42355035D01*
X32889004Y42355035D01*
X33068249Y42375231D01*
X33068252Y42375232D01*
X33068255Y42375232D01*
X33238522Y42434811D01*
X33391262Y42530784D01*
X33518816Y42658338D01*
X33614789Y42811078D01*
X33674368Y42981345D01*
X33676709Y43002122D01*
X33694565Y43160597D01*
X33694565Y43160604D01*
X33674369Y43339850D01*
X33674368Y43339855D01*
X33646087Y43420678D01*
X33614789Y43510122D01*
X33518816Y43662862D01*
X33411481Y43770197D01*
X40516235Y43770197D01*
X40536430Y43590951D01*
X40536431Y43590946D01*
X40596011Y43420677D01*
X40648934Y43336451D01*
X40691984Y43267938D01*
X40819538Y43140384D01*
X40972278Y43044411D01*
X41093133Y43002122D01*
X41142545Y42984832D01*
X41142550Y42984831D01*
X41321796Y42964635D01*
X41321800Y42964635D01*
X41321804Y42964635D01*
X41501049Y42984831D01*
X41501052Y42984832D01*
X41501055Y42984832D01*
X41671322Y43044411D01*
X41824062Y43140384D01*
X41951616Y43267938D01*
X42047589Y43420678D01*
X42107168Y43590945D01*
X42115754Y43667146D01*
X42127365Y43770197D01*
X42127365Y43770204D01*
X42107169Y43949450D01*
X42107168Y43949455D01*
X42063809Y44073367D01*
X42047589Y44119722D01*
X41951616Y44272462D01*
X41824062Y44400016D01*
X41671323Y44495989D01*
X41501054Y44555569D01*
X41501049Y44555570D01*
X41321804Y44575765D01*
X41321796Y44575765D01*
X41142550Y44555570D01*
X41142545Y44555569D01*
X40972276Y44495989D01*
X40819537Y44400016D01*
X40691984Y44272463D01*
X40596011Y44119724D01*
X40536431Y43949455D01*
X40536430Y43949450D01*
X40516235Y43770204D01*
X40516235Y43770197D01*
X33411481Y43770197D01*
X33391262Y43790416D01*
X33302169Y43846397D01*
X33238523Y43886389D01*
X33068254Y43945969D01*
X33068249Y43945970D01*
X32889004Y43966165D01*
X32888996Y43966165D01*
X32709750Y43945970D01*
X32709745Y43945969D01*
X32539476Y43886389D01*
X32386737Y43790416D01*
X32259184Y43662863D01*
X32163211Y43510124D01*
X32103631Y43339855D01*
X32103630Y43339850D01*
X32083435Y43160604D01*
X32083435Y43160597D01*
X30075531Y43160597D01*
X30136517Y43221583D01*
X30232490Y43374323D01*
X30292069Y43544590D01*
X30300738Y43621527D01*
X30312266Y43723842D01*
X30312266Y43723849D01*
X30292070Y43903095D01*
X30292069Y43903100D01*
X30275849Y43949455D01*
X30232490Y44073367D01*
X30136517Y44226107D01*
X30008963Y44353661D01*
X29935190Y44400016D01*
X29856224Y44449634D01*
X29685955Y44509214D01*
X29685950Y44509215D01*
X29506705Y44529410D01*
X29506697Y44529410D01*
X29327451Y44509215D01*
X29327446Y44509214D01*
X29157177Y44449634D01*
X29004438Y44353661D01*
X28876885Y44226108D01*
X28780912Y44073369D01*
X28721332Y43903100D01*
X28721331Y43903095D01*
X28701136Y43723849D01*
X28701136Y43723842D01*
X28721331Y43544596D01*
X28721333Y43544588D01*
X28748532Y43466857D01*
X28752093Y43397078D01*
X28717364Y43336451D01*
X28655370Y43304224D01*
X28617607Y43302683D01*
X28508704Y43314953D01*
X28508696Y43314953D01*
X28329450Y43294758D01*
X28329445Y43294757D01*
X28159176Y43235177D01*
X28006437Y43139204D01*
X27878884Y43011651D01*
X27782911Y42858912D01*
X27723331Y42688643D01*
X27723330Y42688638D01*
X27703135Y42509392D01*
X27703135Y42509385D01*
X26083829Y42509385D01*
X26083829Y42509388D01*
X26099965Y42652597D01*
X26099965Y42652604D01*
X26079769Y42831850D01*
X26079767Y42831860D01*
X26058312Y42893172D01*
X26054749Y42962951D01*
X26089478Y43023579D01*
X26151471Y43055806D01*
X26189236Y43057348D01*
X26335796Y43040835D01*
X26335800Y43040835D01*
X26335804Y43040835D01*
X26515049Y43061031D01*
X26515052Y43061032D01*
X26515055Y43061032D01*
X26685322Y43120611D01*
X26838062Y43216584D01*
X26965616Y43344138D01*
X27061589Y43496878D01*
X27121168Y43667145D01*
X27127556Y43723842D01*
X27141365Y43846397D01*
X27141365Y43846404D01*
X27121169Y44025650D01*
X27121168Y44025655D01*
X27104472Y44073369D01*
X27061589Y44195922D01*
X27042622Y44226107D01*
X26965615Y44348663D01*
X26838062Y44476216D01*
X26685323Y44572189D01*
X26515054Y44631769D01*
X26515049Y44631770D01*
X26335804Y44651965D01*
X26335796Y44651965D01*
X26156550Y44631770D01*
X26156545Y44631769D01*
X25986276Y44572189D01*
X25833537Y44476216D01*
X25705984Y44348663D01*
X25610011Y44195924D01*
X25550431Y44025655D01*
X25550430Y44025650D01*
X25530235Y43846404D01*
X25530235Y43846397D01*
X25550430Y43667151D01*
X25550433Y43667138D01*
X25571887Y43605828D01*
X25575449Y43536049D01*
X25540721Y43475422D01*
X25478727Y43443194D01*
X25440963Y43441653D01*
X25294404Y43458165D01*
X25294396Y43458165D01*
X25115150Y43437970D01*
X25115145Y43437969D01*
X24944876Y43378389D01*
X24792137Y43282416D01*
X24664584Y43154863D01*
X24568611Y43002124D01*
X24509031Y42831855D01*
X24509030Y42831850D01*
X24488835Y42652604D01*
X24488835Y42652597D01*
X7864865Y42652597D01*
X7736923Y42732989D01*
X7566654Y42792569D01*
X7566649Y42792570D01*
X7387404Y42812765D01*
X7387396Y42812765D01*
X7208150Y42792570D01*
X7208145Y42792569D01*
X7037876Y42732989D01*
X6885137Y42637016D01*
X6757584Y42509463D01*
X6661610Y42356722D01*
X6602028Y42186445D01*
X6601043Y42182127D01*
X6566929Y42121152D01*
X6505264Y42088300D01*
X6439200Y42092690D01*
X6296662Y42142567D01*
X6296649Y42142570D01*
X6117404Y42162765D01*
X6117396Y42162765D01*
X5938150Y42142570D01*
X5938145Y42142569D01*
X5767876Y42082989D01*
X5615137Y41987016D01*
X5487584Y41859463D01*
X5391611Y41706724D01*
X5332031Y41536455D01*
X5332030Y41536450D01*
X5311835Y41357204D01*
X5311835Y41357197D01*
X1588395Y41357197D01*
X1585369Y41384050D01*
X1585368Y41384055D01*
X1525789Y41554322D01*
X1429816Y41707062D01*
X1302262Y41834616D01*
X1262720Y41859462D01*
X1149523Y41930589D01*
X979254Y41990169D01*
X979249Y41990170D01*
X800004Y42010365D01*
X799996Y42010365D01*
X638383Y41992156D01*
X569561Y42004211D01*
X518182Y42051560D01*
X500500Y42115376D01*
X500500Y43236800D01*
X1708459Y43236800D01*
X1727775Y43040671D01*
X1727776Y43040668D01*
X1782911Y42858912D01*
X1784988Y42852067D01*
X1877886Y42678268D01*
X1877890Y42678261D01*
X2002916Y42525917D01*
X2155260Y42400891D01*
X2155267Y42400887D01*
X2329066Y42307989D01*
X2329069Y42307989D01*
X2329073Y42307986D01*
X2517668Y42250776D01*
X2713800Y42231459D01*
X2909932Y42250776D01*
X3098527Y42307986D01*
X3139973Y42330139D01*
X3272332Y42400887D01*
X3272338Y42400890D01*
X3424683Y42525917D01*
X3549710Y42678262D01*
X3620702Y42811078D01*
X3642611Y42852067D01*
X3642611Y42852068D01*
X3642614Y42852073D01*
X3699824Y43040668D01*
X3719141Y43236800D01*
X3699824Y43432932D01*
X3642614Y43621527D01*
X3642611Y43621531D01*
X3642611Y43621534D01*
X3549713Y43795333D01*
X3549709Y43795340D01*
X3424683Y43947684D01*
X3272339Y44072710D01*
X3272332Y44072714D01*
X3098533Y44165612D01*
X3098527Y44165614D01*
X2909932Y44222824D01*
X2909929Y44222825D01*
X2713800Y44242141D01*
X2517670Y44222825D01*
X2329066Y44165612D01*
X2155267Y44072714D01*
X2155260Y44072710D01*
X2002916Y43947684D01*
X1877890Y43795340D01*
X1877886Y43795333D01*
X1784988Y43621534D01*
X1727775Y43432930D01*
X1708459Y43236800D01*
X500500Y43236800D01*
X500500Y45903797D01*
X18011835Y45903797D01*
X18032030Y45724551D01*
X18032031Y45724546D01*
X18091611Y45554277D01*
X18171410Y45427278D01*
X18187584Y45401538D01*
X18315138Y45273984D01*
X18467878Y45178011D01*
X18556548Y45146984D01*
X18638145Y45118432D01*
X18638150Y45118431D01*
X18817396Y45098235D01*
X18817400Y45098235D01*
X18817404Y45098235D01*
X18996649Y45118431D01*
X18996652Y45118432D01*
X18996655Y45118432D01*
X19166922Y45178011D01*
X19319662Y45273984D01*
X19447216Y45401538D01*
X19543189Y45554278D01*
X19602768Y45724545D01*
X19602769Y45724551D01*
X19608656Y45776797D01*
X28654435Y45776797D01*
X28674630Y45597551D01*
X28674631Y45597546D01*
X28734211Y45427277D01*
X28830184Y45274538D01*
X28957738Y45146984D01*
X29110478Y45051011D01*
X29280745Y44991432D01*
X29280750Y44991431D01*
X29459996Y44971235D01*
X29460000Y44971235D01*
X29460004Y44971235D01*
X29639249Y44991431D01*
X29639252Y44991432D01*
X29639255Y44991432D01*
X29809522Y45051011D01*
X29962262Y45146984D01*
X30089816Y45274538D01*
X30185789Y45427278D01*
X30245368Y45597545D01*
X30245369Y45597551D01*
X30265565Y45776797D01*
X30265565Y45776804D01*
X30245369Y45956050D01*
X30245368Y45956055D01*
X30207794Y46063435D01*
X30185789Y46126322D01*
X30089816Y46279062D01*
X29962262Y46406616D01*
X29809523Y46502589D01*
X29639254Y46562169D01*
X29639249Y46562170D01*
X29460004Y46582365D01*
X29459996Y46582365D01*
X29280750Y46562170D01*
X29280745Y46562169D01*
X29110476Y46502589D01*
X28957737Y46406616D01*
X28830184Y46279063D01*
X28734211Y46126324D01*
X28674631Y45956055D01*
X28674630Y45956050D01*
X28654435Y45776804D01*
X28654435Y45776797D01*
X19608656Y45776797D01*
X19622965Y45903797D01*
X19622965Y45903804D01*
X19602769Y46083050D01*
X19602768Y46083055D01*
X19587628Y46126322D01*
X19543189Y46253322D01*
X19527015Y46279062D01*
X19447215Y46406063D01*
X19319662Y46533616D01*
X19166923Y46629589D01*
X18996654Y46689169D01*
X18996649Y46689170D01*
X18817404Y46709365D01*
X18817396Y46709365D01*
X18638150Y46689170D01*
X18638145Y46689169D01*
X18467876Y46629589D01*
X18315137Y46533616D01*
X18187584Y46406063D01*
X18091611Y46253324D01*
X18032031Y46083055D01*
X18032030Y46083050D01*
X18011835Y45903804D01*
X18011835Y45903797D01*
X500500Y45903797D01*
X500500Y46868997D01*
X13389035Y46868997D01*
X13409230Y46689751D01*
X13409231Y46689746D01*
X13468811Y46519477D01*
X13479423Y46502589D01*
X13564784Y46366738D01*
X13692338Y46239184D01*
X13845078Y46143211D01*
X14015345Y46083632D01*
X14015350Y46083631D01*
X14194596Y46063435D01*
X14194600Y46063435D01*
X14194604Y46063435D01*
X14373849Y46083631D01*
X14373852Y46083632D01*
X14373855Y46083632D01*
X14544122Y46143211D01*
X14696862Y46239184D01*
X14824416Y46366738D01*
X14920389Y46519478D01*
X14979968Y46689745D01*
X15000165Y46869000D01*
X14979968Y47048255D01*
X14920389Y47218522D01*
X14824416Y47371262D01*
X14696862Y47498816D01*
X14544123Y47594789D01*
X14373854Y47654369D01*
X14373849Y47654370D01*
X14194604Y47674565D01*
X14194596Y47674565D01*
X14015350Y47654370D01*
X14015345Y47654369D01*
X13845076Y47594789D01*
X13692337Y47498816D01*
X13564784Y47371263D01*
X13468811Y47218524D01*
X13409231Y47048255D01*
X13409230Y47048250D01*
X13389035Y46869004D01*
X13389035Y46868997D01*
X500500Y46868997D01*
X500500Y51009197D01*
X1806635Y51009197D01*
X1826830Y50829951D01*
X1826831Y50829946D01*
X1886411Y50659677D01*
X1973178Y50521589D01*
X1982384Y50506938D01*
X2109938Y50379384D01*
X2156801Y50349938D01*
X2255258Y50288073D01*
X2301549Y50235738D01*
X2312197Y50166684D01*
X2289604Y50110194D01*
X2213170Y50004992D01*
X2134528Y49850648D01*
X2080997Y49685898D01*
X2057066Y49534798D01*
X2053900Y49514811D01*
X2053900Y49341589D01*
X2080998Y49170499D01*
X2134527Y49005755D01*
X2213168Y48851412D01*
X2314986Y48711272D01*
X2437472Y48588786D01*
X2577612Y48486968D01*
X2731955Y48408327D01*
X2896699Y48354798D01*
X3067789Y48327700D01*
X3067790Y48327700D01*
X3941010Y48327700D01*
X3941011Y48327700D01*
X4112101Y48354798D01*
X4276845Y48408327D01*
X4431188Y48486968D01*
X4571328Y48588786D01*
X4693814Y48711272D01*
X4795632Y48851412D01*
X4874273Y49005755D01*
X4927802Y49170499D01*
X4954900Y49341589D01*
X4954900Y49514811D01*
X4927802Y49685901D01*
X4874273Y49850645D01*
X4795632Y50004988D01*
X4693814Y50145128D01*
X4571328Y50267614D01*
X4431188Y50369432D01*
X4276845Y50448073D01*
X4112101Y50501602D01*
X4112099Y50501603D01*
X4112098Y50501603D01*
X3980671Y50522419D01*
X3941011Y50528700D01*
X3941010Y50528700D01*
X3466920Y50528700D01*
X3399881Y50548385D01*
X3354126Y50601189D01*
X3344182Y50670347D01*
X3349878Y50693655D01*
X3397568Y50829945D01*
X3397569Y50829951D01*
X3417765Y51009197D01*
X3417765Y51009204D01*
X3397569Y51188450D01*
X3397568Y51188455D01*
X3380300Y51237804D01*
X3337989Y51358722D01*
X3332987Y51366682D01*
X3252840Y51494236D01*
X3242016Y51511462D01*
X3114462Y51639016D01*
X3076879Y51662631D01*
X3875571Y51662631D01*
X3894887Y51466502D01*
X3952100Y51277898D01*
X4044998Y51104099D01*
X4045002Y51104092D01*
X4170028Y50951748D01*
X4322372Y50826722D01*
X4322379Y50826718D01*
X4496178Y50733820D01*
X4496181Y50733820D01*
X4496185Y50733817D01*
X4684780Y50676607D01*
X4880912Y50657290D01*
X5067748Y50675692D01*
X5136392Y50662673D01*
X5187102Y50614608D01*
X5203900Y50552289D01*
X5203900Y50521589D01*
X5207066Y50501602D01*
X5230650Y50352693D01*
X5230998Y50350499D01*
X5272625Y50222384D01*
X5284528Y50185753D01*
X5314764Y50126411D01*
X5363168Y50031412D01*
X5464986Y49891272D01*
X5587472Y49768786D01*
X5621747Y49743884D01*
X5664411Y49688555D01*
X5670390Y49618941D01*
X5637784Y49557146D01*
X5607314Y49534209D01*
X5558864Y49508312D01*
X5558860Y49508310D01*
X5406516Y49383284D01*
X5281490Y49230940D01*
X5281486Y49230933D01*
X5188588Y49057134D01*
X5131375Y48868530D01*
X5112059Y48672400D01*
X5131375Y48476271D01*
X5188588Y48287667D01*
X5281486Y48113868D01*
X5281490Y48113861D01*
X5406516Y47961517D01*
X5558860Y47836491D01*
X5558867Y47836487D01*
X5732666Y47743589D01*
X5732669Y47743589D01*
X5732673Y47743586D01*
X5921268Y47686376D01*
X6117400Y47667059D01*
X6313532Y47686376D01*
X6502127Y47743586D01*
X6675938Y47836490D01*
X6828283Y47961517D01*
X6953310Y48113862D01*
X7046214Y48287673D01*
X7103424Y48476268D01*
X7122741Y48672400D01*
X7103424Y48868532D01*
X7046214Y49057127D01*
X7046211Y49057131D01*
X7046211Y49057134D01*
X6953313Y49230933D01*
X6953309Y49230940D01*
X6831446Y49379429D01*
X6804133Y49443739D01*
X6815924Y49512606D01*
X6863076Y49564167D01*
X6888977Y49576024D01*
X6926845Y49588327D01*
X7081188Y49666968D01*
X7221328Y49768786D01*
X7343814Y49891272D01*
X7445632Y50031412D01*
X7524273Y50185755D01*
X7577802Y50350499D01*
X7604900Y50521589D01*
X7604900Y50694811D01*
X7577802Y50865901D01*
X7524273Y51030645D01*
X7445632Y51184988D01*
X7343814Y51325128D01*
X7221328Y51447614D01*
X7081188Y51549432D01*
X6926845Y51628073D01*
X6762101Y51681602D01*
X6762099Y51681603D01*
X6762098Y51681603D01*
X6630671Y51702419D01*
X6591011Y51708700D01*
X6217789Y51708700D01*
X6175016Y51701926D01*
X6046696Y51681602D01*
X6036022Y51678134D01*
X5966181Y51676142D01*
X5906350Y51712226D01*
X5875525Y51774929D01*
X5874309Y51783895D01*
X5866936Y51858763D01*
X5847269Y51923597D01*
X10877035Y51923597D01*
X10897230Y51744351D01*
X10897231Y51744346D01*
X10956811Y51574077D01*
X11024407Y51466499D01*
X11052784Y51421338D01*
X11180338Y51293784D01*
X11209437Y51275500D01*
X11255728Y51223165D01*
X11266376Y51154111D01*
X11238001Y51090263D01*
X11231147Y51082825D01*
X11100983Y50952661D01*
X11005011Y50799924D01*
X10945431Y50629655D01*
X10945430Y50629650D01*
X10925235Y50450404D01*
X10925235Y50450397D01*
X10945430Y50271151D01*
X10945431Y50271146D01*
X11005011Y50100877D01*
X11038821Y50047069D01*
X11100984Y49948138D01*
X11228538Y49820584D01*
X11381278Y49724611D01*
X11546009Y49666969D01*
X11551548Y49665031D01*
X11558334Y49663482D01*
X11557826Y49661258D01*
X11612269Y49638392D01*
X11651027Y49583182D01*
X11665409Y49542080D01*
X11761384Y49389338D01*
X11888938Y49261784D01*
X11938026Y49230940D01*
X12034210Y49170503D01*
X12041678Y49165811D01*
X12211945Y49106232D01*
X12211950Y49106231D01*
X12391196Y49086035D01*
X12391200Y49086035D01*
X12391204Y49086035D01*
X12570449Y49106231D01*
X12570452Y49106232D01*
X12570455Y49106232D01*
X12740722Y49165811D01*
X12893462Y49261784D01*
X13021016Y49389338D01*
X13116989Y49542078D01*
X13176568Y49712345D01*
X13177888Y49724057D01*
X13196765Y49891597D01*
X13196765Y49891604D01*
X13176569Y50070850D01*
X13176568Y50070855D01*
X13136363Y50185755D01*
X13116989Y50241122D01*
X13021016Y50393862D01*
X12893462Y50521416D01*
X12798654Y50580988D01*
X12740721Y50617390D01*
X12581935Y50672951D01*
X12570455Y50676968D01*
X12570454Y50676969D01*
X12570446Y50676971D01*
X12563659Y50678520D01*
X12564165Y50680740D01*
X12509710Y50703625D01*
X12470970Y50758822D01*
X12463348Y50780604D01*
X12456589Y50799922D01*
X12456589Y50799923D01*
X12361190Y50951748D01*
X12360616Y50952662D01*
X12233062Y51080216D01*
X12228910Y51082825D01*
X12203961Y51098502D01*
X12157670Y51150837D01*
X12147023Y51219891D01*
X12175399Y51283739D01*
X12182253Y51291177D01*
X12184856Y51293781D01*
X12184862Y51293784D01*
X12312416Y51421338D01*
X12408389Y51574078D01*
X12467968Y51744345D01*
X12467969Y51744351D01*
X12488165Y51923597D01*
X12488165Y51923604D01*
X12467969Y52102850D01*
X12467968Y52102855D01*
X12442322Y52176146D01*
X12408389Y52273122D01*
X12312416Y52425862D01*
X12184862Y52553416D01*
X12141577Y52580614D01*
X12032123Y52649389D01*
X11861854Y52708969D01*
X11861849Y52708970D01*
X11682604Y52729165D01*
X11682596Y52729165D01*
X11503350Y52708970D01*
X11503345Y52708969D01*
X11333076Y52649389D01*
X11180337Y52553416D01*
X11052784Y52425863D01*
X10956811Y52273124D01*
X10897231Y52102855D01*
X10897230Y52102850D01*
X10877035Y51923604D01*
X10877035Y51923597D01*
X5847269Y51923597D01*
X5809726Y52047358D01*
X5809723Y52047362D01*
X5809723Y52047365D01*
X5716825Y52221164D01*
X5716821Y52221171D01*
X5591795Y52373515D01*
X5439451Y52498541D01*
X5439444Y52498545D01*
X5265645Y52591443D01*
X5265639Y52591445D01*
X5077044Y52648655D01*
X5077041Y52648656D01*
X4880912Y52667972D01*
X4684782Y52648656D01*
X4496178Y52591443D01*
X4322379Y52498545D01*
X4322372Y52498541D01*
X4170028Y52373515D01*
X4045002Y52221171D01*
X4044998Y52221164D01*
X3952100Y52047365D01*
X3894887Y51858761D01*
X3875571Y51662631D01*
X3076879Y51662631D01*
X2961723Y51734989D01*
X2791454Y51794569D01*
X2791449Y51794570D01*
X2612204Y51814765D01*
X2612196Y51814765D01*
X2432950Y51794570D01*
X2432945Y51794569D01*
X2262676Y51734989D01*
X2109937Y51639016D01*
X1982384Y51511463D01*
X1886411Y51358724D01*
X1826831Y51188455D01*
X1826830Y51188450D01*
X1806635Y51009204D01*
X1806635Y51009197D01*
X500500Y51009197D01*
X500500Y52848852D01*
X14670565Y52848852D01*
X14690760Y52669606D01*
X14690761Y52669601D01*
X14750341Y52499332D01*
X14846314Y52346593D01*
X14973869Y52219038D01*
X15093349Y52143963D01*
X15139639Y52091629D01*
X15150287Y52022575D01*
X15121912Y51958727D01*
X15093349Y51933977D01*
X14987739Y51867618D01*
X14860184Y51740063D01*
X14764211Y51587324D01*
X14704631Y51417055D01*
X14704630Y51417050D01*
X14684435Y51237804D01*
X14684435Y51237797D01*
X14704630Y51058551D01*
X14704631Y51058546D01*
X14764211Y50888277D01*
X14845554Y50758822D01*
X14860184Y50735538D01*
X14987738Y50607984D01*
X15030702Y50580988D01*
X15135881Y50514899D01*
X15140478Y50512011D01*
X15181631Y50497611D01*
X15310745Y50452432D01*
X15310750Y50452431D01*
X15489996Y50432235D01*
X15490000Y50432235D01*
X15490004Y50432235D01*
X15669249Y50452431D01*
X15669252Y50452432D01*
X15669255Y50452432D01*
X15839522Y50512011D01*
X15844119Y50514899D01*
X15949298Y50580988D01*
X16016535Y50599989D01*
X16083370Y50579622D01*
X16128585Y50526354D01*
X16132313Y50516949D01*
X16133030Y50514899D01*
X16194020Y50417835D01*
X16229004Y50362158D01*
X16356558Y50234604D01*
X16509298Y50138631D01*
X16598717Y50107342D01*
X16679565Y50079052D01*
X16679570Y50079051D01*
X16858816Y50058855D01*
X16858820Y50058855D01*
X16858824Y50058855D01*
X17038069Y50079051D01*
X17038072Y50079052D01*
X17038075Y50079052D01*
X17208342Y50138631D01*
X17361082Y50234604D01*
X17488636Y50362158D01*
X17584609Y50514898D01*
X17644188Y50685165D01*
X17654941Y50780600D01*
X17664385Y50864417D01*
X17664385Y50864424D01*
X17644189Y51043670D01*
X17644188Y51043675D01*
X17593527Y51188455D01*
X17584609Y51213942D01*
X17569615Y51237804D01*
X17496314Y51354462D01*
X17488636Y51366682D01*
X17361082Y51494236D01*
X17208343Y51590209D01*
X17038074Y51649789D01*
X17038069Y51649790D01*
X16858824Y51669985D01*
X16858816Y51669985D01*
X16679570Y51649790D01*
X16679565Y51649789D01*
X16509294Y51590208D01*
X16399519Y51521232D01*
X16332283Y51502232D01*
X16265448Y51522600D01*
X16220234Y51575868D01*
X16216504Y51585279D01*
X16215789Y51587322D01*
X16163848Y51669985D01*
X16119816Y51740062D01*
X15992262Y51867616D01*
X15992260Y51867618D01*
X15872780Y51942693D01*
X15826489Y51995028D01*
X15815842Y52064081D01*
X15844217Y52127929D01*
X15872777Y52152677D01*
X15978392Y52219039D01*
X16105946Y52346593D01*
X16201919Y52499333D01*
X16261498Y52669600D01*
X16265478Y52704924D01*
X16281695Y52848852D01*
X16281695Y52848859D01*
X16260719Y53035030D01*
X16263749Y53035372D01*
X16267195Y53091609D01*
X16308492Y53147968D01*
X16373704Y53173052D01*
X16442125Y53158899D01*
X16449791Y53154455D01*
X16450878Y53153772D01*
X16596516Y53102811D01*
X16621145Y53094193D01*
X16621150Y53094192D01*
X16800396Y53073996D01*
X16800400Y53073996D01*
X16800404Y53073996D01*
X16979649Y53094192D01*
X16979652Y53094193D01*
X16979655Y53094193D01*
X17149922Y53153772D01*
X17302662Y53249745D01*
X17430216Y53377299D01*
X17526189Y53530039D01*
X17551292Y53601784D01*
X17592013Y53658559D01*
X17654451Y53684049D01*
X17828249Y53703631D01*
X17828252Y53703632D01*
X17828255Y53703632D01*
X17998522Y53763211D01*
X18151262Y53859184D01*
X18247809Y53955732D01*
X18309128Y53989214D01*
X18378820Y53984230D01*
X18423168Y53955729D01*
X18442513Y53936384D01*
X18443223Y53935938D01*
X18565377Y53859183D01*
X18595253Y53840411D01*
X18743289Y53788611D01*
X18765520Y53780832D01*
X18765525Y53780831D01*
X18901586Y53765501D01*
X18966000Y53738435D01*
X19004744Y53683236D01*
X19016601Y53649351D01*
X19051598Y53549334D01*
X19095743Y53479078D01*
X19147572Y53396593D01*
X19275126Y53269039D01*
X19417062Y53179855D01*
X19463353Y53127520D01*
X19474310Y53088745D01*
X19479830Y53039751D01*
X19479831Y53039746D01*
X19479832Y53039745D01*
X19483903Y53028110D01*
X19539411Y52869477D01*
X19578150Y52807825D01*
X19597150Y52740588D01*
X19576782Y52673753D01*
X19560838Y52654173D01*
X19511131Y52604466D01*
X19415156Y52451724D01*
X19355576Y52281455D01*
X19355575Y52281450D01*
X19335380Y52102204D01*
X19335380Y52102197D01*
X19355575Y51922951D01*
X19355577Y51922943D01*
X19416402Y51749114D01*
X19419963Y51679335D01*
X19385234Y51618708D01*
X19323241Y51586481D01*
X19285477Y51584940D01*
X19274604Y51586165D01*
X19274596Y51586165D01*
X19095350Y51565970D01*
X19095345Y51565969D01*
X18925076Y51506389D01*
X18772337Y51410416D01*
X18644784Y51282863D01*
X18548811Y51130124D01*
X18489231Y50959855D01*
X18489230Y50959850D01*
X18469035Y50780604D01*
X18469035Y50780597D01*
X18489230Y50601351D01*
X18489231Y50601346D01*
X18519331Y50515327D01*
X18522892Y50445548D01*
X18488163Y50384920D01*
X18426170Y50352693D01*
X18402289Y50350372D01*
X18396228Y50350372D01*
X18216982Y50330177D01*
X18216977Y50330176D01*
X18046708Y50270596D01*
X17893969Y50174623D01*
X17766416Y50047070D01*
X17670443Y49894331D01*
X17610863Y49724062D01*
X17610862Y49724057D01*
X17590667Y49544811D01*
X17590667Y49544804D01*
X17610862Y49365558D01*
X17610863Y49365553D01*
X17670443Y49195284D01*
X17766416Y49042545D01*
X17893970Y48914991D01*
X18046710Y48819018D01*
X18216977Y48759439D01*
X18216982Y48759438D01*
X18396228Y48739242D01*
X18396232Y48739242D01*
X18396236Y48739242D01*
X18575481Y48759438D01*
X18575484Y48759439D01*
X18575487Y48759439D01*
X18745754Y48819018D01*
X18898494Y48914991D01*
X19026048Y49042545D01*
X19122021Y49195285D01*
X19181600Y49365552D01*
X19184280Y49389338D01*
X19201797Y49544804D01*
X19201797Y49544811D01*
X19181601Y49724057D01*
X19181600Y49724062D01*
X19151501Y49810080D01*
X19147940Y49879859D01*
X19182669Y49940487D01*
X19244662Y49972714D01*
X19268543Y49975035D01*
X19274604Y49975035D01*
X19453849Y49995231D01*
X19453852Y49995232D01*
X19453855Y49995232D01*
X19624122Y50054811D01*
X19707725Y50107343D01*
X19774959Y50126343D01*
X19814651Y50119390D01*
X19964845Y50066834D01*
X19964851Y50066833D01*
X19964853Y50066832D01*
X19964854Y50066832D01*
X19964858Y50066831D01*
X20144104Y50046635D01*
X20144108Y50046635D01*
X20144112Y50046635D01*
X20323357Y50066831D01*
X20323360Y50066832D01*
X20323363Y50066832D01*
X20493630Y50126411D01*
X20646370Y50222384D01*
X20773924Y50349938D01*
X20869897Y50502678D01*
X20929476Y50672945D01*
X20929889Y50676607D01*
X20949673Y50852197D01*
X20949673Y50852204D01*
X20929477Y51031450D01*
X20929476Y51031455D01*
X20874539Y51188455D01*
X20869897Y51201722D01*
X20862217Y51213944D01*
X20856277Y51223397D01*
X26227835Y51223397D01*
X26248030Y51044151D01*
X26248031Y51044146D01*
X26307611Y50873877D01*
X26394536Y50735538D01*
X26403584Y50721138D01*
X26531138Y50593584D01*
X26596859Y50552289D01*
X26677524Y50501603D01*
X26683878Y50497611D01*
X26825452Y50448072D01*
X26854145Y50438032D01*
X26854150Y50438031D01*
X27033396Y50417835D01*
X27033400Y50417835D01*
X27033404Y50417835D01*
X27212649Y50438031D01*
X27212652Y50438032D01*
X27212655Y50438032D01*
X27382922Y50497611D01*
X27535662Y50593584D01*
X27663216Y50721138D01*
X27759189Y50873878D01*
X27818768Y51044145D01*
X27818769Y51044151D01*
X27838965Y51223397D01*
X27838965Y51223404D01*
X27818769Y51402650D01*
X27818768Y51402655D01*
X27786722Y51494236D01*
X27759189Y51572922D01*
X27758463Y51574077D01*
X27698200Y51669985D01*
X27663216Y51725662D01*
X27535662Y51853216D01*
X27512745Y51867616D01*
X27382923Y51949189D01*
X27212654Y52008769D01*
X27212649Y52008770D01*
X27033404Y52028965D01*
X27033396Y52028965D01*
X26854150Y52008770D01*
X26854145Y52008769D01*
X26683876Y51949189D01*
X26531137Y51853216D01*
X26403584Y51725663D01*
X26307611Y51572924D01*
X26248031Y51402655D01*
X26248030Y51402650D01*
X26227835Y51223404D01*
X26227835Y51223397D01*
X20856277Y51223397D01*
X20813689Y51291177D01*
X20773924Y51354462D01*
X20737285Y51391101D01*
X20703800Y51452424D01*
X20708784Y51522116D01*
X20737284Y51566462D01*
X20770761Y51599938D01*
X20866734Y51752678D01*
X20926313Y51922945D01*
X20926314Y51922951D01*
X20946510Y52102197D01*
X20946510Y52102204D01*
X20926314Y52281450D01*
X20926313Y52281455D01*
X20903520Y52346593D01*
X20900439Y52355397D01*
X22781835Y52355397D01*
X22802030Y52176151D01*
X22802031Y52176146D01*
X22861611Y52005877D01*
X22948486Y51867618D01*
X22957584Y51853138D01*
X23085138Y51725584D01*
X23112009Y51708700D01*
X23205766Y51649788D01*
X23237878Y51629611D01*
X23391467Y51575868D01*
X23408145Y51570032D01*
X23408150Y51570031D01*
X23587396Y51549835D01*
X23587400Y51549835D01*
X23587404Y51549835D01*
X23766649Y51570031D01*
X23766652Y51570032D01*
X23766655Y51570032D01*
X23936922Y51629611D01*
X24089662Y51725584D01*
X24217216Y51853138D01*
X24313189Y52005878D01*
X24372768Y52176145D01*
X24377601Y52219040D01*
X24392965Y52355397D01*
X24392965Y52355404D01*
X24372769Y52534650D01*
X24372768Y52534655D01*
X24330947Y52654173D01*
X24313189Y52704922D01*
X24313188Y52704924D01*
X24313187Y52704927D01*
X24220818Y52851930D01*
X24201817Y52919166D01*
X24222184Y52986001D01*
X24275452Y53031216D01*
X24311926Y53041122D01*
X24330655Y53043232D01*
X24500922Y53102811D01*
X24653662Y53198784D01*
X24781216Y53326338D01*
X24877189Y53479078D01*
X24935707Y53646314D01*
X24976428Y53703088D01*
X25011794Y53722400D01*
X25057619Y53738435D01*
X25168026Y53777068D01*
X25320766Y53873041D01*
X25448320Y54000595D01*
X25544293Y54153335D01*
X25603872Y54323602D01*
X25604691Y54330863D01*
X25615389Y54425820D01*
X25630517Y54461823D01*
X25846668Y54461823D01*
X25860749Y54433332D01*
X25861829Y54425821D01*
X25880630Y54258950D01*
X25880631Y54258946D01*
X25940211Y54088677D01*
X25995557Y54000595D01*
X26036184Y53935938D01*
X26163738Y53808384D01*
X26209933Y53779358D01*
X26305036Y53719600D01*
X26316478Y53712411D01*
X26425559Y53674242D01*
X26486745Y53652832D01*
X26486750Y53652831D01*
X26665996Y53632635D01*
X26666000Y53632635D01*
X26666004Y53632635D01*
X26845249Y53652831D01*
X26845252Y53652832D01*
X26845255Y53652832D01*
X27015522Y53712411D01*
X27168262Y53808384D01*
X27295816Y53935938D01*
X27391789Y54088678D01*
X27451368Y54258945D01*
X27451369Y54258951D01*
X27471565Y54438197D01*
X27471565Y54438204D01*
X27451369Y54617450D01*
X27451368Y54617455D01*
X27428745Y54682107D01*
X27391789Y54787722D01*
X27295816Y54940462D01*
X27168262Y55068016D01*
X27118200Y55099472D01*
X27015523Y55163989D01*
X26845254Y55223569D01*
X26845249Y55223570D01*
X26666004Y55243765D01*
X26665996Y55243765D01*
X26486750Y55223570D01*
X26486745Y55223569D01*
X26316476Y55163989D01*
X26163737Y55068016D01*
X26036184Y54940463D01*
X25940211Y54787724D01*
X25880631Y54617455D01*
X25880630Y54617451D01*
X25869114Y54515237D01*
X25846668Y54461823D01*
X25630517Y54461823D01*
X25637833Y54479236D01*
X25623753Y54507727D01*
X25622674Y54515238D01*
X25603873Y54682107D01*
X25603872Y54682112D01*
X25586671Y54731270D01*
X25544293Y54852379D01*
X25448320Y55005119D01*
X25320766Y55132673D01*
X25168027Y55228646D01*
X24997758Y55288226D01*
X24997753Y55288227D01*
X24818508Y55308422D01*
X24818500Y55308422D01*
X24639254Y55288227D01*
X24639249Y55288226D01*
X24468980Y55228646D01*
X24316241Y55132673D01*
X24188688Y55005120D01*
X24092715Y54852381D01*
X24034197Y54685144D01*
X23993475Y54628368D01*
X23958110Y54609057D01*
X23801877Y54554389D01*
X23649137Y54458416D01*
X23521584Y54330863D01*
X23425611Y54178124D01*
X23366031Y54007855D01*
X23366030Y54007850D01*
X23345835Y53828604D01*
X23345835Y53828597D01*
X23366030Y53649351D01*
X23366031Y53649346D01*
X23425611Y53479077D01*
X23517982Y53332071D01*
X23536982Y53264835D01*
X23516614Y53197999D01*
X23463347Y53152785D01*
X23426873Y53142879D01*
X23408149Y53140770D01*
X23408145Y53140769D01*
X23237876Y53081189D01*
X23085137Y52985216D01*
X22957584Y52857663D01*
X22861611Y52704924D01*
X22802031Y52534655D01*
X22802030Y52534650D01*
X22781835Y52355404D01*
X22781835Y52355397D01*
X20900439Y52355397D01*
X20866734Y52451722D01*
X20837316Y52498541D01*
X20827994Y52513377D01*
X20808994Y52580614D01*
X20829362Y52647449D01*
X20845305Y52667028D01*
X20895016Y52716738D01*
X20990989Y52869478D01*
X21050568Y53039745D01*
X21050569Y53039751D01*
X21070765Y53218997D01*
X21070765Y53219004D01*
X21050569Y53398250D01*
X21050568Y53398255D01*
X21004454Y53530040D01*
X20990989Y53568522D01*
X20987142Y53574644D01*
X20942755Y53645286D01*
X20923755Y53712522D01*
X20944123Y53779358D01*
X20965932Y53803266D01*
X20965738Y53803460D01*
X20969965Y53807688D01*
X20970443Y53808211D01*
X20970648Y53808376D01*
X20970662Y53808384D01*
X21098216Y53935938D01*
X21194189Y54088678D01*
X21253768Y54258945D01*
X21253769Y54258951D01*
X21273965Y54438197D01*
X21273965Y54438204D01*
X21253769Y54617450D01*
X21253768Y54617455D01*
X21231145Y54682107D01*
X21194189Y54787722D01*
X21098216Y54940462D01*
X20970662Y55068016D01*
X20920600Y55099472D01*
X20817923Y55163989D01*
X20647654Y55223569D01*
X20647649Y55223570D01*
X20468404Y55243765D01*
X20468396Y55243765D01*
X20289150Y55223570D01*
X20289145Y55223569D01*
X20118876Y55163989D01*
X19966139Y55068017D01*
X19835801Y54937679D01*
X19774478Y54904195D01*
X19704786Y54909179D01*
X19648853Y54951051D01*
X19643126Y54959389D01*
X19607139Y55016662D01*
X19574591Y55068462D01*
X19447037Y55196016D01*
X19417160Y55214789D01*
X19294298Y55291989D01*
X19124029Y55351569D01*
X19124024Y55351570D01*
X18944779Y55371765D01*
X18944771Y55371765D01*
X18765525Y55351570D01*
X18765520Y55351569D01*
X18595251Y55291989D01*
X18442514Y55196017D01*
X18345968Y55099471D01*
X18284644Y55065987D01*
X18214953Y55070971D01*
X18170606Y55099472D01*
X18151262Y55118816D01*
X17998523Y55214789D01*
X17828254Y55274369D01*
X17828249Y55274370D01*
X17649004Y55294565D01*
X17648996Y55294565D01*
X17469750Y55274370D01*
X17469745Y55274369D01*
X17299476Y55214789D01*
X17146737Y55118816D01*
X17019184Y54991263D01*
X16923209Y54838521D01*
X16898105Y54766777D01*
X16857383Y54710002D01*
X16794947Y54684513D01*
X16689657Y54672650D01*
X16620835Y54684705D01*
X16569456Y54732054D01*
X16558732Y54754916D01*
X16520589Y54863922D01*
X16474244Y54937679D01*
X16424616Y55016662D01*
X16297062Y55144216D01*
X16144323Y55240189D01*
X15974054Y55299769D01*
X15974049Y55299770D01*
X15794804Y55319965D01*
X15794796Y55319965D01*
X15615550Y55299770D01*
X15615545Y55299769D01*
X15445276Y55240189D01*
X15292537Y55144216D01*
X15164984Y55016663D01*
X15069011Y54863924D01*
X15009431Y54693655D01*
X15009430Y54693650D01*
X14989235Y54514404D01*
X14989235Y54514397D01*
X15009430Y54335151D01*
X15009431Y54335146D01*
X15069011Y54164877D01*
X15116891Y54088677D01*
X15164984Y54012138D01*
X15292538Y53884584D01*
X15332493Y53859479D01*
X15378784Y53807144D01*
X15389432Y53738091D01*
X15361057Y53674242D01*
X15302668Y53635870D01*
X15298129Y53634663D01*
X15126606Y53574644D01*
X14973867Y53478671D01*
X14846314Y53351118D01*
X14750341Y53198379D01*
X14690761Y53028110D01*
X14690760Y53028105D01*
X14670565Y52848859D01*
X14670565Y52848852D01*
X500500Y52848852D01*
X500500Y55361589D01*
X5203900Y55361589D01*
X5210493Y55319965D01*
X5215519Y55288226D01*
X5230998Y55190499D01*
X5284527Y55025755D01*
X5363168Y54871412D01*
X5464986Y54731272D01*
X5587472Y54608786D01*
X5727612Y54506968D01*
X5881955Y54428327D01*
X6046699Y54374798D01*
X6217789Y54347700D01*
X6217790Y54347700D01*
X6591010Y54347700D01*
X6591011Y54347700D01*
X6762101Y54374798D01*
X6926845Y54428327D01*
X7081188Y54506968D01*
X7221328Y54608786D01*
X7343814Y54731272D01*
X7407695Y54819197D01*
X11616235Y54819197D01*
X11636430Y54639951D01*
X11636431Y54639946D01*
X11696011Y54469677D01*
X11755628Y54374798D01*
X11791984Y54316938D01*
X11919538Y54189384D01*
X12072278Y54093411D01*
X12178207Y54056345D01*
X12242545Y54033832D01*
X12242550Y54033831D01*
X12421796Y54013635D01*
X12421800Y54013635D01*
X12421804Y54013635D01*
X12601049Y54033831D01*
X12601052Y54033832D01*
X12601055Y54033832D01*
X12771322Y54093411D01*
X12924062Y54189384D01*
X13051616Y54316938D01*
X13147589Y54469678D01*
X13207168Y54639945D01*
X13207169Y54639951D01*
X13227365Y54819197D01*
X13227365Y54819204D01*
X13207169Y54998450D01*
X13207168Y54998455D01*
X13197615Y55025755D01*
X13147589Y55168722D01*
X13130438Y55196017D01*
X13081207Y55274368D01*
X13051616Y55321462D01*
X12924062Y55449016D01*
X12867136Y55484785D01*
X12771323Y55544989D01*
X12601054Y55604569D01*
X12601049Y55604570D01*
X12421804Y55624765D01*
X12421796Y55624765D01*
X12242550Y55604570D01*
X12242545Y55604569D01*
X12072276Y55544989D01*
X11919537Y55449016D01*
X11791984Y55321463D01*
X11696011Y55168724D01*
X11636431Y54998455D01*
X11636430Y54998450D01*
X11616235Y54819204D01*
X11616235Y54819197D01*
X7407695Y54819197D01*
X7445632Y54871412D01*
X7524273Y55025755D01*
X7577802Y55190499D01*
X7604900Y55361589D01*
X7604900Y55534811D01*
X7577802Y55705901D01*
X7524273Y55870645D01*
X7445632Y56024988D01*
X7343814Y56165128D01*
X7343545Y56165397D01*
X56619835Y56165397D01*
X56640030Y55986151D01*
X56640031Y55986146D01*
X56699611Y55815877D01*
X56731531Y55765077D01*
X56795584Y55663138D01*
X56923138Y55535584D01*
X57075878Y55439611D01*
X57221053Y55388812D01*
X57246145Y55380032D01*
X57246150Y55380031D01*
X57425396Y55359835D01*
X57425400Y55359835D01*
X57425404Y55359835D01*
X57604649Y55380031D01*
X57604652Y55380032D01*
X57604655Y55380032D01*
X57774922Y55439611D01*
X57927662Y55535584D01*
X58055216Y55663138D01*
X58151189Y55815878D01*
X58210768Y55986145D01*
X58225241Y56114597D01*
X59845635Y56114597D01*
X59865830Y55935351D01*
X59865831Y55935346D01*
X59925411Y55765077D01*
X59962594Y55705901D01*
X60021384Y55612338D01*
X60148938Y55484784D01*
X60301678Y55388811D01*
X60471945Y55329232D01*
X60471950Y55329231D01*
X60651196Y55309035D01*
X60651200Y55309035D01*
X60651204Y55309035D01*
X60830449Y55329231D01*
X60830452Y55329232D01*
X60830455Y55329232D01*
X61000722Y55388811D01*
X61153462Y55484784D01*
X61281016Y55612338D01*
X61376989Y55765078D01*
X61436568Y55935345D01*
X61442292Y55986146D01*
X61456765Y56114597D01*
X61456765Y56114604D01*
X61436569Y56293850D01*
X61436568Y56293855D01*
X61376988Y56464124D01*
X61281015Y56616863D01*
X61153462Y56744416D01*
X61000723Y56840389D01*
X60830454Y56899969D01*
X60830449Y56899970D01*
X60651204Y56920165D01*
X60651196Y56920165D01*
X60471950Y56899970D01*
X60471945Y56899969D01*
X60301676Y56840389D01*
X60148937Y56744416D01*
X60021384Y56616863D01*
X59925411Y56464124D01*
X59865831Y56293855D01*
X59865830Y56293850D01*
X59845635Y56114604D01*
X59845635Y56114597D01*
X58225241Y56114597D01*
X58230965Y56165397D01*
X58230965Y56165404D01*
X58210769Y56344650D01*
X58210768Y56344655D01*
X58183903Y56421431D01*
X58151189Y56514922D01*
X58134432Y56541590D01*
X58055215Y56667663D01*
X57927662Y56795216D01*
X57774923Y56891189D01*
X57604654Y56950769D01*
X57604649Y56950770D01*
X57425404Y56970965D01*
X57425396Y56970965D01*
X57246150Y56950770D01*
X57246145Y56950769D01*
X57075876Y56891189D01*
X56923137Y56795216D01*
X56795584Y56667663D01*
X56699611Y56514924D01*
X56640031Y56344655D01*
X56640030Y56344650D01*
X56619835Y56165404D01*
X56619835Y56165397D01*
X7343545Y56165397D01*
X7221328Y56287614D01*
X7081188Y56389432D01*
X6926845Y56468073D01*
X6762101Y56521602D01*
X6762099Y56521603D01*
X6762098Y56521603D01*
X6630671Y56542419D01*
X6591011Y56548700D01*
X6217789Y56548700D01*
X6178128Y56542419D01*
X6046702Y56521603D01*
X5881952Y56468072D01*
X5727611Y56389432D01*
X5665982Y56344655D01*
X5587472Y56287614D01*
X5587470Y56287612D01*
X5587469Y56287612D01*
X5464988Y56165131D01*
X5464988Y56165130D01*
X5464986Y56165128D01*
X5428278Y56114604D01*
X5363168Y56024989D01*
X5284528Y55870648D01*
X5230997Y55705898D01*
X5214948Y55604568D01*
X5203900Y55534811D01*
X5203900Y55361589D01*
X500500Y55361589D01*
X500500Y56541589D01*
X2053900Y56541589D01*
X2057066Y56521602D01*
X2066169Y56464122D01*
X2080998Y56370499D01*
X2134527Y56205755D01*
X2213168Y56051412D01*
X2314986Y55911272D01*
X2437472Y55788786D01*
X2577612Y55686968D01*
X2731955Y55608327D01*
X2896699Y55554798D01*
X3067789Y55527700D01*
X3067790Y55527700D01*
X3941010Y55527700D01*
X3941011Y55527700D01*
X4112101Y55554798D01*
X4276845Y55608327D01*
X4431188Y55686968D01*
X4571328Y55788786D01*
X4693814Y55911272D01*
X4795632Y56051412D01*
X4874273Y56205755D01*
X4927802Y56370499D01*
X4954900Y56541589D01*
X4954900Y56714811D01*
X4927802Y56885901D01*
X4874273Y57050645D01*
X4795632Y57204988D01*
X4794318Y57206797D01*
X13363635Y57206797D01*
X13383830Y57027551D01*
X13383831Y57027546D01*
X13443411Y56857277D01*
X13454023Y56840389D01*
X13539384Y56704538D01*
X13666938Y56576984D01*
X13819678Y56481011D01*
X13989945Y56421432D01*
X13989950Y56421431D01*
X14169196Y56401235D01*
X14169200Y56401235D01*
X14169204Y56401235D01*
X14348449Y56421431D01*
X14348452Y56421432D01*
X14348455Y56421432D01*
X14518722Y56481011D01*
X14671462Y56576984D01*
X14799016Y56704538D01*
X14894989Y56857278D01*
X14954568Y57027545D01*
X14974765Y57206800D01*
X14959179Y57345128D01*
X14954569Y57386050D01*
X14954568Y57386055D01*
X14894988Y57556324D01*
X14855782Y57618720D01*
X14799016Y57709062D01*
X14671462Y57836616D01*
X14585073Y57890898D01*
X14518723Y57932589D01*
X14348454Y57992169D01*
X14348449Y57992170D01*
X14169204Y58012365D01*
X14169196Y58012365D01*
X13989950Y57992170D01*
X13989945Y57992169D01*
X13819676Y57932589D01*
X13666937Y57836616D01*
X13539384Y57709063D01*
X13443411Y57556324D01*
X13383831Y57386055D01*
X13383830Y57386050D01*
X13363635Y57206804D01*
X13363635Y57206797D01*
X4794318Y57206797D01*
X4693814Y57345128D01*
X4571328Y57467614D01*
X4431188Y57569432D01*
X4276845Y57648073D01*
X4112101Y57701602D01*
X4112099Y57701603D01*
X4112098Y57701603D01*
X3980671Y57722419D01*
X3941011Y57728700D01*
X3067789Y57728700D01*
X3028128Y57722419D01*
X2896702Y57701603D01*
X2731952Y57648072D01*
X2577611Y57569432D01*
X2497656Y57511341D01*
X2437472Y57467614D01*
X2437470Y57467612D01*
X2437469Y57467612D01*
X2314988Y57345131D01*
X2314988Y57345130D01*
X2314986Y57345128D01*
X2271259Y57284944D01*
X2213168Y57204989D01*
X2134528Y57050648D01*
X2080997Y56885898D01*
X2066635Y56795216D01*
X2053900Y56714811D01*
X2053900Y56541589D01*
X500500Y56541589D01*
X500500Y58520711D01*
X18131949Y58520711D01*
X18152144Y58341465D01*
X18152145Y58341460D01*
X18211725Y58171191D01*
X18307698Y58018452D01*
X18435252Y57890898D01*
X18587992Y57794925D01*
X18758259Y57735346D01*
X18758264Y57735345D01*
X18937510Y57715149D01*
X18937514Y57715149D01*
X18937518Y57715149D01*
X19116763Y57735345D01*
X19116766Y57735346D01*
X19116769Y57735346D01*
X19287036Y57794925D01*
X19439776Y57890898D01*
X19567330Y58018452D01*
X19663303Y58171192D01*
X19722882Y58341459D01*
X19743079Y58520714D01*
X19722882Y58699969D01*
X19663303Y58870236D01*
X19567330Y59022976D01*
X19439776Y59150530D01*
X19287037Y59246503D01*
X19116768Y59306083D01*
X19116763Y59306084D01*
X18937518Y59326279D01*
X18937510Y59326279D01*
X18758264Y59306084D01*
X18758259Y59306083D01*
X18587990Y59246503D01*
X18435251Y59150530D01*
X18307698Y59022977D01*
X18211725Y58870238D01*
X18152145Y58699969D01*
X18152144Y58699964D01*
X18131949Y58520718D01*
X18131949Y58520711D01*
X500500Y58520711D01*
X500500Y62743997D01*
X16945035Y62743997D01*
X16965230Y62564751D01*
X16965231Y62564746D01*
X17024811Y62394477D01*
X17056944Y62343338D01*
X17120784Y62241738D01*
X17248338Y62114184D01*
X17401078Y62018211D01*
X17571345Y61958632D01*
X17571350Y61958631D01*
X17750596Y61938435D01*
X17750600Y61938435D01*
X17750604Y61938435D01*
X17929849Y61958631D01*
X17929852Y61958632D01*
X17929855Y61958632D01*
X18100122Y62018211D01*
X18252862Y62114184D01*
X18380416Y62241738D01*
X18476389Y62394478D01*
X18535968Y62564745D01*
X18535969Y62564751D01*
X18556165Y62743997D01*
X18556165Y62744004D01*
X18544718Y62845597D01*
X28756035Y62845597D01*
X28776230Y62666351D01*
X28776231Y62666346D01*
X28835811Y62496077D01*
X28899651Y62394477D01*
X28931784Y62343338D01*
X29059338Y62215784D01*
X29212078Y62119811D01*
X29382345Y62060232D01*
X29382350Y62060231D01*
X29561596Y62040035D01*
X29561600Y62040035D01*
X29561604Y62040035D01*
X29740849Y62060231D01*
X29740852Y62060232D01*
X29740855Y62060232D01*
X29911122Y62119811D01*
X30063862Y62215784D01*
X30191416Y62343338D01*
X30287389Y62496078D01*
X30346968Y62666345D01*
X30346969Y62666351D01*
X30367165Y62845597D01*
X30367165Y62845604D01*
X30346969Y63024850D01*
X30346968Y63024855D01*
X30337475Y63051985D01*
X30287389Y63195122D01*
X30191416Y63347862D01*
X30063862Y63475416D01*
X30006056Y63511738D01*
X29911123Y63571389D01*
X29740854Y63630969D01*
X29740849Y63630970D01*
X29561604Y63651165D01*
X29561596Y63651165D01*
X29382350Y63630970D01*
X29382345Y63630969D01*
X29212076Y63571389D01*
X29059337Y63475416D01*
X28931784Y63347863D01*
X28835811Y63195124D01*
X28776231Y63024855D01*
X28776230Y63024850D01*
X28756035Y62845604D01*
X28756035Y62845597D01*
X18544718Y62845597D01*
X18535969Y62923250D01*
X18535967Y62923258D01*
X18490924Y63051985D01*
X18487363Y63121763D01*
X18522092Y63182391D01*
X18584085Y63214618D01*
X18621848Y63216159D01*
X18676780Y63209970D01*
X18690399Y63208435D01*
X18690400Y63208435D01*
X18690404Y63208435D01*
X18869649Y63228631D01*
X18869652Y63228632D01*
X18869655Y63228632D01*
X19039922Y63288211D01*
X19178375Y63375208D01*
X19245611Y63394207D01*
X19312447Y63373839D01*
X19332028Y63357894D01*
X19381938Y63307984D01*
X19406918Y63292288D01*
X19528076Y63216159D01*
X19534678Y63212011D01*
X19623348Y63180984D01*
X19704945Y63152432D01*
X19704950Y63152431D01*
X19884196Y63132235D01*
X19884200Y63132235D01*
X19884204Y63132235D01*
X20063449Y63152431D01*
X20063452Y63152432D01*
X20063455Y63152432D01*
X20233722Y63212011D01*
X20386462Y63307984D01*
X20514016Y63435538D01*
X20609989Y63588278D01*
X20669568Y63758545D01*
X20669569Y63758551D01*
X20689765Y63937797D01*
X20689765Y63937804D01*
X20669569Y64117050D01*
X20669568Y64117055D01*
X20654428Y64160322D01*
X20609989Y64287322D01*
X20593815Y64313062D01*
X20514015Y64440063D01*
X20386462Y64567616D01*
X20233723Y64663589D01*
X20063454Y64723169D01*
X20063449Y64723170D01*
X19884204Y64743365D01*
X19884196Y64743365D01*
X19704950Y64723170D01*
X19704945Y64723169D01*
X19534676Y64663589D01*
X19396225Y64576594D01*
X19328988Y64557594D01*
X19262153Y64577962D01*
X19242573Y64593906D01*
X19192663Y64643815D01*
X19192662Y64643816D01*
X19039923Y64739789D01*
X18869654Y64799369D01*
X18869649Y64799370D01*
X18690404Y64819565D01*
X18690396Y64819565D01*
X18511150Y64799370D01*
X18511145Y64799369D01*
X18340876Y64739789D01*
X18188137Y64643816D01*
X18060584Y64516263D01*
X17964611Y64363524D01*
X17905031Y64193255D01*
X17905030Y64193250D01*
X17884835Y64014004D01*
X17884835Y64013997D01*
X17905030Y63834751D01*
X17905032Y63834743D01*
X17950075Y63706016D01*
X17953636Y63636237D01*
X17918907Y63575610D01*
X17856913Y63543383D01*
X17819150Y63541842D01*
X17750604Y63549565D01*
X17750596Y63549565D01*
X17571350Y63529370D01*
X17571345Y63529369D01*
X17401076Y63469789D01*
X17248337Y63373816D01*
X17120784Y63246263D01*
X17024811Y63093524D01*
X16965231Y62923255D01*
X16965230Y62923250D01*
X16945035Y62744004D01*
X16945035Y62743997D01*
X500500Y62743997D01*
X500500Y63810797D01*
X14278035Y63810797D01*
X14298230Y63631551D01*
X14298231Y63631546D01*
X14357811Y63461277D01*
X14429074Y63347863D01*
X14453784Y63308538D01*
X14581338Y63180984D01*
X14626778Y63152432D01*
X14720529Y63093524D01*
X14734078Y63085011D01*
X14828461Y63051985D01*
X14904345Y63025432D01*
X14904350Y63025431D01*
X15083596Y63005235D01*
X15083600Y63005235D01*
X15083604Y63005235D01*
X15262849Y63025431D01*
X15262852Y63025432D01*
X15262855Y63025432D01*
X15433122Y63085011D01*
X15585862Y63180984D01*
X15713416Y63308538D01*
X15809389Y63461278D01*
X15868968Y63631545D01*
X15877359Y63706016D01*
X15889165Y63810797D01*
X15889165Y63810804D01*
X15868969Y63990050D01*
X15868968Y63990055D01*
X15860588Y64014004D01*
X15809389Y64160322D01*
X15713416Y64313062D01*
X15585862Y64440616D01*
X15433123Y64536589D01*
X15262854Y64596169D01*
X15262849Y64596170D01*
X15083604Y64616365D01*
X15083596Y64616365D01*
X14904350Y64596170D01*
X14904345Y64596169D01*
X14734076Y64536589D01*
X14581337Y64440616D01*
X14453784Y64313063D01*
X14357811Y64160324D01*
X14298231Y63990055D01*
X14298230Y63990050D01*
X14278035Y63810804D01*
X14278035Y63810797D01*
X500500Y63810797D01*
X500500Y66452397D01*
X16919635Y66452397D01*
X16939830Y66273151D01*
X16939831Y66273146D01*
X16999411Y66102877D01*
X17095384Y65950138D01*
X17222938Y65822584D01*
X17375678Y65726611D01*
X17545945Y65667032D01*
X17545950Y65667031D01*
X17725196Y65646835D01*
X17725200Y65646835D01*
X17725204Y65646835D01*
X17904449Y65667031D01*
X17904452Y65667032D01*
X17904455Y65667032D01*
X18074722Y65726611D01*
X18227462Y65822584D01*
X18355016Y65950138D01*
X18450989Y66102878D01*
X18510568Y66273145D01*
X18530765Y66452400D01*
X18510568Y66631655D01*
X18450989Y66801922D01*
X18445546Y66810584D01*
X18411782Y66864320D01*
X18355016Y66954662D01*
X18227462Y67082216D01*
X18213677Y67090878D01*
X18074723Y67178189D01*
X17904454Y67237769D01*
X17904449Y67237770D01*
X17725204Y67257965D01*
X17725196Y67257965D01*
X17545950Y67237770D01*
X17545945Y67237769D01*
X17375676Y67178189D01*
X17222937Y67082216D01*
X17095384Y66954663D01*
X16999411Y66801924D01*
X16939831Y66631655D01*
X16939830Y66631650D01*
X16919635Y66452404D01*
X16919635Y66452397D01*
X500500Y66452397D01*
X500500Y67440397D01*
X37620635Y67440397D01*
X37640830Y67261151D01*
X37640831Y67261146D01*
X37700411Y67090877D01*
X37786001Y66954663D01*
X37796384Y66938138D01*
X37923938Y66810584D01*
X38076678Y66714611D01*
X38246945Y66655032D01*
X38246950Y66655031D01*
X38426196Y66634835D01*
X38426200Y66634835D01*
X38426204Y66634835D01*
X38605449Y66655031D01*
X38605452Y66655032D01*
X38605455Y66655032D01*
X38775722Y66714611D01*
X38928462Y66810584D01*
X39056016Y66938138D01*
X39151989Y67090878D01*
X39211568Y67261145D01*
X39231765Y67440400D01*
X39211568Y67619655D01*
X39151989Y67789922D01*
X39056016Y67942662D01*
X38928462Y68070216D01*
X38890868Y68093838D01*
X38775723Y68166189D01*
X38605454Y68225769D01*
X38605449Y68225770D01*
X38426204Y68245965D01*
X38426196Y68245965D01*
X38246950Y68225770D01*
X38246945Y68225769D01*
X38076676Y68166189D01*
X37923937Y68070216D01*
X37796384Y67942663D01*
X37700411Y67789924D01*
X37640831Y67619655D01*
X37640830Y67619650D01*
X37620635Y67440404D01*
X37620635Y67440397D01*
X500500Y67440397D01*
X500500Y68839997D01*
X24946035Y68839997D01*
X24966230Y68660751D01*
X24966231Y68660746D01*
X25025811Y68490477D01*
X25121784Y68337738D01*
X25249338Y68210184D01*
X25402078Y68114211D01*
X25560782Y68058678D01*
X25572345Y68054632D01*
X25572350Y68054631D01*
X25751596Y68034435D01*
X25751600Y68034435D01*
X25751604Y68034435D01*
X25930849Y68054631D01*
X25930852Y68054632D01*
X25930855Y68054632D01*
X26101122Y68114211D01*
X26253862Y68210184D01*
X26381416Y68337738D01*
X26477389Y68490478D01*
X26514347Y68596097D01*
X39408735Y68596097D01*
X39428930Y68416851D01*
X39428931Y68416846D01*
X39488511Y68246577D01*
X39539023Y68166189D01*
X39584484Y68093838D01*
X39712038Y67966284D01*
X39864778Y67870311D01*
X40035045Y67810732D01*
X40035050Y67810731D01*
X40214296Y67790535D01*
X40214300Y67790535D01*
X40214304Y67790535D01*
X40393549Y67810731D01*
X40393552Y67810732D01*
X40393555Y67810732D01*
X40563822Y67870311D01*
X40716562Y67966284D01*
X40844116Y68093838D01*
X40940089Y68246578D01*
X40996642Y68408197D01*
X65967035Y68408197D01*
X65987230Y68228951D01*
X65987231Y68228946D01*
X66046811Y68058677D01*
X66104865Y67966285D01*
X66142784Y67905938D01*
X66270338Y67778384D01*
X66423078Y67682411D01*
X66593345Y67622832D01*
X66593350Y67622831D01*
X66772596Y67602635D01*
X66772600Y67602635D01*
X66772604Y67602635D01*
X66951849Y67622831D01*
X66951852Y67622832D01*
X66951855Y67622832D01*
X67122122Y67682411D01*
X67274862Y67778384D01*
X67402416Y67905938D01*
X67498389Y68058678D01*
X67557968Y68228945D01*
X67578165Y68408200D01*
X67577190Y68416851D01*
X67557969Y68587450D01*
X67557968Y68587455D01*
X67532322Y68660746D01*
X67498389Y68757722D01*
X67487309Y68775355D01*
X67402415Y68910463D01*
X67274862Y69038016D01*
X67122123Y69133989D01*
X66951854Y69193569D01*
X66951849Y69193570D01*
X66772604Y69213765D01*
X66772596Y69213765D01*
X66593350Y69193570D01*
X66593345Y69193569D01*
X66423076Y69133989D01*
X66270337Y69038016D01*
X66142784Y68910463D01*
X66046811Y68757724D01*
X65987231Y68587455D01*
X65987230Y68587450D01*
X65967035Y68408204D01*
X65967035Y68408197D01*
X40996642Y68408197D01*
X40999668Y68416845D01*
X40999669Y68416851D01*
X41019865Y68596097D01*
X41019865Y68596104D01*
X40999669Y68775350D01*
X40999668Y68775355D01*
X40952392Y68910462D01*
X40940089Y68945622D01*
X40844116Y69098362D01*
X40716562Y69225916D01*
X40563823Y69321889D01*
X40393554Y69381469D01*
X40393549Y69381470D01*
X40214304Y69401665D01*
X40214296Y69401665D01*
X40035050Y69381470D01*
X40035045Y69381469D01*
X39864776Y69321889D01*
X39712037Y69225916D01*
X39584484Y69098363D01*
X39488511Y68945624D01*
X39428931Y68775355D01*
X39428930Y68775350D01*
X39408735Y68596104D01*
X39408735Y68596097D01*
X26514347Y68596097D01*
X26536968Y68660745D01*
X26549881Y68775350D01*
X26557165Y68839997D01*
X26557165Y68840004D01*
X26536969Y69019250D01*
X26536968Y69019255D01*
X26477388Y69189524D01*
X26381415Y69342263D01*
X26253862Y69469816D01*
X26101123Y69565789D01*
X25930854Y69625369D01*
X25930849Y69625370D01*
X25751604Y69645565D01*
X25751596Y69645565D01*
X25572350Y69625370D01*
X25572345Y69625369D01*
X25402076Y69565789D01*
X25249337Y69469816D01*
X25121784Y69342263D01*
X25025811Y69189524D01*
X24966231Y69019255D01*
X24966230Y69019250D01*
X24946035Y68840004D01*
X24946035Y68839997D01*
X500500Y68839997D01*
X500500Y70719597D01*
X24260235Y70719597D01*
X24280430Y70540351D01*
X24280431Y70540346D01*
X24340011Y70370077D01*
X24403851Y70268477D01*
X24435984Y70217338D01*
X24563538Y70089784D01*
X24716278Y69993811D01*
X24886545Y69934232D01*
X24886550Y69934231D01*
X25065796Y69914035D01*
X25065800Y69914035D01*
X25065804Y69914035D01*
X25245049Y69934231D01*
X25245052Y69934232D01*
X25245055Y69934232D01*
X25415322Y69993811D01*
X25568062Y70089784D01*
X25695616Y70217338D01*
X25791589Y70370078D01*
X25851168Y70540345D01*
X25851169Y70540351D01*
X25859918Y70617997D01*
X58347035Y70617997D01*
X58367230Y70438751D01*
X58367231Y70438746D01*
X58426811Y70268477D01*
X58458944Y70217338D01*
X58522784Y70115738D01*
X58650338Y69988184D01*
X58803078Y69892211D01*
X58973345Y69832632D01*
X58973350Y69832631D01*
X59152596Y69812435D01*
X59152600Y69812435D01*
X59152604Y69812435D01*
X59331849Y69832631D01*
X59331852Y69832632D01*
X59331855Y69832632D01*
X59502122Y69892211D01*
X59654862Y69988184D01*
X59782416Y70115738D01*
X59878389Y70268478D01*
X59937968Y70438745D01*
X59937969Y70438751D01*
X59958165Y70617997D01*
X59958165Y70618004D01*
X59937969Y70797250D01*
X59937968Y70797255D01*
X59902418Y70898850D01*
X59878389Y70967522D01*
X59782416Y71120262D01*
X59654862Y71247816D01*
X59502123Y71343789D01*
X59331854Y71403369D01*
X59331849Y71403370D01*
X59152604Y71423565D01*
X59152596Y71423565D01*
X58973350Y71403370D01*
X58973345Y71403369D01*
X58803076Y71343789D01*
X58650337Y71247816D01*
X58522784Y71120263D01*
X58426811Y70967524D01*
X58367231Y70797255D01*
X58367230Y70797250D01*
X58347035Y70618004D01*
X58347035Y70617997D01*
X25859918Y70617997D01*
X25871365Y70719597D01*
X25871365Y70719604D01*
X25851169Y70898850D01*
X25851168Y70898855D01*
X25791588Y71069124D01*
X25695615Y71221863D01*
X25568062Y71349416D01*
X25415323Y71445389D01*
X25245054Y71504969D01*
X25245049Y71504970D01*
X25065804Y71525165D01*
X25065796Y71525165D01*
X24886550Y71504970D01*
X24886545Y71504969D01*
X24716276Y71445389D01*
X24563537Y71349416D01*
X24435984Y71221863D01*
X24340011Y71069124D01*
X24280431Y70898855D01*
X24280430Y70898850D01*
X24260235Y70719604D01*
X24260235Y70719597D01*
X500500Y70719597D01*
X500500Y74533222D01*
X520185Y74600261D01*
X572989Y74646016D01*
X642147Y74655960D01*
X705703Y74626935D01*
X709752Y74623266D01*
X860163Y74480789D01*
X1145081Y74264200D01*
X1451747Y74079685D01*
X1451749Y74079684D01*
X1451751Y74079683D01*
X1451755Y74079681D01*
X1776552Y73929415D01*
X1776565Y73929409D01*
X2115726Y73815132D01*
X2465254Y73738195D01*
X2821052Y73699500D01*
X2821058Y73699500D01*
X3178942Y73699500D01*
X3178948Y73699500D01*
X3534746Y73738195D01*
X3884274Y73815132D01*
X4223435Y73929409D01*
X4548253Y74079685D01*
X4854919Y74264200D01*
X5139837Y74480789D01*
X5399668Y74726914D01*
X5631365Y74999689D01*
X5832211Y75295915D01*
X5910719Y75443997D01*
X32261235Y75443997D01*
X32281430Y75264751D01*
X32281431Y75264746D01*
X32341011Y75094477D01*
X32400571Y74999689D01*
X32436984Y74941738D01*
X32564538Y74814184D01*
X32654880Y74757418D01*
X32703425Y74726915D01*
X32717278Y74718211D01*
X32887545Y74658632D01*
X32887550Y74658631D01*
X33066796Y74638435D01*
X33066800Y74638435D01*
X33066804Y74638435D01*
X33246049Y74658631D01*
X33246052Y74658632D01*
X33246055Y74658632D01*
X33416322Y74718211D01*
X33569062Y74814184D01*
X33696616Y74941738D01*
X33792589Y75094478D01*
X33834900Y75215397D01*
X35639435Y75215397D01*
X35659630Y75036151D01*
X35659631Y75036146D01*
X35719211Y74865877D01*
X35806527Y74726915D01*
X35815184Y74713138D01*
X35942738Y74585584D01*
X36095478Y74489611D01*
X36265745Y74430032D01*
X36265750Y74430031D01*
X36444996Y74409835D01*
X36445000Y74409835D01*
X36445004Y74409835D01*
X36624249Y74430031D01*
X36624252Y74430032D01*
X36624255Y74430032D01*
X36794522Y74489611D01*
X36947262Y74585584D01*
X37074816Y74713138D01*
X37170789Y74865878D01*
X37230368Y75036145D01*
X37230369Y75036151D01*
X37250565Y75215397D01*
X37250565Y75215404D01*
X37230369Y75394650D01*
X37230368Y75394655D01*
X37200254Y75480715D01*
X37170789Y75564922D01*
X37170257Y75565768D01*
X37113197Y75656579D01*
X37094197Y75723815D01*
X37114565Y75790651D01*
X37130510Y75810232D01*
X37175965Y75855687D01*
X37227216Y75906938D01*
X37323189Y76059678D01*
X37382768Y76229945D01*
X37389471Y76289435D01*
X37402965Y76409197D01*
X37402965Y76409204D01*
X37382769Y76588450D01*
X37382768Y76588455D01*
X37361746Y76648533D01*
X37323189Y76758722D01*
X37227216Y76911462D01*
X37144059Y76994619D01*
X37110574Y77055942D01*
X37115558Y77125634D01*
X37144059Y77169981D01*
X37172999Y77198921D01*
X37227216Y77253138D01*
X37323189Y77405878D01*
X37382768Y77576145D01*
X37382932Y77577600D01*
X37402965Y77755397D01*
X37402965Y77755404D01*
X37382769Y77934650D01*
X37382768Y77934655D01*
X37331958Y78079862D01*
X37323189Y78104922D01*
X37227216Y78257662D01*
X37099662Y78385216D01*
X37095408Y78387889D01*
X36946923Y78481189D01*
X36776654Y78540769D01*
X36776649Y78540770D01*
X36597404Y78560965D01*
X36597396Y78560965D01*
X36418150Y78540770D01*
X36418145Y78540769D01*
X36247876Y78481189D01*
X36095137Y78385216D01*
X35967584Y78257663D01*
X35871611Y78104924D01*
X35812031Y77934655D01*
X35812030Y77934650D01*
X35791835Y77755404D01*
X35791835Y77755397D01*
X35812030Y77576151D01*
X35812031Y77576146D01*
X35871611Y77405877D01*
X35967584Y77253138D01*
X36050741Y77169981D01*
X36084226Y77108658D01*
X36079242Y77038966D01*
X36050741Y76994619D01*
X35967584Y76911463D01*
X35871611Y76758724D01*
X35812031Y76588455D01*
X35812030Y76588450D01*
X35791835Y76409204D01*
X35791835Y76409197D01*
X35812030Y76229951D01*
X35812031Y76229946D01*
X35871611Y76059676D01*
X35929202Y75968023D01*
X35948203Y75900786D01*
X35927836Y75833951D01*
X35911891Y75814369D01*
X35815183Y75717661D01*
X35719211Y75564924D01*
X35659631Y75394655D01*
X35659630Y75394650D01*
X35639435Y75215404D01*
X35639435Y75215397D01*
X33834900Y75215397D01*
X33852168Y75264745D01*
X33866805Y75394650D01*
X33872365Y75443997D01*
X33872365Y75444004D01*
X33852169Y75623250D01*
X33852168Y75623255D01*
X33843572Y75647820D01*
X33792589Y75793522D01*
X33782089Y75810232D01*
X33698991Y75942482D01*
X33696616Y75946262D01*
X33569062Y76073816D01*
X33512894Y76109109D01*
X33416323Y76169789D01*
X33246054Y76229369D01*
X33246049Y76229370D01*
X33066804Y76249565D01*
X33066796Y76249565D01*
X32887550Y76229370D01*
X32887545Y76229369D01*
X32717276Y76169789D01*
X32564537Y76073816D01*
X32436984Y75946263D01*
X32341011Y75793524D01*
X32281431Y75623255D01*
X32281430Y75623250D01*
X32261235Y75444004D01*
X32261235Y75443997D01*
X5910719Y75443997D01*
X5999853Y75612120D01*
X6132324Y75944597D01*
X6228071Y76289448D01*
X6254786Y76452401D01*
X11533259Y76452401D01*
X11537503Y76409310D01*
X11538100Y76397156D01*
X11538100Y76353856D01*
X11546545Y76311394D01*
X11548330Y76299365D01*
X11552575Y76256270D01*
X11552576Y76256266D01*
X11565147Y76214825D01*
X11568103Y76203022D01*
X11576546Y76160573D01*
X11576548Y76160566D01*
X11593117Y76120566D01*
X11597212Y76109123D01*
X11609786Y76067674D01*
X11609787Y76067671D01*
X11630197Y76029487D01*
X11635400Y76018485D01*
X11651968Y75978486D01*
X11651970Y75978482D01*
X11676025Y75942482D01*
X11682278Y75932050D01*
X11693548Y75910964D01*
X11702688Y75893865D01*
X11702694Y75893857D01*
X11730152Y75860398D01*
X11737399Y75850628D01*
X11748543Y75833951D01*
X11761460Y75814619D01*
X11761462Y75814617D01*
X11761465Y75814613D01*
X11792079Y75783999D01*
X11800251Y75774984D01*
X11827717Y75741517D01*
X11861179Y75714055D01*
X11861181Y75714054D01*
X11870199Y75705880D01*
X11900814Y75675264D01*
X11900817Y75675262D01*
X11900818Y75675261D01*
X11936817Y75651207D01*
X11936819Y75651206D01*
X11946588Y75643962D01*
X11980062Y75616490D01*
X12018240Y75596084D01*
X12028678Y75589828D01*
X12036499Y75584603D01*
X12064686Y75565768D01*
X12104695Y75549197D01*
X12115691Y75543996D01*
X12153873Y75523586D01*
X12195310Y75511017D01*
X12206760Y75506920D01*
X12246765Y75490349D01*
X12289240Y75481901D01*
X12301014Y75478952D01*
X12342468Y75466376D01*
X12385564Y75462132D01*
X12397590Y75460348D01*
X12428080Y75454283D01*
X12440058Y75451900D01*
X12440059Y75451900D01*
X12483356Y75451900D01*
X12495509Y75451304D01*
X12538600Y75447059D01*
X12581690Y75451304D01*
X12593844Y75451900D01*
X12637142Y75451900D01*
X12653054Y75455066D01*
X12679605Y75460347D01*
X12691637Y75462132D01*
X12734732Y75466376D01*
X12776180Y75478950D01*
X12787953Y75481900D01*
X12830435Y75490349D01*
X12870447Y75506924D01*
X12881880Y75511014D01*
X12923327Y75523586D01*
X12961518Y75544001D01*
X12972510Y75549199D01*
X13012514Y75565768D01*
X13048538Y75589840D01*
X13058951Y75596080D01*
X13088981Y75612130D01*
X13097135Y75616488D01*
X13097139Y75616491D01*
X13130605Y75643956D01*
X13140382Y75651207D01*
X13176381Y75675260D01*
X13176383Y75675262D01*
X13176385Y75675264D01*
X13207008Y75705888D01*
X13216002Y75714041D01*
X13249483Y75741517D01*
X13276959Y75774998D01*
X13285112Y75783992D01*
X13315739Y75814618D01*
X13339800Y75850628D01*
X13347044Y75860395D01*
X13374509Y75893861D01*
X13374512Y75893865D01*
X13381499Y75906938D01*
X13394920Y75932049D01*
X13401160Y75942462D01*
X13425232Y75978486D01*
X13441802Y76018494D01*
X13447002Y76029487D01*
X13467414Y76067673D01*
X13479986Y76109120D01*
X13484076Y76120553D01*
X13500651Y76160565D01*
X13509100Y76203047D01*
X13512050Y76214820D01*
X13524624Y76256268D01*
X13528868Y76299363D01*
X13530654Y76311401D01*
X13539100Y76353859D01*
X13539100Y76397156D01*
X13539697Y76409310D01*
X13543941Y76452400D01*
X13543941Y76452401D01*
X19533259Y76452401D01*
X19537503Y76409310D01*
X19538100Y76397156D01*
X19538100Y76353856D01*
X19546545Y76311394D01*
X19548330Y76299365D01*
X19552575Y76256270D01*
X19552576Y76256266D01*
X19565147Y76214825D01*
X19568103Y76203022D01*
X19576546Y76160573D01*
X19576548Y76160566D01*
X19593117Y76120566D01*
X19597212Y76109123D01*
X19609786Y76067674D01*
X19609787Y76067671D01*
X19630197Y76029487D01*
X19635400Y76018485D01*
X19651968Y75978486D01*
X19651970Y75978482D01*
X19676025Y75942482D01*
X19682278Y75932050D01*
X19693548Y75910964D01*
X19702688Y75893865D01*
X19702694Y75893857D01*
X19730152Y75860398D01*
X19737399Y75850628D01*
X19748543Y75833951D01*
X19761460Y75814619D01*
X19761462Y75814617D01*
X19761465Y75814613D01*
X19792079Y75783999D01*
X19800251Y75774984D01*
X19827717Y75741517D01*
X19861179Y75714055D01*
X19861181Y75714054D01*
X19870199Y75705880D01*
X19900814Y75675264D01*
X19900817Y75675262D01*
X19900818Y75675261D01*
X19936817Y75651207D01*
X19936819Y75651206D01*
X19946588Y75643962D01*
X19980062Y75616490D01*
X20018240Y75596084D01*
X20028678Y75589828D01*
X20036499Y75584603D01*
X20064686Y75565768D01*
X20104695Y75549197D01*
X20115691Y75543996D01*
X20153873Y75523586D01*
X20195310Y75511017D01*
X20206760Y75506920D01*
X20246765Y75490349D01*
X20289240Y75481901D01*
X20301014Y75478952D01*
X20342468Y75466376D01*
X20385564Y75462132D01*
X20397590Y75460348D01*
X20428080Y75454283D01*
X20440058Y75451900D01*
X20440059Y75451900D01*
X20483356Y75451900D01*
X20495509Y75451304D01*
X20538600Y75447059D01*
X20581690Y75451304D01*
X20593844Y75451900D01*
X20637142Y75451900D01*
X20653054Y75455066D01*
X20679605Y75460347D01*
X20691637Y75462132D01*
X20734732Y75466376D01*
X20776180Y75478950D01*
X20787953Y75481900D01*
X20830435Y75490349D01*
X20870447Y75506924D01*
X20881880Y75511014D01*
X20923327Y75523586D01*
X20961518Y75544001D01*
X20972510Y75549199D01*
X21012514Y75565768D01*
X21048538Y75589840D01*
X21058951Y75596080D01*
X21088981Y75612130D01*
X21097135Y75616488D01*
X21097139Y75616491D01*
X21130605Y75643956D01*
X21140382Y75651207D01*
X21176381Y75675260D01*
X21176383Y75675262D01*
X21176385Y75675264D01*
X21207008Y75705888D01*
X21216002Y75714041D01*
X21249483Y75741517D01*
X21276959Y75774998D01*
X21285112Y75783992D01*
X21315739Y75814618D01*
X21339800Y75850628D01*
X21347044Y75860395D01*
X21374509Y75893861D01*
X21374512Y75893865D01*
X21381499Y75906938D01*
X21394920Y75932049D01*
X21401160Y75942462D01*
X21425232Y75978486D01*
X21441802Y76018494D01*
X21447002Y76029487D01*
X21467414Y76067673D01*
X21479986Y76109120D01*
X21484076Y76120553D01*
X21500651Y76160565D01*
X21509100Y76203047D01*
X21512050Y76214820D01*
X21524624Y76256268D01*
X21528868Y76299363D01*
X21530654Y76311401D01*
X21539100Y76353859D01*
X21539100Y76397156D01*
X21539697Y76409310D01*
X21543941Y76452400D01*
X21539697Y76495493D01*
X21539100Y76507646D01*
X21539100Y76550942D01*
X21531638Y76588455D01*
X21530652Y76593410D01*
X21528868Y76605439D01*
X21524624Y76648531D01*
X21524624Y76648532D01*
X21512048Y76689986D01*
X21509099Y76701760D01*
X21500651Y76744235D01*
X21484080Y76784241D01*
X21479983Y76795690D01*
X21467414Y76837127D01*
X21447004Y76875309D01*
X21441803Y76886305D01*
X21425232Y76926314D01*
X21401172Y76962322D01*
X21394916Y76972760D01*
X21374511Y77010936D01*
X21374510Y77010938D01*
X21347038Y77044412D01*
X21339794Y77054181D01*
X21338617Y77055942D01*
X21315739Y77090182D01*
X21315736Y77090186D01*
X21285120Y77120801D01*
X21276946Y77129819D01*
X21249484Y77163282D01*
X21241321Y77169981D01*
X21216015Y77190750D01*
X21207001Y77198921D01*
X21176387Y77229535D01*
X21176383Y77229538D01*
X21176380Y77229540D01*
X21159739Y77240660D01*
X21140372Y77253601D01*
X21130602Y77260848D01*
X21097143Y77288306D01*
X21097135Y77288312D01*
X21080036Y77297452D01*
X21058950Y77308722D01*
X21048518Y77314975D01*
X21012518Y77339030D01*
X21012514Y77339032D01*
X20972515Y77355600D01*
X20961513Y77360803D01*
X20923329Y77381213D01*
X20923328Y77381214D01*
X20923327Y77381214D01*
X20881877Y77393788D01*
X20870434Y77397883D01*
X20869316Y77398346D01*
X20851135Y77405877D01*
X20830434Y77414452D01*
X20830427Y77414454D01*
X20787978Y77422897D01*
X20776175Y77425853D01*
X20734734Y77438424D01*
X20734730Y77438425D01*
X20691635Y77442670D01*
X20679606Y77444455D01*
X20637144Y77452900D01*
X20637141Y77452900D01*
X20593844Y77452900D01*
X20581690Y77453497D01*
X20538600Y77457741D01*
X20495510Y77453497D01*
X20483356Y77452900D01*
X20440053Y77452900D01*
X20397591Y77444455D01*
X20385563Y77442670D01*
X20342467Y77438424D01*
X20301027Y77425854D01*
X20289226Y77422898D01*
X20246766Y77414452D01*
X20246761Y77414451D01*
X20206759Y77397882D01*
X20195307Y77393784D01*
X20153872Y77381214D01*
X20115691Y77360806D01*
X20104693Y77355605D01*
X20064691Y77339036D01*
X20028680Y77314974D01*
X20018245Y77308720D01*
X19980065Y77288313D01*
X19980060Y77288309D01*
X19946590Y77260843D01*
X19936825Y77253601D01*
X19900825Y77229545D01*
X19900819Y77229540D01*
X19870195Y77198917D01*
X19861184Y77190750D01*
X19827717Y77163283D01*
X19800250Y77129816D01*
X19792083Y77120805D01*
X19761460Y77090181D01*
X19761455Y77090175D01*
X19737399Y77054175D01*
X19730157Y77044410D01*
X19702691Y77010940D01*
X19702687Y77010935D01*
X19682280Y76972755D01*
X19676026Y76962320D01*
X19651964Y76926309D01*
X19635395Y76886307D01*
X19630194Y76875309D01*
X19609786Y76837128D01*
X19597216Y76795693D01*
X19593118Y76784241D01*
X19576549Y76744239D01*
X19576548Y76744234D01*
X19568102Y76701774D01*
X19565146Y76689973D01*
X19552576Y76648533D01*
X19548330Y76605437D01*
X19546545Y76593409D01*
X19538100Y76550947D01*
X19538100Y76507646D01*
X19537503Y76495493D01*
X19533259Y76452401D01*
X13543941Y76452401D01*
X13539697Y76495493D01*
X13539100Y76507646D01*
X13539100Y76550942D01*
X13531638Y76588455D01*
X13530652Y76593410D01*
X13528868Y76605439D01*
X13524624Y76648531D01*
X13524624Y76648532D01*
X13512048Y76689986D01*
X13509099Y76701760D01*
X13500651Y76744235D01*
X13484080Y76784241D01*
X13479983Y76795690D01*
X13467414Y76837127D01*
X13447004Y76875309D01*
X13441803Y76886305D01*
X13425232Y76926314D01*
X13401172Y76962322D01*
X13394916Y76972760D01*
X13374511Y77010936D01*
X13374510Y77010938D01*
X13347038Y77044412D01*
X13339794Y77054181D01*
X13338617Y77055942D01*
X13315739Y77090182D01*
X13315736Y77090186D01*
X13285120Y77120801D01*
X13276946Y77129819D01*
X13249484Y77163282D01*
X13241321Y77169981D01*
X13216015Y77190750D01*
X13207001Y77198921D01*
X13176387Y77229535D01*
X13176383Y77229538D01*
X13176380Y77229540D01*
X13159739Y77240660D01*
X13140372Y77253601D01*
X13130602Y77260848D01*
X13097143Y77288306D01*
X13097135Y77288312D01*
X13080036Y77297452D01*
X13058950Y77308722D01*
X13048518Y77314975D01*
X13012518Y77339030D01*
X13012514Y77339032D01*
X12972515Y77355600D01*
X12961513Y77360803D01*
X12923329Y77381213D01*
X12923328Y77381214D01*
X12923327Y77381214D01*
X12881877Y77393788D01*
X12870434Y77397883D01*
X12869316Y77398346D01*
X12851135Y77405877D01*
X12830434Y77414452D01*
X12830427Y77414454D01*
X12787978Y77422897D01*
X12776175Y77425853D01*
X12734734Y77438424D01*
X12734730Y77438425D01*
X12691635Y77442670D01*
X12679606Y77444455D01*
X12637144Y77452900D01*
X12637141Y77452900D01*
X12593844Y77452900D01*
X12581690Y77453497D01*
X12538600Y77457741D01*
X12495510Y77453497D01*
X12483356Y77452900D01*
X12440053Y77452900D01*
X12397591Y77444455D01*
X12385563Y77442670D01*
X12342467Y77438424D01*
X12301027Y77425854D01*
X12289226Y77422898D01*
X12246766Y77414452D01*
X12246761Y77414451D01*
X12206759Y77397882D01*
X12195307Y77393784D01*
X12153872Y77381214D01*
X12115691Y77360806D01*
X12104693Y77355605D01*
X12064691Y77339036D01*
X12028680Y77314974D01*
X12018245Y77308720D01*
X11980065Y77288313D01*
X11980060Y77288309D01*
X11946590Y77260843D01*
X11936825Y77253601D01*
X11900825Y77229545D01*
X11900819Y77229540D01*
X11870195Y77198917D01*
X11861184Y77190750D01*
X11827717Y77163283D01*
X11800250Y77129816D01*
X11792083Y77120805D01*
X11761460Y77090181D01*
X11761455Y77090175D01*
X11737399Y77054175D01*
X11730157Y77044410D01*
X11702691Y77010940D01*
X11702687Y77010935D01*
X11682280Y76972755D01*
X11676026Y76962320D01*
X11651964Y76926309D01*
X11635395Y76886307D01*
X11630194Y76875309D01*
X11609786Y76837128D01*
X11597216Y76795693D01*
X11593118Y76784241D01*
X11576549Y76744239D01*
X11576548Y76744234D01*
X11568102Y76701774D01*
X11565146Y76689973D01*
X11552576Y76648533D01*
X11548330Y76605437D01*
X11546545Y76593409D01*
X11538100Y76550947D01*
X11538100Y76507646D01*
X11537503Y76495493D01*
X11533259Y76452401D01*
X6254786Y76452401D01*
X6285972Y76642629D01*
X6305348Y77000000D01*
X6285972Y77357371D01*
X6285409Y77360803D01*
X6249868Y77577597D01*
X31956435Y77577597D01*
X31976630Y77398351D01*
X31976631Y77398346D01*
X32036211Y77228077D01*
X32122861Y77090175D01*
X32132184Y77075338D01*
X32259738Y76947784D01*
X32317544Y76911462D01*
X32366528Y76880683D01*
X32412478Y76851811D01*
X32572851Y76795694D01*
X32582745Y76792232D01*
X32582750Y76792231D01*
X32761996Y76772035D01*
X32762000Y76772035D01*
X32762004Y76772035D01*
X32941249Y76792231D01*
X32941252Y76792232D01*
X32941255Y76792232D01*
X33111522Y76851811D01*
X33264262Y76947784D01*
X33391816Y77075338D01*
X33487789Y77228078D01*
X33547368Y77398345D01*
X33549183Y77414454D01*
X33567565Y77577597D01*
X33567565Y77577604D01*
X33547369Y77756850D01*
X33547368Y77756855D01*
X33487788Y77927124D01*
X33407191Y78055393D01*
X33391816Y78079862D01*
X33264262Y78207416D01*
X33111523Y78303389D01*
X32941254Y78362969D01*
X32941249Y78362970D01*
X32762004Y78383165D01*
X32761996Y78383165D01*
X32582750Y78362970D01*
X32582745Y78362969D01*
X32412476Y78303389D01*
X32259737Y78207416D01*
X32132184Y78079863D01*
X32036211Y77927124D01*
X31976631Y77756855D01*
X31976630Y77756850D01*
X31956435Y77577604D01*
X31956435Y77577597D01*
X6249868Y77577597D01*
X6228073Y77710540D01*
X6228072Y77710541D01*
X6228071Y77710552D01*
X6132324Y78055403D01*
X6089868Y78161959D01*
X5999857Y78387871D01*
X5999848Y78387889D01*
X5832215Y78704078D01*
X5832213Y78704081D01*
X5832211Y78704085D01*
X5631365Y79000311D01*
X5631361Y79000316D01*
X5631358Y79000320D01*
X5399675Y79273078D01*
X5399671Y79273083D01*
X5399668Y79273086D01*
X5386585Y79285479D01*
X5351453Y79345869D01*
X5354548Y79415670D01*
X5394889Y79472718D01*
X5459668Y79498899D01*
X5471861Y79499500D01*
X64528139Y79499500D01*
X64595178Y79479815D01*
G37*
%TD.AperFunction*%
%TD*%
M02*
