%TF.GenerationSoftware,KiCad,Pcbnew,8.0.0*%
%TF.CreationDate,2024-03-26T22:18:36-07:00*%
%TF.ProjectId,recivier,72656369-7669-4657-922e-6b696361645f,rev?*%
%TF.SameCoordinates,Original*%
%TF.FileFunction,Legend,Top*%
%TF.FilePolarity,Positive*%
%FSLAX46Y46*%
G04 Gerber Fmt 4.6, Leading zero omitted, Abs format (unit mm)*
G04 Created by KiCad (PCBNEW 8.0.0) date 2024-03-26 22:18:36*
%MOMM*%
%LPD*%
G01*
G04 APERTURE LIST*
G04 Aperture macros list*
%AMRoundRect*
0 Rectangle with rounded corners*
0 $1 Rounding radius*
0 $2 $3 $4 $5 $6 $7 $8 $9 X,Y pos of 4 corners*
0 Add a 4 corners polygon primitive as box body*
4,1,4,$2,$3,$4,$5,$6,$7,$8,$9,$2,$3,0*
0 Add four circle primitives for the rounded corners*
1,1,$1+$1,$2,$3*
1,1,$1+$1,$4,$5*
1,1,$1+$1,$6,$7*
1,1,$1+$1,$8,$9*
0 Add four rect primitives between the rounded corners*
20,1,$1+$1,$2,$3,$4,$5,0*
20,1,$1+$1,$4,$5,$6,$7,0*
20,1,$1+$1,$6,$7,$8,$9,0*
20,1,$1+$1,$8,$9,$2,$3,0*%
%AMFreePoly0*
4,1,19,0.500000,-0.750000,0.000000,-0.750000,0.000000,-0.744911,-0.071157,-0.744911,-0.207708,-0.704816,-0.327430,-0.627875,-0.420627,-0.520320,-0.479746,-0.390866,-0.500000,-0.250000,-0.500000,0.250000,-0.479746,0.390866,-0.420627,0.520320,-0.327430,0.627875,-0.207708,0.704816,-0.071157,0.744911,0.000000,0.744911,0.000000,0.750000,0.500000,0.750000,0.500000,-0.750000,0.500000,-0.750000,
$1*%
%AMFreePoly1*
4,1,19,0.000000,0.744911,0.071157,0.744911,0.207708,0.704816,0.327430,0.627875,0.420627,0.520320,0.479746,0.390866,0.500000,0.250000,0.500000,-0.250000,0.479746,-0.390866,0.420627,-0.520320,0.327430,-0.627875,0.207708,-0.704816,0.071157,-0.744911,0.000000,-0.744911,0.000000,-0.750000,-0.500000,-0.750000,-0.500000,0.750000,0.000000,0.750000,0.000000,0.744911,0.000000,0.744911,
$1*%
G04 Aperture macros list end*
%ADD10C,0.120000*%
%ADD11C,0.250000*%
%ADD12C,0.400000*%
%ADD13C,0.100000*%
%ADD14C,0.150000*%
%ADD15RoundRect,0.135000X0.135000X0.185000X-0.135000X0.185000X-0.135000X-0.185000X0.135000X-0.185000X0*%
%ADD16RoundRect,0.050000X0.050000X-0.387500X0.050000X0.387500X-0.050000X0.387500X-0.050000X-0.387500X0*%
%ADD17RoundRect,0.050000X0.387500X-0.050000X0.387500X0.050000X-0.387500X0.050000X-0.387500X-0.050000X0*%
%ADD18R,3.200000X3.200000*%
%ADD19RoundRect,0.140000X-0.140000X-0.170000X0.140000X-0.170000X0.140000X0.170000X-0.140000X0.170000X0*%
%ADD20C,1.800000*%
%ADD21RoundRect,0.140000X0.170000X-0.140000X0.170000X0.140000X-0.170000X0.140000X-0.170000X-0.140000X0*%
%ADD22RoundRect,0.100000X0.637500X0.100000X-0.637500X0.100000X-0.637500X-0.100000X0.637500X-0.100000X0*%
%ADD23RoundRect,0.135000X-0.135000X-0.185000X0.135000X-0.185000X0.135000X0.185000X-0.135000X0.185000X0*%
%ADD24RoundRect,0.225000X-0.225000X-0.250000X0.225000X-0.250000X0.225000X0.250000X-0.225000X0.250000X0*%
%ADD25RoundRect,0.140000X0.140000X0.170000X-0.140000X0.170000X-0.140000X-0.170000X0.140000X-0.170000X0*%
%ADD26C,5.600000*%
%ADD27RoundRect,0.135000X-0.185000X0.135000X-0.185000X-0.135000X0.185000X-0.135000X0.185000X0.135000X0*%
%ADD28RoundRect,0.225000X0.225000X0.250000X-0.225000X0.250000X-0.225000X-0.250000X0.225000X-0.250000X0*%
%ADD29RoundRect,0.225000X0.250000X-0.225000X0.250000X0.225000X-0.250000X0.225000X-0.250000X-0.225000X0*%
%ADD30R,3.000000X3.000000*%
%ADD31C,3.000000*%
%ADD32RoundRect,0.225000X-0.375000X0.225000X-0.375000X-0.225000X0.375000X-0.225000X0.375000X0.225000X0*%
%ADD33RoundRect,0.140000X-0.170000X0.140000X-0.170000X-0.140000X0.170000X-0.140000X0.170000X0.140000X0*%
%ADD34R,1.500000X0.800000*%
%ADD35R,0.800000X1.500000*%
%ADD36RoundRect,0.150000X0.587500X0.150000X-0.587500X0.150000X-0.587500X-0.150000X0.587500X-0.150000X0*%
%ADD37R,0.500000X0.280000*%
%ADD38R,0.280000X0.500000*%
%ADD39RoundRect,0.225000X-0.250000X0.225000X-0.250000X-0.225000X0.250000X-0.225000X0.250000X0.225000X0*%
%ADD40O,0.700000X1.770000*%
%ADD41RoundRect,0.135000X0.185000X-0.135000X0.185000X0.135000X-0.185000X0.135000X-0.185000X-0.135000X0*%
%ADD42C,1.000000*%
%ADD43R,0.700000X1.600000*%
%ADD44R,1.200000X1.500000*%
%ADD45R,1.200000X2.200000*%
%ADD46R,1.600000X1.500000*%
%ADD47R,1.800000X2.500000*%
%ADD48O,1.800000X2.500000*%
%ADD49RoundRect,0.150000X-0.150000X0.650000X-0.150000X-0.650000X0.150000X-0.650000X0.150000X0.650000X0*%
%ADD50R,2.000000X1.300000*%
%ADD51R,2.000000X2.000000*%
%ADD52FreePoly0,90.000000*%
%ADD53FreePoly1,90.000000*%
%ADD54R,0.850000X0.280000*%
%ADD55R,0.280000X0.850000*%
%ADD56R,2.050000X2.050000*%
%ADD57R,1.200000X5.000000*%
%ADD58R,1.400000X5.000000*%
%ADD59RoundRect,0.243750X-0.243750X-0.456250X0.243750X-0.456250X0.243750X0.456250X-0.243750X0.456250X0*%
%ADD60RoundRect,0.375000X-0.625000X-0.375000X0.625000X-0.375000X0.625000X0.375000X-0.625000X0.375000X0*%
%ADD61RoundRect,0.500000X-0.500000X-1.400000X0.500000X-1.400000X0.500000X1.400000X-0.500000X1.400000X0*%
%ADD62R,1.600000X0.400000*%
%ADD63O,1.400000X1.200000*%
%ADD64O,1.900000X1.200000*%
%ADD65R,0.800000X1.000000*%
%ADD66C,1.520000*%
%ADD67O,2.200000X1.400000*%
%ADD68R,1.000000X1.050000*%
%ADD69R,1.050000X2.200000*%
G04 APERTURE END LIST*
D10*
%TO.C,R7*%
X63190441Y74173000D02*
X62883159Y74173000D01*
X63190441Y73413000D02*
X62883159Y73413000D01*
%TO.C,U3*%
X14382000Y55676200D02*
X15032000Y55676200D01*
X14382000Y55026200D02*
X14382000Y55676200D01*
X14382000Y49106200D02*
X14382000Y48756200D01*
X15032000Y48456200D02*
X14622000Y48456200D01*
X21602000Y55676200D02*
X20952000Y55676200D01*
X21602000Y55026200D02*
X21602000Y55676200D01*
X21602000Y49106200D02*
X21602000Y48456200D01*
X21602000Y48456200D02*
X20952000Y48456200D01*
X14382000Y48456200D02*
X14052000Y48216200D01*
X14052000Y48696200D01*
X14382000Y48456200D01*
G36*
X14382000Y48456200D02*
G01*
X14052000Y48216200D01*
X14052000Y48696200D01*
X14382000Y48456200D01*
G37*
%TO.C,C37*%
X11927764Y5725400D02*
X12143436Y5725400D01*
X11927764Y5005400D02*
X12143436Y5005400D01*
D11*
%TO.C,SW2*%
X23083000Y12637600D02*
X23083000Y14937600D01*
X23683000Y16787600D02*
X28483000Y16787600D01*
X28483000Y10787600D02*
X23683000Y10787600D01*
X29083000Y14937600D02*
X29083000Y12637600D01*
X24733000Y15587600D02*
G75*
G02*
X23833000Y15587600I-450000J0D01*
G01*
X23833000Y15587600D02*
G75*
G02*
X24733000Y15587600I450000J0D01*
G01*
X24733000Y11987600D02*
G75*
G02*
X23833000Y11987600I-450000J0D01*
G01*
X23833000Y11987600D02*
G75*
G02*
X24733000Y11987600I450000J0D01*
G01*
X27883000Y13787600D02*
G75*
G02*
X24283000Y13787600I-1800000J0D01*
G01*
X24283000Y13787600D02*
G75*
G02*
X27883000Y13787600I1800000J0D01*
G01*
X28333000Y15587600D02*
G75*
G02*
X27433000Y15587600I-450000J0D01*
G01*
X27433000Y15587600D02*
G75*
G02*
X28333000Y15587600I450000J0D01*
G01*
X28333000Y11987600D02*
G75*
G02*
X27433000Y11987600I-450000J0D01*
G01*
X27433000Y11987600D02*
G75*
G02*
X28333000Y11987600I450000J0D01*
G01*
%TO.C,SW3*%
X32327400Y12673600D02*
X32327400Y14973600D01*
X32927400Y16823600D02*
X37727400Y16823600D01*
X37727400Y10823600D02*
X32927400Y10823600D01*
X38327400Y14973600D02*
X38327400Y12673600D01*
X33977400Y15623600D02*
G75*
G02*
X33077400Y15623600I-450000J0D01*
G01*
X33077400Y15623600D02*
G75*
G02*
X33977400Y15623600I450000J0D01*
G01*
X33977400Y12023600D02*
G75*
G02*
X33077400Y12023600I-450000J0D01*
G01*
X33077400Y12023600D02*
G75*
G02*
X33977400Y12023600I450000J0D01*
G01*
X37127400Y13823600D02*
G75*
G02*
X33527400Y13823600I-1800000J0D01*
G01*
X33527400Y13823600D02*
G75*
G02*
X37127400Y13823600I1800000J0D01*
G01*
X37577400Y15623600D02*
G75*
G02*
X36677400Y15623600I-450000J0D01*
G01*
X36677400Y15623600D02*
G75*
G02*
X37577400Y15623600I450000J0D01*
G01*
X37577400Y12023600D02*
G75*
G02*
X36677400Y12023600I-450000J0D01*
G01*
X36677400Y12023600D02*
G75*
G02*
X37577400Y12023600I450000J0D01*
G01*
D10*
%TO.C,C24*%
X60807200Y13276164D02*
X60807200Y13491836D01*
X61527200Y13276164D02*
X61527200Y13491836D01*
%TO.C,U5*%
X56806100Y14592400D02*
X54606100Y14592400D01*
X56806100Y14592400D02*
X59006100Y14592400D01*
X56806100Y7822400D02*
X54606100Y7822400D01*
X56806100Y7822400D02*
X59006100Y7822400D01*
X60996100Y8042400D02*
X60666100Y8282400D01*
X60996100Y8522400D01*
X60996100Y8042400D01*
G36*
X60996100Y8042400D02*
G01*
X60666100Y8282400D01*
X60996100Y8522400D01*
X60996100Y8042400D01*
G37*
%TO.C,R1*%
X4342641Y47299800D02*
X4035359Y47299800D01*
X4342641Y46539800D02*
X4035359Y46539800D01*
%TO.C,R10*%
X32572359Y2137400D02*
X32879641Y2137400D01*
X32572359Y1377400D02*
X32879641Y1377400D01*
%TO.C,C30*%
X65717620Y15273400D02*
X65998780Y15273400D01*
X65717620Y14253400D02*
X65998780Y14253400D01*
%TO.C,R8*%
X41777759Y10469800D02*
X42085041Y10469800D01*
X41777759Y9709800D02*
X42085041Y9709800D01*
%TO.C,C9*%
X12270436Y52715400D02*
X12054764Y52715400D01*
X12270436Y51995400D02*
X12054764Y51995400D01*
%TO.C,R17*%
X14373400Y4856641D02*
X14373400Y4549359D01*
X15133400Y4856641D02*
X15133400Y4549359D01*
%TO.C,C20*%
X57040580Y7394200D02*
X56759420Y7394200D01*
X57040580Y6374200D02*
X56759420Y6374200D01*
%TO.C,C22*%
X51708400Y10977620D02*
X51708400Y11258780D01*
X52728400Y10977620D02*
X52728400Y11258780D01*
%TO.C,C25*%
X61876400Y13652420D02*
X61876400Y13933580D01*
X62896400Y13652420D02*
X62896400Y13933580D01*
%TO.C,C10*%
X18635200Y57502764D02*
X18635200Y57718436D01*
X19355200Y57502764D02*
X19355200Y57718436D01*
%TO.C,C34*%
X8612836Y20305000D02*
X8397164Y20305000D01*
X8612836Y19585000D02*
X8397164Y19585000D01*
%TO.C,R16*%
X15338600Y4858641D02*
X15338600Y4551359D01*
X16098600Y4858641D02*
X16098600Y4551359D01*
%TO.C,J5*%
X681800Y17278000D02*
X681800Y7118000D01*
X681800Y7118000D02*
X8301800Y7118000D01*
X1951800Y7118000D02*
X1951800Y17278000D01*
X8301800Y17278000D02*
X681800Y17278000D01*
X8301800Y7118000D02*
X8301800Y17278000D01*
%TO.C,R3*%
X10258841Y54056200D02*
X9951559Y54056200D01*
X10258841Y53296200D02*
X9951559Y53296200D01*
%TO.C,D3*%
X8702700Y17812100D02*
X8702700Y13802100D01*
X10702700Y17812100D02*
X8702700Y17812100D01*
X10702700Y17812100D02*
X10702700Y13802100D01*
%TO.C,R2*%
X9951559Y53091000D02*
X10258841Y53091000D01*
X9951559Y52331000D02*
X10258841Y52331000D01*
%TO.C,C33*%
X29679900Y44436836D02*
X29679900Y44221164D01*
X30399900Y44436836D02*
X30399900Y44221164D01*
%TO.C,R11*%
X22502641Y10114200D02*
X22195359Y10114200D01*
X22502641Y9354200D02*
X22195359Y9354200D01*
%TO.C,C38*%
X9897600Y10286764D02*
X9897600Y10502436D01*
X10617600Y10286764D02*
X10617600Y10502436D01*
%TO.C,R4*%
X23214600Y54541041D02*
X23214600Y54233759D01*
X23974600Y54541041D02*
X23974600Y54233759D01*
D11*
%TO.C,U1*%
X27101600Y71864400D02*
X27101600Y73564400D01*
X27101600Y65264400D02*
X27101600Y63564400D01*
X28801600Y73564400D02*
X27101600Y73564400D01*
X28801600Y63564400D02*
X27101600Y63564400D01*
X35401600Y73564400D02*
X37101600Y73564400D01*
X35401600Y63564400D02*
X37101600Y63564400D01*
X37101600Y71864400D02*
X37101600Y73564400D01*
X37101600Y65264400D02*
X37101600Y63564400D01*
D12*
X38651600Y66154400D02*
G75*
G02*
X38251600Y66154400I-200000J0D01*
G01*
X38251600Y66154400D02*
G75*
G02*
X38651600Y66154400I200000J0D01*
G01*
D10*
%TO.C,C2*%
X39130400Y66852564D02*
X39130400Y67068236D01*
X39850400Y66852564D02*
X39850400Y67068236D01*
%TO.C,R12*%
X41701559Y9479200D02*
X42008841Y9479200D01*
X41701559Y8719200D02*
X42008841Y8719200D01*
%TO.C,Q1*%
X12774500Y18467200D02*
X12124500Y18467200D01*
X12774500Y18467200D02*
X13424500Y18467200D01*
X12774500Y15347200D02*
X12124500Y15347200D01*
X12774500Y15347200D02*
X13424500Y15347200D01*
X14177000Y15067200D02*
X13697000Y15067200D01*
X13937000Y15397200D01*
X14177000Y15067200D01*
G36*
X14177000Y15067200D02*
G01*
X13697000Y15067200D01*
X13937000Y15397200D01*
X14177000Y15067200D01*
G37*
D13*
%TO.C,U7*%
X26918700Y45218000D02*
X27548700Y45218000D01*
X26918700Y44968000D02*
X26918700Y45218000D01*
X26918700Y42938000D02*
X26918700Y42678000D01*
X26918700Y42678000D02*
X27548700Y42678000D01*
X28568700Y45218000D02*
X29198700Y45218000D01*
X28568700Y42678000D02*
X29198700Y42678000D01*
X29198700Y45218000D02*
X29198700Y44968000D01*
X29198700Y42678000D02*
X29198700Y42908000D01*
D14*
X29588700Y43198000D02*
G75*
G02*
X29448700Y43198000I-70000J0D01*
G01*
X29448700Y43198000D02*
G75*
G02*
X29588700Y43198000I70000J0D01*
G01*
D10*
%TO.C,C14*%
X14831736Y47800200D02*
X14616064Y47800200D01*
X14831736Y47080200D02*
X14616064Y47080200D01*
%TO.C,C12*%
X18355800Y47078436D02*
X18355800Y46862764D01*
X19075800Y47078436D02*
X19075800Y46862764D01*
%TO.C,J4*%
X61641800Y25863200D02*
X61641800Y15703200D01*
X61641800Y15703200D02*
X69261800Y15703200D01*
X67991800Y25863200D02*
X67991800Y15703200D01*
X69261800Y25863200D02*
X61641800Y25863200D01*
X69261800Y15703200D02*
X69261800Y25863200D01*
%TO.C,C23*%
X50613800Y10842964D02*
X50613800Y11058636D01*
X51333800Y10842964D02*
X51333800Y11058636D01*
%TO.C,C35*%
X14980000Y17012180D02*
X14980000Y16731020D01*
X16000000Y17012180D02*
X16000000Y16731020D01*
%TO.C,C36*%
X8584836Y23276800D02*
X8369164Y23276800D01*
X8584836Y22556800D02*
X8369164Y22556800D01*
%TO.C,C32*%
X28336164Y46111400D02*
X28551836Y46111400D01*
X28336164Y45391400D02*
X28551836Y45391400D01*
%TO.C,C8*%
X13009636Y54620400D02*
X12793964Y54620400D01*
X13009636Y53900400D02*
X12793964Y53900400D01*
D14*
%TO.C,U6*%
X57223000Y67384600D02*
X57223000Y67384600D01*
X57223000Y67384600D02*
X57223000Y57534600D01*
X57223000Y57534600D02*
X57223000Y57534600D01*
X57223000Y57534600D02*
X57453000Y57534600D01*
X57453000Y67384600D02*
X57223000Y67384600D01*
X67253000Y67384600D02*
X67483000Y67384600D01*
X67483000Y67384600D02*
X67483000Y67384600D01*
X67483000Y67384600D02*
X67483000Y57534600D01*
X67483000Y57534600D02*
X67253000Y57534600D01*
X67483000Y57534600D02*
X67483000Y57534600D01*
D11*
X66873000Y68494600D02*
G75*
G02*
X66633000Y68494600I-120000J0D01*
G01*
X66633000Y68494600D02*
G75*
G02*
X66873000Y68494600I120000J0D01*
G01*
D10*
%TO.C,R9*%
X64690800Y12907959D02*
X64690800Y13215241D01*
X65450800Y12907959D02*
X65450800Y13215241D01*
D11*
%TO.C,Card1*%
X7368600Y79422400D02*
X7368600Y77392400D01*
X7368600Y74592400D02*
X7368600Y67482400D01*
X7368600Y67482400D02*
X7998600Y67482400D01*
X7998600Y64692400D02*
X7998600Y65452400D01*
X12568600Y64692400D02*
X7998600Y64692400D01*
X23748600Y79422400D02*
X7368600Y79422400D01*
X23748600Y77392400D02*
X23748600Y79422400D01*
X23748600Y67482400D02*
X23748600Y74592400D01*
X23748600Y65452400D02*
X23748600Y64692400D01*
X23748600Y64692400D02*
X22728600Y64692400D01*
%TO.C,DS1*%
D13*
X-12133800Y27554200D02*
X80866200Y27554200D01*
X80866200Y98054200D01*
X-12133800Y98054200D01*
X-12133800Y27554200D01*
D11*
%TO.C,SW5*%
X32429000Y5561600D02*
X32429000Y7861600D01*
X33029000Y9711600D02*
X37829000Y9711600D01*
X37829000Y3711600D02*
X33029000Y3711600D01*
X38429000Y7861600D02*
X38429000Y5561600D01*
X34079000Y8511600D02*
G75*
G02*
X33179000Y8511600I-450000J0D01*
G01*
X33179000Y8511600D02*
G75*
G02*
X34079000Y8511600I450000J0D01*
G01*
X34079000Y4911600D02*
G75*
G02*
X33179000Y4911600I-450000J0D01*
G01*
X33179000Y4911600D02*
G75*
G02*
X34079000Y4911600I450000J0D01*
G01*
X37229000Y6711600D02*
G75*
G02*
X33629000Y6711600I-1800000J0D01*
G01*
X33629000Y6711600D02*
G75*
G02*
X37229000Y6711600I1800000J0D01*
G01*
X37679000Y8511600D02*
G75*
G02*
X36779000Y8511600I-450000J0D01*
G01*
X36779000Y8511600D02*
G75*
G02*
X37679000Y8511600I450000J0D01*
G01*
X37679000Y4911600D02*
G75*
G02*
X36779000Y4911600I-450000J0D01*
G01*
X36779000Y4911600D02*
G75*
G02*
X37679000Y4911600I450000J0D01*
G01*
D10*
%TO.C,U2*%
X5322800Y46622200D02*
X5582800Y46622200D01*
X5322800Y43897200D02*
X5322800Y46622200D01*
X5322800Y43897200D02*
X5322800Y41172200D01*
X5322800Y41172200D02*
X5582800Y41172200D01*
X10772800Y46622200D02*
X10512800Y46622200D01*
X10772800Y43897200D02*
X10772800Y46622200D01*
X10772800Y43897200D02*
X10772800Y41172200D01*
X10772800Y41172200D02*
X10512800Y41172200D01*
X10842800Y47164700D02*
X10512800Y47404700D01*
X10842800Y47644700D01*
X10842800Y47164700D01*
G36*
X10842800Y47164700D02*
G01*
X10512800Y47404700D01*
X10842800Y47644700D01*
X10842800Y47164700D01*
G37*
%TO.C,C26*%
X60781800Y8884564D02*
X60781800Y9100236D01*
X61501800Y8884564D02*
X61501800Y9100236D01*
%TO.C,C29*%
X50209800Y8399820D02*
X50209800Y8680980D01*
X51229800Y8399820D02*
X51229800Y8680980D01*
D11*
%TO.C,RV1*%
X45867700Y27408200D02*
X50437700Y27408200D01*
X45867700Y26348200D02*
X45867700Y27408200D01*
X45867700Y22868200D02*
X45867700Y23888200D01*
X47157700Y26868200D02*
X47157700Y27368200D01*
X47157700Y23368200D02*
X48907700Y23368200D01*
X47157700Y22868200D02*
X45867700Y22868200D01*
X47157700Y22868200D02*
X47157700Y23368200D01*
X47157700Y22868200D02*
X50437700Y22868200D01*
X48907700Y27368200D02*
X48907700Y26868200D01*
X48907700Y26868200D02*
X47157700Y26868200D01*
X48907700Y25118200D02*
X47407700Y25118200D01*
X48907700Y23368200D02*
X48907700Y22868200D01*
X50437700Y27408200D02*
X50437700Y27178200D01*
X50437700Y25408200D02*
X50437700Y24828200D01*
X50437700Y23058200D02*
X50437700Y22958200D01*
X47357700Y25128200D02*
G75*
G02*
X47357637Y25118134I790000J-10000D01*
G01*
X51127700Y27408200D02*
G75*
G02*
X50767700Y27408200I-180000J0D01*
G01*
X50767700Y27408200D02*
G75*
G02*
X51127700Y27408200I180000J0D01*
G01*
D10*
%TO.C,J3*%
X1713800Y44025000D02*
X1713800Y45425000D01*
X2413800Y46125000D02*
X3013800Y46125000D01*
X3013800Y43325000D02*
X2413800Y43325000D01*
X3713800Y45425000D02*
X3713800Y44025000D01*
X1713800Y45425000D02*
G75*
G02*
X2413800Y46125000I700000J0D01*
G01*
X2413800Y43325000D02*
G75*
G02*
X1713800Y44025000I-1J699999D01*
G01*
X3013800Y46125000D02*
G75*
G02*
X3713800Y45425000I0J-700000D01*
G01*
X3713800Y44025000D02*
G75*
G02*
X3013800Y43325000I-699999J-1D01*
G01*
%TO.C,C6*%
X22999564Y53274200D02*
X23215236Y53274200D01*
X22999564Y52554200D02*
X23215236Y52554200D01*
%TO.C,R5*%
X22600759Y44124800D02*
X22908041Y44124800D01*
X22600759Y43364800D02*
X22908041Y43364800D01*
%TO.C,C21*%
X62068020Y11509000D02*
X62349180Y11509000D01*
X62068020Y10489000D02*
X62349180Y10489000D01*
%TO.C,U4*%
X38445600Y36579200D02*
X39305600Y36579200D01*
X38445600Y35469200D02*
X38445600Y36579200D01*
X38445600Y33169200D02*
X38445600Y32059200D01*
X38445600Y32059200D02*
X39305600Y32059200D01*
X42105600Y36574200D02*
X42965600Y36574200D01*
X42965600Y35464200D02*
X42965600Y36574200D01*
X42965600Y33169200D02*
X42965600Y32059200D01*
X42965600Y32059200D02*
X42105600Y32059200D01*
X42965600Y34389200D02*
X42965600Y34669200D01*
X43245600Y34669200D01*
X42965600Y34389200D01*
G36*
X42965600Y34389200D02*
G01*
X42965600Y34669200D01*
X43245600Y34669200D01*
X42965600Y34389200D01*
G37*
D11*
%TO.C,SW1*%
X32302000Y20319000D02*
X32302000Y22619000D01*
X32902000Y24469000D02*
X37702000Y24469000D01*
X37702000Y18469000D02*
X32902000Y18469000D01*
X38302000Y22619000D02*
X38302000Y20319000D01*
X33952000Y23269000D02*
G75*
G02*
X33052000Y23269000I-450000J0D01*
G01*
X33052000Y23269000D02*
G75*
G02*
X33952000Y23269000I450000J0D01*
G01*
X33952000Y19669000D02*
G75*
G02*
X33052000Y19669000I-450000J0D01*
G01*
X33052000Y19669000D02*
G75*
G02*
X33952000Y19669000I450000J0D01*
G01*
X37102000Y21469000D02*
G75*
G02*
X33502000Y21469000I-1800000J0D01*
G01*
X33502000Y21469000D02*
G75*
G02*
X37102000Y21469000I1800000J0D01*
G01*
X37552000Y23269000D02*
G75*
G02*
X36652000Y23269000I-450000J0D01*
G01*
X36652000Y23269000D02*
G75*
G02*
X37552000Y23269000I450000J0D01*
G01*
X37552000Y19669000D02*
G75*
G02*
X36652000Y19669000I-450000J0D01*
G01*
X36652000Y19669000D02*
G75*
G02*
X37552000Y19669000I450000J0D01*
G01*
%TO.C,AE1*%
X31569400Y81305800D02*
X37999400Y81305800D01*
X31569400Y79805800D02*
X31569400Y81305800D01*
X31569400Y79805800D02*
X38069400Y79805800D01*
X32279400Y89305800D02*
X37359400Y89305800D01*
X32279400Y88065800D02*
X37379400Y88065800D01*
X32279400Y87285800D02*
X37379400Y87285800D01*
X32279400Y86485800D02*
X37379400Y86485800D01*
X32279400Y85665800D02*
X37379400Y85665800D01*
X32279400Y84765800D02*
X37379400Y84765800D01*
X32279400Y81305800D02*
X32279400Y89305800D01*
X37379400Y88065800D02*
X32279400Y87305800D01*
X37379400Y87285800D02*
X32279400Y86525800D01*
X37379400Y86485800D02*
X32279400Y85725800D01*
X37379400Y85665800D02*
X32279400Y84905800D01*
X37379400Y81305800D02*
X37379400Y89335800D01*
X38069400Y79805800D02*
X38069400Y81305800D01*
D10*
%TO.C,C27*%
X61825600Y8610220D02*
X61825600Y8891380D01*
X62845600Y8610220D02*
X62845600Y8891380D01*
%TO.C,D1*%
X58714800Y74829600D02*
X58714800Y72909600D01*
X58714800Y72909600D02*
X61399800Y72909600D01*
X61399800Y74829600D02*
X58714800Y74829600D01*
%TO.C,C1*%
X39204764Y69377800D02*
X39420436Y69377800D01*
X39204764Y68657800D02*
X39420436Y68657800D01*
%TO.C,C7*%
X12295836Y51750200D02*
X12080164Y51750200D01*
X12295836Y51030200D02*
X12080164Y51030200D01*
%TO.C,C31*%
X17617364Y64374000D02*
X17833036Y64374000D01*
X17617364Y63654000D02*
X17833036Y63654000D01*
%TO.C,U9*%
X13360600Y12878100D02*
X17120600Y12878100D01*
X13360600Y6058100D02*
X17120600Y6058100D01*
X17120600Y12878100D02*
X17120600Y11618100D01*
X17120600Y6058100D02*
X17120600Y7318100D01*
X12080600Y12778100D02*
X11840600Y13108100D01*
X12320600Y13108100D01*
X12080600Y12778100D01*
G36*
X12080600Y12778100D02*
G01*
X11840600Y13108100D01*
X12320600Y13108100D01*
X12080600Y12778100D01*
G37*
%TO.C,R13*%
X40380759Y19639200D02*
X40688041Y19639200D01*
X40380759Y18879200D02*
X40688041Y18879200D01*
D11*
%TO.C,J1*%
X624400Y56928200D02*
X624400Y56888200D01*
X624400Y56888200D02*
X1354400Y56158200D01*
X624400Y55468200D02*
X624400Y50428200D01*
X624400Y50428200D02*
X1354400Y50428200D01*
X624400Y49128200D02*
X704400Y49128200D01*
X704400Y49128200D02*
X1354400Y49778200D01*
X954400Y57258200D02*
X624400Y56928200D01*
X954400Y48798200D02*
X624400Y49128200D01*
X1354400Y56858200D02*
X954400Y57258200D01*
X1354400Y56778200D02*
X1354400Y56858200D01*
X1354400Y56778200D02*
X6474400Y56778200D01*
X1354400Y55468200D02*
X624400Y55468200D01*
X1354400Y49278200D02*
X1354400Y56778200D01*
X1354400Y49278200D02*
X1354400Y49198200D01*
X1354400Y49198200D02*
X954400Y48798200D01*
X6474400Y56778200D02*
X6474400Y56278200D01*
X6474400Y49778200D02*
X6474400Y49278200D01*
X6474400Y49278200D02*
X1354400Y49278200D01*
D14*
%TO.C,X1*%
X24116800Y51973400D02*
X26776800Y51973400D01*
X24116800Y48673400D02*
X24116800Y51973400D01*
X25546800Y48433400D02*
X27006800Y48433400D01*
X26776800Y51973400D02*
X26776800Y48793400D01*
X26776800Y48793400D02*
X26776800Y48673400D01*
X26776800Y48673400D02*
X24116800Y48673400D01*
X27006800Y48433400D02*
X27006800Y49693400D01*
D10*
%TO.C,C17*%
X58767200Y69595764D02*
X58767200Y69811436D01*
X59487200Y69595764D02*
X59487200Y69811436D01*
%TO.C,U8*%
X12039800Y26276000D02*
X15799800Y26276000D01*
X12039800Y19456000D02*
X15799800Y19456000D01*
X15799800Y26276000D02*
X15799800Y25016000D01*
X15799800Y19456000D02*
X15799800Y20716000D01*
X10759800Y26176000D02*
X10519800Y26506000D01*
X10999800Y26506000D01*
X10759800Y26176000D01*
G36*
X10759800Y26176000D02*
G01*
X10519800Y26506000D01*
X10999800Y26506000D01*
X10759800Y26176000D01*
G37*
%TO.C,C28*%
X52112400Y8584964D02*
X52112400Y8800636D01*
X52832400Y8584964D02*
X52832400Y8800636D01*
%TO.C,R14*%
X12491559Y3154600D02*
X12798841Y3154600D01*
X12491559Y2394600D02*
X12798841Y2394600D01*
%TO.C,C11*%
X22976764Y52309000D02*
X23192436Y52309000D01*
X22976764Y51589000D02*
X23192436Y51589000D01*
%TO.C,D2*%
X8251000Y3704800D02*
X8251000Y1784800D01*
X8251000Y1784800D02*
X10936000Y1784800D01*
X10936000Y3704800D02*
X8251000Y3704800D01*
D11*
%TO.C,SW4*%
X41622600Y12703200D02*
X41622600Y15003200D01*
X42222600Y16853200D02*
X47022600Y16853200D01*
X47022600Y10853200D02*
X42222600Y10853200D01*
X47622600Y15003200D02*
X47622600Y12703200D01*
X43272600Y15653200D02*
G75*
G02*
X42372600Y15653200I-450000J0D01*
G01*
X42372600Y15653200D02*
G75*
G02*
X43272600Y15653200I450000J0D01*
G01*
X43272600Y12053200D02*
G75*
G02*
X42372600Y12053200I-450000J0D01*
G01*
X42372600Y12053200D02*
G75*
G02*
X43272600Y12053200I450000J0D01*
G01*
X46422600Y13853200D02*
G75*
G02*
X42822600Y13853200I-1800000J0D01*
G01*
X42822600Y13853200D02*
G75*
G02*
X46422600Y13853200I1800000J0D01*
G01*
X46872600Y15653200D02*
G75*
G02*
X45972600Y15653200I-450000J0D01*
G01*
X45972600Y15653200D02*
G75*
G02*
X46872600Y15653200I450000J0D01*
G01*
X46872600Y12053200D02*
G75*
G02*
X45972600Y12053200I-450000J0D01*
G01*
X45972600Y12053200D02*
G75*
G02*
X46872600Y12053200I450000J0D01*
G01*
D10*
%TO.C,C13*%
X13032436Y55585600D02*
X12816764Y55585600D01*
X13032436Y54865600D02*
X12816764Y54865600D01*
%TO.C,R6*%
X22602759Y43134200D02*
X22910041Y43134200D01*
X22602759Y42374200D02*
X22910041Y42374200D01*
%TO.C,C3*%
X40253000Y66896020D02*
X40253000Y67177180D01*
X41273000Y66896020D02*
X41273000Y67177180D01*
D11*
%TO.C,SW6*%
X-3384600Y24768000D02*
X-3384600Y22698000D01*
X-3384600Y22698000D02*
X615400Y22698000D01*
X615400Y27048000D02*
X1505400Y27048000D01*
X615400Y24768000D02*
X-3384600Y24768000D01*
X615400Y18348000D02*
X615400Y27048000D01*
X1505400Y18348000D02*
X615400Y18348000D01*
X4125400Y27048000D02*
X5015400Y27048000D01*
X5015400Y27048000D02*
X5015400Y18348000D01*
X5015400Y18348000D02*
X4125400Y18348000D01*
D10*
%TO.C,C15*%
X14831736Y57045800D02*
X14616064Y57045800D01*
X14831736Y56325800D02*
X14616064Y56325800D01*
%TO.C,C5*%
X10355564Y39101000D02*
X10571236Y39101000D01*
X10355564Y38381000D02*
X10571236Y38381000D01*
D11*
%TO.C,AE2*%
X58448000Y55609800D02*
X58318000Y55609800D01*
X60038000Y55609800D02*
X59908000Y55609800D01*
X60478000Y53009800D02*
X57878000Y53009800D01*
X59358000Y54309800D02*
G75*
G02*
X58998000Y54309800I-180000J0D01*
G01*
X58998000Y54309800D02*
G75*
G02*
X59358000Y54309800I180000J0D01*
G01*
X59938000Y54309800D02*
G75*
G02*
X58418000Y54309800I-760000J0D01*
G01*
X58418000Y54309800D02*
G75*
G02*
X59938000Y54309800I760000J0D01*
G01*
D10*
%TO.C,C4*%
X27144200Y50164764D02*
X27144200Y50380436D01*
X27864200Y50164764D02*
X27864200Y50380436D01*
%TD*%
%LPC*%
D15*
%TO.C,R7*%
X63546800Y73793000D03*
X62526800Y73793000D03*
%TD*%
D16*
%TO.C,U3*%
X15392000Y48628700D03*
X15792000Y48628700D03*
X16192000Y48628700D03*
X16592000Y48628700D03*
X16992000Y48628700D03*
X17392000Y48628700D03*
X17792000Y48628700D03*
X18192000Y48628700D03*
X18592000Y48628700D03*
X18992000Y48628700D03*
X19392000Y48628700D03*
X19792000Y48628700D03*
X20192000Y48628700D03*
X20592000Y48628700D03*
D17*
X21429500Y49466200D03*
X21429500Y49866200D03*
X21429500Y50266200D03*
X21429500Y50666200D03*
X21429500Y51066200D03*
X21429500Y51466200D03*
X21429500Y51866200D03*
X21429500Y52266200D03*
X21429500Y52666200D03*
X21429500Y53066200D03*
X21429500Y53466200D03*
X21429500Y53866200D03*
X21429500Y54266200D03*
X21429500Y54666200D03*
D16*
X20592000Y55503700D03*
X20192000Y55503700D03*
X19792000Y55503700D03*
X19392000Y55503700D03*
X18992000Y55503700D03*
X18592000Y55503700D03*
X18192000Y55503700D03*
X17792000Y55503700D03*
X17392000Y55503700D03*
X16992000Y55503700D03*
X16592000Y55503700D03*
X16192000Y55503700D03*
X15792000Y55503700D03*
X15392000Y55503700D03*
D17*
X14554500Y54666200D03*
X14554500Y54266200D03*
X14554500Y53866200D03*
X14554500Y53466200D03*
X14554500Y53066200D03*
X14554500Y52666200D03*
X14554500Y52266200D03*
X14554500Y51866200D03*
X14554500Y51466200D03*
X14554500Y51066200D03*
X14554500Y50666200D03*
X14554500Y50266200D03*
X14554500Y49866200D03*
X14554500Y49466200D03*
D18*
X17992000Y52066200D03*
%TD*%
D19*
%TO.C,C37*%
X11555600Y5365400D03*
X12515600Y5365400D03*
%TD*%
D20*
%TO.C,SW2*%
X22833000Y16037600D03*
X29333000Y16037600D03*
X22833000Y11537600D03*
X29333000Y11537600D03*
%TD*%
%TO.C,SW3*%
X32077400Y16073600D03*
X38577400Y16073600D03*
X32077400Y11573600D03*
X38577400Y11573600D03*
%TD*%
D21*
%TO.C,C24*%
X61167200Y12904000D03*
X61167200Y13864000D03*
%TD*%
D22*
%TO.C,U5*%
X59668600Y8282400D03*
X59668600Y8932400D03*
X59668600Y9582400D03*
X59668600Y10232400D03*
X59668600Y10882400D03*
X59668600Y11532400D03*
X59668600Y12182400D03*
X59668600Y12832400D03*
X59668600Y13482400D03*
X59668600Y14132400D03*
X53943600Y14132400D03*
X53943600Y13482400D03*
X53943600Y12832400D03*
X53943600Y12182400D03*
X53943600Y11532400D03*
X53943600Y10882400D03*
X53943600Y10232400D03*
X53943600Y9582400D03*
X53943600Y8932400D03*
X53943600Y8282400D03*
%TD*%
D15*
%TO.C,R1*%
X4699000Y46919800D03*
X3679000Y46919800D03*
%TD*%
D23*
%TO.C,R10*%
X32216000Y1757400D03*
X33236000Y1757400D03*
%TD*%
D24*
%TO.C,C30*%
X65083200Y14763400D03*
X66633200Y14763400D03*
%TD*%
D23*
%TO.C,R8*%
X41421400Y10089800D03*
X42441400Y10089800D03*
%TD*%
D25*
%TO.C,C9*%
X12642600Y52355400D03*
X11682600Y52355400D03*
%TD*%
D26*
%TO.C,H1*%
X3000000Y77000000D03*
%TD*%
D27*
%TO.C,R17*%
X14753400Y5213000D03*
X14753400Y4193000D03*
%TD*%
D28*
%TO.C,C20*%
X57675000Y6884200D03*
X56125000Y6884200D03*
%TD*%
D29*
%TO.C,C22*%
X52218400Y10343200D03*
X52218400Y11893200D03*
%TD*%
%TO.C,C25*%
X62386400Y13018000D03*
X62386400Y14568000D03*
%TD*%
D21*
%TO.C,C10*%
X18995200Y57130600D03*
X18995200Y58090600D03*
%TD*%
D25*
%TO.C,C34*%
X8985000Y19945000D03*
X8025000Y19945000D03*
%TD*%
D27*
%TO.C,R16*%
X15718600Y5215000D03*
X15718600Y4195000D03*
%TD*%
D30*
%TO.C,J5*%
X4491800Y14738000D03*
D31*
X4491800Y9658000D03*
%TD*%
D15*
%TO.C,R3*%
X10615200Y53676200D03*
X9595200Y53676200D03*
%TD*%
D32*
%TO.C,D3*%
X9702700Y17102100D03*
X9702700Y13802100D03*
%TD*%
D23*
%TO.C,R2*%
X9595200Y52711000D03*
X10615200Y52711000D03*
%TD*%
D33*
%TO.C,C33*%
X30039900Y44809000D03*
X30039900Y43849000D03*
%TD*%
D15*
%TO.C,R11*%
X22859000Y9734200D03*
X21839000Y9734200D03*
%TD*%
D21*
%TO.C,C38*%
X10257600Y9914600D03*
X10257600Y10874600D03*
%TD*%
D27*
%TO.C,R4*%
X23594600Y54897400D03*
X23594600Y53877400D03*
%TD*%
D34*
%TO.C,U1*%
X37101600Y66024400D03*
X37101600Y67294400D03*
X37101600Y68564400D03*
X37101600Y69834400D03*
X37101600Y71104400D03*
D35*
X34641600Y73564400D03*
X33371600Y73564400D03*
X32101600Y73564400D03*
X30831600Y73564400D03*
X29561600Y73564400D03*
D34*
X27101600Y71104400D03*
X27101600Y69834400D03*
X27101600Y68564400D03*
X27101600Y67294400D03*
X27101600Y66024400D03*
D35*
X29561600Y63564400D03*
X30831600Y63564400D03*
X32101600Y63564400D03*
X33371600Y63564400D03*
X34641600Y63564400D03*
%TD*%
D26*
%TO.C,H4*%
X67000000Y3000000D03*
%TD*%
D21*
%TO.C,C2*%
X39490400Y66480400D03*
X39490400Y67440400D03*
%TD*%
D23*
%TO.C,R12*%
X41345200Y9099200D03*
X42365200Y9099200D03*
%TD*%
D36*
%TO.C,Q1*%
X13712000Y15957200D03*
X13712000Y17857200D03*
X11837000Y16907200D03*
%TD*%
D37*
%TO.C,U7*%
X28938700Y43198000D03*
X28938700Y43698000D03*
X28938700Y44198000D03*
X28938700Y44698000D03*
D38*
X28308700Y44828000D03*
X27808700Y44828000D03*
D37*
X27178700Y44698000D03*
X27178700Y44198000D03*
X27178700Y43698000D03*
X27178700Y43198000D03*
D38*
X27808700Y43068000D03*
X28308700Y43068000D03*
%TD*%
D25*
%TO.C,C14*%
X15203900Y47440200D03*
X14243900Y47440200D03*
%TD*%
D33*
%TO.C,C12*%
X18715800Y47450600D03*
X18715800Y46490600D03*
%TD*%
D30*
%TO.C,J4*%
X65451800Y18243200D03*
D31*
X65451800Y23323200D03*
%TD*%
D21*
%TO.C,C23*%
X50973800Y10470800D03*
X50973800Y11430800D03*
%TD*%
D39*
%TO.C,C35*%
X15490000Y17646600D03*
X15490000Y16096600D03*
%TD*%
D25*
%TO.C,C36*%
X8957000Y22916800D03*
X7997000Y22916800D03*
%TD*%
D19*
%TO.C,C32*%
X27964000Y45751400D03*
X28924000Y45751400D03*
%TD*%
D25*
%TO.C,C8*%
X13381800Y54260400D03*
X12421800Y54260400D03*
%TD*%
D40*
%TO.C,U6*%
X66753000Y67274600D03*
X65653000Y67274600D03*
X64553000Y67274600D03*
X63453000Y67274600D03*
X62353000Y67274600D03*
X61253000Y67274600D03*
X60153000Y67274600D03*
X59053000Y67274600D03*
X57953000Y67274600D03*
X57953000Y57654600D03*
X59053000Y57654600D03*
X60153000Y57654600D03*
X61253000Y57654600D03*
X62353000Y57654600D03*
X63453000Y57654600D03*
X64553000Y57654600D03*
X65653000Y57654600D03*
X66753000Y57654600D03*
%TD*%
D41*
%TO.C,R9*%
X65070800Y12551600D03*
X65070800Y13571600D03*
%TD*%
D42*
%TO.C,Card1*%
X20538600Y76452400D03*
X12538600Y76452400D03*
D43*
X13338600Y65452400D03*
X14438600Y65452400D03*
X15538600Y65452400D03*
X16638600Y65452400D03*
X17738600Y65452400D03*
X18838600Y65452400D03*
X19938600Y65452400D03*
X21038600Y65452400D03*
X22138600Y65452400D03*
D44*
X23338600Y66452400D03*
D45*
X23338600Y76052400D03*
D46*
X8738600Y66452400D03*
D45*
X7838600Y76052400D03*
%TD*%
D47*
%TO.C,DS1*%
X51126200Y30054200D03*
D48*
X48586200Y30054200D03*
X46046200Y30054200D03*
X43506200Y30054200D03*
X40966200Y30054200D03*
X38426200Y30054200D03*
X35886200Y30054200D03*
X33346200Y30054200D03*
X30806200Y30054200D03*
X28266200Y30054200D03*
X25726200Y30054200D03*
X23186200Y30054200D03*
X20646200Y30054200D03*
X18106200Y30054200D03*
X15566200Y30054200D03*
X13026200Y30054200D03*
X10486200Y30054200D03*
X7946200Y30054200D03*
X5406200Y30054200D03*
X2866200Y30054200D03*
%TD*%
D20*
%TO.C,SW5*%
X32179000Y8961600D03*
X38679000Y8961600D03*
X32179000Y4461600D03*
X38679000Y4461600D03*
%TD*%
D49*
%TO.C,U2*%
X9952800Y47497200D03*
X8682800Y47497200D03*
X7412800Y47497200D03*
X6142800Y47497200D03*
X6142800Y40297200D03*
X7412800Y40297200D03*
X8682800Y40297200D03*
X9952800Y40297200D03*
%TD*%
D21*
%TO.C,C26*%
X61141800Y8512400D03*
X61141800Y9472400D03*
%TD*%
D29*
%TO.C,C29*%
X50719800Y7765400D03*
X50719800Y9315400D03*
%TD*%
D50*
%TO.C,RV1*%
X50157700Y26298200D03*
D51*
X46157700Y25118200D03*
D50*
X50157700Y23938200D03*
%TD*%
D52*
%TO.C,J3*%
X2713800Y44075000D03*
D53*
X2713800Y45375000D03*
%TD*%
D26*
%TO.C,H2*%
X67000000Y77000000D03*
%TD*%
D19*
%TO.C,C6*%
X22627400Y52914200D03*
X23587400Y52914200D03*
%TD*%
D26*
%TO.C,H3*%
X3000000Y3000000D03*
%TD*%
D23*
%TO.C,R5*%
X22244400Y43744800D03*
X23264400Y43744800D03*
%TD*%
D24*
%TO.C,C21*%
X61433600Y10999000D03*
X62983600Y10999000D03*
%TD*%
D54*
%TO.C,U4*%
X42430600Y35069200D03*
D55*
X41705600Y36044200D03*
X41205600Y36044200D03*
X40705600Y36044200D03*
X40205600Y36044200D03*
X39705600Y36044200D03*
D54*
X38980600Y35069200D03*
X38980600Y33569200D03*
D55*
X39705600Y32594200D03*
X40205600Y32594200D03*
X40705600Y32594200D03*
X41205600Y32594200D03*
X41705600Y32594200D03*
D54*
X42430600Y33569200D03*
D56*
X40705600Y34319200D03*
%TD*%
D20*
%TO.C,SW1*%
X32052000Y23719000D03*
X38552000Y23719000D03*
X32052000Y19219000D03*
X38552000Y19219000D03*
%TD*%
D57*
%TO.C,AE1*%
X34819400Y77145800D03*
D58*
X32269400Y77145800D03*
X37369400Y77145800D03*
%TD*%
D29*
%TO.C,C27*%
X62335600Y7975800D03*
X62335600Y9525800D03*
%TD*%
D59*
%TO.C,D1*%
X59462300Y73869600D03*
X61337300Y73869600D03*
%TD*%
D19*
%TO.C,C1*%
X38832600Y69017800D03*
X39792600Y69017800D03*
%TD*%
D25*
%TO.C,C7*%
X12668000Y51390200D03*
X11708000Y51390200D03*
%TD*%
D19*
%TO.C,C31*%
X17245200Y64014000D03*
X18205200Y64014000D03*
%TD*%
D60*
%TO.C,U9*%
X12060600Y11768100D03*
X12060600Y9468100D03*
D61*
X18360600Y9468100D03*
D60*
X12060600Y7168100D03*
%TD*%
D23*
%TO.C,R13*%
X40024400Y19259200D03*
X41044400Y19259200D03*
%TD*%
D62*
%TO.C,J1*%
X6154400Y54328200D03*
X6154400Y53678200D03*
X6154400Y53028200D03*
X6154400Y52378200D03*
X6164400Y51728200D03*
D63*
X6404400Y50608200D03*
X6404400Y55448200D03*
D64*
X3504400Y56628200D03*
X3504400Y49428200D03*
%TD*%
D65*
%TO.C,X1*%
X26046800Y49423400D03*
X26046800Y51223400D03*
X24846800Y51223400D03*
X24846800Y49423400D03*
%TD*%
D21*
%TO.C,C17*%
X59127200Y69223600D03*
X59127200Y70183600D03*
%TD*%
D60*
%TO.C,U8*%
X10739800Y25166000D03*
X10739800Y22866000D03*
D61*
X17039800Y22866000D03*
D60*
X10739800Y20566000D03*
%TD*%
D21*
%TO.C,C28*%
X52472400Y8212800D03*
X52472400Y9172800D03*
%TD*%
D23*
%TO.C,R14*%
X12135200Y2774600D03*
X13155200Y2774600D03*
%TD*%
D19*
%TO.C,C11*%
X22604600Y51949000D03*
X23564600Y51949000D03*
%TD*%
D59*
%TO.C,D2*%
X8998500Y2744800D03*
X10873500Y2744800D03*
%TD*%
D20*
%TO.C,SW4*%
X41372600Y16103200D03*
X47872600Y16103200D03*
X41372600Y11603200D03*
X47872600Y11603200D03*
%TD*%
D25*
%TO.C,C13*%
X13404600Y55225600D03*
X12444600Y55225600D03*
%TD*%
D23*
%TO.C,R6*%
X22246400Y42754200D03*
X23266400Y42754200D03*
%TD*%
D29*
%TO.C,C3*%
X40763000Y66261600D03*
X40763000Y67811600D03*
%TD*%
D66*
%TO.C,SW6*%
X2815400Y24698000D03*
X2815400Y22698000D03*
X2815400Y20698000D03*
D67*
X2815400Y18548000D03*
X2815400Y26848000D03*
%TD*%
D25*
%TO.C,C15*%
X15203900Y56685800D03*
X14243900Y56685800D03*
%TD*%
D19*
%TO.C,C5*%
X9983400Y38741000D03*
X10943400Y38741000D03*
%TD*%
D68*
%TO.C,AE2*%
X59178000Y55809800D03*
D69*
X57678000Y54309800D03*
X60678000Y54309800D03*
%TD*%
D21*
%TO.C,C4*%
X27504200Y49792600D03*
X27504200Y50752600D03*
%TD*%
%LPD*%
M02*
