M48
; DRILL file {KiCad 8.0.0} date 2024-03-26T22:18:36-0700
; FORMAT={-:-/ absolute / inch / decimal}
; #@! TF.CreationDate,2024-03-26T22:18:36-07:00
; #@! TF.GenerationSoftware,Kicad,Pcbnew,8.0.0
; #@! TF.FileFunction,Plated,1,4,PTH
FMAT,2
INCH
; #@! TA.AperFunction,Plated,PTH,ViaDrill
T1C0.0118
; #@! TA.AperFunction,Plated,PTH,ViaDrill
T2C0.0197
; #@! TA.AperFunction,Plated,PTH,ComponentDrill
T3C0.0315
; #@! TA.AperFunction,Plated,PTH,ComponentDrill
T4C0.0360
; #@! TA.AperFunction,Plated,PTH,ComponentDrill
T5C0.0394
; #@! TA.AperFunction,Plated,PTH,ComponentDrill
T6C0.0472
; #@! TA.AperFunction,Plated,PTH,ComponentDrill
T7C0.0472
; #@! TA.AperFunction,Plated,PTH,ComponentDrill
T8C0.0598
; #@! TA.AperFunction,Plated,PTH,ComponentDrill
T9C0.1260
%
G90
G05
T1
X0.0315Y1.6222
X0.1028Y2.0082
X0.2408Y1.6282
X0.2908Y1.6538
X0.2978Y0.7922
X0.3148Y0.9202
X0.3418Y1.6272
X0.3758Y0.9922
X0.3918Y1.5462
X0.4528Y1.5252
X0.4599Y2.0442
X0.4618Y1.9862
X0.4878Y1.9642
X0.489Y2.1582
X0.5078Y1.4972
X0.5318Y2.0577
X0.5368Y0.1082
X0.5508Y2.1832
X0.5578Y2.2522
X0.5588Y1.8452
X0.5928Y2.2077
X0.5938Y2.5122
X0.5968Y1.8882
X0.6093Y2.0807
X0.6098Y2.0172
X0.6218Y2.1462
X0.6558Y2.6182
X0.6614Y2.1212
X0.6637Y2.0025
X0.6948Y2.1452
X0.6978Y2.6162
X0.6988Y2.4702
X0.7178Y1.8642
X0.7243Y1.9506
X0.7358Y2.5202
X0.7408Y1.8072
X0.7456Y2.304
X0.7459Y2.1483
X0.7588Y1.9992
X0.7781Y2.2722
X0.7786Y2.122
X0.7828Y2.5172
X0.793Y2.0513
X0.7931Y2.0021
X0.7978Y2.0952
X0.8058Y2.1432
X0.8329Y0.3802
X0.8837Y1.699
X0.8986Y2.0294
X0.9088Y2.1688
X0.9286Y2.0612
X0.9508Y2.1192
X0.9771Y2.1458
X0.9868Y2.7842
X0.9958Y1.6792
X1.0008Y1.9458
X1.0138Y2.7102
X1.0368Y1.7262
X1.0378Y1.6932
X1.0498Y2.1432
X1.0558Y1.9458
X1.0643Y2.0167
X1.1008Y1.8202
X1.1224Y1.6736
X1.1598Y1.8022
X1.1617Y1.7214
X1.1638Y2.4742
X1.2898Y3.0542
X1.2948Y1.6992
X1.3018Y2.9702
X1.3304Y0.0692
X1.4348Y2.9612
X1.4408Y3.0612
X1.4408Y3.0082
X1.5038Y1.3202
X1.5128Y2.6551
X1.5278Y1.4862
X1.5598Y1.3807
X1.5832Y2.7006
X1.6Y1.4578
X1.6268Y1.7232
X1.6538Y1.4462
X1.6888Y0.3572
X1.6978Y1.3822
X1.7003Y0.4002
X2.0338Y0.3517
X2.0403Y0.3188
X2.0762Y0.4428
X2.1372Y0.5597
X2.1648Y0.4012
X2.2608Y2.2112
X2.3249Y2.6942
X2.3288Y2.7802
X2.3878Y2.2092
X2.4138Y2.6912
X2.4288Y0.5564
X2.4288Y0.375
X2.4288Y0.3261
X2.4298Y0.5052
X2.4797Y0.4005
X2.6288Y2.6932
X2.6498Y0.5812
T2
X0.1068Y1.7022
X0.1922Y2.034
X0.2408Y1.9162
X0.2848Y0.1081
X0.4258Y0.4662
X0.4918Y0.9002
X0.5199Y0.2206
X0.5668Y0.9002
X0.5768Y0.6282
X0.6381Y0.2139
X0.7238Y0.4612
X1.5278Y2.6084
X1.9238Y0.9452
T4
X0.1108Y0.9724
X0.1108Y0.8936
X0.1108Y0.8149
T5
X0.4936Y3.0099
X0.8086Y3.0099
T6
X0.8989Y0.6314
X0.8989Y0.4542
X1.1548Y0.6314
X1.1548Y0.4542
X1.2619Y0.9338
X1.2619Y0.7567
X1.2629Y0.6328
X1.2629Y0.4557
X1.2669Y0.3528
X1.2669Y0.1757
X1.5178Y0.9338
X1.5178Y0.7567
X1.5188Y0.6328
X1.5188Y0.4557
X1.5228Y0.3528
X1.5228Y0.1757
X1.6288Y0.634
X1.6288Y0.4568
X1.8847Y0.634
X1.8847Y0.4568
T7
X0.1128Y1.1832
X0.2128Y1.1832
X0.3128Y1.1832
X0.4128Y1.1832
X0.5128Y1.1832
X0.6128Y1.1832
X0.7128Y1.1832
X0.8128Y1.1832
X0.9128Y1.1832
X1.0128Y1.1832
X1.1128Y1.1832
X1.2128Y1.1832
X1.3128Y1.1832
X1.4128Y1.1832
X1.5128Y1.1832
X1.6128Y1.1832
X1.7128Y1.1832
X1.8128Y1.1832
X1.9128Y1.1832
X2.0128Y1.1832
T8
X0.1768Y0.5802
X0.1768Y0.3802
X2.5768Y0.9182
X2.5768Y0.7182
T9
X0.1181Y3.0315
X0.1181Y0.1181
X2.6378Y3.0315
X2.6378Y0.1181
T3
G00X0.1266Y1.057
M15
G01X0.0951Y1.057
M16
G05
G00X0.1266Y0.7302
M15
G01X0.0951Y0.7302
M16
G05
G00X0.1517Y2.2295
M15
G01X0.1242Y2.2295
M16
G05
G00X0.1517Y1.946
M15
G01X0.1242Y1.946
M16
G05
G00X0.2561Y2.183
M15
G01X0.2482Y2.183
M16
G05
G00X0.2561Y1.9924
M15
G01X0.2482Y1.9924
M16
G05
M30
