%TF.GenerationSoftware,KiCad,Pcbnew,8.0.0*%
%TF.CreationDate,2024-03-26T22:18:36-07:00*%
%TF.ProjectId,recivier,72656369-7669-4657-922e-6b696361645f,rev?*%
%TF.SameCoordinates,Original*%
%TF.FileFunction,Other,Comment*%
%FSLAX46Y46*%
G04 Gerber Fmt 4.6, Leading zero omitted, Abs format (unit mm)*
G04 Created by KiCad (PCBNEW 8.0.0) date 2024-03-26 22:18:36*
%MOMM*%
%LPD*%
G01*
G04 APERTURE LIST*
%ADD10C,0.150000*%
%ADD11C,0.400000*%
%ADD12C,0.500000*%
%ADD13C,0.200000*%
%ADD14C,0.060000*%
G04 APERTURE END LIST*
D10*
%TO.C,H1*%
X5800000Y77000000D02*
G75*
G02*
X200000Y77000000I-2800000J0D01*
G01*
X200000Y77000000D02*
G75*
G02*
X5800000Y77000000I2800000J0D01*
G01*
D11*
%TO.C,U1*%
X38651600Y66154400D02*
G75*
G02*
X38251600Y66154400I-200000J0D01*
G01*
X38251600Y66154400D02*
G75*
G02*
X38651600Y66154400I200000J0D01*
G01*
D10*
%TO.C,H4*%
X69800000Y3000000D02*
G75*
G02*
X64200000Y3000000I-2800000J0D01*
G01*
X64200000Y3000000D02*
G75*
G02*
X69800000Y3000000I2800000J0D01*
G01*
%TO.C,U7*%
X29418700Y43198000D02*
G75*
G02*
X29278700Y43198000I-70000J0D01*
G01*
X29278700Y43198000D02*
G75*
G02*
X29418700Y43198000I70000J0D01*
G01*
D12*
%TO.C,U6*%
X67003000Y67614600D02*
G75*
G02*
X66503000Y67614600I-250000J0D01*
G01*
X66503000Y67614600D02*
G75*
G02*
X67003000Y67614600I250000J0D01*
G01*
D11*
%TO.C,RV1*%
X50517700Y26388200D02*
G75*
G02*
X50117700Y26388200I-200000J0D01*
G01*
X50117700Y26388200D02*
G75*
G02*
X50517700Y26388200I200000J0D01*
G01*
D10*
%TO.C,H2*%
X69800000Y77000000D02*
G75*
G02*
X64200000Y77000000I-2800000J0D01*
G01*
X64200000Y77000000D02*
G75*
G02*
X69800000Y77000000I2800000J0D01*
G01*
%TO.C,H3*%
X5800000Y3000000D02*
G75*
G02*
X200000Y3000000I-2800000J0D01*
G01*
X200000Y3000000D02*
G75*
G02*
X5800000Y3000000I2800000J0D01*
G01*
D13*
%TO.C,X1*%
X26646800Y49523400D02*
G75*
G02*
X26446800Y49523400I-100000J0D01*
G01*
X26446800Y49523400D02*
G75*
G02*
X26646800Y49523400I100000J0D01*
G01*
D14*
%TO.C,AE2*%
X57728000Y55689800D02*
G75*
G02*
X57668000Y55689800I-30000J0D01*
G01*
X57668000Y55689800D02*
G75*
G02*
X57728000Y55689800I30000J0D01*
G01*
%TD*%
M02*
