%TF.GenerationSoftware,KiCad,Pcbnew,8.0.0*%
%TF.CreationDate,2024-03-26T22:18:36-07:00*%
%TF.ProjectId,recivier,72656369-7669-4657-922e-6b696361645f,rev?*%
%TF.SameCoordinates,Original*%
%TF.FileFunction,Soldermask,Bot*%
%TF.FilePolarity,Negative*%
%FSLAX46Y46*%
G04 Gerber Fmt 4.6, Leading zero omitted, Abs format (unit mm)*
G04 Created by KiCad (PCBNEW 8.0.0) date 2024-03-26 22:18:36*
%MOMM*%
%LPD*%
G01*
G04 APERTURE LIST*
%ADD10C,1.800000*%
%ADD11C,5.600000*%
%ADD12R,3.000000X3.000000*%
%ADD13C,3.000000*%
%ADD14C,1.000000*%
%ADD15R,1.800000X2.500000*%
%ADD16O,1.800000X2.500000*%
%ADD17R,1.400000X5.000000*%
%ADD18O,1.400000X1.200000*%
%ADD19O,1.900000X1.200000*%
%ADD20C,1.520000*%
%ADD21O,2.200000X1.400000*%
%ADD22R,1.500000X1.000000*%
%ADD23R,1.000000X1.000000*%
G04 APERTURE END LIST*
D10*
%TO.C,SW2*%
X22833000Y16037600D03*
X29333000Y16037600D03*
X22833000Y11537600D03*
X29333000Y11537600D03*
%TD*%
%TO.C,SW3*%
X32077400Y16073600D03*
X38577400Y16073600D03*
X32077400Y11573600D03*
X38577400Y11573600D03*
%TD*%
D11*
%TO.C,H1*%
X3000000Y77000000D03*
%TD*%
D12*
%TO.C,J5*%
X4491800Y14738000D03*
D13*
X4491800Y9658000D03*
%TD*%
D11*
%TO.C,H4*%
X67000000Y3000000D03*
%TD*%
D12*
%TO.C,J4*%
X65451800Y18243200D03*
D13*
X65451800Y23323200D03*
%TD*%
D14*
%TO.C,Card1*%
X20538600Y76452400D03*
X12538600Y76452400D03*
%TD*%
D15*
%TO.C,DS1*%
X51126200Y30054200D03*
D16*
X48586200Y30054200D03*
X46046200Y30054200D03*
X43506200Y30054200D03*
X40966200Y30054200D03*
X38426200Y30054200D03*
X35886200Y30054200D03*
X33346200Y30054200D03*
X30806200Y30054200D03*
X28266200Y30054200D03*
X25726200Y30054200D03*
X23186200Y30054200D03*
X20646200Y30054200D03*
X18106200Y30054200D03*
X15566200Y30054200D03*
X13026200Y30054200D03*
X10486200Y30054200D03*
X7946200Y30054200D03*
X5406200Y30054200D03*
X2866200Y30054200D03*
%TD*%
D10*
%TO.C,SW5*%
X32179000Y8961600D03*
X38679000Y8961600D03*
X32179000Y4461600D03*
X38679000Y4461600D03*
%TD*%
D11*
%TO.C,H2*%
X67000000Y77000000D03*
%TD*%
%TO.C,H3*%
X3000000Y3000000D03*
%TD*%
D10*
%TO.C,SW1*%
X32052000Y23719000D03*
X38552000Y23719000D03*
X32052000Y19219000D03*
X38552000Y19219000D03*
%TD*%
D17*
%TO.C,AE1*%
X32269400Y77145800D03*
X37369400Y77145800D03*
%TD*%
D18*
%TO.C,J1*%
X6404400Y50608200D03*
X6404400Y55448200D03*
D19*
X3504400Y56628200D03*
X3504400Y49428200D03*
%TD*%
D10*
%TO.C,SW4*%
X41372600Y16103200D03*
X47872600Y16103200D03*
X41372600Y11603200D03*
X47872600Y11603200D03*
%TD*%
D20*
%TO.C,SW6*%
X2815400Y24698000D03*
X2815400Y22698000D03*
X2815400Y20698000D03*
D21*
X2815400Y18548000D03*
X2815400Y26848000D03*
%TD*%
D22*
%TO.C,J2*%
X27580400Y53127800D03*
X27580400Y54427800D03*
%TD*%
D23*
%TO.C,TP1*%
X23795800Y56673400D03*
%TD*%
M02*
