M48
; DRILL file {KiCad 9.0.5} date 2025-12-03T11:23:26-0800
; FORMAT={-:-/ absolute / inch / decimal}
; #@! TF.CreationDate,2025-12-03T11:23:26-08:00
; #@! TF.GenerationSoftware,Kicad,Pcbnew,9.0.5
; #@! TF.FileFunction,Plated,1,4,PTH
FMAT,2
INCH
; #@! TA.AperFunction,Plated,PTH,ViaDrill
T1C0.0118
; #@! TA.AperFunction,Plated,PTH,ViaDrill
T2C0.0197
; #@! TA.AperFunction,Plated,PTH,ComponentDrill
T3C0.0315
; #@! TA.AperFunction,Plated,PTH,ComponentDrill
T4C0.0374
; #@! TA.AperFunction,Plated,PTH,ComponentDrill
T5C0.0866
%
G90
G05
T1
X0.0327Y-0.4642
X0.036Y-0.7286
X0.04Y-0.842
X0.0473Y-0.5495
X0.0563Y-0.199
X0.058Y-0.2736
X0.069Y-0.381
X0.0751Y-0.5309
X0.0951Y-0.4663
X0.1085Y-0.4056
X0.1584Y-0.3264
X0.176Y-0.622
X0.176Y-0.6502
X0.212Y-0.622
X0.212Y-0.65
X0.2123Y-0.8503
X0.228Y-0.278
X0.2285Y-0.3934
X0.238Y-0.504
X0.2704Y-0.0667
X0.274Y-0.79
X0.2741Y-0.6579
X0.2869Y-0.5462
X0.2915Y-0.3734
X0.2933Y-0.0972
X0.3039Y-0.066
X0.3151Y-0.2833
X0.3507Y-0.3927
X0.4094Y-0.091
X0.4452Y-0.9882
X0.4509Y-0.486
X0.4526Y-0.8411
X0.4666Y-0.6795
X0.4691Y-0.62
X0.4709Y-1.0431
X0.4786Y-0.865
X0.4852Y-0.4854
X0.492Y-0.17
X0.4925Y-0.3757
X0.4929Y-0.417
X0.4991Y-0.2684
X0.52Y-0.954
X0.5341Y-0.6007
X0.5463Y-0.3076
X0.56Y-0.4532
X0.5621Y-0.4867
X0.5661Y-0.742
X0.57Y-0.3313
X0.5804Y-0.9221
X0.5823Y-0.8585
X0.5934Y-0.4596
X0.5992Y-0.3449
X0.612Y-0.684
X0.6135Y-0.6521
X0.6176Y-0.6185
X0.6185Y-0.2384
X0.6207Y-0.3211
X0.6463Y-0.4037
X0.6508Y-1.0201
X0.6628Y-0.4305
X0.6768Y-0.7117
X0.6802Y-0.8219
X0.685Y-1.017
X0.688Y-0.9659
X0.6909Y-0.681
X0.7Y-0.5235
X0.7382Y-0.3734
X0.7447Y-0.4055
X0.7552Y-0.2941
X0.76Y-0.664
X0.768Y-0.834
X0.782Y-0.2384
X0.786Y-1.034
X0.7964Y-0.5185
X0.7964Y-0.792
X0.7981Y-0.6151
X0.7983Y-0.5796
X0.7998Y-0.2656
X0.8083Y-0.5476
X0.851Y-0.0393
X0.858Y-0.894
X0.872Y-0.99
X0.8782Y-0.9513
X0.881Y-0.6061
X0.892Y-0.836
X0.9031Y-0.748
X0.9287Y-0.5626
X0.94Y-0.614
X0.958Y-0.776
X0.96Y-0.891
X0.976Y-0.952
T2
X0.082Y-0.78
X0.1264Y-0.1575
X0.1295Y-0.2269
X0.2079Y-0.1168
X0.2089Y-0.1826
X0.2216Y-0.218
X0.2299Y-0.0528
X0.2478Y-0.8926
X0.2645Y-0.4265
X0.3909Y-0.4939
X0.4598Y-0.8024
X0.6398Y-0.8332
X0.6424Y-0.1321
X0.6453Y-0.0884
X0.6759Y-0.0951
X0.6928Y-0.1388
X0.7432Y-0.5817
X0.7471Y-0.7026
X0.8167Y-0.0781
T4
X1.0318Y-0.4384
X1.0318Y-0.5368
X1.0318Y-0.6352
X1.0318Y-0.7336
T5
X0.1575Y-0.9449
X0.9449Y-0.1575
T3
G00X0.2683Y-1.0059
M15
G01X0.2683Y-1.0335
M16
G05
G00X0.3147Y-0.9016
M15
G01X0.3147Y-0.9095
M16
G05
G00X0.5053Y-0.9016
M15
G01X0.5053Y-0.9095
M16
G05
G00X0.5517Y-1.0059
M15
G01X0.5517Y-1.0335
M16
G05
M30
