M48
; DRILL file {KiCad 9.0.5} date 2025-12-03T22:00:20-0800
; FORMAT={-:-/ absolute / inch / decimal}
; #@! TF.CreationDate,2025-12-03T22:00:20-08:00
; #@! TF.GenerationSoftware,Kicad,Pcbnew,9.0.5
; #@! TF.FileFunction,Plated,1,4,PTH
FMAT,2
INCH
; #@! TA.AperFunction,Plated,PTH,ViaDrill
T1C0.0118
; #@! TA.AperFunction,Plated,PTH,ViaDrill
T2C0.0197
; #@! TA.AperFunction,Plated,PTH,ComponentDrill
T3C0.0315
; #@! TA.AperFunction,Plated,PTH,ComponentDrill
T4C0.0315
; #@! TA.AperFunction,Plated,PTH,ComponentDrill
T5C0.0866
%
G90
G05
T1
X0.0609Y-0.5537
X0.063Y-0.297
X0.063Y-0.675
X0.0747Y-0.782
X0.0766Y-0.7407
X0.0805Y-0.8444
X0.107Y-0.271
X0.111Y-0.6559
X0.1259Y-0.8056
X0.1577Y-0.7
X0.1593Y-0.4631
X0.1772Y-0.6387
X0.179Y-0.5222
X0.1884Y-0.4781
X0.202Y-0.241
X0.2125Y-0.7584
X0.2125Y-0.7958
X0.2162Y-0.4924
X0.2203Y-0.5773
X0.2223Y-0.408
X0.2459Y-0.2422
X0.2525Y-0.6066
X0.2881Y-0.1589
X0.2918Y-0.648
X0.2924Y-0.749
X0.2971Y-0.4116
X0.2986Y-0.4934
X0.3086Y-0.4619
X0.3141Y-0.519
X0.3151Y-0.5552
X0.3156Y-0.2564
X0.3299Y-0.3981
X0.3377Y-0.4434
X0.3401Y-0.5793
X0.3633Y-0.397
X0.3719Y-0.1711
X0.3748Y-0.5769
X0.3795Y-0.5438
X0.388Y-0.6758
X0.39Y-0.2302
X0.3936Y-0.4106
X0.3942Y-0.1919
X0.404Y-0.596
X0.4383Y-0.5911
X0.4389Y-0.7459
X0.445Y-0.543
X0.4577Y-0.2699
X0.492Y-0.4044
X0.4927Y-0.2574
X0.5067Y-0.6681
X0.528Y-0.779
X0.529Y-0.1127
X0.5354Y-0.2648
X0.5553Y-0.6627
X0.5728Y-0.5162
X0.5819Y-0.4072
X0.5875Y-0.7582
X0.62Y-0.2111
X0.6258Y-0.2898
X0.6318Y-0.7348
X0.637Y-0.5831
X0.6633Y-0.0615
X0.6829Y-0.5273
X0.6908Y-0.2151
X0.6908Y-0.2859
X0.7084Y-0.757
X0.7129Y-0.5273
X0.7148Y-0.6418
X0.7184Y-0.908
X0.7416Y-0.7615
X0.7459Y-0.0615
X0.7618Y-0.3995
X0.773Y-0.2567
X0.7758Y-0.7528
X0.7797Y-0.6433
X0.7853Y-0.4552
X0.786Y-0.092
X0.8043Y-0.2978
X0.8169Y-0.723
X0.8255Y-0.1663
X0.8303Y-0.4976
X0.856Y-0.6508
X0.8759Y-0.2072
X0.898Y-0.425
X0.9012Y-0.4976
X0.934Y-0.183
X0.9549Y-0.3967
X0.9617Y-0.6454
T2
X0.0432Y-0.3399
X0.118Y-0.3399
X0.4225Y-0.1358
X0.4231Y-0.9316
X0.5821Y-0.3015
X0.6435Y-0.8173
X0.6948Y-0.1718
X0.8121Y-0.6644
X0.9349Y-0.5064
T4
X0.2617Y-0.0655
X0.3404Y-0.0655
X0.4192Y-0.0655
T5
X0.1575Y-0.1575
X0.8425Y-0.8425
T3
G00X0.2144Y-0.8921
M15
G01X0.2144Y-0.9197
M16
G05
G00X0.2609Y-0.7878
M15
G01X0.2609Y-0.7957
M16
G05
G00X0.4514Y-0.7878
M15
G01X0.4514Y-0.7957
M16
G05
G00X0.4979Y-0.8921
M15
G01X0.4979Y-0.9197
M16
G05
M30
