%TF.GenerationSoftware,KiCad,Pcbnew,9.0.5*%
%TF.CreationDate,2025-12-03T11:23:26-08:00*%
%TF.ProjectId,camcontrol,63616d63-6f6e-4747-926f-6c2e6b696361,rev?*%
%TF.SameCoordinates,Original*%
%TF.FileFunction,Copper,L4,Bot*%
%TF.FilePolarity,Positive*%
%FSLAX46Y46*%
G04 Gerber Fmt 4.6, Leading zero omitted, Abs format (unit mm)*
G04 Created by KiCad (PCBNEW 9.0.5) date 2025-12-03 11:23:26*
%MOMM*%
%LPD*%
G01*
G04 APERTURE LIST*
G04 Aperture macros list*
%AMRoundRect*
0 Rectangle with rounded corners*
0 $1 Rounding radius*
0 $2 $3 $4 $5 $6 $7 $8 $9 X,Y pos of 4 corners*
0 Add a 4 corners polygon primitive as box body*
4,1,4,$2,$3,$4,$5,$6,$7,$8,$9,$2,$3,0*
0 Add four circle primitives for the rounded corners*
1,1,$1+$1,$2,$3*
1,1,$1+$1,$4,$5*
1,1,$1+$1,$6,$7*
1,1,$1+$1,$8,$9*
0 Add four rect primitives between the rounded corners*
20,1,$1+$1,$2,$3,$4,$5,0*
20,1,$1+$1,$4,$5,$6,$7,0*
20,1,$1+$1,$6,$7,$8,$9,0*
20,1,$1+$1,$8,$9,$2,$3,0*%
%AMFreePoly0*
4,1,23,0.500000,-0.750000,0.000000,-0.750000,0.000000,-0.745722,-0.065263,-0.745722,-0.191342,-0.711940,-0.304381,-0.646677,-0.396677,-0.554381,-0.461940,-0.441342,-0.495722,-0.315263,-0.495722,-0.250000,-0.500000,-0.250000,-0.500000,0.250000,-0.495722,0.250000,-0.495722,0.315263,-0.461940,0.441342,-0.396677,0.554381,-0.304381,0.646677,-0.191342,0.711940,-0.065263,0.745722,0.000000,0.745722,
0.000000,0.750000,0.500000,0.750000,0.500000,-0.750000,0.500000,-0.750000,$1*%
%AMFreePoly1*
4,1,23,0.000000,0.745722,0.065263,0.745722,0.191342,0.711940,0.304381,0.646677,0.396677,0.554381,0.461940,0.441342,0.495722,0.315263,0.495722,0.250000,0.500000,0.250000,0.500000,-0.250000,0.495722,-0.250000,0.495722,-0.315263,0.461940,-0.441342,0.396677,-0.554381,0.304381,-0.646677,0.191342,-0.711940,0.065263,-0.745722,0.000000,-0.745722,0.000000,-0.750000,-0.500000,-0.750000,
-0.500000,0.750000,0.000000,0.750000,0.000000,0.745722,0.000000,0.745722,$1*%
G04 Aperture macros list end*
%TA.AperFunction,ComponentPad*%
%ADD10O,1.200000X1.400000*%
%TD*%
%TA.AperFunction,ComponentPad*%
%ADD11O,1.200000X1.900000*%
%TD*%
%TA.AperFunction,ComponentPad*%
%ADD12C,3.800000*%
%TD*%
%TA.AperFunction,SMDPad,CuDef*%
%ADD13RoundRect,0.218750X-0.256250X0.218750X-0.256250X-0.218750X0.256250X-0.218750X0.256250X0.218750X0*%
%TD*%
%TA.AperFunction,SMDPad,CuDef*%
%ADD14R,1.397000X2.500000*%
%TD*%
%TA.AperFunction,SMDPad,CuDef*%
%ADD15RoundRect,0.218750X0.256250X-0.218750X0.256250X0.218750X-0.256250X0.218750X-0.256250X-0.218750X0*%
%TD*%
%TA.AperFunction,SMDPad,CuDef*%
%ADD16R,0.800000X1.500000*%
%TD*%
%TA.AperFunction,SMDPad,CuDef*%
%ADD17R,1.500000X0.800000*%
%TD*%
%TA.AperFunction,ComponentPad*%
%ADD18RoundRect,0.250000X0.725000X-0.600000X0.725000X0.600000X-0.725000X0.600000X-0.725000X-0.600000X0*%
%TD*%
%TA.AperFunction,ComponentPad*%
%ADD19O,1.950000X1.700000*%
%TD*%
%TA.AperFunction,SMDPad,CuDef*%
%ADD20FreePoly0,180.000000*%
%TD*%
%TA.AperFunction,SMDPad,CuDef*%
%ADD21FreePoly1,180.000000*%
%TD*%
%TA.AperFunction,SMDPad,CuDef*%
%ADD22R,1.500000X1.000000*%
%TD*%
%TA.AperFunction,SMDPad,CuDef*%
%ADD23R,1.050000X1.000000*%
%TD*%
%TA.AperFunction,SMDPad,CuDef*%
%ADD24R,2.200000X1.050000*%
%TD*%
%TA.AperFunction,ViaPad*%
%ADD25C,0.600000*%
%TD*%
%TA.AperFunction,ViaPad*%
%ADD26C,1.000000*%
%TD*%
%TA.AperFunction,Conductor*%
%ADD27C,0.200000*%
%TD*%
%TA.AperFunction,Conductor*%
%ADD28C,0.500000*%
%TD*%
G04 APERTURE END LIST*
D10*
%TO.P,J2,6,Shield*%
%TO.N,unconnected-(J2-Shield-Pad6)*%
X12834000Y-23000700D03*
%TO.P,J2,7*%
%TO.N,N/C*%
X7994000Y-23000700D03*
D11*
%TO.P,J2,8*%
X6814000Y-25900700D03*
%TO.P,J2,9*%
X14014000Y-25900700D03*
%TD*%
D12*
%TO.P,H2,1,1*%
%TO.N,GND*%
X4000000Y-24000000D03*
%TD*%
%TO.P,H1,1,1*%
%TO.N,GND*%
X24000000Y-4000000D03*
%TD*%
D13*
%TO.P,D1,1,K*%
%TO.N,GND*%
X858400Y-12728500D03*
%TO.P,D1,2,A*%
%TO.N,Net-(D1-A)*%
X858400Y-14303500D03*
%TD*%
D14*
%TO.P,J7,1,Pin_1*%
%TO.N,GND*%
X19029500Y-19708098D03*
%TO.P,J7,2,Pin_1*%
X19029500Y-13508101D03*
%TO.P,J7,3,Pin_2*%
%TO.N,+BATT*%
X16029502Y-19708098D03*
%TO.P,J7,4,Pin_2*%
X16029502Y-13508101D03*
%TO.P,J7,5,Pin_3*%
%TO.N,GND*%
X13029502Y-19708098D03*
%TO.P,J7,6,Pin_3*%
X13029502Y-13508101D03*
%TD*%
D15*
%TO.P,D2,1,K*%
%TO.N,GND*%
X914400Y-17348300D03*
%TO.P,D2,2,A*%
%TO.N,Net-(D2-A)*%
X914400Y-15773300D03*
%TD*%
D16*
%TO.P,U1,1,VCC*%
%TO.N,+3V3*%
X15392400Y-11045200D03*
%TO.P,U1,2,GND*%
%TO.N,GND*%
X14122400Y-11045200D03*
%TO.P,U1,3,NRST*%
%TO.N,/SX RST*%
X12852400Y-11045200D03*
%TO.P,U1,4,NC*%
%TO.N,unconnected-(U1-NC-Pad4)*%
X11582400Y-11045200D03*
%TO.P,U1,5,NC*%
%TO.N,unconnected-(U1-NC-Pad5)*%
X10312400Y-11045200D03*
D17*
%TO.P,U1,6,ANT*%
%TO.N,Net-(AE1-A)*%
X7852400Y-8585200D03*
%TO.P,U1,7,GND*%
%TO.N,GND*%
X7852400Y-7315200D03*
%TO.P,U1,8,NC*%
%TO.N,unconnected-(U1-NC-Pad8)*%
X7852400Y-6045200D03*
%TO.P,U1,9,TXEN*%
%TO.N,/TXEN*%
X7852400Y-4775200D03*
%TO.P,U1,10,RXEN*%
%TO.N,/RXEN*%
X7852400Y-3505200D03*
D16*
%TO.P,U1,11,BUSY*%
%TO.N,/BUSY*%
X10312400Y-1045200D03*
%TO.P,U1,12,MISO*%
%TO.N,/MISO*%
X11582400Y-1045200D03*
%TO.P,U1,13,MOSI*%
%TO.N,/MOSI*%
X12852400Y-1045200D03*
%TO.P,U1,14,NSS*%
%TO.N,/SX CS*%
X14122400Y-1045200D03*
%TO.P,U1,15,SCK*%
%TO.N,/SCLK*%
X15392400Y-1045200D03*
D17*
%TO.P,U1,16,GND*%
%TO.N,GND*%
X17852400Y-3505200D03*
%TO.P,U1,17,NC*%
%TO.N,unconnected-(U1-NC-Pad17)*%
X17852400Y-4775200D03*
%TO.P,U1,18,DIO3*%
%TO.N,unconnected-(U1-DIO3-Pad18)*%
X17852400Y-6045200D03*
%TO.P,U1,19,DIO2*%
%TO.N,unconnected-(U1-DIO2-Pad19)*%
X17852400Y-7315200D03*
%TO.P,U1,20,DIO1*%
%TO.N,unconnected-(U1-DIO1-Pad20)*%
X17852400Y-8585200D03*
%TD*%
D18*
%TO.P,J8,1,Pin_1*%
%TO.N,/CAM RX*%
X26208000Y-18634400D03*
D19*
%TO.P,J8,2,Pin_2*%
%TO.N,/CAM TX*%
X26208000Y-16134400D03*
%TO.P,J8,3,Pin_3*%
%TO.N,GND*%
X26208000Y-13634400D03*
%TO.P,J8,4,Pin_4*%
%TO.N,/CAMPWR*%
X26208000Y-11134400D03*
%TD*%
D14*
%TO.P,J3,1,Pin_1*%
%TO.N,/VIDPWR*%
X9481900Y-19702899D03*
%TO.P,J3,2,Pin_1*%
X9481900Y-13502902D03*
%TO.P,J3,3,Pin_2*%
%TO.N,GND*%
X6481902Y-19702899D03*
%TO.P,J3,4,Pin_2*%
X6481902Y-13502902D03*
%TO.P,J3,5,Pin_3*%
%TO.N,+12V*%
X3481902Y-19702899D03*
%TO.P,J3,6,Pin_3*%
X3481902Y-13502902D03*
%TD*%
D20*
%TO.P,J6,1,Pin_1*%
%TO.N,GND*%
X16286000Y-23469600D03*
D21*
%TO.P,J6,2,Pin_2*%
%TO.N,/BOOTSEL*%
X14986000Y-23469600D03*
%TD*%
D22*
%TO.P,J5,1,Pin_1*%
%TO.N,/SWCLK*%
X22098000Y-14254000D03*
%TO.P,J5,2,Pin_2*%
%TO.N,/SWD*%
X22098000Y-12954000D03*
%TD*%
D13*
%TO.P,D3,1,K*%
%TO.N,Net-(D3-K)*%
X21894800Y-21666100D03*
%TO.P,D3,2,A*%
%TO.N,+3V3*%
X21894800Y-23241100D03*
%TD*%
D23*
%TO.P,AE1,1,A*%
%TO.N,Net-(AE1-A)*%
X6076800Y-8483600D03*
D24*
%TO.P,AE1,2,Shield*%
%TO.N,GND*%
X4576800Y-9983600D03*
X4576800Y-6983600D03*
%TD*%
D25*
%TO.N,GND*%
X21615426Y-997650D03*
X914400Y-18506800D03*
D26*
X18976722Y-17845603D03*
D25*
X5791200Y-7061200D03*
X14222840Y-11512537D03*
X19507200Y-21183600D03*
X4470400Y-16515300D03*
X17473954Y-24532823D03*
X2415637Y-11843939D03*
D26*
X17597568Y-3524474D03*
D25*
X10398785Y-2312482D03*
X6045200Y-12801600D03*
X8003281Y-7195321D03*
X17547964Y-17297323D03*
X23876000Y-15595600D03*
D26*
X5305465Y-4636879D03*
D25*
X5804000Y-9992400D03*
X1429731Y-5055254D03*
X19304000Y-16865600D03*
X11308731Y-25101318D03*
X14790688Y-21806026D03*
X24790400Y-24180800D03*
D26*
X5627800Y-5537200D03*
D25*
X7286495Y-13874000D03*
X5384800Y-15798800D03*
D26*
X2082800Y-19812800D03*
D25*
X5384800Y-16510000D03*
D26*
X16391825Y-2245968D03*
D25*
X4022374Y-8291680D03*
X18750319Y-9485420D03*
X11914400Y-15748000D03*
X6959600Y-20066000D03*
X12677271Y-6817583D03*
X19862800Y-6055600D03*
X16529448Y-25910046D03*
X24333200Y-19710400D03*
D26*
X11680002Y-20380649D03*
X16317399Y-3356022D03*
D25*
X1473200Y-6948400D03*
D26*
X17168642Y-2414879D03*
D25*
X12324955Y-12330232D03*
X4470400Y-15798800D03*
X12508331Y-9543709D03*
X6962800Y-16710000D03*
D26*
X18877458Y-14774238D03*
D25*
%TO.N,+3V3*%
X14278004Y-12361265D03*
X15072402Y-11673207D03*
X24384000Y-22631400D03*
X20228002Y-20116800D03*
X21793200Y-22707600D03*
X14380002Y-18845600D03*
X18914403Y-10298699D03*
X13565200Y-15258103D03*
X2755892Y-10302511D03*
X22376800Y-15395600D03*
X829726Y-11791000D03*
X23588000Y-14289127D03*
X22938800Y-18999200D03*
%TO.N,/SX RST*%
X12519141Y-10592260D03*
X15544800Y-17373600D03*
X11452970Y-12345202D03*
D26*
%TO.N,+5V*%
X5280568Y-2967111D03*
X5840440Y-1341452D03*
X6719450Y-10834250D03*
X20745435Y-1982964D03*
D25*
%TO.N,+1V1*%
X20271341Y-15624238D03*
X15686800Y-15709101D03*
%TO.N,/CAM BATT SENSE *%
X1016000Y-21386800D03*
X5393184Y-21598384D03*
D26*
%TO.N,+12V*%
X3288400Y-5763203D03*
%TO.N,/VIDPWR*%
X3211289Y-3999600D03*
X9927912Y-12545202D03*
D25*
%TO.N,Net-(D1-A)*%
X1201342Y-13958466D03*
%TO.N,Net-(D3-K)*%
X22656800Y-21234400D03*
D26*
%TO.N,+BATT*%
X6293068Y-22671712D03*
X16249828Y-21163600D03*
D25*
%TO.N,/SWCLK*%
X20278002Y-14721468D03*
%TO.N,/SWD*%
X20531979Y-13910296D03*
%TO.N,/BOOTSEL*%
X14742367Y-23420415D03*
%TO.N,Net-(D2-A)*%
X1906351Y-13483633D03*
%TO.N,/CAMSNS*%
X16415633Y-10253259D03*
X19181533Y-7470743D03*
%TO.N,/CAM EN*%
X13876995Y-7813185D03*
X7717800Y-1676400D03*
%TO.N,/CAM DIAG EN*%
X15710952Y-6055205D03*
X7448577Y-2469105D03*
%TO.N,/VIDSNS*%
X12496878Y-4318160D03*
X16834000Y-10935146D03*
%TO.N,/SCLK*%
X20227999Y-13170296D03*
%TO.N,/BUSY*%
X6867970Y-1693510D03*
X17191160Y-18076527D03*
X20314046Y-6746209D03*
%TO.N,/MISO*%
X14478039Y-8414227D03*
%TO.N,/SX CS*%
X15764762Y-8155205D03*
%TO.N,/MOSI*%
X15219920Y-8760799D03*
%TO.N,/QSPI_SCLK*%
X22148800Y-25146000D03*
X11851200Y-17258994D03*
%TO.N,/QSPI_SD2*%
X12157094Y-21971022D03*
X13208000Y-24231600D03*
%TO.N,/QSPI_SDO*%
X11496267Y-21365047D03*
X19964400Y-26263600D03*
%TO.N,/QSPI_SD3*%
X15584000Y-16562862D03*
X22305705Y-24161919D03*
%TO.N,/TX BATT SENSE *%
X17780998Y-13296043D03*
X1752600Y-9677400D03*
%TO.N,Net-(D4-K)*%
X7404000Y-9485202D03*
X8908394Y-9975434D03*
%TO.N,/TXEN*%
X17278004Y-20875086D03*
X17400023Y-25832823D03*
%TO.N,/RXEN*%
X11961014Y-26495709D03*
%TD*%
D27*
%TO.N,Net-(AE1-A)*%
X7852400Y-8585200D02*
X6178400Y-8585200D01*
X6178400Y-8585200D02*
X6076800Y-8483600D01*
D28*
%TO.N,GND*%
X19029500Y-13508101D02*
X19029500Y-14708328D01*
D27*
X914400Y-17348300D02*
X914400Y-18506800D01*
X4576800Y-9983600D02*
X4576800Y-10215600D01*
X1198647Y-12728500D02*
X1592104Y-12335043D01*
X13029502Y-19708098D02*
X12352553Y-19708098D01*
D28*
X19029500Y-14708328D02*
X18963590Y-14774238D01*
D27*
X1924533Y-12335043D02*
X2415637Y-11843939D01*
X5713600Y-6983600D02*
X5791200Y-7061200D01*
X17349223Y-24532823D02*
X17473954Y-24532823D01*
D28*
X19029500Y-17898381D02*
X18976722Y-17845603D01*
D27*
X16286000Y-23469600D02*
X17349223Y-24532823D01*
X1592104Y-12335043D02*
X1924533Y-12335043D01*
X12352553Y-19708098D02*
X11680002Y-20380649D01*
D28*
X4576800Y-9983600D02*
X4585600Y-9992400D01*
D27*
X4576800Y-6983600D02*
X5713600Y-6983600D01*
X858400Y-12728500D02*
X1198647Y-12728500D01*
D28*
X19029500Y-19708098D02*
X19029500Y-17898381D01*
X18963590Y-14774238D02*
X18877458Y-14774238D01*
D27*
X4576800Y-10215600D02*
X4826000Y-10464800D01*
D28*
X4585600Y-9992400D02*
X5804000Y-9992400D01*
D27*
%TO.N,/SX RST*%
X16336800Y-15371600D02*
X16024301Y-15059101D01*
X15692501Y-17373600D02*
X16234000Y-16832101D01*
X12852400Y-10925519D02*
X12519141Y-10592260D01*
X11439859Y-12358313D02*
X11452970Y-12345202D01*
X15544800Y-17373600D02*
X15692501Y-17373600D01*
X12265101Y-15059101D02*
X12030002Y-15059101D01*
X14071600Y-16865600D02*
X12265101Y-15059101D01*
X11439859Y-14468958D02*
X11439859Y-12358313D01*
X15036800Y-15059101D02*
X15036800Y-15900400D01*
X12030002Y-15059101D02*
X11439859Y-14468958D01*
X15036800Y-15900400D02*
X14071600Y-16865600D01*
X16234000Y-16081140D02*
X16336800Y-15978340D01*
X12852400Y-11045200D02*
X12852400Y-10925519D01*
X16024301Y-15059101D02*
X15036800Y-15059101D01*
X16336800Y-15978340D02*
X16336800Y-15371600D01*
X16234000Y-16832101D02*
X16234000Y-16081140D01*
%TO.N,/CAM BATT SENSE *%
X1227584Y-21598384D02*
X1016000Y-21386800D01*
X5393184Y-21598384D02*
X1227584Y-21598384D01*
D28*
%TO.N,+12V*%
X1001600Y-9988475D02*
X1001600Y-8815718D01*
X2822041Y-11093041D02*
X2106166Y-11093041D01*
X3481902Y-19702899D02*
X3481902Y-13502902D01*
X3481902Y-13502902D02*
X3481902Y-11752902D01*
X1001600Y-8815718D02*
X2474430Y-7342888D01*
X2106166Y-11093041D02*
X1001600Y-9988475D01*
X3481902Y-11752902D02*
X2822041Y-11093041D01*
X2474430Y-7342888D02*
X2474430Y-6577173D01*
X2474430Y-6577173D02*
X3288400Y-5763203D01*
%TO.N,/VIDPWR*%
X9869333Y-12545202D02*
X9927912Y-12545202D01*
X9481900Y-16884929D02*
X10096400Y-17499429D01*
X9481900Y-13502902D02*
X9481900Y-12932635D01*
X9481900Y-13502902D02*
X9481900Y-16884929D01*
X10096400Y-19088399D02*
X9481900Y-19702899D01*
X9481900Y-12932635D02*
X9869333Y-12545202D01*
X10096400Y-17499429D02*
X10096400Y-19088399D01*
D27*
%TO.N,Net-(D1-A)*%
X1201342Y-13987763D02*
X1201342Y-13958466D01*
X885605Y-14303500D02*
X1201342Y-13987763D01*
X858400Y-14303500D02*
X885605Y-14303500D01*
%TO.N,Net-(D3-K)*%
X22326500Y-21234400D02*
X21894800Y-21666100D01*
X22656800Y-21234400D02*
X22326500Y-21234400D01*
D28*
%TO.N,+BATT*%
X16029502Y-20943274D02*
X16249828Y-21163600D01*
X16784000Y-16308958D02*
X16784000Y-17203600D01*
X16029502Y-19708098D02*
X16029502Y-20943274D01*
X16029502Y-13508101D02*
X16029502Y-14059601D01*
X17228002Y-15258101D02*
X17228002Y-15864956D01*
X16029502Y-17958098D02*
X16029502Y-19708098D01*
X17228002Y-15864956D02*
X16784000Y-16308958D01*
X16784000Y-17203600D02*
X16029502Y-17958098D01*
X16029502Y-14059601D02*
X17228002Y-15258101D01*
D27*
%TO.N,/SWCLK*%
X20680532Y-14721468D02*
X20278002Y-14721468D01*
X21148000Y-14254000D02*
X20680532Y-14721468D01*
X22098000Y-14254000D02*
X21148000Y-14254000D01*
%TO.N,/SWD*%
X22098000Y-12954000D02*
X21527327Y-12954000D01*
X21527327Y-12954000D02*
X20571031Y-13910296D01*
X20571031Y-13910296D02*
X20531979Y-13910296D01*
%TO.N,Net-(D2-A)*%
X914400Y-15773300D02*
X939700Y-15773300D01*
X939700Y-15773300D02*
X1906351Y-14806649D01*
X1906351Y-14806649D02*
X1906351Y-13483633D01*
%TO.N,/CAMSNS*%
X19564403Y-7853613D02*
X19564403Y-10567938D01*
X19228623Y-10903718D02*
X18186400Y-10903718D01*
X19181533Y-7470743D02*
X19564403Y-7853613D01*
X18186400Y-10903718D02*
X17535941Y-10253259D01*
X17535941Y-10253259D02*
X16415633Y-10253259D01*
X19564403Y-10567938D02*
X19228623Y-10903718D01*
%TO.N,/CAM EN*%
X9703400Y-2824745D02*
X9703400Y-2092026D01*
X10598000Y-3719345D02*
X9703400Y-2824745D01*
X11446878Y-4667951D02*
X10598000Y-3819073D01*
X13876995Y-7098068D02*
X12147087Y-5368160D01*
X12147087Y-5368160D02*
X12061954Y-5368160D01*
X13876995Y-7813185D02*
X13876995Y-7098068D01*
X10598000Y-3819073D02*
X10598000Y-3719345D01*
X9287774Y-1676400D02*
X7717800Y-1676400D01*
X12061954Y-5368160D02*
X11446878Y-4753085D01*
X11446878Y-4753085D02*
X11446878Y-4667951D01*
X9703400Y-2092026D02*
X9287774Y-1676400D01*
%TO.N,/CAM DIAG EN*%
X9303400Y-2269511D02*
X9188089Y-2154200D01*
X9303400Y-3498428D02*
X9303400Y-2269511D01*
X15489159Y-9479098D02*
X14419547Y-9479098D01*
X9188089Y-2154200D02*
X8873184Y-2469105D01*
X15710952Y-6055205D02*
X16399400Y-6743653D01*
X11643600Y-6703151D02*
X11643600Y-5838629D01*
X11643600Y-5838629D02*
X9303400Y-3498428D01*
X16399400Y-6743653D02*
X16399400Y-8568857D01*
X8873184Y-2469105D02*
X7448577Y-2469105D01*
X16399400Y-8568857D02*
X15489159Y-9479098D01*
X14419547Y-9479098D02*
X11643600Y-6703151D01*
%TO.N,/SCLK*%
X20964046Y-7495679D02*
X20964046Y-5008200D01*
X17001046Y-1045200D02*
X15392400Y-1045200D01*
X20365400Y-8094325D02*
X20964046Y-7495679D01*
X20365400Y-13032895D02*
X20365400Y-8094325D01*
X20964046Y-5008200D02*
X17001046Y-1045200D01*
X20227999Y-13170296D02*
X20365400Y-13032895D01*
%TO.N,/BUSY*%
X18197964Y-17566562D02*
X17687999Y-18076527D01*
X17179998Y-13550923D02*
X18029941Y-14400866D01*
X17179998Y-12436402D02*
X17179998Y-13550923D01*
X17687999Y-18076527D02*
X17191160Y-18076527D01*
X9712400Y-1045200D02*
X9360944Y-693744D01*
X18197964Y-17028084D02*
X18197964Y-17566562D01*
X9360944Y-693744D02*
X7483701Y-693744D01*
X20314046Y-6746209D02*
X19964400Y-7095855D01*
X18084800Y-11531600D02*
X17179998Y-12436402D01*
X6867970Y-1309475D02*
X6867970Y-1693510D01*
X18029941Y-16860061D02*
X18197964Y-17028084D01*
X18029941Y-14400866D02*
X18029941Y-16860061D01*
X10312400Y-1045200D02*
X9712400Y-1045200D01*
X19964400Y-7095855D02*
X19964400Y-11125200D01*
X19558000Y-11531600D02*
X18084800Y-11531600D01*
X19964400Y-11125200D02*
X19558000Y-11531600D01*
X7483701Y-693744D02*
X6867970Y-1309475D01*
%TO.N,/MISO*%
X11846878Y-4448688D02*
X11846878Y-4587399D01*
X14478039Y-7079849D02*
X14478039Y-8414227D01*
X12366350Y-4968160D02*
X14478039Y-7079849D01*
X11582400Y-4184210D02*
X11846878Y-4448688D01*
X12227639Y-4968160D02*
X12366350Y-4968160D01*
X11846878Y-4587399D02*
X12227639Y-4968160D01*
X11582400Y-1045200D02*
X11582400Y-4184210D01*
%TO.N,/SX CS*%
X15764762Y-7235201D02*
X15764762Y-8155205D01*
X14122400Y-1045200D02*
X14122400Y-5592839D01*
X14122400Y-5592839D02*
X15764762Y-7235201D01*
%TO.N,/MOSI*%
X13146878Y-5183002D02*
X15101164Y-7137288D01*
X12852400Y-3754443D02*
X13146878Y-4048921D01*
X12852400Y-1045200D02*
X12852400Y-3754443D01*
X15101164Y-7137288D02*
X15101164Y-8642043D01*
X15101164Y-8642043D02*
X15219920Y-8760799D01*
X13146878Y-4048921D02*
X13146878Y-5183002D01*
%TO.N,/QSPI_SCLK*%
X17694092Y-25207653D02*
X17105953Y-25207653D01*
X16548000Y-24649700D02*
X13640794Y-24649700D01*
X10922000Y-20824729D02*
X10830002Y-20732731D01*
X19050000Y-27151700D02*
X18151170Y-26252870D01*
X18151170Y-26252870D02*
X18151170Y-25664731D01*
X13640794Y-24649700D02*
X13266582Y-25023912D01*
X18151170Y-25664731D02*
X17694092Y-25207653D01*
X10846267Y-21634286D02*
X10846267Y-21095808D01*
X10922000Y-23838971D02*
X10922000Y-21710019D01*
X13266582Y-25023912D02*
X12106941Y-25023912D01*
X10922000Y-21020075D02*
X10922000Y-20824729D01*
X10922000Y-18188194D02*
X11851200Y-17258994D01*
X10922000Y-19936569D02*
X10922000Y-18188194D01*
X10922000Y-21710019D02*
X10846267Y-21634286D01*
X10846267Y-21095808D02*
X10922000Y-21020075D01*
X12106941Y-25023912D02*
X10922000Y-23838971D01*
X10830002Y-20028567D02*
X10922000Y-19936569D01*
X20143100Y-27151700D02*
X19050000Y-27151700D01*
X17105953Y-25207653D02*
X16548000Y-24649700D01*
X10830002Y-20732731D02*
X10830002Y-20028567D01*
X22148800Y-25146000D02*
X20143100Y-27151700D01*
%TO.N,/QSPI_SD2*%
X11785600Y-22342516D02*
X12157094Y-21971022D01*
X13208000Y-24231600D02*
X12690694Y-24231600D01*
X11785600Y-23326506D02*
X11785600Y-22342516D01*
X12690694Y-24231600D02*
X11785600Y-23326506D01*
%TO.N,/QSPI_SDO*%
X15194173Y-22303247D02*
X15548895Y-22303247D01*
X15659248Y-22413600D02*
X16619856Y-22413600D01*
X16619856Y-22413600D02*
X17092000Y-22885744D01*
X17743193Y-23882823D02*
X18123954Y-24263584D01*
X17092000Y-23391200D02*
X17583623Y-23882823D01*
X12572553Y-21365047D02*
X13510753Y-22303247D01*
X13510753Y-22303247D02*
X14362311Y-22303247D01*
X15548895Y-22303247D02*
X15659248Y-22413600D01*
X11496267Y-21365047D02*
X12572553Y-21365047D01*
X17583623Y-23882823D02*
X17743193Y-23882823D01*
X14509003Y-22449939D02*
X15047481Y-22449939D01*
X15047481Y-22449939D02*
X15194173Y-22303247D01*
X18123954Y-24263584D02*
X18123954Y-24423154D01*
X18123954Y-24423154D02*
X19964400Y-26263600D01*
X14362311Y-22303247D02*
X14509003Y-22449939D01*
X17092000Y-22885744D02*
X17092000Y-23391200D01*
%TO.N,/QSPI_SD3*%
X19851200Y-22413600D02*
X17754055Y-22413600D01*
X15625600Y-21716761D02*
X15625600Y-21713115D01*
X15918774Y-22009935D02*
X15625600Y-21716761D01*
X21599519Y-24161919D02*
X19851200Y-22413600D01*
X17754055Y-22413600D02*
X17350390Y-22009935D01*
X14894800Y-17642839D02*
X14894800Y-16971044D01*
X14986000Y-17734039D02*
X14894800Y-17642839D01*
X15625600Y-21713115D02*
X14986000Y-21073515D01*
X14894800Y-16971044D02*
X15302982Y-16562862D01*
X15302982Y-16562862D02*
X15584000Y-16562862D01*
X22305705Y-24161919D02*
X21599519Y-24161919D01*
X17350390Y-22009935D02*
X15918774Y-22009935D01*
X14986000Y-21073515D02*
X14986000Y-17734039D01*
%TO.N,/TXEN*%
X5482402Y-11951902D02*
X5482402Y-12445159D01*
X9084600Y-24719094D02*
X9084600Y-24781800D01*
X7852400Y-4775200D02*
X8202400Y-4775200D01*
X11454500Y-27151700D02*
X16333100Y-27151700D01*
X7481402Y-15053902D02*
X7930200Y-15502700D01*
X6803880Y-11951902D02*
X5482402Y-11951902D01*
X5482402Y-12445159D02*
X5395200Y-12532361D01*
X7620794Y-24001700D02*
X8367206Y-24001700D01*
X8240000Y-9738361D02*
X8240000Y-10515782D01*
X8903400Y-5476200D02*
X8903400Y-9357600D01*
X5482402Y-13158041D02*
X5482402Y-15053902D01*
X8202400Y-4775200D02*
X8903400Y-5476200D01*
X5395200Y-12532361D02*
X5395200Y-13070839D01*
X5395200Y-13070839D02*
X5482402Y-13158041D01*
X7093000Y-22527494D02*
X7093000Y-23473906D01*
X16333100Y-27151700D02*
X17400023Y-26084777D01*
X8367206Y-24001700D02*
X9084600Y-24719094D01*
X9084600Y-24781800D02*
X11454500Y-27151700D01*
X7930200Y-21690294D02*
X7093000Y-22527494D01*
X5482402Y-15053902D02*
X7481402Y-15053902D01*
X8620761Y-9357600D02*
X8240000Y-9738361D01*
X8240000Y-10515782D02*
X6803880Y-11951902D01*
X17400023Y-26084777D02*
X17400023Y-25832823D01*
X8903400Y-9357600D02*
X8620761Y-9357600D01*
X7930200Y-15502700D02*
X7930200Y-21690294D01*
X7093000Y-23473906D02*
X7620794Y-24001700D01*
%TO.N,/RXEN*%
X11763709Y-26495709D02*
X11961014Y-26495709D01*
X8202400Y-3505200D02*
X10014000Y-5316800D01*
X10014000Y-7394279D02*
X9303400Y-8104879D01*
X9611400Y-9809761D02*
X9611400Y-10735951D01*
X9303400Y-8104879D02*
X9303400Y-9501761D01*
X9303400Y-9501761D02*
X9611400Y-9809761D01*
X9611400Y-10735951D02*
X8259279Y-12088072D01*
X7852400Y-3505200D02*
X8202400Y-3505200D01*
X8259279Y-12088072D02*
X8259279Y-12792236D01*
X10014000Y-5316800D02*
X10014000Y-7394279D01*
X8331200Y-21482039D02*
X8987561Y-22138400D01*
X9071591Y-22138400D02*
X9485600Y-22552409D01*
X8331200Y-12864157D02*
X8331200Y-21482039D01*
X9485600Y-22552409D02*
X9485600Y-24217600D01*
X9485600Y-24217600D02*
X11763709Y-26495709D01*
X8259279Y-12792236D02*
X8331200Y-12864157D01*
X8987561Y-22138400D02*
X9071591Y-22138400D01*
%TD*%
M02*
