%TF.GenerationSoftware,KiCad,Pcbnew,9.0.5*%
%TF.CreationDate,2025-12-03T11:23:26-08:00*%
%TF.ProjectId,camcontrol,63616d63-6f6e-4747-926f-6c2e6b696361,rev?*%
%TF.SameCoordinates,Original*%
%TF.FileFunction,Soldermask,Bot*%
%TF.FilePolarity,Negative*%
%FSLAX46Y46*%
G04 Gerber Fmt 4.6, Leading zero omitted, Abs format (unit mm)*
G04 Created by KiCad (PCBNEW 9.0.5) date 2025-12-03 11:23:26*
%MOMM*%
%LPD*%
G01*
G04 APERTURE LIST*
G04 Aperture macros list*
%AMRoundRect*
0 Rectangle with rounded corners*
0 $1 Rounding radius*
0 $2 $3 $4 $5 $6 $7 $8 $9 X,Y pos of 4 corners*
0 Add a 4 corners polygon primitive as box body*
4,1,4,$2,$3,$4,$5,$6,$7,$8,$9,$2,$3,0*
0 Add four circle primitives for the rounded corners*
1,1,$1+$1,$2,$3*
1,1,$1+$1,$4,$5*
1,1,$1+$1,$6,$7*
1,1,$1+$1,$8,$9*
0 Add four rect primitives between the rounded corners*
20,1,$1+$1,$2,$3,$4,$5,0*
20,1,$1+$1,$4,$5,$6,$7,0*
20,1,$1+$1,$6,$7,$8,$9,0*
20,1,$1+$1,$8,$9,$2,$3,0*%
%AMFreePoly0*
4,1,23,0.500000,-0.750000,0.000000,-0.750000,0.000000,-0.745722,-0.065263,-0.745722,-0.191342,-0.711940,-0.304381,-0.646677,-0.396677,-0.554381,-0.461940,-0.441342,-0.495722,-0.315263,-0.495722,-0.250000,-0.500000,-0.250000,-0.500000,0.250000,-0.495722,0.250000,-0.495722,0.315263,-0.461940,0.441342,-0.396677,0.554381,-0.304381,0.646677,-0.191342,0.711940,-0.065263,0.745722,0.000000,0.745722,
0.000000,0.750000,0.500000,0.750000,0.500000,-0.750000,0.500000,-0.750000,$1*%
%AMFreePoly1*
4,1,23,0.000000,0.745722,0.065263,0.745722,0.191342,0.711940,0.304381,0.646677,0.396677,0.554381,0.461940,0.441342,0.495722,0.315263,0.495722,0.250000,0.500000,0.250000,0.500000,-0.250000,0.495722,-0.250000,0.495722,-0.315263,0.461940,-0.441342,0.396677,-0.554381,0.304381,-0.646677,0.191342,-0.711940,0.065263,-0.745722,0.000000,-0.745722,0.000000,-0.750000,-0.500000,-0.750000,
-0.500000,0.750000,0.000000,0.750000,0.000000,0.745722,0.000000,0.745722,$1*%
G04 Aperture macros list end*
%ADD10O,1.200000X1.400000*%
%ADD11O,1.200000X1.900000*%
%ADD12C,3.800000*%
%ADD13RoundRect,0.218750X-0.256250X0.218750X-0.256250X-0.218750X0.256250X-0.218750X0.256250X0.218750X0*%
%ADD14R,1.397000X2.500000*%
%ADD15RoundRect,0.218750X0.256250X-0.218750X0.256250X0.218750X-0.256250X0.218750X-0.256250X-0.218750X0*%
%ADD16R,0.800000X1.500000*%
%ADD17R,1.500000X0.800000*%
%ADD18RoundRect,0.250000X0.725000X-0.600000X0.725000X0.600000X-0.725000X0.600000X-0.725000X-0.600000X0*%
%ADD19O,1.950000X1.700000*%
%ADD20FreePoly0,180.000000*%
%ADD21FreePoly1,180.000000*%
%ADD22R,1.500000X1.000000*%
%ADD23R,1.050000X1.000000*%
%ADD24R,2.200000X1.050000*%
G04 APERTURE END LIST*
%TO.C,J6*%
G36*
X15786000Y-22719600D02*
G01*
X15486000Y-22719600D01*
X15486000Y-24219600D01*
X15786000Y-24219600D01*
X15786000Y-22719600D01*
G37*
%TO.C,J5*%
G36*
X22848000Y-13754000D02*
G01*
X21348000Y-13754000D01*
X21348000Y-13454000D01*
X22848000Y-13454000D01*
X22848000Y-13754000D01*
G37*
%TD*%
D10*
%TO.C,J2*%
X12834000Y-23000700D03*
X7994000Y-23000700D03*
D11*
X6814000Y-25900700D03*
X14014000Y-25900700D03*
%TD*%
D12*
%TO.C,H2*%
X4000000Y-24000000D03*
%TD*%
%TO.C,H1*%
X24000000Y-4000000D03*
%TD*%
D13*
%TO.C,D1*%
X858400Y-12728500D03*
X858400Y-14303500D03*
%TD*%
D14*
%TO.C,J7*%
X19029500Y-19708098D03*
X19029500Y-13508101D03*
X16029502Y-19708098D03*
X16029502Y-13508101D03*
X13029502Y-19708098D03*
X13029502Y-13508101D03*
%TD*%
D15*
%TO.C,D2*%
X914400Y-17348300D03*
X914400Y-15773300D03*
%TD*%
D16*
%TO.C,U1*%
X15392400Y-11045200D03*
X14122400Y-11045200D03*
X12852400Y-11045200D03*
X11582400Y-11045200D03*
X10312400Y-11045200D03*
D17*
X7852400Y-8585200D03*
X7852400Y-7315200D03*
X7852400Y-6045200D03*
X7852400Y-4775200D03*
X7852400Y-3505200D03*
D16*
X10312400Y-1045200D03*
X11582400Y-1045200D03*
X12852400Y-1045200D03*
X14122400Y-1045200D03*
X15392400Y-1045200D03*
D17*
X17852400Y-3505200D03*
X17852400Y-4775200D03*
X17852400Y-6045200D03*
X17852400Y-7315200D03*
X17852400Y-8585200D03*
%TD*%
D18*
%TO.C,J8*%
X26208000Y-18634400D03*
D19*
X26208000Y-16134400D03*
X26208000Y-13634400D03*
X26208000Y-11134400D03*
%TD*%
D14*
%TO.C,J3*%
X9481900Y-19702899D03*
X9481900Y-13502902D03*
X6481902Y-19702899D03*
X6481902Y-13502902D03*
X3481902Y-19702899D03*
X3481902Y-13502902D03*
%TD*%
D20*
%TO.C,J6*%
X16286000Y-23469600D03*
D21*
X14986000Y-23469600D03*
%TD*%
D22*
%TO.C,J5*%
X22098000Y-14254000D03*
X22098000Y-12954000D03*
%TD*%
D13*
%TO.C,D3*%
X21894800Y-21666100D03*
X21894800Y-23241100D03*
%TD*%
D23*
%TO.C,AE1*%
X6076800Y-8483600D03*
D24*
X4576800Y-9983600D03*
X4576800Y-6983600D03*
%TD*%
M02*
