%TF.GenerationSoftware,KiCad,Pcbnew,9.0.5*%
%TF.CreationDate,2025-12-03T22:00:20-08:00*%
%TF.ProjectId,camcontrol,63616d63-6f6e-4747-926f-6c2e6b696361,rev?*%
%TF.SameCoordinates,Original*%
%TF.FileFunction,Copper,L4,Bot*%
%TF.FilePolarity,Positive*%
%FSLAX46Y46*%
G04 Gerber Fmt 4.6, Leading zero omitted, Abs format (unit mm)*
G04 Created by KiCad (PCBNEW 9.0.5) date 2025-12-03 22:00:20*
%MOMM*%
%LPD*%
G01*
G04 APERTURE LIST*
G04 Aperture macros list*
%AMRoundRect*
0 Rectangle with rounded corners*
0 $1 Rounding radius*
0 $2 $3 $4 $5 $6 $7 $8 $9 X,Y pos of 4 corners*
0 Add a 4 corners polygon primitive as box body*
4,1,4,$2,$3,$4,$5,$6,$7,$8,$9,$2,$3,0*
0 Add four circle primitives for the rounded corners*
1,1,$1+$1,$2,$3*
1,1,$1+$1,$4,$5*
1,1,$1+$1,$6,$7*
1,1,$1+$1,$8,$9*
0 Add four rect primitives between the rounded corners*
20,1,$1+$1,$2,$3,$4,$5,0*
20,1,$1+$1,$4,$5,$6,$7,0*
20,1,$1+$1,$6,$7,$8,$9,0*
20,1,$1+$1,$8,$9,$2,$3,0*%
%AMFreePoly0*
4,1,23,0.500000,-0.750000,0.000000,-0.750000,0.000000,-0.745722,-0.065263,-0.745722,-0.191342,-0.711940,-0.304381,-0.646677,-0.396677,-0.554381,-0.461940,-0.441342,-0.495722,-0.315263,-0.495722,-0.250000,-0.500000,-0.250000,-0.500000,0.250000,-0.495722,0.250000,-0.495722,0.315263,-0.461940,0.441342,-0.396677,0.554381,-0.304381,0.646677,-0.191342,0.711940,-0.065263,0.745722,0.000000,0.745722,
0.000000,0.750000,0.500000,0.750000,0.500000,-0.750000,0.500000,-0.750000,$1*%
%AMFreePoly1*
4,1,23,0.000000,0.745722,0.065263,0.745722,0.191342,0.711940,0.304381,0.646677,0.396677,0.554381,0.461940,0.441342,0.495722,0.315263,0.495722,0.250000,0.500000,0.250000,0.500000,-0.250000,0.495722,-0.250000,0.495722,-0.315263,0.461940,-0.441342,0.396677,-0.554381,0.304381,-0.646677,0.191342,-0.711940,0.065263,-0.745722,0.000000,-0.745722,0.000000,-0.750000,-0.500000,-0.750000,
-0.500000,0.750000,0.000000,0.750000,0.000000,0.745722,0.000000,0.745722,$1*%
%AMFreePoly2*
4,1,23,0.000000,0.745722,0.065263,0.745722,0.191342,0.711940,0.304381,0.646677,0.396677,0.554381,0.461940,0.441342,0.495722,0.315263,0.495722,0.250000,0.500000,0.250000,0.500000,-0.250000,0.495722,-0.250000,0.495722,-0.315263,0.461940,-0.441342,0.396677,-0.554381,0.304381,-0.646677,0.191342,-0.711940,0.065263,-0.745722,0.000000,-0.745722,0.000000,-0.750000,-0.550000,-0.750000,
-0.550000,0.750000,0.000000,0.750000,0.000000,0.745722,0.000000,0.745722,$1*%
%AMFreePoly3*
4,1,23,0.550000,-0.750000,0.000000,-0.750000,0.000000,-0.745722,-0.065263,-0.745722,-0.191342,-0.711940,-0.304381,-0.646677,-0.396677,-0.554381,-0.461940,-0.441342,-0.495722,-0.315263,-0.495722,-0.250000,-0.500000,-0.250000,-0.500000,0.250000,-0.495722,0.250000,-0.495722,0.315263,-0.461940,0.441342,-0.396677,0.554381,-0.304381,0.646677,-0.191342,0.711940,-0.065263,0.745722,0.000000,0.745722,
0.000000,0.750000,0.550000,0.750000,0.550000,-0.750000,0.550000,-0.750000,$1*%
G04 Aperture macros list end*
%TA.AperFunction,ComponentPad*%
%ADD10R,1.350000X1.350000*%
%TD*%
%TA.AperFunction,ComponentPad*%
%ADD11C,1.350000*%
%TD*%
%TA.AperFunction,SMDPad,CuDef*%
%ADD12RoundRect,0.140000X1.110000X0.560000X-1.110000X0.560000X-1.110000X-0.560000X1.110000X-0.560000X0*%
%TD*%
%TA.AperFunction,SMDPad,CuDef*%
%ADD13R,1.500000X0.800000*%
%TD*%
%TA.AperFunction,SMDPad,CuDef*%
%ADD14R,0.800000X1.500000*%
%TD*%
%TA.AperFunction,SMDPad,CuDef*%
%ADD15R,1.050000X2.200000*%
%TD*%
%TA.AperFunction,SMDPad,CuDef*%
%ADD16R,1.000000X1.050000*%
%TD*%
%TA.AperFunction,ComponentPad*%
%ADD17O,1.200000X1.900000*%
%TD*%
%TA.AperFunction,ComponentPad*%
%ADD18O,1.200000X1.400000*%
%TD*%
%TA.AperFunction,ComponentPad*%
%ADD19C,3.800000*%
%TD*%
%TA.AperFunction,SMDPad,CuDef*%
%ADD20RoundRect,0.218750X-0.218750X-0.256250X0.218750X-0.256250X0.218750X0.256250X-0.218750X0.256250X0*%
%TD*%
%TA.AperFunction,SMDPad,CuDef*%
%ADD21FreePoly0,270.000000*%
%TD*%
%TA.AperFunction,SMDPad,CuDef*%
%ADD22FreePoly1,270.000000*%
%TD*%
%TA.AperFunction,SMDPad,CuDef*%
%ADD23R,1.500000X1.000000*%
%TD*%
%TA.AperFunction,SMDPad,CuDef*%
%ADD24RoundRect,0.218750X0.218750X0.256250X-0.218750X0.256250X-0.218750X-0.256250X0.218750X-0.256250X0*%
%TD*%
%TA.AperFunction,SMDPad,CuDef*%
%ADD25FreePoly2,90.000000*%
%TD*%
%TA.AperFunction,SMDPad,CuDef*%
%ADD26FreePoly3,90.000000*%
%TD*%
%TA.AperFunction,ViaPad*%
%ADD27C,0.600000*%
%TD*%
%TA.AperFunction,ViaPad*%
%ADD28C,1.000000*%
%TD*%
%TA.AperFunction,Conductor*%
%ADD29C,0.200000*%
%TD*%
%TA.AperFunction,Conductor*%
%ADD30C,0.500000*%
%TD*%
G04 APERTURE END LIST*
D10*
%TO.P,J8,1,Pin_1*%
%TO.N,/CAM RX*%
X10646800Y-1662800D03*
D11*
%TO.P,J8,2,Pin_2*%
%TO.N,/CAM TX*%
X8646800Y-1662800D03*
%TO.P,J8,3,Pin_3*%
%TO.N,GND*%
X6646800Y-1662800D03*
%TD*%
D12*
%TO.P,J4,2,Pin_2*%
%TO.N,+12VA*%
X17499800Y-8456800D03*
X23749800Y-8456800D03*
%TO.P,J4,1,Pin_1*%
%TO.N,GND*%
X17499800Y-11456800D03*
X23749800Y-11456800D03*
%TD*%
%TO.P,J7,2,Pin_2*%
%TO.N,GND*%
X13435800Y-2360800D03*
X19685800Y-2360800D03*
%TO.P,J7,1,Pin_1*%
%TO.N,/CAMPWR*%
X13435800Y-5360800D03*
X19685800Y-5360800D03*
%TD*%
%TO.P,J3,1,Pin_1*%
%TO.N,/VIDPWR*%
X23749800Y-17552800D03*
X17499800Y-17552800D03*
%TO.P,J3,2,Pin_2*%
%TO.N,GND*%
X23749800Y-14552800D03*
X17499800Y-14552800D03*
%TD*%
D13*
%TO.P,U1,20,DIO1*%
%TO.N,unconnected-(U1-DIO1-Pad20)*%
X12496800Y-15352800D03*
%TO.P,U1,19,DIO2*%
%TO.N,unconnected-(U1-DIO2-Pad19)*%
X12496800Y-14082800D03*
%TO.P,U1,18,DIO3*%
%TO.N,unconnected-(U1-DIO3-Pad18)*%
X12496800Y-12812800D03*
%TO.P,U1,17,NC*%
%TO.N,unconnected-(U1-NC-Pad17)*%
X12496800Y-11542800D03*
%TO.P,U1,16,GND*%
%TO.N,GND*%
X12496800Y-10272800D03*
D14*
%TO.P,U1,15,SCK*%
%TO.N,/SCLK*%
X10036800Y-7812800D03*
%TO.P,U1,14,NSS*%
%TO.N,/SX CS*%
X8766800Y-7812800D03*
%TO.P,U1,13,MOSI*%
%TO.N,/MOSI*%
X7496800Y-7812800D03*
%TO.P,U1,12,MISO*%
%TO.N,/MISO*%
X6226800Y-7812800D03*
%TO.P,U1,11,BUSY*%
%TO.N,/BUSY*%
X4956800Y-7812800D03*
D13*
%TO.P,U1,10,RXEN*%
%TO.N,/RXEN*%
X2496800Y-10272800D03*
%TO.P,U1,9,TXEN*%
%TO.N,/TXEN*%
X2496800Y-11542800D03*
%TO.P,U1,8,NC*%
%TO.N,unconnected-(U1-NC-Pad8)*%
X2496800Y-12812800D03*
%TO.P,U1,7,GND*%
%TO.N,GND*%
X2496800Y-14082800D03*
%TO.P,U1,6,ANT*%
%TO.N,Net-(AE1-A)*%
X2496800Y-15352800D03*
D14*
%TO.P,U1,5,NC*%
%TO.N,unconnected-(U1-NC-Pad5)*%
X4956800Y-17812800D03*
%TO.P,U1,4,NC*%
%TO.N,unconnected-(U1-NC-Pad4)*%
X6226800Y-17812800D03*
%TO.P,U1,3,NRST*%
%TO.N,/SX RST*%
X7496800Y-17812800D03*
%TO.P,U1,2,GND*%
%TO.N,GND*%
X8766800Y-17812800D03*
%TO.P,U1,1,VCC*%
%TO.N,+3V3*%
X10036800Y-17812800D03*
%TD*%
D15*
%TO.P,AE1,2,Shield*%
%TO.N,GND*%
X5146800Y-20587800D03*
X2146800Y-20587800D03*
D16*
%TO.P,AE1,1,A*%
%TO.N,Net-(AE1-A)*%
X3646800Y-19087800D03*
%TD*%
D17*
%TO.P,J2,9*%
%TO.N,N/C*%
X12646800Y-23010300D03*
%TO.P,J2,8*%
X5446800Y-23010300D03*
D18*
%TO.P,J2,7*%
X6626800Y-20110300D03*
%TO.P,J2,6,Shield*%
%TO.N,unconnected-(J2-Shield-Pad6)*%
X11466800Y-20110300D03*
%TD*%
D19*
%TO.P,H2,1,1*%
%TO.N,GND*%
X21400000Y-21400000D03*
%TD*%
%TO.P,H1,1,1*%
%TO.N,GND*%
X4000000Y-4000000D03*
%TD*%
D20*
%TO.P,D1,1,K*%
%TO.N,Net-(D1-K)*%
X6883300Y-4495800D03*
%TO.P,D1,2,A*%
%TO.N,+3V3*%
X8458300Y-4495800D03*
%TD*%
D21*
%TO.P,J6,1,Pin_1*%
%TO.N,GND*%
X18211800Y-20467800D03*
D22*
%TO.P,J6,2,Pin_2*%
%TO.N,/BOOTSEL*%
X18211800Y-21767800D03*
%TD*%
D23*
%TO.P,J5,1,Pin_1*%
%TO.N,/SWCLK*%
X10746800Y-5912800D03*
%TO.P,J5,2,Pin_2*%
%TO.N,/SWD*%
X10746800Y-4612800D03*
%TD*%
D24*
%TO.P,D3,1,K*%
%TO.N,Net-(D3-K)*%
X3225900Y-6883400D03*
%TO.P,D3,2,A*%
%TO.N,+3V3*%
X1650900Y-6883400D03*
%TD*%
D12*
%TO.P,J1,2,Pin_2*%
%TO.N,+12V*%
X9117800Y-20648800D03*
X15367800Y-20648800D03*
%TO.P,J1,1,Pin_1*%
%TO.N,GND*%
X9117800Y-23648800D03*
X15367800Y-23648800D03*
%TD*%
D25*
%TO.P,JP1,3,B*%
%TO.N,+12VA*%
X14789300Y-11912800D03*
D23*
%TO.P,JP1,2,C*%
%TO.N,Net-(JP1-C)*%
X14789300Y-13212800D03*
D26*
%TO.P,JP1,1,A*%
%TO.N,+12V*%
X14789300Y-14512800D03*
%TD*%
D27*
%TO.N,+12VA*%
X23723600Y-4648200D03*
%TO.N,GND*%
X19964400Y-2336800D03*
X20967877Y-4224170D03*
X19634200Y-6520800D03*
%TO.N,+3V3*%
X9855200Y-17165300D03*
%TO.N,GND*%
X22809200Y-10795000D03*
%TO.N,+1V1*%
X9227731Y-10083550D03*
X10261600Y-15138400D03*
%TO.N,/LEDINDICATION*%
X5130800Y-6121400D03*
X13598236Y-6724707D03*
%TO.N,+3V3*%
X1600200Y-7543800D03*
%TO.N,Net-(D3-K)*%
X2717800Y-6883400D03*
%TO.N,Net-(JP1-C)*%
X4006796Y-17780000D03*
%TO.N,+12V*%
X19704422Y-19120222D03*
X18106803Y-13392800D03*
%TO.N,/TX BATT SENSE *%
X13411200Y-19786600D03*
X7584961Y-12531702D03*
%TO.N,GND*%
X17993833Y-19227739D03*
%TO.N,/BOOTSEL*%
X18836228Y-19341208D03*
%TO.N,/TX BATT SENSE *%
X20748952Y-18363808D03*
%TO.N,Net-(JP1-C)*%
X14549537Y-13110517D03*
%TO.N,GND*%
X2818385Y-16660995D03*
X5396800Y-20212800D03*
X5396800Y-19262800D03*
X3196800Y-20462800D03*
X2045340Y-21447472D03*
X1896800Y-19862800D03*
X1946800Y-18812800D03*
X1600200Y-17145000D03*
X11146800Y-18945800D03*
%TO.N,/QSPI_SDO*%
X18156355Y-16302800D03*
D28*
%TO.N,+12V*%
X16345800Y-20758300D03*
%TO.N,+12VA*%
X10732741Y-3448741D03*
D27*
%TO.N,/CAM BATT SENSE *%
X22246800Y-5262800D03*
D28*
%TO.N,+12VA*%
X14785552Y-7658712D03*
%TO.N,GND*%
X23746800Y-12862800D03*
%TO.N,/VIDPWR*%
X20626800Y-16876185D03*
%TO.N,/CAMPWR*%
X17646800Y-4362800D03*
D27*
%TO.N,+3V3*%
X17346800Y-13392800D03*
%TO.N,/CAMSNS*%
X19349894Y-10147938D03*
%TO.N,/VIDSNS*%
X20428104Y-7565375D03*
%TO.N,/VID EN*%
X24253823Y-10075160D03*
X19946800Y-11562800D03*
%TO.N,GND*%
X24426800Y-16392800D03*
X21742920Y-16530760D03*
X19804645Y-16339148D03*
X13435800Y-2862800D03*
X11625980Y-6854289D03*
%TO.N,/SCLK*%
X6246800Y-6151800D03*
%TO.N,GND*%
X12496800Y-10272800D03*
X15746800Y-5362800D03*
X15894332Y-7362027D03*
X14781046Y-10343645D03*
%TO.N,/SX RST*%
X5596800Y-14662800D03*
%TO.N,+3V3*%
X8015800Y-6512798D03*
%TO.N,/SWD*%
X10013886Y-4875189D03*
%TO.N,/SWCLK*%
X9904857Y-5846844D03*
%TO.N,+3V3*%
X9996472Y-10430074D03*
%TO.N,/SX CS*%
X8378195Y-10111716D03*
%TO.N,/MISO*%
X7546351Y-10455701D03*
%TO.N,/BUSY*%
X5646800Y-10362800D03*
%TO.N,/MOSI*%
X5490803Y-12506252D03*
%TO.N,/RXEN*%
X4786018Y-12144890D03*
%TO.N,GND*%
X4046800Y-11762800D03*
%TO.N,/TXEN*%
X4546800Y-13262800D03*
D28*
%TO.N,GND*%
X10746800Y-23662800D03*
D27*
X16846800Y-1562800D03*
X16180115Y-14811946D03*
X18946800Y-1562800D03*
X9638481Y-13811787D03*
X11303000Y-13792200D03*
X8577731Y-11262800D03*
%TO.N,+3V3*%
X7838614Y-11733513D03*
%TO.N,GND*%
X1546800Y-14062800D03*
%TO.N,+3V3*%
X14105568Y-16833603D03*
%TO.N,/QSPI_SD1*%
X12869153Y-16970612D03*
X14921339Y-19258300D03*
%TO.N,/QSPI_SD2*%
X16046800Y-18662800D03*
%TO.N,GND*%
X18246800Y-23062800D03*
%TO.N,+3V3*%
X12515688Y-6538105D03*
%TO.N,/QSPI_SD2*%
X9520064Y-14653500D03*
%TO.N,Net-(D1-K)*%
X7318128Y-4036627D03*
%TO.N,+3V3*%
X9446798Y-4346926D03*
%TO.N,GND*%
X7426851Y-19023538D03*
X4499640Y-16223499D03*
%TO.N,+3V3*%
X6413220Y-15407980D03*
D28*
%TO.N,GND*%
X2996800Y-8632800D03*
%TO.N,+3V3*%
X1096800Y-8632800D03*
D27*
X7411744Y-16458504D03*
%TO.N,GND*%
X22890600Y-12639600D03*
X17546800Y-5462800D03*
X17546800Y-7262800D03*
X21090600Y-12639600D03*
%TO.N,/QSPI_SDO*%
X11131994Y-15014574D03*
%TO.N,/VIDSNS*%
X8002474Y-14101004D03*
%TO.N,/CAM BATT SENSE *%
X7979000Y-13181576D03*
%TO.N,/CAMSNS*%
X8638219Y-14714502D03*
%TD*%
D29*
%TO.N,/CAMSNS*%
X8638219Y-13892810D02*
X8638219Y-14714502D01*
X9369242Y-13161787D02*
X8638219Y-13892810D01*
X9747813Y-13161787D02*
X9369242Y-13161787D01*
X10446800Y-12462800D02*
X9747813Y-13161787D01*
X10446800Y-12362800D02*
X10446800Y-12462800D01*
X11485800Y-11323800D02*
X10446800Y-12362800D01*
X11485800Y-9611800D02*
X11485800Y-11323800D01*
X13823930Y-9609763D02*
X11487837Y-9609763D01*
X14674869Y-9609763D02*
X14547632Y-9737000D01*
X15899835Y-9609763D02*
X14674869Y-9609763D01*
X18827126Y-9777800D02*
X16067872Y-9777800D01*
X16067872Y-9777800D02*
X15899835Y-9609763D01*
X13951168Y-9737000D02*
X13823930Y-9609763D01*
X19197264Y-10147938D02*
X18827126Y-9777800D01*
X11487837Y-9609763D02*
X11485800Y-9611800D01*
X14547632Y-9737000D02*
X13951168Y-9737000D01*
X19349894Y-10147938D02*
X19197264Y-10147938D01*
%TO.N,/CAM BATT SENSE *%
X21846800Y-6762800D02*
X22246800Y-6362800D01*
X20869806Y-6701800D02*
X20930806Y-6762800D01*
X18895961Y-6701800D02*
X19364961Y-7170800D01*
X11002603Y-8888763D02*
X12478142Y-8888763D01*
X9075029Y-12242800D02*
X10626800Y-10691029D01*
X7979000Y-13012367D02*
X8748566Y-12242800D01*
X19815200Y-7170800D02*
X20284200Y-6701800D01*
%TO.N,/VIDSNS*%
X18779782Y-9417800D02*
X20428104Y-7769478D01*
X16051781Y-9249763D02*
X16219818Y-9417800D01*
X14525753Y-9249763D02*
X16051781Y-9249763D01*
X13973045Y-9249763D02*
X14100284Y-9377000D01*
%TO.N,/CAM BATT SENSE *%
X8748566Y-12242800D02*
X9075029Y-12242800D01*
%TO.N,/VIDSNS*%
X11338720Y-9249763D02*
X13973045Y-9249763D01*
X8002474Y-14019439D02*
X9220126Y-12801787D01*
X8002474Y-14101004D02*
X8002474Y-14019439D01*
X14398516Y-9377000D02*
X14525753Y-9249763D01*
%TO.N,/CAM BATT SENSE *%
X20284200Y-6701800D02*
X20869806Y-6701800D01*
X14665105Y-6701800D02*
X18895961Y-6701800D01*
%TO.N,/VIDSNS*%
X14100284Y-9377000D02*
X14398516Y-9377000D01*
X10986800Y-11057946D02*
X10986800Y-9601683D01*
X9220126Y-12801787D02*
X9242959Y-12801787D01*
%TO.N,/CAM BATT SENSE *%
X19364961Y-7170800D02*
X19815200Y-7170800D01*
%TO.N,/VIDSNS*%
X10986800Y-9601683D02*
X11338720Y-9249763D01*
X16219818Y-9417800D02*
X18779782Y-9417800D01*
%TO.N,/CAM BATT SENSE *%
X12478142Y-8888763D02*
X14665105Y-6701800D01*
X20930806Y-6762800D02*
X21846800Y-6762800D01*
%TO.N,/VIDSNS*%
X9242959Y-12801787D02*
X10986800Y-11057946D01*
%TO.N,/CAM BATT SENSE *%
X10626800Y-9264567D02*
X11002603Y-8888763D01*
X22246800Y-6362800D02*
X22246800Y-5262800D01*
%TO.N,/VIDSNS*%
X20428104Y-7769478D02*
X20428104Y-7565375D01*
%TO.N,/CAM BATT SENSE *%
X7979000Y-13181576D02*
X7979000Y-13012367D01*
X10626800Y-10691029D02*
X10626800Y-9264567D01*
%TO.N,/TX BATT SENSE *%
X10411300Y-16515300D02*
X13411200Y-19515200D01*
X7285800Y-14177704D02*
X9623396Y-16515300D01*
X7285800Y-12830863D02*
X7285800Y-14177704D01*
X13411200Y-19515200D02*
X13411200Y-19786600D01*
X7584961Y-12531702D02*
X7285800Y-12830863D01*
X9623396Y-16515300D02*
X10411300Y-16515300D01*
%TO.N,GND*%
X8766800Y-18162800D02*
X8766800Y-17812800D01*
X7906062Y-19023538D02*
X8766800Y-18162800D01*
X7426851Y-19023538D02*
X7906062Y-19023538D01*
%TO.N,+12VA*%
X19276600Y-11403181D02*
X19556290Y-11123490D01*
X19407472Y-11123490D02*
X19556290Y-11123490D01*
X18779782Y-10495800D02*
X19407472Y-11123490D01*
X14789300Y-11912800D02*
X16206300Y-10495800D01*
X16206300Y-10495800D02*
X18779782Y-10495800D01*
%TO.N,/QSPI_SD2*%
X9990435Y-15838374D02*
X9520064Y-15368003D01*
X11436241Y-16473359D02*
X10801257Y-15838374D01*
X13610320Y-16409612D02*
X11499988Y-16409612D01*
X10801257Y-15838374D02*
X9990435Y-15838374D01*
X13836330Y-16183603D02*
X13610320Y-16409612D01*
X14737239Y-16183603D02*
X13836330Y-16183603D01*
X15946800Y-16832800D02*
X15386436Y-16832800D01*
X15946800Y-18562800D02*
X15946800Y-16832800D01*
X9520064Y-15368003D02*
X9520064Y-14653500D01*
X16046800Y-18662800D02*
X15946800Y-18562800D01*
X15386436Y-16832800D02*
X14737239Y-16183603D01*
X11499988Y-16409612D02*
X11436241Y-16473359D01*
%TO.N,/MISO*%
X6226800Y-9136150D02*
X7546351Y-10455701D01*
X6226800Y-7812800D02*
X6226800Y-9136150D01*
%TO.N,/SX CS*%
X8766800Y-9723111D02*
X8378195Y-10111716D01*
X8766800Y-7812800D02*
X8766800Y-9723111D01*
%TO.N,/QSPI_SDO*%
X11131994Y-15547994D02*
X11131994Y-15014574D01*
X11597800Y-16013800D02*
X11131994Y-15547994D01*
X13497016Y-16013800D02*
X11597800Y-16013800D01*
X13687212Y-15823603D02*
X13497016Y-16013800D01*
X15086355Y-15823603D02*
X13687212Y-15823603D01*
X17986355Y-16472800D02*
X15735552Y-16472800D01*
X18156355Y-16302800D02*
X17986355Y-16472800D01*
X15735552Y-16472800D02*
X15086355Y-15823603D01*
%TO.N,+3V3*%
X9297924Y-4495800D02*
X9446798Y-4346926D01*
D30*
%TO.N,+12VA*%
X10857800Y-3573800D02*
X10732741Y-3448741D01*
X14675912Y-3573800D02*
X10857800Y-3573800D01*
X14886912Y-3362800D02*
X14675912Y-3573800D01*
X18355800Y-3471800D02*
X18246800Y-3362800D01*
X23749800Y-4500418D02*
X22721182Y-3471800D01*
X18246800Y-3362800D02*
X14886912Y-3362800D01*
X22721182Y-3471800D02*
X18355800Y-3471800D01*
X23749800Y-8456800D02*
X23749800Y-4500418D01*
D29*
%TO.N,+3V3*%
X8458300Y-4495800D02*
X9297924Y-4495800D01*
%TO.N,/LEDINDICATION*%
X5791200Y-5461000D02*
X5130800Y-6121400D01*
X8575000Y-5461000D02*
X5791200Y-5461000D01*
X9787800Y-6673800D02*
X8575000Y-5461000D01*
X10569800Y-6673800D02*
X9787800Y-6673800D01*
X11311289Y-7415289D02*
X10569800Y-6673800D01*
X13598236Y-6724707D02*
X12907654Y-7415289D01*
%TO.N,/SCLK*%
X10036800Y-7462800D02*
X10036800Y-7812800D01*
X6246800Y-6151800D02*
X6577600Y-5821000D01*
X8395000Y-5821000D02*
X10036800Y-7462800D01*
%TO.N,/LEDINDICATION*%
X12907654Y-7415289D02*
X11311289Y-7415289D01*
%TO.N,/SCLK*%
X6577600Y-5821000D02*
X8395000Y-5821000D01*
D30*
%TO.N,+12VA*%
X15583640Y-8456800D02*
X14785552Y-7658712D01*
X17499800Y-8456800D02*
X15583640Y-8456800D01*
D29*
%TO.N,+3V3*%
X1650900Y-7493100D02*
X1600200Y-7543800D01*
X1650900Y-6883400D02*
X1650900Y-7493100D01*
%TO.N,/BOOTSEL*%
X19227800Y-21506800D02*
X19227800Y-19732780D01*
X18966800Y-21767800D02*
X19227800Y-21506800D01*
X18211800Y-21767800D02*
X18966800Y-21767800D01*
X19227800Y-19732780D02*
X18836228Y-19341208D01*
%TO.N,GND*%
X18211800Y-20467800D02*
X18211800Y-19445706D01*
X18211800Y-19445706D02*
X17993833Y-19227739D01*
%TO.N,+12V*%
X18106803Y-13359429D02*
X18106803Y-13392800D01*
X16942300Y-12831800D02*
X17579174Y-12831800D01*
X15261300Y-14512800D02*
X16942300Y-12831800D01*
X14789300Y-14512800D02*
X15261300Y-14512800D01*
X17579174Y-12831800D02*
X18106803Y-13359429D01*
D30*
X15647259Y-20369341D02*
X15956841Y-20369341D01*
X15367800Y-20648800D02*
X15647259Y-20369341D01*
D29*
%TO.N,/QSPI_SD1*%
X13983770Y-19258300D02*
X14921339Y-19258300D01*
X12869153Y-18143683D02*
X13983770Y-19258300D01*
X12869153Y-16970612D02*
X12869153Y-18143683D01*
D30*
%TO.N,+12V*%
X15956841Y-20369341D02*
X16345800Y-20758300D01*
D29*
%TO.N,Net-(JP1-C)*%
X14789300Y-13212800D02*
X14651820Y-13212800D01*
X14651820Y-13212800D02*
X14549537Y-13110517D01*
%TO.N,/SX RST*%
X5596800Y-15562800D02*
X5596800Y-14662800D01*
X7496800Y-17462800D02*
X5596800Y-15562800D01*
X7496800Y-17812800D02*
X7496800Y-17462800D01*
%TO.N,Net-(AE1-A)*%
X2246800Y-15602800D02*
X2496800Y-15352800D01*
X2246800Y-17762800D02*
X2246800Y-15602800D01*
X3571800Y-19087800D02*
X2246800Y-17762800D01*
X3646800Y-19087800D02*
X3571800Y-19087800D01*
%TO.N,GND*%
X2146800Y-21346012D02*
X2045340Y-21447472D01*
X2146800Y-20587800D02*
X2146800Y-21346012D01*
X2146800Y-20112800D02*
X1896800Y-19862800D01*
X2146800Y-20587800D02*
X2146800Y-20112800D01*
%TO.N,+12VA*%
X22222981Y-8456800D02*
X23749800Y-8456800D01*
X19556290Y-11123490D02*
X22222981Y-8456800D01*
%TO.N,/VID EN*%
X20446800Y-11562800D02*
X19946800Y-11562800D01*
X21946800Y-10062800D02*
X20446800Y-11562800D01*
X24241463Y-10062800D02*
X21946800Y-10062800D01*
X24253823Y-10075160D02*
X24241463Y-10062800D01*
D30*
%TO.N,GND*%
X23749800Y-12865800D02*
X23746800Y-12862800D01*
X23749800Y-14552800D02*
X23749800Y-12865800D01*
D29*
%TO.N,/MOSI*%
X7496800Y-7462800D02*
X7496800Y-7812800D01*
X4146800Y-8662800D02*
X4146800Y-6950800D01*
X4596800Y-9112800D02*
X4146800Y-8662800D01*
X4334800Y-6762800D02*
X6796800Y-6762800D01*
X6796800Y-6762800D02*
X7496800Y-7462800D01*
X5490803Y-11012800D02*
X4596800Y-10118797D01*
X4596800Y-10118797D02*
X4596800Y-9112800D01*
X4146800Y-6950800D02*
X4334800Y-6762800D01*
X5490803Y-12506252D02*
X5490803Y-11012800D01*
%TO.N,/BUSY*%
X4956800Y-9672800D02*
X5646800Y-10362800D01*
X4956800Y-7812800D02*
X4956800Y-9672800D01*
%TO.N,/RXEN*%
X3447359Y-10272800D02*
X4786018Y-11611459D01*
X4786018Y-11611459D02*
X4786018Y-12144890D01*
X2496800Y-10272800D02*
X3447359Y-10272800D01*
D30*
%TO.N,GND*%
X10732800Y-23648800D02*
X10746800Y-23662800D01*
X9117800Y-23648800D02*
X10732800Y-23648800D01*
D29*
X1566800Y-14082800D02*
X1546800Y-14062800D01*
X2496800Y-14082800D02*
X1566800Y-14082800D01*
%TO.N,Net-(D1-K)*%
X6883300Y-4471455D02*
X7318128Y-4036627D01*
X6883300Y-4495800D02*
X6883300Y-4471455D01*
D30*
%TO.N,GND*%
X14645300Y-24371300D02*
X15367800Y-23648800D01*
X9117800Y-23648800D02*
X9840300Y-24371300D01*
X9840300Y-24371300D02*
X14645300Y-24371300D01*
D29*
%TO.N,/TXEN*%
X2826800Y-11542800D02*
X4546800Y-13262800D01*
X2496800Y-11542800D02*
X2826800Y-11542800D01*
%TD*%
%TA.AperFunction,Conductor*%
%TO.N,/CAMPWR*%
G36*
X17994432Y-4132985D02*
G01*
X17996283Y-4134197D01*
X18000300Y-4136881D01*
X18000311Y-4136887D01*
X18136882Y-4193456D01*
X18136887Y-4193458D01*
X18136891Y-4193458D01*
X18136892Y-4193459D01*
X18281879Y-4222300D01*
X18281882Y-4222300D01*
X20049558Y-4222300D01*
X20116597Y-4241985D01*
X20162352Y-4294789D01*
X20171175Y-4322109D01*
X20198138Y-4457659D01*
X20198141Y-4457671D01*
X20258479Y-4603342D01*
X20258486Y-4603355D01*
X20346087Y-4734458D01*
X20346090Y-4734462D01*
X20457584Y-4845956D01*
X20457588Y-4845959D01*
X20588691Y-4933560D01*
X20588704Y-4933567D01*
X20734375Y-4993905D01*
X20734380Y-4993907D01*
X20819282Y-5010795D01*
X20846991Y-5016307D01*
X20908902Y-5048692D01*
X20943476Y-5109407D01*
X20946800Y-5137924D01*
X20946800Y-5938800D01*
X20927115Y-6005839D01*
X20874311Y-6051594D01*
X20822800Y-6062800D01*
X20357206Y-6062800D01*
X20290167Y-6043115D01*
X20260894Y-6014357D01*
X20259849Y-6015215D01*
X20255984Y-6010505D01*
X20144492Y-5899013D01*
X20144488Y-5899010D01*
X20013385Y-5811409D01*
X20013372Y-5811402D01*
X19867701Y-5751064D01*
X19867689Y-5751061D01*
X19713045Y-5720300D01*
X19713042Y-5720300D01*
X19555358Y-5720300D01*
X19555355Y-5720300D01*
X19400710Y-5751061D01*
X19400698Y-5751064D01*
X19255027Y-5811402D01*
X19255014Y-5811409D01*
X19123911Y-5899010D01*
X19123907Y-5899013D01*
X19012415Y-6010505D01*
X19008551Y-6015215D01*
X19006904Y-6013864D01*
X18960698Y-6052490D01*
X18911194Y-6062800D01*
X18340634Y-6062800D01*
X18273595Y-6043115D01*
X18227840Y-5990311D01*
X18217896Y-5921153D01*
X18237532Y-5869908D01*
X18256194Y-5841979D01*
X18316537Y-5696297D01*
X18347300Y-5541642D01*
X18347300Y-5383958D01*
X18347300Y-5383955D01*
X18347299Y-5383953D01*
X18329234Y-5293134D01*
X18316537Y-5229303D01*
X18266875Y-5109407D01*
X18256197Y-5083627D01*
X18256190Y-5083614D01*
X18168589Y-4952511D01*
X18168586Y-4952507D01*
X18057092Y-4841013D01*
X18057088Y-4841010D01*
X17925985Y-4753409D01*
X17925972Y-4753402D01*
X17780301Y-4693064D01*
X17780289Y-4693061D01*
X17625645Y-4662300D01*
X17625642Y-4662300D01*
X17467958Y-4662300D01*
X17467955Y-4662300D01*
X17313310Y-4693061D01*
X17313298Y-4693064D01*
X17167627Y-4753402D01*
X17167614Y-4753409D01*
X17036511Y-4841010D01*
X17036507Y-4841013D01*
X16925013Y-4952507D01*
X16925010Y-4952511D01*
X16837409Y-5083614D01*
X16837402Y-5083627D01*
X16777062Y-5229302D01*
X16775425Y-5234700D01*
X16737121Y-5293134D01*
X16673306Y-5321584D01*
X16604240Y-5311017D01*
X16551852Y-5264787D01*
X16535152Y-5222887D01*
X16516537Y-5129303D01*
X16468028Y-5012191D01*
X16456197Y-4983627D01*
X16456190Y-4983614D01*
X16368589Y-4852511D01*
X16368586Y-4852507D01*
X16257092Y-4741013D01*
X16257088Y-4741010D01*
X16125985Y-4653409D01*
X16125972Y-4653402D01*
X15980301Y-4593064D01*
X15980289Y-4593061D01*
X15825645Y-4562300D01*
X15825642Y-4562300D01*
X15667958Y-4562300D01*
X15667955Y-4562300D01*
X15513310Y-4593061D01*
X15513298Y-4593064D01*
X15367627Y-4653402D01*
X15367614Y-4653409D01*
X15236511Y-4741010D01*
X15236507Y-4741013D01*
X15125013Y-4852507D01*
X15125010Y-4852511D01*
X15037409Y-4983614D01*
X15037402Y-4983627D01*
X14977064Y-5129298D01*
X14977061Y-5129310D01*
X14946300Y-5283953D01*
X14946300Y-5441646D01*
X14977061Y-5596289D01*
X14977064Y-5596300D01*
X15037402Y-5741972D01*
X15037409Y-5741985D01*
X15122886Y-5869909D01*
X15143764Y-5936586D01*
X15125280Y-6003967D01*
X15073301Y-6050657D01*
X15019784Y-6062800D01*
X14086099Y-6062800D01*
X14019060Y-6043115D01*
X14017207Y-6041901D01*
X13977423Y-6015317D01*
X13977408Y-6015309D01*
X13831737Y-5954971D01*
X13831725Y-5954968D01*
X13677081Y-5924207D01*
X13677078Y-5924207D01*
X13519394Y-5924207D01*
X13519391Y-5924207D01*
X13364746Y-5954968D01*
X13364734Y-5954971D01*
X13229076Y-6011162D01*
X13159606Y-6018631D01*
X13097127Y-5987355D01*
X13093970Y-5984309D01*
X13025977Y-5916316D01*
X13025976Y-5916315D01*
X13025975Y-5916314D01*
X12894873Y-5828714D01*
X12894860Y-5828707D01*
X12749189Y-5768369D01*
X12749177Y-5768366D01*
X12594533Y-5737605D01*
X12594530Y-5737605D01*
X12436846Y-5737605D01*
X12436841Y-5737605D01*
X12294991Y-5765821D01*
X12225400Y-5759594D01*
X12170222Y-5716731D01*
X12146978Y-5650841D01*
X12146800Y-5644204D01*
X12146800Y-4448300D01*
X12166485Y-4381261D01*
X12219289Y-4335506D01*
X12270800Y-4324300D01*
X14749832Y-4324300D01*
X14856849Y-4303012D01*
X14894825Y-4295458D01*
X15031407Y-4238884D01*
X15099392Y-4193458D01*
X15154328Y-4156752D01*
X15168181Y-4142898D01*
X15175844Y-4137283D01*
X15200126Y-4128505D01*
X15222784Y-4116134D01*
X15239253Y-4114363D01*
X15241553Y-4113532D01*
X15243292Y-4113928D01*
X15249142Y-4113300D01*
X17927393Y-4113300D01*
X17994432Y-4132985D01*
G37*
%TD.AperFunction*%
%TD*%
%TA.AperFunction,Conductor*%
%TO.N,/VIDPWR*%
G36*
X19211896Y-16882485D02*
G01*
X19232533Y-16899114D01*
X19294356Y-16960937D01*
X19294357Y-16960938D01*
X19425459Y-17048538D01*
X19425472Y-17048545D01*
X19571143Y-17108883D01*
X19571148Y-17108885D01*
X19699792Y-17134474D01*
X19725798Y-17139647D01*
X19725801Y-17139648D01*
X19725803Y-17139648D01*
X19883489Y-17139648D01*
X19883490Y-17139647D01*
X20038142Y-17108885D01*
X20183824Y-17048542D01*
X20314934Y-16960937D01*
X20376753Y-16899117D01*
X20438074Y-16865634D01*
X20464433Y-16862800D01*
X20935749Y-16862800D01*
X21002788Y-16882485D01*
X21038851Y-16917909D01*
X21121130Y-17041048D01*
X21121133Y-17041052D01*
X21232627Y-17152546D01*
X21232631Y-17152549D01*
X21363734Y-17240150D01*
X21363747Y-17240157D01*
X21509418Y-17300495D01*
X21509423Y-17300497D01*
X21664073Y-17331259D01*
X21664076Y-17331260D01*
X21664078Y-17331260D01*
X21821764Y-17331260D01*
X21821765Y-17331259D01*
X21976417Y-17300497D01*
X22122099Y-17240154D01*
X22253209Y-17152549D01*
X22364709Y-17041049D01*
X22418238Y-16960937D01*
X22446989Y-16917909D01*
X22500601Y-16873104D01*
X22550091Y-16862800D01*
X23713359Y-16862800D01*
X23780398Y-16882485D01*
X23801040Y-16899119D01*
X23916507Y-17014586D01*
X23916511Y-17014589D01*
X24047614Y-17102190D01*
X24047627Y-17102197D01*
X24193298Y-17162535D01*
X24193303Y-17162537D01*
X24347953Y-17193299D01*
X24347956Y-17193300D01*
X24347958Y-17193300D01*
X24505644Y-17193300D01*
X24505645Y-17193299D01*
X24660297Y-17162537D01*
X24728047Y-17134473D01*
X24760675Y-17130966D01*
X24793147Y-17126297D01*
X24795234Y-17127250D01*
X24797517Y-17127005D01*
X24826860Y-17141693D01*
X24856703Y-17155322D01*
X24857943Y-17157252D01*
X24859996Y-17158280D01*
X24876736Y-17186495D01*
X24894477Y-17214100D01*
X24894912Y-17217129D01*
X24895648Y-17218369D01*
X24899500Y-17249035D01*
X24899500Y-17397874D01*
X24899428Y-17402108D01*
X24882161Y-17907553D01*
X24881583Y-17916000D01*
X24857375Y-18151481D01*
X24830938Y-18216156D01*
X24773732Y-18256271D01*
X24734025Y-18262800D01*
X21646807Y-18262800D01*
X21579768Y-18243115D01*
X21534013Y-18190311D01*
X21525190Y-18162991D01*
X21518690Y-18130318D01*
X21518689Y-18130311D01*
X21478991Y-18034470D01*
X21458349Y-17984635D01*
X21458342Y-17984622D01*
X21370741Y-17853519D01*
X21370738Y-17853515D01*
X21259244Y-17742021D01*
X21259240Y-17742018D01*
X21128137Y-17654417D01*
X21128124Y-17654410D01*
X20982453Y-17594072D01*
X20982441Y-17594069D01*
X20827797Y-17563308D01*
X20827794Y-17563308D01*
X20670110Y-17563308D01*
X20670107Y-17563308D01*
X20515462Y-17594069D01*
X20515450Y-17594072D01*
X20369779Y-17654410D01*
X20369766Y-17654417D01*
X20238663Y-17742018D01*
X20238659Y-17742021D01*
X20127165Y-17853515D01*
X20127162Y-17853519D01*
X20039561Y-17984622D01*
X20039554Y-17984635D01*
X19979216Y-18130306D01*
X19979213Y-18130318D01*
X19972714Y-18162991D01*
X19940329Y-18224902D01*
X19879613Y-18259476D01*
X19851097Y-18262800D01*
X16808561Y-18262800D01*
X16808458Y-18262769D01*
X16808355Y-18262800D01*
X16774689Y-18252854D01*
X16741522Y-18243115D01*
X16741417Y-18243024D01*
X16741348Y-18243004D01*
X16741003Y-18242664D01*
X16714713Y-18219847D01*
X16709712Y-18214056D01*
X16668589Y-18152511D01*
X16580415Y-18064337D01*
X16577452Y-18060906D01*
X16564789Y-18033057D01*
X16550134Y-18006217D01*
X16549374Y-17999152D01*
X16548533Y-17997302D01*
X16548902Y-17994762D01*
X16547300Y-17979859D01*
X16547300Y-17197300D01*
X16566985Y-17130261D01*
X16619789Y-17084506D01*
X16671300Y-17073300D01*
X17899686Y-17073300D01*
X17899702Y-17073301D01*
X17907298Y-17073301D01*
X17914488Y-17073301D01*
X17938678Y-17075683D01*
X17971853Y-17082282D01*
X18077510Y-17103300D01*
X18077513Y-17103300D01*
X18235199Y-17103300D01*
X18235200Y-17103299D01*
X18389852Y-17072537D01*
X18535534Y-17012194D01*
X18666644Y-16924589D01*
X18679376Y-16911857D01*
X18692115Y-16899119D01*
X18753438Y-16865634D01*
X18779796Y-16862800D01*
X19144857Y-16862800D01*
X19211896Y-16882485D01*
G37*
%TD.AperFunction*%
%TD*%
%TA.AperFunction,Conductor*%
%TO.N,+12V*%
G36*
X10309339Y-19982485D02*
G01*
X10355094Y-20035289D01*
X10366300Y-20086800D01*
X10366300Y-20296910D01*
X10393397Y-20467997D01*
X10393397Y-20467999D01*
X10393398Y-20468001D01*
X10446927Y-20632745D01*
X10525568Y-20787088D01*
X10627386Y-20927228D01*
X10749872Y-21049714D01*
X10890012Y-21151532D01*
X11044355Y-21230173D01*
X11209099Y-21283702D01*
X11380189Y-21310800D01*
X11380190Y-21310800D01*
X11553410Y-21310800D01*
X11553411Y-21310800D01*
X11724501Y-21283702D01*
X11889245Y-21230173D01*
X12043588Y-21151532D01*
X12183728Y-21049714D01*
X12306214Y-20927228D01*
X12408032Y-20787088D01*
X12486673Y-20632745D01*
X12540202Y-20468001D01*
X12560302Y-20341092D01*
X12590231Y-20277959D01*
X12649542Y-20241027D01*
X12719405Y-20242025D01*
X12777638Y-20280634D01*
X12785879Y-20291603D01*
X12789411Y-20296889D01*
X12789413Y-20296892D01*
X12900907Y-20408386D01*
X12900911Y-20408389D01*
X13032014Y-20495990D01*
X13032027Y-20495997D01*
X13177698Y-20556335D01*
X13177703Y-20556337D01*
X13332353Y-20587099D01*
X13332356Y-20587100D01*
X13332358Y-20587100D01*
X13490044Y-20587100D01*
X13490045Y-20587099D01*
X13644697Y-20556337D01*
X13790379Y-20495994D01*
X13921489Y-20408389D01*
X14032989Y-20296889D01*
X14120594Y-20165779D01*
X14172963Y-20039347D01*
X14185505Y-20023782D01*
X14193811Y-20005597D01*
X14206980Y-19997133D01*
X14216803Y-19984944D01*
X14235772Y-19978630D01*
X14252589Y-19967823D01*
X14280148Y-19963860D01*
X14283097Y-19962879D01*
X14287524Y-19962800D01*
X14505679Y-19962800D01*
X14553131Y-19972239D01*
X14668673Y-20020097D01*
X14687842Y-20028037D01*
X14842492Y-20058799D01*
X14842495Y-20058800D01*
X14842497Y-20058800D01*
X15000183Y-20058800D01*
X15000184Y-20058799D01*
X15154836Y-20028037D01*
X15199252Y-20009639D01*
X15289547Y-19972239D01*
X15336999Y-19962800D01*
X16422800Y-19962800D01*
X16489839Y-19982485D01*
X16535594Y-20035289D01*
X16546800Y-20086800D01*
X16546800Y-22138800D01*
X16527115Y-22205839D01*
X16474311Y-22251594D01*
X16422800Y-22262800D01*
X13755371Y-22262800D01*
X13688332Y-22243115D01*
X13644886Y-22195095D01*
X13616202Y-22138800D01*
X13588032Y-22083512D01*
X13486214Y-21943372D01*
X13363728Y-21820886D01*
X13223588Y-21719068D01*
X13069245Y-21640427D01*
X12904501Y-21586898D01*
X12904499Y-21586897D01*
X12904498Y-21586897D01*
X12773071Y-21566081D01*
X12733411Y-21559800D01*
X12560189Y-21559800D01*
X12520528Y-21566081D01*
X12389102Y-21586897D01*
X12224352Y-21640428D01*
X12070011Y-21719068D01*
X11990056Y-21777159D01*
X11929872Y-21820886D01*
X11929870Y-21820888D01*
X11929869Y-21820888D01*
X11807388Y-21943369D01*
X11807388Y-21943370D01*
X11807386Y-21943372D01*
X11763659Y-22003556D01*
X11705568Y-22083511D01*
X11648714Y-22195095D01*
X11600740Y-22245891D01*
X11538229Y-22262800D01*
X7970800Y-22262800D01*
X7903761Y-22243115D01*
X7858006Y-22190311D01*
X7846800Y-22138800D01*
X7846800Y-20086800D01*
X7866485Y-20019761D01*
X7919289Y-19974006D01*
X7970800Y-19962800D01*
X10242300Y-19962800D01*
X10309339Y-19982485D01*
G37*
%TD.AperFunction*%
%TD*%
%TA.AperFunction,Conductor*%
%TO.N,GND*%
G36*
X23869201Y-10781807D02*
G01*
X23869269Y-10781681D01*
X23869875Y-10782004D01*
X23871510Y-10782485D01*
X23873362Y-10783698D01*
X23874638Y-10784550D01*
X23874644Y-10784554D01*
X23874646Y-10784555D01*
X23874650Y-10784557D01*
X23997130Y-10835289D01*
X24020326Y-10844897D01*
X24174976Y-10875659D01*
X24174979Y-10875660D01*
X24174981Y-10875660D01*
X24332667Y-10875660D01*
X24332668Y-10875659D01*
X24487320Y-10844897D01*
X24633002Y-10784554D01*
X24633672Y-10784106D01*
X24634284Y-10783698D01*
X24635054Y-10783456D01*
X24638377Y-10781681D01*
X24638713Y-10782310D01*
X24652330Y-10778047D01*
X24668240Y-10767823D01*
X24699199Y-10763371D01*
X24700961Y-10762820D01*
X24703175Y-10762800D01*
X24775500Y-10762800D01*
X24842539Y-10782485D01*
X24888294Y-10835289D01*
X24899500Y-10886800D01*
X24899500Y-15138800D01*
X24879815Y-15205839D01*
X24827011Y-15251594D01*
X24775500Y-15262800D01*
X16370800Y-15262800D01*
X16303761Y-15243115D01*
X16258006Y-15190311D01*
X16246800Y-15138800D01*
X16246800Y-14427896D01*
X16266485Y-14360857D01*
X16283119Y-14340215D01*
X16430035Y-14193299D01*
X16634948Y-13988385D01*
X16696269Y-13954902D01*
X16765960Y-13959886D01*
X16810308Y-13988387D01*
X16836507Y-14014586D01*
X16836511Y-14014589D01*
X16967614Y-14102190D01*
X16967627Y-14102197D01*
X17014249Y-14121508D01*
X17113303Y-14162537D01*
X17267953Y-14193299D01*
X17267956Y-14193300D01*
X17267958Y-14193300D01*
X17425644Y-14193300D01*
X17425645Y-14193299D01*
X17580297Y-14162537D01*
X17679351Y-14121507D01*
X17748817Y-14114039D01*
X17774248Y-14121506D01*
X17873306Y-14162537D01*
X18027956Y-14193299D01*
X18027959Y-14193300D01*
X18027961Y-14193300D01*
X18185647Y-14193300D01*
X18185648Y-14193299D01*
X18340300Y-14162537D01*
X18485982Y-14102194D01*
X18617092Y-14014589D01*
X18728592Y-13903089D01*
X18816197Y-13771979D01*
X18876540Y-13626297D01*
X18907303Y-13471642D01*
X18907303Y-13313958D01*
X18907303Y-13313955D01*
X18907302Y-13313953D01*
X18876541Y-13159310D01*
X18876540Y-13159303D01*
X18876538Y-13159298D01*
X18816200Y-13013627D01*
X18816193Y-13013614D01*
X18728592Y-12882511D01*
X18728589Y-12882507D01*
X18617095Y-12771013D01*
X18617091Y-12771010D01*
X18485988Y-12683409D01*
X18485975Y-12683402D01*
X18340304Y-12623064D01*
X18340294Y-12623061D01*
X18226610Y-12600448D01*
X18209853Y-12591682D01*
X18191375Y-12587663D01*
X18166338Y-12568920D01*
X18164699Y-12568063D01*
X18163121Y-12566512D01*
X18066764Y-12470155D01*
X18066762Y-12470152D01*
X17947891Y-12351281D01*
X17947890Y-12351280D01*
X17861078Y-12301160D01*
X17861078Y-12301159D01*
X17861074Y-12301158D01*
X17810959Y-12272223D01*
X17658231Y-12231299D01*
X17500117Y-12231299D01*
X17492521Y-12231299D01*
X17492505Y-12231300D01*
X17028969Y-12231300D01*
X17028953Y-12231299D01*
X17021357Y-12231299D01*
X16863243Y-12231299D01*
X16755887Y-12260065D01*
X16710510Y-12272224D01*
X16710509Y-12272225D01*
X16660396Y-12301159D01*
X16660395Y-12301160D01*
X16616989Y-12326220D01*
X16573585Y-12351279D01*
X16573582Y-12351281D01*
X16458481Y-12466383D01*
X16397158Y-12499868D01*
X16327466Y-12494884D01*
X16271533Y-12453012D01*
X16247116Y-12387548D01*
X16246800Y-12378702D01*
X16246800Y-11355897D01*
X16255444Y-11326456D01*
X16261968Y-11296470D01*
X16265722Y-11291454D01*
X16266485Y-11288858D01*
X16283111Y-11268224D01*
X16418719Y-11132616D01*
X16480040Y-11099134D01*
X16506398Y-11096300D01*
X18479685Y-11096300D01*
X18546724Y-11115985D01*
X18567366Y-11132619D01*
X18642968Y-11208221D01*
X18676453Y-11269544D01*
X18675353Y-11315831D01*
X18677160Y-11316069D01*
X18676099Y-11324126D01*
X18676099Y-11482237D01*
X18717025Y-11634970D01*
X18796080Y-11771897D01*
X18796081Y-11771898D01*
X18907885Y-11883701D01*
X18907887Y-11883702D01*
X18907888Y-11883703D01*
X19044812Y-11962756D01*
X19044813Y-11962756D01*
X19044816Y-11962758D01*
X19197544Y-12003682D01*
X19212351Y-12003681D01*
X19279389Y-12023363D01*
X19315455Y-12058789D01*
X19325008Y-12073086D01*
X19325013Y-12073092D01*
X19436507Y-12184586D01*
X19436511Y-12184589D01*
X19567614Y-12272190D01*
X19567627Y-12272197D01*
X19713298Y-12332535D01*
X19713303Y-12332537D01*
X19867953Y-12363299D01*
X19867956Y-12363300D01*
X19867958Y-12363300D01*
X20025644Y-12363300D01*
X20025645Y-12363299D01*
X20180297Y-12332537D01*
X20325979Y-12272194D01*
X20457089Y-12184589D01*
X20457088Y-12184589D01*
X20457673Y-12184199D01*
X20517924Y-12165332D01*
X20517797Y-12164362D01*
X20523368Y-12163628D01*
X20524350Y-12163321D01*
X20525802Y-12163307D01*
X20525854Y-12163301D01*
X20525857Y-12163301D01*
X20678585Y-12122377D01*
X20728704Y-12093439D01*
X20815516Y-12043320D01*
X20927320Y-11931516D01*
X20927320Y-11931514D01*
X20937528Y-11921307D01*
X20937529Y-11921304D01*
X22059716Y-10799119D01*
X22121039Y-10765634D01*
X22147397Y-10762800D01*
X23804471Y-10762800D01*
X23869201Y-10781807D01*
G37*
%TD.AperFunction*%
%TD*%
%TA.AperFunction,Conductor*%
%TO.N,GND*%
G36*
X1404942Y-13582485D02*
G01*
X1412203Y-13587526D01*
X1504468Y-13656595D01*
X1504471Y-13656597D01*
X1639317Y-13706891D01*
X1639316Y-13706891D01*
X1646244Y-13707635D01*
X1698927Y-13713300D01*
X3294672Y-13713299D01*
X3354283Y-13706891D01*
X3489131Y-13656596D01*
X3581386Y-13587533D01*
X3602132Y-13579795D01*
X3620762Y-13567823D01*
X3642679Y-13564671D01*
X3646850Y-13563116D01*
X3655697Y-13562800D01*
X3721755Y-13562800D01*
X3788794Y-13582485D01*
X3834549Y-13635289D01*
X3836318Y-13639352D01*
X3837405Y-13641977D01*
X3837409Y-13641985D01*
X3925010Y-13773088D01*
X3925013Y-13773092D01*
X4036507Y-13884586D01*
X4036511Y-13884589D01*
X4167614Y-13972190D01*
X4167627Y-13972197D01*
X4270252Y-14014705D01*
X4324656Y-14058545D01*
X4346721Y-14124839D01*
X4346800Y-14129266D01*
X4346800Y-16532731D01*
X4327115Y-16599770D01*
X4297112Y-16631997D01*
X4199252Y-16705255D01*
X4113006Y-16820464D01*
X4113002Y-16820471D01*
X4083776Y-16898833D01*
X4041905Y-16954767D01*
X3976441Y-16979184D01*
X3967594Y-16979500D01*
X3927951Y-16979500D01*
X3773306Y-17010261D01*
X3773294Y-17010264D01*
X3627623Y-17070602D01*
X3627610Y-17070609D01*
X3496507Y-17158210D01*
X3496503Y-17158213D01*
X3385009Y-17269707D01*
X3385006Y-17269711D01*
X3297405Y-17400814D01*
X3297398Y-17400827D01*
X3237060Y-17546498D01*
X3237057Y-17546508D01*
X3223033Y-17617011D01*
X3218323Y-17626014D01*
X3217598Y-17636153D01*
X3202399Y-17656455D01*
X3190647Y-17678922D01*
X3181816Y-17683950D01*
X3175726Y-17692086D01*
X3151967Y-17700947D01*
X3129931Y-17713496D01*
X3119782Y-17712951D01*
X3110262Y-17716503D01*
X3085483Y-17711112D01*
X3060162Y-17709755D01*
X3050101Y-17703415D01*
X3041989Y-17701651D01*
X3013735Y-17680500D01*
X2883619Y-17550384D01*
X2850134Y-17489061D01*
X2847300Y-17462703D01*
X2847300Y-16377299D01*
X2866985Y-16310260D01*
X2919789Y-16264505D01*
X2971300Y-16253299D01*
X3294671Y-16253299D01*
X3294672Y-16253299D01*
X3354283Y-16246891D01*
X3489131Y-16196596D01*
X3604346Y-16110346D01*
X3690596Y-15995131D01*
X3740891Y-15860283D01*
X3747300Y-15800673D01*
X3747299Y-14904928D01*
X3740891Y-14845317D01*
X3718838Y-14786191D01*
X3690597Y-14710471D01*
X3690593Y-14710464D01*
X3604347Y-14595255D01*
X3604344Y-14595252D01*
X3489135Y-14509006D01*
X3489128Y-14509002D01*
X3354282Y-14458708D01*
X3354283Y-14458708D01*
X3294683Y-14452301D01*
X3294681Y-14452300D01*
X3294673Y-14452300D01*
X3294664Y-14452300D01*
X1698929Y-14452300D01*
X1698923Y-14452301D01*
X1639316Y-14458708D01*
X1504471Y-14509002D01*
X1504464Y-14509006D01*
X1389255Y-14595252D01*
X1389252Y-14595255D01*
X1303006Y-14710464D01*
X1303002Y-14710471D01*
X1252708Y-14845317D01*
X1247228Y-14896297D01*
X1246301Y-14904923D01*
X1246300Y-14904935D01*
X1246300Y-15800670D01*
X1246301Y-15800676D01*
X1252708Y-15860283D01*
X1303002Y-15995128D01*
X1303006Y-15995135D01*
X1389252Y-16110344D01*
X1389255Y-16110347D01*
X1504464Y-16196593D01*
X1504469Y-16196596D01*
X1565633Y-16219408D01*
X1621566Y-16261278D01*
X1645984Y-16326742D01*
X1646300Y-16335590D01*
X1646300Y-17676130D01*
X1646299Y-17676148D01*
X1646299Y-17841854D01*
X1646298Y-17841854D01*
X1687223Y-17994585D01*
X1698142Y-18013497D01*
X1766277Y-18131512D01*
X1766281Y-18131517D01*
X1885149Y-18250385D01*
X1885155Y-18250390D01*
X2609981Y-18975216D01*
X2643466Y-19036539D01*
X2646300Y-19062897D01*
X2646300Y-19660670D01*
X2646301Y-19660676D01*
X2652708Y-19720283D01*
X2703002Y-19855128D01*
X2703006Y-19855135D01*
X2789252Y-19970344D01*
X2789255Y-19970347D01*
X2904464Y-20056593D01*
X2904471Y-20056597D01*
X3039317Y-20106891D01*
X3039316Y-20106891D01*
X3046244Y-20107635D01*
X3098927Y-20113300D01*
X4194672Y-20113299D01*
X4254283Y-20106891D01*
X4389131Y-20056596D01*
X4504346Y-19970346D01*
X4590596Y-19855131D01*
X4640891Y-19720283D01*
X4647300Y-19660673D01*
X4647299Y-19187298D01*
X4666983Y-19120260D01*
X4719787Y-19074505D01*
X4771299Y-19063299D01*
X5404671Y-19063299D01*
X5404672Y-19063299D01*
X5464283Y-19056891D01*
X5548468Y-19025491D01*
X5574824Y-19023606D01*
X5600645Y-19017990D01*
X5613689Y-19020827D01*
X5618158Y-19020508D01*
X5635132Y-19025492D01*
X5666132Y-19037054D01*
X5722066Y-19078924D01*
X5746484Y-19144389D01*
X5746800Y-19153236D01*
X5746800Y-19308943D01*
X5727115Y-19375982D01*
X5723118Y-19381828D01*
X5685575Y-19433501D01*
X5685569Y-19433510D01*
X5606928Y-19587852D01*
X5553397Y-19752602D01*
X5526300Y-19923689D01*
X5526300Y-20296910D01*
X5553397Y-20467997D01*
X5606928Y-20632747D01*
X5685570Y-20787092D01*
X5723117Y-20838770D01*
X5746598Y-20904576D01*
X5746800Y-20911656D01*
X5746800Y-21448412D01*
X5727115Y-21515451D01*
X5674311Y-21561206D01*
X5605153Y-21571150D01*
X5603449Y-21570893D01*
X5533411Y-21559800D01*
X5360189Y-21559800D01*
X5320528Y-21566081D01*
X5189102Y-21586897D01*
X5024352Y-21640428D01*
X4870010Y-21719069D01*
X4870008Y-21719070D01*
X4842416Y-21739118D01*
X4776610Y-21762598D01*
X4769530Y-21762800D01*
X1965011Y-21762800D01*
X1897972Y-21743115D01*
X1861324Y-21706808D01*
X1594604Y-21300160D01*
X1590205Y-21292926D01*
X1510703Y-21151532D01*
X1343370Y-20853931D01*
X1339489Y-20846439D01*
X1123183Y-20391614D01*
X1119835Y-20383906D01*
X935061Y-19915355D01*
X932235Y-19907400D01*
X872847Y-19720283D01*
X779875Y-19427354D01*
X777602Y-19419240D01*
X658362Y-18929937D01*
X656640Y-18921648D01*
X636550Y-18805131D01*
X571066Y-18425332D01*
X569920Y-18416990D01*
X547450Y-18198415D01*
X546800Y-18185735D01*
X546800Y-13686800D01*
X566485Y-13619761D01*
X619289Y-13574006D01*
X670800Y-13562800D01*
X1337903Y-13562800D01*
X1404942Y-13582485D01*
G37*
%TD.AperFunction*%
%TD*%
M02*
