%TF.GenerationSoftware,KiCad,Pcbnew,9.0.5*%
%TF.CreationDate,2025-12-03T11:23:26-08:00*%
%TF.ProjectId,camcontrol,63616d63-6f6e-4747-926f-6c2e6b696361,rev?*%
%TF.SameCoordinates,Original*%
%TF.FileFunction,Copper,L1,Top*%
%TF.FilePolarity,Positive*%
%FSLAX46Y46*%
G04 Gerber Fmt 4.6, Leading zero omitted, Abs format (unit mm)*
G04 Created by KiCad (PCBNEW 9.0.5) date 2025-12-03 11:23:26*
%MOMM*%
%LPD*%
G01*
G04 APERTURE LIST*
G04 Aperture macros list*
%AMRoundRect*
0 Rectangle with rounded corners*
0 $1 Rounding radius*
0 $2 $3 $4 $5 $6 $7 $8 $9 X,Y pos of 4 corners*
0 Add a 4 corners polygon primitive as box body*
4,1,4,$2,$3,$4,$5,$6,$7,$8,$9,$2,$3,0*
0 Add four circle primitives for the rounded corners*
1,1,$1+$1,$2,$3*
1,1,$1+$1,$4,$5*
1,1,$1+$1,$6,$7*
1,1,$1+$1,$8,$9*
0 Add four rect primitives between the rounded corners*
20,1,$1+$1,$2,$3,$4,$5,0*
20,1,$1+$1,$4,$5,$6,$7,0*
20,1,$1+$1,$6,$7,$8,$9,0*
20,1,$1+$1,$8,$9,$2,$3,0*%
%AMFreePoly0*
4,1,77,1.105355,0.885355,1.120000,0.850000,1.120000,0.750000,1.770000,0.750000,1.805355,0.735355,1.820000,0.700000,1.820000,0.500000,1.805355,0.464645,1.770000,0.450000,1.120000,0.450000,1.120000,0.350000,1.770000,0.350000,1.805355,0.335355,1.820000,0.300000,1.820000,0.100000,1.805355,0.064645,1.770000,0.050000,1.120000,0.050000,1.120000,-0.050000,1.770000,-0.050000,
1.805355,-0.064645,1.820000,-0.100000,1.820000,-0.300000,1.805355,-0.335355,1.770000,-0.350000,1.120000,-0.350000,1.120000,-0.450000,1.770000,-0.450000,1.805355,-0.464645,1.820000,-0.500000,1.820000,-0.700000,1.805355,-0.735355,1.770000,-0.750000,1.120000,-0.750000,1.120000,-0.850000,1.105355,-0.885355,1.070000,-0.900000,-1.080000,-0.900000,-1.115355,-0.885355,-1.130000,-0.850000,
-1.130000,-0.750000,-1.780000,-0.750000,-1.815355,-0.735355,-1.830000,-0.700000,-1.830000,-0.500000,-1.815355,-0.464645,-1.780000,-0.450000,-1.130000,-0.450000,-1.130000,-0.350000,-1.780000,-0.350000,-1.815355,-0.335355,-1.830000,-0.300000,-1.830000,-0.100000,-1.815355,-0.064645,-1.780000,-0.050000,-1.130000,-0.050000,-1.130000,0.050000,-1.780000,0.050000,-1.815355,0.064645,-1.830000,0.100000,
-1.830000,0.300000,-1.815355,0.335355,-1.780000,0.350000,-1.130000,0.350000,-1.130000,0.450000,-1.780000,0.450000,-1.815355,0.464645,-1.830000,0.500000,-1.830000,0.700000,-1.815355,0.735355,-1.780000,0.750000,-1.130000,0.750000,-1.130000,0.850000,-1.115355,0.885355,-1.080000,0.900000,1.070000,0.900000,1.105355,0.885355,1.105355,0.885355,$1*%
G04 Aperture macros list end*
%TA.AperFunction,SMDPad,CuDef*%
%ADD10RoundRect,0.140000X0.170000X-0.140000X0.170000X0.140000X-0.170000X0.140000X-0.170000X-0.140000X0*%
%TD*%
%TA.AperFunction,SMDPad,CuDef*%
%ADD11RoundRect,0.200000X-0.275000X0.200000X-0.275000X-0.200000X0.275000X-0.200000X0.275000X0.200000X0*%
%TD*%
%TA.AperFunction,SMDPad,CuDef*%
%ADD12RoundRect,0.135000X0.135000X0.185000X-0.135000X0.185000X-0.135000X-0.185000X0.135000X-0.185000X0*%
%TD*%
%TA.AperFunction,SMDPad,CuDef*%
%ADD13R,0.280000X0.880000*%
%TD*%
%TA.AperFunction,SMDPad,CuDef*%
%ADD14FreePoly0,0.000000*%
%TD*%
%TA.AperFunction,SMDPad,CuDef*%
%ADD15R,0.400000X1.600000*%
%TD*%
%TA.AperFunction,ComponentPad*%
%ADD16O,1.200000X1.400000*%
%TD*%
%TA.AperFunction,ComponentPad*%
%ADD17O,1.200000X1.900000*%
%TD*%
%TA.AperFunction,SMDPad,CuDef*%
%ADD18RoundRect,0.140000X-0.170000X0.140000X-0.170000X-0.140000X0.170000X-0.140000X0.170000X0.140000X0*%
%TD*%
%TA.AperFunction,SMDPad,CuDef*%
%ADD19RoundRect,0.135000X-0.185000X0.135000X-0.185000X-0.135000X0.185000X-0.135000X0.185000X0.135000X0*%
%TD*%
%TA.AperFunction,SMDPad,CuDef*%
%ADD20RoundRect,0.140000X-0.140000X-0.170000X0.140000X-0.170000X0.140000X0.170000X-0.140000X0.170000X0*%
%TD*%
%TA.AperFunction,SMDPad,CuDef*%
%ADD21RoundRect,0.135000X0.185000X-0.135000X0.185000X0.135000X-0.185000X0.135000X-0.185000X-0.135000X0*%
%TD*%
%TA.AperFunction,SMDPad,CuDef*%
%ADD22RoundRect,0.140000X0.140000X0.170000X-0.140000X0.170000X-0.140000X-0.170000X0.140000X-0.170000X0*%
%TD*%
%TA.AperFunction,ComponentPad*%
%ADD23C,3.800000*%
%TD*%
%TA.AperFunction,SMDPad,CuDef*%
%ADD24RoundRect,0.150000X-0.150000X0.587500X-0.150000X-0.587500X0.150000X-0.587500X0.150000X0.587500X0*%
%TD*%
%TA.AperFunction,SMDPad,CuDef*%
%ADD25RoundRect,0.225000X0.225000X0.250000X-0.225000X0.250000X-0.225000X-0.250000X0.225000X-0.250000X0*%
%TD*%
%TA.AperFunction,SMDPad,CuDef*%
%ADD26RoundRect,0.135000X-0.135000X-0.185000X0.135000X-0.185000X0.135000X0.185000X-0.135000X0.185000X0*%
%TD*%
%TA.AperFunction,SMDPad,CuDef*%
%ADD27RoundRect,0.225000X-0.250000X0.225000X-0.250000X-0.225000X0.250000X-0.225000X0.250000X0.225000X0*%
%TD*%
%TA.AperFunction,SMDPad,CuDef*%
%ADD28RoundRect,0.250000X0.850000X-0.375000X0.850000X0.375000X-0.850000X0.375000X-0.850000X-0.375000X0*%
%TD*%
%TA.AperFunction,SMDPad,CuDef*%
%ADD29RoundRect,0.150000X0.587500X0.150000X-0.587500X0.150000X-0.587500X-0.150000X0.587500X-0.150000X0*%
%TD*%
%TA.AperFunction,SMDPad,CuDef*%
%ADD30O,1.730000X0.340000*%
%TD*%
%TA.AperFunction,SMDPad,CuDef*%
%ADD31R,2.460000X2.310000*%
%TD*%
%TA.AperFunction,SMDPad,CuDef*%
%ADD32RoundRect,0.162500X-0.650000X-0.162500X0.650000X-0.162500X0.650000X0.162500X-0.650000X0.162500X0*%
%TD*%
%TA.AperFunction,SMDPad,CuDef*%
%ADD33R,0.800000X1.000000*%
%TD*%
%TA.AperFunction,SMDPad,CuDef*%
%ADD34RoundRect,0.150000X-0.512500X-0.150000X0.512500X-0.150000X0.512500X0.150000X-0.512500X0.150000X0*%
%TD*%
%TA.AperFunction,SMDPad,CuDef*%
%ADD35RoundRect,0.125000X-0.125000X0.125000X-0.125000X-0.125000X0.125000X-0.125000X0.125000X0.125000X0*%
%TD*%
%TA.AperFunction,SMDPad,CuDef*%
%ADD36RoundRect,0.050000X0.050000X-0.387500X0.050000X0.387500X-0.050000X0.387500X-0.050000X-0.387500X0*%
%TD*%
%TA.AperFunction,SMDPad,CuDef*%
%ADD37RoundRect,0.050000X0.387500X-0.050000X0.387500X0.050000X-0.387500X0.050000X-0.387500X-0.050000X0*%
%TD*%
%TA.AperFunction,HeatsinkPad*%
%ADD38R,3.200000X3.200000*%
%TD*%
%TA.AperFunction,ComponentPad*%
%ADD39RoundRect,0.250000X0.725000X-0.600000X0.725000X0.600000X-0.725000X0.600000X-0.725000X-0.600000X0*%
%TD*%
%TA.AperFunction,ComponentPad*%
%ADD40O,1.950000X1.700000*%
%TD*%
%TA.AperFunction,ViaPad*%
%ADD41C,0.600000*%
%TD*%
%TA.AperFunction,ViaPad*%
%ADD42C,1.000000*%
%TD*%
%TA.AperFunction,Conductor*%
%ADD43C,0.200000*%
%TD*%
%TA.AperFunction,Conductor*%
%ADD44C,0.500000*%
%TD*%
G04 APERTURE END LIST*
D10*
%TO.P,C7,1*%
%TO.N,Net-(U3-VAUX)*%
X7315200Y-14704000D03*
%TO.P,C7,2*%
%TO.N,GND*%
X7315200Y-13744000D03*
%TD*%
%TO.P,C6,1*%
%TO.N,+3V3*%
X2692400Y-9725600D03*
%TO.P,C6,2*%
%TO.N,GND*%
X2692400Y-8765600D03*
%TD*%
D11*
%TO.P,R10,1*%
%TO.N,Net-(U3-FB)*%
X7694800Y-15792000D03*
%TO.P,R10,2*%
%TO.N,GND*%
X7694800Y-17442000D03*
%TD*%
D10*
%TO.P,C20,1*%
%TO.N,+3V3*%
X19050000Y-10436800D03*
%TO.P,C20,2*%
%TO.N,GND*%
X19050000Y-9476800D03*
%TD*%
D12*
%TO.P,R24,1*%
%TO.N,/TX BATT SENSE *%
X1576800Y-8890000D03*
%TO.P,R24,2*%
%TO.N,GND*%
X556800Y-8890000D03*
%TD*%
D13*
%TO.P,U3,1,L1*%
%TO.N,Net-(U3-L1)*%
X3916800Y-17732800D03*
%TO.P,U3,2,VIN*%
%TO.N,/BATT POSTSW*%
X4416800Y-17732800D03*
%TO.P,U3,3,EN*%
X4916800Y-17732800D03*
%TO.P,U3,4,PS/SYNC*%
%TO.N,GND*%
X5416800Y-17732800D03*
%TO.P,U3,5,PG*%
%TO.N,Net-(U3-PG)*%
X5916800Y-17732800D03*
%TO.P,U3,6,VAUX*%
%TO.N,Net-(U3-VAUX)*%
X5916800Y-14762800D03*
%TO.P,U3,7,GND*%
%TO.N,GND*%
X5416800Y-14762800D03*
%TO.P,U3,8,FB*%
%TO.N,Net-(U3-FB)*%
X4916800Y-14762800D03*
%TO.P,U3,9,VOUT*%
%TO.N,+5V*%
X4416800Y-14732800D03*
%TO.P,U3,10,L2*%
%TO.N,Net-(U3-L2)*%
X3916800Y-14732800D03*
D14*
%TO.P,U3,11,PAD*%
%TO.N,GND*%
X4916800Y-16232800D03*
%TD*%
D15*
%TO.P,J2,1,VBUS*%
%TO.N,VBUS*%
X9114000Y-23250700D03*
%TO.P,J2,2,D-*%
%TO.N,/USB_D-*%
X9764000Y-23250700D03*
%TO.P,J2,3,D+*%
%TO.N,/USB_D+*%
X10414000Y-23250700D03*
%TO.P,J2,4,ID*%
%TO.N,unconnected-(J2-ID-Pad4)*%
X11064000Y-23250700D03*
%TO.P,J2,5,GND*%
%TO.N,GND*%
X11714000Y-23240700D03*
D16*
%TO.P,J2,6,Shield*%
%TO.N,unconnected-(J2-Shield-Pad6)*%
X12834000Y-23000700D03*
%TO.P,J2,7*%
%TO.N,N/C*%
X7994000Y-23000700D03*
D17*
%TO.P,J2,8*%
X6814000Y-25900700D03*
%TO.P,J2,9*%
X14014000Y-25900700D03*
%TD*%
D12*
%TO.P,R23,1*%
%TO.N,+12V*%
X2592800Y-7874000D03*
%TO.P,R23,2*%
%TO.N,/TX BATT SENSE *%
X1572800Y-7874000D03*
%TD*%
D18*
%TO.P,C17,1*%
%TO.N,+3V3*%
X18999200Y-20144800D03*
%TO.P,C17,2*%
%TO.N,GND*%
X18999200Y-21104800D03*
%TD*%
D19*
%TO.P,R11,1*%
%TO.N,GND*%
X11023600Y-2690400D03*
%TO.P,R11,2*%
%TO.N,Net-(U7-SNS)*%
X11023600Y-3710400D03*
%TD*%
D12*
%TO.P,R13,1*%
%TO.N,+5V*%
X7774400Y-18592800D03*
%TO.P,R13,2*%
%TO.N,Net-(U3-PG)*%
X6754400Y-18592800D03*
%TD*%
%TO.P,R5,1*%
%TO.N,/RP USB_D-*%
X12292200Y-13368900D03*
%TO.P,R5,2*%
%TO.N,/USB_D-*%
X11272200Y-13368900D03*
%TD*%
D20*
%TO.P,C22,1*%
%TO.N,+3V3*%
X22634000Y-15138400D03*
%TO.P,C22,2*%
%TO.N,GND*%
X23594000Y-15138400D03*
%TD*%
D21*
%TO.P,R17,1*%
%TO.N,/VID EN*%
X11023600Y-7522400D03*
%TO.P,R17,2*%
%TO.N,Net-(U7-EN)*%
X11023600Y-6502400D03*
%TD*%
D22*
%TO.P,C15,1*%
%TO.N,+3V3*%
X13332400Y-11430000D03*
%TO.P,C15,2*%
%TO.N,GND*%
X12372400Y-11430000D03*
%TD*%
D10*
%TO.P,C4,1*%
%TO.N,+5V*%
X21234400Y-1851600D03*
%TO.P,C4,2*%
%TO.N,GND*%
X21234400Y-891600D03*
%TD*%
D12*
%TO.P,R6,1*%
%TO.N,+3V3*%
X23624000Y-14173200D03*
%TO.P,R6,2*%
%TO.N,/RUN*%
X22604000Y-14173200D03*
%TD*%
D10*
%TO.P,C1,1*%
%TO.N,/SX RST*%
X12395200Y-10335200D03*
%TO.P,C1,2*%
%TO.N,GND*%
X12395200Y-9375200D03*
%TD*%
D22*
%TO.P,C19,1*%
%TO.N,+3V3*%
X15161200Y-10922000D03*
%TO.P,C19,2*%
%TO.N,GND*%
X14201200Y-10922000D03*
%TD*%
D23*
%TO.P,H2,1,1*%
%TO.N,GND*%
X4000000Y-24000000D03*
%TD*%
D12*
%TO.P,R14,1*%
%TO.N,/CAMSNS*%
X14480000Y-6908800D03*
%TO.P,R14,2*%
%TO.N,Net-(U2-SNS)*%
X13460000Y-6908800D03*
%TD*%
D22*
%TO.P,C13,1*%
%TO.N,+1V1*%
X13202000Y-12378300D03*
%TO.P,C13,2*%
%TO.N,GND*%
X12242000Y-12378300D03*
%TD*%
D19*
%TO.P,R18,1*%
%TO.N,/VID DIAG EN*%
X11023600Y-4572000D03*
%TO.P,R18,2*%
%TO.N,Net-(U7-DIAG_EN)*%
X11023600Y-5592000D03*
%TD*%
D24*
%TO.P,Q2,1,G*%
%TO.N,GND*%
X7416800Y-20095300D03*
%TO.P,Q2,2,S*%
%TO.N,/BATT POSTSW*%
X5516800Y-20095300D03*
%TO.P,Q2,3,D*%
%TO.N,+BATT*%
X6466800Y-21970300D03*
%TD*%
D25*
%TO.P,C24,1*%
%TO.N,+5V*%
X4405800Y-11689400D03*
%TO.P,C24,2*%
%TO.N,GND*%
X2855800Y-11689400D03*
%TD*%
D22*
%TO.P,C18,1*%
%TO.N,+3V3*%
X12874400Y-15273900D03*
%TO.P,C18,2*%
%TO.N,GND*%
X11914400Y-15273900D03*
%TD*%
D26*
%TO.P,R9,1*%
%TO.N,/LEDINDICATION*%
X21029200Y-21132800D03*
%TO.P,R9,2*%
%TO.N,Net-(D3-K)*%
X22049200Y-21132800D03*
%TD*%
D21*
%TO.P,R1,1*%
%TO.N,Net-(D1-A)*%
X863600Y-13819600D03*
%TO.P,R1,2*%
%TO.N,+3V3*%
X863600Y-12799600D03*
%TD*%
D26*
%TO.P,R4,1*%
%TO.N,/USB_D+*%
X11272200Y-14359500D03*
%TO.P,R4,2*%
%TO.N,/RP USB_D+*%
X12292200Y-14359500D03*
%TD*%
D18*
%TO.P,C21,1*%
%TO.N,+3V3*%
X15240000Y-20195600D03*
%TO.P,C21,2*%
%TO.N,GND*%
X15240000Y-21155600D03*
%TD*%
D20*
%TO.P,C14,1*%
%TO.N,+3V3*%
X22938800Y-19608800D03*
%TO.P,C14,2*%
%TO.N,GND*%
X23898800Y-19608800D03*
%TD*%
%TO.P,C5,1*%
%TO.N,Net-(D4-K)*%
X6790400Y-8092400D03*
%TO.P,C5,2*%
%TO.N,GND*%
X7750400Y-8092400D03*
%TD*%
D27*
%TO.P,C23,1*%
%TO.N,+5V*%
X5916800Y-11651000D03*
%TO.P,C23,2*%
%TO.N,GND*%
X5916800Y-13201000D03*
%TD*%
D28*
%TO.P,L1,1*%
%TO.N,Net-(U3-L1)*%
X1473200Y-17381800D03*
%TO.P,L1,2*%
%TO.N,Net-(U3-L2)*%
X1473200Y-15231800D03*
%TD*%
D18*
%TO.P,C8,1*%
%TO.N,Net-(U3-FB)*%
X8940800Y-15572800D03*
%TO.P,C8,2*%
%TO.N,GND*%
X8940800Y-16532800D03*
%TD*%
D12*
%TO.P,R7,1*%
%TO.N,/BATT POSTSW*%
X2186800Y-21842800D03*
%TO.P,R7,2*%
%TO.N,/CAM BATT SENSE *%
X1166800Y-21842800D03*
%TD*%
D29*
%TO.P,Q3,1,G*%
%TO.N,VBUS*%
X9116300Y-11262400D03*
%TO.P,Q3,2,S*%
%TO.N,Net-(D4-K)*%
X9116300Y-9362400D03*
%TO.P,Q3,3,D*%
%TO.N,+5V*%
X7241300Y-10312400D03*
%TD*%
D30*
%TO.P,U2,1,GND*%
%TO.N,GND*%
X13995600Y-844000D03*
%TO.P,U2,2,EN*%
%TO.N,Net-(U2-EN)*%
X13995600Y-1494000D03*
%TO.P,U2,3,DIAG_EN*%
%TO.N,Net-(U2-DIAG_EN)*%
X13995600Y-2144000D03*
%TO.P,U2,4,~{FAULT}*%
%TO.N,unconnected-(U2-~{FAULT}-Pad4)*%
X13995600Y-2794000D03*
%TO.P,U2,5,LATCH*%
%TO.N,unconnected-(U2-LATCH-Pad5)*%
X13995600Y-3444000D03*
%TO.P,U2,6,SNS*%
%TO.N,Net-(U2-SNS)*%
X13995600Y-4094000D03*
%TO.P,U2,7,ILIM*%
%TO.N,Net-(U2-ILIM)*%
X13995600Y-4744000D03*
%TO.P,U2,8,NC*%
%TO.N,unconnected-(U2-NC-Pad8)*%
X19735600Y-4744000D03*
%TO.P,U2,9,VOUT*%
%TO.N,/CAMPWR*%
X19735600Y-4094000D03*
%TO.P,U2,10,VOUT*%
X19735600Y-3444000D03*
%TO.P,U2,11,NC*%
%TO.N,unconnected-(U2-NC-Pad11)*%
X19735600Y-2794000D03*
%TO.P,U2,12,VBB*%
%TO.N,+5V*%
X19735600Y-2144000D03*
%TO.P,U2,13,VBB*%
X19735600Y-1494000D03*
%TO.P,U2,14,NC*%
%TO.N,unconnected-(U2-NC-Pad14)*%
X19735600Y-844000D03*
D31*
%TO.P,U2,15,GND*%
%TO.N,GND*%
X16865600Y-2794000D03*
%TD*%
D19*
%TO.P,R2,1*%
%TO.N,+5V*%
X8636000Y-13663200D03*
%TO.P,R2,2*%
%TO.N,Net-(U3-FB)*%
X8636000Y-14683200D03*
%TD*%
D25*
%TO.P,C9,1*%
%TO.N,/BATT POSTSW*%
X4001800Y-20612800D03*
%TO.P,C9,2*%
%TO.N,GND*%
X2451800Y-20612800D03*
%TD*%
D21*
%TO.P,R19,1*%
%TO.N,/VIDSNS*%
X12039600Y-4626800D03*
%TO.P,R19,2*%
%TO.N,Net-(U7-SNS)*%
X12039600Y-3606800D03*
%TD*%
D22*
%TO.P,C27,1*%
%TO.N,/CAMPWR*%
X21257200Y-5638800D03*
%TO.P,C27,2*%
%TO.N,GND*%
X20297200Y-5638800D03*
%TD*%
D26*
%TO.P,R15,1*%
%TO.N,/CAM EN*%
X11428000Y-711200D03*
%TO.P,R15,2*%
%TO.N,Net-(U2-EN)*%
X12448000Y-711200D03*
%TD*%
D21*
%TO.P,R22,1*%
%TO.N,Net-(D2-A)*%
X711200Y-10922000D03*
%TO.P,R22,2*%
%TO.N,+5V*%
X711200Y-9902000D03*
%TD*%
D25*
%TO.P,C11,1*%
%TO.N,/BATT POSTSW*%
X4001800Y-19122800D03*
%TO.P,C11,2*%
%TO.N,GND*%
X2451800Y-19122800D03*
%TD*%
D32*
%TO.P,U5,1,~{CS}*%
%TO.N,/QSPI_SS*%
X16021300Y-22529800D03*
%TO.P,U5,2,DO/IO_{1}*%
%TO.N,/QSPI_SD1*%
X16021300Y-23799800D03*
%TO.P,U5,3,~{WP}/IO_{2}*%
%TO.N,/QSPI_SD2*%
X16021300Y-25069800D03*
%TO.P,U5,4,GND*%
%TO.N,GND*%
X16021300Y-26339800D03*
%TO.P,U5,5,DI/IO_{0}*%
%TO.N,/QSPI_SDO*%
X23196300Y-26339800D03*
%TO.P,U5,6,CLK*%
%TO.N,/QSPI_SCLK*%
X23196300Y-25069800D03*
%TO.P,U5,7,~{HOLD}/~{RESET}/IO_{3}*%
%TO.N,/QSPI_SD3*%
X23196300Y-23799800D03*
%TO.P,U5,8,VCC*%
%TO.N,+3V3*%
X23196300Y-22529800D03*
%TD*%
D18*
%TO.P,C29,1*%
%TO.N,+12V*%
X1012600Y-5988400D03*
%TO.P,C29,2*%
%TO.N,GND*%
X1012600Y-6948400D03*
%TD*%
D12*
%TO.P,R25,1*%
%TO.N,GND*%
X14581600Y-5892800D03*
%TO.P,R25,2*%
%TO.N,Net-(U2-SNS)*%
X13561600Y-5892800D03*
%TD*%
D33*
%TO.P,X1,1,OE/NC*%
%TO.N,+3V3*%
X24208600Y-18255200D03*
%TO.P,X1,2,GND*%
%TO.N,GND*%
X24208600Y-16455200D03*
%TO.P,X1,3,OUT*%
%TO.N,/XIN*%
X23008600Y-16455200D03*
%TO.P,X1,4,VDD*%
%TO.N,+3V3*%
X23008600Y-18255200D03*
%TD*%
D23*
%TO.P,H1,1,1*%
%TO.N,GND*%
X24000000Y-4000000D03*
%TD*%
D18*
%TO.P,C28,1*%
%TO.N,+12V*%
X2003200Y-5988400D03*
%TO.P,C28,2*%
%TO.N,GND*%
X2003200Y-6948400D03*
%TD*%
%TO.P,C12,1*%
%TO.N,+3V3*%
X24790400Y-22684800D03*
%TO.P,C12,2*%
%TO.N,GND*%
X24790400Y-23644800D03*
%TD*%
%TO.P,C30,1*%
%TO.N,/VIDPWR*%
X1927000Y-4083400D03*
%TO.P,C30,2*%
%TO.N,GND*%
X1927000Y-5043400D03*
%TD*%
D34*
%TO.P,U4,1,GND*%
%TO.N,GND*%
X4102900Y-8242400D03*
%TO.P,U4,2,Vout*%
%TO.N,+3V3*%
X4102900Y-10142400D03*
%TO.P,U4,3,Vin*%
%TO.N,Net-(D4-K)*%
X6377900Y-9192400D03*
%TD*%
D26*
%TO.P,R16,1*%
%TO.N,/CAM DIAG EN*%
X11428000Y-1676400D03*
%TO.P,R16,2*%
%TO.N,Net-(U2-DIAG_EN)*%
X12448000Y-1676400D03*
%TD*%
D10*
%TO.P,C26,1*%
%TO.N,+5V*%
X22199600Y-1851600D03*
%TO.P,C26,2*%
%TO.N,GND*%
X22199600Y-891600D03*
%TD*%
D19*
%TO.P,R12,1*%
%TO.N,Net-(U2-ILIM)*%
X12547600Y-5687600D03*
%TO.P,R12,2*%
%TO.N,GND*%
X12547600Y-6707600D03*
%TD*%
%TO.P,R3,1*%
%TO.N,/QSPI_SS*%
X14478000Y-22654800D03*
%TO.P,R3,2*%
%TO.N,/BOOTSEL*%
X14478000Y-23674800D03*
%TD*%
D26*
%TO.P,R21,1*%
%TO.N,Net-(U7-ILIM)*%
X8938800Y-2032000D03*
%TO.P,R21,2*%
%TO.N,GND*%
X9958800Y-2032000D03*
%TD*%
D30*
%TO.P,U7,1,GND*%
%TO.N,GND*%
X9423200Y-6820900D03*
%TO.P,U7,2,EN*%
%TO.N,Net-(U7-EN)*%
X9423200Y-6170900D03*
%TO.P,U7,3,DIAG_EN*%
%TO.N,Net-(U7-DIAG_EN)*%
X9423200Y-5520900D03*
%TO.P,U7,4,~{FAULT}*%
%TO.N,unconnected-(U7-~{FAULT}-Pad4)*%
X9423200Y-4870900D03*
%TO.P,U7,5,LATCH*%
%TO.N,unconnected-(U7-LATCH-Pad5)*%
X9423200Y-4220900D03*
%TO.P,U7,6,SNS*%
%TO.N,Net-(U7-SNS)*%
X9423200Y-3570900D03*
%TO.P,U7,7,ILIM*%
%TO.N,Net-(U7-ILIM)*%
X9423200Y-2920900D03*
%TO.P,U7,8,NC*%
%TO.N,unconnected-(U7-NC-Pad8)*%
X3683200Y-2920900D03*
%TO.P,U7,9,VOUT*%
%TO.N,/VIDPWR*%
X3683200Y-3570900D03*
%TO.P,U7,10,VOUT*%
X3683200Y-4220900D03*
%TO.P,U7,11,NC*%
%TO.N,unconnected-(U7-NC-Pad11)*%
X3683200Y-4870900D03*
%TO.P,U7,12,VBB*%
%TO.N,+12V*%
X3683200Y-5520900D03*
%TO.P,U7,13,VBB*%
X3683200Y-6170900D03*
%TO.P,U7,14,NC*%
%TO.N,unconnected-(U7-NC-Pad14)*%
X3683200Y-6820900D03*
D31*
%TO.P,U7,15,GND*%
%TO.N,GND*%
X6553200Y-4870900D03*
%TD*%
D21*
%TO.P,R8,1*%
%TO.N,/CAM BATT SENSE *%
X1186800Y-20832800D03*
%TO.P,R8,2*%
%TO.N,GND*%
X1186800Y-19812800D03*
%TD*%
D35*
%TO.P,D4,1,K*%
%TO.N,Net-(D4-K)*%
X11023600Y-9212400D03*
%TO.P,D4,2,A*%
%TO.N,VBUS*%
X11023600Y-11412400D03*
%TD*%
D25*
%TO.P,C25,1*%
%TO.N,+5V*%
X4405800Y-13188000D03*
%TO.P,C25,2*%
%TO.N,GND*%
X2855800Y-13188000D03*
%TD*%
D36*
%TO.P,U6,1,IOVDD*%
%TO.N,+3V3*%
X15434000Y-19033100D03*
%TO.P,U6,2,GPIO0*%
%TO.N,/SX RST*%
X15834000Y-19033100D03*
%TO.P,U6,3,GPIO1*%
%TO.N,/TXEN*%
X16234000Y-19033100D03*
%TO.P,U6,4,GPIO2*%
%TO.N,/RXEN*%
X16634000Y-19033100D03*
%TO.P,U6,5,GPIO3*%
%TO.N,/BUSY*%
X17034000Y-19033100D03*
%TO.P,U6,6,GPIO4*%
%TO.N,unconnected-(U6-GPIO4-Pad6)*%
X17434000Y-19033100D03*
%TO.P,U6,7,GPIO5*%
%TO.N,unconnected-(U6-GPIO5-Pad7)*%
X17834000Y-19033100D03*
%TO.P,U6,8,GPIO6*%
%TO.N,unconnected-(U6-GPIO6-Pad8)*%
X18234000Y-19033100D03*
%TO.P,U6,9,GPIO7*%
%TO.N,unconnected-(U6-GPIO7-Pad9)*%
X18634000Y-19033100D03*
%TO.P,U6,10,IOVDD*%
%TO.N,+3V3*%
X19034000Y-19033100D03*
%TO.P,U6,11,GPIO8*%
%TO.N,unconnected-(U6-GPIO8-Pad11)*%
X19434000Y-19033100D03*
%TO.P,U6,12,GPIO9*%
%TO.N,unconnected-(U6-GPIO9-Pad12)*%
X19834000Y-19033100D03*
%TO.P,U6,13,GPIO10*%
%TO.N,unconnected-(U6-GPIO10-Pad13)*%
X20234000Y-19033100D03*
%TO.P,U6,14,GPIO11*%
%TO.N,/LEDINDICATION*%
X20634000Y-19033100D03*
D37*
%TO.P,U6,15,GPIO12*%
%TO.N,unconnected-(U6-GPIO12-Pad15)*%
X21471500Y-18195600D03*
%TO.P,U6,16,GPIO13*%
%TO.N,unconnected-(U6-GPIO13-Pad16)*%
X21471500Y-17795600D03*
%TO.P,U6,17,GPIO14*%
%TO.N,unconnected-(U6-GPIO14-Pad17)*%
X21471500Y-17395600D03*
%TO.P,U6,18,GPIO15*%
%TO.N,unconnected-(U6-GPIO15-Pad18)*%
X21471500Y-16995600D03*
%TO.P,U6,19,TESTEN*%
%TO.N,GND*%
X21471500Y-16595600D03*
%TO.P,U6,20,XIN*%
%TO.N,/XIN*%
X21471500Y-16195600D03*
%TO.P,U6,21,XOUT*%
%TO.N,unconnected-(U6-XOUT-Pad21)*%
X21471500Y-15795600D03*
%TO.P,U6,22,IOVDD*%
%TO.N,+3V3*%
X21471500Y-15395600D03*
%TO.P,U6,23,DVDD*%
%TO.N,+1V1*%
X21471500Y-14995600D03*
%TO.P,U6,24,SWCLK*%
%TO.N,/SWCLK*%
X21471500Y-14595600D03*
%TO.P,U6,25,SWD*%
%TO.N,/SWD*%
X21471500Y-14195600D03*
%TO.P,U6,26,RUN*%
%TO.N,/RUN*%
X21471500Y-13795600D03*
%TO.P,U6,27,GPIO16*%
%TO.N,/CAM RX*%
X21471500Y-13395600D03*
%TO.P,U6,28,GPIO17*%
%TO.N,/CAM TX*%
X21471500Y-12995600D03*
D36*
%TO.P,U6,29,GPIO18*%
%TO.N,/CAM DIAG EN*%
X20634000Y-12158100D03*
%TO.P,U6,30,GPIO19*%
%TO.N,/CAM EN*%
X20234000Y-12158100D03*
%TO.P,U6,31,GPIO20*%
%TO.N,/MISO*%
X19834000Y-12158100D03*
%TO.P,U6,32,GPIO21*%
%TO.N,/SX CS*%
X19434000Y-12158100D03*
%TO.P,U6,33,IOVDD*%
%TO.N,+3V3*%
X19034000Y-12158100D03*
%TO.P,U6,34,GPIO22*%
%TO.N,/SCLK*%
X18634000Y-12158100D03*
%TO.P,U6,35,GPIO23*%
%TO.N,/MOSI*%
X18234000Y-12158100D03*
%TO.P,U6,36,GPIO24*%
%TO.N,/VID DIAG EN*%
X17834000Y-12158100D03*
%TO.P,U6,37,GPIO25*%
%TO.N,/VID EN*%
X17434000Y-12158100D03*
%TO.P,U6,38,GPIO26_ADC0*%
%TO.N,/TX BATT SENSE *%
X17034000Y-12158100D03*
%TO.P,U6,39,GPIO27_ADC1*%
%TO.N,/VIDSNS*%
X16634000Y-12158100D03*
%TO.P,U6,40,GPIO28_ADC2*%
%TO.N,/CAMSNS*%
X16234000Y-12158100D03*
%TO.P,U6,41,GPIO29_ADC3*%
%TO.N,/CAM BATT SENSE *%
X15834000Y-12158100D03*
%TO.P,U6,42,IOVDD*%
%TO.N,+3V3*%
X15434000Y-12158100D03*
D37*
%TO.P,U6,43,ADC_AVDD*%
X14596500Y-12995600D03*
%TO.P,U6,44,VREG_IN*%
X14596500Y-13395600D03*
%TO.P,U6,45,VREG_VOUT*%
%TO.N,+1V1*%
X14596500Y-13795600D03*
%TO.P,U6,46,USB_DM*%
%TO.N,/RP USB_D-*%
X14596500Y-14195600D03*
%TO.P,U6,47,USB_DP*%
%TO.N,/RP USB_D+*%
X14596500Y-14595600D03*
%TO.P,U6,48,USB_VDD*%
%TO.N,+3V3*%
X14596500Y-14995600D03*
%TO.P,U6,49,IOVDD*%
X14596500Y-15395600D03*
%TO.P,U6,50,DVDD*%
%TO.N,+1V1*%
X14596500Y-15795600D03*
%TO.P,U6,51,QSPI_SD3*%
%TO.N,/QSPI_SD3*%
X14596500Y-16195600D03*
%TO.P,U6,52,QSPI_SCLK*%
%TO.N,/QSPI_SCLK*%
X14596500Y-16595600D03*
%TO.P,U6,53,QSPI_SD0*%
%TO.N,/QSPI_SDO*%
X14596500Y-16995600D03*
%TO.P,U6,54,QSPI_SD2*%
%TO.N,/QSPI_SD2*%
X14596500Y-17395600D03*
%TO.P,U6,55,QSPI_SD1*%
%TO.N,/QSPI_SD1*%
X14596500Y-17795600D03*
%TO.P,U6,56,QSPI_SS*%
%TO.N,/QSPI_SS*%
X14596500Y-18195600D03*
D38*
%TO.P,U6,57,GND*%
%TO.N,GND*%
X18034000Y-15595600D03*
%TD*%
D22*
%TO.P,C10,1*%
%TO.N,+1V1*%
X12871800Y-16239100D03*
%TO.P,C10,2*%
%TO.N,GND*%
X11911800Y-16239100D03*
%TD*%
D39*
%TO.P,J8,1,Pin_1*%
%TO.N,/CAM RX*%
X26208000Y-18634400D03*
D40*
%TO.P,J8,2,Pin_2*%
%TO.N,/CAM TX*%
X26208000Y-16134400D03*
%TO.P,J8,3,Pin_3*%
%TO.N,GND*%
X26208000Y-13634400D03*
%TO.P,J8,4,Pin_4*%
%TO.N,/CAMPWR*%
X26208000Y-11134400D03*
%TD*%
D41*
%TO.N,GND*%
X21615426Y-997650D03*
X914400Y-18506800D03*
D42*
X18976722Y-17845603D03*
D41*
X5791200Y-7061200D03*
X14222840Y-11512537D03*
X19507200Y-21183600D03*
X4470400Y-16515300D03*
X17473954Y-24532823D03*
X2415637Y-11843939D03*
D42*
X17597568Y-3524474D03*
D41*
X10398785Y-2312482D03*
X6045200Y-12801600D03*
X8003281Y-7195321D03*
X17547964Y-17297323D03*
X23876000Y-15595600D03*
D42*
X5305465Y-4636879D03*
D41*
X5804000Y-9992400D03*
X1429731Y-5055254D03*
X19304000Y-16865600D03*
X11308731Y-25101318D03*
X14790688Y-21806026D03*
X24790400Y-24180800D03*
D42*
X5627800Y-5537200D03*
D41*
X7286495Y-13874000D03*
X5384800Y-15798800D03*
D42*
X2082800Y-19812800D03*
D41*
X5384800Y-16510000D03*
D42*
X16391825Y-2245968D03*
D41*
X4022374Y-8291680D03*
X18750319Y-9485420D03*
X11914400Y-15748000D03*
X6959600Y-20066000D03*
X12677271Y-6817583D03*
X19862800Y-6055600D03*
X16529448Y-25910046D03*
X24333200Y-19710400D03*
D42*
X11680002Y-20380649D03*
X16317399Y-3356022D03*
D41*
X1473200Y-6948400D03*
D42*
X17168642Y-2414879D03*
D41*
X12324955Y-12330232D03*
X4470400Y-15798800D03*
X12508331Y-9543709D03*
X6962800Y-16710000D03*
D42*
X18877458Y-14774238D03*
D41*
%TO.N,+3V3*%
X14278004Y-12361265D03*
X15072402Y-11673207D03*
X24384000Y-22631400D03*
X20228002Y-20116800D03*
X21793200Y-22707600D03*
X14380002Y-18845600D03*
X18914403Y-10298699D03*
X13565200Y-15258103D03*
X2755892Y-10302511D03*
X22376800Y-15395600D03*
X829726Y-11791000D03*
X23588000Y-14289127D03*
X22938800Y-18999200D03*
%TO.N,/SX RST*%
X12519141Y-10592260D03*
X15544800Y-17373600D03*
X11452970Y-12345202D03*
D42*
%TO.N,+5V*%
X5280568Y-2967111D03*
X5840440Y-1341452D03*
X6719450Y-10834250D03*
X20745435Y-1982964D03*
D41*
%TO.N,+1V1*%
X20271341Y-15624238D03*
X15686800Y-15709101D03*
%TO.N,/CAM BATT SENSE *%
X1016000Y-21386800D03*
X5393184Y-21598384D03*
D42*
%TO.N,+12V*%
X3288400Y-5763203D03*
%TO.N,/VIDPWR*%
X3211289Y-3999600D03*
X9927912Y-12545202D03*
D41*
%TO.N,Net-(D1-A)*%
X1201342Y-13958466D03*
%TO.N,Net-(D3-K)*%
X22656800Y-21234400D03*
D42*
%TO.N,+BATT*%
X6293068Y-22671712D03*
X16249828Y-21163600D03*
D41*
%TO.N,/SWCLK*%
X20278002Y-14721468D03*
%TO.N,/SWD*%
X20531979Y-13910296D03*
%TO.N,/BOOTSEL*%
X14742367Y-23420415D03*
%TO.N,Net-(D2-A)*%
X1906351Y-13483633D03*
%TO.N,/CAMSNS*%
X16415633Y-10253259D03*
X19181533Y-7470743D03*
%TO.N,/CAM EN*%
X13876995Y-7813185D03*
X7717800Y-1676400D03*
%TO.N,/CAM DIAG EN*%
X15710952Y-6055205D03*
X7448577Y-2469105D03*
%TO.N,/VIDSNS*%
X12496878Y-4318160D03*
X16834000Y-10935146D03*
%TO.N,/SCLK*%
X20227999Y-13170296D03*
%TO.N,/BUSY*%
X6867970Y-1693510D03*
X17191160Y-18076527D03*
X20314046Y-6746209D03*
%TO.N,/MISO*%
X14478039Y-8414227D03*
%TO.N,/SX CS*%
X15764762Y-8155205D03*
%TO.N,/MOSI*%
X15219920Y-8760799D03*
%TO.N,/QSPI_SCLK*%
X22148800Y-25146000D03*
X11851200Y-17258994D03*
%TO.N,/QSPI_SD2*%
X12157094Y-21971022D03*
X13208000Y-24231600D03*
%TO.N,/QSPI_SDO*%
X11496267Y-21365047D03*
X19964400Y-26263600D03*
%TO.N,/QSPI_SD3*%
X15584000Y-16562862D03*
X22305705Y-24161919D03*
%TO.N,/TX BATT SENSE *%
X17780998Y-13296043D03*
X1752600Y-9677400D03*
%TO.N,Net-(D4-K)*%
X7404000Y-9485202D03*
X8908394Y-9975434D03*
%TO.N,/TXEN*%
X17278004Y-20875086D03*
X17400023Y-25832823D03*
%TO.N,/RXEN*%
X11961014Y-26495709D03*
%TD*%
D43*
%TO.N,GND*%
X12676621Y-6818233D02*
X12677271Y-6817583D01*
X1012600Y-6948400D02*
X863600Y-7097400D01*
X20190399Y-6055600D02*
X19862800Y-6055600D01*
X863600Y-7097400D02*
X863600Y-8627400D01*
X8377702Y-6820900D02*
X8003281Y-7195321D01*
X14989857Y-844000D02*
X16391825Y-2245968D01*
X10972800Y-2641600D02*
X10620700Y-2641600D01*
X14974060Y-5892800D02*
X16317399Y-4549461D01*
X5916800Y-13201000D02*
X5916800Y-12930000D01*
X10398785Y-2419685D02*
X10398785Y-2312482D01*
X23898800Y-19608800D02*
X24231600Y-19608800D01*
X21640800Y-891600D02*
X21640800Y-972276D01*
X12547600Y-6707600D02*
X12658233Y-6818233D01*
X10441150Y-2462050D02*
X9933600Y-1954500D01*
X14454400Y-10905100D02*
X14454400Y-11421580D01*
X4071654Y-8242400D02*
X4022374Y-8291680D01*
D44*
X1441585Y-5043400D02*
X1429731Y-5055254D01*
D43*
X24208600Y-16455200D02*
X24208600Y-15928200D01*
X12363221Y-9398599D02*
X12508331Y-9543709D01*
X14363443Y-11512537D02*
X14222840Y-11512537D01*
X8003281Y-6245981D02*
X8003281Y-7195321D01*
X21939585Y-891600D02*
X22178962Y-961887D01*
X15240000Y-21155600D02*
X14790688Y-21604912D01*
D44*
X2451800Y-19122800D02*
X2451800Y-19761200D01*
D43*
X12242000Y-11887200D02*
X12242000Y-12378300D01*
X16529448Y-25933252D02*
X16529448Y-25910046D01*
D44*
X2400200Y-19812800D02*
X2451800Y-19761200D01*
D43*
X11856800Y-23220300D02*
X11856800Y-24553249D01*
X2003200Y-6948400D02*
X1473200Y-6948400D01*
X863600Y-8627400D02*
X601000Y-8890000D01*
D44*
X1186800Y-19812800D02*
X2082800Y-19812800D01*
D43*
X18995800Y-21166700D02*
X19490300Y-21166700D01*
X11914400Y-15273900D02*
X11914400Y-15646400D01*
X7315200Y-13845295D02*
X7286495Y-13874000D01*
X20297200Y-5638800D02*
X20297200Y-5948799D01*
X21640800Y-891600D02*
X21939585Y-891600D01*
X5416800Y-15766800D02*
X5384800Y-15798800D01*
X7750400Y-7448202D02*
X8003281Y-7195321D01*
X24790400Y-23644800D02*
X24790400Y-24180800D01*
X2855800Y-12446000D02*
X2855800Y-12284102D01*
D44*
X1927000Y-5043400D02*
X1441585Y-5043400D01*
D43*
X7750400Y-8092400D02*
X7750400Y-7448202D01*
X3123420Y-8291680D02*
X4022374Y-8291680D01*
X16317399Y-4549461D02*
X16317399Y-3356022D01*
X16021300Y-26441400D02*
X16529448Y-25933252D01*
X5416800Y-14762800D02*
X5416800Y-15766800D01*
X2855800Y-12284102D02*
X2415637Y-11843939D01*
X2855800Y-12446000D02*
X2855800Y-13188000D01*
X7416800Y-20095300D02*
X6988900Y-20095300D01*
X10441150Y-2462050D02*
X10398785Y-2419685D01*
D44*
X7694800Y-17442000D02*
X6962800Y-16710000D01*
D43*
X11914400Y-15646400D02*
X11914400Y-15748000D01*
X14790688Y-21604912D02*
X14790688Y-21806026D01*
X11914400Y-16236500D02*
X11911800Y-16239100D01*
X21471500Y-16595600D02*
X19034000Y-16595600D01*
X6988900Y-20095300D02*
X6959600Y-20066000D01*
X6553200Y-4870900D02*
X6628200Y-4870900D01*
X13995600Y-844000D02*
X14989857Y-844000D01*
X1473200Y-6948400D02*
X1012600Y-6948400D01*
D44*
X6485600Y-16232800D02*
X4916800Y-16232800D01*
D43*
X14480000Y-5892800D02*
X14974060Y-5892800D01*
X4102900Y-8242400D02*
X4071654Y-8242400D01*
X10620700Y-2641600D02*
X10441150Y-2462050D01*
X8940800Y-16532800D02*
X8604000Y-16532800D01*
D44*
X2082800Y-19812800D02*
X2400200Y-19812800D01*
X2451800Y-19761200D02*
X2451800Y-20612800D01*
D43*
X14454400Y-11421580D02*
X14363443Y-11512537D01*
X21640800Y-972276D02*
X21615426Y-997650D01*
X24208600Y-15928200D02*
X23876000Y-15595600D01*
X8604000Y-16532800D02*
X7694800Y-17442000D01*
X12658233Y-6818233D02*
X12676621Y-6818233D01*
D44*
X6962800Y-16710000D02*
X6485600Y-16232800D01*
D43*
X12242000Y-11438500D02*
X12242000Y-11887200D01*
X24231600Y-19608800D02*
X24333200Y-19710400D01*
X2855800Y-11689400D02*
X2855800Y-12446000D01*
X7315200Y-13744000D02*
X7315200Y-13845295D01*
X19050000Y-9476800D02*
X19041380Y-9485420D01*
X9423200Y-6820900D02*
X8377702Y-6820900D01*
X6628200Y-4870900D02*
X8003281Y-6245981D01*
X12324955Y-11970155D02*
X12324955Y-12330232D01*
X11914400Y-15646400D02*
X11914400Y-16236500D01*
X3059700Y-8355400D02*
X3123420Y-8291680D01*
X5916800Y-12930000D02*
X6045200Y-12801600D01*
X11856800Y-24553249D02*
X11308731Y-25101318D01*
X5416800Y-17732800D02*
X5416800Y-16542000D01*
X19041380Y-9485420D02*
X18750319Y-9485420D01*
X5416800Y-16542000D02*
X5384800Y-16510000D01*
X12242000Y-11887200D02*
X12324955Y-11970155D01*
X20297200Y-5948799D02*
X20190399Y-6055600D01*
X19490300Y-21166700D02*
X19507200Y-21183600D01*
X21234400Y-891600D02*
X21640800Y-891600D01*
X3059700Y-8355400D02*
X2664700Y-8750400D01*
%TO.N,+3V3*%
X15362800Y-10905100D02*
X15362800Y-12088900D01*
X14596500Y-13395600D02*
X14005200Y-13395600D01*
X19034000Y-20168500D02*
X18995800Y-20206700D01*
X24079200Y-22631400D02*
X24737000Y-22631400D01*
X21869400Y-22631400D02*
X21793200Y-22707600D01*
X13309600Y-15395600D02*
X13709600Y-14995600D01*
X13602697Y-15295600D02*
X13565200Y-15258103D01*
X2664700Y-9710400D02*
X2908730Y-9954430D01*
X19034000Y-19710400D02*
X19034000Y-20168500D01*
X19050000Y-10843200D02*
X18914403Y-10707603D01*
X15334000Y-19762800D02*
X15434000Y-19862800D01*
X14596500Y-12995600D02*
X14596500Y-12833000D01*
X2908730Y-10149673D02*
X2755892Y-10302511D01*
X14596500Y-15395600D02*
X14496500Y-15295600D01*
X19440400Y-20116800D02*
X20228002Y-20116800D01*
X15109365Y-11480800D02*
X15072402Y-11517763D01*
X2916003Y-10142400D02*
X2755892Y-10302511D01*
X19034000Y-12158100D02*
X19034000Y-10859200D01*
X13817600Y-13208000D02*
X13817600Y-12141200D01*
X23196300Y-22631400D02*
X21869400Y-22631400D01*
X19034000Y-10859200D02*
X19050000Y-10843200D01*
X23638800Y-14238327D02*
X23588000Y-14289127D01*
X13988150Y-12224650D02*
X13861150Y-12097650D01*
X14005200Y-13395600D02*
X13817600Y-13208000D01*
X19034000Y-19710400D02*
X19440400Y-20116800D01*
X13716000Y-15295600D02*
X13602697Y-15295600D01*
X23624000Y-14173200D02*
X23638800Y-14188000D01*
X22376800Y-15395600D02*
X22634000Y-15138400D01*
X19050000Y-10843200D02*
X19050000Y-10436800D01*
X22938800Y-19608800D02*
X22938800Y-18999200D01*
X19034000Y-19033100D02*
X19034000Y-19710400D01*
X863600Y-11824874D02*
X829726Y-11791000D01*
X2908730Y-9954430D02*
X2908730Y-10149673D01*
X13861150Y-12097650D02*
X13202000Y-11438500D01*
X15397202Y-19862800D02*
X14380002Y-18845600D01*
X21471500Y-15395600D02*
X22376800Y-15395600D01*
X13988150Y-12224650D02*
X14124765Y-12361265D01*
X23008600Y-18255200D02*
X24208600Y-18255200D01*
X13716000Y-15295600D02*
X13308000Y-15295600D01*
X14124765Y-12361265D02*
X14278004Y-12361265D01*
X13709600Y-14995600D02*
X14596500Y-14995600D01*
X863600Y-12799600D02*
X863600Y-11824874D01*
X18914403Y-10707603D02*
X18914403Y-10298699D01*
X15434000Y-20045900D02*
X15284300Y-20195600D01*
X19056800Y-10836400D02*
X19050000Y-10843200D01*
X13817600Y-12141200D02*
X13861150Y-12097650D01*
X15434000Y-19033100D02*
X15334000Y-19133100D01*
X12996100Y-15395600D02*
X12874400Y-15273900D01*
X13208000Y-15395600D02*
X13309600Y-15395600D01*
X23196300Y-22631400D02*
X24079200Y-22631400D01*
X14596500Y-12833000D02*
X13988150Y-12224650D01*
X14496500Y-15295600D02*
X13716000Y-15295600D01*
X24737000Y-22631400D02*
X24790400Y-22684800D01*
X15362799Y-11480800D02*
X15109365Y-11480800D01*
X15284300Y-20195600D02*
X15240000Y-20195600D01*
X15362800Y-12088900D02*
X15432000Y-12158100D01*
X15434000Y-19862800D02*
X15397202Y-19862800D01*
X4102900Y-10142400D02*
X2916003Y-10142400D01*
X13308000Y-15295600D02*
X13208000Y-15395600D01*
X22938800Y-18999200D02*
X22938800Y-18325000D01*
X15434000Y-19862800D02*
X15434000Y-20045900D01*
X23638800Y-14188000D02*
X23638800Y-14238327D01*
X13208000Y-15395600D02*
X12996100Y-15395600D01*
X15072402Y-11517763D02*
X15072402Y-11673207D01*
X22938800Y-18325000D02*
X23008600Y-18255200D01*
X15334000Y-19133100D02*
X15334000Y-19762800D01*
%TO.N,/SX RST*%
X15834000Y-17662800D02*
X15544800Y-17373600D01*
X11734800Y-10995600D02*
X11734800Y-11328400D01*
X15834000Y-19033100D02*
X15834000Y-17662800D01*
X11734800Y-11328400D02*
X11661000Y-11402200D01*
X12395200Y-10335200D02*
X11734800Y-10995600D01*
X11661000Y-12137172D02*
X11452970Y-12345202D01*
X11661000Y-11402200D02*
X11661000Y-12137172D01*
%TO.N,+5V*%
X1031199Y-9902000D02*
X2042599Y-10913400D01*
X4416800Y-14732800D02*
X4416800Y-13199000D01*
D44*
X20093200Y-1851600D02*
X22199600Y-1851600D01*
D43*
X4416800Y-13199000D02*
X4405800Y-13188000D01*
X7774400Y-18592800D02*
X7818350Y-18592800D01*
X3629800Y-10913400D02*
X4405800Y-11689400D01*
D44*
X4444200Y-11651000D02*
X4405800Y-11689400D01*
D43*
X8636000Y-13663200D02*
X8636000Y-13393201D01*
X9550800Y-14578000D02*
X8636000Y-13663200D01*
D44*
X5916800Y-11651000D02*
X5916800Y-11636900D01*
D43*
X7818350Y-18592800D02*
X9550800Y-16860350D01*
X2042599Y-10913400D02*
X3629800Y-10913400D01*
D44*
X5280568Y-2967111D02*
X5280568Y-1901324D01*
X5916800Y-11636900D02*
X6719450Y-10834250D01*
D43*
X8636000Y-13393201D02*
X6893799Y-11651000D01*
D44*
X6719450Y-10834250D02*
X7241300Y-10312400D01*
X6719450Y-10834250D02*
X6795650Y-10758050D01*
X5280568Y-1901324D02*
X5840440Y-1341452D01*
X19735600Y-1494000D02*
X20093200Y-1851600D01*
D43*
X6893799Y-11651000D02*
X5916800Y-11651000D01*
D44*
X5916800Y-11651000D02*
X4444200Y-11651000D01*
X4405800Y-11689400D02*
X4405800Y-13188000D01*
D43*
X9550800Y-16860350D02*
X9550800Y-14578000D01*
X711200Y-9902000D02*
X1031199Y-9902000D01*
%TO.N,Net-(U3-VAUX)*%
X7235000Y-14762800D02*
X7313800Y-14684000D01*
X5916800Y-14762800D02*
X7235000Y-14762800D01*
%TO.N,Net-(U3-FB)*%
X6958650Y-13163000D02*
X7671750Y-13163000D01*
X4916800Y-14080800D02*
X5045600Y-13952000D01*
X7975600Y-14022800D02*
X8636000Y-14683200D01*
X8940800Y-14988000D02*
X8636000Y-14683200D01*
X6704200Y-13638710D02*
X6704200Y-13417450D01*
X7975600Y-13466850D02*
X7975600Y-14022800D01*
X6704200Y-13417450D02*
X6958650Y-13163000D01*
X5045600Y-13952000D02*
X6390910Y-13952000D01*
X4916800Y-14762800D02*
X4916800Y-14080800D01*
X6390910Y-13952000D02*
X6704200Y-13638710D01*
X8940800Y-15572800D02*
X8940800Y-14988000D01*
X7694800Y-15624400D02*
X8636000Y-14683200D01*
X7694800Y-15792000D02*
X7694800Y-15624400D01*
X7671750Y-13163000D02*
X7975600Y-13466850D01*
D44*
%TO.N,/BATT POSTSW*%
X2659042Y-21842800D02*
X4507800Y-19994042D01*
X2186800Y-21842800D02*
X2659042Y-21842800D01*
X4877900Y-19456400D02*
X4507800Y-19456400D01*
X5516800Y-20095300D02*
X4877900Y-19456400D01*
X4507800Y-18643600D02*
X4507800Y-17732800D01*
X4507800Y-18141800D02*
X4825800Y-17823800D01*
X4507800Y-19456400D02*
X4507800Y-18643600D01*
X4507800Y-18643600D02*
X4507800Y-18141800D01*
X4507800Y-19994042D02*
X4507800Y-19456400D01*
D43*
%TO.N,+1V1*%
X14596500Y-13795600D02*
X13592400Y-13795600D01*
X13592400Y-13795600D02*
X13202000Y-13405200D01*
X14033639Y-15795600D02*
X13883639Y-15945600D01*
X13202000Y-13405200D02*
X13202000Y-12378300D01*
X20547241Y-15371468D02*
X20442532Y-15371468D01*
X14596500Y-13795600D02*
X15421200Y-13795600D01*
X15600301Y-15795600D02*
X15686800Y-15709101D01*
X15421200Y-13795600D02*
X15646400Y-14020800D01*
X14596500Y-15795600D02*
X15600301Y-15795600D01*
X13883639Y-15945600D02*
X13165300Y-15945600D01*
X15686800Y-15709101D02*
X15646400Y-15668701D01*
X14596500Y-15795600D02*
X14033639Y-15795600D01*
X20923109Y-14995600D02*
X20547241Y-15371468D01*
X13165300Y-15945600D02*
X12871800Y-16239100D01*
X20271341Y-15542659D02*
X20271341Y-15624238D01*
X21471500Y-14995600D02*
X20923109Y-14995600D01*
X15646400Y-15668701D02*
X15646400Y-14020800D01*
X20442532Y-15371468D02*
X20271341Y-15542659D01*
%TO.N,/CAM BATT SENSE *%
X9499600Y-19391968D02*
X7757768Y-21133800D01*
X8279800Y-10719432D02*
X8077800Y-10921432D01*
X1186800Y-21822800D02*
X1166800Y-21842800D01*
X14222586Y-10261600D02*
X12622386Y-8661400D01*
X15834000Y-12158100D02*
X15834000Y-11566800D01*
X8077800Y-12141800D02*
X9951800Y-14015800D01*
X6112768Y-20878800D02*
X5393184Y-21598384D01*
X8279800Y-9971432D02*
X8279800Y-10719432D01*
X9951800Y-14015800D02*
X9951800Y-17025036D01*
X15763800Y-10587050D02*
X15438350Y-10261600D01*
X8437832Y-8661400D02*
X8019768Y-9079464D01*
X8019768Y-9711400D02*
X8279800Y-9971432D01*
X1186800Y-20832800D02*
X1186800Y-21822800D01*
X15438350Y-10261600D02*
X14222586Y-10261600D01*
X6820832Y-20878800D02*
X6112768Y-20878800D01*
X9951800Y-17025036D02*
X9499600Y-17477236D01*
X15763800Y-11496600D02*
X15763800Y-10587050D01*
X7757768Y-21133800D02*
X7075832Y-21133800D01*
X9499600Y-17477236D02*
X9499600Y-19391968D01*
X15834000Y-11566800D02*
X15763800Y-11496600D01*
X12622386Y-8661400D02*
X8437832Y-8661400D01*
X8077800Y-10921432D02*
X8077800Y-12141800D01*
X8019768Y-9079464D02*
X8019768Y-9711400D01*
X7075832Y-21133800D02*
X6820832Y-20878800D01*
D44*
%TO.N,/CAMPWR*%
X21264400Y-4094000D02*
X21285200Y-4114800D01*
X19735600Y-3444000D02*
X20614400Y-3444000D01*
X21285200Y-4114800D02*
X21285200Y-6211600D01*
X19735600Y-4094000D02*
X21264400Y-4094000D01*
X21285200Y-6211600D02*
X26208000Y-11134400D01*
X20614400Y-3444000D02*
X21285200Y-4114800D01*
%TO.N,+12V*%
X3118218Y-5933385D02*
X3288400Y-5763203D01*
D43*
X4849200Y-7015995D02*
X4849200Y-6271900D01*
D44*
X3683200Y-5520900D02*
X3440897Y-5763203D01*
X1051461Y-5988400D02*
X1106476Y-5933385D01*
D43*
X3174900Y-7291900D02*
X4573295Y-7291900D01*
D44*
X1106476Y-5933385D02*
X3118218Y-5933385D01*
X3440897Y-5763203D02*
X3288400Y-5763203D01*
D43*
X4849200Y-6271900D02*
X4748200Y-6170900D01*
X2592800Y-7874000D02*
X3174900Y-7291900D01*
D44*
X1048376Y-5998905D02*
X1051461Y-5988400D01*
D43*
X4573295Y-7291900D02*
X4849200Y-7015995D01*
X4748200Y-6170900D02*
X3683200Y-6170900D01*
D44*
%TO.N,/VIDPWR*%
X3683200Y-4220900D02*
X2590800Y-4220900D01*
X2978906Y-3832794D02*
X3044483Y-3832794D01*
X2590800Y-4220900D02*
X2978906Y-3832794D01*
X3044483Y-3832794D02*
X3211289Y-3999600D01*
X2064500Y-4220900D02*
X1927000Y-4083400D01*
X2590800Y-4220900D02*
X2064500Y-4220900D01*
X2439500Y-3570900D02*
X1927000Y-4083400D01*
X3683200Y-3570900D02*
X2439500Y-3570900D01*
D43*
%TO.N,Net-(D1-A)*%
X1062476Y-13819600D02*
X1201342Y-13958466D01*
X863600Y-13819600D02*
X1062476Y-13819600D01*
%TO.N,Net-(D3-K)*%
X22555200Y-21132800D02*
X22656800Y-21234400D01*
X22049200Y-21132800D02*
X22555200Y-21132800D01*
%TO.N,+BATT*%
X6466800Y-21970300D02*
X6166801Y-22270299D01*
X6166801Y-22545445D02*
X6293068Y-22671712D01*
X6166801Y-22270299D02*
X6166801Y-22545445D01*
%TO.N,/SWCLK*%
X20403870Y-14595600D02*
X20278002Y-14721468D01*
X21471500Y-14595600D02*
X20403870Y-14595600D01*
%TO.N,/SWD*%
X20817283Y-14195600D02*
X20531979Y-13910296D01*
X21471500Y-14195600D02*
X20817283Y-14195600D01*
%TO.N,/BOOTSEL*%
X14478000Y-23674800D02*
X14487982Y-23674800D01*
X14487982Y-23674800D02*
X14742367Y-23420415D01*
%TO.N,Net-(U3-L1)*%
X3913200Y-17729200D02*
X3916800Y-17732800D01*
X1820600Y-17729200D02*
X3913200Y-17729200D01*
X1473200Y-17381800D02*
X1820600Y-17729200D01*
%TO.N,Net-(U3-L2)*%
X1473200Y-15231800D02*
X2098200Y-14606800D01*
X3576800Y-14092800D02*
X3916800Y-14432800D01*
X3916800Y-14432800D02*
X3916800Y-14732800D01*
X2404790Y-14606800D02*
X2918790Y-14092800D01*
X2098200Y-14606800D02*
X2404790Y-14606800D01*
X2918790Y-14092800D02*
X3576800Y-14092800D01*
%TO.N,Net-(D2-A)*%
X830943Y-10922000D02*
X711200Y-10922000D01*
X1906351Y-13483633D02*
X1808834Y-13386116D01*
X1808834Y-13386116D02*
X1808834Y-11899891D01*
X1808834Y-11899891D02*
X830943Y-10922000D01*
%TO.N,/QSPI_SS*%
X14478000Y-22654800D02*
X14478000Y-22290800D01*
X14478000Y-22654800D02*
X15997900Y-22654800D01*
X13730002Y-21542802D02*
X13730002Y-18581189D01*
X14478000Y-22290800D02*
X13730002Y-21542802D01*
X15997900Y-22654800D02*
X16021300Y-22631400D01*
X14115591Y-18195600D02*
X14596500Y-18195600D01*
X13730002Y-18581189D02*
X14115591Y-18195600D01*
%TO.N,/RP USB_D+*%
X12528300Y-14595600D02*
X12292200Y-14359500D01*
X14596500Y-14595600D02*
X12528300Y-14595600D01*
%TO.N,/USB_D+*%
X11272200Y-17401692D02*
X11272200Y-14359500D01*
X10699600Y-19889023D02*
X10699600Y-17974292D01*
X10699600Y-17974292D02*
X11272200Y-17401692D01*
X10414000Y-23250700D02*
X10414000Y-20174624D01*
X10414000Y-20174624D02*
X10699600Y-19889023D01*
%TO.N,/RP USB_D-*%
X14596500Y-14195600D02*
X13118900Y-14195600D01*
X13118900Y-14195600D02*
X12292200Y-13368900D01*
%TO.N,/USB_D-*%
X10711800Y-14709194D02*
X10711800Y-13659301D01*
X10751800Y-14749193D02*
X10711800Y-14709194D01*
X10711800Y-13659301D02*
X11002201Y-13368900D01*
X10751800Y-17356407D02*
X10751800Y-14749193D01*
X9906800Y-20116138D02*
X10299600Y-19723338D01*
X11002201Y-13368900D02*
X11272200Y-13368900D01*
X9906800Y-23230300D02*
X9906800Y-20116138D01*
X10299600Y-19723338D02*
X10299600Y-17808607D01*
X10299600Y-17808607D02*
X10751800Y-17356407D01*
%TO.N,/RUN*%
X22395914Y-14173200D02*
X22604000Y-14173200D01*
X21471500Y-13795600D02*
X22018314Y-13795600D01*
X22018314Y-13795600D02*
X22395914Y-14173200D01*
%TO.N,/LEDINDICATION*%
X21029200Y-21132800D02*
X21029200Y-19428300D01*
X21029200Y-19428300D02*
X20634000Y-19033100D01*
%TO.N,Net-(U2-SNS)*%
X15161600Y-4392000D02*
X14863600Y-4094000D01*
X14885695Y-5215000D02*
X15161600Y-4939095D01*
X15161600Y-4939095D02*
X15161600Y-4392000D01*
X13460000Y-6908800D02*
X13460000Y-5892800D01*
X13460000Y-5892800D02*
X14137800Y-5215000D01*
X14137800Y-5215000D02*
X14885695Y-5215000D01*
X14863600Y-4094000D02*
X13995600Y-4094000D01*
%TO.N,Net-(U2-ILIM)*%
X13995600Y-4744000D02*
X13491200Y-4744000D01*
X13491200Y-4744000D02*
X12547600Y-5687600D01*
%TO.N,Net-(U3-PG)*%
X6754400Y-18570400D02*
X5916800Y-17732800D01*
X6754400Y-18592800D02*
X6754400Y-18570400D01*
%TO.N,/CAMSNS*%
X14683595Y-6705205D02*
X18415995Y-6705205D01*
X16234000Y-11260439D02*
X16164800Y-11191239D01*
X14480000Y-6908800D02*
X14683595Y-6705205D01*
X18415995Y-6705205D02*
X19181533Y-7470743D01*
X16164800Y-10504092D02*
X16415633Y-10253259D01*
X16234000Y-12158100D02*
X16234000Y-11260439D01*
X16164800Y-11191239D02*
X16164800Y-10504092D01*
%TO.N,Net-(U2-EN)*%
X12448000Y-711200D02*
X13230800Y-1494000D01*
X13230800Y-1494000D02*
X13995600Y-1494000D01*
%TO.N,/CAM EN*%
X20234000Y-12158100D02*
X20234000Y-11489222D01*
X8683000Y-711200D02*
X7717800Y-1676400D01*
X20574000Y-11149222D02*
X20574000Y-8929050D01*
X20234000Y-11489222D02*
X20574000Y-11149222D01*
X18839502Y-8084420D02*
X17860287Y-7105205D01*
X17860287Y-7105205D02*
X15236058Y-7105205D01*
X20574000Y-8929050D02*
X19729370Y-8084420D01*
X19729370Y-8084420D02*
X18839502Y-8084420D01*
X11428000Y-711200D02*
X8683000Y-711200D01*
X15236058Y-7105205D02*
X14528078Y-7813185D01*
X14528078Y-7813185D02*
X13876995Y-7813185D01*
%TO.N,Net-(U2-DIAG_EN)*%
X12448000Y-1676400D02*
X12915600Y-2144000D01*
X12915600Y-2144000D02*
X13995600Y-2144000D01*
%TO.N,/CAM DIAG EN*%
X8623776Y-1406684D02*
X8367800Y-1662660D01*
X20634000Y-12158100D02*
X21082000Y-11710100D01*
X11158284Y-1406684D02*
X8623776Y-1406684D01*
X18685234Y-6055205D02*
X15710952Y-6055205D01*
X21082000Y-8451971D02*
X18685234Y-6055205D01*
X11428000Y-1676400D02*
X11158284Y-1406684D01*
X8367800Y-1662660D02*
X8367800Y-2101839D01*
X21082000Y-11710100D02*
X21082000Y-8451971D01*
X8367800Y-2101839D02*
X8000534Y-2469105D01*
X8000534Y-2469105D02*
X7448577Y-2469105D01*
%TO.N,/VID EN*%
X16043957Y-9605204D02*
X15838361Y-9810800D01*
X15838361Y-9810800D02*
X14526281Y-9810800D01*
X17434000Y-10195239D02*
X16843965Y-9605204D01*
X11814274Y-7522400D02*
X11023600Y-7522400D01*
X17434000Y-12158100D02*
X17434000Y-10195239D01*
X14526281Y-9810800D02*
X14475481Y-9861600D01*
X14440485Y-9861600D02*
X12662486Y-8083600D01*
X14475481Y-9861600D02*
X14440485Y-9861600D01*
X16843965Y-9605204D02*
X16043957Y-9605204D01*
X12662486Y-8083600D02*
X12375473Y-8083600D01*
X12375473Y-8083600D02*
X11814274Y-7522400D01*
%TO.N,Net-(U7-EN)*%
X9423200Y-6170900D02*
X10692100Y-6170900D01*
X10692100Y-6170900D02*
X11023600Y-6502400D01*
%TO.N,/VID DIAG EN*%
X11684000Y-5232400D02*
X11023600Y-4572000D01*
X15878271Y-9205204D02*
X15672676Y-9410799D01*
X11684000Y-6807200D02*
X11684000Y-5232400D01*
X12560400Y-7683600D02*
X11684000Y-6807200D01*
X17070330Y-9205205D02*
X15878271Y-9205204D01*
X15672676Y-9410799D02*
X14555370Y-9410799D01*
X17834000Y-12158100D02*
X17834000Y-9968875D01*
X17834000Y-9968875D02*
X17070330Y-9205205D01*
X12828171Y-7683600D02*
X12560400Y-7683600D01*
X14555370Y-9410799D02*
X12828171Y-7683600D01*
%TO.N,Net-(U7-DIAG_EN)*%
X11023600Y-5592000D02*
X9494300Y-5592000D01*
X9494300Y-5592000D02*
X9423200Y-5520900D01*
%TO.N,/VIDSNS*%
X16834000Y-10935146D02*
X16834000Y-10972800D01*
X16834000Y-10972800D02*
X16634000Y-11172800D01*
X12039600Y-4626800D02*
X12188238Y-4626800D01*
X12188238Y-4626800D02*
X12496878Y-4318160D01*
X16634000Y-11172800D02*
X16634000Y-12158100D01*
%TO.N,Net-(U7-SNS)*%
X9423200Y-3570900D02*
X12003700Y-3570900D01*
X12003700Y-3570900D02*
X12039600Y-3606800D01*
%TO.N,Net-(U7-ILIM)*%
X9423200Y-2920900D02*
X9423200Y-2464100D01*
X9423200Y-2464100D02*
X8913600Y-1954500D01*
%TO.N,/SCLK*%
X19094696Y-13170296D02*
X20227999Y-13170296D01*
X18634000Y-12158100D02*
X18634000Y-12709600D01*
X18634000Y-12709600D02*
X19094696Y-13170296D01*
%TO.N,/BUSY*%
X17034000Y-18233687D02*
X17191160Y-18076527D01*
X17034000Y-19033100D02*
X17034000Y-18233687D01*
%TO.N,/MISO*%
X18673816Y-8484420D02*
X17694601Y-7505205D01*
X15401744Y-7505205D02*
X14492721Y-8414227D01*
X19834000Y-12158100D02*
X19834000Y-11323536D01*
X19563683Y-8484420D02*
X18673816Y-8484420D01*
X20123324Y-11034212D02*
X20123324Y-9044061D01*
X19834000Y-11323536D02*
X20123324Y-11034212D01*
X17694601Y-7505205D02*
X15401744Y-7505205D01*
X20123324Y-9044061D02*
X19563683Y-8484420D01*
X14492721Y-8414227D02*
X14478039Y-8414227D01*
%TO.N,/SX CS*%
X19397997Y-8884420D02*
X18508131Y-8884420D01*
X19434000Y-12158100D02*
X19434000Y-11157850D01*
X18508131Y-8884420D02*
X17778916Y-8155205D01*
X19434000Y-11157850D02*
X19716800Y-10875051D01*
X19716800Y-9203223D02*
X19397997Y-8884420D01*
X19716800Y-10875051D02*
X19716800Y-9203223D01*
X17778916Y-8155205D02*
X15764762Y-8155205D01*
%TO.N,/MOSI*%
X18234000Y-12158100D02*
X18234000Y-9803189D01*
X18234000Y-9803189D02*
X17236016Y-8805205D01*
X15264326Y-8805205D02*
X15219920Y-8760799D01*
X17236016Y-8805205D02*
X15264326Y-8805205D01*
%TO.N,/QSPI_SCLK*%
X14596500Y-16595600D02*
X13452850Y-16595600D01*
X12260094Y-16850100D02*
X11851200Y-17258994D01*
X13198350Y-16850100D02*
X12260094Y-16850100D01*
X13452850Y-16595600D02*
X13198350Y-16850100D01*
%TO.N,/QSPI_SD2*%
X14596500Y-17395600D02*
X13784219Y-17395601D01*
X16021300Y-25171400D02*
X16021300Y-25069800D01*
X13624200Y-24647800D02*
X13208000Y-24231600D01*
X13784219Y-17395601D02*
X12930002Y-18249819D01*
X12930002Y-21198114D02*
X12157094Y-21971022D01*
X16021300Y-25069800D02*
X15599300Y-24647800D01*
X12930002Y-18249819D02*
X12930002Y-21198114D01*
X15599300Y-24647800D02*
X13624200Y-24647800D01*
%TO.N,/QSPI_SDO*%
X14596500Y-16995600D02*
X13618533Y-16995601D01*
X20142200Y-26441400D02*
X23196300Y-26441400D01*
X12230873Y-21283527D02*
X11577787Y-21283527D01*
X12530002Y-20984398D02*
X12230873Y-21283527D01*
X11577787Y-21283527D02*
X11496267Y-21365047D01*
X19964400Y-26263600D02*
X20142200Y-26441400D01*
X12530002Y-18084134D02*
X12530002Y-20984398D01*
X13618533Y-16995601D02*
X12530002Y-18084134D01*
%TO.N,/QSPI_SD3*%
X15216738Y-16195600D02*
X15584000Y-16562862D01*
X14596500Y-16195600D02*
X15216738Y-16195600D01*
%TO.N,/QSPI_SD1*%
X14108660Y-24245800D02*
X15575300Y-24245800D01*
X13766800Y-23903940D02*
X14108660Y-24245800D01*
X14596500Y-17795600D02*
X13949905Y-17795600D01*
X13949905Y-17795600D02*
X13330002Y-18415504D01*
X13330002Y-21886496D02*
X13766800Y-22323294D01*
X13766800Y-22323294D02*
X13766800Y-23903940D01*
X16021300Y-23799800D02*
X16021300Y-23901400D01*
X15575300Y-24245800D02*
X16021300Y-23799800D01*
X13330002Y-18415504D02*
X13330002Y-21886496D01*
%TO.N,/TX BATT SENSE *%
X1576800Y-9501600D02*
X1752600Y-9677400D01*
X1572800Y-7874000D02*
X1572800Y-8886000D01*
X17034000Y-12716000D02*
X17614043Y-13296043D01*
X1572800Y-8886000D02*
X1576800Y-8890000D01*
X17034000Y-12158100D02*
X17034000Y-12716000D01*
X1576800Y-8890000D02*
X1576800Y-9501600D01*
X17614043Y-13296043D02*
X17780998Y-13296043D01*
%TO.N,/XIN*%
X22749000Y-16195600D02*
X23008600Y-16455200D01*
X21471500Y-16195600D02*
X22749000Y-16195600D01*
D44*
%TO.N,Net-(D4-K)*%
X6790400Y-8779900D02*
X6377900Y-9192400D01*
X7111198Y-9192400D02*
X7404000Y-9485202D01*
D43*
X9266300Y-9212400D02*
X9116300Y-9362400D01*
X9116300Y-9767528D02*
X8908394Y-9975434D01*
D44*
X6790400Y-8092400D02*
X6790400Y-8779900D01*
X6377900Y-9192400D02*
X7111198Y-9192400D01*
D43*
X9116300Y-9362400D02*
X9116300Y-9767528D01*
X11023600Y-9212400D02*
X9266300Y-9212400D01*
%TO.N,VBUS*%
X9236800Y-21468400D02*
X9236800Y-20220454D01*
X9899600Y-17642922D02*
X10351800Y-17190722D01*
X10777912Y-11658088D02*
X11023600Y-11412400D01*
X10351800Y-13323396D02*
X10777912Y-12897284D01*
X10351800Y-17190722D02*
X10351800Y-13323396D01*
X9236800Y-20220454D02*
X9899600Y-19557653D01*
X10777912Y-12897284D02*
X10777912Y-11658088D01*
X11023600Y-11412400D02*
X9266300Y-11412400D01*
X9256800Y-21488400D02*
X9236800Y-21468400D01*
X9899600Y-19557653D02*
X9899600Y-17642922D01*
X9256800Y-23230300D02*
X9256800Y-21488400D01*
X9266300Y-11412400D02*
X9116300Y-11262400D01*
%TO.N,/TXEN*%
X17448777Y-25832823D02*
X17400023Y-25832823D01*
X18342200Y-22641314D02*
X18342200Y-24939400D01*
X17278004Y-21577118D02*
X18342200Y-22641314D01*
X18342200Y-24939400D02*
X17448777Y-25832823D01*
X16234000Y-19033100D02*
X16234000Y-19796886D01*
X17278004Y-20840890D02*
X17278004Y-20875086D01*
X17278004Y-20875086D02*
X17278004Y-21577118D01*
X16234000Y-19796886D02*
X17278004Y-20840890D01*
%TO.N,/RXEN*%
X17119600Y-20116800D02*
X17386196Y-20116800D01*
X16634000Y-19631200D02*
X17119600Y-20116800D01*
X12419700Y-27151700D02*
X11961014Y-26693014D01*
X18384800Y-22118229D02*
X18742200Y-22475629D01*
X16634000Y-19033100D02*
X16634000Y-19631200D01*
X17000386Y-27151700D02*
X12419700Y-27151700D01*
X17386196Y-20116800D02*
X18384800Y-21115404D01*
X18384800Y-21115404D02*
X18384800Y-22118229D01*
X11961014Y-26693014D02*
X11961014Y-26495709D01*
X18742200Y-22475629D02*
X18742200Y-25409886D01*
X18742200Y-25409886D02*
X17000386Y-27151700D01*
%TO.N,/CAM RX*%
X24909600Y-17336000D02*
X26208000Y-18634400D01*
X24197000Y-13805861D02*
X24197000Y-14856686D01*
X24197000Y-14856686D02*
X24909600Y-15569286D01*
X24909600Y-15569286D02*
X24909600Y-17336000D01*
X21471500Y-13395600D02*
X23786739Y-13395600D01*
X23786739Y-13395600D02*
X24197000Y-13805861D01*
%TO.N,/CAM TX*%
X23952425Y-12995600D02*
X21471500Y-12995600D01*
X24597000Y-13640175D02*
X23952425Y-12995600D01*
X24597000Y-14523400D02*
X24597000Y-13640175D01*
X26208000Y-16134400D02*
X24597000Y-14523400D01*
%TD*%
M02*
