%TF.GenerationSoftware,KiCad,Pcbnew,9.0.5*%
%TF.CreationDate,2025-12-03T11:23:26-08:00*%
%TF.ProjectId,camcontrol,63616d63-6f6e-4747-926f-6c2e6b696361,rev?*%
%TF.SameCoordinates,Original*%
%TF.FileFunction,Legend,Top*%
%TF.FilePolarity,Positive*%
%FSLAX46Y46*%
G04 Gerber Fmt 4.6, Leading zero omitted, Abs format (unit mm)*
G04 Created by KiCad (PCBNEW 9.0.5) date 2025-12-03 11:23:26*
%MOMM*%
%LPD*%
G01*
G04 APERTURE LIST*
G04 Aperture macros list*
%AMRoundRect*
0 Rectangle with rounded corners*
0 $1 Rounding radius*
0 $2 $3 $4 $5 $6 $7 $8 $9 X,Y pos of 4 corners*
0 Add a 4 corners polygon primitive as box body*
4,1,4,$2,$3,$4,$5,$6,$7,$8,$9,$2,$3,0*
0 Add four circle primitives for the rounded corners*
1,1,$1+$1,$2,$3*
1,1,$1+$1,$4,$5*
1,1,$1+$1,$6,$7*
1,1,$1+$1,$8,$9*
0 Add four rect primitives between the rounded corners*
20,1,$1+$1,$2,$3,$4,$5,0*
20,1,$1+$1,$4,$5,$6,$7,0*
20,1,$1+$1,$6,$7,$8,$9,0*
20,1,$1+$1,$8,$9,$2,$3,0*%
%AMFreePoly0*
4,1,77,1.105355,0.885355,1.120000,0.850000,1.120000,0.750000,1.770000,0.750000,1.805355,0.735355,1.820000,0.700000,1.820000,0.500000,1.805355,0.464645,1.770000,0.450000,1.120000,0.450000,1.120000,0.350000,1.770000,0.350000,1.805355,0.335355,1.820000,0.300000,1.820000,0.100000,1.805355,0.064645,1.770000,0.050000,1.120000,0.050000,1.120000,-0.050000,1.770000,-0.050000,
1.805355,-0.064645,1.820000,-0.100000,1.820000,-0.300000,1.805355,-0.335355,1.770000,-0.350000,1.120000,-0.350000,1.120000,-0.450000,1.770000,-0.450000,1.805355,-0.464645,1.820000,-0.500000,1.820000,-0.700000,1.805355,-0.735355,1.770000,-0.750000,1.120000,-0.750000,1.120000,-0.850000,1.105355,-0.885355,1.070000,-0.900000,-1.080000,-0.900000,-1.115355,-0.885355,-1.130000,-0.850000,
-1.130000,-0.750000,-1.780000,-0.750000,-1.815355,-0.735355,-1.830000,-0.700000,-1.830000,-0.500000,-1.815355,-0.464645,-1.780000,-0.450000,-1.130000,-0.450000,-1.130000,-0.350000,-1.780000,-0.350000,-1.815355,-0.335355,-1.830000,-0.300000,-1.830000,-0.100000,-1.815355,-0.064645,-1.780000,-0.050000,-1.130000,-0.050000,-1.130000,0.050000,-1.780000,0.050000,-1.815355,0.064645,-1.830000,0.100000,
-1.830000,0.300000,-1.815355,0.335355,-1.780000,0.350000,-1.130000,0.350000,-1.130000,0.450000,-1.780000,0.450000,-1.815355,0.464645,-1.830000,0.500000,-1.830000,0.700000,-1.815355,0.735355,-1.780000,0.750000,-1.130000,0.750000,-1.130000,0.850000,-1.115355,0.885355,-1.080000,0.900000,1.070000,0.900000,1.105355,0.885355,1.105355,0.885355,$1*%
G04 Aperture macros list end*
%ADD10C,0.100000*%
%ADD11C,0.120000*%
%ADD12C,0.200000*%
%ADD13C,0.250000*%
%ADD14C,0.150000*%
%ADD15C,0.300000*%
%ADD16C,0.508000*%
%ADD17RoundRect,0.140000X0.170000X-0.140000X0.170000X0.140000X-0.170000X0.140000X-0.170000X-0.140000X0*%
%ADD18RoundRect,0.200000X-0.275000X0.200000X-0.275000X-0.200000X0.275000X-0.200000X0.275000X0.200000X0*%
%ADD19RoundRect,0.135000X0.135000X0.185000X-0.135000X0.185000X-0.135000X-0.185000X0.135000X-0.185000X0*%
%ADD20R,0.280000X0.880000*%
%ADD21FreePoly0,0.000000*%
%ADD22R,0.400000X1.600000*%
%ADD23O,1.200000X1.400000*%
%ADD24O,1.200000X1.900000*%
%ADD25RoundRect,0.140000X-0.170000X0.140000X-0.170000X-0.140000X0.170000X-0.140000X0.170000X0.140000X0*%
%ADD26RoundRect,0.135000X-0.185000X0.135000X-0.185000X-0.135000X0.185000X-0.135000X0.185000X0.135000X0*%
%ADD27RoundRect,0.140000X-0.140000X-0.170000X0.140000X-0.170000X0.140000X0.170000X-0.140000X0.170000X0*%
%ADD28RoundRect,0.135000X0.185000X-0.135000X0.185000X0.135000X-0.185000X0.135000X-0.185000X-0.135000X0*%
%ADD29RoundRect,0.140000X0.140000X0.170000X-0.140000X0.170000X-0.140000X-0.170000X0.140000X-0.170000X0*%
%ADD30C,3.800000*%
%ADD31RoundRect,0.150000X-0.150000X0.587500X-0.150000X-0.587500X0.150000X-0.587500X0.150000X0.587500X0*%
%ADD32RoundRect,0.225000X0.225000X0.250000X-0.225000X0.250000X-0.225000X-0.250000X0.225000X-0.250000X0*%
%ADD33RoundRect,0.135000X-0.135000X-0.185000X0.135000X-0.185000X0.135000X0.185000X-0.135000X0.185000X0*%
%ADD34RoundRect,0.225000X-0.250000X0.225000X-0.250000X-0.225000X0.250000X-0.225000X0.250000X0.225000X0*%
%ADD35RoundRect,0.250000X0.850000X-0.375000X0.850000X0.375000X-0.850000X0.375000X-0.850000X-0.375000X0*%
%ADD36RoundRect,0.150000X0.587500X0.150000X-0.587500X0.150000X-0.587500X-0.150000X0.587500X-0.150000X0*%
%ADD37O,1.730000X0.340000*%
%ADD38R,2.460000X2.310000*%
%ADD39RoundRect,0.162500X-0.650000X-0.162500X0.650000X-0.162500X0.650000X0.162500X-0.650000X0.162500X0*%
%ADD40R,0.800000X1.000000*%
%ADD41RoundRect,0.150000X-0.512500X-0.150000X0.512500X-0.150000X0.512500X0.150000X-0.512500X0.150000X0*%
%ADD42RoundRect,0.125000X-0.125000X0.125000X-0.125000X-0.125000X0.125000X-0.125000X0.125000X0.125000X0*%
%ADD43RoundRect,0.050000X0.050000X-0.387500X0.050000X0.387500X-0.050000X0.387500X-0.050000X-0.387500X0*%
%ADD44RoundRect,0.050000X0.387500X-0.050000X0.387500X0.050000X-0.387500X0.050000X-0.387500X-0.050000X0*%
%ADD45R,3.200000X3.200000*%
%ADD46RoundRect,0.250000X0.725000X-0.600000X0.725000X0.600000X-0.725000X0.600000X-0.725000X-0.600000X0*%
%ADD47O,1.950000X1.700000*%
G04 APERTURE END LIST*
D10*
X19842455Y-6371933D02*
X19842455Y-6871933D01*
X19842455Y-6871933D02*
X19809122Y-6971933D01*
X19809122Y-6971933D02*
X19742455Y-7038600D01*
X19742455Y-7038600D02*
X19642455Y-7071933D01*
X19642455Y-7071933D02*
X19575789Y-7071933D01*
X20509122Y-7071933D02*
X20175788Y-7071933D01*
X20175788Y-7071933D02*
X20175788Y-6371933D01*
X21142455Y-7005266D02*
X21109122Y-7038600D01*
X21109122Y-7038600D02*
X21009122Y-7071933D01*
X21009122Y-7071933D02*
X20942455Y-7071933D01*
X20942455Y-7071933D02*
X20842455Y-7038600D01*
X20842455Y-7038600D02*
X20775789Y-6971933D01*
X20775789Y-6971933D02*
X20742455Y-6905266D01*
X20742455Y-6905266D02*
X20709122Y-6771933D01*
X20709122Y-6771933D02*
X20709122Y-6671933D01*
X20709122Y-6671933D02*
X20742455Y-6538600D01*
X20742455Y-6538600D02*
X20775789Y-6471933D01*
X20775789Y-6471933D02*
X20842455Y-6405266D01*
X20842455Y-6405266D02*
X20942455Y-6371933D01*
X20942455Y-6371933D02*
X21009122Y-6371933D01*
X21009122Y-6371933D02*
X21109122Y-6405266D01*
X21109122Y-6405266D02*
X21142455Y-6438600D01*
X21642455Y-6371933D02*
X21642455Y-6871933D01*
X21642455Y-6871933D02*
X21609122Y-6971933D01*
X21609122Y-6971933D02*
X21542455Y-7038600D01*
X21542455Y-7038600D02*
X21442455Y-7071933D01*
X21442455Y-7071933D02*
X21375789Y-7071933D01*
X22309122Y-7071933D02*
X21975788Y-7071933D01*
X21975788Y-7071933D02*
X21975788Y-6371933D01*
X22942455Y-7005266D02*
X22909122Y-7038600D01*
X22909122Y-7038600D02*
X22809122Y-7071933D01*
X22809122Y-7071933D02*
X22742455Y-7071933D01*
X22742455Y-7071933D02*
X22642455Y-7038600D01*
X22642455Y-7038600D02*
X22575789Y-6971933D01*
X22575789Y-6971933D02*
X22542455Y-6905266D01*
X22542455Y-6905266D02*
X22509122Y-6771933D01*
X22509122Y-6771933D02*
X22509122Y-6671933D01*
X22509122Y-6671933D02*
X22542455Y-6538600D01*
X22542455Y-6538600D02*
X22575789Y-6471933D01*
X22575789Y-6471933D02*
X22642455Y-6405266D01*
X22642455Y-6405266D02*
X22742455Y-6371933D01*
X22742455Y-6371933D02*
X22809122Y-6371933D01*
X22809122Y-6371933D02*
X22909122Y-6405266D01*
X22909122Y-6405266D02*
X22942455Y-6438600D01*
X23442455Y-6371933D02*
X23442455Y-6871933D01*
X23442455Y-6871933D02*
X23409122Y-6971933D01*
X23409122Y-6971933D02*
X23342455Y-7038600D01*
X23342455Y-7038600D02*
X23242455Y-7071933D01*
X23242455Y-7071933D02*
X23175789Y-7071933D01*
X24109122Y-7071933D02*
X23775788Y-7071933D01*
X23775788Y-7071933D02*
X23775788Y-6371933D01*
X24742455Y-7005266D02*
X24709122Y-7038600D01*
X24709122Y-7038600D02*
X24609122Y-7071933D01*
X24609122Y-7071933D02*
X24542455Y-7071933D01*
X24542455Y-7071933D02*
X24442455Y-7038600D01*
X24442455Y-7038600D02*
X24375789Y-6971933D01*
X24375789Y-6971933D02*
X24342455Y-6905266D01*
X24342455Y-6905266D02*
X24309122Y-6771933D01*
X24309122Y-6771933D02*
X24309122Y-6671933D01*
X24309122Y-6671933D02*
X24342455Y-6538600D01*
X24342455Y-6538600D02*
X24375789Y-6471933D01*
X24375789Y-6471933D02*
X24442455Y-6405266D01*
X24442455Y-6405266D02*
X24542455Y-6371933D01*
X24542455Y-6371933D02*
X24609122Y-6371933D01*
X24609122Y-6371933D02*
X24709122Y-6405266D01*
X24709122Y-6405266D02*
X24742455Y-6438600D01*
X25242455Y-6371933D02*
X25242455Y-6871933D01*
X25242455Y-6871933D02*
X25209122Y-6971933D01*
X25209122Y-6971933D02*
X25142455Y-7038600D01*
X25142455Y-7038600D02*
X25042455Y-7071933D01*
X25042455Y-7071933D02*
X24975789Y-7071933D01*
X25909122Y-7071933D02*
X25575788Y-7071933D01*
X25575788Y-7071933D02*
X25575788Y-6371933D01*
X26542455Y-7005266D02*
X26509122Y-7038600D01*
X26509122Y-7038600D02*
X26409122Y-7071933D01*
X26409122Y-7071933D02*
X26342455Y-7071933D01*
X26342455Y-7071933D02*
X26242455Y-7038600D01*
X26242455Y-7038600D02*
X26175789Y-6971933D01*
X26175789Y-6971933D02*
X26142455Y-6905266D01*
X26142455Y-6905266D02*
X26109122Y-6771933D01*
X26109122Y-6771933D02*
X26109122Y-6671933D01*
X26109122Y-6671933D02*
X26142455Y-6538600D01*
X26142455Y-6538600D02*
X26175789Y-6471933D01*
X26175789Y-6471933D02*
X26242455Y-6405266D01*
X26242455Y-6405266D02*
X26342455Y-6371933D01*
X26342455Y-6371933D02*
X26409122Y-6371933D01*
X26409122Y-6371933D02*
X26509122Y-6405266D01*
X26509122Y-6405266D02*
X26542455Y-6438600D01*
D11*
%TO.C,C7*%
X6955200Y-14331836D02*
X6955200Y-14116164D01*
X7675200Y-14331836D02*
X7675200Y-14116164D01*
%TO.C,C6*%
X2332400Y-9353436D02*
X2332400Y-9137764D01*
X3052400Y-9353436D02*
X3052400Y-9137764D01*
%TO.C,R10*%
X7172300Y-16379742D02*
X7172300Y-16854258D01*
X8217300Y-16379742D02*
X8217300Y-16854258D01*
%TO.C,C20*%
X18690000Y-10064636D02*
X18690000Y-9848964D01*
X19410000Y-10064636D02*
X19410000Y-9848964D01*
%TO.C,R24*%
X1220441Y-8510000D02*
X913159Y-8510000D01*
X1220441Y-9270000D02*
X913159Y-9270000D01*
D12*
%TO.C,U3*%
X3216800Y-14532800D02*
X3376800Y-14532800D01*
X3216800Y-15072800D02*
X3216800Y-14532800D01*
X3216800Y-17922800D02*
X3216800Y-17382800D01*
X3376800Y-17922800D02*
X3216800Y-17922800D01*
X6606800Y-14532800D02*
X6446800Y-14532800D01*
X6606800Y-15072800D02*
X6606800Y-14532800D01*
X6606800Y-17382800D02*
X6606800Y-17922800D01*
X6606800Y-17922800D02*
X6446800Y-17922800D01*
D13*
X3706800Y-18482800D02*
G75*
G02*
X3446800Y-18482800I-130000J0D01*
G01*
X3446800Y-18482800D02*
G75*
G02*
X3706800Y-18482800I130000J0D01*
G01*
%TO.C,J2*%
X6184000Y-28450700D02*
X6514000Y-28780700D01*
X6514000Y-28780700D02*
X6554000Y-28780700D01*
X6554000Y-28780700D02*
X7284000Y-28050700D01*
X6584000Y-28050700D02*
X6184000Y-28450700D01*
X6664000Y-22930700D02*
X7164000Y-22930700D01*
X6664000Y-28050700D02*
X6584000Y-28050700D01*
X6664000Y-28050700D02*
X6664000Y-22930700D01*
X7974000Y-28050700D02*
X7974000Y-28780700D01*
X7974000Y-28780700D02*
X13014000Y-28780700D01*
X13014000Y-28780700D02*
X13014000Y-28050700D01*
X13664000Y-22930700D02*
X14164000Y-22930700D01*
X14164000Y-22930700D02*
X14164000Y-28050700D01*
X14164000Y-28050700D02*
X6664000Y-28050700D01*
X14164000Y-28050700D02*
X14244000Y-28050700D01*
X14244000Y-28050700D02*
X14644000Y-28450700D01*
X14314000Y-28700700D02*
X13664000Y-28050700D01*
X14314000Y-28780700D02*
X14314000Y-28700700D01*
X14644000Y-28450700D02*
X14314000Y-28780700D01*
D11*
%TO.C,R23*%
X2236441Y-7494000D02*
X1929159Y-7494000D01*
X2236441Y-8254000D02*
X1929159Y-8254000D01*
%TO.C,C17*%
X18639200Y-20516964D02*
X18639200Y-20732636D01*
X19359200Y-20516964D02*
X19359200Y-20732636D01*
%TO.C,R11*%
X10643600Y-3046759D02*
X10643600Y-3354041D01*
X11403600Y-3046759D02*
X11403600Y-3354041D01*
%TO.C,R13*%
X7418041Y-18212800D02*
X7110759Y-18212800D01*
X7418041Y-18972800D02*
X7110759Y-18972800D01*
%TO.C,R5*%
X11935841Y-12988900D02*
X11628559Y-12988900D01*
X11935841Y-13748900D02*
X11628559Y-13748900D01*
%TO.C,C22*%
X23006164Y-14778400D02*
X23221836Y-14778400D01*
X23006164Y-15498400D02*
X23221836Y-15498400D01*
%TO.C,R17*%
X10643600Y-7166041D02*
X10643600Y-6858759D01*
X11403600Y-7166041D02*
X11403600Y-6858759D01*
%TO.C,C15*%
X12960236Y-11070000D02*
X12744564Y-11070000D01*
X12960236Y-11790000D02*
X12744564Y-11790000D01*
%TO.C,C4*%
X20874400Y-1479436D02*
X20874400Y-1263764D01*
X21594400Y-1479436D02*
X21594400Y-1263764D01*
%TO.C,R6*%
X23267641Y-13793200D02*
X22960359Y-13793200D01*
X23267641Y-14553200D02*
X22960359Y-14553200D01*
%TO.C,C1*%
X12035200Y-9963036D02*
X12035200Y-9747364D01*
X12755200Y-9963036D02*
X12755200Y-9747364D01*
%TO.C,C19*%
X14789036Y-10562000D02*
X14573364Y-10562000D01*
X14789036Y-11282000D02*
X14573364Y-11282000D01*
%TO.C,R14*%
X14123641Y-6528800D02*
X13816359Y-6528800D01*
X14123641Y-7288800D02*
X13816359Y-7288800D01*
%TO.C,C13*%
X12829836Y-12018300D02*
X12614164Y-12018300D01*
X12829836Y-12738300D02*
X12614164Y-12738300D01*
%TO.C,R18*%
X10643600Y-4928359D02*
X10643600Y-5235641D01*
X11403600Y-4928359D02*
X11403600Y-5235641D01*
%TO.C,Q2*%
X4906800Y-20272800D02*
X4956800Y-20272800D01*
X4906800Y-21792800D02*
X4906800Y-20272800D01*
X5906800Y-21792800D02*
X4906800Y-21792800D01*
X6076800Y-20272800D02*
X6856800Y-20272800D01*
X7976800Y-20272800D02*
X8026800Y-20272800D01*
X8026800Y-20272800D02*
X8026800Y-21792800D01*
X8026800Y-21792800D02*
X7026800Y-21792800D01*
X6846800Y-19732800D02*
X6516800Y-19972800D01*
X6516800Y-19492800D01*
X6846800Y-19732800D01*
G36*
X6846800Y-19732800D02*
G01*
X6516800Y-19972800D01*
X6516800Y-19492800D01*
X6846800Y-19732800D01*
G37*
%TO.C,C24*%
X3771380Y-11179400D02*
X3490220Y-11179400D01*
X3771380Y-12199400D02*
X3490220Y-12199400D01*
%TO.C,C18*%
X12502236Y-14913900D02*
X12286564Y-14913900D01*
X12502236Y-15633900D02*
X12286564Y-15633900D01*
%TO.C,R9*%
X21385559Y-20752800D02*
X21692841Y-20752800D01*
X21385559Y-21512800D02*
X21692841Y-21512800D01*
%TO.C,R1*%
X483600Y-13463241D02*
X483600Y-13155959D01*
X1243600Y-13463241D02*
X1243600Y-13155959D01*
%TO.C,R4*%
X11628559Y-13979500D02*
X11935841Y-13979500D01*
X11628559Y-14739500D02*
X11935841Y-14739500D01*
%TO.C,C21*%
X14880000Y-20567764D02*
X14880000Y-20783436D01*
X15600000Y-20567764D02*
X15600000Y-20783436D01*
%TO.C,C14*%
X23310964Y-19248800D02*
X23526636Y-19248800D01*
X23310964Y-19968800D02*
X23526636Y-19968800D01*
%TO.C,C5*%
X7162564Y-7732400D02*
X7378236Y-7732400D01*
X7162564Y-8452400D02*
X7378236Y-8452400D01*
%TO.C,C23*%
X5406800Y-12285420D02*
X5406800Y-12566580D01*
X6426800Y-12285420D02*
X6426800Y-12566580D01*
%TO.C,L1*%
X363200Y-16568052D02*
X363200Y-16045548D01*
X2583200Y-16568052D02*
X2583200Y-16045548D01*
%TO.C,C8*%
X8580800Y-15944964D02*
X8580800Y-16160636D01*
X9300800Y-15944964D02*
X9300800Y-16160636D01*
%TO.C,R7*%
X1830441Y-21462800D02*
X1523159Y-21462800D01*
X1830441Y-22222800D02*
X1523159Y-22222800D01*
%TO.C,Q3*%
X7418800Y-8752400D02*
X8938800Y-8752400D01*
X7418800Y-9752400D02*
X7418800Y-8752400D01*
X7418800Y-11872400D02*
X7418800Y-10872400D01*
X8938800Y-8752400D02*
X8938800Y-8802400D01*
X8938800Y-9922400D02*
X8938800Y-10702400D01*
X8938800Y-11822400D02*
X8938800Y-11872400D01*
X8938800Y-11872400D02*
X7418800Y-11872400D01*
X9478800Y-10692400D02*
X9238800Y-10362400D01*
X9718800Y-10362400D01*
X9478800Y-10692400D01*
G36*
X9478800Y-10692400D02*
G01*
X9238800Y-10362400D01*
X9718800Y-10362400D01*
X9478800Y-10692400D01*
G37*
D14*
%TO.C,U2*%
X15085600Y-224000D02*
X18635600Y-224000D01*
X15085600Y-5374000D02*
X15085600Y-224000D01*
X18635600Y-224000D02*
X18635600Y-5374000D01*
X18635600Y-5374000D02*
X15085600Y-5374000D01*
D15*
X14145600Y-224000D02*
G75*
G02*
X13845600Y-224000I-150000J0D01*
G01*
X13845600Y-224000D02*
G75*
G02*
X14145600Y-224000I150000J0D01*
G01*
X15995600Y-844000D02*
G75*
G02*
X15695600Y-844000I-150000J0D01*
G01*
X15695600Y-844000D02*
G75*
G02*
X15995600Y-844000I150000J0D01*
G01*
D11*
%TO.C,R2*%
X8256000Y-14019559D02*
X8256000Y-14326841D01*
X9016000Y-14019559D02*
X9016000Y-14326841D01*
%TO.C,C9*%
X3367380Y-20102800D02*
X3086220Y-20102800D01*
X3367380Y-21122800D02*
X3086220Y-21122800D01*
%TO.C,R19*%
X11659600Y-4270441D02*
X11659600Y-3963159D01*
X12419600Y-4270441D02*
X12419600Y-3963159D01*
%TO.C,C27*%
X20885036Y-5278800D02*
X20669364Y-5278800D01*
X20885036Y-5998800D02*
X20669364Y-5998800D01*
%TO.C,R15*%
X11784359Y-331200D02*
X12091641Y-331200D01*
X11784359Y-1091200D02*
X12091641Y-1091200D01*
%TO.C,R22*%
X331200Y-10565641D02*
X331200Y-10258359D01*
X1091200Y-10565641D02*
X1091200Y-10258359D01*
%TO.C,C11*%
X3367380Y-18612800D02*
X3086220Y-18612800D01*
X3367380Y-19632800D02*
X3086220Y-19632800D01*
%TO.C,U5*%
X16848800Y-21674800D02*
X22368800Y-21674800D01*
X16848800Y-21944800D02*
X16848800Y-21674800D01*
X16848800Y-27194800D02*
X16848800Y-26924800D01*
X22368800Y-21674800D02*
X22368800Y-21944800D01*
X22368800Y-26924800D02*
X22368800Y-27194800D01*
X22368800Y-27194800D02*
X16848800Y-27194800D01*
X16018800Y-21934800D02*
X15678800Y-21464800D01*
X16358800Y-21464800D01*
X16018800Y-21934800D01*
G36*
X16018800Y-21934800D02*
G01*
X15678800Y-21464800D01*
X16358800Y-21464800D01*
X16018800Y-21934800D01*
G37*
%TO.C,C29*%
X652600Y-6360564D02*
X652600Y-6576236D01*
X1372600Y-6360564D02*
X1372600Y-6576236D01*
%TO.C,R25*%
X14225241Y-5512800D02*
X13917959Y-5512800D01*
X14225241Y-6272800D02*
X13917959Y-6272800D01*
D14*
%TO.C,X1*%
X22278600Y-15705200D02*
X24938600Y-15705200D01*
X22278600Y-19005200D02*
X22278600Y-15705200D01*
X23708600Y-19245200D02*
X25168600Y-19245200D01*
X24938600Y-15705200D02*
X24938600Y-18885200D01*
X24938600Y-18885200D02*
X24938600Y-19005200D01*
X24938600Y-19005200D02*
X22278600Y-19005200D01*
X25168600Y-19245200D02*
X25168600Y-17985200D01*
D11*
%TO.C,C28*%
X1643200Y-6360564D02*
X1643200Y-6576236D01*
X2363200Y-6360564D02*
X2363200Y-6576236D01*
%TO.C,C12*%
X24430400Y-23056964D02*
X24430400Y-23272636D01*
X25150400Y-23056964D02*
X25150400Y-23272636D01*
%TO.C,C30*%
X1567000Y-4455564D02*
X1567000Y-4671236D01*
X2287000Y-4455564D02*
X2287000Y-4671236D01*
%TO.C,U4*%
X4330400Y-7632400D02*
X6150400Y-7632400D01*
X4330400Y-7682400D02*
X4330400Y-7632400D01*
X4330400Y-9582400D02*
X4330400Y-8802400D01*
X4330400Y-10752400D02*
X4330400Y-10702400D01*
X6150400Y-7632400D02*
X6150400Y-8632400D01*
X6150400Y-9752400D02*
X6150400Y-10752400D01*
X6150400Y-10752400D02*
X4330400Y-10752400D01*
X4030400Y-9142400D02*
X3550400Y-9142400D01*
X3790400Y-8812400D01*
X4030400Y-9142400D01*
G36*
X4030400Y-9142400D02*
G01*
X3550400Y-9142400D01*
X3790400Y-8812400D01*
X4030400Y-9142400D01*
G37*
%TO.C,R16*%
X11784359Y-1296400D02*
X12091641Y-1296400D01*
X11784359Y-2056400D02*
X12091641Y-2056400D01*
%TO.C,C26*%
X21839600Y-1479436D02*
X21839600Y-1263764D01*
X22559600Y-1479436D02*
X22559600Y-1263764D01*
%TO.C,R12*%
X12167600Y-6043959D02*
X12167600Y-6351241D01*
X12927600Y-6043959D02*
X12927600Y-6351241D01*
%TO.C,R3*%
X14098000Y-23011159D02*
X14098000Y-23318441D01*
X14858000Y-23011159D02*
X14858000Y-23318441D01*
%TO.C,R21*%
X9295159Y-1652000D02*
X9602441Y-1652000D01*
X9295159Y-2412000D02*
X9602441Y-2412000D01*
D14*
%TO.C,U7*%
X4783200Y-2290900D02*
X8333200Y-2290900D01*
X4783200Y-7440900D02*
X4783200Y-2290900D01*
X8333200Y-2290900D02*
X8333200Y-7440900D01*
X8333200Y-7440900D02*
X4783200Y-7440900D01*
D15*
X7723200Y-6820900D02*
G75*
G02*
X7423200Y-6820900I-150000J0D01*
G01*
X7423200Y-6820900D02*
G75*
G02*
X7723200Y-6820900I150000J0D01*
G01*
X9573200Y-7440900D02*
G75*
G02*
X9273200Y-7440900I-150000J0D01*
G01*
X9273200Y-7440900D02*
G75*
G02*
X9573200Y-7440900I150000J0D01*
G01*
D11*
%TO.C,R8*%
X806800Y-20476441D02*
X806800Y-20169159D01*
X1566800Y-20476441D02*
X1566800Y-20169159D01*
%TO.C,D4*%
X10173600Y-8702400D02*
X10173600Y-11362400D01*
X11873600Y-8702400D02*
X10173600Y-8702400D01*
X11873600Y-8702400D02*
X11873600Y-11362400D01*
%TO.C,C25*%
X3771380Y-12678000D02*
X3490220Y-12678000D01*
X3771380Y-13698000D02*
X3490220Y-13698000D01*
%TO.C,U6*%
X14424000Y-11985600D02*
X15074000Y-11985600D01*
X14424000Y-12635600D02*
X14424000Y-11985600D01*
X14424000Y-19205600D02*
X14424000Y-18555600D01*
X15074000Y-19205600D02*
X14424000Y-19205600D01*
X20994000Y-11985600D02*
X21644000Y-11985600D01*
X21644000Y-11985600D02*
X21644000Y-12635600D01*
X21644000Y-18555600D02*
X21644000Y-19205600D01*
X21644000Y-19205600D02*
X20994000Y-19205600D01*
X15674000Y-20065600D02*
X15194000Y-20065600D01*
X15434000Y-19735600D01*
X15674000Y-20065600D01*
G36*
X15674000Y-20065600D02*
G01*
X15194000Y-20065600D01*
X15434000Y-19735600D01*
X15674000Y-20065600D01*
G37*
%TO.C,C10*%
X12499636Y-15879100D02*
X12283964Y-15879100D01*
X12499636Y-16599100D02*
X12283964Y-16599100D01*
D16*
%TO.C,J7*%
X22765501Y-19708098D02*
G75*
G02*
X22003501Y-19708098I-381000J0D01*
G01*
X22003501Y-19708098D02*
G75*
G02*
X22765501Y-19708098I381000J0D01*
G01*
%TO.C,J3*%
X13217901Y-19702899D02*
G75*
G02*
X12455901Y-19702899I-381000J0D01*
G01*
X12455901Y-19702899D02*
G75*
G02*
X13217901Y-19702899I381000J0D01*
G01*
%TD*%
%LPC*%
D17*
%TO.C,C7*%
X7315200Y-14704000D03*
X7315200Y-13744000D03*
%TD*%
%TO.C,C6*%
X2692400Y-9725600D03*
X2692400Y-8765600D03*
%TD*%
D18*
%TO.C,R10*%
X7694800Y-15792000D03*
X7694800Y-17442000D03*
%TD*%
D17*
%TO.C,C20*%
X19050000Y-10436800D03*
X19050000Y-9476800D03*
%TD*%
D19*
%TO.C,R24*%
X1576800Y-8890000D03*
X556800Y-8890000D03*
%TD*%
D20*
%TO.C,U3*%
X3916800Y-17732800D03*
X4416800Y-17732800D03*
X4916800Y-17732800D03*
X5416800Y-17732800D03*
X5916800Y-17732800D03*
X5916800Y-14762800D03*
X5416800Y-14762800D03*
X4916800Y-14762800D03*
X4416800Y-14732800D03*
X3916800Y-14732800D03*
D21*
X4916800Y-16232800D03*
%TD*%
D22*
%TO.C,J2*%
X9114000Y-23250700D03*
X9764000Y-23250700D03*
X10414000Y-23250700D03*
X11064000Y-23250700D03*
X11714000Y-23240700D03*
D23*
X12834000Y-23000700D03*
X7994000Y-23000700D03*
D24*
X6814000Y-25900700D03*
X14014000Y-25900700D03*
%TD*%
D19*
%TO.C,R23*%
X2592800Y-7874000D03*
X1572800Y-7874000D03*
%TD*%
D25*
%TO.C,C17*%
X18999200Y-20144800D03*
X18999200Y-21104800D03*
%TD*%
D26*
%TO.C,R11*%
X11023600Y-2690400D03*
X11023600Y-3710400D03*
%TD*%
D19*
%TO.C,R13*%
X7774400Y-18592800D03*
X6754400Y-18592800D03*
%TD*%
%TO.C,R5*%
X12292200Y-13368900D03*
X11272200Y-13368900D03*
%TD*%
D27*
%TO.C,C22*%
X22634000Y-15138400D03*
X23594000Y-15138400D03*
%TD*%
D28*
%TO.C,R17*%
X11023600Y-7522400D03*
X11023600Y-6502400D03*
%TD*%
D29*
%TO.C,C15*%
X13332400Y-11430000D03*
X12372400Y-11430000D03*
%TD*%
D17*
%TO.C,C4*%
X21234400Y-1851600D03*
X21234400Y-891600D03*
%TD*%
D19*
%TO.C,R6*%
X23624000Y-14173200D03*
X22604000Y-14173200D03*
%TD*%
D17*
%TO.C,C1*%
X12395200Y-10335200D03*
X12395200Y-9375200D03*
%TD*%
D29*
%TO.C,C19*%
X15161200Y-10922000D03*
X14201200Y-10922000D03*
%TD*%
D30*
%TO.C,H2*%
X4000000Y-24000000D03*
%TD*%
D19*
%TO.C,R14*%
X14480000Y-6908800D03*
X13460000Y-6908800D03*
%TD*%
D29*
%TO.C,C13*%
X13202000Y-12378300D03*
X12242000Y-12378300D03*
%TD*%
D26*
%TO.C,R18*%
X11023600Y-4572000D03*
X11023600Y-5592000D03*
%TD*%
D31*
%TO.C,Q2*%
X7416800Y-20095300D03*
X5516800Y-20095300D03*
X6466800Y-21970300D03*
%TD*%
D32*
%TO.C,C24*%
X4405800Y-11689400D03*
X2855800Y-11689400D03*
%TD*%
D29*
%TO.C,C18*%
X12874400Y-15273900D03*
X11914400Y-15273900D03*
%TD*%
D33*
%TO.C,R9*%
X21029200Y-21132800D03*
X22049200Y-21132800D03*
%TD*%
D28*
%TO.C,R1*%
X863600Y-13819600D03*
X863600Y-12799600D03*
%TD*%
D33*
%TO.C,R4*%
X11272200Y-14359500D03*
X12292200Y-14359500D03*
%TD*%
D25*
%TO.C,C21*%
X15240000Y-20195600D03*
X15240000Y-21155600D03*
%TD*%
D27*
%TO.C,C14*%
X22938800Y-19608800D03*
X23898800Y-19608800D03*
%TD*%
%TO.C,C5*%
X6790400Y-8092400D03*
X7750400Y-8092400D03*
%TD*%
D34*
%TO.C,C23*%
X5916800Y-11651000D03*
X5916800Y-13201000D03*
%TD*%
D35*
%TO.C,L1*%
X1473200Y-17381800D03*
X1473200Y-15231800D03*
%TD*%
D25*
%TO.C,C8*%
X8940800Y-15572800D03*
X8940800Y-16532800D03*
%TD*%
D19*
%TO.C,R7*%
X2186800Y-21842800D03*
X1166800Y-21842800D03*
%TD*%
D36*
%TO.C,Q3*%
X9116300Y-11262400D03*
X9116300Y-9362400D03*
X7241300Y-10312400D03*
%TD*%
D37*
%TO.C,U2*%
X13995600Y-844000D03*
X13995600Y-1494000D03*
X13995600Y-2144000D03*
X13995600Y-2794000D03*
X13995600Y-3444000D03*
X13995600Y-4094000D03*
X13995600Y-4744000D03*
X19735600Y-4744000D03*
X19735600Y-4094000D03*
X19735600Y-3444000D03*
X19735600Y-2794000D03*
X19735600Y-2144000D03*
X19735600Y-1494000D03*
X19735600Y-844000D03*
D38*
X16865600Y-2794000D03*
%TD*%
D26*
%TO.C,R2*%
X8636000Y-13663200D03*
X8636000Y-14683200D03*
%TD*%
D32*
%TO.C,C9*%
X4001800Y-20612800D03*
X2451800Y-20612800D03*
%TD*%
D28*
%TO.C,R19*%
X12039600Y-4626800D03*
X12039600Y-3606800D03*
%TD*%
D29*
%TO.C,C27*%
X21257200Y-5638800D03*
X20297200Y-5638800D03*
%TD*%
D33*
%TO.C,R15*%
X11428000Y-711200D03*
X12448000Y-711200D03*
%TD*%
D28*
%TO.C,R22*%
X711200Y-10922000D03*
X711200Y-9902000D03*
%TD*%
D32*
%TO.C,C11*%
X4001800Y-19122800D03*
X2451800Y-19122800D03*
%TD*%
D39*
%TO.C,U5*%
X16021300Y-22529800D03*
X16021300Y-23799800D03*
X16021300Y-25069800D03*
X16021300Y-26339800D03*
X23196300Y-26339800D03*
X23196300Y-25069800D03*
X23196300Y-23799800D03*
X23196300Y-22529800D03*
%TD*%
D25*
%TO.C,C29*%
X1012600Y-5988400D03*
X1012600Y-6948400D03*
%TD*%
D19*
%TO.C,R25*%
X14581600Y-5892800D03*
X13561600Y-5892800D03*
%TD*%
D40*
%TO.C,X1*%
X24208600Y-18255200D03*
X24208600Y-16455200D03*
X23008600Y-16455200D03*
X23008600Y-18255200D03*
%TD*%
D30*
%TO.C,H1*%
X24000000Y-4000000D03*
%TD*%
D25*
%TO.C,C28*%
X2003200Y-5988400D03*
X2003200Y-6948400D03*
%TD*%
%TO.C,C12*%
X24790400Y-22684800D03*
X24790400Y-23644800D03*
%TD*%
%TO.C,C30*%
X1927000Y-4083400D03*
X1927000Y-5043400D03*
%TD*%
D41*
%TO.C,U4*%
X4102900Y-8242400D03*
X4102900Y-10142400D03*
X6377900Y-9192400D03*
%TD*%
D33*
%TO.C,R16*%
X11428000Y-1676400D03*
X12448000Y-1676400D03*
%TD*%
D17*
%TO.C,C26*%
X22199600Y-1851600D03*
X22199600Y-891600D03*
%TD*%
D26*
%TO.C,R12*%
X12547600Y-5687600D03*
X12547600Y-6707600D03*
%TD*%
%TO.C,R3*%
X14478000Y-22654800D03*
X14478000Y-23674800D03*
%TD*%
D33*
%TO.C,R21*%
X8938800Y-2032000D03*
X9958800Y-2032000D03*
%TD*%
D37*
%TO.C,U7*%
X9423200Y-6820900D03*
X9423200Y-6170900D03*
X9423200Y-5520900D03*
X9423200Y-4870900D03*
X9423200Y-4220900D03*
X9423200Y-3570900D03*
X9423200Y-2920900D03*
X3683200Y-2920900D03*
X3683200Y-3570900D03*
X3683200Y-4220900D03*
X3683200Y-4870900D03*
X3683200Y-5520900D03*
X3683200Y-6170900D03*
X3683200Y-6820900D03*
D38*
X6553200Y-4870900D03*
%TD*%
D28*
%TO.C,R8*%
X1186800Y-20832800D03*
X1186800Y-19812800D03*
%TD*%
D42*
%TO.C,D4*%
X11023600Y-9212400D03*
X11023600Y-11412400D03*
%TD*%
D32*
%TO.C,C25*%
X4405800Y-13188000D03*
X2855800Y-13188000D03*
%TD*%
D43*
%TO.C,U6*%
X15434000Y-19033100D03*
X15834000Y-19033100D03*
X16234000Y-19033100D03*
X16634000Y-19033100D03*
X17034000Y-19033100D03*
X17434000Y-19033100D03*
X17834000Y-19033100D03*
X18234000Y-19033100D03*
X18634000Y-19033100D03*
X19034000Y-19033100D03*
X19434000Y-19033100D03*
X19834000Y-19033100D03*
X20234000Y-19033100D03*
X20634000Y-19033100D03*
D44*
X21471500Y-18195600D03*
X21471500Y-17795600D03*
X21471500Y-17395600D03*
X21471500Y-16995600D03*
X21471500Y-16595600D03*
X21471500Y-16195600D03*
X21471500Y-15795600D03*
X21471500Y-15395600D03*
X21471500Y-14995600D03*
X21471500Y-14595600D03*
X21471500Y-14195600D03*
X21471500Y-13795600D03*
X21471500Y-13395600D03*
X21471500Y-12995600D03*
D43*
X20634000Y-12158100D03*
X20234000Y-12158100D03*
X19834000Y-12158100D03*
X19434000Y-12158100D03*
X19034000Y-12158100D03*
X18634000Y-12158100D03*
X18234000Y-12158100D03*
X17834000Y-12158100D03*
X17434000Y-12158100D03*
X17034000Y-12158100D03*
X16634000Y-12158100D03*
X16234000Y-12158100D03*
X15834000Y-12158100D03*
X15434000Y-12158100D03*
D44*
X14596500Y-12995600D03*
X14596500Y-13395600D03*
X14596500Y-13795600D03*
X14596500Y-14195600D03*
X14596500Y-14595600D03*
X14596500Y-14995600D03*
X14596500Y-15395600D03*
X14596500Y-15795600D03*
X14596500Y-16195600D03*
X14596500Y-16595600D03*
X14596500Y-16995600D03*
X14596500Y-17395600D03*
X14596500Y-17795600D03*
X14596500Y-18195600D03*
D45*
X18034000Y-15595600D03*
%TD*%
D29*
%TO.C,C10*%
X12871800Y-16239100D03*
X11911800Y-16239100D03*
%TD*%
D46*
%TO.C,J8*%
X26208000Y-18634400D03*
D47*
X26208000Y-16134400D03*
X26208000Y-13634400D03*
X26208000Y-11134400D03*
%TD*%
%LPD*%
M02*
