M48
; DRILL file {KiCad 7.0.5} date Sun Dec 10 00:27:43 2023
; FORMAT={-:-/ absolute / inch / decimal}
; #@! TF.CreationDate,2023-12-10T00:27:43-08:00
; #@! TF.GenerationSoftware,Kicad,Pcbnew,7.0.5
; #@! TF.FileFunction,Plated,1,4,PTH
FMAT,2
INCH
; #@! TA.AperFunction,Plated,PTH,ComponentDrill
T1C0.0315
; #@! TA.AperFunction,Plated,PTH,ComponentDrill
T2C0.0394
; #@! TA.AperFunction,Plated,PTH,ComponentDrill
T3C0.0433
; #@! TA.AperFunction,Plated,PTH,ComponentDrill
T4C0.1260
%
G90
G05
T2
X7.325Y-2.65
X7.325Y-2.75
X7.325Y-2.85
X7.325Y-2.95
X7.325Y-3.05
X7.325Y-3.15
X8.125Y-2.6504
X8.125Y-2.7504
X8.125Y-2.8504
X8.125Y-2.9504
T3
X7.36Y-3.815
X7.36Y-3.915
X7.36Y-4.015
X7.36Y-4.115
X7.36Y-4.215
X7.36Y-4.315
X8.065Y-3.615
X8.065Y-3.715
X8.065Y-3.815
X8.065Y-3.915
X8.065Y-4.015
X8.065Y-4.115
X8.065Y-4.215
X8.065Y-4.315
T4
X7.3465Y-2.4419
X7.3465Y-4.5679
X8.0945Y-2.4419
X8.0945Y-4.5679
T1
G00X7.9755Y-3.2127
M15
G01X7.9676Y-3.2127
M16
G05
G00X7.9755Y-3.4033
M15
G01X7.9676Y-3.4033
M16
G05
G00X8.0995Y-3.1663
M15
G01X8.0719Y-3.1663
M16
G05
G00X8.0995Y-3.4497
M15
G01X8.0719Y-3.4497
M16
G05
T0
M30
