%TF.GenerationSoftware,KiCad,Pcbnew,7.0.5*%
%TF.CreationDate,2023-12-10T00:27:40-08:00*%
%TF.ProjectId,Lyrav3,4c797261-7633-42e6-9b69-6361645f7063,rev?*%
%TF.SameCoordinates,Original*%
%TF.FileFunction,Legend,Bot*%
%TF.FilePolarity,Positive*%
%FSLAX46Y46*%
G04 Gerber Fmt 4.6, Leading zero omitted, Abs format (unit mm)*
G04 Created by KiCad (PCBNEW 7.0.5) date 2023-12-10 00:27:40*
%MOMM*%
%LPD*%
G01*
G04 APERTURE LIST*
%ADD10C,0.120000*%
%ADD11C,0.300000*%
%ADD12C,0.200000*%
%ADD13C,0.250000*%
%ADD14C,0.150000*%
%ADD15C,0.100000*%
G04 APERTURE END LIST*
D10*
%TO.C,Q5*%
X198071499Y-111288000D02*
X198721499Y-111288000D01*
X198071499Y-108168000D02*
X198721499Y-108168000D01*
X198071499Y-111288000D02*
X196396499Y-111288000D01*
X198071499Y-108168000D02*
X197421499Y-108168000D01*
%TO.C,Q4*%
X197866000Y-106208000D02*
X198516000Y-106208000D01*
X197866000Y-103088000D02*
X198516000Y-103088000D01*
X197866000Y-106208000D02*
X196191000Y-106208000D01*
X197866000Y-103088000D02*
X197216000Y-103088000D01*
%TO.C,Q3*%
X198198499Y-96302000D02*
X198848499Y-96302000D01*
X198198499Y-93182000D02*
X198848499Y-93182000D01*
X198198499Y-96302000D02*
X196523499Y-96302000D01*
X198198499Y-93182000D02*
X197548499Y-93182000D01*
%TO.C,Q2*%
X198198499Y-100874000D02*
X198848499Y-100874000D01*
X198198499Y-97754000D02*
X198848499Y-97754000D01*
X198198499Y-100874000D02*
X196523499Y-100874000D01*
X198198499Y-97754000D02*
X197548499Y-97754000D01*
%TO.C,U7*%
X190315000Y-97892000D02*
X190575000Y-97892000D01*
X195505000Y-97892000D02*
X195505000Y-99567000D01*
X195765000Y-95167000D02*
X195765000Y-97892000D01*
X195765000Y-97892000D02*
X195505000Y-97892000D01*
X190315000Y-92442000D02*
X190575000Y-92442000D01*
X190315000Y-95167000D02*
X190315000Y-92442000D01*
X190315000Y-95167000D02*
X190315000Y-97892000D01*
X195765000Y-92442000D02*
X195505000Y-92442000D01*
X195765000Y-95167000D02*
X195765000Y-92442000D01*
%TO.C,D3*%
X201129000Y-90510000D02*
X199429000Y-90510000D01*
X199429000Y-90510000D02*
X199429000Y-87850000D01*
X201129000Y-90510000D02*
X201129000Y-87850000D01*
%TO.C,U1*%
X198464000Y-117930000D02*
X198464000Y-116620000D01*
X195744000Y-117930000D02*
X198464000Y-117930000D01*
X195744000Y-117930000D02*
X195744000Y-117700000D01*
X198464000Y-114520000D02*
X198464000Y-113210000D01*
X194604000Y-117700000D02*
X195744000Y-117700000D01*
X195744000Y-113210000D02*
X195744000Y-113440000D01*
X198464000Y-113210000D02*
X195744000Y-113210000D01*
%TO.C,R27*%
X198103258Y-111745500D02*
X197628742Y-111745500D01*
X198103258Y-112790500D02*
X197628742Y-112790500D01*
%TO.C,R26*%
X197976258Y-102503500D02*
X197501742Y-102503500D01*
X197976258Y-101458500D02*
X197501742Y-101458500D01*
%TO.C,R25*%
X201722258Y-112253500D02*
X201247742Y-112253500D01*
X201722258Y-113298500D02*
X201247742Y-113298500D01*
%TO.C,R24*%
X201563500Y-101583258D02*
X201563500Y-101108742D01*
X200518500Y-101583258D02*
X200518500Y-101108742D01*
%TO.C,R23*%
X201247742Y-111774500D02*
X201722258Y-111774500D01*
X201247742Y-110729500D02*
X201722258Y-110729500D01*
%TO.C,R22*%
X202423500Y-66722258D02*
X202423500Y-66247742D01*
X203468500Y-66722258D02*
X203468500Y-66247742D01*
%TO.C,R21*%
X203087500Y-101108742D02*
X203087500Y-101583258D01*
X202042500Y-101108742D02*
X202042500Y-101583258D01*
%TO.C,R20*%
X201874658Y-109205500D02*
X201400142Y-109205500D01*
X201874658Y-110250500D02*
X201400142Y-110250500D01*
%TO.C,R19*%
X202040258Y-98537500D02*
X201565742Y-98537500D01*
X202040258Y-99582500D02*
X201565742Y-99582500D01*
%TO.C,R18*%
X199736942Y-83453500D02*
X200211458Y-83453500D01*
X199736942Y-82408500D02*
X200211458Y-82408500D01*
%TO.C,R17*%
X197849258Y-107710500D02*
X197374742Y-107710500D01*
X197849258Y-106665500D02*
X197374742Y-106665500D01*
%TO.C,R16*%
X198103258Y-91679500D02*
X197628742Y-91679500D01*
X198103258Y-92724500D02*
X197628742Y-92724500D01*
%TO.C,R15*%
X200186058Y-84977500D02*
X199711542Y-84977500D01*
X200186058Y-83932500D02*
X199711542Y-83932500D01*
%TO.C,R14*%
X191507428Y-59446900D02*
X191981944Y-59446900D01*
X191507428Y-60491900D02*
X191981944Y-60491900D01*
%TO.C,R13*%
X201811658Y-106665500D02*
X201337142Y-106665500D01*
X201811658Y-107710500D02*
X201337142Y-107710500D01*
%TO.C,R12*%
X202040258Y-98058500D02*
X201565742Y-98058500D01*
X202040258Y-97013500D02*
X201565742Y-97013500D01*
%TO.C,R11*%
X201286342Y-106186500D02*
X201760858Y-106186500D01*
X201286342Y-105141500D02*
X201760858Y-105141500D01*
%TO.C,R10*%
X201565742Y-95489500D02*
X202040258Y-95489500D01*
X201565742Y-96534500D02*
X202040258Y-96534500D01*
%TO.C,R9*%
X201773058Y-103668300D02*
X201298542Y-103668300D01*
X201773058Y-104713300D02*
X201298542Y-104713300D01*
%TO.C,R8*%
X202040258Y-93965500D02*
X201565742Y-93965500D01*
X202040258Y-95010500D02*
X201565742Y-95010500D01*
%TO.C,R7*%
X194053786Y-71910942D02*
X194053786Y-72385458D01*
X195098786Y-71910942D02*
X195098786Y-72385458D01*
%TO.C,R6*%
X195704786Y-71910943D02*
X195704786Y-72385459D01*
X196749786Y-71910943D02*
X196749786Y-72385459D01*
%TO.C,R5*%
X190305458Y-77582899D02*
X189830942Y-77582899D01*
X190305458Y-76537899D02*
X189830942Y-76537899D01*
%TO.C,R4*%
X189856342Y-75067900D02*
X190330858Y-75067900D01*
X189856342Y-76112900D02*
X190330858Y-76112900D01*
%TO.C,R3*%
X201610700Y-78697858D02*
X201610700Y-78223342D01*
X202655700Y-78697858D02*
X202655700Y-78223342D01*
%TO.C,R2*%
X188370942Y-85481900D02*
X188845458Y-85481900D01*
X188370942Y-86526900D02*
X188845458Y-86526900D01*
%TO.C,C28*%
X201928000Y-91821580D02*
X201928000Y-91540420D01*
X202948000Y-91821580D02*
X202948000Y-91540420D01*
%TO.C,C26*%
X193804000Y-79273980D02*
X193804000Y-78992820D01*
X192784000Y-79273980D02*
X192784000Y-78992820D01*
%TO.C,C25*%
X199757420Y-80897000D02*
X200038580Y-80897000D01*
X199757420Y-81917000D02*
X200038580Y-81917000D01*
%TO.C,C24*%
X188760980Y-84965000D02*
X188479820Y-84965000D01*
X188760980Y-83945000D02*
X188479820Y-83945000D01*
%TO.C,C23*%
X192164580Y-90172000D02*
X191883420Y-90172000D01*
X192164580Y-89152000D02*
X191883420Y-89152000D01*
%TO.C,C22*%
X196101580Y-90172000D02*
X195820420Y-90172000D01*
X196101580Y-89152000D02*
X195820420Y-89152000D01*
%TO.C,C21*%
X196492400Y-79223180D02*
X196492400Y-78942020D01*
X197512400Y-79223180D02*
X197512400Y-78942020D01*
%TO.C,C17*%
X199770420Y-85469000D02*
X200051580Y-85469000D01*
X199770420Y-86489000D02*
X200051580Y-86489000D01*
%TO.C,C16*%
X188735580Y-83441000D02*
X188454420Y-83441000D01*
X188735580Y-82421000D02*
X188454420Y-82421000D01*
%TO.C,C15*%
X194296420Y-108202000D02*
X194577580Y-108202000D01*
X194296420Y-109222000D02*
X194577580Y-109222000D01*
%TO.C,C14*%
X190664306Y-74496999D02*
X190945466Y-74496999D01*
X190664306Y-73476999D02*
X190945466Y-73476999D01*
%TO.C,C13*%
X191834466Y-69412999D02*
X191553306Y-69412999D01*
X191834466Y-70432999D02*
X191553306Y-70432999D01*
%TO.C,C12*%
X189409886Y-71854579D02*
X189409886Y-71573419D01*
X188389886Y-71854579D02*
X188389886Y-71573419D01*
%TO.C,C11*%
X191073086Y-62472180D02*
X191073086Y-62191020D01*
X190053086Y-62472180D02*
X190053086Y-62191020D01*
%TO.C,C10*%
X193548466Y-62532800D02*
X193267306Y-62532800D01*
X193548466Y-63552800D02*
X193267306Y-63552800D01*
%TO.C,C9*%
X198804506Y-64518000D02*
X199085666Y-64518000D01*
X198804506Y-63498000D02*
X199085666Y-63498000D01*
%TO.C,C8*%
X190894580Y-105281000D02*
X190613420Y-105281000D01*
X190894580Y-106301000D02*
X190613420Y-106301000D01*
%TO.C,C6*%
X192280000Y-114540420D02*
X192280000Y-114821580D01*
X191260000Y-114540420D02*
X191260000Y-114821580D01*
%TO.C,C5*%
X193931000Y-116191420D02*
X193931000Y-116472580D01*
X192911000Y-116191420D02*
X192911000Y-116472580D01*
%TO.C,C3*%
X197184486Y-63437380D02*
X197184486Y-63156220D01*
X196164486Y-63437380D02*
X196164486Y-63156220D01*
%TO.C,C2*%
X200838266Y-69848000D02*
X200557106Y-69848000D01*
X200838266Y-70868000D02*
X200557106Y-70868000D01*
%TO.C,C1*%
X201016066Y-75029600D02*
X200734906Y-75029600D01*
X201016066Y-76049600D02*
X200734906Y-76049600D01*
%TO.C,U5*%
X189831886Y-70854999D02*
X189831886Y-71354999D01*
X190331886Y-70854999D02*
X189831886Y-70854999D01*
X191531886Y-70854999D02*
X191531886Y-70854999D01*
X192031886Y-70854999D02*
X191531886Y-70854999D01*
X189831886Y-71354999D02*
X189831886Y-71354999D01*
X192031886Y-71354999D02*
X192031886Y-70854999D01*
X189831886Y-72554999D02*
X189831886Y-73054999D01*
X192031886Y-72554999D02*
X192031886Y-73054999D01*
X189831886Y-73054999D02*
X190331886Y-73054999D01*
X190331886Y-73054999D02*
X190331886Y-73054999D01*
X192031886Y-73054999D02*
X192031886Y-73054999D01*
%TO.C,J5*%
X188303800Y-94574000D02*
X188303800Y-93524000D01*
X185803800Y-94574000D02*
X188303800Y-94574000D01*
X188303800Y-93524000D02*
X189293800Y-93524000D01*
X183833800Y-93404000D02*
X183833800Y-90524000D01*
X188303800Y-89354000D02*
X188303800Y-90404000D01*
X185803800Y-89354000D02*
X188303800Y-89354000D01*
%TO.C,U8*%
X190662000Y-81188000D02*
X191312000Y-81188000D01*
X197882000Y-81188000D02*
X197232000Y-81188000D01*
X190662000Y-81838000D02*
X190662000Y-81188000D01*
X197882000Y-81838000D02*
X197882000Y-81188000D01*
X190662000Y-87758000D02*
X190662000Y-88408000D01*
X197882000Y-87758000D02*
X197882000Y-88408000D01*
X190662000Y-88408000D02*
X191312000Y-88408000D01*
%TO.C,Q1*%
X192075200Y-102994700D02*
X192075200Y-103644700D01*
X192075200Y-102994700D02*
X192075200Y-102344700D01*
X188955200Y-102994700D02*
X188955200Y-103644700D01*
X188955200Y-102994700D02*
X188955200Y-101319700D01*
D11*
%TO.C,X1*%
X183319200Y-88107600D02*
G75*
G03*
X183319200Y-88107600I0J0D01*
G01*
D12*
X183669200Y-84107600D02*
X187069200Y-84107600D01*
X187069200Y-84107600D02*
X187069200Y-88307600D01*
X183669200Y-88307600D02*
X183669200Y-84107600D01*
X187069200Y-88307600D02*
X183669200Y-88307600D01*
D10*
%TO.C,C7*%
X190894580Y-107774200D02*
X190613420Y-107774200D01*
X190894580Y-106754200D02*
X190613420Y-106754200D01*
D13*
%TO.C,J7*%
X207927100Y-88253200D02*
X208257100Y-87923200D01*
X208257100Y-87923200D02*
X208177100Y-87923200D01*
X208177100Y-87923200D02*
X207527100Y-87273200D01*
X207527100Y-87853200D02*
X207927100Y-88253200D01*
X207527100Y-87773200D02*
X207527100Y-87853200D01*
X207527100Y-87773200D02*
X207527100Y-80273200D01*
X202407100Y-87773200D02*
X207527100Y-87773200D01*
X202407100Y-87273200D02*
X202407100Y-87773200D01*
X208257100Y-86623200D02*
X207527100Y-86623200D01*
X208257100Y-81583200D02*
X208257100Y-86623200D01*
X207527100Y-81583200D02*
X208257100Y-81583200D01*
X207527100Y-80273200D02*
X202407100Y-80273200D01*
X207527100Y-80273200D02*
X207527100Y-80193200D01*
X202407100Y-80273200D02*
X202407100Y-80773200D01*
X207527100Y-80193200D02*
X207927100Y-79793200D01*
X208257100Y-80163200D02*
X207527100Y-80893200D01*
X208257100Y-80123200D02*
X208257100Y-80163200D01*
X207927100Y-79793200D02*
X208257100Y-80123200D01*
D10*
%TO.C,J4*%
X200431687Y-60152000D02*
G75*
G03*
X199731687Y-59452000I-700000J0D01*
G01*
X199731687Y-61452000D02*
G75*
G03*
X200431687Y-60752000I0J700000D01*
G01*
X198331687Y-59452000D02*
G75*
G03*
X197631687Y-60152000I-1J-699999D01*
G01*
X197631687Y-60752000D02*
G75*
G03*
X198331687Y-61452000I699999J-1D01*
G01*
X200431687Y-60752000D02*
X200431687Y-60152000D01*
X199731687Y-59452000D02*
X198331687Y-59452000D01*
X198331687Y-61452000D02*
X199731687Y-61452000D01*
X197631687Y-60152000D02*
X197631687Y-60752000D01*
D13*
%TO.C,U2*%
X202945486Y-71170200D02*
G75*
G03*
X202945486Y-71170200I-110000J0D01*
G01*
D12*
X203095486Y-74470200D02*
X203095486Y-73280200D01*
X202635486Y-74470200D02*
X203095486Y-74470200D01*
X198525486Y-74470200D02*
X198975486Y-74470200D01*
X198525486Y-73330200D02*
X198525486Y-74470200D01*
X203095486Y-72620200D02*
X203095486Y-71420200D01*
X203095486Y-71420200D02*
X202635486Y-71420200D01*
X198975486Y-71420200D02*
X198645486Y-71420200D01*
X198645486Y-71420200D02*
X198525486Y-71420200D01*
X198525486Y-71420200D02*
X198525486Y-72570200D01*
D13*
%TO.C,U4*%
X189991600Y-63821600D02*
G75*
G03*
X189991600Y-63821600I-120000J0D01*
G01*
D14*
X194451600Y-64831600D02*
X194281600Y-64831600D01*
X194451600Y-65871600D02*
X194451600Y-64831600D01*
X194451600Y-66951600D02*
X194451600Y-67991600D01*
X194451600Y-67991600D02*
X194281600Y-67991600D01*
X189291600Y-64831600D02*
X189461600Y-64831600D01*
X189291600Y-65871600D02*
X189291600Y-64831600D01*
X189291600Y-66951600D02*
X189291600Y-67991600D01*
X189291600Y-67991600D02*
X189461600Y-67991600D01*
D10*
%TO.C,J3*%
X196524686Y-60152000D02*
G75*
G03*
X195824686Y-59452000I-700000J0D01*
G01*
X195824686Y-61452000D02*
G75*
G03*
X196524686Y-60752000I0J700000D01*
G01*
X194424686Y-59452000D02*
G75*
G03*
X193724686Y-60152000I-1J-699999D01*
G01*
X193724686Y-60752000D02*
G75*
G03*
X194424686Y-61452000I699999J-1D01*
G01*
X196524686Y-60752000D02*
X196524686Y-60152000D01*
X195824686Y-59452000D02*
X194424686Y-59452000D01*
X194424686Y-61452000D02*
X195824686Y-61452000D01*
X193724686Y-60152000D02*
X193724686Y-60752000D01*
D15*
%TO.C,U6*%
X193297000Y-107450000D02*
X193297000Y-107010000D01*
X193297000Y-106360000D02*
X193297000Y-105920000D01*
X193297000Y-105920000D02*
X193387000Y-105920000D01*
X193387000Y-107450000D02*
X193297000Y-107450000D01*
X195487000Y-105920000D02*
X195577000Y-105920000D01*
X195577000Y-107450000D02*
X195487000Y-107450000D01*
X195577000Y-107010000D02*
X195577000Y-107450000D01*
X195577000Y-105920000D02*
X195577000Y-106360000D01*
X193377000Y-105790000D02*
G75*
G03*
X193377000Y-105790000I-80000J0D01*
G01*
D10*
%TO.C,U3*%
X196553686Y-66834400D02*
X196553686Y-68334400D01*
X201773686Y-65334400D02*
X201773686Y-68334400D01*
%TO.C,C4*%
X201731086Y-63437380D02*
X201731086Y-63156220D01*
X200711086Y-63437380D02*
X200711086Y-63156220D01*
%TD*%
M02*
