%TF.GenerationSoftware,KiCad,Pcbnew,7.0.5*%
%TF.CreationDate,2023-12-10T00:27:40-08:00*%
%TF.ProjectId,Lyrav3,4c797261-7633-42e6-9b69-6361645f7063,rev?*%
%TF.SameCoordinates,Original*%
%TF.FileFunction,Copper,L1,Top*%
%TF.FilePolarity,Positive*%
%FSLAX46Y46*%
G04 Gerber Fmt 4.6, Leading zero omitted, Abs format (unit mm)*
G04 Created by KiCad (PCBNEW 7.0.5) date 2023-12-10 00:27:40*
%MOMM*%
%LPD*%
G01*
G04 APERTURE LIST*
G04 Aperture macros list*
%AMRoundRect*
0 Rectangle with rounded corners*
0 $1 Rounding radius*
0 $2 $3 $4 $5 $6 $7 $8 $9 X,Y pos of 4 corners*
0 Add a 4 corners polygon primitive as box body*
4,1,4,$2,$3,$4,$5,$6,$7,$8,$9,$2,$3,0*
0 Add four circle primitives for the rounded corners*
1,1,$1+$1,$2,$3*
1,1,$1+$1,$4,$5*
1,1,$1+$1,$6,$7*
1,1,$1+$1,$8,$9*
0 Add four rect primitives between the rounded corners*
20,1,$1+$1,$2,$3,$4,$5,0*
20,1,$1+$1,$4,$5,$6,$7,0*
20,1,$1+$1,$6,$7,$8,$9,0*
20,1,$1+$1,$8,$9,$2,$3,0*%
G04 Aperture macros list end*
%TA.AperFunction,SMDPad,CuDef*%
%ADD10R,1.000000X0.800000*%
%TD*%
%TA.AperFunction,SMDPad,CuDef*%
%ADD11R,3.400000X1.300000*%
%TD*%
%TA.AperFunction,SMDPad,CuDef*%
%ADD12RoundRect,0.225000X-0.225000X-0.250000X0.225000X-0.250000X0.225000X0.250000X-0.225000X0.250000X0*%
%TD*%
%TA.AperFunction,SMDPad,CuDef*%
%ADD13RoundRect,0.243750X-0.456250X0.243750X-0.456250X-0.243750X0.456250X-0.243750X0.456250X0.243750X0*%
%TD*%
%TA.AperFunction,ComponentPad*%
%ADD14C,5.600000*%
%TD*%
%TA.AperFunction,ComponentPad*%
%ADD15R,1.700000X1.700000*%
%TD*%
%TA.AperFunction,ComponentPad*%
%ADD16O,1.700000X1.700000*%
%TD*%
%TA.AperFunction,ComponentPad*%
%ADD17R,2.200000X2.200000*%
%TD*%
%TA.AperFunction,ComponentPad*%
%ADD18C,2.200000*%
%TD*%
%TA.AperFunction,ComponentPad*%
%ADD19O,1.900000X1.200000*%
%TD*%
%TA.AperFunction,ComponentPad*%
%ADD20O,1.400000X1.200000*%
%TD*%
G04 APERTURE END LIST*
D10*
%TO.P,D4,1,A*%
%TO.N,Net-(D4-A)*%
X187819600Y-86165600D03*
%TO.P,D4,2,RK*%
%TO.N,/LEDRED*%
X187819600Y-87265600D03*
%TO.P,D4,3,GK*%
%TO.N,/LEDGREEN*%
X189319600Y-87265600D03*
%TO.P,D4,4,BK*%
%TO.N,/LEDBLUE*%
X189319600Y-86165600D03*
%TD*%
D11*
%TO.P,LS1,1,+*%
%TO.N,/BUZZER*%
X193649600Y-79298801D03*
%TO.P,LS1,2,-*%
%TO.N,GND*%
X193649600Y-70598801D03*
%TD*%
D12*
%TO.P,C20,2*%
%TO.N,GND*%
X199263000Y-84912200D03*
%TO.P,C20,1*%
%TO.N,+3V3*%
X197713000Y-84912200D03*
%TD*%
%TO.P,C19,2*%
%TO.N,GND*%
X199250600Y-81915000D03*
%TO.P,C19,1*%
%TO.N,+3V3*%
X197700600Y-81915000D03*
%TD*%
%TO.P,C18,1*%
%TO.N,+1V1*%
X197700600Y-83439000D03*
%TO.P,C18,2*%
%TO.N,GND*%
X199250600Y-83439000D03*
%TD*%
D13*
%TO.P,D2,1,K*%
%TO.N,GND*%
X202184000Y-77294500D03*
%TO.P,D2,2,A*%
%TO.N,Net-(D2-A)*%
X202184000Y-79169500D03*
%TD*%
D14*
%TO.P,H3,1,1*%
%TO.N,GND*%
X186600000Y-116025000D03*
%TD*%
D15*
%TO.P,J8,1,Pin_1*%
%TO.N,/BRKOUT1*%
X206375000Y-67320000D03*
D16*
%TO.P,J8,2,Pin_2*%
%TO.N,/BRKOUT2*%
X206375000Y-69860000D03*
%TO.P,J8,3,Pin_3*%
%TO.N,/BRKOUT3*%
X206375000Y-72400000D03*
%TO.P,J8,4,Pin_4*%
%TO.N,/BRKOUT4*%
X206375000Y-74940000D03*
%TD*%
D17*
%TO.P,J1,1,Pin_1*%
%TO.N,/P4-*%
X204851000Y-109601000D03*
D18*
%TO.P,J1,2,Pin_2*%
%TO.N,/PYRO PWR*%
X204851000Y-107061000D03*
%TO.P,J1,3,Pin_3*%
%TO.N,/P3-*%
X204851000Y-104521000D03*
%TO.P,J1,4,Pin_4*%
%TO.N,/PYRO PWR*%
X204851000Y-101981000D03*
%TO.P,J1,5,Pin_5*%
%TO.N,/P2-*%
X204851000Y-99441000D03*
%TO.P,J1,6,Pin_6*%
%TO.N,/PYRO PWR*%
X204851000Y-96901000D03*
%TO.P,J1,7,Pin_7*%
%TO.N,/P1-*%
X204851000Y-94361000D03*
%TO.P,J1,8,Pin_8*%
%TO.N,/PYRO PWR*%
X204851000Y-91821000D03*
%TD*%
D19*
%TO.P,J7,9*%
%TO.N,N/C*%
X205377100Y-87623200D03*
%TO.P,J7,8*%
X205377100Y-80423200D03*
D20*
%TO.P,J7,7*%
X202477100Y-81603200D03*
%TO.P,J7,6,Shield*%
%TO.N,unconnected-(J7-Shield-Pad6)*%
X202477100Y-86443200D03*
%TD*%
D14*
%TO.P,H1,1,1*%
%TO.N,GND*%
X186600000Y-62025000D03*
%TD*%
D13*
%TO.P,F1,2*%
%TO.N,+12VA*%
X191643000Y-103934500D03*
%TO.P,F1,1*%
%TO.N,+12P*%
X191643000Y-102059500D03*
%TD*%
D14*
%TO.P,H2,1,1*%
%TO.N,GND*%
X205600000Y-62025000D03*
%TD*%
%TO.P,H4,1,1*%
%TO.N,GND*%
X205600000Y-116025000D03*
%TD*%
D17*
%TO.P,J2,1,Pin_1*%
%TO.N,/PYRO PWR*%
X186944000Y-96901000D03*
D18*
%TO.P,J2,2,Pin_2*%
%TO.N,+12P*%
X186944000Y-99441000D03*
%TO.P,J2,3,Pin_3*%
%TO.N,+12V*%
X186944000Y-101981000D03*
%TO.P,J2,4,Pin_4*%
%TO.N,+BATT*%
X186944000Y-104521000D03*
%TO.P,J2,5,Pin_5*%
%TO.N,GND*%
X186944000Y-107061000D03*
%TO.P,J2,6,Pin_6*%
%TO.N,+BATT*%
X186944000Y-109601000D03*
%TD*%
D15*
%TO.P,J6,1,Pin_1*%
%TO.N,/BRKOUT7*%
X186055000Y-67310000D03*
D16*
%TO.P,J6,2,Pin_2*%
%TO.N,/BRKOUT6*%
X186055000Y-69850000D03*
%TO.P,J6,3,Pin_3*%
%TO.N,/BRKOUT5*%
X186055000Y-72390000D03*
%TO.P,J6,4,Pin_4*%
%TO.N,+12VA*%
X186055000Y-74930000D03*
%TO.P,J6,5,Pin_5*%
%TO.N,+3V3*%
X186055000Y-77470000D03*
%TO.P,J6,6,Pin_6*%
%TO.N,GND*%
X186055000Y-80010000D03*
%TD*%
M02*
