%TF.GenerationSoftware,KiCad,Pcbnew,7.0.5*%
%TF.CreationDate,2023-12-10T00:27:40-08:00*%
%TF.ProjectId,Lyrav3,4c797261-7633-42e6-9b69-6361645f7063,rev?*%
%TF.SameCoordinates,Original*%
%TF.FileFunction,Legend,Top*%
%TF.FilePolarity,Positive*%
%FSLAX46Y46*%
G04 Gerber Fmt 4.6, Leading zero omitted, Abs format (unit mm)*
G04 Created by KiCad (PCBNEW 7.0.5) date 2023-12-10 00:27:40*
%MOMM*%
%LPD*%
G01*
G04 APERTURE LIST*
%ADD10C,0.500000*%
%ADD11C,0.200000*%
%ADD12C,0.700000*%
%ADD13C,0.254000*%
%ADD14C,0.120000*%
%ADD15C,0.100000*%
G04 APERTURE END LIST*
D10*
G36*
X198374337Y-68317977D02*
G01*
X193033963Y-68317977D01*
X193033963Y-65281425D01*
X194069677Y-65281425D01*
X194739879Y-67251000D01*
X195243020Y-67251000D01*
X195265738Y-67185054D01*
X196082727Y-67185054D01*
X196107046Y-67196825D01*
X196132255Y-67207837D01*
X196158352Y-67218090D01*
X196185339Y-67227583D01*
X196213215Y-67236316D01*
X196241981Y-67244290D01*
X196271635Y-67251505D01*
X196302179Y-67257960D01*
X196333612Y-67263656D01*
X196365934Y-67268593D01*
X196399145Y-67272770D01*
X196433246Y-67276187D01*
X196468235Y-67278845D01*
X196504114Y-67280744D01*
X196540882Y-67281883D01*
X196578540Y-67282263D01*
X196600646Y-67282105D01*
X196622450Y-67281633D01*
X196643953Y-67280846D01*
X196665154Y-67279744D01*
X196686054Y-67278327D01*
X196706653Y-67276595D01*
X196726950Y-67274549D01*
X196746945Y-67272188D01*
X196766639Y-67269511D01*
X196786032Y-67266520D01*
X196823912Y-67259594D01*
X196860587Y-67251408D01*
X196896055Y-67241963D01*
X196930318Y-67231258D01*
X196963375Y-67219294D01*
X196995226Y-67206070D01*
X197025870Y-67191587D01*
X197055309Y-67175845D01*
X197083542Y-67158844D01*
X197110569Y-67140583D01*
X197136390Y-67121062D01*
X197160879Y-67100401D01*
X197183789Y-67078839D01*
X197205118Y-67056376D01*
X197224867Y-67033013D01*
X197243037Y-67008749D01*
X197259626Y-66983584D01*
X197274636Y-66957519D01*
X197288065Y-66930553D01*
X197299915Y-66902686D01*
X197310184Y-66873919D01*
X197318874Y-66844251D01*
X197325984Y-66813683D01*
X197331514Y-66782214D01*
X197335463Y-66749844D01*
X197337833Y-66716573D01*
X197338623Y-66682402D01*
X197338150Y-66659668D01*
X197336730Y-66637385D01*
X197334364Y-66615552D01*
X197331052Y-66594169D01*
X197326793Y-66573237D01*
X197321587Y-66552755D01*
X197315436Y-66532723D01*
X197308337Y-66513142D01*
X197300293Y-66494011D01*
X197291301Y-66475330D01*
X197281364Y-66457100D01*
X197270480Y-66439319D01*
X197258649Y-66421990D01*
X197245872Y-66405110D01*
X197232149Y-66388681D01*
X197217479Y-66372702D01*
X197202052Y-66357338D01*
X197185933Y-66342752D01*
X197169125Y-66328945D01*
X197151625Y-66315916D01*
X197133435Y-66303665D01*
X197114553Y-66292194D01*
X197094982Y-66281500D01*
X197074719Y-66271586D01*
X197053766Y-66262449D01*
X197032121Y-66254092D01*
X197009787Y-66246513D01*
X196986761Y-66239712D01*
X196963045Y-66233690D01*
X196938638Y-66228446D01*
X196913540Y-66223981D01*
X196887751Y-66220295D01*
X196887751Y-66213456D01*
X196911854Y-66207132D01*
X196935191Y-66200252D01*
X196957764Y-66192814D01*
X196979571Y-66184818D01*
X197000613Y-66176266D01*
X197020890Y-66167157D01*
X197040402Y-66157490D01*
X197059148Y-66147266D01*
X197077130Y-66136485D01*
X197094346Y-66125147D01*
X197110797Y-66113251D01*
X197126483Y-66100799D01*
X197141404Y-66087789D01*
X197155560Y-66074222D01*
X197181575Y-66045417D01*
X197204530Y-66014383D01*
X197224425Y-65981120D01*
X197233224Y-65963653D01*
X197241258Y-65945628D01*
X197248527Y-65927047D01*
X197255031Y-65907908D01*
X197260770Y-65888212D01*
X197265744Y-65867959D01*
X197269952Y-65847149D01*
X197273395Y-65825781D01*
X197276073Y-65803857D01*
X197277986Y-65781375D01*
X197279134Y-65758336D01*
X197279517Y-65734740D01*
X197278858Y-65708129D01*
X197276883Y-65682151D01*
X197273592Y-65656807D01*
X197268984Y-65632097D01*
X197263059Y-65608020D01*
X197255817Y-65584576D01*
X197247259Y-65561766D01*
X197237385Y-65539590D01*
X197226193Y-65518047D01*
X197213686Y-65497137D01*
X197199861Y-65476861D01*
X197184720Y-65457219D01*
X197168262Y-65438210D01*
X197150488Y-65419835D01*
X197131397Y-65402093D01*
X197110989Y-65384984D01*
X197089459Y-65368658D01*
X197066880Y-65353385D01*
X197043252Y-65339166D01*
X197018574Y-65326000D01*
X196992846Y-65313887D01*
X196966069Y-65302827D01*
X196938243Y-65292821D01*
X196909367Y-65283868D01*
X196879441Y-65275968D01*
X196848466Y-65269121D01*
X196816442Y-65263328D01*
X196783368Y-65258588D01*
X196749244Y-65254902D01*
X196714072Y-65252269D01*
X196677849Y-65250689D01*
X196640577Y-65250162D01*
X196606345Y-65250578D01*
X196572647Y-65251826D01*
X196539484Y-65253906D01*
X196506854Y-65256818D01*
X196474759Y-65260561D01*
X196443199Y-65265137D01*
X196412172Y-65270545D01*
X196381680Y-65276785D01*
X196351722Y-65283856D01*
X196322298Y-65291760D01*
X196293409Y-65300495D01*
X196265054Y-65310063D01*
X196237233Y-65320462D01*
X196209947Y-65331693D01*
X196183194Y-65343757D01*
X196156976Y-65356652D01*
X196156976Y-65719108D01*
X196180346Y-65703965D01*
X196203802Y-65689799D01*
X196227347Y-65676610D01*
X196250979Y-65664398D01*
X196274700Y-65653163D01*
X196298508Y-65642905D01*
X196322403Y-65633623D01*
X196346387Y-65625319D01*
X196370458Y-65617992D01*
X196394617Y-65611642D01*
X196418864Y-65606268D01*
X196443199Y-65601872D01*
X196467621Y-65598452D01*
X196492131Y-65596010D01*
X196516729Y-65594545D01*
X196541415Y-65594056D01*
X196577202Y-65594943D01*
X196610680Y-65597605D01*
X196641850Y-65602042D01*
X196670711Y-65608253D01*
X196697263Y-65616238D01*
X196721506Y-65625998D01*
X196743440Y-65637533D01*
X196763065Y-65650842D01*
X196780382Y-65665926D01*
X196795389Y-65682785D01*
X196808088Y-65701418D01*
X196818478Y-65721826D01*
X196826559Y-65744008D01*
X196832331Y-65767965D01*
X196835794Y-65793696D01*
X196836949Y-65821202D01*
X196835447Y-65850482D01*
X196830942Y-65877874D01*
X196823433Y-65903376D01*
X196812921Y-65926990D01*
X196799406Y-65948714D01*
X196782887Y-65968549D01*
X196763365Y-65986495D01*
X196740839Y-66002552D01*
X196715310Y-66016720D01*
X196686777Y-66028999D01*
X196655241Y-66039389D01*
X196620702Y-66047890D01*
X196583159Y-66054501D01*
X196563262Y-66057099D01*
X196542613Y-66059224D01*
X196521214Y-66060877D01*
X196499063Y-66062058D01*
X196476162Y-66062766D01*
X196452510Y-66063002D01*
X196283494Y-66063002D01*
X196283494Y-66406896D01*
X196466188Y-66406896D01*
X196478622Y-66406964D01*
X196502989Y-66407510D01*
X196526688Y-66408602D01*
X196549719Y-66410239D01*
X196572083Y-66412422D01*
X196593779Y-66415150D01*
X196614806Y-66418425D01*
X196635166Y-66422245D01*
X196654858Y-66426611D01*
X196683144Y-66434183D01*
X196709927Y-66442983D01*
X196735208Y-66453010D01*
X196758986Y-66464266D01*
X196781261Y-66476750D01*
X196795162Y-66485651D01*
X196814332Y-66499869D01*
X196831484Y-66515126D01*
X196846618Y-66531422D01*
X196859734Y-66548757D01*
X196870832Y-66567131D01*
X196879912Y-66586544D01*
X196886975Y-66606996D01*
X196892020Y-66628487D01*
X196895046Y-66651017D01*
X196896055Y-66674586D01*
X196895693Y-66689943D01*
X196893789Y-66712177D01*
X196890255Y-66733449D01*
X196885088Y-66753759D01*
X196878290Y-66773108D01*
X196869861Y-66791495D01*
X196859801Y-66808920D01*
X196848108Y-66825383D01*
X196834785Y-66840885D01*
X196819830Y-66855425D01*
X196803243Y-66869004D01*
X196797371Y-66873271D01*
X196778895Y-66885261D01*
X196759131Y-66896032D01*
X196738080Y-66905583D01*
X196715740Y-66913915D01*
X196692113Y-66921027D01*
X196667197Y-66926921D01*
X196640993Y-66931595D01*
X196613502Y-66935049D01*
X196584722Y-66937285D01*
X196564820Y-66938098D01*
X196544346Y-66938369D01*
X196511630Y-66937880D01*
X196479430Y-66936415D01*
X196447746Y-66933972D01*
X196416576Y-66930553D01*
X196385922Y-66926157D01*
X196355783Y-66920783D01*
X196326159Y-66914433D01*
X196297050Y-66907106D01*
X196268456Y-66898801D01*
X196240378Y-66889520D01*
X196212815Y-66879262D01*
X196185767Y-66868027D01*
X196159234Y-66855815D01*
X196133216Y-66842625D01*
X196107714Y-66828459D01*
X196082727Y-66813316D01*
X196082727Y-67185054D01*
X195265738Y-67185054D01*
X195921526Y-65281425D01*
X195456976Y-65281425D01*
X195049091Y-66646743D01*
X195043156Y-66667192D01*
X195037625Y-66687323D01*
X195032497Y-66707137D01*
X195027773Y-66726633D01*
X195022102Y-66752133D01*
X195017149Y-66777069D01*
X195012912Y-66801440D01*
X195009394Y-66825246D01*
X195006593Y-66848487D01*
X194998288Y-66848487D01*
X194996174Y-66826826D01*
X194993251Y-66804340D01*
X194989519Y-66781030D01*
X194984977Y-66756896D01*
X194979627Y-66731938D01*
X194975083Y-66712678D01*
X194970084Y-66692954D01*
X194964630Y-66672767D01*
X194958721Y-66652116D01*
X194547905Y-65281425D01*
X194069677Y-65281425D01*
X193033963Y-65281425D01*
X193033963Y-64214448D01*
X198374337Y-64214448D01*
X198374337Y-68317977D01*
G37*
D11*
X189865000Y-111760000D02*
X202311000Y-111760000D01*
X202311000Y-118745000D01*
X189865000Y-118745000D01*
X189865000Y-111760000D01*
G36*
X189865000Y-111760000D02*
G01*
X202311000Y-111760000D01*
X202311000Y-118745000D01*
X189865000Y-118745000D01*
X189865000Y-111760000D01*
G37*
D12*
G36*
X192159598Y-63686800D02*
G01*
X189812912Y-63686800D01*
X189812912Y-59747651D01*
X190700979Y-59747651D01*
X190700979Y-62936485D01*
X192159598Y-62936485D01*
X192159598Y-63686800D01*
G37*
G36*
X195445152Y-59747651D02*
G01*
X194161412Y-62285823D01*
X194161412Y-63686800D01*
X193274322Y-63686800D01*
X193274322Y-62302431D01*
X192023799Y-59747651D01*
X193037895Y-59747651D01*
X193671949Y-61217016D01*
X193685851Y-61259030D01*
X193697515Y-61298734D01*
X193708872Y-61338912D01*
X193722031Y-61386570D01*
X193733082Y-61427222D01*
X193745146Y-61472082D01*
X193758223Y-61521149D01*
X193762808Y-61538439D01*
X193773554Y-61538439D01*
X193782805Y-61490430D01*
X193792483Y-61445078D01*
X193802589Y-61402381D01*
X193813122Y-61362340D01*
X193826889Y-61316025D01*
X193841324Y-61273860D01*
X193856427Y-61235844D01*
X193859528Y-61228739D01*
X194505306Y-59747651D01*
X195445152Y-59747651D01*
G37*
G36*
X197169816Y-59748700D02*
G01*
X197255251Y-59751849D01*
X197337886Y-59757096D01*
X197417719Y-59764443D01*
X197494751Y-59773888D01*
X197568981Y-59785432D01*
X197640411Y-59799075D01*
X197709039Y-59814818D01*
X197774867Y-59832659D01*
X197837893Y-59852599D01*
X197898118Y-59874638D01*
X197955541Y-59898776D01*
X198010164Y-59925013D01*
X198061985Y-59953349D01*
X198111006Y-59983784D01*
X198157225Y-60016318D01*
X198200643Y-60050951D01*
X198241260Y-60087683D01*
X198279075Y-60126513D01*
X198314090Y-60167443D01*
X198346303Y-60210472D01*
X198375715Y-60255600D01*
X198402326Y-60302826D01*
X198426136Y-60352152D01*
X198447145Y-60403576D01*
X198465353Y-60457100D01*
X198480759Y-60512722D01*
X198493364Y-60570444D01*
X198503168Y-60630264D01*
X198510171Y-60692184D01*
X198514373Y-60756202D01*
X198515773Y-60822319D01*
X198514781Y-60873366D01*
X198511804Y-60923436D01*
X198506843Y-60972529D01*
X198499898Y-61020645D01*
X198490968Y-61067783D01*
X198480053Y-61113945D01*
X198467154Y-61159130D01*
X198452270Y-61203338D01*
X198435814Y-61246523D01*
X198417710Y-61288640D01*
X198397957Y-61329688D01*
X198376555Y-61369668D01*
X198353505Y-61408579D01*
X198328806Y-61446421D01*
X198302458Y-61483195D01*
X198274462Y-61518900D01*
X198244878Y-61553476D01*
X198213767Y-61586861D01*
X198181130Y-61619055D01*
X198146967Y-61650058D01*
X198111277Y-61679871D01*
X198074060Y-61708493D01*
X198035317Y-61735925D01*
X197995048Y-61762166D01*
X197953679Y-61786880D01*
X197911150Y-61810221D01*
X197867461Y-61832187D01*
X197822612Y-61852780D01*
X197776603Y-61871999D01*
X197729434Y-61889844D01*
X197681104Y-61906315D01*
X197631614Y-61921412D01*
X197631614Y-61932159D01*
X197669802Y-61945763D01*
X197707429Y-61962640D01*
X197744495Y-61982789D01*
X197780999Y-62006210D01*
X197801607Y-62021063D01*
X197837611Y-62048973D01*
X197867951Y-62074458D01*
X197897809Y-62101386D01*
X197927187Y-62129756D01*
X197956084Y-62159569D01*
X197960854Y-62164678D01*
X197989556Y-62195899D01*
X198017778Y-62228013D01*
X198045518Y-62261020D01*
X198072778Y-62294921D01*
X198099557Y-62329714D01*
X198108376Y-62341510D01*
X198134308Y-62376875D01*
X198159347Y-62411898D01*
X198183492Y-62446576D01*
X198206745Y-62480912D01*
X198229105Y-62514903D01*
X198236360Y-62526157D01*
X198980812Y-63686800D01*
X197960854Y-63686800D01*
X197348293Y-62678565D01*
X197327041Y-62643159D01*
X197306027Y-62608994D01*
X197281126Y-62569633D01*
X197256568Y-62532057D01*
X197232354Y-62496268D01*
X197216401Y-62473401D01*
X197192553Y-62440291D01*
X197168637Y-62409104D01*
X197140647Y-62375151D01*
X197112564Y-62343815D01*
X197088418Y-62319040D01*
X197059928Y-62292279D01*
X197026680Y-62265244D01*
X196992700Y-62241995D01*
X196957987Y-62222532D01*
X196953596Y-62220365D01*
X196913574Y-62203836D01*
X196871542Y-62192716D01*
X196832494Y-62187374D01*
X196802166Y-62186171D01*
X196562808Y-62186171D01*
X196562808Y-63686800D01*
X195674741Y-63686800D01*
X195674741Y-60435439D01*
X196562808Y-60435439D01*
X196562808Y-61498384D01*
X196947734Y-61498384D01*
X197000236Y-61496975D01*
X197050763Y-61492751D01*
X197099315Y-61485710D01*
X197145892Y-61475852D01*
X197190494Y-61463178D01*
X197233121Y-61447688D01*
X197273773Y-61429381D01*
X197312450Y-61408258D01*
X197349152Y-61384318D01*
X197383880Y-61357562D01*
X197405934Y-61338160D01*
X197437361Y-61307074D01*
X197465697Y-61274630D01*
X197490942Y-61240830D01*
X197513095Y-61205674D01*
X197532158Y-61169160D01*
X197548129Y-61131290D01*
X197561009Y-61092064D01*
X197570798Y-61051480D01*
X197577495Y-61009540D01*
X197581102Y-60966243D01*
X197581789Y-60936625D01*
X197579373Y-60875935D01*
X197572126Y-60819159D01*
X197560047Y-60766300D01*
X197543137Y-60717356D01*
X197521396Y-60672328D01*
X197494823Y-60631215D01*
X197463419Y-60594017D01*
X197427183Y-60560735D01*
X197386116Y-60531369D01*
X197340217Y-60505918D01*
X197289487Y-60484383D01*
X197233926Y-60466763D01*
X197173533Y-60453059D01*
X197108309Y-60443270D01*
X197038253Y-60437396D01*
X196963366Y-60435439D01*
X196562808Y-60435439D01*
X195674741Y-60435439D01*
X195674741Y-59747651D01*
X197081579Y-59747651D01*
X197169816Y-59748700D01*
G37*
G36*
X202793931Y-63686800D02*
G01*
X201826729Y-63686800D01*
X201546339Y-62873959D01*
X200145362Y-62873959D01*
X199867902Y-63686800D01*
X198905585Y-63686800D01*
X199474710Y-62123645D01*
X200334894Y-62123645D01*
X201343129Y-62123645D01*
X200920100Y-60805711D01*
X200908804Y-60767685D01*
X200898362Y-60727858D01*
X200888776Y-60686230D01*
X200880044Y-60642801D01*
X200872167Y-60597570D01*
X200865145Y-60550538D01*
X200858978Y-60501705D01*
X200853666Y-60451070D01*
X200832173Y-60451070D01*
X200828097Y-60494255D01*
X200822708Y-60537349D01*
X200816007Y-60580351D01*
X200807993Y-60623261D01*
X200798666Y-60666080D01*
X200788026Y-60708808D01*
X200776073Y-60751443D01*
X200762808Y-60793987D01*
X200334894Y-62123645D01*
X199474710Y-62123645D01*
X200339779Y-59747651D01*
X201391977Y-59747651D01*
X202793931Y-63686800D01*
G37*
D13*
%TO.C,LS1*%
X194223918Y-75765229D02*
X194223918Y-76369991D01*
X194223918Y-76369991D02*
X192953918Y-76369991D01*
X194163442Y-75402372D02*
X194223918Y-75220943D01*
X194223918Y-75220943D02*
X194223918Y-74918562D01*
X194223918Y-74918562D02*
X194163442Y-74797610D01*
X194163442Y-74797610D02*
X194102965Y-74737134D01*
X194102965Y-74737134D02*
X193982013Y-74676657D01*
X193982013Y-74676657D02*
X193861061Y-74676657D01*
X193861061Y-74676657D02*
X193740108Y-74737134D01*
X193740108Y-74737134D02*
X193679632Y-74797610D01*
X193679632Y-74797610D02*
X193619156Y-74918562D01*
X193619156Y-74918562D02*
X193558680Y-75160467D01*
X193558680Y-75160467D02*
X193498203Y-75281419D01*
X193498203Y-75281419D02*
X193437727Y-75341896D01*
X193437727Y-75341896D02*
X193316775Y-75402372D01*
X193316775Y-75402372D02*
X193195822Y-75402372D01*
X193195822Y-75402372D02*
X193074870Y-75341896D01*
X193074870Y-75341896D02*
X193014394Y-75281419D01*
X193014394Y-75281419D02*
X192953918Y-75160467D01*
X192953918Y-75160467D02*
X192953918Y-74858086D01*
X192953918Y-74858086D02*
X193014394Y-74676657D01*
X194223918Y-73467133D02*
X194223918Y-74192848D01*
X194223918Y-73829991D02*
X192953918Y-73829991D01*
X192953918Y-73829991D02*
X193135346Y-73950943D01*
X193135346Y-73950943D02*
X193256299Y-74071895D01*
X193256299Y-74071895D02*
X193316775Y-74192848D01*
D14*
%TO.C,D4*%
X187119600Y-85565600D02*
X190019600Y-85565600D01*
X187119600Y-86165600D02*
X187119600Y-85565600D01*
X187119600Y-87865600D02*
X190019600Y-87865600D01*
D11*
%TO.C,LS1*%
X191649600Y-79448801D02*
X189149600Y-79448801D01*
X189149600Y-79448801D02*
X189149600Y-70448801D01*
X189149600Y-70448801D02*
X191649600Y-70448801D01*
X195649600Y-70448801D02*
X198149600Y-70448801D01*
X198149600Y-70448801D02*
X198149600Y-79448801D01*
X198149600Y-79448801D02*
X195649600Y-79448801D01*
D15*
X193649600Y-80348801D02*
X193649600Y-80348801D01*
X193649600Y-80448801D02*
X193649600Y-80448801D01*
X193649600Y-80348801D02*
G75*
G03*
X193649600Y-80448801I0J-50000D01*
G01*
X193649600Y-80448801D02*
G75*
G03*
X193649600Y-80348801I0J50000D01*
G01*
D14*
%TO.C,C20*%
X198347420Y-84402200D02*
X198628580Y-84402200D01*
X198347420Y-85422200D02*
X198628580Y-85422200D01*
%TO.C,C19*%
X198335020Y-81405000D02*
X198616180Y-81405000D01*
X198335020Y-82425000D02*
X198616180Y-82425000D01*
%TO.C,C18*%
X198335020Y-83949000D02*
X198616180Y-83949000D01*
X198335020Y-82929000D02*
X198616180Y-82929000D01*
%TO.C,D2*%
X203144000Y-76547000D02*
X201224000Y-76547000D01*
X201224000Y-76547000D02*
X201224000Y-79232000D01*
X203144000Y-79232000D02*
X203144000Y-76547000D01*
%TO.C,J8*%
X205045000Y-65990000D02*
X206375000Y-65990000D01*
X205045000Y-67320000D02*
X205045000Y-65990000D01*
X205045000Y-68590000D02*
X205045000Y-76270000D01*
X205045000Y-68590000D02*
X207705000Y-68590000D01*
X205045000Y-76270000D02*
X207705000Y-76270000D01*
X207705000Y-68590000D02*
X207705000Y-76270000D01*
%TO.C,J1*%
X207511000Y-111401000D02*
X208251000Y-111401000D01*
X208251000Y-111401000D02*
X208251000Y-110901000D01*
X201691000Y-111161000D02*
X208011000Y-111161000D01*
X201691000Y-111161000D02*
X201691000Y-90260000D01*
X202151000Y-111161000D02*
X202151000Y-90260000D01*
X207451000Y-111161000D02*
X207451000Y-90260000D01*
X208011000Y-111161000D02*
X208011000Y-90260000D01*
X201691000Y-90260000D02*
X208011000Y-90260000D01*
%TO.C,F1*%
X190933000Y-102738422D02*
X190933000Y-103255578D01*
X192353000Y-102738422D02*
X192353000Y-103255578D01*
%TO.C,J2*%
X184284000Y-95101000D02*
X183544000Y-95101000D01*
X183544000Y-95101000D02*
X183544000Y-95601000D01*
X190104000Y-95341000D02*
X183784000Y-95341000D01*
X190104000Y-95341000D02*
X190104000Y-111161000D01*
X189644000Y-95341000D02*
X189644000Y-111161000D01*
X184344000Y-95341000D02*
X184344000Y-111161000D01*
X183784000Y-95341000D02*
X183784000Y-111161000D01*
X190104000Y-111161000D02*
X183784000Y-111161000D01*
%TO.C,J6*%
X184725000Y-65980000D02*
X186055000Y-65980000D01*
X184725000Y-67310000D02*
X184725000Y-65980000D01*
X184725000Y-68580000D02*
X184725000Y-81340000D01*
X184725000Y-68580000D02*
X187385000Y-68580000D01*
X184725000Y-81340000D02*
X187385000Y-81340000D01*
X187385000Y-68580000D02*
X187385000Y-81340000D01*
%TD*%
M02*
