%TF.GenerationSoftware,KiCad,Pcbnew,8.0.0*%
%TF.CreationDate,2025-01-24T21:29:13-08:00*%
%TF.ProjectId,Hope,486f7065-2e6b-4696-9361-645f70636258,rev?*%
%TF.SameCoordinates,Original*%
%TF.FileFunction,Copper,L2,Inr*%
%TF.FilePolarity,Positive*%
%FSLAX46Y46*%
G04 Gerber Fmt 4.6, Leading zero omitted, Abs format (unit mm)*
G04 Created by KiCad (PCBNEW 8.0.0) date 2025-01-24 21:29:13*
%MOMM*%
%LPD*%
G01*
G04 APERTURE LIST*
%TA.AperFunction,ComponentPad*%
%ADD10C,3.800000*%
%TD*%
%TA.AperFunction,ComponentPad*%
%ADD11R,2.200000X2.200000*%
%TD*%
%TA.AperFunction,ComponentPad*%
%ADD12C,2.200000*%
%TD*%
%TA.AperFunction,ComponentPad*%
%ADD13O,1.900000X1.200000*%
%TD*%
%TA.AperFunction,ComponentPad*%
%ADD14O,1.400000X1.200000*%
%TD*%
%TA.AperFunction,ViaPad*%
%ADD15C,0.500000*%
%TD*%
%TA.AperFunction,ViaPad*%
%ADD16C,0.750000*%
%TD*%
G04 APERTURE END LIST*
D10*
%TO.N,GND*%
%TO.C,H4*%
X2336800Y6908800D03*
%TD*%
%TO.N,GND*%
%TO.C,H3*%
X9753600Y30759400D03*
%TD*%
D11*
%TO.N,/Power/BATT POSTSW*%
%TO.C,J4*%
X9448800Y5080000D03*
D12*
%TO.N,GND*%
X9448800Y2540000D03*
%TD*%
D13*
%TO.N,N/C*%
%TO.C,J1*%
X14724700Y8426000D03*
X14724700Y1226000D03*
D14*
X11824700Y2406000D03*
%TO.N,unconnected-(J1-Shield-Pad6)*%
X11824700Y7246000D03*
%TD*%
D15*
%TO.N,GND*%
X12228466Y27764846D03*
%TO.N,/MCU/GPS_RX*%
X13270690Y23866263D03*
X7772400Y23317200D03*
%TO.N,+3V3*%
X9321800Y24888798D03*
D16*
%TO.N,GND*%
X13284200Y22377400D03*
%TO.N,+3V3*%
X13258800Y27913802D03*
D15*
%TO.N,/MCU/LEDINDICATION*%
X15494000Y24688800D03*
X8626400Y22098000D03*
%TO.N,GND*%
X12629688Y6467866D03*
%TO.N,+BATT*%
X8534400Y8839200D03*
X8432800Y11938000D03*
D16*
%TO.N,GND*%
X3631798Y11913802D03*
X9398000Y11480800D03*
%TO.N,+3V3*%
X1039217Y2719761D03*
X4419600Y8686800D03*
%TO.N,GND*%
X1016000Y11913802D03*
X7147600Y8128000D03*
D15*
%TO.N,Net-(D2-A)*%
X1828800Y1117600D03*
%TO.N,/MCU/QSPI_SD2*%
X7810482Y16405197D03*
%TO.N,/MCU/QSPI_SS*%
X8859914Y17084121D03*
X9296400Y15951200D03*
%TO.N,/MCU/QSPI_SD2*%
X10665580Y16050380D03*
D16*
%TO.N,GND*%
X16002000Y13512800D03*
%TO.N,+3V3*%
X11351686Y11608280D03*
D15*
%TO.N,/MCU/BATT SENSE *%
X863600Y14478000D03*
X3810000Y13411200D03*
X6495470Y13365046D03*
X1168400Y18999200D03*
%TO.N,GND*%
X10007600Y13616400D03*
%TO.N,/MCU/NSS*%
X1574800Y19761200D03*
%TO.N,/MCU/SCK*%
X3746144Y20014104D03*
%TO.N,/MCU/MOSI*%
X4001164Y19340308D03*
%TO.N,/MCU/MISO*%
X4134468Y18358474D03*
%TO.N,/MCU/DIO3*%
X8280400Y18897600D03*
%TO.N,/MCU/DIO2*%
X8477739Y19570375D03*
%TO.N,/MCU/DIO1*%
X10438184Y23223749D03*
%TO.N,/MCU/BUSY*%
X8686800Y22961600D03*
%TO.N,/MCU/TXCOEN*%
X9117093Y23515200D03*
%TO.N,+3V3*%
X3230642Y16630358D03*
%TO.N,Net-(D1-K)*%
X15849600Y31242000D03*
%TO.N,+3V3*%
X15798800Y28092400D03*
%TO.N,/MCU/RUN*%
X1676400Y24292000D03*
X3517600Y23315340D03*
D16*
%TO.N,GND*%
X1727200Y28092400D03*
X6553200Y28194000D03*
X7721600Y27686000D03*
X5435600Y27584400D03*
X3085000Y25159179D03*
D15*
%TO.N,/MCU/QSPI_SD3*%
X13055600Y19354800D03*
%TO.N,/MCU/QSPI_SCLK*%
X12446000Y18504920D03*
%TO.N,/MCU/QSPI_SDO*%
X11633200Y18237196D03*
%TO.N,/MCU/QSPI_SD3*%
X6251826Y18215200D03*
%TO.N,/MCU/QSPI_SCLK*%
X7167850Y18418088D03*
%TO.N,/MCU/QSPI_SDO*%
X7924800Y18237200D03*
%TO.N,GND*%
X13287311Y21637067D03*
%TO.N,+3V3*%
X12298765Y20960165D03*
X9603324Y17183347D03*
X10379748Y21539689D03*
%TO.N,GND*%
X10670063Y19939689D03*
X5152619Y21864622D03*
X7206084Y21975989D03*
X7067600Y22555200D03*
X5842000Y26388000D03*
%TO.N,+3V3*%
X5951135Y23309665D03*
%TO.N,+1V1*%
X5232400Y23215600D03*
%TO.N,+3V3*%
X1828800Y21765200D03*
%TO.N,GND*%
X1219200Y20421600D03*
%TO.N,+3V3*%
X1778000Y17965200D03*
%TO.N,GND*%
X1205813Y16837144D03*
X3708400Y15087600D03*
X6350000Y15115600D03*
%TO.N,+1V1*%
X6493282Y16455476D03*
%TO.N,+3V3*%
X5749166Y16491803D03*
%TO.N,+1V1*%
X4224963Y15998331D03*
%TD*%
%TA.AperFunction,Conductor*%
%TO.N,+3V3*%
G36*
X7881206Y32479815D02*
G01*
X7926961Y32427011D01*
X7936905Y32357853D01*
X7909710Y32296459D01*
X7807716Y32173171D01*
X7807713Y32173167D01*
X7645868Y31918139D01*
X7645865Y31918133D01*
X7517261Y31644837D01*
X7517259Y31644832D01*
X7423920Y31357565D01*
X7367319Y31060854D01*
X7367318Y31060847D01*
X7348354Y30759406D01*
X7348354Y30759395D01*
X7367318Y30457954D01*
X7367319Y30457947D01*
X7423920Y30161236D01*
X7517259Y29873969D01*
X7517261Y29873964D01*
X7645865Y29600668D01*
X7645868Y29600662D01*
X7807711Y29345637D01*
X7807714Y29345633D01*
X7807715Y29345632D01*
X8000251Y29112896D01*
X8195402Y28929636D01*
X8220436Y28906128D01*
X8220446Y28906120D01*
X8464793Y28728592D01*
X8464798Y28728590D01*
X8464805Y28728584D01*
X8729496Y28583068D01*
X8729501Y28583066D01*
X8729503Y28583065D01*
X8729504Y28583064D01*
X9010334Y28471876D01*
X9010337Y28471875D01*
X9093768Y28450454D01*
X9302902Y28396758D01*
X9449639Y28378221D01*
X9602563Y28358901D01*
X9602569Y28358901D01*
X9602573Y28358900D01*
X9602575Y28358900D01*
X9904625Y28358900D01*
X9904627Y28358900D01*
X9904632Y28358901D01*
X9904636Y28358901D01*
X9984191Y28368952D01*
X10204298Y28396758D01*
X10496862Y28471875D01*
X10496865Y28471876D01*
X10777695Y28583064D01*
X10777696Y28583065D01*
X10777694Y28583065D01*
X10777704Y28583068D01*
X11042395Y28728584D01*
X11286762Y28906126D01*
X11506949Y29112896D01*
X11699485Y29345632D01*
X11861333Y29600664D01*
X11989941Y29873970D01*
X12083281Y30161240D01*
X12139880Y30457943D01*
X12139881Y30457954D01*
X12158846Y30759395D01*
X12158846Y30759406D01*
X12139881Y31060847D01*
X12139880Y31060854D01*
X12139880Y31060857D01*
X12083281Y31357560D01*
X11989941Y31644830D01*
X11957914Y31712890D01*
X11936365Y31758684D01*
X11861333Y31918136D01*
X11728801Y32126973D01*
X11699486Y32173167D01*
X11699483Y32173171D01*
X11597490Y32296459D01*
X11569924Y32360661D01*
X11581445Y32429575D01*
X11628394Y32481320D01*
X11693033Y32499500D01*
X14934108Y32499500D01*
X14995572Y32499500D01*
X15004418Y32499184D01*
X15204561Y32484870D01*
X15222063Y32482353D01*
X15413797Y32440645D01*
X15430755Y32435666D01*
X15614609Y32367091D01*
X15630701Y32359741D01*
X15802904Y32265712D01*
X15817789Y32256146D01*
X15872130Y32215466D01*
X15914001Y32159532D01*
X15918985Y32089841D01*
X15885499Y32028518D01*
X15824176Y31995034D01*
X15811703Y31992980D01*
X15681544Y31978315D01*
X15521905Y31922455D01*
X15521902Y31922453D01*
X15378715Y31832482D01*
X15378709Y31832477D01*
X15259123Y31712891D01*
X15259118Y31712885D01*
X15169147Y31569698D01*
X15169145Y31569695D01*
X15113285Y31410057D01*
X15094351Y31242003D01*
X15094351Y31241998D01*
X15113285Y31073944D01*
X15169145Y30914306D01*
X15169147Y30914303D01*
X15259118Y30771116D01*
X15259123Y30771110D01*
X15378709Y30651524D01*
X15378715Y30651519D01*
X15521902Y30561548D01*
X15521905Y30561546D01*
X15521909Y30561545D01*
X15521910Y30561544D01*
X15584503Y30539642D01*
X15681543Y30505686D01*
X15849597Y30486751D01*
X15849600Y30486751D01*
X15849603Y30486751D01*
X16017656Y30505686D01*
X16017659Y30505687D01*
X16177290Y30561544D01*
X16309528Y30644636D01*
X16376764Y30663636D01*
X16443599Y30643269D01*
X16488813Y30590001D01*
X16499500Y30539642D01*
X16499500Y14440596D01*
X16479815Y14373557D01*
X16427011Y14327802D01*
X16357853Y14317858D01*
X16325065Y14327316D01*
X16274033Y14350037D01*
X16094019Y14388300D01*
X15909981Y14388300D01*
X15729966Y14350037D01*
X15729961Y14350035D01*
X15561839Y14275181D01*
X15561834Y14275179D01*
X15412951Y14167009D01*
X15412949Y14167007D01*
X15289804Y14030239D01*
X15197786Y13870860D01*
X15197783Y13870854D01*
X15142989Y13702212D01*
X15140915Y13695829D01*
X15121678Y13512800D01*
X15140915Y13329771D01*
X15140916Y13329768D01*
X15197783Y13154747D01*
X15197786Y13154741D01*
X15289805Y12995360D01*
X15380924Y12894162D01*
X15412949Y12858594D01*
X15412951Y12858592D01*
X15561834Y12750422D01*
X15561835Y12750422D01*
X15561839Y12750419D01*
X15650331Y12711020D01*
X15729961Y12675566D01*
X15729966Y12675564D01*
X15909981Y12637300D01*
X16094019Y12637300D01*
X16274034Y12675564D01*
X16325064Y12698284D01*
X16394314Y12707569D01*
X16457590Y12677941D01*
X16494804Y12618807D01*
X16499500Y12585005D01*
X16499500Y2004428D01*
X16499184Y1995581D01*
X16484869Y1795443D01*
X16482351Y1777932D01*
X16440646Y1586213D01*
X16435661Y1569237D01*
X16389162Y1444571D01*
X16347291Y1388637D01*
X16281826Y1364221D01*
X16213553Y1379073D01*
X16164148Y1428479D01*
X16150508Y1468507D01*
X16148102Y1483701D01*
X16094573Y1648445D01*
X16015932Y1802788D01*
X15914114Y1942928D01*
X15791628Y2065414D01*
X15651488Y2167232D01*
X15497145Y2245873D01*
X15332401Y2299402D01*
X15332399Y2299403D01*
X15332398Y2299403D01*
X15200971Y2320219D01*
X15161311Y2326500D01*
X14288089Y2326500D01*
X14248428Y2320219D01*
X14117002Y2299403D01*
X13952252Y2245872D01*
X13797911Y2167232D01*
X13717956Y2109141D01*
X13657772Y2065414D01*
X13657770Y2065412D01*
X13657769Y2065412D01*
X13535288Y1942931D01*
X13535288Y1942930D01*
X13535286Y1942928D01*
X13491559Y1882744D01*
X13433468Y1802789D01*
X13354828Y1648448D01*
X13301297Y1483698D01*
X13274200Y1312611D01*
X13274200Y1139390D01*
X13300729Y971887D01*
X13301298Y968299D01*
X13334292Y866754D01*
X13354828Y803553D01*
X13417376Y680795D01*
X13430272Y612125D01*
X13403996Y547385D01*
X13346889Y507128D01*
X13306891Y500500D01*
X2551769Y500500D01*
X2484730Y520185D01*
X2438975Y572989D01*
X2429031Y642147D01*
X2446775Y690472D01*
X2484693Y750819D01*
X2509256Y789910D01*
X2565113Y949541D01*
X2565113Y949542D01*
X2565114Y949544D01*
X2584049Y1117598D01*
X2584049Y1117603D01*
X2565114Y1285657D01*
X2515138Y1428479D01*
X2509256Y1445290D01*
X2509255Y1445291D01*
X2509254Y1445295D01*
X2509252Y1445298D01*
X2419281Y1588485D01*
X2419276Y1588491D01*
X2299690Y1708077D01*
X2299684Y1708082D01*
X2156497Y1798053D01*
X2156494Y1798055D01*
X1996856Y1853915D01*
X1828803Y1872849D01*
X1828797Y1872849D01*
X1660743Y1853915D01*
X1501105Y1798055D01*
X1501102Y1798053D01*
X1357915Y1708082D01*
X1357909Y1708077D01*
X1238323Y1588491D01*
X1238318Y1588485D01*
X1148347Y1445298D01*
X1148345Y1445295D01*
X1092485Y1285657D01*
X1073551Y1117603D01*
X1073551Y1114349D01*
X1072956Y1112324D01*
X1072771Y1110680D01*
X1072483Y1110713D01*
X1053866Y1047310D01*
X1001062Y1001555D01*
X931904Y991611D01*
X868348Y1020636D01*
X850284Y1040038D01*
X775909Y1139390D01*
X743849Y1182216D01*
X734288Y1197096D01*
X640259Y1369299D01*
X632909Y1385391D01*
X610565Y1445298D01*
X564334Y1569245D01*
X559355Y1586203D01*
X517647Y1777937D01*
X515130Y1795444D01*
X514943Y1798053D01*
X500816Y1995582D01*
X500500Y2004428D01*
X500500Y2540000D01*
X7843351Y2540000D01*
X7863117Y2288849D01*
X7921926Y2043890D01*
X8018333Y1811141D01*
X8149960Y1596347D01*
X8149961Y1596344D01*
X8175377Y1566586D01*
X8313576Y1404776D01*
X8429813Y1305500D01*
X8505143Y1241162D01*
X8505146Y1241161D01*
X8719940Y1109534D01*
X8887720Y1040038D01*
X8952689Y1013127D01*
X9197652Y954317D01*
X9448800Y934551D01*
X9699948Y954317D01*
X9944911Y1013127D01*
X10177659Y1109534D01*
X10392459Y1241164D01*
X10584024Y1404776D01*
X10747636Y1596341D01*
X10752983Y1605067D01*
X10804788Y1651943D01*
X10873716Y1663372D01*
X10937882Y1635721D01*
X10946394Y1627964D01*
X11007772Y1566586D01*
X11147912Y1464768D01*
X11302255Y1386127D01*
X11466999Y1332598D01*
X11638089Y1305500D01*
X11638090Y1305500D01*
X12011310Y1305500D01*
X12011311Y1305500D01*
X12182401Y1332598D01*
X12347145Y1386127D01*
X12501488Y1464768D01*
X12641628Y1566586D01*
X12764114Y1689072D01*
X12865932Y1829212D01*
X12944573Y1983555D01*
X12998102Y2148299D01*
X13025200Y2319389D01*
X13025200Y2492611D01*
X12998102Y2663701D01*
X12944573Y2828445D01*
X12865932Y2982788D01*
X12764114Y3122928D01*
X12641628Y3245414D01*
X12501488Y3347232D01*
X12347145Y3425873D01*
X12182401Y3479402D01*
X12182399Y3479403D01*
X12182398Y3479403D01*
X12050971Y3500219D01*
X12011311Y3506500D01*
X11638089Y3506500D01*
X11598428Y3500219D01*
X11467002Y3479403D01*
X11302252Y3425872D01*
X11147907Y3347230D01*
X11037318Y3266882D01*
X10971512Y3243402D01*
X10903458Y3259228D01*
X10858706Y3302410D01*
X10798279Y3401017D01*
X10780034Y3468462D01*
X10801150Y3535065D01*
X10829691Y3565071D01*
X10906346Y3622454D01*
X10992596Y3737669D01*
X11042891Y3872517D01*
X11049300Y3932127D01*
X11049299Y6152666D01*
X11068984Y6219704D01*
X11121787Y6265459D01*
X11190946Y6275403D01*
X11229590Y6263152D01*
X11302255Y6226127D01*
X11466999Y6172598D01*
X11638089Y6145500D01*
X11877355Y6145500D01*
X11944394Y6125815D01*
X11982347Y6087474D01*
X12022627Y6023369D01*
X12039211Y5996976D01*
X12158797Y5877390D01*
X12158803Y5877385D01*
X12301990Y5787414D01*
X12301993Y5787412D01*
X12301997Y5787411D01*
X12301998Y5787410D01*
X12374601Y5762006D01*
X12461631Y5731552D01*
X12629685Y5712617D01*
X12629688Y5712617D01*
X12629691Y5712617D01*
X12797744Y5731552D01*
X12797747Y5731553D01*
X12957378Y5787410D01*
X12957380Y5787412D01*
X12957382Y5787412D01*
X12957385Y5787414D01*
X13100572Y5877385D01*
X13100573Y5877386D01*
X13100578Y5877389D01*
X13220165Y5996976D01*
X13277028Y6087472D01*
X13310140Y6140169D01*
X13310142Y6140172D01*
X13310142Y6140174D01*
X13310144Y6140176D01*
X13366001Y6299807D01*
X13366001Y6299808D01*
X13366002Y6299810D01*
X13384937Y6467864D01*
X13384937Y6467869D01*
X13366002Y6635923D01*
X13310142Y6795561D01*
X13310140Y6795564D01*
X13220169Y6938751D01*
X13220164Y6938757D01*
X13100580Y7058341D01*
X13100578Y7058343D01*
X13083225Y7069247D01*
X13036935Y7121583D01*
X13025200Y7174239D01*
X13025200Y7332611D01*
X13019972Y7365620D01*
X12998102Y7503701D01*
X12944573Y7668445D01*
X12865932Y7822788D01*
X12764114Y7962928D01*
X12641628Y8085414D01*
X12501488Y8187232D01*
X12347145Y8265873D01*
X12182401Y8319402D01*
X12182399Y8319403D01*
X12182398Y8319403D01*
X12056211Y8339389D01*
X13274200Y8339389D01*
X13277366Y8319402D01*
X13300778Y8171577D01*
X13301298Y8168299D01*
X13354827Y8003555D01*
X13433468Y7849212D01*
X13535286Y7709072D01*
X13657772Y7586586D01*
X13797912Y7484768D01*
X13952255Y7406127D01*
X14116999Y7352598D01*
X14288089Y7325500D01*
X14288090Y7325500D01*
X15161310Y7325500D01*
X15161311Y7325500D01*
X15332401Y7352598D01*
X15497145Y7406127D01*
X15651488Y7484768D01*
X15791628Y7586586D01*
X15914114Y7709072D01*
X16015932Y7849212D01*
X16094573Y8003555D01*
X16148102Y8168299D01*
X16175200Y8339389D01*
X16175200Y8512611D01*
X16148102Y8683701D01*
X16094573Y8848445D01*
X16015932Y9002788D01*
X15914114Y9142928D01*
X15791628Y9265414D01*
X15651488Y9367232D01*
X15497145Y9445873D01*
X15332401Y9499402D01*
X15332399Y9499403D01*
X15332398Y9499403D01*
X15200971Y9520219D01*
X15161311Y9526500D01*
X14288089Y9526500D01*
X14248428Y9520219D01*
X14117002Y9499403D01*
X13952252Y9445872D01*
X13797911Y9367232D01*
X13719264Y9310091D01*
X13657772Y9265414D01*
X13657770Y9265412D01*
X13657769Y9265412D01*
X13535288Y9142931D01*
X13535288Y9142930D01*
X13535286Y9142928D01*
X13493298Y9085137D01*
X13433468Y9002789D01*
X13354828Y8848448D01*
X13301297Y8683698D01*
X13280962Y8555306D01*
X13274200Y8512611D01*
X13274200Y8339389D01*
X12056211Y8339389D01*
X12050971Y8340219D01*
X12011311Y8346500D01*
X11638089Y8346500D01*
X11598428Y8340219D01*
X11467002Y8319403D01*
X11302252Y8265872D01*
X11147911Y8187232D01*
X11067956Y8129141D01*
X11007772Y8085414D01*
X11007770Y8085412D01*
X11007769Y8085412D01*
X10885288Y7962931D01*
X10885288Y7962930D01*
X10885286Y7962928D01*
X10841559Y7902744D01*
X10783468Y7822789D01*
X10704828Y7668448D01*
X10651297Y7503698D01*
X10624200Y7332611D01*
X10624200Y7159390D01*
X10651297Y6988302D01*
X10698568Y6842818D01*
X10700563Y6772977D01*
X10664483Y6713144D01*
X10601782Y6682316D01*
X10580637Y6680500D01*
X8300929Y6680500D01*
X8300923Y6680499D01*
X8241316Y6674092D01*
X8106471Y6623798D01*
X8106464Y6623794D01*
X7991255Y6537548D01*
X7991252Y6537545D01*
X7905006Y6422336D01*
X7905002Y6422329D01*
X7854708Y6287483D01*
X7848301Y6227884D01*
X7848300Y6227865D01*
X7848300Y3932130D01*
X7848301Y3932124D01*
X7854708Y3872517D01*
X7905002Y3737672D01*
X7905006Y3737665D01*
X7991252Y3622456D01*
X7991255Y3622453D01*
X8067904Y3565073D01*
X8109775Y3509139D01*
X8114759Y3439448D01*
X8099320Y3401017D01*
X8018333Y3268860D01*
X7921926Y3036111D01*
X7863117Y2791152D01*
X7843351Y2540000D01*
X500500Y2540000D01*
X500500Y5053645D01*
X520185Y5120684D01*
X572989Y5166439D01*
X642147Y5176383D01*
X705703Y5147358D01*
X709384Y5144037D01*
X803636Y5055528D01*
X803646Y5055520D01*
X1047993Y4877992D01*
X1047998Y4877990D01*
X1048005Y4877984D01*
X1312696Y4732468D01*
X1312701Y4732466D01*
X1312703Y4732465D01*
X1312704Y4732464D01*
X1593534Y4621276D01*
X1593537Y4621275D01*
X1691059Y4596236D01*
X1886102Y4546158D01*
X2032839Y4527621D01*
X2185763Y4508301D01*
X2185769Y4508301D01*
X2185773Y4508300D01*
X2185775Y4508300D01*
X2487825Y4508300D01*
X2487827Y4508300D01*
X2487832Y4508301D01*
X2487836Y4508301D01*
X2567391Y4518352D01*
X2787498Y4546158D01*
X3080062Y4621275D01*
X3080065Y4621276D01*
X3360895Y4732464D01*
X3360896Y4732465D01*
X3360894Y4732465D01*
X3360904Y4732468D01*
X3625595Y4877984D01*
X3869962Y5055526D01*
X4090149Y5262296D01*
X4282685Y5495032D01*
X4444533Y5750064D01*
X4573141Y6023370D01*
X4666481Y6310640D01*
X4723080Y6607343D01*
X4724115Y6623796D01*
X4742046Y6908795D01*
X4742046Y6908806D01*
X4723081Y7210247D01*
X4723080Y7210254D01*
X4723080Y7210257D01*
X4666481Y7506960D01*
X4573141Y7794230D01*
X4547268Y7849212D01*
X4474640Y8003555D01*
X4444533Y8067536D01*
X4406162Y8128000D01*
X6267278Y8128000D01*
X6286515Y7944971D01*
X6286516Y7944968D01*
X6343383Y7769947D01*
X6343386Y7769941D01*
X6435405Y7610560D01*
X6531621Y7503701D01*
X6558549Y7473794D01*
X6558551Y7473792D01*
X6707434Y7365622D01*
X6707435Y7365622D01*
X6707439Y7365619D01*
X6797548Y7325500D01*
X6875561Y7290766D01*
X6875566Y7290764D01*
X7055581Y7252500D01*
X7239619Y7252500D01*
X7419634Y7290764D01*
X7587761Y7365619D01*
X7736650Y7473793D01*
X7859795Y7610560D01*
X7951814Y7769941D01*
X8008685Y7944971D01*
X8021228Y8064320D01*
X8047813Y8128932D01*
X8105110Y8168917D01*
X8174929Y8171577D01*
X8199992Y8160850D01*
X8200434Y8161766D01*
X8206705Y8158746D01*
X8206709Y8158745D01*
X8206710Y8158744D01*
X8279313Y8133340D01*
X8366343Y8102886D01*
X8534397Y8083951D01*
X8534400Y8083951D01*
X8534403Y8083951D01*
X8702456Y8102886D01*
X8702459Y8102887D01*
X8862090Y8158744D01*
X8862092Y8158746D01*
X8862094Y8158746D01*
X8862097Y8158748D01*
X9005284Y8248719D01*
X9005285Y8248720D01*
X9005290Y8248723D01*
X9124877Y8368310D01*
X9214852Y8511503D01*
X9214854Y8511506D01*
X9214854Y8511508D01*
X9214856Y8511510D01*
X9270713Y8671141D01*
X9270713Y8671142D01*
X9270714Y8671144D01*
X9289649Y8839198D01*
X9289649Y8839203D01*
X9270714Y9007257D01*
X9240260Y9094287D01*
X9214856Y9166890D01*
X9214855Y9166891D01*
X9214854Y9166895D01*
X9214852Y9166898D01*
X9124881Y9310085D01*
X9124876Y9310091D01*
X9005290Y9429677D01*
X9005284Y9429682D01*
X8862097Y9519653D01*
X8862094Y9519655D01*
X8702456Y9575515D01*
X8534403Y9594449D01*
X8534397Y9594449D01*
X8366343Y9575515D01*
X8206705Y9519655D01*
X8206702Y9519653D01*
X8063515Y9429682D01*
X8063509Y9429677D01*
X7943923Y9310091D01*
X7943918Y9310085D01*
X7853947Y9166898D01*
X7853945Y9166895D01*
X7798086Y9007257D01*
X7793839Y8969568D01*
X7766771Y8905155D01*
X7709176Y8865601D01*
X7639339Y8863464D01*
X7597735Y8883135D01*
X7587764Y8890379D01*
X7587763Y8890380D01*
X7587761Y8890381D01*
X7526712Y8917562D01*
X7419638Y8965235D01*
X7419633Y8965237D01*
X7239619Y9003500D01*
X7055581Y9003500D01*
X6875566Y8965237D01*
X6875561Y8965235D01*
X6707439Y8890381D01*
X6707434Y8890379D01*
X6558551Y8782209D01*
X6558549Y8782207D01*
X6435404Y8645439D01*
X6343386Y8486060D01*
X6343383Y8486054D01*
X6286516Y8311033D01*
X6286515Y8311029D01*
X6267278Y8128000D01*
X4406162Y8128000D01*
X4386651Y8158744D01*
X4282688Y8322564D01*
X4268769Y8339389D01*
X4090149Y8555304D01*
X3869962Y8762074D01*
X3869959Y8762076D01*
X3869953Y8762081D01*
X3625606Y8939609D01*
X3625599Y8939614D01*
X3625595Y8939616D01*
X3360904Y9085132D01*
X3360901Y9085134D01*
X3360896Y9085136D01*
X3360895Y9085137D01*
X3080065Y9196325D01*
X3080062Y9196326D01*
X2787495Y9271443D01*
X2487836Y9309300D01*
X2487827Y9309300D01*
X2185773Y9309300D01*
X2185763Y9309300D01*
X1886104Y9271443D01*
X1593537Y9196326D01*
X1593534Y9196325D01*
X1312704Y9085137D01*
X1312703Y9085136D01*
X1048005Y8939616D01*
X1047993Y8939609D01*
X803646Y8762081D01*
X803636Y8762073D01*
X709384Y8673564D01*
X647039Y8642022D01*
X577538Y8649193D01*
X522948Y8692800D01*
X500599Y8759000D01*
X500500Y8763956D01*
X500500Y10994021D01*
X520185Y11061060D01*
X572989Y11106815D01*
X642147Y11116759D01*
X674936Y11107300D01*
X743961Y11076568D01*
X743966Y11076566D01*
X923981Y11038302D01*
X1108019Y11038302D01*
X1288034Y11076566D01*
X1456161Y11151421D01*
X1605050Y11259595D01*
X1728195Y11396362D01*
X1820214Y11555743D01*
X1877085Y11730773D01*
X1896322Y11913802D01*
X2751476Y11913802D01*
X2770713Y11730773D01*
X2770714Y11730770D01*
X2827581Y11555749D01*
X2827584Y11555743D01*
X2919603Y11396362D01*
X3008374Y11297771D01*
X3042747Y11259596D01*
X3042749Y11259594D01*
X3191632Y11151424D01*
X3191633Y11151424D01*
X3191637Y11151421D01*
X3291824Y11106815D01*
X3359759Y11076568D01*
X3359764Y11076566D01*
X3539779Y11038302D01*
X3723817Y11038302D01*
X3903832Y11076566D01*
X4071959Y11151421D01*
X4220848Y11259595D01*
X4343993Y11396362D01*
X4436012Y11555743D01*
X4492883Y11730773D01*
X4512120Y11913802D01*
X4509577Y11937998D01*
X7677551Y11937998D01*
X7696485Y11769944D01*
X7752345Y11610306D01*
X7752347Y11610303D01*
X7842318Y11467116D01*
X7842323Y11467110D01*
X7961909Y11347524D01*
X7961915Y11347519D01*
X8105102Y11257548D01*
X8105105Y11257546D01*
X8105109Y11257545D01*
X8105110Y11257544D01*
X8177713Y11232140D01*
X8264743Y11201686D01*
X8432797Y11182751D01*
X8432799Y11182751D01*
X8432799Y11182752D01*
X8432800Y11182751D01*
X8470744Y11187027D01*
X8539565Y11174974D01*
X8590945Y11127626D01*
X8592016Y11125807D01*
X8593785Y11122742D01*
X8593786Y11122741D01*
X8685805Y10963360D01*
X8795327Y10841723D01*
X8808949Y10826594D01*
X8808951Y10826592D01*
X8957834Y10718422D01*
X8957835Y10718422D01*
X8957839Y10718419D01*
X9094953Y10657372D01*
X9125961Y10643566D01*
X9125966Y10643564D01*
X9305981Y10605300D01*
X9490019Y10605300D01*
X9670034Y10643564D01*
X9838161Y10718419D01*
X9987050Y10826593D01*
X10110195Y10963360D01*
X10202214Y11122741D01*
X10259085Y11297771D01*
X10278322Y11480800D01*
X10259085Y11663829D01*
X10202214Y11838859D01*
X10110195Y11998240D01*
X9987050Y12135007D01*
X9987048Y12135009D01*
X9838165Y12243179D01*
X9838162Y12243181D01*
X9838161Y12243181D01*
X9773745Y12271861D01*
X9670038Y12318035D01*
X9670033Y12318037D01*
X9490019Y12356300D01*
X9305981Y12356300D01*
X9170441Y12327490D01*
X9100774Y12332806D01*
X9045040Y12374943D01*
X9039667Y12382807D01*
X9023279Y12408887D01*
X9023278Y12408889D01*
X8903690Y12528477D01*
X8903684Y12528482D01*
X8760497Y12618453D01*
X8760494Y12618455D01*
X8600856Y12674315D01*
X8432803Y12693249D01*
X8432797Y12693249D01*
X8264743Y12674315D01*
X8105105Y12618455D01*
X8105102Y12618453D01*
X7961915Y12528482D01*
X7961909Y12528477D01*
X7842323Y12408891D01*
X7842318Y12408885D01*
X7752347Y12265698D01*
X7752345Y12265695D01*
X7696485Y12106057D01*
X7677551Y11938003D01*
X7677551Y11937998D01*
X4509577Y11937998D01*
X4492883Y12096831D01*
X4455859Y12210779D01*
X4436014Y12271856D01*
X4436011Y12271862D01*
X4343993Y12431242D01*
X4220848Y12568009D01*
X4210499Y12575528D01*
X4167834Y12630858D01*
X4161856Y12700472D01*
X4194463Y12762266D01*
X4217409Y12780836D01*
X4280890Y12820723D01*
X4400477Y12940310D01*
X4400481Y12940316D01*
X4490452Y13083503D01*
X4490454Y13083506D01*
X4490454Y13083508D01*
X4490456Y13083510D01*
X4546313Y13243141D01*
X4546313Y13243142D01*
X4546314Y13243144D01*
X4560049Y13365044D01*
X5740221Y13365044D01*
X5759155Y13196990D01*
X5815015Y13037352D01*
X5815017Y13037349D01*
X5904988Y12894162D01*
X5904993Y12894156D01*
X6024579Y12774570D01*
X6024585Y12774565D01*
X6167772Y12684594D01*
X6167775Y12684592D01*
X6167779Y12684591D01*
X6167780Y12684590D01*
X6240383Y12659186D01*
X6327413Y12628732D01*
X6495467Y12609797D01*
X6495470Y12609797D01*
X6495473Y12609797D01*
X6663526Y12628732D01*
X6688012Y12637300D01*
X6823160Y12684590D01*
X6823162Y12684592D01*
X6823164Y12684592D01*
X6823167Y12684594D01*
X6966354Y12774565D01*
X6966355Y12774566D01*
X6966360Y12774569D01*
X7085947Y12894156D01*
X7085951Y12894162D01*
X7175922Y13037349D01*
X7175924Y13037352D01*
X7175924Y13037354D01*
X7175926Y13037356D01*
X7231783Y13196987D01*
X7231783Y13196988D01*
X7231784Y13196990D01*
X7250719Y13365044D01*
X7250719Y13365049D01*
X7231784Y13533103D01*
X7202638Y13616398D01*
X9252351Y13616398D01*
X9271285Y13448344D01*
X9327145Y13288706D01*
X9327147Y13288703D01*
X9417118Y13145516D01*
X9417123Y13145510D01*
X9536709Y13025924D01*
X9536715Y13025919D01*
X9679902Y12935948D01*
X9679905Y12935946D01*
X9679909Y12935945D01*
X9679910Y12935944D01*
X9752513Y12910540D01*
X9839543Y12880086D01*
X10007597Y12861151D01*
X10007600Y12861151D01*
X10007603Y12861151D01*
X10175656Y12880086D01*
X10215883Y12894162D01*
X10335290Y12935944D01*
X10335292Y12935946D01*
X10335294Y12935946D01*
X10335297Y12935948D01*
X10478484Y13025919D01*
X10478485Y13025920D01*
X10478490Y13025923D01*
X10598077Y13145510D01*
X10603881Y13154747D01*
X10688052Y13288703D01*
X10688054Y13288706D01*
X10688054Y13288708D01*
X10688056Y13288710D01*
X10743913Y13448341D01*
X10743913Y13448342D01*
X10743914Y13448344D01*
X10762849Y13616398D01*
X10762849Y13616403D01*
X10743914Y13784457D01*
X10707851Y13887519D01*
X10688056Y13944090D01*
X10688055Y13944091D01*
X10688054Y13944095D01*
X10688052Y13944098D01*
X10598081Y14087285D01*
X10598076Y14087291D01*
X10478490Y14206877D01*
X10478484Y14206882D01*
X10335297Y14296853D01*
X10335294Y14296855D01*
X10175656Y14352715D01*
X10007603Y14371649D01*
X10007597Y14371649D01*
X9839543Y14352715D01*
X9679905Y14296855D01*
X9679902Y14296853D01*
X9536715Y14206882D01*
X9536709Y14206877D01*
X9417123Y14087291D01*
X9417118Y14087285D01*
X9327147Y13944098D01*
X9327145Y13944095D01*
X9271285Y13784457D01*
X9252351Y13616403D01*
X9252351Y13616398D01*
X7202638Y13616398D01*
X7175924Y13692741D01*
X7175922Y13692744D01*
X7085951Y13835931D01*
X7085946Y13835937D01*
X6966360Y13955523D01*
X6966354Y13955528D01*
X6823167Y14045499D01*
X6823164Y14045501D01*
X6663526Y14101361D01*
X6495473Y14120295D01*
X6495467Y14120295D01*
X6327413Y14101361D01*
X6167775Y14045501D01*
X6167772Y14045499D01*
X6024585Y13955528D01*
X6024579Y13955523D01*
X5904993Y13835937D01*
X5904988Y13835931D01*
X5815017Y13692744D01*
X5815015Y13692741D01*
X5759155Y13533103D01*
X5740221Y13365049D01*
X5740221Y13365044D01*
X4560049Y13365044D01*
X4565249Y13411198D01*
X4565249Y13411203D01*
X4546314Y13579257D01*
X4490454Y13738895D01*
X4490452Y13738898D01*
X4400481Y13882085D01*
X4400476Y13882091D01*
X4280890Y14001677D01*
X4280884Y14001682D01*
X4137697Y14091653D01*
X4137694Y14091655D01*
X3971486Y14149813D01*
X3972435Y14152527D01*
X3922712Y14180376D01*
X3889888Y14242056D01*
X3895622Y14311690D01*
X3938093Y14367170D01*
X3970375Y14384150D01*
X4036090Y14407144D01*
X4036093Y14407147D01*
X4036097Y14407148D01*
X4179284Y14497119D01*
X4179285Y14497120D01*
X4179290Y14497123D01*
X4298877Y14616710D01*
X4316471Y14644710D01*
X4388852Y14759903D01*
X4388854Y14759906D01*
X4388854Y14759908D01*
X4388856Y14759910D01*
X4444713Y14919541D01*
X4444713Y14919542D01*
X4444714Y14919544D01*
X4463649Y15087598D01*
X4463649Y15087603D01*
X4453135Y15180913D01*
X4465189Y15249735D01*
X4512538Y15301114D01*
X4535398Y15311838D01*
X4552653Y15317875D01*
X4552658Y15317879D01*
X4552660Y15317879D01*
X4695847Y15407850D01*
X4695848Y15407851D01*
X4695853Y15407854D01*
X4815440Y15527441D01*
X4897171Y15657515D01*
X4949502Y15703803D01*
X4985452Y15714409D01*
X5022275Y15719415D01*
X5086092Y15737097D01*
X5211275Y15790830D01*
X5322844Y15881681D01*
X5370193Y15933061D01*
X5370194Y15933063D01*
X5370242Y15933135D01*
X5374906Y15939891D01*
X5375043Y15940125D01*
X5451647Y16051667D01*
X5496386Y16188414D01*
X5508440Y16257236D01*
X5509215Y16282568D01*
X5530939Y16348973D01*
X5585117Y16393093D01*
X5654547Y16400918D01*
X5717186Y16369964D01*
X5753146Y16310059D01*
X5756377Y16292665D01*
X5756968Y16287420D01*
X5812827Y16127782D01*
X5812829Y16127779D01*
X5902800Y15984592D01*
X5902805Y15984586D01*
X5954751Y15932640D01*
X5988236Y15871317D01*
X5983252Y15801625D01*
X5941380Y15745692D01*
X5933043Y15739966D01*
X5879111Y15706079D01*
X5759523Y15586491D01*
X5759518Y15586485D01*
X5669547Y15443298D01*
X5669545Y15443295D01*
X5613685Y15283657D01*
X5594751Y15115603D01*
X5594751Y15115598D01*
X5613685Y14947544D01*
X5669545Y14787906D01*
X5669547Y14787903D01*
X5759518Y14644716D01*
X5759523Y14644710D01*
X5879109Y14525124D01*
X5879115Y14525119D01*
X6022302Y14435148D01*
X6022305Y14435146D01*
X6022309Y14435145D01*
X6022310Y14435144D01*
X6094913Y14409740D01*
X6181943Y14379286D01*
X6349997Y14360351D01*
X6350000Y14360351D01*
X6350003Y14360351D01*
X6518056Y14379286D01*
X6518059Y14379287D01*
X6677690Y14435144D01*
X6677692Y14435146D01*
X6677694Y14435146D01*
X6677697Y14435148D01*
X6820884Y14525119D01*
X6820885Y14525120D01*
X6820890Y14525123D01*
X6940477Y14644710D01*
X6940481Y14644716D01*
X7030452Y14787903D01*
X7030454Y14787906D01*
X7030454Y14787908D01*
X7030456Y14787910D01*
X7086313Y14947541D01*
X7086313Y14947542D01*
X7086314Y14947544D01*
X7105249Y15115598D01*
X7105249Y15115603D01*
X7086314Y15283657D01*
X7042857Y15407850D01*
X7030456Y15443290D01*
X7030454Y15443293D01*
X7030454Y15443294D01*
X6976393Y15529330D01*
X6957392Y15596567D01*
X6977759Y15663402D01*
X7031027Y15708616D01*
X7064678Y15718172D01*
X7073841Y15719417D01*
X7137658Y15737100D01*
X7262829Y15790828D01*
X7262829Y15790829D01*
X7270759Y15794232D01*
X7272181Y15790918D01*
X7323317Y15804492D01*
X7386052Y15785527D01*
X7482789Y15724743D01*
X7482787Y15724743D01*
X7482791Y15724742D01*
X7482792Y15724741D01*
X7528875Y15708616D01*
X7642425Y15668883D01*
X7810479Y15649948D01*
X7810482Y15649948D01*
X7810485Y15649948D01*
X7978538Y15668883D01*
X8004813Y15678077D01*
X8138172Y15724741D01*
X8138174Y15724743D01*
X8138176Y15724743D01*
X8138179Y15724745D01*
X8281366Y15814716D01*
X8281366Y15814717D01*
X8281372Y15814720D01*
X8346596Y15879945D01*
X8407915Y15913427D01*
X8477607Y15908443D01*
X8533541Y15866572D01*
X8557494Y15806146D01*
X8560086Y15783144D01*
X8615945Y15623506D01*
X8615947Y15623503D01*
X8705918Y15480316D01*
X8705923Y15480310D01*
X8825509Y15360724D01*
X8825515Y15360719D01*
X8968702Y15270748D01*
X8968705Y15270746D01*
X8968709Y15270745D01*
X8968710Y15270744D01*
X9028751Y15249735D01*
X9128343Y15214886D01*
X9296397Y15195951D01*
X9296400Y15195951D01*
X9296403Y15195951D01*
X9464456Y15214886D01*
X9464459Y15214887D01*
X9624090Y15270744D01*
X9624092Y15270746D01*
X9624094Y15270746D01*
X9624097Y15270748D01*
X9767284Y15360719D01*
X9767285Y15360720D01*
X9767290Y15360723D01*
X9886877Y15480310D01*
X9915055Y15525155D01*
X9967388Y15571446D01*
X10036441Y15582095D01*
X10100290Y15553720D01*
X10107729Y15546864D01*
X10194689Y15459904D01*
X10194695Y15459899D01*
X10337882Y15369928D01*
X10337885Y15369926D01*
X10337889Y15369925D01*
X10337890Y15369924D01*
X10364197Y15360719D01*
X10497523Y15314066D01*
X10665577Y15295131D01*
X10665580Y15295131D01*
X10665583Y15295131D01*
X10833636Y15314066D01*
X10833639Y15314067D01*
X10993270Y15369924D01*
X10993272Y15369926D01*
X10993274Y15369926D01*
X10993277Y15369928D01*
X11136464Y15459899D01*
X11136465Y15459900D01*
X11136470Y15459903D01*
X11256057Y15579490D01*
X11257694Y15582095D01*
X11346032Y15722683D01*
X11346034Y15722686D01*
X11346034Y15722688D01*
X11346036Y15722690D01*
X11401893Y15882321D01*
X11401893Y15882322D01*
X11401894Y15882324D01*
X11420829Y16050378D01*
X11420829Y16050383D01*
X11401894Y16218437D01*
X11353352Y16357162D01*
X11346036Y16378070D01*
X11346035Y16378071D01*
X11346034Y16378075D01*
X11346032Y16378078D01*
X11256061Y16521265D01*
X11256056Y16521271D01*
X11136470Y16640857D01*
X11136464Y16640862D01*
X10993277Y16730833D01*
X10993274Y16730835D01*
X10833636Y16786695D01*
X10665583Y16805629D01*
X10665577Y16805629D01*
X10497523Y16786695D01*
X10337885Y16730835D01*
X10337882Y16730833D01*
X10194695Y16640862D01*
X10194689Y16640857D01*
X10075103Y16521271D01*
X10075101Y16521268D01*
X10046924Y16476425D01*
X9994589Y16430134D01*
X9925535Y16419487D01*
X9861687Y16447863D01*
X9854250Y16454717D01*
X9767290Y16541677D01*
X9767284Y16541682D01*
X9624097Y16631653D01*
X9617817Y16634677D01*
X9618811Y16636743D01*
X9570856Y16671153D01*
X9545121Y16736111D01*
X9551560Y16788409D01*
X9596227Y16916060D01*
X9596227Y16916062D01*
X9615163Y17084119D01*
X9615163Y17084124D01*
X9596228Y17252178D01*
X9552768Y17376378D01*
X9540370Y17411811D01*
X9540369Y17411812D01*
X9540368Y17411816D01*
X9540366Y17411819D01*
X9450395Y17555006D01*
X9450390Y17555012D01*
X9330804Y17674598D01*
X9330798Y17674603D01*
X9187611Y17764574D01*
X9187608Y17764576D01*
X9027970Y17820436D01*
X8859917Y17839370D01*
X8859910Y17839370D01*
X8765357Y17828717D01*
X8696535Y17840772D01*
X8645156Y17888121D01*
X8627532Y17955732D01*
X8634433Y17992892D01*
X8661113Y18069139D01*
X8661113Y18069142D01*
X8676414Y18204937D01*
X8689968Y18237194D01*
X10877951Y18237194D01*
X10896885Y18069140D01*
X10952745Y17909502D01*
X10952747Y17909499D01*
X11042718Y17766312D01*
X11042722Y17766307D01*
X11162309Y17646720D01*
X11162315Y17646715D01*
X11305502Y17556744D01*
X11305505Y17556742D01*
X11305509Y17556741D01*
X11305510Y17556740D01*
X11310466Y17555006D01*
X11465143Y17500882D01*
X11633197Y17481947D01*
X11633200Y17481947D01*
X11633203Y17481947D01*
X11801256Y17500882D01*
X11849025Y17517597D01*
X11960890Y17556740D01*
X11960892Y17556742D01*
X11960894Y17556742D01*
X11960897Y17556744D01*
X12104084Y17646715D01*
X12104084Y17646716D01*
X12104090Y17646719D01*
X12189017Y17731647D01*
X12250336Y17765129D01*
X12290579Y17767183D01*
X12445998Y17749671D01*
X12446000Y17749671D01*
X12446003Y17749671D01*
X12614056Y17768606D01*
X12657358Y17783758D01*
X12773690Y17824464D01*
X12773692Y17824466D01*
X12773694Y17824466D01*
X12773697Y17824468D01*
X12916884Y17914439D01*
X12916885Y17914440D01*
X12916890Y17914443D01*
X13036477Y18034030D01*
X13036481Y18034036D01*
X13126452Y18177223D01*
X13126454Y18177226D01*
X13126454Y18177228D01*
X13126456Y18177230D01*
X13182313Y18336861D01*
X13182313Y18336862D01*
X13182314Y18336864D01*
X13192929Y18431083D01*
X13201249Y18504920D01*
X13200860Y18508368D01*
X13201249Y18510586D01*
X13201249Y18511884D01*
X13201476Y18511884D01*
X13212911Y18577186D01*
X13260258Y18628568D01*
X13283120Y18639294D01*
X13383290Y18674344D01*
X13383292Y18674345D01*
X13383297Y18674348D01*
X13526484Y18764319D01*
X13526485Y18764320D01*
X13526490Y18764323D01*
X13646077Y18883910D01*
X13702376Y18973509D01*
X13736052Y19027103D01*
X13736054Y19027106D01*
X13736054Y19027108D01*
X13736056Y19027110D01*
X13791913Y19186741D01*
X13791913Y19186742D01*
X13791914Y19186744D01*
X13810849Y19354798D01*
X13810849Y19354803D01*
X13791914Y19522857D01*
X13736054Y19682495D01*
X13736052Y19682498D01*
X13646081Y19825685D01*
X13646076Y19825691D01*
X13526490Y19945277D01*
X13526484Y19945282D01*
X13383297Y20035253D01*
X13383294Y20035255D01*
X13223656Y20091115D01*
X13055603Y20110049D01*
X13055597Y20110049D01*
X12887543Y20091115D01*
X12727905Y20035255D01*
X12727902Y20035253D01*
X12584715Y19945282D01*
X12584709Y19945277D01*
X12465123Y19825691D01*
X12465118Y19825685D01*
X12375147Y19682498D01*
X12375145Y19682495D01*
X12319285Y19522857D01*
X12300351Y19354803D01*
X12300351Y19354800D01*
X12300740Y19351346D01*
X12300351Y19349126D01*
X12300351Y19347837D01*
X12300125Y19347837D01*
X12288682Y19282524D01*
X12241331Y19231147D01*
X12218474Y19220426D01*
X12118313Y19185378D01*
X12118302Y19185373D01*
X11975115Y19095402D01*
X11975108Y19095396D01*
X11890183Y19010472D01*
X11828860Y18976987D01*
X11788620Y18974934D01*
X11633204Y18992445D01*
X11633197Y18992445D01*
X11465143Y18973511D01*
X11305505Y18917651D01*
X11305502Y18917649D01*
X11162315Y18827678D01*
X11162309Y18827673D01*
X11042723Y18708087D01*
X11042718Y18708081D01*
X10952747Y18564894D01*
X10952745Y18564891D01*
X10896885Y18405253D01*
X10877951Y18237199D01*
X10877951Y18237194D01*
X8689968Y18237194D01*
X8703480Y18269351D01*
X8733663Y18296048D01*
X8751290Y18307123D01*
X8870877Y18426710D01*
X8873625Y18431083D01*
X8960852Y18569903D01*
X8960854Y18569906D01*
X8960854Y18569908D01*
X8960856Y18569910D01*
X9016713Y18729541D01*
X9016713Y18729542D01*
X9016714Y18729544D01*
X9035649Y18897598D01*
X9035649Y18897603D01*
X9025189Y18990432D01*
X9037243Y19059254D01*
X9060728Y19091998D01*
X9068216Y19099485D01*
X9158195Y19242685D01*
X9214052Y19402316D01*
X9214052Y19402317D01*
X9214053Y19402319D01*
X9232988Y19570373D01*
X9232988Y19570378D01*
X9214053Y19738432D01*
X9158193Y19898070D01*
X9158191Y19898073D01*
X9132043Y19939687D01*
X9914814Y19939687D01*
X9933748Y19771633D01*
X9989608Y19611995D01*
X9989610Y19611992D01*
X10079581Y19468805D01*
X10079586Y19468799D01*
X10199172Y19349213D01*
X10199178Y19349208D01*
X10342365Y19259237D01*
X10342368Y19259235D01*
X10342372Y19259234D01*
X10342373Y19259233D01*
X10414976Y19233829D01*
X10502006Y19203375D01*
X10670060Y19184440D01*
X10670063Y19184440D01*
X10670066Y19184440D01*
X10838119Y19203375D01*
X10886848Y19220426D01*
X10997753Y19259233D01*
X10997755Y19259235D01*
X10997757Y19259235D01*
X10997760Y19259237D01*
X11140947Y19349208D01*
X11140948Y19349209D01*
X11140953Y19349212D01*
X11260540Y19468799D01*
X11294507Y19522857D01*
X11350515Y19611992D01*
X11350517Y19611995D01*
X11350517Y19611997D01*
X11350519Y19611999D01*
X11406376Y19771630D01*
X11406376Y19771631D01*
X11406377Y19771633D01*
X11425312Y19939687D01*
X11425312Y19939692D01*
X11406377Y20107746D01*
X11350517Y20267384D01*
X11350515Y20267387D01*
X11260544Y20410574D01*
X11260539Y20410580D01*
X11140953Y20530166D01*
X11140947Y20530171D01*
X10997760Y20620142D01*
X10997757Y20620144D01*
X10838119Y20676004D01*
X10670066Y20694938D01*
X10670060Y20694938D01*
X10502006Y20676004D01*
X10342368Y20620144D01*
X10342365Y20620142D01*
X10199178Y20530171D01*
X10199172Y20530166D01*
X10079586Y20410580D01*
X10079581Y20410574D01*
X9989610Y20267387D01*
X9989608Y20267384D01*
X9933748Y20107746D01*
X9914814Y19939692D01*
X9914814Y19939687D01*
X9132043Y19939687D01*
X9068220Y20041260D01*
X9068215Y20041266D01*
X8948629Y20160852D01*
X8948623Y20160857D01*
X8805436Y20250828D01*
X8805433Y20250830D01*
X8645795Y20306690D01*
X8477742Y20325624D01*
X8477736Y20325624D01*
X8309682Y20306690D01*
X8150044Y20250830D01*
X8150041Y20250828D01*
X8006854Y20160857D01*
X8006848Y20160852D01*
X7887262Y20041266D01*
X7887259Y20041262D01*
X7884709Y20037203D01*
X7832372Y19990915D01*
X7763318Y19980270D01*
X7699471Y20008649D01*
X7661102Y20067041D01*
X7655725Y20101950D01*
X7645610Y21123715D01*
X7642746Y21172677D01*
X7640180Y21196575D01*
X7632582Y21245041D01*
X7632578Y21245051D01*
X7631106Y21250790D01*
X7632827Y21251232D01*
X7629059Y21312696D01*
X7663165Y21373675D01*
X7672640Y21382057D01*
X7676962Y21385505D01*
X7676974Y21385512D01*
X7796561Y21505099D01*
X7853281Y21595369D01*
X7905616Y21641659D01*
X7974670Y21652307D01*
X8038518Y21623932D01*
X8045956Y21617077D01*
X8155509Y21507524D01*
X8155515Y21507519D01*
X8298702Y21417548D01*
X8298705Y21417546D01*
X8298709Y21417545D01*
X8298710Y21417544D01*
X8371313Y21392140D01*
X8458343Y21361686D01*
X8626397Y21342751D01*
X8626400Y21342751D01*
X8626403Y21342751D01*
X8794456Y21361686D01*
X8794459Y21361687D01*
X8954090Y21417544D01*
X8954092Y21417546D01*
X8954094Y21417546D01*
X8954097Y21417548D01*
X9097284Y21507519D01*
X9097285Y21507520D01*
X9097290Y21507523D01*
X9216877Y21627110D01*
X9223132Y21637065D01*
X9306852Y21770303D01*
X9306854Y21770306D01*
X9306854Y21770308D01*
X9306856Y21770310D01*
X9362713Y21929941D01*
X9362713Y21929942D01*
X9362714Y21929944D01*
X9381649Y22097998D01*
X9381649Y22098003D01*
X9362714Y22266057D01*
X9326451Y22369690D01*
X9323753Y22377400D01*
X12403878Y22377400D01*
X12423115Y22194371D01*
X12423116Y22194368D01*
X12479983Y22019347D01*
X12479986Y22019341D01*
X12542429Y21911186D01*
X12558902Y21843285D01*
X12552088Y21808244D01*
X12550999Y21805132D01*
X12550996Y21805121D01*
X12532062Y21637070D01*
X12532062Y21637065D01*
X12550996Y21469011D01*
X12606856Y21309373D01*
X12606858Y21309370D01*
X12696829Y21166183D01*
X12696834Y21166177D01*
X12816420Y21046591D01*
X12816426Y21046586D01*
X12959613Y20956615D01*
X12959616Y20956613D01*
X12959620Y20956612D01*
X12959621Y20956611D01*
X13000054Y20942463D01*
X13119254Y20900753D01*
X13287308Y20881818D01*
X13287311Y20881818D01*
X13287314Y20881818D01*
X13455367Y20900753D01*
X13455370Y20900754D01*
X13615001Y20956611D01*
X13615003Y20956613D01*
X13615005Y20956613D01*
X13615008Y20956615D01*
X13758195Y21046586D01*
X13758196Y21046587D01*
X13758201Y21046590D01*
X13877788Y21166177D01*
X13896876Y21196555D01*
X13967763Y21309370D01*
X13967765Y21309373D01*
X13967765Y21309375D01*
X13967767Y21309377D01*
X14023624Y21469008D01*
X14023624Y21469009D01*
X14023625Y21469011D01*
X14042560Y21637065D01*
X14042560Y21637070D01*
X14023625Y21805122D01*
X14023622Y21805132D01*
X14020189Y21814941D01*
X14016626Y21884716D01*
X14029838Y21917887D01*
X14088414Y22019341D01*
X14145285Y22194371D01*
X14164522Y22377400D01*
X14145285Y22560429D01*
X14108261Y22674377D01*
X14088416Y22735454D01*
X14088413Y22735460D01*
X14078368Y22752859D01*
X13996395Y22894840D01*
X13873250Y23031607D01*
X13873248Y23031609D01*
X13773018Y23104430D01*
X13730352Y23159760D01*
X13724373Y23229373D01*
X13756979Y23291168D01*
X13758091Y23292298D01*
X13861167Y23395373D01*
X13865878Y23402870D01*
X13951142Y23538566D01*
X13951144Y23538569D01*
X13951144Y23538571D01*
X13951146Y23538573D01*
X14007003Y23698204D01*
X14007003Y23698205D01*
X14007004Y23698207D01*
X14025939Y23866261D01*
X14025939Y23866266D01*
X14007004Y24034320D01*
X13951144Y24193958D01*
X13951142Y24193961D01*
X13861171Y24337148D01*
X13861166Y24337154D01*
X13741580Y24456740D01*
X13741574Y24456745D01*
X13598387Y24546716D01*
X13598384Y24546718D01*
X13438746Y24602578D01*
X13270693Y24621512D01*
X13270687Y24621512D01*
X13102633Y24602578D01*
X12942995Y24546718D01*
X12942992Y24546716D01*
X12799805Y24456745D01*
X12799799Y24456740D01*
X12680213Y24337154D01*
X12680208Y24337148D01*
X12590237Y24193961D01*
X12590235Y24193958D01*
X12534375Y24034320D01*
X12515441Y23866266D01*
X12515441Y23866261D01*
X12534375Y23698207D01*
X12590235Y23538569D01*
X12590237Y23538566D01*
X12680208Y23395379D01*
X12680213Y23395373D01*
X12794527Y23281059D01*
X12828012Y23219736D01*
X12823028Y23150044D01*
X12781156Y23094111D01*
X12779732Y23093061D01*
X12695153Y23031610D01*
X12695149Y23031607D01*
X12572004Y22894839D01*
X12479986Y22735460D01*
X12479983Y22735454D01*
X12432891Y22590517D01*
X12423115Y22560429D01*
X12403878Y22377400D01*
X9323753Y22377400D01*
X9306856Y22425690D01*
X9306853Y22425694D01*
X9306032Y22427401D01*
X9305831Y22428616D01*
X9304556Y22432262D01*
X9305194Y22432486D01*
X9294678Y22496342D01*
X9312758Y22547178D01*
X9317798Y22555198D01*
X9345416Y22599154D01*
X9367255Y22633908D01*
X9367597Y22634884D01*
X9421156Y22787951D01*
X9461876Y22844724D01*
X9472211Y22851979D01*
X9587983Y22924723D01*
X9587984Y22924725D01*
X9591773Y22927105D01*
X9659010Y22946105D01*
X9725845Y22925737D01*
X9762738Y22888084D01*
X9847705Y22752861D01*
X9967293Y22633273D01*
X9967299Y22633268D01*
X10110486Y22543297D01*
X10110489Y22543295D01*
X10110493Y22543294D01*
X10110494Y22543293D01*
X10159486Y22526150D01*
X10270127Y22487435D01*
X10438181Y22468500D01*
X10438184Y22468500D01*
X10438187Y22468500D01*
X10606240Y22487435D01*
X10606243Y22487436D01*
X10765874Y22543293D01*
X10765876Y22543295D01*
X10765878Y22543295D01*
X10765881Y22543297D01*
X10909068Y22633268D01*
X10909069Y22633269D01*
X10909074Y22633272D01*
X11028661Y22752859D01*
X11050709Y22787948D01*
X11118636Y22896052D01*
X11118638Y22896055D01*
X11118638Y22896057D01*
X11118640Y22896059D01*
X11174497Y23055690D01*
X11174497Y23055691D01*
X11174498Y23055693D01*
X11193433Y23223747D01*
X11193433Y23223752D01*
X11174498Y23391806D01*
X11141797Y23485259D01*
X11118640Y23551439D01*
X11118639Y23551440D01*
X11118638Y23551444D01*
X11118636Y23551447D01*
X11028665Y23694634D01*
X11028660Y23694640D01*
X10909074Y23814226D01*
X10909068Y23814231D01*
X10765881Y23904202D01*
X10765878Y23904204D01*
X10606240Y23960064D01*
X10438187Y23978998D01*
X10438181Y23978998D01*
X10270127Y23960064D01*
X10110491Y23904204D01*
X9963503Y23811845D01*
X9896266Y23792845D01*
X9829431Y23813213D01*
X9792538Y23850866D01*
X9707571Y23986089D01*
X9587983Y24105677D01*
X9587977Y24105682D01*
X9444790Y24195653D01*
X9444787Y24195655D01*
X9285149Y24251515D01*
X9117096Y24270449D01*
X9117090Y24270449D01*
X8949036Y24251515D01*
X8789398Y24195655D01*
X8789395Y24195653D01*
X8646208Y24105682D01*
X8646202Y24105677D01*
X8526616Y23986091D01*
X8526614Y23986088D01*
X8469753Y23895596D01*
X8417418Y23849305D01*
X8348364Y23838658D01*
X8284516Y23867034D01*
X8277079Y23873888D01*
X8243290Y23907677D01*
X8243284Y23907682D01*
X8100097Y23997653D01*
X8100094Y23997655D01*
X7940456Y24053515D01*
X7772403Y24072449D01*
X7772397Y24072449D01*
X7604343Y24053515D01*
X7444705Y23997655D01*
X7444702Y23997653D01*
X7301515Y23907682D01*
X7301509Y23907677D01*
X7181923Y23788091D01*
X7181918Y23788085D01*
X7091947Y23644898D01*
X7091945Y23644895D01*
X7036085Y23485256D01*
X7026803Y23402870D01*
X6999736Y23338456D01*
X6942141Y23298901D01*
X6917469Y23293534D01*
X6899546Y23291515D01*
X6739907Y23235656D01*
X6739902Y23235653D01*
X6596715Y23145682D01*
X6596709Y23145677D01*
X6477123Y23026091D01*
X6477118Y23026085D01*
X6387147Y22882898D01*
X6387145Y22882895D01*
X6331285Y22723257D01*
X6312351Y22555203D01*
X6312351Y22555198D01*
X6331285Y22387144D01*
X6387145Y22227508D01*
X6442096Y22140054D01*
X6461096Y22072817D01*
X6460322Y22060199D01*
X6450835Y21975994D01*
X6450835Y21969025D01*
X6448243Y21969025D01*
X6438252Y21911938D01*
X6390910Y21860553D01*
X6327079Y21842862D01*
X6021133Y21842862D01*
X5954094Y21862547D01*
X5908339Y21915351D01*
X5897913Y21952979D01*
X5888933Y22032680D01*
X5833075Y22192313D01*
X5805864Y22235618D01*
X5786863Y22302854D01*
X5798782Y22341969D01*
X5799450Y22351305D01*
X5804368Y22360302D01*
X5807230Y22369690D01*
X5811578Y22375886D01*
X5816367Y22382282D01*
X5816373Y22382290D01*
X5885326Y22508571D01*
X5915909Y22649163D01*
X5920893Y22718855D01*
X5911319Y22852708D01*
X5917962Y22902503D01*
X5968713Y23047540D01*
X5968713Y23047541D01*
X5987649Y23215598D01*
X5987649Y23215603D01*
X5968714Y23383657D01*
X5914508Y23538569D01*
X5912856Y23543290D01*
X5912855Y23543291D01*
X5912854Y23543295D01*
X5912852Y23543298D01*
X5822881Y23686485D01*
X5822876Y23686491D01*
X5789580Y23719787D01*
X5758284Y23772533D01*
X5754262Y23786231D01*
X5716961Y23913266D01*
X5639173Y24034305D01*
X5624141Y24051653D01*
X5593424Y24087103D01*
X5593420Y24087106D01*
X5593418Y24087109D01*
X5484684Y24181329D01*
X5484681Y24181331D01*
X5484679Y24181332D01*
X5353813Y24241098D01*
X5353808Y24241100D01*
X5353807Y24241100D01*
X5286768Y24260785D01*
X5286770Y24260785D01*
X5286765Y24260786D01*
X5219555Y24270449D01*
X5144348Y24281262D01*
X4518771Y24281262D01*
X4518762Y24281262D01*
X4518761Y24281261D01*
X4411320Y24269710D01*
X4411308Y24269708D01*
X4359798Y24258502D01*
X4257273Y24224379D01*
X4257267Y24224376D01*
X4136233Y24146591D01*
X4136222Y24146583D01*
X4083429Y24100839D01*
X4010185Y24016312D01*
X3951406Y23978538D01*
X3881536Y23978539D01*
X3850501Y23992522D01*
X3845292Y23995795D01*
X3845291Y23995796D01*
X3845290Y23995796D01*
X3806970Y24009205D01*
X3685656Y24051655D01*
X3517603Y24070589D01*
X3517597Y24070589D01*
X3349543Y24051655D01*
X3189905Y23995795D01*
X3189902Y23995793D01*
X3046715Y23905822D01*
X3046709Y23905817D01*
X2927123Y23786231D01*
X2927118Y23786225D01*
X2837147Y23643038D01*
X2837145Y23643035D01*
X2781285Y23483397D01*
X2762351Y23315343D01*
X2762351Y23315338D01*
X2781285Y23147284D01*
X2837145Y22987646D01*
X2837147Y22987643D01*
X2927118Y22844456D01*
X2927123Y22844450D01*
X3046709Y22724864D01*
X3046715Y22724859D01*
X3189902Y22634888D01*
X3189906Y22634887D01*
X3189910Y22634884D01*
X3200332Y22631238D01*
X3257109Y22590517D01*
X3282858Y22525565D01*
X3283377Y22515120D01*
X3295660Y20869274D01*
X3295660Y20869266D01*
X3302248Y20791607D01*
X3302251Y20791588D01*
X3308389Y20753987D01*
X3308393Y20753967D01*
X3314734Y20727942D01*
X3311477Y20658148D01*
X3278392Y20611291D01*
X3280178Y20609505D01*
X3155667Y20484995D01*
X3155662Y20484989D01*
X3065691Y20341802D01*
X3065689Y20341799D01*
X3009829Y20182161D01*
X2990895Y20014107D01*
X2990895Y20014102D01*
X3009829Y19846048D01*
X3065689Y19686410D01*
X3065691Y19686407D01*
X3155662Y19543220D01*
X3155667Y19543214D01*
X3215097Y19483784D01*
X3248582Y19422461D01*
X3250637Y19382222D01*
X3245915Y19340306D01*
X3264849Y19172252D01*
X3320709Y19012614D01*
X3320711Y19012611D01*
X3410682Y18869424D01*
X3410687Y18869418D01*
X3438084Y18842021D01*
X3471569Y18780698D01*
X3466585Y18711006D01*
X3455398Y18688370D01*
X3454012Y18686166D01*
X3398153Y18526531D01*
X3379219Y18358477D01*
X3379219Y18358472D01*
X3398153Y18190418D01*
X3454012Y18030783D01*
X3461012Y18019643D01*
X3480011Y17952406D01*
X3459642Y17885571D01*
X3450335Y17873173D01*
X3418236Y17835565D01*
X3359443Y17704246D01*
X3359442Y17704245D01*
X3341002Y17639665D01*
X3340444Y17637862D01*
X3340257Y17637058D01*
X3320845Y17494502D01*
X3320845Y17494495D01*
X3323642Y17119527D01*
X3343912Y16981544D01*
X3343912Y16981542D01*
X3362919Y16916488D01*
X3420115Y16789313D01*
X3420121Y16789302D01*
X3445342Y16749163D01*
X3457389Y16724148D01*
X3466396Y16698409D01*
X3472575Y16671335D01*
X3475627Y16644246D01*
X3475628Y16616482D01*
X3472573Y16589377D01*
X3466397Y16562311D01*
X3458052Y16538463D01*
X3458051Y16538459D01*
X3444147Y16491550D01*
X3444136Y16491510D01*
X3438444Y16468215D01*
X3429138Y16420143D01*
X3429138Y16276269D01*
X3431875Y16257239D01*
X3439083Y16207107D01*
X3439084Y16207104D01*
X3439085Y16207097D01*
X3471177Y16097801D01*
X3475421Y16048985D01*
X3469714Y15998327D01*
X3480227Y15905018D01*
X3468172Y15836196D01*
X3420823Y15784817D01*
X3397967Y15774095D01*
X3380707Y15768055D01*
X3380700Y15768052D01*
X3237515Y15678082D01*
X3237509Y15678077D01*
X3117923Y15558491D01*
X3117918Y15558485D01*
X3027947Y15415298D01*
X3027945Y15415295D01*
X2972085Y15255657D01*
X2953151Y15087603D01*
X2953151Y15087598D01*
X2972085Y14919544D01*
X3027945Y14759906D01*
X3027947Y14759903D01*
X3117918Y14616716D01*
X3117923Y14616710D01*
X3237509Y14497124D01*
X3237515Y14497119D01*
X3380702Y14407148D01*
X3380705Y14407146D01*
X3380709Y14407145D01*
X3380710Y14407144D01*
X3534456Y14353346D01*
X3546914Y14348987D01*
X3545959Y14346261D01*
X3595630Y14318484D01*
X3628494Y14256826D01*
X3622806Y14187188D01*
X3580373Y14131680D01*
X3548023Y14114651D01*
X3482313Y14091658D01*
X3482302Y14091653D01*
X3339115Y14001682D01*
X3339109Y14001677D01*
X3219523Y13882091D01*
X3219518Y13882085D01*
X3129547Y13738898D01*
X3129545Y13738895D01*
X3073685Y13579257D01*
X3054751Y13411203D01*
X3054751Y13411198D01*
X3073685Y13243144D01*
X3129545Y13083506D01*
X3129547Y13083503D01*
X3219518Y12940316D01*
X3219523Y12940310D01*
X3266113Y12893720D01*
X3299598Y12832397D01*
X3294614Y12762705D01*
X3252742Y12706772D01*
X3228869Y12692760D01*
X3191634Y12676182D01*
X3191632Y12676181D01*
X3042749Y12568011D01*
X3042747Y12568009D01*
X2919602Y12431241D01*
X2827584Y12271862D01*
X2827581Y12271856D01*
X2770714Y12096835D01*
X2770713Y12096831D01*
X2751476Y11913802D01*
X1896322Y11913802D01*
X1877085Y12096831D01*
X1840061Y12210779D01*
X1820216Y12271856D01*
X1820213Y12271862D01*
X1728195Y12431242D01*
X1605050Y12568009D01*
X1605048Y12568011D01*
X1456165Y12676181D01*
X1456162Y12676183D01*
X1456161Y12676183D01*
X1357064Y12720304D01*
X1288038Y12751037D01*
X1288033Y12751039D01*
X1108019Y12789302D01*
X923981Y12789302D01*
X743966Y12751039D01*
X743965Y12751039D01*
X674935Y12720304D01*
X605685Y12711020D01*
X542408Y12740649D01*
X505196Y12799784D01*
X500500Y12833584D01*
X500500Y13635173D01*
X520185Y13702212D01*
X572989Y13747967D01*
X642147Y13757911D01*
X665456Y13752214D01*
X695541Y13741687D01*
X863597Y13722751D01*
X863600Y13722751D01*
X863603Y13722751D01*
X1031656Y13741686D01*
X1049606Y13747967D01*
X1191290Y13797544D01*
X1191292Y13797546D01*
X1191294Y13797546D01*
X1191297Y13797548D01*
X1334484Y13887519D01*
X1334485Y13887520D01*
X1334490Y13887523D01*
X1454077Y14007110D01*
X1478200Y14045501D01*
X1544052Y14150303D01*
X1544054Y14150306D01*
X1544054Y14150308D01*
X1544056Y14150310D01*
X1599913Y14309941D01*
X1599913Y14309942D01*
X1599914Y14309944D01*
X1618849Y14477998D01*
X1618849Y14478003D01*
X1599914Y14646057D01*
X1544054Y14805695D01*
X1544052Y14805698D01*
X1454081Y14948885D01*
X1454076Y14948891D01*
X1334490Y15068477D01*
X1334484Y15068482D01*
X1191297Y15158453D01*
X1191294Y15158455D01*
X1031656Y15214315D01*
X863603Y15233249D01*
X863597Y15233249D01*
X695540Y15214314D01*
X665453Y15203786D01*
X595674Y15200225D01*
X535047Y15234955D01*
X502821Y15296949D01*
X500500Y15320828D01*
X500500Y16181728D01*
X520185Y16248767D01*
X572989Y16294522D01*
X642147Y16304466D01*
X705703Y16275441D01*
X712181Y16269409D01*
X734922Y16246668D01*
X734928Y16246663D01*
X878115Y16156692D01*
X878118Y16156690D01*
X878122Y16156689D01*
X878123Y16156688D01*
X950726Y16131284D01*
X1037756Y16100830D01*
X1205810Y16081895D01*
X1205813Y16081895D01*
X1205816Y16081895D01*
X1373869Y16100830D01*
X1426536Y16119259D01*
X1533503Y16156688D01*
X1533505Y16156690D01*
X1533507Y16156690D01*
X1533510Y16156692D01*
X1676697Y16246663D01*
X1676698Y16246664D01*
X1676703Y16246667D01*
X1796290Y16366254D01*
X1803720Y16378078D01*
X1886265Y16509447D01*
X1886267Y16509450D01*
X1886267Y16509452D01*
X1886269Y16509454D01*
X1942126Y16669085D01*
X1942126Y16669086D01*
X1942127Y16669088D01*
X1961062Y16837142D01*
X1961062Y16837147D01*
X1942127Y17005201D01*
X1910049Y17096875D01*
X1886269Y17164834D01*
X1886268Y17164835D01*
X1886267Y17164839D01*
X1886265Y17164842D01*
X1796294Y17308029D01*
X1796289Y17308035D01*
X1676703Y17427621D01*
X1676697Y17427626D01*
X1533510Y17517597D01*
X1533507Y17517599D01*
X1373869Y17573459D01*
X1205816Y17592393D01*
X1205810Y17592393D01*
X1037756Y17573459D01*
X878118Y17517599D01*
X878115Y17517597D01*
X734928Y17427626D01*
X734922Y17427621D01*
X712181Y17404879D01*
X650858Y17371394D01*
X581166Y17376378D01*
X525233Y17418250D01*
X500816Y17483714D01*
X500500Y17492560D01*
X500500Y18308345D01*
X520185Y18375384D01*
X572989Y18421139D01*
X642147Y18431083D01*
X690264Y18410280D01*
X691614Y18412427D01*
X840702Y18318748D01*
X840705Y18318746D01*
X840709Y18318745D01*
X840710Y18318744D01*
X870429Y18308345D01*
X1000343Y18262886D01*
X1168397Y18243951D01*
X1168400Y18243951D01*
X1168403Y18243951D01*
X1336456Y18262886D01*
X1354932Y18269351D01*
X1496090Y18318744D01*
X1496092Y18318746D01*
X1496094Y18318746D01*
X1496097Y18318748D01*
X1639284Y18408719D01*
X1639285Y18408720D01*
X1639290Y18408723D01*
X1758877Y18528310D01*
X1758881Y18528316D01*
X1848852Y18671503D01*
X1848854Y18671506D01*
X1848854Y18671508D01*
X1848856Y18671510D01*
X1904713Y18831141D01*
X1904713Y18831142D01*
X1904714Y18831144D01*
X1923649Y18999198D01*
X1923649Y18999200D01*
X1922393Y19010344D01*
X1934446Y19079164D01*
X1979640Y19129222D01*
X2045690Y19170723D01*
X2165277Y19290310D01*
X2202234Y19349126D01*
X2255252Y19433503D01*
X2255254Y19433506D01*
X2255254Y19433508D01*
X2255256Y19433510D01*
X2311113Y19593141D01*
X2311113Y19593142D01*
X2311114Y19593144D01*
X2330049Y19761198D01*
X2330049Y19761203D01*
X2311114Y19929257D01*
X2255254Y20088895D01*
X2255252Y20088898D01*
X2165281Y20232085D01*
X2165276Y20232091D01*
X2045690Y20351677D01*
X2028060Y20362755D01*
X1981770Y20415087D01*
X1970813Y20453862D01*
X1962216Y20530171D01*
X1955514Y20589656D01*
X1944846Y20620144D01*
X1899656Y20749290D01*
X1899655Y20749291D01*
X1899654Y20749295D01*
X1899652Y20749298D01*
X1809681Y20892485D01*
X1809676Y20892491D01*
X1690090Y21012077D01*
X1690084Y21012082D01*
X1546897Y21102053D01*
X1546894Y21102055D01*
X1387256Y21157915D01*
X1219203Y21176849D01*
X1219197Y21176849D01*
X1051143Y21157915D01*
X891505Y21102055D01*
X891502Y21102053D01*
X748315Y21012082D01*
X748309Y21012077D01*
X712181Y20975948D01*
X650858Y20942463D01*
X581166Y20947447D01*
X525233Y20989319D01*
X500816Y21054783D01*
X500500Y21063629D01*
X500500Y24291998D01*
X921151Y24291998D01*
X940085Y24123944D01*
X995945Y23964306D01*
X995947Y23964303D01*
X1085918Y23821116D01*
X1085923Y23821110D01*
X1205509Y23701524D01*
X1205515Y23701519D01*
X1348702Y23611548D01*
X1348705Y23611546D01*
X1348709Y23611545D01*
X1348710Y23611544D01*
X1421313Y23586140D01*
X1508343Y23555686D01*
X1676397Y23536751D01*
X1676400Y23536751D01*
X1676403Y23536751D01*
X1844456Y23555686D01*
X1844459Y23555687D01*
X2004090Y23611544D01*
X2004092Y23611546D01*
X2004094Y23611546D01*
X2004097Y23611548D01*
X2147284Y23701519D01*
X2147285Y23701520D01*
X2147290Y23701523D01*
X2266877Y23821110D01*
X2277903Y23838658D01*
X2356852Y23964303D01*
X2356854Y23964306D01*
X2356854Y23964308D01*
X2356856Y23964310D01*
X2412713Y24123941D01*
X2412713Y24123942D01*
X2412714Y24123944D01*
X2431649Y24291998D01*
X2431649Y24292003D01*
X2431280Y24295277D01*
X2431649Y24297384D01*
X2431649Y24298964D01*
X2431926Y24298964D01*
X2443334Y24364099D01*
X2490683Y24415478D01*
X2558293Y24433103D01*
X2624699Y24411377D01*
X2627366Y24409493D01*
X2644839Y24396798D01*
X2764274Y24343622D01*
X2812961Y24321945D01*
X2812966Y24321943D01*
X2992981Y24283679D01*
X3177019Y24283679D01*
X3357034Y24321943D01*
X3525161Y24396798D01*
X3674050Y24504972D01*
X3797195Y24641739D01*
X3824365Y24688798D01*
X14738751Y24688798D01*
X14757685Y24520744D01*
X14813545Y24361106D01*
X14813547Y24361103D01*
X14903518Y24217916D01*
X14903523Y24217910D01*
X15023109Y24098324D01*
X15023115Y24098319D01*
X15166302Y24008348D01*
X15166305Y24008346D01*
X15166309Y24008345D01*
X15166310Y24008344D01*
X15229914Y23986088D01*
X15325943Y23952486D01*
X15493997Y23933551D01*
X15494000Y23933551D01*
X15494003Y23933551D01*
X15662056Y23952486D01*
X15695827Y23964303D01*
X15821690Y24008344D01*
X15821692Y24008346D01*
X15821694Y24008346D01*
X15821697Y24008348D01*
X15964884Y24098319D01*
X15964885Y24098320D01*
X15964890Y24098323D01*
X16084477Y24217910D01*
X16099047Y24241098D01*
X16174452Y24361103D01*
X16174454Y24361106D01*
X16174454Y24361108D01*
X16174456Y24361110D01*
X16230313Y24520741D01*
X16230313Y24520742D01*
X16230314Y24520744D01*
X16249249Y24688798D01*
X16249249Y24688803D01*
X16230314Y24856857D01*
X16189864Y24972456D01*
X16174456Y25016490D01*
X16174455Y25016491D01*
X16174454Y25016495D01*
X16174452Y25016498D01*
X16084481Y25159685D01*
X16084476Y25159691D01*
X15964890Y25279277D01*
X15964884Y25279282D01*
X15821697Y25369253D01*
X15821694Y25369255D01*
X15662056Y25425115D01*
X15494003Y25444049D01*
X15493997Y25444049D01*
X15325943Y25425115D01*
X15166305Y25369255D01*
X15166302Y25369253D01*
X15023115Y25279282D01*
X15023109Y25279277D01*
X14903523Y25159691D01*
X14903518Y25159685D01*
X14813547Y25016498D01*
X14813545Y25016495D01*
X14757685Y24856857D01*
X14738751Y24688803D01*
X14738751Y24688798D01*
X3824365Y24688798D01*
X3889214Y24801120D01*
X3946085Y24976150D01*
X3965322Y25159179D01*
X3946085Y25342208D01*
X3889214Y25517238D01*
X3797195Y25676619D01*
X3674050Y25813386D01*
X3674048Y25813388D01*
X3525165Y25921558D01*
X3525162Y25921560D01*
X3525161Y25921560D01*
X3464112Y25948741D01*
X3357038Y25996414D01*
X3357033Y25996416D01*
X3177019Y26034679D01*
X2992981Y26034679D01*
X2812966Y25996416D01*
X2812961Y25996414D01*
X2644839Y25921560D01*
X2644834Y25921558D01*
X2495951Y25813388D01*
X2495949Y25813386D01*
X2372804Y25676618D01*
X2280786Y25517239D01*
X2280783Y25517233D01*
X2223916Y25342212D01*
X2223915Y25342208D01*
X2217301Y25279277D01*
X2204678Y25159179D01*
X2213215Y25077950D01*
X2200645Y25009220D01*
X2152913Y24958196D01*
X2085172Y24941079D01*
X2023922Y24959995D01*
X2004092Y24972455D01*
X2004091Y24972456D01*
X2004090Y24972456D01*
X1965770Y24985865D01*
X1844456Y25028315D01*
X1676403Y25047249D01*
X1676397Y25047249D01*
X1508343Y25028315D01*
X1348705Y24972455D01*
X1348702Y24972453D01*
X1205515Y24882482D01*
X1205509Y24882477D01*
X1085923Y24762891D01*
X1085918Y24762885D01*
X995947Y24619698D01*
X995945Y24619695D01*
X940085Y24460057D01*
X921151Y24292003D01*
X921151Y24291998D01*
X500500Y24291998D01*
X500500Y28092400D01*
X846878Y28092400D01*
X866115Y27909371D01*
X866116Y27909368D01*
X922983Y27734347D01*
X922986Y27734341D01*
X1015005Y27574960D01*
X1079824Y27502971D01*
X1138149Y27438194D01*
X1138151Y27438192D01*
X1287034Y27330022D01*
X1287035Y27330022D01*
X1287039Y27330019D01*
X1424153Y27268972D01*
X1455161Y27255166D01*
X1455166Y27255164D01*
X1635181Y27216900D01*
X1819219Y27216900D01*
X1999234Y27255164D01*
X2167361Y27330019D01*
X2316250Y27438193D01*
X2439395Y27574960D01*
X2444845Y27584400D01*
X4555278Y27584400D01*
X4574515Y27401371D01*
X4574516Y27401368D01*
X4631383Y27226347D01*
X4631386Y27226341D01*
X4723405Y27066960D01*
X4803075Y26978477D01*
X4846549Y26930194D01*
X4846551Y26930192D01*
X4995434Y26822022D01*
X4995436Y26822021D01*
X4995439Y26822019D01*
X5067024Y26790148D01*
X5120259Y26744899D01*
X5140581Y26678050D01*
X5133629Y26635915D01*
X5105686Y26556058D01*
X5086751Y26388003D01*
X5086751Y26387998D01*
X5105685Y26219944D01*
X5161545Y26060306D01*
X5161547Y26060303D01*
X5251518Y25917116D01*
X5251523Y25917110D01*
X5371109Y25797524D01*
X5371115Y25797519D01*
X5514302Y25707548D01*
X5514305Y25707546D01*
X5514309Y25707545D01*
X5514310Y25707544D01*
X5586913Y25682140D01*
X5673943Y25651686D01*
X5841997Y25632751D01*
X5842000Y25632751D01*
X5842003Y25632751D01*
X6010056Y25651686D01*
X6010059Y25651687D01*
X6169690Y25707544D01*
X6169692Y25707546D01*
X6169694Y25707546D01*
X6169697Y25707548D01*
X6312884Y25797519D01*
X6312885Y25797520D01*
X6312890Y25797523D01*
X6432477Y25917110D01*
X6435273Y25921560D01*
X6522452Y26060303D01*
X6522454Y26060306D01*
X6522454Y26060308D01*
X6522456Y26060310D01*
X6578313Y26219941D01*
X6578313Y26219942D01*
X6578314Y26219944D01*
X6597249Y26387998D01*
X6597249Y26388003D01*
X6578314Y26556057D01*
X6522454Y26715695D01*
X6522452Y26715698D01*
X6432481Y26858885D01*
X6432476Y26858891D01*
X6312890Y26978477D01*
X6312887Y26978479D01*
X6255394Y27014605D01*
X6209103Y27066940D01*
X6198456Y27135993D01*
X6213978Y27181594D01*
X6239814Y27226341D01*
X6247622Y27250373D01*
X6287056Y27308048D01*
X6351414Y27335248D01*
X6391333Y27333348D01*
X6461181Y27318500D01*
X6461182Y27318500D01*
X6645219Y27318500D01*
X6804369Y27352329D01*
X6874036Y27347013D01*
X6929769Y27304876D01*
X6937534Y27293043D01*
X7009405Y27168560D01*
X7099539Y27068456D01*
X7132549Y27031794D01*
X7132551Y27031792D01*
X7281434Y26923622D01*
X7281435Y26923622D01*
X7281439Y26923619D01*
X7418553Y26862572D01*
X7449561Y26848766D01*
X7449566Y26848764D01*
X7629581Y26810500D01*
X7813619Y26810500D01*
X7993634Y26848764D01*
X8161761Y26923619D01*
X8310650Y27031793D01*
X8433795Y27168560D01*
X8525814Y27327941D01*
X8582685Y27502971D01*
X8601922Y27686000D01*
X8593635Y27764844D01*
X11473217Y27764844D01*
X11492151Y27596790D01*
X11548011Y27437152D01*
X11548013Y27437149D01*
X11637984Y27293962D01*
X11637989Y27293956D01*
X11757575Y27174370D01*
X11757581Y27174365D01*
X11900768Y27084394D01*
X11900771Y27084392D01*
X11900775Y27084391D01*
X11900776Y27084390D01*
X11950646Y27066940D01*
X12060409Y27028532D01*
X12228463Y27009597D01*
X12228466Y27009597D01*
X12228469Y27009597D01*
X12396522Y27028532D01*
X12405839Y27031792D01*
X12556156Y27084390D01*
X12556158Y27084392D01*
X12556160Y27084392D01*
X12556163Y27084394D01*
X12699350Y27174365D01*
X12699351Y27174366D01*
X12699356Y27174369D01*
X12818943Y27293956D01*
X12834365Y27318500D01*
X12908918Y27437149D01*
X12908920Y27437152D01*
X12908920Y27437154D01*
X12908922Y27437156D01*
X12964779Y27596787D01*
X12964779Y27596788D01*
X12964780Y27596790D01*
X12983715Y27764844D01*
X12983715Y27764849D01*
X12964780Y27932903D01*
X12925884Y28044060D01*
X12908922Y28092536D01*
X12908921Y28092537D01*
X12908920Y28092541D01*
X12908918Y28092544D01*
X12818947Y28235731D01*
X12818942Y28235737D01*
X12699356Y28355323D01*
X12699350Y28355328D01*
X12556163Y28445299D01*
X12556160Y28445301D01*
X12396522Y28501161D01*
X12228469Y28520095D01*
X12228463Y28520095D01*
X12060409Y28501161D01*
X11900771Y28445301D01*
X11900768Y28445299D01*
X11757581Y28355328D01*
X11757575Y28355323D01*
X11637989Y28235737D01*
X11637984Y28235731D01*
X11548013Y28092544D01*
X11548011Y28092541D01*
X11492151Y27932903D01*
X11473217Y27764849D01*
X11473217Y27764844D01*
X8593635Y27764844D01*
X8582685Y27869029D01*
X8525814Y28044059D01*
X8433795Y28203440D01*
X8310650Y28340207D01*
X8310648Y28340209D01*
X8161765Y28448379D01*
X8161762Y28448381D01*
X8161761Y28448381D01*
X8100712Y28475562D01*
X7993638Y28523235D01*
X7993633Y28523237D01*
X7813619Y28561500D01*
X7629581Y28561500D01*
X7470431Y28527672D01*
X7400764Y28532988D01*
X7345030Y28575125D01*
X7337263Y28586962D01*
X7311115Y28632251D01*
X7265395Y28711440D01*
X7142250Y28848207D01*
X7142248Y28848209D01*
X6993365Y28956379D01*
X6993362Y28956381D01*
X6993361Y28956381D01*
X6932312Y28983562D01*
X6825238Y29031235D01*
X6825233Y29031237D01*
X6645219Y29069500D01*
X6461181Y29069500D01*
X6281166Y29031237D01*
X6281161Y29031235D01*
X6113039Y28956381D01*
X6113034Y28956379D01*
X5964151Y28848209D01*
X5964149Y28848207D01*
X5841004Y28711439D01*
X5748986Y28552060D01*
X5748982Y28552052D01*
X5741175Y28528023D01*
X5701736Y28470348D01*
X5637377Y28443152D01*
X5597464Y28445054D01*
X5527619Y28459900D01*
X5343581Y28459900D01*
X5163566Y28421637D01*
X5163561Y28421635D01*
X4995439Y28346781D01*
X4995434Y28346779D01*
X4846551Y28238609D01*
X4846549Y28238607D01*
X4723404Y28101839D01*
X4631386Y27942460D01*
X4631383Y27942454D01*
X4574516Y27767433D01*
X4574515Y27767429D01*
X4555278Y27584400D01*
X2444845Y27584400D01*
X2531414Y27734341D01*
X2588285Y27909371D01*
X2607522Y28092400D01*
X2588285Y28275429D01*
X2540713Y28421840D01*
X2531416Y28450454D01*
X2531413Y28450460D01*
X2519049Y28471875D01*
X2439395Y28609840D01*
X2316250Y28746607D01*
X2316248Y28746609D01*
X2167365Y28854779D01*
X2167362Y28854781D01*
X2167361Y28854781D01*
X2106312Y28881962D01*
X1999238Y28929635D01*
X1999233Y28929637D01*
X1819219Y28967900D01*
X1635181Y28967900D01*
X1455166Y28929637D01*
X1455161Y28929635D01*
X1287039Y28854781D01*
X1287034Y28854779D01*
X1138151Y28746609D01*
X1138149Y28746607D01*
X1015004Y28609839D01*
X922986Y28450460D01*
X922983Y28450454D01*
X866116Y28275433D01*
X866115Y28275429D01*
X846878Y28092400D01*
X500500Y28092400D01*
X500500Y30995573D01*
X500816Y31004419D01*
X504852Y31060854D01*
X515130Y31204564D01*
X517646Y31222062D01*
X559356Y31413801D01*
X564333Y31430752D01*
X632911Y31614615D01*
X640259Y31630702D01*
X647973Y31644830D01*
X734291Y31802911D01*
X743845Y31817779D01*
X861448Y31974877D01*
X873020Y31988231D01*
X1011769Y32126980D01*
X1025123Y32138552D01*
X1182221Y32256155D01*
X1197089Y32265709D01*
X1369298Y32359742D01*
X1385385Y32367089D01*
X1569248Y32435667D01*
X1586199Y32440644D01*
X1777938Y32482354D01*
X1795436Y32484870D01*
X1995582Y32499184D01*
X2004428Y32499500D01*
X2065892Y32499500D01*
X7814167Y32499500D01*
X7881206Y32479815D01*
G37*
%TD.AperFunction*%
%TD*%
%TA.AperFunction,Conductor*%
%TO.N,+1V1*%
G36*
X5211387Y23756077D02*
G01*
X5257142Y23703273D01*
X5267086Y23634115D01*
X5261389Y23610807D01*
X5214821Y23477727D01*
X5214821Y23477725D01*
X5195886Y23309668D01*
X5195886Y23309663D01*
X5214820Y23141609D01*
X5270680Y22981971D01*
X5270682Y22981968D01*
X5360653Y22838781D01*
X5360658Y22838775D01*
X5383196Y22816237D01*
X5416681Y22754914D01*
X5411697Y22685222D01*
X5369825Y22629289D01*
X5304361Y22604872D01*
X5281632Y22605336D01*
X5152623Y22619871D01*
X5152616Y22619871D01*
X4984562Y22600937D01*
X4824924Y22545077D01*
X4824921Y22545075D01*
X4681734Y22455104D01*
X4681728Y22455099D01*
X4562142Y22335513D01*
X4562137Y22335507D01*
X4472166Y22192320D01*
X4472164Y22192317D01*
X4416304Y22032679D01*
X4397370Y21864625D01*
X4397370Y21864620D01*
X4416304Y21696566D01*
X4472164Y21536928D01*
X4472166Y21536925D01*
X4562137Y21393738D01*
X4562142Y21393732D01*
X4681728Y21274146D01*
X4681734Y21274141D01*
X4824921Y21184170D01*
X4824924Y21184168D01*
X4824928Y21184167D01*
X4824929Y21184166D01*
X4897532Y21158762D01*
X4984562Y21128308D01*
X5152616Y21109373D01*
X5152619Y21109373D01*
X5152622Y21109373D01*
X5320675Y21128308D01*
X5361542Y21142608D01*
X5480309Y21184166D01*
X5480311Y21184168D01*
X5480313Y21184168D01*
X5480316Y21184170D01*
X5623503Y21274141D01*
X5623504Y21274142D01*
X5623509Y21274145D01*
X5650407Y21301043D01*
X5711730Y21334528D01*
X5738088Y21337362D01*
X6776099Y21337362D01*
X6842071Y21318356D01*
X6869625Y21301043D01*
X6878394Y21295533D01*
X7038025Y21239676D01*
X7038026Y21239676D01*
X7038029Y21239675D01*
X7043728Y21238374D01*
X7104708Y21204268D01*
X7137569Y21142608D01*
X7140135Y21118710D01*
X7158297Y19284303D01*
X7139277Y19217072D01*
X7086929Y19170796D01*
X7048187Y19159855D01*
X6999796Y19154403D01*
X6840157Y19098544D01*
X6840152Y19098541D01*
X6696962Y19008568D01*
X6637968Y18949574D01*
X6576644Y18916090D01*
X6509332Y18920215D01*
X6419886Y18951514D01*
X6251829Y18970449D01*
X6251823Y18970449D01*
X6083769Y18951515D01*
X5924131Y18895655D01*
X5924128Y18895653D01*
X5780941Y18805682D01*
X5780935Y18805677D01*
X5661349Y18686091D01*
X5661344Y18686085D01*
X5571373Y18542898D01*
X5571371Y18542895D01*
X5515511Y18383257D01*
X5496577Y18215203D01*
X5496577Y18215198D01*
X5515511Y18047144D01*
X5571371Y17887506D01*
X5571373Y17887503D01*
X5661344Y17744316D01*
X5661349Y17744310D01*
X5780935Y17624724D01*
X5780941Y17624719D01*
X5924128Y17534748D01*
X5924131Y17534746D01*
X5924135Y17534745D01*
X5924136Y17534744D01*
X5996739Y17509340D01*
X6083769Y17478886D01*
X6251823Y17459951D01*
X6251826Y17459951D01*
X6251829Y17459951D01*
X6419882Y17478886D01*
X6428641Y17481951D01*
X6579516Y17534744D01*
X6722716Y17624723D01*
X6781707Y17683715D01*
X6843027Y17717199D01*
X6910342Y17713074D01*
X6999790Y17681775D01*
X7065333Y17674390D01*
X7129748Y17647324D01*
X7169303Y17589730D01*
X7175445Y17552398D01*
X7182368Y16853152D01*
X7163369Y16785954D01*
X7130026Y16732889D01*
X7074167Y16573254D01*
X7055233Y16405200D01*
X7055233Y16405195D01*
X7062078Y16344446D01*
X7050024Y16275624D01*
X7002675Y16224245D01*
X6938858Y16206562D01*
X6611032Y16206562D01*
X6543993Y16226247D01*
X6498238Y16279051D01*
X6487812Y16344446D01*
X6504415Y16491801D01*
X6504415Y16491806D01*
X6485480Y16659860D01*
X6429620Y16819498D01*
X6429618Y16819501D01*
X6339647Y16962688D01*
X6339642Y16962694D01*
X6220056Y17082280D01*
X6220050Y17082285D01*
X6076863Y17172256D01*
X6076860Y17172258D01*
X5917222Y17228118D01*
X5749169Y17247052D01*
X5749163Y17247052D01*
X5581109Y17228118D01*
X5421471Y17172258D01*
X5421468Y17172256D01*
X5278281Y17082285D01*
X5278275Y17082280D01*
X5158689Y16962694D01*
X5158684Y16962688D01*
X5068713Y16819501D01*
X5068711Y16819498D01*
X5012851Y16659860D01*
X4993917Y16491806D01*
X4993917Y16491801D01*
X5010520Y16344446D01*
X4998466Y16275624D01*
X4951117Y16224244D01*
X4887300Y16206562D01*
X4052231Y16206562D01*
X3985192Y16226247D01*
X3939437Y16279051D01*
X3929493Y16348209D01*
X3935189Y16371517D01*
X3946974Y16405195D01*
X3966955Y16462299D01*
X3966955Y16462300D01*
X3966956Y16462302D01*
X3985891Y16630356D01*
X3985891Y16630361D01*
X3966955Y16798416D01*
X3911098Y16958049D01*
X3848133Y17058255D01*
X3829129Y17123300D01*
X3826331Y17498267D01*
X3845514Y17565447D01*
X3897975Y17611595D01*
X3964211Y17622408D01*
X4134465Y17603225D01*
X4134468Y17603225D01*
X4134471Y17603225D01*
X4302524Y17622160D01*
X4309849Y17624723D01*
X4462158Y17678018D01*
X4462160Y17678020D01*
X4462162Y17678020D01*
X4462165Y17678022D01*
X4605352Y17767993D01*
X4605353Y17767994D01*
X4605358Y17767997D01*
X4724945Y17887584D01*
X4814920Y18030777D01*
X4814922Y18030780D01*
X4814922Y18030782D01*
X4814924Y18030784D01*
X4870781Y18190415D01*
X4870781Y18190416D01*
X4870782Y18190418D01*
X4889717Y18358472D01*
X4889717Y18358477D01*
X4870782Y18526531D01*
X4840328Y18613561D01*
X4814924Y18686164D01*
X4814923Y18686165D01*
X4814922Y18686169D01*
X4814920Y18686172D01*
X4724949Y18829359D01*
X4724944Y18829365D01*
X4697547Y18856762D01*
X4664062Y18918085D01*
X4669046Y18987777D01*
X4680232Y19010410D01*
X4681620Y19012618D01*
X4737477Y19172249D01*
X4756413Y19340308D01*
X4745005Y19441558D01*
X4737478Y19508365D01*
X4681618Y19668003D01*
X4681616Y19668006D01*
X4591645Y19811193D01*
X4591640Y19811199D01*
X4532209Y19870630D01*
X4498724Y19931953D01*
X4496670Y19972193D01*
X4501393Y20014104D01*
X4501393Y20014107D01*
X4482458Y20182161D01*
X4426598Y20341799D01*
X4426596Y20341802D01*
X4336625Y20484989D01*
X4336620Y20484995D01*
X4217034Y20604581D01*
X4217028Y20604586D01*
X4073841Y20694557D01*
X4073836Y20694560D01*
X3972225Y20730115D01*
X3914203Y20750417D01*
X3914201Y20750418D01*
X3914199Y20750418D01*
X3911252Y20750750D01*
X3909480Y20751495D01*
X3907415Y20751966D01*
X3907497Y20752328D01*
X3846840Y20777820D01*
X3807288Y20835417D01*
X3801146Y20873041D01*
X3788781Y22529922D01*
X3807965Y22597103D01*
X3846802Y22635835D01*
X3988490Y22724863D01*
X4108077Y22844450D01*
X4128325Y22876676D01*
X4178003Y22955735D01*
X4230337Y23002025D01*
X4282996Y23013762D01*
X4394771Y23013762D01*
X4394771Y23651762D01*
X4414456Y23718801D01*
X4467260Y23764556D01*
X4518771Y23775762D01*
X5144348Y23775762D01*
X5211387Y23756077D01*
G37*
%TD.AperFunction*%
%TD*%
M02*
