%TF.GenerationSoftware,KiCad,Pcbnew,8.0.0*%
%TF.CreationDate,2025-01-25T20:08:19-08:00*%
%TF.ProjectId,Hope,486f7065-2e6b-4696-9361-645f70636258,rev?*%
%TF.SameCoordinates,Original*%
%TF.FileFunction,Legend,Top*%
%TF.FilePolarity,Positive*%
%FSLAX46Y46*%
G04 Gerber Fmt 4.6, Leading zero omitted, Abs format (unit mm)*
G04 Created by KiCad (PCBNEW 8.0.0) date 2025-01-25 20:08:19*
%MOMM*%
%LPD*%
G01*
G04 APERTURE LIST*
G04 Aperture macros list*
%AMRoundRect*
0 Rectangle with rounded corners*
0 $1 Rounding radius*
0 $2 $3 $4 $5 $6 $7 $8 $9 X,Y pos of 4 corners*
0 Add a 4 corners polygon primitive as box body*
4,1,4,$2,$3,$4,$5,$6,$7,$8,$9,$2,$3,0*
0 Add four circle primitives for the rounded corners*
1,1,$1+$1,$2,$3*
1,1,$1+$1,$4,$5*
1,1,$1+$1,$6,$7*
1,1,$1+$1,$8,$9*
0 Add four rect primitives between the rounded corners*
20,1,$1+$1,$2,$3,$4,$5,0*
20,1,$1+$1,$4,$5,$6,$7,0*
20,1,$1+$1,$6,$7,$8,$9,0*
20,1,$1+$1,$8,$9,$2,$3,0*%
%AMFreePoly0*
4,1,19,0.500000,-0.750000,0.000000,-0.750000,0.000000,-0.744911,-0.071157,-0.744911,-0.207708,-0.704816,-0.327430,-0.627875,-0.420627,-0.520320,-0.479746,-0.390866,-0.500000,-0.250000,-0.500000,0.250000,-0.479746,0.390866,-0.420627,0.520320,-0.327430,0.627875,-0.207708,0.704816,-0.071157,0.744911,0.000000,0.744911,0.000000,0.750000,0.500000,0.750000,0.500000,-0.750000,0.500000,-0.750000,
$1*%
%AMFreePoly1*
4,1,19,0.000000,0.744911,0.071157,0.744911,0.207708,0.704816,0.327430,0.627875,0.420627,0.520320,0.479746,0.390866,0.500000,0.250000,0.500000,-0.250000,0.479746,-0.390866,0.420627,-0.520320,0.327430,-0.627875,0.207708,-0.704816,0.071157,-0.744911,0.000000,-0.744911,0.000000,-0.750000,-0.500000,-0.750000,-0.500000,0.750000,0.000000,0.750000,0.000000,0.744911,0.000000,0.744911,
$1*%
G04 Aperture macros list end*
%ADD10C,0.187500*%
%ADD11C,0.120000*%
%ADD12C,0.150000*%
%ADD13C,0.250000*%
%ADD14FreePoly0,180.000000*%
%ADD15FreePoly1,180.000000*%
%ADD16RoundRect,0.140000X-0.170000X0.140000X-0.170000X-0.140000X0.170000X-0.140000X0.170000X0.140000X0*%
%ADD17RoundRect,0.140000X0.170000X-0.140000X0.170000X0.140000X-0.170000X0.140000X-0.170000X-0.140000X0*%
%ADD18RoundRect,0.135000X0.185000X-0.135000X0.185000X0.135000X-0.185000X0.135000X-0.185000X-0.135000X0*%
%ADD19R,1.000000X1.000000*%
%ADD20RoundRect,0.571500X0.678500X-0.571500X0.678500X0.571500X-0.678500X0.571500X-0.678500X-0.571500X0*%
%ADD21RoundRect,0.150000X0.587500X0.150000X-0.587500X0.150000X-0.587500X-0.150000X0.587500X-0.150000X0*%
%ADD22RoundRect,0.125000X-0.125000X0.125000X-0.125000X-0.125000X0.125000X-0.125000X0.125000X0.125000X0*%
%ADD23RoundRect,0.135000X-0.185000X0.135000X-0.185000X-0.135000X0.185000X-0.135000X0.185000X0.135000X0*%
%ADD24R,1.500000X1.000000*%
%ADD25RoundRect,0.140000X-0.140000X-0.170000X0.140000X-0.170000X0.140000X0.170000X-0.140000X0.170000X0*%
%ADD26RoundRect,0.150000X0.150000X-0.650000X0.150000X0.650000X-0.150000X0.650000X-0.150000X-0.650000X0*%
%ADD27RoundRect,0.150000X-0.150000X0.587500X-0.150000X-0.587500X0.150000X-0.587500X0.150000X0.587500X0*%
%ADD28C,3.800000*%
%ADD29R,1.000000X0.800000*%
%ADD30RoundRect,0.050000X0.387500X0.050000X-0.387500X0.050000X-0.387500X-0.050000X0.387500X-0.050000X0*%
%ADD31RoundRect,0.050000X0.050000X0.387500X-0.050000X0.387500X-0.050000X-0.387500X0.050000X-0.387500X0*%
%ADD32R,3.200000X3.200000*%
%ADD33R,1.600000X0.400000*%
%ADD34O,1.400000X1.200000*%
%ADD35O,1.900000X1.200000*%
%ADD36R,1.070000X0.600000*%
%ADD37RoundRect,0.225000X-0.225000X-0.250000X0.225000X-0.250000X0.225000X0.250000X-0.225000X0.250000X0*%
%ADD38RoundRect,0.140000X0.140000X0.170000X-0.140000X0.170000X-0.140000X-0.170000X0.140000X-0.170000X0*%
%ADD39R,2.200000X2.200000*%
%ADD40C,2.200000*%
%ADD41R,1.400000X5.000000*%
G04 APERTURE END LIST*
D10*
G36*
X10843819Y9090504D02*
G01*
X10853236Y9081568D01*
X10873240Y9043330D01*
X10874145Y8980293D01*
X10856021Y8942320D01*
X10841670Y8927197D01*
X10803766Y8907368D01*
X10631658Y8906348D01*
X10631173Y9113468D01*
X10768736Y9114392D01*
X10843819Y9090504D01*
G37*
G36*
X10802399Y9453062D02*
G01*
X10817522Y9438711D01*
X10837647Y9400241D01*
X10838200Y9372667D01*
X10820308Y9335178D01*
X10805956Y9320054D01*
X10768021Y9300209D01*
X10630737Y9299287D01*
X10630336Y9470605D01*
X10763763Y9471501D01*
X10802399Y9453062D01*
G37*
G36*
X11587717Y9453251D02*
G01*
X11631881Y9410400D01*
X11658701Y9307880D01*
X11660222Y9081281D01*
X11633664Y8969916D01*
X11592779Y8927777D01*
X11553560Y8907260D01*
X11454956Y8906158D01*
X11417104Y8924223D01*
X11372940Y8967074D01*
X11346122Y9069595D01*
X11344601Y9296192D01*
X11371158Y9407557D01*
X11412044Y9449696D01*
X11451262Y9470213D01*
X11549867Y9471315D01*
X11587717Y9453251D01*
G37*
G36*
X12373431Y9453251D02*
G01*
X12417595Y9410400D01*
X12444415Y9307880D01*
X12445936Y9081281D01*
X12419378Y8969916D01*
X12378493Y8927777D01*
X12339274Y8907260D01*
X12240670Y8906158D01*
X12202818Y8924223D01*
X12158654Y8967074D01*
X12131836Y9069595D01*
X12130315Y9296192D01*
X12156872Y9407557D01*
X12197758Y9449696D01*
X12236976Y9470213D01*
X12335581Y9471315D01*
X12373431Y9453251D01*
G37*
G36*
X13366682Y8626236D02*
G01*
X10350626Y8626236D01*
X10350626Y9563736D01*
X10444376Y9563736D01*
X10446177Y8795446D01*
X10460176Y8761651D01*
X10486041Y8735786D01*
X10519836Y8721787D01*
X10538126Y8719986D01*
X10809499Y8721594D01*
X10812114Y8720722D01*
X10825733Y8721690D01*
X10842130Y8721787D01*
X10845242Y8723077D01*
X10848601Y8723315D01*
X10865766Y8729883D01*
X10937568Y8767447D01*
X10947355Y8771500D01*
X10950937Y8774441D01*
X10952749Y8775388D01*
X10954372Y8777260D01*
X10961561Y8783160D01*
X10998091Y8821655D01*
X11005045Y8827685D01*
X11007469Y8831537D01*
X11008935Y8833081D01*
X11009883Y8835372D01*
X11014836Y8843239D01*
X11043557Y8903419D01*
X11044647Y8904508D01*
X11048388Y8913541D01*
X11057118Y8931831D01*
X11057356Y8935191D01*
X11058646Y8938303D01*
X11060447Y8956593D01*
X11059103Y9050186D01*
X11059711Y9052009D01*
X11058916Y9063190D01*
X11058646Y9082026D01*
X11057356Y9085139D01*
X11057118Y9088497D01*
X11050550Y9105662D01*
X11012987Y9177464D01*
X11008934Y9187250D01*
X11005992Y9190834D01*
X11005045Y9192645D01*
X11003174Y9194268D01*
X10997274Y9201456D01*
X10972394Y9225067D01*
X10973220Y9225937D01*
X10974168Y9228227D01*
X10979122Y9236096D01*
X11007843Y9296276D01*
X11008933Y9297365D01*
X11012674Y9306398D01*
X11016177Y9313736D01*
X11158662Y9313736D01*
X11160301Y9069458D01*
X11158772Y9059179D01*
X11160446Y9047856D01*
X11160463Y9045446D01*
X11160992Y9044169D01*
X11161461Y9040998D01*
X11196177Y8908286D01*
X11196177Y8902590D01*
X11200220Y8892827D01*
X11203358Y8880834D01*
X11207507Y8875234D01*
X11210175Y8868794D01*
X11221835Y8854588D01*
X11294712Y8783877D01*
X11302075Y8775388D01*
X11306023Y8772903D01*
X11307470Y8771499D01*
X11309759Y8770551D01*
X11317629Y8765597D01*
X11377808Y8736876D01*
X11378898Y8735786D01*
X11387930Y8732045D01*
X11406221Y8723315D01*
X11409580Y8723077D01*
X11412693Y8721787D01*
X11430983Y8719986D01*
X11559996Y8721428D01*
X11562114Y8720722D01*
X11574295Y8721588D01*
X11592130Y8721787D01*
X11595242Y8723077D01*
X11598601Y8723315D01*
X11615766Y8729883D01*
X11687570Y8767448D01*
X11697354Y8771500D01*
X11700935Y8774440D01*
X11702749Y8775388D01*
X11704371Y8777260D01*
X11711561Y8783159D01*
X11775201Y8848752D01*
X11779687Y8851443D01*
X11785744Y8859619D01*
X11794648Y8868795D01*
X11797315Y8875235D01*
X11801464Y8880834D01*
X11807648Y8898141D01*
X11840627Y9036434D01*
X11844361Y9045446D01*
X11845475Y9056760D01*
X11846052Y9059179D01*
X11845848Y9060549D01*
X11846162Y9063736D01*
X11844522Y9308015D01*
X11845374Y9313736D01*
X11944376Y9313736D01*
X11946015Y9069458D01*
X11944486Y9059179D01*
X11946160Y9047856D01*
X11946177Y9045446D01*
X11946706Y9044169D01*
X11947175Y9040998D01*
X11981891Y8908286D01*
X11981891Y8902590D01*
X11985934Y8892827D01*
X11989072Y8880834D01*
X11993221Y8875234D01*
X11995889Y8868794D01*
X12007549Y8854588D01*
X12080426Y8783877D01*
X12087789Y8775388D01*
X12091737Y8772903D01*
X12093184Y8771499D01*
X12095473Y8770551D01*
X12103343Y8765597D01*
X12163522Y8736876D01*
X12164612Y8735786D01*
X12173644Y8732045D01*
X12191935Y8723315D01*
X12195294Y8723077D01*
X12198407Y8721787D01*
X12216697Y8719986D01*
X12345710Y8721428D01*
X12347828Y8720722D01*
X12360009Y8721588D01*
X12377844Y8721787D01*
X12380956Y8723077D01*
X12384315Y8723315D01*
X12401480Y8729883D01*
X12473284Y8767448D01*
X12483068Y8771500D01*
X12486649Y8774440D01*
X12488463Y8775388D01*
X12490085Y8777260D01*
X12497275Y8783159D01*
X12560915Y8848752D01*
X12565401Y8851443D01*
X12571458Y8859619D01*
X12580362Y8868795D01*
X12583029Y8875235D01*
X12587178Y8880834D01*
X12593362Y8898141D01*
X12626341Y9036434D01*
X12630075Y9045446D01*
X12631189Y9056760D01*
X12631766Y9059179D01*
X12631562Y9060549D01*
X12631876Y9063736D01*
X12630236Y9308015D01*
X12631766Y9318293D01*
X12630091Y9329617D01*
X12630075Y9332026D01*
X12629545Y9333304D01*
X12629077Y9336474D01*
X12594359Y9469185D01*
X12594360Y9474882D01*
X12590314Y9484650D01*
X12587178Y9496638D01*
X12583029Y9502238D01*
X12580362Y9508677D01*
X12568703Y9522884D01*
X12545450Y9545446D01*
X12660462Y9545446D01*
X12674461Y9511651D01*
X12700326Y9485786D01*
X12734121Y9471787D01*
X12752411Y9469986D01*
X12873165Y9470473D01*
X12874748Y8795446D01*
X12888747Y8761651D01*
X12914612Y8735786D01*
X12948407Y8721787D01*
X12984987Y8721787D01*
X13018782Y8735786D01*
X13044647Y8761651D01*
X13058646Y8795446D01*
X13060447Y8813736D01*
X13058905Y9471222D01*
X13199273Y9471787D01*
X13233068Y9485786D01*
X13258933Y9511651D01*
X13272932Y9545446D01*
X13272932Y9582026D01*
X13258933Y9615821D01*
X13233068Y9641686D01*
X13199273Y9655685D01*
X13180983Y9657486D01*
X12734121Y9655685D01*
X12700326Y9641686D01*
X12674461Y9615821D01*
X12660462Y9582026D01*
X12660462Y9545446D01*
X12545450Y9545446D01*
X12495829Y9593591D01*
X12488463Y9602084D01*
X12484511Y9604572D01*
X12483068Y9605972D01*
X12480782Y9606919D01*
X12472909Y9611875D01*
X12412728Y9640597D01*
X12411639Y9641686D01*
X12402602Y9645430D01*
X12384315Y9654157D01*
X12380956Y9654396D01*
X12377844Y9655685D01*
X12359554Y9657486D01*
X12230540Y9656045D01*
X12228423Y9656750D01*
X12216241Y9655885D01*
X12198407Y9655685D01*
X12195294Y9654396D01*
X12191935Y9654157D01*
X12174771Y9647589D01*
X12102972Y9610028D01*
X12093184Y9605973D01*
X12089600Y9603032D01*
X12087789Y9602084D01*
X12086166Y9600214D01*
X12078978Y9594313D01*
X12015335Y9528720D01*
X12010850Y9526029D01*
X12004793Y9517856D01*
X11995889Y9508678D01*
X11993221Y9502239D01*
X11989072Y9496638D01*
X11982889Y9479331D01*
X11949909Y9341038D01*
X11946177Y9332026D01*
X11945062Y9320713D01*
X11944486Y9318293D01*
X11944689Y9316924D01*
X11944376Y9313736D01*
X11845374Y9313736D01*
X11846052Y9318293D01*
X11844377Y9329617D01*
X11844361Y9332026D01*
X11843831Y9333304D01*
X11843363Y9336474D01*
X11808645Y9469185D01*
X11808646Y9474882D01*
X11804600Y9484650D01*
X11801464Y9496638D01*
X11797315Y9502238D01*
X11794648Y9508677D01*
X11782989Y9522884D01*
X11710115Y9593591D01*
X11702749Y9602084D01*
X11698797Y9604572D01*
X11697354Y9605972D01*
X11695068Y9606919D01*
X11687195Y9611875D01*
X11627014Y9640597D01*
X11625925Y9641686D01*
X11616888Y9645430D01*
X11598601Y9654157D01*
X11595242Y9654396D01*
X11592130Y9655685D01*
X11573840Y9657486D01*
X11444826Y9656045D01*
X11442709Y9656750D01*
X11430527Y9655885D01*
X11412693Y9655685D01*
X11409580Y9654396D01*
X11406221Y9654157D01*
X11389057Y9647589D01*
X11317258Y9610028D01*
X11307470Y9605973D01*
X11303886Y9603032D01*
X11302075Y9602084D01*
X11300452Y9600214D01*
X11293264Y9594313D01*
X11229621Y9528720D01*
X11225136Y9526029D01*
X11219079Y9517856D01*
X11210175Y9508678D01*
X11207507Y9502239D01*
X11203358Y9496638D01*
X11197175Y9479331D01*
X11164195Y9341038D01*
X11160463Y9332026D01*
X11159348Y9320713D01*
X11158772Y9318293D01*
X11158975Y9316924D01*
X11158662Y9313736D01*
X11016177Y9313736D01*
X11021404Y9324688D01*
X11021642Y9328048D01*
X11022932Y9331160D01*
X11024733Y9349450D01*
X11023560Y9407844D01*
X11023997Y9409152D01*
X11023352Y9418222D01*
X11022932Y9439169D01*
X11021642Y9442282D01*
X11021404Y9445640D01*
X11014836Y9462805D01*
X10977273Y9534607D01*
X10973220Y9544393D01*
X10970278Y9547977D01*
X10969331Y9549788D01*
X10967460Y9551411D01*
X10961560Y9558599D01*
X10923067Y9595129D01*
X10917035Y9602084D01*
X10913182Y9604509D01*
X10911640Y9605973D01*
X10909350Y9606922D01*
X10901481Y9611875D01*
X10841300Y9640597D01*
X10840211Y9641686D01*
X10831174Y9645430D01*
X10812887Y9654157D01*
X10809528Y9654396D01*
X10806416Y9655685D01*
X10788126Y9657486D01*
X10519836Y9655685D01*
X10486041Y9641686D01*
X10460176Y9615821D01*
X10446177Y9582026D01*
X10444376Y9563736D01*
X10350626Y9563736D01*
X10350626Y9751236D01*
X13366682Y9751236D01*
X13366682Y8626236D01*
G37*
G36*
X609461Y27572740D02*
G01*
X624584Y27558389D01*
X644588Y27520151D01*
X645493Y27457114D01*
X627369Y27419141D01*
X613018Y27404018D01*
X575114Y27384189D01*
X489438Y27383681D01*
X486013Y27384285D01*
X483115Y27383644D01*
X402169Y27383164D01*
X401684Y27590211D01*
X570755Y27591212D01*
X609461Y27572740D01*
G37*
G36*
X2461259Y26745914D02*
G01*
X121974Y26745914D01*
X121974Y27683414D01*
X215724Y27683414D01*
X217525Y26915124D01*
X231524Y26881329D01*
X257389Y26855464D01*
X291184Y26841465D01*
X327764Y26841465D01*
X361559Y26855464D01*
X387424Y26881329D01*
X401423Y26915124D01*
X403224Y26933414D01*
X402605Y27197359D01*
X438929Y27197574D01*
X673206Y26865701D01*
X704055Y26846043D01*
X740077Y26839686D01*
X775791Y26847597D01*
X805758Y26868575D01*
X825416Y26899423D01*
X831773Y26935445D01*
X823861Y26971159D01*
X814848Y26987176D01*
X653738Y27215402D01*
X708916Y27244268D01*
X718703Y27248321D01*
X722285Y27251262D01*
X724097Y27252209D01*
X725720Y27254081D01*
X732909Y27259981D01*
X769439Y27298476D01*
X776393Y27304506D01*
X778817Y27308358D01*
X780283Y27309902D01*
X781231Y27312193D01*
X786184Y27320060D01*
X814905Y27380240D01*
X815995Y27381329D01*
X819736Y27390362D01*
X828466Y27408652D01*
X828704Y27412012D01*
X829994Y27415124D01*
X831795Y27433414D01*
X830451Y27527007D01*
X831059Y27528830D01*
X830264Y27540011D01*
X829994Y27558847D01*
X828704Y27561960D01*
X828466Y27565318D01*
X821898Y27582483D01*
X784335Y27654285D01*
X780282Y27664071D01*
X777340Y27667655D01*
X776393Y27669466D01*
X774522Y27671089D01*
X768622Y27678277D01*
X763209Y27683414D01*
X965724Y27683414D01*
X967430Y27090908D01*
X966460Y27087997D01*
X967479Y27073646D01*
X967525Y27057981D01*
X968814Y27054869D01*
X969053Y27051509D01*
X975621Y27034345D01*
X1013182Y26962547D01*
X1017237Y26952758D01*
X1020178Y26949175D01*
X1021126Y26947363D01*
X1022996Y26945741D01*
X1028897Y26938552D01*
X1067390Y26902022D01*
X1073423Y26895066D01*
X1077275Y26892642D01*
X1078818Y26891177D01*
X1081107Y26890229D01*
X1088977Y26885275D01*
X1149156Y26856554D01*
X1150246Y26855464D01*
X1159278Y26851723D01*
X1177569Y26842993D01*
X1180928Y26842755D01*
X1184041Y26841465D01*
X1202331Y26839664D01*
X1331344Y26841106D01*
X1333462Y26840400D01*
X1345643Y26841266D01*
X1363478Y26841465D01*
X1366590Y26842755D01*
X1369949Y26842993D01*
X1387114Y26849561D01*
X1458916Y26887125D01*
X1468703Y26891178D01*
X1472285Y26894119D01*
X1474097Y26895066D01*
X1475720Y26896938D01*
X1482909Y26902838D01*
X1519439Y26941333D01*
X1526393Y26947363D01*
X1528817Y26951215D01*
X1530283Y26952759D01*
X1531231Y26955050D01*
X1536184Y26962917D01*
X1564905Y27023097D01*
X1565995Y27024186D01*
X1569736Y27033219D01*
X1578466Y27051509D01*
X1578704Y27054869D01*
X1579994Y27057981D01*
X1581795Y27076271D01*
X1580047Y27683414D01*
X1751438Y27683414D01*
X1753239Y26915124D01*
X1767238Y26881329D01*
X1793103Y26855464D01*
X1826898Y26841465D01*
X1863478Y26841465D01*
X1897273Y26855464D01*
X1923138Y26881329D01*
X1937137Y26915124D01*
X1938938Y26933414D01*
X1938000Y27333473D01*
X2191186Y26892489D01*
X2195809Y26881329D01*
X2199999Y26877139D01*
X2202999Y26871914D01*
X2212859Y26864279D01*
X2221674Y26855464D01*
X2227196Y26853177D01*
X2231921Y26849518D01*
X2243945Y26846239D01*
X2255469Y26841465D01*
X2261446Y26841465D01*
X2267210Y26839893D01*
X2279576Y26841465D01*
X2292049Y26841465D01*
X2297571Y26843753D01*
X2303498Y26844506D01*
X2314324Y26850693D01*
X2325844Y26855464D01*
X2330067Y26859688D01*
X2335259Y26862654D01*
X2342894Y26872515D01*
X2351709Y26881329D01*
X2353996Y26886852D01*
X2357655Y26891576D01*
X2360934Y26903601D01*
X2365708Y26915124D01*
X2366629Y26924481D01*
X2367280Y26926866D01*
X2367045Y26928710D01*
X2367509Y26933414D01*
X2365708Y27701704D01*
X2351709Y27735499D01*
X2325844Y27761364D01*
X2292049Y27775363D01*
X2255469Y27775363D01*
X2221674Y27761364D01*
X2195809Y27735499D01*
X2181810Y27701704D01*
X2180009Y27683414D01*
X2180946Y27283356D01*
X1927760Y27724340D01*
X1923138Y27735499D01*
X1918947Y27739690D01*
X1915948Y27744914D01*
X1906087Y27752550D01*
X1897273Y27761364D01*
X1891750Y27763652D01*
X1887026Y27767310D01*
X1875001Y27770590D01*
X1863478Y27775363D01*
X1857500Y27775363D01*
X1851736Y27776935D01*
X1839370Y27775363D01*
X1826898Y27775363D01*
X1821375Y27773076D01*
X1815449Y27772322D01*
X1804622Y27766136D01*
X1793103Y27761364D01*
X1788879Y27757141D01*
X1783688Y27754174D01*
X1776052Y27744314D01*
X1767238Y27735499D01*
X1764950Y27729977D01*
X1761292Y27725252D01*
X1758012Y27713228D01*
X1753239Y27701704D01*
X1752317Y27692348D01*
X1751667Y27689962D01*
X1751901Y27688119D01*
X1751438Y27683414D01*
X1580047Y27683414D01*
X1579994Y27701704D01*
X1565995Y27735499D01*
X1540130Y27761364D01*
X1506335Y27775363D01*
X1469755Y27775363D01*
X1435960Y27761364D01*
X1410095Y27735499D01*
X1396096Y27701704D01*
X1394295Y27683414D01*
X1395972Y27100975D01*
X1377369Y27061998D01*
X1363018Y27046875D01*
X1324908Y27026938D01*
X1226304Y27025836D01*
X1188059Y27044088D01*
X1172934Y27058443D01*
X1153166Y27096228D01*
X1151423Y27701704D01*
X1137424Y27735499D01*
X1111559Y27761364D01*
X1077764Y27775363D01*
X1041184Y27775363D01*
X1007389Y27761364D01*
X981524Y27735499D01*
X967525Y27701704D01*
X965724Y27683414D01*
X763209Y27683414D01*
X730129Y27714807D01*
X724097Y27721762D01*
X720244Y27724187D01*
X718702Y27725651D01*
X716412Y27726600D01*
X708543Y27731553D01*
X648362Y27760275D01*
X647273Y27761364D01*
X638236Y27765108D01*
X619949Y27773835D01*
X616590Y27774074D01*
X613478Y27775363D01*
X595188Y27777164D01*
X291184Y27775363D01*
X257389Y27761364D01*
X231524Y27735499D01*
X217525Y27701704D01*
X215724Y27683414D01*
X121974Y27683414D01*
X121974Y27870914D01*
X2461259Y27870914D01*
X2461259Y26745914D01*
G37*
G36*
X4688001Y28336636D02*
G01*
X2491712Y28336636D01*
X2491712Y28952708D01*
X2585462Y28952708D01*
X2586934Y28850162D01*
X2585572Y28841008D01*
X2587226Y28829822D01*
X2587263Y28827275D01*
X2587792Y28825998D01*
X2588261Y28822827D01*
X2623887Y28686634D01*
X2624505Y28677947D01*
X2629736Y28664277D01*
X2630158Y28662663D01*
X2630561Y28662119D01*
X2631073Y28660782D01*
X2668634Y28588984D01*
X2672689Y28579194D01*
X2675630Y28575611D01*
X2676578Y28573799D01*
X2678448Y28572177D01*
X2684349Y28564988D01*
X2747179Y28504026D01*
X2748007Y28502371D01*
X2756280Y28495196D01*
X2769984Y28481899D01*
X2773096Y28480610D01*
X2775641Y28478403D01*
X2792423Y28470911D01*
X2900268Y28436601D01*
X2910922Y28432187D01*
X2915581Y28431729D01*
X2917487Y28431122D01*
X2919955Y28431298D01*
X2929212Y28430386D01*
X3002125Y28431850D01*
X3012365Y28431122D01*
X3016866Y28432146D01*
X3018930Y28432187D01*
X3021219Y28433136D01*
X3030286Y28435197D01*
X3124091Y28467902D01*
X3126074Y28467902D01*
X3136616Y28472269D01*
X3154211Y28478403D01*
X3156756Y28480611D01*
X3159869Y28481900D01*
X3174075Y28493560D01*
X3221449Y28543481D01*
X3235446Y28577277D01*
X3235445Y28613856D01*
X3221447Y28647651D01*
X3195581Y28673517D01*
X3161785Y28687514D01*
X3125206Y28687513D01*
X3091411Y28673515D01*
X3077205Y28661855D01*
X3058214Y28641844D01*
X2988819Y28617649D01*
X2947114Y28616812D01*
X2874002Y28640072D01*
X2828966Y28683769D01*
X2804590Y28730365D01*
X2772875Y28851605D01*
X2771659Y28936248D01*
X2800528Y29057305D01*
X2825412Y29109444D01*
X2870675Y29156094D01*
X2941032Y29180624D01*
X2982738Y29181461D01*
X3056333Y29158047D01*
X3091412Y29124757D01*
X3125208Y29110760D01*
X3161786Y29110760D01*
X3195582Y29124757D01*
X3221448Y29150623D01*
X3235445Y29184419D01*
X3235445Y29220997D01*
X3221448Y29254793D01*
X3209788Y29268999D01*
X3204375Y29274136D01*
X3371176Y29274136D01*
X3372977Y28505846D01*
X3386976Y28472051D01*
X3412841Y28446186D01*
X3446636Y28432187D01*
X3464926Y28430386D01*
X3840359Y28432187D01*
X3874154Y28446186D01*
X3900019Y28472051D01*
X3914018Y28505846D01*
X3914018Y28542426D01*
X3900019Y28576221D01*
X3874154Y28602086D01*
X3840359Y28616085D01*
X3822069Y28617886D01*
X3558459Y28616622D01*
X3556918Y29274136D01*
X3978319Y29274136D01*
X3980120Y28505846D01*
X3994119Y28472051D01*
X4019984Y28446186D01*
X4053779Y28432187D01*
X4090359Y28432187D01*
X4124154Y28446186D01*
X4150019Y28472051D01*
X4164018Y28505846D01*
X4165819Y28524136D01*
X4165157Y28806227D01*
X4169242Y28810336D01*
X4438054Y28454335D01*
X4469531Y28435698D01*
X4505742Y28430525D01*
X4541177Y28439603D01*
X4570441Y28461551D01*
X4589078Y28493027D01*
X4594251Y28529238D01*
X4585173Y28564674D01*
X4575640Y28580386D01*
X4301536Y28943394D01*
X4578591Y29222051D01*
X4592589Y29255847D01*
X4592589Y29292425D01*
X4578591Y29326221D01*
X4552725Y29352087D01*
X4518929Y29366085D01*
X4482351Y29366085D01*
X4448555Y29352087D01*
X4434349Y29340427D01*
X4164541Y29069060D01*
X4164018Y29292426D01*
X4150019Y29326221D01*
X4124154Y29352086D01*
X4090359Y29366085D01*
X4053779Y29366085D01*
X4019984Y29352086D01*
X3994119Y29326221D01*
X3980120Y29292426D01*
X3978319Y29274136D01*
X3556918Y29274136D01*
X3556875Y29292426D01*
X3542876Y29326221D01*
X3517011Y29352086D01*
X3483216Y29366085D01*
X3446636Y29366085D01*
X3412841Y29352086D01*
X3386976Y29326221D01*
X3372977Y29292426D01*
X3371176Y29274136D01*
X3204375Y29274136D01*
X3182210Y29295170D01*
X3181845Y29295901D01*
X3177140Y29299981D01*
X3159868Y29316373D01*
X3156755Y29317663D01*
X3154211Y29319869D01*
X3137430Y29327361D01*
X3029583Y29361673D01*
X3018930Y29366085D01*
X3014270Y29366544D01*
X3012365Y29367150D01*
X3009896Y29366975D01*
X3000640Y29367886D01*
X2927726Y29366423D01*
X2917487Y29367150D01*
X2912985Y29366127D01*
X2910922Y29366085D01*
X2908632Y29365137D01*
X2899566Y29363075D01*
X2805763Y29330371D01*
X2803780Y29330371D01*
X2793230Y29326002D01*
X2775641Y29319869D01*
X2773096Y29317663D01*
X2769984Y29316373D01*
X2755778Y29304713D01*
X2685066Y29231836D01*
X2676578Y29224473D01*
X2674092Y29220525D01*
X2672689Y29219078D01*
X2671740Y29216789D01*
X2666787Y29208919D01*
X2634769Y29141834D01*
X2630158Y29135610D01*
X2625272Y29121936D01*
X2624505Y29120327D01*
X2624457Y29119653D01*
X2623975Y29118303D01*
X2590995Y28980010D01*
X2587263Y28970998D01*
X2586148Y28959685D01*
X2585572Y28957265D01*
X2585775Y28955896D01*
X2585462Y28952708D01*
X2491712Y28952708D01*
X2491712Y29461636D01*
X4688001Y29461636D01*
X4688001Y28336636D01*
G37*
G36*
X15410113Y29218094D02*
G01*
X15425236Y29203743D01*
X15445240Y29165505D01*
X15446145Y29102468D01*
X15428021Y29064495D01*
X15413670Y29049372D01*
X15375766Y29029543D01*
X15290090Y29029035D01*
X15286665Y29029639D01*
X15283767Y29028998D01*
X15202821Y29028518D01*
X15202336Y29235565D01*
X15371407Y29236566D01*
X15410113Y29218094D01*
G37*
G36*
X16476197Y23847150D02*
G01*
X14817284Y23847150D01*
X14817284Y24016360D01*
X15018177Y24016360D01*
X15032176Y23982565D01*
X15058041Y23956700D01*
X15091836Y23942701D01*
X15110126Y23940900D01*
X15699845Y23942701D01*
X15733640Y23956700D01*
X15759505Y23982565D01*
X15773504Y24016360D01*
X15773504Y24052940D01*
X15759505Y24086735D01*
X15733640Y24112600D01*
X15699845Y24126599D01*
X15681555Y24128400D01*
X15091836Y24126599D01*
X15058041Y24112600D01*
X15032176Y24086735D01*
X15018177Y24052940D01*
X15018177Y24016360D01*
X14817284Y24016360D01*
X14817284Y26895562D01*
X14911034Y26895562D01*
X14925033Y26861767D01*
X14950898Y26835902D01*
X14984693Y26821903D01*
X15002983Y26820102D01*
X15123737Y26820589D01*
X15125320Y26145562D01*
X15139319Y26111767D01*
X15165184Y26085902D01*
X15198979Y26071903D01*
X15235559Y26071903D01*
X15269354Y26085902D01*
X15295219Y26111767D01*
X15309218Y26145562D01*
X15311019Y26163852D01*
X15309477Y26821338D01*
X15449845Y26821903D01*
X15483640Y26835902D01*
X15509505Y26861767D01*
X15521141Y26889859D01*
X15523474Y26878066D01*
X15532121Y26861849D01*
X15748513Y26538634D01*
X15523474Y26199638D01*
X15516376Y26163754D01*
X15523550Y26127885D01*
X15543904Y26097491D01*
X15574340Y26077200D01*
X15610224Y26070102D01*
X15646093Y26077276D01*
X15676487Y26097630D01*
X15688131Y26111849D01*
X15860453Y26371434D01*
X16043765Y26097630D01*
X16074159Y26077276D01*
X16110028Y26070102D01*
X16145912Y26077200D01*
X16176348Y26097491D01*
X16196702Y26127885D01*
X16203876Y26163753D01*
X16196778Y26199638D01*
X16188131Y26215855D01*
X15971738Y26539071D01*
X16196778Y26878066D01*
X16203876Y26913951D01*
X16196702Y26949819D01*
X16176348Y26980213D01*
X16145912Y27000504D01*
X16110028Y27007602D01*
X16074159Y27000428D01*
X16043765Y26980074D01*
X16032121Y26965855D01*
X15859798Y26706271D01*
X15676487Y26980074D01*
X15646093Y27000428D01*
X15610224Y27007602D01*
X15574340Y27000504D01*
X15543904Y26980213D01*
X15523550Y26949819D01*
X15521150Y26937824D01*
X15509505Y26965937D01*
X15483640Y26991802D01*
X15449845Y27005801D01*
X15431555Y27007602D01*
X14984693Y27005801D01*
X14950898Y26991802D01*
X14925033Y26965937D01*
X14911034Y26932142D01*
X14911034Y26895562D01*
X14817284Y26895562D01*
X14817284Y29328768D01*
X15016376Y29328768D01*
X15018177Y28560478D01*
X15032176Y28526683D01*
X15058041Y28500818D01*
X15091836Y28486819D01*
X15128416Y28486819D01*
X15162211Y28500818D01*
X15188076Y28526683D01*
X15202075Y28560478D01*
X15203876Y28578768D01*
X15203257Y28842713D01*
X15239581Y28842928D01*
X15473858Y28511055D01*
X15504707Y28491397D01*
X15540729Y28485040D01*
X15576443Y28492951D01*
X15606410Y28513929D01*
X15626068Y28544777D01*
X15632049Y28578670D01*
X15694947Y28578670D01*
X15702121Y28542801D01*
X15722475Y28512407D01*
X15752911Y28492116D01*
X15788795Y28485018D01*
X15824664Y28492192D01*
X15855058Y28512546D01*
X15866702Y28526765D01*
X16039024Y28786350D01*
X16222336Y28512546D01*
X16252730Y28492192D01*
X16288599Y28485018D01*
X16324483Y28492116D01*
X16354919Y28512407D01*
X16375273Y28542801D01*
X16382447Y28578669D01*
X16375349Y28614554D01*
X16366702Y28630771D01*
X16150309Y28953987D01*
X16375349Y29292982D01*
X16382447Y29328867D01*
X16375273Y29364735D01*
X16354919Y29395129D01*
X16324483Y29415420D01*
X16288599Y29422518D01*
X16252730Y29415344D01*
X16222336Y29394990D01*
X16210692Y29380771D01*
X16038369Y29121187D01*
X15855058Y29394990D01*
X15824664Y29415344D01*
X15788795Y29422518D01*
X15752911Y29415420D01*
X15722475Y29395129D01*
X15702121Y29364735D01*
X15694947Y29328866D01*
X15702045Y29292982D01*
X15710692Y29276765D01*
X15927084Y28953550D01*
X15702045Y28614554D01*
X15694947Y28578670D01*
X15632049Y28578670D01*
X15632425Y28580799D01*
X15624513Y28616513D01*
X15615500Y28632530D01*
X15454390Y28860756D01*
X15509568Y28889622D01*
X15519355Y28893675D01*
X15522937Y28896616D01*
X15524749Y28897563D01*
X15526372Y28899435D01*
X15533561Y28905335D01*
X15570091Y28943830D01*
X15577045Y28949860D01*
X15579469Y28953712D01*
X15580935Y28955256D01*
X15581883Y28957547D01*
X15586836Y28965414D01*
X15615557Y29025594D01*
X15616647Y29026683D01*
X15620388Y29035716D01*
X15629118Y29054006D01*
X15629356Y29057366D01*
X15630646Y29060478D01*
X15632447Y29078768D01*
X15631103Y29172361D01*
X15631711Y29174184D01*
X15630916Y29185365D01*
X15630646Y29204201D01*
X15629356Y29207314D01*
X15629118Y29210672D01*
X15622550Y29227837D01*
X15584987Y29299639D01*
X15580934Y29309425D01*
X15577992Y29313009D01*
X15577045Y29314820D01*
X15575174Y29316443D01*
X15569274Y29323631D01*
X15530781Y29360161D01*
X15524749Y29367116D01*
X15520896Y29369541D01*
X15519354Y29371005D01*
X15517064Y29371954D01*
X15509195Y29376907D01*
X15449014Y29405629D01*
X15447925Y29406718D01*
X15438888Y29410462D01*
X15420601Y29419189D01*
X15417242Y29419428D01*
X15414130Y29420717D01*
X15395840Y29422518D01*
X15091836Y29420717D01*
X15058041Y29406718D01*
X15032176Y29380853D01*
X15018177Y29347058D01*
X15016376Y29328768D01*
X14817284Y29328768D01*
X14817284Y31261108D01*
X15018177Y31261108D01*
X15032176Y31227313D01*
X15058041Y31201448D01*
X15091836Y31187449D01*
X15110126Y31185648D01*
X15303247Y31186238D01*
X15303891Y30975394D01*
X15317890Y30941599D01*
X15343755Y30915734D01*
X15377550Y30901735D01*
X15414130Y30901735D01*
X15447925Y30915734D01*
X15473790Y30941599D01*
X15487789Y30975394D01*
X15489590Y30993684D01*
X15489000Y31186806D01*
X15699845Y31187449D01*
X15733640Y31201448D01*
X15759505Y31227313D01*
X15773504Y31261108D01*
X15773504Y31297688D01*
X15759505Y31331483D01*
X15733640Y31357348D01*
X15699845Y31371347D01*
X15681555Y31373148D01*
X15488432Y31372559D01*
X15487789Y31583403D01*
X15473790Y31617198D01*
X15447925Y31643063D01*
X15414130Y31657062D01*
X15377550Y31657062D01*
X15343755Y31643063D01*
X15317890Y31617198D01*
X15303891Y31583403D01*
X15302090Y31565113D01*
X15302679Y31371991D01*
X15091836Y31371347D01*
X15058041Y31357348D01*
X15032176Y31331483D01*
X15018177Y31297688D01*
X15018177Y31261108D01*
X14817284Y31261108D01*
X14817284Y31750812D01*
X16476197Y31750812D01*
X16476197Y23847150D01*
G37*
D11*
%TO.C,J3*%
X13327901Y9919660D02*
X13327901Y10519660D01*
X14027901Y11219660D02*
X15427901Y11219660D01*
X15427901Y9219660D02*
X14027901Y9219660D01*
X16127901Y10519660D02*
X16127901Y9919660D01*
X13327901Y10519660D02*
G75*
G02*
X14027901Y11219660I700000J0D01*
G01*
X14027901Y9219660D02*
G75*
G02*
X13327901Y9919660I0J700000D01*
G01*
X15427901Y11219660D02*
G75*
G02*
X16127901Y10519660I1J-699999D01*
G01*
X16127901Y9919660D02*
G75*
G02*
X15427901Y9219660I-699999J-1D01*
G01*
%TO.C,C11*%
X808400Y17735436D02*
X808400Y17519764D01*
X1528400Y17735436D02*
X1528400Y17519764D01*
%TO.C,C8*%
X10358800Y18637364D02*
X10358800Y18853036D01*
X11078800Y18637364D02*
X11078800Y18853036D01*
%TO.C,C5*%
X10714400Y27755964D02*
X10714400Y27971636D01*
X11434400Y27755964D02*
X11434400Y27971636D01*
%TO.C,R2*%
X5309600Y13387159D02*
X5309600Y13694441D01*
X6069600Y13387159D02*
X6069600Y13694441D01*
%TO.C,TP1*%
X519200Y26709600D02*
X1919200Y26709600D01*
X519200Y25309600D02*
X519200Y26709600D01*
X1919200Y26709600D02*
X1919200Y25309600D01*
X1919200Y25309600D02*
X519200Y25309600D01*
%TO.C,R4*%
X788400Y23925559D02*
X788400Y24232841D01*
X1548400Y23925559D02*
X1548400Y24232841D01*
%TO.C,C16*%
X9088800Y12998564D02*
X9088800Y13214236D01*
X9808800Y12998564D02*
X9808800Y13214236D01*
%TO.C,C14*%
X579800Y10483964D02*
X579800Y10699636D01*
X1299800Y10483964D02*
X1299800Y10699636D01*
%TO.C,Q1*%
X4267200Y3933500D02*
X3617200Y3933500D01*
X4267200Y3933500D02*
X4917200Y3933500D01*
X4267200Y813500D02*
X3617200Y813500D01*
X4267200Y813500D02*
X4917200Y813500D01*
X5669700Y533500D02*
X5189700Y533500D01*
X5429700Y863500D01*
X5669700Y533500D01*
G36*
X5669700Y533500D02*
G01*
X5189700Y533500D01*
X5429700Y863500D01*
X5669700Y533500D01*
G37*
%TO.C,D3*%
X6312800Y4048400D02*
X6312800Y1388400D01*
X8012800Y4048400D02*
X6312800Y4048400D01*
X8012800Y4048400D02*
X8012800Y1388400D01*
%TO.C,R5*%
X15495000Y30250159D02*
X15495000Y30557441D01*
X16255000Y30250159D02*
X16255000Y30557441D01*
%TO.C,C12*%
X5431200Y15680636D02*
X5431200Y15464964D01*
X6151200Y15680636D02*
X6151200Y15464964D01*
%TO.C,R8*%
X10036000Y10971559D02*
X10036000Y11278841D01*
X10796000Y10971559D02*
X10796000Y11278841D01*
%TO.C,R1*%
X11862800Y10669241D02*
X11862800Y10361959D01*
X12622800Y10669241D02*
X12622800Y10361959D01*
%TO.C,J2*%
X2505200Y28313600D02*
X4505200Y28313600D01*
X2505200Y25513600D02*
X2505200Y28313600D01*
X4505200Y28313600D02*
X4505200Y25513600D01*
X4505200Y25513600D02*
X2505200Y25513600D01*
%TO.C,C3*%
X12541364Y21673200D02*
X12757036Y21673200D01*
X12541364Y20953200D02*
X12757036Y20953200D01*
%TO.C,C9*%
X5939200Y25800164D02*
X5939200Y26015836D01*
X6659200Y25800164D02*
X6659200Y26015836D01*
%TO.C,C2*%
X4974000Y26003364D02*
X4974000Y26219036D01*
X5694000Y26003364D02*
X5694000Y26219036D01*
%TO.C,U1*%
X11346600Y18879400D02*
X11606600Y18879400D01*
X11346600Y16154400D02*
X11346600Y18879400D01*
X11346600Y16154400D02*
X11346600Y13429400D01*
X11346600Y13429400D02*
X11606600Y13429400D01*
X16796600Y18879400D02*
X16536600Y18879400D01*
X16796600Y16154400D02*
X16796600Y18879400D01*
X16796600Y16154400D02*
X16796600Y13429400D01*
X16796600Y13429400D02*
X16536600Y13429400D01*
X11606600Y12646900D02*
X11276600Y12406900D01*
X11276600Y12886900D01*
X11606600Y12646900D01*
G36*
X11606600Y12646900D02*
G01*
X11276600Y12406900D01*
X11276600Y12886900D01*
X11606600Y12646900D01*
G37*
%TO.C,Q2*%
X4637600Y6068300D02*
X4637600Y6718300D01*
X4637600Y6068300D02*
X4637600Y5418300D01*
X7757600Y6068300D02*
X7757600Y6718300D01*
X7757600Y6068300D02*
X7757600Y5418300D01*
X8037600Y6990800D02*
X7707600Y7230800D01*
X8037600Y7470800D01*
X8037600Y6990800D01*
G36*
X8037600Y6990800D02*
G01*
X7707600Y7230800D01*
X8037600Y7470800D01*
X8037600Y6990800D01*
G37*
%TO.C,R9*%
X10084800Y12952759D02*
X10084800Y13260041D01*
X10844800Y12952759D02*
X10844800Y13260041D01*
D12*
%TO.C,X1*%
X6940400Y27662800D02*
X10120400Y27662800D01*
X6940400Y25002800D02*
X6940400Y27662800D01*
X10120400Y27662800D02*
X10240400Y27662800D01*
X10240400Y27662800D02*
X10240400Y25002800D01*
X10240400Y25002800D02*
X6940400Y25002800D01*
X10480400Y27892800D02*
X9220400Y27892800D01*
X10480400Y26432800D02*
X10480400Y27892800D01*
D11*
%TO.C,U2*%
X2457600Y24375200D02*
X2457600Y23725200D01*
X2457600Y17155200D02*
X2457600Y17805200D01*
X3107600Y24375200D02*
X2457600Y24375200D01*
X3107600Y17155200D02*
X2457600Y17155200D01*
X9027600Y24375200D02*
X9677600Y24375200D01*
X9027600Y17155200D02*
X9377600Y17155200D01*
X9677600Y24375200D02*
X9677600Y23725200D01*
X9677600Y17805200D02*
X9677600Y17395200D01*
X9917600Y16825200D02*
X9437600Y16825200D01*
X9677600Y17155200D01*
X9917600Y16825200D01*
G36*
X9917600Y16825200D02*
G01*
X9437600Y16825200D01*
X9677600Y17155200D01*
X9917600Y16825200D01*
G37*
%TO.C,R3*%
X4295600Y13694441D02*
X4295600Y13387159D01*
X5055600Y13694441D02*
X5055600Y13387159D01*
D13*
%TO.C,J1*%
X11754700Y8576000D02*
X16874700Y8576000D01*
X11754700Y8076000D02*
X11754700Y8576000D01*
X11754700Y1076000D02*
X11754700Y1576000D01*
X16874700Y8656000D02*
X17274700Y9056000D01*
X16874700Y8576000D02*
X16874700Y8656000D01*
X16874700Y8576000D02*
X16874700Y1076000D01*
X16874700Y2386000D02*
X17604700Y2386000D01*
X16874700Y1076000D02*
X11754700Y1076000D01*
X16874700Y1076000D02*
X16874700Y996000D01*
X16874700Y996000D02*
X17274700Y596000D01*
X17274700Y9056000D02*
X17604700Y8726000D01*
X17274700Y596000D02*
X17604700Y926000D01*
X17524700Y8726000D02*
X16874700Y8076000D01*
X17604700Y8726000D02*
X17524700Y8726000D01*
X17604700Y7426000D02*
X16874700Y7426000D01*
X17604700Y2386000D02*
X17604700Y7426000D01*
X17604700Y966000D02*
X16874700Y1696000D01*
X17604700Y926000D02*
X17604700Y966000D01*
D11*
%TO.C,C1*%
X6396400Y15703436D02*
X6396400Y15487764D01*
X7116400Y15703436D02*
X7116400Y15487764D01*
%TO.C,C4*%
X3805600Y15680636D02*
X3805600Y15464964D01*
X4525600Y15680636D02*
X4525600Y15464964D01*
%TO.C,C10*%
X808400Y21393036D02*
X808400Y21177364D01*
X1528400Y21393036D02*
X1528400Y21177364D01*
%TO.C,C13*%
X5583600Y10306164D02*
X5583600Y10521836D01*
X6303600Y10306164D02*
X6303600Y10521836D01*
D12*
%TO.C,U3*%
X2629800Y12243600D02*
X2629800Y11193600D01*
X2629800Y9163600D02*
X2629800Y10213600D01*
X4389800Y12243600D02*
X2629800Y12243600D01*
X4389800Y11163600D02*
X4389800Y10243600D01*
X4389800Y9163600D02*
X2629800Y9163600D01*
D11*
%TO.C,C7*%
X10308000Y21240636D02*
X10308000Y21024964D01*
X11028000Y21240636D02*
X11028000Y21024964D01*
%TO.C,C15*%
X6666620Y9196800D02*
X6947780Y9196800D01*
X6666620Y8176800D02*
X6947780Y8176800D01*
%TO.C,R7*%
X1398000Y1979959D02*
X1398000Y2287241D01*
X2158000Y1979959D02*
X2158000Y2287241D01*
%TO.C,C6*%
X2444636Y16463600D02*
X2228964Y16463600D01*
X2444636Y15743600D02*
X2228964Y15743600D01*
%TD*%
%LPC*%
D14*
%TO.C,J3*%
X15377901Y10219660D03*
D15*
X14077901Y10219660D03*
%TD*%
D16*
%TO.C,C11*%
X1168400Y18107600D03*
X1168400Y17147600D03*
%TD*%
D17*
%TO.C,C8*%
X10718800Y18265200D03*
X10718800Y19225200D03*
%TD*%
%TO.C,C5*%
X11074400Y27383800D03*
X11074400Y28343800D03*
%TD*%
D18*
%TO.C,R2*%
X5689600Y13030800D03*
X5689600Y14050800D03*
%TD*%
D19*
%TO.C,TP1*%
X1219200Y26009600D03*
%TD*%
D18*
%TO.C,R4*%
X1168400Y23569200D03*
X1168400Y24589200D03*
%TD*%
D20*
%TO.C,J7*%
X13385800Y24015700D03*
X13385800Y26581100D03*
X13385800Y29121100D03*
X13385800Y31661100D03*
%TD*%
D17*
%TO.C,C16*%
X9448800Y12626400D03*
X9448800Y13586400D03*
%TD*%
%TO.C,C14*%
X939800Y10111800D03*
X939800Y11071800D03*
%TD*%
D21*
%TO.C,Q1*%
X5204700Y1423500D03*
X5204700Y3323500D03*
X3329700Y2373500D03*
%TD*%
D22*
%TO.C,D3*%
X7162800Y3538400D03*
X7162800Y1338400D03*
%TD*%
D18*
%TO.C,R5*%
X15875000Y29893800D03*
X15875000Y30913800D03*
%TD*%
D16*
%TO.C,C12*%
X5791200Y16052800D03*
X5791200Y15092800D03*
%TD*%
D18*
%TO.C,R8*%
X10416000Y10615200D03*
X10416000Y11635200D03*
%TD*%
D23*
%TO.C,R1*%
X12242800Y11025600D03*
X12242800Y10005600D03*
%TD*%
D24*
%TO.C,J2*%
X3505200Y27563600D03*
X3505200Y26263600D03*
%TD*%
D25*
%TO.C,C3*%
X12169200Y21313200D03*
X13129200Y21313200D03*
%TD*%
D17*
%TO.C,C9*%
X6299200Y25428000D03*
X6299200Y26388000D03*
%TD*%
%TO.C,C2*%
X5334000Y25631200D03*
X5334000Y26591200D03*
%TD*%
D26*
%TO.C,U1*%
X12166600Y12554400D03*
X13436600Y12554400D03*
X14706600Y12554400D03*
X15976600Y12554400D03*
X15976600Y19754400D03*
X14706600Y19754400D03*
X13436600Y19754400D03*
X12166600Y19754400D03*
%TD*%
D27*
%TO.C,Q2*%
X7147600Y7005800D03*
X5247600Y7005800D03*
X6197600Y5130800D03*
%TD*%
D28*
%TO.C,H4*%
X2336800Y6908800D03*
%TD*%
D18*
%TO.C,R9*%
X10464800Y12596400D03*
X10464800Y13616400D03*
%TD*%
D29*
%TO.C,X1*%
X9490400Y26932800D03*
X7690400Y26932800D03*
X7690400Y25732800D03*
X9490400Y25732800D03*
%TD*%
D30*
%TO.C,U2*%
X9505100Y18165200D03*
X9505100Y18565200D03*
X9505100Y18965200D03*
X9505100Y19365200D03*
X9505100Y19765200D03*
X9505100Y20165200D03*
X9505100Y20565200D03*
X9505100Y20965200D03*
X9505100Y21365200D03*
X9505100Y21765200D03*
X9505100Y22165200D03*
X9505100Y22565200D03*
X9505100Y22965200D03*
X9505100Y23365200D03*
D31*
X8667600Y24202700D03*
X8267600Y24202700D03*
X7867600Y24202700D03*
X7467600Y24202700D03*
X7067600Y24202700D03*
X6667600Y24202700D03*
X6267600Y24202700D03*
X5867600Y24202700D03*
X5467600Y24202700D03*
X5067600Y24202700D03*
X4667600Y24202700D03*
X4267600Y24202700D03*
X3867600Y24202700D03*
X3467600Y24202700D03*
D30*
X2630100Y23365200D03*
X2630100Y22965200D03*
X2630100Y22565200D03*
X2630100Y22165200D03*
X2630100Y21765200D03*
X2630100Y21365200D03*
X2630100Y20965200D03*
X2630100Y20565200D03*
X2630100Y20165200D03*
X2630100Y19765200D03*
X2630100Y19365200D03*
X2630100Y18965200D03*
X2630100Y18565200D03*
X2630100Y18165200D03*
D31*
X3467600Y17327700D03*
X3867600Y17327700D03*
X4267600Y17327700D03*
X4667600Y17327700D03*
X5067600Y17327700D03*
X5467600Y17327700D03*
X5867600Y17327700D03*
X6267600Y17327700D03*
X6667600Y17327700D03*
X7067600Y17327700D03*
X7467600Y17327700D03*
X7867600Y17327700D03*
X8267600Y17327700D03*
X8667600Y17327700D03*
D32*
X6067600Y20765200D03*
%TD*%
D23*
%TO.C,R3*%
X4675600Y14050800D03*
X4675600Y13030800D03*
%TD*%
D33*
%TO.C,J1*%
X12074700Y3526000D03*
X12074700Y4176000D03*
X12074700Y4826000D03*
X12074700Y5476000D03*
X12064700Y6126000D03*
D34*
X11824700Y7246000D03*
X11824700Y2406000D03*
D35*
X14724700Y1226000D03*
X14724700Y8426000D03*
%TD*%
D28*
%TO.C,H3*%
X9753600Y30759400D03*
%TD*%
D16*
%TO.C,C1*%
X6756400Y16075600D03*
X6756400Y15115600D03*
%TD*%
%TO.C,C4*%
X4165600Y16052800D03*
X4165600Y15092800D03*
%TD*%
%TO.C,C10*%
X1168400Y21765200D03*
X1168400Y20805200D03*
%TD*%
D17*
%TO.C,C13*%
X5943600Y9934000D03*
X5943600Y10894000D03*
%TD*%
D36*
%TO.C,U3*%
X4749800Y9753600D03*
X4749800Y11653600D03*
X2269800Y10703600D03*
%TD*%
D16*
%TO.C,C7*%
X10668000Y21612800D03*
X10668000Y20652800D03*
%TD*%
D37*
%TO.C,C15*%
X6032200Y8686800D03*
X7582200Y8686800D03*
%TD*%
D18*
%TO.C,R7*%
X1778000Y1623600D03*
X1778000Y2643600D03*
%TD*%
D38*
%TO.C,C6*%
X2816800Y16103600D03*
X1856800Y16103600D03*
%TD*%
D39*
%TO.C,J4*%
X9448800Y5080000D03*
D40*
X9448800Y2540000D03*
%TD*%
D41*
%TO.C,AE1*%
X6664800Y30429200D03*
X1564800Y30429200D03*
%TD*%
%LPD*%
M02*
