M48
; DRILL file {KiCad 8.0.0} date 2025-01-24T21:29:13-0800
; FORMAT={-:-/ absolute / inch / decimal}
; #@! TF.CreationDate,2025-01-24T21:29:13-08:00
; #@! TF.GenerationSoftware,Kicad,Pcbnew,8.0.0
; #@! TF.FileFunction,Plated,1,4,PTH
FMAT,2
INCH
; #@! TA.AperFunction,Plated,PTH,ViaDrill
T1C0.0118
; #@! TA.AperFunction,Plated,PTH,ViaDrill
T2C0.0177
; #@! TA.AperFunction,Plated,PTH,ComponentDrill
T3C0.0315
; #@! TA.AperFunction,Plated,PTH,ComponentDrill
T4C0.0433
; #@! TA.AperFunction,Plated,PTH,ComponentDrill
T5C0.0866
%
G90
G05
T1
X0.034Y0.57
X0.046Y0.748
X0.0475Y0.6629
X0.048Y0.804
X0.062Y0.778
X0.066Y0.9564
X0.07Y0.7073
X0.072Y0.8569
X0.072Y0.044
X0.1272Y0.6547
X0.1385Y0.9179
X0.146Y0.594
X0.1475Y0.788
X0.15Y0.528
X0.1575Y0.7614
X0.1628Y0.7228
X0.1663Y0.6299
X0.2029Y0.8608
X0.206Y0.914
X0.2263Y0.6493
X0.23Y1.0389
X0.2343Y0.9177
X0.2461Y0.7171
X0.25Y0.5951
X0.2556Y0.6479
X0.2557Y0.5262
X0.2783Y0.888
X0.2822Y0.7251
X0.2837Y0.8652
X0.306Y0.918
X0.3075Y0.6459
X0.312Y0.718
X0.326Y0.744
X0.332Y0.47
X0.3338Y0.7705
X0.336Y0.348
X0.3396Y0.87
X0.342Y0.904
X0.3488Y0.6726
X0.3589Y0.9258
X0.366Y0.628
X0.367Y0.9799
X0.3781Y0.6765
X0.394Y0.5361
X0.4087Y0.848
X0.411Y0.9143
X0.4199Y0.6319
X0.4201Y0.785
X0.458Y0.718
X0.4814Y1.0931
X0.4842Y0.8252
X0.49Y0.7285
X0.4972Y0.2546
X0.514Y0.762
X0.5225Y0.9396
X0.5231Y0.8519
X0.61Y0.972
X0.622Y1.106
X0.624Y1.23
T2
X0.04Y0.469
X0.0409Y0.1071
X0.068Y1.106
X0.1215Y0.9905
X0.143Y0.469
X0.174Y0.342
X0.214Y1.086
X0.258Y1.11
X0.2814Y0.32
X0.304Y1.09
X0.37Y0.452
X0.4469Y0.457
X0.522Y1.099
X0.523Y0.881
X0.63Y0.532
T4
X0.372Y0.2
X0.372Y0.1
T5
X0.092Y0.272
X0.384Y1.211
T3
G00X0.4616Y0.2853
M15
G01X0.4695Y0.2853
M16
G05
G00X0.4616Y0.0947
M15
G01X0.4695Y0.0947
M16
G05
G00X0.5659Y0.3317
M15
G01X0.5935Y0.3317
M16
G05
G00X0.5659Y0.0483
M15
G01X0.5935Y0.0483
M16
G05
M30
