%TF.GenerationSoftware,KiCad,Pcbnew,7.0.5*%
%TF.CreationDate,2023-12-16T01:16:10-08:00*%
%TF.ProjectId,Lyrav3,4c797261-7633-42e6-9b69-6361645f7063,rev?*%
%TF.SameCoordinates,Original*%
%TF.FileFunction,Drillmap*%
%TF.FilePolarity,Positive*%
%FSLAX45Y45*%
G04 Gerber Fmt 4.5, Leading zero omitted, Abs format (unit mm)*
G04 Created by KiCad (PCBNEW 7.0.5) date 2023-12-16 01:16:10*
%MOMM*%
%LPD*%
G01*
G04 APERTURE LIST*
%ADD10C,0.200000*%
G04 APERTURE END LIST*
D10*
X18360000Y-6402500D02*
X20860000Y-6402500D01*
X20860000Y-11902500D01*
X18360000Y-11902500D01*
X18360000Y-6402500D01*
X18610777Y-12223984D02*
X18610777Y-12023984D01*
X18610777Y-12023984D02*
X18658396Y-12023984D01*
X18658396Y-12023984D02*
X18686967Y-12033508D01*
X18686967Y-12033508D02*
X18706015Y-12052555D01*
X18706015Y-12052555D02*
X18715539Y-12071603D01*
X18715539Y-12071603D02*
X18725063Y-12109698D01*
X18725063Y-12109698D02*
X18725063Y-12138269D01*
X18725063Y-12138269D02*
X18715539Y-12176365D01*
X18715539Y-12176365D02*
X18706015Y-12195412D01*
X18706015Y-12195412D02*
X18686967Y-12214460D01*
X18686967Y-12214460D02*
X18658396Y-12223984D01*
X18658396Y-12223984D02*
X18610777Y-12223984D01*
X18810777Y-12223984D02*
X18810777Y-12090650D01*
X18810777Y-12128746D02*
X18820301Y-12109698D01*
X18820301Y-12109698D02*
X18829824Y-12100174D01*
X18829824Y-12100174D02*
X18848872Y-12090650D01*
X18848872Y-12090650D02*
X18867920Y-12090650D01*
X18934586Y-12223984D02*
X18934586Y-12090650D01*
X18934586Y-12023984D02*
X18925063Y-12033508D01*
X18925063Y-12033508D02*
X18934586Y-12043031D01*
X18934586Y-12043031D02*
X18944110Y-12033508D01*
X18944110Y-12033508D02*
X18934586Y-12023984D01*
X18934586Y-12023984D02*
X18934586Y-12043031D01*
X19058396Y-12223984D02*
X19039348Y-12214460D01*
X19039348Y-12214460D02*
X19029824Y-12195412D01*
X19029824Y-12195412D02*
X19029824Y-12023984D01*
X19163158Y-12223984D02*
X19144110Y-12214460D01*
X19144110Y-12214460D02*
X19134586Y-12195412D01*
X19134586Y-12195412D02*
X19134586Y-12023984D01*
X19391729Y-12223984D02*
X19391729Y-12023984D01*
X19391729Y-12023984D02*
X19458396Y-12166841D01*
X19458396Y-12166841D02*
X19525063Y-12023984D01*
X19525063Y-12023984D02*
X19525063Y-12223984D01*
X19706015Y-12223984D02*
X19706015Y-12119222D01*
X19706015Y-12119222D02*
X19696491Y-12100174D01*
X19696491Y-12100174D02*
X19677444Y-12090650D01*
X19677444Y-12090650D02*
X19639348Y-12090650D01*
X19639348Y-12090650D02*
X19620301Y-12100174D01*
X19706015Y-12214460D02*
X19686967Y-12223984D01*
X19686967Y-12223984D02*
X19639348Y-12223984D01*
X19639348Y-12223984D02*
X19620301Y-12214460D01*
X19620301Y-12214460D02*
X19610777Y-12195412D01*
X19610777Y-12195412D02*
X19610777Y-12176365D01*
X19610777Y-12176365D02*
X19620301Y-12157317D01*
X19620301Y-12157317D02*
X19639348Y-12147793D01*
X19639348Y-12147793D02*
X19686967Y-12147793D01*
X19686967Y-12147793D02*
X19706015Y-12138269D01*
X19801253Y-12090650D02*
X19801253Y-12290650D01*
X19801253Y-12100174D02*
X19820301Y-12090650D01*
X19820301Y-12090650D02*
X19858396Y-12090650D01*
X19858396Y-12090650D02*
X19877444Y-12100174D01*
X19877444Y-12100174D02*
X19886967Y-12109698D01*
X19886967Y-12109698D02*
X19896491Y-12128746D01*
X19896491Y-12128746D02*
X19896491Y-12185888D01*
X19896491Y-12185888D02*
X19886967Y-12204936D01*
X19886967Y-12204936D02*
X19877444Y-12214460D01*
X19877444Y-12214460D02*
X19858396Y-12223984D01*
X19858396Y-12223984D02*
X19820301Y-12223984D01*
X19820301Y-12223984D02*
X19801253Y-12214460D01*
X19982205Y-12204936D02*
X19991729Y-12214460D01*
X19991729Y-12214460D02*
X19982205Y-12223984D01*
X19982205Y-12223984D02*
X19972682Y-12214460D01*
X19972682Y-12214460D02*
X19982205Y-12204936D01*
X19982205Y-12204936D02*
X19982205Y-12223984D01*
X19982205Y-12100174D02*
X19991729Y-12109698D01*
X19991729Y-12109698D02*
X19982205Y-12119222D01*
X19982205Y-12119222D02*
X19972682Y-12109698D01*
X19972682Y-12109698D02*
X19982205Y-12100174D01*
X19982205Y-12100174D02*
X19982205Y-12119222D01*
M02*
