%TF.GenerationSoftware,KiCad,Pcbnew,7.0.5*%
%TF.CreationDate,2023-12-16T01:16:06-08:00*%
%TF.ProjectId,Lyrav3,4c797261-7633-42e6-9b69-6361645f7063,rev?*%
%TF.SameCoordinates,Original*%
%TF.FileFunction,Copper,L3,Inr*%
%TF.FilePolarity,Positive*%
%FSLAX46Y46*%
G04 Gerber Fmt 4.6, Leading zero omitted, Abs format (unit mm)*
G04 Created by KiCad (PCBNEW 7.0.5) date 2023-12-16 01:16:06*
%MOMM*%
%LPD*%
G01*
G04 APERTURE LIST*
%TA.AperFunction,ComponentPad*%
%ADD10C,5.600000*%
%TD*%
%TA.AperFunction,ComponentPad*%
%ADD11R,1.700000X1.700000*%
%TD*%
%TA.AperFunction,ComponentPad*%
%ADD12O,1.700000X1.700000*%
%TD*%
%TA.AperFunction,ComponentPad*%
%ADD13R,2.200000X2.200000*%
%TD*%
%TA.AperFunction,ComponentPad*%
%ADD14C,2.200000*%
%TD*%
%TA.AperFunction,ComponentPad*%
%ADD15R,1.350000X1.350000*%
%TD*%
%TA.AperFunction,ComponentPad*%
%ADD16O,1.350000X1.350000*%
%TD*%
%TA.AperFunction,ComponentPad*%
%ADD17O,1.400000X1.200000*%
%TD*%
%TA.AperFunction,ComponentPad*%
%ADD18O,1.900000X1.200000*%
%TD*%
%TA.AperFunction,ViaPad*%
%ADD19C,1.000000*%
%TD*%
%TA.AperFunction,ViaPad*%
%ADD20C,0.600000*%
%TD*%
%TA.AperFunction,ViaPad*%
%ADD21C,0.700000*%
%TD*%
G04 APERTURE END LIST*
D10*
%TO.N,GND*%
%TO.C,H3*%
X186600000Y-116025000D03*
%TD*%
D11*
%TO.N,/BRKOUT1*%
%TO.C,J8*%
X206248000Y-72009000D03*
D12*
%TO.N,/BRKOUT2*%
X206248000Y-74549000D03*
%TO.N,/BRKOUT3*%
X206248000Y-77089000D03*
%TO.N,/BRKOUT4*%
X206248000Y-79629000D03*
%TD*%
D10*
%TO.N,GND*%
%TO.C,H1*%
X186600000Y-67025000D03*
%TD*%
%TO.N,GND*%
%TO.C,H2*%
X205600000Y-67025000D03*
%TD*%
%TO.N,GND*%
%TO.C,H4*%
X205600000Y-116025000D03*
%TD*%
D13*
%TO.N,/P4-*%
%TO.C,J2*%
X186944000Y-97917000D03*
D14*
%TO.N,+12P*%
X186944000Y-100457000D03*
%TO.N,+12V*%
X186944000Y-102997000D03*
%TO.N,+BATT*%
X186944000Y-105537000D03*
%TO.N,GND*%
X186944000Y-108077000D03*
%TO.N,+BATT*%
X186944000Y-110617000D03*
%TD*%
D13*
%TO.N,+12P*%
%TO.C,J9*%
X204978000Y-110744000D03*
D14*
%TO.N,/P1-*%
X204978000Y-108204000D03*
%TO.N,+12P*%
X204978000Y-105664000D03*
%TO.N,/P2-*%
X204978000Y-103124000D03*
%TO.N,+12P*%
X204978000Y-100584000D03*
%TO.N,/P3-*%
X204978000Y-98044000D03*
%TD*%
D11*
%TO.N,/BRKOUT7*%
%TO.C,J6*%
X185928000Y-71999000D03*
D12*
%TO.N,/BRKOUT6*%
X185928000Y-74539000D03*
%TO.N,/BRKOUT5*%
X185928000Y-77079000D03*
%TO.N,+12VA*%
X185928000Y-79619000D03*
%TO.N,+3V3*%
X185928000Y-82159000D03*
%TO.N,GND*%
X185928000Y-84699000D03*
%TD*%
D15*
%TO.N,/SWCLK*%
%TO.C,J5*%
X189502800Y-93522800D03*
D16*
%TO.N,GND*%
X187502800Y-93522800D03*
%TO.N,/SWD*%
X185502800Y-93522800D03*
%TD*%
D17*
%TO.N,unconnected-(J7-Shield-Pad6)*%
%TO.C,J7*%
X202715200Y-89237200D03*
%TO.N,N/C*%
X202715200Y-84397200D03*
D18*
X205615200Y-83217200D03*
X205615200Y-90417200D03*
%TD*%
D19*
%TO.N,+12VA*%
X191871600Y-112014000D03*
D20*
X188671200Y-80314800D03*
%TO.N,GND*%
X198018400Y-100888800D03*
X191827274Y-95007119D03*
X185318400Y-86715600D03*
X192430400Y-88635800D03*
X199097913Y-75348599D03*
X192684400Y-107340400D03*
X199948800Y-84683600D03*
D19*
X191063407Y-106783345D03*
D20*
X201847784Y-81296069D03*
X188874400Y-81737200D03*
X190093600Y-66243200D03*
X191231011Y-71748973D03*
X187642200Y-86512400D03*
X199360800Y-70154800D03*
X202336400Y-70053200D03*
X199745600Y-106984800D03*
X194716400Y-69951600D03*
X197358000Y-101904800D03*
X201881523Y-88272299D03*
X195986400Y-94945200D03*
X194818000Y-111048800D03*
X191058300Y-79518600D03*
X194716347Y-105711387D03*
X189246999Y-102075477D03*
X198323200Y-91846400D03*
X197154800Y-80772000D03*
D19*
X196138800Y-113131600D03*
D20*
X191346932Y-76994850D03*
X192205000Y-69392800D03*
X204589403Y-95390696D03*
X196342000Y-65405000D03*
X198221600Y-109016800D03*
X191719200Y-74625200D03*
D19*
X201435000Y-116332000D03*
D20*
%TO.N,+3V3*%
X197002400Y-83312000D03*
X195037360Y-76726862D03*
X189788800Y-64820800D03*
X196799200Y-85191600D03*
X199085200Y-106426000D03*
X196415936Y-87384446D03*
X192126781Y-93077991D03*
X185714700Y-89216450D03*
D19*
X198780400Y-115443000D03*
D20*
X200793200Y-70256400D03*
X198424800Y-75996800D03*
X189788800Y-77161200D03*
X195640254Y-106518628D03*
X192511050Y-75569450D03*
X194513200Y-96476000D03*
X188603400Y-87274400D03*
X190193039Y-69006375D03*
X201676000Y-76098400D03*
X191862074Y-81237217D03*
X193443714Y-69240400D03*
X196799200Y-93167200D03*
X196246600Y-70457701D03*
X199847200Y-81686400D03*
%TO.N,+1V1*%
X196607114Y-86313820D03*
X189435481Y-86306919D03*
X200101200Y-88849200D03*
D19*
%TO.N,+12P*%
X202900424Y-113619173D03*
X189179200Y-113616500D03*
D20*
%TO.N,+12V*%
X205943200Y-112420400D03*
%TO.N,/BUZZER*%
X191658300Y-83096755D03*
%TO.N,Net-(D2-A)*%
X203250800Y-79044800D03*
%TO.N,/RUN*%
X191752489Y-85158311D03*
X188061600Y-70307200D03*
X192481200Y-65379600D03*
X188518800Y-78994000D03*
%TO.N,/SWCLK*%
X191973200Y-87223600D03*
%TO.N,/SWD*%
X192006398Y-86410800D03*
%TO.N,/BRKOUT4*%
X196029565Y-82129487D03*
%TO.N,/BRKOUT3*%
X195926300Y-81178400D03*
%TO.N,/BRKOUT2*%
X195129220Y-81240590D03*
%TO.N,/BRKOUT1*%
X194765954Y-80528380D03*
%TO.N,/LEDBLUE*%
X189179200Y-89458800D03*
%TO.N,/LEDGREEN*%
X189281759Y-91541347D03*
%TO.N,/LEDRED*%
X186951061Y-91246300D03*
D21*
%TO.N,/P1 EN *%
X193446400Y-93218000D03*
X198120000Y-110805000D03*
%TO.N,/P2 EN *%
X193791100Y-94488000D03*
X192481200Y-99212400D03*
D20*
%TO.N,/BATT SENSE *%
X190855600Y-82448400D03*
X194462400Y-85201700D03*
%TO.N,/P3 CONT *%
X202587380Y-93811815D03*
X194906233Y-106835516D03*
%TO.N,/QSPI_SS*%
X193548000Y-102514400D03*
X200700700Y-92456000D03*
X200761600Y-66959801D03*
%TO.N,/I2C1 SCL*%
X197307200Y-77114400D03*
X197510400Y-105105200D03*
X192887600Y-78028800D03*
X188518800Y-73304400D03*
X196707700Y-74325977D03*
X205978868Y-84788522D03*
%TO.N,/I2C1 SDA*%
X189433200Y-74269600D03*
X192742450Y-76954750D03*
X196494400Y-105156000D03*
X205181200Y-84734400D03*
%TO.N,/QSPI_SD1*%
X192328800Y-102362000D03*
X200570724Y-91279187D03*
%TO.N,/QSPI_SD2*%
X200463745Y-90486874D03*
X190997900Y-102412800D03*
%TO.N,/QSPI_SDO*%
X200065116Y-89793838D03*
X189788800Y-95504000D03*
%TO.N,/QSPI_SCLK*%
X191213386Y-95519316D03*
X195681600Y-90135300D03*
%TO.N,/QSPI_SD3*%
X192428369Y-95534271D03*
X194513200Y-89916000D03*
%TO.N,Net-(D4-A)*%
X187299600Y-89357200D03*
%TD*%
%TA.AperFunction,Conductor*%
%TO.N,+3V3*%
G36*
X203803786Y-64045185D02*
G01*
X203849541Y-64097989D01*
X203859485Y-64167147D01*
X203830460Y-64230703D01*
X203800677Y-64255748D01*
X203745081Y-64289200D01*
X203656768Y-64356333D01*
X203460172Y-64505781D01*
X203460163Y-64505789D01*
X203200331Y-64751914D01*
X202968641Y-65024680D01*
X202968634Y-65024690D01*
X202767790Y-65320913D01*
X202767784Y-65320922D01*
X202600151Y-65637111D01*
X202600142Y-65637129D01*
X202467674Y-65969600D01*
X202467672Y-65969607D01*
X202371932Y-66314434D01*
X202371926Y-66314460D01*
X202314029Y-66667614D01*
X202314028Y-66667631D01*
X202294652Y-67024997D01*
X202294652Y-67025002D01*
X202300836Y-67139050D01*
X202310067Y-67309323D01*
X202314028Y-67382368D01*
X202314029Y-67382385D01*
X202371926Y-67735539D01*
X202371932Y-67735565D01*
X202467672Y-68080392D01*
X202467674Y-68080399D01*
X202600142Y-68412870D01*
X202600151Y-68412888D01*
X202767784Y-68729077D01*
X202767787Y-68729082D01*
X202767789Y-68729085D01*
X202828861Y-68819160D01*
X202968634Y-69025309D01*
X202968641Y-69025319D01*
X203174632Y-69267830D01*
X203200332Y-69298086D01*
X203460163Y-69544211D01*
X203745081Y-69760800D01*
X204051747Y-69945315D01*
X204051749Y-69945316D01*
X204051751Y-69945317D01*
X204051755Y-69945319D01*
X204078469Y-69957678D01*
X204376565Y-70095591D01*
X204715726Y-70209868D01*
X205065254Y-70286805D01*
X205421052Y-70325500D01*
X205421058Y-70325500D01*
X205778942Y-70325500D01*
X205778948Y-70325500D01*
X206134746Y-70286805D01*
X206484274Y-70209868D01*
X206823435Y-70095591D01*
X207148253Y-69945315D01*
X207454919Y-69760800D01*
X207739837Y-69544211D01*
X207999668Y-69298086D01*
X208231365Y-69025311D01*
X208278359Y-68955998D01*
X208372867Y-68816612D01*
X208426781Y-68772171D01*
X208496164Y-68763933D01*
X208558985Y-68794514D01*
X208595301Y-68854204D01*
X208599500Y-68886199D01*
X208599500Y-114163801D01*
X208579815Y-114230840D01*
X208527011Y-114276595D01*
X208457853Y-114286539D01*
X208394297Y-114257514D01*
X208372867Y-114233388D01*
X208231366Y-114024690D01*
X208231358Y-114024680D01*
X207999668Y-113751914D01*
X207934452Y-113690138D01*
X207739837Y-113505789D01*
X207739830Y-113505783D01*
X207739827Y-113505781D01*
X207627470Y-113420370D01*
X207454919Y-113289200D01*
X207148253Y-113104685D01*
X207148252Y-113104684D01*
X207148248Y-113104682D01*
X207148244Y-113104680D01*
X206823445Y-112954413D01*
X206823440Y-112954411D01*
X206823435Y-112954409D01*
X206746411Y-112928456D01*
X206689167Y-112888397D01*
X206662668Y-112823747D01*
X206668965Y-112769993D01*
X206728566Y-112599662D01*
X206728569Y-112599649D01*
X206748765Y-112420403D01*
X206748765Y-112420396D01*
X206728569Y-112241150D01*
X206728568Y-112241145D01*
X206668988Y-112070875D01*
X206597506Y-111957114D01*
X206578499Y-111891144D01*
X206578499Y-109596128D01*
X206572091Y-109536517D01*
X206521796Y-109401669D01*
X206521795Y-109401668D01*
X206521793Y-109401664D01*
X206435547Y-109286455D01*
X206358894Y-109229072D01*
X206317024Y-109173138D01*
X206312040Y-109103446D01*
X206327476Y-109065021D01*
X206408466Y-108932859D01*
X206504873Y-108700111D01*
X206563683Y-108455148D01*
X206583449Y-108204000D01*
X206563683Y-107952852D01*
X206504873Y-107707889D01*
X206468835Y-107620885D01*
X206408466Y-107475140D01*
X206276839Y-107260346D01*
X206276838Y-107260343D01*
X206198036Y-107168078D01*
X206113224Y-107068776D01*
X206065820Y-107028289D01*
X206027627Y-106969782D01*
X206027129Y-106899914D01*
X206064483Y-106840868D01*
X206065669Y-106839839D01*
X206113224Y-106799224D01*
X206276836Y-106607659D01*
X206408466Y-106392859D01*
X206504873Y-106160111D01*
X206563683Y-105915148D01*
X206583449Y-105664000D01*
X206563683Y-105412852D01*
X206504873Y-105167889D01*
X206478908Y-105105203D01*
X206408466Y-104935140D01*
X206276839Y-104720346D01*
X206276838Y-104720343D01*
X206113224Y-104528776D01*
X206092421Y-104511009D01*
X206065819Y-104488289D01*
X206027627Y-104429784D01*
X206027128Y-104359916D01*
X206064482Y-104300870D01*
X206065756Y-104299764D01*
X206113224Y-104259224D01*
X206276836Y-104067659D01*
X206408466Y-103852859D01*
X206504873Y-103620111D01*
X206563683Y-103375148D01*
X206583449Y-103124000D01*
X206563683Y-102872852D01*
X206504873Y-102627889D01*
X206413404Y-102407062D01*
X206408466Y-102395140D01*
X206276839Y-102180346D01*
X206276838Y-102180343D01*
X206194599Y-102084054D01*
X206113224Y-101988776D01*
X206065820Y-101948289D01*
X206027627Y-101889782D01*
X206027129Y-101819914D01*
X206064483Y-101760868D01*
X206065669Y-101759839D01*
X206113224Y-101719224D01*
X206276836Y-101527659D01*
X206408466Y-101312859D01*
X206504873Y-101080111D01*
X206563683Y-100835148D01*
X206583449Y-100584000D01*
X206563683Y-100332852D01*
X206504873Y-100087889D01*
X206452268Y-99960889D01*
X206408466Y-99855140D01*
X206276839Y-99640346D01*
X206276838Y-99640343D01*
X206113224Y-99448776D01*
X206093495Y-99431926D01*
X206065819Y-99408289D01*
X206027627Y-99349784D01*
X206027128Y-99279916D01*
X206064482Y-99220870D01*
X206065756Y-99219764D01*
X206113224Y-99179224D01*
X206276836Y-98987659D01*
X206408466Y-98772859D01*
X206504873Y-98540111D01*
X206563683Y-98295148D01*
X206583449Y-98044000D01*
X206563683Y-97792852D01*
X206504873Y-97547889D01*
X206408466Y-97315141D01*
X206408466Y-97315140D01*
X206276839Y-97100346D01*
X206276838Y-97100343D01*
X206239875Y-97057066D01*
X206113224Y-96908776D01*
X205986571Y-96800604D01*
X205921656Y-96745161D01*
X205921653Y-96745160D01*
X205706859Y-96613533D01*
X205474110Y-96517126D01*
X205229151Y-96458317D01*
X204978000Y-96438551D01*
X204726848Y-96458317D01*
X204481889Y-96517126D01*
X204249140Y-96613533D01*
X204034346Y-96745160D01*
X204034343Y-96745161D01*
X203842776Y-96908776D01*
X203679161Y-97100343D01*
X203679160Y-97100346D01*
X203547533Y-97315140D01*
X203451126Y-97547889D01*
X203392317Y-97792848D01*
X203372551Y-98043999D01*
X203392317Y-98295151D01*
X203451126Y-98540110D01*
X203547533Y-98772859D01*
X203679160Y-98987653D01*
X203679161Y-98987656D01*
X203719250Y-99034594D01*
X203842776Y-99179224D01*
X203881619Y-99212399D01*
X203890178Y-99219709D01*
X203928371Y-99278216D01*
X203928869Y-99348084D01*
X203891515Y-99407130D01*
X203890179Y-99408288D01*
X203842783Y-99448768D01*
X203842776Y-99448776D01*
X203679161Y-99640343D01*
X203679160Y-99640346D01*
X203547533Y-99855140D01*
X203451126Y-100087889D01*
X203392317Y-100332848D01*
X203372551Y-100583999D01*
X203392317Y-100835151D01*
X203451126Y-101080110D01*
X203547533Y-101312859D01*
X203679160Y-101527653D01*
X203679161Y-101527656D01*
X203720989Y-101576630D01*
X203842776Y-101719224D01*
X203890175Y-101759707D01*
X203890179Y-101759710D01*
X203928372Y-101818217D01*
X203928870Y-101888085D01*
X203891516Y-101947131D01*
X203890179Y-101948290D01*
X203842776Y-101988776D01*
X203679161Y-102180343D01*
X203679160Y-102180346D01*
X203547533Y-102395140D01*
X203451126Y-102627889D01*
X203392317Y-102872848D01*
X203372551Y-103123999D01*
X203392317Y-103375151D01*
X203451126Y-103620110D01*
X203547533Y-103852859D01*
X203679160Y-104067653D01*
X203679161Y-104067656D01*
X203679164Y-104067659D01*
X203842776Y-104259224D01*
X203851881Y-104267000D01*
X203890179Y-104299710D01*
X203928372Y-104358217D01*
X203928870Y-104428085D01*
X203891516Y-104487131D01*
X203890179Y-104488290D01*
X203842776Y-104528776D01*
X203679161Y-104720343D01*
X203679160Y-104720346D01*
X203547533Y-104935140D01*
X203451126Y-105167889D01*
X203392317Y-105412848D01*
X203372551Y-105664000D01*
X203392317Y-105915151D01*
X203451126Y-106160110D01*
X203547533Y-106392859D01*
X203679160Y-106607653D01*
X203679161Y-106607656D01*
X203685102Y-106614612D01*
X203842776Y-106799224D01*
X203876951Y-106828412D01*
X203890178Y-106839709D01*
X203928371Y-106898216D01*
X203928869Y-106968084D01*
X203891515Y-107027130D01*
X203890179Y-107028288D01*
X203842783Y-107068768D01*
X203842776Y-107068776D01*
X203679161Y-107260343D01*
X203679160Y-107260346D01*
X203547533Y-107475140D01*
X203451126Y-107707889D01*
X203392317Y-107952848D01*
X203372551Y-108204000D01*
X203392317Y-108455151D01*
X203451126Y-108700110D01*
X203547533Y-108932859D01*
X203628520Y-109065016D01*
X203646765Y-109132462D01*
X203625649Y-109199064D01*
X203597105Y-109229072D01*
X203520452Y-109286455D01*
X203434206Y-109401664D01*
X203434202Y-109401671D01*
X203383908Y-109536517D01*
X203377501Y-109596116D01*
X203377501Y-109596123D01*
X203377500Y-109596135D01*
X203377500Y-111891870D01*
X203377501Y-111891876D01*
X203383908Y-111951483D01*
X203434202Y-112086328D01*
X203434206Y-112086335D01*
X203520452Y-112201544D01*
X203520455Y-112201547D01*
X203635664Y-112287793D01*
X203635671Y-112287797D01*
X203770517Y-112338091D01*
X203770516Y-112338091D01*
X203777444Y-112338835D01*
X203830127Y-112344500D01*
X205018269Y-112344499D01*
X205085308Y-112364184D01*
X205131063Y-112416987D01*
X205141489Y-112454615D01*
X205157830Y-112599650D01*
X205157832Y-112599657D01*
X205158157Y-112600585D01*
X205158189Y-112601221D01*
X205159382Y-112606447D01*
X205158466Y-112606655D01*
X205161718Y-112670364D01*
X205126989Y-112730991D01*
X205067772Y-112762640D01*
X204715724Y-112840132D01*
X204521377Y-112905616D01*
X204376565Y-112954409D01*
X204376562Y-112954410D01*
X204376563Y-112954410D01*
X204376552Y-112954414D01*
X204051755Y-113104680D01*
X203942690Y-113170302D01*
X203875098Y-113187997D01*
X203808670Y-113166340D01*
X203769403Y-113122503D01*
X203736335Y-113060636D01*
X203736333Y-113060633D01*
X203611307Y-112908289D01*
X203458963Y-112783263D01*
X203458956Y-112783259D01*
X203285157Y-112690361D01*
X203285151Y-112690359D01*
X203096556Y-112633149D01*
X203096553Y-112633148D01*
X202900424Y-112613832D01*
X202704294Y-112633148D01*
X202515690Y-112690361D01*
X202341891Y-112783259D01*
X202341884Y-112783263D01*
X202189540Y-112908289D01*
X202064514Y-113060633D01*
X202064510Y-113060640D01*
X201971612Y-113234439D01*
X201914399Y-113423043D01*
X201895083Y-113619172D01*
X201914399Y-113815302D01*
X201971612Y-114003906D01*
X202064510Y-114177705D01*
X202064514Y-114177712D01*
X202189540Y-114330056D01*
X202341884Y-114455082D01*
X202341891Y-114455086D01*
X202516821Y-114548588D01*
X202566665Y-114597550D01*
X202582126Y-114665688D01*
X202573561Y-114703843D01*
X202467674Y-114969600D01*
X202467672Y-114969607D01*
X202371932Y-115314434D01*
X202371926Y-115314460D01*
X202335600Y-115536039D01*
X202305329Y-115599011D01*
X202245819Y-115635620D01*
X202175962Y-115634244D01*
X202134569Y-115611831D01*
X201993539Y-115496090D01*
X201993532Y-115496086D01*
X201819733Y-115403188D01*
X201819727Y-115403186D01*
X201631132Y-115345976D01*
X201631129Y-115345975D01*
X201435000Y-115326659D01*
X201238870Y-115345975D01*
X201050266Y-115403188D01*
X200876467Y-115496086D01*
X200876460Y-115496090D01*
X200724116Y-115621116D01*
X200599090Y-115773460D01*
X200599086Y-115773467D01*
X200506188Y-115947266D01*
X200448975Y-116135870D01*
X200429659Y-116332000D01*
X200448975Y-116528129D01*
X200448976Y-116528132D01*
X200502921Y-116705965D01*
X200506188Y-116716733D01*
X200599086Y-116890532D01*
X200599090Y-116890539D01*
X200724116Y-117042883D01*
X200876460Y-117167909D01*
X200876467Y-117167913D01*
X201050266Y-117260811D01*
X201050269Y-117260811D01*
X201050273Y-117260814D01*
X201238868Y-117318024D01*
X201435000Y-117337341D01*
X201631132Y-117318024D01*
X201819727Y-117260814D01*
X201993538Y-117167910D01*
X202145883Y-117042883D01*
X202227084Y-116943938D01*
X202284829Y-116904605D01*
X202354674Y-116902734D01*
X202414442Y-116938921D01*
X202442417Y-116989430D01*
X202467673Y-117080397D01*
X202467674Y-117080399D01*
X202600142Y-117412870D01*
X202600151Y-117412888D01*
X202767784Y-117729077D01*
X202767787Y-117729082D01*
X202767789Y-117729085D01*
X202828861Y-117819160D01*
X202968634Y-118025309D01*
X202968641Y-118025319D01*
X203200331Y-118298085D01*
X203200332Y-118298086D01*
X203460163Y-118544211D01*
X203745081Y-118760800D01*
X203800676Y-118794250D01*
X203847970Y-118845679D01*
X203859953Y-118914514D01*
X203832818Y-118978899D01*
X203775181Y-119018393D01*
X203736747Y-119024500D01*
X188463253Y-119024500D01*
X188396214Y-119004815D01*
X188350459Y-118952011D01*
X188340515Y-118882853D01*
X188369540Y-118819297D01*
X188399322Y-118794251D01*
X188454919Y-118760800D01*
X188739837Y-118544211D01*
X188999668Y-118298086D01*
X189231365Y-118025311D01*
X189432211Y-117729085D01*
X189599853Y-117412880D01*
X189732324Y-117080403D01*
X189828071Y-116735552D01*
X189885972Y-116382371D01*
X189905348Y-116025000D01*
X189885972Y-115667629D01*
X189880724Y-115635620D01*
X189828073Y-115314460D01*
X189828072Y-115314459D01*
X189828071Y-115314448D01*
X189732324Y-114969597D01*
X189604425Y-114648594D01*
X189597898Y-114579030D01*
X189630016Y-114516980D01*
X189661163Y-114493340D01*
X189737738Y-114452410D01*
X189890083Y-114327383D01*
X190015110Y-114175038D01*
X190076378Y-114060414D01*
X190108011Y-114001233D01*
X190108011Y-114001232D01*
X190108014Y-114001227D01*
X190165224Y-113812632D01*
X190184541Y-113616500D01*
X190165224Y-113420368D01*
X190108014Y-113231773D01*
X190108011Y-113231769D01*
X190108011Y-113231766D01*
X190054471Y-113131600D01*
X195133459Y-113131600D01*
X195152775Y-113327729D01*
X195209988Y-113516333D01*
X195302886Y-113690132D01*
X195302890Y-113690139D01*
X195427916Y-113842483D01*
X195580260Y-113967509D01*
X195580267Y-113967513D01*
X195754066Y-114060411D01*
X195754069Y-114060411D01*
X195754073Y-114060414D01*
X195942668Y-114117624D01*
X196138800Y-114136941D01*
X196334932Y-114117624D01*
X196523527Y-114060414D01*
X196697338Y-113967510D01*
X196849683Y-113842483D01*
X196974710Y-113690138D01*
X197067614Y-113516327D01*
X197124824Y-113327732D01*
X197144141Y-113131600D01*
X197124824Y-112935468D01*
X197067614Y-112746873D01*
X197067611Y-112746869D01*
X197067611Y-112746866D01*
X196974713Y-112573067D01*
X196974709Y-112573060D01*
X196849683Y-112420716D01*
X196697339Y-112295690D01*
X196697332Y-112295686D01*
X196523533Y-112202788D01*
X196523527Y-112202786D01*
X196334932Y-112145576D01*
X196334929Y-112145575D01*
X196138800Y-112126259D01*
X195942670Y-112145575D01*
X195754066Y-112202788D01*
X195580267Y-112295686D01*
X195580260Y-112295690D01*
X195427916Y-112420716D01*
X195302890Y-112573060D01*
X195302886Y-112573067D01*
X195209988Y-112746866D01*
X195152775Y-112935470D01*
X195133459Y-113131600D01*
X190054471Y-113131600D01*
X190015113Y-113057967D01*
X190015109Y-113057960D01*
X189890083Y-112905616D01*
X189737739Y-112780590D01*
X189737732Y-112780586D01*
X189563933Y-112687688D01*
X189563927Y-112687686D01*
X189384144Y-112633149D01*
X189375329Y-112630475D01*
X189179200Y-112611159D01*
X188983070Y-112630475D01*
X188794466Y-112687688D01*
X188620667Y-112780586D01*
X188620660Y-112780590D01*
X188468316Y-112905616D01*
X188343289Y-113057961D01*
X188343288Y-113057963D01*
X188338428Y-113067056D01*
X188289464Y-113116898D01*
X188221325Y-113132356D01*
X188165146Y-113114849D01*
X188148253Y-113104685D01*
X188148245Y-113104681D01*
X188148243Y-113104680D01*
X188148244Y-113104680D01*
X187823447Y-112954414D01*
X187823441Y-112954411D01*
X187823435Y-112954409D01*
X187627519Y-112888397D01*
X187484273Y-112840131D01*
X187134744Y-112763194D01*
X186778949Y-112724500D01*
X186778948Y-112724500D01*
X186421052Y-112724500D01*
X186421050Y-112724500D01*
X186065255Y-112763194D01*
X185715726Y-112840131D01*
X185459969Y-112926306D01*
X185376565Y-112954409D01*
X185376562Y-112954410D01*
X185376563Y-112954410D01*
X185376552Y-112954414D01*
X185051755Y-113104680D01*
X185051751Y-113104682D01*
X184840537Y-113231766D01*
X184745081Y-113289200D01*
X184694397Y-113327729D01*
X184460172Y-113505781D01*
X184460163Y-113505789D01*
X184200331Y-113751914D01*
X183968641Y-114024680D01*
X183968633Y-114024690D01*
X183827133Y-114233388D01*
X183773219Y-114277829D01*
X183703836Y-114286067D01*
X183641015Y-114255486D01*
X183604699Y-114195796D01*
X183600500Y-114163801D01*
X183600500Y-110617000D01*
X185338551Y-110617000D01*
X185358317Y-110868151D01*
X185417126Y-111113110D01*
X185513533Y-111345859D01*
X185645160Y-111560653D01*
X185645161Y-111560656D01*
X185645164Y-111560659D01*
X185808776Y-111752224D01*
X185928368Y-111854365D01*
X186000343Y-111915838D01*
X186000346Y-111915839D01*
X186215140Y-112047466D01*
X186308979Y-112086335D01*
X186447889Y-112143873D01*
X186692852Y-112202683D01*
X186944000Y-112222449D01*
X187195148Y-112202683D01*
X187440111Y-112143873D01*
X187672859Y-112047466D01*
X187727470Y-112014000D01*
X190866259Y-112014000D01*
X190885575Y-112210129D01*
X190885576Y-112210132D01*
X190932307Y-112364184D01*
X190942788Y-112398733D01*
X191035686Y-112572532D01*
X191035690Y-112572539D01*
X191160716Y-112724883D01*
X191313060Y-112849909D01*
X191313067Y-112849913D01*
X191486866Y-112942811D01*
X191486869Y-112942811D01*
X191486873Y-112942814D01*
X191675468Y-113000024D01*
X191871600Y-113019341D01*
X192067732Y-113000024D01*
X192256327Y-112942814D01*
X192270071Y-112935468D01*
X192430132Y-112849913D01*
X192430138Y-112849910D01*
X192582483Y-112724883D01*
X192707510Y-112572538D01*
X192800414Y-112398727D01*
X192857624Y-112210132D01*
X192876941Y-112014000D01*
X192857624Y-111817868D01*
X192800414Y-111629273D01*
X192800411Y-111629269D01*
X192800411Y-111629266D01*
X192707513Y-111455467D01*
X192707509Y-111455460D01*
X192582483Y-111303116D01*
X192430139Y-111178090D01*
X192430132Y-111178086D01*
X192256333Y-111085188D01*
X192256327Y-111085186D01*
X192136389Y-111048803D01*
X194012435Y-111048803D01*
X194032630Y-111228049D01*
X194032631Y-111228054D01*
X194092211Y-111398323D01*
X194184758Y-111545610D01*
X194188184Y-111551062D01*
X194315738Y-111678616D01*
X194468478Y-111774589D01*
X194592168Y-111817870D01*
X194638745Y-111834168D01*
X194638750Y-111834169D01*
X194817996Y-111854365D01*
X194818000Y-111854365D01*
X194818004Y-111854365D01*
X194997249Y-111834169D01*
X194997252Y-111834168D01*
X194997255Y-111834168D01*
X195167522Y-111774589D01*
X195320262Y-111678616D01*
X195447816Y-111551062D01*
X195543789Y-111398322D01*
X195603368Y-111228055D01*
X195608998Y-111178086D01*
X195623565Y-111048803D01*
X195623565Y-111048796D01*
X195603369Y-110869550D01*
X195603368Y-110869545D01*
X195580782Y-110804999D01*
X197264815Y-110804999D01*
X197283503Y-110982805D01*
X197283504Y-110982807D01*
X197338747Y-111152829D01*
X197338750Y-111152835D01*
X197428141Y-111307665D01*
X197462531Y-111345859D01*
X197547764Y-111440521D01*
X197547767Y-111440523D01*
X197547770Y-111440526D01*
X197692407Y-111545612D01*
X197855733Y-111618329D01*
X198030609Y-111655500D01*
X198030610Y-111655500D01*
X198209389Y-111655500D01*
X198209391Y-111655500D01*
X198384267Y-111618329D01*
X198547593Y-111545612D01*
X198692230Y-111440526D01*
X198811859Y-111307665D01*
X198901250Y-111152835D01*
X198956497Y-110982803D01*
X198975185Y-110805000D01*
X198956497Y-110627197D01*
X198901250Y-110457165D01*
X198811859Y-110302335D01*
X198758645Y-110243235D01*
X198692235Y-110169478D01*
X198692232Y-110169476D01*
X198692231Y-110169475D01*
X198692230Y-110169474D01*
X198547593Y-110064388D01*
X198438726Y-110015917D01*
X198385491Y-109970668D01*
X198365170Y-109903819D01*
X198384215Y-109836595D01*
X198436581Y-109790340D01*
X198448196Y-109785602D01*
X198571122Y-109742589D01*
X198723862Y-109646616D01*
X198851416Y-109519062D01*
X198947389Y-109366322D01*
X199006968Y-109196055D01*
X199014133Y-109132462D01*
X199027165Y-109016803D01*
X199027165Y-109016796D01*
X199006969Y-108837550D01*
X199006968Y-108837545D01*
X198947388Y-108667276D01*
X198851415Y-108514537D01*
X198723862Y-108386984D01*
X198571123Y-108291011D01*
X198400854Y-108231431D01*
X198400849Y-108231430D01*
X198221604Y-108211235D01*
X198221596Y-108211235D01*
X198042350Y-108231430D01*
X198042345Y-108231431D01*
X197872076Y-108291011D01*
X197719337Y-108386984D01*
X197591784Y-108514537D01*
X197495811Y-108667276D01*
X197436231Y-108837545D01*
X197436230Y-108837550D01*
X197416035Y-109016796D01*
X197416035Y-109016803D01*
X197436230Y-109196049D01*
X197436231Y-109196054D01*
X197495811Y-109366323D01*
X197591784Y-109519061D01*
X197591784Y-109519062D01*
X197719338Y-109646616D01*
X197761871Y-109673341D01*
X197872080Y-109742590D01*
X197890744Y-109749121D01*
X197947521Y-109789841D01*
X197973270Y-109854793D01*
X197959815Y-109923355D01*
X197911429Y-109973759D01*
X197875576Y-109987453D01*
X197863262Y-109990070D01*
X197855733Y-109991671D01*
X197855732Y-109991671D01*
X197855729Y-109991672D01*
X197855728Y-109991672D01*
X197692408Y-110064387D01*
X197547768Y-110169475D01*
X197428140Y-110302336D01*
X197338750Y-110457164D01*
X197338747Y-110457170D01*
X197283504Y-110627192D01*
X197283503Y-110627194D01*
X197264815Y-110804999D01*
X195580782Y-110804999D01*
X195543788Y-110699276D01*
X195447815Y-110546537D01*
X195320262Y-110418984D01*
X195167523Y-110323011D01*
X194997254Y-110263431D01*
X194997249Y-110263430D01*
X194818004Y-110243235D01*
X194817996Y-110243235D01*
X194638750Y-110263430D01*
X194638745Y-110263431D01*
X194468476Y-110323011D01*
X194315737Y-110418984D01*
X194188184Y-110546537D01*
X194092211Y-110699276D01*
X194032631Y-110869545D01*
X194032630Y-110869550D01*
X194012435Y-111048796D01*
X194012435Y-111048803D01*
X192136389Y-111048803D01*
X192067732Y-111027976D01*
X192067729Y-111027975D01*
X191871600Y-111008659D01*
X191675470Y-111027975D01*
X191486866Y-111085188D01*
X191313067Y-111178086D01*
X191313060Y-111178090D01*
X191160716Y-111303116D01*
X191035690Y-111455460D01*
X191035686Y-111455467D01*
X190942788Y-111629266D01*
X190885575Y-111817870D01*
X190866259Y-112014000D01*
X187727470Y-112014000D01*
X187887659Y-111915836D01*
X188079224Y-111752224D01*
X188242836Y-111560659D01*
X188374466Y-111345859D01*
X188470873Y-111113111D01*
X188529683Y-110868148D01*
X188549449Y-110617000D01*
X188529683Y-110365852D01*
X188470873Y-110120889D01*
X188470873Y-110120888D01*
X188374466Y-109888140D01*
X188242839Y-109673346D01*
X188242838Y-109673343D01*
X188079224Y-109481776D01*
X188079215Y-109481768D01*
X188031819Y-109441289D01*
X187993627Y-109382784D01*
X187993128Y-109312916D01*
X188030482Y-109253870D01*
X188031756Y-109252764D01*
X188079224Y-109212224D01*
X188242836Y-109020659D01*
X188374466Y-108805859D01*
X188470873Y-108573111D01*
X188529683Y-108328148D01*
X188549449Y-108077000D01*
X188529683Y-107825852D01*
X188470873Y-107580889D01*
X188470872Y-107580889D01*
X188374466Y-107348140D01*
X188242839Y-107133346D01*
X188242838Y-107133343D01*
X188079224Y-106941776D01*
X188070118Y-106933999D01*
X188031819Y-106901289D01*
X187993627Y-106842784D01*
X187993202Y-106783344D01*
X190058066Y-106783344D01*
X190077382Y-106979474D01*
X190078998Y-106984800D01*
X190133374Y-107164055D01*
X190134595Y-107168078D01*
X190227493Y-107341877D01*
X190227497Y-107341884D01*
X190352523Y-107494228D01*
X190504867Y-107619254D01*
X190504874Y-107619258D01*
X190678673Y-107712156D01*
X190678676Y-107712156D01*
X190678680Y-107712159D01*
X190867275Y-107769369D01*
X191063407Y-107788686D01*
X191259539Y-107769369D01*
X191448134Y-107712159D01*
X191451072Y-107710589D01*
X191621939Y-107619258D01*
X191621945Y-107619255D01*
X191727170Y-107532898D01*
X191791478Y-107505586D01*
X191860346Y-107517377D01*
X191911906Y-107564529D01*
X191922876Y-107587797D01*
X191958611Y-107689923D01*
X192054583Y-107842662D01*
X192054584Y-107842662D01*
X192182138Y-107970216D01*
X192334878Y-108066189D01*
X192505145Y-108125768D01*
X192505150Y-108125769D01*
X192684396Y-108145965D01*
X192684400Y-108145965D01*
X192684404Y-108145965D01*
X192863649Y-108125769D01*
X192863652Y-108125768D01*
X192863655Y-108125768D01*
X193033922Y-108066189D01*
X193186662Y-107970216D01*
X193314216Y-107842662D01*
X193410189Y-107689922D01*
X193469768Y-107519655D01*
X193470025Y-107517377D01*
X193489965Y-107340403D01*
X193489965Y-107340396D01*
X193469769Y-107161150D01*
X193469768Y-107161145D01*
X193437444Y-107068768D01*
X193410189Y-106990878D01*
X193406367Y-106984796D01*
X193353896Y-106901288D01*
X193314216Y-106838138D01*
X193186662Y-106710584D01*
X193160702Y-106694272D01*
X193033923Y-106614611D01*
X192863654Y-106555031D01*
X192863649Y-106555030D01*
X192684404Y-106534835D01*
X192684396Y-106534835D01*
X192505150Y-106555030D01*
X192505145Y-106555031D01*
X192334874Y-106614612D01*
X192238334Y-106675272D01*
X192171098Y-106694272D01*
X192104263Y-106673904D01*
X192059049Y-106620636D01*
X192051743Y-106592964D01*
X192050620Y-106593188D01*
X192049433Y-106587222D01*
X192049431Y-106587215D01*
X192049431Y-106587213D01*
X191992221Y-106398618D01*
X191992218Y-106398614D01*
X191992218Y-106398611D01*
X191899320Y-106224812D01*
X191899316Y-106224805D01*
X191774290Y-106072461D01*
X191621946Y-105947435D01*
X191621939Y-105947431D01*
X191448140Y-105854533D01*
X191448134Y-105854531D01*
X191259539Y-105797321D01*
X191259536Y-105797320D01*
X191063407Y-105778004D01*
X190867277Y-105797320D01*
X190678673Y-105854533D01*
X190504874Y-105947431D01*
X190504867Y-105947435D01*
X190352523Y-106072461D01*
X190227497Y-106224805D01*
X190227493Y-106224812D01*
X190134595Y-106398611D01*
X190077382Y-106587215D01*
X190058066Y-106783344D01*
X187993202Y-106783344D01*
X187993128Y-106772916D01*
X188030482Y-106713870D01*
X188031756Y-106712764D01*
X188079224Y-106672224D01*
X188242836Y-106480659D01*
X188374466Y-106265859D01*
X188470873Y-106033111D01*
X188529683Y-105788148D01*
X188535724Y-105711390D01*
X193910782Y-105711390D01*
X193930977Y-105890636D01*
X193930978Y-105890641D01*
X193990558Y-106060910D01*
X194086531Y-106213649D01*
X194179373Y-106306491D01*
X194212858Y-106367814D01*
X194207874Y-106437506D01*
X194196687Y-106460142D01*
X194180442Y-106485995D01*
X194120866Y-106656253D01*
X194120863Y-106656266D01*
X194100668Y-106835512D01*
X194100668Y-106835519D01*
X194120863Y-107014765D01*
X194120864Y-107014770D01*
X194180444Y-107185039D01*
X194227760Y-107260341D01*
X194276417Y-107337778D01*
X194403971Y-107465332D01*
X194556711Y-107561305D01*
X194565925Y-107564529D01*
X194726978Y-107620884D01*
X194726983Y-107620885D01*
X194906229Y-107641081D01*
X194906233Y-107641081D01*
X194906237Y-107641081D01*
X195085482Y-107620885D01*
X195085485Y-107620884D01*
X195085488Y-107620884D01*
X195255755Y-107561305D01*
X195408495Y-107465332D01*
X195536049Y-107337778D01*
X195632022Y-107185038D01*
X195691601Y-107014771D01*
X195694293Y-106990878D01*
X195694977Y-106984803D01*
X198940035Y-106984803D01*
X198960230Y-107164049D01*
X198960231Y-107164054D01*
X199019811Y-107334323D01*
X199115783Y-107487062D01*
X199115784Y-107487062D01*
X199243338Y-107614616D01*
X199285457Y-107641081D01*
X199363186Y-107689922D01*
X199396078Y-107710589D01*
X199564062Y-107769369D01*
X199566345Y-107770168D01*
X199566350Y-107770169D01*
X199745596Y-107790365D01*
X199745600Y-107790365D01*
X199745604Y-107790365D01*
X199924849Y-107770169D01*
X199924852Y-107770168D01*
X199924855Y-107770168D01*
X200095122Y-107710589D01*
X200247862Y-107614616D01*
X200375416Y-107487062D01*
X200471389Y-107334322D01*
X200530968Y-107164055D01*
X200530969Y-107164049D01*
X200551165Y-106984803D01*
X200551165Y-106984796D01*
X200530969Y-106805550D01*
X200530968Y-106805545D01*
X200523200Y-106783345D01*
X200471389Y-106635278D01*
X200375416Y-106482538D01*
X200247862Y-106354984D01*
X200213279Y-106333254D01*
X200095123Y-106259011D01*
X199924854Y-106199431D01*
X199924849Y-106199430D01*
X199745604Y-106179235D01*
X199745596Y-106179235D01*
X199566350Y-106199430D01*
X199566345Y-106199431D01*
X199396076Y-106259011D01*
X199243337Y-106354984D01*
X199115784Y-106482537D01*
X199019811Y-106635276D01*
X198960231Y-106805545D01*
X198960230Y-106805550D01*
X198940035Y-106984796D01*
X198940035Y-106984803D01*
X195694977Y-106984803D01*
X195711798Y-106835519D01*
X195711798Y-106835512D01*
X195691602Y-106656266D01*
X195691601Y-106656261D01*
X195632021Y-106485992D01*
X195577120Y-106398618D01*
X195536049Y-106333254D01*
X195443206Y-106240411D01*
X195409721Y-106179088D01*
X195414705Y-106109396D01*
X195425894Y-106086757D01*
X195442136Y-106060909D01*
X195501715Y-105890642D01*
X195501716Y-105890636D01*
X195521912Y-105711390D01*
X195521912Y-105711383D01*
X195501716Y-105532137D01*
X195501714Y-105532128D01*
X195442135Y-105361863D01*
X195346162Y-105209124D01*
X195293041Y-105156003D01*
X195688835Y-105156003D01*
X195709030Y-105335249D01*
X195709031Y-105335254D01*
X195768611Y-105505523D01*
X195832664Y-105607462D01*
X195864584Y-105658262D01*
X195992138Y-105785816D01*
X196144878Y-105881789D01*
X196227687Y-105910765D01*
X196315145Y-105941368D01*
X196315150Y-105941369D01*
X196494396Y-105961565D01*
X196494400Y-105961565D01*
X196494404Y-105961565D01*
X196673649Y-105941369D01*
X196673652Y-105941368D01*
X196673655Y-105941368D01*
X196843922Y-105881789D01*
X196976852Y-105798263D01*
X197044087Y-105779263D01*
X197108795Y-105798264D01*
X197160873Y-105830987D01*
X197160877Y-105830988D01*
X197160878Y-105830989D01*
X197228163Y-105854533D01*
X197331145Y-105890568D01*
X197331150Y-105890569D01*
X197510396Y-105910765D01*
X197510400Y-105910765D01*
X197510404Y-105910765D01*
X197689649Y-105890569D01*
X197689652Y-105890568D01*
X197689655Y-105890568D01*
X197859922Y-105830989D01*
X198012662Y-105735016D01*
X198140216Y-105607462D01*
X198236189Y-105454722D01*
X198295768Y-105284455D01*
X198310241Y-105156003D01*
X198315965Y-105105203D01*
X198315965Y-105105196D01*
X198295769Y-104925950D01*
X198295768Y-104925945D01*
X198288727Y-104905822D01*
X198236189Y-104755678D01*
X198213988Y-104720346D01*
X198140215Y-104602937D01*
X198012662Y-104475384D01*
X197859923Y-104379411D01*
X197689654Y-104319831D01*
X197689649Y-104319830D01*
X197510404Y-104299635D01*
X197510396Y-104299635D01*
X197331150Y-104319830D01*
X197331145Y-104319831D01*
X197160876Y-104379411D01*
X197027948Y-104462936D01*
X196960711Y-104481936D01*
X196896005Y-104462936D01*
X196843920Y-104430209D01*
X196673662Y-104370633D01*
X196673649Y-104370630D01*
X196494404Y-104350435D01*
X196494396Y-104350435D01*
X196315150Y-104370630D01*
X196315145Y-104370631D01*
X196144876Y-104430211D01*
X195992137Y-104526184D01*
X195864584Y-104653737D01*
X195768611Y-104806476D01*
X195709031Y-104976745D01*
X195709030Y-104976750D01*
X195688835Y-105155996D01*
X195688835Y-105156003D01*
X195293041Y-105156003D01*
X195218609Y-105081571D01*
X195065870Y-104985598D01*
X194895601Y-104926018D01*
X194895596Y-104926017D01*
X194716351Y-104905822D01*
X194716343Y-104905822D01*
X194537097Y-104926017D01*
X194537092Y-104926018D01*
X194366823Y-104985598D01*
X194214084Y-105081571D01*
X194086531Y-105209124D01*
X193990558Y-105361863D01*
X193930980Y-105532128D01*
X193930977Y-105532137D01*
X193910782Y-105711383D01*
X193910782Y-105711390D01*
X188535724Y-105711390D01*
X188549449Y-105537000D01*
X188529683Y-105285852D01*
X188470873Y-105040889D01*
X188427071Y-104935140D01*
X188374466Y-104808140D01*
X188242839Y-104593346D01*
X188242838Y-104593343D01*
X188079224Y-104401776D01*
X188070119Y-104394000D01*
X188031819Y-104361289D01*
X187993627Y-104302784D01*
X187993128Y-104232916D01*
X188030482Y-104173870D01*
X188031756Y-104172764D01*
X188079224Y-104132224D01*
X188242836Y-103940659D01*
X188374466Y-103725859D01*
X188470873Y-103493111D01*
X188529683Y-103248148D01*
X188549449Y-102997000D01*
X188534218Y-102803480D01*
X188548582Y-102735106D01*
X188597633Y-102685349D01*
X188665798Y-102670010D01*
X188731435Y-102693959D01*
X188742996Y-102703904D01*
X188744736Y-102705292D01*
X188744737Y-102705293D01*
X188897477Y-102801266D01*
X188988025Y-102832950D01*
X189067744Y-102860845D01*
X189067749Y-102860846D01*
X189246995Y-102881042D01*
X189246999Y-102881042D01*
X189247003Y-102881042D01*
X189426248Y-102860846D01*
X189426251Y-102860845D01*
X189426254Y-102860845D01*
X189596521Y-102801266D01*
X189749261Y-102705293D01*
X189876815Y-102577739D01*
X189971580Y-102426920D01*
X190023915Y-102380630D01*
X190092968Y-102369982D01*
X190156817Y-102398357D01*
X190195189Y-102456746D01*
X190199794Y-102479009D01*
X190212530Y-102592050D01*
X190212531Y-102592054D01*
X190272111Y-102762323D01*
X190346708Y-102881042D01*
X190368084Y-102915062D01*
X190495638Y-103042616D01*
X190648378Y-103138589D01*
X190731187Y-103167565D01*
X190818645Y-103198168D01*
X190818650Y-103198169D01*
X190997896Y-103218365D01*
X190997900Y-103218365D01*
X190997904Y-103218365D01*
X191177149Y-103198169D01*
X191177152Y-103198168D01*
X191177155Y-103198168D01*
X191347422Y-103138589D01*
X191500162Y-103042616D01*
X191601068Y-102941709D01*
X191662392Y-102908224D01*
X191732084Y-102913208D01*
X191776431Y-102941708D01*
X191826538Y-102991816D01*
X191979278Y-103087789D01*
X192082763Y-103124000D01*
X192149545Y-103147368D01*
X192149550Y-103147369D01*
X192328796Y-103167565D01*
X192328800Y-103167565D01*
X192328804Y-103167565D01*
X192508049Y-103147369D01*
X192508052Y-103147368D01*
X192508055Y-103147368D01*
X192678322Y-103087789D01*
X192785578Y-103020395D01*
X192852813Y-103001395D01*
X192919648Y-103021762D01*
X192939230Y-103037708D01*
X193045738Y-103144216D01*
X193198478Y-103240189D01*
X193368745Y-103299768D01*
X193368750Y-103299769D01*
X193547996Y-103319965D01*
X193548000Y-103319965D01*
X193548004Y-103319965D01*
X193727249Y-103299769D01*
X193727252Y-103299768D01*
X193727255Y-103299768D01*
X193897522Y-103240189D01*
X194050262Y-103144216D01*
X194177816Y-103016662D01*
X194273789Y-102863922D01*
X194333368Y-102693655D01*
X194340778Y-102627889D01*
X194353565Y-102514403D01*
X194353565Y-102514396D01*
X194333369Y-102335150D01*
X194333368Y-102335145D01*
X194305087Y-102254322D01*
X194273789Y-102164878D01*
X194177816Y-102012138D01*
X194070481Y-101904803D01*
X196552435Y-101904803D01*
X196572630Y-102084049D01*
X196572631Y-102084054D01*
X196632211Y-102254323D01*
X196722714Y-102398357D01*
X196728184Y-102407062D01*
X196855738Y-102534616D01*
X197008478Y-102630589D01*
X197121137Y-102670010D01*
X197178745Y-102690168D01*
X197178750Y-102690169D01*
X197357996Y-102710365D01*
X197358000Y-102710365D01*
X197358004Y-102710365D01*
X197537249Y-102690169D01*
X197537252Y-102690168D01*
X197537255Y-102690168D01*
X197707522Y-102630589D01*
X197860262Y-102534616D01*
X197987816Y-102407062D01*
X198083789Y-102254322D01*
X198143368Y-102084055D01*
X198143662Y-102081447D01*
X198163565Y-101904803D01*
X198163565Y-101904796D01*
X198150930Y-101792656D01*
X198162985Y-101723835D01*
X198210334Y-101672455D01*
X198233190Y-101661733D01*
X198367922Y-101614589D01*
X198520662Y-101518616D01*
X198648216Y-101391062D01*
X198744189Y-101238322D01*
X198803768Y-101068055D01*
X198823965Y-100888800D01*
X198817920Y-100835151D01*
X198803769Y-100709550D01*
X198803768Y-100709545D01*
X198759838Y-100584000D01*
X198744189Y-100539278D01*
X198648216Y-100386538D01*
X198520662Y-100258984D01*
X198520661Y-100258983D01*
X198367923Y-100163011D01*
X198197654Y-100103431D01*
X198197649Y-100103430D01*
X198018404Y-100083235D01*
X198018396Y-100083235D01*
X197839150Y-100103430D01*
X197839145Y-100103431D01*
X197668876Y-100163011D01*
X197516137Y-100258984D01*
X197388584Y-100386537D01*
X197292611Y-100539276D01*
X197233031Y-100709545D01*
X197233030Y-100709550D01*
X197212835Y-100888796D01*
X197212835Y-100888804D01*
X197225469Y-101000943D01*
X197213414Y-101069765D01*
X197166065Y-101121144D01*
X197143204Y-101131867D01*
X197008480Y-101179009D01*
X196855737Y-101274984D01*
X196728184Y-101402537D01*
X196632211Y-101555276D01*
X196572631Y-101725545D01*
X196572630Y-101725550D01*
X196552435Y-101904796D01*
X196552435Y-101904803D01*
X194070481Y-101904803D01*
X194050262Y-101884584D01*
X194035016Y-101875004D01*
X193897523Y-101788611D01*
X193727254Y-101729031D01*
X193727249Y-101729030D01*
X193548004Y-101708835D01*
X193547996Y-101708835D01*
X193368750Y-101729030D01*
X193368745Y-101729031D01*
X193198476Y-101788611D01*
X193091222Y-101856004D01*
X193023985Y-101875004D01*
X192957150Y-101854636D01*
X192937569Y-101838691D01*
X192831062Y-101732184D01*
X192678323Y-101636211D01*
X192508054Y-101576631D01*
X192508049Y-101576630D01*
X192328804Y-101556435D01*
X192328796Y-101556435D01*
X192149550Y-101576630D01*
X192149545Y-101576631D01*
X191979276Y-101636211D01*
X191826537Y-101732184D01*
X191725631Y-101833091D01*
X191664308Y-101866576D01*
X191594616Y-101861592D01*
X191550269Y-101833091D01*
X191500162Y-101782984D01*
X191347423Y-101687011D01*
X191177154Y-101627431D01*
X191177149Y-101627430D01*
X190997904Y-101607235D01*
X190997896Y-101607235D01*
X190818650Y-101627430D01*
X190818645Y-101627431D01*
X190648376Y-101687011D01*
X190495637Y-101782984D01*
X190368082Y-101910539D01*
X190273317Y-102061356D01*
X190220982Y-102107647D01*
X190151929Y-102118294D01*
X190088081Y-102089919D01*
X190049709Y-102031529D01*
X190045104Y-102009266D01*
X190032368Y-101896227D01*
X190032367Y-101896222D01*
X190028295Y-101884584D01*
X189972788Y-101725955D01*
X189972530Y-101725545D01*
X189914198Y-101632710D01*
X189876815Y-101573215D01*
X189749261Y-101445661D01*
X189596522Y-101349688D01*
X189426253Y-101290108D01*
X189426248Y-101290107D01*
X189247003Y-101269912D01*
X189246995Y-101269912D01*
X189067749Y-101290107D01*
X189067744Y-101290108D01*
X188897475Y-101349688D01*
X188744736Y-101445661D01*
X188617183Y-101573214D01*
X188521210Y-101725953D01*
X188461630Y-101896222D01*
X188461629Y-101896226D01*
X188452475Y-101977478D01*
X188425408Y-102041892D01*
X188367814Y-102081447D01*
X188297977Y-102083584D01*
X188238070Y-102047626D01*
X188234982Y-102044145D01*
X188079224Y-101861776D01*
X188031819Y-101821289D01*
X187993627Y-101762784D01*
X187993128Y-101692916D01*
X188030482Y-101633870D01*
X188031756Y-101632764D01*
X188079224Y-101592224D01*
X188242836Y-101400659D01*
X188374466Y-101185859D01*
X188470873Y-100953111D01*
X188529683Y-100708148D01*
X188549449Y-100457000D01*
X188529683Y-100205852D01*
X188470873Y-99960889D01*
X188427071Y-99855140D01*
X188374466Y-99728140D01*
X188293479Y-99595983D01*
X188275234Y-99528538D01*
X188296350Y-99461935D01*
X188324891Y-99431929D01*
X188401546Y-99374546D01*
X188487796Y-99259331D01*
X188505300Y-99212400D01*
X191626015Y-99212400D01*
X191644703Y-99390205D01*
X191644704Y-99390207D01*
X191699947Y-99560229D01*
X191699950Y-99560235D01*
X191789341Y-99715065D01*
X191801114Y-99728140D01*
X191908964Y-99847921D01*
X191908967Y-99847923D01*
X191908970Y-99847926D01*
X192053607Y-99953012D01*
X192216933Y-100025729D01*
X192391809Y-100062900D01*
X192391810Y-100062900D01*
X192570589Y-100062900D01*
X192570591Y-100062900D01*
X192745467Y-100025729D01*
X192908793Y-99953012D01*
X193053430Y-99847926D01*
X193173059Y-99715065D01*
X193262450Y-99560235D01*
X193317697Y-99390203D01*
X193336385Y-99212400D01*
X193317697Y-99034597D01*
X193262450Y-98864565D01*
X193173059Y-98709735D01*
X193126203Y-98657696D01*
X193053435Y-98576878D01*
X193053432Y-98576876D01*
X193053431Y-98576875D01*
X193053430Y-98576874D01*
X192908793Y-98471788D01*
X192745467Y-98399071D01*
X192745465Y-98399070D01*
X192617794Y-98371933D01*
X192570591Y-98361900D01*
X192391809Y-98361900D01*
X192361154Y-98368415D01*
X192216933Y-98399070D01*
X192216928Y-98399072D01*
X192053608Y-98471787D01*
X191908968Y-98576875D01*
X191789340Y-98709736D01*
X191699950Y-98864564D01*
X191699947Y-98864570D01*
X191644704Y-99034592D01*
X191644703Y-99034594D01*
X191626015Y-99212400D01*
X188505300Y-99212400D01*
X188538091Y-99124483D01*
X188544500Y-99064873D01*
X188544499Y-96769128D01*
X188538091Y-96709517D01*
X188502291Y-96613533D01*
X188487797Y-96574671D01*
X188487793Y-96574664D01*
X188401547Y-96459455D01*
X188401544Y-96459452D01*
X188286335Y-96373206D01*
X188286328Y-96373202D01*
X188151482Y-96322908D01*
X188151483Y-96322908D01*
X188091883Y-96316501D01*
X188091881Y-96316500D01*
X188091873Y-96316500D01*
X188091864Y-96316500D01*
X185796129Y-96316500D01*
X185796123Y-96316501D01*
X185736516Y-96322908D01*
X185601671Y-96373202D01*
X185601664Y-96373206D01*
X185486455Y-96459452D01*
X185486452Y-96459455D01*
X185400206Y-96574664D01*
X185400202Y-96574671D01*
X185349908Y-96709517D01*
X185346076Y-96745164D01*
X185343501Y-96769123D01*
X185343500Y-96769135D01*
X185343500Y-99064870D01*
X185343501Y-99064876D01*
X185349908Y-99124483D01*
X185400202Y-99259328D01*
X185400206Y-99259335D01*
X185486452Y-99374544D01*
X185486455Y-99374547D01*
X185563104Y-99431927D01*
X185604975Y-99487861D01*
X185609959Y-99557552D01*
X185594520Y-99595983D01*
X185513533Y-99728140D01*
X185417126Y-99960889D01*
X185358317Y-100205848D01*
X185338551Y-100457000D01*
X185358317Y-100708151D01*
X185417126Y-100953110D01*
X185513533Y-101185859D01*
X185645160Y-101400653D01*
X185645161Y-101400656D01*
X185683599Y-101445661D01*
X185808776Y-101592224D01*
X185849997Y-101627430D01*
X185856179Y-101632710D01*
X185894372Y-101691217D01*
X185894870Y-101761085D01*
X185857516Y-101820131D01*
X185856179Y-101821290D01*
X185808776Y-101861776D01*
X185645161Y-102053343D01*
X185645160Y-102053346D01*
X185513533Y-102268140D01*
X185417126Y-102500889D01*
X185358317Y-102745848D01*
X185342415Y-102947900D01*
X185338551Y-102997000D01*
X185340392Y-103020396D01*
X185358317Y-103248151D01*
X185417126Y-103493110D01*
X185513533Y-103725859D01*
X185645160Y-103940653D01*
X185645161Y-103940656D01*
X185645164Y-103940659D01*
X185808776Y-104132224D01*
X185856178Y-104172709D01*
X185856179Y-104172710D01*
X185894372Y-104231217D01*
X185894870Y-104301085D01*
X185857516Y-104360131D01*
X185856179Y-104361290D01*
X185808776Y-104401776D01*
X185645161Y-104593343D01*
X185645160Y-104593346D01*
X185513533Y-104808140D01*
X185417126Y-105040889D01*
X185358317Y-105285848D01*
X185338551Y-105536999D01*
X185358317Y-105788151D01*
X185417126Y-106033110D01*
X185513533Y-106265859D01*
X185645160Y-106480653D01*
X185645161Y-106480656D01*
X185808775Y-106672223D01*
X185808776Y-106672224D01*
X185856179Y-106712710D01*
X185894371Y-106771215D01*
X185894871Y-106841083D01*
X185857517Y-106900129D01*
X185856180Y-106901288D01*
X185808777Y-106941775D01*
X185645161Y-107133343D01*
X185645160Y-107133346D01*
X185513533Y-107348140D01*
X185417126Y-107580889D01*
X185358317Y-107825848D01*
X185338551Y-108076999D01*
X185358317Y-108328151D01*
X185417126Y-108573110D01*
X185513533Y-108805859D01*
X185645160Y-109020653D01*
X185645161Y-109020656D01*
X185683048Y-109065016D01*
X185808776Y-109212224D01*
X185828503Y-109229072D01*
X185856178Y-109252709D01*
X185894371Y-109311216D01*
X185894869Y-109381084D01*
X185857515Y-109440130D01*
X185856179Y-109441288D01*
X185808783Y-109481768D01*
X185808776Y-109481776D01*
X185645161Y-109673343D01*
X185645160Y-109673346D01*
X185513533Y-109888140D01*
X185417126Y-110120889D01*
X185358317Y-110365848D01*
X185338551Y-110617000D01*
X183600500Y-110617000D01*
X183600500Y-93522800D01*
X184322264Y-93522800D01*
X184342364Y-93739718D01*
X184342364Y-93739720D01*
X184342365Y-93739723D01*
X184374744Y-93853523D01*
X184401984Y-93949262D01*
X184479217Y-94104366D01*
X184499088Y-94144272D01*
X184630373Y-94318122D01*
X184791368Y-94464888D01*
X184791375Y-94464892D01*
X184791376Y-94464893D01*
X184976586Y-94579570D01*
X184976592Y-94579573D01*
X184990939Y-94585131D01*
X185179731Y-94658270D01*
X185393874Y-94698300D01*
X185393876Y-94698300D01*
X185611724Y-94698300D01*
X185611726Y-94698300D01*
X185825869Y-94658270D01*
X186029010Y-94579572D01*
X186214232Y-94464888D01*
X186375227Y-94318122D01*
X186403847Y-94280222D01*
X186459953Y-94238587D01*
X186529665Y-94233894D01*
X186590848Y-94267636D01*
X186601746Y-94280214D01*
X186630373Y-94318122D01*
X186630376Y-94318125D01*
X186630378Y-94318127D01*
X186745369Y-94422954D01*
X186791368Y-94464888D01*
X186791375Y-94464892D01*
X186791376Y-94464893D01*
X186976586Y-94579570D01*
X186976592Y-94579573D01*
X186990939Y-94585131D01*
X187179731Y-94658270D01*
X187393874Y-94698300D01*
X187393876Y-94698300D01*
X187611724Y-94698300D01*
X187611726Y-94698300D01*
X187825869Y-94658270D01*
X188029010Y-94579572D01*
X188214232Y-94464888D01*
X188225207Y-94454882D01*
X188288007Y-94424263D01*
X188357394Y-94432457D01*
X188408014Y-94472205D01*
X188470252Y-94555344D01*
X188470255Y-94555347D01*
X188585464Y-94641593D01*
X188585471Y-94641597D01*
X188720317Y-94691891D01*
X188720316Y-94691891D01*
X188727244Y-94692635D01*
X188779927Y-94698300D01*
X189163062Y-94698299D01*
X189230099Y-94717983D01*
X189275854Y-94770787D01*
X189285798Y-94839946D01*
X189256773Y-94903501D01*
X189250742Y-94909980D01*
X189158983Y-95001739D01*
X189063011Y-95154476D01*
X189003431Y-95324745D01*
X189003430Y-95324750D01*
X188983235Y-95503996D01*
X188983235Y-95504003D01*
X189003430Y-95683249D01*
X189003431Y-95683254D01*
X189063011Y-95853523D01*
X189082032Y-95883794D01*
X189158984Y-96006262D01*
X189286538Y-96133816D01*
X189334714Y-96164087D01*
X189385918Y-96196261D01*
X189439278Y-96229789D01*
X189483046Y-96245104D01*
X189609545Y-96289368D01*
X189609550Y-96289369D01*
X189788796Y-96309565D01*
X189788800Y-96309565D01*
X189788804Y-96309565D01*
X189968049Y-96289369D01*
X189968052Y-96289368D01*
X189968055Y-96289368D01*
X190138322Y-96229789D01*
X190291062Y-96133816D01*
X190405754Y-96019123D01*
X190467077Y-95985639D01*
X190536769Y-95990623D01*
X190581116Y-96019124D01*
X190583569Y-96021577D01*
X190583570Y-96021578D01*
X190711124Y-96149132D01*
X190863864Y-96245105D01*
X190990363Y-96289369D01*
X191034131Y-96304684D01*
X191034136Y-96304685D01*
X191213382Y-96324881D01*
X191213386Y-96324881D01*
X191213390Y-96324881D01*
X191392635Y-96304685D01*
X191392638Y-96304684D01*
X191392641Y-96304684D01*
X191562908Y-96245105D01*
X191715648Y-96149132D01*
X191725718Y-96139061D01*
X191787042Y-96105576D01*
X191856734Y-96110560D01*
X191901081Y-96139060D01*
X191926107Y-96164087D01*
X191945170Y-96176065D01*
X192055044Y-96245104D01*
X192078847Y-96260060D01*
X192206375Y-96304684D01*
X192249114Y-96319639D01*
X192249119Y-96319640D01*
X192428365Y-96339836D01*
X192428369Y-96339836D01*
X192428373Y-96339836D01*
X192607618Y-96319640D01*
X192607621Y-96319639D01*
X192607624Y-96319639D01*
X192777891Y-96260060D01*
X192930631Y-96164087D01*
X193058185Y-96036533D01*
X193154158Y-95883793D01*
X193213737Y-95713526D01*
X193217148Y-95683254D01*
X193233934Y-95534274D01*
X193233934Y-95534267D01*
X193215089Y-95367010D01*
X193227144Y-95298188D01*
X193274493Y-95246809D01*
X193342103Y-95229185D01*
X193388742Y-95239847D01*
X193526833Y-95301329D01*
X193701709Y-95338500D01*
X193701710Y-95338500D01*
X193880489Y-95338500D01*
X193880491Y-95338500D01*
X194055367Y-95301329D01*
X194218693Y-95228612D01*
X194363330Y-95123526D01*
X194482959Y-94990665D01*
X194509206Y-94945203D01*
X195180835Y-94945203D01*
X195201030Y-95124449D01*
X195201031Y-95124454D01*
X195260611Y-95294723D01*
X195320917Y-95390699D01*
X195356584Y-95447462D01*
X195484138Y-95575016D01*
X195636878Y-95670989D01*
X195758425Y-95713520D01*
X195807145Y-95730568D01*
X195807150Y-95730569D01*
X195986396Y-95750765D01*
X195986400Y-95750765D01*
X195986404Y-95750765D01*
X196165649Y-95730569D01*
X196165652Y-95730568D01*
X196165655Y-95730568D01*
X196335922Y-95670989D01*
X196488662Y-95575016D01*
X196616216Y-95447462D01*
X196651883Y-95390699D01*
X203783838Y-95390699D01*
X203804033Y-95569945D01*
X203804034Y-95569950D01*
X203863614Y-95740219D01*
X203870241Y-95750765D01*
X203959587Y-95892958D01*
X204087141Y-96020512D01*
X204239881Y-96116485D01*
X204304400Y-96139061D01*
X204410148Y-96176064D01*
X204410153Y-96176065D01*
X204589399Y-96196261D01*
X204589403Y-96196261D01*
X204589407Y-96196261D01*
X204768652Y-96176065D01*
X204768655Y-96176064D01*
X204768658Y-96176064D01*
X204938925Y-96116485D01*
X205091665Y-96020512D01*
X205219219Y-95892958D01*
X205315192Y-95740218D01*
X205374771Y-95569951D01*
X205378792Y-95534267D01*
X205394968Y-95390699D01*
X205394968Y-95390692D01*
X205374772Y-95211446D01*
X205374771Y-95211441D01*
X205354838Y-95154476D01*
X205315192Y-95041174D01*
X205309862Y-95032692D01*
X205232757Y-94909980D01*
X205219219Y-94888434D01*
X205091665Y-94760880D01*
X205066811Y-94745263D01*
X204938926Y-94664907D01*
X204768657Y-94605327D01*
X204768652Y-94605326D01*
X204589407Y-94585131D01*
X204589399Y-94585131D01*
X204410153Y-94605326D01*
X204410148Y-94605327D01*
X204239879Y-94664907D01*
X204087140Y-94760880D01*
X203959587Y-94888433D01*
X203863614Y-95041172D01*
X203804034Y-95211441D01*
X203804033Y-95211446D01*
X203783838Y-95390692D01*
X203783838Y-95390699D01*
X196651883Y-95390699D01*
X196712189Y-95294722D01*
X196771768Y-95124455D01*
X196771873Y-95123523D01*
X196791965Y-94945203D01*
X196791965Y-94945196D01*
X196771769Y-94765950D01*
X196771768Y-94765945D01*
X196742926Y-94683520D01*
X196712189Y-94595678D01*
X196686845Y-94555344D01*
X196644530Y-94487999D01*
X196616216Y-94442938D01*
X196488662Y-94315384D01*
X196472585Y-94305282D01*
X196335923Y-94219411D01*
X196165654Y-94159831D01*
X196165649Y-94159830D01*
X195986404Y-94139635D01*
X195986396Y-94139635D01*
X195807150Y-94159830D01*
X195807145Y-94159831D01*
X195636876Y-94219411D01*
X195484137Y-94315384D01*
X195356584Y-94442937D01*
X195260611Y-94595676D01*
X195201031Y-94765945D01*
X195201030Y-94765950D01*
X195180835Y-94945196D01*
X195180835Y-94945203D01*
X194509206Y-94945203D01*
X194572350Y-94835835D01*
X194627597Y-94665803D01*
X194646285Y-94488000D01*
X194627597Y-94310197D01*
X194579230Y-94161338D01*
X194572352Y-94140170D01*
X194572349Y-94140164D01*
X194530105Y-94066995D01*
X194482959Y-93985335D01*
X194436103Y-93933296D01*
X194363335Y-93852478D01*
X194363332Y-93852476D01*
X194363331Y-93852475D01*
X194363330Y-93852474D01*
X194307372Y-93811818D01*
X201781815Y-93811818D01*
X201802010Y-93991064D01*
X201802011Y-93991069D01*
X201861591Y-94161338D01*
X201910130Y-94238587D01*
X201957564Y-94314077D01*
X202085118Y-94441631D01*
X202133776Y-94472205D01*
X202185741Y-94504857D01*
X202237858Y-94537604D01*
X202403818Y-94595676D01*
X202408125Y-94597183D01*
X202408130Y-94597184D01*
X202587376Y-94617380D01*
X202587380Y-94617380D01*
X202587384Y-94617380D01*
X202766629Y-94597184D01*
X202766632Y-94597183D01*
X202766635Y-94597183D01*
X202936902Y-94537604D01*
X203089642Y-94441631D01*
X203217196Y-94314077D01*
X203313169Y-94161337D01*
X203372748Y-93991070D01*
X203378271Y-93942051D01*
X203392945Y-93811818D01*
X203392945Y-93811811D01*
X203372749Y-93632565D01*
X203372748Y-93632560D01*
X203313168Y-93462291D01*
X203217195Y-93309552D01*
X203089642Y-93181999D01*
X202936903Y-93086026D01*
X202766634Y-93026446D01*
X202766629Y-93026445D01*
X202587384Y-93006250D01*
X202587376Y-93006250D01*
X202408130Y-93026445D01*
X202408125Y-93026446D01*
X202237856Y-93086026D01*
X202085117Y-93181999D01*
X201957564Y-93309552D01*
X201861591Y-93462291D01*
X201802011Y-93632560D01*
X201802010Y-93632565D01*
X201781815Y-93811811D01*
X201781815Y-93811818D01*
X194307372Y-93811818D01*
X194241483Y-93763946D01*
X194198819Y-93708616D01*
X194192840Y-93639003D01*
X194206981Y-93601634D01*
X194227650Y-93565835D01*
X194282897Y-93395803D01*
X194301585Y-93218000D01*
X194282897Y-93040197D01*
X194227650Y-92870165D01*
X194138259Y-92715335D01*
X194081200Y-92651965D01*
X194018635Y-92582478D01*
X194018632Y-92582476D01*
X194018631Y-92582475D01*
X194018630Y-92582474D01*
X193873993Y-92477388D01*
X193710667Y-92404671D01*
X193710665Y-92404670D01*
X193582994Y-92377533D01*
X193535791Y-92367500D01*
X193357009Y-92367500D01*
X193326354Y-92374015D01*
X193182133Y-92404670D01*
X193182128Y-92404672D01*
X193018808Y-92477387D01*
X192874168Y-92582475D01*
X192754540Y-92715336D01*
X192665150Y-92870164D01*
X192665147Y-92870170D01*
X192609904Y-93040192D01*
X192609903Y-93040194D01*
X192591215Y-93218000D01*
X192609903Y-93395805D01*
X192609904Y-93395807D01*
X192665147Y-93565829D01*
X192665149Y-93565833D01*
X192665150Y-93565835D01*
X192754541Y-93720665D01*
X192771701Y-93739723D01*
X192874164Y-93853521D01*
X192874167Y-93853523D01*
X192874170Y-93853526D01*
X192996015Y-93942052D01*
X193038679Y-93997381D01*
X193044658Y-94066995D01*
X193030517Y-94104366D01*
X193009849Y-94140165D01*
X193009849Y-94140166D01*
X192954604Y-94310192D01*
X192954603Y-94310194D01*
X192935915Y-94487999D01*
X192954603Y-94665805D01*
X192955955Y-94672162D01*
X192953091Y-94672770D01*
X192954638Y-94729944D01*
X192918466Y-94789722D01*
X192855718Y-94820454D01*
X192786316Y-94812383D01*
X192780962Y-94809960D01*
X192777894Y-94808482D01*
X192669004Y-94770380D01*
X192638221Y-94759609D01*
X192581446Y-94718888D01*
X192562135Y-94683524D01*
X192553063Y-94657597D01*
X192457090Y-94504857D01*
X192329536Y-94377303D01*
X192275117Y-94343109D01*
X192176797Y-94281330D01*
X192006528Y-94221750D01*
X192006523Y-94221749D01*
X191827278Y-94201554D01*
X191827270Y-94201554D01*
X191648024Y-94221749D01*
X191648019Y-94221750D01*
X191477750Y-94281330D01*
X191325011Y-94377303D01*
X191197458Y-94504856D01*
X191101486Y-94657594D01*
X191101482Y-94657602D01*
X191100156Y-94661392D01*
X191098640Y-94663504D01*
X191098467Y-94663865D01*
X191098403Y-94663834D01*
X191059428Y-94718164D01*
X191024074Y-94737467D01*
X190863863Y-94793527D01*
X190711125Y-94889499D01*
X190596432Y-95004192D01*
X190535109Y-95037676D01*
X190465417Y-95032692D01*
X190421070Y-95004192D01*
X190362074Y-94945196D01*
X190293153Y-94876275D01*
X190259670Y-94814955D01*
X190264654Y-94745263D01*
X190306525Y-94689329D01*
X190337504Y-94672414D01*
X190420126Y-94641598D01*
X190420126Y-94641597D01*
X190420131Y-94641596D01*
X190535346Y-94555346D01*
X190621596Y-94440131D01*
X190671891Y-94305283D01*
X190678300Y-94245673D01*
X190678299Y-92799928D01*
X190671891Y-92740317D01*
X190667102Y-92727478D01*
X190621597Y-92605471D01*
X190621593Y-92605464D01*
X190535347Y-92490255D01*
X190535344Y-92490252D01*
X190420135Y-92404006D01*
X190420128Y-92404002D01*
X190285282Y-92353708D01*
X190285283Y-92353708D01*
X190225683Y-92347301D01*
X190225681Y-92347300D01*
X190225673Y-92347300D01*
X190225665Y-92347300D01*
X189907245Y-92347300D01*
X189840206Y-92327615D01*
X189794451Y-92274811D01*
X189784507Y-92205653D01*
X189813532Y-92142097D01*
X189819537Y-92135646D01*
X189911575Y-92043609D01*
X190007548Y-91890869D01*
X190023107Y-91846403D01*
X197517635Y-91846403D01*
X197537830Y-92025649D01*
X197537831Y-92025654D01*
X197597411Y-92195923D01*
X197651888Y-92282622D01*
X197693384Y-92348662D01*
X197820938Y-92476216D01*
X197973678Y-92572189D01*
X198096782Y-92615265D01*
X198143945Y-92631768D01*
X198143950Y-92631769D01*
X198323196Y-92651965D01*
X198323200Y-92651965D01*
X198323204Y-92651965D01*
X198502449Y-92631769D01*
X198502452Y-92631768D01*
X198502455Y-92631768D01*
X198672722Y-92572189D01*
X198825462Y-92476216D01*
X198953016Y-92348662D01*
X199048989Y-92195922D01*
X199108568Y-92025655D01*
X199112716Y-91988844D01*
X199128765Y-91846403D01*
X199128765Y-91846396D01*
X199108569Y-91667150D01*
X199108568Y-91667145D01*
X199051036Y-91502728D01*
X199048989Y-91496878D01*
X199024837Y-91458441D01*
X198953015Y-91344137D01*
X198825462Y-91216584D01*
X198672723Y-91120611D01*
X198502454Y-91061031D01*
X198502449Y-91061030D01*
X198323204Y-91040835D01*
X198323196Y-91040835D01*
X198143950Y-91061030D01*
X198143945Y-91061031D01*
X197973676Y-91120611D01*
X197820937Y-91216584D01*
X197693384Y-91344137D01*
X197597411Y-91496876D01*
X197537831Y-91667145D01*
X197537830Y-91667150D01*
X197517635Y-91846396D01*
X197517635Y-91846403D01*
X190023107Y-91846403D01*
X190067127Y-91720602D01*
X190081186Y-91595823D01*
X190087324Y-91541350D01*
X190087324Y-91541343D01*
X190067128Y-91362097D01*
X190067127Y-91362092D01*
X190038116Y-91279183D01*
X190007548Y-91191825D01*
X189911575Y-91039085D01*
X189784021Y-90911531D01*
X189760539Y-90896776D01*
X189631282Y-90815558D01*
X189461013Y-90755978D01*
X189461008Y-90755977D01*
X189281763Y-90735782D01*
X189281755Y-90735782D01*
X189102509Y-90755977D01*
X189102504Y-90755978D01*
X188932235Y-90815558D01*
X188779496Y-90911531D01*
X188651943Y-91039084D01*
X188555970Y-91191823D01*
X188496390Y-91362092D01*
X188496389Y-91362097D01*
X188476194Y-91541343D01*
X188476194Y-91541350D01*
X188496389Y-91720596D01*
X188496390Y-91720601D01*
X188555970Y-91890870D01*
X188651943Y-92043609D01*
X188759941Y-92151607D01*
X188793426Y-92212930D01*
X188788442Y-92282622D01*
X188746570Y-92338555D01*
X188715593Y-92355470D01*
X188585471Y-92404002D01*
X188585464Y-92404006D01*
X188470255Y-92490252D01*
X188408014Y-92573394D01*
X188352079Y-92615265D01*
X188282388Y-92620248D01*
X188225211Y-92590720D01*
X188214234Y-92580713D01*
X188214229Y-92580710D01*
X188029013Y-92466029D01*
X188029007Y-92466026D01*
X187943912Y-92433060D01*
X187825869Y-92387330D01*
X187611726Y-92347300D01*
X187393874Y-92347300D01*
X187179731Y-92387330D01*
X187136696Y-92404002D01*
X186976592Y-92466026D01*
X186976586Y-92466029D01*
X186791376Y-92580706D01*
X186791366Y-92580713D01*
X186630373Y-92727476D01*
X186601753Y-92765376D01*
X186545644Y-92807011D01*
X186475932Y-92811702D01*
X186414750Y-92777959D01*
X186403847Y-92765376D01*
X186375226Y-92727476D01*
X186214233Y-92580713D01*
X186214223Y-92580706D01*
X186029013Y-92466029D01*
X186029007Y-92466026D01*
X185943912Y-92433060D01*
X185825869Y-92387330D01*
X185611726Y-92347300D01*
X185393874Y-92347300D01*
X185179731Y-92387330D01*
X185136696Y-92404002D01*
X184976592Y-92466026D01*
X184976586Y-92466029D01*
X184791376Y-92580706D01*
X184791366Y-92580713D01*
X184630374Y-92727476D01*
X184499088Y-92901327D01*
X184401984Y-93096337D01*
X184342364Y-93305881D01*
X184322264Y-93522799D01*
X184322264Y-93522800D01*
X183600500Y-93522800D01*
X183600500Y-91246303D01*
X186145496Y-91246303D01*
X186165691Y-91425549D01*
X186165692Y-91425554D01*
X186225272Y-91595823D01*
X186305625Y-91723703D01*
X186321245Y-91748562D01*
X186448799Y-91876116D01*
X186517292Y-91919153D01*
X186572333Y-91953738D01*
X186601539Y-91972089D01*
X186714115Y-92011481D01*
X186771806Y-92031668D01*
X186771811Y-92031669D01*
X186951057Y-92051865D01*
X186951061Y-92051865D01*
X186951065Y-92051865D01*
X187130310Y-92031669D01*
X187130313Y-92031668D01*
X187130316Y-92031668D01*
X187300583Y-91972089D01*
X187453323Y-91876116D01*
X187580877Y-91748562D01*
X187676850Y-91595822D01*
X187736429Y-91425555D01*
X187736430Y-91425549D01*
X187756626Y-91246303D01*
X187756626Y-91246296D01*
X187736430Y-91067050D01*
X187736429Y-91067045D01*
X187711495Y-90995789D01*
X187676850Y-90896778D01*
X187664076Y-90876449D01*
X187602708Y-90778782D01*
X187580877Y-90744038D01*
X187453323Y-90616484D01*
X187386549Y-90574527D01*
X187300584Y-90520511D01*
X187130315Y-90460931D01*
X187130310Y-90460930D01*
X186951065Y-90440735D01*
X186951057Y-90440735D01*
X186771811Y-90460930D01*
X186771806Y-90460931D01*
X186601537Y-90520511D01*
X186448798Y-90616484D01*
X186321245Y-90744037D01*
X186225272Y-90896776D01*
X186165692Y-91067045D01*
X186165691Y-91067050D01*
X186145496Y-91246296D01*
X186145496Y-91246303D01*
X183600500Y-91246303D01*
X183600500Y-89357203D01*
X186494035Y-89357203D01*
X186514230Y-89536449D01*
X186514231Y-89536454D01*
X186573811Y-89706723D01*
X186637651Y-89808323D01*
X186669784Y-89859462D01*
X186797338Y-89987016D01*
X186950078Y-90082989D01*
X187099563Y-90135296D01*
X187120345Y-90142568D01*
X187120350Y-90142569D01*
X187299596Y-90162765D01*
X187299600Y-90162765D01*
X187299604Y-90162765D01*
X187478849Y-90142569D01*
X187478852Y-90142568D01*
X187478855Y-90142568D01*
X187649122Y-90082989D01*
X187801862Y-89987016D01*
X187929416Y-89859462D01*
X188025389Y-89706722D01*
X188084968Y-89536455D01*
X188090519Y-89487189D01*
X188093717Y-89458803D01*
X188373635Y-89458803D01*
X188393830Y-89638049D01*
X188393831Y-89638054D01*
X188453411Y-89808323D01*
X188546232Y-89956045D01*
X188549384Y-89961062D01*
X188676938Y-90088616D01*
X188829678Y-90184589D01*
X188999944Y-90244167D01*
X188999945Y-90244168D01*
X188999950Y-90244169D01*
X189179196Y-90264365D01*
X189179200Y-90264365D01*
X189179204Y-90264365D01*
X189358449Y-90244169D01*
X189358452Y-90244168D01*
X189358455Y-90244168D01*
X189528722Y-90184589D01*
X189681462Y-90088616D01*
X189809016Y-89961062D01*
X189837328Y-89916003D01*
X193707635Y-89916003D01*
X193727830Y-90095249D01*
X193727831Y-90095254D01*
X193787411Y-90265523D01*
X193883383Y-90418262D01*
X193883384Y-90418262D01*
X194010938Y-90545816D01*
X194056636Y-90574530D01*
X194156950Y-90637562D01*
X194163678Y-90641789D01*
X194233238Y-90666129D01*
X194333945Y-90701368D01*
X194333950Y-90701369D01*
X194513196Y-90721565D01*
X194513200Y-90721565D01*
X194513204Y-90721565D01*
X194692449Y-90701369D01*
X194692451Y-90701368D01*
X194692455Y-90701368D01*
X194692458Y-90701366D01*
X194692462Y-90701366D01*
X194759714Y-90677833D01*
X194862722Y-90641789D01*
X194897698Y-90619811D01*
X194964927Y-90600812D01*
X195031762Y-90621177D01*
X195051347Y-90637125D01*
X195051784Y-90637562D01*
X195179338Y-90765116D01*
X195332078Y-90861089D01*
X195476233Y-90911531D01*
X195502345Y-90920668D01*
X195502350Y-90920669D01*
X195681596Y-90940865D01*
X195681600Y-90940865D01*
X195681604Y-90940865D01*
X195860849Y-90920669D01*
X195860852Y-90920668D01*
X195860855Y-90920668D01*
X196031122Y-90861089D01*
X196183862Y-90765116D01*
X196311416Y-90637562D01*
X196407389Y-90484822D01*
X196466968Y-90314555D01*
X196467749Y-90307624D01*
X196487165Y-90135303D01*
X196487165Y-90135296D01*
X196466969Y-89956050D01*
X196466968Y-89956045D01*
X196439817Y-89878453D01*
X196410210Y-89793841D01*
X199259551Y-89793841D01*
X199279746Y-89973087D01*
X199279747Y-89973092D01*
X199339327Y-90143361D01*
X199435300Y-90296100D01*
X199562855Y-90423655D01*
X199562857Y-90423656D01*
X199607215Y-90451529D01*
X199653505Y-90503863D01*
X199664462Y-90542638D01*
X199678375Y-90666124D01*
X199678378Y-90666136D01*
X199737954Y-90836394D01*
X199795860Y-90928552D01*
X199814860Y-90995789D01*
X199807908Y-91035475D01*
X199785356Y-91099928D01*
X199785355Y-91099933D01*
X199765159Y-91279183D01*
X199765159Y-91279190D01*
X199785354Y-91458436D01*
X199785355Y-91458441D01*
X199844935Y-91628710D01*
X199844936Y-91628711D01*
X199940908Y-91781449D01*
X199985643Y-91826184D01*
X200017288Y-91857829D01*
X200050772Y-91919153D01*
X200045787Y-91988844D01*
X200034600Y-92011481D01*
X199974912Y-92106474D01*
X199915331Y-92276745D01*
X199915330Y-92276750D01*
X199895135Y-92455996D01*
X199895135Y-92456003D01*
X199915330Y-92635249D01*
X199915331Y-92635254D01*
X199974911Y-92805523D01*
X199978794Y-92811702D01*
X200070884Y-92958262D01*
X200198438Y-93085816D01*
X200351178Y-93181789D01*
X200454663Y-93218000D01*
X200521445Y-93241368D01*
X200521450Y-93241369D01*
X200700696Y-93261565D01*
X200700700Y-93261565D01*
X200700704Y-93261565D01*
X200879949Y-93241369D01*
X200879952Y-93241368D01*
X200879955Y-93241368D01*
X201050222Y-93181789D01*
X201202962Y-93085816D01*
X201330516Y-92958262D01*
X201426489Y-92805522D01*
X201486068Y-92635255D01*
X201487759Y-92620248D01*
X201506265Y-92456003D01*
X201506265Y-92455996D01*
X201486069Y-92276750D01*
X201486068Y-92276745D01*
X201442280Y-92151607D01*
X201426489Y-92106478D01*
X201426486Y-92106474D01*
X201366798Y-92011481D01*
X201330516Y-91953738D01*
X201254134Y-91877356D01*
X201220651Y-91816033D01*
X201225636Y-91746342D01*
X201236824Y-91723703D01*
X201238777Y-91720596D01*
X201296513Y-91628709D01*
X201356092Y-91458442D01*
X201357774Y-91443516D01*
X201376289Y-91279190D01*
X201376289Y-91279183D01*
X201356093Y-91099937D01*
X201356090Y-91099924D01*
X201296514Y-90929668D01*
X201296513Y-90929665D01*
X201253424Y-90861089D01*
X201238607Y-90837507D01*
X201219607Y-90770270D01*
X201226559Y-90730583D01*
X201249113Y-90666129D01*
X201254707Y-90616484D01*
X201269310Y-90486877D01*
X201269310Y-90486870D01*
X201255534Y-90364601D01*
X204160946Y-90364601D01*
X204170945Y-90574527D01*
X204220496Y-90778778D01*
X204220498Y-90778782D01*
X204307798Y-90969943D01*
X204307801Y-90969948D01*
X204307802Y-90969950D01*
X204307804Y-90969953D01*
X204400362Y-91099933D01*
X204429715Y-91141153D01*
X204429720Y-91141159D01*
X204581820Y-91286185D01*
X204676778Y-91347211D01*
X204758628Y-91399813D01*
X204953743Y-91477925D01*
X205052070Y-91496876D01*
X205160114Y-91517700D01*
X205160115Y-91517700D01*
X206017619Y-91517700D01*
X206017625Y-91517700D01*
X206174418Y-91502728D01*
X206376075Y-91443516D01*
X206562882Y-91347211D01*
X206728086Y-91217292D01*
X206865719Y-91058456D01*
X206876904Y-91039084D01*
X206970801Y-90876449D01*
X206970800Y-90876449D01*
X206970804Y-90876444D01*
X207039544Y-90677833D01*
X207069454Y-90469802D01*
X207059454Y-90259870D01*
X207009904Y-90055624D01*
X206978572Y-89987016D01*
X206922601Y-89864456D01*
X206922598Y-89864451D01*
X206922597Y-89864450D01*
X206922596Y-89864447D01*
X206800686Y-89693248D01*
X206800684Y-89693246D01*
X206800679Y-89693240D01*
X206648579Y-89548214D01*
X206471774Y-89434588D01*
X206460608Y-89430118D01*
X206362604Y-89390883D01*
X206276655Y-89356474D01*
X206070286Y-89316700D01*
X206070285Y-89316700D01*
X205212775Y-89316700D01*
X205055982Y-89331672D01*
X205055978Y-89331673D01*
X204854327Y-89390883D01*
X204667513Y-89487191D01*
X204502316Y-89617105D01*
X204502312Y-89617109D01*
X204364678Y-89775946D01*
X204259598Y-89957950D01*
X204190856Y-90156565D01*
X204190856Y-90156567D01*
X204164814Y-90337700D01*
X204160946Y-90364601D01*
X201255534Y-90364601D01*
X201249114Y-90307624D01*
X201249113Y-90307619D01*
X201226911Y-90244169D01*
X201189534Y-90137352D01*
X201169950Y-90106185D01*
X201126661Y-90037290D01*
X201093561Y-89984612D01*
X200966007Y-89857058D01*
X200966006Y-89857057D01*
X200921646Y-89829184D01*
X200875355Y-89776850D01*
X200864398Y-89738073D01*
X200850485Y-89614588D01*
X200850484Y-89614583D01*
X200790904Y-89444313D01*
X200773242Y-89416205D01*
X200754241Y-89348968D01*
X200773242Y-89284259D01*
X200826988Y-89198724D01*
X200826989Y-89198722D01*
X200886568Y-89028455D01*
X200888909Y-89007678D01*
X200906765Y-88849203D01*
X200906765Y-88849196D01*
X200886569Y-88669950D01*
X200886568Y-88669945D01*
X200852236Y-88571830D01*
X200826989Y-88499678D01*
X200731016Y-88346938D01*
X200656380Y-88272302D01*
X201075958Y-88272302D01*
X201096153Y-88451548D01*
X201096154Y-88451553D01*
X201155734Y-88621822D01*
X201195087Y-88684451D01*
X201251707Y-88774561D01*
X201379261Y-88902115D01*
X201469050Y-88958533D01*
X201515340Y-89010867D01*
X201525989Y-89079920D01*
X201525815Y-89081172D01*
X201510946Y-89184593D01*
X201510945Y-89184597D01*
X201520945Y-89394527D01*
X201570496Y-89598778D01*
X201570498Y-89598782D01*
X201657798Y-89789943D01*
X201657801Y-89789948D01*
X201657802Y-89789950D01*
X201657804Y-89789953D01*
X201776081Y-89956050D01*
X201779715Y-89961153D01*
X201779720Y-89961159D01*
X201931820Y-90106185D01*
X202026778Y-90167211D01*
X202108628Y-90219813D01*
X202303743Y-90297925D01*
X202390022Y-90314554D01*
X202510114Y-90337700D01*
X202510115Y-90337700D01*
X202867619Y-90337700D01*
X202867625Y-90337700D01*
X203024418Y-90322728D01*
X203226075Y-90263516D01*
X203412882Y-90167211D01*
X203418536Y-90162765D01*
X203578083Y-90037294D01*
X203578086Y-90037292D01*
X203715719Y-89878456D01*
X203756211Y-89808323D01*
X203820801Y-89696449D01*
X203820800Y-89696449D01*
X203820804Y-89696444D01*
X203889544Y-89497833D01*
X203919454Y-89289802D01*
X203909454Y-89079870D01*
X203859904Y-88875624D01*
X203832243Y-88815055D01*
X203772601Y-88684456D01*
X203772598Y-88684451D01*
X203772597Y-88684450D01*
X203772596Y-88684447D01*
X203650686Y-88513248D01*
X203650684Y-88513246D01*
X203650679Y-88513240D01*
X203498579Y-88368214D01*
X203321774Y-88254588D01*
X203126655Y-88176474D01*
X202920286Y-88136700D01*
X202920285Y-88136700D01*
X202770149Y-88136700D01*
X202703110Y-88117015D01*
X202657355Y-88064211D01*
X202653113Y-88053670D01*
X202607312Y-87922777D01*
X202511339Y-87770037D01*
X202383785Y-87642483D01*
X202231046Y-87546510D01*
X202060777Y-87486930D01*
X202060772Y-87486929D01*
X201881527Y-87466734D01*
X201881519Y-87466734D01*
X201702273Y-87486929D01*
X201702268Y-87486930D01*
X201531999Y-87546510D01*
X201379260Y-87642483D01*
X201251707Y-87770036D01*
X201155734Y-87922775D01*
X201096154Y-88093044D01*
X201096153Y-88093049D01*
X201075958Y-88272295D01*
X201075958Y-88272302D01*
X200656380Y-88272302D01*
X200603462Y-88219384D01*
X200535173Y-88176475D01*
X200450723Y-88123411D01*
X200280454Y-88063831D01*
X200280449Y-88063830D01*
X200101204Y-88043635D01*
X200101196Y-88043635D01*
X199921950Y-88063830D01*
X199921945Y-88063831D01*
X199751676Y-88123411D01*
X199598937Y-88219384D01*
X199471384Y-88346937D01*
X199375411Y-88499676D01*
X199315831Y-88669945D01*
X199315830Y-88669950D01*
X199295635Y-88849196D01*
X199295635Y-88849203D01*
X199315830Y-89028449D01*
X199315833Y-89028462D01*
X199375408Y-89198717D01*
X199393075Y-89226834D01*
X199412074Y-89294071D01*
X199393074Y-89358776D01*
X199339325Y-89444317D01*
X199279749Y-89614575D01*
X199279746Y-89614588D01*
X199259551Y-89793834D01*
X199259551Y-89793841D01*
X196410210Y-89793841D01*
X196407389Y-89785778D01*
X196376579Y-89736745D01*
X196314568Y-89638055D01*
X196311416Y-89633038D01*
X196183862Y-89505484D01*
X196109559Y-89458796D01*
X196031123Y-89409511D01*
X195860854Y-89349931D01*
X195860849Y-89349930D01*
X195681604Y-89329735D01*
X195681596Y-89329735D01*
X195502350Y-89349930D01*
X195502337Y-89349933D01*
X195332081Y-89409509D01*
X195332072Y-89409513D01*
X195297103Y-89431486D01*
X195229867Y-89450486D01*
X195163031Y-89430118D01*
X195143451Y-89414173D01*
X195015462Y-89286184D01*
X194862723Y-89190211D01*
X194692454Y-89130631D01*
X194692449Y-89130630D01*
X194513204Y-89110435D01*
X194513196Y-89110435D01*
X194333950Y-89130630D01*
X194333945Y-89130631D01*
X194163676Y-89190211D01*
X194010937Y-89286184D01*
X193883384Y-89413737D01*
X193787411Y-89566476D01*
X193727831Y-89736745D01*
X193727830Y-89736750D01*
X193707635Y-89915996D01*
X193707635Y-89916003D01*
X189837328Y-89916003D01*
X189904989Y-89808322D01*
X189964568Y-89638055D01*
X189964569Y-89638049D01*
X189984765Y-89458803D01*
X189984765Y-89458796D01*
X189964569Y-89279550D01*
X189964568Y-89279545D01*
X189946124Y-89226834D01*
X189904989Y-89109278D01*
X189809016Y-88956538D01*
X189681462Y-88828984D01*
X189659285Y-88815049D01*
X189528723Y-88733011D01*
X189358454Y-88673431D01*
X189358449Y-88673430D01*
X189179204Y-88653235D01*
X189179196Y-88653235D01*
X188999950Y-88673430D01*
X188999945Y-88673431D01*
X188829676Y-88733011D01*
X188676937Y-88828984D01*
X188549384Y-88956537D01*
X188453411Y-89109276D01*
X188393831Y-89279545D01*
X188393830Y-89279550D01*
X188373635Y-89458796D01*
X188373635Y-89458803D01*
X188093717Y-89458803D01*
X188105165Y-89357203D01*
X188105165Y-89357196D01*
X188084969Y-89177950D01*
X188084968Y-89177945D01*
X188060940Y-89109276D01*
X188025389Y-89007678D01*
X188011342Y-88985323D01*
X187959059Y-88902115D01*
X187929416Y-88854938D01*
X187801862Y-88727384D01*
X187733535Y-88684451D01*
X187649123Y-88631411D01*
X187478854Y-88571831D01*
X187478849Y-88571830D01*
X187299604Y-88551635D01*
X187299596Y-88551635D01*
X187120350Y-88571830D01*
X187120345Y-88571831D01*
X186950076Y-88631411D01*
X186797337Y-88727384D01*
X186669784Y-88854937D01*
X186573811Y-89007676D01*
X186514231Y-89177945D01*
X186514230Y-89177950D01*
X186494035Y-89357196D01*
X186494035Y-89357203D01*
X183600500Y-89357203D01*
X183600500Y-68886199D01*
X183620185Y-68819160D01*
X183672989Y-68773405D01*
X183742147Y-68763461D01*
X183805703Y-68792486D01*
X183827133Y-68816612D01*
X183968633Y-69025309D01*
X183968641Y-69025319D01*
X184174632Y-69267830D01*
X184200332Y-69298086D01*
X184460163Y-69544211D01*
X184745081Y-69760800D01*
X185051747Y-69945315D01*
X185051749Y-69945316D01*
X185051751Y-69945317D01*
X185051755Y-69945319D01*
X185078469Y-69957678D01*
X185376565Y-70095591D01*
X185715726Y-70209868D01*
X186065254Y-70286805D01*
X186421052Y-70325500D01*
X186421058Y-70325500D01*
X186778942Y-70325500D01*
X186778948Y-70325500D01*
X187129500Y-70287375D01*
X187198273Y-70299696D01*
X187249469Y-70347243D01*
X187266125Y-70396764D01*
X187276230Y-70486450D01*
X187276232Y-70486457D01*
X187336692Y-70659242D01*
X187340253Y-70729020D01*
X187305524Y-70789648D01*
X187243531Y-70821875D01*
X187173955Y-70815470D01*
X187143585Y-70795511D01*
X187142645Y-70796768D01*
X187020335Y-70705206D01*
X187020328Y-70705202D01*
X186885482Y-70654908D01*
X186885483Y-70654908D01*
X186825883Y-70648501D01*
X186825881Y-70648500D01*
X186825873Y-70648500D01*
X186825864Y-70648500D01*
X185030129Y-70648500D01*
X185030123Y-70648501D01*
X184970516Y-70654908D01*
X184835671Y-70705202D01*
X184835664Y-70705206D01*
X184720455Y-70791452D01*
X184720452Y-70791455D01*
X184634206Y-70906664D01*
X184634202Y-70906671D01*
X184583908Y-71041517D01*
X184578420Y-71092568D01*
X184577501Y-71101123D01*
X184577500Y-71101135D01*
X184577500Y-72896870D01*
X184577501Y-72896876D01*
X184583908Y-72956483D01*
X184634202Y-73091328D01*
X184634206Y-73091335D01*
X184720452Y-73206544D01*
X184720455Y-73206547D01*
X184835664Y-73292793D01*
X184835671Y-73292797D01*
X184967081Y-73341810D01*
X185023015Y-73383681D01*
X185047432Y-73449145D01*
X185032580Y-73517418D01*
X185011430Y-73545673D01*
X184889503Y-73667600D01*
X184753965Y-73861169D01*
X184753964Y-73861171D01*
X184654098Y-74075335D01*
X184654094Y-74075344D01*
X184592938Y-74303586D01*
X184592936Y-74303596D01*
X184572341Y-74538999D01*
X184572341Y-74539000D01*
X184592936Y-74774403D01*
X184592938Y-74774413D01*
X184654094Y-75002655D01*
X184654096Y-75002659D01*
X184654097Y-75002663D01*
X184731822Y-75169344D01*
X184753965Y-75216830D01*
X184753967Y-75216834D01*
X184889501Y-75410395D01*
X184889506Y-75410402D01*
X185056597Y-75577493D01*
X185056603Y-75577498D01*
X185242158Y-75707425D01*
X185285783Y-75762002D01*
X185292977Y-75831500D01*
X185261454Y-75893855D01*
X185242158Y-75910575D01*
X185056597Y-76040505D01*
X184889505Y-76207597D01*
X184753965Y-76401169D01*
X184753964Y-76401171D01*
X184654098Y-76615335D01*
X184654094Y-76615344D01*
X184592938Y-76843586D01*
X184592936Y-76843596D01*
X184572341Y-77078999D01*
X184572341Y-77079000D01*
X184592936Y-77314403D01*
X184592938Y-77314413D01*
X184654094Y-77542655D01*
X184654096Y-77542659D01*
X184654097Y-77542663D01*
X184707276Y-77656705D01*
X184753965Y-77756830D01*
X184753967Y-77756834D01*
X184818888Y-77849550D01*
X184868193Y-77919965D01*
X184889501Y-77950395D01*
X184889506Y-77950402D01*
X185056597Y-78117493D01*
X185056603Y-78117498D01*
X185242158Y-78247425D01*
X185285783Y-78302002D01*
X185292977Y-78371500D01*
X185261454Y-78433855D01*
X185242158Y-78450575D01*
X185056597Y-78580505D01*
X184889505Y-78747597D01*
X184753965Y-78941169D01*
X184753964Y-78941171D01*
X184654098Y-79155335D01*
X184654094Y-79155344D01*
X184592938Y-79383586D01*
X184592936Y-79383596D01*
X184572341Y-79618999D01*
X184572341Y-79619000D01*
X184592936Y-79854403D01*
X184592938Y-79854413D01*
X184654094Y-80082655D01*
X184654096Y-80082659D01*
X184654097Y-80082663D01*
X184698953Y-80178856D01*
X184753965Y-80296830D01*
X184753967Y-80296834D01*
X184889501Y-80490395D01*
X184889506Y-80490402D01*
X185056597Y-80657493D01*
X185056603Y-80657498D01*
X185242594Y-80787730D01*
X185286219Y-80842307D01*
X185293413Y-80911805D01*
X185261890Y-80974160D01*
X185242595Y-80990880D01*
X185056922Y-81120890D01*
X185056920Y-81120891D01*
X184889891Y-81287920D01*
X184889886Y-81287926D01*
X184754400Y-81481420D01*
X184754399Y-81481422D01*
X184654570Y-81695507D01*
X184654567Y-81695513D01*
X184597364Y-81908999D01*
X184597364Y-81909000D01*
X185494314Y-81909000D01*
X185468507Y-81949156D01*
X185428000Y-82087111D01*
X185428000Y-82230889D01*
X185468507Y-82368844D01*
X185494314Y-82409000D01*
X184597364Y-82409000D01*
X184654567Y-82622486D01*
X184654570Y-82622492D01*
X184754399Y-82836578D01*
X184889894Y-83030082D01*
X185056917Y-83197105D01*
X185242595Y-83327119D01*
X185286219Y-83381696D01*
X185293412Y-83451195D01*
X185261890Y-83513549D01*
X185242595Y-83530269D01*
X185056594Y-83660508D01*
X184889505Y-83827597D01*
X184753965Y-84021169D01*
X184753964Y-84021171D01*
X184654098Y-84235335D01*
X184654094Y-84235344D01*
X184592938Y-84463586D01*
X184592936Y-84463596D01*
X184572341Y-84698999D01*
X184572341Y-84699000D01*
X184592936Y-84934403D01*
X184592938Y-84934413D01*
X184654094Y-85162655D01*
X184654096Y-85162659D01*
X184654097Y-85162663D01*
X184730826Y-85327208D01*
X184753965Y-85376830D01*
X184753967Y-85376834D01*
X184832614Y-85489153D01*
X184889505Y-85570401D01*
X185056599Y-85737495D01*
X185069510Y-85746535D01*
X185113135Y-85801111D01*
X185120330Y-85870609D01*
X185088809Y-85932964D01*
X185039344Y-85965152D01*
X184968879Y-85989809D01*
X184816137Y-86085784D01*
X184688584Y-86213337D01*
X184592611Y-86366076D01*
X184533031Y-86536345D01*
X184533030Y-86536350D01*
X184512835Y-86715596D01*
X184512835Y-86715603D01*
X184533030Y-86894849D01*
X184533031Y-86894854D01*
X184592611Y-87065123D01*
X184641052Y-87142216D01*
X184688584Y-87217862D01*
X184816138Y-87345416D01*
X184968878Y-87441389D01*
X185041310Y-87466734D01*
X185139145Y-87500968D01*
X185139150Y-87500969D01*
X185318396Y-87521165D01*
X185318400Y-87521165D01*
X185318404Y-87521165D01*
X185497649Y-87500969D01*
X185497652Y-87500968D01*
X185497655Y-87500968D01*
X185667922Y-87441389D01*
X185820662Y-87345416D01*
X185948216Y-87217862D01*
X186044189Y-87065122D01*
X186103768Y-86894855D01*
X186103769Y-86894849D01*
X186123965Y-86715603D01*
X186123965Y-86715596D01*
X186103769Y-86536350D01*
X186103768Y-86536345D01*
X186095390Y-86512403D01*
X186836635Y-86512403D01*
X186856830Y-86691649D01*
X186856831Y-86691654D01*
X186916411Y-86861923D01*
X186967755Y-86943636D01*
X187012384Y-87014662D01*
X187139938Y-87142216D01*
X187230280Y-87198981D01*
X187269464Y-87223603D01*
X187292678Y-87238189D01*
X187462944Y-87297767D01*
X187462945Y-87297768D01*
X187462950Y-87297769D01*
X187642196Y-87317965D01*
X187642200Y-87317965D01*
X187642204Y-87317965D01*
X187821449Y-87297769D01*
X187821452Y-87297768D01*
X187821455Y-87297768D01*
X187991722Y-87238189D01*
X188144462Y-87142216D01*
X188272016Y-87014662D01*
X188367989Y-86861922D01*
X188427568Y-86691655D01*
X188438458Y-86595001D01*
X188465524Y-86530587D01*
X188523118Y-86491032D01*
X188592955Y-86488893D01*
X188652862Y-86524851D01*
X188678719Y-86567929D01*
X188709690Y-86656438D01*
X188709692Y-86656441D01*
X188805665Y-86809181D01*
X188933219Y-86936735D01*
X189085959Y-87032708D01*
X189178593Y-87065122D01*
X189256226Y-87092287D01*
X189256231Y-87092288D01*
X189435477Y-87112484D01*
X189435481Y-87112484D01*
X189435485Y-87112484D01*
X189614730Y-87092288D01*
X189614733Y-87092287D01*
X189614736Y-87092287D01*
X189785003Y-87032708D01*
X189937743Y-86936735D01*
X190065297Y-86809181D01*
X190161270Y-86656441D01*
X190220849Y-86486174D01*
X190220850Y-86486168D01*
X190241046Y-86306922D01*
X190241046Y-86306915D01*
X190220850Y-86127669D01*
X190220849Y-86127664D01*
X190210817Y-86098993D01*
X190161270Y-85957397D01*
X190131510Y-85910035D01*
X190103522Y-85865492D01*
X190065297Y-85804657D01*
X189937743Y-85677103D01*
X189870043Y-85634564D01*
X189785004Y-85581130D01*
X189614735Y-85521550D01*
X189614730Y-85521549D01*
X189435485Y-85501354D01*
X189435477Y-85501354D01*
X189256231Y-85521549D01*
X189256226Y-85521550D01*
X189085957Y-85581130D01*
X188933218Y-85677103D01*
X188805665Y-85804656D01*
X188709692Y-85957395D01*
X188650112Y-86127664D01*
X188650111Y-86127668D01*
X188639222Y-86224318D01*
X188612155Y-86288732D01*
X188554560Y-86328287D01*
X188484723Y-86330424D01*
X188424817Y-86294466D01*
X188398960Y-86251388D01*
X188367989Y-86162878D01*
X188345865Y-86127668D01*
X188272016Y-86010138D01*
X188144462Y-85882584D01*
X188063188Y-85831516D01*
X187991723Y-85786611D01*
X187821454Y-85727031D01*
X187821449Y-85727030D01*
X187642204Y-85706835D01*
X187642196Y-85706835D01*
X187462950Y-85727030D01*
X187462945Y-85727031D01*
X187292676Y-85786611D01*
X187139937Y-85882584D01*
X187012384Y-86010137D01*
X186916411Y-86162876D01*
X186856831Y-86333145D01*
X186856830Y-86333150D01*
X186836635Y-86512396D01*
X186836635Y-86512403D01*
X186095390Y-86512403D01*
X186086210Y-86486168D01*
X186044189Y-86366078D01*
X185960610Y-86233064D01*
X185941611Y-86165829D01*
X185961979Y-86098993D01*
X186015246Y-86053779D01*
X186054795Y-86043565D01*
X186163408Y-86034063D01*
X186391663Y-85972903D01*
X186605830Y-85873035D01*
X186799401Y-85737495D01*
X186966495Y-85570401D01*
X187102035Y-85376830D01*
X187201903Y-85162663D01*
X187203068Y-85158314D01*
X190946924Y-85158314D01*
X190967119Y-85337560D01*
X190967120Y-85337565D01*
X191026700Y-85507834D01*
X191080897Y-85594087D01*
X191122673Y-85660573D01*
X191250227Y-85788127D01*
X191290064Y-85813158D01*
X191336356Y-85865492D01*
X191347005Y-85934545D01*
X191329087Y-85984123D01*
X191280610Y-86061274D01*
X191221029Y-86231545D01*
X191221028Y-86231550D01*
X191200833Y-86410796D01*
X191200833Y-86410803D01*
X191221028Y-86590049D01*
X191221030Y-86590057D01*
X191274578Y-86743088D01*
X191278139Y-86812866D01*
X191262533Y-86850010D01*
X191247408Y-86874082D01*
X191187833Y-87044337D01*
X191187830Y-87044350D01*
X191167635Y-87223596D01*
X191167635Y-87223603D01*
X191187830Y-87402849D01*
X191187831Y-87402854D01*
X191247411Y-87573123D01*
X191247412Y-87573124D01*
X191343384Y-87725862D01*
X191470938Y-87853416D01*
X191623678Y-87949389D01*
X191623680Y-87949390D01*
X191716786Y-87981970D01*
X191773562Y-88022691D01*
X191799309Y-88087644D01*
X191785853Y-88156206D01*
X191780825Y-88164983D01*
X191704611Y-88286276D01*
X191645031Y-88456545D01*
X191645030Y-88456550D01*
X191624835Y-88635796D01*
X191624835Y-88635803D01*
X191645030Y-88815049D01*
X191645031Y-88815054D01*
X191704611Y-88985323D01*
X191782498Y-89109278D01*
X191800584Y-89138062D01*
X191928138Y-89265616D01*
X191966630Y-89289802D01*
X192073897Y-89357203D01*
X192080878Y-89361589D01*
X192236962Y-89416205D01*
X192251145Y-89421168D01*
X192251150Y-89421169D01*
X192430396Y-89441365D01*
X192430400Y-89441365D01*
X192430404Y-89441365D01*
X192609649Y-89421169D01*
X192609652Y-89421168D01*
X192609655Y-89421168D01*
X192779922Y-89361589D01*
X192932662Y-89265616D01*
X193060216Y-89138062D01*
X193156189Y-88985322D01*
X193215768Y-88815055D01*
X193230483Y-88684456D01*
X193235965Y-88635803D01*
X193235965Y-88635796D01*
X193215769Y-88456550D01*
X193215768Y-88456545D01*
X193214019Y-88451548D01*
X193156189Y-88286278D01*
X193147405Y-88272299D01*
X193087195Y-88176475D01*
X193060216Y-88133538D01*
X192932662Y-88005984D01*
X192894444Y-87981970D01*
X192779921Y-87910010D01*
X192712535Y-87886431D01*
X192686812Y-87877430D01*
X192630037Y-87836709D01*
X192604289Y-87771757D01*
X192617745Y-87703195D01*
X192622765Y-87694431D01*
X192698989Y-87573122D01*
X192758568Y-87402855D01*
X192768133Y-87317965D01*
X192778765Y-87223603D01*
X192778765Y-87223596D01*
X192758569Y-87044350D01*
X192758568Y-87044345D01*
X192705019Y-86891311D01*
X192701458Y-86821532D01*
X192717067Y-86784384D01*
X192732187Y-86760322D01*
X192791766Y-86590055D01*
X192797818Y-86536345D01*
X192811963Y-86410803D01*
X192811963Y-86410796D01*
X192801037Y-86313823D01*
X195801549Y-86313823D01*
X195821744Y-86493069D01*
X195821745Y-86493074D01*
X195881325Y-86663343D01*
X195957379Y-86784381D01*
X195977298Y-86816082D01*
X196104852Y-86943636D01*
X196195194Y-87000401D01*
X196246607Y-87032707D01*
X196257592Y-87039609D01*
X196330504Y-87065122D01*
X196427859Y-87099188D01*
X196427864Y-87099189D01*
X196607110Y-87119385D01*
X196607114Y-87119385D01*
X196607118Y-87119385D01*
X196786363Y-87099189D01*
X196786366Y-87099188D01*
X196786369Y-87099188D01*
X196956636Y-87039609D01*
X197109376Y-86943636D01*
X197236930Y-86816082D01*
X197332903Y-86663342D01*
X197392482Y-86493075D01*
X197392483Y-86493069D01*
X197412679Y-86313823D01*
X197412679Y-86313816D01*
X197392483Y-86134570D01*
X197392482Y-86134565D01*
X197341830Y-85989811D01*
X197332903Y-85964298D01*
X197236930Y-85811558D01*
X197109376Y-85684004D01*
X197030693Y-85634564D01*
X196956637Y-85588031D01*
X196786368Y-85528451D01*
X196786363Y-85528450D01*
X196607118Y-85508255D01*
X196607110Y-85508255D01*
X196427864Y-85528450D01*
X196427859Y-85528451D01*
X196257590Y-85588031D01*
X196104851Y-85684004D01*
X195977298Y-85811557D01*
X195881325Y-85964296D01*
X195821745Y-86134565D01*
X195821744Y-86134570D01*
X195801549Y-86313816D01*
X195801549Y-86313823D01*
X192801037Y-86313823D01*
X192791767Y-86231550D01*
X192791766Y-86231545D01*
X192732186Y-86061276D01*
X192683707Y-85984123D01*
X192636214Y-85908538D01*
X192508660Y-85780984D01*
X192468820Y-85755950D01*
X192422530Y-85703618D01*
X192411881Y-85634564D01*
X192429800Y-85584985D01*
X192478277Y-85507835D01*
X192480545Y-85501354D01*
X192537857Y-85337566D01*
X192553165Y-85201703D01*
X193656835Y-85201703D01*
X193677030Y-85380949D01*
X193677031Y-85380954D01*
X193736611Y-85551223D01*
X193821148Y-85685762D01*
X193832584Y-85703962D01*
X193960138Y-85831516D01*
X194026215Y-85873035D01*
X194087727Y-85911686D01*
X194112878Y-85927489D01*
X194274729Y-85984123D01*
X194283145Y-85987068D01*
X194283150Y-85987069D01*
X194462396Y-86007265D01*
X194462400Y-86007265D01*
X194462404Y-86007265D01*
X194641649Y-85987069D01*
X194641652Y-85987068D01*
X194641655Y-85987068D01*
X194811922Y-85927489D01*
X194964662Y-85831516D01*
X195092216Y-85703962D01*
X195188189Y-85551222D01*
X195247768Y-85380955D01*
X195247897Y-85379811D01*
X195267965Y-85201703D01*
X195267965Y-85201696D01*
X195247769Y-85022450D01*
X195247768Y-85022445D01*
X195232587Y-84979061D01*
X195188189Y-84852178D01*
X195092216Y-84699438D01*
X195076381Y-84683603D01*
X199143235Y-84683603D01*
X199163430Y-84862849D01*
X199163431Y-84862854D01*
X199223011Y-85033123D01*
X199301674Y-85158314D01*
X199318984Y-85185862D01*
X199446538Y-85313416D01*
X199527384Y-85364215D01*
X199554025Y-85380955D01*
X199599278Y-85409389D01*
X199639651Y-85423516D01*
X199769545Y-85468968D01*
X199769550Y-85468969D01*
X199948796Y-85489165D01*
X199948800Y-85489165D01*
X199948804Y-85489165D01*
X200128049Y-85468969D01*
X200128052Y-85468968D01*
X200128055Y-85468968D01*
X200298322Y-85409389D01*
X200451062Y-85313416D01*
X200578616Y-85185862D01*
X200674589Y-85033122D01*
X200734168Y-84862855D01*
X200734890Y-84856449D01*
X200754365Y-84683603D01*
X200754365Y-84683596D01*
X200734169Y-84504350D01*
X200734168Y-84504345D01*
X200678271Y-84344601D01*
X201510946Y-84344601D01*
X201520945Y-84554527D01*
X201570496Y-84758778D01*
X201570498Y-84758782D01*
X201657798Y-84949943D01*
X201657801Y-84949948D01*
X201657802Y-84949950D01*
X201657804Y-84949953D01*
X201779714Y-85121152D01*
X201779715Y-85121153D01*
X201779720Y-85121159D01*
X201931820Y-85266185D01*
X202026778Y-85327211D01*
X202108628Y-85379813D01*
X202303743Y-85457925D01*
X202361045Y-85468969D01*
X202510114Y-85497700D01*
X202510115Y-85497700D01*
X202867619Y-85497700D01*
X202867625Y-85497700D01*
X203024418Y-85482728D01*
X203226075Y-85423516D01*
X203412882Y-85327211D01*
X203578086Y-85197292D01*
X203715719Y-85038456D01*
X203820804Y-84856444D01*
X203889544Y-84657833D01*
X203919454Y-84449802D01*
X203909454Y-84239870D01*
X203859904Y-84035624D01*
X203824368Y-83957811D01*
X203772601Y-83844456D01*
X203772598Y-83844451D01*
X203772597Y-83844450D01*
X203772596Y-83844447D01*
X203650686Y-83673248D01*
X203650684Y-83673246D01*
X203650679Y-83673240D01*
X203498579Y-83528214D01*
X203321774Y-83414588D01*
X203300804Y-83406193D01*
X203195254Y-83363937D01*
X203126655Y-83336474D01*
X202920286Y-83296700D01*
X202920285Y-83296700D01*
X202562775Y-83296700D01*
X202405982Y-83311672D01*
X202405978Y-83311673D01*
X202204327Y-83370883D01*
X202017513Y-83467191D01*
X201852316Y-83597105D01*
X201852312Y-83597109D01*
X201714678Y-83755946D01*
X201609598Y-83937950D01*
X201540856Y-84136565D01*
X201540856Y-84136567D01*
X201520117Y-84280817D01*
X201510946Y-84344601D01*
X200678271Y-84344601D01*
X200674589Y-84334078D01*
X200578616Y-84181338D01*
X200451062Y-84053784D01*
X200422156Y-84035621D01*
X200298323Y-83957811D01*
X200128054Y-83898231D01*
X200128049Y-83898230D01*
X199948804Y-83878035D01*
X199948796Y-83878035D01*
X199769550Y-83898230D01*
X199769545Y-83898231D01*
X199599276Y-83957811D01*
X199446537Y-84053784D01*
X199318984Y-84181337D01*
X199223011Y-84334076D01*
X199163431Y-84504345D01*
X199163430Y-84504350D01*
X199143235Y-84683596D01*
X199143235Y-84683603D01*
X195076381Y-84683603D01*
X194964662Y-84571884D01*
X194895609Y-84528495D01*
X194811923Y-84475911D01*
X194641654Y-84416331D01*
X194641649Y-84416330D01*
X194462404Y-84396135D01*
X194462396Y-84396135D01*
X194283150Y-84416330D01*
X194283145Y-84416331D01*
X194112876Y-84475911D01*
X193960137Y-84571884D01*
X193832584Y-84699437D01*
X193736611Y-84852176D01*
X193677031Y-85022445D01*
X193677030Y-85022450D01*
X193656835Y-85201696D01*
X193656835Y-85201703D01*
X192553165Y-85201703D01*
X192558054Y-85158314D01*
X192558054Y-85158307D01*
X192537858Y-84979061D01*
X192537857Y-84979056D01*
X192514970Y-84913649D01*
X192478278Y-84808789D01*
X192465543Y-84788522D01*
X192409568Y-84699438D01*
X192382305Y-84656049D01*
X192254751Y-84528495D01*
X192254751Y-84528494D01*
X192102012Y-84432522D01*
X191931743Y-84372942D01*
X191931738Y-84372941D01*
X191752493Y-84352746D01*
X191752485Y-84352746D01*
X191573239Y-84372941D01*
X191573234Y-84372942D01*
X191402965Y-84432522D01*
X191250226Y-84528495D01*
X191122673Y-84656048D01*
X191026700Y-84808787D01*
X190967120Y-84979056D01*
X190967119Y-84979061D01*
X190946924Y-85158307D01*
X190946924Y-85158314D01*
X187203068Y-85158314D01*
X187263063Y-84934408D01*
X187283659Y-84699000D01*
X187263063Y-84463592D01*
X187201903Y-84235337D01*
X187102035Y-84021171D01*
X187099321Y-84017294D01*
X186966494Y-83827597D01*
X186799402Y-83660506D01*
X186799401Y-83660505D01*
X186613405Y-83530269D01*
X186569781Y-83475692D01*
X186562588Y-83406193D01*
X186594110Y-83343839D01*
X186613405Y-83327119D01*
X186799082Y-83197105D01*
X186966105Y-83030082D01*
X187101600Y-82836578D01*
X187201429Y-82622492D01*
X187201432Y-82622486D01*
X187258636Y-82409000D01*
X186361686Y-82409000D01*
X186387493Y-82368844D01*
X186428000Y-82230889D01*
X186428000Y-82087111D01*
X186387493Y-81949156D01*
X186361686Y-81909000D01*
X187258636Y-81909000D01*
X187258635Y-81908999D01*
X187201432Y-81695513D01*
X187201429Y-81695507D01*
X187101600Y-81481422D01*
X187101599Y-81481420D01*
X186966113Y-81287926D01*
X186966108Y-81287920D01*
X186799078Y-81120890D01*
X186613405Y-80990879D01*
X186569780Y-80936302D01*
X186562588Y-80866804D01*
X186594110Y-80804449D01*
X186613406Y-80787730D01*
X186799401Y-80657495D01*
X186966495Y-80490401D01*
X187102035Y-80296830D01*
X187201903Y-80082663D01*
X187263063Y-79854408D01*
X187283659Y-79619000D01*
X187263063Y-79383592D01*
X187206704Y-79173254D01*
X187201905Y-79155344D01*
X187201904Y-79155343D01*
X187201903Y-79155337D01*
X187126671Y-78994003D01*
X187713235Y-78994003D01*
X187733430Y-79173249D01*
X187733431Y-79173254D01*
X187793011Y-79343523D01*
X187888984Y-79496262D01*
X188016537Y-79623815D01*
X188021984Y-79628159D01*
X188021116Y-79629246D01*
X188062325Y-79675831D01*
X188072976Y-79744884D01*
X188045436Y-79806857D01*
X188045728Y-79807090D01*
X188044836Y-79808208D01*
X188044603Y-79808733D01*
X188043224Y-79810229D01*
X188041386Y-79812534D01*
X187945411Y-79965276D01*
X187885831Y-80135545D01*
X187885830Y-80135550D01*
X187865635Y-80314796D01*
X187865635Y-80314803D01*
X187885830Y-80494049D01*
X187885831Y-80494054D01*
X187945411Y-80664323D01*
X188041384Y-80817062D01*
X188168939Y-80944617D01*
X188262029Y-81003110D01*
X188308319Y-81055445D01*
X188318967Y-81124498D01*
X188290592Y-81188346D01*
X188283738Y-81195783D01*
X188244584Y-81234937D01*
X188148611Y-81387676D01*
X188089031Y-81557945D01*
X188089030Y-81557950D01*
X188068835Y-81737196D01*
X188068835Y-81737203D01*
X188089030Y-81916449D01*
X188089031Y-81916454D01*
X188148611Y-82086723D01*
X188214060Y-82190883D01*
X188244584Y-82239462D01*
X188372138Y-82367016D01*
X188462480Y-82423782D01*
X188501664Y-82448403D01*
X188524878Y-82462989D01*
X188695145Y-82522567D01*
X188695145Y-82522568D01*
X188695150Y-82522569D01*
X188874396Y-82542765D01*
X188874400Y-82542765D01*
X188874404Y-82542765D01*
X189053649Y-82522569D01*
X189053652Y-82522568D01*
X189053655Y-82522568D01*
X189223922Y-82462989D01*
X189247135Y-82448403D01*
X190050035Y-82448403D01*
X190070230Y-82627649D01*
X190070231Y-82627654D01*
X190129811Y-82797923D01*
X190204947Y-82917500D01*
X190225784Y-82950662D01*
X190353338Y-83078216D01*
X190443680Y-83134982D01*
X190490818Y-83164601D01*
X190506078Y-83174189D01*
X190676345Y-83233767D01*
X190676345Y-83233768D01*
X190676350Y-83233769D01*
X190788187Y-83246370D01*
X190852601Y-83273436D01*
X190891345Y-83328635D01*
X190932509Y-83446274D01*
X190932511Y-83446277D01*
X191028484Y-83599017D01*
X191156038Y-83726571D01*
X191308778Y-83822544D01*
X191371385Y-83844451D01*
X191479045Y-83882123D01*
X191479050Y-83882124D01*
X191658296Y-83902320D01*
X191658300Y-83902320D01*
X191658304Y-83902320D01*
X191837549Y-83882124D01*
X191837552Y-83882123D01*
X191837555Y-83882123D01*
X192007822Y-83822544D01*
X192160562Y-83726571D01*
X192288116Y-83599017D01*
X192384089Y-83446277D01*
X192443668Y-83276010D01*
X192443958Y-83273436D01*
X192456221Y-83164601D01*
X204160946Y-83164601D01*
X204170945Y-83374527D01*
X204220496Y-83578778D01*
X204220498Y-83578782D01*
X204307798Y-83769943D01*
X204307801Y-83769948D01*
X204307802Y-83769950D01*
X204307804Y-83769953D01*
X204399151Y-83898232D01*
X204429715Y-83941153D01*
X204549048Y-84054937D01*
X204583983Y-84115446D01*
X204580658Y-84185236D01*
X204555050Y-84226149D01*
X204555728Y-84226690D01*
X204551386Y-84232134D01*
X204455411Y-84384876D01*
X204395831Y-84555145D01*
X204395830Y-84555150D01*
X204375635Y-84734396D01*
X204375635Y-84734403D01*
X204395830Y-84913649D01*
X204395831Y-84913654D01*
X204455411Y-85083923D01*
X204504882Y-85162655D01*
X204551384Y-85236662D01*
X204678938Y-85364216D01*
X204705578Y-85380955D01*
X204828074Y-85457925D01*
X204831678Y-85460189D01*
X204969043Y-85508255D01*
X205001945Y-85519768D01*
X205001950Y-85519769D01*
X205181196Y-85539965D01*
X205181200Y-85539965D01*
X205181204Y-85539965D01*
X205360449Y-85519769D01*
X205360451Y-85519768D01*
X205360455Y-85519768D01*
X205360458Y-85519766D01*
X205360462Y-85519766D01*
X205482379Y-85477105D01*
X205552157Y-85473542D01*
X205589307Y-85489153D01*
X205629346Y-85514311D01*
X205629349Y-85514312D01*
X205799605Y-85573888D01*
X205799611Y-85573889D01*
X205799613Y-85573890D01*
X205799614Y-85573890D01*
X205799618Y-85573891D01*
X205978864Y-85594087D01*
X205978868Y-85594087D01*
X205978872Y-85594087D01*
X206158117Y-85573891D01*
X206158120Y-85573890D01*
X206158123Y-85573890D01*
X206328390Y-85514311D01*
X206481130Y-85418338D01*
X206608684Y-85290784D01*
X206704657Y-85138044D01*
X206764236Y-84967777D01*
X206764237Y-84967771D01*
X206784433Y-84788525D01*
X206784433Y-84788518D01*
X206764237Y-84609272D01*
X206764236Y-84609267D01*
X206727522Y-84504345D01*
X206704657Y-84439000D01*
X206690412Y-84416330D01*
X206608683Y-84286259D01*
X206604343Y-84280817D01*
X206605546Y-84279857D01*
X206575988Y-84225726D01*
X206580972Y-84156034D01*
X206620502Y-84101898D01*
X206728083Y-84017294D01*
X206728086Y-84017292D01*
X206865719Y-83858456D01*
X206883535Y-83827599D01*
X206970801Y-83676449D01*
X206970800Y-83676449D01*
X206970804Y-83676444D01*
X207039544Y-83477833D01*
X207069454Y-83269802D01*
X207059454Y-83059870D01*
X207009904Y-82855624D01*
X206983553Y-82797923D01*
X206922601Y-82664456D01*
X206922598Y-82664451D01*
X206922597Y-82664450D01*
X206922596Y-82664447D01*
X206800686Y-82493248D01*
X206800684Y-82493246D01*
X206800679Y-82493240D01*
X206648579Y-82348214D01*
X206471774Y-82234588D01*
X206462534Y-82230889D01*
X206276657Y-82156475D01*
X206276655Y-82156474D01*
X206070286Y-82116700D01*
X206070285Y-82116700D01*
X205212775Y-82116700D01*
X205055982Y-82131672D01*
X205055978Y-82131673D01*
X204854327Y-82190883D01*
X204667513Y-82287191D01*
X204502316Y-82417105D01*
X204502312Y-82417109D01*
X204364678Y-82575946D01*
X204259598Y-82757950D01*
X204204376Y-82917505D01*
X204190856Y-82956567D01*
X204170701Y-83096755D01*
X204160946Y-83164601D01*
X192456221Y-83164601D01*
X192463865Y-83096758D01*
X192463865Y-83096751D01*
X192443669Y-82917505D01*
X192443668Y-82917500D01*
X192422017Y-82855624D01*
X192384089Y-82747233D01*
X192288116Y-82594493D01*
X192160562Y-82466939D01*
X192131062Y-82448403D01*
X192007823Y-82370966D01*
X191837554Y-82311386D01*
X191837550Y-82311385D01*
X191725711Y-82298784D01*
X191661297Y-82271717D01*
X191622553Y-82216518D01*
X191581389Y-82098878D01*
X191498134Y-81966379D01*
X191485416Y-81946138D01*
X191357862Y-81818584D01*
X191325630Y-81798331D01*
X191205123Y-81722611D01*
X191034854Y-81663031D01*
X191034849Y-81663030D01*
X190855604Y-81642835D01*
X190855596Y-81642835D01*
X190676350Y-81663030D01*
X190676345Y-81663031D01*
X190506076Y-81722611D01*
X190353337Y-81818584D01*
X190225784Y-81946137D01*
X190129811Y-82098876D01*
X190070231Y-82269145D01*
X190070230Y-82269150D01*
X190050035Y-82448396D01*
X190050035Y-82448403D01*
X189247135Y-82448403D01*
X189376662Y-82367016D01*
X189504216Y-82239462D01*
X189600189Y-82086722D01*
X189659768Y-81916455D01*
X189660608Y-81908999D01*
X189679965Y-81737203D01*
X189679965Y-81737196D01*
X189659769Y-81557950D01*
X189659768Y-81557945D01*
X189642082Y-81507402D01*
X189600189Y-81387678D01*
X189504216Y-81234938D01*
X189376662Y-81107384D01*
X189283570Y-81048890D01*
X189237280Y-80996556D01*
X189226632Y-80927502D01*
X189255007Y-80863654D01*
X189261862Y-80856216D01*
X189275771Y-80842307D01*
X189301016Y-80817062D01*
X189396989Y-80664322D01*
X189444556Y-80528383D01*
X193960389Y-80528383D01*
X193980584Y-80707629D01*
X193980585Y-80707634D01*
X194040165Y-80877903D01*
X194101915Y-80976177D01*
X194136138Y-81030642D01*
X194263692Y-81158196D01*
X194267668Y-81160694D01*
X194313960Y-81213028D01*
X194324918Y-81251806D01*
X194343850Y-81419839D01*
X194343851Y-81419844D01*
X194403431Y-81590113D01*
X194456342Y-81674320D01*
X194499404Y-81742852D01*
X194626958Y-81870406D01*
X194715251Y-81925884D01*
X194747484Y-81946138D01*
X194779698Y-81966379D01*
X194938245Y-82021857D01*
X194949965Y-82025958D01*
X194949970Y-82025959D01*
X195096288Y-82042444D01*
X195117443Y-82044828D01*
X195181857Y-82071894D01*
X195221412Y-82129489D01*
X195226780Y-82154165D01*
X195244195Y-82308736D01*
X195244196Y-82308741D01*
X195303776Y-82479010D01*
X195369716Y-82583952D01*
X195399749Y-82631749D01*
X195527303Y-82759303D01*
X195680043Y-82855276D01*
X195681038Y-82855624D01*
X195850310Y-82914855D01*
X195850315Y-82914856D01*
X196029561Y-82935052D01*
X196029565Y-82935052D01*
X196029569Y-82935052D01*
X196208814Y-82914856D01*
X196208817Y-82914855D01*
X196208820Y-82914855D01*
X196379087Y-82855276D01*
X196531827Y-82759303D01*
X196659381Y-82631749D01*
X196755354Y-82479009D01*
X196814933Y-82308742D01*
X196817362Y-82287191D01*
X196835130Y-82129489D01*
X196835130Y-82129483D01*
X196814934Y-81950237D01*
X196814933Y-81950232D01*
X196755353Y-81779962D01*
X196702549Y-81695927D01*
X196683548Y-81628690D01*
X196703915Y-81561855D01*
X196757183Y-81516641D01*
X196826439Y-81507402D01*
X196848497Y-81512912D01*
X196975545Y-81557368D01*
X196975550Y-81557369D01*
X197154796Y-81577565D01*
X197154800Y-81577565D01*
X197154804Y-81577565D01*
X197334049Y-81557369D01*
X197334052Y-81557368D01*
X197334055Y-81557368D01*
X197504322Y-81497789D01*
X197657062Y-81401816D01*
X197762806Y-81296072D01*
X201042219Y-81296072D01*
X201062414Y-81475318D01*
X201062415Y-81475323D01*
X201121995Y-81645592D01*
X201183108Y-81742852D01*
X201217968Y-81798331D01*
X201345522Y-81925885D01*
X201498262Y-82021858D01*
X201567699Y-82046155D01*
X201668529Y-82081437D01*
X201668534Y-82081438D01*
X201847780Y-82101634D01*
X201847784Y-82101634D01*
X201847788Y-82101634D01*
X202027033Y-82081438D01*
X202027036Y-82081437D01*
X202027039Y-82081437D01*
X202197306Y-82021858D01*
X202350046Y-81925885D01*
X202477600Y-81798331D01*
X202573573Y-81645591D01*
X202633152Y-81475324D01*
X202639404Y-81419839D01*
X202653349Y-81296072D01*
X202653349Y-81296065D01*
X202633153Y-81116819D01*
X202633152Y-81116814D01*
X202573572Y-80946545D01*
X202516814Y-80856216D01*
X202477600Y-80793807D01*
X202350046Y-80666253D01*
X202336105Y-80657493D01*
X202197307Y-80570280D01*
X202027038Y-80510700D01*
X202027033Y-80510699D01*
X201847788Y-80490504D01*
X201847780Y-80490504D01*
X201668534Y-80510699D01*
X201668529Y-80510700D01*
X201498260Y-80570280D01*
X201345521Y-80666253D01*
X201217968Y-80793806D01*
X201121995Y-80946545D01*
X201062415Y-81116814D01*
X201062414Y-81116819D01*
X201042219Y-81296065D01*
X201042219Y-81296072D01*
X197762806Y-81296072D01*
X197784616Y-81274262D01*
X197880589Y-81121522D01*
X197940168Y-80951255D01*
X197940169Y-80951249D01*
X197960365Y-80772003D01*
X197960365Y-80771996D01*
X197940169Y-80592750D01*
X197940168Y-80592745D01*
X197916843Y-80526086D01*
X197880589Y-80422478D01*
X197784616Y-80269738D01*
X197657062Y-80142184D01*
X197646496Y-80135545D01*
X197504323Y-80046211D01*
X197334054Y-79986631D01*
X197334049Y-79986630D01*
X197154804Y-79966435D01*
X197154796Y-79966435D01*
X196975550Y-79986630D01*
X196975545Y-79986631D01*
X196805276Y-80046211D01*
X196652537Y-80142184D01*
X196524982Y-80269739D01*
X196437844Y-80408418D01*
X196385509Y-80454708D01*
X196316456Y-80465356D01*
X196279044Y-80454163D01*
X196275820Y-80452610D01*
X196105554Y-80393031D01*
X196105549Y-80393030D01*
X195926304Y-80372835D01*
X195926296Y-80372835D01*
X195747050Y-80393030D01*
X195747042Y-80393032D01*
X195703401Y-80408303D01*
X195633622Y-80411864D01*
X195572995Y-80377135D01*
X195545405Y-80332215D01*
X195491743Y-80178858D01*
X195464528Y-80135545D01*
X195395770Y-80026118D01*
X195268216Y-79898564D01*
X195268215Y-79898563D01*
X195115477Y-79802591D01*
X194945208Y-79743011D01*
X194945203Y-79743010D01*
X194765958Y-79722815D01*
X194765950Y-79722815D01*
X194586704Y-79743010D01*
X194586699Y-79743011D01*
X194416430Y-79802591D01*
X194263691Y-79898564D01*
X194136138Y-80026117D01*
X194040165Y-80178856D01*
X193980585Y-80349125D01*
X193980584Y-80349130D01*
X193960389Y-80528376D01*
X193960389Y-80528383D01*
X189444556Y-80528383D01*
X189456568Y-80494055D01*
X189456980Y-80490401D01*
X189476765Y-80314803D01*
X189476765Y-80314796D01*
X189456569Y-80135550D01*
X189456568Y-80135545D01*
X189418277Y-80026117D01*
X189396989Y-79965278D01*
X189301016Y-79812538D01*
X189173462Y-79684984D01*
X189173461Y-79684984D01*
X189173460Y-79684982D01*
X189168012Y-79680637D01*
X189168879Y-79679548D01*
X189127676Y-79632972D01*
X189117022Y-79563919D01*
X189137157Y-79518603D01*
X190252735Y-79518603D01*
X190272930Y-79697849D01*
X190272931Y-79697854D01*
X190332511Y-79868123D01*
X190406975Y-79986631D01*
X190428484Y-80020862D01*
X190556038Y-80148416D01*
X190708778Y-80244389D01*
X190858646Y-80296830D01*
X190879045Y-80303968D01*
X190879050Y-80303969D01*
X191058296Y-80324165D01*
X191058300Y-80324165D01*
X191058304Y-80324165D01*
X191237549Y-80303969D01*
X191237552Y-80303968D01*
X191237555Y-80303968D01*
X191407822Y-80244389D01*
X191560562Y-80148416D01*
X191688116Y-80020862D01*
X191784089Y-79868122D01*
X191843668Y-79697855D01*
X191843669Y-79697849D01*
X191863865Y-79518603D01*
X191863865Y-79518596D01*
X191843669Y-79339350D01*
X191843668Y-79339345D01*
X191803324Y-79224049D01*
X191784089Y-79169078D01*
X191781738Y-79165337D01*
X191706001Y-79044803D01*
X202445235Y-79044803D01*
X202465430Y-79224049D01*
X202465431Y-79224054D01*
X202525011Y-79394323D01*
X202603100Y-79518600D01*
X202620984Y-79547062D01*
X202748538Y-79674616D01*
X202765039Y-79684984D01*
X202857389Y-79743012D01*
X202901278Y-79770589D01*
X203071545Y-79830168D01*
X203071550Y-79830169D01*
X203250796Y-79850365D01*
X203250800Y-79850365D01*
X203250804Y-79850365D01*
X203430049Y-79830169D01*
X203430052Y-79830168D01*
X203430055Y-79830168D01*
X203600322Y-79770589D01*
X203753062Y-79674616D01*
X203798678Y-79629000D01*
X204892341Y-79629000D01*
X204912936Y-79864403D01*
X204912938Y-79864413D01*
X204974094Y-80092655D01*
X204974096Y-80092659D01*
X204974097Y-80092663D01*
X205014290Y-80178856D01*
X205073965Y-80306830D01*
X205073967Y-80306834D01*
X205176041Y-80452610D01*
X205209505Y-80500401D01*
X205376599Y-80667495D01*
X205433925Y-80707635D01*
X205570165Y-80803032D01*
X205570167Y-80803033D01*
X205570170Y-80803035D01*
X205784337Y-80902903D01*
X206012592Y-80964063D01*
X206200918Y-80980539D01*
X206247999Y-80984659D01*
X206248000Y-80984659D01*
X206248001Y-80984659D01*
X206287234Y-80981226D01*
X206483408Y-80964063D01*
X206711663Y-80902903D01*
X206925830Y-80803035D01*
X207119401Y-80667495D01*
X207286495Y-80500401D01*
X207422035Y-80306830D01*
X207521903Y-80092663D01*
X207583063Y-79864408D01*
X207603659Y-79629000D01*
X207603585Y-79628159D01*
X207583063Y-79393596D01*
X207583063Y-79393592D01*
X207524023Y-79173249D01*
X207521905Y-79165344D01*
X207521904Y-79165343D01*
X207521903Y-79165337D01*
X207422035Y-78951171D01*
X207378352Y-78888784D01*
X207286494Y-78757597D01*
X207119402Y-78590506D01*
X207119396Y-78590501D01*
X206933842Y-78460575D01*
X206890217Y-78405998D01*
X206883023Y-78336500D01*
X206914546Y-78274145D01*
X206933842Y-78257425D01*
X207003528Y-78208630D01*
X207119401Y-78127495D01*
X207286495Y-77960401D01*
X207422035Y-77766830D01*
X207521903Y-77552663D01*
X207583063Y-77324408D01*
X207603659Y-77089000D01*
X207583063Y-76853592D01*
X207521903Y-76625337D01*
X207422035Y-76411171D01*
X207406239Y-76388611D01*
X207286494Y-76217597D01*
X207119402Y-76050506D01*
X207119396Y-76050501D01*
X206933842Y-75920575D01*
X206890217Y-75865998D01*
X206883023Y-75796500D01*
X206914546Y-75734145D01*
X206933842Y-75717425D01*
X206961411Y-75698121D01*
X207119401Y-75587495D01*
X207286495Y-75420401D01*
X207422035Y-75226830D01*
X207521903Y-75012663D01*
X207583063Y-74784408D01*
X207603659Y-74549000D01*
X207583063Y-74313592D01*
X207521903Y-74085337D01*
X207422035Y-73871171D01*
X207400091Y-73839832D01*
X207286496Y-73677600D01*
X207248680Y-73639784D01*
X207164567Y-73555671D01*
X207131084Y-73494351D01*
X207136068Y-73424659D01*
X207177939Y-73368725D01*
X207208915Y-73351810D01*
X207340331Y-73302796D01*
X207455546Y-73216546D01*
X207541796Y-73101331D01*
X207592091Y-72966483D01*
X207598500Y-72906873D01*
X207598499Y-71111128D01*
X207592091Y-71051517D01*
X207588361Y-71041517D01*
X207541797Y-70916671D01*
X207541793Y-70916664D01*
X207455547Y-70801455D01*
X207455544Y-70801452D01*
X207340335Y-70715206D01*
X207340328Y-70715202D01*
X207205482Y-70664908D01*
X207205483Y-70664908D01*
X207145883Y-70658501D01*
X207145881Y-70658500D01*
X207145873Y-70658500D01*
X207145864Y-70658500D01*
X205350129Y-70658500D01*
X205350123Y-70658501D01*
X205290516Y-70664908D01*
X205155671Y-70715202D01*
X205155664Y-70715206D01*
X205040455Y-70801452D01*
X205040452Y-70801455D01*
X204954206Y-70916664D01*
X204954202Y-70916671D01*
X204903908Y-71051517D01*
X204898575Y-71101127D01*
X204897501Y-71111123D01*
X204897500Y-71111135D01*
X204897500Y-72906870D01*
X204897501Y-72906876D01*
X204903908Y-72966483D01*
X204954202Y-73101328D01*
X204954206Y-73101335D01*
X205040452Y-73216544D01*
X205040455Y-73216547D01*
X205155664Y-73302793D01*
X205155671Y-73302797D01*
X205287081Y-73351810D01*
X205343015Y-73393681D01*
X205367432Y-73459145D01*
X205352580Y-73527418D01*
X205331430Y-73555673D01*
X205209503Y-73677600D01*
X205073965Y-73871169D01*
X205073964Y-73871171D01*
X204974098Y-74085335D01*
X204974094Y-74085344D01*
X204912938Y-74313586D01*
X204912936Y-74313596D01*
X204892341Y-74548999D01*
X204892341Y-74549000D01*
X204912936Y-74784403D01*
X204912938Y-74784413D01*
X204974094Y-75012655D01*
X204974096Y-75012659D01*
X204974097Y-75012663D01*
X205047159Y-75169344D01*
X205073965Y-75226830D01*
X205073967Y-75226834D01*
X205209501Y-75420395D01*
X205209506Y-75420402D01*
X205376597Y-75587493D01*
X205376603Y-75587498D01*
X205562158Y-75717425D01*
X205605783Y-75772002D01*
X205612977Y-75841500D01*
X205581454Y-75903855D01*
X205562158Y-75920575D01*
X205376597Y-76050505D01*
X205209505Y-76217597D01*
X205073965Y-76411169D01*
X205073964Y-76411171D01*
X204974098Y-76625335D01*
X204974094Y-76625344D01*
X204912938Y-76853586D01*
X204912936Y-76853596D01*
X204892341Y-77088999D01*
X204892341Y-77089000D01*
X204912936Y-77324403D01*
X204912938Y-77324413D01*
X204974094Y-77552655D01*
X204974096Y-77552659D01*
X204974097Y-77552663D01*
X205022613Y-77656705D01*
X205073965Y-77766830D01*
X205073967Y-77766834D01*
X205209501Y-77960395D01*
X205209506Y-77960402D01*
X205376597Y-78127493D01*
X205376603Y-78127498D01*
X205562158Y-78257425D01*
X205605783Y-78312002D01*
X205612977Y-78381500D01*
X205581454Y-78443855D01*
X205562158Y-78460575D01*
X205376597Y-78590505D01*
X205209505Y-78757597D01*
X205073965Y-78951169D01*
X205073964Y-78951171D01*
X204974098Y-79165335D01*
X204974094Y-79165344D01*
X204912938Y-79393586D01*
X204912936Y-79393596D01*
X204892341Y-79628999D01*
X204892341Y-79629000D01*
X203798678Y-79629000D01*
X203880616Y-79547062D01*
X203976589Y-79394322D01*
X204036168Y-79224055D01*
X204041892Y-79173254D01*
X204056365Y-79044803D01*
X204056365Y-79044796D01*
X204036169Y-78865550D01*
X204036168Y-78865545D01*
X203994896Y-78747597D01*
X203976589Y-78695278D01*
X203880616Y-78542538D01*
X203753062Y-78414984D01*
X203699773Y-78381500D01*
X203600323Y-78319011D01*
X203430054Y-78259431D01*
X203430049Y-78259430D01*
X203250804Y-78239235D01*
X203250796Y-78239235D01*
X203071550Y-78259430D01*
X203071545Y-78259431D01*
X202901276Y-78319011D01*
X202748537Y-78414984D01*
X202620984Y-78542537D01*
X202525011Y-78695276D01*
X202465431Y-78865545D01*
X202465430Y-78865550D01*
X202445235Y-79044796D01*
X202445235Y-79044803D01*
X191706001Y-79044803D01*
X191688115Y-79016337D01*
X191560562Y-78888784D01*
X191407823Y-78792811D01*
X191237554Y-78733231D01*
X191237549Y-78733230D01*
X191058304Y-78713035D01*
X191058296Y-78713035D01*
X190879050Y-78733230D01*
X190879045Y-78733231D01*
X190708776Y-78792811D01*
X190556037Y-78888784D01*
X190428484Y-79016337D01*
X190332511Y-79169076D01*
X190272931Y-79339345D01*
X190272930Y-79339350D01*
X190252735Y-79518596D01*
X190252735Y-79518603D01*
X189137157Y-79518603D01*
X189144561Y-79501940D01*
X189144272Y-79501710D01*
X189145156Y-79500600D01*
X189145393Y-79500069D01*
X189146782Y-79498562D01*
X189148613Y-79496265D01*
X189148613Y-79496264D01*
X189148616Y-79496262D01*
X189244589Y-79343522D01*
X189304168Y-79173255D01*
X189304639Y-79169076D01*
X189324365Y-78994003D01*
X189324365Y-78993996D01*
X189304169Y-78814750D01*
X189304168Y-78814745D01*
X189284171Y-78757597D01*
X189244589Y-78644478D01*
X189210675Y-78590505D01*
X189148615Y-78491737D01*
X189021062Y-78364184D01*
X188868323Y-78268211D01*
X188698054Y-78208631D01*
X188698049Y-78208630D01*
X188518804Y-78188435D01*
X188518796Y-78188435D01*
X188339550Y-78208630D01*
X188339545Y-78208631D01*
X188169276Y-78268211D01*
X188016537Y-78364184D01*
X187888984Y-78491737D01*
X187793011Y-78644476D01*
X187733431Y-78814745D01*
X187733430Y-78814750D01*
X187713235Y-78993996D01*
X187713235Y-78994003D01*
X187126671Y-78994003D01*
X187102035Y-78941171D01*
X187065354Y-78888784D01*
X186966494Y-78747597D01*
X186799402Y-78580506D01*
X186799396Y-78580501D01*
X186613842Y-78450575D01*
X186570217Y-78395998D01*
X186563023Y-78326500D01*
X186594546Y-78264145D01*
X186613842Y-78247425D01*
X186670069Y-78208054D01*
X186799401Y-78117495D01*
X186966495Y-77950401D01*
X187102035Y-77756830D01*
X187201903Y-77542663D01*
X187263063Y-77314408D01*
X187283659Y-77079000D01*
X187276297Y-76994853D01*
X190541367Y-76994853D01*
X190561562Y-77174099D01*
X190561563Y-77174104D01*
X190621143Y-77344373D01*
X190706673Y-77480492D01*
X190717116Y-77497112D01*
X190844670Y-77624666D01*
X190997410Y-77720639D01*
X191129416Y-77766830D01*
X191167677Y-77780218D01*
X191167682Y-77780219D01*
X191346928Y-77800415D01*
X191346932Y-77800415D01*
X191346936Y-77800415D01*
X191526181Y-77780219D01*
X191526184Y-77780218D01*
X191526187Y-77780218D01*
X191696454Y-77720639D01*
X191849194Y-77624666D01*
X191976748Y-77497112D01*
X191976748Y-77497111D01*
X191977060Y-77496800D01*
X192038383Y-77463315D01*
X192108075Y-77468299D01*
X192152422Y-77496800D01*
X192158678Y-77503056D01*
X192192163Y-77564379D01*
X192187179Y-77634071D01*
X192175993Y-77656705D01*
X192161810Y-77679278D01*
X192102233Y-77849537D01*
X192102230Y-77849550D01*
X192082035Y-78028796D01*
X192082035Y-78028803D01*
X192102230Y-78208049D01*
X192102231Y-78208054D01*
X192161811Y-78378323D01*
X192209969Y-78454965D01*
X192257784Y-78531062D01*
X192385338Y-78658616D01*
X192443682Y-78695276D01*
X192504088Y-78733232D01*
X192538078Y-78754589D01*
X192708345Y-78814168D01*
X192708350Y-78814169D01*
X192887596Y-78834365D01*
X192887600Y-78834365D01*
X192887604Y-78834365D01*
X193066849Y-78814169D01*
X193066852Y-78814168D01*
X193066855Y-78814168D01*
X193237122Y-78754589D01*
X193389862Y-78658616D01*
X193517416Y-78531062D01*
X193613389Y-78378322D01*
X193672968Y-78208055D01*
X193682045Y-78127493D01*
X193693165Y-78028803D01*
X193693165Y-78028796D01*
X193672969Y-77849550D01*
X193672968Y-77849545D01*
X193640527Y-77756834D01*
X193613389Y-77679278D01*
X193599205Y-77656705D01*
X193533826Y-77552655D01*
X193517416Y-77526538D01*
X193471369Y-77480491D01*
X193437885Y-77419169D01*
X193442869Y-77349477D01*
X193454054Y-77326846D01*
X193468239Y-77304272D01*
X193527818Y-77134005D01*
X193530027Y-77114403D01*
X196501635Y-77114403D01*
X196521830Y-77293649D01*
X196521831Y-77293654D01*
X196581411Y-77463923D01*
X196637171Y-77552664D01*
X196677384Y-77616662D01*
X196804938Y-77744216D01*
X196957678Y-77840189D01*
X197127944Y-77899768D01*
X197127945Y-77899768D01*
X197127950Y-77899769D01*
X197307196Y-77919965D01*
X197307200Y-77919965D01*
X197307204Y-77919965D01*
X197486449Y-77899769D01*
X197486452Y-77899768D01*
X197486455Y-77899768D01*
X197656722Y-77840189D01*
X197809462Y-77744216D01*
X197937016Y-77616662D01*
X198032989Y-77463922D01*
X198092568Y-77293655D01*
X198106039Y-77174099D01*
X198112765Y-77114403D01*
X198112765Y-77114396D01*
X198092569Y-76935150D01*
X198092568Y-76935145D01*
X198064029Y-76853586D01*
X198032989Y-76764878D01*
X197937016Y-76612138D01*
X197809462Y-76484584D01*
X197758380Y-76452487D01*
X197656723Y-76388611D01*
X197486454Y-76329031D01*
X197486449Y-76329030D01*
X197307204Y-76308835D01*
X197307196Y-76308835D01*
X197127950Y-76329030D01*
X197127945Y-76329031D01*
X196957676Y-76388611D01*
X196804937Y-76484584D01*
X196677384Y-76612137D01*
X196581411Y-76764876D01*
X196521831Y-76935145D01*
X196521830Y-76935150D01*
X196501635Y-77114396D01*
X196501635Y-77114403D01*
X193530027Y-77114403D01*
X193530027Y-77114400D01*
X193548015Y-76954753D01*
X193548015Y-76954746D01*
X193527819Y-76775500D01*
X193527818Y-76775495D01*
X193524102Y-76764876D01*
X193468239Y-76605228D01*
X193372266Y-76452488D01*
X193244712Y-76324934D01*
X193155791Y-76269061D01*
X193091973Y-76228961D01*
X192921704Y-76169381D01*
X192921699Y-76169380D01*
X192742454Y-76149185D01*
X192742446Y-76149185D01*
X192563200Y-76169380D01*
X192563195Y-76169381D01*
X192392926Y-76228961D01*
X192240187Y-76324934D01*
X192112322Y-76452800D01*
X192050999Y-76486285D01*
X191981307Y-76481301D01*
X191936960Y-76452800D01*
X191849194Y-76365034D01*
X191696455Y-76269061D01*
X191526186Y-76209481D01*
X191526181Y-76209480D01*
X191346936Y-76189285D01*
X191346928Y-76189285D01*
X191167682Y-76209480D01*
X191167677Y-76209481D01*
X190997408Y-76269061D01*
X190844669Y-76365034D01*
X190717116Y-76492587D01*
X190621143Y-76645326D01*
X190561563Y-76815595D01*
X190561562Y-76815600D01*
X190541367Y-76994846D01*
X190541367Y-76994853D01*
X187276297Y-76994853D01*
X187263063Y-76843592D01*
X187204584Y-76625344D01*
X187201905Y-76615344D01*
X187201904Y-76615343D01*
X187201903Y-76615337D01*
X187102035Y-76401171D01*
X187093241Y-76388611D01*
X186966494Y-76207597D01*
X186799402Y-76040506D01*
X186799396Y-76040501D01*
X186613842Y-75910575D01*
X186570217Y-75855998D01*
X186563023Y-75786500D01*
X186594546Y-75724145D01*
X186613842Y-75707425D01*
X186785115Y-75587498D01*
X186799401Y-75577495D01*
X186966495Y-75410401D01*
X187102035Y-75216830D01*
X187201903Y-75002663D01*
X187263063Y-74774408D01*
X187283659Y-74539000D01*
X187263063Y-74303592D01*
X187216626Y-74130285D01*
X187201905Y-74075344D01*
X187201904Y-74075343D01*
X187201903Y-74075337D01*
X187102035Y-73861171D01*
X187087093Y-73839832D01*
X186966496Y-73667600D01*
X186938680Y-73639784D01*
X186844567Y-73545671D01*
X186811084Y-73484351D01*
X186816068Y-73414659D01*
X186857939Y-73358725D01*
X186888915Y-73341810D01*
X186989210Y-73304403D01*
X187713235Y-73304403D01*
X187733430Y-73483649D01*
X187733431Y-73483654D01*
X187793011Y-73653923D01*
X187864274Y-73767337D01*
X187888984Y-73806662D01*
X188016538Y-73934216D01*
X188169278Y-74030189D01*
X188298298Y-74075335D01*
X188339545Y-74089768D01*
X188339549Y-74089769D01*
X188437183Y-74100769D01*
X188518800Y-74109965D01*
X188518802Y-74109964D01*
X188520810Y-74110191D01*
X188585224Y-74137257D01*
X188624779Y-74194852D01*
X188630148Y-74247291D01*
X188627635Y-74269600D01*
X188627635Y-74269603D01*
X188647830Y-74448849D01*
X188647831Y-74448854D01*
X188707411Y-74619123D01*
X188770032Y-74718783D01*
X188803384Y-74771862D01*
X188930938Y-74899416D01*
X189020660Y-74955792D01*
X189050786Y-74974722D01*
X189083678Y-74995389D01*
X189244791Y-75051765D01*
X189253945Y-75054968D01*
X189253950Y-75054969D01*
X189433196Y-75075165D01*
X189433200Y-75075165D01*
X189433204Y-75075165D01*
X189612449Y-75054969D01*
X189612452Y-75054968D01*
X189612455Y-75054968D01*
X189782722Y-74995389D01*
X189935462Y-74899416D01*
X190063016Y-74771862D01*
X190155168Y-74625203D01*
X190913635Y-74625203D01*
X190933830Y-74804449D01*
X190933831Y-74804454D01*
X190993411Y-74974723D01*
X191079257Y-75111345D01*
X191089384Y-75127462D01*
X191216938Y-75255016D01*
X191369678Y-75350989D01*
X191539451Y-75410395D01*
X191539945Y-75410568D01*
X191539950Y-75410569D01*
X191719196Y-75430765D01*
X191719200Y-75430765D01*
X191719204Y-75430765D01*
X191898449Y-75410569D01*
X191898452Y-75410568D01*
X191898455Y-75410568D01*
X192068722Y-75350989D01*
X192072521Y-75348602D01*
X198292348Y-75348602D01*
X198312543Y-75527848D01*
X198312544Y-75527853D01*
X198372124Y-75698122D01*
X198441794Y-75809000D01*
X198468097Y-75850861D01*
X198595651Y-75978415D01*
X198748391Y-76074388D01*
X198918657Y-76133966D01*
X198918658Y-76133967D01*
X198918663Y-76133968D01*
X199097909Y-76154164D01*
X199097913Y-76154164D01*
X199097917Y-76154164D01*
X199277162Y-76133968D01*
X199277165Y-76133967D01*
X199277168Y-76133967D01*
X199447435Y-76074388D01*
X199600175Y-75978415D01*
X199727729Y-75850861D01*
X199823702Y-75698121D01*
X199883281Y-75527854D01*
X199883282Y-75527848D01*
X199903478Y-75348602D01*
X199903478Y-75348595D01*
X199883282Y-75169349D01*
X199883281Y-75169344D01*
X199823702Y-74999077D01*
X199808399Y-74974723D01*
X199727728Y-74846336D01*
X199600175Y-74718783D01*
X199447436Y-74622810D01*
X199277167Y-74563230D01*
X199277162Y-74563229D01*
X199097917Y-74543034D01*
X199097909Y-74543034D01*
X198918663Y-74563229D01*
X198918658Y-74563230D01*
X198748389Y-74622810D01*
X198595650Y-74718783D01*
X198468097Y-74846336D01*
X198372124Y-74999075D01*
X198312544Y-75169344D01*
X198312543Y-75169349D01*
X198292348Y-75348595D01*
X198292348Y-75348602D01*
X192072521Y-75348602D01*
X192221462Y-75255016D01*
X192349016Y-75127462D01*
X192444989Y-74974722D01*
X192504568Y-74804455D01*
X192506827Y-74784408D01*
X192524765Y-74625203D01*
X192524765Y-74625196D01*
X192504569Y-74445950D01*
X192504568Y-74445945D01*
X192462590Y-74325980D01*
X195902135Y-74325980D01*
X195922330Y-74505226D01*
X195922331Y-74505231D01*
X195981911Y-74675500D01*
X196077884Y-74828238D01*
X196077884Y-74828239D01*
X196205438Y-74955793D01*
X196358178Y-75051766D01*
X196367332Y-75054969D01*
X196528445Y-75111345D01*
X196528450Y-75111346D01*
X196707696Y-75131542D01*
X196707700Y-75131542D01*
X196707704Y-75131542D01*
X196886949Y-75111346D01*
X196886952Y-75111345D01*
X196886955Y-75111345D01*
X197057222Y-75051766D01*
X197209962Y-74955793D01*
X197337516Y-74828239D01*
X197433489Y-74675499D01*
X197493068Y-74505232D01*
X197499420Y-74448855D01*
X197513265Y-74325980D01*
X197513265Y-74325973D01*
X197493069Y-74146727D01*
X197493068Y-74146722D01*
X197475142Y-74095492D01*
X197433489Y-73976455D01*
X197406948Y-73934216D01*
X197385079Y-73899411D01*
X197337516Y-73823715D01*
X197209962Y-73696161D01*
X197209962Y-73696160D01*
X197057223Y-73600188D01*
X196886954Y-73540608D01*
X196886949Y-73540607D01*
X196707704Y-73520412D01*
X196707696Y-73520412D01*
X196528450Y-73540607D01*
X196528445Y-73540608D01*
X196358176Y-73600188D01*
X196205437Y-73696161D01*
X196077884Y-73823714D01*
X195981911Y-73976453D01*
X195922331Y-74146722D01*
X195922330Y-74146727D01*
X195902135Y-74325973D01*
X195902135Y-74325980D01*
X192462590Y-74325980D01*
X192458257Y-74313596D01*
X192444989Y-74275678D01*
X192441167Y-74269596D01*
X192394203Y-74194852D01*
X192349016Y-74122938D01*
X192221462Y-73995384D01*
X192124114Y-73934216D01*
X192068723Y-73899411D01*
X191898454Y-73839831D01*
X191898449Y-73839830D01*
X191719204Y-73819635D01*
X191719196Y-73819635D01*
X191539950Y-73839830D01*
X191539945Y-73839831D01*
X191369676Y-73899411D01*
X191216937Y-73995384D01*
X191089384Y-74122937D01*
X190993411Y-74275676D01*
X190933831Y-74445945D01*
X190933830Y-74445950D01*
X190913635Y-74625196D01*
X190913635Y-74625203D01*
X190155168Y-74625203D01*
X190158989Y-74619122D01*
X190218568Y-74448855D01*
X190218569Y-74448849D01*
X190238765Y-74269603D01*
X190238765Y-74269596D01*
X190218569Y-74090350D01*
X190218568Y-74090345D01*
X190213316Y-74075335D01*
X190158989Y-73920078D01*
X190063016Y-73767338D01*
X189935462Y-73639784D01*
X189935462Y-73639783D01*
X189782723Y-73543811D01*
X189612454Y-73484231D01*
X189612450Y-73484230D01*
X189431188Y-73463807D01*
X189366774Y-73436740D01*
X189327219Y-73379145D01*
X189321852Y-73326702D01*
X189324365Y-73304400D01*
X189324365Y-73304397D01*
X189304169Y-73125150D01*
X189304168Y-73125145D01*
X189304167Y-73125144D01*
X189244589Y-72954878D01*
X189148616Y-72802138D01*
X189021062Y-72674584D01*
X188868323Y-72578611D01*
X188698054Y-72519031D01*
X188698049Y-72519030D01*
X188518804Y-72498835D01*
X188518796Y-72498835D01*
X188339550Y-72519030D01*
X188339545Y-72519031D01*
X188169276Y-72578611D01*
X188016537Y-72674584D01*
X187888984Y-72802137D01*
X187793011Y-72954876D01*
X187733431Y-73125145D01*
X187733430Y-73125150D01*
X187713235Y-73304396D01*
X187713235Y-73304403D01*
X186989210Y-73304403D01*
X187020331Y-73292796D01*
X187135546Y-73206546D01*
X187221796Y-73091331D01*
X187272091Y-72956483D01*
X187278500Y-72896873D01*
X187278499Y-71748976D01*
X190425446Y-71748976D01*
X190445641Y-71928222D01*
X190445642Y-71928227D01*
X190505222Y-72098496D01*
X190601194Y-72251235D01*
X190601195Y-72251235D01*
X190728749Y-72378789D01*
X190881489Y-72474762D01*
X191051756Y-72534340D01*
X191051756Y-72534341D01*
X191051761Y-72534342D01*
X191231007Y-72554538D01*
X191231011Y-72554538D01*
X191231015Y-72554538D01*
X191410260Y-72534342D01*
X191410263Y-72534341D01*
X191410266Y-72534341D01*
X191580533Y-72474762D01*
X191733273Y-72378789D01*
X191860827Y-72251235D01*
X191956800Y-72098495D01*
X192016379Y-71928228D01*
X192036576Y-71748973D01*
X192016379Y-71569718D01*
X191956800Y-71399451D01*
X191860827Y-71246711D01*
X191733273Y-71119157D01*
X191704580Y-71101128D01*
X191580534Y-71023184D01*
X191410265Y-70963604D01*
X191410260Y-70963603D01*
X191231015Y-70943408D01*
X191231007Y-70943408D01*
X191051761Y-70963603D01*
X191051756Y-70963604D01*
X190881487Y-71023184D01*
X190728748Y-71119157D01*
X190601195Y-71246710D01*
X190505222Y-71399449D01*
X190445642Y-71569718D01*
X190445641Y-71569723D01*
X190425446Y-71748969D01*
X190425446Y-71748976D01*
X187278499Y-71748976D01*
X187278499Y-71101128D01*
X187272091Y-71041517D01*
X187268910Y-71032989D01*
X187238262Y-70950817D01*
X187233278Y-70881126D01*
X187266763Y-70819803D01*
X187328086Y-70786318D01*
X187397778Y-70791302D01*
X187442125Y-70819803D01*
X187559338Y-70937016D01*
X187712078Y-71032989D01*
X187882344Y-71092568D01*
X187882345Y-71092568D01*
X187882350Y-71092569D01*
X188061596Y-71112765D01*
X188061600Y-71112765D01*
X188061604Y-71112765D01*
X188240849Y-71092569D01*
X188240852Y-71092568D01*
X188240855Y-71092568D01*
X188411122Y-71032989D01*
X188563862Y-70937016D01*
X188691416Y-70809462D01*
X188787389Y-70656722D01*
X188846968Y-70486455D01*
X188846969Y-70486449D01*
X188867165Y-70307203D01*
X188867165Y-70307196D01*
X188846969Y-70127950D01*
X188846968Y-70127945D01*
X188820815Y-70053203D01*
X188787389Y-69957678D01*
X188783567Y-69951596D01*
X188734776Y-69873945D01*
X188691416Y-69804938D01*
X188664638Y-69778161D01*
X188631154Y-69716838D01*
X188636138Y-69647146D01*
X188677276Y-69591767D01*
X188739837Y-69544211D01*
X188899676Y-69392803D01*
X191399435Y-69392803D01*
X191419630Y-69572049D01*
X191419631Y-69572054D01*
X191479211Y-69742323D01*
X191518769Y-69805278D01*
X191575184Y-69895062D01*
X191702738Y-70022616D01*
X191855478Y-70118589D01*
X191958952Y-70154796D01*
X192025745Y-70178168D01*
X192025750Y-70178169D01*
X192204996Y-70198365D01*
X192205000Y-70198365D01*
X192205004Y-70198365D01*
X192384249Y-70178169D01*
X192384252Y-70178168D01*
X192384255Y-70178168D01*
X192554522Y-70118589D01*
X192707262Y-70022616D01*
X192778275Y-69951603D01*
X193910835Y-69951603D01*
X193931030Y-70130849D01*
X193931031Y-70130854D01*
X193990611Y-70301123D01*
X194054451Y-70402723D01*
X194086584Y-70453862D01*
X194214138Y-70581416D01*
X194304480Y-70638181D01*
X194347014Y-70664908D01*
X194366878Y-70677389D01*
X194474947Y-70715204D01*
X194537145Y-70736968D01*
X194537150Y-70736969D01*
X194716396Y-70757165D01*
X194716400Y-70757165D01*
X194716404Y-70757165D01*
X194895649Y-70736969D01*
X194895652Y-70736968D01*
X194895655Y-70736968D01*
X195065922Y-70677389D01*
X195218662Y-70581416D01*
X195346216Y-70453862D01*
X195442189Y-70301122D01*
X195493388Y-70154803D01*
X198555235Y-70154803D01*
X198575430Y-70334049D01*
X198575431Y-70334054D01*
X198635011Y-70504323D01*
X198683452Y-70581416D01*
X198730984Y-70657062D01*
X198858538Y-70784616D01*
X199011278Y-70880589D01*
X199172534Y-70937015D01*
X199181545Y-70940168D01*
X199181550Y-70940169D01*
X199360796Y-70960365D01*
X199360800Y-70960365D01*
X199360804Y-70960365D01*
X199540049Y-70940169D01*
X199540052Y-70940168D01*
X199540055Y-70940168D01*
X199710322Y-70880589D01*
X199863062Y-70784616D01*
X199990616Y-70657062D01*
X200086589Y-70504322D01*
X200146168Y-70334055D01*
X200147132Y-70325499D01*
X200166365Y-70154803D01*
X200166365Y-70154796D01*
X200154918Y-70053203D01*
X201530835Y-70053203D01*
X201551030Y-70232449D01*
X201551031Y-70232454D01*
X201610611Y-70402723D01*
X201674451Y-70504323D01*
X201706584Y-70555462D01*
X201834138Y-70683016D01*
X201986878Y-70778989D01*
X202073965Y-70809462D01*
X202157145Y-70838568D01*
X202157150Y-70838569D01*
X202336396Y-70858765D01*
X202336400Y-70858765D01*
X202336404Y-70858765D01*
X202515649Y-70838569D01*
X202515652Y-70838568D01*
X202515655Y-70838568D01*
X202685922Y-70778989D01*
X202838662Y-70683016D01*
X202966216Y-70555462D01*
X203062189Y-70402722D01*
X203121768Y-70232455D01*
X203127885Y-70178168D01*
X203141965Y-70053203D01*
X203141965Y-70053196D01*
X203121769Y-69873950D01*
X203121768Y-69873945D01*
X203086218Y-69772350D01*
X203062189Y-69703678D01*
X202966216Y-69550938D01*
X202838662Y-69423384D01*
X202789982Y-69392796D01*
X202685923Y-69327411D01*
X202515654Y-69267831D01*
X202515649Y-69267830D01*
X202336404Y-69247635D01*
X202336396Y-69247635D01*
X202157150Y-69267830D01*
X202157145Y-69267831D01*
X201986876Y-69327411D01*
X201834137Y-69423384D01*
X201706584Y-69550937D01*
X201610611Y-69703676D01*
X201551031Y-69873945D01*
X201551030Y-69873950D01*
X201530835Y-70053196D01*
X201530835Y-70053203D01*
X200154918Y-70053203D01*
X200146169Y-69975550D01*
X200146168Y-69975545D01*
X200110618Y-69873950D01*
X200086589Y-69805278D01*
X200086375Y-69804938D01*
X199990615Y-69652537D01*
X199863062Y-69524984D01*
X199710323Y-69429011D01*
X199540054Y-69369431D01*
X199540049Y-69369430D01*
X199360804Y-69349235D01*
X199360796Y-69349235D01*
X199181550Y-69369430D01*
X199181545Y-69369431D01*
X199011276Y-69429011D01*
X198858537Y-69524984D01*
X198730984Y-69652537D01*
X198635011Y-69805276D01*
X198575431Y-69975545D01*
X198575430Y-69975550D01*
X198555235Y-70154796D01*
X198555235Y-70154803D01*
X195493388Y-70154803D01*
X195501768Y-70130855D01*
X195501769Y-70130849D01*
X195521965Y-69951603D01*
X195521965Y-69951596D01*
X195501769Y-69772350D01*
X195501768Y-69772345D01*
X195442188Y-69602076D01*
X195346215Y-69449337D01*
X195218662Y-69321784D01*
X195065923Y-69225811D01*
X194895654Y-69166231D01*
X194895649Y-69166230D01*
X194716404Y-69146035D01*
X194716396Y-69146035D01*
X194537150Y-69166230D01*
X194537145Y-69166231D01*
X194366876Y-69225811D01*
X194214137Y-69321784D01*
X194086584Y-69449337D01*
X193990611Y-69602076D01*
X193931031Y-69772345D01*
X193931030Y-69772350D01*
X193910835Y-69951596D01*
X193910835Y-69951603D01*
X192778275Y-69951603D01*
X192834816Y-69895062D01*
X192930789Y-69742322D01*
X192990368Y-69572055D01*
X192990369Y-69572049D01*
X193010565Y-69392803D01*
X193010565Y-69392796D01*
X192990369Y-69213550D01*
X192990368Y-69213545D01*
X192930788Y-69043276D01*
X192834815Y-68890537D01*
X192707262Y-68762984D01*
X192554523Y-68667011D01*
X192384254Y-68607431D01*
X192384249Y-68607430D01*
X192205004Y-68587235D01*
X192204996Y-68587235D01*
X192025750Y-68607430D01*
X192025745Y-68607431D01*
X191855476Y-68667011D01*
X191702737Y-68762984D01*
X191575184Y-68890537D01*
X191479211Y-69043276D01*
X191419631Y-69213545D01*
X191419630Y-69213550D01*
X191399435Y-69392796D01*
X191399435Y-69392803D01*
X188899676Y-69392803D01*
X188999668Y-69298086D01*
X189231365Y-69025311D01*
X189432211Y-68729085D01*
X189599853Y-68412880D01*
X189732324Y-68080403D01*
X189828071Y-67735552D01*
X189885972Y-67382371D01*
X189898095Y-67158757D01*
X189921380Y-67092884D01*
X189976583Y-67050054D01*
X190035796Y-67042252D01*
X190064779Y-67045517D01*
X190093598Y-67048765D01*
X190093600Y-67048765D01*
X190093604Y-67048765D01*
X190272849Y-67028569D01*
X190272852Y-67028568D01*
X190272855Y-67028568D01*
X190443122Y-66968989D01*
X190457740Y-66959804D01*
X199956035Y-66959804D01*
X199976230Y-67139050D01*
X199976231Y-67139055D01*
X200035811Y-67309324D01*
X200081708Y-67382368D01*
X200131784Y-67462063D01*
X200259338Y-67589617D01*
X200412078Y-67685590D01*
X200554824Y-67735539D01*
X200582345Y-67745169D01*
X200582350Y-67745170D01*
X200761596Y-67765366D01*
X200761600Y-67765366D01*
X200761604Y-67765366D01*
X200940849Y-67745170D01*
X200940852Y-67745169D01*
X200940855Y-67745169D01*
X201111122Y-67685590D01*
X201263862Y-67589617D01*
X201391416Y-67462063D01*
X201487389Y-67309323D01*
X201546968Y-67139056D01*
X201546969Y-67139050D01*
X201567165Y-66959804D01*
X201567165Y-66959797D01*
X201546969Y-66780551D01*
X201546968Y-66780546D01*
X201507457Y-66667631D01*
X201487389Y-66610279D01*
X201391416Y-66457539D01*
X201263862Y-66329985D01*
X201239113Y-66314434D01*
X201111123Y-66234012D01*
X200940854Y-66174432D01*
X200940849Y-66174431D01*
X200761604Y-66154236D01*
X200761596Y-66154236D01*
X200582350Y-66174431D01*
X200582345Y-66174432D01*
X200412076Y-66234012D01*
X200259337Y-66329985D01*
X200131784Y-66457538D01*
X200035811Y-66610277D01*
X199976231Y-66780546D01*
X199976230Y-66780551D01*
X199956035Y-66959797D01*
X199956035Y-66959804D01*
X190457740Y-66959804D01*
X190595862Y-66873016D01*
X190723416Y-66745462D01*
X190819389Y-66592722D01*
X190878968Y-66422455D01*
X190891136Y-66314460D01*
X190899165Y-66243203D01*
X190899165Y-66243196D01*
X190878969Y-66063950D01*
X190878968Y-66063945D01*
X190819388Y-65893676D01*
X190723415Y-65740937D01*
X190595862Y-65613384D01*
X190443123Y-65517411D01*
X190272854Y-65457831D01*
X190272849Y-65457830D01*
X190093604Y-65437635D01*
X190093596Y-65437635D01*
X189914350Y-65457830D01*
X189914345Y-65457831D01*
X189744076Y-65517411D01*
X189701295Y-65544293D01*
X189634058Y-65563293D01*
X189567223Y-65542925D01*
X189525768Y-65497382D01*
X189494092Y-65437635D01*
X189463325Y-65379603D01*
X191675635Y-65379603D01*
X191695830Y-65558849D01*
X191695831Y-65558854D01*
X191755411Y-65729123D01*
X191851383Y-65881861D01*
X191851384Y-65881862D01*
X191978938Y-66009416D01*
X192131678Y-66105389D01*
X192271275Y-66154236D01*
X192301945Y-66164968D01*
X192301950Y-66164969D01*
X192481196Y-66185165D01*
X192481200Y-66185165D01*
X192481204Y-66185165D01*
X192660449Y-66164969D01*
X192660452Y-66164968D01*
X192660455Y-66164968D01*
X192830722Y-66105389D01*
X192983462Y-66009416D01*
X193111016Y-65881862D01*
X193206989Y-65729122D01*
X193266568Y-65558855D01*
X193271238Y-65517411D01*
X193283903Y-65405003D01*
X195536435Y-65405003D01*
X195556630Y-65584249D01*
X195556631Y-65584254D01*
X195616211Y-65754523D01*
X195696224Y-65881862D01*
X195712184Y-65907262D01*
X195839738Y-66034816D01*
X195930080Y-66091582D01*
X195952052Y-66105388D01*
X195992478Y-66130789D01*
X196147876Y-66185165D01*
X196162745Y-66190368D01*
X196162750Y-66190369D01*
X196341996Y-66210565D01*
X196342000Y-66210565D01*
X196342004Y-66210565D01*
X196521249Y-66190369D01*
X196521252Y-66190368D01*
X196521255Y-66190368D01*
X196691522Y-66130789D01*
X196844262Y-66034816D01*
X196971816Y-65907262D01*
X197067789Y-65754522D01*
X197127368Y-65584255D01*
X197132025Y-65542925D01*
X197147565Y-65405003D01*
X197147565Y-65404996D01*
X197127369Y-65225750D01*
X197127368Y-65225745D01*
X197067788Y-65055476D01*
X196971815Y-64902737D01*
X196844262Y-64775184D01*
X196691523Y-64679211D01*
X196521254Y-64619631D01*
X196521249Y-64619630D01*
X196342004Y-64599435D01*
X196341996Y-64599435D01*
X196162750Y-64619630D01*
X196162745Y-64619631D01*
X195992476Y-64679211D01*
X195839737Y-64775184D01*
X195712184Y-64902737D01*
X195616211Y-65055476D01*
X195556631Y-65225745D01*
X195556630Y-65225750D01*
X195536435Y-65404996D01*
X195536435Y-65405003D01*
X193283903Y-65405003D01*
X193286765Y-65379603D01*
X193286765Y-65379596D01*
X193266569Y-65200350D01*
X193266568Y-65200345D01*
X193206988Y-65030076D01*
X193111015Y-64877337D01*
X192983462Y-64749784D01*
X192830723Y-64653811D01*
X192660454Y-64594231D01*
X192660449Y-64594230D01*
X192481204Y-64574035D01*
X192481196Y-64574035D01*
X192301950Y-64594230D01*
X192301945Y-64594231D01*
X192131676Y-64653811D01*
X191978937Y-64749784D01*
X191851384Y-64877337D01*
X191755411Y-65030076D01*
X191695831Y-65200345D01*
X191695830Y-65200350D01*
X191675635Y-65379596D01*
X191675635Y-65379603D01*
X189463325Y-65379603D01*
X189432211Y-65320915D01*
X189432207Y-65320909D01*
X189432206Y-65320906D01*
X189231366Y-65024690D01*
X189231358Y-65024680D01*
X188999668Y-64751914D01*
X188896102Y-64653811D01*
X188739837Y-64505789D01*
X188739830Y-64505783D01*
X188739827Y-64505781D01*
X188672245Y-64454407D01*
X188454919Y-64289200D01*
X188399323Y-64255749D01*
X188352030Y-64204321D01*
X188340047Y-64135486D01*
X188367182Y-64071101D01*
X188424819Y-64031607D01*
X188463253Y-64025500D01*
X203736747Y-64025500D01*
X203803786Y-64045185D01*
G37*
%TD.AperFunction*%
%TD*%
M02*
