%TF.GenerationSoftware,KiCad,Pcbnew,7.0.5*%
%TF.CreationDate,2023-12-16T01:16:07-08:00*%
%TF.ProjectId,Lyrav3,4c797261-7633-42e6-9b69-6361645f7063,rev?*%
%TF.SameCoordinates,Original*%
%TF.FileFunction,Legend,Bot*%
%TF.FilePolarity,Positive*%
%FSLAX46Y46*%
G04 Gerber Fmt 4.6, Leading zero omitted, Abs format (unit mm)*
G04 Created by KiCad (PCBNEW 7.0.5) date 2023-12-16 01:16:07*
%MOMM*%
%LPD*%
G01*
G04 APERTURE LIST*
%ADD10C,0.250000*%
%ADD11C,0.125000*%
%ADD12C,0.120000*%
%ADD13C,0.200000*%
%ADD14C,0.300000*%
%ADD15C,0.150000*%
%ADD16C,0.100000*%
G04 APERTURE END LIST*
D10*
X207764380Y-100383282D02*
X207050095Y-100383282D01*
X207050095Y-100383282D02*
X206907238Y-100335663D01*
X206907238Y-100335663D02*
X206812000Y-100240425D01*
X206812000Y-100240425D02*
X206764380Y-100097568D01*
X206764380Y-100097568D02*
X206764380Y-100002330D01*
X206764380Y-101335663D02*
X206764380Y-100859473D01*
X206764380Y-100859473D02*
X207764380Y-100859473D01*
X206859619Y-102240425D02*
X206812000Y-102192806D01*
X206812000Y-102192806D02*
X206764380Y-102049949D01*
X206764380Y-102049949D02*
X206764380Y-101954711D01*
X206764380Y-101954711D02*
X206812000Y-101811854D01*
X206812000Y-101811854D02*
X206907238Y-101716616D01*
X206907238Y-101716616D02*
X207002476Y-101668997D01*
X207002476Y-101668997D02*
X207192952Y-101621378D01*
X207192952Y-101621378D02*
X207335809Y-101621378D01*
X207335809Y-101621378D02*
X207526285Y-101668997D01*
X207526285Y-101668997D02*
X207621523Y-101716616D01*
X207621523Y-101716616D02*
X207716761Y-101811854D01*
X207716761Y-101811854D02*
X207764380Y-101954711D01*
X207764380Y-101954711D02*
X207764380Y-102049949D01*
X207764380Y-102049949D02*
X207716761Y-102192806D01*
X207716761Y-102192806D02*
X207669142Y-102240425D01*
X207764380Y-102954711D02*
X207050095Y-102954711D01*
X207050095Y-102954711D02*
X206907238Y-102907092D01*
X206907238Y-102907092D02*
X206812000Y-102811854D01*
X206812000Y-102811854D02*
X206764380Y-102668997D01*
X206764380Y-102668997D02*
X206764380Y-102573759D01*
X206764380Y-103907092D02*
X206764380Y-103430902D01*
X206764380Y-103430902D02*
X207764380Y-103430902D01*
X206859619Y-104811854D02*
X206812000Y-104764235D01*
X206812000Y-104764235D02*
X206764380Y-104621378D01*
X206764380Y-104621378D02*
X206764380Y-104526140D01*
X206764380Y-104526140D02*
X206812000Y-104383283D01*
X206812000Y-104383283D02*
X206907238Y-104288045D01*
X206907238Y-104288045D02*
X207002476Y-104240426D01*
X207002476Y-104240426D02*
X207192952Y-104192807D01*
X207192952Y-104192807D02*
X207335809Y-104192807D01*
X207335809Y-104192807D02*
X207526285Y-104240426D01*
X207526285Y-104240426D02*
X207621523Y-104288045D01*
X207621523Y-104288045D02*
X207716761Y-104383283D01*
X207716761Y-104383283D02*
X207764380Y-104526140D01*
X207764380Y-104526140D02*
X207764380Y-104621378D01*
X207764380Y-104621378D02*
X207716761Y-104764235D01*
X207716761Y-104764235D02*
X207669142Y-104811854D01*
X207764380Y-105526140D02*
X207050095Y-105526140D01*
X207050095Y-105526140D02*
X206907238Y-105478521D01*
X206907238Y-105478521D02*
X206812000Y-105383283D01*
X206812000Y-105383283D02*
X206764380Y-105240426D01*
X206764380Y-105240426D02*
X206764380Y-105145188D01*
X206764380Y-106478521D02*
X206764380Y-106002331D01*
X206764380Y-106002331D02*
X207764380Y-106002331D01*
X206859619Y-107383283D02*
X206812000Y-107335664D01*
X206812000Y-107335664D02*
X206764380Y-107192807D01*
X206764380Y-107192807D02*
X206764380Y-107097569D01*
X206764380Y-107097569D02*
X206812000Y-106954712D01*
X206812000Y-106954712D02*
X206907238Y-106859474D01*
X206907238Y-106859474D02*
X207002476Y-106811855D01*
X207002476Y-106811855D02*
X207192952Y-106764236D01*
X207192952Y-106764236D02*
X207335809Y-106764236D01*
X207335809Y-106764236D02*
X207526285Y-106811855D01*
X207526285Y-106811855D02*
X207621523Y-106859474D01*
X207621523Y-106859474D02*
X207716761Y-106954712D01*
X207716761Y-106954712D02*
X207764380Y-107097569D01*
X207764380Y-107097569D02*
X207764380Y-107192807D01*
X207764380Y-107192807D02*
X207716761Y-107335664D01*
X207716761Y-107335664D02*
X207669142Y-107383283D01*
X207764380Y-108097569D02*
X207050095Y-108097569D01*
X207050095Y-108097569D02*
X206907238Y-108049950D01*
X206907238Y-108049950D02*
X206812000Y-107954712D01*
X206812000Y-107954712D02*
X206764380Y-107811855D01*
X206764380Y-107811855D02*
X206764380Y-107716617D01*
X206764380Y-109049950D02*
X206764380Y-108573760D01*
X206764380Y-108573760D02*
X207764380Y-108573760D01*
X206859619Y-109954712D02*
X206812000Y-109907093D01*
X206812000Y-109907093D02*
X206764380Y-109764236D01*
X206764380Y-109764236D02*
X206764380Y-109668998D01*
X206764380Y-109668998D02*
X206812000Y-109526141D01*
X206812000Y-109526141D02*
X206907238Y-109430903D01*
X206907238Y-109430903D02*
X207002476Y-109383284D01*
X207002476Y-109383284D02*
X207192952Y-109335665D01*
X207192952Y-109335665D02*
X207335809Y-109335665D01*
X207335809Y-109335665D02*
X207526285Y-109383284D01*
X207526285Y-109383284D02*
X207621523Y-109430903D01*
X207621523Y-109430903D02*
X207716761Y-109526141D01*
X207716761Y-109526141D02*
X207764380Y-109668998D01*
X207764380Y-109668998D02*
X207764380Y-109764236D01*
X207764380Y-109764236D02*
X207716761Y-109907093D01*
X207716761Y-109907093D02*
X207669142Y-109954712D01*
D11*
G36*
X185075530Y-95922219D02*
G01*
X184910076Y-95922219D01*
X184790839Y-95882472D01*
X184713206Y-95804838D01*
X184673190Y-95724807D01*
X184629102Y-95548453D01*
X184629102Y-95420985D01*
X184673192Y-95244624D01*
X184713206Y-95164597D01*
X184790838Y-95086965D01*
X184910078Y-95047219D01*
X185075530Y-95047219D01*
X185075530Y-95922219D01*
G37*
G36*
X187883957Y-96443957D02*
G01*
X184015505Y-96443957D01*
X184015505Y-95553501D01*
X184501517Y-95553501D01*
X184504102Y-95563840D01*
X184504102Y-95565134D01*
X184506277Y-95572542D01*
X184550887Y-95750980D01*
X184550112Y-95758159D01*
X184555251Y-95768438D01*
X184555767Y-95770500D01*
X184559256Y-95776447D01*
X184602433Y-95862803D01*
X184604669Y-95873078D01*
X184616840Y-95885249D01*
X184628577Y-95897866D01*
X184629759Y-95898168D01*
X184710503Y-95978913D01*
X184719904Y-95990589D01*
X184732019Y-95994627D01*
X184743232Y-96000750D01*
X184749123Y-96000328D01*
X184872734Y-96041532D01*
X184881583Y-96047219D01*
X184898817Y-96047219D01*
X184916016Y-96047841D01*
X184917065Y-96047219D01*
X185133555Y-96047219D01*
X185147300Y-96049195D01*
X185159929Y-96043427D01*
X185173247Y-96039517D01*
X185176360Y-96035923D01*
X185180687Y-96033948D01*
X185188190Y-96022271D01*
X185197283Y-96011779D01*
X185197959Y-96007070D01*
X185200530Y-96003071D01*
X185200530Y-95989193D01*
X185202506Y-95975449D01*
X185200530Y-95971122D01*
X185200530Y-94989193D01*
X185201659Y-94981342D01*
X185453932Y-94981342D01*
X185694761Y-95992826D01*
X185695056Y-96004628D01*
X185704014Y-96017830D01*
X185711927Y-96031671D01*
X185714214Y-96032862D01*
X185715664Y-96034999D01*
X185730332Y-96041259D01*
X185744478Y-96048628D01*
X185747049Y-96048393D01*
X185749422Y-96049406D01*
X185765139Y-96046743D01*
X185781030Y-96045295D01*
X185783065Y-96043707D01*
X185785610Y-96043277D01*
X185797396Y-96032536D01*
X185809977Y-96022729D01*
X185810831Y-96020293D01*
X185812739Y-96018555D01*
X185816847Y-96003148D01*
X185822129Y-95988096D01*
X185821531Y-95985584D01*
X185947553Y-95512997D01*
X186075953Y-95994495D01*
X186076565Y-96006286D01*
X186085870Y-96019237D01*
X186094156Y-96032867D01*
X186096476Y-96033997D01*
X186097982Y-96036093D01*
X186112807Y-96041955D01*
X186127151Y-96048944D01*
X186129715Y-96048640D01*
X186132114Y-96049589D01*
X186147758Y-96046504D01*
X186163600Y-96044630D01*
X186165591Y-96042989D01*
X186168125Y-96042490D01*
X186179620Y-96031434D01*
X186191931Y-96021295D01*
X186192720Y-96018836D01*
X186194580Y-96017048D01*
X186198274Y-96001533D01*
X186203148Y-95986348D01*
X186202483Y-95983854D01*
X186430685Y-95025404D01*
X186644690Y-95025404D01*
X186651223Y-95061521D01*
X186676246Y-95088374D01*
X186711813Y-95097434D01*
X186862459Y-95047219D01*
X187075658Y-95047219D01*
X187148627Y-95083704D01*
X187181902Y-95116980D01*
X187218387Y-95189949D01*
X187218387Y-95255677D01*
X187181901Y-95328648D01*
X187148627Y-95361923D01*
X187068595Y-95401939D01*
X186895577Y-95445194D01*
X186888398Y-95444419D01*
X186878118Y-95449558D01*
X186876058Y-95450074D01*
X186870118Y-95453558D01*
X186783754Y-95496740D01*
X186773479Y-95498976D01*
X186761297Y-95511157D01*
X186748692Y-95522884D01*
X186748389Y-95524065D01*
X186718425Y-95554030D01*
X186709383Y-95559401D01*
X186701677Y-95574811D01*
X186693428Y-95589920D01*
X186693514Y-95591137D01*
X186655061Y-95668043D01*
X186646959Y-95680652D01*
X186646959Y-95693424D01*
X186644697Y-95705997D01*
X186646959Y-95711451D01*
X186646959Y-95790875D01*
X186645350Y-95805778D01*
X186651061Y-95817201D01*
X186654661Y-95829459D01*
X186659124Y-95833326D01*
X186697671Y-95910422D01*
X186699907Y-95920697D01*
X186712079Y-95932870D01*
X186723815Y-95945485D01*
X186724996Y-95945787D01*
X186754961Y-95975751D01*
X186760332Y-95984794D01*
X186775725Y-95992490D01*
X186790850Y-96000750D01*
X186792069Y-96000662D01*
X186868974Y-96039116D01*
X186881583Y-96047219D01*
X186894355Y-96047219D01*
X186906927Y-96049481D01*
X186912382Y-96047219D01*
X187130193Y-96047219D01*
X187140384Y-96049815D01*
X187156715Y-96044371D01*
X187173247Y-96039517D01*
X187174046Y-96038594D01*
X187309177Y-95993551D01*
X187331625Y-95977950D01*
X187345656Y-95944034D01*
X187339122Y-95907917D01*
X187314100Y-95881065D01*
X187278533Y-95872004D01*
X187127887Y-95922219D01*
X186914690Y-95922219D01*
X186841719Y-95885733D01*
X186808444Y-95852457D01*
X186771959Y-95779487D01*
X186771959Y-95713757D01*
X186808444Y-95640787D01*
X186841720Y-95607512D01*
X186921750Y-95567497D01*
X187094768Y-95524242D01*
X187101947Y-95525018D01*
X187112226Y-95519878D01*
X187114288Y-95519363D01*
X187120235Y-95515873D01*
X187206591Y-95472696D01*
X187216866Y-95470461D01*
X187229039Y-95458288D01*
X187241654Y-95446553D01*
X187241956Y-95445371D01*
X187271922Y-95415405D01*
X187280962Y-95410036D01*
X187288654Y-95394651D01*
X187296918Y-95379517D01*
X187296830Y-95378298D01*
X187335284Y-95301393D01*
X187343387Y-95288785D01*
X187343387Y-95276012D01*
X187345649Y-95263441D01*
X187343387Y-95257986D01*
X187343387Y-95178560D01*
X187344996Y-95163658D01*
X187339283Y-95152232D01*
X187335685Y-95139978D01*
X187331222Y-95136111D01*
X187292674Y-95059014D01*
X187290439Y-95048739D01*
X187278257Y-95036557D01*
X187266531Y-95023952D01*
X187265349Y-95023649D01*
X187235384Y-94993685D01*
X187230014Y-94984643D01*
X187214603Y-94976937D01*
X187199495Y-94968688D01*
X187198277Y-94968774D01*
X187121371Y-94930321D01*
X187108763Y-94922219D01*
X187095990Y-94922219D01*
X187083418Y-94919957D01*
X187077964Y-94922219D01*
X186860152Y-94922219D01*
X186849962Y-94919623D01*
X186833630Y-94925066D01*
X186817099Y-94929921D01*
X186816299Y-94930843D01*
X186681169Y-94975887D01*
X186658721Y-94991489D01*
X186644690Y-95025404D01*
X186430685Y-95025404D01*
X186439007Y-94990453D01*
X186437590Y-94963152D01*
X186416173Y-94933345D01*
X186382041Y-94919849D01*
X186346030Y-94926948D01*
X186319575Y-94952390D01*
X186134599Y-95729289D01*
X186009849Y-95261477D01*
X186009576Y-95250524D01*
X186000139Y-95236616D01*
X185991428Y-95222286D01*
X185989915Y-95221548D01*
X185988968Y-95220153D01*
X185973521Y-95213560D01*
X185958433Y-95206208D01*
X185956759Y-95206406D01*
X185955210Y-95205745D01*
X185938652Y-95208549D01*
X185921984Y-95210523D01*
X185920684Y-95211593D01*
X185919022Y-95211875D01*
X185906609Y-95223185D01*
X185893653Y-95233857D01*
X185893138Y-95235461D01*
X185891893Y-95236596D01*
X185887566Y-95252819D01*
X185882436Y-95268805D01*
X185882869Y-95270432D01*
X185760508Y-95729289D01*
X185577702Y-94961500D01*
X185564134Y-94937767D01*
X185531583Y-94920810D01*
X185495031Y-94924143D01*
X185466084Y-94946709D01*
X185453932Y-94981342D01*
X185201659Y-94981342D01*
X185202506Y-94975449D01*
X185196738Y-94962819D01*
X185192828Y-94949502D01*
X185189234Y-94946388D01*
X185187259Y-94942062D01*
X185175582Y-94934558D01*
X185165090Y-94925466D01*
X185160381Y-94924789D01*
X185156382Y-94922219D01*
X185142505Y-94922219D01*
X185128760Y-94920243D01*
X185124433Y-94922219D01*
X184907771Y-94922219D01*
X184897581Y-94919623D01*
X184881249Y-94925066D01*
X184864718Y-94929921D01*
X184863918Y-94930843D01*
X184740505Y-94971981D01*
X184725861Y-94975167D01*
X184716829Y-94984198D01*
X184706340Y-94991489D01*
X184704082Y-94996945D01*
X184623188Y-95077839D01*
X184614145Y-95083211D01*
X184606439Y-95098621D01*
X184598190Y-95113730D01*
X184598276Y-95114947D01*
X184563297Y-95184906D01*
X184558038Y-95189852D01*
X184555251Y-95200998D01*
X184554300Y-95202901D01*
X184553078Y-95209689D01*
X184508462Y-95388153D01*
X184504102Y-95394938D01*
X184504102Y-95405594D01*
X184503788Y-95406850D01*
X184504102Y-95414569D01*
X184504102Y-95545860D01*
X184501517Y-95553501D01*
X184015505Y-95553501D01*
X184015505Y-94470743D01*
X187883957Y-94470743D01*
X187883957Y-96443957D01*
G37*
D10*
X199720898Y-67108009D02*
X199578041Y-67155628D01*
X199578041Y-67155628D02*
X199530422Y-67203247D01*
X199530422Y-67203247D02*
X199482803Y-67298485D01*
X199482803Y-67298485D02*
X199482803Y-67441342D01*
X199482803Y-67441342D02*
X199530422Y-67536580D01*
X199530422Y-67536580D02*
X199578041Y-67584200D01*
X199578041Y-67584200D02*
X199673279Y-67631819D01*
X199673279Y-67631819D02*
X200054231Y-67631819D01*
X200054231Y-67631819D02*
X200054231Y-66631819D01*
X200054231Y-66631819D02*
X199720898Y-66631819D01*
X199720898Y-66631819D02*
X199625660Y-66679438D01*
X199625660Y-66679438D02*
X199578041Y-66727057D01*
X199578041Y-66727057D02*
X199530422Y-66822295D01*
X199530422Y-66822295D02*
X199530422Y-66917533D01*
X199530422Y-66917533D02*
X199578041Y-67012771D01*
X199578041Y-67012771D02*
X199625660Y-67060390D01*
X199625660Y-67060390D02*
X199720898Y-67108009D01*
X199720898Y-67108009D02*
X200054231Y-67108009D01*
X198863755Y-66631819D02*
X198673279Y-66631819D01*
X198673279Y-66631819D02*
X198578041Y-66679438D01*
X198578041Y-66679438D02*
X198482803Y-66774676D01*
X198482803Y-66774676D02*
X198435184Y-66965152D01*
X198435184Y-66965152D02*
X198435184Y-67298485D01*
X198435184Y-67298485D02*
X198482803Y-67488961D01*
X198482803Y-67488961D02*
X198578041Y-67584200D01*
X198578041Y-67584200D02*
X198673279Y-67631819D01*
X198673279Y-67631819D02*
X198863755Y-67631819D01*
X198863755Y-67631819D02*
X198958993Y-67584200D01*
X198958993Y-67584200D02*
X199054231Y-67488961D01*
X199054231Y-67488961D02*
X199101850Y-67298485D01*
X199101850Y-67298485D02*
X199101850Y-66965152D01*
X199101850Y-66965152D02*
X199054231Y-66774676D01*
X199054231Y-66774676D02*
X198958993Y-66679438D01*
X198958993Y-66679438D02*
X198863755Y-66631819D01*
X197816136Y-66631819D02*
X197625660Y-66631819D01*
X197625660Y-66631819D02*
X197530422Y-66679438D01*
X197530422Y-66679438D02*
X197435184Y-66774676D01*
X197435184Y-66774676D02*
X197387565Y-66965152D01*
X197387565Y-66965152D02*
X197387565Y-67298485D01*
X197387565Y-67298485D02*
X197435184Y-67488961D01*
X197435184Y-67488961D02*
X197530422Y-67584200D01*
X197530422Y-67584200D02*
X197625660Y-67631819D01*
X197625660Y-67631819D02*
X197816136Y-67631819D01*
X197816136Y-67631819D02*
X197911374Y-67584200D01*
X197911374Y-67584200D02*
X198006612Y-67488961D01*
X198006612Y-67488961D02*
X198054231Y-67298485D01*
X198054231Y-67298485D02*
X198054231Y-66965152D01*
X198054231Y-66965152D02*
X198006612Y-66774676D01*
X198006612Y-66774676D02*
X197911374Y-66679438D01*
X197911374Y-66679438D02*
X197816136Y-66631819D01*
X197101850Y-66631819D02*
X196530422Y-66631819D01*
X196816136Y-67631819D02*
X196816136Y-66631819D01*
X194860003Y-67631819D02*
X195193336Y-67155628D01*
X195431431Y-67631819D02*
X195431431Y-66631819D01*
X195431431Y-66631819D02*
X195050479Y-66631819D01*
X195050479Y-66631819D02*
X194955241Y-66679438D01*
X194955241Y-66679438D02*
X194907622Y-66727057D01*
X194907622Y-66727057D02*
X194860003Y-66822295D01*
X194860003Y-66822295D02*
X194860003Y-66965152D01*
X194860003Y-66965152D02*
X194907622Y-67060390D01*
X194907622Y-67060390D02*
X194955241Y-67108009D01*
X194955241Y-67108009D02*
X195050479Y-67155628D01*
X195050479Y-67155628D02*
X195431431Y-67155628D01*
X194479050Y-67584200D02*
X194336193Y-67631819D01*
X194336193Y-67631819D02*
X194098098Y-67631819D01*
X194098098Y-67631819D02*
X194002860Y-67584200D01*
X194002860Y-67584200D02*
X193955241Y-67536580D01*
X193955241Y-67536580D02*
X193907622Y-67441342D01*
X193907622Y-67441342D02*
X193907622Y-67346104D01*
X193907622Y-67346104D02*
X193955241Y-67250866D01*
X193955241Y-67250866D02*
X194002860Y-67203247D01*
X194002860Y-67203247D02*
X194098098Y-67155628D01*
X194098098Y-67155628D02*
X194288574Y-67108009D01*
X194288574Y-67108009D02*
X194383812Y-67060390D01*
X194383812Y-67060390D02*
X194431431Y-67012771D01*
X194431431Y-67012771D02*
X194479050Y-66917533D01*
X194479050Y-66917533D02*
X194479050Y-66822295D01*
X194479050Y-66822295D02*
X194431431Y-66727057D01*
X194431431Y-66727057D02*
X194383812Y-66679438D01*
X194383812Y-66679438D02*
X194288574Y-66631819D01*
X194288574Y-66631819D02*
X194050479Y-66631819D01*
X194050479Y-66631819D02*
X193907622Y-66679438D01*
X193621907Y-66631819D02*
X193050479Y-66631819D01*
X193336193Y-67631819D02*
X193336193Y-66631819D01*
D12*
%TO.C,D3*%
X205398000Y-94828000D02*
X205398000Y-92168000D01*
X207098000Y-94828000D02*
X205398000Y-94828000D01*
X207098000Y-94828000D02*
X207098000Y-92168000D01*
%TO.C,U5*%
X190081800Y-78011200D02*
X190581800Y-78011200D01*
X190581800Y-78011200D02*
X190581800Y-78011200D01*
X192281800Y-78011200D02*
X192281800Y-78011200D01*
X190081800Y-77511200D02*
X190081800Y-78011200D01*
X192281800Y-77511200D02*
X192281800Y-78011200D01*
X190081800Y-76311200D02*
X190081800Y-76311200D01*
X192281800Y-76311200D02*
X192281800Y-75811200D01*
X190081800Y-75811200D02*
X190081800Y-76311200D01*
X190581800Y-75811200D02*
X190081800Y-75811200D01*
X191781800Y-75811200D02*
X191781800Y-75811200D01*
X192281800Y-75811200D02*
X191781800Y-75811200D01*
%TO.C,C22*%
X197420620Y-91996800D02*
X197701780Y-91996800D01*
X197420620Y-93016800D02*
X197701780Y-93016800D01*
%TO.C,R18*%
X199570842Y-85246300D02*
X200045358Y-85246300D01*
X199570842Y-86291300D02*
X200045358Y-86291300D01*
%TO.C,C11*%
X189625200Y-67859681D02*
X189625200Y-67578521D01*
X190645200Y-67859681D02*
X190645200Y-67578521D01*
%TO.C,R17*%
X197626500Y-96282742D02*
X197626500Y-96757258D01*
X196581500Y-96282742D02*
X196581500Y-96757258D01*
%TO.C,J5*%
X184442800Y-94582800D02*
X184442800Y-92462800D01*
X188502800Y-94582800D02*
X184442800Y-94582800D01*
X188502800Y-94582800D02*
X188502800Y-92462800D01*
X189502800Y-94582800D02*
X190562800Y-94582800D01*
X190562800Y-94582800D02*
X190562800Y-93522800D01*
X188502800Y-92462800D02*
X184442800Y-92462800D01*
%TO.C,R6*%
X196321900Y-77298444D02*
X196321900Y-77772960D01*
X195276900Y-77298444D02*
X195276900Y-77772960D01*
%TO.C,C10*%
X192621780Y-68836000D02*
X192340620Y-68836000D01*
X192621780Y-67816000D02*
X192340620Y-67816000D01*
%TO.C,U8*%
X190495900Y-91245800D02*
X191145900Y-91245800D01*
X190495900Y-90595800D02*
X190495900Y-91245800D01*
X197715900Y-90595800D02*
X197715900Y-91245800D01*
X190495900Y-84675800D02*
X190495900Y-84025800D01*
X197715900Y-84675800D02*
X197715900Y-84025800D01*
X190495900Y-84025800D02*
X191145900Y-84025800D01*
X197715900Y-84025800D02*
X197065900Y-84025800D01*
%TO.C,Q2*%
X200073500Y-101884000D02*
X199423500Y-101884000D01*
X200073500Y-101884000D02*
X200723500Y-101884000D01*
X200073500Y-105004000D02*
X198398500Y-105004000D01*
X200073500Y-105004000D02*
X200723500Y-105004000D01*
%TO.C,C17*%
X200163820Y-88288400D02*
X200444980Y-88288400D01*
X200163820Y-89308400D02*
X200444980Y-89308400D01*
%TO.C,Q1*%
X188559000Y-106832400D02*
X188559000Y-107482400D01*
X188559000Y-106832400D02*
X188559000Y-106182400D01*
X191679000Y-106832400D02*
X191679000Y-108507400D01*
X191679000Y-106832400D02*
X191679000Y-106182400D01*
%TO.C,C14*%
X190410220Y-78433200D02*
X190691380Y-78433200D01*
X190410220Y-79453200D02*
X190691380Y-79453200D01*
%TO.C,R27*%
X200137500Y-100313258D02*
X200137500Y-99838742D01*
X201182500Y-100313258D02*
X201182500Y-99838742D01*
%TO.C,R16*%
X197880500Y-109604542D02*
X197880500Y-110079058D01*
X196835500Y-109604542D02*
X196835500Y-110079058D01*
D13*
%TO.C,X1*%
X183503100Y-91145400D02*
X183503100Y-86945400D01*
X186903100Y-91145400D02*
X183503100Y-91145400D01*
X183503100Y-86945400D02*
X186903100Y-86945400D01*
X186903100Y-86945400D02*
X186903100Y-91145400D01*
D14*
X183153100Y-90945400D02*
G75*
G03*
X183153100Y-90945400I0J0D01*
G01*
D12*
%TO.C,U9*%
X188791000Y-102655400D02*
X189051000Y-102655400D01*
X193981000Y-102655400D02*
X193981000Y-104330400D01*
X194241000Y-102655400D02*
X193981000Y-102655400D01*
X188791000Y-99930400D02*
X188791000Y-102655400D01*
X188791000Y-99930400D02*
X188791000Y-97205400D01*
X194241000Y-99930400D02*
X194241000Y-102655400D01*
X194241000Y-99930400D02*
X194241000Y-97205400D01*
X188791000Y-97205400D02*
X189051000Y-97205400D01*
X194241000Y-97205400D02*
X193981000Y-97205400D01*
%TO.C,C6*%
X200519420Y-114933000D02*
X200800580Y-114933000D01*
X200519420Y-115953000D02*
X200800580Y-115953000D01*
%TO.C,R7*%
X194670900Y-77298443D02*
X194670900Y-77772959D01*
X193625900Y-77298443D02*
X193625900Y-77772959D01*
%TO.C,C12*%
X188639800Y-76810780D02*
X188639800Y-76529620D01*
X189659800Y-76810780D02*
X189659800Y-76529620D01*
%TO.C,R19*%
X203341500Y-102696742D02*
X203341500Y-103171258D01*
X202296500Y-102696742D02*
X202296500Y-103171258D01*
%TO.C,C1*%
X200265420Y-80516000D02*
X200546580Y-80516000D01*
X200265420Y-81536000D02*
X200546580Y-81536000D01*
%TO.C,C21*%
X196594000Y-82131780D02*
X196594000Y-81850620D01*
X197614000Y-82131780D02*
X197614000Y-81850620D01*
%TO.C,R15*%
X200019958Y-87815300D02*
X199545442Y-87815300D01*
X200019958Y-86770300D02*
X199545442Y-86770300D01*
%TO.C,R2*%
X188443400Y-89595542D02*
X188443400Y-90070058D01*
X187398400Y-89595542D02*
X187398400Y-90070058D01*
%TO.C,U1*%
X198410000Y-112033000D02*
X192400000Y-112033000D01*
X196160000Y-118853000D02*
X192400000Y-118853000D01*
X192400000Y-118853000D02*
X192400000Y-117593000D01*
X192400000Y-112033000D02*
X192400000Y-113293000D01*
%TO.C,C2*%
X200410380Y-76255501D02*
X200129220Y-76255501D01*
X200410380Y-75235501D02*
X200129220Y-75235501D01*
%TO.C,C5*%
X200392420Y-117092000D02*
X200673580Y-117092000D01*
X200392420Y-118112000D02*
X200673580Y-118112000D01*
%TO.C,C7*%
X193305820Y-110538800D02*
X193586980Y-110538800D01*
X193305820Y-111558800D02*
X193586980Y-111558800D01*
%TO.C,C15*%
X199595200Y-106488620D02*
X199595200Y-106769780D01*
X198575200Y-106488620D02*
X198575200Y-106769780D01*
D10*
%TO.C,J7*%
X208165200Y-82587200D02*
X208495200Y-82917200D01*
X208495200Y-82917200D02*
X208495200Y-82957200D01*
X208495200Y-82957200D02*
X207765200Y-83687200D01*
X207765200Y-82987200D02*
X208165200Y-82587200D01*
X207765200Y-83067200D02*
X207765200Y-82987200D01*
X207765200Y-83067200D02*
X202645200Y-83067200D01*
X202645200Y-83067200D02*
X202645200Y-83567200D01*
X208495200Y-84377200D02*
X208495200Y-89417200D01*
X207765200Y-84377200D02*
X208495200Y-84377200D01*
X208495200Y-89417200D02*
X207765200Y-89417200D01*
X202645200Y-90067200D02*
X202645200Y-90567200D01*
X207765200Y-90567200D02*
X207765200Y-83067200D01*
X207765200Y-90567200D02*
X207765200Y-90647200D01*
X202645200Y-90567200D02*
X207765200Y-90567200D01*
X207765200Y-90647200D02*
X208165200Y-91047200D01*
X208495200Y-90717200D02*
X208415200Y-90717200D01*
X208415200Y-90717200D02*
X207765200Y-90067200D01*
X208165200Y-91047200D02*
X208495200Y-90717200D01*
D12*
%TO.C,C8*%
X192174400Y-108852580D02*
X192174400Y-108571420D01*
X193194400Y-108852580D02*
X193194400Y-108571420D01*
%TO.C,C23*%
X192889600Y-93128220D02*
X192889600Y-93409380D01*
X191869600Y-93128220D02*
X191869600Y-93409380D01*
%TO.C,R1*%
X191002055Y-64374500D02*
X191476571Y-64374500D01*
X191002055Y-65419500D02*
X191476571Y-65419500D01*
%TO.C,C13*%
X192084380Y-75389200D02*
X191803220Y-75389200D01*
X192084380Y-74369200D02*
X191803220Y-74369200D01*
%TO.C,Q3*%
X200103500Y-108295000D02*
X199453500Y-108295000D01*
X200103500Y-108295000D02*
X200753500Y-108295000D01*
X200103500Y-111415000D02*
X198428500Y-111415000D01*
X200103500Y-111415000D02*
X200753500Y-111415000D01*
%TO.C,R25*%
X195848500Y-104537742D02*
X195848500Y-105012258D01*
X194803500Y-104537742D02*
X194803500Y-105012258D01*
%TO.C,C25*%
X199591320Y-83734800D02*
X199872480Y-83734800D01*
X199591320Y-84754800D02*
X199872480Y-84754800D01*
%TO.C,J4*%
X196974000Y-65105000D02*
X196974000Y-65705000D01*
X197674000Y-66405000D02*
X199074000Y-66405000D01*
X199074000Y-64405000D02*
X197674000Y-64405000D01*
X199774000Y-65705000D02*
X199774000Y-65105000D01*
X197674000Y-64405000D02*
G75*
G03*
X196974000Y-65105000I-1J-699999D01*
G01*
X196974000Y-65705000D02*
G75*
G03*
X197674000Y-66405000I699999J-1D01*
G01*
X199774000Y-65105000D02*
G75*
G03*
X199074000Y-64405000I-700000J0D01*
G01*
X199074000Y-66405000D02*
G75*
G03*
X199774000Y-65705000I0J700000D01*
G01*
%TO.C,R12*%
X200676742Y-113396500D02*
X201151258Y-113396500D01*
X200676742Y-114441500D02*
X201151258Y-114441500D01*
%TO.C,R10*%
X200897258Y-112917500D02*
X200422742Y-112917500D01*
X200897258Y-111872500D02*
X200422742Y-111872500D01*
%TO.C,R21*%
X203366900Y-105680742D02*
X203366900Y-106155258D01*
X202321900Y-105680742D02*
X202321900Y-106155258D01*
%TO.C,F1*%
X189885822Y-109018000D02*
X190402978Y-109018000D01*
X189885822Y-110438000D02*
X190402978Y-110438000D01*
%TO.C,R3*%
X203849500Y-80216742D02*
X203849500Y-80691258D01*
X202804500Y-80216742D02*
X202804500Y-80691258D01*
%TO.C,R23*%
X195848500Y-101489742D02*
X195848500Y-101964258D01*
X194803500Y-101489742D02*
X194803500Y-101964258D01*
D13*
%TO.C,U2*%
X202667600Y-76807701D02*
X202207600Y-76807701D01*
X198547600Y-76807701D02*
X198217600Y-76807701D01*
X198217600Y-76807701D02*
X198097600Y-76807701D01*
X198097600Y-76807701D02*
X198097600Y-77957701D01*
X202667600Y-78007701D02*
X202667600Y-76807701D01*
X198097600Y-78717701D02*
X198097600Y-79857701D01*
X202667600Y-79857701D02*
X202667600Y-78667701D01*
X202207600Y-79857701D02*
X202667600Y-79857701D01*
X198097600Y-79857701D02*
X198547600Y-79857701D01*
D10*
X202517600Y-76557701D02*
G75*
G03*
X202517600Y-76557701I-110000J0D01*
G01*
D12*
%TO.C,R24*%
X201792100Y-106391942D02*
X201792100Y-106866458D01*
X200747100Y-106391942D02*
X200747100Y-106866458D01*
D15*
%TO.C,U4*%
X188863714Y-70219101D02*
X189033714Y-70219101D01*
X188863714Y-71259101D02*
X188863714Y-70219101D01*
X188863714Y-72339101D02*
X188863714Y-73379101D01*
X188863714Y-73379101D02*
X189033714Y-73379101D01*
X194023714Y-70219101D02*
X193853714Y-70219101D01*
X194023714Y-71259101D02*
X194023714Y-70219101D01*
X194023714Y-72339101D02*
X194023714Y-73379101D01*
X194023714Y-73379101D02*
X193853714Y-73379101D01*
D10*
X189563714Y-69209101D02*
G75*
G03*
X189563714Y-69209101I-120000J0D01*
G01*
D12*
%TO.C,J3*%
X193066999Y-65105000D02*
X193066999Y-65705000D01*
X193766999Y-66405000D02*
X195166999Y-66405000D01*
X195166999Y-64405000D02*
X193766999Y-64405000D01*
X195866999Y-65705000D02*
X195866999Y-65105000D01*
X193766999Y-64405000D02*
G75*
G03*
X193066999Y-65105000I-1J-699999D01*
G01*
X193066999Y-65705000D02*
G75*
G03*
X193766999Y-66405000I699999J-1D01*
G01*
X195866999Y-65105000D02*
G75*
G03*
X195166999Y-64405000I-700000J0D01*
G01*
X195166999Y-66405000D02*
G75*
G03*
X195866999Y-65705000I0J700000D01*
G01*
%TO.C,R5*%
X190530058Y-82485599D02*
X190055542Y-82485599D01*
X190530058Y-81440599D02*
X190055542Y-81440599D01*
%TO.C,R9*%
X202042500Y-97392258D02*
X202042500Y-96917742D01*
X203087500Y-97392258D02*
X203087500Y-96917742D01*
%TO.C,R4*%
X190080942Y-79970600D02*
X190555458Y-79970600D01*
X190080942Y-81015600D02*
X190555458Y-81015600D01*
%TO.C,C9*%
X198376620Y-68885501D02*
X198657780Y-68885501D01*
X198376620Y-69905501D02*
X198657780Y-69905501D01*
%TO.C,R20*%
X195848500Y-98505742D02*
X195848500Y-98980258D01*
X194803500Y-98505742D02*
X194803500Y-98980258D01*
%TO.C,R14*%
X200848700Y-65909458D02*
X200848700Y-65434942D01*
X201893700Y-65909458D02*
X201893700Y-65434942D01*
%TO.C,Q5*%
X197993000Y-101509000D02*
X198643000Y-101509000D01*
X197993000Y-101509000D02*
X197343000Y-101509000D01*
X197993000Y-98389000D02*
X199668000Y-98389000D01*
X197993000Y-98389000D02*
X197343000Y-98389000D01*
%TO.C,C16*%
X188557780Y-86278800D02*
X188276620Y-86278800D01*
X188557780Y-85258800D02*
X188276620Y-85258800D01*
D16*
%TO.C,U6*%
X197869000Y-105552000D02*
X197869000Y-105642000D01*
X197429000Y-105552000D02*
X197869000Y-105552000D01*
X196339000Y-105552000D02*
X196779000Y-105552000D01*
X196339000Y-105642000D02*
X196339000Y-105552000D01*
X197869000Y-107742000D02*
X197869000Y-107832000D01*
X197869000Y-107832000D02*
X197429000Y-107832000D01*
X196779000Y-107832000D02*
X196339000Y-107832000D01*
X196339000Y-107832000D02*
X196339000Y-107742000D01*
X198079000Y-105552000D02*
G75*
G03*
X198079000Y-105552000I-80000J0D01*
G01*
D12*
%TO.C,R26*%
X197880500Y-103077742D02*
X197880500Y-103552258D01*
X196835500Y-103077742D02*
X196835500Y-103552258D01*
%TO.C,C24*%
X188569480Y-87802800D02*
X188288320Y-87802800D01*
X188569480Y-86782800D02*
X188288320Y-86782800D01*
%TO.C,C4*%
X201383020Y-68882800D02*
X201664180Y-68882800D01*
X201383020Y-69902800D02*
X201664180Y-69902800D01*
%TO.C,Q4*%
X199849500Y-94833000D02*
X199199500Y-94833000D01*
X199849500Y-94833000D02*
X200499500Y-94833000D01*
X199849500Y-97953000D02*
X198174500Y-97953000D01*
X199849500Y-97953000D02*
X200499500Y-97953000D01*
%TO.C,U3*%
X201345800Y-70721901D02*
X201345800Y-73721901D01*
X196125800Y-72221901D02*
X196125800Y-73721901D01*
%TO.C,R8*%
X203341500Y-108792742D02*
X203341500Y-109267258D01*
X202296500Y-108792742D02*
X202296500Y-109267258D01*
%TO.C,C27*%
X194866800Y-95783980D02*
X194866800Y-95502820D01*
X195886800Y-95783980D02*
X195886800Y-95502820D01*
%TO.C,C26*%
X192326800Y-82080980D02*
X192326800Y-81799820D01*
X193346800Y-82080980D02*
X193346800Y-81799820D01*
%TO.C,C3*%
X195618980Y-69852000D02*
X195337820Y-69852000D01*
X195618980Y-68832000D02*
X195337820Y-68832000D01*
%TO.C,R13*%
X204738500Y-93933742D02*
X204738500Y-94408258D01*
X203693500Y-93933742D02*
X203693500Y-94408258D01*
%TO.C,R11*%
X202169500Y-94408258D02*
X202169500Y-93933742D01*
X203214500Y-94408258D02*
X203214500Y-93933742D01*
%TD*%
M02*
