%TF.GenerationSoftware,KiCad,Pcbnew,(7.0.0)*%
%TF.CreationDate,2023-07-06T15:18:01+01:00*%
%TF.ProjectId,wolf flight comp,776f6c66-2066-46c6-9967-687420636f6d,rev?*%
%TF.SameCoordinates,Original*%
%TF.FileFunction,Copper,L1,Top*%
%TF.FilePolarity,Positive*%
%FSLAX46Y46*%
G04 Gerber Fmt 4.6, Leading zero omitted, Abs format (unit mm)*
G04 Created by KiCad (PCBNEW (7.0.0)) date 2023-07-06 15:18:01*
%MOMM*%
%LPD*%
G01*
G04 APERTURE LIST*
G04 Aperture macros list*
%AMRoundRect*
0 Rectangle with rounded corners*
0 $1 Rounding radius*
0 $2 $3 $4 $5 $6 $7 $8 $9 X,Y pos of 4 corners*
0 Add a 4 corners polygon primitive as box body*
4,1,4,$2,$3,$4,$5,$6,$7,$8,$9,$2,$3,0*
0 Add four circle primitives for the rounded corners*
1,1,$1+$1,$2,$3*
1,1,$1+$1,$4,$5*
1,1,$1+$1,$6,$7*
1,1,$1+$1,$8,$9*
0 Add four rect primitives between the rounded corners*
20,1,$1+$1,$2,$3,$4,$5,0*
20,1,$1+$1,$4,$5,$6,$7,0*
20,1,$1+$1,$6,$7,$8,$9,0*
20,1,$1+$1,$8,$9,$2,$3,0*%
G04 Aperture macros list end*
%TA.AperFunction,SMDPad,CuDef*%
%ADD10RoundRect,0.225000X0.225000X0.250000X-0.225000X0.250000X-0.225000X-0.250000X0.225000X-0.250000X0*%
%TD*%
%TA.AperFunction,SMDPad,CuDef*%
%ADD11RoundRect,0.200000X-0.275000X0.200000X-0.275000X-0.200000X0.275000X-0.200000X0.275000X0.200000X0*%
%TD*%
%TA.AperFunction,SMDPad,CuDef*%
%ADD12RoundRect,0.150000X-0.650000X-0.150000X0.650000X-0.150000X0.650000X0.150000X-0.650000X0.150000X0*%
%TD*%
%TA.AperFunction,SMDPad,CuDef*%
%ADD13RoundRect,0.200000X-0.200000X-0.275000X0.200000X-0.275000X0.200000X0.275000X-0.200000X0.275000X0*%
%TD*%
%TA.AperFunction,ComponentPad*%
%ADD14R,1.700000X1.700000*%
%TD*%
%TA.AperFunction,ComponentPad*%
%ADD15O,1.700000X1.700000*%
%TD*%
%TA.AperFunction,SMDPad,CuDef*%
%ADD16RoundRect,0.225000X0.250000X-0.225000X0.250000X0.225000X-0.250000X0.225000X-0.250000X-0.225000X0*%
%TD*%
%TA.AperFunction,SMDPad,CuDef*%
%ADD17RoundRect,0.200000X0.275000X-0.200000X0.275000X0.200000X-0.275000X0.200000X-0.275000X-0.200000X0*%
%TD*%
%TA.AperFunction,ComponentPad*%
%ADD18R,2.200000X2.200000*%
%TD*%
%TA.AperFunction,ComponentPad*%
%ADD19C,2.200000*%
%TD*%
%TA.AperFunction,SMDPad,CuDef*%
%ADD20RoundRect,0.225000X-0.225000X-0.250000X0.225000X-0.250000X0.225000X0.250000X-0.225000X0.250000X0*%
%TD*%
%TA.AperFunction,SMDPad,CuDef*%
%ADD21RoundRect,0.218750X0.256250X-0.218750X0.256250X0.218750X-0.256250X0.218750X-0.256250X-0.218750X0*%
%TD*%
%TA.AperFunction,SMDPad,CuDef*%
%ADD22RoundRect,0.218750X0.218750X0.256250X-0.218750X0.256250X-0.218750X-0.256250X0.218750X-0.256250X0*%
%TD*%
%TA.AperFunction,SMDPad,CuDef*%
%ADD23RoundRect,0.200000X0.200000X0.275000X-0.200000X0.275000X-0.200000X-0.275000X0.200000X-0.275000X0*%
%TD*%
%TA.AperFunction,SMDPad,CuDef*%
%ADD24RoundRect,0.250000X0.375000X0.625000X-0.375000X0.625000X-0.375000X-0.625000X0.375000X-0.625000X0*%
%TD*%
%TA.AperFunction,SMDPad,CuDef*%
%ADD25RoundRect,0.243750X0.456250X-0.243750X0.456250X0.243750X-0.456250X0.243750X-0.456250X-0.243750X0*%
%TD*%
%TA.AperFunction,SMDPad,CuDef*%
%ADD26R,0.500000X0.375000*%
%TD*%
%TA.AperFunction,SMDPad,CuDef*%
%ADD27R,0.650000X0.300000*%
%TD*%
%TA.AperFunction,SMDPad,CuDef*%
%ADD28RoundRect,0.150000X-0.512500X-0.150000X0.512500X-0.150000X0.512500X0.150000X-0.512500X0.150000X0*%
%TD*%
%TA.AperFunction,ComponentPad*%
%ADD29C,5.600000*%
%TD*%
%TA.AperFunction,SMDPad,CuDef*%
%ADD30RoundRect,0.250000X-0.250000X-0.475000X0.250000X-0.475000X0.250000X0.475000X-0.250000X0.475000X0*%
%TD*%
%TA.AperFunction,SMDPad,CuDef*%
%ADD31R,1.150000X1.000000*%
%TD*%
%TA.AperFunction,SMDPad,CuDef*%
%ADD32R,0.250000X0.275000*%
%TD*%
%TA.AperFunction,SMDPad,CuDef*%
%ADD33R,0.275000X0.250000*%
%TD*%
%TA.AperFunction,ComponentPad*%
%ADD34R,1.800000X1.070000*%
%TD*%
%TA.AperFunction,ComponentPad*%
%ADD35O,1.800000X1.070000*%
%TD*%
%TA.AperFunction,SMDPad,CuDef*%
%ADD36R,2.000000X1.500000*%
%TD*%
%TA.AperFunction,SMDPad,CuDef*%
%ADD37R,2.000000X3.800000*%
%TD*%
%TA.AperFunction,SMDPad,CuDef*%
%ADD38RoundRect,0.075000X-0.662500X-0.075000X0.662500X-0.075000X0.662500X0.075000X-0.662500X0.075000X0*%
%TD*%
%TA.AperFunction,SMDPad,CuDef*%
%ADD39RoundRect,0.075000X-0.075000X-0.662500X0.075000X-0.662500X0.075000X0.662500X-0.075000X0.662500X0*%
%TD*%
%TA.AperFunction,SMDPad,CuDef*%
%ADD40RoundRect,0.225000X-0.250000X0.225000X-0.250000X-0.225000X0.250000X-0.225000X0.250000X0.225000X0*%
%TD*%
%TA.AperFunction,SMDPad,CuDef*%
%ADD41R,1.400000X0.400000*%
%TD*%
%TA.AperFunction,SMDPad,CuDef*%
%ADD42R,1.900000X2.300000*%
%TD*%
%TA.AperFunction,SMDPad,CuDef*%
%ADD43R,1.900000X1.800000*%
%TD*%
%TA.AperFunction,SMDPad,CuDef*%
%ADD44RoundRect,0.243750X-0.243750X-0.456250X0.243750X-0.456250X0.243750X0.456250X-0.243750X0.456250X0*%
%TD*%
%TA.AperFunction,ComponentPad*%
%ADD45C,2.000000*%
%TD*%
%TA.AperFunction,SMDPad,CuDef*%
%ADD46R,0.350000X0.590000*%
%TD*%
%TA.AperFunction,SMDPad,CuDef*%
%ADD47R,0.590000X0.350000*%
%TD*%
%TA.AperFunction,ViaPad*%
%ADD48C,0.700000*%
%TD*%
%TA.AperFunction,ViaPad*%
%ADD49C,1.000000*%
%TD*%
%TA.AperFunction,ViaPad*%
%ADD50C,0.800000*%
%TD*%
%TA.AperFunction,ViaPad*%
%ADD51C,1.500000*%
%TD*%
%TA.AperFunction,Conductor*%
%ADD52C,1.000000*%
%TD*%
%TA.AperFunction,Conductor*%
%ADD53C,0.300000*%
%TD*%
%TA.AperFunction,Conductor*%
%ADD54C,0.508000*%
%TD*%
%TA.AperFunction,Conductor*%
%ADD55C,0.254000*%
%TD*%
%TA.AperFunction,Conductor*%
%ADD56C,0.200000*%
%TD*%
%TA.AperFunction,Conductor*%
%ADD57C,0.250000*%
%TD*%
%TA.AperFunction,Conductor*%
%ADD58C,0.400000*%
%TD*%
G04 APERTURE END LIST*
D10*
%TO.P,C17,1*%
%TO.N,GND*%
X156921800Y-89611200D03*
%TO.P,C17,2*%
%TO.N,+3.3VA*%
X155371800Y-89611200D03*
%TD*%
D11*
%TO.P,R8,1*%
%TO.N,P1-*%
X175641000Y-109411000D03*
%TO.P,R8,2*%
%TO.N,Net-(Q2-D)*%
X175641000Y-111061000D03*
%TD*%
D12*
%TO.P,U6,1,~{CS}*%
%TO.N,FLASH CS*%
X160821000Y-100838000D03*
%TO.P,U6,2,DO(IO1)*%
%TO.N,MISO*%
X160821000Y-102108000D03*
%TO.P,U6,3,IO2*%
%TO.N,+3V3*%
X160821000Y-103378000D03*
%TO.P,U6,4,GND*%
%TO.N,GND*%
X160821000Y-104648000D03*
%TO.P,U6,5,DI(IO0)*%
%TO.N,MOSI*%
X168021000Y-104648000D03*
%TO.P,U6,6,CLK*%
%TO.N,SCK*%
X168021000Y-103378000D03*
%TO.P,U6,7,IO3*%
%TO.N,+3V3*%
X168021000Y-102108000D03*
%TO.P,U6,8,VCC*%
X168021000Y-100838000D03*
%TD*%
D13*
%TO.P,R13,1*%
%TO.N,BATT SENSE*%
X181550000Y-123100000D03*
%TO.P,R13,2*%
%TO.N,GND*%
X183200000Y-123100000D03*
%TD*%
D14*
%TO.P,J10,1,Pin_1*%
%TO.N,GND*%
X181999999Y-75879999D03*
D15*
%TO.P,J10,2,Pin_2*%
%TO.N,SDA*%
X181999999Y-73339999D03*
%TO.P,J10,3,Pin_3*%
%TO.N,SCL*%
X181999999Y-70799999D03*
%TO.P,J10,4,Pin_4*%
%TO.N,I2C POWER*%
X181999999Y-68259999D03*
%TD*%
D16*
%TO.P,C19,1*%
%TO.N,GND*%
X152781000Y-82207400D03*
%TO.P,C19,2*%
%TO.N,OSCIN*%
X152781000Y-80657400D03*
%TD*%
D17*
%TO.P,R23,1*%
%TO.N,Net-(J8-DAT0)*%
X168656000Y-112331000D03*
%TO.P,R23,2*%
%TO.N,MISO*%
X168656000Y-110681000D03*
%TD*%
D11*
%TO.P,R21,1*%
%TO.N,Net-(J9-Pin_2)*%
X163703000Y-73280000D03*
%TO.P,R21,2*%
%TO.N,BOOT0*%
X163703000Y-74930000D03*
%TD*%
D18*
%TO.P,J7,1,Pin_1*%
%TO.N,+BATT*%
X180212999Y-117093999D03*
D19*
%TO.P,J7,2,Pin_2*%
%TO.N,GND*%
X180213000Y-114554000D03*
%TO.P,J7,3,Pin_3*%
%TO.N,ARM-*%
X180213000Y-112014000D03*
%TO.P,J7,4,Pin_4*%
%TO.N,P1-*%
X180213000Y-109474000D03*
%TO.P,J7,5,Pin_5*%
%TO.N,ARM-*%
X180213000Y-106934000D03*
%TO.P,J7,6,Pin_6*%
%TO.N,P2-*%
X180213000Y-104394000D03*
%TD*%
D20*
%TO.P,C6,1*%
%TO.N,+3V3*%
X172425000Y-76962000D03*
%TO.P,C6,2*%
%TO.N,GND*%
X173975000Y-76962000D03*
%TD*%
D21*
%TO.P,FB2,1*%
%TO.N,+3.3VA*%
X152654000Y-89101000D03*
%TO.P,FB2,2*%
%TO.N,+3V3*%
X152654000Y-87526000D03*
%TD*%
D10*
%TO.P,C15,1*%
%TO.N,GND*%
X161824000Y-78867000D03*
%TO.P,C15,2*%
%TO.N,+3V3*%
X160274000Y-78867000D03*
%TD*%
D22*
%TO.P,FB1,1*%
%TO.N,Net-(Q1-S)*%
X170840500Y-119227600D03*
%TO.P,FB1,2*%
%TO.N,+12V*%
X169265500Y-119227600D03*
%TD*%
D23*
%TO.P,R16,1*%
%TO.N,+3V3*%
X167325000Y-76300000D03*
%TO.P,R16,2*%
%TO.N,SDA*%
X165675000Y-76300000D03*
%TD*%
D24*
%TO.P,F1,1*%
%TO.N,+BATT*%
X180200000Y-120450000D03*
%TO.P,F1,2*%
%TO.N,Net-(Q1-D)*%
X177400000Y-120450000D03*
%TD*%
D25*
%TO.P,D3,1,K*%
%TO.N,GND*%
X162687000Y-96520000D03*
%TO.P,D3,2,A*%
%TO.N,Net-(D3-A)*%
X162687000Y-94645000D03*
%TD*%
D11*
%TO.P,R3,1*%
%TO.N,+3V3*%
X177400000Y-81450000D03*
%TO.P,R3,2*%
%TO.N,USB CON D+*%
X177400000Y-83100000D03*
%TD*%
D16*
%TO.P,C9,1*%
%TO.N,GND*%
X158833000Y-104788000D03*
%TO.P,C9,2*%
%TO.N,+3V3*%
X158833000Y-103238000D03*
%TD*%
D17*
%TO.P,R20,1*%
%TO.N,Net-(J8-CD{slash}DAT3)*%
X163068000Y-112395000D03*
%TO.P,R20,2*%
%TO.N,CS SD*%
X163068000Y-110745000D03*
%TD*%
D26*
%TO.P,U3,1,I/O1*%
%TO.N,USB CON D-*%
X175855999Y-84637499D03*
D27*
%TO.P,U3,2,GND*%
%TO.N,GND*%
X175930999Y-84099999D03*
D26*
%TO.P,U3,3,I/O2*%
%TO.N,USB CON D+*%
X175855999Y-83562499D03*
%TO.P,U3,4,I/O2*%
%TO.N,USB D+*%
X174155999Y-83562499D03*
D27*
%TO.P,U3,5,VBUS*%
%TO.N,VBUS*%
X174080999Y-84099999D03*
D26*
%TO.P,U3,6,I/O1*%
%TO.N,USB D-*%
X174155999Y-84637499D03*
%TD*%
D20*
%TO.P,C14,1*%
%TO.N,GND*%
X166344000Y-91313000D03*
%TO.P,C14,2*%
%TO.N,+3V3*%
X167894000Y-91313000D03*
%TD*%
D14*
%TO.P,J6,1,Pin_1*%
%TO.N,SERVO1*%
X176910999Y-99694999D03*
D15*
%TO.P,J6,2,Pin_2*%
%TO.N,SERVO2*%
X176910999Y-97154999D03*
%TO.P,J6,3,Pin_3*%
%TO.N,SERVO POWER*%
X179450999Y-99694999D03*
%TO.P,J6,4,Pin_4*%
X179450999Y-97154999D03*
%TO.P,J6,5,Pin_5*%
%TO.N,GND*%
X181990999Y-99694999D03*
%TO.P,J6,6,Pin_6*%
X181990999Y-97154999D03*
%TD*%
D23*
%TO.P,R14,1*%
%TO.N,+3V3*%
X167350000Y-77900000D03*
%TO.P,R14,2*%
%TO.N,SCL*%
X165700000Y-77900000D03*
%TD*%
D13*
%TO.P,R6,1*%
%TO.N,GND*%
X154500000Y-98450000D03*
%TO.P,R6,2*%
%TO.N,Net-(D2-K)*%
X156150000Y-98450000D03*
%TD*%
D28*
%TO.P,Q1,1,G*%
%TO.N,GND*%
X173202600Y-117398800D03*
%TO.P,Q1,2,S*%
%TO.N,Net-(Q1-S)*%
X173202600Y-119298800D03*
%TO.P,Q1,3,D*%
%TO.N,Net-(Q1-D)*%
X175477600Y-118348800D03*
%TD*%
D14*
%TO.P,J2,1,Pin_1*%
%TO.N,GND*%
X150240999Y-99821999D03*
D15*
%TO.P,J2,2,Pin_2*%
%TO.N,USART1 TX*%
X150240999Y-97281999D03*
%TO.P,J2,3,Pin_3*%
%TO.N,USART1 RX*%
X150240999Y-94741999D03*
%TO.P,J2,4,Pin_4*%
%TO.N,UART POWER*%
X150240999Y-92201999D03*
%TD*%
D20*
%TO.P,C8,1*%
%TO.N,+3V3*%
X155054000Y-76200000D03*
%TO.P,C8,2*%
%TO.N,GND*%
X156604000Y-76200000D03*
%TD*%
D11*
%TO.P,R11,1*%
%TO.N,P2-*%
X175630000Y-103757000D03*
%TO.P,R11,2*%
%TO.N,Net-(Q3-D)*%
X175630000Y-105407000D03*
%TD*%
D10*
%TO.P,C18,1*%
%TO.N,GND*%
X156895800Y-87985600D03*
%TO.P,C18,2*%
%TO.N,+3.3VA*%
X155345800Y-87985600D03*
%TD*%
D29*
%TO.P,H4,1,1*%
%TO.N,GND*%
X147447000Y-126873000D03*
%TD*%
D30*
%TO.P,C3,1*%
%TO.N,+3V3*%
X174691000Y-125095000D03*
%TO.P,C3,2*%
%TO.N,GND*%
X176591000Y-125095000D03*
%TD*%
D11*
%TO.P,R22,1*%
%TO.N,Net-(C20-Pad1)*%
X149479000Y-84226400D03*
%TO.P,R22,2*%
%TO.N,OSCOUT*%
X149479000Y-85876400D03*
%TD*%
D31*
%TO.P,Y1,1,1*%
%TO.N,OSCIN*%
X150437999Y-80921999D03*
%TO.P,Y1,2,2*%
%TO.N,GND*%
X148687999Y-80921999D03*
%TO.P,Y1,3,3*%
%TO.N,Net-(C20-Pad1)*%
X148687999Y-82321999D03*
%TO.P,Y1,4,4*%
%TO.N,GND*%
X150437999Y-82321999D03*
%TD*%
D32*
%TO.P,U5,1,VDDIO*%
%TO.N,+3V3*%
X155570499Y-73397499D03*
%TO.P,U5,2,SCK/SCL*%
%TO.N,SCL*%
X155070499Y-73397499D03*
D33*
%TO.P,U5,3,VSS/GND*%
%TO.N,GND*%
X154557999Y-73659999D03*
%TO.P,U5,4,SDI/SDO/SDA*%
%TO.N,SDA*%
X154557999Y-74159999D03*
%TO.P,U5,5,SDO/DNC/SA0*%
%TO.N,GND*%
X154557999Y-74659999D03*
D32*
%TO.P,U5,6,~{CS}*%
%TO.N,+3V3*%
X155070499Y-74922499D03*
%TO.P,U5,7,INT/DNC*%
%TO.N,BARO INT*%
X155570499Y-74922499D03*
D33*
%TO.P,U5,8,VSS/GND__1*%
%TO.N,GND*%
X156082999Y-74659999D03*
%TO.P,U5,9,VSS/GND__2*%
X156082999Y-74159999D03*
%TO.P,U5,10,VDD*%
%TO.N,+3V3*%
X156082999Y-73659999D03*
%TD*%
D34*
%TO.P,D2,1,RA*%
%TO.N,LED RED*%
X157098999Y-96265999D03*
D35*
%TO.P,D2,2,BA*%
%TO.N,LED GREEN*%
X157098999Y-94995999D03*
%TO.P,D2,3,K*%
%TO.N,Net-(D2-K)*%
X157098999Y-93725999D03*
%TO.P,D2,4,GA*%
%TO.N,LED BLUE*%
X157098999Y-92455999D03*
%TD*%
D14*
%TO.P,J5,1,Pin_1*%
%TO.N,SERVO3*%
X176910999Y-93471999D03*
D15*
%TO.P,J5,2,Pin_2*%
%TO.N,SERVO4*%
X176910999Y-90931999D03*
%TO.P,J5,3,Pin_3*%
%TO.N,SERVO POWER*%
X179450999Y-93471999D03*
%TO.P,J5,4,Pin_4*%
X179450999Y-90931999D03*
%TO.P,J5,5,Pin_5*%
%TO.N,GND*%
X181990999Y-93471999D03*
%TO.P,J5,6,Pin_6*%
X181990999Y-90931999D03*
%TD*%
D36*
%TO.P,U1,1,ADJ*%
%TO.N,Net-(U1-ADJ)*%
X172567999Y-127394999D03*
%TO.P,U1,2,VO*%
%TO.N,+3V3*%
X172567999Y-125094999D03*
D37*
X166267999Y-125094999D03*
D36*
%TO.P,U1,3,VI*%
%TO.N,+12V*%
X172567999Y-122794999D03*
%TD*%
D11*
%TO.P,R10,1*%
%TO.N,Net-(D3-A)*%
X165100000Y-94775000D03*
%TO.P,R10,2*%
%TO.N,+3V3*%
X165100000Y-96425000D03*
%TD*%
D38*
%TO.P,U7,1,VBAT*%
%TO.N,+3V3*%
X159921500Y-82340000D03*
%TO.P,U7,2,PC13*%
%TO.N,ACCEL INT1*%
X159921500Y-82840000D03*
%TO.P,U7,3,PC14*%
%TO.N,PC14*%
X159921500Y-83340000D03*
%TO.P,U7,4,PC15*%
%TO.N,CS BRKOUT*%
X159921500Y-83840000D03*
%TO.P,U7,5,PD0*%
%TO.N,OSCIN*%
X159921500Y-84340000D03*
%TO.P,U7,6,PD1*%
%TO.N,OSCOUT*%
X159921500Y-84840000D03*
%TO.P,U7,7,NRST*%
%TO.N,RESET*%
X159921500Y-85340000D03*
%TO.P,U7,8,VSSA*%
%TO.N,GND*%
X159921500Y-85840000D03*
%TO.P,U7,9,VDDA*%
%TO.N,+3.3VA*%
X159921500Y-86340000D03*
%TO.P,U7,10,PA0*%
%TO.N,CS SD*%
X159921500Y-86840000D03*
%TO.P,U7,11,PA1*%
%TO.N,LED BLUE*%
X159921500Y-87340000D03*
%TO.P,U7,12,PA2*%
%TO.N,LED GREEN*%
X159921500Y-87840000D03*
D39*
%TO.P,U7,13,PA3*%
%TO.N,LED RED*%
X161334000Y-89252500D03*
%TO.P,U7,14,PA4*%
%TO.N,FLASH CS*%
X161834000Y-89252500D03*
%TO.P,U7,15,PA5*%
%TO.N,SCK*%
X162334000Y-89252500D03*
%TO.P,U7,16,PA6*%
%TO.N,MISO*%
X162834000Y-89252500D03*
%TO.P,U7,17,PA7*%
%TO.N,MOSI*%
X163334000Y-89252500D03*
%TO.P,U7,18,PB0*%
%TO.N,BUZZER*%
X163834000Y-89252500D03*
%TO.P,U7,19,PB1*%
%TO.N,BATT SENSE*%
X164334000Y-89252500D03*
%TO.P,U7,20,PB2*%
%TO.N,PB2*%
X164834000Y-89252500D03*
%TO.P,U7,21,PB10*%
%TO.N,P2 EN*%
X165334000Y-89252500D03*
%TO.P,U7,22,PB11*%
%TO.N,P1 EN*%
X165834000Y-89252500D03*
%TO.P,U7,23,VSS*%
%TO.N,GND*%
X166334000Y-89252500D03*
%TO.P,U7,24,VDD*%
%TO.N,+3V3*%
X166834000Y-89252500D03*
D38*
%TO.P,U7,25,PB12*%
%TO.N,GYRO INT4*%
X168246500Y-87840000D03*
%TO.P,U7,26,PB13*%
%TO.N,SERVO1*%
X168246500Y-87340000D03*
%TO.P,U7,27,PB14*%
%TO.N,SERVO2*%
X168246500Y-86840000D03*
%TO.P,U7,28,PB15*%
%TO.N,SERVO3*%
X168246500Y-86340000D03*
%TO.P,U7,29,PA8*%
%TO.N,BARO INT*%
X168246500Y-85840000D03*
%TO.P,U7,30,PA9*%
%TO.N,USART1 TX*%
X168246500Y-85340000D03*
%TO.P,U7,31,PA10*%
%TO.N,USART1 RX*%
X168246500Y-84840000D03*
%TO.P,U7,32,PA11*%
%TO.N,USB D-*%
X168246500Y-84340000D03*
%TO.P,U7,33,PA12*%
%TO.N,USB D+*%
X168246500Y-83840000D03*
%TO.P,U7,34,PA13*%
%TO.N,unconnected-(U7-PA13-Pad34)*%
X168246500Y-83340000D03*
%TO.P,U7,35,VSS*%
%TO.N,GND*%
X168246500Y-82840000D03*
%TO.P,U7,36,VDD*%
%TO.N,+3V3*%
X168246500Y-82340000D03*
D39*
%TO.P,U7,37,PA14*%
%TO.N,unconnected-(U7-PA14-Pad37)*%
X166834000Y-80927500D03*
%TO.P,U7,38,PA15*%
%TO.N,unconnected-(U7-PA15-Pad38)*%
X166334000Y-80927500D03*
%TO.P,U7,39,PB3*%
%TO.N,unconnected-(U7-PB3-Pad39)*%
X165834000Y-80927500D03*
%TO.P,U7,40,PB4*%
%TO.N,unconnected-(U7-PB4-Pad40)*%
X165334000Y-80927500D03*
%TO.P,U7,41,PB5*%
%TO.N,ACCEL INT2*%
X164834000Y-80927500D03*
%TO.P,U7,42,PB6*%
%TO.N,SCL*%
X164334000Y-80927500D03*
%TO.P,U7,43,PB7*%
%TO.N,SDA*%
X163834000Y-80927500D03*
%TO.P,U7,44,BOOT0*%
%TO.N,BOOT0*%
X163334000Y-80927500D03*
%TO.P,U7,45,PB8*%
%TO.N,GYRO INT3*%
X162834000Y-80927500D03*
%TO.P,U7,46,PB9*%
%TO.N,SERVO4*%
X162334000Y-80927500D03*
%TO.P,U7,47,VSS*%
%TO.N,GND*%
X161834000Y-80927500D03*
%TO.P,U7,48,VDD*%
%TO.N,+3V3*%
X161334000Y-80927500D03*
%TD*%
D40*
%TO.P,C7,1*%
%TO.N,+3V3*%
X157353000Y-72491000D03*
%TO.P,C7,2*%
%TO.N,GND*%
X157353000Y-74041000D03*
%TD*%
D20*
%TO.P,C20,1*%
%TO.N,Net-(C20-Pad1)*%
X151701200Y-84226400D03*
%TO.P,C20,2*%
%TO.N,GND*%
X153251200Y-84226400D03*
%TD*%
D41*
%TO.P,J1,1,VBUS*%
%TO.N,VBUS*%
X179399999Y-84999999D03*
%TO.P,J1,2,D-*%
%TO.N,USB CON D-*%
X179399999Y-84349999D03*
%TO.P,J1,3,D+*%
%TO.N,USB CON D+*%
X179399999Y-83699999D03*
%TO.P,J1,4,ID*%
%TO.N,unconnected-(J1-ID-Pad4)*%
X179399999Y-83049999D03*
%TO.P,J1,5,GND*%
%TO.N,GND*%
X179399999Y-82399999D03*
D42*
%TO.P,J1,6,Shield*%
%TO.N,unconnected-(J1-Shield-Pad6)*%
X182249999Y-87449999D03*
D43*
X182249999Y-84849999D03*
X182249999Y-82549999D03*
D42*
X182249999Y-79949999D03*
%TD*%
D28*
%TO.P,Q2,1,G*%
%TO.N,P1 EN*%
X171334000Y-109794000D03*
%TO.P,Q2,2,S*%
%TO.N,GND*%
X171334000Y-111694000D03*
%TO.P,Q2,3,D*%
%TO.N,Net-(Q2-D)*%
X173609000Y-110744000D03*
%TD*%
%TO.P,Q3,1,G*%
%TO.N,P2 EN*%
X171323000Y-104394000D03*
%TO.P,Q3,2,S*%
%TO.N,GND*%
X171323000Y-106294000D03*
%TO.P,Q3,3,D*%
%TO.N,Net-(Q3-D)*%
X173598000Y-105344000D03*
%TD*%
D14*
%TO.P,J3,1,Pin_1*%
%TO.N,GND*%
X146557999Y-99821999D03*
D15*
%TO.P,J3,2,Pin_2*%
%TO.N,MOSI*%
X146557999Y-97281999D03*
%TO.P,J3,3,Pin_3*%
%TO.N,MISO*%
X146557999Y-94741999D03*
%TO.P,J3,4,Pin_4*%
%TO.N,SCK*%
X146557999Y-92201999D03*
%TO.P,J3,5,Pin_5*%
%TO.N,CS BRKOUT*%
X146557999Y-89661999D03*
%TO.P,J3,6,Pin_6*%
%TO.N,SPI POWER*%
X146557999Y-87121999D03*
%TD*%
D18*
%TO.P,J4,1,Pin_1*%
%TO.N,PB2*%
X148335999Y-116712999D03*
D19*
%TO.P,J4,2,Pin_2*%
%TO.N,+3V3*%
X148336000Y-114173000D03*
%TO.P,J4,3,Pin_3*%
%TO.N,GND*%
X148336000Y-111633000D03*
%TO.P,J4,4,Pin_4*%
%TO.N,+12V*%
X148336000Y-109093000D03*
%TO.P,J4,5,Pin_5*%
%TO.N,ARM-*%
X148336000Y-106553000D03*
%TO.P,J4,6,Pin_6*%
%TO.N,PC14*%
X148336000Y-104013000D03*
%TD*%
D30*
%TO.P,C2,1*%
%TO.N,+12V*%
X161737000Y-122783600D03*
%TO.P,C2,2*%
%TO.N,GND*%
X163637000Y-122783600D03*
%TD*%
D17*
%TO.P,R18,1*%
%TO.N,Net-(J8-CMD)*%
X164719000Y-112394000D03*
%TO.P,R18,2*%
%TO.N,MOSI*%
X164719000Y-110744000D03*
%TD*%
D36*
%TO.P,U2,1,ADJ*%
%TO.N,Net-(U2-ADJ)*%
X159232999Y-127394999D03*
%TO.P,U2,2,VO*%
%TO.N,+5V*%
X159232999Y-125094999D03*
D37*
X152932999Y-125094999D03*
D36*
%TO.P,U2,3,VI*%
%TO.N,+12V*%
X159232999Y-122794999D03*
%TD*%
D14*
%TO.P,J9,1,Pin_1*%
%TO.N,GND*%
X166369999Y-70357999D03*
D15*
%TO.P,J9,2,Pin_2*%
%TO.N,Net-(J9-Pin_2)*%
X163829999Y-70357999D03*
%TO.P,J9,3,Pin_3*%
%TO.N,+3V3*%
X161289999Y-70357999D03*
%TD*%
D10*
%TO.P,C5,1*%
%TO.N,+3V3*%
X173863000Y-71628000D03*
%TO.P,C5,2*%
%TO.N,GND*%
X172313000Y-71628000D03*
%TD*%
D23*
%TO.P,R9,1*%
%TO.N,GND*%
X172910000Y-102616000D03*
%TO.P,R9,2*%
%TO.N,P2 EN*%
X171260000Y-102616000D03*
%TD*%
D13*
%TO.P,R17,1*%
%TO.N,RESET*%
X154433000Y-65938400D03*
%TO.P,R17,2*%
%TO.N,+3V3*%
X156083000Y-65938400D03*
%TD*%
D16*
%TO.P,C16,1*%
%TO.N,GND*%
X170561000Y-82817000D03*
%TO.P,C16,2*%
%TO.N,+3V3*%
X170561000Y-81267000D03*
%TD*%
D29*
%TO.P,H1,1,1*%
%TO.N,GND*%
X180975000Y-127000000D03*
%TD*%
D11*
%TO.P,R19,1*%
%TO.N,SCK*%
X166370000Y-110745000D03*
%TO.P,R19,2*%
%TO.N,Net-(J8-CLK)*%
X166370000Y-112395000D03*
%TD*%
D44*
%TO.P,D1,1,K*%
%TO.N,+12V*%
X169262500Y-116750000D03*
%TO.P,D1,2,A*%
%TO.N,VBUS*%
X171137500Y-116750000D03*
%TD*%
D20*
%TO.P,C11,1*%
%TO.N,GND*%
X149466000Y-75057000D03*
%TO.P,C11,2*%
%TO.N,RESET*%
X151016000Y-75057000D03*
%TD*%
D10*
%TO.P,C12,1*%
%TO.N,GND*%
X167275000Y-117700000D03*
%TO.P,C12,2*%
%TO.N,+3V3*%
X165725000Y-117700000D03*
%TD*%
D29*
%TO.P,H2,1,1*%
%TO.N,GND*%
X147447000Y-58420000D03*
%TD*%
D16*
%TO.P,C10,1*%
%TO.N,GND*%
X157182000Y-104801000D03*
%TO.P,C10,2*%
%TO.N,+3V3*%
X157182000Y-103251000D03*
%TD*%
D29*
%TO.P,H3,1,1*%
%TO.N,GND*%
X180848000Y-58420000D03*
%TD*%
D45*
%TO.P,SW1,1,1*%
%TO.N,GND*%
X146848000Y-72465000D03*
X146848000Y-65965000D03*
%TO.P,SW1,2,2*%
%TO.N,RESET*%
X151348000Y-72465000D03*
X151348000Y-65965000D03*
%TD*%
D13*
%TO.P,R12,1*%
%TO.N,+12V*%
X178451200Y-123100000D03*
%TO.P,R12,2*%
%TO.N,BATT SENSE*%
X180101200Y-123100000D03*
%TD*%
D46*
%TO.P,U4,1,INT2*%
%TO.N,ACCEL INT2*%
X170447999Y-73129999D03*
%TO.P,U4,2,NC*%
%TO.N,unconnected-(U4-NC-Pad2)*%
X170947999Y-73129999D03*
%TO.P,U4,3,VDD*%
%TO.N,+3V3*%
X171447999Y-73129999D03*
%TO.P,U4,4,GNDA*%
%TO.N,GND*%
X171947999Y-73129999D03*
%TO.P,U4,5,CSB2*%
%TO.N,unconnected-(U4-CSB2-Pad5)*%
X172447999Y-73129999D03*
%TO.P,U4,6,GNDIO*%
%TO.N,GND*%
X172947999Y-73129999D03*
%TO.P,U4,7,PS*%
%TO.N,+3V3*%
X173447999Y-73129999D03*
D47*
%TO.P,U4,8,SCL/SCK*%
%TO.N,SCL*%
X173862999Y-74294999D03*
D46*
%TO.P,U4,9,SDA/SDI*%
%TO.N,SDA*%
X173447999Y-75459999D03*
%TO.P,U4,10,SDO2*%
%TO.N,GND*%
X172947999Y-75459999D03*
%TO.P,U4,11,VDDIO*%
%TO.N,+3V3*%
X172447999Y-75459999D03*
%TO.P,U4,12,INT3*%
%TO.N,GYRO INT3*%
X171947999Y-75459999D03*
%TO.P,U4,13,INT4*%
%TO.N,GYRO INT4*%
X171447999Y-75459999D03*
%TO.P,U4,14,CSB1*%
%TO.N,+3V3*%
X170947999Y-75459999D03*
%TO.P,U4,15,SDO1*%
%TO.N,GND*%
X170447999Y-75459999D03*
D47*
%TO.P,U4,16,INT1*%
%TO.N,ACCEL INT1*%
X170032999Y-74294999D03*
%TD*%
D16*
%TO.P,C21,1*%
%TO.N,+3V3*%
X157988000Y-82068000D03*
%TO.P,C21,2*%
%TO.N,GND*%
X157988000Y-80518000D03*
%TD*%
D30*
%TO.P,C4,1*%
%TO.N,+5V*%
X161737000Y-125095000D03*
%TO.P,C4,2*%
%TO.N,GND*%
X163637000Y-125095000D03*
%TD*%
%TO.P,C1,1*%
%TO.N,+12V*%
X174691000Y-122809000D03*
%TO.P,C1,2*%
%TO.N,GND*%
X176591000Y-122809000D03*
%TD*%
D23*
%TO.P,R7,1*%
%TO.N,GND*%
X172910000Y-108141000D03*
%TO.P,R7,2*%
%TO.N,P1 EN*%
X171260000Y-108141000D03*
%TD*%
D48*
%TO.N,GND*%
X171323000Y-112369600D03*
X161800000Y-78050000D03*
X158038800Y-105359200D03*
X172135800Y-107137200D03*
X166350000Y-92150000D03*
D49*
X183000000Y-122100000D03*
D48*
X153850000Y-75600000D03*
X158050000Y-89611200D03*
D49*
X161650000Y-62400000D03*
D48*
X163144200Y-126542800D03*
X171336459Y-82786459D03*
D50*
X177350000Y-123850000D03*
D48*
X173950000Y-77800000D03*
D51*
X148463000Y-78841600D03*
D48*
X163626800Y-123952000D03*
X162687000Y-97358200D03*
X178300000Y-82400000D03*
X165900000Y-84800000D03*
X164550000Y-98950000D03*
X154300000Y-87100000D03*
X172950000Y-101800000D03*
X173385891Y-118024223D03*
X153700000Y-98450000D03*
X157302200Y-74828400D03*
X157150000Y-80500000D03*
X175000000Y-82900000D03*
X153750000Y-73500000D03*
D50*
X172300000Y-70450000D03*
D49*
X167450000Y-116200000D03*
D48*
%TO.N,+5V*%
X155778200Y-125247400D03*
X145850000Y-79474701D03*
D51*
X149700000Y-88350000D03*
D49*
X155400000Y-120500000D03*
%TO.N,+12V*%
X171350000Y-95100000D03*
D50*
X175700000Y-127150000D03*
D49*
X171000000Y-122900000D03*
X183150000Y-101750000D03*
%TO.N,+3V3*%
X178700000Y-65950000D03*
D48*
X169750000Y-81250000D03*
X159500000Y-78850000D03*
X173850000Y-70800000D03*
X168700000Y-91300000D03*
X165076608Y-97177314D03*
X151050000Y-87550000D03*
X158250000Y-72500000D03*
D49*
X165500000Y-116150000D03*
D51*
X145850500Y-85250000D03*
D48*
X157150000Y-82050000D03*
X153250000Y-95150000D03*
X168000000Y-101500000D03*
D49*
X166250000Y-121550000D03*
X156900000Y-65950000D03*
D48*
X163200000Y-84000000D03*
X177400000Y-80700000D03*
X168050000Y-76950000D03*
X168500000Y-124102000D03*
X172450000Y-77800000D03*
X155050000Y-77050000D03*
X158000000Y-103200000D03*
%TO.N,Net-(U1-ADJ)*%
X173950000Y-127400000D03*
%TO.N,BOOT0*%
X163300000Y-78150000D03*
X164550000Y-74900000D03*
%TO.N,VBUS*%
X174700000Y-85800000D03*
X173250000Y-114600000D03*
%TO.N,LED RED*%
X160900000Y-91650000D03*
X159449500Y-94500000D03*
%TO.N,SCK*%
X169600000Y-103450000D03*
D50*
X154750000Y-101100000D03*
D48*
X164100000Y-93600000D03*
%TO.N,MISO*%
X159350000Y-102000000D03*
D50*
X164250000Y-104500000D03*
D48*
X163200000Y-91250000D03*
D50*
X168925000Y-109625000D03*
%TO.N,MOSI*%
X167650000Y-106100000D03*
X152300000Y-103200000D03*
%TO.N,USART1 TX*%
X166400000Y-86500000D03*
D48*
%TO.N,USART1 RX*%
X162350000Y-86800000D03*
%TO.N,SCL*%
X153850000Y-72400000D03*
X165600000Y-79300000D03*
%TO.N,SDA*%
X175999500Y-78200000D03*
D50*
%TO.N,BUZZER*%
X170900000Y-62800000D03*
D48*
X179250000Y-74800000D03*
X178550000Y-72600000D03*
X166850000Y-87350000D03*
X173100000Y-85900000D03*
%TO.N,ACCEL INT1*%
X152400000Y-76000000D03*
X157800000Y-83500000D03*
%TO.N,BARO INT*%
X170350000Y-85800000D03*
X155350000Y-74200000D03*
D50*
X157250000Y-77250500D03*
D48*
X156400000Y-78500000D03*
%TO.N,ACCEL INT2*%
X164850000Y-82350000D03*
X168250000Y-74100000D03*
%TO.N,GYRO INT4*%
X168800000Y-89150000D03*
X171200000Y-78200500D03*
%TO.N,GYRO INT3*%
X163400000Y-82250000D03*
X171400000Y-77100000D03*
%TO.N,SERVO4*%
X166450000Y-82300000D03*
X171500000Y-85150000D03*
%TO.N,P2 EN*%
X165150000Y-87900000D03*
X170750000Y-101200000D03*
%TO.N,P1 EN*%
X170174276Y-107760372D03*
X166029763Y-87992590D03*
D50*
%TO.N,Net-(J8-CD{slash}DAT3)*%
X163100000Y-113400000D03*
%TO.N,Net-(J8-CMD)*%
X164250000Y-113400000D03*
%TO.N,Net-(J8-CLK)*%
X166400000Y-113450000D03*
%TO.N,Net-(J8-DAT0)*%
X168600000Y-113450000D03*
D48*
%TO.N,Net-(U2-ADJ)*%
X160600000Y-127200000D03*
%TO.N,CS BRKOUT*%
X161400000Y-84350000D03*
%TO.N,PC14*%
X154500000Y-94650000D03*
X161550000Y-83350000D03*
%TO.N,PB2*%
X155650000Y-107600000D03*
X167208931Y-96991069D03*
X166550000Y-101500000D03*
X165050500Y-90900000D03*
X157200000Y-101800000D03*
X153550000Y-115900000D03*
%TD*%
D52*
%TO.N,GND*%
X163637000Y-123962200D02*
X163637000Y-124968000D01*
X160821000Y-104648000D02*
X158973000Y-104648000D01*
X148463000Y-80772000D02*
X148463000Y-78841600D01*
X152781000Y-82207400D02*
X152781000Y-83756200D01*
X172300000Y-70450000D02*
X172300000Y-71615000D01*
X173385891Y-118024223D02*
X173385891Y-117582091D01*
D53*
X161824000Y-78867000D02*
X161824000Y-80917500D01*
D52*
X156604000Y-75526600D02*
X157302200Y-74828400D01*
X158973000Y-104648000D02*
X158833000Y-104788000D01*
X176591000Y-123850000D02*
X176591000Y-125095000D01*
D53*
X172948000Y-74788960D02*
X172948000Y-75460000D01*
D54*
X156921800Y-89611200D02*
X158050000Y-89611200D01*
X162687000Y-97358200D02*
X162687000Y-96520000D01*
D52*
X172300000Y-71615000D02*
X172313000Y-71628000D01*
X166344000Y-92144000D02*
X166350000Y-92150000D01*
D53*
X171948000Y-71993000D02*
X171948000Y-73130000D01*
D52*
X161800000Y-78050000D02*
X161800000Y-78843000D01*
D53*
X168246500Y-82840000D02*
X170538000Y-82840000D01*
D55*
X175000000Y-83748000D02*
X175000000Y-82900000D01*
D53*
X149563000Y-81963000D02*
X149922000Y-82322000D01*
X148963000Y-80922000D02*
X149563000Y-81522000D01*
D52*
X157353000Y-74041000D02*
X157353000Y-74777600D01*
D53*
X172313000Y-71628000D02*
X171948000Y-71993000D01*
D52*
X156604000Y-76200000D02*
X156604000Y-75526600D01*
X150686600Y-82448400D02*
X150663000Y-82472000D01*
X167275000Y-117700000D02*
X167275000Y-116375000D01*
X171323000Y-112369600D02*
X171323000Y-111705000D01*
D54*
X183200000Y-123100000D02*
X183200000Y-122300000D01*
D52*
X152781000Y-82207400D02*
X152540000Y-82448400D01*
X163637000Y-123941800D02*
X163626800Y-123952000D01*
X173975000Y-77775000D02*
X173950000Y-77800000D01*
X152540000Y-82448400D02*
X150686600Y-82448400D01*
D53*
X170448000Y-75460000D02*
X170448000Y-74788960D01*
X156083000Y-74660000D02*
X156083000Y-75005600D01*
X156083000Y-75005600D02*
X156604000Y-75526600D01*
D52*
X157467600Y-104788000D02*
X157195000Y-104788000D01*
D53*
X161824000Y-80917500D02*
X161834000Y-80927500D01*
D52*
X172910000Y-108141000D02*
X172910000Y-107881000D01*
X158610000Y-104788000D02*
X158038800Y-105359200D01*
X172166200Y-107137200D02*
X172135800Y-107137200D01*
X172135800Y-107106800D02*
X171323000Y-106294000D01*
X171323000Y-111705000D02*
X171334000Y-111694000D01*
D53*
X178300000Y-82400000D02*
X179400000Y-82400000D01*
D52*
X176591000Y-122809000D02*
X176591000Y-123850000D01*
D53*
X172923000Y-72323000D02*
X172923000Y-73105000D01*
D52*
X171305918Y-82817000D02*
X171336459Y-82786459D01*
X167275000Y-116375000D02*
X167450000Y-116200000D01*
D53*
X172948000Y-75460000D02*
X172948000Y-75935000D01*
D55*
X154558000Y-74660000D02*
X154558000Y-74892000D01*
D54*
X183200000Y-122300000D02*
X183000000Y-122100000D01*
D53*
X170448000Y-74788960D02*
X170861959Y-74375000D01*
X149563000Y-81522000D02*
X149563000Y-81963000D01*
D54*
X150163000Y-82472000D02*
X150663000Y-82472000D01*
D53*
X172313000Y-71628000D02*
X172313000Y-71713000D01*
X172923000Y-73105000D02*
X172948000Y-73130000D01*
D52*
X158038800Y-105359200D02*
X157467600Y-104788000D01*
X158833000Y-104788000D02*
X158610000Y-104788000D01*
X176591000Y-123850000D02*
X177350000Y-123850000D01*
X166344000Y-91313000D02*
X166344000Y-92144000D01*
D54*
X156895800Y-87985600D02*
X156895800Y-89585200D01*
D52*
X149440000Y-75057000D02*
X146848000Y-72465000D01*
D54*
X156895800Y-89585200D02*
X156921800Y-89611200D01*
D52*
X173975000Y-76962000D02*
X173975000Y-77775000D01*
D55*
X175931000Y-84100000D02*
X175352000Y-84100000D01*
X175352000Y-84100000D02*
X175000000Y-83748000D01*
D52*
X163637000Y-122555000D02*
X163637000Y-123941800D01*
D53*
X172534040Y-74375000D02*
X172948000Y-74788960D01*
D52*
X157988000Y-80518000D02*
X157168000Y-80518000D01*
D53*
X172313000Y-71713000D02*
X172923000Y-72323000D01*
X172948000Y-75935000D02*
X173975000Y-76962000D01*
D52*
X157353000Y-74777600D02*
X157302200Y-74828400D01*
X163626800Y-123952000D02*
X163637000Y-123962200D01*
D55*
X153910000Y-73660000D02*
X153750000Y-73500000D01*
D52*
X172910000Y-102616000D02*
X172910000Y-101840000D01*
X172910000Y-101840000D02*
X172950000Y-101800000D01*
X173385891Y-117582091D02*
X173202600Y-117398800D01*
D53*
X148688000Y-80922000D02*
X148963000Y-80922000D01*
D52*
X152781000Y-83756200D02*
X153251200Y-84226400D01*
D53*
X170861959Y-74375000D02*
X172534040Y-74375000D01*
D52*
X157168000Y-80518000D02*
X157150000Y-80500000D01*
X172135800Y-107137200D02*
X172135800Y-107106800D01*
D53*
X159921500Y-85840000D02*
X155560000Y-85840000D01*
X166334000Y-89252500D02*
X166334000Y-91303000D01*
D54*
X148463000Y-80772000D02*
X148871000Y-80772000D01*
D52*
X172910000Y-107881000D02*
X172166200Y-107137200D01*
X157195000Y-104788000D02*
X157182000Y-104801000D01*
D53*
X166334000Y-91303000D02*
X166344000Y-91313000D01*
D55*
X154558000Y-73660000D02*
X153910000Y-73660000D01*
D53*
X156083000Y-74160000D02*
X157234000Y-74160000D01*
D52*
X170561000Y-82817000D02*
X171305918Y-82817000D01*
D53*
X149922000Y-82322000D02*
X150438000Y-82322000D01*
D52*
X161800000Y-78843000D02*
X161824000Y-78867000D01*
D53*
X155560000Y-85840000D02*
X154300000Y-87100000D01*
D52*
X149466000Y-75057000D02*
X149440000Y-75057000D01*
D55*
X154558000Y-74892000D02*
X153850000Y-75600000D01*
D52*
X158833000Y-104788000D02*
X157195000Y-104788000D01*
D53*
X170538000Y-82840000D02*
X170561000Y-82817000D01*
D52*
X153700000Y-98450000D02*
X154500000Y-98450000D01*
D53*
X157234000Y-74160000D02*
X157353000Y-74041000D01*
D52*
%TO.N,+5V*%
X148050000Y-88100000D02*
X148300000Y-88350000D01*
X148050000Y-88100000D02*
X148050000Y-87751321D01*
X145850000Y-81800000D02*
X145850000Y-79474701D01*
X148050000Y-87751321D02*
X148058000Y-87743321D01*
X148058000Y-84008000D02*
X145850000Y-81800000D01*
X148300000Y-88350000D02*
X149700000Y-88350000D01*
X152933000Y-122967000D02*
X155400000Y-120500000D01*
X148058000Y-87743321D02*
X148058000Y-84008000D01*
X152933000Y-125095000D02*
X152933000Y-122967000D01*
%TO.N,+12V*%
X169115500Y-120093500D02*
X171817000Y-122795000D01*
X169262500Y-119224600D02*
X169265500Y-119227600D01*
X171817000Y-122795000D02*
X172568000Y-122795000D01*
X169115500Y-119227600D02*
X169115500Y-120093500D01*
D54*
X178451200Y-124884696D02*
X176185896Y-127150000D01*
X178451200Y-123100000D02*
X178451200Y-124884696D01*
D52*
X171350000Y-97134000D02*
X171350000Y-95100000D01*
X161737000Y-122685808D02*
X165195208Y-119227600D01*
X183150000Y-101750000D02*
X175966000Y-101750000D01*
X165195208Y-119227600D02*
X169115500Y-119227600D01*
X169262500Y-116750000D02*
X169262500Y-119224600D01*
X161737000Y-122783600D02*
X161737000Y-122685808D01*
D54*
X176185896Y-127150000D02*
X175700000Y-127150000D01*
D52*
X175966000Y-101750000D02*
X171350000Y-97134000D01*
%TO.N,+3V3*%
X166268000Y-125095000D02*
X166268000Y-121568000D01*
X177400000Y-80700000D02*
X177400000Y-81450000D01*
X151074000Y-87526000D02*
X151050000Y-87550000D01*
X173863000Y-70813000D02*
X173850000Y-70800000D01*
X155054000Y-76200000D02*
X155054000Y-77046000D01*
D53*
X156083000Y-73660000D02*
X156184000Y-73660000D01*
D52*
X167474400Y-76250800D02*
X167474400Y-77825600D01*
D54*
X165100000Y-97153922D02*
X165076608Y-97177314D01*
D52*
X167474400Y-77525600D02*
X168050000Y-76950000D01*
X172425000Y-76962000D02*
X172425000Y-77775000D01*
X167474400Y-76374400D02*
X168050000Y-76950000D01*
X159500000Y-78850000D02*
X160257000Y-78850000D01*
D53*
X169488000Y-82340000D02*
X170561000Y-81267000D01*
X171598000Y-73800000D02*
X173298000Y-73800000D01*
D52*
X157362000Y-72500000D02*
X157353000Y-72491000D01*
X157970000Y-82050000D02*
X157988000Y-82068000D01*
X168687000Y-91313000D02*
X168700000Y-91300000D01*
D53*
X173448000Y-73130000D02*
X173448000Y-72043000D01*
X173298000Y-73800000D02*
X173448000Y-73650000D01*
X156184000Y-73660000D02*
X157353000Y-72491000D01*
D52*
X158250000Y-72500000D02*
X157362000Y-72500000D01*
D53*
X155570500Y-73397500D02*
X155921500Y-73397500D01*
X168246500Y-82340000D02*
X169488000Y-82340000D01*
X155070500Y-76183500D02*
X155054000Y-76200000D01*
D52*
X167474400Y-77825600D02*
X167474400Y-77525600D01*
D53*
X158260000Y-82340000D02*
X157988000Y-82068000D01*
D52*
X160821000Y-103378000D02*
X158973000Y-103378000D01*
D53*
X171448000Y-73130000D02*
X171448000Y-73650000D01*
D52*
X165500000Y-116150000D02*
X165500000Y-117475000D01*
D53*
X161334000Y-79927000D02*
X160274000Y-78867000D01*
X166834000Y-90253000D02*
X167894000Y-91313000D01*
D52*
X158973000Y-103378000D02*
X158833000Y-103238000D01*
D53*
X172448000Y-76939000D02*
X172425000Y-76962000D01*
D52*
X167474400Y-76250800D02*
X167474400Y-76374400D01*
D53*
X155921500Y-73397500D02*
X156184000Y-73660000D01*
D52*
X156888400Y-65938400D02*
X156900000Y-65950000D01*
D53*
X173448000Y-72043000D02*
X173863000Y-71628000D01*
X170948000Y-75460000D02*
X170948000Y-74890000D01*
D52*
X172425000Y-77775000D02*
X172450000Y-77800000D01*
X168000000Y-101500000D02*
X168021000Y-101521000D01*
D53*
X172448000Y-75460000D02*
X172448000Y-76939000D01*
D52*
X165500000Y-117475000D02*
X165725000Y-117700000D01*
X160257000Y-78850000D02*
X160274000Y-78867000D01*
X170561000Y-81267000D02*
X169767000Y-81267000D01*
X156083000Y-65938400D02*
X156888400Y-65938400D01*
D53*
X172358000Y-74800000D02*
X172448000Y-74890000D01*
X171448000Y-73650000D02*
X171598000Y-73800000D01*
X159921500Y-82340000D02*
X158260000Y-82340000D01*
D52*
X157150000Y-82050000D02*
X157970000Y-82050000D01*
D53*
X170948000Y-74890000D02*
X171038000Y-74800000D01*
X166834000Y-90253000D02*
X166834000Y-89252500D01*
D52*
X168021000Y-100838000D02*
X168021000Y-101479000D01*
D53*
X171038000Y-74800000D02*
X172358000Y-74800000D01*
X161334000Y-80927500D02*
X161334000Y-79927000D01*
D52*
X167894000Y-91313000D02*
X168687000Y-91313000D01*
X158038000Y-103238000D02*
X158833000Y-103238000D01*
X158000000Y-103200000D02*
X157962000Y-103238000D01*
X158000000Y-103200000D02*
X158038000Y-103238000D01*
D53*
X155070500Y-74922500D02*
X155070500Y-76183500D01*
D54*
X165100000Y-96425000D02*
X165100000Y-97153922D01*
D52*
X155054000Y-77046000D02*
X155050000Y-77050000D01*
D53*
X172448000Y-74890000D02*
X172448000Y-75460000D01*
D52*
X168021000Y-101479000D02*
X168000000Y-101500000D01*
D53*
X173448000Y-73650000D02*
X173448000Y-73130000D01*
D52*
X152654000Y-87526000D02*
X151074000Y-87526000D01*
X173863000Y-71628000D02*
X173863000Y-70813000D01*
X168021000Y-101521000D02*
X168021000Y-102108000D01*
X157195000Y-103238000D02*
X157182000Y-103251000D01*
X157962000Y-103238000D02*
X157195000Y-103238000D01*
X169767000Y-81267000D02*
X169750000Y-81250000D01*
X166268000Y-121568000D02*
X166250000Y-121550000D01*
D56*
%TO.N,USB CON D-*%
X178450000Y-84012501D02*
X178450000Y-84150000D01*
X175993500Y-84500000D02*
X176506000Y-84500000D01*
X175856000Y-84637500D02*
X175993500Y-84500000D01*
X176506000Y-84012501D02*
X178450000Y-84012501D01*
X179200000Y-84150000D02*
X179400000Y-84350000D01*
X176506000Y-84500000D02*
X176506000Y-84012501D01*
X178450000Y-84150000D02*
X179200000Y-84150000D01*
D52*
%TO.N,Net-(U1-ADJ)*%
X173950000Y-127400000D02*
X172573000Y-127400000D01*
X172573000Y-127400000D02*
X172568000Y-127395000D01*
D56*
%TO.N,USB D+*%
X173747499Y-83596000D02*
X173402000Y-83596000D01*
X173402000Y-83596000D02*
X173402000Y-83875000D01*
X173780999Y-83562500D02*
X173747499Y-83596000D01*
X173402000Y-83875000D02*
X168900000Y-83875000D01*
X174156000Y-83562500D02*
X173780999Y-83562500D01*
%TO.N,USB D-*%
X173402000Y-84604000D02*
X173402000Y-84325000D01*
X173402000Y-84325000D02*
X168900000Y-84325000D01*
X173780999Y-84637500D02*
X173747499Y-84604000D01*
X173747499Y-84604000D02*
X173402000Y-84604000D01*
X174156000Y-84637500D02*
X173780999Y-84637500D01*
D54*
%TO.N,Net-(D2-K)*%
X155795000Y-98095000D02*
X155795000Y-94105000D01*
X155795000Y-94105000D02*
X156174000Y-93726000D01*
X156174000Y-93726000D02*
X157099000Y-93726000D01*
X156150000Y-98450000D02*
X155795000Y-98095000D01*
D56*
%TO.N,USB CON D+*%
X179248897Y-83562500D02*
X179386397Y-83700000D01*
X179386397Y-83700000D02*
X179400000Y-83700000D01*
X175856000Y-83562500D02*
X179248897Y-83562500D01*
D53*
%TO.N,OSCIN*%
X155028200Y-84340000D02*
X155016200Y-84328000D01*
X155016200Y-82892600D02*
X152781000Y-80657400D01*
X155016200Y-84328000D02*
X155016200Y-82892600D01*
X150777600Y-80657400D02*
X150663000Y-80772000D01*
X152781000Y-80657400D02*
X150777600Y-80657400D01*
X159921500Y-84340000D02*
X155028200Y-84340000D01*
%TO.N,OSCOUT*%
X154457400Y-84836000D02*
X159917500Y-84836000D01*
X159917500Y-84836000D02*
X159921500Y-84840000D01*
X153417000Y-85876400D02*
X154457400Y-84836000D01*
X149479000Y-85876400D02*
X153417000Y-85876400D01*
%TO.N,RESET*%
X158788000Y-80838000D02*
X159840000Y-81890000D01*
X162400000Y-84800000D02*
X161860000Y-85340000D01*
X151016000Y-75057000D02*
X151016000Y-76316000D01*
X162400000Y-83150000D02*
X162400000Y-84800000D01*
X161860000Y-85340000D02*
X159921500Y-85340000D01*
X151016000Y-76316000D02*
X154400000Y-79700000D01*
X161190000Y-81940000D02*
X162400000Y-83150000D01*
D52*
X151348000Y-65965000D02*
X151348000Y-72465000D01*
D53*
X159840000Y-81890000D02*
X161064025Y-81890000D01*
D52*
X151348000Y-72465000D02*
X151348000Y-74725000D01*
X154406400Y-65965000D02*
X154433000Y-65938400D01*
D53*
X161064025Y-81890000D02*
X161114025Y-81940000D01*
D52*
X151348000Y-65965000D02*
X154406400Y-65965000D01*
D53*
X158788000Y-80100538D02*
X158788000Y-80838000D01*
X158387462Y-79700000D02*
X158788000Y-80100538D01*
X154400000Y-79700000D02*
X158387462Y-79700000D01*
X161114025Y-81940000D02*
X161190000Y-81940000D01*
%TO.N,BOOT0*%
X163334000Y-78184000D02*
X163334000Y-80927500D01*
X163703000Y-74930000D02*
X164520000Y-74930000D01*
X164520000Y-74930000D02*
X164550000Y-74900000D01*
X163300000Y-78150000D02*
X163334000Y-78184000D01*
D55*
%TO.N,VBUS*%
X174700000Y-85350000D02*
X174700000Y-85800000D01*
D54*
X171137500Y-116750000D02*
X171137500Y-116712500D01*
D55*
X179400000Y-85000000D02*
X177650000Y-85000000D01*
X175000000Y-84723000D02*
X175000000Y-84440000D01*
X174081000Y-84100000D02*
X174660000Y-84100000D01*
X175163500Y-84886500D02*
X175000000Y-84723000D01*
X175354000Y-85077000D02*
X175163500Y-84886500D01*
D54*
X171137500Y-116712500D02*
X173250000Y-114600000D01*
D55*
X177573000Y-85077000D02*
X175354000Y-85077000D01*
X174660000Y-84100000D02*
X175000000Y-84440000D01*
X175163500Y-84886500D02*
X174700000Y-85350000D01*
X177650000Y-85000000D02*
X177573000Y-85077000D01*
D53*
%TO.N,LED RED*%
X161334000Y-89252500D02*
X161334000Y-91216000D01*
X157683500Y-96266000D02*
X157099000Y-96266000D01*
X161334000Y-91216000D02*
X160900000Y-91650000D01*
X159449500Y-94500000D02*
X157683500Y-96266000D01*
%TO.N,LED BLUE*%
X159189025Y-87340000D02*
X158700000Y-87829025D01*
X158700000Y-87829025D02*
X158700000Y-90855000D01*
X159921500Y-87340000D02*
X159189025Y-87340000D01*
X158700000Y-90855000D02*
X157099000Y-92456000D01*
%TO.N,LED GREEN*%
X157464000Y-94996000D02*
X157099000Y-94996000D01*
X159921500Y-87840000D02*
X159650000Y-88111500D01*
X159650000Y-88111500D02*
X159650000Y-92810000D01*
X159650000Y-92810000D02*
X157464000Y-94996000D01*
%TO.N,SCK*%
X162334000Y-91834000D02*
X164100000Y-93600000D01*
X168093000Y-103450000D02*
X168021000Y-103378000D01*
X147106000Y-92750000D02*
X146558000Y-92202000D01*
X148200000Y-100081000D02*
X148200000Y-92750000D01*
D57*
X169600000Y-107515000D02*
X169600000Y-103450000D01*
D53*
X162334000Y-89252500D02*
X162334000Y-91834000D01*
X154750000Y-101100000D02*
X149219000Y-101100000D01*
D57*
X166370000Y-110745000D02*
X169600000Y-107515000D01*
D53*
X149219000Y-101100000D02*
X148200000Y-100081000D01*
X148200000Y-92750000D02*
X147106000Y-92750000D01*
X169600000Y-103450000D02*
X168093000Y-103450000D01*
D57*
%TO.N,MISO*%
X161858000Y-102108000D02*
X160821000Y-102108000D01*
D53*
X162834000Y-89252500D02*
X162834000Y-90884000D01*
D57*
X164250000Y-104500000D02*
X161858000Y-102108000D01*
D53*
X159350000Y-102000000D02*
X160713000Y-102000000D01*
D57*
X168925000Y-109625000D02*
X168656000Y-109894000D01*
X168656000Y-109894000D02*
X168656000Y-110681000D01*
D53*
X162834000Y-90884000D02*
X163200000Y-91250000D01*
X160713000Y-102000000D02*
X160821000Y-102108000D01*
%TO.N,MOSI*%
X144700000Y-99140000D02*
X146558000Y-97282000D01*
X165875000Y-93894239D02*
X163950000Y-91969239D01*
X163334000Y-89984975D02*
X163334000Y-89252500D01*
X165875000Y-99250000D02*
X165875000Y-93894239D01*
X167650000Y-107813000D02*
X164719000Y-110744000D01*
X168021000Y-104648000D02*
X167854604Y-104648000D01*
X145300000Y-102150000D02*
X144700000Y-101550000D01*
X165875000Y-102668396D02*
X165875000Y-99250000D01*
X152300000Y-102700000D02*
X151750000Y-102150000D01*
X152300000Y-103200000D02*
X152300000Y-102700000D01*
X167650000Y-106100000D02*
X167650000Y-107813000D01*
X144700000Y-101550000D02*
X144700000Y-99140000D01*
X168021000Y-104648000D02*
X168021000Y-105729000D01*
X163950000Y-91969239D02*
X163950000Y-90600975D01*
X167854604Y-104648000D02*
X165875000Y-102668396D01*
X168021000Y-105729000D02*
X167650000Y-106100000D01*
X151750000Y-102150000D02*
X145300000Y-102150000D01*
X163950000Y-90600975D02*
X163334000Y-89984975D01*
%TO.N,SERVO1*%
X169800000Y-88161025D02*
X169800000Y-91950000D01*
X168246500Y-87340000D02*
X168978975Y-87340000D01*
X176911000Y-99061000D02*
X176911000Y-99695000D01*
X168978975Y-87340000D02*
X169800000Y-88161025D01*
X169800000Y-91950000D02*
X176911000Y-99061000D01*
%TO.N,SERVO2*%
X169490000Y-86840000D02*
X170300000Y-87650000D01*
X168246500Y-86840000D02*
X169490000Y-86840000D01*
X170300000Y-90850000D02*
X176605000Y-97155000D01*
X176605000Y-97155000D02*
X176911000Y-97155000D01*
X170300000Y-87650000D02*
X170300000Y-90850000D01*
%TO.N,SERVO3*%
X168246500Y-86340000D02*
X169779000Y-86340000D01*
X169779000Y-86340000D02*
X176911000Y-93472000D01*
%TO.N,USART1 TX*%
X168246500Y-85340000D02*
X167514025Y-85340000D01*
X167514025Y-85340000D02*
X166400000Y-86454025D01*
X166400000Y-86454025D02*
X166400000Y-86500000D01*
%TO.N,USART1 RX*%
X166999339Y-84840000D02*
X165539339Y-86300000D01*
X168246500Y-84840000D02*
X166999339Y-84840000D01*
X162850000Y-86300000D02*
X162350000Y-86800000D01*
X165539339Y-86300000D02*
X162850000Y-86300000D01*
%TO.N,SCL*%
X164650000Y-78950000D02*
X165700000Y-77900000D01*
X164334000Y-80927500D02*
X164334000Y-79266000D01*
X176234000Y-76566000D02*
X182000000Y-70800000D01*
X165250000Y-78950000D02*
X165600000Y-79300000D01*
X164334000Y-79266000D02*
X164650000Y-78950000D01*
X164650000Y-78950000D02*
X165250000Y-78950000D01*
X176134000Y-76566000D02*
X176234000Y-76566000D01*
X176950000Y-79050000D02*
X176950000Y-77382000D01*
X176134000Y-76566000D02*
X173863000Y-74295000D01*
X176950000Y-77382000D02*
X176134000Y-76566000D01*
X165700000Y-77900000D02*
X167750000Y-79950000D01*
X176050000Y-79950000D02*
X176950000Y-79050000D01*
X153850000Y-72400000D02*
X154073000Y-72400000D01*
X167750000Y-79950000D02*
X176050000Y-79950000D01*
X154073000Y-72400000D02*
X155070500Y-73397500D01*
%TO.N,SDA*%
X173950000Y-79450000D02*
X175150000Y-78250000D01*
X153050000Y-75305500D02*
X154195500Y-74160000D01*
X175150000Y-77550000D02*
X175150000Y-76500000D01*
X153050000Y-77713604D02*
X153050000Y-75305500D01*
X154586396Y-79250000D02*
X153050000Y-77713604D01*
X157950000Y-79250000D02*
X154586396Y-79250000D01*
X166524200Y-75450800D02*
X167805771Y-75450800D01*
X169995029Y-76695029D02*
X170000000Y-76700000D01*
X154195500Y-74160000D02*
X154558000Y-74160000D01*
X167805771Y-75450800D02*
X169050000Y-76695029D01*
X170000000Y-76700000D02*
X170000000Y-78150000D01*
X163834000Y-80927500D02*
X163834000Y-78583893D01*
X175150000Y-76500000D02*
X174110000Y-75460000D01*
X175349500Y-77550000D02*
X175150000Y-77550000D01*
X175150000Y-78250000D02*
X175150000Y-77550000D01*
X165675000Y-76300000D02*
X160900000Y-76300000D01*
X175999500Y-78200000D02*
X175349500Y-77550000D01*
X163834000Y-78583893D02*
X165675000Y-76742893D01*
X174110000Y-75460000D02*
X173448000Y-75460000D01*
X168650000Y-79450000D02*
X173950000Y-79450000D01*
X160900000Y-76300000D02*
X157950000Y-79250000D01*
X168650000Y-78150000D02*
X168650000Y-79450000D01*
X165675000Y-76742893D02*
X165675000Y-76300000D01*
X169050000Y-76695029D02*
X169995029Y-76695029D01*
X170000000Y-78150000D02*
X168650000Y-78150000D01*
X165675000Y-76300000D02*
X166524200Y-75450800D01*
D58*
%TO.N,BUZZER*%
X179500000Y-86500000D02*
X173700000Y-86500000D01*
D54*
X170900000Y-64950000D02*
X178550000Y-72600000D01*
D55*
X163834000Y-88329288D02*
X163834000Y-89252500D01*
D58*
X180800000Y-76350000D02*
X180800000Y-85200000D01*
D54*
X170900000Y-62800000D02*
X170900000Y-64950000D01*
D58*
X173700000Y-86500000D02*
X173100000Y-85900000D01*
D55*
X166773000Y-87273000D02*
X164890288Y-87273000D01*
D58*
X179250000Y-74800000D02*
X180800000Y-76350000D01*
D55*
X166850000Y-87350000D02*
X166773000Y-87273000D01*
X164890288Y-87273000D02*
X163834000Y-88329288D01*
D58*
X180800000Y-85200000D02*
X179500000Y-86500000D01*
D52*
%TO.N,+BATT*%
X180213000Y-120437000D02*
X180200000Y-120450000D01*
X180213000Y-117094000D02*
X180213000Y-120437000D01*
D53*
%TO.N,ACCEL INT1*%
X158493893Y-70903000D02*
X163290893Y-75700000D01*
X154427761Y-70903000D02*
X158493893Y-70903000D01*
X152400000Y-76000000D02*
X152400000Y-73469239D01*
X169578000Y-74750000D02*
X170033000Y-74295000D01*
X158460000Y-82840000D02*
X157800000Y-83500000D01*
X166042893Y-74750000D02*
X169578000Y-74750000D01*
X153200000Y-72130761D02*
X154427761Y-70903000D01*
X153200000Y-72669239D02*
X153200000Y-72130761D01*
X159921500Y-82840000D02*
X158460000Y-82840000D01*
X152400000Y-73469239D02*
X153200000Y-72669239D01*
X163290893Y-75700000D02*
X165092893Y-75700000D01*
X165092893Y-75700000D02*
X166042893Y-74750000D01*
D52*
%TO.N,Net-(Q2-D)*%
X175324000Y-110744000D02*
X175641000Y-111061000D01*
X173609000Y-110744000D02*
X175324000Y-110744000D01*
%TO.N,P1-*%
X180150000Y-109411000D02*
X180213000Y-109474000D01*
X175641000Y-109411000D02*
X180150000Y-109411000D01*
%TO.N,P2-*%
X175630000Y-103757000D02*
X179576000Y-103757000D01*
X179576000Y-103757000D02*
X180213000Y-104394000D01*
D53*
%TO.N,+3.3VA*%
X155011600Y-89251000D02*
X155371800Y-89611200D01*
X159921500Y-86340000D02*
X157323938Y-86340000D01*
X156897538Y-86766400D02*
X156565000Y-86766400D01*
X157323938Y-86340000D02*
X156897538Y-86766400D01*
X156565000Y-86766400D02*
X155345800Y-87985600D01*
X155345800Y-89585200D02*
X155371800Y-89611200D01*
X155345800Y-87985600D02*
X155345800Y-89585200D01*
X152654000Y-89251000D02*
X155011600Y-89251000D01*
D54*
%TO.N,Net-(J9-Pin_2)*%
X163703000Y-73280000D02*
X163703000Y-70485000D01*
X163703000Y-70485000D02*
X163830000Y-70358000D01*
D53*
%TO.N,BATT SENSE*%
X183550000Y-107950000D02*
X183550000Y-102550000D01*
X181550000Y-123100000D02*
X181550000Y-120350000D01*
X166318630Y-93250000D02*
X164400000Y-91331370D01*
X164400000Y-90414579D02*
X164334000Y-90348579D01*
X175350000Y-102550000D02*
X166318630Y-93518630D01*
X181550000Y-120350000D02*
X183550000Y-118350000D01*
D54*
X180101200Y-123100000D02*
X181550000Y-123100000D01*
D53*
X183600000Y-108000000D02*
X183550000Y-107950000D01*
X183550000Y-102550000D02*
X175350000Y-102550000D01*
X164334000Y-90348579D02*
X164334000Y-89252500D01*
X183550000Y-108050000D02*
X183600000Y-108000000D01*
X164400000Y-91331370D02*
X164400000Y-90414579D01*
X183550000Y-118350000D02*
X183550000Y-108050000D01*
X166318630Y-93518630D02*
X166318630Y-93250000D01*
D55*
%TO.N,BARO INT*%
X170350000Y-85800000D02*
X170310000Y-85840000D01*
X157250000Y-77650000D02*
X156400000Y-78500000D01*
X155570500Y-74922500D02*
X155570500Y-74420500D01*
X157250000Y-77250500D02*
X157250000Y-77650000D01*
X155570500Y-74420500D02*
X155350000Y-74200000D01*
X170310000Y-85840000D02*
X168246500Y-85840000D01*
D53*
%TO.N,FLASH CS*%
X160821000Y-100838000D02*
X160821000Y-92929000D01*
X160821000Y-92929000D02*
X161834000Y-91916000D01*
X161834000Y-91916000D02*
X161834000Y-89252500D01*
%TO.N,ACCEL INT2*%
X170448000Y-73130000D02*
X169220000Y-73130000D01*
X169220000Y-73130000D02*
X168250000Y-74100000D01*
X164850000Y-82350000D02*
X164850000Y-80943500D01*
X164850000Y-80943500D02*
X164834000Y-80927500D01*
%TO.N,GYRO INT4*%
X170700000Y-77700500D02*
X171200000Y-78200500D01*
X171448000Y-76030000D02*
X170700000Y-76778000D01*
X168800000Y-88393500D02*
X168246500Y-87840000D01*
X168800000Y-89150000D02*
X168800000Y-88393500D01*
X170700000Y-76778000D02*
X170700000Y-77700500D01*
X171448000Y-75460000D02*
X171448000Y-76030000D01*
%TO.N,GYRO INT3*%
X171948000Y-75460000D02*
X171948000Y-76221538D01*
X162834000Y-81684000D02*
X163400000Y-82250000D01*
X171400000Y-76769538D02*
X171400000Y-77100000D01*
X162834000Y-80927500D02*
X162834000Y-81684000D01*
X171948000Y-76221538D02*
X171400000Y-76769538D01*
D58*
%TO.N,SERVO4*%
X176911000Y-90932000D02*
X171500000Y-85521000D01*
X166450000Y-82300000D02*
X165889950Y-82300000D01*
X171500000Y-85521000D02*
X171500000Y-85150000D01*
D53*
X162334000Y-80927500D02*
X162334000Y-82334000D01*
X162334000Y-82334000D02*
X163050000Y-83050000D01*
D58*
X165139950Y-83050000D02*
X163653315Y-83050000D01*
X165889950Y-82300000D02*
X165139950Y-83050000D01*
D53*
X163050000Y-83050000D02*
X164000000Y-83050000D01*
%TO.N,CS SD*%
X160100000Y-89254025D02*
X160100000Y-97600000D01*
X160100000Y-97600000D02*
X154800000Y-102900000D01*
X160984000Y-87170025D02*
X160984000Y-88370025D01*
X161123000Y-108800000D02*
X163068000Y-110745000D01*
X154800000Y-108800000D02*
X161123000Y-108800000D01*
X154800000Y-102900000D02*
X154800000Y-108800000D01*
X159921500Y-86840000D02*
X160653975Y-86840000D01*
X160653975Y-86840000D02*
X160984000Y-87170025D01*
X160984000Y-88370025D02*
X160100000Y-89254025D01*
%TO.N,Net-(C20-Pad1)*%
X149479000Y-84226400D02*
X151701200Y-84226400D01*
X149479000Y-84226400D02*
X149479000Y-83488000D01*
X149479000Y-83488000D02*
X148463000Y-82472000D01*
%TO.N,P2 EN*%
X165334000Y-88084000D02*
X165334000Y-89252500D01*
D52*
X171323000Y-104394000D02*
X171323000Y-102679000D01*
X171323000Y-102679000D02*
X171260000Y-102616000D01*
D53*
X170750000Y-102106000D02*
X171260000Y-102616000D01*
X165150000Y-87900000D02*
X165334000Y-88084000D01*
X170750000Y-101200000D02*
X170750000Y-102106000D01*
D52*
%TO.N,P1 EN*%
X171334000Y-109794000D02*
X171334000Y-108215000D01*
D53*
X170174276Y-107760372D02*
X170879372Y-107760372D01*
X165834000Y-88188353D02*
X165834000Y-89252500D01*
X170879372Y-107760372D02*
X171260000Y-108141000D01*
D52*
X171334000Y-108215000D02*
X171260000Y-108141000D01*
D53*
X166029763Y-87992590D02*
X165834000Y-88188353D01*
%TO.N,Net-(D3-A)*%
X162687000Y-94645000D02*
X164970000Y-94645000D01*
X164970000Y-94645000D02*
X165100000Y-94775000D01*
D52*
%TO.N,unconnected-(J1-Shield-Pad6)*%
X182250000Y-79950000D02*
X182250000Y-82550000D01*
X182250000Y-84850000D02*
X182250000Y-87450000D01*
X182250000Y-82550000D02*
X182250000Y-84850000D01*
D57*
%TO.N,Net-(J8-CD{slash}DAT3)*%
X163068000Y-112395000D02*
X163068000Y-113368000D01*
X163068000Y-113368000D02*
X163100000Y-113400000D01*
%TO.N,Net-(J8-CMD)*%
X164719000Y-112394000D02*
X164719000Y-112931000D01*
X164719000Y-112931000D02*
X164250000Y-113400000D01*
%TO.N,Net-(J8-CLK)*%
X166370000Y-112395000D02*
X166370000Y-113420000D01*
X166370000Y-113420000D02*
X166400000Y-113450000D01*
%TO.N,Net-(J8-DAT0)*%
X168656000Y-112331000D02*
X168656000Y-113394000D01*
X168656000Y-113394000D02*
X168600000Y-113450000D01*
D52*
%TO.N,Net-(Q1-S)*%
X170990500Y-119227600D02*
X173131400Y-119227600D01*
X173131400Y-119227600D02*
X173202600Y-119298800D01*
%TO.N,Net-(Q3-D)*%
X175567000Y-105344000D02*
X175630000Y-105407000D01*
X173598000Y-105344000D02*
X175567000Y-105344000D01*
%TO.N,Net-(U2-ADJ)*%
X160600000Y-127200000D02*
X159428000Y-127200000D01*
X159428000Y-127200000D02*
X159233000Y-127395000D01*
D53*
%TO.N,CS BRKOUT*%
X161400000Y-84350000D02*
X160890000Y-83840000D01*
X160890000Y-83840000D02*
X159921500Y-83840000D01*
%TO.N,PC14*%
X152650000Y-99050000D02*
X154000000Y-100400000D01*
X152650000Y-97750000D02*
X152650000Y-99050000D01*
X154500000Y-94650000D02*
X154500000Y-95900000D01*
X155039950Y-100400000D02*
X155450000Y-100810050D01*
X155450000Y-100810050D02*
X155450000Y-101389950D01*
X152826950Y-104013000D02*
X148336000Y-104013000D01*
X159921500Y-83340000D02*
X161540000Y-83340000D01*
X161540000Y-83340000D02*
X161550000Y-83350000D01*
X154000000Y-100400000D02*
X155039950Y-100400000D01*
X155450000Y-101389950D02*
X152826950Y-104013000D01*
X154500000Y-95900000D02*
X152650000Y-97750000D01*
D52*
%TO.N,SERVO POWER*%
X179451000Y-93472000D02*
X179451000Y-97155000D01*
X179451000Y-97155000D02*
X179451000Y-99695000D01*
X179451000Y-90932000D02*
X179451000Y-93472000D01*
D53*
%TO.N,PB2*%
X157200000Y-101800000D02*
X155650000Y-103350000D01*
X164834000Y-89252500D02*
X164850000Y-89268500D01*
X164850000Y-90699500D02*
X165050500Y-90900000D01*
X155650000Y-103350000D02*
X155650000Y-107600000D01*
X153550000Y-115900000D02*
X152737000Y-116713000D01*
X167208931Y-96991069D02*
X166550000Y-97650000D01*
X152737000Y-116713000D02*
X148336000Y-116713000D01*
X164850000Y-89268500D02*
X164850000Y-90699500D01*
X166550000Y-97650000D02*
X166550000Y-101500000D01*
D52*
%TO.N,Net-(Q1-D)*%
X175477600Y-118348800D02*
X175477600Y-118527600D01*
X175477600Y-118527600D02*
X177400000Y-120450000D01*
%TD*%
%TA.AperFunction,Conductor*%
%TO.N,+3V3*%
G36*
X167628800Y-122698613D02*
G01*
X167674187Y-122744000D01*
X167690800Y-122806000D01*
X167690800Y-124002800D01*
X175238421Y-124052784D01*
X175300074Y-124069669D01*
X175345124Y-124115018D01*
X175361600Y-124176781D01*
X175361600Y-125860000D01*
X175344987Y-125922000D01*
X175299600Y-125967387D01*
X175237600Y-125984000D01*
X167690800Y-125984000D01*
X167690800Y-126000326D01*
X167690800Y-127076745D01*
X167673780Y-127139445D01*
X167627391Y-127184933D01*
X167564369Y-127200720D01*
X165221567Y-127154783D01*
X165160602Y-127137376D01*
X165116210Y-127092105D01*
X165100000Y-127030808D01*
X165100000Y-122806000D01*
X165116613Y-122744000D01*
X165162000Y-122698613D01*
X165224000Y-122682000D01*
X167566800Y-122682000D01*
X167628800Y-122698613D01*
G37*
%TD.AperFunction*%
%TD*%
%TA.AperFunction,Conductor*%
%TO.N,+12V*%
G36*
X175350400Y-121885813D02*
G01*
X175395787Y-121931200D01*
X175412400Y-121993200D01*
X175412400Y-123624800D01*
X175395787Y-123686800D01*
X175350400Y-123732187D01*
X175288400Y-123748800D01*
X171472400Y-123748800D01*
X171410400Y-123732187D01*
X171365013Y-123686800D01*
X171348400Y-123624800D01*
X171348400Y-121993200D01*
X171365013Y-121931200D01*
X171410400Y-121885813D01*
X171472400Y-121869200D01*
X175288400Y-121869200D01*
X175350400Y-121885813D01*
G37*
%TD.AperFunction*%
%TD*%
%TA.AperFunction,Conductor*%
%TO.N,+5V*%
G36*
X154268400Y-123003413D02*
G01*
X154313787Y-123048800D01*
X154330400Y-123110800D01*
X154330400Y-124053600D01*
X162385200Y-124053600D01*
X162447200Y-124070213D01*
X162492587Y-124115600D01*
X162509200Y-124177600D01*
X162509200Y-126012400D01*
X162492587Y-126074400D01*
X162447200Y-126119787D01*
X162385200Y-126136400D01*
X154330400Y-126136400D01*
X154330400Y-126152726D01*
X154330400Y-127130000D01*
X154313787Y-127192000D01*
X154268400Y-127237387D01*
X154206400Y-127254000D01*
X151863600Y-127254000D01*
X151801600Y-127237387D01*
X151756213Y-127192000D01*
X151739600Y-127130000D01*
X151739600Y-123110800D01*
X151756213Y-123048800D01*
X151801600Y-123003413D01*
X151863600Y-122986800D01*
X154206400Y-122986800D01*
X154268400Y-123003413D01*
G37*
%TD.AperFunction*%
%TD*%
%TA.AperFunction,Conductor*%
%TO.N,+12V*%
G36*
X162253888Y-121938954D02*
G01*
X162334670Y-121992930D01*
X162388646Y-122073712D01*
X162407600Y-122169000D01*
X162407600Y-123474400D01*
X162388646Y-123569688D01*
X162334670Y-123650470D01*
X162253888Y-123704446D01*
X162158600Y-123723400D01*
X158338600Y-123723400D01*
X158243312Y-123704446D01*
X158162530Y-123650470D01*
X158108554Y-123569688D01*
X158089600Y-123474400D01*
X158089600Y-122169000D01*
X158108554Y-122073712D01*
X158162530Y-121992930D01*
X158243312Y-121938954D01*
X158338600Y-121920000D01*
X162158600Y-121920000D01*
X162253888Y-121938954D01*
G37*
%TD.AperFunction*%
%TD*%
M02*
