%TF.GenerationSoftware,KiCad,Pcbnew,(7.0.0)*%
%TF.CreationDate,2023-07-06T15:25:36+01:00*%
%TF.ProjectId,wolf flight comp,776f6c66-2066-46c6-9967-687420636f6d,rev?*%
%TF.SameCoordinates,Original*%
%TF.FileFunction,Drillmap*%
%TF.FilePolarity,Positive*%
%FSLAX45Y45*%
G04 Gerber Fmt 4.5, Leading zero omitted, Abs format (unit mm)*
G04 Created by KiCad (PCBNEW (7.0.0)) date 2023-07-06 15:25:36*
%MOMM*%
%LPD*%
G01*
G04 APERTURE LIST*
%ADD10C,0.100000*%
%ADD11C,0.200000*%
G04 APERTURE END LIST*
D10*
X14414500Y-5517500D02*
X18414500Y-5517500D01*
X18414500Y-5517500D02*
X18414500Y-13017500D01*
X18414500Y-13017500D02*
X14414500Y-13017500D01*
X14414500Y-13017500D02*
X14414500Y-5517500D01*
D11*
X14657119Y-13315976D02*
X14657119Y-13115976D01*
X14657119Y-13115976D02*
X14704738Y-13115976D01*
X14704738Y-13115976D02*
X14733309Y-13125500D01*
X14733309Y-13125500D02*
X14752357Y-13144548D01*
X14752357Y-13144548D02*
X14761881Y-13163595D01*
X14761881Y-13163595D02*
X14771405Y-13201690D01*
X14771405Y-13201690D02*
X14771405Y-13230262D01*
X14771405Y-13230262D02*
X14761881Y-13268357D01*
X14761881Y-13268357D02*
X14752357Y-13287405D01*
X14752357Y-13287405D02*
X14733309Y-13306452D01*
X14733309Y-13306452D02*
X14704738Y-13315976D01*
X14704738Y-13315976D02*
X14657119Y-13315976D01*
X14857119Y-13315976D02*
X14857119Y-13182643D01*
X14857119Y-13220738D02*
X14866643Y-13201690D01*
X14866643Y-13201690D02*
X14876167Y-13192167D01*
X14876167Y-13192167D02*
X14895214Y-13182643D01*
X14895214Y-13182643D02*
X14914262Y-13182643D01*
X14980928Y-13315976D02*
X14980928Y-13182643D01*
X14980928Y-13115976D02*
X14971405Y-13125500D01*
X14971405Y-13125500D02*
X14980928Y-13135024D01*
X14980928Y-13135024D02*
X14990452Y-13125500D01*
X14990452Y-13125500D02*
X14980928Y-13115976D01*
X14980928Y-13115976D02*
X14980928Y-13135024D01*
X15104738Y-13315976D02*
X15085690Y-13306452D01*
X15085690Y-13306452D02*
X15076167Y-13287405D01*
X15076167Y-13287405D02*
X15076167Y-13115976D01*
X15209500Y-13315976D02*
X15190452Y-13306452D01*
X15190452Y-13306452D02*
X15180928Y-13287405D01*
X15180928Y-13287405D02*
X15180928Y-13115976D01*
X15405690Y-13315976D02*
X15405690Y-13115976D01*
X15405690Y-13115976D02*
X15472357Y-13258833D01*
X15472357Y-13258833D02*
X15539024Y-13115976D01*
X15539024Y-13115976D02*
X15539024Y-13315976D01*
X15719976Y-13315976D02*
X15719976Y-13211214D01*
X15719976Y-13211214D02*
X15710452Y-13192167D01*
X15710452Y-13192167D02*
X15691405Y-13182643D01*
X15691405Y-13182643D02*
X15653309Y-13182643D01*
X15653309Y-13182643D02*
X15634262Y-13192167D01*
X15719976Y-13306452D02*
X15700928Y-13315976D01*
X15700928Y-13315976D02*
X15653309Y-13315976D01*
X15653309Y-13315976D02*
X15634262Y-13306452D01*
X15634262Y-13306452D02*
X15624738Y-13287405D01*
X15624738Y-13287405D02*
X15624738Y-13268357D01*
X15624738Y-13268357D02*
X15634262Y-13249309D01*
X15634262Y-13249309D02*
X15653309Y-13239786D01*
X15653309Y-13239786D02*
X15700928Y-13239786D01*
X15700928Y-13239786D02*
X15719976Y-13230262D01*
X15815214Y-13182643D02*
X15815214Y-13382643D01*
X15815214Y-13192167D02*
X15834262Y-13182643D01*
X15834262Y-13182643D02*
X15872357Y-13182643D01*
X15872357Y-13182643D02*
X15891405Y-13192167D01*
X15891405Y-13192167D02*
X15900928Y-13201690D01*
X15900928Y-13201690D02*
X15910452Y-13220738D01*
X15910452Y-13220738D02*
X15910452Y-13277881D01*
X15910452Y-13277881D02*
X15900928Y-13296928D01*
X15900928Y-13296928D02*
X15891405Y-13306452D01*
X15891405Y-13306452D02*
X15872357Y-13315976D01*
X15872357Y-13315976D02*
X15834262Y-13315976D01*
X15834262Y-13315976D02*
X15815214Y-13306452D01*
X15996167Y-13296928D02*
X16005690Y-13306452D01*
X16005690Y-13306452D02*
X15996167Y-13315976D01*
X15996167Y-13315976D02*
X15986643Y-13306452D01*
X15986643Y-13306452D02*
X15996167Y-13296928D01*
X15996167Y-13296928D02*
X15996167Y-13315976D01*
X15996167Y-13192167D02*
X16005690Y-13201690D01*
X16005690Y-13201690D02*
X15996167Y-13211214D01*
X15996167Y-13211214D02*
X15986643Y-13201690D01*
X15986643Y-13201690D02*
X15996167Y-13192167D01*
X15996167Y-13192167D02*
X15996167Y-13211214D01*
M02*
