<?xml version="1.0" standalone="no"?>
 <!DOCTYPE svg PUBLIC "-//W3C//DTD SVG 1.1//EN" 
 "http://www.w3.org/Graphics/SVG/1.1/DTD/svg11.dtd"> 
<svg
  xmlns:svg="http://www.w3.org/2000/svg"
  xmlns="http://www.w3.org/2000/svg"
  xmlns:xlink="http://www.w3.org/1999/xlink"
  version="1.1"
  width="49.2252mm" height="78.9940mm" viewBox="0.0000 0.0000 49.2252 78.9940">
<title>SVG Image created as lyra r1-B_Paste.svg date 2023/08/15 13:54:29 </title>
  <desc>Image generated by PCBNEW </desc>
<g style="fill:#000000; fill-opacity:1.0000;stroke:#000000; stroke-opacity:1.0000;
stroke-linecap:round; stroke-linejoin:round;"
 transform="translate(0 0) scale(1 1)">
</g>
<g style="fill:#000000; fill-opacity:0.0; 
stroke:#000000; stroke-width:0.0000; stroke-opacity:1; 
stroke-linecap:round; stroke-linejoin:round;">
<g >
</g>
<g >
</g>
<g >
</g>
<g >
</g>
<g >
</g>
<g >
</g>
<g >
</g>
<g >
</g>
<g >
</g>
<g >
</g>
<g >
</g>
<g >
</g>
<g >
</g>
<g >
</g>
<g >
</g>
<g >
</g>
<g >
</g>
<g >
</g>
<g >
</g>
<g >
</g>
<g >
</g>
<g >
</g>
<g >
</g>
<g >
</g>
<g >
</g>
<g >
</g>
<g >
</g>
<g >
</g>
<g >
</g>
<g >
</g>
<g >
</g>
<g >
</g>
<g >
</g>
<g >
</g>
<g >
</g>
<g >
</g>
<g >
</g>
<g >
</g>
<g >
</g>
<g >
</g>
<g >
</g>
<g >
</g>
<g >
</g>
<g >
</g>
<g >
</g>
<g >
</g>
<g >
</g>
<g >
</g>
<g >
</g>
<g >
</g>
<g >
</g>
<g >
</g>
<g >
</g>
<g >
</g>
<g >
</g>
<g >
</g>
<g style="fill:#000000; fill-opacity:0.0; 
stroke:#000000; stroke-width:0.0000; stroke-opacity:1; 
stroke-linecap:round; stroke-linejoin:round;">
</g>
<g style="fill:#000000; fill-opacity:0.0; 
stroke:#000000; stroke-width:0.0000; stroke-opacity:1; 
stroke-linecap:round; stroke-linejoin:round;">
</g>
<g style="fill:#000000; fill-opacity:1.0000; 
stroke:#000000; stroke-width:0.0000; stroke-opacity:1; 
stroke-linecap:round; stroke-linejoin:round;">
<path style="fill:#000000; fill-opacity:1.0000; 
stroke:#000000; stroke-width:0.0000; stroke-opacity:1; 
stroke-linecap:round; stroke-linejoin:round;fill-rule:evenodd;"
d="M 30.4375,72.0125
30.4556,71.9216
30.5071,71.8446
30.5841,71.7931
30.6750,71.7750
31.1750,71.7750
31.2659,71.7931
31.3429,71.8446
31.3944,71.9216
31.4125,72.0125
31.4125,72.4875
31.3944,72.5784
31.3429,72.6554
31.2659,72.7069
31.1750,72.7250
30.6750,72.7250
30.5841,72.7069
30.5071,72.6554
30.4556,72.5784
30.4375,72.4875
Z" /> 
<path style="fill:#000000; fill-opacity:1.0000; 
stroke:#000000; stroke-width:0.0000; stroke-opacity:1; 
stroke-linecap:round; stroke-linejoin:round;fill-rule:evenodd;"
d="M 32.2625,72.0125
32.2806,71.9216
32.3321,71.8446
32.4091,71.7931
32.5000,71.7750
33.0000,71.7750
33.0909,71.7931
33.1679,71.8446
33.2194,71.9216
33.2375,72.0125
33.2375,72.4875
33.2194,72.5784
33.1679,72.6554
33.0909,72.7069
33.0000,72.7250
32.5000,72.7250
32.4091,72.7069
32.3321,72.6554
32.2806,72.5784
32.2625,72.4875
Z" /> 
</g>
<g >
</g>
<g style="fill:#000000; fill-opacity:1.0000; 
stroke:#000000; stroke-width:0.0000; stroke-opacity:1; 
stroke-linecap:round; stroke-linejoin:round;">
<path style="fill:#000000; fill-opacity:1.0000; 
stroke:#000000; stroke-width:0.0000; stroke-opacity:1; 
stroke-linecap:round; stroke-linejoin:round;fill-rule:evenodd;"
d="M 15.0674,39.3982
15.1439,39.4134
15.2088,39.4568
15.2522,39.5217
15.2674,39.5982
15.2674,39.9982
15.2522,40.0747
15.2088,40.1396
15.1439,40.1830
15.0674,40.1982
14.5174,40.1982
14.4409,40.1830
14.3760,40.1396
14.3326,40.0747
14.3174,39.9982
14.3174,39.5982
14.3326,39.5217
14.3760,39.4568
14.4409,39.4134
14.5174,39.3982
Z" /> 
<path style="fill:#000000; fill-opacity:1.0000; 
stroke:#000000; stroke-width:0.0000; stroke-opacity:1; 
stroke-linecap:round; stroke-linejoin:round;fill-rule:evenodd;"
d="M 15.0674,41.0482
15.1439,41.0634
15.2088,41.1068
15.2522,41.1717
15.2674,41.2482
15.2674,41.6482
15.2522,41.7247
15.2088,41.7896
15.1439,41.8330
15.0674,41.8482
14.5174,41.8482
14.4409,41.8330
14.3760,41.7896
14.3326,41.7247
14.3174,41.6482
14.3174,41.2482
14.3326,41.1717
14.3760,41.1068
14.4409,41.0634
14.5174,41.0482
Z" /> 
</g>
<g >
</g>
<g style="fill:#000000; fill-opacity:1.0000; 
stroke:#000000; stroke-width:0.0000; stroke-opacity:1; 
stroke-linecap:round; stroke-linejoin:round;">
<path style="fill:#000000; fill-opacity:1.0000; 
stroke:#000000; stroke-width:0.0000; stroke-opacity:1; 
stroke-linecap:round; stroke-linejoin:round;fill-rule:evenodd;"
d="M 17.8600,25.6920
17.8771,25.6059
17.9259,25.5329
17.9989,25.4841
18.0850,25.4670
18.5350,25.4670
18.6211,25.4841
18.6941,25.5329
18.7429,25.6059
18.7600,25.6920
18.7600,26.1920
18.7429,26.2781
18.6941,26.3511
18.6211,26.3999
18.5350,26.4170
18.0850,26.4170
17.9989,26.3999
17.9259,26.3511
17.8771,26.2781
17.8600,26.1920
Z" /> 
<path style="fill:#000000; fill-opacity:1.0000; 
stroke:#000000; stroke-width:0.0000; stroke-opacity:1; 
stroke-linecap:round; stroke-linejoin:round;fill-rule:evenodd;"
d="M 19.4100,25.6920
19.4271,25.6059
19.4759,25.5329
19.5489,25.4841
19.6350,25.4670
20.0850,25.4670
20.1711,25.4841
20.2441,25.5329
20.2929,25.6059
20.3100,25.6920
20.3100,26.1920
20.2929,26.2781
20.2441,26.3511
20.1711,26.3999
20.0850,26.4170
19.6350,26.4170
19.5489,26.3999
19.4759,26.3511
19.4271,26.2781
19.4100,26.1920
Z" /> 
</g>
<g >
</g>
<g style="fill:#000000; fill-opacity:1.0000; 
stroke:#000000; stroke-width:0.0000; stroke-opacity:1; 
stroke-linecap:round; stroke-linejoin:round;">
<path style="fill:#000000; fill-opacity:1.0000; 
stroke:#000000; stroke-width:0.0000; stroke-opacity:1; 
stroke-linecap:round; stroke-linejoin:round;fill-rule:evenodd;"
d="M 16.2206,19.9436
16.2035,20.0297
16.1547,20.1027
16.0817,20.1515
15.9956,20.1686
15.5456,20.1686
15.4595,20.1515
15.3865,20.1027
15.3377,20.0297
15.3206,19.9436
15.3206,19.4436
15.3377,19.3575
15.3865,19.2845
15.4595,19.2357
15.5456,19.2186
15.9956,19.2186
16.0817,19.2357
16.1547,19.2845
16.2035,19.3575
16.2206,19.4436
Z" /> 
<path style="fill:#000000; fill-opacity:1.0000; 
stroke:#000000; stroke-width:0.0000; stroke-opacity:1; 
stroke-linecap:round; stroke-linejoin:round;fill-rule:evenodd;"
d="M 14.6706,19.9436
14.6535,20.0297
14.6047,20.1027
14.5317,20.1515
14.4456,20.1686
13.9956,20.1686
13.9095,20.1515
13.8365,20.1027
13.7877,20.0297
13.7706,19.9436
13.7706,19.4436
13.7877,19.3575
13.8365,19.2845
13.9095,19.2357
13.9956,19.2186
14.4456,19.2186
14.5317,19.2357
14.6047,19.2845
14.6535,19.3575
14.6706,19.4436
Z" /> 
</g>
<g >
</g>
<g style="fill:#000000; fill-opacity:1.0000; 
stroke:#000000; stroke-width:0.0000; stroke-opacity:1; 
stroke-linecap:round; stroke-linejoin:round;">
<path style="fill:#000000; fill-opacity:1.0000; 
stroke:#000000; stroke-width:0.0000; stroke-opacity:1; 
stroke-linecap:round; stroke-linejoin:round;fill-rule:evenodd;"
d="M 17.9000,72.7750
17.8848,72.8515
17.8414,72.9164
17.7765,72.9598
17.7000,72.9750
17.3000,72.9750
17.2235,72.9598
17.1586,72.9164
17.1152,72.8515
17.1000,72.7750
17.1000,72.2250
17.1152,72.1485
17.1586,72.0836
17.2235,72.0402
17.3000,72.0250
17.7000,72.0250
17.7765,72.0402
17.8414,72.0836
17.8848,72.1485
17.9000,72.2250
Z" /> 
<path style="fill:#000000; fill-opacity:1.0000; 
stroke:#000000; stroke-width:0.0000; stroke-opacity:1; 
stroke-linecap:round; stroke-linejoin:round;fill-rule:evenodd;"
d="M 16.2500,72.7750
16.2348,72.8515
16.1914,72.9164
16.1265,72.9598
16.0500,72.9750
15.6500,72.9750
15.5735,72.9598
15.5086,72.9164
15.4652,72.8515
15.4500,72.7750
15.4500,72.2250
15.4652,72.1485
15.5086,72.0836
15.5735,72.0402
15.6500,72.0250
16.0500,72.0250
16.1265,72.0402
16.1914,72.0836
16.2348,72.1485
16.2500,72.2250
Z" /> 
</g>
<g >
</g>
<g style="fill:#000000; fill-opacity:1.0000; 
stroke:#000000; stroke-width:0.0000; stroke-opacity:1; 
stroke-linecap:round; stroke-linejoin:round;">
<path style="fill:#000000; fill-opacity:1.0000; 
stroke:#000000; stroke-width:0.0000; stroke-opacity:1; 
stroke-linecap:round; stroke-linejoin:round;fill-rule:evenodd;"
d="M 16.0820,65.6960
16.0972,65.6195
16.1406,65.5546
16.2055,65.5112
16.2820,65.4960
16.6820,65.4960
16.7585,65.5112
16.8234,65.5546
16.8668,65.6195
16.8820,65.6960
16.8820,66.2460
16.8668,66.3225
16.8234,66.3874
16.7585,66.4308
16.6820,66.4460
16.2820,66.4460
16.2055,66.4308
16.1406,66.3874
16.0972,66.3225
16.0820,66.2460
Z" /> 
<path style="fill:#000000; fill-opacity:1.0000; 
stroke:#000000; stroke-width:0.0000; stroke-opacity:1; 
stroke-linecap:round; stroke-linejoin:round;fill-rule:evenodd;"
d="M 17.7320,65.6960
17.7472,65.6195
17.7906,65.5546
17.8555,65.5112
17.9320,65.4960
18.3320,65.4960
18.4085,65.5112
18.4734,65.5546
18.5168,65.6195
18.5320,65.6960
18.5320,66.2460
18.5168,66.3225
18.4734,66.3874
18.4085,66.4308
18.3320,66.4460
17.9320,66.4460
17.8555,66.4308
17.7906,66.3874
17.7472,66.3225
17.7320,66.2460
Z" /> 
</g>
<g >
</g>
<g style="fill:#000000; fill-opacity:1.0000; 
stroke:#000000; stroke-width:0.0000; stroke-opacity:1; 
stroke-linecap:round; stroke-linejoin:round;">
<path style="fill:#000000; fill-opacity:1.0000; 
stroke:#000000; stroke-width:0.0000; stroke-opacity:1; 
stroke-linecap:round; stroke-linejoin:round;fill-rule:evenodd;"
d="M 28.5650,17.8100
28.5479,17.8961
28.4991,17.9691
28.4261,18.0179
28.3400,18.0350
27.8900,18.0350
27.8039,18.0179
27.7309,17.9691
27.6821,17.8961
27.6650,17.8100
27.6650,17.3100
27.6821,17.2239
27.7309,17.1509
27.8039,17.1021
27.8900,17.0850
28.3400,17.0850
28.4261,17.1021
28.4991,17.1509
28.5479,17.2239
28.5650,17.3100
Z" /> 
<path style="fill:#000000; fill-opacity:1.0000; 
stroke:#000000; stroke-width:0.0000; stroke-opacity:1; 
stroke-linecap:round; stroke-linejoin:round;fill-rule:evenodd;"
d="M 27.0150,17.8100
26.9979,17.8961
26.9491,17.9691
26.8761,18.0179
26.7900,18.0350
26.3400,18.0350
26.2539,18.0179
26.1809,17.9691
26.1321,17.8961
26.1150,17.8100
26.1150,17.3100
26.1321,17.2239
26.1809,17.1509
26.2539,17.1021
26.3400,17.0850
26.7900,17.0850
26.8761,17.1021
26.9491,17.1509
26.9979,17.2239
27.0150,17.3100
Z" /> 
</g>
<g >
</g>
<g style="fill:#000000; fill-opacity:1.0000; 
stroke:#000000; stroke-width:0.0000; stroke-opacity:1; 
stroke-linecap:round; stroke-linejoin:round;">
<path style="fill:#000000; fill-opacity:1.0000; 
stroke:#000000; stroke-width:0.0000; stroke-opacity:1; 
stroke-linecap:round; stroke-linejoin:round;fill-rule:evenodd;"
d="M 26.2420,36.7410
26.2591,36.6549
26.3079,36.5819
26.3809,36.5331
26.4670,36.5160
26.9170,36.5160
27.0031,36.5331
27.0761,36.5819
27.1249,36.6549
27.1420,36.7410
27.1420,37.2410
27.1249,37.3271
27.0761,37.4001
27.0031,37.4489
26.9170,37.4660
26.4670,37.4660
26.3809,37.4489
26.3079,37.4001
26.2591,37.3271
26.2420,37.2410
Z" /> 
<path style="fill:#000000; fill-opacity:1.0000; 
stroke:#000000; stroke-width:0.0000; stroke-opacity:1; 
stroke-linecap:round; stroke-linejoin:round;fill-rule:evenodd;"
d="M 27.7920,36.7410
27.8091,36.6549
27.8579,36.5819
27.9309,36.5331
28.0170,36.5160
28.4670,36.5160
28.5531,36.5331
28.6261,36.5819
28.6749,36.6549
28.6920,36.7410
28.6920,37.2410
28.6749,37.3271
28.6261,37.4001
28.5531,37.4489
28.4670,37.4660
28.0170,37.4660
27.9309,37.4489
27.8579,37.4001
27.8091,37.3271
27.7920,37.2410
Z" /> 
</g>
<g >
</g>
<g style="fill:#000000; fill-opacity:1.0000; 
stroke:#000000; stroke-width:0.0000; stroke-opacity:1; 
stroke-linecap:round; stroke-linejoin:round;">
<path style="fill:#000000; fill-opacity:1.0000; 
stroke:#000000; stroke-width:0.0000; stroke-opacity:1; 
stroke-linecap:round; stroke-linejoin:round;fill-rule:evenodd;"
d="M 15.3500,74.2625
15.3681,74.1716
15.4196,74.0946
15.4966,74.0431
15.5875,74.0250
16.0875,74.0250
16.1784,74.0431
16.2554,74.0946
16.3069,74.1716
16.3250,74.2625
16.3250,74.7375
16.3069,74.8284
16.2554,74.9054
16.1784,74.9569
16.0875,74.9750
15.5875,74.9750
15.4966,74.9569
15.4196,74.9054
15.3681,74.8284
15.3500,74.7375
Z" /> 
<path style="fill:#000000; fill-opacity:1.0000; 
stroke:#000000; stroke-width:0.0000; stroke-opacity:1; 
stroke-linecap:round; stroke-linejoin:round;fill-rule:evenodd;"
d="M 17.1750,74.2625
17.1931,74.1716
17.2446,74.0946
17.3216,74.0431
17.4125,74.0250
17.9125,74.0250
18.0034,74.0431
18.0804,74.0946
18.1319,74.1716
18.1500,74.2625
18.1500,74.7375
18.1319,74.8284
18.0804,74.9054
18.0034,74.9569
17.9125,74.9750
17.4125,74.9750
17.3216,74.9569
17.2446,74.9054
17.1931,74.8284
17.1750,74.7375
Z" /> 
</g>
<g >
</g>
<g style="fill:#000000; fill-opacity:1.0000; 
stroke:#000000; stroke-width:0.0000; stroke-opacity:1; 
stroke-linecap:round; stroke-linejoin:round;">
<path style="fill:#000000; fill-opacity:1.0000; 
stroke:#000000; stroke-width:0.0000; stroke-opacity:1; 
stroke-linecap:round; stroke-linejoin:round;fill-rule:evenodd;"
d="M 18.5320,67.7460
18.5168,67.8225
18.4734,67.8874
18.4085,67.9308
18.3320,67.9460
17.9320,67.9460
17.8555,67.9308
17.7906,67.8874
17.7472,67.8225
17.7320,67.7460
17.7320,67.1960
17.7472,67.1195
17.7906,67.0546
17.8555,67.0112
17.9320,66.9960
18.3320,66.9960
18.4085,67.0112
18.4734,67.0546
18.5168,67.1195
18.5320,67.1960
Z" /> 
<path style="fill:#000000; fill-opacity:1.0000; 
stroke:#000000; stroke-width:0.0000; stroke-opacity:1; 
stroke-linecap:round; stroke-linejoin:round;fill-rule:evenodd;"
d="M 16.8820,67.7460
16.8668,67.8225
16.8234,67.8874
16.7585,67.9308
16.6820,67.9460
16.2820,67.9460
16.2055,67.9308
16.1406,67.8874
16.0972,67.8225
16.0820,67.7460
16.0820,67.1960
16.0972,67.1195
16.1406,67.0546
16.2055,67.0112
16.2820,66.9960
16.6820,66.9960
16.7585,67.0112
16.8234,67.0546
16.8668,67.1195
16.8820,67.1960
Z" /> 
</g>
<g >
</g>
<g >
</g>
<g style="fill:#000000; fill-opacity:1.0000; 
stroke:#000000; stroke-width:0.0000; stroke-opacity:1; 
stroke-linecap:round; stroke-linejoin:round;">
<path style="fill:#000000; fill-opacity:1.0000; 
stroke:#000000; stroke-width:0.0000; stroke-opacity:1; 
stroke-linecap:round; stroke-linejoin:round;fill-rule:evenodd;"
d="M 14.5250,17.7164
14.5421,17.6303
14.5909,17.5573
14.6639,17.5085
14.7500,17.4914
15.2000,17.4914
15.2861,17.5085
15.3591,17.5573
15.4079,17.6303
15.4250,17.7164
15.4250,18.2164
15.4079,18.3025
15.3591,18.3755
15.2861,18.4243
15.2000,18.4414
14.7500,18.4414
14.6639,18.4243
14.5909,18.3755
14.5421,18.3025
14.5250,18.2164
Z" /> 
<path style="fill:#000000; fill-opacity:1.0000; 
stroke:#000000; stroke-width:0.0000; stroke-opacity:1; 
stroke-linecap:round; stroke-linejoin:round;fill-rule:evenodd;"
d="M 16.0750,17.7164
16.0921,17.6303
16.1409,17.5573
16.2139,17.5085
16.3000,17.4914
16.7500,17.4914
16.8361,17.5085
16.9091,17.5573
16.9579,17.6303
16.9750,17.7164
16.9750,18.2164
16.9579,18.3025
16.9091,18.3755
16.8361,18.4243
16.7500,18.4414
16.3000,18.4414
16.2139,18.4243
16.1409,18.3755
16.0921,18.3025
16.0750,18.2164
Z" /> 
</g>
<g >
</g>
<g style="fill:#000000; fill-opacity:1.0000; 
stroke:#000000; stroke-width:0.0000; stroke-opacity:1; 
stroke-linecap:round; stroke-linejoin:round;">
<path style="fill:#000000; fill-opacity:1.0000; 
stroke:#000000; stroke-width:0.0000; stroke-opacity:1; 
stroke-linecap:round; stroke-linejoin:round;fill-rule:evenodd;"
d="M 19.1300,34.2010
19.1471,34.1149
19.1959,34.0419
19.2689,33.9931
19.3550,33.9760
19.8050,33.9760
19.8911,33.9931
19.9641,34.0419
20.0129,34.1149
20.0300,34.2010
20.0300,34.7010
20.0129,34.7871
19.9641,34.8601
19.8911,34.9089
19.8050,34.9260
19.3550,34.9260
19.2689,34.9089
19.1959,34.8601
19.1471,34.7871
19.1300,34.7010
Z" /> 
<path style="fill:#000000; fill-opacity:1.0000; 
stroke:#000000; stroke-width:0.0000; stroke-opacity:1; 
stroke-linecap:round; stroke-linejoin:round;fill-rule:evenodd;"
d="M 20.6800,34.2010
20.6971,34.1149
20.7459,34.0419
20.8189,33.9931
20.9050,33.9760
21.3550,33.9760
21.4411,33.9931
21.5141,34.0419
21.5629,34.1149
21.5800,34.2010
21.5800,34.7010
21.5629,34.7871
21.5141,34.8601
21.4411,34.9089
21.3550,34.9260
20.9050,34.9260
20.8189,34.9089
20.7459,34.8601
20.6971,34.7871
20.6800,34.7010
Z" /> 
</g>
<g >
</g>
<g style="fill:#000000; fill-opacity:1.0000; 
stroke:#000000; stroke-width:0.0000; stroke-opacity:1; 
stroke-linecap:round; stroke-linejoin:round;">
<path style="fill:#000000; fill-opacity:1.0000; 
stroke:#000000; stroke-width:0.0000; stroke-opacity:1; 
stroke-linecap:round; stroke-linejoin:round;fill-rule:evenodd;"
d="M 11.1406,44.4034
11.1254,44.4799
11.0820,44.5448
11.0171,44.5882
10.9406,44.6034
10.5406,44.6034
10.4641,44.5882
10.3992,44.5448
10.3558,44.4799
10.3406,44.4034
10.3406,43.8534
10.3558,43.7769
10.3992,43.7120
10.4641,43.6686
10.5406,43.6534
10.9406,43.6534
11.0171,43.6686
11.0820,43.7120
11.1254,43.7769
11.1406,43.8534
Z" /> 
<path style="fill:#000000; fill-opacity:1.0000; 
stroke:#000000; stroke-width:0.0000; stroke-opacity:1; 
stroke-linecap:round; stroke-linejoin:round;fill-rule:evenodd;"
d="M 9.4906,44.4034
9.4754,44.4799
9.4320,44.5448
9.3671,44.5882
9.2906,44.6034
8.8906,44.6034
8.8141,44.5882
8.7492,44.5448
8.7058,44.4799
8.6906,44.4034
8.6906,43.8534
8.7058,43.7769
8.7492,43.7120
8.8141,43.6686
8.8906,43.6534
9.2906,43.6534
9.3671,43.6686
9.4320,43.7120
9.4754,43.7769
9.4906,43.8534
Z" /> 
</g>
<g >
</g>
<g style="fill:#000000; fill-opacity:1.0000; 
stroke:#000000; stroke-width:0.0000; stroke-opacity:1; 
stroke-linecap:round; stroke-linejoin:round;">
<path style="fill:#000000; fill-opacity:1.0000; 
stroke:#000000; stroke-width:0.0000; stroke-opacity:1; 
stroke-linecap:round; stroke-linejoin:round;fill-rule:evenodd;"
d="M 18.0730,37.9620
17.9869,37.9449
17.9139,37.8961
17.8651,37.8231
17.8480,37.7370
17.8480,37.2870
17.8651,37.2009
17.9139,37.1279
17.9869,37.0791
18.0730,37.0620
18.5730,37.0620
18.6591,37.0791
18.7321,37.1279
18.7809,37.2009
18.7980,37.2870
18.7980,37.7370
18.7809,37.8231
18.7321,37.8961
18.6591,37.9449
18.5730,37.9620
Z" /> 
<path style="fill:#000000; fill-opacity:1.0000; 
stroke:#000000; stroke-width:0.0000; stroke-opacity:1; 
stroke-linecap:round; stroke-linejoin:round;fill-rule:evenodd;"
d="M 18.0730,36.4120
17.9869,36.3949
17.9139,36.3461
17.8651,36.2731
17.8480,36.1870
17.8480,35.7370
17.8651,35.6509
17.9139,35.5779
17.9869,35.5291
18.0730,35.5120
18.5730,35.5120
18.6591,35.5291
18.7321,35.5779
18.7809,35.6509
18.7980,35.7370
18.7980,36.1870
18.7809,36.2731
18.7321,36.3461
18.6591,36.3949
18.5730,36.4120
Z" /> 
</g>
<g >
</g>
<g style="fill:#000000; fill-opacity:1.0000; 
stroke:#000000; stroke-width:0.0000; stroke-opacity:1; 
stroke-linecap:round; stroke-linejoin:round;">
<path style="fill:#000000; fill-opacity:1.0000; 
stroke:#000000; stroke-width:0.0000; stroke-opacity:1; 
stroke-linecap:round; stroke-linejoin:round;fill-rule:evenodd;"
d="M 17.2250,42.9640
17.2421,42.8779
17.2909,42.8049
17.3639,42.7561
17.4500,42.7390
17.9000,42.7390
17.9861,42.7561
18.0591,42.8049
18.1079,42.8779
18.1250,42.9640
18.1250,43.4640
18.1079,43.5501
18.0591,43.6231
17.9861,43.6719
17.9000,43.6890
17.4500,43.6890
17.3639,43.6719
17.2909,43.6231
17.2421,43.5501
17.2250,43.4640
Z" /> 
<path style="fill:#000000; fill-opacity:1.0000; 
stroke:#000000; stroke-width:0.0000; stroke-opacity:1; 
stroke-linecap:round; stroke-linejoin:round;fill-rule:evenodd;"
d="M 18.7750,42.9640
18.7921,42.8779
18.8409,42.8049
18.9139,42.7561
19.0000,42.7390
19.4500,42.7390
19.5361,42.7561
19.6091,42.8049
19.6579,42.8779
19.6750,42.9640
19.6750,43.4640
19.6579,43.5501
19.6091,43.6231
19.5361,43.6719
19.4500,43.6890
19.0000,43.6890
18.9139,43.6719
18.8409,43.6231
18.7921,43.5501
18.7750,43.4640
Z" /> 
</g>
<g >
</g>
<g style="fill:#000000; fill-opacity:1.0000; 
stroke:#000000; stroke-width:0.0000; stroke-opacity:1; 
stroke-linecap:round; stroke-linejoin:round;">
<path style="fill:#000000; fill-opacity:1.0000; 
stroke:#000000; stroke-width:0.0000; stroke-opacity:1; 
stroke-linecap:round; stroke-linejoin:round;fill-rule:evenodd;"
d="M 28.3110,26.3190
28.2939,26.4051
28.2451,26.4781
28.1721,26.5269
28.0860,26.5440
27.6360,26.5440
27.5499,26.5269
27.4769,26.4781
27.4281,26.4051
27.4110,26.3190
27.4110,25.8190
27.4281,25.7329
27.4769,25.6599
27.5499,25.6111
27.6360,25.5940
28.0860,25.5940
28.1721,25.6111
28.2451,25.6599
28.2939,25.7329
28.3110,25.8190
Z" /> 
<path style="fill:#000000; fill-opacity:1.0000; 
stroke:#000000; stroke-width:0.0000; stroke-opacity:1; 
stroke-linecap:round; stroke-linejoin:round;fill-rule:evenodd;"
d="M 26.7610,26.3190
26.7439,26.4051
26.6951,26.4781
26.6221,26.5269
26.5360,26.5440
26.0860,26.5440
25.9999,26.5269
25.9269,26.4781
25.8781,26.4051
25.8610,26.3190
25.8610,25.8190
25.8781,25.7329
25.9269,25.6599
25.9999,25.6111
26.0860,25.5940
26.5360,25.5940
26.6221,25.6111
26.6951,25.6599
26.7439,25.7329
26.7610,25.8190
Z" /> 
</g>
<g >
</g>
<g style="fill:#000000; fill-opacity:1.0000; 
stroke:#000000; stroke-width:0.0000; stroke-opacity:1; 
stroke-linecap:round; stroke-linejoin:round;">
<path style="fill:#000000; fill-opacity:1.0000; 
stroke:#000000; stroke-width:0.0000; stroke-opacity:1; 
stroke-linecap:round; stroke-linejoin:round;fill-rule:evenodd;"
d="M 29.8760,17.6050
29.9621,17.6221
30.0351,17.6709
30.0839,17.7439
30.1010,17.8300
30.1010,18.2800
30.0839,18.3661
30.0351,18.4391
29.9621,18.4879
29.8760,18.5050
29.3760,18.5050
29.2899,18.4879
29.2169,18.4391
29.1681,18.3661
29.1510,18.2800
29.1510,17.8300
29.1681,17.7439
29.2169,17.6709
29.2899,17.6221
29.3760,17.6050
Z" /> 
<path style="fill:#000000; fill-opacity:1.0000; 
stroke:#000000; stroke-width:0.0000; stroke-opacity:1; 
stroke-linecap:round; stroke-linejoin:round;fill-rule:evenodd;"
d="M 29.8760,19.1550
29.9621,19.1721
30.0351,19.2209
30.0839,19.2939
30.1010,19.3800
30.1010,19.8300
30.0839,19.9161
30.0351,19.9891
29.9621,20.0379
29.8760,20.0550
29.3760,20.0550
29.2899,20.0379
29.2169,19.9891
29.1681,19.9161
29.1510,19.8300
29.1510,19.3800
29.1681,19.2939
29.2169,19.2209
29.2899,19.1721
29.3760,19.1550
Z" /> 
</g>
<g >
</g>
<g style="fill:#000000; fill-opacity:1.0000; 
stroke:#000000; stroke-width:0.0000; stroke-opacity:1; 
stroke-linecap:round; stroke-linejoin:round;">
<path style="fill:#000000; fill-opacity:1.0000; 
stroke:#000000; stroke-width:0.0000; stroke-opacity:1; 
stroke-linecap:round; stroke-linejoin:round;fill-rule:evenodd;"
d="M 18.7986,64.6162
18.7796,64.7119
18.7254,64.7930
18.6443,64.8472
18.5486,64.8662
17.7986,64.8662
17.7029,64.8472
17.6218,64.7930
17.5676,64.7119
17.5486,64.6162
17.5486,63.3662
17.5676,63.2705
17.6218,63.1894
17.7029,63.1352
17.7986,63.1162
18.5486,63.1162
18.6443,63.1352
18.7254,63.1894
18.7796,63.2705
18.7986,63.3662
Z" /> 
<path style="fill:#000000; fill-opacity:1.0000; 
stroke:#000000; stroke-width:0.0000; stroke-opacity:1; 
stroke-linecap:round; stroke-linejoin:round;fill-rule:evenodd;"
d="M 15.9986,64.6162
15.9796,64.7119
15.9254,64.7930
15.8443,64.8472
15.7486,64.8662
14.9986,64.8662
14.9029,64.8472
14.8218,64.7930
14.7676,64.7119
14.7486,64.6162
14.7486,63.3662
14.7676,63.2705
14.8218,63.1894
14.9029,63.1352
14.9986,63.1162
15.7486,63.1162
15.8443,63.1352
15.9254,63.1894
15.9796,63.2705
15.9986,63.3662
Z" /> 
</g>
<g >
</g>
<g style="fill:#000000; fill-opacity:1.0000; 
stroke:#000000; stroke-width:0.0000; stroke-opacity:1; 
stroke-linecap:round; stroke-linejoin:round;">
<path style="fill:#000000; fill-opacity:1.0000; 
stroke:#000000; stroke-width:0.0000; stroke-opacity:1; 
stroke-linecap:round; stroke-linejoin:round;fill-rule:evenodd;"
d="M 21.9500,13.0000
18.5500,13.0000
18.5500,11.7000
21.9500,11.7000
Z" /> 
<path style="fill:#000000; fill-opacity:1.0000; 
stroke:#000000; stroke-width:0.0000; stroke-opacity:1; 
stroke-linecap:round; stroke-linejoin:round;fill-rule:evenodd;"
d="M 21.9500,4.3000
18.5500,4.3000
18.5500,3.0000
21.9500,3.0000
Z" /> 
</g>
<g >
</g>
<g style="fill:#000000; fill-opacity:1.0000; 
stroke:#000000; stroke-width:0.0000; stroke-opacity:1; 
stroke-linecap:round; stroke-linejoin:round;">
<path style="fill:#000000; fill-opacity:1.0000; 
stroke:#000000; stroke-width:0.0000; stroke-opacity:1; 
stroke-linecap:round; stroke-linejoin:round;fill-rule:evenodd;"
d="M 28.5580,56.8180
28.5580,58.8180
27.0580,58.8180
27.0580,56.8180
Z" /> 
<path style="fill:#000000; fill-opacity:1.0000; 
stroke:#000000; stroke-width:0.0000; stroke-opacity:1; 
stroke-linecap:round; stroke-linejoin:round;fill-rule:evenodd;"
d="M 14.6680,56.8180
14.6680,58.8180
13.1680,58.8180
13.1680,56.8180
Z" /> 
<path style="fill:#000000; fill-opacity:1.0000; 
stroke:#000000; stroke-width:0.0000; stroke-opacity:1; 
stroke-linecap:round; stroke-linejoin:round;fill-rule:evenodd;"
d="M 14.6680,48.6180
14.6680,50.6180
13.1680,50.6180
13.1680,48.6180
Z" /> 
<path style="fill:#000000; fill-opacity:1.0000; 
stroke:#000000; stroke-width:0.0000; stroke-opacity:1; 
stroke-linecap:round; stroke-linejoin:round;fill-rule:evenodd;"
d="M 28.5580,48.6180
28.5580,50.6180
27.0580,50.6180
27.0580,48.6180
Z" /> 
<path style="fill:#000000; fill-opacity:1.0000; 
stroke:#000000; stroke-width:0.0000; stroke-opacity:1; 
stroke-linecap:round; stroke-linejoin:round;fill-rule:evenodd;"
d="M 18.0380,55.0180
18.0380,56.2180
17.2380,56.2180
17.2380,55.0180
Z" /> 
<path style="fill:#000000; fill-opacity:1.0000; 
stroke:#000000; stroke-width:0.0000; stroke-opacity:1; 
stroke-linecap:round; stroke-linejoin:round;fill-rule:evenodd;"
d="M 19.1380,55.0180
19.1380,56.2180
18.3380,56.2180
18.3380,55.0180
Z" /> 
<path style="fill:#000000; fill-opacity:1.0000; 
stroke:#000000; stroke-width:0.0000; stroke-opacity:1; 
stroke-linecap:round; stroke-linejoin:round;fill-rule:evenodd;"
d="M 20.2380,55.0180
20.2380,56.2180
19.4380,56.2180
19.4380,55.0180
Z" /> 
<path style="fill:#000000; fill-opacity:1.0000; 
stroke:#000000; stroke-width:0.0000; stroke-opacity:1; 
stroke-linecap:round; stroke-linejoin:round;fill-rule:evenodd;"
d="M 21.3380,55.0180
21.3380,56.2180
20.5380,56.2180
20.5380,55.0180
Z" /> 
<path style="fill:#000000; fill-opacity:1.0000; 
stroke:#000000; stroke-width:0.0000; stroke-opacity:1; 
stroke-linecap:round; stroke-linejoin:round;fill-rule:evenodd;"
d="M 22.4380,55.0180
22.4380,56.2180
21.6380,56.2180
21.6380,55.0180
Z" /> 
<path style="fill:#000000; fill-opacity:1.0000; 
stroke:#000000; stroke-width:0.0000; stroke-opacity:1; 
stroke-linecap:round; stroke-linejoin:round;fill-rule:evenodd;"
d="M 23.5380,55.0180
23.5380,56.2180
22.7380,56.2180
22.7380,55.0180
Z" /> 
<path style="fill:#000000; fill-opacity:1.0000; 
stroke:#000000; stroke-width:0.0000; stroke-opacity:1; 
stroke-linecap:round; stroke-linejoin:round;fill-rule:evenodd;"
d="M 24.6380,55.0180
24.6380,56.2180
23.8380,56.2180
23.8380,55.0180
Z" /> 
<path style="fill:#000000; fill-opacity:1.0000; 
stroke:#000000; stroke-width:0.0000; stroke-opacity:1; 
stroke-linecap:round; stroke-linejoin:round;fill-rule:evenodd;"
d="M 25.7380,55.0180
25.7380,56.2180
24.9380,56.2180
24.9380,55.0180
Z" /> 
</g>
<g >
</g>
<g style="fill:#000000; fill-opacity:1.0000; 
stroke:#000000; stroke-width:0.0000; stroke-opacity:1; 
stroke-linecap:round; stroke-linejoin:round;">
<path style="fill:#000000; fill-opacity:1.0000; 
stroke:#000000; stroke-width:0.0000; stroke-opacity:1; 
stroke-linecap:round; stroke-linejoin:round;fill-rule:evenodd;"
d="M 33.1500,70.2375
33.1319,70.3284
33.0804,70.4054
33.0034,70.4569
32.9125,70.4750
32.4125,70.4750
32.3216,70.4569
32.2446,70.4054
32.1931,70.3284
32.1750,70.2375
32.1750,69.7625
32.1931,69.6716
32.2446,69.5946
32.3216,69.5431
32.4125,69.5250
32.9125,69.5250
33.0034,69.5431
33.0804,69.5946
33.1319,69.6716
33.1500,69.7625
Z" /> 
<path style="fill:#000000; fill-opacity:1.0000; 
stroke:#000000; stroke-width:0.0000; stroke-opacity:1; 
stroke-linecap:round; stroke-linejoin:round;fill-rule:evenodd;"
d="M 31.3250,70.2375
31.3069,70.3284
31.2554,70.4054
31.1784,70.4569
31.0875,70.4750
30.5875,70.4750
30.4966,70.4569
30.4196,70.4054
30.3681,70.3284
30.3500,70.2375
30.3500,69.7625
30.3681,69.6716
30.4196,69.5946
30.4966,69.5431
30.5875,69.5250
31.0875,69.5250
31.1784,69.5431
31.2554,69.5946
31.3069,69.6716
31.3250,69.7625
Z" /> 
</g>
<g >
</g>
<g style="fill:#000000; fill-opacity:1.0000; 
stroke:#000000; stroke-width:0.0000; stroke-opacity:1; 
stroke-linecap:round; stroke-linejoin:round;">
<path style="fill:#000000; fill-opacity:1.0000; 
stroke:#000000; stroke-width:0.0000; stroke-opacity:1; 
stroke-linecap:round; stroke-linejoin:round;fill-rule:evenodd;"
d="M 33.1500,74.2375
33.1319,74.3284
33.0804,74.4054
33.0034,74.4569
32.9125,74.4750
32.4125,74.4750
32.3216,74.4569
32.2446,74.4054
32.1931,74.3284
32.1750,74.2375
32.1750,73.7625
32.1931,73.6716
32.2446,73.5946
32.3216,73.5431
32.4125,73.5250
32.9125,73.5250
33.0034,73.5431
33.0804,73.5946
33.1319,73.6716
33.1500,73.7625
Z" /> 
<path style="fill:#000000; fill-opacity:1.0000; 
stroke:#000000; stroke-width:0.0000; stroke-opacity:1; 
stroke-linecap:round; stroke-linejoin:round;fill-rule:evenodd;"
d="M 31.3250,74.2375
31.3069,74.3284
31.2554,74.4054
31.1784,74.4569
31.0875,74.4750
30.5875,74.4750
30.4966,74.4569
30.4196,74.4054
30.3681,74.3284
30.3500,74.2375
30.3500,73.7625
30.3681,73.6716
30.4196,73.5946
30.4966,73.5431
30.5875,73.5250
31.0875,73.5250
31.1784,73.5431
31.2554,73.5946
31.3069,73.6716
31.3250,73.7625
Z" /> 
</g>
<g >
</g>
<g style="fill:#000000; fill-opacity:1.0000; 
stroke:#000000; stroke-width:0.0000; stroke-opacity:1; 
stroke-linecap:round; stroke-linejoin:round;">
<path style="fill:#000000; fill-opacity:1.0000; 
stroke:#000000; stroke-width:0.0000; stroke-opacity:1; 
stroke-linecap:round; stroke-linejoin:round;fill-rule:evenodd;"
d="M 26.8530,41.7750
26.9295,41.7902
26.9944,41.8336
27.0378,41.8985
27.0530,41.9750
27.0530,42.3750
27.0378,42.4515
26.9944,42.5164
26.9295,42.5598
26.8530,42.5750
26.3030,42.5750
26.2265,42.5598
26.1616,42.5164
26.1182,42.4515
26.1030,42.3750
26.1030,41.9750
26.1182,41.8985
26.1616,41.8336
26.2265,41.7902
26.3030,41.7750
Z" /> 
<path style="fill:#000000; fill-opacity:1.0000; 
stroke:#000000; stroke-width:0.0000; stroke-opacity:1; 
stroke-linecap:round; stroke-linejoin:round;fill-rule:evenodd;"
d="M 26.8530,43.4250
26.9295,43.4402
26.9944,43.4836
27.0378,43.5485
27.0530,43.6250
27.0530,44.0250
27.0378,44.1015
26.9944,44.1664
26.9295,44.2098
26.8530,44.2250
26.3030,44.2250
26.2265,44.2098
26.1616,44.1664
26.1182,44.1015
26.1030,44.0250
26.1030,43.6250
26.1182,43.5485
26.1616,43.4836
26.2265,43.4402
26.3030,43.4250
Z" /> 
</g>
<g >
</g>
<g >
</g>
<g style="fill:#000000; fill-opacity:1.0000; 
stroke:#000000; stroke-width:0.0000; stroke-opacity:1; 
stroke-linecap:round; stroke-linejoin:round;">
<path style="fill:#000000; fill-opacity:1.0000; 
stroke:#000000; stroke-width:0.0000; stroke-opacity:1; 
stroke-linecap:round; stroke-linejoin:round;fill-rule:evenodd;"
d="M 20.9080,26.3270
20.9251,26.2409
20.9739,26.1679
21.0469,26.1191
21.1330,26.1020
21.5830,26.1020
21.6691,26.1191
21.7421,26.1679
21.7909,26.2409
21.8080,26.3270
21.8080,26.8270
21.7909,26.9131
21.7421,26.9861
21.6691,27.0349
21.5830,27.0520
21.1330,27.0520
21.0469,27.0349
20.9739,26.9861
20.9251,26.9131
20.9080,26.8270
Z" /> 
<path style="fill:#000000; fill-opacity:1.0000; 
stroke:#000000; stroke-width:0.0000; stroke-opacity:1; 
stroke-linecap:round; stroke-linejoin:round;fill-rule:evenodd;"
d="M 22.4580,26.3270
22.4751,26.2409
22.5239,26.1679
22.5969,26.1191
22.6830,26.1020
23.1330,26.1020
23.2191,26.1191
23.2921,26.1679
23.3409,26.2409
23.3580,26.3270
23.3580,26.8270
23.3409,26.9131
23.2921,26.9861
23.2191,27.0349
23.1330,27.0520
22.6830,27.0520
22.5969,27.0349
22.5239,26.9861
22.4751,26.9131
22.4580,26.8270
Z" /> 
</g>
<g >
</g>
<g style="fill:#000000; fill-opacity:1.0000; 
stroke:#000000; stroke-width:0.0000; stroke-opacity:1; 
stroke-linecap:round; stroke-linejoin:round;">
<path style="fill:#000000; fill-opacity:1.0000; 
stroke:#000000; stroke-width:0.0000; stroke-opacity:1; 
stroke-linecap:round; stroke-linejoin:round;fill-rule:evenodd;"
d="M 34.0126,54.2608
34.1083,54.2798
34.1894,54.3340
34.2436,54.4151
34.2626,54.5108
34.2626,55.0108
34.2436,55.1065
34.1894,55.1876
34.1083,55.2418
34.0126,55.2608
33.0626,55.2608
32.9669,55.2418
32.8858,55.1876
32.8316,55.1065
32.8126,55.0108
32.8126,54.5108
32.8316,54.4151
32.8858,54.3340
32.9669,54.2798
33.0626,54.2608
Z" /> 
<path style="fill:#000000; fill-opacity:1.0000; 
stroke:#000000; stroke-width:0.0000; stroke-opacity:1; 
stroke-linecap:round; stroke-linejoin:round;fill-rule:evenodd;"
d="M 34.0126,56.1608
34.1083,56.1798
34.1894,56.2340
34.2436,56.3151
34.2626,56.4108
34.2626,56.9108
34.2436,57.0065
34.1894,57.0876
34.1083,57.1418
34.0126,57.1608
33.0626,57.1608
32.9669,57.1418
32.8858,57.0876
32.8316,57.0065
32.8126,56.9108
32.8126,56.4108
32.8316,56.3151
32.8858,56.2340
32.9669,56.1798
33.0626,56.1608
Z" /> 
</g>
<g >
</g>
<g >
</g>
<g >
</g>
</g>
<g style="fill:#000000; fill-opacity:1.0000; 
stroke:#000000; stroke-width:0.0000; stroke-opacity:1; 
stroke-linecap:round; stroke-linejoin:round;">
</g>
<g style="fill:#000000; fill-opacity:0.0; 
stroke:#000000; stroke-width:0.1000; stroke-opacity:1; 
stroke-linecap:round; stroke-linejoin:round;">
<path style="fill:#000000; fill-opacity:0.0; 
stroke:#000000; stroke-width:0.1000; stroke-opacity:1; 
stroke-linecap:round; stroke-linejoin:round;fill:none"
d="M 4.0000,1.7500
44.0000,1.7500
44.0000,76.7500
4.0000,76.7500
Z" /> 
<g >
</g>
<g >
</g>
<g >
</g>
<g >
</g>
<g >
</g>
<g >
</g>
<g >
</g>
<g >
</g>
<g >
</g>
<g >
</g>
<g >
</g>
<g >
</g>
<g >
</g>
<g >
</g>
<g >
</g>
<g >
</g>
<g >
</g>
<g >
</g>
<g >
</g>
<g >
</g>
<g >
</g>
<g >
</g>
<g >
</g>
<g >
</g>
<g >
</g>
<g >
</g>
<g >
</g>
<g >
</g>
<g >
</g>
<g >
</g>
<g >
</g>
<g >
</g>
<g >
</g>
<g >
</g>
<g >
</g>
<g >
</g>
<g >
</g>
<g >
</g>
<g >
</g>
<g >
</g>
<g >
</g>
<g >
</g>
<g >
</g>
<g >
</g>
<g >
</g>
<g >
</g>
<g >
</g>
<g >
</g>
<g >
</g>
<g >
</g>
<g >
</g>
<g >
</g>
<g >
</g>
<g >
</g>
<g >
</g>
<g >
</g>
<g >
</g>
<g >
</g>
<g >
</g>
<g >
</g>
<g >
</g>
<g >
</g>
<g >
</g>
<g >
</g>
<g >
</g>
<g >
</g>
<g >
</g>
<g >
</g>
<g >
</g>
<g >
</g>
<g >
</g>
<g >
</g>
<g >
</g>
<g >
</g>
<g >
</g>
<g >
</g>
<g >
</g>
<g >
</g>
<g >
</g>
<g >
</g>
<g >
</g>
<g >
</g>
<g >
</g>
<g >
</g>
<g >
</g>
</g> 
</svg>
